solid ASCII
  facet normal -2.319966e-01 4.716900e-01 -8.506974e-01
    outer loop
      vertex   -3.000000e+00 6.201912e+00 -1.092435e+01
      vertex   -3.000000e+00 6.065476e+00 -1.100000e+01
      vertex   -3.046501e+00 6.192356e+00 -1.091697e+01
    endloop
  endfacet
  facet normal -2.348272e-01 4.705556e-01 -8.505490e-01
    outer loop
      vertex   -3.046501e+00 6.192356e+00 -1.091697e+01
      vertex   -3.000000e+00 6.065476e+00 -1.100000e+01
      vertex   -3.043121e+00 6.043957e+00 -1.100000e+01
    endloop
  endfacet
  facet normal -2.353049e-01 4.704908e-01 -8.504528e-01
    outer loop
      vertex   -3.046501e+00 6.192356e+00 -1.091697e+01
      vertex   -3.043121e+00 6.043957e+00 -1.100000e+01
      vertex   -3.127230e+00 6.151981e+00 -1.091697e+01
    endloop
  endfacet
  facet normal -2.380304e-01 4.685917e-01 -8.507428e-01
    outer loop
      vertex   -3.127230e+00 6.151981e+00 -1.091697e+01
      vertex   -3.043121e+00 6.043957e+00 -1.100000e+01
      vertex   -3.086088e+00 6.022131e+00 -1.100000e+01
    endloop
  endfacet
  facet normal -2.414234e-01 4.673441e-01 -8.504730e-01
    outer loop
      vertex   -3.127230e+00 6.151981e+00 -1.091697e+01
      vertex   -3.086088e+00 6.022131e+00 -1.100000e+01
      vertex   -3.207424e+00 6.110554e+00 -1.091697e+01
    endloop
  endfacet
  facet normal -2.415361e-01 4.672222e-01 -8.505079e-01
    outer loop
      vertex   -3.207424e+00 6.110554e+00 -1.091697e+01
      vertex   -3.086088e+00 6.022131e+00 -1.100000e+01
      vertex   -3.128898e+00 6.000000e+00 -1.100000e+01
    endloop
  endfacet
  facet normal -2.459255e-01 4.643436e-01 -8.508264e-01
    outer loop
      vertex   -3.207424e+00 6.110554e+00 -1.091697e+01
      vertex   -3.128898e+00 6.000000e+00 -1.100000e+01
      vertex   -3.275602e+00 6.000000e+00 -1.095760e+01
    endloop
  endfacet
  facet normal -2.584442e-01 4.558763e-01 -8.516944e-01
    outer loop
      vertex   -3.421733e+00 6.000000e+00 -1.091325e+01
      vertex   -3.366152e+00 6.024571e+00 -1.091697e+01
      vertex   -3.275602e+00 6.000000e+00 -1.095760e+01
    endloop
  endfacet
  facet normal -2.550017e-01 4.634818e-01 -8.486217e-01
    outer loop
      vertex   -3.275602e+00 6.000000e+00 -1.095760e+01
      vertex   -3.366152e+00 6.024571e+00 -1.091697e+01
      vertex   -3.287069e+00 6.068081e+00 -1.091697e+01
    endloop
  endfacet
  facet normal -2.481163e-01 4.652739e-01 -8.496814e-01
    outer loop
      vertex   -3.275602e+00 6.000000e+00 -1.095760e+01
      vertex   -3.287069e+00 6.068081e+00 -1.091697e+01
      vertex   -3.207424e+00 6.110554e+00 -1.091697e+01
    endloop
  endfacet
  facet normal -2.522152e-01 4.729603e-01 -8.442133e-01
    outer loop
      vertex   -3.207424e+00 6.110554e+00 -1.091697e+01
      vertex   -3.287069e+00 6.068081e+00 -1.091697e+01
      vertex   -3.350580e+00 6.185325e+00 -1.083231e+01
    endloop
  endfacet
  facet normal -2.522152e-01 4.729603e-01 -8.442133e-01
    outer loop
      vertex   -3.207424e+00 6.110554e+00 -1.091697e+01
      vertex   -3.350580e+00 6.185325e+00 -1.083231e+01
      vertex   -3.269396e+00 6.228619e+00 -1.083231e+01
    endloop
  endfacet
  facet normal -2.570229e-01 4.819757e-01 -8.376387e-01
    outer loop
      vertex   -3.269396e+00 6.228619e+00 -1.083231e+01
      vertex   -3.350580e+00 6.185325e+00 -1.083231e+01
      vertex   -3.413597e+00 6.301657e+00 -1.074604e+01
    endloop
  endfacet
  facet normal -2.570229e-01 4.819757e-01 -8.376387e-01
    outer loop
      vertex   -3.269396e+00 6.228619e+00 -1.083231e+01
      vertex   -3.413597e+00 6.301657e+00 -1.074604e+01
      vertex   -3.330885e+00 6.345764e+00 -1.074604e+01
    endloop
  endfacet
  facet normal -2.617926e-01 4.909201e-01 -8.309405e-01
    outer loop
      vertex   -3.330885e+00 6.345764e+00 -1.074604e+01
      vertex   -3.413597e+00 6.301657e+00 -1.074604e+01
      vertex   -3.476109e+00 6.417058e+00 -1.065816e+01
    endloop
  endfacet
  facet normal -2.617926e-01 4.909201e-01 -8.309405e-01
    outer loop
      vertex   -3.330885e+00 6.345764e+00 -1.074604e+01
      vertex   -3.476109e+00 6.417058e+00 -1.065816e+01
      vertex   -3.391883e+00 6.461973e+00 -1.065816e+01
    endloop
  endfacet
  facet normal -2.665237e-01 4.997920e-01 -8.241196e-01
    outer loop
      vertex   -3.391883e+00 6.461973e+00 -1.065816e+01
      vertex   -3.476109e+00 6.417058e+00 -1.065816e+01
      vertex   -3.538108e+00 6.531511e+00 -1.056870e+01
    endloop
  endfacet
  facet normal -2.665237e-01 4.997920e-01 -8.241196e-01
    outer loop
      vertex   -3.391883e+00 6.461973e+00 -1.065816e+01
      vertex   -3.538108e+00 6.531511e+00 -1.056870e+01
      vertex   -3.452380e+00 6.577227e+00 -1.056870e+01
    endloop
  endfacet
  facet normal -2.712155e-01 5.085900e-01 -8.171771e-01
    outer loop
      vertex   -3.452380e+00 6.577227e+00 -1.056870e+01
      vertex   -3.538108e+00 6.531511e+00 -1.056870e+01
      vertex   -3.599586e+00 6.645001e+00 -1.047766e+01
    endloop
  endfacet
  facet normal -2.712155e-01 5.085900e-01 -8.171771e-01
    outer loop
      vertex   -3.452380e+00 6.577227e+00 -1.056870e+01
      vertex   -3.599586e+00 6.645001e+00 -1.047766e+01
      vertex   -3.512368e+00 6.691511e+00 -1.047766e+01
    endloop
  endfacet
  facet normal -2.758672e-01 5.173130e-01 -8.101139e-01
    outer loop
      vertex   -3.512368e+00 6.691511e+00 -1.047766e+01
      vertex   -3.599586e+00 6.645001e+00 -1.047766e+01
      vertex   -3.660531e+00 6.757509e+00 -1.038506e+01
    endloop
  endfacet
  facet normal -2.758672e-01 5.173130e-01 -8.101139e-01
    outer loop
      vertex   -3.512368e+00 6.691511e+00 -1.047766e+01
      vertex   -3.660531e+00 6.757509e+00 -1.038506e+01
      vertex   -3.571837e+00 6.804807e+00 -1.038506e+01
    endloop
  endfacet
  facet normal -2.804782e-01 5.259597e-01 -8.029311e-01
    outer loop
      vertex   -3.571837e+00 6.804807e+00 -1.038506e+01
      vertex   -3.660531e+00 6.757509e+00 -1.038506e+01
      vertex   -3.720937e+00 6.869021e+00 -1.029092e+01
    endloop
  endfacet
  facet normal -2.804782e-01 5.259597e-01 -8.029311e-01
    outer loop
      vertex   -3.571837e+00 6.804807e+00 -1.038506e+01
      vertex   -3.720937e+00 6.869021e+00 -1.029092e+01
      vertex   -3.630779e+00 6.917099e+00 -1.029092e+01
    endloop
  endfacet
  facet normal -2.845831e-01 5.336573e-01 -7.963807e-01
    outer loop
      vertex   -3.630779e+00 6.917099e+00 -1.029092e+01
      vertex   -3.720937e+00 6.869021e+00 -1.029092e+01
      vertex   -3.717675e+00 7.000000e+00 -1.020431e+01
    endloop
  endfacet
  facet normal -2.808746e-01 5.367491e-01 -7.956192e-01
    outer loop
      vertex   -3.630779e+00 6.917099e+00 -1.029092e+01
      vertex   -3.717675e+00 7.000000e+00 -1.020431e+01
      vertex   -3.575441e+00 7.000000e+00 -1.025453e+01
    endloop
  endfacet
  facet normal -2.684660e-01 4.637355e-01 -8.443195e-01
    outer loop
      vertex   -3.567263e+00 6.000000e+00 -1.086698e+01
      vertex   -3.511215e+00 6.095573e+00 -1.083231e+01
      vertex   -3.421733e+00 6.000000e+00 -1.091325e+01
    endloop
  endfacet
  facet normal -2.648050e-01 4.667401e-01 -8.438199e-01
    outer loop
      vertex   -3.421733e+00 6.000000e+00 -1.091325e+01
      vertex   -3.511215e+00 6.095573e+00 -1.083231e+01
      vertex   -3.431191e+00 6.140974e+00 -1.083231e+01
    endloop
  endfacet
  facet normal -2.629044e-01 4.670958e-01 -8.442173e-01
    outer loop
      vertex   -3.421733e+00 6.000000e+00 -1.091325e+01
      vertex   -3.431191e+00 6.140974e+00 -1.083231e+01
      vertex   -3.366152e+00 6.024571e+00 -1.091697e+01
    endloop
  endfacet
  facet normal -2.583795e-01 4.696211e-01 -8.442133e-01
    outer loop
      vertex   -3.366152e+00 6.024571e+00 -1.091697e+01
      vertex   -3.431191e+00 6.140974e+00 -1.083231e+01
      vertex   -3.287069e+00 6.068081e+00 -1.091697e+01
    endloop
  endfacet
  facet normal -2.937176e-01 3.659518e-01 -8.830681e-01
    outer loop
      vertex   -3.712168e+00 6.000000e+00 -1.081878e+01
      vertex   -3.669448e+00 6.001649e+00 -1.083231e+01
      vertex   -3.567263e+00 6.000000e+00 -1.086698e+01
    endloop
  endfacet
  facet normal -2.782820e-01 4.619110e-01 -8.421386e-01
    outer loop
      vertex   -3.567263e+00 6.000000e+00 -1.086698e+01
      vertex   -3.669448e+00 6.001649e+00 -1.083231e+01
      vertex   -3.590639e+00 6.049128e+00 -1.083231e+01
    endloop
  endfacet
  facet normal -2.719850e-01 4.651146e-01 -8.424325e-01
    outer loop
      vertex   -3.567263e+00 6.000000e+00 -1.086698e+01
      vertex   -3.590639e+00 6.049128e+00 -1.083231e+01
      vertex   -3.511215e+00 6.095573e+00 -1.083231e+01
    endloop
  endfacet
  facet normal -2.757320e-01 4.715223e-01 -8.376387e-01
    outer loop
      vertex   -3.511215e+00 6.095573e+00 -1.083231e+01
      vertex   -3.590639e+00 6.049128e+00 -1.083231e+01
      vertex   -3.658170e+00 6.162898e+00 -1.074604e+01
    endloop
  endfacet
  facet normal -2.757320e-01 4.715223e-01 -8.376387e-01
    outer loop
      vertex   -3.511215e+00 6.095573e+00 -1.083231e+01
      vertex   -3.658170e+00 6.162898e+00 -1.074604e+01
      vertex   -3.577253e+00 6.210216e+00 -1.074604e+01
    endloop
  endfacet
  facet normal -2.808489e-01 4.802726e-01 -8.309405e-01
    outer loop
      vertex   -3.577253e+00 6.210216e+00 -1.074604e+01
      vertex   -3.658170e+00 6.162898e+00 -1.074604e+01
      vertex   -3.725162e+00 6.275758e+00 -1.065816e+01
    endloop
  endfacet
  facet normal -2.808489e-01 4.802726e-01 -8.309405e-01
    outer loop
      vertex   -3.577253e+00 6.210216e+00 -1.074604e+01
      vertex   -3.725162e+00 6.275758e+00 -1.065816e+01
      vertex   -3.642762e+00 6.323942e+00 -1.065816e+01
    endloop
  endfacet
  facet normal -2.859244e-01 4.889521e-01 -8.241196e-01
    outer loop
      vertex   -3.642762e+00 6.323942e+00 -1.065816e+01
      vertex   -3.725162e+00 6.275758e+00 -1.065816e+01
      vertex   -3.791603e+00 6.387691e+00 -1.056870e+01
    endloop
  endfacet
  facet normal -2.859244e-01 4.889521e-01 -8.241196e-01
    outer loop
      vertex   -3.642762e+00 6.323942e+00 -1.065816e+01
      vertex   -3.791603e+00 6.387691e+00 -1.056870e+01
      vertex   -3.707734e+00 6.436735e+00 -1.056870e+01
    endloop
  endfacet
  facet normal -2.909577e-01 4.975593e-01 -8.171771e-01
    outer loop
      vertex   -3.707734e+00 6.436735e+00 -1.056870e+01
      vertex   -3.791603e+00 6.387691e+00 -1.056870e+01
      vertex   -3.857485e+00 6.498682e+00 -1.047766e+01
    endloop
  endfacet
  facet normal -2.909577e-01 4.975593e-01 -8.171771e-01
    outer loop
      vertex   -3.707734e+00 6.436735e+00 -1.056870e+01
      vertex   -3.857485e+00 6.498682e+00 -1.047766e+01
      vertex   -3.772159e+00 6.548578e+00 -1.047766e+01
    endloop
  endfacet
  facet normal -2.959480e-01 5.060931e-01 -8.101139e-01
    outer loop
      vertex   -3.772159e+00 6.548578e+00 -1.047766e+01
      vertex   -3.857485e+00 6.498682e+00 -1.047766e+01
      vertex   -3.922797e+00 6.608713e+00 -1.038506e+01
    endloop
  endfacet
  facet normal -2.959480e-01 5.060931e-01 -8.101139e-01
    outer loop
      vertex   -3.772159e+00 6.548578e+00 -1.047766e+01
      vertex   -3.922797e+00 6.608713e+00 -1.038506e+01
      vertex   -3.836026e+00 6.659454e+00 -1.038506e+01
    endloop
  endfacet
  facet normal -3.008946e-01 5.145522e-01 -8.029311e-01
    outer loop
      vertex   -3.836026e+00 6.659454e+00 -1.038506e+01
      vertex   -3.922797e+00 6.608713e+00 -1.038506e+01
      vertex   -3.987530e+00 6.717769e+00 -1.029092e+01
    endloop
  endfacet
  facet normal -3.008946e-01 5.145522e-01 -8.029311e-01
    outer loop
      vertex   -3.836026e+00 6.659454e+00 -1.038506e+01
      vertex   -3.987530e+00 6.717769e+00 -1.029092e+01
      vertex   -3.899328e+00 6.769347e+00 -1.029092e+01
    endloop
  endfacet
  facet normal -3.038509e-01 5.196077e-01 -7.985503e-01
    outer loop
      vertex   -3.899328e+00 6.769347e+00 -1.029092e+01
      vertex   -3.987530e+00 6.717769e+00 -1.029092e+01
      vertex   -4.000000e+00 6.755587e+00 -1.026157e+01
    endloop
  endfacet
  facet normal -3.036273e-01 5.241899e-01 -7.956353e-01
    outer loop
      vertex   -3.899328e+00 6.769347e+00 -1.029092e+01
      vertex   -4.000000e+00 6.755587e+00 -1.026157e+01
      vertex   -3.962053e+00 6.878241e+00 -1.019524e+01
    endloop
  endfacet
  facet normal -3.072755e-01 5.244630e-01 -7.940531e-01
    outer loop
      vertex   -3.962053e+00 6.878241e+00 -1.019524e+01
      vertex   -4.000000e+00 6.755587e+00 -1.026157e+01
      vertex   -4.000000e+00 6.878279e+00 -1.018053e+01
    endloop
  endfacet
  facet normal -3.050560e-01 5.342654e-01 -7.883535e-01
    outer loop
      vertex   -3.962053e+00 6.878241e+00 -1.019524e+01
      vertex   -4.000000e+00 6.878279e+00 -1.018053e+01
      vertex   -4.000000e+00 7.000000e+00 -1.009804e+01
    endloop
  endfacet
  facet normal -2.909596e-01 4.623952e-01 -8.375758e-01
    outer loop
      vertex   -3.856422e+00 6.000000e+00 -1.076867e+01
      vertex   -3.818114e+00 6.065107e+00 -1.074604e+01
      vertex   -3.712168e+00 6.000000e+00 -1.081878e+01
    endloop
  endfacet
  facet normal -2.886585e-01 4.652576e-01 -8.367865e-01
    outer loop
      vertex   -3.712168e+00 6.000000e+00 -1.081878e+01
      vertex   -3.818114e+00 6.065107e+00 -1.074604e+01
      vertex   -3.738462e+00 6.114525e+00 -1.074604e+01
    endloop
  endfacet
  facet normal -2.832369e-01 4.670461e-01 -8.376424e-01
    outer loop
      vertex   -3.712168e+00 6.000000e+00 -1.081878e+01
      vertex   -3.738462e+00 6.114525e+00 -1.074604e+01
      vertex   -3.669448e+00 6.001649e+00 -1.083231e+01
    endloop
  endfacet
  facet normal -2.818754e-01 4.678757e-01 -8.376387e-01
    outer loop
      vertex   -3.669448e+00 6.001649e+00 -1.083231e+01
      vertex   -3.738462e+00 6.114525e+00 -1.074604e+01
      vertex   -3.590639e+00 6.049128e+00 -1.083231e+01
    endloop
  endfacet
  facet normal -2.967803e-01 4.646701e-01 -8.342681e-01
    outer loop
      vertex   -3.818114e+00 6.065107e+00 -1.074604e+01
      vertex   -3.856422e+00 6.000000e+00 -1.076867e+01
      vertex   -3.897112e+00 6.014651e+00 -1.074604e+01
    endloop
  endfacet
  facet normal -3.038647e-01 4.518861e-01 -8.387283e-01
    outer loop
      vertex   -3.897112e+00 6.014651e+00 -1.074604e+01
      vertex   -3.856422e+00 6.000000e+00 -1.076867e+01
      vertex   -4.000000e+00 6.000000e+00 -1.071665e+01
    endloop
  endfacet
  facet normal -3.036756e-01 4.661665e-01 -8.309452e-01
    outer loop
      vertex   -3.897112e+00 6.014651e+00 -1.074604e+01
      vertex   -4.000000e+00 6.000000e+00 -1.071665e+01
      vertex   -3.968479e+00 6.124797e+00 -1.065816e+01
    endloop
  endfacet
  facet normal -3.079412e-01 4.664363e-01 -8.292222e-01
    outer loop
      vertex   -3.968479e+00 6.124797e+00 -1.065816e+01
      vertex   -4.000000e+00 6.000000e+00 -1.071665e+01
      vertex   -4.000000e+00 6.128156e+00 -1.064457e+01
    endloop
  endfacet
  facet normal -3.048010e-01 4.767664e-01 -8.244939e-01
    outer loop
      vertex   -3.968479e+00 6.124797e+00 -1.065816e+01
      vertex   -4.000000e+00 6.128156e+00 -1.064457e+01
      vertex   -4.000000e+00 6.255445e+00 -1.057096e+01
    endloop
  endfacet
  facet normal -3.087577e-01 4.858821e-01 -8.176719e-01
    outer loop
      vertex   -4.000000e+00 6.381851e+00 -1.049585e+01
      vertex   -3.957380e+00 6.286334e+00 -1.056870e+01
      vertex   -4.000000e+00 6.255445e+00 -1.057096e+01
    endloop
  endfacet
  facet normal -3.030696e-01 4.785061e-01 -8.241242e-01
    outer loop
      vertex   -4.000000e+00 6.255445e+00 -1.057096e+01
      vertex   -3.957380e+00 6.286334e+00 -1.056870e+01
      vertex   -3.888034e+00 6.176176e+00 -1.065816e+01
    endloop
  endfacet
  facet normal -3.045602e-01 4.768511e-01 -8.245338e-01
    outer loop
      vertex   -4.000000e+00 6.255445e+00 -1.057096e+01
      vertex   -3.888034e+00 6.176176e+00 -1.065816e+01
      vertex   -3.968479e+00 6.124797e+00 -1.065816e+01
    endloop
  endfacet
  facet normal -2.994729e-01 4.688858e-01 -8.309405e-01
    outer loop
      vertex   -3.968479e+00 6.124797e+00 -1.065816e+01
      vertex   -3.888034e+00 6.176176e+00 -1.065816e+01
      vertex   -3.818114e+00 6.065107e+00 -1.074604e+01
    endloop
  endfacet
  facet normal -2.994729e-01 4.688858e-01 -8.309405e-01
    outer loop
      vertex   -3.968479e+00 6.124797e+00 -1.065816e+01
      vertex   -3.818114e+00 6.065107e+00 -1.074604e+01
      vertex   -3.897112e+00 6.014651e+00 -1.074604e+01
    endloop
  endfacet
  facet normal -3.086865e-01 4.955797e-01 -8.118580e-01
    outer loop
      vertex   -4.000000e+00 6.507355e+00 -1.041924e+01
      vertex   -3.942151e+00 6.447674e+00 -1.047766e+01
      vertex   -4.000000e+00 6.381851e+00 -1.049585e+01
    endloop
  endfacet
  facet normal -3.018347e-01 4.910288e-01 -8.171821e-01
    outer loop
      vertex   -4.000000e+00 6.381851e+00 -1.049585e+01
      vertex   -3.942151e+00 6.447674e+00 -1.047766e+01
      vertex   -3.874823e+00 6.337554e+00 -1.056870e+01
    endloop
  endfacet
  facet normal -3.031915e-01 4.886818e-01 -8.180862e-01
    outer loop
      vertex   -4.000000e+00 6.381851e+00 -1.049585e+01
      vertex   -3.874823e+00 6.337554e+00 -1.056870e+01
      vertex   -3.957380e+00 6.286334e+00 -1.056870e+01
    endloop
  endfacet
  facet normal -2.986155e-01 4.813062e-01 -8.241196e-01
    outer loop
      vertex   -3.957380e+00 6.286334e+00 -1.056870e+01
      vertex   -3.874823e+00 6.337554e+00 -1.056870e+01
      vertex   -3.806923e+00 6.226500e+00 -1.065816e+01
    endloop
  endfacet
  facet normal -2.986155e-01 4.813062e-01 -8.241196e-01
    outer loop
      vertex   -3.957380e+00 6.286334e+00 -1.056870e+01
      vertex   -3.806923e+00 6.226500e+00 -1.065816e+01
      vertex   -3.888034e+00 6.176176e+00 -1.065816e+01
    endloop
  endfacet
  facet normal -2.933147e-01 4.727625e-01 -8.309405e-01
    outer loop
      vertex   -3.888034e+00 6.176176e+00 -1.065816e+01
      vertex   -3.806923e+00 6.226500e+00 -1.065816e+01
      vertex   -3.738462e+00 6.114525e+00 -1.074604e+01
    endloop
  endfacet
  facet normal -2.933147e-01 4.727625e-01 -8.309405e-01
    outer loop
      vertex   -3.888034e+00 6.176176e+00 -1.065816e+01
      vertex   -3.738462e+00 6.114525e+00 -1.074604e+01
      vertex   -3.818114e+00 6.065107e+00 -1.074604e+01
    endloop
  endfacet
  facet normal -3.067473e-01 5.055284e-01 -8.064410e-01
    outer loop
      vertex   -4.000000e+00 6.631940e+00 -1.034114e+01
      vertex   -3.922797e+00 6.608713e+00 -1.038506e+01
      vertex   -4.000000e+00 6.507355e+00 -1.041924e+01
    endloop
  endfacet
  facet normal -3.015216e-01 5.027874e-01 -8.101170e-01
    outer loop
      vertex   -4.000000e+00 6.507355e+00 -1.041924e+01
      vertex   -3.922797e+00 6.608713e+00 -1.038506e+01
      vertex   -3.857485e+00 6.498682e+00 -1.047766e+01
    endloop
  endfacet
  facet normal -3.019541e-01 5.012036e-01 -8.109369e-01
    outer loop
      vertex   -4.000000e+00 6.507355e+00 -1.041924e+01
      vertex   -3.857485e+00 6.498682e+00 -1.047766e+01
      vertex   -3.942151e+00 6.447674e+00 -1.047766e+01
    endloop
  endfacet
  facet normal -2.974404e-01 4.937114e-01 -8.171771e-01
    outer loop
      vertex   -3.942151e+00 6.447674e+00 -1.047766e+01
      vertex   -3.857485e+00 6.498682e+00 -1.047766e+01
      vertex   -3.791603e+00 6.387691e+00 -1.056870e+01
    endloop
  endfacet
  facet normal -2.974404e-01 4.937114e-01 -8.171771e-01
    outer loop
      vertex   -3.942151e+00 6.447674e+00 -1.047766e+01
      vertex   -3.791603e+00 6.387691e+00 -1.056870e+01
      vertex   -3.874823e+00 6.337554e+00 -1.056870e+01
    endloop
  endfacet
  facet normal -2.922949e-01 4.851707e-01 -8.241196e-01
    outer loop
      vertex   -3.874823e+00 6.337554e+00 -1.056870e+01
      vertex   -3.791603e+00 6.387691e+00 -1.056870e+01
      vertex   -3.725162e+00 6.275758e+00 -1.065816e+01
    endloop
  endfacet
  facet normal -2.922949e-01 4.851707e-01 -8.241196e-01
    outer loop
      vertex   -3.874823e+00 6.337554e+00 -1.056870e+01
      vertex   -3.725162e+00 6.275758e+00 -1.065816e+01
      vertex   -3.806923e+00 6.226500e+00 -1.065816e+01
    endloop
  endfacet
  facet normal -2.871064e-01 4.765583e-01 -8.309405e-01
    outer loop
      vertex   -3.806923e+00 6.226500e+00 -1.065816e+01
      vertex   -3.725162e+00 6.275758e+00 -1.065816e+01
      vertex   -3.658170e+00 6.162898e+00 -1.074604e+01
    endloop
  endfacet
  facet normal -2.871064e-01 4.765583e-01 -8.309405e-01
    outer loop
      vertex   -3.806923e+00 6.226500e+00 -1.065816e+01
      vertex   -3.658170e+00 6.162898e+00 -1.074604e+01
      vertex   -3.738462e+00 6.114525e+00 -1.074604e+01
    endloop
  endfacet
  facet normal -2.818754e-01 4.678757e-01 -8.376387e-01
    outer loop
      vertex   -3.738462e+00 6.114525e+00 -1.074604e+01
      vertex   -3.658170e+00 6.162898e+00 -1.074604e+01
      vertex   -3.590639e+00 6.049128e+00 -1.083231e+01
    endloop
  endfacet
  facet normal -3.022851e-01 5.137304e-01 -8.029351e-01
    outer loop
      vertex   -3.922797e+00 6.608713e+00 -1.038506e+01
      vertex   -4.000000e+00 6.631940e+00 -1.034114e+01
      vertex   -3.987530e+00 6.717769e+00 -1.029092e+01
    endloop
  endfacet
  facet normal -3.203597e-01 5.126465e-01 -7.965948e-01
    outer loop
      vertex   -3.987530e+00 6.717769e+00 -1.029092e+01
      vertex   -4.000000e+00 6.631940e+00 -1.034114e+01
      vertex   -4.000000e+00 6.755587e+00 -1.026157e+01
    endloop
  endfacet
  facet normal -3.034760e-01 5.349007e-01 -7.885325e-01
    outer loop
      vertex   -3.962053e+00 6.878241e+00 -1.019524e+01
      vertex   -4.000000e+00 7.000000e+00 -1.009804e+01
      vertex   -3.871754e+00 6.929472e+00 -1.019524e+01
    endloop
  endfacet
  facet normal -3.029522e-01 5.355362e-01 -7.883026e-01
    outer loop
      vertex   -3.871754e+00 6.929472e+00 -1.019524e+01
      vertex   -4.000000e+00 7.000000e+00 -1.009804e+01
      vertex   -3.859203e+00 7.000000e+00 -1.015215e+01
    endloop
  endfacet
  facet normal -2.948137e-01 5.358427e-01 -7.911747e-01
    outer loop
      vertex   -3.871754e+00 6.929472e+00 -1.019524e+01
      vertex   -3.859203e+00 7.000000e+00 -1.015215e+01
      vertex   -3.780793e+00 6.979518e+00 -1.019524e+01
    endloop
  endfacet
  facet normal -2.899718e-01 5.449828e-01 -7.867084e-01
    outer loop
      vertex   -3.780793e+00 6.979518e+00 -1.019524e+01
      vertex   -3.859203e+00 7.000000e+00 -1.015215e+01
      vertex   -3.717675e+00 7.000000e+00 -1.020431e+01
    endloop
  endfacet
  facet normal -2.874434e-01 5.332358e-01 -7.956355e-01
    outer loop
      vertex   -3.780793e+00 6.979518e+00 -1.019524e+01
      vertex   -3.717675e+00 7.000000e+00 -1.020431e+01
      vertex   -3.720937e+00 6.869021e+00 -1.029092e+01
    endloop
  endfacet
  facet normal -2.763491e-01 5.349528e-01 -7.984088e-01
    outer loop
      vertex   -3.630779e+00 6.917099e+00 -1.029092e+01
      vertex   -3.575441e+00 7.000000e+00 -1.025453e+01
      vertex   -3.540000e+00 6.963994e+00 -1.029092e+01
    endloop
  endfacet
  facet normal -2.690853e-01 5.406979e-01 -7.970187e-01
    outer loop
      vertex   -3.540000e+00 6.963994e+00 -1.029092e+01
      vertex   -3.575441e+00 7.000000e+00 -1.025453e+01
      vertex   -3.432530e+00 7.000000e+00 -1.030278e+01
    endloop
  endfacet
  facet normal -2.670354e-01 5.325548e-01 -8.031672e-01
    outer loop
      vertex   -3.540000e+00 6.963994e+00 -1.029092e+01
      vertex   -3.432530e+00 7.000000e+00 -1.030278e+01
      vertex   -3.392630e+00 6.895903e+00 -1.038506e+01
    endloop
  endfacet
  facet normal -2.592741e-01 5.358220e-01 -8.035370e-01
    outer loop
      vertex   -3.392630e+00 6.895903e+00 -1.038506e+01
      vertex   -3.432530e+00 7.000000e+00 -1.030278e+01
      vertex   -3.302149e+00 6.939686e+00 -1.038506e+01
    endloop
  endfacet
  facet normal -2.553617e-01 5.277366e-01 -8.101139e-01
    outer loop
      vertex   -3.392630e+00 6.895903e+00 -1.038506e+01
      vertex   -3.302149e+00 6.939686e+00 -1.038506e+01
      vertex   -3.247170e+00 6.824144e+00 -1.047766e+01
    endloop
  endfacet
  facet normal -2.484376e-01 5.310313e-01 -8.101139e-01
    outer loop
      vertex   -3.247170e+00 6.824144e+00 -1.047766e+01
      vertex   -3.302149e+00 6.939686e+00 -1.038506e+01
      vertex   -3.157639e+00 6.866030e+00 -1.047766e+01
    endloop
  endfacet
  facet normal -2.442484e-01 5.220770e-01 -8.171771e-01
    outer loop
      vertex   -3.247170e+00 6.824144e+00 -1.047766e+01
      vertex   -3.157639e+00 6.866030e+00 -1.047766e+01
      vertex   -3.103710e+00 6.748765e+00 -1.056870e+01
    endloop
  endfacet
  facet normal -2.373993e-01 5.252268e-01 -8.171771e-01
    outer loop
      vertex   -3.103710e+00 6.748765e+00 -1.056870e+01
      vertex   -3.157639e+00 6.866030e+00 -1.047766e+01
      vertex   -3.015178e+00 6.788781e+00 -1.056870e+01
    endloop
  endfacet
  facet normal -2.346421e-01 5.191267e-01 -8.218580e-01
    outer loop
      vertex   -3.103710e+00 6.748765e+00 -1.056870e+01
      vertex   -3.015178e+00 6.788781e+00 -1.056870e+01
      vertex   -3.000000e+00 6.738016e+00 -1.060510e+01
    endloop
  endfacet
  facet normal -2.172771e-01 5.250454e-01 -8.228718e-01
    outer loop
      vertex   -3.000000e+00 6.738016e+00 -1.060510e+01
      vertex   -3.015178e+00 6.788781e+00 -1.056870e+01
      vertex   -3.000000e+00 6.869531e+00 -1.052118e+01
    endloop
  endfacet
  facet normal -2.370045e-01 5.254032e-01 -8.171783e-01
    outer loop
      vertex   -3.000000e+00 6.869531e+00 -1.052118e+01
      vertex   -3.015178e+00 6.788781e+00 -1.056870e+01
      vertex   -3.067569e+00 6.906741e+00 -1.047766e+01
    endloop
  endfacet
  facet normal -2.303783e-01 5.335044e-01 -8.138175e-01
    outer loop
      vertex   -3.000000e+00 6.869531e+00 -1.052118e+01
      vertex   -3.067569e+00 6.906741e+00 -1.047766e+01
      vertex   -3.000000e+00 7.000000e+00 -1.043565e+01
    endloop
  endfacet
  facet normal -2.367102e-01 5.364095e-01 -8.100822e-01
    outer loop
      vertex   -3.000000e+00 7.000000e+00 -1.043565e+01
      vertex   -3.067569e+00 6.906741e+00 -1.047766e+01
      vertex   -3.144782e+00 7.000000e+00 -1.039335e+01
    endloop
  endfacet
  facet normal -2.410952e-01 5.334038e-01 -8.107734e-01
    outer loop
      vertex   -3.144782e+00 7.000000e+00 -1.039335e+01
      vertex   -3.067569e+00 6.906741e+00 -1.047766e+01
      vertex   -3.157639e+00 6.866030e+00 -1.047766e+01
    endloop
  endfacet
  facet normal -2.436501e-01 5.332371e-01 -8.101190e-01
    outer loop
      vertex   -3.144782e+00 7.000000e+00 -1.039335e+01
      vertex   -3.157639e+00 6.866030e+00 -1.047766e+01
      vertex   -3.211102e+00 6.982281e+00 -1.038506e+01
    endloop
  endfacet
  facet normal -2.484376e-01 5.310313e-01 -8.101139e-01
    outer loop
      vertex   -3.211102e+00 6.982281e+00 -1.038506e+01
      vertex   -3.157639e+00 6.866030e+00 -1.047766e+01
      vertex   -3.302149e+00 6.939686e+00 -1.038506e+01
    endloop
  endfacet
  facet normal -2.508008e-01 5.360825e-01 -8.060487e-01
    outer loop
      vertex   -3.211102e+00 6.982281e+00 -1.038506e+01
      vertex   -3.302149e+00 6.939686e+00 -1.038506e+01
      vertex   -3.288968e+00 7.000000e+00 -1.034905e+01
    endloop
  endfacet
  facet normal -2.589568e-01 5.362542e-01 -8.033510e-01
    outer loop
      vertex   -3.288968e+00 7.000000e+00 -1.034905e+01
      vertex   -3.302149e+00 6.939686e+00 -1.038506e+01
      vertex   -3.432530e+00 7.000000e+00 -1.030278e+01
    endloop
  endfacet
  facet normal -2.459651e-01 5.463342e-01 -8.006373e-01
    outer loop
      vertex   -3.288968e+00 7.000000e+00 -1.034905e+01
      vertex   -3.144782e+00 7.000000e+00 -1.039335e+01
      vertex   -3.211102e+00 6.982281e+00 -1.038506e+01
    endloop
  endfacet
  facet normal -2.358696e-01 5.149598e-01 -8.241249e-01
    outer loop
      vertex   -3.103710e+00 6.748765e+00 -1.056870e+01
      vertex   -3.000000e+00 6.738016e+00 -1.060510e+01
      vertex   -3.049323e+00 6.630505e+00 -1.065816e+01
    endloop
  endfacet
  facet normal -2.294374e-01 5.133871e-01 -8.269172e-01
    outer loop
      vertex   -3.049323e+00 6.630505e+00 -1.065816e+01
      vertex   -3.000000e+00 6.738016e+00 -1.060510e+01
      vertex   -3.000000e+00 6.605477e+00 -1.068738e+01
    endloop
  endfacet
  facet normal -2.378512e-01 5.021045e-01 -8.314553e-01
    outer loop
      vertex   -3.049323e+00 6.630505e+00 -1.065816e+01
      vertex   -3.000000e+00 6.605477e+00 -1.068738e+01
      vertex   -3.000000e+00 6.471933e+00 -1.076803e+01
    endloop
  endfacet
  facet normal -2.272215e-01 4.930988e-01 -8.397762e-01
    outer loop
      vertex   -3.000000e+00 6.337404e+00 -1.084702e+01
      vertex   -3.022543e+00 6.352076e+00 -1.083231e+01
      vertex   -3.000000e+00 6.471933e+00 -1.076803e+01
    endloop
  endfacet
  facet normal -2.344898e-01 4.933224e-01 -8.376440e-01
    outer loop
      vertex   -3.000000e+00 6.471933e+00 -1.076803e+01
      vertex   -3.022543e+00 6.352076e+00 -1.083231e+01
      vertex   -3.079390e+00 6.471543e+00 -1.074604e+01
    endloop
  endfacet
  facet normal -2.329184e-01 5.038674e-01 -8.317852e-01
    outer loop
      vertex   -3.000000e+00 6.471933e+00 -1.076803e+01
      vertex   -3.079390e+00 6.471543e+00 -1.074604e+01
      vertex   -3.049323e+00 6.630505e+00 -1.065816e+01
    endloop
  endfacet
  facet normal -2.357625e-01 5.039384e-01 -8.309405e-01
    outer loop
      vertex   -3.049323e+00 6.630505e+00 -1.065816e+01
      vertex   -3.079390e+00 6.471543e+00 -1.074604e+01
      vertex   -3.135782e+00 6.590055e+00 -1.065816e+01
    endloop
  endfacet
  facet normal -2.400232e-01 5.130456e-01 -8.241196e-01
    outer loop
      vertex   -3.049323e+00 6.630505e+00 -1.065816e+01
      vertex   -3.135782e+00 6.590055e+00 -1.065816e+01
      vertex   -3.191712e+00 6.707595e+00 -1.056870e+01
    endloop
  endfacet
  facet normal -2.467128e-01 5.098624e-01 -8.241196e-01
    outer loop
      vertex   -3.191712e+00 6.707595e+00 -1.056870e+01
      vertex   -3.135782e+00 6.590055e+00 -1.065816e+01
      vertex   -3.279167e+00 6.665277e+00 -1.056870e+01
    endloop
  endfacet
  facet normal -2.510558e-01 5.188378e-01 -8.171771e-01
    outer loop
      vertex   -3.191712e+00 6.707595e+00 -1.056870e+01
      vertex   -3.279167e+00 6.665277e+00 -1.056870e+01
      vertex   -3.336145e+00 6.781090e+00 -1.047766e+01
    endloop
  endfacet
  facet normal -2.578202e-01 5.155099e-01 -8.171771e-01
    outer loop
      vertex   -3.336145e+00 6.781090e+00 -1.047766e+01
      vertex   -3.279167e+00 6.665277e+00 -1.056870e+01
      vertex   -3.424549e+00 6.736877e+00 -1.047766e+01
    endloop
  endfacet
  facet normal -2.622421e-01 5.243516e-01 -8.101139e-01
    outer loop
      vertex   -3.336145e+00 6.781090e+00 -1.047766e+01
      vertex   -3.424549e+00 6.736877e+00 -1.047766e+01
      vertex   -3.482531e+00 6.850941e+00 -1.038506e+01
    endloop
  endfacet
  facet normal -2.690777e-01 5.208769e-01 -8.101139e-01
    outer loop
      vertex   -3.482531e+00 6.850941e+00 -1.038506e+01
      vertex   -3.424549e+00 6.736877e+00 -1.047766e+01
      vertex   -3.571837e+00 6.804807e+00 -1.038506e+01
    endloop
  endfacet
  facet normal -2.735752e-01 5.295831e-01 -8.029311e-01
    outer loop
      vertex   -3.482531e+00 6.850941e+00 -1.038506e+01
      vertex   -3.571837e+00 6.804807e+00 -1.038506e+01
      vertex   -3.630779e+00 6.917099e+00 -1.029092e+01
    endloop
  endfacet
  facet normal -2.373248e-01 4.815083e-01 -8.436982e-01
    outer loop
      vertex   -3.000000e+00 6.337404e+00 -1.084702e+01
      vertex   -3.000000e+00 6.201912e+00 -1.092435e+01
      vertex   -3.022543e+00 6.352076e+00 -1.083231e+01
    endloop
  endfacet
  facet normal -2.334398e-01 4.824323e-01 -8.442541e-01
    outer loop
      vertex   -3.022543e+00 6.352076e+00 -1.083231e+01
      vertex   -3.000000e+00 6.201912e+00 -1.092435e+01
      vertex   -3.105363e+00 6.312001e+00 -1.083231e+01
    endloop
  endfacet
  facet normal -2.379181e-01 4.916873e-01 -8.376387e-01
    outer loop
      vertex   -3.022543e+00 6.352076e+00 -1.083231e+01
      vertex   -3.105363e+00 6.312001e+00 -1.083231e+01
      vertex   -3.163768e+00 6.430715e+00 -1.074604e+01
    endloop
  endfacet
  facet normal -2.443286e-01 4.885335e-01 -8.376387e-01
    outer loop
      vertex   -3.163768e+00 6.430715e+00 -1.074604e+01
      vertex   -3.105363e+00 6.312001e+00 -1.083231e+01
      vertex   -3.247604e+00 6.388786e+00 -1.074604e+01
    endloop
  endfacet
  facet normal -2.488627e-01 4.975995e-01 -8.309405e-01
    outer loop
      vertex   -3.163768e+00 6.430715e+00 -1.074604e+01
      vertex   -3.247604e+00 6.388786e+00 -1.074604e+01
      vertex   -3.307077e+00 6.505782e+00 -1.065816e+01
    endloop
  endfacet
  facet normal -2.553495e-01 4.943021e-01 -8.309405e-01
    outer loop
      vertex   -3.307077e+00 6.505782e+00 -1.065816e+01
      vertex   -3.247604e+00 6.388786e+00 -1.074604e+01
      vertex   -3.391883e+00 6.461973e+00 -1.065816e+01
    endloop
  endfacet
  facet normal -2.599642e-01 5.032351e-01 -8.241196e-01
    outer loop
      vertex   -3.307077e+00 6.505782e+00 -1.065816e+01
      vertex   -3.391883e+00 6.461973e+00 -1.065816e+01
      vertex   -3.452380e+00 6.577227e+00 -1.056870e+01
    endloop
  endfacet
  facet normal -2.332123e-01 4.826152e-01 -8.442124e-01
    outer loop
      vertex   -3.105363e+00 6.312001e+00 -1.083231e+01
      vertex   -3.000000e+00 6.201912e+00 -1.092435e+01
      vertex   -3.046501e+00 6.192356e+00 -1.091697e+01
    endloop
  endfacet
  facet normal -2.397583e-01 4.793953e-01 -8.442133e-01
    outer loop
      vertex   -3.105363e+00 6.312001e+00 -1.083231e+01
      vertex   -3.046501e+00 6.192356e+00 -1.091697e+01
      vertex   -3.187652e+00 6.270846e+00 -1.083231e+01
    endloop
  endfacet
  facet normal -2.397583e-01 4.793953e-01 -8.442133e-01
    outer loop
      vertex   -3.187652e+00 6.270846e+00 -1.083231e+01
      vertex   -3.046501e+00 6.192356e+00 -1.091697e+01
      vertex   -3.127230e+00 6.151981e+00 -1.091697e+01
    endloop
  endfacet
  facet normal -2.460078e-01 4.762185e-01 -8.442133e-01
    outer loop
      vertex   -3.187652e+00 6.270846e+00 -1.083231e+01
      vertex   -3.127230e+00 6.151981e+00 -1.091697e+01
      vertex   -3.269396e+00 6.228619e+00 -1.083231e+01
    endloop
  endfacet
  facet normal -2.460078e-01 4.762185e-01 -8.442133e-01
    outer loop
      vertex   -3.269396e+00 6.228619e+00 -1.083231e+01
      vertex   -3.127230e+00 6.151981e+00 -1.091697e+01
      vertex   -3.207424e+00 6.110554e+00 -1.091697e+01
    endloop
  endfacet
  facet normal -2.443286e-01 4.885335e-01 -8.376387e-01
    outer loop
      vertex   -3.105363e+00 6.312001e+00 -1.083231e+01
      vertex   -3.187652e+00 6.270846e+00 -1.083231e+01
      vertex   -3.247604e+00 6.388786e+00 -1.074604e+01
    endloop
  endfacet
  facet normal -2.506972e-01 4.852961e-01 -8.376387e-01
    outer loop
      vertex   -3.247604e+00 6.388786e+00 -1.074604e+01
      vertex   -3.187652e+00 6.270846e+00 -1.083231e+01
      vertex   -3.330885e+00 6.345764e+00 -1.074604e+01
    endloop
  endfacet
  facet normal -2.553495e-01 4.943021e-01 -8.309405e-01
    outer loop
      vertex   -3.247604e+00 6.388786e+00 -1.074604e+01
      vertex   -3.330885e+00 6.345764e+00 -1.074604e+01
      vertex   -3.391883e+00 6.461973e+00 -1.065816e+01
    endloop
  endfacet
  facet normal -2.506972e-01 4.852961e-01 -8.376387e-01
    outer loop
      vertex   -3.330885e+00 6.345764e+00 -1.074604e+01
      vertex   -3.187652e+00 6.270846e+00 -1.083231e+01
      vertex   -3.269396e+00 6.228619e+00 -1.083231e+01
    endloop
  endfacet
  facet normal -2.533601e-01 5.065921e-01 -8.241196e-01
    outer loop
      vertex   -3.307077e+00 6.505782e+00 -1.065816e+01
      vertex   -3.366062e+00 6.621818e+00 -1.056870e+01
      vertex   -3.221705e+00 6.548479e+00 -1.065816e+01
    endloop
  endfacet
  facet normal -2.533601e-01 5.065921e-01 -8.241196e-01
    outer loop
      vertex   -3.221705e+00 6.548479e+00 -1.065816e+01
      vertex   -3.366062e+00 6.621818e+00 -1.056870e+01
      vertex   -3.279167e+00 6.665277e+00 -1.056870e+01
    endloop
  endfacet
  facet normal -2.467128e-01 5.098624e-01 -8.241196e-01
    outer loop
      vertex   -3.221705e+00 6.548479e+00 -1.065816e+01
      vertex   -3.279167e+00 6.665277e+00 -1.056870e+01
      vertex   -3.135782e+00 6.590055e+00 -1.065816e+01
    endloop
  endfacet
  facet normal -2.578202e-01 5.155099e-01 -8.171771e-01
    outer loop
      vertex   -3.279167e+00 6.665277e+00 -1.056870e+01
      vertex   -3.366062e+00 6.621818e+00 -1.056870e+01
      vertex   -3.424549e+00 6.736877e+00 -1.047766e+01
    endloop
  endfacet
  facet normal -2.645405e-01 5.120938e-01 -8.171771e-01
    outer loop
      vertex   -3.424549e+00 6.736877e+00 -1.047766e+01
      vertex   -3.366062e+00 6.621818e+00 -1.056870e+01
      vertex   -3.512368e+00 6.691511e+00 -1.047766e+01
    endloop
  endfacet
  facet normal -2.690777e-01 5.208769e-01 -8.101139e-01
    outer loop
      vertex   -3.424549e+00 6.736877e+00 -1.047766e+01
      vertex   -3.512368e+00 6.691511e+00 -1.047766e+01
      vertex   -3.571837e+00 6.804807e+00 -1.038506e+01
    endloop
  endfacet
  facet normal -2.645405e-01 5.120938e-01 -8.171771e-01
    outer loop
      vertex   -3.512368e+00 6.691511e+00 -1.047766e+01
      vertex   -3.366062e+00 6.621818e+00 -1.056870e+01
      vertex   -3.452380e+00 6.577227e+00 -1.056870e+01
    endloop
  endfacet
  facet normal -2.599642e-01 5.032351e-01 -8.241196e-01
    outer loop
      vertex   -3.452380e+00 6.577227e+00 -1.056870e+01
      vertex   -3.366062e+00 6.621818e+00 -1.056870e+01
      vertex   -3.307077e+00 6.505782e+00 -1.065816e+01
    endloop
  endfacet
  facet normal -2.622421e-01 5.243516e-01 -8.101139e-01
    outer loop
      vertex   -3.336145e+00 6.781090e+00 -1.047766e+01
      vertex   -3.482531e+00 6.850941e+00 -1.038506e+01
      vertex   -3.392630e+00 6.895903e+00 -1.038506e+01
    endloop
  endfacet
  facet normal -2.666254e-01 5.331158e-01 -8.029311e-01
    outer loop
      vertex   -3.392630e+00 6.895903e+00 -1.038506e+01
      vertex   -3.482531e+00 6.850941e+00 -1.038506e+01
      vertex   -3.540000e+00 6.963994e+00 -1.029092e+01
    endloop
  endfacet
  facet normal -2.735752e-01 5.295831e-01 -8.029311e-01
    outer loop
      vertex   -3.540000e+00 6.963994e+00 -1.029092e+01
      vertex   -3.482531e+00 6.850941e+00 -1.038506e+01
      vertex   -3.630779e+00 6.917099e+00 -1.029092e+01
    endloop
  endfacet
  facet normal -2.510558e-01 5.188378e-01 -8.171771e-01
    outer loop
      vertex   -3.191712e+00 6.707595e+00 -1.056870e+01
      vertex   -3.336145e+00 6.781090e+00 -1.047766e+01
      vertex   -3.247170e+00 6.824144e+00 -1.047766e+01
    endloop
  endfacet
  facet normal -2.553617e-01 5.277366e-01 -8.101139e-01
    outer loop
      vertex   -3.247170e+00 6.824144e+00 -1.047766e+01
      vertex   -3.336145e+00 6.781090e+00 -1.047766e+01
      vertex   -3.392630e+00 6.895903e+00 -1.038506e+01
    endloop
  endfacet
  facet normal -2.488627e-01 4.975995e-01 -8.309405e-01
    outer loop
      vertex   -3.307077e+00 6.505782e+00 -1.065816e+01
      vertex   -3.221705e+00 6.548479e+00 -1.065816e+01
      vertex   -3.163768e+00 6.430715e+00 -1.074604e+01
    endloop
  endfacet
  facet normal -2.423333e-01 5.008118e-01 -8.309405e-01
    outer loop
      vertex   -3.163768e+00 6.430715e+00 -1.074604e+01
      vertex   -3.221705e+00 6.548479e+00 -1.065816e+01
      vertex   -3.079390e+00 6.471543e+00 -1.074604e+01
    endloop
  endfacet
  facet normal -2.379181e-01 4.916873e-01 -8.376387e-01
    outer loop
      vertex   -3.163768e+00 6.430715e+00 -1.074604e+01
      vertex   -3.079390e+00 6.471543e+00 -1.074604e+01
      vertex   -3.022543e+00 6.352076e+00 -1.083231e+01
    endloop
  endfacet
  facet normal -2.423333e-01 5.008118e-01 -8.309405e-01
    outer loop
      vertex   -3.079390e+00 6.471543e+00 -1.074604e+01
      vertex   -3.221705e+00 6.548479e+00 -1.065816e+01
      vertex   -3.135782e+00 6.590055e+00 -1.065816e+01
    endloop
  endfacet
  facet normal -2.920145e-01 5.307548e-01 -7.956299e-01
    outer loop
      vertex   -3.780793e+00 6.979518e+00 -1.019524e+01
      vertex   -3.720937e+00 6.869021e+00 -1.029092e+01
      vertex   -3.871754e+00 6.929472e+00 -1.019524e+01
    endloop
  endfacet
  facet normal -2.920145e-01 5.307548e-01 -7.956299e-01
    outer loop
      vertex   -3.871754e+00 6.929472e+00 -1.019524e+01
      vertex   -3.720937e+00 6.869021e+00 -1.029092e+01
      vertex   -3.810458e+00 6.819767e+00 -1.029092e+01
    endloop
  endfacet
  facet normal -2.989312e-01 5.268902e-01 -7.956299e-01
    outer loop
      vertex   -3.871754e+00 6.929472e+00 -1.019524e+01
      vertex   -3.810458e+00 6.819767e+00 -1.029092e+01
      vertex   -3.962053e+00 6.878241e+00 -1.019524e+01
    endloop
  endfacet
  facet normal -2.989312e-01 5.268902e-01 -7.956299e-01
    outer loop
      vertex   -3.962053e+00 6.878241e+00 -1.019524e+01
      vertex   -3.810458e+00 6.819767e+00 -1.029092e+01
      vertex   -3.899328e+00 6.769347e+00 -1.029092e+01
    endloop
  endfacet
  facet normal -2.873332e-01 5.222463e-01 -8.029311e-01
    outer loop
      vertex   -3.720937e+00 6.869021e+00 -1.029092e+01
      vertex   -3.660531e+00 6.757509e+00 -1.038506e+01
      vertex   -3.810458e+00 6.819767e+00 -1.029092e+01
    endloop
  endfacet
  facet normal -2.873332e-01 5.222463e-01 -8.029311e-01
    outer loop
      vertex   -3.810458e+00 6.819767e+00 -1.029092e+01
      vertex   -3.660531e+00 6.757509e+00 -1.038506e+01
      vertex   -3.748599e+00 6.709055e+00 -1.038506e+01
    endloop
  endfacet
  facet normal -2.941391e-01 5.184436e-01 -8.029311e-01
    outer loop
      vertex   -3.810458e+00 6.819767e+00 -1.029092e+01
      vertex   -3.748599e+00 6.709055e+00 -1.038506e+01
      vertex   -3.899328e+00 6.769347e+00 -1.029092e+01
    endloop
  endfacet
  facet normal -2.941391e-01 5.184436e-01 -8.029311e-01
    outer loop
      vertex   -3.899328e+00 6.769347e+00 -1.029092e+01
      vertex   -3.748599e+00 6.709055e+00 -1.038506e+01
      vertex   -3.836026e+00 6.659454e+00 -1.038506e+01
    endloop
  endfacet
  facet normal -2.826095e-01 5.136607e-01 -8.101139e-01
    outer loop
      vertex   -3.660531e+00 6.757509e+00 -1.038506e+01
      vertex   -3.599586e+00 6.645001e+00 -1.047766e+01
      vertex   -3.748599e+00 6.709055e+00 -1.038506e+01
    endloop
  endfacet
  facet normal -2.826095e-01 5.136607e-01 -8.101139e-01
    outer loop
      vertex   -3.748599e+00 6.709055e+00 -1.038506e+01
      vertex   -3.599586e+00 6.645001e+00 -1.047766e+01
      vertex   -3.686187e+00 6.597354e+00 -1.047766e+01
    endloop
  endfacet
  facet normal -2.893035e-01 5.099206e-01 -8.101139e-01
    outer loop
      vertex   -3.748599e+00 6.709055e+00 -1.038506e+01
      vertex   -3.686187e+00 6.597354e+00 -1.047766e+01
      vertex   -3.836026e+00 6.659454e+00 -1.038506e+01
    endloop
  endfacet
  facet normal -2.893035e-01 5.099206e-01 -8.101139e-01
    outer loop
      vertex   -3.836026e+00 6.659454e+00 -1.038506e+01
      vertex   -3.686187e+00 6.597354e+00 -1.047766e+01
      vertex   -3.772159e+00 6.548578e+00 -1.047766e+01
    endloop
  endfacet
  facet normal -2.778441e-01 5.049993e-01 -8.171771e-01
    outer loop
      vertex   -3.599586e+00 6.645001e+00 -1.047766e+01
      vertex   -3.538108e+00 6.531511e+00 -1.056870e+01
      vertex   -3.686187e+00 6.597354e+00 -1.047766e+01
    endloop
  endfacet
  facet normal -2.778441e-01 5.049993e-01 -8.171771e-01
    outer loop
      vertex   -3.686187e+00 6.597354e+00 -1.047766e+01
      vertex   -3.538108e+00 6.531511e+00 -1.056870e+01
      vertex   -3.623231e+00 6.484678e+00 -1.056870e+01
    endloop
  endfacet
  facet normal -2.844252e-01 5.013222e-01 -8.171771e-01
    outer loop
      vertex   -3.686187e+00 6.597354e+00 -1.047766e+01
      vertex   -3.623231e+00 6.484678e+00 -1.056870e+01
      vertex   -3.772159e+00 6.548578e+00 -1.047766e+01
    endloop
  endfacet
  facet normal -2.844252e-01 5.013222e-01 -8.171771e-01
    outer loop
      vertex   -3.772159e+00 6.548578e+00 -1.047766e+01
      vertex   -3.623231e+00 6.484678e+00 -1.056870e+01
      vertex   -3.707734e+00 6.436735e+00 -1.056870e+01
    endloop
  endfacet
  facet normal -2.730377e-01 4.962633e-01 -8.241196e-01
    outer loop
      vertex   -3.538108e+00 6.531511e+00 -1.056870e+01
      vertex   -3.476109e+00 6.417058e+00 -1.065816e+01
      vertex   -3.623231e+00 6.484678e+00 -1.056870e+01
    endloop
  endfacet
  facet normal -2.730377e-01 4.962633e-01 -8.241196e-01
    outer loop
      vertex   -3.623231e+00 6.484678e+00 -1.056870e+01
      vertex   -3.476109e+00 6.417058e+00 -1.065816e+01
      vertex   -3.559740e+00 6.371045e+00 -1.065816e+01
    endloop
  endfacet
  facet normal -2.795050e-01 4.926498e-01 -8.241196e-01
    outer loop
      vertex   -3.623231e+00 6.484678e+00 -1.056870e+01
      vertex   -3.559740e+00 6.371045e+00 -1.065816e+01
      vertex   -3.707734e+00 6.436735e+00 -1.056870e+01
    endloop
  endfacet
  facet normal -2.795050e-01 4.926498e-01 -8.241196e-01
    outer loop
      vertex   -3.707734e+00 6.436735e+00 -1.056870e+01
      vertex   -3.559740e+00 6.371045e+00 -1.065816e+01
      vertex   -3.642762e+00 6.323942e+00 -1.065816e+01
    endloop
  endfacet
  facet normal -2.681910e-01 4.874541e-01 -8.309405e-01
    outer loop
      vertex   -3.476109e+00 6.417058e+00 -1.065816e+01
      vertex   -3.413597e+00 6.301657e+00 -1.074604e+01
      vertex   -3.559740e+00 6.371045e+00 -1.065816e+01
    endloop
  endfacet
  facet normal -2.681910e-01 4.874541e-01 -8.309405e-01
    outer loop
      vertex   -3.559740e+00 6.371045e+00 -1.065816e+01
      vertex   -3.413597e+00 6.301657e+00 -1.074604e+01
      vertex   -3.495724e+00 6.256471e+00 -1.074604e+01
    endloop
  endfacet
  facet normal -2.745434e-01 4.839048e-01 -8.309405e-01
    outer loop
      vertex   -3.559740e+00 6.371045e+00 -1.065816e+01
      vertex   -3.495724e+00 6.256471e+00 -1.074604e+01
      vertex   -3.642762e+00 6.323942e+00 -1.065816e+01
    endloop
  endfacet
  facet normal -2.745434e-01 4.839048e-01 -8.309405e-01
    outer loop
      vertex   -3.642762e+00 6.323942e+00 -1.065816e+01
      vertex   -3.495724e+00 6.256471e+00 -1.074604e+01
      vertex   -3.577253e+00 6.210216e+00 -1.074604e+01
    endloop
  endfacet
  facet normal -2.633047e-01 4.785729e-01 -8.376387e-01
    outer loop
      vertex   -3.413597e+00 6.301657e+00 -1.074604e+01
      vertex   -3.350580e+00 6.185325e+00 -1.083231e+01
      vertex   -3.495724e+00 6.256471e+00 -1.074604e+01
    endloop
  endfacet
  facet normal -2.633047e-01 4.785729e-01 -8.376387e-01
    outer loop
      vertex   -3.495724e+00 6.256471e+00 -1.074604e+01
      vertex   -3.350580e+00 6.185325e+00 -1.083231e+01
      vertex   -3.431191e+00 6.140974e+00 -1.083231e+01
    endloop
  endfacet
  facet normal -2.695414e-01 4.750882e-01 -8.376387e-01
    outer loop
      vertex   -3.495724e+00 6.256471e+00 -1.074604e+01
      vertex   -3.431191e+00 6.140974e+00 -1.083231e+01
      vertex   -3.577253e+00 6.210216e+00 -1.074604e+01
    endloop
  endfacet
  facet normal -2.695414e-01 4.750882e-01 -8.376387e-01
    outer loop
      vertex   -3.577253e+00 6.210216e+00 -1.074604e+01
      vertex   -3.431191e+00 6.140974e+00 -1.083231e+01
      vertex   -3.511215e+00 6.095573e+00 -1.083231e+01
    endloop
  endfacet
  facet normal -2.583795e-01 4.696211e-01 -8.442133e-01
    outer loop
      vertex   -3.350580e+00 6.185325e+00 -1.083231e+01
      vertex   -3.287069e+00 6.068081e+00 -1.091697e+01
      vertex   -3.431191e+00 6.140974e+00 -1.083231e+01
    endloop
  endfacet
  facet normal -2.400232e-01 5.130456e-01 -8.241196e-01
    outer loop
      vertex   -3.049323e+00 6.630505e+00 -1.065816e+01
      vertex   -3.191712e+00 6.707595e+00 -1.056870e+01
      vertex   -3.103710e+00 6.748765e+00 -1.056870e+01
    endloop
  endfacet
  facet normal -2.442484e-01 5.220770e-01 -8.171771e-01
    outer loop
      vertex   -3.103710e+00 6.748765e+00 -1.056870e+01
      vertex   -3.191712e+00 6.707595e+00 -1.056870e+01
      vertex   -3.247170e+00 6.824144e+00 -1.047766e+01
    endloop
  endfacet
  facet normal -2.373993e-01 5.252268e-01 -8.171771e-01
    outer loop
      vertex   -3.067569e+00 6.906741e+00 -1.047766e+01
      vertex   -3.015178e+00 6.788781e+00 -1.056870e+01
      vertex   -3.157639e+00 6.866030e+00 -1.047766e+01
    endloop
  endfacet
  facet normal 2.496344e-01 -5.016040e-01 8.282971e-01
    outer loop
      vertex   -3.000000e+00 6.150610e+00 -1.000000e+01
      vertex   -3.097763e+00 6.101956e+00 -1.000000e+01
      vertex   -3.000000e+00 6.100555e+00 -1.003031e+01
    endloop
  endfacet
  facet normal 2.504080e-01 -4.973964e-01 8.305977e-01
    outer loop
      vertex   -3.000000e+00 6.100555e+00 -1.003031e+01
      vertex   -3.097763e+00 6.101956e+00 -1.000000e+01
      vertex   -3.000000e+00 6.050352e+00 -1.006038e+01
    endloop
  endfacet
  facet normal 2.538586e-01 -4.928221e-01 8.322753e-01
    outer loop
      vertex   -3.000000e+00 6.050352e+00 -1.006038e+01
      vertex   -3.097763e+00 6.101956e+00 -1.000000e+01
      vertex   -3.000000e+00 6.000000e+00 -1.009019e+01
    endloop
  endfacet
  facet normal 2.491001e-01 -4.966458e-01 8.314398e-01
    outer loop
      vertex   -3.000000e+00 6.000000e+00 -1.009019e+01
      vertex   -3.097763e+00 6.101956e+00 -1.000000e+01
      vertex   -3.097251e+00 6.000000e+00 -1.006105e+01
    endloop
  endfacet
  facet normal 2.565994e-01 -4.956112e-01 8.297749e-01
    outer loop
      vertex   -3.097251e+00 6.000000e+00 -1.006105e+01
      vertex   -3.097763e+00 6.101956e+00 -1.000000e+01
      vertex   -3.194736e+00 6.051749e+00 -1.000000e+01
    endloop
  endfacet
  facet normal 2.573849e-01 -4.945742e-01 8.301502e-01
    outer loop
      vertex   -3.097251e+00 6.000000e+00 -1.006105e+01
      vertex   -3.194736e+00 6.051749e+00 -1.000000e+01
      vertex   -3.194220e+00 6.000000e+00 -1.003099e+01
    endloop
  endfacet
  facet normal 2.655135e-01 -4.933832e-01 8.282968e-01
    outer loop
      vertex   -3.194220e+00 6.000000e+00 -1.003099e+01
      vertex   -3.194736e+00 6.051749e+00 -1.000000e+01
      vertex   -3.290897e+00 6.000000e+00 -1.000000e+01
    endloop
  endfacet
  facet normal -1.000000e+00 -0.000000e+00 0.000000e+00
    outer loop
      vertex   -4.000000e+00 7.000000e+00 -1.009804e+01
      vertex   -4.000000e+00 6.878279e+00 -1.018053e+01
      vertex   -4.000000e+00 7.000000e+00 -1.000000e+01
    endloop
  endfacet
  facet normal -1.000000e+00 -0.000000e+00 0.000000e+00
    outer loop
      vertex   -4.000000e+00 7.000000e+00 -1.000000e+01
      vertex   -4.000000e+00 6.878279e+00 -1.018053e+01
      vertex   -4.000000e+00 6.000000e+00 -1.000000e+01
    endloop
  endfacet
  facet normal -1.000000e+00 0.000000e+00 0.000000e+00
    outer loop
      vertex   -4.000000e+00 6.000000e+00 -1.000000e+01
      vertex   -4.000000e+00 6.878279e+00 -1.018053e+01
      vertex   -4.000000e+00 6.755587e+00 -1.026157e+01
    endloop
  endfacet
  facet normal -1.000000e+00 0.000000e+00 0.000000e+00
    outer loop
      vertex   -4.000000e+00 6.000000e+00 -1.000000e+01
      vertex   -4.000000e+00 6.755587e+00 -1.026157e+01
      vertex   -4.000000e+00 6.631940e+00 -1.034114e+01
    endloop
  endfacet
  facet normal -1.000000e+00 -0.000000e+00 0.000000e+00
    outer loop
      vertex   -4.000000e+00 6.631940e+00 -1.034114e+01
      vertex   -4.000000e+00 6.507355e+00 -1.041924e+01
      vertex   -4.000000e+00 6.000000e+00 -1.000000e+01
    endloop
  endfacet
  facet normal -1.000000e+00 0.000000e+00 0.000000e+00
    outer loop
      vertex   -4.000000e+00 6.000000e+00 -1.000000e+01
      vertex   -4.000000e+00 6.507355e+00 -1.041924e+01
      vertex   -4.000000e+00 6.381851e+00 -1.049585e+01
    endloop
  endfacet
  facet normal -1.000000e+00 0.000000e+00 0.000000e+00
    outer loop
      vertex   -4.000000e+00 6.000000e+00 -1.000000e+01
      vertex   -4.000000e+00 6.381851e+00 -1.049585e+01
      vertex   -4.000000e+00 6.255445e+00 -1.057096e+01
    endloop
  endfacet
  facet normal -1.000000e+00 -0.000000e+00 0.000000e+00
    outer loop
      vertex   -4.000000e+00 6.255445e+00 -1.057096e+01
      vertex   -4.000000e+00 6.128156e+00 -1.064457e+01
      vertex   -4.000000e+00 6.000000e+00 -1.000000e+01
    endloop
  endfacet
  facet normal -1.000000e+00 0.000000e+00 0.000000e+00
    outer loop
      vertex   -4.000000e+00 6.000000e+00 -1.000000e+01
      vertex   -4.000000e+00 6.128156e+00 -1.064457e+01
      vertex   -4.000000e+00 6.000000e+00 -1.071665e+01
    endloop
  endfacet
  facet normal 0.000000e+00 0.000000e+00 -1.000000e+00
    outer loop
      vertex   -3.128898e+00 6.000000e+00 -1.100000e+01
      vertex   -3.086088e+00 6.022131e+00 -1.100000e+01
      vertex   -3.000000e+00 6.000000e+00 -1.100000e+01
    endloop
  endfacet
  facet normal 0.000000e+00 0.000000e+00 -1.000000e+00
    outer loop
      vertex   -3.000000e+00 6.000000e+00 -1.100000e+01
      vertex   -3.086088e+00 6.022131e+00 -1.100000e+01
      vertex   -3.043121e+00 6.043957e+00 -1.100000e+01
    endloop
  endfacet
  facet normal 0.000000e+00 0.000000e+00 -1.000000e+00
    outer loop
      vertex   -3.000000e+00 6.000000e+00 -1.100000e+01
      vertex   -3.043121e+00 6.043957e+00 -1.100000e+01
      vertex   -3.000000e+00 6.065476e+00 -1.100000e+01
    endloop
  endfacet
  facet normal 0.000000e+00 -1.000000e+00 0.000000e+00
    outer loop
      vertex   -4.000000e+00 6.000000e+00 -1.071665e+01
      vertex   -3.856422e+00 6.000000e+00 -1.076867e+01
      vertex   -4.000000e+00 6.000000e+00 -1.000000e+01
    endloop
  endfacet
  facet normal 0.000000e+00 -1.000000e+00 0.000000e+00
    outer loop
      vertex   -4.000000e+00 6.000000e+00 -1.000000e+01
      vertex   -3.856422e+00 6.000000e+00 -1.076867e+01
      vertex   -3.290897e+00 6.000000e+00 -1.000000e+01
    endloop
  endfacet
  facet normal 0.000000e+00 -1.000000e+00 0.000000e+00
    outer loop
      vertex   -3.290897e+00 6.000000e+00 -1.000000e+01
      vertex   -3.856422e+00 6.000000e+00 -1.076867e+01
      vertex   -3.712168e+00 6.000000e+00 -1.081878e+01
    endloop
  endfacet
  facet normal 0.000000e+00 -1.000000e+00 0.000000e+00
    outer loop
      vertex   -3.290897e+00 6.000000e+00 -1.000000e+01
      vertex   -3.712168e+00 6.000000e+00 -1.081878e+01
      vertex   -3.567263e+00 6.000000e+00 -1.086698e+01
    endloop
  endfacet
  facet normal 0.000000e+00 -1.000000e+00 -0.000000e+00
    outer loop
      vertex   -3.290897e+00 6.000000e+00 -1.000000e+01
      vertex   -3.567263e+00 6.000000e+00 -1.086698e+01
      vertex   -3.194220e+00 6.000000e+00 -1.003099e+01
    endloop
  endfacet
  facet normal 0.000000e+00 -1.000000e+00 0.000000e+00
    outer loop
      vertex   -3.194220e+00 6.000000e+00 -1.003099e+01
      vertex   -3.567263e+00 6.000000e+00 -1.086698e+01
      vertex   -3.421733e+00 6.000000e+00 -1.091325e+01
    endloop
  endfacet
  facet normal 0.000000e+00 -1.000000e+00 -0.000000e+00
    outer loop
      vertex   -3.194220e+00 6.000000e+00 -1.003099e+01
      vertex   -3.421733e+00 6.000000e+00 -1.091325e+01
      vertex   -3.097251e+00 6.000000e+00 -1.006105e+01
    endloop
  endfacet
  facet normal 0.000000e+00 -1.000000e+00 0.000000e+00
    outer loop
      vertex   -3.097251e+00 6.000000e+00 -1.006105e+01
      vertex   -3.421733e+00 6.000000e+00 -1.091325e+01
      vertex   -3.275602e+00 6.000000e+00 -1.095760e+01
    endloop
  endfacet
  facet normal 0.000000e+00 -1.000000e+00 -0.000000e+00
    outer loop
      vertex   -3.097251e+00 6.000000e+00 -1.006105e+01
      vertex   -3.275602e+00 6.000000e+00 -1.095760e+01
      vertex   -3.000000e+00 6.000000e+00 -1.009019e+01
    endloop
  endfacet
  facet normal 0.000000e+00 -1.000000e+00 0.000000e+00
    outer loop
      vertex   -3.000000e+00 6.000000e+00 -1.009019e+01
      vertex   -3.275602e+00 6.000000e+00 -1.095760e+01
      vertex   -3.128898e+00 6.000000e+00 -1.100000e+01
    endloop
  endfacet
  facet normal 0.000000e+00 -1.000000e+00 -0.000000e+00
    outer loop
      vertex   -3.000000e+00 6.000000e+00 -1.009019e+01
      vertex   -3.128898e+00 6.000000e+00 -1.100000e+01
      vertex   -3.000000e+00 6.000000e+00 -1.100000e+01
    endloop
  endfacet
  facet normal 0.000000e+00 0.000000e+00 1.000000e+00
    outer loop
      vertex   -4.000000e+00 6.000000e+00 -1.000000e+01
      vertex   -3.290897e+00 6.000000e+00 -1.000000e+01
      vertex   -4.000000e+00 7.000000e+00 -1.000000e+01
    endloop
  endfacet
  facet normal 0.000000e+00 0.000000e+00 1.000000e+00
    outer loop
      vertex   -4.000000e+00 7.000000e+00 -1.000000e+01
      vertex   -3.290897e+00 6.000000e+00 -1.000000e+01
      vertex   -3.194736e+00 6.051749e+00 -1.000000e+01
    endloop
  endfacet
  facet normal -0.000000e+00 0.000000e+00 1.000000e+00
    outer loop
      vertex   -4.000000e+00 7.000000e+00 -1.000000e+01
      vertex   -3.194736e+00 6.051749e+00 -1.000000e+01
      vertex   -3.000000e+00 7.000000e+00 -1.000000e+01
    endloop
  endfacet
  facet normal 0.000000e+00 0.000000e+00 1.000000e+00
    outer loop
      vertex   -3.000000e+00 7.000000e+00 -1.000000e+01
      vertex   -3.194736e+00 6.051749e+00 -1.000000e+01
      vertex   -3.097763e+00 6.101956e+00 -1.000000e+01
    endloop
  endfacet
  facet normal 0.000000e+00 0.000000e+00 1.000000e+00
    outer loop
      vertex   -3.000000e+00 7.000000e+00 -1.000000e+01
      vertex   -3.097763e+00 6.101956e+00 -1.000000e+01
      vertex   -3.000000e+00 6.150610e+00 -1.000000e+01
    endloop
  endfacet
  facet normal 0.000000e+00 1.000000e+00 -0.000000e+00
    outer loop
      vertex   -3.000000e+00 7.000000e+00 -1.043565e+01
      vertex   -3.144782e+00 7.000000e+00 -1.039335e+01
      vertex   -3.000000e+00 7.000000e+00 -1.000000e+01
    endloop
  endfacet
  facet normal 0.000000e+00 1.000000e+00 0.000000e+00
    outer loop
      vertex   -3.000000e+00 7.000000e+00 -1.000000e+01
      vertex   -3.144782e+00 7.000000e+00 -1.039335e+01
      vertex   -3.288968e+00 7.000000e+00 -1.034905e+01
    endloop
  endfacet
  facet normal 0.000000e+00 1.000000e+00 0.000000e+00
    outer loop
      vertex   -3.000000e+00 7.000000e+00 -1.000000e+01
      vertex   -3.288968e+00 7.000000e+00 -1.034905e+01
      vertex   -3.432530e+00 7.000000e+00 -1.030278e+01
    endloop
  endfacet
  facet normal 0.000000e+00 1.000000e+00 -0.000000e+00
    outer loop
      vertex   -3.432530e+00 7.000000e+00 -1.030278e+01
      vertex   -3.575441e+00 7.000000e+00 -1.025453e+01
      vertex   -3.000000e+00 7.000000e+00 -1.000000e+01
    endloop
  endfacet
  facet normal 0.000000e+00 1.000000e+00 0.000000e+00
    outer loop
      vertex   -3.000000e+00 7.000000e+00 -1.000000e+01
      vertex   -3.575441e+00 7.000000e+00 -1.025453e+01
      vertex   -3.717675e+00 7.000000e+00 -1.020431e+01
    endloop
  endfacet
  facet normal 0.000000e+00 1.000000e+00 0.000000e+00
    outer loop
      vertex   -3.000000e+00 7.000000e+00 -1.000000e+01
      vertex   -3.717675e+00 7.000000e+00 -1.020431e+01
      vertex   -3.859203e+00 7.000000e+00 -1.015215e+01
    endloop
  endfacet
  facet normal -0.000000e+00 1.000000e+00 0.000000e+00
    outer loop
      vertex   -4.000000e+00 7.000000e+00 -1.009804e+01
      vertex   -4.000000e+00 7.000000e+00 -1.000000e+01
      vertex   -3.859203e+00 7.000000e+00 -1.015215e+01
    endloop
  endfacet
  facet normal 0.000000e+00 1.000000e+00 -0.000000e+00
    outer loop
      vertex   -3.859203e+00 7.000000e+00 -1.015215e+01
      vertex   -4.000000e+00 7.000000e+00 -1.000000e+01
      vertex   -3.000000e+00 7.000000e+00 -1.000000e+01
    endloop
  endfacet
  facet normal 1.000000e+00 0.000000e+00 -0.000000e+00
    outer loop
      vertex   -3.000000e+00 6.065476e+00 -1.100000e+01
      vertex   -3.000000e+00 6.201912e+00 -1.092435e+01
      vertex   -3.000000e+00 6.000000e+00 -1.100000e+01
    endloop
  endfacet
  facet normal 1.000000e+00 0.000000e+00 0.000000e+00
    outer loop
      vertex   -3.000000e+00 6.000000e+00 -1.100000e+01
      vertex   -3.000000e+00 6.201912e+00 -1.092435e+01
      vertex   -3.000000e+00 6.000000e+00 -1.009019e+01
    endloop
  endfacet
  facet normal 1.000000e+00 0.000000e+00 0.000000e+00
    outer loop
      vertex   -3.000000e+00 6.000000e+00 -1.009019e+01
      vertex   -3.000000e+00 6.201912e+00 -1.092435e+01
      vertex   -3.000000e+00 6.337404e+00 -1.084702e+01
    endloop
  endfacet
  facet normal 1.000000e+00 0.000000e+00 0.000000e+00
    outer loop
      vertex   -3.000000e+00 6.000000e+00 -1.009019e+01
      vertex   -3.000000e+00 6.337404e+00 -1.084702e+01
      vertex   -3.000000e+00 6.471933e+00 -1.076803e+01
    endloop
  endfacet
  facet normal 1.000000e+00 0.000000e+00 0.000000e+00
    outer loop
      vertex   -3.000000e+00 6.605477e+00 -1.068738e+01
      vertex   -3.000000e+00 6.100555e+00 -1.003031e+01
      vertex   -3.000000e+00 6.471933e+00 -1.076803e+01
    endloop
  endfacet
  facet normal 1.000000e+00 0.000000e+00 0.000000e+00
    outer loop
      vertex   -3.000000e+00 6.471933e+00 -1.076803e+01
      vertex   -3.000000e+00 6.100555e+00 -1.003031e+01
      vertex   -3.000000e+00 6.050352e+00 -1.006038e+01
    endloop
  endfacet
  facet normal 1.000000e+00 0.000000e+00 0.000000e+00
    outer loop
      vertex   -3.000000e+00 6.471933e+00 -1.076803e+01
      vertex   -3.000000e+00 6.050352e+00 -1.006038e+01
      vertex   -3.000000e+00 6.000000e+00 -1.009019e+01
    endloop
  endfacet
  facet normal 1.000000e+00 -0.000000e+00 0.000000e+00
    outer loop
      vertex   -3.000000e+00 6.100555e+00 -1.003031e+01
      vertex   -3.000000e+00 6.605477e+00 -1.068738e+01
      vertex   -3.000000e+00 6.150610e+00 -1.000000e+01
    endloop
  endfacet
  facet normal 1.000000e+00 0.000000e+00 0.000000e+00
    outer loop
      vertex   -3.000000e+00 6.150610e+00 -1.000000e+01
      vertex   -3.000000e+00 6.605477e+00 -1.068738e+01
      vertex   -3.000000e+00 6.738016e+00 -1.060510e+01
    endloop
  endfacet
  facet normal 1.000000e+00 0.000000e+00 0.000000e+00
    outer loop
      vertex   -3.000000e+00 6.150610e+00 -1.000000e+01
      vertex   -3.000000e+00 6.738016e+00 -1.060510e+01
      vertex   -3.000000e+00 6.869531e+00 -1.052118e+01
    endloop
  endfacet
  facet normal 1.000000e+00 0.000000e+00 -0.000000e+00
    outer loop
      vertex   -3.000000e+00 7.000000e+00 -1.043565e+01
      vertex   -3.000000e+00 7.000000e+00 -1.000000e+01
      vertex   -3.000000e+00 6.869531e+00 -1.052118e+01
    endloop
  endfacet
  facet normal 1.000000e+00 0.000000e+00 -0.000000e+00
    outer loop
      vertex   -3.000000e+00 6.869531e+00 -1.052118e+01
      vertex   -3.000000e+00 7.000000e+00 -1.000000e+01
      vertex   -3.000000e+00 6.150610e+00 -1.000000e+01
    endloop
  endfacet
endsolid
