solid ASCII
  facet normal 3.482431e-01 4.161338e-01 8.399758e-01
    outer loop
      vertex   -4.121893e+00 -5.000000e+00 -1.000000e+01
      vertex   -4.195262e+00 -4.938600e+00 -1.000000e+01
      vertex   -4.233571e+00 -5.000000e+00 -9.953700e+00
    endloop
  endfacet
  facet normal 3.548931e-01 4.115783e-01 8.394368e-01
    outer loop
      vertex   -4.233571e+00 -5.000000e+00 -9.953700e+00
      vertex   -4.195262e+00 -4.938600e+00 -1.000000e+01
      vertex   -4.267718e+00 -4.876124e+00 -1.000000e+01
    endloop
  endfacet
  facet normal 3.567149e-01 4.117586e-01 8.385758e-01
    outer loop
      vertex   -4.233571e+00 -5.000000e+00 -9.953700e+00
      vertex   -4.267718e+00 -4.876124e+00 -1.000000e+01
      vertex   -4.312227e+00 -4.996607e+00 -9.921907e+00
    endloop
  endfacet
  facet normal 3.586208e-01 4.108245e-01 8.382209e-01
    outer loop
      vertex   -4.312227e+00 -4.996607e+00 -9.921907e+00
      vertex   -4.267718e+00 -4.876124e+00 -1.000000e+01
      vertex   -4.368365e+00 -4.947603e+00 -9.921907e+00
    endloop
  endfacet
  facet normal 3.614194e-01 4.140305e-01 8.354369e-01
    outer loop
      vertex   -4.312227e+00 -4.996607e+00 -9.921907e+00
      vertex   -4.368365e+00 -4.947603e+00 -9.921907e+00
      vertex   -4.344729e+00 -5.000000e+00 -9.906164e+00
    endloop
  endfacet
  facet normal 3.668818e-01 4.155506e-01 8.322953e-01
    outer loop
      vertex   -4.344729e+00 -5.000000e+00 -9.906164e+00
      vertex   -4.368365e+00 -4.947603e+00 -9.921907e+00
      vertex   -4.455354e+00 -5.000000e+00 -9.857400e+00
    endloop
  endfacet
  facet normal 3.687795e-01 4.129568e-01 8.327475e-01
    outer loop
      vertex   -4.455354e+00 -5.000000e+00 -9.857400e+00
      vertex   -4.368365e+00 -4.947603e+00 -9.921907e+00
      vertex   -4.423945e+00 -4.897968e+00 -9.921907e+00
    endloop
  endfacet
  facet normal 3.727562e-01 4.111715e-01 8.318599e-01
    outer loop
      vertex   -4.455354e+00 -5.000000e+00 -9.857400e+00
      vertex   -4.423945e+00 -4.897968e+00 -9.921907e+00
      vertex   -4.503840e+00 -4.986423e+00 -9.842385e+00
    endloop
  endfacet
  facet normal 3.743209e-01 4.097549e-01 8.318562e-01
    outer loop
      vertex   -4.503840e+00 -4.986423e+00 -9.842385e+00
      vertex   -4.423945e+00 -4.897968e+00 -9.921907e+00
      vertex   -4.559850e+00 -4.935256e+00 -9.842385e+00
    endloop
  endfacet
  facet normal 3.785691e-01 4.144054e-01 8.276192e-01
    outer loop
      vertex   -4.503840e+00 -4.986423e+00 -9.842385e+00
      vertex   -4.559850e+00 -4.935256e+00 -9.842385e+00
      vertex   -4.565432e+00 -5.000000e+00 -9.807413e+00
    endloop
  endfacet
  facet normal 3.855238e-01 4.125663e-01 8.253245e-01
    outer loop
      vertex   -4.565432e+00 -5.000000e+00 -9.807413e+00
      vertex   -4.559850e+00 -4.935256e+00 -9.842385e+00
      vertex   -4.615279e+00 -4.883460e+00 -9.842385e+00
    endloop
  endfacet
  facet normal 3.857838e-01 4.126313e-01 8.251705e-01
    outer loop
      vertex   -4.565432e+00 -5.000000e+00 -9.807413e+00
      vertex   -4.615279e+00 -4.883460e+00 -9.842385e+00
      vertex   -4.696492e+00 -4.969393e+00 -9.761445e+00
    endloop
  endfacet
  facet normal 3.903130e-01 4.083504e-01 8.251701e-01
    outer loop
      vertex   -4.696492e+00 -4.969393e+00 -9.761445e+00
      vertex   -4.615279e+00 -4.883460e+00 -9.842385e+00
      vertex   -4.752298e+00 -4.916052e+00 -9.761445e+00
    endloop
  endfacet
  facet normal 3.957332e-01 4.140211e-01 8.197449e-01
    outer loop
      vertex   -4.696492e+00 -4.969393e+00 -9.761445e+00
      vertex   -4.752298e+00 -4.916052e+00 -9.761445e+00
      vertex   -4.783891e+00 -5.000000e+00 -9.703795e+00
    endloop
  endfacet
  facet normal 4.018059e-01 4.108143e-01 8.184031e-01
    outer loop
      vertex   -4.783891e+00 -5.000000e+00 -9.703795e+00
      vertex   -4.752298e+00 -4.916052e+00 -9.761445e+00
      vertex   -4.889945e+00 -4.945468e+00 -9.679100e+00
    endloop
  endfacet
  facet normal 4.034360e-01 4.153981e-01 8.152814e-01
    outer loop
      vertex   -4.783891e+00 -5.000000e+00 -9.703795e+00
      vertex   -4.889945e+00 -4.945468e+00 -9.679100e+00
      vertex   -4.892246e+00 -5.000000e+00 -9.650176e+00
    endloop
  endfacet
  facet normal 4.129216e-01 4.130953e-01 8.116945e-01
    outer loop
      vertex   -4.892246e+00 -5.000000e+00 -9.650176e+00
      vertex   -4.889945e+00 -4.945468e+00 -9.679100e+00
      vertex   -5.000000e+00 -5.000000e+00 -9.595360e+00
    endloop
  endfacet
  facet normal 4.129892e-01 4.129892e-01 8.117142e-01
    outer loop
      vertex   -5.000000e+00 -5.000000e+00 -9.595360e+00
      vertex   -4.889945e+00 -4.945468e+00 -9.679100e+00
      vertex   -4.945468e+00 -4.889945e+00 -9.679100e+00
    endloop
  endfacet
  facet normal 4.130953e-01 4.129216e-01 8.116945e-01
    outer loop
      vertex   -5.000000e+00 -5.000000e+00 -9.595360e+00
      vertex   -4.945468e+00 -4.889945e+00 -9.679100e+00
      vertex   -5.000000e+00 -4.892246e+00 -9.650176e+00
    endloop
  endfacet
  facet normal 4.163110e-01 3.996113e-01 8.166982e-01
    outer loop
      vertex   -5.000000e+00 -4.892246e+00 -9.650176e+00
      vertex   -4.945468e+00 -4.889945e+00 -9.679100e+00
      vertex   -4.916052e+00 -4.752298e+00 -9.761445e+00
    endloop
  endfacet
  facet normal 4.092960e-01 4.046609e-01 8.177569e-01
    outer loop
      vertex   -5.000000e+00 -4.892246e+00 -9.650176e+00
      vertex   -4.916052e+00 -4.752298e+00 -9.761445e+00
      vertex   -5.000000e+00 -4.783891e+00 -9.703795e+00
    endloop
  endfacet
  facet normal 4.140211e-01 3.957332e-01 8.197449e-01
    outer loop
      vertex   -5.000000e+00 -4.783891e+00 -9.703795e+00
      vertex   -4.916052e+00 -4.752298e+00 -9.761445e+00
      vertex   -4.969393e+00 -4.696492e+00 -9.761445e+00
    endloop
  endfacet
  facet normal 4.173963e-01 3.939792e-01 8.188777e-01
    outer loop
      vertex   -5.000000e+00 -4.783891e+00 -9.703795e+00
      vertex   -4.969393e+00 -4.696492e+00 -9.761445e+00
      vertex   -5.000000e+00 -4.674948e+00 -9.756209e+00
    endloop
  endfacet
  facet normal 4.126731e-01 3.857394e-01 8.251703e-01
    outer loop
      vertex   -5.000000e+00 -4.674948e+00 -9.756209e+00
      vertex   -4.969393e+00 -4.696492e+00 -9.761445e+00
      vertex   -4.883460e+00 -4.615279e+00 -9.842385e+00
    endloop
  endfacet
  facet normal 4.127188e-01 3.856663e-01 8.251816e-01
    outer loop
      vertex   -5.000000e+00 -4.674948e+00 -9.756209e+00
      vertex   -4.883460e+00 -4.615279e+00 -9.842385e+00
      vertex   -4.935256e+00 -4.559850e+00 -9.842385e+00
    endloop
  endfacet
  facet normal 4.055027e-01 3.789232e-01 8.318562e-01
    outer loop
      vertex   -4.935256e+00 -4.559850e+00 -9.842385e+00
      vertex   -4.883460e+00 -4.615279e+00 -9.842385e+00
      vertex   -4.796832e+00 -4.533408e+00 -9.921907e+00
    endloop
  endfacet
  facet normal 4.055027e-01 3.789232e-01 8.318562e-01
    outer loop
      vertex   -4.935256e+00 -4.559850e+00 -9.842385e+00
      vertex   -4.796832e+00 -4.533408e+00 -9.921907e+00
      vertex   -4.847709e+00 -4.478962e+00 -9.921907e+00
    endloop
  endfacet
  facet normal 3.983874e-01 3.722742e-01 8.382717e-01
    outer loop
      vertex   -4.847709e+00 -4.478962e+00 -9.921907e+00
      vertex   -4.796832e+00 -4.533408e+00 -9.921907e+00
      vertex   -4.747997e+00 -4.409821e+00 -1.000000e+01
    endloop
  endfacet
  facet normal 4.018303e-01 3.677222e-01 8.386375e-01
    outer loop
      vertex   -4.847709e+00 -4.478962e+00 -9.921907e+00
      vertex   -4.747997e+00 -4.409821e+00 -1.000000e+01
      vertex   -4.812585e+00 -4.339242e+00 -1.000000e+01
    endloop
  endfacet
  facet normal 3.616548e-01 4.071087e-01 8.387302e-01
    outer loop
      vertex   -4.267718e+00 -4.876124e+00 -1.000000e+01
      vertex   -4.339242e+00 -4.812585e+00 -1.000000e+01
      vertex   -4.368365e+00 -4.947603e+00 -9.921907e+00
    endloop
  endfacet
  facet normal 3.630908e-01 4.065866e-01 8.383629e-01
    outer loop
      vertex   -4.368365e+00 -4.947603e+00 -9.921907e+00
      vertex   -4.339242e+00 -4.812585e+00 -1.000000e+01
      vertex   -4.423945e+00 -4.897968e+00 -9.921907e+00
    endloop
  endfacet
  facet normal 3.675214e-01 4.023118e-01 8.384947e-01
    outer loop
      vertex   -4.423945e+00 -4.897968e+00 -9.921907e+00
      vertex   -4.339242e+00 -4.812585e+00 -1.000000e+01
      vertex   -4.478962e+00 -4.847709e+00 -9.921907e+00
    endloop
  endfacet
  facet normal 3.677222e-01 4.018303e-01 8.386375e-01
    outer loop
      vertex   -4.478962e+00 -4.847709e+00 -9.921907e+00
      vertex   -4.339242e+00 -4.812585e+00 -1.000000e+01
      vertex   -4.409821e+00 -4.747997e+00 -1.000000e+01
    endloop
  endfacet
  facet normal 3.722742e-01 3.983874e-01 8.382717e-01
    outer loop
      vertex   -4.478962e+00 -4.847709e+00 -9.921907e+00
      vertex   -4.409821e+00 -4.747997e+00 -1.000000e+01
      vertex   -4.533408e+00 -4.796832e+00 -9.921907e+00
    endloop
  endfacet
  facet normal 3.734624e-01 3.961960e-01 8.387816e-01
    outer loop
      vertex   -4.533408e+00 -4.796832e+00 -9.921907e+00
      vertex   -4.409821e+00 -4.747997e+00 -1.000000e+01
      vertex   -4.479439e+00 -4.682374e+00 -1.000000e+01
    endloop
  endfacet
  facet normal 3.768130e-01 3.942266e-01 8.382108e-01
    outer loop
      vertex   -4.533408e+00 -4.796832e+00 -9.921907e+00
      vertex   -4.479439e+00 -4.682374e+00 -1.000000e+01
      vertex   -4.587276e+00 -4.745344e+00 -9.921907e+00
    endloop
  endfacet
  facet normal 3.792931e-01 3.906618e-01 8.387610e-01
    outer loop
      vertex   -4.587276e+00 -4.745344e+00 -9.921907e+00
      vertex   -4.479439e+00 -4.682374e+00 -1.000000e+01
      vertex   -4.548080e+00 -4.615730e+00 -1.000000e+01
    endloop
  endfacet
  facet normal 3.811308e-01 3.898357e-01 8.383122e-01
    outer loop
      vertex   -4.587276e+00 -4.745344e+00 -9.921907e+00
      vertex   -4.548080e+00 -4.615730e+00 -1.000000e+01
      vertex   -4.640559e+00 -4.693250e+00 -9.921907e+00
    endloop
  endfacet
  facet normal 3.852213e-01 3.852213e-01 8.385757e-01
    outer loop
      vertex   -4.640559e+00 -4.693250e+00 -9.921907e+00
      vertex   -4.548080e+00 -4.615730e+00 -1.000000e+01
      vertex   -4.615730e+00 -4.548080e+00 -1.000000e+01
    endloop
  endfacet
  facet normal 3.852213e-01 3.852213e-01 8.385757e-01
    outer loop
      vertex   -4.640559e+00 -4.693250e+00 -9.921907e+00
      vertex   -4.615730e+00 -4.548080e+00 -1.000000e+01
      vertex   -4.693250e+00 -4.640559e+00 -9.921907e+00
    endloop
  endfacet
  facet normal 3.898357e-01 3.811308e-01 8.383122e-01
    outer loop
      vertex   -4.693250e+00 -4.640559e+00 -9.921907e+00
      vertex   -4.615730e+00 -4.548080e+00 -1.000000e+01
      vertex   -4.745344e+00 -4.587276e+00 -9.921907e+00
    endloop
  endfacet
  facet normal 3.968437e-01 3.879823e-01 8.318562e-01
    outer loop
      vertex   -4.693250e+00 -4.640559e+00 -9.921907e+00
      vertex   -4.745344e+00 -4.587276e+00 -9.921907e+00
      vertex   -4.831042e+00 -4.670120e+00 -9.842385e+00
    endloop
  endfacet
  facet normal 4.011988e-01 3.834772e-01 8.318562e-01
    outer loop
      vertex   -4.831042e+00 -4.670120e+00 -9.842385e+00
      vertex   -4.745344e+00 -4.587276e+00 -9.921907e+00
      vertex   -4.883460e+00 -4.615279e+00 -9.842385e+00
    endloop
  endfacet
  facet normal 4.083504e-01 3.903130e-01 8.251701e-01
    outer loop
      vertex   -4.831042e+00 -4.670120e+00 -9.842385e+00
      vertex   -4.883460e+00 -4.615279e+00 -9.842385e+00
      vertex   -4.969393e+00 -4.696492e+00 -9.761445e+00
    endloop
  endfacet
  facet normal 3.906618e-01 3.792931e-01 8.387610e-01
    outer loop
      vertex   -4.615730e+00 -4.548080e+00 -1.000000e+01
      vertex   -4.682374e+00 -4.479439e+00 -1.000000e+01
      vertex   -4.745344e+00 -4.587276e+00 -9.921907e+00
    endloop
  endfacet
  facet normal 3.942266e-01 3.768130e-01 8.382108e-01
    outer loop
      vertex   -4.745344e+00 -4.587276e+00 -9.921907e+00
      vertex   -4.682374e+00 -4.479439e+00 -1.000000e+01
      vertex   -4.796832e+00 -4.533408e+00 -9.921907e+00
    endloop
  endfacet
  facet normal 4.011988e-01 3.834772e-01 8.318562e-01
    outer loop
      vertex   -4.745344e+00 -4.587276e+00 -9.921907e+00
      vertex   -4.796832e+00 -4.533408e+00 -9.921907e+00
      vertex   -4.883460e+00 -4.615279e+00 -9.842385e+00
    endloop
  endfacet
  facet normal 3.961960e-01 3.734624e-01 8.387816e-01
    outer loop
      vertex   -4.682374e+00 -4.479439e+00 -1.000000e+01
      vertex   -4.747997e+00 -4.409821e+00 -1.000000e+01
      vertex   -4.796832e+00 -4.533408e+00 -9.921907e+00
    endloop
  endfacet
  facet normal 4.071087e-01 3.616548e-01 8.387302e-01
    outer loop
      vertex   -4.876124e+00 -4.267718e+00 -1.000000e+01
      vertex   -4.947603e+00 -4.368365e+00 -9.921907e+00
      vertex   -4.812585e+00 -4.339242e+00 -1.000000e+01
    endloop
  endfacet
  facet normal 4.065866e-01 3.630908e-01 8.383629e-01
    outer loop
      vertex   -4.812585e+00 -4.339242e+00 -1.000000e+01
      vertex   -4.947603e+00 -4.368365e+00 -9.921907e+00
      vertex   -4.897968e+00 -4.423945e+00 -9.921907e+00
    endloop
  endfacet
  facet normal 4.023118e-01 3.675214e-01 8.384947e-01
    outer loop
      vertex   -4.812585e+00 -4.339242e+00 -1.000000e+01
      vertex   -4.897968e+00 -4.423945e+00 -9.921907e+00
      vertex   -4.847709e+00 -4.478962e+00 -9.921907e+00
    endloop
  endfacet
  facet normal 4.097549e-01 3.743209e-01 8.318562e-01
    outer loop
      vertex   -4.847709e+00 -4.478962e+00 -9.921907e+00
      vertex   -4.897968e+00 -4.423945e+00 -9.921907e+00
      vertex   -4.986423e+00 -4.503840e+00 -9.842385e+00
    endloop
  endfacet
  facet normal 4.097549e-01 3.743209e-01 8.318562e-01
    outer loop
      vertex   -4.847709e+00 -4.478962e+00 -9.921907e+00
      vertex   -4.986423e+00 -4.503840e+00 -9.842385e+00
      vertex   -4.935256e+00 -4.559850e+00 -9.842385e+00
    endloop
  endfacet
  facet normal 4.144054e-01 3.785691e-01 8.276192e-01
    outer loop
      vertex   -4.935256e+00 -4.559850e+00 -9.842385e+00
      vertex   -4.986423e+00 -4.503840e+00 -9.842385e+00
      vertex   -5.000000e+00 -4.565432e+00 -9.807413e+00
    endloop
  endfacet
  facet normal 4.124850e-01 3.858286e-01 8.252227e-01
    outer loop
      vertex   -4.935256e+00 -4.559850e+00 -9.842385e+00
      vertex   -5.000000e+00 -4.565432e+00 -9.807413e+00
      vertex   -5.000000e+00 -4.674948e+00 -9.756209e+00
    endloop
  endfacet
  facet normal 4.108245e-01 3.586208e-01 8.382209e-01
    outer loop
      vertex   -4.947603e+00 -4.368365e+00 -9.921907e+00
      vertex   -4.876124e+00 -4.267718e+00 -1.000000e+01
      vertex   -4.996607e+00 -4.312227e+00 -9.921907e+00
    endloop
  endfacet
  facet normal 4.123317e-01 3.555428e-01 8.387919e-01
    outer loop
      vertex   -4.996607e+00 -4.312227e+00 -9.921907e+00
      vertex   -4.876124e+00 -4.267718e+00 -1.000000e+01
      vertex   -4.938600e+00 -4.195262e+00 -1.000000e+01
    endloop
  endfacet
  facet normal 4.101787e-01 3.569237e-01 8.392609e-01
    outer loop
      vertex   -4.996607e+00 -4.312227e+00 -9.921907e+00
      vertex   -4.938600e+00 -4.195262e+00 -1.000000e+01
      vertex   -5.000000e+00 -4.233571e+00 -9.953700e+00
    endloop
  endfacet
  facet normal 4.161338e-01 3.482431e-01 8.399758e-01
    outer loop
      vertex   -5.000000e+00 -4.233571e+00 -9.953700e+00
      vertex   -4.938600e+00 -4.195262e+00 -1.000000e+01
      vertex   -5.000000e+00 -4.121893e+00 -1.000000e+01
    endloop
  endfacet
  facet normal 4.468504e-01 3.517528e-01 8.225538e-01
    outer loop
      vertex   -5.000000e+00 -4.233571e+00 -9.953700e+00
      vertex   -5.000000e+00 -4.344729e+00 -9.906164e+00
      vertex   -4.996607e+00 -4.312227e+00 -9.921907e+00
    endloop
  endfacet
  facet normal 4.140305e-01 3.614194e-01 8.354369e-01
    outer loop
      vertex   -4.996607e+00 -4.312227e+00 -9.921907e+00
      vertex   -5.000000e+00 -4.344729e+00 -9.906164e+00
      vertex   -4.947603e+00 -4.368365e+00 -9.921907e+00
    endloop
  endfacet
  facet normal 4.155506e-01 3.668818e-01 8.322953e-01
    outer loop
      vertex   -5.000000e+00 -4.344729e+00 -9.906164e+00
      vertex   -5.000000e+00 -4.455354e+00 -9.857400e+00
      vertex   -4.947603e+00 -4.368365e+00 -9.921907e+00
    endloop
  endfacet
  facet normal 4.129568e-01 3.687795e-01 8.327475e-01
    outer loop
      vertex   -4.947603e+00 -4.368365e+00 -9.921907e+00
      vertex   -5.000000e+00 -4.455354e+00 -9.857400e+00
      vertex   -4.897968e+00 -4.423945e+00 -9.921907e+00
    endloop
  endfacet
  facet normal 4.111715e-01 3.727562e-01 8.318599e-01
    outer loop
      vertex   -4.897968e+00 -4.423945e+00 -9.921907e+00
      vertex   -5.000000e+00 -4.455354e+00 -9.857400e+00
      vertex   -4.986423e+00 -4.503840e+00 -9.842385e+00
    endloop
  endfacet
  facet normal 4.250559e-01 3.742625e-01 8.241693e-01
    outer loop
      vertex   -4.986423e+00 -4.503840e+00 -9.842385e+00
      vertex   -5.000000e+00 -4.455354e+00 -9.857400e+00
      vertex   -5.000000e+00 -4.565432e+00 -9.807413e+00
    endloop
  endfacet
  facet normal 3.939792e-01 4.173963e-01 8.188777e-01
    outer loop
      vertex   -4.783891e+00 -5.000000e+00 -9.703795e+00
      vertex   -4.674948e+00 -5.000000e+00 -9.756209e+00
      vertex   -4.696492e+00 -4.969393e+00 -9.761445e+00
    endloop
  endfacet
  facet normal 3.857873e-01 4.127005e-01 8.251342e-01
    outer loop
      vertex   -4.696492e+00 -4.969393e+00 -9.761445e+00
      vertex   -4.674948e+00 -5.000000e+00 -9.756209e+00
      vertex   -4.565432e+00 -5.000000e+00 -9.807413e+00
    endloop
  endfacet
  facet normal 3.742625e-01 4.250559e-01 8.241693e-01
    outer loop
      vertex   -4.565432e+00 -5.000000e+00 -9.807413e+00
      vertex   -4.455354e+00 -5.000000e+00 -9.857400e+00
      vertex   -4.503840e+00 -4.986423e+00 -9.842385e+00
    endloop
  endfacet
  facet normal 3.517528e-01 4.468504e-01 8.225538e-01
    outer loop
      vertex   -4.344729e+00 -5.000000e+00 -9.906164e+00
      vertex   -4.233571e+00 -5.000000e+00 -9.953700e+00
      vertex   -4.312227e+00 -4.996607e+00 -9.921907e+00
    endloop
  endfacet
  facet normal 3.789232e-01 4.055027e-01 8.318562e-01
    outer loop
      vertex   -4.533408e+00 -4.796832e+00 -9.921907e+00
      vertex   -4.615279e+00 -4.883460e+00 -9.842385e+00
      vertex   -4.478962e+00 -4.847709e+00 -9.921907e+00
    endloop
  endfacet
  facet normal 3.789232e-01 4.055027e-01 8.318562e-01
    outer loop
      vertex   -4.478962e+00 -4.847709e+00 -9.921907e+00
      vertex   -4.615279e+00 -4.883460e+00 -9.842385e+00
      vertex   -4.559850e+00 -4.935256e+00 -9.842385e+00
    endloop
  endfacet
  facet normal 3.743209e-01 4.097549e-01 8.318562e-01
    outer loop
      vertex   -4.478962e+00 -4.847709e+00 -9.921907e+00
      vertex   -4.559850e+00 -4.935256e+00 -9.842385e+00
      vertex   -4.423945e+00 -4.897968e+00 -9.921907e+00
    endloop
  endfacet
  facet normal 3.834772e-01 4.011988e-01 8.318562e-01
    outer loop
      vertex   -4.615279e+00 -4.883460e+00 -9.842385e+00
      vertex   -4.533408e+00 -4.796832e+00 -9.921907e+00
      vertex   -4.670120e+00 -4.831042e+00 -9.842385e+00
    endloop
  endfacet
  facet normal 3.834772e-01 4.011988e-01 8.318562e-01
    outer loop
      vertex   -4.670120e+00 -4.831042e+00 -9.842385e+00
      vertex   -4.533408e+00 -4.796832e+00 -9.921907e+00
      vertex   -4.587276e+00 -4.745344e+00 -9.921907e+00
    endloop
  endfacet
  facet normal 3.879823e-01 3.968437e-01 8.318562e-01
    outer loop
      vertex   -4.670120e+00 -4.831042e+00 -9.842385e+00
      vertex   -4.587276e+00 -4.745344e+00 -9.921907e+00
      vertex   -4.724365e+00 -4.778008e+00 -9.842385e+00
    endloop
  endfacet
  facet normal 3.879823e-01 3.968437e-01 8.318562e-01
    outer loop
      vertex   -4.724365e+00 -4.778008e+00 -9.842385e+00
      vertex   -4.587276e+00 -4.745344e+00 -9.921907e+00
      vertex   -4.640559e+00 -4.693250e+00 -9.921907e+00
    endloop
  endfacet
  facet normal 3.924380e-01 3.924380e-01 8.318562e-01
    outer loop
      vertex   -4.724365e+00 -4.778008e+00 -9.842385e+00
      vertex   -4.640559e+00 -4.693250e+00 -9.921907e+00
      vertex   -4.778008e+00 -4.724365e+00 -9.842385e+00
    endloop
  endfacet
  facet normal 3.924380e-01 3.924380e-01 8.318562e-01
    outer loop
      vertex   -4.778008e+00 -4.724365e+00 -9.842385e+00
      vertex   -4.640559e+00 -4.693250e+00 -9.921907e+00
      vertex   -4.693250e+00 -4.640559e+00 -9.921907e+00
    endloop
  endfacet
  facet normal 3.968437e-01 3.879823e-01 8.318562e-01
    outer loop
      vertex   -4.778008e+00 -4.724365e+00 -9.842385e+00
      vertex   -4.693250e+00 -4.640559e+00 -9.921907e+00
      vertex   -4.831042e+00 -4.670120e+00 -9.842385e+00
    endloop
  endfacet
  facet normal 3.903130e-01 4.083504e-01 8.251701e-01
    outer loop
      vertex   -4.615279e+00 -4.883460e+00 -9.842385e+00
      vertex   -4.670120e+00 -4.831042e+00 -9.842385e+00
      vertex   -4.752298e+00 -4.916052e+00 -9.761445e+00
    endloop
  endfacet
  facet normal 3.948984e-01 4.039177e-01 8.251701e-01
    outer loop
      vertex   -4.752298e+00 -4.916052e+00 -9.761445e+00
      vertex   -4.670120e+00 -4.831042e+00 -9.842385e+00
      vertex   -4.807497e+00 -4.862085e+00 -9.761445e+00
    endloop
  endfacet
  facet normal 4.017582e-01 4.109342e-01 8.183663e-01
    outer loop
      vertex   -4.752298e+00 -4.916052e+00 -9.761445e+00
      vertex   -4.807497e+00 -4.862085e+00 -9.761445e+00
      vertex   -4.889945e+00 -4.945468e+00 -9.679100e+00
    endloop
  endfacet
  facet normal 4.063721e-01 4.063721e-01 8.183663e-01
    outer loop
      vertex   -4.889945e+00 -4.945468e+00 -9.679100e+00
      vertex   -4.807497e+00 -4.862085e+00 -9.761445e+00
      vertex   -4.945468e+00 -4.889945e+00 -9.679100e+00
    endloop
  endfacet
  facet normal 3.948984e-01 4.039177e-01 8.251701e-01
    outer loop
      vertex   -4.807497e+00 -4.862085e+00 -9.761445e+00
      vertex   -4.670120e+00 -4.831042e+00 -9.842385e+00
      vertex   -4.724365e+00 -4.778008e+00 -9.842385e+00
    endloop
  endfacet
  facet normal 3.994335e-01 3.994335e-01 8.251701e-01
    outer loop
      vertex   -4.807497e+00 -4.862085e+00 -9.761445e+00
      vertex   -4.724365e+00 -4.778008e+00 -9.842385e+00
      vertex   -4.862085e+00 -4.807497e+00 -9.761445e+00
    endloop
  endfacet
  facet normal 3.994335e-01 3.994335e-01 8.251701e-01
    outer loop
      vertex   -4.862085e+00 -4.807497e+00 -9.761445e+00
      vertex   -4.724365e+00 -4.778008e+00 -9.842385e+00
      vertex   -4.778008e+00 -4.724365e+00 -9.842385e+00
    endloop
  endfacet
  facet normal 4.039177e-01 3.948984e-01 8.251701e-01
    outer loop
      vertex   -4.862085e+00 -4.807497e+00 -9.761445e+00
      vertex   -4.778008e+00 -4.724365e+00 -9.842385e+00
      vertex   -4.916052e+00 -4.752298e+00 -9.761445e+00
    endloop
  endfacet
  facet normal 4.039177e-01 3.948984e-01 8.251701e-01
    outer loop
      vertex   -4.916052e+00 -4.752298e+00 -9.761445e+00
      vertex   -4.778008e+00 -4.724365e+00 -9.842385e+00
      vertex   -4.831042e+00 -4.670120e+00 -9.842385e+00
    endloop
  endfacet
  facet normal 4.083504e-01 3.903130e-01 8.251701e-01
    outer loop
      vertex   -4.916052e+00 -4.752298e+00 -9.761445e+00
      vertex   -4.831042e+00 -4.670120e+00 -9.842385e+00
      vertex   -4.969393e+00 -4.696492e+00 -9.761445e+00
    endloop
  endfacet
  facet normal 4.063721e-01 4.063721e-01 8.183663e-01
    outer loop
      vertex   -4.807497e+00 -4.862085e+00 -9.761445e+00
      vertex   -4.862085e+00 -4.807497e+00 -9.761445e+00
      vertex   -4.945468e+00 -4.889945e+00 -9.679100e+00
    endloop
  endfacet
  facet normal 4.109342e-01 4.017582e-01 8.183663e-01
    outer loop
      vertex   -4.945468e+00 -4.889945e+00 -9.679100e+00
      vertex   -4.862085e+00 -4.807497e+00 -9.761445e+00
      vertex   -4.916052e+00 -4.752298e+00 -9.761445e+00
    endloop
  endfacet
  facet normal -4.130322e-01 -3.690295e-01 -8.325993e-01
    outer loop
      vertex   -5.000000e+00 -4.404543e+00 -1.000000e+01
      vertex   -4.937618e+00 -4.474363e+00 -1.000000e+01
      vertex   -5.000000e+00 -4.524962e+00 -9.946627e+00
    endloop
  endfacet
  facet normal -4.077121e-01 -3.753663e-01 -8.323887e-01
    outer loop
      vertex   -5.000000e+00 -4.524962e+00 -9.946627e+00
      vertex   -4.937618e+00 -4.474363e+00 -1.000000e+01
      vertex   -4.973121e+00 -4.588183e+00 -9.931283e+00
    endloop
  endfacet
  facet normal -4.176235e-01 -3.780836e-01 -8.262224e-01
    outer loop
      vertex   -5.000000e+00 -4.524962e+00 -9.946627e+00
      vertex   -4.973121e+00 -4.588183e+00 -9.931283e+00
      vertex   -5.000000e+00 -4.644734e+00 -9.891819e+00
    endloop
  endfacet
  facet normal -4.101228e-01 -3.827653e-01 -8.278224e-01
    outer loop
      vertex   -5.000000e+00 -4.644734e+00 -9.891819e+00
      vertex   -4.973121e+00 -4.588183e+00 -9.931283e+00
      vertex   -4.920045e+00 -4.645053e+00 -9.931283e+00
    endloop
  endfacet
  facet normal -4.093197e-01 -3.871925e-01 -8.261594e-01
    outer loop
      vertex   -5.000000e+00 -4.644734e+00 -9.891819e+00
      vertex   -4.920045e+00 -4.645053e+00 -9.931283e+00
      vertex   -4.994430e+00 -4.715280e+00 -9.861516e+00
    endloop
  endfacet
  facet normal -4.074688e-01 -3.891487e-01 -8.261552e-01
    outer loop
      vertex   -4.994430e+00 -4.715280e+00 -9.861516e+00
      vertex   -4.920045e+00 -4.645053e+00 -9.931283e+00
      vertex   -4.939891e+00 -4.772387e+00 -9.861516e+00
    endloop
  endfacet
  facet normal -4.108305e-01 -3.923593e-01 -8.229656e-01
    outer loop
      vertex   -4.994430e+00 -4.715280e+00 -9.861516e+00
      vertex   -4.939891e+00 -4.772387e+00 -9.861516e+00
      vertex   -5.000000e+00 -4.763842e+00 -9.835583e+00
    endloop
  endfacet
  facet normal -4.104633e-01 -3.991528e-01 -8.198762e-01
    outer loop
      vertex   -5.000000e+00 -4.763842e+00 -9.835583e+00
      vertex   -4.939891e+00 -4.772387e+00 -9.861516e+00
      vertex   -5.000000e+00 -4.882270e+00 -9.777927e+00
    endloop
  endfacet
  facet normal -4.102697e-01 -3.992838e-01 -8.199092e-01
    outer loop
      vertex   -5.000000e+00 -4.882270e+00 -9.777927e+00
      vertex   -4.939891e+00 -4.772387e+00 -9.861516e+00
      vertex   -4.956939e+00 -4.900276e+00 -9.790706e+00
    endloop
  endfacet
  facet normal -4.124515e-01 -4.085224e-01 -8.142439e-01
    outer loop
      vertex   -5.000000e+00 -4.882270e+00 -9.777927e+00
      vertex   -4.956939e+00 -4.900276e+00 -9.790706e+00
      vertex   -5.000000e+00 -5.000000e+00 -9.718859e+00
    endloop
  endfacet
  facet normal -4.099712e-01 -4.099712e-01 -8.147682e-01
    outer loop
      vertex   -5.000000e+00 -5.000000e+00 -9.718859e+00
      vertex   -4.956939e+00 -4.900276e+00 -9.790706e+00
      vertex   -4.900276e+00 -4.956939e+00 -9.790706e+00
    endloop
  endfacet
  facet normal -4.085224e-01 -4.124515e-01 -8.142439e-01
    outer loop
      vertex   -5.000000e+00 -5.000000e+00 -9.718859e+00
      vertex   -4.900276e+00 -4.956939e+00 -9.790706e+00
      vertex   -4.882270e+00 -5.000000e+00 -9.777927e+00
    endloop
  endfacet
  facet normal -3.992838e-01 -4.102697e-01 -8.199092e-01
    outer loop
      vertex   -4.882270e+00 -5.000000e+00 -9.777927e+00
      vertex   -4.900276e+00 -4.956939e+00 -9.790706e+00
      vertex   -4.772387e+00 -4.939891e+00 -9.861516e+00
    endloop
  endfacet
  facet normal -3.991528e-01 -4.104633e-01 -8.198762e-01
    outer loop
      vertex   -4.882270e+00 -5.000000e+00 -9.777927e+00
      vertex   -4.772387e+00 -4.939891e+00 -9.861516e+00
      vertex   -4.763842e+00 -5.000000e+00 -9.835583e+00
    endloop
  endfacet
  facet normal -3.923593e-01 -4.108305e-01 -8.229656e-01
    outer loop
      vertex   -4.763842e+00 -5.000000e+00 -9.835583e+00
      vertex   -4.772387e+00 -4.939891e+00 -9.861516e+00
      vertex   -4.715280e+00 -4.994430e+00 -9.861516e+00
    endloop
  endfacet
  facet normal -3.837211e-01 -4.384518e-01 -8.127227e-01
    outer loop
      vertex   -4.763842e+00 -5.000000e+00 -9.835583e+00
      vertex   -4.715280e+00 -4.994430e+00 -9.861516e+00
      vertex   -4.644734e+00 -5.000000e+00 -9.891819e+00
    endloop
  endfacet
  facet normal -3.871925e-01 -4.093197e-01 -8.261594e-01
    outer loop
      vertex   -4.644734e+00 -5.000000e+00 -9.891819e+00
      vertex   -4.715280e+00 -4.994430e+00 -9.861516e+00
      vertex   -4.645053e+00 -4.920045e+00 -9.931283e+00
    endloop
  endfacet
  facet normal -3.827653e-01 -4.101228e-01 -8.278224e-01
    outer loop
      vertex   -4.644734e+00 -5.000000e+00 -9.891819e+00
      vertex   -4.645053e+00 -4.920045e+00 -9.931283e+00
      vertex   -4.588183e+00 -4.973121e+00 -9.931283e+00
    endloop
  endfacet
  facet normal -3.789268e-01 -4.060099e-01 -8.316071e-01
    outer loop
      vertex   -4.588183e+00 -4.973121e+00 -9.931283e+00
      vertex   -4.645053e+00 -4.920045e+00 -9.931283e+00
      vertex   -4.543300e+00 -4.874262e+00 -1.000000e+01
    endloop
  endfacet
  facet normal -3.751419e-01 -4.081819e-01 -8.322596e-01
    outer loop
      vertex   -4.588183e+00 -4.973121e+00 -9.931283e+00
      vertex   -4.543300e+00 -4.874262e+00 -1.000000e+01
      vertex   -4.474363e+00 -4.937618e+00 -1.000000e+01
    endloop
  endfacet
  facet normal -4.081819e-01 -3.751419e-01 -8.322596e-01
    outer loop
      vertex   -4.937618e+00 -4.474363e+00 -1.000000e+01
      vertex   -4.874262e+00 -4.543300e+00 -1.000000e+01
      vertex   -4.973121e+00 -4.588183e+00 -9.931283e+00
    endloop
  endfacet
  facet normal -4.060099e-01 -3.789268e-01 -8.316071e-01
    outer loop
      vertex   -4.973121e+00 -4.588183e+00 -9.931283e+00
      vertex   -4.874262e+00 -4.543300e+00 -1.000000e+01
      vertex   -4.920045e+00 -4.645053e+00 -9.931283e+00
    endloop
  endfacet
  facet normal -4.028406e-01 -3.808119e-01 -8.322870e-01
    outer loop
      vertex   -4.874262e+00 -4.543300e+00 -1.000000e+01
      vertex   -4.809943e+00 -4.611339e+00 -1.000000e+01
      vertex   -4.920045e+00 -4.645053e+00 -9.931283e+00
    endloop
  endfacet
  facet normal -4.015975e-01 -3.835414e-01 -8.316342e-01
    outer loop
      vertex   -4.920045e+00 -4.645053e+00 -9.931283e+00
      vertex   -4.809943e+00 -4.611339e+00 -1.000000e+01
      vertex   -4.866318e+00 -4.701309e+00 -9.931283e+00
    endloop
  endfacet
  facet normal -4.074688e-01 -3.891487e-01 -8.261552e-01
    outer loop
      vertex   -4.920045e+00 -4.645053e+00 -9.931283e+00
      vertex   -4.866318e+00 -4.701309e+00 -9.931283e+00
      vertex   -4.939891e+00 -4.772387e+00 -9.861516e+00
    endloop
  endfacet
  facet normal -4.029681e-01 -3.938074e-01 -8.261552e-01
    outer loop
      vertex   -4.939891e+00 -4.772387e+00 -9.861516e+00
      vertex   -4.866318e+00 -4.701309e+00 -9.931283e+00
      vertex   -4.884699e+00 -4.828862e+00 -9.861516e+00
    endloop
  endfacet
  facet normal -4.089934e-01 -3.996958e-01 -8.203460e-01
    outer loop
      vertex   -4.939891e+00 -4.772387e+00 -9.861516e+00
      vertex   -4.884699e+00 -4.828862e+00 -9.861516e+00
      vertex   -4.956939e+00 -4.900276e+00 -9.790706e+00
    endloop
  endfacet
  facet normal -4.043713e-01 -4.043713e-01 -8.203460e-01
    outer loop
      vertex   -4.956939e+00 -4.900276e+00 -9.790706e+00
      vertex   -4.884699e+00 -4.828862e+00 -9.861516e+00
      vertex   -4.900276e+00 -4.956939e+00 -9.790706e+00
    endloop
  endfacet
  facet normal -3.975385e-01 -3.865206e-01 -8.322049e-01
    outer loop
      vertex   -4.809943e+00 -4.611339e+00 -1.000000e+01
      vertex   -4.744674e+00 -4.678469e+00 -1.000000e+01
      vertex   -4.866318e+00 -4.701309e+00 -9.931283e+00
    endloop
  endfacet
  facet normal -3.970165e-01 -3.879912e-01 -8.317696e-01
    outer loop
      vertex   -4.866318e+00 -4.701309e+00 -9.931283e+00
      vertex   -4.744674e+00 -4.678469e+00 -1.000000e+01
      vertex   -4.811949e+00 -4.756943e+00 -9.931283e+00
    endloop
  endfacet
  facet normal -4.029681e-01 -3.938074e-01 -8.261552e-01
    outer loop
      vertex   -4.866318e+00 -4.701309e+00 -9.931283e+00
      vertex   -4.811949e+00 -4.756943e+00 -9.931283e+00
      vertex   -4.884699e+00 -4.828862e+00 -9.861516e+00
    endloop
  endfacet
  facet normal -3.984141e-01 -3.984141e-01 -8.261552e-01
    outer loop
      vertex   -4.884699e+00 -4.828862e+00 -9.861516e+00
      vertex   -4.811949e+00 -4.756943e+00 -9.931283e+00
      vertex   -4.828862e+00 -4.884699e+00 -9.861516e+00
    endloop
  endfacet
  facet normal -4.043713e-01 -4.043713e-01 -8.203460e-01
    outer loop
      vertex   -4.884699e+00 -4.828862e+00 -9.861516e+00
      vertex   -4.828862e+00 -4.884699e+00 -9.861516e+00
      vertex   -4.900276e+00 -4.956939e+00 -9.790706e+00
    endloop
  endfacet
  facet normal -3.996958e-01 -4.089934e-01 -8.203460e-01
    outer loop
      vertex   -4.900276e+00 -4.956939e+00 -9.790706e+00
      vertex   -4.828862e+00 -4.884699e+00 -9.861516e+00
      vertex   -4.772387e+00 -4.939891e+00 -9.861516e+00
    endloop
  endfacet
  facet normal -3.922718e-01 -3.922718e-01 -8.320130e-01
    outer loop
      vertex   -4.744674e+00 -4.678469e+00 -1.000000e+01
      vertex   -4.678469e+00 -4.744674e+00 -1.000000e+01
      vertex   -4.811949e+00 -4.756943e+00 -9.931283e+00
    endloop
  endfacet
  facet normal -3.922718e-01 -3.922718e-01 -8.320130e-01
    outer loop
      vertex   -4.811949e+00 -4.756943e+00 -9.931283e+00
      vertex   -4.678469e+00 -4.744674e+00 -1.000000e+01
      vertex   -4.756943e+00 -4.811949e+00 -9.931283e+00
    endloop
  endfacet
  facet normal -3.984141e-01 -3.984141e-01 -8.261552e-01
    outer loop
      vertex   -4.811949e+00 -4.756943e+00 -9.931283e+00
      vertex   -4.756943e+00 -4.811949e+00 -9.931283e+00
      vertex   -4.828862e+00 -4.884699e+00 -9.861516e+00
    endloop
  endfacet
  facet normal -3.938074e-01 -4.029681e-01 -8.261552e-01
    outer loop
      vertex   -4.828862e+00 -4.884699e+00 -9.861516e+00
      vertex   -4.756943e+00 -4.811949e+00 -9.931283e+00
      vertex   -4.772387e+00 -4.939891e+00 -9.861516e+00
    endloop
  endfacet
  facet normal -3.879912e-01 -3.970165e-01 -8.317696e-01
    outer loop
      vertex   -4.756943e+00 -4.811949e+00 -9.931283e+00
      vertex   -4.678469e+00 -4.744674e+00 -1.000000e+01
      vertex   -4.701309e+00 -4.866318e+00 -9.931283e+00
    endloop
  endfacet
  facet normal -3.865206e-01 -3.975385e-01 -8.322049e-01
    outer loop
      vertex   -4.701309e+00 -4.866318e+00 -9.931283e+00
      vertex   -4.678469e+00 -4.744674e+00 -1.000000e+01
      vertex   -4.611339e+00 -4.809943e+00 -1.000000e+01
    endloop
  endfacet
  facet normal -3.835414e-01 -4.015975e-01 -8.316342e-01
    outer loop
      vertex   -4.701309e+00 -4.866318e+00 -9.931283e+00
      vertex   -4.611339e+00 -4.809943e+00 -1.000000e+01
      vertex   -4.645053e+00 -4.920045e+00 -9.931283e+00
    endloop
  endfacet
  facet normal -3.808119e-01 -4.028406e-01 -8.322870e-01
    outer loop
      vertex   -4.645053e+00 -4.920045e+00 -9.931283e+00
      vertex   -4.611339e+00 -4.809943e+00 -1.000000e+01
      vertex   -4.543300e+00 -4.874262e+00 -1.000000e+01
    endloop
  endfacet
  facet normal -3.690295e-01 -4.130322e-01 -8.325993e-01
    outer loop
      vertex   -4.404543e+00 -5.000000e+00 -1.000000e+01
      vertex   -4.524962e+00 -5.000000e+00 -9.946627e+00
      vertex   -4.474363e+00 -4.937618e+00 -1.000000e+01
    endloop
  endfacet
  facet normal -3.753663e-01 -4.077121e-01 -8.323887e-01
    outer loop
      vertex   -4.474363e+00 -4.937618e+00 -1.000000e+01
      vertex   -4.524962e+00 -5.000000e+00 -9.946627e+00
      vertex   -4.588183e+00 -4.973121e+00 -9.931283e+00
    endloop
  endfacet
  facet normal -3.780836e-01 -4.176235e-01 -8.262224e-01
    outer loop
      vertex   -4.524962e+00 -5.000000e+00 -9.946627e+00
      vertex   -4.644734e+00 -5.000000e+00 -9.891819e+00
      vertex   -4.588183e+00 -4.973121e+00 -9.931283e+00
    endloop
  endfacet
  facet normal -4.384518e-01 -3.837211e-01 -8.127227e-01
    outer loop
      vertex   -5.000000e+00 -4.763842e+00 -9.835583e+00
      vertex   -5.000000e+00 -4.644734e+00 -9.891819e+00
      vertex   -4.994430e+00 -4.715280e+00 -9.861516e+00
    endloop
  endfacet
  facet normal -3.891487e-01 -4.074688e-01 -8.261552e-01
    outer loop
      vertex   -4.715280e+00 -4.994430e+00 -9.861516e+00
      vertex   -4.772387e+00 -4.939891e+00 -9.861516e+00
      vertex   -4.701309e+00 -4.866318e+00 -9.931283e+00
    endloop
  endfacet
  facet normal -3.938074e-01 -4.029681e-01 -8.261552e-01
    outer loop
      vertex   -4.701309e+00 -4.866318e+00 -9.931283e+00
      vertex   -4.772387e+00 -4.939891e+00 -9.861516e+00
      vertex   -4.756943e+00 -4.811949e+00 -9.931283e+00
    endloop
  endfacet
  facet normal -3.891487e-01 -4.074688e-01 -8.261552e-01
    outer loop
      vertex   -4.645053e+00 -4.920045e+00 -9.931283e+00
      vertex   -4.715280e+00 -4.994430e+00 -9.861516e+00
      vertex   -4.701309e+00 -4.866318e+00 -9.931283e+00
    endloop
  endfacet
  facet normal -1.000000e+00 0.000000e+00 0.000000e+00
    outer loop
      vertex   -5.000000e+00 -5.000000e+00 -9.595360e+00
      vertex   -5.000000e+00 -4.892246e+00 -9.650176e+00
      vertex   -5.000000e+00 -5.000000e+00 -9.718859e+00
    endloop
  endfacet
  facet normal -1.000000e+00 0.000000e+00 0.000000e+00
    outer loop
      vertex   -5.000000e+00 -5.000000e+00 -9.718859e+00
      vertex   -5.000000e+00 -4.892246e+00 -9.650176e+00
      vertex   -5.000000e+00 -4.783891e+00 -9.703795e+00
    endloop
  endfacet
  facet normal -1.000000e+00 0.000000e+00 0.000000e+00
    outer loop
      vertex   -5.000000e+00 -5.000000e+00 -9.718859e+00
      vertex   -5.000000e+00 -4.783891e+00 -9.703795e+00
      vertex   -5.000000e+00 -4.882270e+00 -9.777927e+00
    endloop
  endfacet
  facet normal -1.000000e+00 0.000000e+00 0.000000e+00
    outer loop
      vertex   -5.000000e+00 -4.882270e+00 -9.777927e+00
      vertex   -5.000000e+00 -4.783891e+00 -9.703795e+00
      vertex   -5.000000e+00 -4.674948e+00 -9.756209e+00
    endloop
  endfacet
  facet normal -1.000000e+00 0.000000e+00 0.000000e+00
    outer loop
      vertex   -5.000000e+00 -4.882270e+00 -9.777927e+00
      vertex   -5.000000e+00 -4.674948e+00 -9.756209e+00
      vertex   -5.000000e+00 -4.763842e+00 -9.835583e+00
    endloop
  endfacet
  facet normal -1.000000e+00 0.000000e+00 0.000000e+00
    outer loop
      vertex   -5.000000e+00 -4.763842e+00 -9.835583e+00
      vertex   -5.000000e+00 -4.674948e+00 -9.756209e+00
      vertex   -5.000000e+00 -4.565432e+00 -9.807413e+00
    endloop
  endfacet
  facet normal -1.000000e+00 0.000000e+00 0.000000e+00
    outer loop
      vertex   -5.000000e+00 -4.763842e+00 -9.835583e+00
      vertex   -5.000000e+00 -4.565432e+00 -9.807413e+00
      vertex   -5.000000e+00 -4.644734e+00 -9.891819e+00
    endloop
  endfacet
  facet normal -1.000000e+00 0.000000e+00 0.000000e+00
    outer loop
      vertex   -5.000000e+00 -4.644734e+00 -9.891819e+00
      vertex   -5.000000e+00 -4.565432e+00 -9.807413e+00
      vertex   -5.000000e+00 -4.455354e+00 -9.857400e+00
    endloop
  endfacet
  facet normal -1.000000e+00 0.000000e+00 0.000000e+00
    outer loop
      vertex   -5.000000e+00 -4.644734e+00 -9.891819e+00
      vertex   -5.000000e+00 -4.455354e+00 -9.857400e+00
      vertex   -5.000000e+00 -4.524962e+00 -9.946627e+00
    endloop
  endfacet
  facet normal -1.000000e+00 0.000000e+00 0.000000e+00
    outer loop
      vertex   -5.000000e+00 -4.524962e+00 -9.946627e+00
      vertex   -5.000000e+00 -4.455354e+00 -9.857400e+00
      vertex   -5.000000e+00 -4.344729e+00 -9.906164e+00
    endloop
  endfacet
  facet normal -1.000000e+00 0.000000e+00 0.000000e+00
    outer loop
      vertex   -5.000000e+00 -4.524962e+00 -9.946627e+00
      vertex   -5.000000e+00 -4.344729e+00 -9.906164e+00
      vertex   -5.000000e+00 -4.404543e+00 -1.000000e+01
    endloop
  endfacet
  facet normal -1.000000e+00 0.000000e+00 0.000000e+00
    outer loop
      vertex   -5.000000e+00 -4.404543e+00 -1.000000e+01
      vertex   -5.000000e+00 -4.344729e+00 -9.906164e+00
      vertex   -5.000000e+00 -4.233571e+00 -9.953700e+00
    endloop
  endfacet
  facet normal -1.000000e+00 0.000000e+00 0.000000e+00
    outer loop
      vertex   -5.000000e+00 -4.404543e+00 -1.000000e+01
      vertex   -5.000000e+00 -4.233571e+00 -9.953700e+00
      vertex   -5.000000e+00 -4.121893e+00 -1.000000e+01
    endloop
  endfacet
  facet normal 0.000000e+00 0.000000e+00 -1.000000e+00
    outer loop
      vertex   -5.000000e+00 -4.121893e+00 -1.000000e+01
      vertex   -4.938600e+00 -4.195262e+00 -1.000000e+01
      vertex   -5.000000e+00 -4.404543e+00 -1.000000e+01
    endloop
  endfacet
  facet normal 0.000000e+00 0.000000e+00 -1.000000e+00
    outer loop
      vertex   -5.000000e+00 -4.404543e+00 -1.000000e+01
      vertex   -4.938600e+00 -4.195262e+00 -1.000000e+01
      vertex   -4.876124e+00 -4.267718e+00 -1.000000e+01
    endloop
  endfacet
  facet normal 0.000000e+00 0.000000e+00 -1.000000e+00
    outer loop
      vertex   -5.000000e+00 -4.404543e+00 -1.000000e+01
      vertex   -4.876124e+00 -4.267718e+00 -1.000000e+01
      vertex   -4.812585e+00 -4.339242e+00 -1.000000e+01
    endloop
  endfacet
  facet normal 0.000000e+00 0.000000e+00 -1.000000e+00
    outer loop
      vertex   -5.000000e+00 -4.404543e+00 -1.000000e+01
      vertex   -4.812585e+00 -4.339242e+00 -1.000000e+01
      vertex   -4.937618e+00 -4.474363e+00 -1.000000e+01
    endloop
  endfacet
  facet normal 0.000000e+00 0.000000e+00 -1.000000e+00
    outer loop
      vertex   -4.937618e+00 -4.474363e+00 -1.000000e+01
      vertex   -4.812585e+00 -4.339242e+00 -1.000000e+01
      vertex   -4.747997e+00 -4.409821e+00 -1.000000e+01
    endloop
  endfacet
  facet normal 0.000000e+00 0.000000e+00 -1.000000e+00
    outer loop
      vertex   -4.937618e+00 -4.474363e+00 -1.000000e+01
      vertex   -4.747997e+00 -4.409821e+00 -1.000000e+01
      vertex   -4.874262e+00 -4.543300e+00 -1.000000e+01
    endloop
  endfacet
  facet normal 0.000000e+00 0.000000e+00 -1.000000e+00
    outer loop
      vertex   -4.874262e+00 -4.543300e+00 -1.000000e+01
      vertex   -4.747997e+00 -4.409821e+00 -1.000000e+01
      vertex   -4.682374e+00 -4.479439e+00 -1.000000e+01
    endloop
  endfacet
  facet normal 0.000000e+00 0.000000e+00 -1.000000e+00
    outer loop
      vertex   -4.874262e+00 -4.543300e+00 -1.000000e+01
      vertex   -4.682374e+00 -4.479439e+00 -1.000000e+01
      vertex   -4.809943e+00 -4.611339e+00 -1.000000e+01
    endloop
  endfacet
  facet normal 0.000000e+00 0.000000e+00 -1.000000e+00
    outer loop
      vertex   -4.809943e+00 -4.611339e+00 -1.000000e+01
      vertex   -4.682374e+00 -4.479439e+00 -1.000000e+01
      vertex   -4.615730e+00 -4.548080e+00 -1.000000e+01
    endloop
  endfacet
  facet normal 0.000000e+00 0.000000e+00 -1.000000e+00
    outer loop
      vertex   -4.809943e+00 -4.611339e+00 -1.000000e+01
      vertex   -4.615730e+00 -4.548080e+00 -1.000000e+01
      vertex   -4.744674e+00 -4.678469e+00 -1.000000e+01
    endloop
  endfacet
  facet normal 0.000000e+00 0.000000e+00 -1.000000e+00
    outer loop
      vertex   -4.744674e+00 -4.678469e+00 -1.000000e+01
      vertex   -4.615730e+00 -4.548080e+00 -1.000000e+01
      vertex   -4.548080e+00 -4.615730e+00 -1.000000e+01
    endloop
  endfacet
  facet normal 0.000000e+00 0.000000e+00 -1.000000e+00
    outer loop
      vertex   -4.744674e+00 -4.678469e+00 -1.000000e+01
      vertex   -4.548080e+00 -4.615730e+00 -1.000000e+01
      vertex   -4.678469e+00 -4.744674e+00 -1.000000e+01
    endloop
  endfacet
  facet normal 0.000000e+00 0.000000e+00 -1.000000e+00
    outer loop
      vertex   -4.678469e+00 -4.744674e+00 -1.000000e+01
      vertex   -4.548080e+00 -4.615730e+00 -1.000000e+01
      vertex   -4.611339e+00 -4.809943e+00 -1.000000e+01
    endloop
  endfacet
  facet normal 0.000000e+00 0.000000e+00 -1.000000e+00
    outer loop
      vertex   -4.611339e+00 -4.809943e+00 -1.000000e+01
      vertex   -4.548080e+00 -4.615730e+00 -1.000000e+01
      vertex   -4.479439e+00 -4.682374e+00 -1.000000e+01
    endloop
  endfacet
  facet normal 0.000000e+00 0.000000e+00 -1.000000e+00
    outer loop
      vertex   -4.611339e+00 -4.809943e+00 -1.000000e+01
      vertex   -4.479439e+00 -4.682374e+00 -1.000000e+01
      vertex   -4.543300e+00 -4.874262e+00 -1.000000e+01
    endloop
  endfacet
  facet normal 0.000000e+00 0.000000e+00 -1.000000e+00
    outer loop
      vertex   -4.543300e+00 -4.874262e+00 -1.000000e+01
      vertex   -4.479439e+00 -4.682374e+00 -1.000000e+01
      vertex   -4.409821e+00 -4.747997e+00 -1.000000e+01
    endloop
  endfacet
  facet normal 0.000000e+00 0.000000e+00 -1.000000e+00
    outer loop
      vertex   -4.543300e+00 -4.874262e+00 -1.000000e+01
      vertex   -4.409821e+00 -4.747997e+00 -1.000000e+01
      vertex   -4.474363e+00 -4.937618e+00 -1.000000e+01
    endloop
  endfacet
  facet normal 0.000000e+00 0.000000e+00 -1.000000e+00
    outer loop
      vertex   -4.474363e+00 -4.937618e+00 -1.000000e+01
      vertex   -4.409821e+00 -4.747997e+00 -1.000000e+01
      vertex   -4.339242e+00 -4.812585e+00 -1.000000e+01
    endloop
  endfacet
  facet normal 0.000000e+00 0.000000e+00 -1.000000e+00
    outer loop
      vertex   -4.474363e+00 -4.937618e+00 -1.000000e+01
      vertex   -4.339242e+00 -4.812585e+00 -1.000000e+01
      vertex   -4.404543e+00 -5.000000e+00 -1.000000e+01
    endloop
  endfacet
  facet normal 0.000000e+00 0.000000e+00 -1.000000e+00
    outer loop
      vertex   -4.404543e+00 -5.000000e+00 -1.000000e+01
      vertex   -4.339242e+00 -4.812585e+00 -1.000000e+01
      vertex   -4.267718e+00 -4.876124e+00 -1.000000e+01
    endloop
  endfacet
  facet normal 0.000000e+00 0.000000e+00 -1.000000e+00
    outer loop
      vertex   -4.404543e+00 -5.000000e+00 -1.000000e+01
      vertex   -4.267718e+00 -4.876124e+00 -1.000000e+01
      vertex   -4.195262e+00 -4.938600e+00 -1.000000e+01
    endloop
  endfacet
  facet normal 0.000000e+00 -0.000000e+00 -1.000000e+00
    outer loop
      vertex   -4.195262e+00 -4.938600e+00 -1.000000e+01
      vertex   -4.121893e+00 -5.000000e+00 -1.000000e+01
      vertex   -4.404543e+00 -5.000000e+00 -1.000000e+01
    endloop
  endfacet
  facet normal 0.000000e+00 -1.000000e+00 0.000000e+00
    outer loop
      vertex   -4.121893e+00 -5.000000e+00 -1.000000e+01
      vertex   -4.233571e+00 -5.000000e+00 -9.953700e+00
      vertex   -4.404543e+00 -5.000000e+00 -1.000000e+01
    endloop
  endfacet
  facet normal 0.000000e+00 -1.000000e+00 0.000000e+00
    outer loop
      vertex   -4.404543e+00 -5.000000e+00 -1.000000e+01
      vertex   -4.233571e+00 -5.000000e+00 -9.953700e+00
      vertex   -4.344729e+00 -5.000000e+00 -9.906164e+00
    endloop
  endfacet
  facet normal 0.000000e+00 -1.000000e+00 0.000000e+00
    outer loop
      vertex   -4.404543e+00 -5.000000e+00 -1.000000e+01
      vertex   -4.344729e+00 -5.000000e+00 -9.906164e+00
      vertex   -4.524962e+00 -5.000000e+00 -9.946627e+00
    endloop
  endfacet
  facet normal 0.000000e+00 -1.000000e+00 0.000000e+00
    outer loop
      vertex   -4.524962e+00 -5.000000e+00 -9.946627e+00
      vertex   -4.344729e+00 -5.000000e+00 -9.906164e+00
      vertex   -4.455354e+00 -5.000000e+00 -9.857400e+00
    endloop
  endfacet
  facet normal 0.000000e+00 -1.000000e+00 0.000000e+00
    outer loop
      vertex   -4.524962e+00 -5.000000e+00 -9.946627e+00
      vertex   -4.455354e+00 -5.000000e+00 -9.857400e+00
      vertex   -4.644734e+00 -5.000000e+00 -9.891819e+00
    endloop
  endfacet
  facet normal 0.000000e+00 -1.000000e+00 0.000000e+00
    outer loop
      vertex   -4.644734e+00 -5.000000e+00 -9.891819e+00
      vertex   -4.455354e+00 -5.000000e+00 -9.857400e+00
      vertex   -4.565432e+00 -5.000000e+00 -9.807413e+00
    endloop
  endfacet
  facet normal 0.000000e+00 -1.000000e+00 0.000000e+00
    outer loop
      vertex   -4.644734e+00 -5.000000e+00 -9.891819e+00
      vertex   -4.565432e+00 -5.000000e+00 -9.807413e+00
      vertex   -4.763842e+00 -5.000000e+00 -9.835583e+00
    endloop
  endfacet
  facet normal 0.000000e+00 -1.000000e+00 0.000000e+00
    outer loop
      vertex   -4.763842e+00 -5.000000e+00 -9.835583e+00
      vertex   -4.565432e+00 -5.000000e+00 -9.807413e+00
      vertex   -4.674948e+00 -5.000000e+00 -9.756209e+00
    endloop
  endfacet
  facet normal 0.000000e+00 -1.000000e+00 0.000000e+00
    outer loop
      vertex   -4.763842e+00 -5.000000e+00 -9.835583e+00
      vertex   -4.674948e+00 -5.000000e+00 -9.756209e+00
      vertex   -4.882270e+00 -5.000000e+00 -9.777927e+00
    endloop
  endfacet
  facet normal 0.000000e+00 -1.000000e+00 0.000000e+00
    outer loop
      vertex   -4.882270e+00 -5.000000e+00 -9.777927e+00
      vertex   -4.674948e+00 -5.000000e+00 -9.756209e+00
      vertex   -4.783891e+00 -5.000000e+00 -9.703795e+00
    endloop
  endfacet
  facet normal 0.000000e+00 -1.000000e+00 0.000000e+00
    outer loop
      vertex   -4.882270e+00 -5.000000e+00 -9.777927e+00
      vertex   -4.783891e+00 -5.000000e+00 -9.703795e+00
      vertex   -5.000000e+00 -5.000000e+00 -9.718859e+00
    endloop
  endfacet
  facet normal 0.000000e+00 -1.000000e+00 0.000000e+00
    outer loop
      vertex   -5.000000e+00 -5.000000e+00 -9.718859e+00
      vertex   -4.783891e+00 -5.000000e+00 -9.703795e+00
      vertex   -4.892246e+00 -5.000000e+00 -9.650176e+00
    endloop
  endfacet
  facet normal 0.000000e+00 -1.000000e+00 0.000000e+00
    outer loop
      vertex   -5.000000e+00 -5.000000e+00 -9.718859e+00
      vertex   -4.892246e+00 -5.000000e+00 -9.650176e+00
      vertex   -5.000000e+00 -5.000000e+00 -9.595360e+00
    endloop
  endfacet
  facet normal 0.000000e+00 0.000000e+00 -1.000000e+00
    outer loop
      vertex   -5.000000e+00 -4.672259e+00 -1.000000e+01
      vertex   -4.936240e+00 -4.739571e+00 -1.000000e+01
      vertex   -5.000000e+00 -5.000000e+00 -1.000000e+01
    endloop
  endfacet
  facet normal 0.000000e+00 0.000000e+00 -1.000000e+00
    outer loop
      vertex   -5.000000e+00 -5.000000e+00 -1.000000e+01
      vertex   -4.936240e+00 -4.739571e+00 -1.000000e+01
      vertex   -4.871574e+00 -4.806014e+00 -1.000000e+01
    endloop
  endfacet
  facet normal 0.000000e+00 0.000000e+00 -1.000000e+00
    outer loop
      vertex   -5.000000e+00 -5.000000e+00 -1.000000e+01
      vertex   -4.871574e+00 -4.806014e+00 -1.000000e+01
      vertex   -4.806014e+00 -4.871574e+00 -1.000000e+01
    endloop
  endfacet
  facet normal 0.000000e+00 -0.000000e+00 -1.000000e+00
    outer loop
      vertex   -4.806014e+00 -4.871574e+00 -1.000000e+01
      vertex   -4.739571e+00 -4.936240e+00 -1.000000e+01
      vertex   -5.000000e+00 -5.000000e+00 -1.000000e+01
    endloop
  endfacet
  facet normal 0.000000e+00 0.000000e+00 -1.000000e+00
    outer loop
      vertex   -5.000000e+00 -5.000000e+00 -1.000000e+01
      vertex   -4.739571e+00 -4.936240e+00 -1.000000e+01
      vertex   -4.672259e+00 -5.000000e+00 -1.000000e+01
    endloop
  endfacet
  facet normal 0.000000e+00 -1.000000e+00 0.000000e+00
    outer loop
      vertex   -4.672259e+00 -5.000000e+00 -1.000000e+01
      vertex   -4.782078e+00 -5.000000e+00 -9.948469e+00
      vertex   -5.000000e+00 -5.000000e+00 -1.000000e+01
    endloop
  endfacet
  facet normal 0.000000e+00 -1.000000e+00 0.000000e+00
    outer loop
      vertex   -5.000000e+00 -5.000000e+00 -1.000000e+01
      vertex   -4.782078e+00 -5.000000e+00 -9.948469e+00
      vertex   -4.891330e+00 -5.000000e+00 -9.895744e+00
    endloop
  endfacet
  facet normal 0.000000e+00 -1.000000e+00 0.000000e+00
    outer loop
      vertex   -5.000000e+00 -5.000000e+00 -1.000000e+01
      vertex   -4.891330e+00 -5.000000e+00 -9.895744e+00
      vertex   -5.000000e+00 -5.000000e+00 -9.841831e+00
    endloop
  endfacet
  facet normal -1.000000e+00 0.000000e+00 0.000000e+00
    outer loop
      vertex   -5.000000e+00 -5.000000e+00 -9.841831e+00
      vertex   -5.000000e+00 -4.891330e+00 -9.895744e+00
      vertex   -5.000000e+00 -5.000000e+00 -1.000000e+01
    endloop
  endfacet
  facet normal -1.000000e+00 0.000000e+00 0.000000e+00
    outer loop
      vertex   -5.000000e+00 -5.000000e+00 -1.000000e+01
      vertex   -5.000000e+00 -4.891330e+00 -9.895744e+00
      vertex   -5.000000e+00 -4.782078e+00 -9.948469e+00
    endloop
  endfacet
  facet normal -1.000000e+00 0.000000e+00 0.000000e+00
    outer loop
      vertex   -5.000000e+00 -5.000000e+00 -1.000000e+01
      vertex   -5.000000e+00 -4.782078e+00 -9.948469e+00
      vertex   -5.000000e+00 -4.672259e+00 -1.000000e+01
    endloop
  endfacet
  facet normal 3.876005e-01 4.091969e-01 8.260289e-01
    outer loop
      vertex   -4.672259e+00 -5.000000e+00 -1.000000e+01
      vertex   -4.739571e+00 -4.936240e+00 -1.000000e+01
      vertex   -4.782078e+00 -5.000000e+00 -9.948469e+00
    endloop
  endfacet
  facet normal 3.937591e-01 4.045762e-01 8.253919e-01
    outer loop
      vertex   -4.782078e+00 -5.000000e+00 -9.948469e+00
      vertex   -4.739571e+00 -4.936240e+00 -1.000000e+01
      vertex   -4.806014e+00 -4.871574e+00 -1.000000e+01
    endloop
  endfacet
  facet normal 3.948055e-01 4.045715e-01 8.248942e-01
    outer loop
      vertex   -4.782078e+00 -5.000000e+00 -9.948469e+00
      vertex   -4.806014e+00 -4.871574e+00 -1.000000e+01
      vertex   -4.863911e+00 -4.975003e+00 -9.921563e+00
    endloop
  endfacet
  facet normal 3.979400e-01 4.024585e-01 8.244216e-01
    outer loop
      vertex   -4.863911e+00 -4.975003e+00 -9.921563e+00
      vertex   -4.806014e+00 -4.871574e+00 -1.000000e+01
      vertex   -4.919770e+00 -4.919770e+00 -9.921563e+00
    endloop
  endfacet
  facet normal 4.019639e-01 4.065281e-01 8.204633e-01
    outer loop
      vertex   -4.863911e+00 -4.975003e+00 -9.921563e+00
      vertex   -4.919770e+00 -4.919770e+00 -9.921563e+00
      vertex   -4.891330e+00 -5.000000e+00 -9.895744e+00
    endloop
  endfacet
  facet normal 4.059137e-01 4.071950e-01 8.181847e-01
    outer loop
      vertex   -4.891330e+00 -5.000000e+00 -9.895744e+00
      vertex   -4.919770e+00 -4.919770e+00 -9.921563e+00
      vertex   -5.000000e+00 -5.000000e+00 -9.841831e+00
    endloop
  endfacet
  facet normal 4.071950e-01 4.059137e-01 8.181847e-01
    outer loop
      vertex   -5.000000e+00 -5.000000e+00 -9.841831e+00
      vertex   -4.919770e+00 -4.919770e+00 -9.921563e+00
      vertex   -5.000000e+00 -4.891330e+00 -9.895744e+00
    endloop
  endfacet
  facet normal 4.065281e-01 4.019639e-01 8.204633e-01
    outer loop
      vertex   -5.000000e+00 -4.891330e+00 -9.895744e+00
      vertex   -4.919770e+00 -4.919770e+00 -9.921563e+00
      vertex   -4.975003e+00 -4.863911e+00 -9.921563e+00
    endloop
  endfacet
  facet normal 4.129898e-01 3.958383e-01 8.202143e-01
    outer loop
      vertex   -5.000000e+00 -4.891330e+00 -9.895744e+00
      vertex   -4.975003e+00 -4.863911e+00 -9.921563e+00
      vertex   -5.000000e+00 -4.782078e+00 -9.948469e+00
    endloop
  endfacet
  facet normal 4.038545e-01 3.947161e-01 8.252883e-01
    outer loop
      vertex   -5.000000e+00 -4.782078e+00 -9.948469e+00
      vertex   -4.975003e+00 -4.863911e+00 -9.921563e+00
      vertex   -4.936240e+00 -4.739571e+00 -1.000000e+01
    endloop
  endfacet
  facet normal 4.091969e-01 3.876005e-01 8.260289e-01
    outer loop
      vertex   -5.000000e+00 -4.782078e+00 -9.948469e+00
      vertex   -4.936240e+00 -4.739571e+00 -1.000000e+01
      vertex   -5.000000e+00 -4.672259e+00 -1.000000e+01
    endloop
  endfacet
  facet normal 3.995790e-01 3.995790e-01 8.250293e-01
    outer loop
      vertex   -4.806014e+00 -4.871574e+00 -1.000000e+01
      vertex   -4.871574e+00 -4.806014e+00 -1.000000e+01
      vertex   -4.919770e+00 -4.919770e+00 -9.921563e+00
    endloop
  endfacet
  facet normal 4.024585e-01 3.979400e-01 8.244216e-01
    outer loop
      vertex   -4.919770e+00 -4.919770e+00 -9.921563e+00
      vertex   -4.871574e+00 -4.806014e+00 -1.000000e+01
      vertex   -4.975003e+00 -4.863911e+00 -9.921563e+00
    endloop
  endfacet
  facet normal 4.049986e-01 3.941702e-01 8.249885e-01
    outer loop
      vertex   -4.871574e+00 -4.806014e+00 -1.000000e+01
      vertex   -4.936240e+00 -4.739571e+00 -1.000000e+01
      vertex   -4.975003e+00 -4.863911e+00 -9.921563e+00
    endloop
  endfacet
  facet normal 3.958383e-01 4.129898e-01 8.202143e-01
    outer loop
      vertex   -4.891330e+00 -5.000000e+00 -9.895744e+00
      vertex   -4.782078e+00 -5.000000e+00 -9.948469e+00
      vertex   -4.863911e+00 -4.975003e+00 -9.921563e+00
    endloop
  endfacet
endsolid
