solid ASCII
  facet normal -7.107037e-01 3.044998e-01 -6.341768e-01
    outer loop
      vertex   -9.183902e+00 4.000000e+00 -8.185888e+00
      vertex   -9.186127e+00 3.955062e+00 -8.204972e+00
      vertex   -9.274202e+00 4.000000e+00 -8.084691e+00
    endloop
  endfacet
  facet normal -7.120145e-01 3.016457e-01 -6.340703e-01
    outer loop
      vertex   -9.274202e+00 4.000000e+00 -8.084691e+00
      vertex   -9.186127e+00 3.955062e+00 -8.204972e+00
      vertex   -9.231635e+00 3.847643e+00 -8.204972e+00
    endloop
  endfacet
  facet normal -7.121009e-01 3.015725e-01 -6.340082e-01
    outer loop
      vertex   -9.274202e+00 4.000000e+00 -8.084691e+00
      vertex   -9.231635e+00 3.847643e+00 -8.204972e+00
      vertex   -9.326202e+00 3.877214e+00 -8.084691e+00
    endloop
  endfacet
  facet normal -7.152263e-01 2.932142e-01 -6.344106e-01
    outer loop
      vertex   -9.326202e+00 3.877214e+00 -8.084691e+00
      vertex   -9.231635e+00 3.847643e+00 -8.204972e+00
      vertex   -9.275887e+00 3.739702e+00 -8.204972e+00
    endloop
  endfacet
  facet normal -7.162416e-01 2.922355e-01 -6.337163e-01
    outer loop
      vertex   -9.326202e+00 3.877214e+00 -8.084691e+00
      vertex   -9.275887e+00 3.739702e+00 -8.204972e+00
      vertex   -9.376576e+00 3.753752e+00 -8.084691e+00
    endloop
  endfacet
  facet normal -7.184083e-01 2.847766e-01 -6.346588e-01
    outer loop
      vertex   -9.376576e+00 3.753752e+00 -8.084691e+00
      vertex   -9.275887e+00 3.739702e+00 -8.204972e+00
      vertex   -9.318877e+00 3.631251e+00 -8.204972e+00
    endloop
  endfacet
  facet normal -7.201905e-01 2.828144e-01 -6.335153e-01
    outer loop
      vertex   -9.376576e+00 3.753752e+00 -8.084691e+00
      vertex   -9.318877e+00 3.631251e+00 -8.204972e+00
      vertex   -9.425316e+00 3.629635e+00 -8.084691e+00
    endloop
  endfacet
  facet normal -7.215611e-01 2.763316e-01 -6.348153e-01
    outer loop
      vertex   -9.425316e+00 3.629635e+00 -8.084691e+00
      vertex   -9.318877e+00 3.631251e+00 -8.204972e+00
      vertex   -9.360599e+00 3.522306e+00 -8.204972e+00
    endloop
  endfacet
  facet normal -7.239457e-01 2.733136e-01 -6.334053e-01
    outer loop
      vertex   -9.425316e+00 3.629635e+00 -8.084691e+00
      vertex   -9.360599e+00 3.522306e+00 -8.204972e+00
      vertex   -9.472413e+00 3.504886e+00 -8.084691e+00
    endloop
  endfacet
  facet normal -7.246853e-01 2.678778e-01 -6.348801e-01
    outer loop
      vertex   -9.472413e+00 3.504886e+00 -8.084691e+00
      vertex   -9.360599e+00 3.522306e+00 -8.204972e+00
      vertex   -9.401047e+00 3.412882e+00 -8.204972e+00
    endloop
  endfacet
  facet normal -7.275055e-01 2.637375e-01 -6.333864e-01
    outer loop
      vertex   -9.472413e+00 3.504886e+00 -8.084691e+00
      vertex   -9.401047e+00 3.412882e+00 -8.204972e+00
      vertex   -9.517859e+00 3.379526e+00 -8.084691e+00
    endloop
  endfacet
  facet normal -7.277813e-01 2.594141e-01 -6.348533e-01
    outer loop
      vertex   -9.517859e+00 3.379526e+00 -8.084691e+00
      vertex   -9.401047e+00 3.412882e+00 -8.204972e+00
      vertex   -9.440216e+00 3.302994e+00 -8.204972e+00
    endloop
  endfacet
  facet normal -7.308681e-01 2.540906e-01 -6.334586e-01
    outer loop
      vertex   -9.517859e+00 3.379526e+00 -8.084691e+00
      vertex   -9.440216e+00 3.302994e+00 -8.204972e+00
      vertex   -9.561646e+00 3.253577e+00 -8.084691e+00
    endloop
  endfacet
  facet normal -7.308497e-01 2.509390e-01 -6.347349e-01
    outer loop
      vertex   -9.561646e+00 3.253577e+00 -8.084691e+00
      vertex   -9.440216e+00 3.302994e+00 -8.204972e+00
      vertex   -9.478101e+00 3.192656e+00 -8.204972e+00
    endloop
  endfacet
  facet normal -7.340320e-01 2.443774e-01 -6.336219e-01
    outer loop
      vertex   -9.561646e+00 3.253577e+00 -8.084691e+00
      vertex   -9.478101e+00 3.192656e+00 -8.204972e+00
      vertex   -9.603766e+00 3.127061e+00 -8.084691e+00
    endloop
  endfacet
  facet normal -7.338908e-01 2.424513e-01 -6.345247e-01
    outer loop
      vertex   -9.603766e+00 3.127061e+00 -8.084691e+00
      vertex   -9.478101e+00 3.192656e+00 -8.204972e+00
      vertex   -9.514696e+00 3.081884e+00 -8.204972e+00
    endloop
  endfacet
  facet normal -7.363611e-01 2.362191e-01 -6.340133e-01
    outer loop
      vertex   -9.603766e+00 3.127061e+00 -8.084691e+00
      vertex   -9.514696e+00 3.081884e+00 -8.204972e+00
      vertex   -9.555458e+00 3.000000e+00 -8.188138e+00
    endloop
  endfacet
  facet normal -7.313296e-01 2.322221e-01 -6.412721e-01
    outer loop
      vertex   -9.555458e+00 3.000000e+00 -8.188138e+00
      vertex   -9.514696e+00 3.081884e+00 -8.204972e+00
      vertex   -9.465594e+00 3.000000e+00 -8.290622e+00
    endloop
  endfacet
  facet normal -7.280705e-01 2.364396e-01 -6.434358e-01
    outer loop
      vertex   -9.465594e+00 3.000000e+00 -8.290622e+00
      vertex   -9.514696e+00 3.081884e+00 -8.204972e+00
      vertex   -9.419466e+00 3.051038e+00 -8.324063e+00
    endloop
  endfacet
  facet normal -7.248527e-01 2.295307e-01 -6.495416e-01
    outer loop
      vertex   -9.465594e+00 3.000000e+00 -8.290622e+00
      vertex   -9.419466e+00 3.051038e+00 -8.324063e+00
      vertex   -9.374631e+00 3.000000e+00 -8.392132e+00
    endloop
  endfacet
  facet normal -7.192585e-01 2.384462e-01 -6.525417e-01
    outer loop
      vertex   -9.374631e+00 3.000000e+00 -8.392132e+00
      vertex   -9.419466e+00 3.051038e+00 -8.324063e+00
      vertex   -9.322887e+00 3.019755e+00 -8.441947e+00
    endloop
  endfacet
  facet normal -7.189354e-01 2.229694e-01 -6.583438e-01
    outer loop
      vertex   -9.374631e+00 3.000000e+00 -8.392132e+00
      vertex   -9.322887e+00 3.019755e+00 -8.441947e+00
      vertex   -9.282579e+00 3.000000e+00 -8.492656e+00
    endloop
  endfacet
  facet normal -7.138892e-01 2.358434e-01 -6.593482e-01
    outer loop
      vertex   -9.282579e+00 3.000000e+00 -8.492656e+00
      vertex   -9.322887e+00 3.019755e+00 -8.441947e+00
      vertex   -9.287029e+00 3.128295e+00 -8.441947e+00
    endloop
  endfacet
  facet normal -7.115126e-01 2.368037e-01 -6.615692e-01
    outer loop
      vertex   -9.282579e+00 3.000000e+00 -8.492656e+00
      vertex   -9.287029e+00 3.128295e+00 -8.441947e+00
      vertex   -9.189492e+00 3.095439e+00 -8.558608e+00
    endloop
  endfacet
  facet normal -7.092452e-01 2.435211e-01 -6.615653e-01
    outer loop
      vertex   -9.189492e+00 3.095439e+00 -8.558608e+00
      vertex   -9.287029e+00 3.128295e+00 -8.441947e+00
      vertex   -9.152760e+00 3.202417e+00 -8.558608e+00
    endloop
  endfacet
  facet normal -7.017066e-01 2.409327e-01 -6.704918e-01
    outer loop
      vertex   -9.189492e+00 3.095439e+00 -8.558608e+00
      vertex   -9.152760e+00 3.202417e+00 -8.558608e+00
      vertex   -9.054302e+00 3.167968e+00 -8.674030e+00
    endloop
  endfacet
  facet normal -6.988486e-01 2.491012e-01 -6.704918e-01
    outer loop
      vertex   -9.054302e+00 3.167968e+00 -8.674030e+00
      vertex   -9.152760e+00 3.202417e+00 -8.558608e+00
      vertex   -9.016734e+00 3.273364e+00 -8.674030e+00
    endloop
  endfacet
  facet normal -6.953804e-01 2.478649e-01 -6.745436e-01
    outer loop
      vertex   -9.054302e+00 3.167968e+00 -8.674030e+00
      vertex   -9.016734e+00 3.273364e+00 -8.674030e+00
      vertex   -9.000000e+00 3.226121e+00 -8.708640e+00
    endloop
  endfacet
  facet normal -6.886428e-01 2.537108e-01 -6.792657e-01
    outer loop
      vertex   -9.000000e+00 3.226121e+00 -8.708640e+00
      vertex   -9.016734e+00 3.273364e+00 -8.674030e+00
      vertex   -9.000000e+00 3.338401e+00 -8.666703e+00
    endloop
  endfacet
  facet normal -6.967799e-01 2.548166e-01 -6.704971e-01
    outer loop
      vertex   -9.000000e+00 3.338401e+00 -8.666703e+00
      vertex   -9.016734e+00 3.273364e+00 -8.674030e+00
      vertex   -9.114784e+00 3.308960e+00 -8.558608e+00
    endloop
  endfacet
  facet normal -6.966390e-01 2.575106e-01 -6.696137e-01
    outer loop
      vertex   -9.000000e+00 3.338401e+00 -8.666703e+00
      vertex   -9.114784e+00 3.308960e+00 -8.558608e+00
      vertex   -9.075567e+00 3.415052e+00 -8.558608e+00
    endloop
  endfacet
  facet normal -7.033716e-01 2.599993e-01 -6.615653e-01
    outer loop
      vertex   -9.075567e+00 3.415052e+00 -8.558608e+00
      vertex   -9.114784e+00 3.308960e+00 -8.558608e+00
      vertex   -9.211529e+00 3.344081e+00 -8.441947e+00
    endloop
  endfacet
  facet normal -7.033716e-01 2.599993e-01 -6.615653e-01
    outer loop
      vertex   -9.075567e+00 3.415052e+00 -8.558608e+00
      vertex   -9.211529e+00 3.344081e+00 -8.441947e+00
      vertex   -9.171896e+00 3.451299e+00 -8.441947e+00
    endloop
  endfacet
  facet normal -7.107471e-01 2.627256e-01 -6.525441e-01
    outer loop
      vertex   -9.171896e+00 3.451299e+00 -8.441947e+00
      vertex   -9.211529e+00 3.344081e+00 -8.441947e+00
      vertex   -9.306954e+00 3.378724e+00 -8.324063e+00
    endloop
  endfacet
  facet normal -7.107471e-01 2.627256e-01 -6.525441e-01
    outer loop
      vertex   -9.171896e+00 3.451299e+00 -8.441947e+00
      vertex   -9.306954e+00 3.378724e+00 -8.324063e+00
      vertex   -9.266911e+00 3.487052e+00 -8.324063e+00
    endloop
  endfacet
  facet normal -7.180207e-01 2.654143e-01 -6.434295e-01
    outer loop
      vertex   -9.266911e+00 3.487052e+00 -8.324063e+00
      vertex   -9.306954e+00 3.378724e+00 -8.324063e+00
      vertex   -9.401047e+00 3.412882e+00 -8.204972e+00
    endloop
  endfacet
  facet normal -7.180207e-01 2.654143e-01 -6.434295e-01
    outer loop
      vertex   -9.266911e+00 3.487052e+00 -8.324063e+00
      vertex   -9.401047e+00 3.412882e+00 -8.204972e+00
      vertex   -9.360599e+00 3.522306e+00 -8.204972e+00
    endloop
  endfacet
  facet normal -7.030738e-01 3.071696e-01 -6.413533e-01
    outer loop
      vertex   -9.183902e+00 4.000000e+00 -8.185888e+00
      vertex   -9.092498e+00 4.000000e+00 -8.286089e+00
      vertex   -9.186127e+00 3.955062e+00 -8.204972e+00
    endloop
  endfacet
  facet normal -7.029313e-01 3.031137e-01 -6.434358e-01
    outer loop
      vertex   -9.186127e+00 3.955062e+00 -8.204972e+00
      vertex   -9.092498e+00 4.000000e+00 -8.286089e+00
      vertex   -9.094186e+00 3.915477e+00 -8.324063e+00
    endloop
  endfacet
  facet normal -7.048601e-01 2.986147e-01 -6.434295e-01
    outer loop
      vertex   -9.186127e+00 3.955062e+00 -8.204972e+00
      vertex   -9.094186e+00 3.915477e+00 -8.324063e+00
      vertex   -9.231635e+00 3.847643e+00 -8.204972e+00
    endloop
  endfacet
  facet normal -7.048601e-01 2.986147e-01 -6.434295e-01
    outer loop
      vertex   -9.231635e+00 3.847643e+00 -8.204972e+00
      vertex   -9.094186e+00 3.915477e+00 -8.324063e+00
      vertex   -9.139238e+00 3.809133e+00 -8.324063e+00
    endloop
  endfacet
  facet normal -7.082952e-01 2.903728e-01 -6.434295e-01
    outer loop
      vertex   -9.231635e+00 3.847643e+00 -8.204972e+00
      vertex   -9.139238e+00 3.809133e+00 -8.324063e+00
      vertex   -9.275887e+00 3.739702e+00 -8.204972e+00
    endloop
  endfacet
  facet normal -7.082952e-01 2.903728e-01 -6.434295e-01
    outer loop
      vertex   -9.275887e+00 3.739702e+00 -8.204972e+00
      vertex   -9.139238e+00 3.809133e+00 -8.324063e+00
      vertex   -9.183047e+00 3.702272e+00 -8.324063e+00
    endloop
  endfacet
  facet normal -7.116340e-01 2.820913e-01 -6.434295e-01
    outer loop
      vertex   -9.275887e+00 3.739702e+00 -8.204972e+00
      vertex   -9.183047e+00 3.702272e+00 -8.324063e+00
      vertex   -9.318877e+00 3.631251e+00 -8.204972e+00
    endloop
  endfacet
  facet normal -7.116340e-01 2.820913e-01 -6.434295e-01
    outer loop
      vertex   -9.318877e+00 3.631251e+00 -8.204972e+00
      vertex   -9.183047e+00 3.702272e+00 -8.324063e+00
      vertex   -9.225607e+00 3.594907e+00 -8.324063e+00
    endloop
  endfacet
  facet normal -7.148760e-01 2.737714e-01 -6.434295e-01
    outer loop
      vertex   -9.318877e+00 3.631251e+00 -8.204972e+00
      vertex   -9.225607e+00 3.594907e+00 -8.324063e+00
      vertex   -9.360599e+00 3.522306e+00 -8.204972e+00
    endloop
  endfacet
  facet normal -7.148760e-01 2.737714e-01 -6.434295e-01
    outer loop
      vertex   -9.360599e+00 3.522306e+00 -8.204972e+00
      vertex   -9.225607e+00 3.594907e+00 -8.324063e+00
      vertex   -9.266911e+00 3.487052e+00 -8.324063e+00
    endloop
  endfacet
  facet normal -6.963586e-01 3.056434e-01 -6.493588e-01
    outer loop
      vertex   -9.092498e+00 4.000000e+00 -8.286089e+00
      vertex   -9.000000e+00 4.000000e+00 -8.385281e+00
      vertex   -9.094186e+00 3.915477e+00 -8.324063e+00
    endloop
  endfacet
  facet normal -6.952025e-01 3.023434e-01 -6.521365e-01
    outer loop
      vertex   -9.094186e+00 3.915477e+00 -8.324063e+00
      vertex   -9.000000e+00 4.000000e+00 -8.385281e+00
      vertex   -9.000000e+00 3.891262e+00 -8.435695e+00
    endloop
  endfacet
  facet normal -6.975300e-01 2.957564e-01 -6.526714e-01
    outer loop
      vertex   -9.094186e+00 3.915477e+00 -8.324063e+00
      vertex   -9.000000e+00 3.891262e+00 -8.435695e+00
      vertex   -9.045532e+00 3.770078e+00 -8.441947e+00
    endloop
  endfacet
  facet normal -6.937348e-01 2.945661e-01 -6.572388e-01
    outer loop
      vertex   -9.045532e+00 3.770078e+00 -8.441947e+00
      vertex   -9.000000e+00 3.891262e+00 -8.435695e+00
      vertex   -9.000000e+00 3.781888e+00 -8.484714e+00
    endloop
  endfacet
  facet normal -6.944083e-01 2.858869e-01 -6.603527e-01
    outer loop
      vertex   -9.045532e+00 3.770078e+00 -8.441947e+00
      vertex   -9.000000e+00 3.781888e+00 -8.484714e+00
      vertex   -9.000000e+00 3.671898e+00 -8.532333e+00
    endloop
  endfacet
  facet normal -6.952497e-01 2.850246e-01 -6.598400e-01
    outer loop
      vertex   -9.045532e+00 3.770078e+00 -8.441947e+00
      vertex   -9.000000e+00 3.671898e+00 -8.532333e+00
      vertex   -9.088892e+00 3.664312e+00 -8.441947e+00
    endloop
  endfacet
  facet normal -6.966627e-01 2.765852e-01 -6.619379e-01
    outer loop
      vertex   -9.088892e+00 3.664312e+00 -8.441947e+00
      vertex   -9.000000e+00 3.671898e+00 -8.532333e+00
      vertex   -9.000000e+00 3.561307e+00 -8.578542e+00
    endloop
  endfacet
  facet normal -6.968943e-01 2.762485e-01 -6.618346e-01
    outer loop
      vertex   -9.088892e+00 3.664312e+00 -8.441947e+00
      vertex   -9.000000e+00 3.561307e+00 -8.578542e+00
      vertex   -9.131015e+00 3.558048e+00 -8.441947e+00
    endloop
  endfacet
  facet normal -6.966412e-01 2.775392e-01 -6.615611e-01
    outer loop
      vertex   -9.131015e+00 3.558048e+00 -8.441947e+00
      vertex   -9.000000e+00 3.561307e+00 -8.578542e+00
      vertex   -9.035116e+00 3.520679e+00 -8.558608e+00
    endloop
  endfacet
  facet normal -7.002911e-01 2.681859e-01 -6.615653e-01
    outer loop
      vertex   -9.131015e+00 3.558048e+00 -8.441947e+00
      vertex   -9.035116e+00 3.520679e+00 -8.558608e+00
      vertex   -9.171896e+00 3.451299e+00 -8.441947e+00
    endloop
  endfacet
  facet normal -7.002911e-01 2.681859e-01 -6.615653e-01
    outer loop
      vertex   -9.171896e+00 3.451299e+00 -8.441947e+00
      vertex   -9.035116e+00 3.520679e+00 -8.558608e+00
      vertex   -9.075567e+00 3.415052e+00 -8.558608e+00
    endloop
  endfacet
  facet normal -6.921195e-01 2.697438e-01 -6.694840e-01
    outer loop
      vertex   -9.000000e+00 3.561307e+00 -8.578542e+00
      vertex   -9.000000e+00 3.450136e+00 -8.623334e+00
      vertex   -9.035116e+00 3.520679e+00 -8.558608e+00
    endloop
  endfacet
  facet normal -6.953678e-01 2.663005e-01 -6.674935e-01
    outer loop
      vertex   -9.035116e+00 3.520679e+00 -8.558608e+00
      vertex   -9.000000e+00 3.450136e+00 -8.623334e+00
      vertex   -9.075567e+00 3.415052e+00 -8.558608e+00
    endloop
  endfacet
  facet normal -6.949560e-01 2.601802e-01 -6.703301e-01
    outer loop
      vertex   -9.000000e+00 3.450136e+00 -8.623334e+00
      vertex   -9.000000e+00 3.338401e+00 -8.666703e+00
      vertex   -9.075567e+00 3.415052e+00 -8.558608e+00
    endloop
  endfacet
  facet normal -6.931876e-01 2.435438e-01 -6.783637e-01
    outer loop
      vertex   -9.000000e+00 3.226121e+00 -8.708640e+00
      vertex   -9.000000e+00 3.113315e+00 -8.749140e+00
      vertex   -9.054302e+00 3.167968e+00 -8.674030e+00
    endloop
  endfacet
  facet normal -6.960175e-01 2.389793e-01 -6.770883e-01
    outer loop
      vertex   -9.054302e+00 3.167968e+00 -8.674030e+00
      vertex   -9.000000e+00 3.113315e+00 -8.749140e+00
      vertex   -9.090638e+00 3.062141e+00 -8.674030e+00
    endloop
  endfacet
  facet normal -7.017066e-01 2.409327e-01 -6.704918e-01
    outer loop
      vertex   -9.054302e+00 3.167968e+00 -8.674030e+00
      vertex   -9.090638e+00 3.062141e+00 -8.674030e+00
      vertex   -9.189492e+00 3.095439e+00 -8.558608e+00
    endloop
  endfacet
  facet normal -7.035254e-01 2.355529e-01 -6.704975e-01
    outer loop
      vertex   -9.189492e+00 3.095439e+00 -8.558608e+00
      vertex   -9.090638e+00 3.062141e+00 -8.674030e+00
      vertex   -9.189449e+00 3.000000e+00 -8.592182e+00
    endloop
  endfacet
  facet normal -7.100148e-01 2.333989e-01 -6.643824e-01
    outer loop
      vertex   -9.189492e+00 3.095439e+00 -8.558608e+00
      vertex   -9.189449e+00 3.000000e+00 -8.592182e+00
      vertex   -9.282579e+00 3.000000e+00 -8.492656e+00
    endloop
  endfacet
  facet normal -6.953043e-01 2.341916e-01 -6.794896e-01
    outer loop
      vertex   -9.000000e+00 3.113315e+00 -8.749140e+00
      vertex   -9.000000e+00 3.000000e+00 -8.788194e+00
      vertex   -9.090638e+00 3.062141e+00 -8.674030e+00
    endloop
  endfacet
  facet normal -6.954462e-01 2.339016e-01 -6.794444e-01
    outer loop
      vertex   -9.090638e+00 3.062141e+00 -8.674030e+00
      vertex   -9.000000e+00 3.000000e+00 -8.788194e+00
      vertex   -9.095253e+00 3.000000e+00 -8.690698e+00
    endloop
  endfacet
  facet normal -7.029698e-01 2.325018e-01 -6.721431e-01
    outer loop
      vertex   -9.090638e+00 3.062141e+00 -8.674030e+00
      vertex   -9.095253e+00 3.000000e+00 -8.690698e+00
      vertex   -9.189449e+00 3.000000e+00 -8.592182e+00
    endloop
  endfacet
  facet normal -7.377213e-01 2.348331e-01 -6.329461e-01
    outer loop
      vertex   -9.555458e+00 3.000000e+00 -8.188138e+00
      vertex   -9.644212e+00 3.000000e+00 -8.084691e+00
      vertex   -9.603766e+00 3.127061e+00 -8.084691e+00
    endloop
  endfacet
  facet normal -7.011201e-01 2.874312e-01 -6.525441e-01
    outer loop
      vertex   -9.183047e+00 3.702272e+00 -8.324063e+00
      vertex   -9.139238e+00 3.809133e+00 -8.324063e+00
      vertex   -9.045532e+00 3.770078e+00 -8.441947e+00
    endloop
  endfacet
  facet normal -6.977197e-01 2.955897e-01 -6.525441e-01
    outer loop
      vertex   -9.045532e+00 3.770078e+00 -8.441947e+00
      vertex   -9.139238e+00 3.809133e+00 -8.324063e+00
      vertex   -9.094186e+00 3.915477e+00 -8.324063e+00
    endloop
  endfacet
  facet normal -7.044251e-01 2.792337e-01 -6.525441e-01
    outer loop
      vertex   -9.225607e+00 3.594907e+00 -8.324063e+00
      vertex   -9.183047e+00 3.702272e+00 -8.324063e+00
      vertex   -9.088892e+00 3.664312e+00 -8.441947e+00
    endloop
  endfacet
  facet normal -7.011201e-01 2.874312e-01 -6.525441e-01
    outer loop
      vertex   -9.088892e+00 3.664312e+00 -8.441947e+00
      vertex   -9.183047e+00 3.702272e+00 -8.324063e+00
      vertex   -9.045532e+00 3.770078e+00 -8.441947e+00
    endloop
  endfacet
  facet normal -7.076342e-01 2.709981e-01 -6.525441e-01
    outer loop
      vertex   -9.266911e+00 3.487052e+00 -8.324063e+00
      vertex   -9.225607e+00 3.594907e+00 -8.324063e+00
      vertex   -9.131015e+00 3.558048e+00 -8.441947e+00
    endloop
  endfacet
  facet normal -7.044251e-01 2.792337e-01 -6.525441e-01
    outer loop
      vertex   -9.131015e+00 3.558048e+00 -8.441947e+00
      vertex   -9.225607e+00 3.594907e+00 -8.324063e+00
      vertex   -9.088892e+00 3.664312e+00 -8.441947e+00
    endloop
  endfacet
  facet normal -7.076342e-01 2.709981e-01 -6.525441e-01
    outer loop
      vertex   -9.266911e+00 3.487052e+00 -8.324063e+00
      vertex   -9.131015e+00 3.558048e+00 -8.441947e+00
      vertex   -9.171896e+00 3.451299e+00 -8.441947e+00
    endloop
  endfacet
  facet normal -6.988486e-01 2.491012e-01 -6.704918e-01
    outer loop
      vertex   -9.016734e+00 3.273364e+00 -8.674030e+00
      vertex   -9.152760e+00 3.202417e+00 -8.558608e+00
      vertex   -9.114784e+00 3.308960e+00 -8.558608e+00
    endloop
  endfacet
  facet normal -7.063565e-01 2.517773e-01 -6.615653e-01
    outer loop
      vertex   -9.114784e+00 3.308960e+00 -8.558608e+00
      vertex   -9.152760e+00 3.202417e+00 -8.558608e+00
      vertex   -9.249908e+00 3.236408e+00 -8.441947e+00
    endloop
  endfacet
  facet normal -7.063565e-01 2.517773e-01 -6.615653e-01
    outer loop
      vertex   -9.114784e+00 3.308960e+00 -8.558608e+00
      vertex   -9.249908e+00 3.236408e+00 -8.441947e+00
      vertex   -9.211529e+00 3.344081e+00 -8.441947e+00
    endloop
  endfacet
  facet normal -7.137632e-01 2.544174e-01 -6.525441e-01
    outer loop
      vertex   -9.211529e+00 3.344081e+00 -8.441947e+00
      vertex   -9.249908e+00 3.236408e+00 -8.441947e+00
      vertex   -9.345731e+00 3.269935e+00 -8.324063e+00
    endloop
  endfacet
  facet normal -7.137632e-01 2.544174e-01 -6.525441e-01
    outer loop
      vertex   -9.211529e+00 3.344081e+00 -8.441947e+00
      vertex   -9.345731e+00 3.269935e+00 -8.324063e+00
      vertex   -9.306954e+00 3.378724e+00 -8.324063e+00
    endloop
  endfacet
  facet normal -7.210677e-01 2.570211e-01 -6.434295e-01
    outer loop
      vertex   -9.306954e+00 3.378724e+00 -8.324063e+00
      vertex   -9.345731e+00 3.269935e+00 -8.324063e+00
      vertex   -9.440216e+00 3.302994e+00 -8.204972e+00
    endloop
  endfacet
  facet normal -7.210677e-01 2.570211e-01 -6.434295e-01
    outer loop
      vertex   -9.306954e+00 3.378724e+00 -8.324063e+00
      vertex   -9.440216e+00 3.302994e+00 -8.204972e+00
      vertex   -9.401047e+00 3.412882e+00 -8.204972e+00
    endloop
  endfacet
  facet normal -7.092452e-01 2.435211e-01 -6.615653e-01
    outer loop
      vertex   -9.152760e+00 3.202417e+00 -8.558608e+00
      vertex   -9.287029e+00 3.128295e+00 -8.441947e+00
      vertex   -9.249908e+00 3.236408e+00 -8.441947e+00
    endloop
  endfacet
  facet normal -7.166822e-01 2.460746e-01 -6.525441e-01
    outer loop
      vertex   -9.249908e+00 3.236408e+00 -8.441947e+00
      vertex   -9.287029e+00 3.128295e+00 -8.441947e+00
      vertex   -9.383237e+00 3.160702e+00 -8.324063e+00
    endloop
  endfacet
  facet normal -7.166822e-01 2.460746e-01 -6.525441e-01
    outer loop
      vertex   -9.249908e+00 3.236408e+00 -8.441947e+00
      vertex   -9.383237e+00 3.160702e+00 -8.324063e+00
      vertex   -9.345731e+00 3.269935e+00 -8.324063e+00
    endloop
  endfacet
  facet normal -7.240166e-01 2.485929e-01 -6.434295e-01
    outer loop
      vertex   -9.345731e+00 3.269935e+00 -8.324063e+00
      vertex   -9.383237e+00 3.160702e+00 -8.324063e+00
      vertex   -9.478101e+00 3.192656e+00 -8.204972e+00
    endloop
  endfacet
  facet normal -7.240166e-01 2.485929e-01 -6.434295e-01
    outer loop
      vertex   -9.345731e+00 3.269935e+00 -8.324063e+00
      vertex   -9.478101e+00 3.192656e+00 -8.204972e+00
      vertex   -9.440216e+00 3.302994e+00 -8.204972e+00
    endloop
  endfacet
  facet normal -7.268670e-01 2.401308e-01 -6.434295e-01
    outer loop
      vertex   -9.514696e+00 3.081884e+00 -8.204972e+00
      vertex   -9.478101e+00 3.192656e+00 -8.204972e+00
      vertex   -9.383237e+00 3.160702e+00 -8.324063e+00
    endloop
  endfacet
  facet normal -7.195038e-01 2.376983e-01 -6.525441e-01
    outer loop
      vertex   -9.322887e+00 3.019755e+00 -8.441947e+00
      vertex   -9.419466e+00 3.051038e+00 -8.324063e+00
      vertex   -9.287029e+00 3.128295e+00 -8.441947e+00
    endloop
  endfacet
  facet normal -7.195038e-01 2.376983e-01 -6.525441e-01
    outer loop
      vertex   -9.287029e+00 3.128295e+00 -8.441947e+00
      vertex   -9.419466e+00 3.051038e+00 -8.324063e+00
      vertex   -9.383237e+00 3.160702e+00 -8.324063e+00
    endloop
  endfacet
  facet normal -7.268670e-01 2.401308e-01 -6.434295e-01
    outer loop
      vertex   -9.419466e+00 3.051038e+00 -8.324063e+00
      vertex   -9.514696e+00 3.081884e+00 -8.204972e+00
      vertex   -9.383237e+00 3.160702e+00 -8.324063e+00
    endloop
  endfacet
  facet normal -5.779856e-01 2.478041e-01 7.775126e-01
    outer loop
      vertex   -9.160275e+00 4.000000e+00 -8.000000e+00
      vertex   -9.274202e+00 4.000000e+00 -8.084691e+00
      vertex   -9.212895e+00 3.877267e+00 -8.000000e+00
    endloop
  endfacet
  facet normal -5.803989e-01 2.457971e-01 7.763510e-01
    outer loop
      vertex   -9.212895e+00 3.877267e+00 -8.000000e+00
      vertex   -9.274202e+00 4.000000e+00 -8.084691e+00
      vertex   -9.326202e+00 3.877214e+00 -8.084691e+00
    endloop
  endfacet
  facet normal -5.812565e-01 2.400654e-01 7.775021e-01
    outer loop
      vertex   -9.212895e+00 3.877267e+00 -8.000000e+00
      vertex   -9.326202e+00 3.877214e+00 -8.084691e+00
      vertex   -9.263871e+00 3.753842e+00 -8.000000e+00
    endloop
  endfacet
  facet normal -5.835810e-01 2.381083e-01 7.763618e-01
    outer loop
      vertex   -9.263871e+00 3.753842e+00 -8.000000e+00
      vertex   -9.326202e+00 3.877214e+00 -8.084691e+00
      vertex   -9.376576e+00 3.753752e+00 -8.084691e+00
    endloop
  endfacet
  facet normal -5.844247e-01 2.322838e-01 7.774908e-01
    outer loop
      vertex   -9.263871e+00 3.753842e+00 -8.000000e+00
      vertex   -9.376576e+00 3.753752e+00 -8.084691e+00
      vertex   -9.313194e+00 3.629747e+00 -8.000000e+00
    endloop
  endfacet
  facet normal -5.866604e-01 2.303779e-01 7.763734e-01
    outer loop
      vertex   -9.313194e+00 3.629747e+00 -8.000000e+00
      vertex   -9.376576e+00 3.753752e+00 -8.084691e+00
      vertex   -9.425316e+00 3.629635e+00 -8.084691e+00
    endloop
  endfacet
  facet normal -5.874895e-01 2.244608e-01 7.774789e-01
    outer loop
      vertex   -9.313194e+00 3.629747e+00 -8.000000e+00
      vertex   -9.425316e+00 3.629635e+00 -8.084691e+00
      vertex   -9.360854e+00 3.505004e+00 -8.000000e+00
    endloop
  endfacet
  facet normal -5.896365e-01 2.226074e-01 7.763857e-01
    outer loop
      vertex   -9.360854e+00 3.505004e+00 -8.000000e+00
      vertex   -9.425316e+00 3.629635e+00 -8.084691e+00
      vertex   -9.472413e+00 3.504886e+00 -8.084691e+00
    endloop
  endfacet
  facet normal -5.904505e-01 2.165976e-01 7.774662e-01
    outer loop
      vertex   -9.360854e+00 3.505004e+00 -8.000000e+00
      vertex   -9.472413e+00 3.504886e+00 -8.084691e+00
      vertex   -9.406844e+00 3.379635e+00 -8.000000e+00
    endloop
  endfacet
  facet normal -5.925089e-01 2.147982e-01 7.763987e-01
    outer loop
      vertex   -9.406844e+00 3.379635e+00 -8.000000e+00
      vertex   -9.472413e+00 3.504886e+00 -8.084691e+00
      vertex   -9.517859e+00 3.379526e+00 -8.084691e+00
    endloop
  endfacet
  facet normal -5.933071e-01 2.086957e-01 7.774528e-01
    outer loop
      vertex   -9.406844e+00 3.379635e+00 -8.000000e+00
      vertex   -9.517859e+00 3.379526e+00 -8.084691e+00
      vertex   -9.451154e+00 3.253663e+00 -8.000000e+00
    endloop
  endfacet
  facet normal -5.952771e-01 2.069516e-01 7.764124e-01
    outer loop
      vertex   -9.451154e+00 3.253663e+00 -8.000000e+00
      vertex   -9.517859e+00 3.379526e+00 -8.084691e+00
      vertex   -9.561646e+00 3.253577e+00 -8.084691e+00
    endloop
  endfacet
  facet normal -5.960588e-01 2.007564e-01 7.774386e-01
    outer loop
      vertex   -9.451154e+00 3.253663e+00 -8.000000e+00
      vertex   -9.561646e+00 3.253577e+00 -8.084691e+00
      vertex   -9.493778e+00 3.127111e+00 -8.000000e+00
    endloop
  endfacet
  facet normal -5.979404e-01 1.990691e-01 7.764269e-01
    outer loop
      vertex   -9.493778e+00 3.127111e+00 -8.000000e+00
      vertex   -9.561646e+00 3.253577e+00 -8.084691e+00
      vertex   -9.603766e+00 3.127061e+00 -8.084691e+00
    endloop
  endfacet
  facet normal -5.987051e-01 1.927811e-01 7.774237e-01
    outer loop
      vertex   -9.493778e+00 3.127111e+00 -8.000000e+00
      vertex   -9.603766e+00 3.127061e+00 -8.084691e+00
      vertex   -9.534707e+00 3.000000e+00 -8.000000e+00
    endloop
  endfacet
  facet normal -6.004986e-01 1.911521e-01 7.764421e-01
    outer loop
      vertex   -9.534707e+00 3.000000e+00 -8.000000e+00
      vertex   -9.603766e+00 3.127061e+00 -8.084691e+00
      vertex   -9.644212e+00 3.000000e+00 -8.084691e+00
    endloop
  endfacet
  facet normal 0.000000e+00 1.000000e+00 -0.000000e+00
    outer loop
      vertex   -9.000000e+00 4.000000e+00 -8.385281e+00
      vertex   -9.092498e+00 4.000000e+00 -8.286089e+00
      vertex   -9.000000e+00 4.000000e+00 -8.000000e+00
    endloop
  endfacet
  facet normal 0.000000e+00 1.000000e+00 0.000000e+00
    outer loop
      vertex   -9.000000e+00 4.000000e+00 -8.000000e+00
      vertex   -9.092498e+00 4.000000e+00 -8.286089e+00
      vertex   -9.183902e+00 4.000000e+00 -8.185888e+00
    endloop
  endfacet
  facet normal -2.770796e-15 1.000000e+00 2.741193e-15
    outer loop
      vertex   -9.000000e+00 4.000000e+00 -8.000000e+00
      vertex   -9.183902e+00 4.000000e+00 -8.185888e+00
      vertex   -9.160275e+00 4.000000e+00 -8.000000e+00
    endloop
  endfacet
  facet normal 2.343487e-15 1.000000e+00 2.091146e-15
    outer loop
      vertex   -9.160275e+00 4.000000e+00 -8.000000e+00
      vertex   -9.183902e+00 4.000000e+00 -8.185888e+00
      vertex   -9.274202e+00 4.000000e+00 -8.084691e+00
    endloop
  endfacet
  facet normal -0.000000e+00 0.000000e+00 1.000000e+00
    outer loop
      vertex   -9.160275e+00 4.000000e+00 -8.000000e+00
      vertex   -9.212895e+00 3.877267e+00 -8.000000e+00
      vertex   -9.000000e+00 4.000000e+00 -8.000000e+00
    endloop
  endfacet
  facet normal 0.000000e+00 0.000000e+00 1.000000e+00
    outer loop
      vertex   -9.000000e+00 4.000000e+00 -8.000000e+00
      vertex   -9.212895e+00 3.877267e+00 -8.000000e+00
      vertex   -9.000000e+00 3.000000e+00 -8.000000e+00
    endloop
  endfacet
  facet normal 0.000000e+00 0.000000e+00 1.000000e+00
    outer loop
      vertex   -9.000000e+00 3.000000e+00 -8.000000e+00
      vertex   -9.212895e+00 3.877267e+00 -8.000000e+00
      vertex   -9.263871e+00 3.753842e+00 -8.000000e+00
    endloop
  endfacet
  facet normal 0.000000e+00 0.000000e+00 1.000000e+00
    outer loop
      vertex   -9.000000e+00 3.000000e+00 -8.000000e+00
      vertex   -9.263871e+00 3.753842e+00 -8.000000e+00
      vertex   -9.313194e+00 3.629747e+00 -8.000000e+00
    endloop
  endfacet
  facet normal 0.000000e+00 0.000000e+00 1.000000e+00
    outer loop
      vertex   -9.313194e+00 3.629747e+00 -8.000000e+00
      vertex   -9.360854e+00 3.505004e+00 -8.000000e+00
      vertex   -9.000000e+00 3.000000e+00 -8.000000e+00
    endloop
  endfacet
  facet normal 0.000000e+00 0.000000e+00 1.000000e+00
    outer loop
      vertex   -9.000000e+00 3.000000e+00 -8.000000e+00
      vertex   -9.360854e+00 3.505004e+00 -8.000000e+00
      vertex   -9.406844e+00 3.379635e+00 -8.000000e+00
    endloop
  endfacet
  facet normal 0.000000e+00 0.000000e+00 1.000000e+00
    outer loop
      vertex   -9.000000e+00 3.000000e+00 -8.000000e+00
      vertex   -9.406844e+00 3.379635e+00 -8.000000e+00
      vertex   -9.451154e+00 3.253663e+00 -8.000000e+00
    endloop
  endfacet
  facet normal 0.000000e+00 0.000000e+00 1.000000e+00
    outer loop
      vertex   -9.451154e+00 3.253663e+00 -8.000000e+00
      vertex   -9.493778e+00 3.127111e+00 -8.000000e+00
      vertex   -9.000000e+00 3.000000e+00 -8.000000e+00
    endloop
  endfacet
  facet normal 0.000000e+00 0.000000e+00 1.000000e+00
    outer loop
      vertex   -9.000000e+00 3.000000e+00 -8.000000e+00
      vertex   -9.493778e+00 3.127111e+00 -8.000000e+00
      vertex   -9.534707e+00 3.000000e+00 -8.000000e+00
    endloop
  endfacet
  facet normal 0.000000e+00 -1.000000e+00 0.000000e+00
    outer loop
      vertex   -9.644212e+00 3.000000e+00 -8.084691e+00
      vertex   -9.555458e+00 3.000000e+00 -8.188138e+00
      vertex   -9.534707e+00 3.000000e+00 -8.000000e+00
    endloop
  endfacet
  facet normal 0.000000e+00 -1.000000e+00 -0.000000e+00
    outer loop
      vertex   -9.534707e+00 3.000000e+00 -8.000000e+00
      vertex   -9.555458e+00 3.000000e+00 -8.188138e+00
      vertex   -9.465594e+00 3.000000e+00 -8.290622e+00
    endloop
  endfacet
  facet normal 0.000000e+00 -1.000000e+00 0.000000e+00
    outer loop
      vertex   -9.534707e+00 3.000000e+00 -8.000000e+00
      vertex   -9.465594e+00 3.000000e+00 -8.290622e+00
      vertex   -9.000000e+00 3.000000e+00 -8.000000e+00
    endloop
  endfacet
  facet normal 0.000000e+00 -1.000000e+00 0.000000e+00
    outer loop
      vertex   -9.000000e+00 3.000000e+00 -8.000000e+00
      vertex   -9.465594e+00 3.000000e+00 -8.290622e+00
      vertex   -9.374631e+00 3.000000e+00 -8.392132e+00
    endloop
  endfacet
  facet normal 0.000000e+00 -1.000000e+00 0.000000e+00
    outer loop
      vertex   -9.000000e+00 3.000000e+00 -8.000000e+00
      vertex   -9.374631e+00 3.000000e+00 -8.392132e+00
      vertex   -9.282579e+00 3.000000e+00 -8.492656e+00
    endloop
  endfacet
  facet normal 0.000000e+00 -1.000000e+00 0.000000e+00
    outer loop
      vertex   -9.282579e+00 3.000000e+00 -8.492656e+00
      vertex   -9.189449e+00 3.000000e+00 -8.592182e+00
      vertex   -9.000000e+00 3.000000e+00 -8.000000e+00
    endloop
  endfacet
  facet normal 0.000000e+00 -1.000000e+00 0.000000e+00
    outer loop
      vertex   -9.000000e+00 3.000000e+00 -8.000000e+00
      vertex   -9.189449e+00 3.000000e+00 -8.592182e+00
      vertex   -9.095253e+00 3.000000e+00 -8.690698e+00
    endloop
  endfacet
  facet normal 0.000000e+00 -1.000000e+00 -0.000000e+00
    outer loop
      vertex   -9.000000e+00 3.000000e+00 -8.000000e+00
      vertex   -9.095253e+00 3.000000e+00 -8.690698e+00
      vertex   -9.000000e+00 3.000000e+00 -8.788194e+00
    endloop
  endfacet
  facet normal 1.000000e+00 0.000000e+00 0.000000e+00
    outer loop
      vertex   -9.000000e+00 3.000000e+00 -8.788194e+00
      vertex   -9.000000e+00 3.113315e+00 -8.749140e+00
      vertex   -9.000000e+00 3.000000e+00 -8.000000e+00
    endloop
  endfacet
  facet normal 1.000000e+00 0.000000e+00 0.000000e+00
    outer loop
      vertex   -9.000000e+00 3.000000e+00 -8.000000e+00
      vertex   -9.000000e+00 3.113315e+00 -8.749140e+00
      vertex   -9.000000e+00 3.226121e+00 -8.708640e+00
    endloop
  endfacet
  facet normal 1.000000e+00 0.000000e+00 0.000000e+00
    outer loop
      vertex   -9.000000e+00 3.000000e+00 -8.000000e+00
      vertex   -9.000000e+00 3.226121e+00 -8.708640e+00
      vertex   -9.000000e+00 3.338401e+00 -8.666703e+00
    endloop
  endfacet
  facet normal 1.000000e+00 0.000000e+00 -0.000000e+00
    outer loop
      vertex   -9.000000e+00 3.338401e+00 -8.666703e+00
      vertex   -9.000000e+00 3.450136e+00 -8.623334e+00
      vertex   -9.000000e+00 3.000000e+00 -8.000000e+00
    endloop
  endfacet
  facet normal 1.000000e+00 0.000000e+00 0.000000e+00
    outer loop
      vertex   -9.000000e+00 3.000000e+00 -8.000000e+00
      vertex   -9.000000e+00 3.450136e+00 -8.623334e+00
      vertex   -9.000000e+00 3.561307e+00 -8.578542e+00
    endloop
  endfacet
  facet normal 1.000000e+00 0.000000e+00 0.000000e+00
    outer loop
      vertex   -9.000000e+00 3.000000e+00 -8.000000e+00
      vertex   -9.000000e+00 3.561307e+00 -8.578542e+00
      vertex   -9.000000e+00 3.671898e+00 -8.532333e+00
    endloop
  endfacet
  facet normal 1.000000e+00 0.000000e+00 -0.000000e+00
    outer loop
      vertex   -9.000000e+00 3.671898e+00 -8.532333e+00
      vertex   -9.000000e+00 3.781888e+00 -8.484714e+00
      vertex   -9.000000e+00 3.000000e+00 -8.000000e+00
    endloop
  endfacet
  facet normal 1.000000e+00 -0.000000e+00 0.000000e+00
    outer loop
      vertex   -9.000000e+00 3.000000e+00 -8.000000e+00
      vertex   -9.000000e+00 3.781888e+00 -8.484714e+00
      vertex   -9.000000e+00 4.000000e+00 -8.000000e+00
    endloop
  endfacet
  facet normal 1.000000e+00 0.000000e+00 0.000000e+00
    outer loop
      vertex   -9.000000e+00 4.000000e+00 -8.000000e+00
      vertex   -9.000000e+00 3.781888e+00 -8.484714e+00
      vertex   -9.000000e+00 3.891262e+00 -8.435695e+00
    endloop
  endfacet
  facet normal 1.000000e+00 0.000000e+00 0.000000e+00
    outer loop
      vertex   -9.000000e+00 4.000000e+00 -8.000000e+00
      vertex   -9.000000e+00 3.891262e+00 -8.435695e+00
      vertex   -9.000000e+00 4.000000e+00 -8.385281e+00
    endloop
  endfacet
endsolid
