solid ASCII
  facet normal 3.258378e-01 -5.390035e-01 7.767271e-01
    outer loop
      vertex   4.787533e+00 -8.000000e+00 -7.455100e+00
      vertex   4.893468e+00 -8.000000e+00 -7.499539e+00
      vertex   4.858744e+00 -7.956951e+00 -7.455100e+00
    endloop
  endfacet
  facet normal 3.304017e-01 -5.356948e-01 7.770880e-01
    outer loop
      vertex   4.858744e+00 -7.956951e+00 -7.455100e+00
      vertex   4.893468e+00 -8.000000e+00 -7.499539e+00
      vertex   4.929568e+00 -7.913269e+00 -7.455100e+00
    endloop
  endfacet
  facet normal 3.310376e-01 -5.357879e-01 7.767532e-01
    outer loop
      vertex   4.929568e+00 -7.913269e+00 -7.455100e+00
      vertex   4.893468e+00 -8.000000e+00 -7.499539e+00
      vertex   5.000000e+00 -8.000000e+00 -7.544941e+00
    endloop
  endfacet
  facet normal 3.343906e-01 -5.333296e-01 7.770087e-01
    outer loop
      vertex   4.929568e+00 -7.913269e+00 -7.455100e+00
      vertex   5.000000e+00 -8.000000e+00 -7.544941e+00
      vertex   5.000000e+00 -7.934288e+00 -7.499838e+00
    endloop
  endfacet
  facet normal 3.349451e-01 -5.323674e-01 7.774296e-01
    outer loop
      vertex   5.000000e+00 -7.934288e+00 -7.499838e+00
      vertex   5.000000e+00 -7.868956e+00 -7.455100e+00
      vertex   4.929568e+00 -7.913269e+00 -7.455100e+00
    endloop
  endfacet
  facet normal -3.370082e-01 6.643450e-01 6.671366e-01
    outer loop
      vertex   4.000000e+00 -7.966385e+00 -7.933475e+00
      vertex   4.000000e+00 -8.000000e+00 -7.900000e+00
      vertex   4.093455e+00 -7.959335e+00 -7.893286e+00
    endloop
  endfacet
  facet normal -3.376922e-01 6.662959e-01 6.648411e-01
    outer loop
      vertex   4.093455e+00 -7.959335e+00 -7.893286e+00
      vertex   4.000000e+00 -8.000000e+00 -7.900000e+00
      vertex   4.100848e+00 -8.000000e+00 -7.848776e+00
    endloop
  endfacet
  facet normal -3.475176e-01 6.627954e-01 6.632750e-01
    outer loop
      vertex   4.093455e+00 -7.959335e+00 -7.893286e+00
      vertex   4.100848e+00 -8.000000e+00 -7.848776e+00
      vertex   4.201041e+00 -8.000000e+00 -7.796281e+00
    endloop
  endfacet
  facet normal -3.476617e-01 6.818268e-01 6.436175e-01
    outer loop
      vertex   4.300561e+00 -8.000000e+00 -7.742523e+00
      vertex   4.228185e+00 -7.996409e+00 -7.785423e+00
      vertex   4.201041e+00 -8.000000e+00 -7.796281e+00
    endloop
  endfacet
  facet normal -3.522352e-01 6.619552e-01 6.616235e-01
    outer loop
      vertex   4.201041e+00 -8.000000e+00 -7.796281e+00
      vertex   4.228185e+00 -7.996409e+00 -7.785423e+00
      vertex   4.183697e+00 -7.912273e+00 -7.893286e+00
    endloop
  endfacet
  facet normal -3.463514e-01 6.641359e-01 6.625437e-01
    outer loop
      vertex   4.201041e+00 -8.000000e+00 -7.796281e+00
      vertex   4.183697e+00 -7.912273e+00 -7.893286e+00
      vertex   4.093455e+00 -7.959335e+00 -7.893286e+00
    endloop
  endfacet
  facet normal -3.432559e-01 6.582002e-01 6.700357e-01
    outer loop
      vertex   4.093455e+00 -7.959335e+00 -7.893286e+00
      vertex   4.183697e+00 -7.912273e+00 -7.893286e+00
      vertex   4.103395e+00 -7.845518e+00 -8.000000e+00
    endloop
  endfacet
  facet normal -3.391928e-01 6.590246e-01 6.712934e-01
    outer loop
      vertex   4.093455e+00 -7.959335e+00 -7.893286e+00
      vertex   4.103395e+00 -7.845518e+00 -8.000000e+00
      vertex   4.000000e+00 -7.898734e+00 -8.000000e+00
    endloop
  endfacet
  facet normal -3.562895e-01 6.646476e-01 6.567354e-01
    outer loop
      vertex   4.228185e+00 -7.996409e+00 -7.785423e+00
      vertex   4.300561e+00 -8.000000e+00 -7.742523e+00
      vertex   4.318840e+00 -7.947812e+00 -7.785423e+00
    endloop
  endfacet
  facet normal -3.635552e-01 6.642455e-01 6.531505e-01
    outer loop
      vertex   4.318840e+00 -7.947812e+00 -7.785423e+00
      vertex   4.300561e+00 -8.000000e+00 -7.742523e+00
      vertex   4.399394e+00 -8.000000e+00 -7.687511e+00
    endloop
  endfacet
  facet normal -3.650997e-01 6.628688e-01 6.536874e-01
    outer loop
      vertex   4.318840e+00 -7.947812e+00 -7.785423e+00
      vertex   4.399394e+00 -8.000000e+00 -7.687511e+00
      vertex   4.408936e+00 -7.898189e+00 -7.785423e+00
    endloop
  endfacet
  facet normal -3.684060e-01 6.621218e-01 6.525885e-01
    outer loop
      vertex   4.408936e+00 -7.898189e+00 -7.785423e+00
      vertex   4.399394e+00 -8.000000e+00 -7.687511e+00
      vertex   4.454692e+00 -7.980156e+00 -7.676428e+00
    endloop
  endfacet
  facet normal -3.730828e-01 6.595036e-01 6.525828e-01
    outer loop
      vertex   4.408936e+00 -7.898189e+00 -7.785423e+00
      vertex   4.454692e+00 -7.980156e+00 -7.676428e+00
      vertex   4.498462e+00 -7.847543e+00 -7.785423e+00
    endloop
  endfacet
  facet normal -3.730828e-01 6.595036e-01 6.525828e-01
    outer loop
      vertex   4.498462e+00 -7.847543e+00 -7.785423e+00
      vertex   4.454692e+00 -7.980156e+00 -7.676428e+00
      vertex   4.545148e+00 -7.928985e+00 -7.676428e+00
    endloop
  endfacet
  facet normal -3.805579e-01 6.552186e-01 6.525828e-01
    outer loop
      vertex   4.498462e+00 -7.847543e+00 -7.785423e+00
      vertex   4.545148e+00 -7.928985e+00 -7.676428e+00
      vertex   4.587407e+00 -7.795883e+00 -7.785423e+00
    endloop
  endfacet
  facet normal -3.805579e-01 6.552186e-01 6.525828e-01
    outer loop
      vertex   4.587407e+00 -7.795883e+00 -7.785423e+00
      vertex   4.545148e+00 -7.928985e+00 -7.676428e+00
      vertex   4.635015e+00 -7.876789e+00 -7.676428e+00
    endloop
  endfacet
  facet normal -3.879839e-01 6.508488e-01 6.525828e-01
    outer loop
      vertex   4.587407e+00 -7.795883e+00 -7.785423e+00
      vertex   4.635015e+00 -7.876789e+00 -7.676428e+00
      vertex   4.675758e+00 -7.743215e+00 -7.785423e+00
    endloop
  endfacet
  facet normal -3.879839e-01 6.508488e-01 6.525828e-01
    outer loop
      vertex   4.675758e+00 -7.743215e+00 -7.785423e+00
      vertex   4.635015e+00 -7.876789e+00 -7.676428e+00
      vertex   4.724284e+00 -7.823575e+00 -7.676428e+00
    endloop
  endfacet
  facet normal -3.953597e-01 6.463949e-01 6.525828e-01
    outer loop
      vertex   4.675758e+00 -7.743215e+00 -7.785423e+00
      vertex   4.724284e+00 -7.823575e+00 -7.676428e+00
      vertex   4.763505e+00 -7.689546e+00 -7.785423e+00
    endloop
  endfacet
  facet normal -3.953597e-01 6.463949e-01 6.525828e-01
    outer loop
      vertex   4.763505e+00 -7.689546e+00 -7.785423e+00
      vertex   4.724284e+00 -7.823575e+00 -7.676428e+00
      vertex   4.812941e+00 -7.769348e+00 -7.676428e+00
    endloop
  endfacet
  facet normal -4.026920e-01 6.418527e-01 6.525828e-01
    outer loop
      vertex   4.763505e+00 -7.689546e+00 -7.785423e+00
      vertex   4.812941e+00 -7.769348e+00 -7.676428e+00
      vertex   4.850816e+00 -7.634768e+00 -7.785423e+00
    endloop
  endfacet
  facet normal -4.026969e-01 6.418521e-01 6.525803e-01
    outer loop
      vertex   4.850816e+00 -7.634768e+00 -7.785423e+00
      vertex   4.812941e+00 -7.769348e+00 -7.676428e+00
      vertex   4.901249e+00 -7.713944e+00 -7.676428e+00
    endloop
  endfacet
  facet normal -4.099634e-01 6.372304e-01 6.525852e-01
    outer loop
      vertex   4.850816e+00 -7.634768e+00 -7.785423e+00
      vertex   4.901249e+00 -7.713944e+00 -7.676428e+00
      vertex   4.937140e+00 -7.579231e+00 -7.785423e+00
    endloop
  endfacet
  facet normal -4.099683e-01 6.372297e-01 6.525828e-01
    outer loop
      vertex   4.937140e+00 -7.579231e+00 -7.785423e+00
      vertex   4.901249e+00 -7.713944e+00 -7.676428e+00
      vertex   4.988378e+00 -7.657889e+00 -7.676428e+00
    endloop
  endfacet
  facet normal -4.111632e-01 6.364559e-01 6.525862e-01
    outer loop
      vertex   4.937140e+00 -7.579231e+00 -7.785423e+00
      vertex   4.988378e+00 -7.657889e+00 -7.676428e+00
      vertex   5.000000e+00 -7.592791e+00 -7.732594e+00
    endloop
  endfacet
  facet normal -4.274572e-01 6.331074e-01 6.453335e-01
    outer loop
      vertex   5.000000e+00 -7.592791e+00 -7.732594e+00
      vertex   4.988378e+00 -7.657889e+00 -7.676428e+00
      vertex   5.000000e+00 -7.685950e+00 -7.641199e+00
    endloop
  endfacet
  facet normal -4.125782e-01 6.412864e-01 6.469398e-01
    outer loop
      vertex   5.000000e+00 -7.685950e+00 -7.641199e+00
      vertex   4.988378e+00 -7.657889e+00 -7.676428e+00
      vertex   4.901249e+00 -7.713944e+00 -7.676428e+00
    endloop
  endfacet
  facet normal -4.123651e-01 6.449153e-01 6.434589e-01
    outer loop
      vertex   5.000000e+00 -7.685950e+00 -7.641199e+00
      vertex   4.901249e+00 -7.713944e+00 -7.676428e+00
      vertex   4.950979e+00 -7.792011e+00 -7.566314e+00
    endloop
  endfacet
  facet normal -4.068292e-01 6.484300e-01 6.434505e-01
    outer loop
      vertex   4.950979e+00 -7.792011e+00 -7.566314e+00
      vertex   4.901249e+00 -7.713944e+00 -7.676428e+00
      vertex   4.861685e+00 -7.848034e+00 -7.566314e+00
    endloop
  endfacet
  facet normal -4.107095e-01 6.546148e-01 6.346630e-01
    outer loop
      vertex   4.950979e+00 -7.792011e+00 -7.566314e+00
      vertex   4.861685e+00 -7.848034e+00 -7.566314e+00
      vertex   4.929568e+00 -7.913269e+00 -7.455100e+00
    endloop
  endfacet
  facet normal -4.059966e-01 6.582601e-01 6.339246e-01
    outer loop
      vertex   4.929568e+00 -7.913269e+00 -7.455100e+00
      vertex   4.861685e+00 -7.848034e+00 -7.566314e+00
      vertex   4.858744e+00 -7.956951e+00 -7.455100e+00
    endloop
  endfacet
  facet normal -4.031453e-01 6.591240e-01 6.348460e-01
    outer loop
      vertex   4.858744e+00 -7.956951e+00 -7.455100e+00
      vertex   4.861685e+00 -7.848034e+00 -7.566314e+00
      vertex   4.772130e+00 -7.902810e+00 -7.566314e+00
    endloop
  endfacet
  facet normal -4.001346e-01 6.619059e-01 6.338555e-01
    outer loop
      vertex   4.858744e+00 -7.956951e+00 -7.455100e+00
      vertex   4.772130e+00 -7.902810e+00 -7.566314e+00
      vertex   4.787533e+00 -8.000000e+00 -7.455100e+00
    endloop
  endfacet
  facet normal -3.965410e-01 6.633417e-01 6.346125e-01
    outer loop
      vertex   4.787533e+00 -8.000000e+00 -7.455100e+00
      vertex   4.772130e+00 -7.902810e+00 -7.566314e+00
      vertex   4.691608e+00 -8.000000e+00 -7.515039e+00
    endloop
  endfacet
  facet normal -3.951673e-01 6.628990e-01 6.359307e-01
    outer loop
      vertex   4.691608e+00 -8.000000e+00 -7.515039e+00
      vertex   4.772130e+00 -7.902810e+00 -7.566314e+00
      vertex   4.681957e+00 -7.956563e+00 -7.566314e+00
    endloop
  endfacet
  facet normal -3.871081e-01 6.663194e-01 6.373114e-01
    outer loop
      vertex   4.691608e+00 -8.000000e+00 -7.515039e+00
      vertex   4.681957e+00 -7.956563e+00 -7.566314e+00
      vertex   4.594933e+00 -8.000000e+00 -7.573760e+00
    endloop
  endfacet
  facet normal -3.852231e-01 6.614896e-01 6.434553e-01
    outer loop
      vertex   4.594933e+00 -8.000000e+00 -7.573760e+00
      vertex   4.681957e+00 -7.956563e+00 -7.566314e+00
      vertex   4.635015e+00 -7.876789e+00 -7.676428e+00
    endloop
  endfacet
  facet normal -3.842527e-01 6.615799e-01 6.439425e-01
    outer loop
      vertex   4.594933e+00 -8.000000e+00 -7.573760e+00
      vertex   4.635015e+00 -7.876789e+00 -7.676428e+00
      vertex   4.545148e+00 -7.928985e+00 -7.676428e+00
    endloop
  endfacet
  facet normal -3.694261e-01 6.695467e-01 6.443847e-01
    outer loop
      vertex   4.399394e+00 -8.000000e+00 -7.687511e+00
      vertex   4.497523e+00 -8.000000e+00 -7.631254e+00
      vertex   4.454692e+00 -7.980156e+00 -7.676428e+00
    endloop
  endfacet
  facet normal -3.753130e-01 6.634460e-01 6.472863e-01
    outer loop
      vertex   4.454692e+00 -7.980156e+00 -7.676428e+00
      vertex   4.497523e+00 -8.000000e+00 -7.631254e+00
      vertex   4.545148e+00 -7.928985e+00 -7.676428e+00
    endloop
  endfacet
  facet normal -3.799410e-01 6.642811e-01 6.437200e-01
    outer loop
      vertex   4.497523e+00 -8.000000e+00 -7.631254e+00
      vertex   4.594933e+00 -8.000000e+00 -7.573760e+00
      vertex   4.545148e+00 -7.928985e+00 -7.676428e+00
    endloop
  endfacet
  facet normal -4.117217e-01 6.543975e-01 6.342312e-01
    outer loop
      vertex   4.929568e+00 -7.913269e+00 -7.455100e+00
      vertex   5.000000e+00 -7.868956e+00 -7.455100e+00
      vertex   4.950979e+00 -7.792011e+00 -7.566314e+00
    endloop
  endfacet
  facet normal -4.143613e-01 6.527239e-01 6.342368e-01
    outer loop
      vertex   4.950979e+00 -7.792011e+00 -7.566314e+00
      vertex   5.000000e+00 -7.868956e+00 -7.455100e+00
      vertex   5.000000e+00 -7.778010e+00 -7.548697e+00
    endloop
  endfacet
  facet normal -4.148661e-01 6.449266e-01 6.418378e-01
    outer loop
      vertex   4.950979e+00 -7.792011e+00 -7.566314e+00
      vertex   5.000000e+00 -7.778010e+00 -7.548697e+00
      vertex   5.000000e+00 -7.685950e+00 -7.641199e+00
    endloop
  endfacet
  facet normal -4.161911e-01 6.289676e-01 6.566466e-01
    outer loop
      vertex   5.000000e+00 -7.592791e+00 -7.732594e+00
      vertex   5.000000e+00 -7.498545e+00 -7.822867e+00
      vertex   4.937140e+00 -7.579231e+00 -7.785423e+00
    endloop
  endfacet
  facet normal -4.109512e-01 6.271950e-01 6.616234e-01
    outer loop
      vertex   4.937140e+00 -7.579231e+00 -7.785423e+00
      vertex   5.000000e+00 -7.498545e+00 -7.822867e+00
      vertex   4.885193e+00 -7.499485e+00 -7.893286e+00
    endloop
  endfacet
  facet normal -4.057026e-01 6.306076e-01 6.616188e-01
    outer loop
      vertex   4.937140e+00 -7.579231e+00 -7.785423e+00
      vertex   4.885193e+00 -7.499485e+00 -7.893286e+00
      vertex   4.850816e+00 -7.634768e+00 -7.785423e+00
    endloop
  endfacet
  facet normal -4.056978e-01 6.306083e-01 6.616211e-01
    outer loop
      vertex   4.850816e+00 -7.634768e+00 -7.785423e+00
      vertex   4.885193e+00 -7.499485e+00 -7.893286e+00
      vertex   4.799688e+00 -7.554494e+00 -7.893286e+00
    endloop
  endfacet
  facet normal -3.985068e-01 6.351819e-01 6.616164e-01
    outer loop
      vertex   4.850816e+00 -7.634768e+00 -7.785423e+00
      vertex   4.799688e+00 -7.554494e+00 -7.893286e+00
      vertex   4.763505e+00 -7.689546e+00 -7.785423e+00
    endloop
  endfacet
  facet normal -3.985020e-01 6.351825e-01 6.616187e-01
    outer loop
      vertex   4.763505e+00 -7.689546e+00 -7.785423e+00
      vertex   4.799688e+00 -7.554494e+00 -7.893286e+00
      vertex   4.713385e+00 -7.608639e+00 -7.893286e+00
    endloop
  endfacet
  facet normal -3.912497e-01 6.396752e-01 6.616188e-01
    outer loop
      vertex   4.763505e+00 -7.689546e+00 -7.785423e+00
      vertex   4.713385e+00 -7.608639e+00 -7.893286e+00
      vertex   4.675758e+00 -7.743215e+00 -7.785423e+00
    endloop
  endfacet
  facet normal -3.912497e-01 6.396752e-01 6.616188e-01
    outer loop
      vertex   4.675758e+00 -7.743215e+00 -7.785423e+00
      vertex   4.713385e+00 -7.608639e+00 -7.893286e+00
      vertex   4.626561e+00 -7.661743e+00 -7.893286e+00
    endloop
  endfacet
  facet normal -3.839505e-01 6.440828e-01 6.616188e-01
    outer loop
      vertex   4.675758e+00 -7.743215e+00 -7.785423e+00
      vertex   4.626561e+00 -7.661743e+00 -7.893286e+00
      vertex   4.587407e+00 -7.795883e+00 -7.785423e+00
    endloop
  endfacet
  facet normal -3.839505e-01 6.440828e-01 6.616188e-01
    outer loop
      vertex   4.587407e+00 -7.795883e+00 -7.785423e+00
      vertex   4.626561e+00 -7.661743e+00 -7.893286e+00
      vertex   4.539140e+00 -7.713857e+00 -7.893286e+00
    endloop
  endfacet
  facet normal -3.766018e-01 6.484071e-01 6.616188e-01
    outer loop
      vertex   4.587407e+00 -7.795883e+00 -7.785423e+00
      vertex   4.539140e+00 -7.713857e+00 -7.893286e+00
      vertex   4.498462e+00 -7.847543e+00 -7.785423e+00
    endloop
  endfacet
  facet normal -3.766018e-01 6.484071e-01 6.616188e-01
    outer loop
      vertex   4.498462e+00 -7.847543e+00 -7.785423e+00
      vertex   4.539140e+00 -7.713857e+00 -7.893286e+00
      vertex   4.451131e+00 -7.764974e+00 -7.893286e+00
    endloop
  endfacet
  facet normal -3.692043e-01 6.526475e-01 6.616188e-01
    outer loop
      vertex   4.498462e+00 -7.847543e+00 -7.785423e+00
      vertex   4.451131e+00 -7.764974e+00 -7.893286e+00
      vertex   4.408936e+00 -7.898189e+00 -7.785423e+00
    endloop
  endfacet
  facet normal -3.692043e-01 6.526475e-01 6.616188e-01
    outer loop
      vertex   4.408936e+00 -7.898189e+00 -7.785423e+00
      vertex   4.451131e+00 -7.764974e+00 -7.893286e+00
      vertex   4.362546e+00 -7.815086e+00 -7.893286e+00
    endloop
  endfacet
  facet normal -3.617591e-01 6.568036e-01 6.616188e-01
    outer loop
      vertex   4.408936e+00 -7.898189e+00 -7.785423e+00
      vertex   4.362546e+00 -7.815086e+00 -7.893286e+00
      vertex   4.318840e+00 -7.947812e+00 -7.785423e+00
    endloop
  endfacet
  facet normal -3.617591e-01 6.568036e-01 6.616188e-01
    outer loop
      vertex   4.318840e+00 -7.947812e+00 -7.785423e+00
      vertex   4.362546e+00 -7.815086e+00 -7.893286e+00
      vertex   4.273398e+00 -7.864188e+00 -7.893286e+00
    endloop
  endfacet
  facet normal -3.542671e-01 6.608748e-01 6.616188e-01
    outer loop
      vertex   4.318840e+00 -7.947812e+00 -7.785423e+00
      vertex   4.273398e+00 -7.864188e+00 -7.893286e+00
      vertex   4.228185e+00 -7.996409e+00 -7.785423e+00
    endloop
  endfacet
  facet normal -3.542671e-01 6.608748e-01 6.616188e-01
    outer loop
      vertex   4.228185e+00 -7.996409e+00 -7.785423e+00
      vertex   4.273398e+00 -7.864188e+00 -7.893286e+00
      vertex   4.183697e+00 -7.912273e+00 -7.893286e+00
    endloop
  endfacet
  facet normal -4.119936e-01 6.246754e-01 6.633565e-01
    outer loop
      vertex   4.885193e+00 -7.499485e+00 -7.893286e+00
      vertex   5.000000e+00 -7.498545e+00 -7.822867e+00
      vertex   4.970154e+00 -7.443450e+00 -7.893286e+00
    endloop
  endfacet
  facet normal -4.197159e-01 6.199593e-01 6.629397e-01
    outer loop
      vertex   4.970154e+00 -7.443450e+00 -7.893286e+00
      vertex   5.000000e+00 -7.498545e+00 -7.822867e+00
      vertex   5.000000e+00 -7.403225e+00 -7.912007e+00
    endloop
  endfacet
  facet normal -4.113936e-01 6.173327e-01 6.705637e-01
    outer loop
      vertex   4.970154e+00 -7.443450e+00 -7.893286e+00
      vertex   5.000000e+00 -7.403225e+00 -7.912007e+00
      vertex   4.903602e+00 -7.371885e+00 -8.000000e+00
    endloop
  endfacet
  facet normal -4.140766e-01 6.137280e-01 6.722191e-01
    outer loop
      vertex   4.903602e+00 -7.371885e+00 -8.000000e+00
      vertex   5.000000e+00 -7.403225e+00 -7.912007e+00
      vertex   5.000000e+00 -7.306846e+00 -8.000000e+00
    endloop
  endfacet
  facet normal -4.085864e-01 6.195093e-01 6.702726e-01
    outer loop
      vertex   4.970154e+00 -7.443450e+00 -7.893286e+00
      vertex   4.903602e+00 -7.371885e+00 -8.000000e+00
      vertex   4.885193e+00 -7.499485e+00 -7.893286e+00
    endloop
  endfacet
  facet normal -4.065182e-01 6.199339e-01 6.711371e-01
    outer loop
      vertex   4.885193e+00 -7.499485e+00 -7.893286e+00
      vertex   4.903602e+00 -7.371885e+00 -8.000000e+00
      vertex   4.806359e+00 -7.435652e+00 -8.000000e+00
    endloop
  endfacet
  facet normal -4.016076e-01 6.242505e-01 6.700915e-01
    outer loop
      vertex   4.885193e+00 -7.499485e+00 -7.893286e+00
      vertex   4.806359e+00 -7.435652e+00 -8.000000e+00
      vertex   4.799688e+00 -7.554494e+00 -7.893286e+00
    endloop
  endfacet
  facet normal -3.982776e-01 6.251198e-01 6.712677e-01
    outer loop
      vertex   4.799688e+00 -7.554494e+00 -7.893286e+00
      vertex   4.806359e+00 -7.435652e+00 -8.000000e+00
      vertex   4.708286e+00 -7.498136e+00 -8.000000e+00
    endloop
  endfacet
  facet normal -3.945208e-01 6.288369e-01 6.700130e-01
    outer loop
      vertex   4.799688e+00 -7.554494e+00 -7.893286e+00
      vertex   4.708286e+00 -7.498136e+00 -8.000000e+00
      vertex   4.713385e+00 -7.608639e+00 -7.893286e+00
    endloop
  endfacet
  facet normal -3.900219e-01 6.302787e-01 6.712911e-01
    outer loop
      vertex   4.713385e+00 -7.608639e+00 -7.893286e+00
      vertex   4.708286e+00 -7.498136e+00 -8.000000e+00
      vertex   4.609401e+00 -7.559327e+00 -8.000000e+00
    endloop
  endfacet
  facet normal -3.873268e-01 6.332614e-01 6.700432e-01
    outer loop
      vertex   4.713385e+00 -7.608639e+00 -7.893286e+00
      vertex   4.609401e+00 -7.559327e+00 -8.000000e+00
      vertex   4.626561e+00 -7.661743e+00 -7.893286e+00
    endloop
  endfacet
  facet normal -3.817486e-01 6.354106e-01 6.712089e-01
    outer loop
      vertex   4.626561e+00 -7.661743e+00 -7.893286e+00
      vertex   4.609401e+00 -7.559327e+00 -8.000000e+00
      vertex   4.509721e+00 -7.619214e+00 -8.000000e+00
    endloop
  endfacet
  facet normal -3.800387e-01 6.375206e-01 6.701776e-01
    outer loop
      vertex   4.626561e+00 -7.661743e+00 -7.893286e+00
      vertex   4.509721e+00 -7.619214e+00 -8.000000e+00
      vertex   4.539140e+00 -7.713857e+00 -7.893286e+00
    endloop
  endfacet
  facet normal -3.734563e-01 6.405170e-01 6.710204e-01
    outer loop
      vertex   4.539140e+00 -7.713857e+00 -7.893286e+00
      vertex   4.509721e+00 -7.619214e+00 -8.000000e+00
      vertex   4.409263e+00 -7.677786e+00 -8.000000e+00
    endloop
  endfacet
  facet normal -3.726561e-01 6.416137e-01 6.704173e-01
    outer loop
      vertex   4.539140e+00 -7.713857e+00 -7.893286e+00
      vertex   4.409263e+00 -7.677786e+00 -8.000000e+00
      vertex   4.451131e+00 -7.764974e+00 -7.893286e+00
    endloop
  endfacet
  facet normal -3.651999e-01 6.455689e-01 6.707234e-01
    outer loop
      vertex   4.451131e+00 -7.764974e+00 -7.893286e+00
      vertex   4.409263e+00 -7.677786e+00 -8.000000e+00
      vertex   4.362546e+00 -7.815086e+00 -7.893286e+00
    endloop
  endfacet
  facet normal -3.651280e-01 6.455723e-01 6.707592e-01
    outer loop
      vertex   4.409263e+00 -7.677786e+00 -8.000000e+00
      vertex   4.308044e+00 -7.735034e+00 -8.000000e+00
      vertex   4.362546e+00 -7.815086e+00 -7.893286e+00
    endloop
  endfacet
  facet normal -3.579812e-01 6.499446e-01 6.703890e-01
    outer loop
      vertex   4.362546e+00 -7.815086e+00 -7.893286e+00
      vertex   4.308044e+00 -7.735034e+00 -8.000000e+00
      vertex   4.273398e+00 -7.864188e+00 -7.893286e+00
    endloop
  endfacet
  facet normal -3.564940e-01 6.500865e-01 6.710437e-01
    outer loop
      vertex   4.308044e+00 -7.735034e+00 -8.000000e+00
      vertex   4.206083e+00 -7.790948e+00 -8.000000e+00
      vertex   4.273398e+00 -7.864188e+00 -7.893286e+00
    endloop
  endfacet
  facet normal -3.506653e-01 6.541558e-01 6.701597e-01
    outer loop
      vertex   4.273398e+00 -7.864188e+00 -7.893286e+00
      vertex   4.206083e+00 -7.790948e+00 -8.000000e+00
      vertex   4.183697e+00 -7.912273e+00 -7.893286e+00
    endloop
  endfacet
  facet normal -3.478495e-01 6.545703e-01 6.712216e-01
    outer loop
      vertex   4.206083e+00 -7.790948e+00 -8.000000e+00
      vertex   4.103395e+00 -7.845518e+00 -8.000000e+00
      vertex   4.183697e+00 -7.912273e+00 -7.893286e+00
    endloop
  endfacet
  facet normal -3.405167e-01 6.578431e-01 6.717819e-01
    outer loop
      vertex   4.000000e+00 -7.898734e+00 -8.000000e+00
      vertex   4.000000e+00 -7.932629e+00 -7.966808e+00
      vertex   4.093455e+00 -7.959335e+00 -7.893286e+00
    endloop
  endfacet
  facet normal -3.378800e-01 6.613222e-01 6.696940e-01
    outer loop
      vertex   4.093455e+00 -7.959335e+00 -7.893286e+00
      vertex   4.000000e+00 -7.932629e+00 -7.966808e+00
      vertex   4.000000e+00 -7.966385e+00 -7.933475e+00
    endloop
  endfacet
  facet normal -3.919615e-01 6.575213e-01 6.434530e-01
    outer loop
      vertex   4.724284e+00 -7.823575e+00 -7.676428e+00
      vertex   4.635015e+00 -7.876789e+00 -7.676428e+00
      vertex   4.681957e+00 -7.956563e+00 -7.566314e+00
    endloop
  endfacet
  facet normal -3.994130e-01 6.530218e-01 6.434530e-01
    outer loop
      vertex   4.812941e+00 -7.769348e+00 -7.676428e+00
      vertex   4.724284e+00 -7.823575e+00 -7.676428e+00
      vertex   4.772130e+00 -7.902810e+00 -7.566314e+00
    endloop
  endfacet
  facet normal -3.919615e-01 6.575213e-01 6.434530e-01
    outer loop
      vertex   4.772130e+00 -7.902810e+00 -7.566314e+00
      vertex   4.724284e+00 -7.823575e+00 -7.676428e+00
      vertex   4.681957e+00 -7.956563e+00 -7.566314e+00
    endloop
  endfacet
  facet normal -4.068242e-01 6.484306e-01 6.434530e-01
    outer loop
      vertex   4.901249e+00 -7.713944e+00 -7.676428e+00
      vertex   4.812941e+00 -7.769348e+00 -7.676428e+00
      vertex   4.861685e+00 -7.848034e+00 -7.566314e+00
    endloop
  endfacet
  facet normal -3.994130e-01 6.530218e-01 6.434530e-01
    outer loop
      vertex   4.861685e+00 -7.848034e+00 -7.566314e+00
      vertex   4.812941e+00 -7.769348e+00 -7.676428e+00
      vertex   4.772130e+00 -7.902810e+00 -7.566314e+00
    endloop
  endfacet
  facet normal -4.911052e-15 -1.000000e+00 -5.064848e-14
    outer loop
      vertex   4.893468e+00 -8.000000e+00 -7.499539e+00
      vertex   4.691608e+00 -8.000000e+00 -7.515039e+00
      vertex   5.000000e+00 -8.000000e+00 -7.544941e+00
    endloop
  endfacet
  facet normal -0.000000e+00 -1.000000e+00 0.000000e+00
    outer loop
      vertex   5.000000e+00 -8.000000e+00 -7.544941e+00
      vertex   4.691608e+00 -8.000000e+00 -7.515039e+00
      vertex   4.594933e+00 -8.000000e+00 -7.573760e+00
    endloop
  endfacet
  facet normal 0.000000e+00 -1.000000e+00 0.000000e+00
    outer loop
      vertex   5.000000e+00 -8.000000e+00 -7.544941e+00
      vertex   4.594933e+00 -8.000000e+00 -7.573760e+00
      vertex   4.497523e+00 -8.000000e+00 -7.631254e+00
    endloop
  endfacet
  facet normal -1.003279e-14 -1.000000e+00 1.605618e-14
    outer loop
      vertex   4.893468e+00 -8.000000e+00 -7.499539e+00
      vertex   4.787533e+00 -8.000000e+00 -7.455100e+00
      vertex   4.691608e+00 -8.000000e+00 -7.515039e+00
    endloop
  endfacet
  facet normal 0.000000e+00 -1.000000e+00 -0.000000e+00
    outer loop
      vertex   5.000000e+00 -8.000000e+00 -7.544941e+00
      vertex   4.497523e+00 -8.000000e+00 -7.631254e+00
      vertex   5.000000e+00 -8.000000e+00 -8.000000e+00
    endloop
  endfacet
  facet normal 0.000000e+00 -1.000000e+00 0.000000e+00
    outer loop
      vertex   5.000000e+00 -8.000000e+00 -8.000000e+00
      vertex   4.497523e+00 -8.000000e+00 -7.631254e+00
      vertex   4.399394e+00 -8.000000e+00 -7.687511e+00
    endloop
  endfacet
  facet normal 0.000000e+00 -1.000000e+00 0.000000e+00
    outer loop
      vertex   5.000000e+00 -8.000000e+00 -8.000000e+00
      vertex   4.399394e+00 -8.000000e+00 -7.687511e+00
      vertex   4.300561e+00 -8.000000e+00 -7.742523e+00
    endloop
  endfacet
  facet normal 0.000000e+00 -1.000000e+00 -0.000000e+00
    outer loop
      vertex   4.300561e+00 -8.000000e+00 -7.742523e+00
      vertex   4.201041e+00 -8.000000e+00 -7.796281e+00
      vertex   5.000000e+00 -8.000000e+00 -8.000000e+00
    endloop
  endfacet
  facet normal 0.000000e+00 -1.000000e+00 0.000000e+00
    outer loop
      vertex   5.000000e+00 -8.000000e+00 -8.000000e+00
      vertex   4.201041e+00 -8.000000e+00 -7.796281e+00
      vertex   4.100848e+00 -8.000000e+00 -7.848776e+00
    endloop
  endfacet
  facet normal 0.000000e+00 -1.000000e+00 0.000000e+00
    outer loop
      vertex   5.000000e+00 -8.000000e+00 -8.000000e+00
      vertex   4.100848e+00 -8.000000e+00 -7.848776e+00
      vertex   4.000000e+00 -8.000000e+00 -8.000000e+00
    endloop
  endfacet
  facet normal 0.000000e+00 -1.000000e+00 0.000000e+00
    outer loop
      vertex   4.000000e+00 -8.000000e+00 -8.000000e+00
      vertex   4.100848e+00 -8.000000e+00 -7.848776e+00
      vertex   4.000000e+00 -8.000000e+00 -7.900000e+00
    endloop
  endfacet
  facet normal -1.000000e+00 0.000000e+00 0.000000e+00
    outer loop
      vertex   4.000000e+00 -8.000000e+00 -7.900000e+00
      vertex   4.000000e+00 -7.966385e+00 -7.933475e+00
      vertex   4.000000e+00 -8.000000e+00 -8.000000e+00
    endloop
  endfacet
  facet normal -1.000000e+00 0.000000e+00 0.000000e+00
    outer loop
      vertex   4.000000e+00 -8.000000e+00 -8.000000e+00
      vertex   4.000000e+00 -7.966385e+00 -7.933475e+00
      vertex   4.000000e+00 -7.932629e+00 -7.966808e+00
    endloop
  endfacet
  facet normal -1.000000e+00 0.000000e+00 0.000000e+00
    outer loop
      vertex   4.000000e+00 -8.000000e+00 -8.000000e+00
      vertex   4.000000e+00 -7.932629e+00 -7.966808e+00
      vertex   4.000000e+00 -7.898734e+00 -8.000000e+00
    endloop
  endfacet
  facet normal 0.000000e+00 0.000000e+00 -1.000000e+00
    outer loop
      vertex   4.000000e+00 -7.898734e+00 -8.000000e+00
      vertex   4.103395e+00 -7.845518e+00 -8.000000e+00
      vertex   4.000000e+00 -8.000000e+00 -8.000000e+00
    endloop
  endfacet
  facet normal 0.000000e+00 0.000000e+00 -1.000000e+00
    outer loop
      vertex   4.000000e+00 -8.000000e+00 -8.000000e+00
      vertex   4.103395e+00 -7.845518e+00 -8.000000e+00
      vertex   4.206083e+00 -7.790948e+00 -8.000000e+00
    endloop
  endfacet
  facet normal 0.000000e+00 0.000000e+00 -1.000000e+00
    outer loop
      vertex   4.000000e+00 -8.000000e+00 -8.000000e+00
      vertex   4.206083e+00 -7.790948e+00 -8.000000e+00
      vertex   5.000000e+00 -8.000000e+00 -8.000000e+00
    endloop
  endfacet
  facet normal 0.000000e+00 0.000000e+00 -1.000000e+00
    outer loop
      vertex   5.000000e+00 -8.000000e+00 -8.000000e+00
      vertex   4.206083e+00 -7.790948e+00 -8.000000e+00
      vertex   4.308044e+00 -7.735034e+00 -8.000000e+00
    endloop
  endfacet
  facet normal 0.000000e+00 0.000000e+00 -1.000000e+00
    outer loop
      vertex   5.000000e+00 -8.000000e+00 -8.000000e+00
      vertex   4.308044e+00 -7.735034e+00 -8.000000e+00
      vertex   4.409263e+00 -7.677786e+00 -8.000000e+00
    endloop
  endfacet
  facet normal 0.000000e+00 0.000000e+00 -1.000000e+00
    outer loop
      vertex   4.409263e+00 -7.677786e+00 -8.000000e+00
      vertex   4.509721e+00 -7.619214e+00 -8.000000e+00
      vertex   5.000000e+00 -8.000000e+00 -8.000000e+00
    endloop
  endfacet
  facet normal 0.000000e+00 0.000000e+00 -1.000000e+00
    outer loop
      vertex   5.000000e+00 -8.000000e+00 -8.000000e+00
      vertex   4.509721e+00 -7.619214e+00 -8.000000e+00
      vertex   4.609401e+00 -7.559327e+00 -8.000000e+00
    endloop
  endfacet
  facet normal 0.000000e+00 0.000000e+00 -1.000000e+00
    outer loop
      vertex   5.000000e+00 -8.000000e+00 -8.000000e+00
      vertex   4.609401e+00 -7.559327e+00 -8.000000e+00
      vertex   4.708286e+00 -7.498136e+00 -8.000000e+00
    endloop
  endfacet
  facet normal 0.000000e+00 0.000000e+00 -1.000000e+00
    outer loop
      vertex   4.708286e+00 -7.498136e+00 -8.000000e+00
      vertex   4.806359e+00 -7.435652e+00 -8.000000e+00
      vertex   5.000000e+00 -8.000000e+00 -8.000000e+00
    endloop
  endfacet
  facet normal 0.000000e+00 0.000000e+00 -1.000000e+00
    outer loop
      vertex   5.000000e+00 -8.000000e+00 -8.000000e+00
      vertex   4.806359e+00 -7.435652e+00 -8.000000e+00
      vertex   4.903602e+00 -7.371885e+00 -8.000000e+00
    endloop
  endfacet
  facet normal 0.000000e+00 0.000000e+00 -1.000000e+00
    outer loop
      vertex   5.000000e+00 -8.000000e+00 -8.000000e+00
      vertex   4.903602e+00 -7.371885e+00 -8.000000e+00
      vertex   5.000000e+00 -7.306846e+00 -8.000000e+00
    endloop
  endfacet
  facet normal 1.000000e+00 -1.632634e-14 -1.586393e-14
    outer loop
      vertex   5.000000e+00 -7.868956e+00 -7.455100e+00
      vertex   5.000000e+00 -7.934288e+00 -7.499838e+00
      vertex   5.000000e+00 -7.778010e+00 -7.548697e+00
    endloop
  endfacet
  facet normal 1.000000e+00 -3.579627e-15 2.490706e-14
    outer loop
      vertex   5.000000e+00 -7.778010e+00 -7.548697e+00
      vertex   5.000000e+00 -7.934288e+00 -7.499838e+00
      vertex   5.000000e+00 -8.000000e+00 -7.544941e+00
    endloop
  endfacet
  facet normal 1.000000e+00 -4.069496e-15 -4.050005e-15
    outer loop
      vertex   5.000000e+00 -7.778010e+00 -7.548697e+00
      vertex   5.000000e+00 -8.000000e+00 -7.544941e+00
      vertex   5.000000e+00 -7.685950e+00 -7.641199e+00
    endloop
  endfacet
  facet normal 1.000000e+00 -2.229913e-15 1.951789e-15
    outer loop
      vertex   5.000000e+00 -7.685950e+00 -7.641199e+00
      vertex   5.000000e+00 -8.000000e+00 -7.544941e+00
      vertex   5.000000e+00 -8.000000e+00 -8.000000e+00
    endloop
  endfacet
  facet normal 1.000000e+00 0.000000e+00 0.000000e+00
    outer loop
      vertex   5.000000e+00 -7.685950e+00 -7.641199e+00
      vertex   5.000000e+00 -8.000000e+00 -8.000000e+00
      vertex   5.000000e+00 -7.592791e+00 -7.732594e+00
    endloop
  endfacet
  facet normal 1.000000e+00 0.000000e+00 0.000000e+00
    outer loop
      vertex   5.000000e+00 -7.592791e+00 -7.732594e+00
      vertex   5.000000e+00 -8.000000e+00 -8.000000e+00
      vertex   5.000000e+00 -7.498545e+00 -7.822867e+00
    endloop
  endfacet
  facet normal 1.000000e+00 0.000000e+00 0.000000e+00
    outer loop
      vertex   5.000000e+00 -7.498545e+00 -7.822867e+00
      vertex   5.000000e+00 -8.000000e+00 -8.000000e+00
      vertex   5.000000e+00 -7.403225e+00 -7.912007e+00
    endloop
  endfacet
  facet normal 1.000000e+00 0.000000e+00 0.000000e+00
    outer loop
      vertex   5.000000e+00 -7.403225e+00 -7.912007e+00
      vertex   5.000000e+00 -8.000000e+00 -8.000000e+00
      vertex   5.000000e+00 -7.306846e+00 -8.000000e+00
    endloop
  endfacet
endsolid
