solid ASCII
  facet normal -5.645366e-01 -3.312137e-01 7.560396e-01
    outer loop
      vertex   6.722351e+00 4.000000e+00 -9.000000e+00
      vertex   6.771231e+00 3.916687e+00 -9.000000e+00
      vertex   6.815625e+00 4.000000e+00 -8.930352e+00
    endloop
  endfacet
  facet normal -5.653738e-01 -3.305041e-01 7.557245e-01
    outer loop
      vertex   6.815625e+00 4.000000e+00 -8.930352e+00
      vertex   6.771231e+00 3.916687e+00 -9.000000e+00
      vertex   6.828732e+00 3.978132e+00 -8.930110e+00
    endloop
  endfacet
  facet normal -5.716210e-01 -3.343192e-01 7.493198e-01
    outer loop
      vertex   6.815625e+00 4.000000e+00 -8.930352e+00
      vertex   6.828732e+00 3.978132e+00 -8.930110e+00
      vertex   6.908178e+00 4.000000e+00 -8.859747e+00
    endloop
  endfacet
  facet normal -5.731934e-01 -3.303728e-01 7.498687e-01
    outer loop
      vertex   6.908178e+00 4.000000e+00 -8.859747e+00
      vertex   6.828732e+00 3.978132e+00 -8.930110e+00
      vertex   6.865282e+00 3.914719e+00 -8.930110e+00
    endloop
  endfacet
  facet normal -5.739351e-01 -3.297557e-01 7.495730e-01
    outer loop
      vertex   6.908178e+00 4.000000e+00 -8.859747e+00
      vertex   6.865282e+00 3.914719e+00 -8.930110e+00
      vertex   6.934737e+00 3.954324e+00 -8.859506e+00
    endloop
  endfacet
  facet normal -5.765221e-01 -3.252158e-01 7.495712e-01
    outer loop
      vertex   6.934737e+00 3.954324e+00 -8.859506e+00
      vertex   6.865282e+00 3.914719e+00 -8.930110e+00
      vertex   6.971061e+00 3.889930e+00 -8.859506e+00
    endloop
  endfacet
  facet normal -5.808235e-01 -3.276422e-01 7.451810e-01
    outer loop
      vertex   6.934737e+00 3.954324e+00 -8.859506e+00
      vertex   6.971061e+00 3.889930e+00 -8.859506e+00
      vertex   7.000000e+00 3.899255e+00 -8.832850e+00
    endloop
  endfacet
  facet normal -5.837847e-01 -3.205964e-01 7.459312e-01
    outer loop
      vertex   7.000000e+00 3.899255e+00 -8.832850e+00
      vertex   6.971061e+00 3.889930e+00 -8.859506e+00
      vertex   7.000000e+00 3.798011e+00 -8.876364e+00
    endloop
  endfacet
  facet normal -5.794473e-01 -3.199040e-01 7.496014e-01
    outer loop
      vertex   7.000000e+00 3.798011e+00 -8.876364e+00
      vertex   6.971061e+00 3.889930e+00 -8.859506e+00
      vertex   6.936611e+00 3.786891e+00 -8.930110e+00
    endloop
  endfacet
  facet normal -5.813800e-01 -3.139059e-01 7.506400e-01
    outer loop
      vertex   7.000000e+00 3.798011e+00 -8.876364e+00
      vertex   6.936611e+00 3.786891e+00 -8.930110e+00
      vertex   6.971385e+00 3.722488e+00 -8.930110e+00
    endloop
  endfacet
  facet normal -5.765610e-01 -3.113040e-01 7.554252e-01
    outer loop
      vertex   6.971385e+00 3.722488e+00 -8.930110e+00
      vertex   6.936611e+00 3.786891e+00 -8.930110e+00
      vertex   6.865886e+00 3.748281e+00 -9.000000e+00
    endloop
  endfacet
  facet normal -5.765821e-01 -3.101669e-01 7.558767e-01
    outer loop
      vertex   6.971385e+00 3.722488e+00 -8.930110e+00
      vertex   6.865886e+00 3.748281e+00 -9.000000e+00
      vertex   6.911647e+00 3.663214e+00 -9.000000e+00
    endloop
  endfacet
  facet normal -5.679901e-01 -3.273738e-01 7.551249e-01
    outer loop
      vertex   6.828732e+00 3.978132e+00 -8.930110e+00
      vertex   6.771231e+00 3.916687e+00 -9.000000e+00
      vertex   6.865282e+00 3.914719e+00 -8.930110e+00
    endloop
  endfacet
  facet normal -5.685952e-01 -3.242242e-01 7.560279e-01
    outer loop
      vertex   6.865282e+00 3.914719e+00 -8.930110e+00
      vertex   6.771231e+00 3.916687e+00 -9.000000e+00
      vertex   6.819078e+00 3.832776e+00 -9.000000e+00
    endloop
  endfacet
  facet normal -5.709976e-01 -3.220995e-01 7.551249e-01
    outer loop
      vertex   6.865282e+00 3.914719e+00 -8.930110e+00
      vertex   6.819078e+00 3.832776e+00 -9.000000e+00
      vertex   6.901242e+00 3.850970e+00 -8.930110e+00
    endloop
  endfacet
  facet normal -5.727081e-01 -3.172630e-01 7.558767e-01
    outer loop
      vertex   6.901242e+00 3.850970e+00 -8.930110e+00
      vertex   6.819078e+00 3.832776e+00 -9.000000e+00
      vertex   6.865886e+00 3.748281e+00 -9.000000e+00
    endloop
  endfacet
  facet normal -5.736532e-01 -3.166303e-01 7.554252e-01
    outer loop
      vertex   6.901242e+00 3.850970e+00 -8.930110e+00
      vertex   6.865886e+00 3.748281e+00 -9.000000e+00
      vertex   6.936611e+00 3.786891e+00 -8.930110e+00
    endloop
  endfacet
  facet normal -5.798117e-01 -3.027331e-01 7.564199e-01
    outer loop
      vertex   6.956354e+00 3.577589e+00 -9.000000e+00
      vertex   7.000000e+00 3.594079e+00 -8.959944e+00
      vertex   6.911647e+00 3.663214e+00 -9.000000e+00
    endloop
  endfacet
  facet normal -5.805994e-01 -3.045016e-01 7.551047e-01
    outer loop
      vertex   6.911647e+00 3.663214e+00 -9.000000e+00
      vertex   7.000000e+00 3.594079e+00 -8.959944e+00
      vertex   7.000000e+00 3.696281e+00 -8.918731e+00
    endloop
  endfacet
  facet normal -5.801171e-01 -3.056052e-01 7.550295e-01
    outer loop
      vertex   6.911647e+00 3.663214e+00 -9.000000e+00
      vertex   7.000000e+00 3.696281e+00 -8.918731e+00
      vertex   6.971385e+00 3.722488e+00 -8.930110e+00
    endloop
  endfacet
  facet normal -5.838663e-01 -3.121199e-01 7.494540e-01
    outer loop
      vertex   6.971385e+00 3.722488e+00 -8.930110e+00
      vertex   7.000000e+00 3.696281e+00 -8.918731e+00
      vertex   7.000000e+00 3.798011e+00 -8.876364e+00
    endloop
  endfacet
  facet normal -5.830345e-01 -2.953117e-01 7.568763e-01
    outer loop
      vertex   6.956354e+00 3.577589e+00 -9.000000e+00
      vertex   7.000000e+00 3.491418e+00 -9.000000e+00
      vertex   7.000000e+00 3.594079e+00 -8.959944e+00
    endloop
  endfacet
  facet normal -5.818012e-01 -3.295859e-01 7.435594e-01
    outer loop
      vertex   7.000000e+00 3.899255e+00 -8.832850e+00
      vertex   7.000000e+00 4.000000e+00 -8.788194e+00
      vertex   6.934737e+00 3.954324e+00 -8.859506e+00
    endloop
  endfacet
  facet normal -5.795734e-01 -3.330649e-01 7.437489e-01
    outer loop
      vertex   6.934737e+00 3.954324e+00 -8.859506e+00
      vertex   7.000000e+00 4.000000e+00 -8.788194e+00
      vertex   6.908178e+00 4.000000e+00 -8.859747e+00
    endloop
  endfacet
  facet normal -5.795092e-01 -3.198626e-01 7.495712e-01
    outer loop
      vertex   6.936611e+00 3.786891e+00 -8.930110e+00
      vertex   6.971061e+00 3.889930e+00 -8.859506e+00
      vertex   6.901242e+00 3.850970e+00 -8.930110e+00
    endloop
  endfacet
  facet normal -5.765221e-01 -3.252158e-01 7.495712e-01
    outer loop
      vertex   6.901242e+00 3.850970e+00 -8.930110e+00
      vertex   6.971061e+00 3.889930e+00 -8.859506e+00
      vertex   6.865282e+00 3.914719e+00 -8.930110e+00
    endloop
  endfacet
  facet normal 5.775985e-01 3.185116e-01 -7.516184e-01
    outer loop
      vertex   7.000000e+00 3.820995e+00 -9.000000e+00
      vertex   6.966938e+00 3.880951e+00 -9.000000e+00
      vertex   7.000000e+00 3.880832e+00 -8.974643e+00
    endloop
  endfacet
  facet normal 5.765286e-01 3.237534e-01 -7.501990e-01
    outer loop
      vertex   7.000000e+00 3.880832e+00 -8.974643e+00
      vertex   6.966938e+00 3.880951e+00 -9.000000e+00
      vertex   7.000000e+00 3.940502e+00 -8.948892e+00
    endloop
  endfacet
  facet normal 5.760772e-01 3.241534e-01 -7.503730e-01
    outer loop
      vertex   7.000000e+00 3.940502e+00 -8.948892e+00
      vertex   6.966938e+00 3.880951e+00 -9.000000e+00
      vertex   6.933362e+00 3.940621e+00 -9.000000e+00
    endloop
  endfacet
  facet normal 5.754461e-01 3.271807e-01 -7.495430e-01
    outer loop
      vertex   7.000000e+00 3.940502e+00 -8.948892e+00
      vertex   6.933362e+00 3.940621e+00 -9.000000e+00
      vertex   6.966521e+00 4.000000e+00 -8.948624e+00
    endloop
  endfacet
  facet normal 5.749948e-01 3.275810e-01 -7.497144e-01
    outer loop
      vertex   6.966521e+00 4.000000e+00 -8.948624e+00
      vertex   6.933362e+00 3.940621e+00 -9.000000e+00
      vertex   6.932946e+00 4.000000e+00 -8.974374e+00
    endloop
  endfacet
  facet normal 5.720446e-01 3.283820e-01 -7.516184e-01
    outer loop
      vertex   6.932946e+00 4.000000e+00 -8.974374e+00
      vertex   6.933362e+00 3.940621e+00 -9.000000e+00
      vertex   6.899275e+00 4.000000e+00 -9.000000e+00
    endloop
  endfacet
  facet normal 5.775987e-01 3.283821e-01 -7.473587e-01
    outer loop
      vertex   6.966521e+00 4.000000e+00 -8.948624e+00
      vertex   7.000000e+00 4.000000e+00 -8.922749e+00
      vertex   7.000000e+00 3.940502e+00 -8.948892e+00
    endloop
  endfacet
  facet normal 1.000000e+00 0.000000e+00 0.000000e+00
    outer loop
      vertex   7.000000e+00 4.000000e+00 -8.788194e+00
      vertex   7.000000e+00 3.899255e+00 -8.832850e+00
      vertex   7.000000e+00 4.000000e+00 -8.922749e+00
    endloop
  endfacet
  facet normal 1.000000e+00 0.000000e+00 0.000000e+00
    outer loop
      vertex   7.000000e+00 4.000000e+00 -8.922749e+00
      vertex   7.000000e+00 3.899255e+00 -8.832850e+00
      vertex   7.000000e+00 3.798011e+00 -8.876364e+00
    endloop
  endfacet
  facet normal 1.000000e+00 0.000000e+00 0.000000e+00
    outer loop
      vertex   7.000000e+00 4.000000e+00 -8.922749e+00
      vertex   7.000000e+00 3.798011e+00 -8.876364e+00
      vertex   7.000000e+00 3.940502e+00 -8.948892e+00
    endloop
  endfacet
  facet normal 1.000000e+00 0.000000e+00 0.000000e+00
    outer loop
      vertex   7.000000e+00 3.940502e+00 -8.948892e+00
      vertex   7.000000e+00 3.798011e+00 -8.876364e+00
      vertex   7.000000e+00 3.880832e+00 -8.974643e+00
    endloop
  endfacet
  facet normal 1.000000e+00 0.000000e+00 0.000000e+00
    outer loop
      vertex   7.000000e+00 3.880832e+00 -8.974643e+00
      vertex   7.000000e+00 3.798011e+00 -8.876364e+00
      vertex   7.000000e+00 3.696281e+00 -8.918731e+00
    endloop
  endfacet
  facet normal 1.000000e+00 0.000000e+00 0.000000e+00
    outer loop
      vertex   7.000000e+00 3.880832e+00 -8.974643e+00
      vertex   7.000000e+00 3.696281e+00 -8.918731e+00
      vertex   7.000000e+00 3.820995e+00 -9.000000e+00
    endloop
  endfacet
  facet normal 1.000000e+00 0.000000e+00 0.000000e+00
    outer loop
      vertex   7.000000e+00 3.820995e+00 -9.000000e+00
      vertex   7.000000e+00 3.696281e+00 -8.918731e+00
      vertex   7.000000e+00 3.594079e+00 -8.959944e+00
    endloop
  endfacet
  facet normal 1.000000e+00 0.000000e+00 0.000000e+00
    outer loop
      vertex   7.000000e+00 3.820995e+00 -9.000000e+00
      vertex   7.000000e+00 3.594079e+00 -8.959944e+00
      vertex   7.000000e+00 3.491418e+00 -9.000000e+00
    endloop
  endfacet
  facet normal 0.000000e+00 0.000000e+00 -1.000000e+00
    outer loop
      vertex   7.000000e+00 3.491418e+00 -9.000000e+00
      vertex   6.956354e+00 3.577589e+00 -9.000000e+00
      vertex   7.000000e+00 3.820995e+00 -9.000000e+00
    endloop
  endfacet
  facet normal 0.000000e+00 0.000000e+00 -1.000000e+00
    outer loop
      vertex   7.000000e+00 3.820995e+00 -9.000000e+00
      vertex   6.956354e+00 3.577589e+00 -9.000000e+00
      vertex   6.911647e+00 3.663214e+00 -9.000000e+00
    endloop
  endfacet
  facet normal -0.000000e+00 0.000000e+00 -1.000000e+00
    outer loop
      vertex   7.000000e+00 3.820995e+00 -9.000000e+00
      vertex   6.911647e+00 3.663214e+00 -9.000000e+00
      vertex   6.966938e+00 3.880951e+00 -9.000000e+00
    endloop
  endfacet
  facet normal 0.000000e+00 0.000000e+00 -1.000000e+00
    outer loop
      vertex   6.966938e+00 3.880951e+00 -9.000000e+00
      vertex   6.911647e+00 3.663214e+00 -9.000000e+00
      vertex   6.865886e+00 3.748281e+00 -9.000000e+00
    endloop
  endfacet
  facet normal -0.000000e+00 0.000000e+00 -1.000000e+00
    outer loop
      vertex   6.966938e+00 3.880951e+00 -9.000000e+00
      vertex   6.865886e+00 3.748281e+00 -9.000000e+00
      vertex   6.933362e+00 3.940621e+00 -9.000000e+00
    endloop
  endfacet
  facet normal 0.000000e+00 0.000000e+00 -1.000000e+00
    outer loop
      vertex   6.933362e+00 3.940621e+00 -9.000000e+00
      vertex   6.865886e+00 3.748281e+00 -9.000000e+00
      vertex   6.819078e+00 3.832776e+00 -9.000000e+00
    endloop
  endfacet
  facet normal -0.000000e+00 0.000000e+00 -1.000000e+00
    outer loop
      vertex   6.933362e+00 3.940621e+00 -9.000000e+00
      vertex   6.819078e+00 3.832776e+00 -9.000000e+00
      vertex   6.899275e+00 4.000000e+00 -9.000000e+00
    endloop
  endfacet
  facet normal 0.000000e+00 0.000000e+00 -1.000000e+00
    outer loop
      vertex   6.899275e+00 4.000000e+00 -9.000000e+00
      vertex   6.819078e+00 3.832776e+00 -9.000000e+00
      vertex   6.771231e+00 3.916687e+00 -9.000000e+00
    endloop
  endfacet
  facet normal -0.000000e+00 0.000000e+00 -1.000000e+00
    outer loop
      vertex   6.899275e+00 4.000000e+00 -9.000000e+00
      vertex   6.771231e+00 3.916687e+00 -9.000000e+00
      vertex   6.722351e+00 4.000000e+00 -9.000000e+00
    endloop
  endfacet
  facet normal 0.000000e+00 1.000000e+00 0.000000e+00
    outer loop
      vertex   6.722351e+00 4.000000e+00 -9.000000e+00
      vertex   6.815625e+00 4.000000e+00 -8.930352e+00
      vertex   6.899275e+00 4.000000e+00 -9.000000e+00
    endloop
  endfacet
  facet normal 0.000000e+00 1.000000e+00 -0.000000e+00
    outer loop
      vertex   6.899275e+00 4.000000e+00 -9.000000e+00
      vertex   6.815625e+00 4.000000e+00 -8.930352e+00
      vertex   6.932946e+00 4.000000e+00 -8.974374e+00
    endloop
  endfacet
  facet normal 0.000000e+00 1.000000e+00 0.000000e+00
    outer loop
      vertex   6.932946e+00 4.000000e+00 -8.974374e+00
      vertex   6.815625e+00 4.000000e+00 -8.930352e+00
      vertex   6.908178e+00 4.000000e+00 -8.859747e+00
    endloop
  endfacet
  facet normal 0.000000e+00 1.000000e+00 -0.000000e+00
    outer loop
      vertex   6.932946e+00 4.000000e+00 -8.974374e+00
      vertex   6.908178e+00 4.000000e+00 -8.859747e+00
      vertex   6.966521e+00 4.000000e+00 -8.948624e+00
    endloop
  endfacet
  facet normal 0.000000e+00 1.000000e+00 -0.000000e+00
    outer loop
      vertex   6.966521e+00 4.000000e+00 -8.948624e+00
      vertex   6.908178e+00 4.000000e+00 -8.859747e+00
      vertex   7.000000e+00 4.000000e+00 -8.922749e+00
    endloop
  endfacet
  facet normal 0.000000e+00 1.000000e+00 -0.000000e+00
    outer loop
      vertex   7.000000e+00 4.000000e+00 -8.922749e+00
      vertex   6.908178e+00 4.000000e+00 -8.859747e+00
      vertex   7.000000e+00 4.000000e+00 -8.788194e+00
    endloop
  endfacet
endsolid
