solid ASCII
  facet normal 2.690222e-01 7.665976e-01 -5.830568e-01
    outer loop
      vertex   3.000000e+00 8.291141e+00 -7.053038e+00
      vertex   3.000000e+00 8.331480e+00 -7.000000e+00
      vertex   3.098650e+00 8.276716e+00 -7.026486e+00
    endloop
  endfacet
  facet normal 2.692772e-01 7.668435e-01 -5.826155e-01
    outer loop
      vertex   3.098650e+00 8.276716e+00 -7.026486e+00
      vertex   3.000000e+00 8.331480e+00 -7.000000e+00
      vertex   3.105368e+00 8.294480e+00 -7.000000e+00
    endloop
  endfacet
  facet normal 2.785094e-01 7.634758e-01 -5.826983e-01
    outer loop
      vertex   3.098650e+00 8.276716e+00 -7.026486e+00
      vertex   3.105368e+00 8.294480e+00 -7.000000e+00
      vertex   3.201864e+00 8.239065e+00 -7.026486e+00
    endloop
  endfacet
  facet normal 2.786297e-01 7.635876e-01 -5.824942e-01
    outer loop
      vertex   3.201864e+00 8.239065e+00 -7.026486e+00
      vertex   3.105368e+00 8.294480e+00 -7.000000e+00
      vertex   3.210263e+00 8.256205e+00 -7.000000e+00
    endloop
  endfacet
  facet normal 2.876485e-01 7.598820e-01 -5.829559e-01
    outer loop
      vertex   3.201864e+00 8.239065e+00 -7.026486e+00
      vertex   3.210263e+00 8.256205e+00 -7.000000e+00
      vertex   3.305707e+00 8.199756e+00 -7.026486e+00
    endloop
  endfacet
  facet normal 2.879094e-01 7.601182e-01 -5.825190e-01
    outer loop
      vertex   3.305707e+00 8.199756e+00 -7.026486e+00
      vertex   3.210263e+00 8.256205e+00 -7.000000e+00
      vertex   3.314672e+00 8.216658e+00 -7.000000e+00
    endloop
  endfacet
  facet normal 2.968426e-01 7.562478e-01 -5.830727e-01
    outer loop
      vertex   3.305707e+00 8.199756e+00 -7.026486e+00
      vertex   3.314672e+00 8.216658e+00 -7.000000e+00
      vertex   3.409311e+00 8.159089e+00 -7.026486e+00
    endloop
  endfacet
  facet normal 2.971412e-01 7.565112e-01 -5.825786e-01
    outer loop
      vertex   3.409311e+00 8.159089e+00 -7.026486e+00
      vertex   3.314672e+00 8.216658e+00 -7.000000e+00
      vertex   3.418583e+00 8.175844e+00 -7.000000e+00
    endloop
  endfacet
  facet normal 3.060259e-01 7.525117e-01 -5.831590e-01
    outer loop
      vertex   3.409311e+00 8.159089e+00 -7.026486e+00
      vertex   3.418583e+00 8.175844e+00 -7.000000e+00
      vertex   3.512648e+00 8.117064e+00 -7.026486e+00
    endloop
  endfacet
  facet normal 3.063235e-01 7.527682e-01 -5.826713e-01
    outer loop
      vertex   3.512648e+00 8.117064e+00 -7.026486e+00
      vertex   3.418583e+00 8.175844e+00 -7.000000e+00
      vertex   3.521984e+00 8.133767e+00 -7.000000e+00
    endloop
  endfacet
  facet normal 3.151963e-01 7.486724e-01 -5.832160e-01
    outer loop
      vertex   3.512648e+00 8.117064e+00 -7.026486e+00
      vertex   3.521984e+00 8.133767e+00 -7.000000e+00
      vertex   3.615693e+00 8.073682e+00 -7.026486e+00
    endloop
  endfacet
  facet normal 3.154549e-01 7.488906e-01 -5.827959e-01
    outer loop
      vertex   3.615693e+00 8.073682e+00 -7.026486e+00
      vertex   3.521984e+00 8.133767e+00 -7.000000e+00
      vertex   3.624864e+00 8.090431e+00 -7.000000e+00
    endloop
  endfacet
  facet normal 3.243741e-01 7.447186e-01 -5.832458e-01
    outer loop
      vertex   3.615693e+00 8.073682e+00 -7.026486e+00
      vertex   3.624864e+00 8.090431e+00 -7.000000e+00
      vertex   3.718917e+00 8.028721e+00 -7.026486e+00
    endloop
  endfacet
  facet normal 3.245148e-01 7.448353e-01 -5.830184e-01
    outer loop
      vertex   3.718917e+00 8.028721e+00 -7.026486e+00
      vertex   3.624864e+00 8.090431e+00 -7.000000e+00
      vertex   3.727208e+00 8.045841e+00 -7.000000e+00
    endloop
  endfacet
  facet normal 3.317601e-01 7.415320e-01 -5.831514e-01
    outer loop
      vertex   3.718917e+00 8.028721e+00 -7.026486e+00
      vertex   3.727208e+00 8.045841e+00 -7.000000e+00
      vertex   3.778733e+00 8.000000e+00 -7.028978e+00
    endloop
  endfacet
  facet normal 3.344236e-01 7.426555e-01 -5.801928e-01
    outer loop
      vertex   3.778733e+00 8.000000e+00 -7.028978e+00
      vertex   3.727208e+00 8.045841e+00 -7.000000e+00
      vertex   3.829007e+00 8.000000e+00 -7.000000e+00
    endloop
  endfacet
  facet normal 3.312147e-01 7.405329e-01 -5.847289e-01
    outer loop
      vertex   3.778733e+00 8.000000e+00 -7.028978e+00
      vertex   3.728240e+00 8.000000e+00 -7.057579e+00
      vertex   3.718917e+00 8.028721e+00 -7.026486e+00
    endloop
  endfacet
  facet normal 3.295734e-01 7.407314e-01 -5.854044e-01
    outer loop
      vertex   3.718917e+00 8.028721e+00 -7.026486e+00
      vertex   3.728240e+00 8.000000e+00 -7.057579e+00
      vertex   3.710595e+00 8.011532e+00 -7.052921e+00
    endloop
  endfacet
  facet normal 3.237850e-01 7.433659e-01 -5.852951e-01
    outer loop
      vertex   3.718917e+00 8.028721e+00 -7.026486e+00
      vertex   3.710595e+00 8.011532e+00 -7.052921e+00
      vertex   3.615693e+00 8.073682e+00 -7.026486e+00
    endloop
  endfacet
  facet normal 3.237599e-01 7.433449e-01 -5.853356e-01
    outer loop
      vertex   3.615693e+00 8.073682e+00 -7.026486e+00
      vertex   3.710595e+00 8.011532e+00 -7.052921e+00
      vertex   3.607893e+00 8.056264e+00 -7.052921e+00
    endloop
  endfacet
  facet normal 3.146259e-01 7.473176e-01 -5.852580e-01
    outer loop
      vertex   3.615693e+00 8.073682e+00 -7.026486e+00
      vertex   3.607893e+00 8.056264e+00 -7.052921e+00
      vertex   3.512648e+00 8.117064e+00 -7.026486e+00
    endloop
  endfacet
  facet normal 3.146259e-01 7.473176e-01 -5.852580e-01
    outer loop
      vertex   3.512648e+00 8.117064e+00 -7.026486e+00
      vertex   3.607893e+00 8.056264e+00 -7.052921e+00
      vertex   3.505070e+00 8.099553e+00 -7.052921e+00
    endloop
  endfacet
  facet normal 3.054772e-01 7.511626e-01 -5.851824e-01
    outer loop
      vertex   3.512648e+00 8.117064e+00 -7.026486e+00
      vertex   3.505070e+00 8.099553e+00 -7.052921e+00
      vertex   3.409311e+00 8.159089e+00 -7.026486e+00
    endloop
  endfacet
  facet normal 3.054772e-01 7.511626e-01 -5.851824e-01
    outer loop
      vertex   3.409311e+00 8.159089e+00 -7.026486e+00
      vertex   3.505070e+00 8.099553e+00 -7.052921e+00
      vertex   3.401955e+00 8.141487e+00 -7.052921e+00
    endloop
  endfacet
  facet normal 2.963073e-01 7.548839e-01 -5.851088e-01
    outer loop
      vertex   3.409311e+00 8.159089e+00 -7.026486e+00
      vertex   3.401955e+00 8.141487e+00 -7.052921e+00
      vertex   3.305707e+00 8.199756e+00 -7.026486e+00
    endloop
  endfacet
  facet normal 2.963073e-01 7.548839e-01 -5.851088e-01
    outer loop
      vertex   3.305707e+00 8.199756e+00 -7.026486e+00
      vertex   3.401955e+00 8.141487e+00 -7.052921e+00
      vertex   3.298575e+00 8.182065e+00 -7.052921e+00
    endloop
  endfacet
  facet normal 2.871184e-01 7.584816e-01 -5.850374e-01
    outer loop
      vertex   3.305707e+00 8.199756e+00 -7.026486e+00
      vertex   3.298575e+00 8.182065e+00 -7.052921e+00
      vertex   3.201864e+00 8.239065e+00 -7.026486e+00
    endloop
  endfacet
  facet normal 2.871184e-01 7.584816e-01 -5.850374e-01
    outer loop
      vertex   3.201864e+00 8.239065e+00 -7.026486e+00
      vertex   3.298575e+00 8.182065e+00 -7.052921e+00
      vertex   3.194956e+00 8.221290e+00 -7.052921e+00
    endloop
  endfacet
  facet normal 2.779499e-01 7.619421e-01 -5.849684e-01
    outer loop
      vertex   3.201864e+00 8.239065e+00 -7.026486e+00
      vertex   3.194956e+00 8.221290e+00 -7.052921e+00
      vertex   3.098650e+00 8.276716e+00 -7.026486e+00
    endloop
  endfacet
  facet normal 2.779454e-01 7.619379e-01 -5.849760e-01
    outer loop
      vertex   3.098650e+00 8.276716e+00 -7.026486e+00
      vertex   3.194956e+00 8.221290e+00 -7.052921e+00
      vertex   3.091906e+00 8.258881e+00 -7.052921e+00
    endloop
  endfacet
  facet normal 2.692985e-01 7.650949e-01 -5.849000e-01
    outer loop
      vertex   3.098650e+00 8.276716e+00 -7.026486e+00
      vertex   3.091906e+00 8.258881e+00 -7.052921e+00
      vertex   3.000000e+00 8.291141e+00 -7.053038e+00
    endloop
  endfacet
  facet normal 2.687563e-01 7.635419e-01 -5.871744e-01
    outer loop
      vertex   3.000000e+00 8.291141e+00 -7.053038e+00
      vertex   3.091906e+00 8.258881e+00 -7.052921e+00
      vertex   3.085136e+00 8.240976e+00 -7.079303e+00
    endloop
  endfacet
  facet normal 2.684027e-01 7.632351e-01 -5.877348e-01
    outer loop
      vertex   3.000000e+00 8.291141e+00 -7.053038e+00
      vertex   3.085136e+00 8.240976e+00 -7.079303e+00
      vertex   3.000000e+00 8.250487e+00 -7.105831e+00
    endloop
  endfacet
  facet normal 2.687749e-01 7.617787e-01 -5.894516e-01
    outer loop
      vertex   3.000000e+00 8.250487e+00 -7.105831e+00
      vertex   3.085136e+00 8.240976e+00 -7.079303e+00
      vertex   3.078340e+00 8.223000e+00 -7.105633e+00
    endloop
  endfacet
  facet normal 2.682307e-01 7.602113e-01 -5.917188e-01
    outer loop
      vertex   3.000000e+00 8.250487e+00 -7.105831e+00
      vertex   3.078340e+00 8.223000e+00 -7.105633e+00
      vertex   3.071518e+00 8.204954e+00 -7.131910e+00
    endloop
  endfacet
  facet normal 2.762390e-01 7.572842e-01 -5.917877e-01
    outer loop
      vertex   3.071518e+00 8.204954e+00 -7.131910e+00
      vertex   3.078340e+00 8.223000e+00 -7.105633e+00
      vertex   3.174070e+00 8.167545e+00 -7.131910e+00
    endloop
  endfacet
  facet normal 2.756698e-01 7.557237e-01 -5.940436e-01
    outer loop
      vertex   3.071518e+00 8.204954e+00 -7.131910e+00
      vertex   3.174070e+00 8.167545e+00 -7.131910e+00
      vertex   3.167054e+00 8.149491e+00 -7.158134e+00
    endloop
  endfacet
  facet normal 2.847731e-01 7.522862e-01 -5.941126e-01
    outer loop
      vertex   3.167054e+00 8.149491e+00 -7.158134e+00
      vertex   3.174070e+00 8.167545e+00 -7.131910e+00
      vertex   3.269768e+00 8.110609e+00 -7.158134e+00
    endloop
  endfacet
  facet normal 2.841805e-01 7.507207e-01 -5.963723e-01
    outer loop
      vertex   3.167054e+00 8.149491e+00 -7.158134e+00
      vertex   3.269768e+00 8.110609e+00 -7.158134e+00
      vertex   3.262496e+00 8.092572e+00 -7.184305e+00
    endloop
  endfacet
  facet normal 2.932747e-01 7.471579e-01 -5.964437e-01
    outer loop
      vertex   3.262496e+00 8.092572e+00 -7.184305e+00
      vertex   3.269768e+00 8.110609e+00 -7.158134e+00
      vertex   3.364746e+00 8.052437e+00 -7.184305e+00
    endloop
  endfacet
  facet normal 2.926604e-01 7.455928e-01 -5.986996e-01
    outer loop
      vertex   3.262496e+00 8.092572e+00 -7.184305e+00
      vertex   3.364746e+00 8.052437e+00 -7.184305e+00
      vertex   3.357217e+00 8.034421e+00 -7.210421e+00
    endloop
  endfacet
  facet normal 3.005008e-01 7.424136e-01 -5.987665e-01
    outer loop
      vertex   3.357217e+00 8.034421e+00 -7.210421e+00
      vertex   3.364746e+00 8.052437e+00 -7.184305e+00
      vertex   3.420787e+00 8.000000e+00 -7.221197e+00
    endloop
  endfacet
  facet normal 2.995820e-01 7.412942e-01 -6.006109e-01
    outer loop
      vertex   3.357217e+00 8.034421e+00 -7.210421e+00
      vertex   3.420787e+00 8.000000e+00 -7.221197e+00
      vertex   3.368831e+00 8.000000e+00 -7.247112e+00
    endloop
  endfacet
  facet normal 3.276123e-01 7.390369e-01 -5.886379e-01
    outer loop
      vertex   3.728240e+00 8.000000e+00 -7.057579e+00
      vertex   3.677530e+00 8.000000e+00 -7.085803e+00
      vertex   3.710595e+00 8.011532e+00 -7.052921e+00
    endloop
  endfacet
  facet normal 3.235819e-01 7.429363e-01 -5.859526e-01
    outer loop
      vertex   3.710595e+00 8.011532e+00 -7.052921e+00
      vertex   3.677530e+00 8.000000e+00 -7.085803e+00
      vertex   3.607893e+00 8.056264e+00 -7.052921e+00
    endloop
  endfacet
  facet normal 3.222240e-01 7.422212e-01 -5.876048e-01
    outer loop
      vertex   3.607893e+00 8.056264e+00 -7.052921e+00
      vertex   3.677530e+00 8.000000e+00 -7.085803e+00
      vertex   3.600062e+00 8.038777e+00 -7.079303e+00
    endloop
  endfacet
  facet normal 3.218262e-01 7.415953e-01 -5.886122e-01
    outer loop
      vertex   3.600062e+00 8.038777e+00 -7.079303e+00
      vertex   3.677530e+00 8.000000e+00 -7.085803e+00
      vertex   3.626604e+00 8.000000e+00 -7.113647e+00
    endloop
  endfacet
  facet normal 3.199423e-01 7.414152e-01 -5.898648e-01
    outer loop
      vertex   3.600062e+00 8.038777e+00 -7.079303e+00
      vertex   3.626604e+00 8.000000e+00 -7.113647e+00
      vertex   3.592200e+00 8.021222e+00 -7.105633e+00
    endloop
  endfacet
  facet normal 3.186466e-01 7.401688e-01 -5.921270e-01
    outer loop
      vertex   3.592200e+00 8.021222e+00 -7.105633e+00
      vertex   3.626604e+00 8.000000e+00 -7.113647e+00
      vertex   3.584307e+00 8.003598e+00 -7.131910e+00
    endloop
  endfacet
  facet normal 3.127012e-01 7.427459e-01 -5.920697e-01
    outer loop
      vertex   3.592200e+00 8.021222e+00 -7.105633e+00
      vertex   3.584307e+00 8.003598e+00 -7.131910e+00
      vertex   3.489824e+00 8.064322e+00 -7.105633e+00
    endloop
  endfacet
  facet normal 3.127012e-01 7.427459e-01 -5.920697e-01
    outer loop
      vertex   3.489824e+00 8.064322e+00 -7.105633e+00
      vertex   3.584307e+00 8.003598e+00 -7.131910e+00
      vertex   3.482157e+00 8.046604e+00 -7.131910e+00
    endloop
  endfacet
  facet normal 3.036090e-01 7.465685e-01 -5.919941e-01
    outer loop
      vertex   3.489824e+00 8.064322e+00 -7.105633e+00
      vertex   3.482157e+00 8.046604e+00 -7.131910e+00
      vertex   3.387158e+00 8.106074e+00 -7.105633e+00
    endloop
  endfacet
  facet normal 3.036090e-01 7.465685e-01 -5.919941e-01
    outer loop
      vertex   3.387158e+00 8.106074e+00 -7.105633e+00
      vertex   3.482157e+00 8.046604e+00 -7.131910e+00
      vertex   3.379716e+00 8.088264e+00 -7.131910e+00
    endloop
  endfacet
  facet normal 2.944955e-01 7.502682e-01 -5.919206e-01
    outer loop
      vertex   3.387158e+00 8.106074e+00 -7.105633e+00
      vertex   3.379716e+00 8.088264e+00 -7.131910e+00
      vertex   3.284228e+00 8.146476e+00 -7.105633e+00
    endloop
  endfacet
  facet normal 2.944955e-01 7.502682e-01 -5.919206e-01
    outer loop
      vertex   3.284228e+00 8.146476e+00 -7.105633e+00
      vertex   3.379716e+00 8.088264e+00 -7.131910e+00
      vertex   3.277012e+00 8.128577e+00 -7.131910e+00
    endloop
  endfacet
  facet normal 2.853632e-01 7.538450e-01 -5.918492e-01
    outer loop
      vertex   3.284228e+00 8.146476e+00 -7.105633e+00
      vertex   3.277012e+00 8.128577e+00 -7.131910e+00
      vertex   3.181059e+00 8.185530e+00 -7.105633e+00
    endloop
  endfacet
  facet normal 2.853632e-01 7.538450e-01 -5.918492e-01
    outer loop
      vertex   3.181059e+00 8.185530e+00 -7.105633e+00
      vertex   3.277012e+00 8.128577e+00 -7.131910e+00
      vertex   3.174070e+00 8.167545e+00 -7.131910e+00
    endloop
  endfacet
  facet normal 2.762434e-01 7.572884e-01 -5.917803e-01
    outer loop
      vertex   3.181059e+00 8.185530e+00 -7.105633e+00
      vertex   3.174070e+00 8.167545e+00 -7.131910e+00
      vertex   3.078340e+00 8.223000e+00 -7.105633e+00
    endloop
  endfacet
  facet normal 3.198892e-01 7.367807e-01 -5.956720e-01
    outer loop
      vertex   3.626604e+00 8.000000e+00 -7.113647e+00
      vertex   3.575464e+00 8.000000e+00 -7.141110e+00
      vertex   3.584307e+00 8.003598e+00 -7.131910e+00
    endloop
  endfacet
  facet normal 3.114383e-01 7.444775e-01 -5.905586e-01
    outer loop
      vertex   3.584307e+00 8.003598e+00 -7.131910e+00
      vertex   3.575464e+00 8.000000e+00 -7.141110e+00
      vertex   3.524113e+00 8.000000e+00 -7.168190e+00
    endloop
  endfacet
  facet normal 3.126248e-01 7.425644e-01 -5.923376e-01
    outer loop
      vertex   3.584307e+00 8.003598e+00 -7.131910e+00
      vertex   3.524113e+00 8.000000e+00 -7.168190e+00
      vertex   3.482157e+00 8.046604e+00 -7.131910e+00
    endloop
  endfacet
  facet normal 3.102518e-01 7.419734e-01 -5.943225e-01
    outer loop
      vertex   3.482157e+00 8.046604e+00 -7.131910e+00
      vertex   3.524113e+00 8.000000e+00 -7.168190e+00
      vertex   3.474459e+00 8.028817e+00 -7.158134e+00
    endloop
  endfacet
  facet normal 3.029808e-01 7.450240e-01 -5.942575e-01
    outer loop
      vertex   3.482157e+00 8.046604e+00 -7.131910e+00
      vertex   3.474459e+00 8.028817e+00 -7.158134e+00
      vertex   3.379716e+00 8.088264e+00 -7.131910e+00
    endloop
  endfacet
  facet normal 3.029808e-01 7.450240e-01 -5.942575e-01
    outer loop
      vertex   3.379716e+00 8.088264e+00 -7.131910e+00
      vertex   3.474459e+00 8.028817e+00 -7.158134e+00
      vertex   3.372245e+00 8.070385e+00 -7.158134e+00
    endloop
  endfacet
  facet normal 2.938864e-01 7.487163e-01 -5.941840e-01
    outer loop
      vertex   3.379716e+00 8.088264e+00 -7.131910e+00
      vertex   3.372245e+00 8.070385e+00 -7.158134e+00
      vertex   3.277012e+00 8.128577e+00 -7.131910e+00
    endloop
  endfacet
  facet normal 2.938864e-01 7.487163e-01 -5.941840e-01
    outer loop
      vertex   3.277012e+00 8.128577e+00 -7.131910e+00
      vertex   3.372245e+00 8.070385e+00 -7.158134e+00
      vertex   3.269768e+00 8.110609e+00 -7.158134e+00
    endloop
  endfacet
  facet normal 2.847731e-01 7.522862e-01 -5.941126e-01
    outer loop
      vertex   3.277012e+00 8.128577e+00 -7.131910e+00
      vertex   3.269768e+00 8.110609e+00 -7.158134e+00
      vertex   3.174070e+00 8.167545e+00 -7.131910e+00
    endloop
  endfacet
  facet normal 3.089631e-01 7.405883e-01 -5.967167e-01
    outer loop
      vertex   3.524113e+00 8.000000e+00 -7.168190e+00
      vertex   3.472551e+00 8.000000e+00 -7.194887e+00
      vertex   3.474459e+00 8.028817e+00 -7.158134e+00
    endloop
  endfacet
  facet normal 3.097539e-01 7.403655e-01 -5.965831e-01
    outer loop
      vertex   3.474459e+00 8.028817e+00 -7.158134e+00
      vertex   3.472551e+00 8.000000e+00 -7.194887e+00
      vertex   3.466733e+00 8.010962e+00 -7.184305e+00
    endloop
  endfacet
  facet normal 3.023500e-01 7.434728e-01 -5.965171e-01
    outer loop
      vertex   3.474459e+00 8.028817e+00 -7.158134e+00
      vertex   3.466733e+00 8.010962e+00 -7.184305e+00
      vertex   3.372245e+00 8.070385e+00 -7.158134e+00
    endloop
  endfacet
  facet normal 3.023500e-01 7.434728e-01 -5.965171e-01
    outer loop
      vertex   3.372245e+00 8.070385e+00 -7.158134e+00
      vertex   3.466733e+00 8.010962e+00 -7.184305e+00
      vertex   3.364746e+00 8.052437e+00 -7.184305e+00
    endloop
  endfacet
  facet normal 2.932747e-01 7.471579e-01 -5.964437e-01
    outer loop
      vertex   3.372245e+00 8.070385e+00 -7.158134e+00
      vertex   3.364746e+00 8.052437e+00 -7.184305e+00
      vertex   3.269768e+00 8.110609e+00 -7.158134e+00
    endloop
  endfacet
  facet normal 3.046082e-01 7.402838e-01 -5.993277e-01
    outer loop
      vertex   3.472551e+00 8.000000e+00 -7.194887e+00
      vertex   3.420787e+00 8.000000e+00 -7.221197e+00
      vertex   3.466733e+00 8.010962e+00 -7.184305e+00
    endloop
  endfacet
  facet normal 3.021794e-01 7.430534e-01 -5.971259e-01
    outer loop
      vertex   3.466733e+00 8.010962e+00 -7.184305e+00
      vertex   3.420787e+00 8.000000e+00 -7.221197e+00
      vertex   3.364746e+00 8.052437e+00 -7.184305e+00
    endloop
  endfacet
  facet normal 2.985699e-01 7.413787e-01 -6.010106e-01
    outer loop
      vertex   3.357217e+00 8.034421e+00 -7.210421e+00
      vertex   3.368831e+00 8.000000e+00 -7.247112e+00
      vertex   3.349661e+00 8.016336e+00 -7.236484e+00
    endloop
  endfacet
  facet normal 2.956673e-01 7.400034e-01 -6.041323e-01
    outer loop
      vertex   3.349661e+00 8.016336e+00 -7.236484e+00
      vertex   3.368831e+00 8.000000e+00 -7.247112e+00
      vertex   3.316688e+00 8.000000e+00 -7.272631e+00
    endloop
  endfacet
  facet normal 2.917468e-01 7.432653e-01 -6.020303e-01
    outer loop
      vertex   3.349661e+00 8.016336e+00 -7.236484e+00
      vertex   3.316688e+00 8.000000e+00 -7.272631e+00
      vertex   3.247870e+00 8.056291e+00 -7.236484e+00
    endloop
  endfacet
  facet normal 2.906969e-01 7.427308e-01 -6.031967e-01
    outer loop
      vertex   3.247870e+00 8.056291e+00 -7.236484e+00
      vertex   3.316688e+00 8.000000e+00 -7.272631e+00
      vertex   3.240515e+00 8.038048e+00 -7.262491e+00
    endloop
  endfacet
  facet normal 2.823876e-01 7.459843e-01 -6.031290e-01
    outer loop
      vertex   3.247870e+00 8.056291e+00 -7.236484e+00
      vertex   3.240515e+00 8.038048e+00 -7.262491e+00
      vertex   3.145844e+00 8.094913e+00 -7.236484e+00
    endloop
  endfacet
  facet normal 2.823876e-01 7.459843e-01 -6.031290e-01
    outer loop
      vertex   3.145844e+00 8.094913e+00 -7.236484e+00
      vertex   3.240515e+00 8.038048e+00 -7.262491e+00
      vertex   3.138720e+00 8.076582e+00 -7.262491e+00
    endloop
  endfacet
  facet normal 2.733508e-01 7.493984e-01 -6.030601e-01
    outer loop
      vertex   3.145844e+00 8.094913e+00 -7.236484e+00
      vertex   3.138720e+00 8.076582e+00 -7.262491e+00
      vertex   3.043972e+00 8.132071e+00 -7.236484e+00
    endloop
  endfacet
  facet normal 2.733463e-01 7.493942e-01 -6.030673e-01
    outer loop
      vertex   3.043972e+00 8.132071e+00 -7.236484e+00
      vertex   3.138720e+00 8.076582e+00 -7.262491e+00
      vertex   3.037021e+00 8.113677e+00 -7.262491e+00
    endloop
  endfacet
  facet normal 2.671752e-01 7.516561e-01 -6.030178e-01
    outer loop
      vertex   3.043972e+00 8.132071e+00 -7.236484e+00
      vertex   3.037021e+00 8.113677e+00 -7.262491e+00
      vertex   3.000000e+00 8.126644e+00 -7.262731e+00
    endloop
  endfacet
  facet normal 2.666255e-01 7.500452e-01 -6.052628e-01
    outer loop
      vertex   3.000000e+00 8.126644e+00 -7.262731e+00
      vertex   3.037021e+00 8.113677e+00 -7.262491e+00
      vertex   3.030045e+00 8.095214e+00 -7.288444e+00
    endloop
  endfacet
  facet normal 2.651951e-01 7.496210e-01 -6.064156e-01
    outer loop
      vertex   3.000000e+00 8.126644e+00 -7.262731e+00
      vertex   3.030045e+00 8.095214e+00 -7.288444e+00
      vertex   3.000000e+00 8.084740e+00 -7.314531e+00
    endloop
  endfacet
  facet normal 2.666318e-01 7.482244e-01 -6.075094e-01
    outer loop
      vertex   3.000000e+00 8.084740e+00 -7.314531e+00
      vertex   3.030045e+00 8.095214e+00 -7.288444e+00
      vertex   3.023043e+00 8.076682e+00 -7.314342e+00
    endloop
  endfacet
  facet normal 2.660817e-01 7.465986e-01 -6.097468e-01
    outer loop
      vertex   3.000000e+00 8.084740e+00 -7.314531e+00
      vertex   3.023043e+00 8.076682e+00 -7.314342e+00
      vertex   3.016016e+00 8.058081e+00 -7.340184e+00
    endloop
  endfacet
  facet normal 2.715818e-01 7.445803e-01 -6.097897e-01
    outer loop
      vertex   3.016016e+00 8.058081e+00 -7.340184e+00
      vertex   3.023043e+00 8.076682e+00 -7.314342e+00
      vertex   3.117189e+00 8.021179e+00 -7.340184e+00
    endloop
  endfacet
  facet normal 2.709932e-01 7.429667e-01 -6.120157e-01
    outer loop
      vertex   3.016016e+00 8.058081e+00 -7.340184e+00
      vertex   3.117189e+00 8.021179e+00 -7.340184e+00
      vertex   3.109959e+00 8.002575e+00 -7.365970e+00
    endloop
  endfacet
  facet normal 2.772418e-01 7.406131e-01 -6.120696e-01
    outer loop
      vertex   3.109959e+00 8.002575e+00 -7.365970e+00
      vertex   3.117189e+00 8.021179e+00 -7.340184e+00
      vertex   3.159152e+00 8.000000e+00 -7.346803e+00
    endloop
  endfacet
  facet normal 2.780991e-01 7.381967e-01 -6.145946e-01
    outer loop
      vertex   3.109959e+00 8.002575e+00 -7.365970e+00
      vertex   3.159152e+00 8.000000e+00 -7.346803e+00
      vertex   3.106278e+00 8.000000e+00 -7.370728e+00
    endloop
  endfacet
  facet normal 2.901588e-01 7.419713e-01 -6.043893e-01
    outer loop
      vertex   3.316688e+00 8.000000e+00 -7.272631e+00
      vertex   3.264359e+00 8.000000e+00 -7.297754e+00
      vertex   3.240515e+00 8.038048e+00 -7.262491e+00
    endloop
  endfacet
  facet normal 2.883731e-01 7.418179e-01 -6.054313e-01
    outer loop
      vertex   3.240515e+00 8.038048e+00 -7.262491e+00
      vertex   3.264359e+00 8.000000e+00 -7.297754e+00
      vertex   3.233133e+00 8.019737e+00 -7.288444e+00
    endloop
  endfacet
  facet normal 2.817850e-01 7.443923e-01 -6.053737e-01
    outer loop
      vertex   3.240515e+00 8.038048e+00 -7.262491e+00
      vertex   3.233133e+00 8.019737e+00 -7.288444e+00
      vertex   3.138720e+00 8.076582e+00 -7.262491e+00
    endloop
  endfacet
  facet normal 2.817850e-01 7.443923e-01 -6.053737e-01
    outer loop
      vertex   3.138720e+00 8.076582e+00 -7.262491e+00
      vertex   3.233133e+00 8.019737e+00 -7.288444e+00
      vertex   3.131570e+00 8.058183e+00 -7.288444e+00
    endloop
  endfacet
  facet normal 2.727650e-01 7.478004e-01 -6.053048e-01
    outer loop
      vertex   3.138720e+00 8.076582e+00 -7.262491e+00
      vertex   3.131570e+00 8.058183e+00 -7.288444e+00
      vertex   3.037021e+00 8.113677e+00 -7.262491e+00
    endloop
  endfacet
  facet normal 2.727606e-01 7.477962e-01 -6.053119e-01
    outer loop
      vertex   3.037021e+00 8.113677e+00 -7.262491e+00
      vertex   3.131570e+00 8.058183e+00 -7.288444e+00
      vertex   3.030045e+00 8.095214e+00 -7.288444e+00
    endloop
  endfacet
  facet normal 2.869097e-01 7.405568e-01 -6.076664e-01
    outer loop
      vertex   3.233133e+00 8.019737e+00 -7.288444e+00
      vertex   3.264359e+00 8.000000e+00 -7.297754e+00
      vertex   3.225723e+00 8.001357e+00 -7.314342e+00
    endloop
  endfacet
  facet normal 2.910734e-01 7.301257e-01 -6.182173e-01
    outer loop
      vertex   3.225723e+00 8.001357e+00 -7.314342e+00
      vertex   3.264359e+00 8.000000e+00 -7.297754e+00
      vertex   3.211846e+00 8.000000e+00 -7.322478e+00
    endloop
  endfacet
  facet normal 2.739786e-01 7.567626e-01 -5.935032e-01
    outer loop
      vertex   3.225723e+00 8.001357e+00 -7.314342e+00
      vertex   3.211846e+00 8.000000e+00 -7.322478e+00
      vertex   3.159152e+00 8.000000e+00 -7.346803e+00
    endloop
  endfacet
  facet normal 2.713316e-01 7.429246e-01 -6.119169e-01
    outer loop
      vertex   3.106278e+00 8.000000e+00 -7.370728e+00
      vertex   3.053227e+00 8.000000e+00 -7.394252e+00
      vertex   3.109959e+00 8.002575e+00 -7.365970e+00
    endloop
  endfacet
  facet normal 2.711198e-01 7.433217e-01 -6.115283e-01
    outer loop
      vertex   3.109959e+00 8.002575e+00 -7.365970e+00
      vertex   3.053227e+00 8.000000e+00 -7.394252e+00
      vertex   3.008963e+00 8.039412e+00 -7.365970e+00
    endloop
  endfacet
  facet normal 2.709888e-01 7.429625e-01 -6.120228e-01
    outer loop
      vertex   3.109959e+00 8.002575e+00 -7.365970e+00
      vertex   3.008963e+00 8.039412e+00 -7.365970e+00
      vertex   3.016016e+00 8.058081e+00 -7.340184e+00
    endloop
  endfacet
  facet normal 2.660802e-01 7.447652e-01 -6.119854e-01
    outer loop
      vertex   3.016016e+00 8.058081e+00 -7.340184e+00
      vertex   3.008963e+00 8.039412e+00 -7.365970e+00
      vertex   3.000000e+00 8.042525e+00 -7.366079e+00
    endloop
  endfacet
  facet normal 2.633110e-01 7.463649e-01 -6.112338e-01
    outer loop
      vertex   3.016016e+00 8.058081e+00 -7.340184e+00
      vertex   3.000000e+00 8.042525e+00 -7.366079e+00
      vertex   3.000000e+00 8.084740e+00 -7.314531e+00
    endloop
  endfacet
  facet normal 2.683070e-01 7.421071e-01 -6.142381e-01
    outer loop
      vertex   3.008963e+00 8.039412e+00 -7.365970e+00
      vertex   3.053227e+00 8.000000e+00 -7.394252e+00
      vertex   3.001885e+00 8.020675e+00 -7.391700e+00
    endloop
  endfacet
  facet normal 2.676588e-01 7.407363e-01 -6.161725e-01
    outer loop
      vertex   3.001885e+00 8.020675e+00 -7.391700e+00
      vertex   3.053227e+00 8.000000e+00 -7.394252e+00
      vertex   3.000000e+00 8.000000e+00 -7.417373e+00
    endloop
  endfacet
  facet normal 2.414883e-01 7.470595e-01 -6.193428e-01
    outer loop
      vertex   3.001885e+00 8.020675e+00 -7.391700e+00
      vertex   3.000000e+00 8.000000e+00 -7.417373e+00
      vertex   3.000000e+00 8.042525e+00 -7.366079e+00
    endloop
  endfacet
  facet normal 2.662365e-01 7.530219e-01 -6.017276e-01
    outer loop
      vertex   3.000000e+00 8.126644e+00 -7.262731e+00
      vertex   3.000000e+00 8.168238e+00 -7.210680e+00
      vertex   3.043972e+00 8.132071e+00 -7.236484e+00
    endloop
  endfacet
  facet normal 2.671652e-01 7.534629e-01 -6.007633e-01
    outer loop
      vertex   3.043972e+00 8.132071e+00 -7.236484e+00
      vertex   3.000000e+00 8.168238e+00 -7.210680e+00
      vertex   3.050897e+00 8.150396e+00 -7.210421e+00
    endloop
  endfacet
  facet normal 2.739297e-01 7.509855e-01 -6.008189e-01
    outer loop
      vertex   3.043972e+00 8.132071e+00 -7.236484e+00
      vertex   3.050897e+00 8.150396e+00 -7.210421e+00
      vertex   3.145844e+00 8.094913e+00 -7.236484e+00
    endloop
  endfacet
  facet normal 2.739342e-01 7.509897e-01 -6.008116e-01
    outer loop
      vertex   3.145844e+00 8.094913e+00 -7.236484e+00
      vertex   3.050897e+00 8.150396e+00 -7.210421e+00
      vertex   3.152941e+00 8.113175e+00 -7.210421e+00
    endloop
  endfacet
  facet normal 2.829878e-01 7.475697e-01 -6.008806e-01
    outer loop
      vertex   3.145844e+00 8.094913e+00 -7.236484e+00
      vertex   3.152941e+00 8.113175e+00 -7.210421e+00
      vertex   3.247870e+00 8.056291e+00 -7.236484e+00
    endloop
  endfacet
  facet normal 2.829878e-01 7.475697e-01 -6.008806e-01
    outer loop
      vertex   3.247870e+00 8.056291e+00 -7.236484e+00
      vertex   3.152941e+00 8.113175e+00 -7.210421e+00
      vertex   3.255197e+00 8.074466e+00 -7.210421e+00
    endloop
  endfacet
  facet normal 2.920435e-01 7.440212e-01 -6.009518e-01
    outer loop
      vertex   3.247870e+00 8.056291e+00 -7.236484e+00
      vertex   3.255197e+00 8.074466e+00 -7.210421e+00
      vertex   3.349661e+00 8.016336e+00 -7.236484e+00
    endloop
  endfacet
  facet normal 2.920435e-01 7.440212e-01 -6.009518e-01
    outer loop
      vertex   3.349661e+00 8.016336e+00 -7.236484e+00
      vertex   3.255197e+00 8.074466e+00 -7.210421e+00
      vertex   3.357217e+00 8.034421e+00 -7.210421e+00
    endloop
  endfacet
  facet normal 2.677133e-01 7.550592e-01 -5.985108e-01
    outer loop
      vertex   3.050897e+00 8.150396e+00 -7.210421e+00
      vertex   3.000000e+00 8.168238e+00 -7.210680e+00
      vertex   3.057797e+00 8.168652e+00 -7.184305e+00
    endloop
  endfacet
  facet normal 2.670434e-01 7.564402e-01 -5.970645e-01
    outer loop
      vertex   3.057797e+00 8.168652e+00 -7.184305e+00
      vertex   3.000000e+00 8.168238e+00 -7.210680e+00
      vertex   3.000000e+00 8.209519e+00 -7.158379e+00
    endloop
  endfacet
  facet normal 2.677003e-01 7.568515e-01 -5.962485e-01
    outer loop
      vertex   3.057797e+00 8.168652e+00 -7.184305e+00
      vertex   3.000000e+00 8.209519e+00 -7.158379e+00
      vertex   3.064671e+00 8.186838e+00 -7.158134e+00
    endloop
  endfacet
  facet normal 2.682465e-01 7.584335e-01 -5.939886e-01
    outer loop
      vertex   3.064671e+00 8.186838e+00 -7.158134e+00
      vertex   3.000000e+00 8.209519e+00 -7.158379e+00
      vertex   3.071518e+00 8.204954e+00 -7.131910e+00
    endloop
  endfacet
  facet normal 2.756653e-01 7.557195e-01 -5.940510e-01
    outer loop
      vertex   3.064671e+00 8.186838e+00 -7.158134e+00
      vertex   3.071518e+00 8.204954e+00 -7.131910e+00
      vertex   3.167054e+00 8.149491e+00 -7.158134e+00
    endloop
  endfacet
  facet normal 2.677499e-01 7.598479e-01 -5.924029e-01
    outer loop
      vertex   3.000000e+00 8.209519e+00 -7.158379e+00
      vertex   3.000000e+00 8.250487e+00 -7.105831e+00
      vertex   3.071518e+00 8.204954e+00 -7.131910e+00
    endloop
  endfacet
  facet normal 2.768102e-01 7.588421e-01 -5.895207e-01
    outer loop
      vertex   3.181059e+00 8.185530e+00 -7.105633e+00
      vertex   3.078340e+00 8.223000e+00 -7.105633e+00
      vertex   3.085136e+00 8.240976e+00 -7.079303e+00
    endloop
  endfacet
  facet normal 2.773791e-01 7.603934e-01 -5.872502e-01
    outer loop
      vertex   3.085136e+00 8.240976e+00 -7.079303e+00
      vertex   3.091906e+00 8.258881e+00 -7.052921e+00
      vertex   3.188022e+00 8.203445e+00 -7.079303e+00
    endloop
  endfacet
  facet normal 2.773835e-01 7.603976e-01 -5.872426e-01
    outer loop
      vertex   3.188022e+00 8.203445e+00 -7.079303e+00
      vertex   3.091906e+00 8.258881e+00 -7.052921e+00
      vertex   3.194956e+00 8.221290e+00 -7.052921e+00
    endloop
  endfacet
  facet normal 2.865358e-01 7.569427e-01 -5.873116e-01
    outer loop
      vertex   3.188022e+00 8.203445e+00 -7.079303e+00
      vertex   3.194956e+00 8.221290e+00 -7.052921e+00
      vertex   3.291415e+00 8.164306e+00 -7.079303e+00
    endloop
  endfacet
  facet normal 2.865358e-01 7.569427e-01 -5.873116e-01
    outer loop
      vertex   3.291415e+00 8.164306e+00 -7.079303e+00
      vertex   3.194956e+00 8.221290e+00 -7.052921e+00
      vertex   3.298575e+00 8.182065e+00 -7.052921e+00
    endloop
  endfacet
  facet normal 2.957060e-01 7.533519e-01 -5.873830e-01
    outer loop
      vertex   3.291415e+00 8.164306e+00 -7.079303e+00
      vertex   3.298575e+00 8.182065e+00 -7.052921e+00
      vertex   3.394571e+00 8.123815e+00 -7.079303e+00
    endloop
  endfacet
  facet normal 2.957060e-01 7.533519e-01 -5.873830e-01
    outer loop
      vertex   3.394571e+00 8.123815e+00 -7.079303e+00
      vertex   3.298575e+00 8.182065e+00 -7.052921e+00
      vertex   3.401955e+00 8.141487e+00 -7.052921e+00
    endloop
  endfacet
  facet normal 3.048572e-01 7.496378e-01 -5.874566e-01
    outer loop
      vertex   3.394571e+00 8.123815e+00 -7.079303e+00
      vertex   3.401955e+00 8.141487e+00 -7.052921e+00
      vertex   3.497462e+00 8.081972e+00 -7.079303e+00
    endloop
  endfacet
  facet normal 3.048572e-01 7.496378e-01 -5.874566e-01
    outer loop
      vertex   3.497462e+00 8.081972e+00 -7.079303e+00
      vertex   3.401955e+00 8.141487e+00 -7.052921e+00
      vertex   3.505070e+00 8.099553e+00 -7.052921e+00
    endloop
  endfacet
  facet normal 3.139871e-01 7.458003e-01 -5.875321e-01
    outer loop
      vertex   3.497462e+00 8.081972e+00 -7.079303e+00
      vertex   3.505070e+00 8.099553e+00 -7.052921e+00
      vertex   3.600062e+00 8.038777e+00 -7.079303e+00
    endloop
  endfacet
  facet normal 3.139871e-01 7.458003e-01 -5.875321e-01
    outer loop
      vertex   3.600062e+00 8.038777e+00 -7.079303e+00
      vertex   3.505070e+00 8.099553e+00 -7.052921e+00
      vertex   3.607893e+00 8.056264e+00 -7.052921e+00
    endloop
  endfacet
  facet normal 2.745107e-01 7.525702e-01 -5.985666e-01
    outer loop
      vertex   3.152941e+00 8.113175e+00 -7.210421e+00
      vertex   3.050897e+00 8.150396e+00 -7.210421e+00
      vertex   3.057797e+00 8.168652e+00 -7.184305e+00
    endloop
  endfacet
  facet normal 2.750892e-01 7.541482e-01 -5.963107e-01
    outer loop
      vertex   3.057797e+00 8.168652e+00 -7.184305e+00
      vertex   3.064671e+00 8.186838e+00 -7.158134e+00
      vertex   3.160011e+00 8.131367e+00 -7.184305e+00
    endloop
  endfacet
  facet normal 2.750936e-01 7.541524e-01 -5.963033e-01
    outer loop
      vertex   3.160011e+00 8.131367e+00 -7.184305e+00
      vertex   3.064671e+00 8.186838e+00 -7.158134e+00
      vertex   3.167054e+00 8.149491e+00 -7.158134e+00
    endloop
  endfacet
  facet normal 2.841805e-01 7.507207e-01 -5.963723e-01
    outer loop
      vertex   3.160011e+00 8.131367e+00 -7.184305e+00
      vertex   3.167054e+00 8.149491e+00 -7.158134e+00
      vertex   3.262496e+00 8.092572e+00 -7.184305e+00
    endloop
  endfacet
  facet normal 2.721724e-01 7.461916e-01 -6.075528e-01
    outer loop
      vertex   3.023043e+00 8.076682e+00 -7.314342e+00
      vertex   3.030045e+00 8.095214e+00 -7.288444e+00
      vertex   3.124393e+00 8.039715e+00 -7.314342e+00
    endloop
  endfacet
  facet normal 2.721768e-01 7.461958e-01 -6.075456e-01
    outer loop
      vertex   3.124393e+00 8.039715e+00 -7.314342e+00
      vertex   3.030045e+00 8.095214e+00 -7.288444e+00
      vertex   3.131570e+00 8.058183e+00 -7.288444e+00
    endloop
  endfacet
  facet normal 2.811798e-01 7.427937e-01 -6.076146e-01
    outer loop
      vertex   3.124393e+00 8.039715e+00 -7.314342e+00
      vertex   3.131570e+00 8.058183e+00 -7.288444e+00
      vertex   3.225723e+00 8.001357e+00 -7.314342e+00
    endloop
  endfacet
  facet normal 2.811798e-01 7.427937e-01 -6.076146e-01
    outer loop
      vertex   3.225723e+00 8.001357e+00 -7.314342e+00
      vertex   3.131570e+00 8.058183e+00 -7.288444e+00
      vertex   3.233133e+00 8.019737e+00 -7.288444e+00
    endloop
  endfacet
  facet normal 2.655367e-01 7.431219e-01 -6.142150e-01
    outer loop
      vertex   3.001885e+00 8.020675e+00 -7.391700e+00
      vertex   3.000000e+00 8.042525e+00 -7.366079e+00
      vertex   3.008963e+00 8.039412e+00 -7.365970e+00
    endloop
  endfacet
  facet normal 2.859508e-01 7.553972e-01 -5.895822e-01
    outer loop
      vertex   3.284228e+00 8.146476e+00 -7.105633e+00
      vertex   3.181059e+00 8.185530e+00 -7.105633e+00
      vertex   3.188022e+00 8.203445e+00 -7.079303e+00
    endloop
  endfacet
  facet normal 2.768147e-01 7.588463e-01 -5.895133e-01
    outer loop
      vertex   3.188022e+00 8.203445e+00 -7.079303e+00
      vertex   3.181059e+00 8.185530e+00 -7.105633e+00
      vertex   3.085136e+00 8.240976e+00 -7.079303e+00
    endloop
  endfacet
  facet normal 2.859508e-01 7.553972e-01 -5.895822e-01
    outer loop
      vertex   3.284228e+00 8.146476e+00 -7.105633e+00
      vertex   3.188022e+00 8.203445e+00 -7.079303e+00
      vertex   3.291415e+00 8.164306e+00 -7.079303e+00
    endloop
  endfacet
  facet normal 2.835854e-01 7.491485e-01 -5.986283e-01
    outer loop
      vertex   3.255197e+00 8.074466e+00 -7.210421e+00
      vertex   3.152941e+00 8.113175e+00 -7.210421e+00
      vertex   3.160011e+00 8.131367e+00 -7.184305e+00
    endloop
  endfacet
  facet normal 2.745151e-01 7.525744e-01 -5.985593e-01
    outer loop
      vertex   3.160011e+00 8.131367e+00 -7.184305e+00
      vertex   3.152941e+00 8.113175e+00 -7.210421e+00
      vertex   3.057797e+00 8.168652e+00 -7.184305e+00
    endloop
  endfacet
  facet normal 2.835854e-01 7.491485e-01 -5.986283e-01
    outer loop
      vertex   3.255197e+00 8.074466e+00 -7.210421e+00
      vertex   3.160011e+00 8.131367e+00 -7.184305e+00
      vertex   3.262496e+00 8.092572e+00 -7.184305e+00
    endloop
  endfacet
  facet normal 2.783177e-01 7.420478e-01 -6.098395e-01
    outer loop
      vertex   3.159152e+00 8.000000e+00 -7.346803e+00
      vertex   3.117189e+00 8.021179e+00 -7.340184e+00
      vertex   3.124393e+00 8.039715e+00 -7.314342e+00
    endloop
  endfacet
  facet normal 2.715862e-01 7.445845e-01 -6.097826e-01
    outer loop
      vertex   3.124393e+00 8.039715e+00 -7.314342e+00
      vertex   3.117189e+00 8.021179e+00 -7.340184e+00
      vertex   3.023043e+00 8.076682e+00 -7.314342e+00
    endloop
  endfacet
  facet normal 2.811674e-01 7.427608e-01 -6.076605e-01
    outer loop
      vertex   3.159152e+00 8.000000e+00 -7.346803e+00
      vertex   3.124393e+00 8.039715e+00 -7.314342e+00
      vertex   3.225723e+00 8.001357e+00 -7.314342e+00
    endloop
  endfacet
  facet normal 2.951021e-01 7.518134e-01 -5.896536e-01
    outer loop
      vertex   3.387158e+00 8.106074e+00 -7.105633e+00
      vertex   3.284228e+00 8.146476e+00 -7.105633e+00
      vertex   3.291415e+00 8.164306e+00 -7.079303e+00
    endloop
  endfacet
  facet normal 2.951021e-01 7.518134e-01 -5.896536e-01
    outer loop
      vertex   3.387158e+00 8.106074e+00 -7.105633e+00
      vertex   3.291415e+00 8.164306e+00 -7.079303e+00
      vertex   3.394571e+00 8.123815e+00 -7.079303e+00
    endloop
  endfacet
  facet normal 2.926604e-01 7.455928e-01 -5.986996e-01
    outer loop
      vertex   3.357217e+00 8.034421e+00 -7.210421e+00
      vertex   3.255197e+00 8.074466e+00 -7.210421e+00
      vertex   3.262496e+00 8.092572e+00 -7.184305e+00
    endloop
  endfacet
  facet normal 3.042344e-01 7.481065e-01 -5.897272e-01
    outer loop
      vertex   3.489824e+00 8.064322e+00 -7.105633e+00
      vertex   3.387158e+00 8.106074e+00 -7.105633e+00
      vertex   3.394571e+00 8.123815e+00 -7.079303e+00
    endloop
  endfacet
  facet normal 3.042344e-01 7.481065e-01 -5.897272e-01
    outer loop
      vertex   3.489824e+00 8.064322e+00 -7.105633e+00
      vertex   3.394571e+00 8.123815e+00 -7.079303e+00
      vertex   3.497462e+00 8.081972e+00 -7.079303e+00
    endloop
  endfacet
  facet normal 3.133456e-01 7.442764e-01 -5.898027e-01
    outer loop
      vertex   3.592200e+00 8.021222e+00 -7.105633e+00
      vertex   3.489824e+00 8.064322e+00 -7.105633e+00
      vertex   3.497462e+00 8.081972e+00 -7.079303e+00
    endloop
  endfacet
  facet normal 3.133456e-01 7.442764e-01 -5.898027e-01
    outer loop
      vertex   3.592200e+00 8.021222e+00 -7.105633e+00
      vertex   3.497462e+00 8.081972e+00 -7.079303e+00
      vertex   3.600062e+00 8.038777e+00 -7.079303e+00
    endloop
  endfacet
  facet normal -3.016298e-01 -7.508185e-01 5.876147e-01
    outer loop
      vertex   3.359067e+00 8.000000e+00 -7.025938e+00
      vertex   3.409598e+00 8.000000e+00 -7.000000e+00
      vertex   3.351625e+00 8.003915e+00 -7.024755e+00
    endloop
  endfacet
  facet normal -3.010723e-01 -7.522366e-01 5.860850e-01
    outer loop
      vertex   3.351625e+00 8.003915e+00 -7.024755e+00
      vertex   3.409598e+00 8.000000e+00 -7.000000e+00
      vertex   3.307930e+00 8.040691e+00 -7.000000e+00
    endloop
  endfacet
  facet normal -2.978074e-01 -7.507533e-01 5.896442e-01
    outer loop
      vertex   3.351625e+00 8.003915e+00 -7.024755e+00
      vertex   3.307930e+00 8.040691e+00 -7.000000e+00
      vertex   3.300897e+00 8.024038e+00 -7.024755e+00
    endloop
  endfacet
  facet normal -2.932303e-01 -7.525988e-01 5.895855e-01
    outer loop
      vertex   3.300897e+00 8.024038e+00 -7.024755e+00
      vertex   3.307930e+00 8.040691e+00 -7.000000e+00
      vertex   3.249659e+00 8.044002e+00 -7.024755e+00
    endloop
  endfacet
  facet normal -2.926571e-01 -7.511277e-01 5.917423e-01
    outer loop
      vertex   3.300897e+00 8.024038e+00 -7.024755e+00
      vertex   3.249659e+00 8.044002e+00 -7.024755e+00
      vertex   3.293840e+00 8.007322e+00 -7.049464e+00
    endloop
  endfacet
  facet normal -2.926472e-01 -7.511231e-01 5.917531e-01
    outer loop
      vertex   3.293840e+00 8.007322e+00 -7.049464e+00
      vertex   3.249659e+00 8.044002e+00 -7.024755e+00
      vertex   3.242865e+00 8.027183e+00 -7.049464e+00
    endloop
  endfacet
  facet normal -2.922523e-01 -7.501096e-01 5.932320e-01
    outer loop
      vertex   3.293840e+00 8.007322e+00 -7.049464e+00
      vertex   3.242865e+00 8.027183e+00 -7.049464e+00
      vertex   3.257423e+00 8.000000e+00 -7.076663e+00
    endloop
  endfacet
  facet normal -2.909594e-01 -7.500845e-01 5.938989e-01
    outer loop
      vertex   3.257423e+00 8.000000e+00 -7.076663e+00
      vertex   3.242865e+00 8.027183e+00 -7.049464e+00
      vertex   3.236045e+00 8.010303e+00 -7.074124e+00
    endloop
  endfacet
  facet normal -2.895794e-01 -7.480251e-01 5.971618e-01
    outer loop
      vertex   3.257423e+00 8.000000e+00 -7.076663e+00
      vertex   3.236045e+00 8.010303e+00 -7.074124e+00
      vertex   3.206312e+00 8.000000e+00 -7.101448e+00
    endloop
  endfacet
  facet normal -2.871110e-01 -7.504001e-01 5.953713e-01
    outer loop
      vertex   3.206312e+00 8.000000e+00 -7.101448e+00
      vertex   3.236045e+00 8.010303e+00 -7.074124e+00
      vertex   3.185375e+00 8.029690e+00 -7.074124e+00
    endloop
  endfacet
  facet normal -2.860893e-01 -7.502759e-01 5.960193e-01
    outer loop
      vertex   3.206312e+00 8.000000e+00 -7.101448e+00
      vertex   3.185375e+00 8.029690e+00 -7.074124e+00
      vertex   3.178530e+00 8.012748e+00 -7.098737e+00
    endloop
  endfacet
  facet normal -2.823763e-01 -7.517147e-01 5.959770e-01
    outer loop
      vertex   3.178530e+00 8.012748e+00 -7.098737e+00
      vertex   3.185375e+00 8.029690e+00 -7.074124e+00
      vertex   3.134270e+00 8.048887e+00 -7.074124e+00
    endloop
  endfacet
  facet normal -2.823695e-01 -7.517114e-01 5.959844e-01
    outer loop
      vertex   3.178530e+00 8.012748e+00 -7.098737e+00
      vertex   3.134270e+00 8.048887e+00 -7.074124e+00
      vertex   3.127641e+00 8.031863e+00 -7.098737e+00
    endloop
  endfacet
  facet normal -2.778070e-01 -7.534372e-01 5.959493e-01
    outer loop
      vertex   3.127641e+00 8.031863e+00 -7.098737e+00
      vertex   3.134270e+00 8.048887e+00 -7.074124e+00
      vertex   3.083525e+00 8.067597e+00 -7.074124e+00
    endloop
  endfacet
  facet normal -2.778035e-01 -7.534355e-01 5.959531e-01
    outer loop
      vertex   3.127641e+00 8.031863e+00 -7.098737e+00
      vertex   3.083525e+00 8.067597e+00 -7.074124e+00
      vertex   3.076947e+00 8.050555e+00 -7.098737e+00
    endloop
  endfacet
  facet normal -2.720730e-01 -7.555675e-01 5.958977e-01
    outer loop
      vertex   3.076947e+00 8.050555e+00 -7.098737e+00
      vertex   3.083525e+00 8.067597e+00 -7.074124e+00
      vertex   3.000000e+00 8.078216e+00 -7.098796e+00
    endloop
  endfacet
  facet normal -2.712637e-01 -7.533094e-01 5.991168e-01
    outer loop
      vertex   3.076947e+00 8.050555e+00 -7.098737e+00
      vertex   3.000000e+00 8.078216e+00 -7.098796e+00
      vertex   3.063720e+00 8.016283e+00 -7.147818e+00
    endloop
  endfacet
  facet normal -2.689136e-01 -7.525162e-01 6.011695e-01
    outer loop
      vertex   3.063720e+00 8.016283e+00 -7.147818e+00
      vertex   3.000000e+00 8.078216e+00 -7.098796e+00
      vertex   3.000000e+00 8.000000e+00 -7.196703e+00
    endloop
  endfacet
  facet normal -2.695757e-01 -7.517841e-01 6.017886e-01
    outer loop
      vertex   3.063720e+00 8.016283e+00 -7.147818e+00
      vertex   3.000000e+00 8.000000e+00 -7.196703e+00
      vertex   3.051855e+00 8.000000e+00 -7.173474e+00
    endloop
  endfacet
  facet normal -2.918999e-01 -7.558993e-01 5.860125e-01
    outer loop
      vertex   3.307930e+00 8.040691e+00 -7.000000e+00
      vertex   3.205766e+00 8.080143e+00 -7.000000e+00
      vertex   3.249659e+00 8.044002e+00 -7.024755e+00
    endloop
  endfacet
  facet normal -2.886460e-01 -7.543828e-01 5.895677e-01
    outer loop
      vertex   3.249659e+00 8.044002e+00 -7.024755e+00
      vertex   3.205766e+00 8.080143e+00 -7.000000e+00
      vertex   3.198993e+00 8.063388e+00 -7.024755e+00
    endloop
  endfacet
  facet normal -2.880839e-01 -7.529135e-01 5.917169e-01
    outer loop
      vertex   3.249659e+00 8.044002e+00 -7.024755e+00
      vertex   3.198993e+00 8.063388e+00 -7.024755e+00
      vertex   3.242865e+00 8.027183e+00 -7.049464e+00
    endloop
  endfacet
  facet normal -2.880770e-01 -7.529103e-01 5.917243e-01
    outer loop
      vertex   3.242865e+00 8.027183e+00 -7.049464e+00
      vertex   3.198993e+00 8.063388e+00 -7.024755e+00
      vertex   3.192196e+00 8.046570e+00 -7.049464e+00
    endloop
  endfacet
  facet normal -2.875126e-01 -7.514351e-01 5.938702e-01
    outer loop
      vertex   3.242865e+00 8.027183e+00 -7.049464e+00
      vertex   3.192196e+00 8.046570e+00 -7.049464e+00
      vertex   3.236045e+00 8.010303e+00 -7.074124e+00
    endloop
  endfacet
  facet normal -2.875058e-01 -7.514318e-01 5.938776e-01
    outer loop
      vertex   3.236045e+00 8.010303e+00 -7.074124e+00
      vertex   3.192196e+00 8.046570e+00 -7.049464e+00
      vertex   3.185375e+00 8.029690e+00 -7.074124e+00
    endloop
  endfacet
  facet normal -2.840580e-01 -7.561620e-01 5.895168e-01
    outer loop
      vertex   3.198993e+00 8.063388e+00 -7.024755e+00
      vertex   3.205766e+00 8.080143e+00 -7.000000e+00
      vertex   3.147456e+00 8.082748e+00 -7.024755e+00
    endloop
  endfacet
  facet normal -2.826870e-01 -7.594476e-01 5.859416e-01
    outer loop
      vertex   3.147456e+00 8.082748e+00 -7.024755e+00
      vertex   3.205766e+00 8.080143e+00 -7.000000e+00
      vertex   3.103119e+00 8.118351e+00 -7.000000e+00
    endloop
  endfacet
  facet normal -2.794559e-01 -7.578933e-01 5.894931e-01
    outer loop
      vertex   3.147456e+00 8.082748e+00 -7.024755e+00
      vertex   3.103119e+00 8.118351e+00 -7.000000e+00
      vertex   3.096611e+00 8.101496e+00 -7.024755e+00
    endloop
  endfacet
  facet normal -2.725641e-01 -7.604526e-01 5.894240e-01
    outer loop
      vertex   3.096611e+00 8.101496e+00 -7.024755e+00
      vertex   3.103119e+00 8.118351e+00 -7.000000e+00
      vertex   3.000000e+00 8.155311e+00 -7.000000e+00
    endloop
  endfacet
  facet normal -2.709766e-01 -7.588729e-01 5.921855e-01
    outer loop
      vertex   3.096611e+00 8.101496e+00 -7.024755e+00
      vertex   3.000000e+00 8.155311e+00 -7.000000e+00
      vertex   3.000000e+00 8.078216e+00 -7.098796e+00
    endloop
  endfacet
  facet normal -2.755002e-01 -7.489015e-01 6.026991e-01
    outer loop
      vertex   3.051855e+00 8.000000e+00 -7.173474e+00
      vertex   3.103527e+00 8.000000e+00 -7.149855e+00
      vertex   3.063720e+00 8.016283e+00 -7.147818e+00
    endloop
  endfacet
  facet normal -2.766625e-01 -7.513013e-01 5.991696e-01
    outer loop
      vertex   3.063720e+00 8.016283e+00 -7.147818e+00
      vertex   3.103527e+00 8.000000e+00 -7.149855e+00
      vertex   3.076947e+00 8.050555e+00 -7.098737e+00
    endloop
  endfacet
  facet normal -2.770200e-01 -7.513105e-01 5.989928e-01
    outer loop
      vertex   3.076947e+00 8.050555e+00 -7.098737e+00
      vertex   3.103527e+00 8.000000e+00 -7.149855e+00
      vertex   3.127641e+00 8.031863e+00 -7.098737e+00
    endloop
  endfacet
  facet normal -2.795102e-01 -7.500680e-01 5.993930e-01
    outer loop
      vertex   3.127641e+00 8.031863e+00 -7.098737e+00
      vertex   3.103527e+00 8.000000e+00 -7.149855e+00
      vertex   3.155013e+00 8.000000e+00 -7.125845e+00
    endloop
  endfacet
  facet normal -2.819567e-01 -7.506125e-01 5.975628e-01
    outer loop
      vertex   3.127641e+00 8.031863e+00 -7.098737e+00
      vertex   3.155013e+00 8.000000e+00 -7.125845e+00
      vertex   3.178530e+00 8.012748e+00 -7.098737e+00
    endloop
  endfacet
  facet normal -2.848984e-01 -7.483225e-01 5.990379e-01
    outer loop
      vertex   3.178530e+00 8.012748e+00 -7.098737e+00
      vertex   3.155013e+00 8.000000e+00 -7.125845e+00
      vertex   3.206312e+00 8.000000e+00 -7.101448e+00
    endloop
  endfacet
  facet normal -2.942530e-01 -7.477128e-01 5.952653e-01
    outer loop
      vertex   3.257423e+00 8.000000e+00 -7.076663e+00
      vertex   3.308342e+00 8.000000e+00 -7.051493e+00
      vertex   3.293840e+00 8.007322e+00 -7.049464e+00
    endloop
  endfacet
  facet normal -2.958213e-01 -7.498540e-01 5.917843e-01
    outer loop
      vertex   3.293840e+00 8.007322e+00 -7.049464e+00
      vertex   3.308342e+00 8.000000e+00 -7.051493e+00
      vertex   3.300897e+00 8.024038e+00 -7.024755e+00
    endloop
  endfacet
  facet normal -2.973868e-01 -7.496929e-01 5.912036e-01
    outer loop
      vertex   3.300897e+00 8.024038e+00 -7.024755e+00
      vertex   3.308342e+00 8.000000e+00 -7.051493e+00
      vertex   3.351625e+00 8.003915e+00 -7.024755e+00
    endloop
  endfacet
  facet normal -2.989165e-01 -7.473910e-01 5.933428e-01
    outer loop
      vertex   3.351625e+00 8.003915e+00 -7.024755e+00
      vertex   3.308342e+00 8.000000e+00 -7.051493e+00
      vertex   3.359067e+00 8.000000e+00 -7.025938e+00
    endloop
  endfacet
  facet normal -2.829407e-01 -7.532026e-01 5.938270e-01
    outer loop
      vertex   3.185375e+00 8.029690e+00 -7.074124e+00
      vertex   3.192196e+00 8.046570e+00 -7.049464e+00
      vertex   3.140875e+00 8.065848e+00 -7.049464e+00
    endloop
  endfacet
  facet normal -2.834961e-01 -7.546810e-01 5.916811e-01
    outer loop
      vertex   3.140875e+00 8.065848e+00 -7.049464e+00
      vertex   3.192196e+00 8.046570e+00 -7.049464e+00
      vertex   3.147456e+00 8.082748e+00 -7.024755e+00
    endloop
  endfacet
  facet normal -2.789108e-01 -7.564151e-01 5.916459e-01
    outer loop
      vertex   3.140875e+00 8.065848e+00 -7.049464e+00
      vertex   3.147456e+00 8.082748e+00 -7.024755e+00
      vertex   3.096611e+00 8.101496e+00 -7.024755e+00
    endloop
  endfacet
  facet normal -2.829339e-01 -7.531992e-01 5.938344e-01
    outer loop
      vertex   3.185375e+00 8.029690e+00 -7.074124e+00
      vertex   3.140875e+00 8.065848e+00 -7.049464e+00
      vertex   3.134270e+00 8.048887e+00 -7.074124e+00
    endloop
  endfacet
  facet normal -2.783601e-01 -7.549292e-01 5.937993e-01
    outer loop
      vertex   3.134270e+00 8.048887e+00 -7.074124e+00
      vertex   3.140875e+00 8.065848e+00 -7.049464e+00
      vertex   3.090080e+00 8.084578e+00 -7.049464e+00
    endloop
  endfacet
  facet normal -2.783565e-01 -7.549275e-01 5.938031e-01
    outer loop
      vertex   3.134270e+00 8.048887e+00 -7.074124e+00
      vertex   3.090080e+00 8.084578e+00 -7.049464e+00
      vertex   3.083525e+00 8.067597e+00 -7.074124e+00
    endloop
  endfacet
  facet normal -2.716690e-01 -7.574121e-01 5.937364e-01
    outer loop
      vertex   3.083525e+00 8.067597e+00 -7.074124e+00
      vertex   3.090080e+00 8.084578e+00 -7.049464e+00
      vertex   3.000000e+00 8.078216e+00 -7.098796e+00
    endloop
  endfacet
  facet normal -2.789073e-01 -7.564134e-01 5.916498e-01
    outer loop
      vertex   3.090080e+00 8.084578e+00 -7.049464e+00
      vertex   3.140875e+00 8.065848e+00 -7.049464e+00
      vertex   3.096611e+00 8.101496e+00 -7.024755e+00
    endloop
  endfacet
  facet normal -2.835029e-01 -7.546844e-01 5.916736e-01
    outer loop
      vertex   3.192196e+00 8.046570e+00 -7.049464e+00
      vertex   3.198993e+00 8.063388e+00 -7.024755e+00
      vertex   3.147456e+00 8.082748e+00 -7.024755e+00
    endloop
  endfacet
  facet normal -2.703223e-01 -7.595947e-01 5.915587e-01
    outer loop
      vertex   3.096611e+00 8.101496e+00 -7.024755e+00
      vertex   3.000000e+00 8.078216e+00 -7.098796e+00
      vertex   3.090080e+00 8.084578e+00 -7.049464e+00
    endloop
  endfacet
  facet normal -3.337345e-14 -1.000000e+00 0.000000e+00
    outer loop
      vertex   3.000000e+00 8.000000e+00 -7.417373e+00
      vertex   3.053227e+00 8.000000e+00 -7.394252e+00
      vertex   3.000000e+00 8.000000e+00 -7.196703e+00
    endloop
  endfacet
  facet normal 5.625895e-14 -1.000000e+00 2.415016e-14
    outer loop
      vertex   3.000000e+00 8.000000e+00 -7.196703e+00
      vertex   3.053227e+00 8.000000e+00 -7.394252e+00
      vertex   3.106278e+00 8.000000e+00 -7.370728e+00
    endloop
  endfacet
  facet normal 3.618788e-15 -1.000000e+00 -7.997464e-15
    outer loop
      vertex   3.000000e+00 8.000000e+00 -7.196703e+00
      vertex   3.106278e+00 8.000000e+00 -7.370728e+00
      vertex   3.159152e+00 8.000000e+00 -7.346803e+00
    endloop
  endfacet
  facet normal -1.896473e-14 -1.000000e+00 -3.194291e-14
    outer loop
      vertex   3.159152e+00 8.000000e+00 -7.346803e+00
      vertex   3.211846e+00 8.000000e+00 -7.322478e+00
      vertex   3.000000e+00 8.000000e+00 -7.196703e+00
    endloop
  endfacet
  facet normal 3.773182e-14 -1.000000e+00 6.355292e-14
    outer loop
      vertex   3.000000e+00 8.000000e+00 -7.196703e+00
      vertex   3.211846e+00 8.000000e+00 -7.322478e+00
      vertex   3.264359e+00 8.000000e+00 -7.297754e+00
    endloop
  endfacet
  facet normal 7.251335e-15 -1.000000e+00 -1.618755e-14
    outer loop
      vertex   3.000000e+00 8.000000e+00 -7.196703e+00
      vertex   3.264359e+00 8.000000e+00 -7.297754e+00
      vertex   3.051855e+00 8.000000e+00 -7.173474e+00
    endloop
  endfacet
  facet normal 7.536953e-15 -1.000000e+00 -1.569918e-14
    outer loop
      vertex   3.051855e+00 8.000000e+00 -7.173474e+00
      vertex   3.264359e+00 8.000000e+00 -7.297754e+00
      vertex   3.316688e+00 8.000000e+00 -7.272631e+00
    endloop
  endfacet
  facet normal 7.374543e-15 -1.000000e+00 -1.613295e-14
    outer loop
      vertex   3.051855e+00 8.000000e+00 -7.173474e+00
      vertex   3.316688e+00 8.000000e+00 -7.272631e+00
      vertex   3.103527e+00 8.000000e+00 -7.149855e+00
    endloop
  endfacet
  facet normal 7.656239e-15 -1.000000e+00 -1.564387e-14
    outer loop
      vertex   3.103527e+00 8.000000e+00 -7.149855e+00
      vertex   3.316688e+00 8.000000e+00 -7.272631e+00
      vertex   3.368831e+00 8.000000e+00 -7.247112e+00
    endloop
  endfacet
  facet normal 7.497285e-15 -1.000000e+00 -1.607748e-14
    outer loop
      vertex   3.103527e+00 8.000000e+00 -7.149855e+00
      vertex   3.368831e+00 8.000000e+00 -7.247112e+00
      vertex   3.155013e+00 8.000000e+00 -7.125845e+00
    endloop
  endfacet
  facet normal 7.775069e-15 -1.000000e+00 -1.558769e-14
    outer loop
      vertex   3.155013e+00 8.000000e+00 -7.125845e+00
      vertex   3.368831e+00 8.000000e+00 -7.247112e+00
      vertex   3.420787e+00 8.000000e+00 -7.221197e+00
    endloop
  endfacet
  facet normal -7.269907e-15 -1.000000e+00 -5.752267e-14
    outer loop
      vertex   3.155013e+00 8.000000e+00 -7.125845e+00
      vertex   3.420787e+00 8.000000e+00 -7.221197e+00
      vertex   3.206312e+00 8.000000e+00 -7.101448e+00
    endloop
  endfacet
  facet normal 1.184015e-14 -1.000000e+00 -2.329594e-14
    outer loop
      vertex   3.206312e+00 8.000000e+00 -7.101448e+00
      vertex   3.420787e+00 8.000000e+00 -7.221197e+00
      vertex   3.472551e+00 8.000000e+00 -7.194887e+00
    endloop
  endfacet
  facet normal 1.161202e-14 -1.000000e+00 -2.394596e-14
    outer loop
      vertex   3.206312e+00 8.000000e+00 -7.101448e+00
      vertex   3.472551e+00 8.000000e+00 -7.194887e+00
      vertex   3.257423e+00 8.000000e+00 -7.076663e+00
    endloop
  endfacet
  facet normal 1.201699e-14 -1.000000e+00 -2.320905e-14
    outer loop
      vertex   3.257423e+00 8.000000e+00 -7.076663e+00
      vertex   3.472551e+00 8.000000e+00 -7.194887e+00
      vertex   3.524113e+00 8.000000e+00 -7.168190e+00
    endloop
  endfacet
  facet normal 2.608947e-14 -1.000000e+00 1.779503e-14
    outer loop
      vertex   3.257423e+00 8.000000e+00 -7.076663e+00
      vertex   3.524113e+00 8.000000e+00 -7.168190e+00
      vertex   3.308342e+00 8.000000e+00 -7.051493e+00
    endloop
  endfacet
  facet normal -2.689993e-14 -1.000000e+00 -8.018104e-14
    outer loop
      vertex   3.308342e+00 8.000000e+00 -7.051493e+00
      vertex   3.524113e+00 8.000000e+00 -7.168190e+00
      vertex   3.575464e+00 8.000000e+00 -7.141110e+00
    endloop
  endfacet
  facet normal 2.799671e-14 -1.000000e+00 8.345023e-14
    outer loop
      vertex   3.308342e+00 8.000000e+00 -7.051493e+00
      vertex   3.575464e+00 8.000000e+00 -7.141110e+00
      vertex   3.359067e+00 8.000000e+00 -7.025938e+00
    endloop
  endfacet
  facet normal 2.633395e-14 -1.000000e+00 8.032608e-14
    outer loop
      vertex   3.359067e+00 8.000000e+00 -7.025938e+00
      vertex   3.575464e+00 8.000000e+00 -7.141110e+00
      vertex   3.626604e+00 8.000000e+00 -7.113647e+00
    endloop
  endfacet
  facet normal -2.740254e-14 -1.000000e+00 -8.358558e-14
    outer loop
      vertex   3.359067e+00 8.000000e+00 -7.025938e+00
      vertex   3.626604e+00 8.000000e+00 -7.113647e+00
      vertex   3.409598e+00 8.000000e+00 -7.000000e+00
    endloop
  endfacet
  facet normal -8.702984e-15 -1.000000e+00 -4.787921e-14
    outer loop
      vertex   3.409598e+00 8.000000e+00 -7.000000e+00
      vertex   3.626604e+00 8.000000e+00 -7.113647e+00
      vertex   3.677530e+00 8.000000e+00 -7.085803e+00
    endloop
  endfacet
  facet normal -8.585656e-15 -1.000000e+00 -4.751284e-14
    outer loop
      vertex   3.409598e+00 8.000000e+00 -7.000000e+00
      vertex   3.677530e+00 8.000000e+00 -7.085803e+00
      vertex   3.728240e+00 8.000000e+00 -7.057579e+00
    endloop
  endfacet
  facet normal 0.000000e+00 -1.000000e+00 0.000000e+00
    outer loop
      vertex   3.728240e+00 8.000000e+00 -7.057579e+00
      vertex   3.778733e+00 8.000000e+00 -7.028978e+00
      vertex   3.409598e+00 8.000000e+00 -7.000000e+00
    endloop
  endfacet
  facet normal 0.000000e+00 -1.000000e+00 0.000000e+00
    outer loop
      vertex   3.409598e+00 8.000000e+00 -7.000000e+00
      vertex   3.778733e+00 8.000000e+00 -7.028978e+00
      vertex   3.829007e+00 8.000000e+00 -7.000000e+00
    endloop
  endfacet
  facet normal 0.000000e+00 0.000000e+00 1.000000e+00
    outer loop
      vertex   3.829007e+00 8.000000e+00 -7.000000e+00
      vertex   3.727208e+00 8.045841e+00 -7.000000e+00
      vertex   3.409598e+00 8.000000e+00 -7.000000e+00
    endloop
  endfacet
  facet normal 0.000000e+00 0.000000e+00 1.000000e+00
    outer loop
      vertex   3.409598e+00 8.000000e+00 -7.000000e+00
      vertex   3.727208e+00 8.045841e+00 -7.000000e+00
      vertex   3.624864e+00 8.090431e+00 -7.000000e+00
    endloop
  endfacet
  facet normal 0.000000e+00 -0.000000e+00 1.000000e+00
    outer loop
      vertex   3.409598e+00 8.000000e+00 -7.000000e+00
      vertex   3.624864e+00 8.090431e+00 -7.000000e+00
      vertex   3.307930e+00 8.040691e+00 -7.000000e+00
    endloop
  endfacet
  facet normal 0.000000e+00 0.000000e+00 1.000000e+00
    outer loop
      vertex   3.307930e+00 8.040691e+00 -7.000000e+00
      vertex   3.624864e+00 8.090431e+00 -7.000000e+00
      vertex   3.521984e+00 8.133767e+00 -7.000000e+00
    endloop
  endfacet
  facet normal 0.000000e+00 -0.000000e+00 1.000000e+00
    outer loop
      vertex   3.307930e+00 8.040691e+00 -7.000000e+00
      vertex   3.521984e+00 8.133767e+00 -7.000000e+00
      vertex   3.205766e+00 8.080143e+00 -7.000000e+00
    endloop
  endfacet
  facet normal 0.000000e+00 0.000000e+00 1.000000e+00
    outer loop
      vertex   3.205766e+00 8.080143e+00 -7.000000e+00
      vertex   3.521984e+00 8.133767e+00 -7.000000e+00
      vertex   3.418583e+00 8.175844e+00 -7.000000e+00
    endloop
  endfacet
  facet normal -4.734082e-15 1.052756e-14 1.000000e+00
    outer loop
      vertex   3.205766e+00 8.080143e+00 -7.000000e+00
      vertex   3.418583e+00 8.175844e+00 -7.000000e+00
      vertex   3.103119e+00 8.118351e+00 -7.000000e+00
    endloop
  endfacet
  facet normal -1.923138e-15 -4.896243e-15 1.000000e+00
    outer loop
      vertex   3.103119e+00 8.118351e+00 -7.000000e+00
      vertex   3.418583e+00 8.175844e+00 -7.000000e+00
      vertex   3.314672e+00 8.216658e+00 -7.000000e+00
    endloop
  endfacet
  facet normal 3.034397e-15 -1.556472e-14 1.000000e+00
    outer loop
      vertex   3.103119e+00 8.118351e+00 -7.000000e+00
      vertex   3.314672e+00 8.216658e+00 -7.000000e+00
      vertex   3.000000e+00 8.155311e+00 -7.000000e+00
    endloop
  endfacet
  facet normal 0.000000e+00 0.000000e+00 1.000000e+00
    outer loop
      vertex   3.000000e+00 8.155311e+00 -7.000000e+00
      vertex   3.314672e+00 8.216658e+00 -7.000000e+00
      vertex   3.210263e+00 8.256205e+00 -7.000000e+00
    endloop
  endfacet
  facet normal 0.000000e+00 0.000000e+00 1.000000e+00
    outer loop
      vertex   3.000000e+00 8.155311e+00 -7.000000e+00
      vertex   3.210263e+00 8.256205e+00 -7.000000e+00
      vertex   3.105368e+00 8.294480e+00 -7.000000e+00
    endloop
  endfacet
  facet normal 0.000000e+00 0.000000e+00 1.000000e+00
    outer loop
      vertex   3.105368e+00 8.294480e+00 -7.000000e+00
      vertex   3.000000e+00 8.331480e+00 -7.000000e+00
      vertex   3.000000e+00 8.155311e+00 -7.000000e+00
    endloop
  endfacet
  facet normal -1.000000e+00 -0.000000e+00 0.000000e+00
    outer loop
      vertex   3.000000e+00 8.331480e+00 -7.000000e+00
      vertex   3.000000e+00 8.291141e+00 -7.053038e+00
      vertex   3.000000e+00 8.155311e+00 -7.000000e+00
    endloop
  endfacet
  facet normal -1.000000e+00 0.000000e+00 0.000000e+00
    outer loop
      vertex   3.000000e+00 8.155311e+00 -7.000000e+00
      vertex   3.000000e+00 8.291141e+00 -7.053038e+00
      vertex   3.000000e+00 8.250487e+00 -7.105831e+00
    endloop
  endfacet
  facet normal -1.000000e+00 0.000000e+00 0.000000e+00
    outer loop
      vertex   3.000000e+00 8.155311e+00 -7.000000e+00
      vertex   3.000000e+00 8.250487e+00 -7.105831e+00
      vertex   3.000000e+00 8.209519e+00 -7.158379e+00
    endloop
  endfacet
  facet normal -1.000000e+00 0.000000e+00 -0.000000e+00
    outer loop
      vertex   3.000000e+00 8.155311e+00 -7.000000e+00
      vertex   3.000000e+00 8.209519e+00 -7.158379e+00
      vertex   3.000000e+00 8.078216e+00 -7.098796e+00
    endloop
  endfacet
  facet normal -1.000000e+00 0.000000e+00 0.000000e+00
    outer loop
      vertex   3.000000e+00 8.078216e+00 -7.098796e+00
      vertex   3.000000e+00 8.209519e+00 -7.158379e+00
      vertex   3.000000e+00 8.168238e+00 -7.210680e+00
    endloop
  endfacet
  facet normal -1.000000e+00 0.000000e+00 0.000000e+00
    outer loop
      vertex   3.000000e+00 8.078216e+00 -7.098796e+00
      vertex   3.000000e+00 8.168238e+00 -7.210680e+00
      vertex   3.000000e+00 8.126644e+00 -7.262731e+00
    endloop
  endfacet
  facet normal -1.000000e+00 0.000000e+00 -0.000000e+00
    outer loop
      vertex   3.000000e+00 8.078216e+00 -7.098796e+00
      vertex   3.000000e+00 8.126644e+00 -7.262731e+00
      vertex   3.000000e+00 8.000000e+00 -7.196703e+00
    endloop
  endfacet
  facet normal -1.000000e+00 0.000000e+00 0.000000e+00
    outer loop
      vertex   3.000000e+00 8.000000e+00 -7.196703e+00
      vertex   3.000000e+00 8.126644e+00 -7.262731e+00
      vertex   3.000000e+00 8.084740e+00 -7.314531e+00
    endloop
  endfacet
  facet normal -1.000000e+00 0.000000e+00 0.000000e+00
    outer loop
      vertex   3.000000e+00 8.000000e+00 -7.196703e+00
      vertex   3.000000e+00 8.084740e+00 -7.314531e+00
      vertex   3.000000e+00 8.042525e+00 -7.366079e+00
    endloop
  endfacet
  facet normal -1.000000e+00 -0.000000e+00 0.000000e+00
    outer loop
      vertex   3.000000e+00 8.042525e+00 -7.366079e+00
      vertex   3.000000e+00 8.000000e+00 -7.417373e+00
      vertex   3.000000e+00 8.000000e+00 -7.196703e+00
    endloop
  endfacet
endsolid
