solid ASCII
  facet normal -7.838751e-01 -3.699704e-01 4.986599e-01
    outer loop
      vertex   -8.780001e+00 -4.000000e+00 6.000000e+00
      vertex   -8.809090e+00 -3.938368e+00 6.000000e+00
      vertex   -8.836290e+00 -4.000000e+00 5.911517e+00
    endloop
  endfacet
  facet normal -7.845573e-01 -3.690781e-01 4.982481e-01
    outer loop
      vertex   -8.836290e+00 -4.000000e+00 5.911517e+00
      vertex   -8.809090e+00 -3.938368e+00 6.000000e+00
      vertex   -8.855616e+00 -3.959265e+00 5.911259e+00
    endloop
  endfacet
  facet normal -7.883174e-01 -3.709084e-01 4.908998e-01
    outer loop
      vertex   -8.836290e+00 -4.000000e+00 5.911517e+00
      vertex   -8.855616e+00 -3.959265e+00 5.911259e+00
      vertex   -8.891721e+00 -4.000000e+00 5.822502e+00
    endloop
  endfacet
  facet normal -7.889149e-01 -3.699171e-01 4.906879e-01
    outer loop
      vertex   -8.891721e+00 -4.000000e+00 5.822502e+00
      vertex   -8.855616e+00 -3.959265e+00 5.911259e+00
      vertex   -8.901395e+00 -3.979829e+00 5.822155e+00
    endloop
  endfacet
  facet normal -7.926764e-01 -3.718512e-01 4.831053e-01
    outer loop
      vertex   -8.891721e+00 -4.000000e+00 5.822502e+00
      vertex   -8.901395e+00 -3.979829e+00 5.822155e+00
      vertex   -8.946292e+00 -4.000000e+00 5.732962e+00
    endloop
  endfacet
  facet normal -7.944878e-01 -3.679319e-01 4.831308e-01
    outer loop
      vertex   -8.946292e+00 -4.000000e+00 5.732962e+00
      vertex   -8.901395e+00 -3.979829e+00 5.822155e+00
      vertex   -8.930544e+00 -3.916885e+00 5.822155e+00
    endloop
  endfacet
  facet normal -7.945035e-01 -3.679149e-01 4.831178e-01
    outer loop
      vertex   -8.946292e+00 -4.000000e+00 5.732962e+00
      vertex   -8.930544e+00 -3.916885e+00 5.822155e+00
      vertex   -8.975827e+00 -3.936565e+00 5.732699e+00
    endloop
  endfacet
  facet normal -7.969041e-01 -3.626192e-01 4.831679e-01
    outer loop
      vertex   -8.975827e+00 -3.936565e+00 5.732699e+00
      vertex   -8.930544e+00 -3.916885e+00 5.822155e+00
      vertex   -9.000000e+00 -3.878495e+00 5.736412e+00
    endloop
  endfacet
  facet normal -7.997044e-01 -3.634475e-01 4.778899e-01
    outer loop
      vertex   -8.975827e+00 -3.936565e+00 5.732699e+00
      vertex   -9.000000e+00 -3.878495e+00 5.736412e+00
      vertex   -9.000000e+00 -3.939516e+00 5.690004e+00
    endloop
  endfacet
  facet normal -7.867423e-01 -3.643525e-01 4.982809e-01
    outer loop
      vertex   -8.809090e+00 -3.938368e+00 6.000000e+00
      vertex   -8.837728e+00 -3.876532e+00 6.000000e+00
      vertex   -8.855616e+00 -3.959265e+00 5.911259e+00
    endloop
  endfacet
  facet normal -7.867448e-01 -3.643499e-01 4.982789e-01
    outer loop
      vertex   -8.855616e+00 -3.959265e+00 5.911259e+00
      vertex   -8.837728e+00 -3.876532e+00 6.000000e+00
      vertex   -8.884510e+00 -3.896874e+00 5.911259e+00
    endloop
  endfacet
  facet normal -7.906510e-01 -3.661589e-01 4.907125e-01
    outer loop
      vertex   -8.855616e+00 -3.959265e+00 5.911259e+00
      vertex   -8.884510e+00 -3.896874e+00 5.911259e+00
      vertex   -8.901395e+00 -3.979829e+00 5.822155e+00
    endloop
  endfacet
  facet normal -7.906535e-01 -3.661562e-01 4.907105e-01
    outer loop
      vertex   -8.901395e+00 -3.979829e+00 5.822155e+00
      vertex   -8.884510e+00 -3.896874e+00 5.911259e+00
      vertex   -8.930544e+00 -3.916885e+00 5.822155e+00
    endloop
  endfacet
  facet normal -7.893441e-01 -3.586084e-01 4.983331e-01
    outer loop
      vertex   -8.837728e+00 -3.876532e+00 6.000000e+00
      vertex   -8.865912e+00 -3.814494e+00 6.000000e+00
      vertex   -8.884510e+00 -3.896874e+00 5.911259e+00
    endloop
  endfacet
  facet normal -7.893734e-01 -3.585765e-01 4.983096e-01
    outer loop
      vertex   -8.884510e+00 -3.896874e+00 5.911259e+00
      vertex   -8.865912e+00 -3.814494e+00 6.000000e+00
      vertex   -8.913075e+00 -3.833991e+00 5.911259e+00
    endloop
  endfacet
  facet normal -7.932820e-01 -3.603520e-01 4.907649e-01
    outer loop
      vertex   -8.884510e+00 -3.896874e+00 5.911259e+00
      vertex   -8.913075e+00 -3.833991e+00 5.911259e+00
      vertex   -8.930544e+00 -3.916885e+00 5.822155e+00
    endloop
  endfacet
  facet normal -7.932874e-01 -3.603461e-01 4.907605e-01
    outer loop
      vertex   -8.930544e+00 -3.916885e+00 5.822155e+00
      vertex   -8.913075e+00 -3.833991e+00 5.911259e+00
      vertex   -8.959188e+00 -3.853827e+00 5.822155e+00
    endloop
  endfacet
  facet normal -7.969774e-01 -3.620223e-01 4.834945e-01
    outer loop
      vertex   -8.930544e+00 -3.916885e+00 5.822155e+00
      vertex   -8.959188e+00 -3.853827e+00 5.822155e+00
      vertex   -9.000000e+00 -3.878495e+00 5.736412e+00
    endloop
  endfacet
  facet normal -7.984849e-01 -3.589204e-01 4.833197e-01
    outer loop
      vertex   -9.000000e+00 -3.878495e+00 5.736412e+00
      vertex   -8.959188e+00 -3.853827e+00 5.822155e+00
      vertex   -9.000000e+00 -3.816942e+00 5.782122e+00
    endloop
  endfacet
  facet normal -7.982552e-01 -3.555965e-01 4.861480e-01
    outer loop
      vertex   -9.000000e+00 -3.816942e+00 5.782122e+00
      vertex   -8.959188e+00 -3.853827e+00 5.822155e+00
      vertex   -8.987227e+00 -3.790885e+00 5.822155e+00
    endloop
  endfacet
  facet normal -8.014555e-01 -3.510303e-01 4.841970e-01
    outer loop
      vertex   -9.000000e+00 -3.816942e+00 5.782122e+00
      vertex   -8.987227e+00 -3.790885e+00 5.822155e+00
      vertex   -9.000000e+00 -3.754862e+00 5.827129e+00
    endloop
  endfacet
  facet normal -7.976034e-01 -3.505813e-01 4.908376e-01
    outer loop
      vertex   -9.000000e+00 -3.754862e+00 5.827129e+00
      vertex   -8.987227e+00 -3.790885e+00 5.822155e+00
      vertex   -8.940969e+00 -3.771373e+00 5.911259e+00
    endloop
  endfacet
  facet normal -7.980499e-01 -3.485665e-01 4.915462e-01
    outer loop
      vertex   -9.000000e+00 -3.754862e+00 5.827129e+00
      vertex   -8.940969e+00 -3.771373e+00 5.911259e+00
      vertex   -8.968366e+00 -3.708647e+00 5.911259e+00
    endloop
  endfacet
  facet normal -7.944725e-01 -3.470040e-01 4.983991e-01
    outer loop
      vertex   -8.968366e+00 -3.708647e+00 5.911259e+00
      vertex   -8.940969e+00 -3.771373e+00 5.911259e+00
      vertex   -8.920917e+00 -3.689825e+00 6.000000e+00
    endloop
  endfacet
  facet normal -7.969062e-01 -3.412574e-01 4.984815e-01
    outer loop
      vertex   -8.968366e+00 -3.708647e+00 5.911259e+00
      vertex   -8.920917e+00 -3.689825e+00 6.000000e+00
      vertex   -8.947736e+00 -3.627198e+00 6.000000e+00
    endloop
  endfacet
  facet normal -7.919007e-01 -3.528422e-01 4.983930e-01
    outer loop
      vertex   -8.865912e+00 -3.814494e+00 6.000000e+00
      vertex   -8.893642e+00 -3.752258e+00 6.000000e+00
      vertex   -8.913075e+00 -3.833991e+00 5.911259e+00
    endloop
  endfacet
  facet normal -7.919499e-01 -3.527877e-01 4.983535e-01
    outer loop
      vertex   -8.913075e+00 -3.833991e+00 5.911259e+00
      vertex   -8.893642e+00 -3.752258e+00 6.000000e+00
      vertex   -8.940969e+00 -3.771373e+00 5.911259e+00
    endloop
  endfacet
  facet normal -7.958735e-01 -3.545355e-01 4.908054e-01
    outer loop
      vertex   -8.913075e+00 -3.833991e+00 5.911259e+00
      vertex   -8.940969e+00 -3.771373e+00 5.911259e+00
      vertex   -8.987227e+00 -3.790885e+00 5.822155e+00
    endloop
  endfacet
  facet normal -7.944234e-01 -3.470594e-01 4.984388e-01
    outer loop
      vertex   -8.893642e+00 -3.752258e+00 6.000000e+00
      vertex   -8.920917e+00 -3.689825e+00 6.000000e+00
      vertex   -8.940969e+00 -3.771373e+00 5.911259e+00
    endloop
  endfacet
  facet normal -7.990778e-01 -3.353228e-01 4.990323e-01
    outer loop
      vertex   -8.974097e+00 -3.564378e+00 6.000000e+00
      vertex   -9.000000e+00 -3.629139e+00 5.915008e+00
      vertex   -8.947736e+00 -3.627198e+00 6.000000e+00
    endloop
  endfacet
  facet normal -7.980663e-01 -3.385327e-01 4.984836e-01
    outer loop
      vertex   -8.947736e+00 -3.627198e+00 6.000000e+00
      vertex   -9.000000e+00 -3.629139e+00 5.915008e+00
      vertex   -8.995244e+00 -3.645870e+00 5.911259e+00
    endloop
  endfacet
  facet normal -7.969473e-01 -3.412106e-01 4.984480e-01
    outer loop
      vertex   -8.947736e+00 -3.627198e+00 6.000000e+00
      vertex   -8.995244e+00 -3.645870e+00 5.911259e+00
      vertex   -8.968366e+00 -3.708647e+00 5.911259e+00
    endloop
  endfacet
  facet normal -7.993004e-01 -3.422180e-01 4.939693e-01
    outer loop
      vertex   -8.968366e+00 -3.708647e+00 5.911259e+00
      vertex   -8.995244e+00 -3.645870e+00 5.911259e+00
      vertex   -9.000000e+00 -3.692259e+00 5.871426e+00
    endloop
  endfacet
  facet normal -7.986571e-01 -3.476006e-01 4.912440e-01
    outer loop
      vertex   -8.968366e+00 -3.708647e+00 5.911259e+00
      vertex   -9.000000e+00 -3.692259e+00 5.871426e+00
      vertex   -9.000000e+00 -3.754862e+00 5.827129e+00
    endloop
  endfacet
  facet normal -8.004770e-01 -3.290730e-01 5.009466e-01
    outer loop
      vertex   -9.000000e+00 -3.501370e+00 6.000000e+00
      vertex   -9.000000e+00 -3.565505e+00 5.957869e+00
      vertex   -8.974097e+00 -3.564378e+00 6.000000e+00
    endloop
  endfacet
  facet normal -7.981280e-01 -3.365833e-01 4.997033e-01
    outer loop
      vertex   -8.974097e+00 -3.564378e+00 6.000000e+00
      vertex   -9.000000e+00 -3.565505e+00 5.957869e+00
      vertex   -9.000000e+00 -3.629139e+00 5.915008e+00
    endloop
  endfacet
  facet normal -8.036146e-01 -3.381533e-01 4.897508e-01
    outer loop
      vertex   -9.000000e+00 -3.629139e+00 5.915008e+00
      vertex   -9.000000e+00 -3.692259e+00 5.871426e+00
      vertex   -8.995244e+00 -3.645870e+00 5.911259e+00
    endloop
  endfacet
  facet normal -7.977502e-01 -3.704775e-01 4.757531e-01
    outer loop
      vertex   -9.000000e+00 -4.000000e+00 5.642904e+00
      vertex   -8.946292e+00 -4.000000e+00 5.732962e+00
      vertex   -9.000000e+00 -3.939516e+00 5.690004e+00
    endloop
  endfacet
  facet normal -7.975039e-01 -3.693369e-01 4.770511e-01
    outer loop
      vertex   -9.000000e+00 -3.939516e+00 5.690004e+00
      vertex   -8.946292e+00 -4.000000e+00 5.732962e+00
      vertex   -8.975827e+00 -3.936565e+00 5.732699e+00
    endloop
  endfacet
  facet normal -7.958735e-01 -3.545355e-01 4.908054e-01
    outer loop
      vertex   -8.987227e+00 -3.790885e+00 5.822155e+00
      vertex   -8.959188e+00 -3.853827e+00 5.822155e+00
      vertex   -8.913075e+00 -3.833991e+00 5.911259e+00
    endloop
  endfacet
  facet normal 8.078902e-01 2.939526e-01 -5.107889e-01
    outer loop
      vertex   -9.000000e+00 -3.062337e+00 6.000000e+00
      vertex   -8.956509e+00 -3.181865e+00 6.000000e+00
      vertex   -9.000000e+00 -3.124186e+00 5.964407e+00
    endloop
  endfacet
  facet normal 8.095633e-01 2.984893e-01 -5.054814e-01
    outer loop
      vertex   -9.000000e+00 -3.124186e+00 5.964407e+00
      vertex   -8.956509e+00 -3.181865e+00 6.000000e+00
      vertex   -9.000000e+00 -3.185637e+00 5.928119e+00
    endloop
  endfacet
  facet normal 8.073316e-01 3.060509e-01 -5.045280e-01
    outer loop
      vertex   -9.000000e+00 -3.185637e+00 5.928119e+00
      vertex   -8.956509e+00 -3.181865e+00 6.000000e+00
      vertex   -8.956166e+00 -3.314882e+00 5.919860e+00
    endloop
  endfacet
  facet normal 8.069739e-01 3.059693e-01 -5.051494e-01
    outer loop
      vertex   -9.000000e+00 -3.185637e+00 5.928119e+00
      vertex   -8.956166e+00 -3.314882e+00 5.919860e+00
      vertex   -9.000000e+00 -3.246686e+00 5.891142e+00
    endloop
  endfacet
  facet normal 8.092207e-01 3.099694e-01 -4.990800e-01
    outer loop
      vertex   -9.000000e+00 -3.246686e+00 5.891142e+00
      vertex   -8.956166e+00 -3.314882e+00 5.919860e+00
      vertex   -9.000000e+00 -3.307327e+00 5.853479e+00
    endloop
  endfacet
  facet normal 8.079578e-01 3.155804e-01 -4.976074e-01
    outer loop
      vertex   -9.000000e+00 -3.307327e+00 5.853479e+00
      vertex   -8.956166e+00 -3.314882e+00 5.919860e+00
      vertex   -8.976213e+00 -3.390411e+00 5.839410e+00
    endloop
  endfacet
  facet normal 8.065849e-01 3.155653e-01 -4.998393e-01
    outer loop
      vertex   -9.000000e+00 -3.307327e+00 5.853479e+00
      vertex   -8.976213e+00 -3.390411e+00 5.839410e+00
      vertex   -8.999489e+00 -3.330917e+00 5.839410e+00
    endloop
  endfacet
  facet normal 8.092414e-01 3.166046e-01 -4.948635e-01
    outer loop
      vertex   -8.999489e+00 -3.330917e+00 5.839410e+00
      vertex   -8.976213e+00 -3.390411e+00 5.839410e+00
      vertex   -9.000000e+00 -3.367555e+00 5.815134e+00
    endloop
  endfacet
  facet normal 8.432365e-01 2.886878e-01 -4.534441e-01
    outer loop
      vertex   -8.999489e+00 -3.330917e+00 5.839410e+00
      vertex   -9.000000e+00 -3.367555e+00 5.815134e+00
      vertex   -9.000000e+00 -3.307327e+00 5.853479e+00
    endloop
  endfacet
  facet normal 8.069370e-01 3.063286e-01 -5.049905e-01
    outer loop
      vertex   -8.956509e+00 -3.181865e+00 6.000000e+00
      vertex   -8.911374e+00 -3.300762e+00 6.000000e+00
      vertex   -8.956166e+00 -3.314882e+00 5.919860e+00
    endloop
  endfacet
  facet normal 8.039271e-01 3.145255e-01 -5.047524e-01
    outer loop
      vertex   -8.956166e+00 -3.314882e+00 5.919860e+00
      vertex   -8.911374e+00 -3.300762e+00 6.000000e+00
      vertex   -8.933002e+00 -3.374089e+00 5.919860e+00
    endloop
  endfacet
  facet normal 8.076277e-01 3.159733e-01 -4.978940e-01
    outer loop
      vertex   -8.956166e+00 -3.314882e+00 5.919860e+00
      vertex   -8.933002e+00 -3.374089e+00 5.919860e+00
      vertex   -8.976213e+00 -3.390411e+00 5.839410e+00
    endloop
  endfacet
  facet normal 8.054526e-01 3.215383e-01 -4.978547e-01
    outer loop
      vertex   -8.976213e+00 -3.390411e+00 5.839410e+00
      vertex   -8.933002e+00 -3.374089e+00 5.919860e+00
      vertex   -8.952491e+00 -3.449834e+00 5.839410e+00
    endloop
  endfacet
  facet normal 8.084339e-01 3.227284e-01 -4.922205e-01
    outer loop
      vertex   -8.976213e+00 -3.390411e+00 5.839410e+00
      vertex   -8.952491e+00 -3.449834e+00 5.839410e+00
      vertex   -9.000000e+00 -3.427366e+00 5.776112e+00
    endloop
  endfacet
  facet normal 8.080601e-01 3.256673e-01 -4.908968e-01
    outer loop
      vertex   -9.000000e+00 -3.427366e+00 5.776112e+00
      vertex   -8.952491e+00 -3.449834e+00 5.839410e+00
      vertex   -8.994954e+00 -3.466197e+00 5.758658e+00
    endloop
  endfacet
  facet normal 8.138367e-01 3.229173e-01 -4.831090e-01
    outer loop
      vertex   -9.000000e+00 -3.427366e+00 5.776112e+00
      vertex   -8.994954e+00 -3.466197e+00 5.758658e+00
      vertex   -9.000000e+00 -3.486751e+00 5.736418e+00
    endloop
  endfacet
  facet normal 8.085159e-01 3.292449e-01 -4.877498e-01
    outer loop
      vertex   -9.000000e+00 -3.486751e+00 5.736418e+00
      vertex   -8.994954e+00 -3.466197e+00 5.758658e+00
      vertex   -8.970671e+00 -3.525827e+00 5.758658e+00
    endloop
  endfacet
  facet normal 8.094154e-01 3.317355e-01 -4.845599e-01
    outer loop
      vertex   -9.000000e+00 -3.486751e+00 5.736418e+00
      vertex   -8.970671e+00 -3.525827e+00 5.758658e+00
      vertex   -9.000000e+00 -3.545681e+00 5.696074e+00
    endloop
  endfacet
  facet normal 8.076791e-01 3.354254e-01 -4.849168e-01
    outer loop
      vertex   -9.000000e+00 -3.545681e+00 5.696074e+00
      vertex   -8.970671e+00 -3.525827e+00 5.758658e+00
      vertex   -8.945941e+00 -3.585376e+00 5.758658e+00
    endloop
  endfacet
  facet normal 8.076410e-01 3.370341e-01 -4.838636e-01
    outer loop
      vertex   -9.000000e+00 -3.545681e+00 5.696074e+00
      vertex   -8.945941e+00 -3.585376e+00 5.758658e+00
      vertex   -8.987538e+00 -3.602048e+00 5.677613e+00
    endloop
  endfacet
  facet normal 8.058941e-01 3.412360e-01 -4.838313e-01
    outer loop
      vertex   -8.987538e+00 -3.602048e+00 5.677613e+00
      vertex   -8.945941e+00 -3.585376e+00 5.758658e+00
      vertex   -8.962242e+00 -3.661789e+00 5.677613e+00
    endloop
  endfacet
  facet normal 8.082948e-01 3.422526e-01 -4.790853e-01
    outer loop
      vertex   -8.987538e+00 -3.602048e+00 5.677613e+00
      vertex   -8.962242e+00 -3.661789e+00 5.677613e+00
      vertex   -9.000000e+00 -3.604144e+00 5.655090e+00
    endloop
  endfacet
  facet normal 8.086900e-01 3.429742e-01 -4.779009e-01
    outer loop
      vertex   -9.000000e+00 -3.604144e+00 5.655090e+00
      vertex   -8.962242e+00 -3.661789e+00 5.677613e+00
      vertex   -9.000000e+00 -3.662137e+00 5.613470e+00
    endloop
  endfacet
  facet normal 8.069852e-01 3.483049e-01 -4.769262e-01
    outer loop
      vertex   -9.000000e+00 -3.662137e+00 5.613470e+00
      vertex   -8.962242e+00 -3.661789e+00 5.677613e+00
      vertex   -8.936496e+00 -3.721441e+00 5.677613e+00
    endloop
  endfacet
  facet normal 8.069952e-01 3.484429e-01 -4.768085e-01
    outer loop
      vertex   -9.000000e+00 -3.662137e+00 5.613470e+00
      vertex   -8.936496e+00 -3.721441e+00 5.677613e+00
      vertex   -8.977225e+00 -3.738402e+00 5.596284e+00
    endloop
  endfacet
  facet normal 8.046311e-01 3.539232e-01 -4.767674e-01
    outer loop
      vertex   -8.977225e+00 -3.738402e+00 5.596284e+00
      vertex   -8.936496e+00 -3.721441e+00 5.677613e+00
      vertex   -8.950909e+00 -3.798231e+00 5.596284e+00
    endloop
  endfacet
  facet normal 8.072184e-01 3.550613e-01 -4.715187e-01
    outer loop
      vertex   -8.977225e+00 -3.738402e+00 5.596284e+00
      vertex   -8.950909e+00 -3.798231e+00 5.596284e+00
      vertex   -8.970977e+00 -3.806746e+00 5.555516e+00
    endloop
  endfacet
  facet normal 8.047565e-01 3.606616e-01 -4.714766e-01
    outer loop
      vertex   -8.970977e+00 -3.806746e+00 5.555516e+00
      vertex   -8.950909e+00 -3.798231e+00 5.596284e+00
      vertex   -8.944148e+00 -3.866609e+00 5.555516e+00
    endloop
  endfacet
  facet normal 8.064580e-01 3.614242e-01 -4.679723e-01
    outer loop
      vertex   -8.970977e+00 -3.806746e+00 5.555516e+00
      vertex   -8.944148e+00 -3.866609e+00 5.555516e+00
      vertex   -8.963998e+00 -3.875191e+00 5.514681e+00
    endloop
  endfacet
  facet normal 8.039492e-01 3.670252e-01 -4.679297e-01
    outer loop
      vertex   -8.963998e+00 -3.875191e+00 5.514681e+00
      vertex   -8.944148e+00 -3.866609e+00 5.555516e+00
      vertex   -8.936656e+00 -3.935082e+00 5.514681e+00
    endloop
  endfacet
  facet normal 8.056311e-01 3.677930e-01 -4.644210e-01
    outer loop
      vertex   -8.963998e+00 -3.875191e+00 5.514681e+00
      vertex   -8.936656e+00 -3.935082e+00 5.514681e+00
      vertex   -8.956288e+00 -3.943726e+00 5.473780e+00
    endloop
  endfacet
  facet normal 8.030753e-01 3.733940e-01 -4.643781e-01
    outer loop
      vertex   -8.956288e+00 -3.943726e+00 5.473780e+00
      vertex   -8.936656e+00 -3.935082e+00 5.514681e+00
      vertex   -8.908861e+00 -3.994863e+00 5.514681e+00
    endloop
  endfacet
  facet normal 8.033013e-01 3.748685e-01 -4.627965e-01
    outer loop
      vertex   -8.956288e+00 -3.943726e+00 5.473780e+00
      vertex   -8.908861e+00 -3.994863e+00 5.514681e+00
      vertex   -8.953323e+00 -4.000000e+00 5.433344e+00
    endloop
  endfacet
  facet normal 8.022780e-01 3.775332e-01 -4.624054e-01
    outer loop
      vertex   -8.953323e+00 -4.000000e+00 5.433344e+00
      vertex   -8.908861e+00 -3.994863e+00 5.514681e+00
      vertex   -8.905923e+00 -4.000000e+00 5.515584e+00
    endloop
  endfacet
  facet normal 8.001343e-01 3.753466e-01 -4.678675e-01
    outer loop
      vertex   -8.905923e+00 -4.000000e+00 5.515584e+00
      vertex   -8.908861e+00 -3.994863e+00 5.514681e+00
      vertex   -8.889133e+00 -3.986017e+00 5.555516e+00
    endloop
  endfacet
  facet normal 7.967655e-01 3.815285e-01 -4.686157e-01
    outer loop
      vertex   -8.905923e+00 -4.000000e+00 5.515584e+00
      vertex   -8.889133e+00 -3.986017e+00 5.555516e+00
      vertex   -8.857801e+00 -4.000000e+00 5.597404e+00
    endloop
  endfacet
  facet normal 7.978738e-01 3.757870e-01 -4.713614e-01
    outer loop
      vertex   -8.857801e+00 -4.000000e+00 5.597404e+00
      vertex   -8.889133e+00 -3.986017e+00 5.555516e+00
      vertex   -8.869248e+00 -3.977100e+00 5.596284e+00
    endloop
  endfacet
  facet normal 7.954429e-01 3.743153e-01 -4.766117e-01
    outer loop
      vertex   -8.857801e+00 -4.000000e+00 5.597404e+00
      vertex   -8.869248e+00 -3.977100e+00 5.596284e+00
      vertex   -8.829009e+00 -3.959056e+00 5.677613e+00
    endloop
  endfacet
  facet normal 7.971469e-01 3.706375e-01 -4.766389e-01
    outer loop
      vertex   -8.829009e+00 -3.959056e+00 5.677613e+00
      vertex   -8.869248e+00 -3.977100e+00 5.596284e+00
      vertex   -8.856555e+00 -3.899811e+00 5.677613e+00
    endloop
  endfacet
  facet normal 7.936827e-01 3.690268e-01 -4.836187e-01
    outer loop
      vertex   -8.829009e+00 -3.959056e+00 5.677613e+00
      vertex   -8.856555e+00 -3.899811e+00 5.677613e+00
      vertex   -8.815564e+00 -3.881761e+00 5.758658e+00
    endloop
  endfacet
  facet normal 7.962068e-01 3.634906e-01 -4.836624e-01
    outer loop
      vertex   -8.815564e+00 -3.881761e+00 5.758658e+00
      vertex   -8.856555e+00 -3.899811e+00 5.677613e+00
      vertex   -8.842535e+00 -3.822682e+00 5.758658e+00
    endloop
  endfacet
  facet normal 7.926750e-01 3.618782e-01 -4.906226e-01
    outer loop
      vertex   -8.815564e+00 -3.881761e+00 5.758658e+00
      vertex   -8.842535e+00 -3.822682e+00 5.758658e+00
      vertex   -8.800793e+00 -3.804636e+00 5.839410e+00
    endloop
  endfacet
  facet normal 7.951466e-01 3.563548e-01 -4.906660e-01
    outer loop
      vertex   -8.800793e+00 -3.804636e+00 5.839410e+00
      vertex   -8.842535e+00 -3.822682e+00 5.758658e+00
      vertex   -8.827191e+00 -3.745732e+00 5.839410e+00
    endloop
  endfacet
  facet normal 7.915470e-01 3.547417e-01 -4.976059e-01
    outer loop
      vertex   -8.800793e+00 -3.804636e+00 5.839410e+00
      vertex   -8.827191e+00 -3.745732e+00 5.839410e+00
      vertex   -8.784697e+00 -3.727700e+00 5.919860e+00
    endloop
  endfacet
  facet normal 7.939663e-01 3.492322e-01 -4.976489e-01
    outer loop
      vertex   -8.784697e+00 -3.727700e+00 5.919860e+00
      vertex   -8.827191e+00 -3.745732e+00 5.839410e+00
      vertex   -8.810524e+00 -3.668983e+00 5.919860e+00
    endloop
  endfacet
  facet normal 7.903383e-01 3.476364e-01 -5.044941e-01
    outer loop
      vertex   -8.784697e+00 -3.727700e+00 5.919860e+00
      vertex   -8.810524e+00 -3.668983e+00 5.919860e+00
      vertex   -8.766176e+00 -3.653507e+00 6.000000e+00
    endloop
  endfacet
  facet normal 7.926229e-01 3.421060e-01 -5.046904e-01
    outer loop
      vertex   -8.766176e+00 -3.653507e+00 6.000000e+00
      vertex   -8.810524e+00 -3.668983e+00 5.919860e+00
      vertex   -8.835908e+00 -3.610172e+00 5.919860e+00
    endloop
  endfacet
  facet normal 7.927805e-01 3.392194e-01 -5.063884e-01
    outer loop
      vertex   -8.766176e+00 -3.653507e+00 6.000000e+00
      vertex   -8.835908e+00 -3.610172e+00 5.919860e+00
      vertex   -8.816199e+00 -3.536599e+00 6.000000e+00
    endloop
  endfacet
  facet normal 7.950351e-01 3.366381e-01 -5.045731e-01
    outer loop
      vertex   -8.816199e+00 -3.536599e+00 6.000000e+00
      vertex   -8.835908e+00 -3.610172e+00 5.919860e+00
      vertex   -8.860847e+00 -3.551272e+00 5.919860e+00
    endloop
  endfacet
  facet normal 7.972317e-01 3.310867e-01 -5.047804e-01
    outer loop
      vertex   -8.816199e+00 -3.536599e+00 6.000000e+00
      vertex   -8.860847e+00 -3.551272e+00 5.919860e+00
      vertex   -8.885343e+00 -3.492289e+00 5.919860e+00
    endloop
  endfacet
  facet normal 8.009801e-01 3.326434e-01 -4.977742e-01
    outer loop
      vertex   -8.885343e+00 -3.492289e+00 5.919860e+00
      vertex   -8.860847e+00 -3.551272e+00 5.919860e+00
      vertex   -8.903710e+00 -3.568451e+00 5.839410e+00
    endloop
  endfacet
  facet normal 8.009801e-01 3.326434e-01 -4.977742e-01
    outer loop
      vertex   -8.885343e+00 -3.492289e+00 5.919860e+00
      vertex   -8.903710e+00 -3.568451e+00 5.839410e+00
      vertex   -8.928324e+00 -3.509182e+00 5.839410e+00
    endloop
  endfacet
  facet normal 8.046251e-01 3.341571e-01 -4.908334e-01
    outer loop
      vertex   -8.928324e+00 -3.509182e+00 5.839410e+00
      vertex   -8.903710e+00 -3.568451e+00 5.839410e+00
      vertex   -8.945941e+00 -3.585376e+00 5.758658e+00
    endloop
  endfacet
  facet normal 8.046251e-01 3.341571e-01 -4.908334e-01
    outer loop
      vertex   -8.928324e+00 -3.509182e+00 5.839410e+00
      vertex   -8.945941e+00 -3.585376e+00 5.758658e+00
      vertex   -8.970671e+00 -3.525827e+00 5.758658e+00
    endloop
  endfacet
  facet normal 8.017672e-01 3.171315e-01 -5.065541e-01
    outer loop
      vertex   -8.911374e+00 -3.300762e+00 6.000000e+00
      vertex   -8.864601e+00 -3.419012e+00 6.000000e+00
      vertex   -8.933002e+00 -3.374089e+00 5.919860e+00
    endloop
  endfacet
  facet normal 8.016845e-01 3.200341e-01 -5.048565e-01
    outer loop
      vertex   -8.933002e+00 -3.374089e+00 5.919860e+00
      vertex   -8.864601e+00 -3.419012e+00 6.000000e+00
      vertex   -8.909394e+00 -3.433227e+00 5.919860e+00
    endloop
  endfacet
  facet normal 8.054526e-01 3.215383e-01 -4.978547e-01
    outer loop
      vertex   -8.933002e+00 -3.374089e+00 5.919860e+00
      vertex   -8.909394e+00 -3.433227e+00 5.919860e+00
      vertex   -8.952491e+00 -3.449834e+00 5.839410e+00
    endloop
  endfacet
  facet normal 8.032367e-01 3.270951e-01 -4.978148e-01
    outer loop
      vertex   -8.952491e+00 -3.449834e+00 5.839410e+00
      vertex   -8.909394e+00 -3.433227e+00 5.919860e+00
      vertex   -8.928324e+00 -3.509182e+00 5.839410e+00
    endloop
  endfacet
  facet normal 8.068925e-01 3.285839e-01 -4.908738e-01
    outer loop
      vertex   -8.952491e+00 -3.449834e+00 5.839410e+00
      vertex   -8.928324e+00 -3.509182e+00 5.839410e+00
      vertex   -8.970671e+00 -3.525827e+00 5.758658e+00
    endloop
  endfacet
  facet normal 7.995649e-01 3.255999e-01 -5.046590e-01
    outer loop
      vertex   -8.909394e+00 -3.433227e+00 5.919860e+00
      vertex   -8.864601e+00 -3.419012e+00 6.000000e+00
      vertex   -8.885343e+00 -3.492289e+00 5.919860e+00
    endloop
  endfacet
  facet normal 7.973485e-01 3.282098e-01 -5.064718e-01
    outer loop
      vertex   -8.885343e+00 -3.492289e+00 5.919860e+00
      vertex   -8.864601e+00 -3.419012e+00 6.000000e+00
      vertex   -8.816199e+00 -3.536599e+00 6.000000e+00
    endloop
  endfacet
  facet normal 7.880642e-01 3.501589e-01 -5.063038e-01
    outer loop
      vertex   -8.766176e+00 -3.653507e+00 6.000000e+00
      vertex   -8.714539e+00 -3.769720e+00 6.000000e+00
      vertex   -8.784697e+00 -3.727700e+00 5.919860e+00
    endloop
  endfacet
  facet normal 7.878580e-01 3.530884e-01 -5.045873e-01
    outer loop
      vertex   -8.784697e+00 -3.727700e+00 5.919860e+00
      vertex   -8.714539e+00 -3.769720e+00 6.000000e+00
      vertex   -8.758426e+00 -3.786320e+00 5.919860e+00
    endloop
  endfacet
  facet normal 7.915470e-01 3.547417e-01 -4.976059e-01
    outer loop
      vertex   -8.784697e+00 -3.727700e+00 5.919860e+00
      vertex   -8.758426e+00 -3.786320e+00 5.919860e+00
      vertex   -8.800793e+00 -3.804636e+00 5.839410e+00
    endloop
  endfacet
  facet normal 7.890872e-01 3.602403e-01 -4.975624e-01
    outer loop
      vertex   -8.800793e+00 -3.804636e+00 5.839410e+00
      vertex   -8.758426e+00 -3.786320e+00 5.919860e+00
      vertex   -8.773948e+00 -3.863436e+00 5.839410e+00
    endloop
  endfacet
  facet normal 7.926750e-01 3.618782e-01 -4.906226e-01
    outer loop
      vertex   -8.800793e+00 -3.804636e+00 5.839410e+00
      vertex   -8.773948e+00 -3.863436e+00 5.839410e+00
      vertex   -8.815564e+00 -3.881761e+00 5.758658e+00
    endloop
  endfacet
  facet normal 7.901626e-01 3.673902e-01 -4.905787e-01
    outer loop
      vertex   -8.815564e+00 -3.881761e+00 5.758658e+00
      vertex   -8.773948e+00 -3.863436e+00 5.839410e+00
      vertex   -8.788145e+00 -3.940733e+00 5.758658e+00
    endloop
  endfacet
  facet normal 7.936827e-01 3.690268e-01 -4.836187e-01
    outer loop
      vertex   -8.815564e+00 -3.881761e+00 5.758658e+00
      vertex   -8.788145e+00 -3.940733e+00 5.758658e+00
      vertex   -8.829009e+00 -3.959056e+00 5.677613e+00
    endloop
  endfacet
  facet normal 7.915581e-01 3.736081e-01 -4.835833e-01
    outer loop
      vertex   -8.829009e+00 -3.959056e+00 5.677613e+00
      vertex   -8.788145e+00 -3.940733e+00 5.758658e+00
      vertex   -8.808960e+00 -4.000000e+00 5.678796e+00
    endloop
  endfacet
  facet normal 7.947667e-01 3.753721e-01 -4.769085e-01
    outer loop
      vertex   -8.829009e+00 -3.959056e+00 5.677613e+00
      vertex   -8.808960e+00 -4.000000e+00 5.678796e+00
      vertex   -8.857801e+00 -4.000000e+00 5.597404e+00
    endloop
  endfacet
  facet normal 7.854749e-01 3.585911e-01 -5.044221e-01
    outer loop
      vertex   -8.758426e+00 -3.786320e+00 5.919860e+00
      vertex   -8.714539e+00 -3.769720e+00 6.000000e+00
      vertex   -8.731711e+00 -3.844838e+00 5.919860e+00
    endloop
  endfacet
  facet normal 7.832007e-01 3.610267e-01 -5.062177e-01
    outer loop
      vertex   -8.731711e+00 -3.844838e+00 5.919860e+00
      vertex   -8.714539e+00 -3.769720e+00 6.000000e+00
      vertex   -8.661297e+00 -3.885223e+00 6.000000e+00
    endloop
  endfacet
  facet normal 7.829367e-01 3.640304e-01 -5.044721e-01
    outer loop
      vertex   -8.731711e+00 -3.844838e+00 5.919860e+00
      vertex   -8.661297e+00 -3.885223e+00 6.000000e+00
      vertex   -8.704552e+00 -3.903248e+00 5.919860e+00
    endloop
  endfacet
  facet normal 7.796210e-01 3.712910e-01 -5.043155e-01
    outer loop
      vertex   -8.704552e+00 -3.903248e+00 5.919860e+00
      vertex   -8.661297e+00 -3.885223e+00 6.000000e+00
      vertex   -8.658149e+00 -4.000000e+00 5.920365e+00
    endloop
  endfacet
  facet normal 6.179587e-01 2.925798e-01 -7.297425e-01
    outer loop
      vertex   -8.704552e+00 -3.903248e+00 5.919860e+00
      vertex   -8.658149e+00 -4.000000e+00 5.920365e+00
      vertex   -8.676846e+00 -3.961767e+00 5.919860e+00
    endloop
  endfacet
  facet normal 7.817470e-01 3.757400e-01 -4.976858e-01
    outer loop
      vertex   -8.676846e+00 -3.961767e+00 5.919860e+00
      vertex   -8.658149e+00 -4.000000e+00 5.920365e+00
      vertex   -8.709132e+00 -4.000000e+00 5.840282e+00
    endloop
  endfacet
  facet normal 7.823990e-01 3.746956e-01 -4.974485e-01
    outer loop
      vertex   -8.676846e+00 -3.961767e+00 5.919860e+00
      vertex   -8.709132e+00 -4.000000e+00 5.840282e+00
      vertex   -8.718713e+00 -3.981153e+00 5.839410e+00
    endloop
  endfacet
  facet normal 7.857687e-01 3.767277e-01 -4.905546e-01
    outer loop
      vertex   -8.718713e+00 -3.981153e+00 5.839410e+00
      vertex   -8.709132e+00 -4.000000e+00 5.840282e+00
      vertex   -8.759403e+00 -4.000000e+00 5.759758e+00
    endloop
  endfacet
  facet normal 7.875795e-01 3.729014e-01 -4.905742e-01
    outer loop
      vertex   -8.718713e+00 -3.981153e+00 5.839410e+00
      vertex   -8.759403e+00 -4.000000e+00 5.759758e+00
      vertex   -8.746659e+00 -3.922130e+00 5.839410e+00
    endloop
  endfacet
  facet normal 7.876271e-01 3.728531e-01 -4.905346e-01
    outer loop
      vertex   -8.746659e+00 -3.922130e+00 5.839410e+00
      vertex   -8.759403e+00 -4.000000e+00 5.759758e+00
      vertex   -8.788145e+00 -3.940733e+00 5.758658e+00
    endloop
  endfacet
  facet normal 7.901626e-01 3.673902e-01 -4.905787e-01
    outer loop
      vertex   -8.746659e+00 -3.922130e+00 5.839410e+00
      vertex   -8.788145e+00 -3.940733e+00 5.758658e+00
      vertex   -8.773948e+00 -3.863436e+00 5.839410e+00
    endloop
  endfacet
  facet normal 7.785823e-01 3.720083e-01 -5.053904e-01
    outer loop
      vertex   -8.661297e+00 -3.885223e+00 6.000000e+00
      vertex   -8.606456e+00 -4.000000e+00 6.000000e+00
      vertex   -8.658149e+00 -4.000000e+00 5.920365e+00
    endloop
  endfacet
  facet normal 7.908259e-01 3.745243e-01 -4.840723e-01
    outer loop
      vertex   -8.759403e+00 -4.000000e+00 5.759758e+00
      vertex   -8.808960e+00 -4.000000e+00 5.678796e+00
      vertex   -8.788145e+00 -3.940733e+00 5.758658e+00
    endloop
  endfacet
  facet normal 8.067262e-01 3.763666e-01 -4.555667e-01
    outer loop
      vertex   -9.000000e+00 -4.000000e+00 5.350688e+00
      vertex   -8.995079e+00 -3.960807e+00 5.391782e+00
      vertex   -8.953323e+00 -4.000000e+00 5.433344e+00
    endloop
  endfacet
  facet normal 8.066834e-01 3.753682e-01 -4.564653e-01
    outer loop
      vertex   -8.953323e+00 -4.000000e+00 5.433344e+00
      vertex   -8.995079e+00 -3.960807e+00 5.391782e+00
      vertex   -8.985440e+00 -3.956563e+00 5.412305e+00
    endloop
  endfacet
  facet normal 8.062336e-01 3.741798e-01 -4.582323e-01
    outer loop
      vertex   -8.953323e+00 -4.000000e+00 5.433344e+00
      vertex   -8.985440e+00 -3.956563e+00 5.412305e+00
      vertex   -8.975763e+00 -3.952301e+00 5.432813e+00
    endloop
  endfacet
  facet normal 8.086407e-01 3.689007e-01 -4.582713e-01
    outer loop
      vertex   -8.975763e+00 -3.952301e+00 5.432813e+00
      vertex   -8.985440e+00 -3.956563e+00 5.412305e+00
      vertex   -9.000000e+00 -3.889329e+00 5.440737e+00
    endloop
  endfacet
  facet normal 8.077056e-01 3.687619e-01 -4.600286e-01
    outer loop
      vertex   -8.975763e+00 -3.952301e+00 5.432813e+00
      vertex   -9.000000e+00 -3.889329e+00 5.440737e+00
      vertex   -8.966045e+00 -3.948023e+00 5.453304e+00
    endloop
  endfacet
  facet normal 8.076742e-01 3.687257e-01 -4.601127e-01
    outer loop
      vertex   -8.966045e+00 -3.948023e+00 5.453304e+00
      vertex   -9.000000e+00 -3.889329e+00 5.440737e+00
      vertex   -8.993477e+00 -3.887935e+00 5.453304e+00
    endloop
  endfacet
  facet normal 8.068834e-01 3.683647e-01 -4.617864e-01
    outer loop
      vertex   -8.966045e+00 -3.948023e+00 5.453304e+00
      vertex   -8.993477e+00 -3.887935e+00 5.453304e+00
      vertex   -8.983690e+00 -3.883704e+00 5.473780e+00
    endloop
  endfacet
  facet normal 8.092999e-01 3.629728e-01 -4.618273e-01
    outer loop
      vertex   -8.983690e+00 -3.883704e+00 5.473780e+00
      vertex   -8.993477e+00 -3.887935e+00 5.453304e+00
      vertex   -9.000000e+00 -3.833256e+00 5.484848e+00
    endloop
  endfacet
  facet normal 8.077577e-01 3.630514e-01 -4.644580e-01
    outer loop
      vertex   -8.983690e+00 -3.883704e+00 5.473780e+00
      vertex   -9.000000e+00 -3.833256e+00 5.484848e+00
      vertex   -8.963998e+00 -3.875191e+00 5.514681e+00
    endloop
  endfacet
  facet normal 8.075119e-01 3.618965e-01 -4.657848e-01
    outer loop
      vertex   -8.963998e+00 -3.875191e+00 5.514681e+00
      vertex   -9.000000e+00 -3.833256e+00 5.484848e+00
      vertex   -8.990886e+00 -3.815195e+00 5.514681e+00
    endloop
  endfacet
  facet normal 8.064580e-01 3.614242e-01 -4.679723e-01
    outer loop
      vertex   -8.963998e+00 -3.875191e+00 5.514681e+00
      vertex   -8.990886e+00 -3.815195e+00 5.514681e+00
      vertex   -8.970977e+00 -3.806746e+00 5.555516e+00
    endloop
  endfacet
  facet normal 8.082171e-01 3.574316e-01 -4.680039e-01
    outer loop
      vertex   -8.970977e+00 -3.806746e+00 5.555516e+00
      vertex   -8.990886e+00 -3.815195e+00 5.514681e+00
      vertex   -9.000000e+00 -3.776697e+00 5.528344e+00
    endloop
  endfacet
  facet normal 8.079640e-01 3.553892e-01 -4.699922e-01
    outer loop
      vertex   -8.970977e+00 -3.806746e+00 5.555516e+00
      vertex   -9.000000e+00 -3.776697e+00 5.528344e+00
      vertex   -8.997352e+00 -3.746783e+00 5.555516e+00
    endloop
  endfacet
  facet normal 8.166016e-01 3.468127e-01 -4.613922e-01
    outer loop
      vertex   -8.997352e+00 -3.746783e+00 5.555516e+00
      vertex   -9.000000e+00 -3.776697e+00 5.528344e+00
      vertex   -9.000000e+00 -3.719656e+00 5.571220e+00
    endloop
  endfacet
  facet normal 8.085838e-01 3.519067e-01 -4.715442e-01
    outer loop
      vertex   -8.997352e+00 -3.746783e+00 5.555516e+00
      vertex   -9.000000e+00 -3.719656e+00 5.571220e+00
      vertex   -8.977225e+00 -3.738402e+00 5.596284e+00
    endloop
  endfacet
  facet normal 8.085735e-01 3.483289e-01 -4.742108e-01
    outer loop
      vertex   -8.977225e+00 -3.738402e+00 5.596284e+00
      vertex   -9.000000e+00 -3.719656e+00 5.571220e+00
      vertex   -9.000000e+00 -3.662137e+00 5.613470e+00
    endloop
  endfacet
  facet normal 8.113649e-01 3.714002e-01 -4.513856e-01
    outer loop
      vertex   -9.000000e+00 -4.000000e+00 5.350688e+00
      vertex   -9.000000e+00 -3.944911e+00 5.396015e+00
      vertex   -8.995079e+00 -3.960807e+00 5.391782e+00
    endloop
  endfacet
  facet normal 8.083106e-01 3.718152e-01 -4.564947e-01
    outer loop
      vertex   -8.995079e+00 -3.960807e+00 5.391782e+00
      vertex   -9.000000e+00 -3.944911e+00 5.396015e+00
      vertex   -8.985440e+00 -3.956563e+00 5.412305e+00
    endloop
  endfacet
  facet normal 8.084107e-01 3.689915e-01 -4.586038e-01
    outer loop
      vertex   -9.000000e+00 -3.944911e+00 5.396015e+00
      vertex   -9.000000e+00 -3.889329e+00 5.440737e+00
      vertex   -8.985440e+00 -3.956563e+00 5.412305e+00
    endloop
  endfacet
  facet normal 8.101757e-01 3.624345e-01 -4.607131e-01
    outer loop
      vertex   -9.000000e+00 -3.889329e+00 5.440737e+00
      vertex   -9.000000e+00 -3.833256e+00 5.484848e+00
      vertex   -8.993477e+00 -3.887935e+00 5.453304e+00
    endloop
  endfacet
  facet normal 8.110983e-01 3.565706e-01 -4.636561e-01
    outer loop
      vertex   -9.000000e+00 -3.833256e+00 5.484848e+00
      vertex   -9.000000e+00 -3.776697e+00 5.528344e+00
      vertex   -8.990886e+00 -3.815195e+00 5.514681e+00
    endloop
  endfacet
  facet normal 8.104252e-01 3.362889e-01 -4.797091e-01
    outer loop
      vertex   -9.000000e+00 -3.604144e+00 5.655090e+00
      vertex   -9.000000e+00 -3.545681e+00 5.696074e+00
      vertex   -8.987538e+00 -3.602048e+00 5.677613e+00
    endloop
  endfacet
  facet normal 8.096988e-01 3.206635e-01 -4.914903e-01
    outer loop
      vertex   -9.000000e+00 -3.427366e+00 5.776112e+00
      vertex   -9.000000e+00 -3.367555e+00 5.815134e+00
      vertex   -8.976213e+00 -3.390411e+00 5.839410e+00
    endloop
  endfacet
  facet normal 8.032367e-01 3.270951e-01 -4.978148e-01
    outer loop
      vertex   -8.885343e+00 -3.492289e+00 5.919860e+00
      vertex   -8.928324e+00 -3.509182e+00 5.839410e+00
      vertex   -8.909394e+00 -3.433227e+00 5.919860e+00
    endloop
  endfacet
  facet normal 8.068925e-01 3.285839e-01 -4.908738e-01
    outer loop
      vertex   -8.994954e+00 -3.466197e+00 5.758658e+00
      vertex   -8.952491e+00 -3.449834e+00 5.839410e+00
      vertex   -8.970671e+00 -3.525827e+00 5.758658e+00
    endloop
  endfacet
  facet normal 7.986829e-01 3.381826e-01 -4.977331e-01
    outer loop
      vertex   -8.903710e+00 -3.568451e+00 5.839410e+00
      vertex   -8.860847e+00 -3.551272e+00 5.919860e+00
      vertex   -8.878650e+00 -3.627635e+00 5.839410e+00
    endloop
  endfacet
  facet normal 7.986829e-01 3.381826e-01 -4.977331e-01
    outer loop
      vertex   -8.878650e+00 -3.627635e+00 5.839410e+00
      vertex   -8.860847e+00 -3.551272e+00 5.919860e+00
      vertex   -8.835908e+00 -3.610172e+00 5.919860e+00
    endloop
  endfacet
  facet normal 7.963449e-01 3.437124e-01 -4.976913e-01
    outer loop
      vertex   -8.878650e+00 -3.627635e+00 5.839410e+00
      vertex   -8.835908e+00 -3.610172e+00 5.919860e+00
      vertex   -8.853143e+00 -3.686730e+00 5.839410e+00
    endloop
  endfacet
  facet normal 7.963449e-01 3.437124e-01 -4.976913e-01
    outer loop
      vertex   -8.853143e+00 -3.686730e+00 5.839410e+00
      vertex   -8.835908e+00 -3.610172e+00 5.919860e+00
      vertex   -8.810524e+00 -3.668983e+00 5.919860e+00
    endloop
  endfacet
  facet normal 7.939663e-01 3.492322e-01 -4.976489e-01
    outer loop
      vertex   -8.853143e+00 -3.686730e+00 5.839410e+00
      vertex   -8.810524e+00 -3.668983e+00 5.919860e+00
      vertex   -8.827191e+00 -3.745732e+00 5.839410e+00
    endloop
  endfacet
  facet normal 8.023167e-01 3.397213e-01 -4.907925e-01
    outer loop
      vertex   -8.945941e+00 -3.585376e+00 5.758658e+00
      vertex   -8.903710e+00 -3.568451e+00 5.839410e+00
      vertex   -8.920762e+00 -3.644841e+00 5.758658e+00
    endloop
  endfacet
  facet normal 8.023167e-01 3.397213e-01 -4.907925e-01
    outer loop
      vertex   -8.920762e+00 -3.644841e+00 5.758658e+00
      vertex   -8.903710e+00 -3.568451e+00 5.839410e+00
      vertex   -8.878650e+00 -3.627635e+00 5.839410e+00
    endloop
  endfacet
  facet normal 7.999675e-01 3.452760e-01 -4.907509e-01
    outer loop
      vertex   -8.920762e+00 -3.644841e+00 5.758658e+00
      vertex   -8.878650e+00 -3.627635e+00 5.839410e+00
      vertex   -8.895134e+00 -3.704217e+00 5.758658e+00
    endloop
  endfacet
  facet normal 7.999675e-01 3.452760e-01 -4.907509e-01
    outer loop
      vertex   -8.895134e+00 -3.704217e+00 5.758658e+00
      vertex   -8.878650e+00 -3.627635e+00 5.839410e+00
      vertex   -8.853143e+00 -3.686730e+00 5.839410e+00
    endloop
  endfacet
  facet normal 7.975775e-01 3.508206e-01 -4.907088e-01
    outer loop
      vertex   -8.895134e+00 -3.704217e+00 5.758658e+00
      vertex   -8.853143e+00 -3.686730e+00 5.839410e+00
      vertex   -8.869059e+00 -3.763499e+00 5.758658e+00
    endloop
  endfacet
  facet normal 7.975775e-01 3.508206e-01 -4.907088e-01
    outer loop
      vertex   -8.869059e+00 -3.763499e+00 5.758658e+00
      vertex   -8.853143e+00 -3.686730e+00 5.839410e+00
      vertex   -8.827191e+00 -3.745732e+00 5.839410e+00
    endloop
  endfacet
  facet normal 7.951466e-01 3.563548e-01 -4.906660e-01
    outer loop
      vertex   -8.869059e+00 -3.763499e+00 5.758658e+00
      vertex   -8.827191e+00 -3.745732e+00 5.839410e+00
      vertex   -8.842535e+00 -3.822682e+00 5.758658e+00
    endloop
  endfacet
  facet normal 8.035338e-01 3.468152e-01 -4.837900e-01
    outer loop
      vertex   -8.936496e+00 -3.721441e+00 5.677613e+00
      vertex   -8.962242e+00 -3.661789e+00 5.677613e+00
      vertex   -8.920762e+00 -3.644841e+00 5.758658e+00
    endloop
  endfacet
  facet normal 8.058941e-01 3.412360e-01 -4.838313e-01
    outer loop
      vertex   -8.920762e+00 -3.644841e+00 5.758658e+00
      vertex   -8.962242e+00 -3.661789e+00 5.677613e+00
      vertex   -8.945941e+00 -3.585376e+00 5.758658e+00
    endloop
  endfacet
  facet normal 8.035338e-01 3.468152e-01 -4.837900e-01
    outer loop
      vertex   -8.936496e+00 -3.721441e+00 5.677613e+00
      vertex   -8.920762e+00 -3.644841e+00 5.758658e+00
      vertex   -8.895134e+00 -3.704217e+00 5.758658e+00
    endloop
  endfacet
  facet normal 8.011324e-01 3.523843e-01 -4.837480e-01
    outer loop
      vertex   -8.936496e+00 -3.721441e+00 5.677613e+00
      vertex   -8.895134e+00 -3.704217e+00 5.758658e+00
      vertex   -8.910299e+00 -3.780998e+00 5.677613e+00
    endloop
  endfacet
  facet normal 8.011324e-01 3.523843e-01 -4.837480e-01
    outer loop
      vertex   -8.910299e+00 -3.780998e+00 5.677613e+00
      vertex   -8.895134e+00 -3.704217e+00 5.758658e+00
      vertex   -8.869059e+00 -3.763499e+00 5.758658e+00
    endloop
  endfacet
  facet normal 7.986901e-01 3.579429e-01 -4.837055e-01
    outer loop
      vertex   -8.910299e+00 -3.780998e+00 5.677613e+00
      vertex   -8.869059e+00 -3.763499e+00 5.758658e+00
      vertex   -8.883652e+00 -3.840456e+00 5.677613e+00
    endloop
  endfacet
  facet normal 7.986901e-01 3.579429e-01 -4.837055e-01
    outer loop
      vertex   -8.883652e+00 -3.840456e+00 5.677613e+00
      vertex   -8.869059e+00 -3.763499e+00 5.758658e+00
      vertex   -8.842535e+00 -3.822682e+00 5.758658e+00
    endloop
  endfacet
  facet normal 7.962068e-01 3.634906e-01 -4.836624e-01
    outer loop
      vertex   -8.883652e+00 -3.840456e+00 5.677613e+00
      vertex   -8.842535e+00 -3.822682e+00 5.758658e+00
      vertex   -8.856555e+00 -3.899811e+00 5.677613e+00
    endloop
  endfacet
  facet normal 8.046311e-01 3.539232e-01 -4.767674e-01
    outer loop
      vertex   -8.936496e+00 -3.721441e+00 5.677613e+00
      vertex   -8.910299e+00 -3.780998e+00 5.677613e+00
      vertex   -8.950909e+00 -3.798231e+00 5.596284e+00
    endloop
  endfacet
  facet normal 8.021775e-01 3.595058e-01 -4.767252e-01
    outer loop
      vertex   -8.950909e+00 -3.798231e+00 5.596284e+00
      vertex   -8.910299e+00 -3.780998e+00 5.677613e+00
      vertex   -8.924140e+00 -3.857960e+00 5.596284e+00
    endloop
  endfacet
  facet normal 8.047565e-01 3.606616e-01 -4.714766e-01
    outer loop
      vertex   -8.950909e+00 -3.798231e+00 5.596284e+00
      vertex   -8.924140e+00 -3.857960e+00 5.596284e+00
      vertex   -8.944148e+00 -3.866609e+00 5.555516e+00
    endloop
  endfacet
  facet normal 8.022533e-01 3.662509e-01 -4.714340e-01
    outer loop
      vertex   -8.944148e+00 -3.866609e+00 5.555516e+00
      vertex   -8.924140e+00 -3.857960e+00 5.596284e+00
      vertex   -8.916867e+00 -3.926368e+00 5.555516e+00
    endloop
  endfacet
  facet normal 8.039492e-01 3.670252e-01 -4.679297e-01
    outer loop
      vertex   -8.944148e+00 -3.866609e+00 5.555516e+00
      vertex   -8.916867e+00 -3.926368e+00 5.555516e+00
      vertex   -8.936656e+00 -3.935082e+00 5.514681e+00
    endloop
  endfacet
  facet normal 8.013991e-01 3.726146e-01 -4.678867e-01
    outer loop
      vertex   -8.936656e+00 -3.935082e+00 5.514681e+00
      vertex   -8.916867e+00 -3.926368e+00 5.555516e+00
      vertex   -8.908861e+00 -3.994863e+00 5.514681e+00
    endloop
  endfacet
  facet normal 8.021775e-01 3.595058e-01 -4.767252e-01
    outer loop
      vertex   -8.924140e+00 -3.857960e+00 5.596284e+00
      vertex   -8.910299e+00 -3.780998e+00 5.677613e+00
      vertex   -8.883652e+00 -3.840456e+00 5.677613e+00
    endloop
  endfacet
  facet normal 8.072184e-01 3.550613e-01 -4.715187e-01
    outer loop
      vertex   -8.997352e+00 -3.746783e+00 5.555516e+00
      vertex   -8.977225e+00 -3.738402e+00 5.596284e+00
      vertex   -8.970977e+00 -3.806746e+00 5.555516e+00
    endloop
  endfacet
  facet normal 7.865869e-01 3.657276e-01 -4.975182e-01
    outer loop
      vertex   -8.746659e+00 -3.922130e+00 5.839410e+00
      vertex   -8.773948e+00 -3.863436e+00 5.839410e+00
      vertex   -8.731711e+00 -3.844838e+00 5.919860e+00
    endloop
  endfacet
  facet normal 7.890872e-01 3.602403e-01 -4.975624e-01
    outer loop
      vertex   -8.731711e+00 -3.844838e+00 5.919860e+00
      vertex   -8.773948e+00 -3.863436e+00 5.839410e+00
      vertex   -8.758426e+00 -3.786320e+00 5.919860e+00
    endloop
  endfacet
  facet normal 7.996827e-01 3.650774e-01 -4.766823e-01
    outer loop
      vertex   -8.924140e+00 -3.857960e+00 5.596284e+00
      vertex   -8.883652e+00 -3.840456e+00 5.677613e+00
      vertex   -8.896920e+00 -3.917585e+00 5.596284e+00
    endloop
  endfacet
  facet normal 7.996827e-01 3.650774e-01 -4.766823e-01
    outer loop
      vertex   -8.896920e+00 -3.917585e+00 5.596284e+00
      vertex   -8.883652e+00 -3.840456e+00 5.677613e+00
      vertex   -8.856555e+00 -3.899811e+00 5.677613e+00
    endloop
  endfacet
  facet normal 7.971469e-01 3.706375e-01 -4.766389e-01
    outer loop
      vertex   -8.896920e+00 -3.917585e+00 5.596284e+00
      vertex   -8.856555e+00 -3.899811e+00 5.677613e+00
      vertex   -8.869248e+00 -3.977100e+00 5.596284e+00
    endloop
  endfacet
  facet normal 8.022533e-01 3.662509e-01 -4.714340e-01
    outer loop
      vertex   -8.924140e+00 -3.857960e+00 5.596284e+00
      vertex   -8.896920e+00 -3.917585e+00 5.596284e+00
      vertex   -8.916867e+00 -3.926368e+00 5.555516e+00
    endloop
  endfacet
  facet normal 7.997088e-01 3.718287e-01 -4.713907e-01
    outer loop
      vertex   -8.916867e+00 -3.926368e+00 5.555516e+00
      vertex   -8.896920e+00 -3.917585e+00 5.596284e+00
      vertex   -8.889133e+00 -3.986017e+00 5.555516e+00
    endloop
  endfacet
  facet normal 8.013991e-01 3.726146e-01 -4.678867e-01
    outer loop
      vertex   -8.916867e+00 -3.926368e+00 5.555516e+00
      vertex   -8.889133e+00 -3.986017e+00 5.555516e+00
      vertex   -8.908861e+00 -3.994863e+00 5.514681e+00
    endloop
  endfacet
  facet normal 7.997088e-01 3.718287e-01 -4.713907e-01
    outer loop
      vertex   -8.889133e+00 -3.986017e+00 5.555516e+00
      vertex   -8.896920e+00 -3.917585e+00 5.596284e+00
      vertex   -8.869248e+00 -3.977100e+00 5.596284e+00
    endloop
  endfacet
  facet normal 8.056311e-01 3.677930e-01 -4.644210e-01
    outer loop
      vertex   -8.983690e+00 -3.883704e+00 5.473780e+00
      vertex   -8.963998e+00 -3.875191e+00 5.514681e+00
      vertex   -8.956288e+00 -3.943726e+00 5.473780e+00
    endloop
  endfacet
  facet normal 8.068834e-01 3.683647e-01 -4.617864e-01
    outer loop
      vertex   -8.983690e+00 -3.883704e+00 5.473780e+00
      vertex   -8.956288e+00 -3.943726e+00 5.473780e+00
      vertex   -8.966045e+00 -3.948023e+00 5.453304e+00
    endloop
  endfacet
  facet normal 8.042380e-01 3.741600e-01 -4.617418e-01
    outer loop
      vertex   -8.966045e+00 -3.948023e+00 5.453304e+00
      vertex   -8.956288e+00 -3.943726e+00 5.473780e+00
      vertex   -8.953323e+00 -4.000000e+00 5.433344e+00
    endloop
  endfacet
  facet normal 8.054186e-01 3.737767e-01 -4.599912e-01
    outer loop
      vertex   -8.966045e+00 -3.948023e+00 5.453304e+00
      vertex   -8.953323e+00 -4.000000e+00 5.433344e+00
      vertex   -8.975763e+00 -3.952301e+00 5.432813e+00
    endloop
  endfacet
  facet normal 7.840413e-01 3.712135e-01 -4.974734e-01
    outer loop
      vertex   -8.704552e+00 -3.903248e+00 5.919860e+00
      vertex   -8.676846e+00 -3.961767e+00 5.919860e+00
      vertex   -8.746659e+00 -3.922130e+00 5.839410e+00
    endloop
  endfacet
  facet normal 7.840400e-01 3.712256e-01 -4.974664e-01
    outer loop
      vertex   -8.746659e+00 -3.922130e+00 5.839410e+00
      vertex   -8.676846e+00 -3.961767e+00 5.919860e+00
      vertex   -8.718713e+00 -3.981153e+00 5.839410e+00
    endloop
  endfacet
  facet normal 7.865869e-01 3.657276e-01 -4.975182e-01
    outer loop
      vertex   -8.731711e+00 -3.844838e+00 5.919860e+00
      vertex   -8.704552e+00 -3.903248e+00 5.919860e+00
      vertex   -8.746659e+00 -3.922130e+00 5.839410e+00
    endloop
  endfacet
  facet normal -1.000000e+00 4.795571e-15 -6.158291e-15
    outer loop
      vertex   -9.000000e+00 -3.939516e+00 5.690004e+00
      vertex   -9.000000e+00 -3.776697e+00 5.528344e+00
      vertex   -9.000000e+00 -4.000000e+00 5.642904e+00
    endloop
  endfacet
  facet normal -1.000000e+00 1.733947e-14 1.829259e-14
    outer loop
      vertex   -9.000000e+00 -4.000000e+00 5.642904e+00
      vertex   -9.000000e+00 -3.776697e+00 5.528344e+00
      vertex   -9.000000e+00 -3.833256e+00 5.484848e+00
    endloop
  endfacet
  facet normal -1.000000e+00 0.000000e+00 0.000000e+00
    outer loop
      vertex   -9.000000e+00 -4.000000e+00 5.642904e+00
      vertex   -9.000000e+00 -3.833256e+00 5.484848e+00
      vertex   -9.000000e+00 -3.889329e+00 5.440737e+00
    endloop
  endfacet
  facet normal -1.000000e+00 4.700756e-15 -6.253786e-15
    outer loop
      vertex   -9.000000e+00 -3.776697e+00 5.528344e+00
      vertex   -9.000000e+00 -3.939516e+00 5.690004e+00
      vertex   -9.000000e+00 -3.719656e+00 5.571220e+00
    endloop
  endfacet
  facet normal -1.000000e+00 4.723770e-15 -6.211190e-15
    outer loop
      vertex   -9.000000e+00 -3.719656e+00 5.571220e+00
      vertex   -9.000000e+00 -3.939516e+00 5.690004e+00
      vertex   -9.000000e+00 -3.878495e+00 5.736412e+00
    endloop
  endfacet
  facet normal -1.000000e+00 -1.347021e-14 -2.370541e-14
    outer loop
      vertex   -9.000000e+00 -3.719656e+00 5.571220e+00
      vertex   -9.000000e+00 -3.878495e+00 5.736412e+00
      vertex   -9.000000e+00 -3.662137e+00 5.613470e+00
    endloop
  endfacet
  facet normal -1.000000e+00 -1.250995e-14 -2.201550e-14
    outer loop
      vertex   -9.000000e+00 -3.662137e+00 5.613470e+00
      vertex   -9.000000e+00 -3.878495e+00 5.736412e+00
      vertex   -9.000000e+00 -3.816942e+00 5.782122e+00
    endloop
  endfacet
  facet normal -1.000000e+00 4.557043e-15 -6.349793e-15
    outer loop
      vertex   -9.000000e+00 -3.662137e+00 5.613470e+00
      vertex   -9.000000e+00 -3.816942e+00 5.782122e+00
      vertex   -9.000000e+00 -3.604144e+00 5.655090e+00
    endloop
  endfacet
  facet normal -1.000000e+00 1.749948e-14 1.533077e-14
    outer loop
      vertex   -9.000000e+00 -3.604144e+00 5.655090e+00
      vertex   -9.000000e+00 -3.816942e+00 5.782122e+00
      vertex   -9.000000e+00 -3.754862e+00 5.827129e+00
    endloop
  endfacet
  facet normal -1.000000e+00 0.000000e+00 0.000000e+00
    outer loop
      vertex   -9.000000e+00 -3.604144e+00 5.655090e+00
      vertex   -9.000000e+00 -3.754862e+00 5.827129e+00
      vertex   -9.000000e+00 -3.545681e+00 5.696074e+00
    endloop
  endfacet
  facet normal -1.000000e+00 0.000000e+00 0.000000e+00
    outer loop
      vertex   -9.000000e+00 -3.545681e+00 5.696074e+00
      vertex   -9.000000e+00 -3.754862e+00 5.827129e+00
      vertex   -9.000000e+00 -3.692259e+00 5.871426e+00
    endloop
  endfacet
  facet normal -1.000000e+00 1.917205e-14 1.602616e-14
    outer loop
      vertex   -9.000000e+00 -3.545681e+00 5.696074e+00
      vertex   -9.000000e+00 -3.692259e+00 5.871426e+00
      vertex   -9.000000e+00 -3.486751e+00 5.736418e+00
    endloop
  endfacet
  facet normal -1.000000e+00 4.429367e-15 -6.415096e-15
    outer loop
      vertex   -9.000000e+00 -3.486751e+00 5.736418e+00
      vertex   -9.000000e+00 -3.692259e+00 5.871426e+00
      vertex   -9.000000e+00 -3.629139e+00 5.915008e+00
    endloop
  endfacet
  facet normal -1.000000e+00 -1.517629e-14 -2.204648e-14
    outer loop
      vertex   -9.000000e+00 -3.486751e+00 5.736418e+00
      vertex   -9.000000e+00 -3.629139e+00 5.915008e+00
      vertex   -9.000000e+00 -3.427366e+00 5.776112e+00
    endloop
  endfacet
  facet normal -1.000000e+00 -1.410955e-14 -2.049684e-14
    outer loop
      vertex   -9.000000e+00 -3.427366e+00 5.776112e+00
      vertex   -9.000000e+00 -3.629139e+00 5.915008e+00
      vertex   -9.000000e+00 -3.565505e+00 5.957869e+00
    endloop
  endfacet
  facet normal -1.000000e+00 -1.559191e-14 -2.162346e-14
    outer loop
      vertex   -9.000000e+00 -3.427366e+00 5.776112e+00
      vertex   -9.000000e+00 -3.565505e+00 5.957869e+00
      vertex   -9.000000e+00 -3.367555e+00 5.815134e+00
    endloop
  endfacet
  facet normal -1.000000e+00 1.449325e-14 2.009981e-14
    outer loop
      vertex   -9.000000e+00 -3.367555e+00 5.815134e+00
      vertex   -9.000000e+00 -3.565505e+00 5.957869e+00
      vertex   -9.000000e+00 -3.501370e+00 6.000000e+00
    endloop
  endfacet
  facet normal -1.000000e+00 1.600184e-14 2.119179e-14
    outer loop
      vertex   -9.000000e+00 -3.367555e+00 5.815134e+00
      vertex   -9.000000e+00 -3.501370e+00 6.000000e+00
      vertex   -9.000000e+00 -3.307327e+00 5.853479e+00
    endloop
  endfacet
  facet normal -1.000000e+00 -1.607279e-14 -2.128575e-14
    outer loop
      vertex   -9.000000e+00 -3.307327e+00 5.853479e+00
      vertex   -9.000000e+00 -3.501370e+00 6.000000e+00
      vertex   -9.000000e+00 -3.246686e+00 5.891142e+00
    endloop
  endfacet
  facet normal -1.000000e+00 7.948985e-15 3.491558e-14
    outer loop
      vertex   -9.000000e+00 -3.246686e+00 5.891142e+00
      vertex   -9.000000e+00 -3.501370e+00 6.000000e+00
      vertex   -9.000000e+00 -3.185637e+00 5.928119e+00
    endloop
  endfacet
  facet normal -1.000000e+00 0.000000e+00 0.000000e+00
    outer loop
      vertex   -9.000000e+00 -3.185637e+00 5.928119e+00
      vertex   -9.000000e+00 -3.501370e+00 6.000000e+00
      vertex   -9.000000e+00 -3.124186e+00 5.964407e+00
    endloop
  endfacet
  facet normal -1.000000e+00 0.000000e+00 0.000000e+00
    outer loop
      vertex   -9.000000e+00 -3.124186e+00 5.964407e+00
      vertex   -9.000000e+00 -3.501370e+00 6.000000e+00
      vertex   -9.000000e+00 -3.062337e+00 6.000000e+00
    endloop
  endfacet
  facet normal -1.000000e+00 -0.000000e+00 0.000000e+00
    outer loop
      vertex   -9.000000e+00 -3.889329e+00 5.440737e+00
      vertex   -9.000000e+00 -3.944911e+00 5.396015e+00
      vertex   -9.000000e+00 -4.000000e+00 5.642904e+00
    endloop
  endfacet
  facet normal -1.000000e+00 0.000000e+00 0.000000e+00
    outer loop
      vertex   -9.000000e+00 -4.000000e+00 5.642904e+00
      vertex   -9.000000e+00 -3.944911e+00 5.396015e+00
      vertex   -9.000000e+00 -4.000000e+00 5.350688e+00
    endloop
  endfacet
  facet normal 0.000000e+00 -0.000000e+00 1.000000e+00
    outer loop
      vertex   -8.974097e+00 -3.564378e+00 6.000000e+00
      vertex   -8.911374e+00 -3.300762e+00 6.000000e+00
      vertex   -9.000000e+00 -3.501370e+00 6.000000e+00
    endloop
  endfacet
  facet normal 0.000000e+00 0.000000e+00 1.000000e+00
    outer loop
      vertex   -9.000000e+00 -3.501370e+00 6.000000e+00
      vertex   -8.911374e+00 -3.300762e+00 6.000000e+00
      vertex   -8.956509e+00 -3.181865e+00 6.000000e+00
    endloop
  endfacet
  facet normal 0.000000e+00 0.000000e+00 1.000000e+00
    outer loop
      vertex   -9.000000e+00 -3.501370e+00 6.000000e+00
      vertex   -8.956509e+00 -3.181865e+00 6.000000e+00
      vertex   -9.000000e+00 -3.062337e+00 6.000000e+00
    endloop
  endfacet
  facet normal 0.000000e+00 0.000000e+00 1.000000e+00
    outer loop
      vertex   -8.911374e+00 -3.300762e+00 6.000000e+00
      vertex   -8.974097e+00 -3.564378e+00 6.000000e+00
      vertex   -8.864601e+00 -3.419012e+00 6.000000e+00
    endloop
  endfacet
  facet normal 0.000000e+00 0.000000e+00 1.000000e+00
    outer loop
      vertex   -8.864601e+00 -3.419012e+00 6.000000e+00
      vertex   -8.974097e+00 -3.564378e+00 6.000000e+00
      vertex   -8.947736e+00 -3.627198e+00 6.000000e+00
    endloop
  endfacet
  facet normal 0.000000e+00 0.000000e+00 1.000000e+00
    outer loop
      vertex   -8.864601e+00 -3.419012e+00 6.000000e+00
      vertex   -8.947736e+00 -3.627198e+00 6.000000e+00
      vertex   -8.920917e+00 -3.689825e+00 6.000000e+00
    endloop
  endfacet
  facet normal 0.000000e+00 0.000000e+00 1.000000e+00
    outer loop
      vertex   -8.864601e+00 -3.419012e+00 6.000000e+00
      vertex   -8.920917e+00 -3.689825e+00 6.000000e+00
      vertex   -8.816199e+00 -3.536599e+00 6.000000e+00
    endloop
  endfacet
  facet normal 0.000000e+00 0.000000e+00 1.000000e+00
    outer loop
      vertex   -8.816199e+00 -3.536599e+00 6.000000e+00
      vertex   -8.920917e+00 -3.689825e+00 6.000000e+00
      vertex   -8.893642e+00 -3.752258e+00 6.000000e+00
    endloop
  endfacet
  facet normal 0.000000e+00 0.000000e+00 1.000000e+00
    outer loop
      vertex   -8.816199e+00 -3.536599e+00 6.000000e+00
      vertex   -8.893642e+00 -3.752258e+00 6.000000e+00
      vertex   -8.865912e+00 -3.814494e+00 6.000000e+00
    endloop
  endfacet
  facet normal 0.000000e+00 0.000000e+00 1.000000e+00
    outer loop
      vertex   -8.816199e+00 -3.536599e+00 6.000000e+00
      vertex   -8.865912e+00 -3.814494e+00 6.000000e+00
      vertex   -8.766176e+00 -3.653507e+00 6.000000e+00
    endloop
  endfacet
  facet normal 0.000000e+00 0.000000e+00 1.000000e+00
    outer loop
      vertex   -8.766176e+00 -3.653507e+00 6.000000e+00
      vertex   -8.865912e+00 -3.814494e+00 6.000000e+00
      vertex   -8.837728e+00 -3.876532e+00 6.000000e+00
    endloop
  endfacet
  facet normal 0.000000e+00 0.000000e+00 1.000000e+00
    outer loop
      vertex   -8.766176e+00 -3.653507e+00 6.000000e+00
      vertex   -8.837728e+00 -3.876532e+00 6.000000e+00
      vertex   -8.809090e+00 -3.938368e+00 6.000000e+00
    endloop
  endfacet
  facet normal 0.000000e+00 0.000000e+00 1.000000e+00
    outer loop
      vertex   -8.766176e+00 -3.653507e+00 6.000000e+00
      vertex   -8.809090e+00 -3.938368e+00 6.000000e+00
      vertex   -8.714539e+00 -3.769720e+00 6.000000e+00
    endloop
  endfacet
  facet normal 0.000000e+00 0.000000e+00 1.000000e+00
    outer loop
      vertex   -8.714539e+00 -3.769720e+00 6.000000e+00
      vertex   -8.809090e+00 -3.938368e+00 6.000000e+00
      vertex   -8.780001e+00 -4.000000e+00 6.000000e+00
    endloop
  endfacet
  facet normal 0.000000e+00 0.000000e+00 1.000000e+00
    outer loop
      vertex   -8.714539e+00 -3.769720e+00 6.000000e+00
      vertex   -8.780001e+00 -4.000000e+00 6.000000e+00
      vertex   -8.661297e+00 -3.885223e+00 6.000000e+00
    endloop
  endfacet
  facet normal 0.000000e+00 0.000000e+00 1.000000e+00
    outer loop
      vertex   -8.661297e+00 -3.885223e+00 6.000000e+00
      vertex   -8.780001e+00 -4.000000e+00 6.000000e+00
      vertex   -8.606456e+00 -4.000000e+00 6.000000e+00
    endloop
  endfacet
  facet normal 0.000000e+00 -1.000000e+00 0.000000e+00
    outer loop
      vertex   -8.836290e+00 -4.000000e+00 5.911517e+00
      vertex   -8.709132e+00 -4.000000e+00 5.840282e+00
      vertex   -8.780001e+00 -4.000000e+00 6.000000e+00
    endloop
  endfacet
  facet normal -2.053184e-14 -1.000000e+00 -9.110330e-15
    outer loop
      vertex   -8.780001e+00 -4.000000e+00 6.000000e+00
      vertex   -8.709132e+00 -4.000000e+00 5.840282e+00
      vertex   -8.658149e+00 -4.000000e+00 5.920365e+00
    endloop
  endfacet
  facet normal 0.000000e+00 -1.000000e+00 2.230612e-14
    outer loop
      vertex   -8.780001e+00 -4.000000e+00 6.000000e+00
      vertex   -8.658149e+00 -4.000000e+00 5.920365e+00
      vertex   -8.606456e+00 -4.000000e+00 6.000000e+00
    endloop
  endfacet
  facet normal -0.000000e+00 -1.000000e+00 0.000000e+00
    outer loop
      vertex   -8.709132e+00 -4.000000e+00 5.840282e+00
      vertex   -8.836290e+00 -4.000000e+00 5.911517e+00
      vertex   -8.759403e+00 -4.000000e+00 5.759758e+00
    endloop
  endfacet
  facet normal 0.000000e+00 -1.000000e+00 0.000000e+00
    outer loop
      vertex   -8.759403e+00 -4.000000e+00 5.759758e+00
      vertex   -8.836290e+00 -4.000000e+00 5.911517e+00
      vertex   -8.891721e+00 -4.000000e+00 5.822502e+00
    endloop
  endfacet
  facet normal -0.000000e+00 -1.000000e+00 0.000000e+00
    outer loop
      vertex   -8.759403e+00 -4.000000e+00 5.759758e+00
      vertex   -8.891721e+00 -4.000000e+00 5.822502e+00
      vertex   -8.808960e+00 -4.000000e+00 5.678796e+00
    endloop
  endfacet
  facet normal -0.000000e+00 -1.000000e+00 0.000000e+00
    outer loop
      vertex   -8.808960e+00 -4.000000e+00 5.678796e+00
      vertex   -8.891721e+00 -4.000000e+00 5.822502e+00
      vertex   -8.857801e+00 -4.000000e+00 5.597404e+00
    endloop
  endfacet
  facet normal 0.000000e+00 -1.000000e+00 0.000000e+00
    outer loop
      vertex   -8.857801e+00 -4.000000e+00 5.597404e+00
      vertex   -8.891721e+00 -4.000000e+00 5.822502e+00
      vertex   -8.946292e+00 -4.000000e+00 5.732962e+00
    endloop
  endfacet
  facet normal -0.000000e+00 -1.000000e+00 0.000000e+00
    outer loop
      vertex   -8.857801e+00 -4.000000e+00 5.597404e+00
      vertex   -8.946292e+00 -4.000000e+00 5.732962e+00
      vertex   -8.905923e+00 -4.000000e+00 5.515584e+00
    endloop
  endfacet
  facet normal 0.000000e+00 -1.000000e+00 0.000000e+00
    outer loop
      vertex   -8.905923e+00 -4.000000e+00 5.515584e+00
      vertex   -8.946292e+00 -4.000000e+00 5.732962e+00
      vertex   -9.000000e+00 -4.000000e+00 5.642904e+00
    endloop
  endfacet
  facet normal -0.000000e+00 -1.000000e+00 0.000000e+00
    outer loop
      vertex   -8.905923e+00 -4.000000e+00 5.515584e+00
      vertex   -9.000000e+00 -4.000000e+00 5.642904e+00
      vertex   -8.953323e+00 -4.000000e+00 5.433344e+00
    endloop
  endfacet
  facet normal -0.000000e+00 -1.000000e+00 0.000000e+00
    outer loop
      vertex   -8.953323e+00 -4.000000e+00 5.433344e+00
      vertex   -9.000000e+00 -4.000000e+00 5.642904e+00
      vertex   -9.000000e+00 -4.000000e+00 5.350688e+00
    endloop
  endfacet
endsolid
