solid ASCII
  facet normal -7.136000e-01 3.760571e-01 -5.910636e-01
    outer loop
      vertex   7.932634e+00 -4.000000e+00 6.917663e+00
      vertex   7.864436e+00 -4.000000e+00 7.000000e+00
      vertex   7.935827e+00 -3.994077e+00 6.917576e+00
    endloop
  endfacet
  facet normal -7.136604e-01 3.758349e-01 -5.911319e-01
    outer loop
      vertex   7.935827e+00 -3.994077e+00 6.917576e+00
      vertex   7.864436e+00 -4.000000e+00 7.000000e+00
      vertex   7.899197e+00 -3.933994e+00 7.000000e+00
    endloop
  endfacet
  facet normal -7.148038e-01 3.744489e-01 -5.906297e-01
    outer loop
      vertex   7.935827e+00 -3.994077e+00 6.917576e+00
      vertex   7.899197e+00 -3.933994e+00 7.000000e+00
      vertex   7.953250e+00 -3.960818e+00 6.917576e+00
    endloop
  endfacet
  facet normal -7.164031e-01 3.713277e-01 -5.906627e-01
    outer loop
      vertex   7.953250e+00 -3.960818e+00 6.917576e+00
      vertex   7.899197e+00 -3.933994e+00 7.000000e+00
      vertex   7.970584e+00 -3.927375e+00 6.917576e+00
    endloop
  endfacet
  facet normal -7.200098e-01 3.731971e-01 -5.850724e-01
    outer loop
      vertex   7.953250e+00 -3.960818e+00 6.917576e+00
      vertex   7.970584e+00 -3.927375e+00 6.917576e+00
      vertex   8.000000e+00 -3.934195e+00 6.877026e+00
    endloop
  endfacet
  facet normal -7.213527e-01 3.699249e-01 -5.854962e-01
    outer loop
      vertex   8.000000e+00 -3.934195e+00 6.877026e+00
      vertex   7.970584e+00 -3.927375e+00 6.917576e+00
      vertex   7.987707e+00 -3.893986e+00 6.917576e+00
    endloop
  endfacet
  facet normal -7.238985e-01 3.675096e-01 -5.838730e-01
    outer loop
      vertex   8.000000e+00 -3.934195e+00 6.877026e+00
      vertex   7.987707e+00 -3.893986e+00 6.917576e+00
      vertex   8.000000e+00 -3.867965e+00 6.918714e+00
    endloop
  endfacet
  facet normal -7.192825e-01 3.656281e-01 -5.907189e-01
    outer loop
      vertex   8.000000e+00 -3.867965e+00 6.918714e+00
      vertex   7.987707e+00 -3.893986e+00 6.917576e+00
      vertex   7.933379e+00 -3.867696e+00 7.000000e+00
    endloop
  endfacet
  facet normal -7.199794e-01 3.633382e-01 -5.912825e-01
    outer loop
      vertex   8.000000e+00 -3.867965e+00 6.918714e+00
      vertex   7.933379e+00 -3.867696e+00 7.000000e+00
      vertex   7.966981e+00 -3.801112e+00 7.000000e+00
    endloop
  endfacet
  facet normal -7.168558e-01 3.696059e-01 -5.911931e-01
    outer loop
      vertex   7.899197e+00 -3.933994e+00 7.000000e+00
      vertex   7.933379e+00 -3.867696e+00 7.000000e+00
      vertex   7.970584e+00 -3.927375e+00 6.917576e+00
    endloop
  endfacet
  facet normal -7.179925e-01 3.682018e-01 -5.906895e-01
    outer loop
      vertex   7.970584e+00 -3.927375e+00 6.917576e+00
      vertex   7.933379e+00 -3.867696e+00 7.000000e+00
      vertex   7.987707e+00 -3.893986e+00 6.917576e+00
    endloop
  endfacet
  facet normal -7.218012e-01 3.564254e-01 -5.932655e-01
    outer loop
      vertex   8.000000e+00 -3.734245e+00 7.000000e+00
      vertex   8.000000e+00 -3.801313e+00 6.959706e+00
      vertex   7.966981e+00 -3.801112e+00 7.000000e+00
    endloop
  endfacet
  facet normal -7.195870e-01 3.637814e-01 -5.914877e-01
    outer loop
      vertex   7.966981e+00 -3.801112e+00 7.000000e+00
      vertex   8.000000e+00 -3.801313e+00 6.959706e+00
      vertex   8.000000e+00 -3.867965e+00 6.918714e+00
    endloop
  endfacet
  facet normal -7.200264e-01 3.757329e-01 -5.834268e-01
    outer loop
      vertex   8.000000e+00 -3.934195e+00 6.877026e+00
      vertex   8.000000e+00 -4.000000e+00 6.834647e+00
      vertex   7.953250e+00 -3.960818e+00 6.917576e+00
    endloop
  endfacet
  facet normal -7.193455e-01 3.768281e-01 -5.835604e-01
    outer loop
      vertex   7.953250e+00 -3.960818e+00 6.917576e+00
      vertex   8.000000e+00 -4.000000e+00 6.834647e+00
      vertex   7.935827e+00 -3.994077e+00 6.917576e+00
    endloop
  endfacet
  facet normal -7.186114e-01 3.788759e-01 -5.831386e-01
    outer loop
      vertex   8.000000e+00 -4.000000e+00 6.834647e+00
      vertex   7.932634e+00 -4.000000e+00 6.917663e+00
      vertex   7.935827e+00 -3.994077e+00 6.917576e+00
    endloop
  endfacet
  facet normal 1.000000e+00 0.000000e+00 0.000000e+00
    outer loop
      vertex   8.000000e+00 -4.000000e+00 6.834647e+00
      vertex   8.000000e+00 -3.934195e+00 6.877026e+00
      vertex   8.000000e+00 -4.000000e+00 7.000000e+00
    endloop
  endfacet
  facet normal 1.000000e+00 0.000000e+00 0.000000e+00
    outer loop
      vertex   8.000000e+00 -4.000000e+00 7.000000e+00
      vertex   8.000000e+00 -3.934195e+00 6.877026e+00
      vertex   8.000000e+00 -3.867965e+00 6.918714e+00
    endloop
  endfacet
  facet normal 1.000000e+00 0.000000e+00 0.000000e+00
    outer loop
      vertex   8.000000e+00 -4.000000e+00 7.000000e+00
      vertex   8.000000e+00 -3.867965e+00 6.918714e+00
      vertex   8.000000e+00 -3.801313e+00 6.959706e+00
    endloop
  endfacet
  facet normal 1.000000e+00 0.000000e+00 -0.000000e+00
    outer loop
      vertex   8.000000e+00 -3.801313e+00 6.959706e+00
      vertex   8.000000e+00 -3.734245e+00 7.000000e+00
      vertex   8.000000e+00 -4.000000e+00 7.000000e+00
    endloop
  endfacet
  facet normal 0.000000e+00 0.000000e+00 1.000000e+00
    outer loop
      vertex   8.000000e+00 -3.734245e+00 7.000000e+00
      vertex   7.966981e+00 -3.801112e+00 7.000000e+00
      vertex   8.000000e+00 -4.000000e+00 7.000000e+00
    endloop
  endfacet
  facet normal 1.988933e-14 3.302015e-15 1.000000e+00
    outer loop
      vertex   8.000000e+00 -4.000000e+00 7.000000e+00
      vertex   7.966981e+00 -3.801112e+00 7.000000e+00
      vertex   7.933379e+00 -3.867696e+00 7.000000e+00
    endloop
  endfacet
  facet normal -6.558229e-15 -1.001556e-14 1.000000e+00
    outer loop
      vertex   8.000000e+00 -4.000000e+00 7.000000e+00
      vertex   7.933379e+00 -3.867696e+00 7.000000e+00
      vertex   7.899197e+00 -3.933994e+00 7.000000e+00
    endloop
  endfacet
  facet normal 0.000000e+00 0.000000e+00 1.000000e+00
    outer loop
      vertex   7.899197e+00 -3.933994e+00 7.000000e+00
      vertex   7.864436e+00 -4.000000e+00 7.000000e+00
      vertex   8.000000e+00 -4.000000e+00 7.000000e+00
    endloop
  endfacet
  facet normal 0.000000e+00 -1.000000e+00 0.000000e+00
    outer loop
      vertex   7.864436e+00 -4.000000e+00 7.000000e+00
      vertex   7.932634e+00 -4.000000e+00 6.917663e+00
      vertex   8.000000e+00 -4.000000e+00 7.000000e+00
    endloop
  endfacet
  facet normal 0.000000e+00 -1.000000e+00 -0.000000e+00
    outer loop
      vertex   8.000000e+00 -4.000000e+00 7.000000e+00
      vertex   7.932634e+00 -4.000000e+00 6.917663e+00
      vertex   8.000000e+00 -4.000000e+00 6.834647e+00
    endloop
  endfacet
endsolid
