solid ASCII
  facet normal -6.300119e-01 1.479166e-01 7.623685e-01
    outer loop
      vertex   -7.000000e+00 1.541154e+00 9.000000e+00
      vertex   -6.986432e+00 1.598941e+00 9.000000e+00
      vertex   -7.000000e+00 1.598828e+00 8.988810e+00
    endloop
  endfacet
  facet normal -6.295067e-01 1.534063e-01 7.617006e-01
    outer loop
      vertex   -7.000000e+00 1.598828e+00 8.988810e+00
      vertex   -6.986432e+00 1.598941e+00 9.000000e+00
      vertex   -7.000000e+00 1.656416e+00 8.977212e+00
    endloop
  endfacet
  facet normal -6.293377e-01 1.534945e-01 7.618225e-01
    outer loop
      vertex   -7.000000e+00 1.656416e+00 8.977212e+00
      vertex   -6.986432e+00 1.598941e+00 9.000000e+00
      vertex   -6.972367e+00 1.656611e+00 9.000000e+00
    endloop
  endfacet
  facet normal -6.288145e-01 1.589220e-01 7.611413e-01
    outer loop
      vertex   -7.000000e+00 1.656416e+00 8.977212e+00
      vertex   -6.972367e+00 1.656611e+00 9.000000e+00
      vertex   -7.000000e+00 1.713914e+00 8.965206e+00
    endloop
  endfacet
  facet normal -6.286376e-01 1.590764e-01 7.612552e-01
    outer loop
      vertex   -7.000000e+00 1.713914e+00 8.965206e+00
      vertex   -6.972367e+00 1.656611e+00 9.000000e+00
      vertex   -6.957804e+00 1.714161e+00 9.000000e+00
    endloop
  endfacet
  facet normal -6.280971e-01 1.644387e-01 7.605616e-01
    outer loop
      vertex   -7.000000e+00 1.713914e+00 8.965206e+00
      vertex   -6.957804e+00 1.714161e+00 9.000000e+00
      vertex   -7.000000e+00 1.771321e+00 8.952795e+00
    endloop
  endfacet
  facet normal -6.279113e-01 1.646626e-01 7.606665e-01
    outer loop
      vertex   -7.000000e+00 1.771321e+00 8.952795e+00
      vertex   -6.957804e+00 1.714161e+00 9.000000e+00
      vertex   -6.942744e+00 1.771588e+00 9.000000e+00
    endloop
  endfacet
  facet normal -6.273766e-01 1.697497e-01 7.599892e-01
    outer loop
      vertex   -7.000000e+00 1.771321e+00 8.952795e+00
      vertex   -6.942744e+00 1.771588e+00 9.000000e+00
      vertex   -6.984305e+00 1.842910e+00 8.949761e+00
    endloop
  endfacet
  facet normal -6.269360e-01 1.701928e-01 7.602537e-01
    outer loop
      vertex   -6.984305e+00 1.842910e+00 8.949761e+00
      vertex   -6.942744e+00 1.771588e+00 9.000000e+00
      vertex   -6.927189e+00 1.828888e+00 9.000000e+00
    endloop
  endfacet
  facet normal -6.255576e-01 1.755288e-01 7.601759e-01
    outer loop
      vertex   -6.984305e+00 1.842910e+00 8.949761e+00
      vertex   -6.927189e+00 1.828888e+00 9.000000e+00
      vertex   -6.968075e+00 1.900755e+00 8.949761e+00
    endloop
  endfacet
  facet normal -6.254872e-01 1.755981e-01 7.602178e-01
    outer loop
      vertex   -6.968075e+00 1.900755e+00 8.949761e+00
      vertex   -6.927189e+00 1.828888e+00 9.000000e+00
      vertex   -6.911139e+00 1.886059e+00 9.000000e+00
    endloop
  endfacet
  facet normal -6.244146e-01 1.795847e-01 7.601683e-01
    outer loop
      vertex   -6.968075e+00 1.900755e+00 8.949761e+00
      vertex   -6.911139e+00 1.886059e+00 9.000000e+00
      vertex   -6.959757e+00 1.929674e+00 8.949761e+00
    endloop
  endfacet
  facet normal -6.236138e-01 1.808805e-01 7.605183e-01
    outer loop
      vertex   -6.959757e+00 1.929674e+00 8.949761e+00
      vertex   -6.911139e+00 1.886059e+00 9.000000e+00
      vertex   -6.894595e+00 1.943097e+00 9.000000e+00
    endloop
  endfacet
  facet normal -6.236328e-01 1.822981e-01 7.601641e-01
    outer loop
      vertex   -6.959757e+00 1.929674e+00 8.949761e+00
      vertex   -6.894595e+00 1.943097e+00 9.000000e+00
      vertex   -6.951243e+00 1.958800e+00 8.949761e+00
    endloop
  endfacet
  facet normal -6.228619e-01 1.850072e-01 7.601417e-01
    outer loop
      vertex   -6.951243e+00 1.958800e+00 8.949761e+00
      vertex   -6.894595e+00 1.943097e+00 9.000000e+00
      vertex   -6.942718e+00 1.987504e+00 8.949761e+00
    endloop
  endfacet
  facet normal -6.277564e-01 1.864610e-01 7.557474e-01
    outer loop
      vertex   -6.951243e+00 1.958800e+00 8.949761e+00
      vertex   -6.942718e+00 1.987504e+00 8.949761e+00
      vertex   -7.000000e+00 2.000000e+00 8.899096e+00
    endloop
  endfacet
  facet normal -6.272603e-01 1.884275e-01 7.556716e-01
    outer loop
      vertex   -7.000000e+00 2.000000e+00 8.899096e+00
      vertex   -6.942718e+00 1.987504e+00 8.949761e+00
      vertex   -6.938957e+00 2.000000e+00 8.949766e+00
    endloop
  endfacet
  facet normal -6.220708e-01 1.868641e-01 7.603353e-01
    outer loop
      vertex   -6.938957e+00 2.000000e+00 8.949766e+00
      vertex   -6.942718e+00 1.987504e+00 8.949761e+00
      vertex   -6.877558e+00 2.000000e+00 9.000000e+00
    endloop
  endfacet
  facet normal -6.220698e-01 1.862547e-01 7.604856e-01
    outer loop
      vertex   -6.877558e+00 2.000000e+00 9.000000e+00
      vertex   -6.942718e+00 1.987504e+00 8.949761e+00
      vertex   -6.894595e+00 1.943097e+00 9.000000e+00
    endloop
  endfacet
  facet normal -6.280739e-01 1.859236e-01 7.556160e-01
    outer loop
      vertex   -7.000000e+00 2.000000e+00 8.899096e+00
      vertex   -7.000000e+00 1.942976e+00 8.913127e+00
      vertex   -6.951243e+00 1.958800e+00 8.949761e+00
    endloop
  endfacet
  facet normal -6.278667e-01 1.835357e-01 7.563716e-01
    outer loop
      vertex   -6.951243e+00 1.958800e+00 8.949761e+00
      vertex   -7.000000e+00 1.942976e+00 8.913127e+00
      vertex   -6.959757e+00 1.929674e+00 8.949761e+00
    endloop
  endfacet
  facet normal -6.287163e-01 1.808219e-01 7.563195e-01
    outer loop
      vertex   -6.959757e+00 1.929674e+00 8.949761e+00
      vertex   -7.000000e+00 1.942976e+00 8.913127e+00
      vertex   -6.968075e+00 1.900755e+00 8.949761e+00
    endloop
  endfacet
  facet normal -6.290748e-01 1.803831e-01 7.561262e-01
    outer loop
      vertex   -6.968075e+00 1.900755e+00 8.949761e+00
      vertex   -7.000000e+00 1.942976e+00 8.913127e+00
      vertex   -7.000000e+00 1.885854e+00 8.926754e+00
    endloop
  endfacet
  facet normal -6.283169e-01 1.763030e-01 7.577170e-01
    outer loop
      vertex   -6.968075e+00 1.900755e+00 8.949761e+00
      vertex   -7.000000e+00 1.885854e+00 8.926754e+00
      vertex   -6.984305e+00 1.842910e+00 8.949761e+00
    endloop
  endfacet
  facet normal -6.304341e-01 1.747759e-01 7.563109e-01
    outer loop
      vertex   -6.984305e+00 1.842910e+00 8.949761e+00
      vertex   -7.000000e+00 1.885854e+00 8.926754e+00
      vertex   -7.000000e+00 1.828635e+00 8.939977e+00
    endloop
  endfacet
  facet normal -6.279432e-01 1.698531e-01 7.594980e-01
    outer loop
      vertex   -6.984305e+00 1.842910e+00 8.949761e+00
      vertex   -7.000000e+00 1.828635e+00 8.939977e+00
      vertex   -7.000000e+00 1.771321e+00 8.952795e+00
    endloop
  endfacet
  facet normal 6.108783e-01 -1.906923e-01 -7.684167e-01
    outer loop
      vertex   -6.744106e+00 2.000000e+00 8.931076e+00
      vertex   -6.657407e+00 2.000000e+00 9.000000e+00
      vertex   -6.716890e+00 1.947952e+00 8.965628e+00
    endloop
  endfacet
  facet normal 6.097565e-01 -1.884589e-01 -7.698573e-01
    outer loop
      vertex   -6.716890e+00 1.947952e+00 8.965628e+00
      vertex   -6.657407e+00 2.000000e+00 9.000000e+00
      vertex   -6.676379e+00 1.938617e+00 9.000000e+00
    endloop
  endfacet
  facet normal 6.112985e-01 -1.825270e-01 -7.700637e-01
    outer loop
      vertex   -6.716890e+00 1.947952e+00 8.965628e+00
      vertex   -6.676379e+00 1.938617e+00 9.000000e+00
      vertex   -6.694757e+00 1.877066e+00 9.000000e+00
    endloop
  endfacet
  facet normal 6.116643e-01 -1.822982e-01 -7.698274e-01
    outer loop
      vertex   -6.716890e+00 1.947952e+00 8.965628e+00
      vertex   -6.694757e+00 1.877066e+00 9.000000e+00
      vertex   -6.735967e+00 1.883945e+00 8.965628e+00
    endloop
  endfacet
  facet normal 6.128988e-01 -1.766152e-01 -7.701702e-01
    outer loop
      vertex   -6.735967e+00 1.883945e+00 8.965628e+00
      vertex   -6.694757e+00 1.877066e+00 9.000000e+00
      vertex   -6.712541e+00 1.815351e+00 9.000000e+00
    endloop
  endfacet
  facet normal 6.134691e-01 -1.762363e-01 -7.698028e-01
    outer loop
      vertex   -6.735967e+00 1.883945e+00 8.965628e+00
      vertex   -6.712541e+00 1.815351e+00 9.000000e+00
      vertex   -6.754359e+00 1.819921e+00 8.965628e+00
    endloop
  endfacet
  facet normal 6.144553e-01 -1.706919e-01 -7.702655e-01
    outer loop
      vertex   -6.754359e+00 1.819921e+00 8.965628e+00
      vertex   -6.712541e+00 1.815351e+00 9.000000e+00
      vertex   -6.729730e+00 1.753476e+00 9.000000e+00
    endloop
  endfacet
  facet normal 6.152040e-01 -1.701654e-01 -7.697842e-01
    outer loop
      vertex   -6.754359e+00 1.819921e+00 8.965628e+00
      vertex   -6.729730e+00 1.753476e+00 9.000000e+00
      vertex   -6.772090e+00 1.755819e+00 8.965628e+00
    endloop
  endfacet
  facet normal 6.159644e-01 -1.647563e-01 -7.703526e-01
    outer loop
      vertex   -6.772090e+00 1.755819e+00 8.965628e+00
      vertex   -6.729730e+00 1.753476e+00 9.000000e+00
      vertex   -6.746322e+00 1.691445e+00 9.000000e+00
    endloop
  endfacet
  facet normal 6.168596e-01 -1.640912e-01 -7.697781e-01
    outer loop
      vertex   -6.772090e+00 1.755819e+00 8.965628e+00
      vertex   -6.746322e+00 1.691445e+00 9.000000e+00
      vertex   -6.789103e+00 1.691861e+00 8.965628e+00
    endloop
  endfacet
  facet normal 6.174319e-01 -1.588101e-01 -7.704266e-01
    outer loop
      vertex   -6.789103e+00 1.691861e+00 8.965628e+00
      vertex   -6.746322e+00 1.691445e+00 9.000000e+00
      vertex   -6.762316e+00 1.629262e+00 9.000000e+00
    endloop
  endfacet
  facet normal 6.184469e-01 -1.580180e-01 -7.697751e-01
    outer loop
      vertex   -6.789103e+00 1.691861e+00 8.965628e+00
      vertex   -6.762316e+00 1.629262e+00 9.000000e+00
      vertex   -6.805460e+00 1.627844e+00 8.965628e+00
    endloop
  endfacet
  facet normal 6.188499e-01 -1.528512e-01 -7.704942e-01
    outer loop
      vertex   -6.805460e+00 1.627844e+00 8.965628e+00
      vertex   -6.762316e+00 1.629262e+00 9.000000e+00
      vertex   -6.777711e+00 1.566932e+00 9.000000e+00
    endloop
  endfacet
  facet normal 6.199646e-01 -1.519394e-01 -7.697781e-01
    outer loop
      vertex   -6.805460e+00 1.627844e+00 8.965628e+00
      vertex   -6.777711e+00 1.566932e+00 9.000000e+00
      vertex   -6.821144e+00 1.563849e+00 8.965628e+00
    endloop
  endfacet
  facet normal 6.202196e-01 -1.468804e-01 -7.705542e-01
    outer loop
      vertex   -6.821144e+00 1.563849e+00 8.965628e+00
      vertex   -6.777711e+00 1.566932e+00 9.000000e+00
      vertex   -6.792506e+00 1.504458e+00 9.000000e+00
    endloop
  endfacet
  facet normal 6.214133e-01 -1.458602e-01 -7.697859e-01
    outer loop
      vertex   -6.821144e+00 1.563849e+00 8.965628e+00
      vertex   -6.792506e+00 1.504458e+00 9.000000e+00
      vertex   -6.836158e+00 1.499885e+00 8.965628e+00
    endloop
  endfacet
  facet normal 6.215402e-01 -1.408975e-01 -7.706074e-01
    outer loop
      vertex   -6.836158e+00 1.499885e+00 8.965628e+00
      vertex   -6.792506e+00 1.504458e+00 9.000000e+00
      vertex   -6.806700e+00 1.441845e+00 9.000000e+00
    endloop
  endfacet
  facet normal 6.227941e-01 -1.397817e-01 -7.697978e-01
    outer loop
      vertex   -6.836158e+00 1.499885e+00 8.965628e+00
      vertex   -6.806700e+00 1.441845e+00 9.000000e+00
      vertex   -6.850505e+00 1.435961e+00 8.965628e+00
    endloop
  endfacet
  facet normal 6.228108e-01 -1.349027e-01 -7.706543e-01
    outer loop
      vertex   -6.850505e+00 1.435961e+00 8.965628e+00
      vertex   -6.806700e+00 1.441845e+00 9.000000e+00
      vertex   -6.820291e+00 1.379097e+00 9.000000e+00
    endloop
  endfacet
  facet normal 6.241078e-01 -1.337051e-01 -7.698132e-01
    outer loop
      vertex   -6.850505e+00 1.435961e+00 8.965628e+00
      vertex   -6.820291e+00 1.379097e+00 9.000000e+00
      vertex   -6.864189e+00 1.372086e+00 8.965628e+00
    endloop
  endfacet
  facet normal 6.240306e-01 -1.288960e-01 -7.706955e-01
    outer loop
      vertex   -6.864189e+00 1.372086e+00 8.965628e+00
      vertex   -6.820291e+00 1.379097e+00 9.000000e+00
      vertex   -6.833279e+00 1.316218e+00 9.000000e+00
    endloop
  endfacet
  facet normal 6.253554e-01 -1.276316e-01 -7.698317e-01
    outer loop
      vertex   -6.864189e+00 1.372086e+00 8.965628e+00
      vertex   -6.833279e+00 1.316218e+00 9.000000e+00
      vertex   -6.877214e+00 1.308270e+00 8.965628e+00
    endloop
  endfacet
  facet normal 6.251993e-01 -1.228776e-01 -7.707314e-01
    outer loop
      vertex   -6.877214e+00 1.308270e+00 8.965628e+00
      vertex   -6.833279e+00 1.316218e+00 9.000000e+00
      vertex   -6.845663e+00 1.253212e+00 9.000000e+00
    endloop
  endfacet
  facet normal 6.265374e-01 -1.215624e-01 -7.698529e-01
    outer loop
      vertex   -6.877214e+00 1.308270e+00 8.965628e+00
      vertex   -6.845663e+00 1.253212e+00 9.000000e+00
      vertex   -6.889583e+00 1.244520e+00 8.965628e+00
    endloop
  endfacet
  facet normal 6.263162e-01 -1.168478e-01 -7.707624e-01
    outer loop
      vertex   -6.889583e+00 1.244520e+00 8.965628e+00
      vertex   -6.845663e+00 1.253212e+00 9.000000e+00
      vertex   -6.857440e+00 1.190083e+00 9.000000e+00
    endloop
  endfacet
  facet normal 6.276544e-01 -1.154984e-01 -7.698766e-01
    outer loop
      vertex   -6.889583e+00 1.244520e+00 8.965628e+00
      vertex   -6.857440e+00 1.190083e+00 9.000000e+00
      vertex   -6.901300e+00 1.180847e+00 8.965628e+00
    endloop
  endfacet
  facet normal 6.273811e-01 -1.108068e-01 -7.707885e-01
    outer loop
      vertex   -6.901300e+00 1.180847e+00 8.965628e+00
      vertex   -6.857440e+00 1.190083e+00 9.000000e+00
      vertex   -6.868611e+00 1.126835e+00 9.000000e+00
    endloop
  endfacet
  facet normal 6.287069e-01 -1.094408e-01 -7.699028e-01
    outer loop
      vertex   -6.901300e+00 1.180847e+00 8.965628e+00
      vertex   -6.868611e+00 1.126835e+00 9.000000e+00
      vertex   -6.912369e+00 1.117258e+00 8.965628e+00
    endloop
  endfacet
  facet normal 6.283938e-01 -1.047549e-01 -7.708097e-01
    outer loop
      vertex   -6.912369e+00 1.117258e+00 8.965628e+00
      vertex   -6.868611e+00 1.126835e+00 9.000000e+00
      vertex   -6.879174e+00 1.063473e+00 9.000000e+00
    endloop
  endfacet
  facet normal 6.296952e-01 -1.033904e-01 -7.699314e-01
    outer loop
      vertex   -6.912369e+00 1.117258e+00 8.965628e+00
      vertex   -6.879174e+00 1.063473e+00 9.000000e+00
      vertex   -6.922794e+00 1.053763e+00 8.965628e+00
    endloop
  endfacet
  facet normal 6.293544e-01 -9.869238e-02 -7.708261e-01
    outer loop
      vertex   -6.922794e+00 1.053763e+00 8.965628e+00
      vertex   -6.879174e+00 1.063473e+00 9.000000e+00
      vertex   -6.889127e+00 1.000000e+00 9.000000e+00
    endloop
  endfacet
  facet normal 6.308831e-01 -9.706770e-02 -7.697821e-01
    outer loop
      vertex   -6.922794e+00 1.053763e+00 8.965628e+00
      vertex   -6.889127e+00 1.000000e+00 9.000000e+00
      vertex   -6.944710e+00 1.000000e+00 8.954446e+00
    endloop
  endfacet
  facet normal 6.336254e-01 -9.869804e-02 -7.673184e-01
    outer loop
      vertex   -6.922794e+00 1.053763e+00 8.965628e+00
      vertex   -6.944710e+00 1.000000e+00 8.954446e+00
      vertex   -6.963706e+00 1.059990e+00 8.931044e+00
    endloop
  endfacet
  facet normal 6.357971e-01 -9.737489e-02 -7.656893e-01
    outer loop
      vertex   -6.963706e+00 1.059990e+00 8.931044e+00
      vertex   -6.944710e+00 1.000000e+00 8.954446e+00
      vertex   -7.000000e+00 1.000000e+00 8.908536e+00
    endloop
  endfacet
  facet normal 6.370379e-01 -9.857023e-02 -7.645042e-01
    outer loop
      vertex   -6.963706e+00 1.059990e+00 8.931044e+00
      vertex   -7.000000e+00 1.000000e+00 8.908536e+00
      vertex   -7.000000e+00 1.063115e+00 8.900398e+00
    endloop
  endfacet
  facet normal 6.363497e-01 -1.044830e-01 -7.642921e-01
    outer loop
      vertex   -6.963706e+00 1.059990e+00 8.931044e+00
      vertex   -7.000000e+00 1.063115e+00 8.900398e+00
      vertex   -6.953219e+00 1.123861e+00 8.931044e+00
    endloop
  endfacet
  facet normal 6.364800e-01 -1.046496e-01 -7.641607e-01
    outer loop
      vertex   -6.953219e+00 1.123861e+00 8.931044e+00
      vertex   -7.000000e+00 1.063115e+00 8.900398e+00
      vertex   -7.000000e+00 1.126165e+00 8.891764e+00
    endloop
  endfacet
  facet normal 6.365678e-01 -1.037390e-01 -7.642118e-01
    outer loop
      vertex   -6.953219e+00 1.123861e+00 8.931044e+00
      vertex   -7.000000e+00 1.126165e+00 8.891764e+00
      vertex   -6.993920e+00 1.130440e+00 8.896248e+00
    endloop
  endfacet
  facet normal 6.390233e-01 -1.103597e-01 -7.612292e-01
    outer loop
      vertex   -6.993920e+00 1.130440e+00 8.896248e+00
      vertex   -7.000000e+00 1.126165e+00 8.891764e+00
      vertex   -7.000000e+00 1.189147e+00 8.882633e+00
    endloop
  endfacet
  facet normal 6.371259e-01 -1.109063e-01 -7.627388e-01
    outer loop
      vertex   -6.993920e+00 1.130440e+00 8.896248e+00
      vertex   -7.000000e+00 1.189147e+00 8.882633e+00
      vertex   -6.982721e+00 1.194779e+00 8.896248e+00
    endloop
  endfacet
  facet normal 6.378279e-01 -1.164969e-01 -7.613173e-01
    outer loop
      vertex   -6.982721e+00 1.194779e+00 8.896248e+00
      vertex   -7.000000e+00 1.189147e+00 8.882633e+00
      vertex   -7.000000e+00 1.252059e+00 8.873006e+00
    endloop
  endfacet
  facet normal 6.367186e-01 -1.171664e-01 -7.621427e-01
    outer loop
      vertex   -6.982721e+00 1.194779e+00 8.896248e+00
      vertex   -7.000000e+00 1.252059e+00 8.873006e+00
      vertex   -6.970865e+00 1.259203e+00 8.896248e+00
    endloop
  endfacet
  facet normal 6.371070e-01 -1.225777e-01 -7.609661e-01
    outer loop
      vertex   -6.970865e+00 1.259203e+00 8.896248e+00
      vertex   -7.000000e+00 1.252059e+00 8.873006e+00
      vertex   -7.000000e+00 1.314898e+00 8.862884e+00
    endloop
  endfacet
  facet normal 6.361888e-01 -1.234350e-01 -7.615954e-01
    outer loop
      vertex   -6.970865e+00 1.259203e+00 8.896248e+00
      vertex   -7.000000e+00 1.314898e+00 8.862884e+00
      vertex   -6.958351e+00 1.323705e+00 8.896248e+00
    endloop
  endfacet
  facet normal 6.363224e-01 -1.262205e-01 -7.610270e-01
    outer loop
      vertex   -6.958351e+00 1.323705e+00 8.896248e+00
      vertex   -7.000000e+00 1.314898e+00 8.862884e+00
      vertex   -6.998696e+00 1.331380e+00 8.861240e+00
    endloop
  endfacet
  facet normal 6.356385e-01 -1.297304e-01 -7.610083e-01
    outer loop
      vertex   -6.958351e+00 1.323705e+00 8.896248e+00
      vertex   -6.998696e+00 1.331380e+00 8.861240e+00
      vertex   -6.945172e+00 1.388274e+00 8.896248e+00
    endloop
  endfacet
  facet normal 6.356385e-01 -1.297304e-01 -7.610083e-01
    outer loop
      vertex   -6.945172e+00 1.388274e+00 8.896248e+00
      vertex   -6.998696e+00 1.331380e+00 8.861240e+00
      vertex   -6.985442e+00 1.396323e+00 8.861240e+00
    endloop
  endfacet
  facet normal 6.343801e-01 -1.359057e-01 -7.609807e-01
    outer loop
      vertex   -6.945172e+00 1.388274e+00 8.896248e+00
      vertex   -6.985442e+00 1.396323e+00 8.861240e+00
      vertex   -6.931327e+00 1.452902e+00 8.896248e+00
    endloop
  endfacet
  facet normal 6.343801e-01 -1.359057e-01 -7.609807e-01
    outer loop
      vertex   -6.931327e+00 1.452902e+00 8.896248e+00
      vertex   -6.985442e+00 1.396323e+00 8.861240e+00
      vertex   -6.971516e+00 1.461327e+00 8.861240e+00
    endloop
  endfacet
  facet normal 6.330594e-01 -1.420856e-01 -7.609517e-01
    outer loop
      vertex   -6.931327e+00 1.452902e+00 8.896248e+00
      vertex   -6.971516e+00 1.461327e+00 8.861240e+00
      vertex   -6.916810e+00 1.517581e+00 8.896248e+00
    endloop
  endfacet
  facet normal 6.330594e-01 -1.420856e-01 -7.609517e-01
    outer loop
      vertex   -6.916810e+00 1.517581e+00 8.896248e+00
      vertex   -6.971516e+00 1.461327e+00 8.861240e+00
      vertex   -6.956915e+00 1.526380e+00 8.861240e+00
    endloop
  endfacet
  facet normal 6.316763e-01 -1.482691e-01 -7.609214e-01
    outer loop
      vertex   -6.916810e+00 1.517581e+00 8.896248e+00
      vertex   -6.956915e+00 1.526380e+00 8.861240e+00
      vertex   -6.901619e+00 1.582299e+00 8.896248e+00
    endloop
  endfacet
  facet normal 6.316763e-01 -1.482691e-01 -7.609214e-01
    outer loop
      vertex   -6.901619e+00 1.582299e+00 8.896248e+00
      vertex   -6.956915e+00 1.526380e+00 8.861240e+00
      vertex   -6.941636e+00 1.591474e+00 8.861240e+00
    endloop
  endfacet
  facet normal 6.302304e-01 -1.544553e-01 -7.608898e-01
    outer loop
      vertex   -6.901619e+00 1.582299e+00 8.896248e+00
      vertex   -6.941636e+00 1.591474e+00 8.861240e+00
      vertex   -6.885751e+00 1.647050e+00 8.896248e+00
    endloop
  endfacet
  facet normal 6.302304e-01 -1.544553e-01 -7.608898e-01
    outer loop
      vertex   -6.885751e+00 1.647050e+00 8.896248e+00
      vertex   -6.941636e+00 1.591474e+00 8.861240e+00
      vertex   -6.925675e+00 1.656599e+00 8.861240e+00
    endloop
  endfacet
  facet normal 6.287214e-01 -1.606432e-01 -7.608569e-01
    outer loop
      vertex   -6.885751e+00 1.647050e+00 8.896248e+00
      vertex   -6.925675e+00 1.656599e+00 8.861240e+00
      vertex   -6.869201e+00 1.711821e+00 8.896248e+00
    endloop
  endfacet
  facet normal 6.287214e-01 -1.606432e-01 -7.608569e-01
    outer loop
      vertex   -6.869201e+00 1.711821e+00 8.896248e+00
      vertex   -6.925675e+00 1.656599e+00 8.861240e+00
      vertex   -6.909029e+00 1.721747e+00 8.861240e+00
    endloop
  endfacet
  facet normal 6.271526e-01 -1.668183e-01 -7.608228e-01
    outer loop
      vertex   -6.869201e+00 1.711821e+00 8.896248e+00
      vertex   -6.909029e+00 1.721747e+00 8.861240e+00
      vertex   -6.891774e+00 1.786620e+00 8.861240e+00
    endloop
  endfacet
  facet normal 6.306721e-01 -1.677545e-01 -7.577012e-01
    outer loop
      vertex   -6.891774e+00 1.786620e+00 8.861240e+00
      vertex   -6.909029e+00 1.721747e+00 8.861240e+00
      vertex   -6.931374e+00 1.796809e+00 8.826023e+00
    endloop
  endfacet
  facet normal 6.290343e-01 -1.739762e-01 -7.576596e-01
    outer loop
      vertex   -6.891774e+00 1.786620e+00 8.861240e+00
      vertex   -6.931374e+00 1.796809e+00 8.826023e+00
      vertex   -6.913148e+00 1.862706e+00 8.826023e+00
    endloop
  endfacet
  facet normal 6.325295e-01 -1.749429e-01 -7.545207e-01
    outer loop
      vertex   -6.913148e+00 1.862706e+00 8.826023e+00
      vertex   -6.931374e+00 1.796809e+00 8.826023e+00
      vertex   -6.952476e+00 1.873302e+00 8.790598e+00
    endloop
  endfacet
  facet normal 6.308054e-01 -1.812167e-01 -7.544833e-01
    outer loop
      vertex   -6.913148e+00 1.862706e+00 8.826023e+00
      vertex   -6.952476e+00 1.873302e+00 8.790598e+00
      vertex   -6.894323e+00 1.928235e+00 8.826023e+00
    endloop
  endfacet
  facet normal 6.308054e-01 -1.812167e-01 -7.544833e-01
    outer loop
      vertex   -6.894323e+00 1.928235e+00 8.826023e+00
      vertex   -6.952476e+00 1.873302e+00 8.790598e+00
      vertex   -6.933543e+00 1.939204e+00 8.790598e+00
    endloop
  endfacet
  facet normal 6.290912e-01 -1.872278e-01 -7.544468e-01
    outer loop
      vertex   -6.894323e+00 1.928235e+00 8.826023e+00
      vertex   -6.933543e+00 1.939204e+00 8.790598e+00
      vertex   -6.915408e+00 2.000000e+00 8.790632e+00
    endloop
  endfacet
  facet normal 6.325540e-01 -1.882626e-01 -7.512873e-01
    outer loop
      vertex   -6.915408e+00 2.000000e+00 8.790632e+00
      vertex   -6.933543e+00 1.939204e+00 8.790598e+00
      vertex   -6.972613e+00 1.950131e+00 8.754964e+00
    endloop
  endfacet
  facet normal 6.337211e-01 -1.907560e-01 -7.496730e-01
    outer loop
      vertex   -6.915408e+00 2.000000e+00 8.790632e+00
      vertex   -6.972613e+00 1.950131e+00 8.754964e+00
      vertex   -7.000000e+00 2.000000e+00 8.719124e+00
    endloop
  endfacet
  facet normal 6.367227e-01 -1.878124e-01 -7.478708e-01
    outer loop
      vertex   -7.000000e+00 2.000000e+00 8.719124e+00
      vertex   -6.972613e+00 1.950131e+00 8.754964e+00
      vertex   -7.000000e+00 1.938274e+00 8.734625e+00
    endloop
  endfacet
  facet normal 6.359402e-01 -1.826918e-01 -7.498025e-01
    outer loop
      vertex   -7.000000e+00 1.938274e+00 8.734625e+00
      vertex   -6.972613e+00 1.950131e+00 8.754964e+00
      vertex   -6.991652e+00 1.883858e+00 8.754964e+00
    endloop
  endfacet
  facet normal 6.384136e-01 -1.816230e-01 -7.479580e-01
    outer loop
      vertex   -7.000000e+00 1.938274e+00 8.734625e+00
      vertex   -6.991652e+00 1.883858e+00 8.754964e+00
      vertex   -7.000000e+00 1.876428e+00 8.749643e+00
    endloop
  endfacet
  facet normal 6.358912e-01 -1.763529e-01 -7.513601e-01
    outer loop
      vertex   -7.000000e+00 1.876428e+00 8.749643e+00
      vertex   -6.991652e+00 1.883858e+00 8.754964e+00
      vertex   -6.952476e+00 1.873302e+00 8.790598e+00
    endloop
  endfacet
  facet normal 6.359098e-01 -1.762325e-01 -7.513726e-01
    outer loop
      vertex   -7.000000e+00 1.876428e+00 8.749643e+00
      vertex   -6.952476e+00 1.873302e+00 8.790598e+00
      vertex   -7.000000e+00 1.814463e+00 8.764177e+00
    endloop
  endfacet
  facet normal 6.355686e-01 -1.757797e-01 -7.517673e-01
    outer loop
      vertex   -7.000000e+00 1.814463e+00 8.764177e+00
      vertex   -6.952476e+00 1.873302e+00 8.790598e+00
      vertex   -6.970825e+00 1.806958e+00 8.790598e+00
    endloop
  endfacet
  facet normal 6.370576e-01 -1.701303e-01 -7.518067e-01
    outer loop
      vertex   -7.000000e+00 1.814463e+00 8.764177e+00
      vertex   -6.970825e+00 1.806958e+00 8.790598e+00
      vertex   -7.000000e+00 1.752382e+00 8.778225e+00
    endloop
  endfacet
  facet normal 6.356865e-01 -1.690809e-01 -7.532027e-01
    outer loop
      vertex   -7.000000e+00 1.752382e+00 8.778225e+00
      vertex   -6.970825e+00 1.806958e+00 8.790598e+00
      vertex   -6.988239e+00 1.741486e+00 8.790598e+00
    endloop
  endfacet
  facet normal 6.388544e-01 -1.639133e-01 -7.516631e-01
    outer loop
      vertex   -7.000000e+00 1.752382e+00 8.778225e+00
      vertex   -6.988239e+00 1.741486e+00 8.790598e+00
      vertex   -7.000000e+00 1.690187e+00 8.791788e+00
    endloop
  endfacet
  facet normal 6.355724e-01 -1.632287e-01 -7.545887e-01
    outer loop
      vertex   -7.000000e+00 1.690187e+00 8.791788e+00
      vertex   -6.988239e+00 1.741486e+00 8.790598e+00
      vertex   -6.948709e+00 1.731635e+00 8.826023e+00
    endloop
  endfacet
  facet normal 6.351741e-01 -1.622920e-01 -7.551260e-01
    outer loop
      vertex   -7.000000e+00 1.690187e+00 8.791788e+00
      vertex   -6.948709e+00 1.731635e+00 8.826023e+00
      vertex   -6.965450e+00 1.666113e+00 8.826023e+00
    endloop
  endfacet
  facet normal 6.322533e-01 -1.615457e-01 -7.577327e-01
    outer loop
      vertex   -6.965450e+00 1.666113e+00 8.826023e+00
      vertex   -6.948709e+00 1.731635e+00 8.826023e+00
      vertex   -6.909029e+00 1.721747e+00 8.861240e+00
    endloop
  endfacet
  facet normal 6.322533e-01 -1.615457e-01 -7.577327e-01
    outer loop
      vertex   -6.965450e+00 1.666113e+00 8.826023e+00
      vertex   -6.909029e+00 1.721747e+00 8.861240e+00
      vertex   -6.925675e+00 1.656599e+00 8.861240e+00
    endloop
  endfacet
  facet normal 6.544822e-01 -1.261074e-01 -7.454864e-01
    outer loop
      vertex   -7.000000e+00 1.314898e+00 8.862884e+00
      vertex   -7.000000e+00 1.377662e+00 8.852267e+00
      vertex   -6.998696e+00 1.331380e+00 8.861240e+00
    endloop
  endfacet
  facet normal 6.354327e-01 -1.296883e-01 -7.611874e-01
    outer loop
      vertex   -6.998696e+00 1.331380e+00 8.861240e+00
      vertex   -7.000000e+00 1.377662e+00 8.852267e+00
      vertex   -6.985442e+00 1.396323e+00 8.861240e+00
    endloop
  endfacet
  facet normal 6.389727e-01 -1.342606e-01 -7.574219e-01
    outer loop
      vertex   -7.000000e+00 1.377662e+00 8.852267e+00
      vertex   -7.000000e+00 1.440347e+00 8.841155e+00
      vertex   -6.985442e+00 1.396323e+00 8.861240e+00
    endloop
  endfacet
  facet normal 6.359669e-01 -1.362457e-01 -7.595941e-01
    outer loop
      vertex   -6.985442e+00 1.396323e+00 8.861240e+00
      vertex   -7.000000e+00 1.440347e+00 8.841155e+00
      vertex   -6.971516e+00 1.461327e+00 8.861240e+00
    endloop
  endfacet
  facet normal 6.375623e-01 -1.404234e-01 -7.574929e-01
    outer loop
      vertex   -7.000000e+00 1.440347e+00 8.841155e+00
      vertex   -7.000000e+00 1.502951e+00 8.829549e+00
      vertex   -6.971516e+00 1.461327e+00 8.861240e+00
    endloop
  endfacet
  facet normal 6.356301e-01 -1.426626e-01 -7.586974e-01
    outer loop
      vertex   -6.971516e+00 1.461327e+00 8.861240e+00
      vertex   -7.000000e+00 1.502951e+00 8.829549e+00
      vertex   -6.956915e+00 1.526380e+00 8.861240e+00
    endloop
  endfacet
  facet normal 6.361785e-01 -1.448554e-01 -7.578218e-01
    outer loop
      vertex   -6.956915e+00 1.526380e+00 8.861240e+00
      vertex   -7.000000e+00 1.502951e+00 8.829549e+00
      vertex   -6.996870e+00 1.535146e+00 8.826023e+00
    endloop
  endfacet
  facet normal 6.468276e-01 -1.448966e-01 -7.487450e-01
    outer loop
      vertex   -6.996870e+00 1.535146e+00 8.826023e+00
      vertex   -7.000000e+00 1.502951e+00 8.829549e+00
      vertex   -7.000000e+00 1.565469e+00 8.817451e+00
    endloop
  endfacet
  facet normal 6.344619e-01 -1.489230e-01 -7.584722e-01
    outer loop
      vertex   -6.996870e+00 1.535146e+00 8.826023e+00
      vertex   -7.000000e+00 1.565469e+00 8.817451e+00
      vertex   -6.981503e+00 1.600614e+00 8.826023e+00
    endloop
  endfacet
  facet normal 6.386354e-01 -1.521320e-01 -7.543213e-01
    outer loop
      vertex   -6.981503e+00 1.600614e+00 8.826023e+00
      vertex   -7.000000e+00 1.565469e+00 8.817451e+00
      vertex   -7.000000e+00 1.627882e+00 8.804864e+00
    endloop
  endfacet
  facet normal 6.354954e-01 -1.557456e-01 -7.562334e-01
    outer loop
      vertex   -6.981503e+00 1.600614e+00 8.826023e+00
      vertex   -7.000000e+00 1.627882e+00 8.804864e+00
      vertex   -6.965450e+00 1.666113e+00 8.826023e+00
    endloop
  endfacet
  facet normal 6.371465e-01 -1.583019e-01 -7.543108e-01
    outer loop
      vertex   -6.965450e+00 1.666113e+00 8.826023e+00
      vertex   -7.000000e+00 1.627882e+00 8.804864e+00
      vertex   -7.000000e+00 1.690187e+00 8.791788e+00
    endloop
  endfacet
  facet normal 6.288058e-01 -1.874070e-01 -7.546402e-01
    outer loop
      vertex   -6.894323e+00 1.928235e+00 8.826023e+00
      vertex   -6.915408e+00 2.000000e+00 8.790632e+00
      vertex   -6.874798e+00 1.993747e+00 8.826023e+00
    endloop
  endfacet
  facet normal 6.234946e-01 -2.112247e-01 -7.527540e-01
    outer loop
      vertex   -6.874798e+00 1.993747e+00 8.826023e+00
      vertex   -6.915408e+00 2.000000e+00 8.790632e+00
      vertex   -6.830108e+00 2.000000e+00 8.861285e+00
    endloop
  endfacet
  facet normal 6.243760e-01 -1.903916e-01 -7.575656e-01
    outer loop
      vertex   -6.874798e+00 1.993747e+00 8.826023e+00
      vertex   -6.830108e+00 2.000000e+00 8.861285e+00
      vertex   -6.835540e+00 1.982362e+00 8.861240e+00
    endloop
  endfacet
  facet normal 6.208947e-01 -1.893116e-01 -7.606911e-01
    outer loop
      vertex   -6.835540e+00 1.982362e+00 8.861240e+00
      vertex   -6.830108e+00 2.000000e+00 8.861285e+00
      vertex   -6.796136e+00 1.970934e+00 8.896248e+00
    endloop
  endfacet
  facet normal 6.220498e-01 -1.853935e-01 -7.607123e-01
    outer loop
      vertex   -6.835540e+00 1.982362e+00 8.861240e+00
      vertex   -6.796136e+00 1.970934e+00 8.896248e+00
      vertex   -6.854954e+00 1.917224e+00 8.861240e+00
    endloop
  endfacet
  facet normal 6.220498e-01 -1.853935e-01 -7.607123e-01
    outer loop
      vertex   -6.854954e+00 1.917224e+00 8.861240e+00
      vertex   -6.796136e+00 1.970934e+00 8.896248e+00
      vertex   -6.815437e+00 1.906172e+00 8.896248e+00
    endloop
  endfacet
  facet normal 6.238135e-01 -1.792081e-01 -7.607504e-01
    outer loop
      vertex   -6.854954e+00 1.917224e+00 8.861240e+00
      vertex   -6.815437e+00 1.906172e+00 8.896248e+00
      vertex   -6.873672e+00 1.852069e+00 8.861240e+00
    endloop
  endfacet
  facet normal 6.238135e-01 -1.792081e-01 -7.607504e-01
    outer loop
      vertex   -6.873672e+00 1.852069e+00 8.861240e+00
      vertex   -6.815437e+00 1.906172e+00 8.896248e+00
      vertex   -6.834047e+00 1.841392e+00 8.896248e+00
    endloop
  endfacet
  facet normal 6.255160e-01 -1.730104e-01 -7.607872e-01
    outer loop
      vertex   -6.873672e+00 1.852069e+00 8.861240e+00
      vertex   -6.834047e+00 1.841392e+00 8.896248e+00
      vertex   -6.852025e+00 1.776392e+00 8.896248e+00
    endloop
  endfacet
  facet normal 6.219912e-01 -1.720355e-01 -7.638918e-01
    outer loop
      vertex   -6.852025e+00 1.776392e+00 8.896248e+00
      vertex   -6.834047e+00 1.841392e+00 8.896248e+00
      vertex   -6.812130e+00 1.766125e+00 8.931044e+00
    endloop
  endfacet
  facet normal 6.236101e-01 -1.658833e-01 -7.639327e-01
    outer loop
      vertex   -6.852025e+00 1.776392e+00 8.896248e+00
      vertex   -6.812130e+00 1.766125e+00 8.931044e+00
      vertex   -6.829225e+00 1.701859e+00 8.931044e+00
    endloop
  endfacet
  facet normal 6.200612e-01 -1.649393e-01 -7.670196e-01
    outer loop
      vertex   -6.829225e+00 1.701859e+00 8.931044e+00
      vertex   -6.812130e+00 1.766125e+00 8.931044e+00
      vertex   -6.789103e+00 1.691861e+00 8.965628e+00
    endloop
  endfacet
  facet normal 6.216134e-01 -1.588271e-01 -7.670533e-01
    outer loop
      vertex   -6.829225e+00 1.701859e+00 8.931044e+00
      vertex   -6.789103e+00 1.691861e+00 8.965628e+00
      vertex   -6.845678e+00 1.637464e+00 8.931044e+00
    endloop
  endfacet
  facet normal 6.216134e-01 -1.588271e-01 -7.670533e-01
    outer loop
      vertex   -6.845678e+00 1.637464e+00 8.931044e+00
      vertex   -6.789103e+00 1.691861e+00 8.965628e+00
      vertex   -6.805460e+00 1.627844e+00 8.965628e+00
    endloop
  endfacet
  facet normal 6.231047e-01 -1.527090e-01 -7.670857e-01
    outer loop
      vertex   -6.845678e+00 1.637464e+00 8.931044e+00
      vertex   -6.805460e+00 1.627844e+00 8.965628e+00
      vertex   -6.861455e+00 1.573091e+00 8.931044e+00
    endloop
  endfacet
  facet normal 6.231047e-01 -1.527090e-01 -7.670857e-01
    outer loop
      vertex   -6.861455e+00 1.573091e+00 8.931044e+00
      vertex   -6.805460e+00 1.627844e+00 8.965628e+00
      vertex   -6.821144e+00 1.563849e+00 8.965628e+00
    endloop
  endfacet
  facet normal 6.245337e-01 -1.465926e-01 -7.671168e-01
    outer loop
      vertex   -6.861455e+00 1.573091e+00 8.931044e+00
      vertex   -6.821144e+00 1.563849e+00 8.965628e+00
      vertex   -6.876557e+00 1.508749e+00 8.931044e+00
    endloop
  endfacet
  facet normal 6.245337e-01 -1.465926e-01 -7.671168e-01
    outer loop
      vertex   -6.876557e+00 1.508749e+00 8.931044e+00
      vertex   -6.821144e+00 1.563849e+00 8.965628e+00
      vertex   -6.836158e+00 1.499885e+00 8.965628e+00
    endloop
  endfacet
  facet normal 6.259007e-01 -1.404789e-01 -7.671467e-01
    outer loop
      vertex   -6.876557e+00 1.508749e+00 8.931044e+00
      vertex   -6.836158e+00 1.499885e+00 8.965628e+00
      vertex   -6.890990e+00 1.444447e+00 8.931044e+00
    endloop
  endfacet
  facet normal 6.259007e-01 -1.404789e-01 -7.671467e-01
    outer loop
      vertex   -6.890990e+00 1.444447e+00 8.931044e+00
      vertex   -6.836158e+00 1.499885e+00 8.965628e+00
      vertex   -6.850505e+00 1.435961e+00 8.965628e+00
    endloop
  endfacet
  facet normal 6.272058e-01 -1.343688e-01 -7.671752e-01
    outer loop
      vertex   -6.890990e+00 1.444447e+00 8.931044e+00
      vertex   -6.850505e+00 1.435961e+00 8.965628e+00
      vertex   -6.904755e+00 1.380195e+00 8.931044e+00
    endloop
  endfacet
  facet normal 6.272058e-01 -1.343688e-01 -7.671752e-01
    outer loop
      vertex   -6.904755e+00 1.380195e+00 8.931044e+00
      vertex   -6.850505e+00 1.435961e+00 8.965628e+00
      vertex   -6.864189e+00 1.372086e+00 8.965628e+00
    endloop
  endfacet
  facet normal 6.284496e-01 -1.282631e-01 -7.672025e-01
    outer loop
      vertex   -6.904755e+00 1.380195e+00 8.931044e+00
      vertex   -6.864189e+00 1.372086e+00 8.965628e+00
      vertex   -6.917856e+00 1.316001e+00 8.931044e+00
    endloop
  endfacet
  facet normal 6.284496e-01 -1.282631e-01 -7.672025e-01
    outer loop
      vertex   -6.917856e+00 1.316001e+00 8.931044e+00
      vertex   -6.864189e+00 1.372086e+00 8.965628e+00
      vertex   -6.877214e+00 1.308270e+00 8.965628e+00
    endloop
  endfacet
  facet normal 6.296322e-01 -1.221628e-01 -7.672285e-01
    outer loop
      vertex   -6.917856e+00 1.316001e+00 8.931044e+00
      vertex   -6.877214e+00 1.308270e+00 8.965628e+00
      vertex   -6.930298e+00 1.251875e+00 8.931044e+00
    endloop
  endfacet
  facet normal 6.296322e-01 -1.221628e-01 -7.672285e-01
    outer loop
      vertex   -6.930298e+00 1.251875e+00 8.931044e+00
      vertex   -6.877214e+00 1.308270e+00 8.965628e+00
      vertex   -6.889583e+00 1.244520e+00 8.965628e+00
    endloop
  endfacet
  facet normal 6.307539e-01 -1.160688e-01 -7.672532e-01
    outer loop
      vertex   -6.930298e+00 1.251875e+00 8.931044e+00
      vertex   -6.889583e+00 1.244520e+00 8.965628e+00
      vertex   -6.942084e+00 1.187826e+00 8.931044e+00
    endloop
  endfacet
  facet normal 6.307539e-01 -1.160688e-01 -7.672532e-01
    outer loop
      vertex   -6.942084e+00 1.187826e+00 8.931044e+00
      vertex   -6.889583e+00 1.244520e+00 8.965628e+00
      vertex   -6.901300e+00 1.180847e+00 8.965628e+00
    endloop
  endfacet
  facet normal 6.318153e-01 -1.099819e-01 -7.672766e-01
    outer loop
      vertex   -6.942084e+00 1.187826e+00 8.931044e+00
      vertex   -6.901300e+00 1.180847e+00 8.965628e+00
      vertex   -6.953219e+00 1.123861e+00 8.931044e+00
    endloop
  endfacet
  facet normal 6.318153e-01 -1.099819e-01 -7.672766e-01
    outer loop
      vertex   -6.953219e+00 1.123861e+00 8.931044e+00
      vertex   -6.901300e+00 1.180847e+00 8.965628e+00
      vertex   -6.912369e+00 1.117258e+00 8.965628e+00
    endloop
  endfacet
  facet normal 6.328166e-01 -1.039029e-01 -7.672987e-01
    outer loop
      vertex   -6.953219e+00 1.123861e+00 8.931044e+00
      vertex   -6.912369e+00 1.117258e+00 8.965628e+00
      vertex   -6.963706e+00 1.059990e+00 8.931044e+00
    endloop
  endfacet
  facet normal 6.328166e-01 -1.039029e-01 -7.672987e-01
    outer loop
      vertex   -6.963706e+00 1.059990e+00 8.931044e+00
      vertex   -6.912369e+00 1.117258e+00 8.965628e+00
      vertex   -6.922794e+00 1.053763e+00 8.965628e+00
    endloop
  endfacet
  facet normal 6.181831e-01 -1.937823e-01 -7.617730e-01
    outer loop
      vertex   -6.830108e+00 2.000000e+00 8.861285e+00
      vertex   -6.744106e+00 2.000000e+00 8.931076e+00
      vertex   -6.796136e+00 1.970934e+00 8.896248e+00
    endloop
  endfacet
  facet normal 6.170629e-01 -1.893593e-01 -7.637908e-01
    outer loop
      vertex   -6.796136e+00 1.970934e+00 8.896248e+00
      vertex   -6.744106e+00 2.000000e+00 8.931076e+00
      vertex   -6.756585e+00 1.959464e+00 8.931044e+00
    endloop
  endfacet
  facet normal 6.185421e-01 -1.843481e-01 -7.638203e-01
    outer loop
      vertex   -6.796136e+00 1.970934e+00 8.896248e+00
      vertex   -6.756585e+00 1.959464e+00 8.931044e+00
      vertex   -6.815437e+00 1.906172e+00 8.896248e+00
    endloop
  endfacet
  facet normal 6.185421e-01 -1.843481e-01 -7.638203e-01
    outer loop
      vertex   -6.815437e+00 1.906172e+00 8.896248e+00
      vertex   -6.756585e+00 1.959464e+00 8.931044e+00
      vertex   -6.775774e+00 1.895079e+00 8.931044e+00
    endloop
  endfacet
  facet normal 6.202955e-01 -1.781974e-01 -7.638581e-01
    outer loop
      vertex   -6.815437e+00 1.906172e+00 8.896248e+00
      vertex   -6.775774e+00 1.895079e+00 8.931044e+00
      vertex   -6.834047e+00 1.841392e+00 8.896248e+00
    endloop
  endfacet
  facet normal 6.202955e-01 -1.781974e-01 -7.638581e-01
    outer loop
      vertex   -6.834047e+00 1.841392e+00 8.896248e+00
      vertex   -6.775774e+00 1.895079e+00 8.931044e+00
      vertex   -6.794276e+00 1.830676e+00 8.931044e+00
    endloop
  endfacet
  facet normal 6.219871e-01 -1.720380e-01 -7.638946e-01
    outer loop
      vertex   -6.834047e+00 1.841392e+00 8.896248e+00
      vertex   -6.794276e+00 1.830676e+00 8.931044e+00
      vertex   -6.812130e+00 1.766125e+00 8.931044e+00
    endloop
  endfacet
  facet normal 6.184478e-01 -1.710590e-01 -7.669818e-01
    outer loop
      vertex   -6.812130e+00 1.766125e+00 8.931044e+00
      vertex   -6.794276e+00 1.830676e+00 8.931044e+00
      vertex   -6.772090e+00 1.755819e+00 8.965628e+00
    endloop
  endfacet
  facet normal 6.200572e-01 -1.649418e-01 -7.670223e-01
    outer loop
      vertex   -6.812130e+00 1.766125e+00 8.931044e+00
      vertex   -6.772090e+00 1.755819e+00 8.965628e+00
      vertex   -6.789103e+00 1.691861e+00 8.965628e+00
    endloop
  endfacet
  facet normal 6.135510e-01 -1.882757e-01 -7.668816e-01
    outer loop
      vertex   -6.756585e+00 1.959464e+00 8.931044e+00
      vertex   -6.744106e+00 2.000000e+00 8.931076e+00
      vertex   -6.716890e+00 1.947952e+00 8.965628e+00
    endloop
  endfacet
  facet normal 6.150199e-01 -1.832983e-01 -7.669108e-01
    outer loop
      vertex   -6.775774e+00 1.895079e+00 8.931044e+00
      vertex   -6.756585e+00 1.959464e+00 8.931044e+00
      vertex   -6.716890e+00 1.947952e+00 8.965628e+00
    endloop
  endfacet
  facet normal 6.255429e-01 -1.864346e-01 -7.575871e-01
    outer loop
      vertex   -6.894323e+00 1.928235e+00 8.826023e+00
      vertex   -6.874798e+00 1.993747e+00 8.826023e+00
      vertex   -6.835540e+00 1.982362e+00 8.861240e+00
    endloop
  endfacet
  facet normal 6.255429e-01 -1.864346e-01 -7.575871e-01
    outer loop
      vertex   -6.894323e+00 1.928235e+00 8.826023e+00
      vertex   -6.835540e+00 1.982362e+00 8.861240e+00
      vertex   -6.854954e+00 1.917224e+00 8.861240e+00
    endloop
  endfacet
  facet normal 6.167630e-01 -1.771826e-01 -7.669483e-01
    outer loop
      vertex   -6.794276e+00 1.830676e+00 8.931044e+00
      vertex   -6.775774e+00 1.895079e+00 8.931044e+00
      vertex   -6.735967e+00 1.883945e+00 8.965628e+00
    endloop
  endfacet
  facet normal 6.150199e-01 -1.832983e-01 -7.669108e-01
    outer loop
      vertex   -6.735967e+00 1.883945e+00 8.965628e+00
      vertex   -6.775774e+00 1.895079e+00 8.931044e+00
      vertex   -6.716890e+00 1.947952e+00 8.965628e+00
    endloop
  endfacet
  facet normal 6.273168e-01 -1.802145e-01 -7.576254e-01
    outer loop
      vertex   -6.913148e+00 1.862706e+00 8.826023e+00
      vertex   -6.894323e+00 1.928235e+00 8.826023e+00
      vertex   -6.854954e+00 1.917224e+00 8.861240e+00
    endloop
  endfacet
  facet normal 6.273168e-01 -1.802145e-01 -7.576254e-01
    outer loop
      vertex   -6.913148e+00 1.862706e+00 8.826023e+00
      vertex   -6.854954e+00 1.917224e+00 8.861240e+00
      vertex   -6.873672e+00 1.852069e+00 8.861240e+00
    endloop
  endfacet
  facet normal 6.342790e-01 -1.822146e-01 -7.513241e-01
    outer loop
      vertex   -6.991652e+00 1.883858e+00 8.754964e+00
      vertex   -6.972613e+00 1.950131e+00 8.754964e+00
      vertex   -6.933543e+00 1.939204e+00 8.790598e+00
    endloop
  endfacet
  facet normal 6.342790e-01 -1.822146e-01 -7.513241e-01
    outer loop
      vertex   -6.991652e+00 1.883858e+00 8.754964e+00
      vertex   -6.933543e+00 1.939204e+00 8.790598e+00
      vertex   -6.952476e+00 1.873302e+00 8.790598e+00
    endloop
  endfacet
  facet normal 6.184437e-01 -1.710615e-01 -7.669846e-01
    outer loop
      vertex   -6.772090e+00 1.755819e+00 8.965628e+00
      vertex   -6.794276e+00 1.830676e+00 8.931044e+00
      vertex   -6.754359e+00 1.819921e+00 8.965628e+00
    endloop
  endfacet
  facet normal 6.167630e-01 -1.771826e-01 -7.669483e-01
    outer loop
      vertex   -6.754359e+00 1.819921e+00 8.965628e+00
      vertex   -6.794276e+00 1.830676e+00 8.931044e+00
      vertex   -6.735967e+00 1.883945e+00 8.965628e+00
    endloop
  endfacet
  facet normal 6.290301e-01 -1.739787e-01 -7.576625e-01
    outer loop
      vertex   -6.891774e+00 1.786620e+00 8.861240e+00
      vertex   -6.913148e+00 1.862706e+00 8.826023e+00
      vertex   -6.873672e+00 1.852069e+00 8.861240e+00
    endloop
  endfacet
  facet normal 6.255201e-01 -1.730079e-01 -7.607844e-01
    outer loop
      vertex   -6.891774e+00 1.786620e+00 8.861240e+00
      vertex   -6.873672e+00 1.852069e+00 8.861240e+00
      vertex   -6.852025e+00 1.776392e+00 8.896248e+00
    endloop
  endfacet
  facet normal 6.325337e-01 -1.749403e-01 -7.545177e-01
    outer loop
      vertex   -6.970825e+00 1.806958e+00 8.790598e+00
      vertex   -6.952476e+00 1.873302e+00 8.790598e+00
      vertex   -6.931374e+00 1.796809e+00 8.826023e+00
    endloop
  endfacet
  facet normal 6.271485e-01 -1.668209e-01 -7.608256e-01
    outer loop
      vertex   -6.869201e+00 1.711821e+00 8.896248e+00
      vertex   -6.891774e+00 1.786620e+00 8.861240e+00
      vertex   -6.852025e+00 1.776392e+00 8.896248e+00
    endloop
  endfacet
  facet normal 6.236142e-01 -1.658808e-01 -7.639299e-01
    outer loop
      vertex   -6.869201e+00 1.711821e+00 8.896248e+00
      vertex   -6.852025e+00 1.776392e+00 8.896248e+00
      vertex   -6.829225e+00 1.701859e+00 8.931044e+00
    endloop
  endfacet
  facet normal 6.306762e-01 -1.677519e-01 -7.576984e-01
    outer loop
      vertex   -6.909029e+00 1.721747e+00 8.861240e+00
      vertex   -6.948709e+00 1.731635e+00 8.826023e+00
      vertex   -6.931374e+00 1.796809e+00 8.826023e+00
    endloop
  endfacet
  facet normal 6.341809e-01 -1.686841e-01 -7.545597e-01
    outer loop
      vertex   -6.931374e+00 1.796809e+00 8.826023e+00
      vertex   -6.948709e+00 1.731635e+00 8.826023e+00
      vertex   -6.970825e+00 1.806958e+00 8.790598e+00
    endloop
  endfacet
  facet normal 6.251747e-01 -1.597370e-01 -7.639638e-01
    outer loop
      vertex   -6.885751e+00 1.647050e+00 8.896248e+00
      vertex   -6.869201e+00 1.711821e+00 8.896248e+00
      vertex   -6.829225e+00 1.701859e+00 8.931044e+00
    endloop
  endfacet
  facet normal 6.251747e-01 -1.597370e-01 -7.639638e-01
    outer loop
      vertex   -6.885751e+00 1.647050e+00 8.896248e+00
      vertex   -6.829225e+00 1.701859e+00 8.931044e+00
      vertex   -6.845678e+00 1.637464e+00 8.931044e+00
    endloop
  endfacet
  facet normal 6.341850e-01 -1.686815e-01 -7.545568e-01
    outer loop
      vertex   -6.948709e+00 1.731635e+00 8.826023e+00
      vertex   -6.988239e+00 1.741486e+00 8.790598e+00
      vertex   -6.970825e+00 1.806958e+00 8.790598e+00
    endloop
  endfacet
  facet normal 6.266749e-01 -1.535839e-01 -7.639964e-01
    outer loop
      vertex   -6.901619e+00 1.582299e+00 8.896248e+00
      vertex   -6.885751e+00 1.647050e+00 8.896248e+00
      vertex   -6.845678e+00 1.637464e+00 8.931044e+00
    endloop
  endfacet
  facet normal 6.266749e-01 -1.535839e-01 -7.639964e-01
    outer loop
      vertex   -6.901619e+00 1.582299e+00 8.896248e+00
      vertex   -6.845678e+00 1.637464e+00 8.931044e+00
      vertex   -6.861455e+00 1.573091e+00 8.931044e+00
    endloop
  endfacet
  facet normal 6.337710e-01 -1.553230e-01 -7.577658e-01
    outer loop
      vertex   -6.981503e+00 1.600614e+00 8.826023e+00
      vertex   -6.965450e+00 1.666113e+00 8.826023e+00
      vertex   -6.925675e+00 1.656599e+00 8.861240e+00
    endloop
  endfacet
  facet normal 6.337710e-01 -1.553230e-01 -7.577658e-01
    outer loop
      vertex   -6.981503e+00 1.600614e+00 8.826023e+00
      vertex   -6.925675e+00 1.656599e+00 8.861240e+00
      vertex   -6.941636e+00 1.591474e+00 8.861240e+00
    endloop
  endfacet
  facet normal 6.281124e-01 -1.474326e-01 -7.640278e-01
    outer loop
      vertex   -6.916810e+00 1.517581e+00 8.896248e+00
      vertex   -6.901619e+00 1.582299e+00 8.896248e+00
      vertex   -6.861455e+00 1.573091e+00 8.931044e+00
    endloop
  endfacet
  facet normal 6.281124e-01 -1.474326e-01 -7.640278e-01
    outer loop
      vertex   -6.916810e+00 1.517581e+00 8.896248e+00
      vertex   -6.861455e+00 1.573091e+00 8.931044e+00
      vertex   -6.876557e+00 1.508749e+00 8.931044e+00
    endloop
  endfacet
  facet normal 6.352254e-01 -1.491022e-01 -7.577976e-01
    outer loop
      vertex   -6.996870e+00 1.535146e+00 8.826023e+00
      vertex   -6.981503e+00 1.600614e+00 8.826023e+00
      vertex   -6.941636e+00 1.591474e+00 8.861240e+00
    endloop
  endfacet
  facet normal 6.352254e-01 -1.491022e-01 -7.577976e-01
    outer loop
      vertex   -6.996870e+00 1.535146e+00 8.826023e+00
      vertex   -6.941636e+00 1.591474e+00 8.861240e+00
      vertex   -6.956915e+00 1.526380e+00 8.861240e+00
    endloop
  endfacet
  facet normal 6.294874e-01 -1.412839e-01 -7.640579e-01
    outer loop
      vertex   -6.931327e+00 1.452902e+00 8.896248e+00
      vertex   -6.916810e+00 1.517581e+00 8.896248e+00
      vertex   -6.876557e+00 1.508749e+00 8.931044e+00
    endloop
  endfacet
  facet normal 6.294874e-01 -1.412839e-01 -7.640579e-01
    outer loop
      vertex   -6.931327e+00 1.452902e+00 8.896248e+00
      vertex   -6.876557e+00 1.508749e+00 8.931044e+00
      vertex   -6.890990e+00 1.444447e+00 8.931044e+00
    endloop
  endfacet
  facet normal 6.308003e-01 -1.351388e-01 -7.640867e-01
    outer loop
      vertex   -6.945172e+00 1.388274e+00 8.896248e+00
      vertex   -6.931327e+00 1.452902e+00 8.896248e+00
      vertex   -6.890990e+00 1.444447e+00 8.931044e+00
    endloop
  endfacet
  facet normal 6.308003e-01 -1.351388e-01 -7.640867e-01
    outer loop
      vertex   -6.945172e+00 1.388274e+00 8.896248e+00
      vertex   -6.890990e+00 1.444447e+00 8.931044e+00
      vertex   -6.904755e+00 1.380195e+00 8.931044e+00
    endloop
  endfacet
  facet normal 6.320514e-01 -1.289982e-01 -7.641141e-01
    outer loop
      vertex   -6.958351e+00 1.323705e+00 8.896248e+00
      vertex   -6.945172e+00 1.388274e+00 8.896248e+00
      vertex   -6.904755e+00 1.380195e+00 8.931044e+00
    endloop
  endfacet
  facet normal 6.320514e-01 -1.289982e-01 -7.641141e-01
    outer loop
      vertex   -6.958351e+00 1.323705e+00 8.896248e+00
      vertex   -6.904755e+00 1.380195e+00 8.931044e+00
      vertex   -6.917856e+00 1.316001e+00 8.931044e+00
    endloop
  endfacet
  facet normal 6.332411e-01 -1.228630e-01 -7.641403e-01
    outer loop
      vertex   -6.970865e+00 1.259203e+00 8.896248e+00
      vertex   -6.958351e+00 1.323705e+00 8.896248e+00
      vertex   -6.917856e+00 1.316001e+00 8.931044e+00
    endloop
  endfacet
  facet normal 6.332411e-01 -1.228630e-01 -7.641403e-01
    outer loop
      vertex   -6.970865e+00 1.259203e+00 8.896248e+00
      vertex   -6.917856e+00 1.316001e+00 8.931044e+00
      vertex   -6.930298e+00 1.251875e+00 8.931044e+00
    endloop
  endfacet
  facet normal 6.343695e-01 -1.167341e-01 -7.641652e-01
    outer loop
      vertex   -6.982721e+00 1.194779e+00 8.896248e+00
      vertex   -6.970865e+00 1.259203e+00 8.896248e+00
      vertex   -6.930298e+00 1.251875e+00 8.931044e+00
    endloop
  endfacet
  facet normal 6.343695e-01 -1.167341e-01 -7.641652e-01
    outer loop
      vertex   -6.982721e+00 1.194779e+00 8.896248e+00
      vertex   -6.930298e+00 1.251875e+00 8.931044e+00
      vertex   -6.942084e+00 1.187826e+00 8.931044e+00
    endloop
  endfacet
  facet normal 6.354372e-01 -1.106123e-01 -7.641888e-01
    outer loop
      vertex   -6.993920e+00 1.130440e+00 8.896248e+00
      vertex   -6.982721e+00 1.194779e+00 8.896248e+00
      vertex   -6.942084e+00 1.187826e+00 8.931044e+00
    endloop
  endfacet
  facet normal 6.354372e-01 -1.106123e-01 -7.641888e-01
    outer loop
      vertex   -6.993920e+00 1.130440e+00 8.896248e+00
      vertex   -6.942084e+00 1.187826e+00 8.931044e+00
      vertex   -6.953219e+00 1.123861e+00 8.931044e+00
    endloop
  endfacet
  facet normal 0.000000e+00 -1.000000e+00 0.000000e+00
    outer loop
      vertex   -7.000000e+00 1.000000e+00 8.908536e+00
      vertex   -6.944710e+00 1.000000e+00 8.954446e+00
      vertex   -7.000000e+00 1.000000e+00 9.000000e+00
    endloop
  endfacet
  facet normal 0.000000e+00 -1.000000e+00 0.000000e+00
    outer loop
      vertex   -7.000000e+00 1.000000e+00 9.000000e+00
      vertex   -6.944710e+00 1.000000e+00 8.954446e+00
      vertex   -6.889127e+00 1.000000e+00 9.000000e+00
    endloop
  endfacet
  facet normal 0.000000e+00 1.000000e+00 0.000000e+00
    outer loop
      vertex   -6.938957e+00 2.000000e+00 8.949766e+00
      vertex   -6.830108e+00 2.000000e+00 8.861285e+00
      vertex   -7.000000e+00 2.000000e+00 8.899096e+00
    endloop
  endfacet
  facet normal 0.000000e+00 1.000000e+00 0.000000e+00
    outer loop
      vertex   -7.000000e+00 2.000000e+00 8.899096e+00
      vertex   -6.830108e+00 2.000000e+00 8.861285e+00
      vertex   -6.915408e+00 2.000000e+00 8.790632e+00
    endloop
  endfacet
  facet normal 0.000000e+00 1.000000e+00 0.000000e+00
    outer loop
      vertex   -7.000000e+00 2.000000e+00 8.899096e+00
      vertex   -6.915408e+00 2.000000e+00 8.790632e+00
      vertex   -7.000000e+00 2.000000e+00 8.719124e+00
    endloop
  endfacet
  facet normal -0.000000e+00 1.000000e+00 0.000000e+00
    outer loop
      vertex   -6.938957e+00 2.000000e+00 8.949766e+00
      vertex   -6.877558e+00 2.000000e+00 9.000000e+00
      vertex   -6.830108e+00 2.000000e+00 8.861285e+00
    endloop
  endfacet
  facet normal 0.000000e+00 1.000000e+00 -0.000000e+00
    outer loop
      vertex   -6.830108e+00 2.000000e+00 8.861285e+00
      vertex   -6.877558e+00 2.000000e+00 9.000000e+00
      vertex   -6.744106e+00 2.000000e+00 8.931076e+00
    endloop
  endfacet
  facet normal 0.000000e+00 1.000000e+00 -0.000000e+00
    outer loop
      vertex   -6.744106e+00 2.000000e+00 8.931076e+00
      vertex   -6.877558e+00 2.000000e+00 9.000000e+00
      vertex   -6.657407e+00 2.000000e+00 9.000000e+00
    endloop
  endfacet
  facet normal -0.000000e+00 0.000000e+00 1.000000e+00
    outer loop
      vertex   -6.894595e+00 1.943097e+00 9.000000e+00
      vertex   -6.762316e+00 1.629262e+00 9.000000e+00
      vertex   -6.877558e+00 2.000000e+00 9.000000e+00
    endloop
  endfacet
  facet normal 0.000000e+00 0.000000e+00 1.000000e+00
    outer loop
      vertex   -6.877558e+00 2.000000e+00 9.000000e+00
      vertex   -6.762316e+00 1.629262e+00 9.000000e+00
      vertex   -6.746322e+00 1.691445e+00 9.000000e+00
    endloop
  endfacet
  facet normal 0.000000e+00 0.000000e+00 1.000000e+00
    outer loop
      vertex   -6.877558e+00 2.000000e+00 9.000000e+00
      vertex   -6.746322e+00 1.691445e+00 9.000000e+00
      vertex   -6.729730e+00 1.753476e+00 9.000000e+00
    endloop
  endfacet
  facet normal -4.376854e-14 -1.844812e-14 1.000000e+00
    outer loop
      vertex   -6.894595e+00 1.943097e+00 9.000000e+00
      vertex   -6.911139e+00 1.886059e+00 9.000000e+00
      vertex   -6.762316e+00 1.629262e+00 9.000000e+00
    endloop
  endfacet
  facet normal -8.369170e-15 2.067122e-15 1.000000e+00
    outer loop
      vertex   -6.762316e+00 1.629262e+00 9.000000e+00
      vertex   -6.911139e+00 1.886059e+00 9.000000e+00
      vertex   -6.777711e+00 1.566932e+00 9.000000e+00
    endloop
  endfacet
  facet normal 8.095657e-14 3.941452e-14 1.000000e+00
    outer loop
      vertex   -6.777711e+00 1.566932e+00 9.000000e+00
      vertex   -6.911139e+00 1.886059e+00 9.000000e+00
      vertex   -6.927189e+00 1.828888e+00 9.000000e+00
    endloop
  endfacet
  facet normal 8.398271e-15 -1.988878e-15 1.000000e+00
    outer loop
      vertex   -6.777711e+00 1.566932e+00 9.000000e+00
      vertex   -6.927189e+00 1.828888e+00 9.000000e+00
      vertex   -6.792506e+00 1.504458e+00 9.000000e+00
    endloop
  endfacet
  facet normal -3.717642e-14 -2.090865e-14 1.000000e+00
    outer loop
      vertex   -6.792506e+00 1.504458e+00 9.000000e+00
      vertex   -6.927189e+00 1.828888e+00 9.000000e+00
      vertex   -6.942744e+00 1.771588e+00 9.000000e+00
    endloop
  endfacet
  facet normal 0.000000e+00 0.000000e+00 1.000000e+00
    outer loop
      vertex   -6.792506e+00 1.504458e+00 9.000000e+00
      vertex   -6.942744e+00 1.771588e+00 9.000000e+00
      vertex   -6.806700e+00 1.441845e+00 9.000000e+00
    endloop
  endfacet
  facet normal 4.583857e-14 1.891197e-14 1.000000e+00
    outer loop
      vertex   -6.806700e+00 1.441845e+00 9.000000e+00
      vertex   -6.942744e+00 1.771588e+00 9.000000e+00
      vertex   -6.957804e+00 1.714161e+00 9.000000e+00
    endloop
  endfacet
  facet normal 8.455282e-15 -1.831440e-15 1.000000e+00
    outer loop
      vertex   -6.806700e+00 1.441845e+00 9.000000e+00
      vertex   -6.957804e+00 1.714161e+00 9.000000e+00
      vertex   -6.820291e+00 1.379097e+00 9.000000e+00
    endloop
  endfacet
  facet normal -3.853277e-14 -2.111563e-14 1.000000e+00
    outer loop
      vertex   -6.820291e+00 1.379097e+00 9.000000e+00
      vertex   -6.957804e+00 1.714161e+00 9.000000e+00
      vertex   -6.972367e+00 1.656611e+00 9.000000e+00
    endloop
  endfacet
  facet normal 0.000000e+00 0.000000e+00 1.000000e+00
    outer loop
      vertex   -6.820291e+00 1.379097e+00 9.000000e+00
      vertex   -6.972367e+00 1.656611e+00 9.000000e+00
      vertex   -6.833279e+00 1.316218e+00 9.000000e+00
    endloop
  endfacet
  facet normal 0.000000e+00 0.000000e+00 1.000000e+00
    outer loop
      vertex   -6.833279e+00 1.316218e+00 9.000000e+00
      vertex   -6.972367e+00 1.656611e+00 9.000000e+00
      vertex   -6.986432e+00 1.598941e+00 9.000000e+00
    endloop
  endfacet
  facet normal 0.000000e+00 0.000000e+00 1.000000e+00
    outer loop
      vertex   -6.833279e+00 1.316218e+00 9.000000e+00
      vertex   -6.986432e+00 1.598941e+00 9.000000e+00
      vertex   -7.000000e+00 1.541154e+00 9.000000e+00
    endloop
  endfacet
  facet normal 0.000000e+00 0.000000e+00 1.000000e+00
    outer loop
      vertex   -7.000000e+00 1.000000e+00 9.000000e+00
      vertex   -6.868611e+00 1.126835e+00 9.000000e+00
      vertex   -7.000000e+00 1.541154e+00 9.000000e+00
    endloop
  endfacet
  facet normal 0.000000e+00 0.000000e+00 1.000000e+00
    outer loop
      vertex   -7.000000e+00 1.541154e+00 9.000000e+00
      vertex   -6.868611e+00 1.126835e+00 9.000000e+00
      vertex   -6.857440e+00 1.190083e+00 9.000000e+00
    endloop
  endfacet
  facet normal 4.748037e-14 1.928039e-14 1.000000e+00
    outer loop
      vertex   -7.000000e+00 1.541154e+00 9.000000e+00
      vertex   -6.857440e+00 1.190083e+00 9.000000e+00
      vertex   -6.845663e+00 1.253212e+00 9.000000e+00
    endloop
  endfacet
  facet normal 0.000000e+00 -0.000000e+00 1.000000e+00
    outer loop
      vertex   -6.889127e+00 1.000000e+00 9.000000e+00
      vertex   -6.879174e+00 1.063473e+00 9.000000e+00
      vertex   -7.000000e+00 1.000000e+00 9.000000e+00
    endloop
  endfacet
  facet normal 0.000000e+00 0.000000e+00 1.000000e+00
    outer loop
      vertex   -7.000000e+00 1.000000e+00 9.000000e+00
      vertex   -6.879174e+00 1.063473e+00 9.000000e+00
      vertex   -6.868611e+00 1.126835e+00 9.000000e+00
    endloop
  endfacet
  facet normal -3.006542e-14 -2.228424e-14 1.000000e+00
    outer loop
      vertex   -6.845663e+00 1.253212e+00 9.000000e+00
      vertex   -6.833279e+00 1.316218e+00 9.000000e+00
      vertex   -7.000000e+00 1.541154e+00 9.000000e+00
    endloop
  endfacet
  facet normal 0.000000e+00 -0.000000e+00 1.000000e+00
    outer loop
      vertex   -6.729730e+00 1.753476e+00 9.000000e+00
      vertex   -6.712541e+00 1.815351e+00 9.000000e+00
      vertex   -6.877558e+00 2.000000e+00 9.000000e+00
    endloop
  endfacet
  facet normal 0.000000e+00 0.000000e+00 1.000000e+00
    outer loop
      vertex   -6.877558e+00 2.000000e+00 9.000000e+00
      vertex   -6.712541e+00 1.815351e+00 9.000000e+00
      vertex   -6.694757e+00 1.877066e+00 9.000000e+00
    endloop
  endfacet
  facet normal 0.000000e+00 0.000000e+00 1.000000e+00
    outer loop
      vertex   -6.877558e+00 2.000000e+00 9.000000e+00
      vertex   -6.694757e+00 1.877066e+00 9.000000e+00
      vertex   -6.676379e+00 1.938617e+00 9.000000e+00
    endloop
  endfacet
  facet normal 0.000000e+00 -0.000000e+00 1.000000e+00
    outer loop
      vertex   -6.676379e+00 1.938617e+00 9.000000e+00
      vertex   -6.657407e+00 2.000000e+00 9.000000e+00
      vertex   -6.877558e+00 2.000000e+00 9.000000e+00
    endloop
  endfacet
  facet normal -1.000000e+00 -0.000000e+00 0.000000e+00
    outer loop
      vertex   -7.000000e+00 1.598828e+00 8.988810e+00
      vertex   -7.000000e+00 1.314898e+00 8.862884e+00
      vertex   -7.000000e+00 1.541154e+00 9.000000e+00
    endloop
  endfacet
  facet normal -1.000000e+00 0.000000e+00 0.000000e+00
    outer loop
      vertex   -7.000000e+00 1.541154e+00 9.000000e+00
      vertex   -7.000000e+00 1.314898e+00 8.862884e+00
      vertex   -7.000000e+00 1.252059e+00 8.873006e+00
    endloop
  endfacet
  facet normal -1.000000e+00 -3.141147e-14 7.150648e-14
    outer loop
      vertex   -7.000000e+00 1.541154e+00 9.000000e+00
      vertex   -7.000000e+00 1.252059e+00 8.873006e+00
      vertex   -7.000000e+00 1.189147e+00 8.882633e+00
    endloop
  endfacet
  facet normal -1.000000e+00 0.000000e+00 -0.000000e+00
    outer loop
      vertex   -7.000000e+00 1.598828e+00 8.988810e+00
      vertex   -7.000000e+00 1.656416e+00 8.977212e+00
      vertex   -7.000000e+00 1.314898e+00 8.862884e+00
    endloop
  endfacet
  facet normal -1.000000e+00 1.880166e-14 -5.616383e-14
    outer loop
      vertex   -7.000000e+00 1.314898e+00 8.862884e+00
      vertex   -7.000000e+00 1.656416e+00 8.977212e+00
      vertex   -7.000000e+00 1.377662e+00 8.852267e+00
    endloop
  endfacet
  facet normal -1.000000e+00 -2.025107e-15 -9.699055e-15
    outer loop
      vertex   -7.000000e+00 1.377662e+00 8.852267e+00
      vertex   -7.000000e+00 1.656416e+00 8.977212e+00
      vertex   -7.000000e+00 1.713914e+00 8.965206e+00
    endloop
  endfacet
  facet normal -1.000000e+00 -1.824909e-15 -1.029510e-14
    outer loop
      vertex   -7.000000e+00 1.377662e+00 8.852267e+00
      vertex   -7.000000e+00 1.713914e+00 8.965206e+00
      vertex   -7.000000e+00 1.440347e+00 8.841155e+00
    endloop
  endfacet
  facet normal -1.000000e+00 -2.096418e-15 -9.696347e-15
    outer loop
      vertex   -7.000000e+00 1.440347e+00 8.841155e+00
      vertex   -7.000000e+00 1.713914e+00 8.965206e+00
      vertex   -7.000000e+00 1.771321e+00 8.952795e+00
    endloop
  endfacet
  facet normal -1.000000e+00 -1.903516e-15 -1.026824e-14
    outer loop
      vertex   -7.000000e+00 1.440347e+00 8.841155e+00
      vertex   -7.000000e+00 1.771321e+00 8.952795e+00
      vertex   -7.000000e+00 1.502951e+00 8.829549e+00
    endloop
  endfacet
  facet normal -1.000000e+00 -2.167715e-15 -9.692937e-15
    outer loop
      vertex   -7.000000e+00 1.502951e+00 8.829549e+00
      vertex   -7.000000e+00 1.771321e+00 8.952795e+00
      vertex   -7.000000e+00 1.828635e+00 8.939977e+00
    endloop
  endfacet
  facet normal -1.000000e+00 -1.981851e-15 -1.024110e-14
    outer loop
      vertex   -7.000000e+00 1.502951e+00 8.829549e+00
      vertex   -7.000000e+00 1.828635e+00 8.939977e+00
      vertex   -7.000000e+00 1.565469e+00 8.817451e+00
    endloop
  endfacet
  facet normal -1.000000e+00 1.850811e-14 -5.425023e-14
    outer loop
      vertex   -7.000000e+00 1.565469e+00 8.817451e+00
      vertex   -7.000000e+00 1.828635e+00 8.939977e+00
      vertex   -7.000000e+00 1.885854e+00 8.926754e+00
    endloop
  endfacet
  facet normal -1.000000e+00 0.000000e+00 0.000000e+00
    outer loop
      vertex   -7.000000e+00 1.565469e+00 8.817451e+00
      vertex   -7.000000e+00 1.885854e+00 8.926754e+00
      vertex   -7.000000e+00 1.627882e+00 8.804864e+00
    endloop
  endfacet
  facet normal -1.000000e+00 -2.066414e-14 4.373393e-14
    outer loop
      vertex   -7.000000e+00 1.627882e+00 8.804864e+00
      vertex   -7.000000e+00 1.885854e+00 8.926754e+00
      vertex   -7.000000e+00 1.942976e+00 8.913127e+00
    endloop
  endfacet
  facet normal -1.000000e+00 -1.983743e-14 4.132785e-14
    outer loop
      vertex   -7.000000e+00 1.627882e+00 8.804864e+00
      vertex   -7.000000e+00 1.942976e+00 8.913127e+00
      vertex   -7.000000e+00 1.690187e+00 8.791788e+00
    endloop
  endfacet
  facet normal -1.000000e+00 0.000000e+00 0.000000e+00
    outer loop
      vertex   -7.000000e+00 1.690187e+00 8.791788e+00
      vertex   -7.000000e+00 1.942976e+00 8.913127e+00
      vertex   -7.000000e+00 2.000000e+00 8.899096e+00
    endloop
  endfacet
  facet normal -1.000000e+00 2.629015e-14 -7.590313e-14
    outer loop
      vertex   -7.000000e+00 1.690187e+00 8.791788e+00
      vertex   -7.000000e+00 2.000000e+00 8.899096e+00
      vertex   -7.000000e+00 1.752382e+00 8.778225e+00
    endloop
  endfacet
  facet normal -1.000000e+00 -3.273378e-14 4.501465e-14
    outer loop
      vertex   -7.000000e+00 1.752382e+00 8.778225e+00
      vertex   -7.000000e+00 2.000000e+00 8.899096e+00
      vertex   -7.000000e+00 1.814463e+00 8.764177e+00
    endloop
  endfacet
  facet normal -1.000000e+00 3.251359e-14 -4.471185e-14
    outer loop
      vertex   -7.000000e+00 1.814463e+00 8.764177e+00
      vertex   -7.000000e+00 2.000000e+00 8.899096e+00
      vertex   -7.000000e+00 1.876428e+00 8.749643e+00
    endloop
  endfacet
  facet normal -1.000000e+00 -3.948463e-14 1.481854e-14
    outer loop
      vertex   -7.000000e+00 1.876428e+00 8.749643e+00
      vertex   -7.000000e+00 2.000000e+00 8.899096e+00
      vertex   -7.000000e+00 1.938274e+00 8.734625e+00
    endloop
  endfacet
  facet normal -1.000000e+00 0.000000e+00 0.000000e+00
    outer loop
      vertex   -7.000000e+00 1.938274e+00 8.734625e+00
      vertex   -7.000000e+00 2.000000e+00 8.899096e+00
      vertex   -7.000000e+00 2.000000e+00 8.719124e+00
    endloop
  endfacet
  facet normal -1.000000e+00 2.719163e-14 -1.042555e-13
    outer loop
      vertex   -7.000000e+00 1.189147e+00 8.882633e+00
      vertex   -7.000000e+00 1.126165e+00 8.891764e+00
      vertex   -7.000000e+00 1.541154e+00 9.000000e+00
    endloop
  endfacet
  facet normal -1.000000e+00 -0.000000e+00 0.000000e+00
    outer loop
      vertex   -7.000000e+00 1.541154e+00 9.000000e+00
      vertex   -7.000000e+00 1.126165e+00 8.891764e+00
      vertex   -7.000000e+00 1.000000e+00 9.000000e+00
    endloop
  endfacet
  facet normal -1.000000e+00 0.000000e+00 0.000000e+00
    outer loop
      vertex   -7.000000e+00 1.000000e+00 9.000000e+00
      vertex   -7.000000e+00 1.126165e+00 8.891764e+00
      vertex   -7.000000e+00 1.063115e+00 8.900398e+00
    endloop
  endfacet
  facet normal -1.000000e+00 0.000000e+00 0.000000e+00
    outer loop
      vertex   -7.000000e+00 1.000000e+00 9.000000e+00
      vertex   -7.000000e+00 1.063115e+00 8.900398e+00
      vertex   -7.000000e+00 1.000000e+00 8.908536e+00
    endloop
  endfacet
endsolid
