solid ASCII
  facet normal 3.517942e-01 9.210392e-01 -1.671159e-01
    outer loop
      vertex   4.000000e+00 1.015894e+01 -2.000000e+00
      vertex   4.100308e+00 1.012063e+01 -2.000000e+00
      vertex   4.000000e+00 1.014183e+01 -2.094298e+00
    endloop
  endfacet
  facet normal 3.520022e-01 9.209144e-01 -1.673652e-01
    outer loop
      vertex   4.000000e+00 1.014183e+01 -2.094298e+00
      vertex   4.100308e+00 1.012063e+01 -2.000000e+00
      vertex   4.094310e+00 1.010594e+01 -2.093449e+00
    endloop
  endfacet
  facet normal 3.515884e-01 9.196457e-01 -1.750352e-01
    outer loop
      vertex   4.000000e+00 1.014183e+01 -2.094298e+00
      vertex   4.094310e+00 1.010594e+01 -2.093449e+00
      vertex   4.088024e+00 1.009053e+01 -2.186996e+00
    endloop
  endfacet
  facet normal 3.600285e-01 9.163692e-01 -1.750629e-01
    outer loop
      vertex   4.088024e+00 1.009053e+01 -2.186996e+00
      vertex   4.094310e+00 1.010594e+01 -2.093449e+00
      vertex   4.187590e+00 1.005142e+01 -2.186996e+00
    endloop
  endfacet
  facet normal 3.595181e-01 9.150701e-01 -1.827386e-01
    outer loop
      vertex   4.088024e+00 1.009053e+01 -2.186996e+00
      vertex   4.187590e+00 1.005142e+01 -2.186996e+00
      vertex   4.180822e+00 1.003538e+01 -2.280632e+00
    endloop
  endfacet
  facet normal 3.679138e-01 9.117203e-01 -1.827716e-01
    outer loop
      vertex   4.180822e+00 1.003538e+01 -2.280632e+00
      vertex   4.187590e+00 1.005142e+01 -2.186996e+00
      vertex   4.264356e+00 1.000000e+01 -2.288946e+00
    endloop
  endfacet
  facet normal 3.671104e-01 9.110141e-01 -1.878386e-01
    outer loop
      vertex   4.180822e+00 1.003538e+01 -2.280632e+00
      vertex   4.264356e+00 1.000000e+01 -2.288946e+00
      vertex   4.240144e+00 1.000000e+01 -2.336265e+00
    endloop
  endfacet
  facet normal 3.605210e-01 9.176080e-01 -1.673922e-01
    outer loop
      vertex   4.094310e+00 1.010594e+01 -2.093449e+00
      vertex   4.100308e+00 1.012063e+01 -2.000000e+00
      vertex   4.194062e+00 1.006674e+01 -2.093449e+00
    endloop
  endfacet
  facet normal 3.605263e-01 9.176070e-01 -1.673863e-01
    outer loop
      vertex   4.194062e+00 1.006674e+01 -2.093449e+00
      vertex   4.100308e+00 1.012063e+01 -2.000000e+00
      vertex   4.200238e+00 1.008136e+01 -2.000000e+00
    endloop
  endfacet
  facet normal 3.692356e-01 9.141314e-01 -1.674182e-01
    outer loop
      vertex   4.194062e+00 1.006674e+01 -2.093449e+00
      vertex   4.200238e+00 1.008136e+01 -2.000000e+00
      vertex   4.293435e+00 1.002660e+01 -2.093449e+00
    endloop
  endfacet
  facet normal 3.692439e-01 9.141298e-01 -1.674090e-01
    outer loop
      vertex   4.293435e+00 1.002660e+01 -2.093449e+00
      vertex   4.200238e+00 1.008136e+01 -2.000000e+00
      vertex   4.299784e+00 1.004115e+01 -2.000000e+00
    endloop
  endfacet
  facet normal 3.761794e-01 9.112922e-01 -1.674384e-01
    outer loop
      vertex   4.293435e+00 1.002660e+01 -2.093449e+00
      vertex   4.299784e+00 1.004115e+01 -2.000000e+00
      vertex   4.377788e+00 1.000000e+01 -2.048735e+00
    endloop
  endfacet
  facet normal 3.781450e-01 9.110831e-01 -1.641157e-01
    outer loop
      vertex   4.377788e+00 1.000000e+01 -2.048735e+00
      vertex   4.299784e+00 1.004115e+01 -2.000000e+00
      vertex   4.398938e+00 1.000000e+01 -2.000000e+00
    endloop
  endfacet
  facet normal 3.764694e-01 9.110445e-01 -1.681329e-01
    outer loop
      vertex   4.377788e+00 1.000000e+01 -2.048735e+00
      vertex   4.356123e+00 1.000000e+01 -2.097244e+00
      vertex   4.293435e+00 1.002660e+01 -2.093449e+00
    endloop
  endfacet
  facet normal 3.759282e-01 9.104177e-01 -1.726775e-01
    outer loop
      vertex   4.293435e+00 1.002660e+01 -2.093449e+00
      vertex   4.356123e+00 1.000000e+01 -2.097244e+00
      vertex   4.333946e+00 1.000000e+01 -2.145525e+00
    endloop
  endfacet
  facet normal 3.732355e-01 9.110624e-01 -1.751015e-01
    outer loop
      vertex   4.293435e+00 1.002660e+01 -2.093449e+00
      vertex   4.333946e+00 1.000000e+01 -2.145525e+00
      vertex   4.286784e+00 1.001135e+01 -2.186996e+00
    endloop
  endfacet
  facet normal 3.745828e-01 9.101656e-01 -1.768792e-01
    outer loop
      vertex   4.286784e+00 1.001135e+01 -2.186996e+00
      vertex   4.333946e+00 1.000000e+01 -2.145525e+00
      vertex   4.311258e+00 1.000000e+01 -2.193572e+00
    endloop
  endfacet
  facet normal 3.732984e-01 9.098576e-01 -1.811281e-01
    outer loop
      vertex   4.286784e+00 1.001135e+01 -2.186996e+00
      vertex   4.311258e+00 1.000000e+01 -2.193572e+00
      vertex   4.288061e+00 1.000000e+01 -2.241380e+00
    endloop
  endfacet
  facet normal 3.651432e-01 9.129928e-01 -1.819739e-01
    outer loop
      vertex   4.288061e+00 1.000000e+01 -2.241380e+00
      vertex   4.264356e+00 1.000000e+01 -2.288946e+00
      vertex   4.286784e+00 1.001135e+01 -2.186996e+00
    endloop
  endfacet
  facet normal 3.682241e-01 9.116491e-01 -1.825020e-01
    outer loop
      vertex   4.286784e+00 1.001135e+01 -2.186996e+00
      vertex   4.264356e+00 1.000000e+01 -2.288946e+00
      vertex   4.187590e+00 1.005142e+01 -2.186996e+00
    endloop
  endfacet
  facet normal 3.687285e-01 9.128980e-01 -1.750899e-01
    outer loop
      vertex   4.286784e+00 1.001135e+01 -2.186996e+00
      vertex   4.187590e+00 1.005142e+01 -2.186996e+00
      vertex   4.194062e+00 1.006674e+01 -2.093449e+00
    endloop
  endfacet
  facet normal 3.600338e-01 9.163682e-01 -1.750570e-01
    outer loop
      vertex   4.194062e+00 1.006674e+01 -2.093449e+00
      vertex   4.187590e+00 1.005142e+01 -2.186996e+00
      vertex   4.094310e+00 1.010594e+01 -2.093449e+00
    endloop
  endfacet
  facet normal 3.665142e-01 9.111102e-01 -1.885354e-01
    outer loop
      vertex   4.180822e+00 1.003538e+01 -2.280632e+00
      vertex   4.240144e+00 1.000000e+01 -2.336265e+00
      vertex   4.177326e+00 1.002709e+01 -2.327481e+00
    endloop
  endfacet
  facet normal 3.658154e-01 9.106461e-01 -1.921010e-01
    outer loop
      vertex   4.177326e+00 1.002709e+01 -2.327481e+00
      vertex   4.240144e+00 1.000000e+01 -2.336265e+00
      vertex   4.215427e+00 1.000000e+01 -2.383333e+00
    endloop
  endfacet
  facet normal 3.654626e-01 9.107285e-01 -1.923816e-01
    outer loop
      vertex   4.177326e+00 1.002709e+01 -2.327481e+00
      vertex   4.215427e+00 1.000000e+01 -2.383333e+00
      vertex   4.173756e+00 1.001862e+01 -2.374348e+00
    endloop
  endfacet
  facet normal 3.644475e-01 9.103141e-01 -1.962302e-01
    outer loop
      vertex   4.173756e+00 1.001862e+01 -2.374348e+00
      vertex   4.215427e+00 1.000000e+01 -2.383333e+00
      vertex   4.170111e+00 1.000997e+01 -2.421232e+00
    endloop
  endfacet
  facet normal 3.585581e-01 9.126555e-01 -1.962041e-01
    outer loop
      vertex   4.173756e+00 1.001862e+01 -2.374348e+00
      vertex   4.170111e+00 1.000997e+01 -2.421232e+00
      vertex   4.074583e+00 1.005758e+01 -2.374348e+00
    endloop
  endfacet
  facet normal 3.585552e-01 9.126554e-01 -1.962099e-01
    outer loop
      vertex   4.074583e+00 1.005758e+01 -2.374348e+00
      vertex   4.170111e+00 1.000997e+01 -2.421232e+00
      vertex   4.071041e+00 1.004889e+01 -2.421232e+00
    endloop
  endfacet
  facet normal 3.510087e-01 9.155899e-01 -1.961835e-01
    outer loop
      vertex   4.074583e+00 1.005758e+01 -2.374348e+00
      vertex   4.071041e+00 1.004889e+01 -2.421232e+00
      vertex   4.000000e+00 1.008577e+01 -2.376255e+00
    endloop
  endfacet
  facet normal 3.498162e-01 9.156331e-01 -1.981025e-01
    outer loop
      vertex   4.000000e+00 1.008577e+01 -2.376255e+00
      vertex   4.071041e+00 1.004889e+01 -2.421232e+00
      vertex   4.000000e+00 1.006550e+01 -2.469911e+00
    endloop
  endfacet
  facet normal 3.509426e-01 9.147811e-01 -2.000371e-01
    outer loop
      vertex   4.000000e+00 1.006550e+01 -2.469911e+00
      vertex   4.071041e+00 1.004889e+01 -2.421232e+00
      vertex   4.067425e+00 1.004003e+01 -2.468133e+00
    endloop
  endfacet
  facet normal 3.507503e-01 9.140033e-01 -2.038924e-01
    outer loop
      vertex   4.000000e+00 1.006550e+01 -2.469911e+00
      vertex   4.067425e+00 1.004003e+01 -2.468133e+00
      vertex   4.063736e+00 1.003098e+01 -2.515049e+00
    endloop
  endfacet
  facet normal 3.571508e-01 9.115161e-01 -2.039160e-01
    outer loop
      vertex   4.063736e+00 1.003098e+01 -2.515049e+00
      vertex   4.067425e+00 1.004003e+01 -2.468133e+00
      vertex   4.138274e+00 1.000000e+01 -2.522961e+00
    endloop
  endfacet
  facet normal 3.566077e-01 9.110163e-01 -2.070756e-01
    outer loop
      vertex   4.063736e+00 1.003098e+01 -2.515049e+00
      vertex   4.138274e+00 1.000000e+01 -2.522961e+00
      vertex   4.111579e+00 1.000000e+01 -2.568934e+00
    endloop
  endfacet
  facet normal 3.645890e-01 9.102153e-01 -1.964253e-01
    outer loop
      vertex   4.215427e+00 1.000000e+01 -2.383333e+00
      vertex   4.190207e+00 1.000000e+01 -2.430145e+00
      vertex   4.170111e+00 1.000997e+01 -2.421232e+00
    endloop
  endfacet
  facet normal 3.629073e-01 9.100916e-01 -2.000787e-01
    outer loop
      vertex   4.170111e+00 1.000997e+01 -2.421232e+00
      vertex   4.190207e+00 1.000000e+01 -2.430145e+00
      vertex   4.166391e+00 1.000115e+01 -2.468133e+00
    endloop
  endfacet
  facet normal 3.582708e-01 9.119315e-01 -2.000572e-01
    outer loop
      vertex   4.170111e+00 1.000997e+01 -2.421232e+00
      vertex   4.166391e+00 1.000115e+01 -2.468133e+00
      vertex   4.071041e+00 1.004889e+01 -2.421232e+00
    endloop
  endfacet
  facet normal 3.582679e-01 9.119314e-01 -2.000630e-01
    outer loop
      vertex   4.071041e+00 1.004889e+01 -2.421232e+00
      vertex   4.166391e+00 1.000115e+01 -2.468133e+00
      vertex   4.067425e+00 1.004003e+01 -2.468133e+00
    endloop
  endfacet
  facet normal 3.678418e-01 9.074032e-01 -2.032533e-01
    outer loop
      vertex   4.190207e+00 1.000000e+01 -2.430145e+00
      vertex   4.164485e+00 1.000000e+01 -2.476695e+00
      vertex   4.166391e+00 1.000115e+01 -2.468133e+00
    endloop
  endfacet
  facet normal 3.550544e-01 9.129488e-01 -2.011489e-01
    outer loop
      vertex   4.166391e+00 1.000115e+01 -2.468133e+00
      vertex   4.164485e+00 1.000000e+01 -2.476695e+00
      vertex   4.138274e+00 1.000000e+01 -2.522961e+00
    endloop
  endfacet
  facet normal 3.580723e-01 9.114336e-01 -2.026649e-01
    outer loop
      vertex   4.166391e+00 1.000115e+01 -2.468133e+00
      vertex   4.138274e+00 1.000000e+01 -2.522961e+00
      vertex   4.067425e+00 1.004003e+01 -2.468133e+00
    endloop
  endfacet
  facet normal 3.559015e-01 9.111342e-01 -2.077704e-01
    outer loop
      vertex   4.063736e+00 1.003098e+01 -2.515049e+00
      vertex   4.111579e+00 1.000000e+01 -2.568934e+00
      vertex   4.059973e+00 1.002174e+01 -2.561978e+00
    endloop
  endfacet
  facet normal 3.551902e-01 9.105895e-01 -2.113449e-01
    outer loop
      vertex   4.059973e+00 1.002174e+01 -2.561978e+00
      vertex   4.111579e+00 1.000000e+01 -2.568934e+00
      vertex   4.084401e+00 1.000000e+01 -2.614609e+00
    endloop
  endfacet
  facet normal 3.546961e-01 9.107166e-01 -2.116268e-01
    outer loop
      vertex   4.059973e+00 1.002174e+01 -2.561978e+00
      vertex   4.084401e+00 1.000000e+01 -2.614609e+00
      vertex   4.056137e+00 1.001233e+01 -2.608920e+00
    endloop
  endfacet
  facet normal 3.536945e-01 9.102012e-01 -2.154856e-01
    outer loop
      vertex   4.056137e+00 1.001233e+01 -2.608920e+00
      vertex   4.084401e+00 1.000000e+01 -2.614609e+00
      vertex   4.052227e+00 1.000273e+01 -2.655873e+00
    endloop
  endfacet
  facet normal 3.504318e-01 9.114654e-01 -2.154723e-01
    outer loop
      vertex   4.056137e+00 1.001233e+01 -2.608920e+00
      vertex   4.052227e+00 1.000273e+01 -2.655873e+00
      vertex   4.000000e+00 1.002262e+01 -2.656692e+00
    endloop
  endfacet
  facet normal 3.502127e-01 9.107523e-01 -2.188179e-01
    outer loop
      vertex   4.000000e+00 1.002262e+01 -2.656692e+00
      vertex   4.052227e+00 1.000273e+01 -2.655873e+00
      vertex   4.028610e+00 1.000000e+01 -2.705049e+00
    endloop
  endfacet
  facet normal 3.464244e-01 9.115670e-01 -2.214402e-01
    outer loop
      vertex   4.000000e+00 1.002262e+01 -2.656692e+00
      vertex   4.028610e+00 1.000000e+01 -2.705049e+00
      vertex   4.000000e+00 1.000000e+01 -2.749807e+00
    endloop
  endfacet
  facet normal 3.542134e-01 9.098987e-01 -2.159102e-01
    outer loop
      vertex   4.084401e+00 1.000000e+01 -2.614609e+00
      vertex   4.056744e+00 1.000000e+01 -2.659982e+00
      vertex   4.052227e+00 1.000273e+01 -2.655873e+00
    endloop
  endfacet
  facet normal 3.513071e-01 9.102115e-01 -2.193134e-01
    outer loop
      vertex   4.052227e+00 1.000273e+01 -2.655873e+00
      vertex   4.056744e+00 1.000000e+01 -2.659982e+00
      vertex   4.028610e+00 1.000000e+01 -2.705049e+00
    endloop
  endfacet
  facet normal 3.489765e-01 9.124770e-01 -2.135443e-01
    outer loop
      vertex   4.000000e+00 1.002262e+01 -2.656692e+00
      vertex   4.000000e+00 1.004445e+01 -2.563391e+00
      vertex   4.056137e+00 1.001233e+01 -2.608920e+00
    endloop
  endfacet
  facet normal 3.504746e-01 9.123534e-01 -2.116100e-01
    outer loop
      vertex   4.056137e+00 1.001233e+01 -2.608920e+00
      vertex   4.000000e+00 1.004445e+01 -2.563391e+00
      vertex   4.059973e+00 1.002174e+01 -2.561978e+00
    endloop
  endfacet
  facet normal 3.506883e-01 9.131580e-01 -2.077505e-01
    outer loop
      vertex   4.059973e+00 1.002174e+01 -2.561978e+00
      vertex   4.000000e+00 1.004445e+01 -2.563391e+00
      vertex   4.063736e+00 1.003098e+01 -2.515049e+00
    endloop
  endfacet
  facet normal 3.494225e-01 9.140788e-01 -2.058250e-01
    outer loop
      vertex   4.063736e+00 1.003098e+01 -2.515049e+00
      vertex   4.000000e+00 1.004445e+01 -2.563391e+00
      vertex   4.000000e+00 1.006550e+01 -2.469911e+00
    endloop
  endfacet
  facet normal 3.511922e-01 9.163363e-01 -1.923327e-01
    outer loop
      vertex   4.074583e+00 1.005758e+01 -2.374348e+00
      vertex   4.000000e+00 1.008577e+01 -2.376255e+00
      vertex   4.078053e+00 1.006609e+01 -2.327481e+00
    endloop
  endfacet
  facet normal 3.501708e-01 9.171355e-01 -1.903758e-01
    outer loop
      vertex   4.078053e+00 1.006609e+01 -2.327481e+00
      vertex   4.000000e+00 1.008577e+01 -2.376255e+00
      vertex   4.000000e+00 1.010524e+01 -2.282431e+00
    endloop
  endfacet
  facet normal 3.512515e-01 9.171130e-01 -1.884838e-01
    outer loop
      vertex   4.078053e+00 1.006609e+01 -2.327481e+00
      vertex   4.000000e+00 1.010524e+01 -2.282431e+00
      vertex   4.081449e+00 1.007442e+01 -2.280632e+00
    endloop
  endfacet
  facet normal 3.515328e-01 9.182013e-01 -1.825681e-01
    outer loop
      vertex   4.081449e+00 1.007442e+01 -2.280632e+00
      vertex   4.000000e+00 1.010524e+01 -2.282431e+00
      vertex   4.000000e+00 1.012393e+01 -2.188443e+00
    endloop
  endfacet
  facet normal 3.513813e-01 9.182296e-01 -1.827171e-01
    outer loop
      vertex   4.081449e+00 1.007442e+01 -2.280632e+00
      vertex   4.000000e+00 1.012393e+01 -2.188443e+00
      vertex   4.088024e+00 1.009053e+01 -2.186996e+00
    endloop
  endfacet
  facet normal 3.517760e-01 9.196115e-01 -1.748381e-01
    outer loop
      vertex   4.088024e+00 1.009053e+01 -2.186996e+00
      vertex   4.000000e+00 1.012393e+01 -2.188443e+00
      vertex   4.000000e+00 1.014183e+01 -2.094298e+00
    endloop
  endfacet
  facet normal 3.595128e-01 9.150710e-01 -1.827445e-01
    outer loop
      vertex   4.088024e+00 1.009053e+01 -2.186996e+00
      vertex   4.180822e+00 1.003538e+01 -2.280632e+00
      vertex   4.081449e+00 1.007442e+01 -2.280632e+00
    endloop
  endfacet
  facet normal 3.591149e-01 9.140582e-01 -1.885049e-01
    outer loop
      vertex   4.081449e+00 1.007442e+01 -2.280632e+00
      vertex   4.180822e+00 1.003538e+01 -2.280632e+00
      vertex   4.177326e+00 1.002709e+01 -2.327481e+00
    endloop
  endfacet
  facet normal 3.591120e-01 9.140581e-01 -1.885107e-01
    outer loop
      vertex   4.081449e+00 1.007442e+01 -2.280632e+00
      vertex   4.177326e+00 1.002709e+01 -2.327481e+00
      vertex   4.078053e+00 1.006609e+01 -2.327481e+00
    endloop
  endfacet
  facet normal 3.588394e-01 9.133644e-01 -1.923533e-01
    outer loop
      vertex   4.078053e+00 1.006609e+01 -2.327481e+00
      vertex   4.177326e+00 1.002709e+01 -2.327481e+00
      vertex   4.173756e+00 1.001862e+01 -2.374348e+00
    endloop
  endfacet
  facet normal 3.588365e-01 9.133643e-01 -1.923591e-01
    outer loop
      vertex   4.078053e+00 1.006609e+01 -2.327481e+00
      vertex   4.173756e+00 1.001862e+01 -2.374348e+00
      vertex   4.074583e+00 1.005758e+01 -2.374348e+00
    endloop
  endfacet
  facet normal 3.687368e-01 9.128964e-01 -1.750808e-01
    outer loop
      vertex   4.286784e+00 1.001135e+01 -2.186996e+00
      vertex   4.194062e+00 1.006674e+01 -2.093449e+00
      vertex   4.293435e+00 1.002660e+01 -2.093449e+00
    endloop
  endfacet
  facet normal -3.530650e-01 -9.203677e-01 1.681318e-01
    outer loop
      vertex   4.032788e+00 1.000000e+01 -2.000000e+00
      vertex   4.000000e+00 1.001258e+01 -2.000000e+00
      vertex   4.000000e+00 1.000000e+01 -2.068852e+00
    endloop
  endfacet
  facet normal -2.364986e-10 -1.000000e+00 0.000000e+00
    outer loop
      vertex   4.000000e+00 1.000000e+01 -2.749807e+00
      vertex   4.028610e+00 1.000000e+01 -2.705049e+00
      vertex   4.000000e+00 1.000000e+01 -2.068852e+00
    endloop
  endfacet
  facet normal -5.835839e-10 -1.000000e+00 -1.560836e-11
    outer loop
      vertex   4.000000e+00 1.000000e+01 -2.068852e+00
      vertex   4.028610e+00 1.000000e+01 -2.705049e+00
      vertex   4.056744e+00 1.000000e+01 -2.659982e+00
    endloop
  endfacet
  facet normal -7.666512e-10 -1.000000e+00 -3.318151e-11
    outer loop
      vertex   4.000000e+00 1.000000e+01 -2.068852e+00
      vertex   4.056744e+00 1.000000e+01 -2.659982e+00
      vertex   4.084401e+00 1.000000e+01 -2.614609e+00
    endloop
  endfacet
  facet normal -8.011706e-10 -1.000000e+00 -3.851994e-11
    outer loop
      vertex   4.084401e+00 1.000000e+01 -2.614609e+00
      vertex   4.111579e+00 1.000000e+01 -2.568934e+00
      vertex   4.000000e+00 1.000000e+01 -2.068852e+00
    endloop
  endfacet
  facet normal -7.045934e-10 -1.000000e+00 -1.697152e-11
    outer loop
      vertex   4.000000e+00 1.000000e+01 -2.068852e+00
      vertex   4.111579e+00 1.000000e+01 -2.568934e+00
      vertex   4.138274e+00 1.000000e+01 -2.522961e+00
    endloop
  endfacet
  facet normal -4.967278e-10 -1.000000e+00 4.632267e-11
    outer loop
      vertex   4.000000e+00 1.000000e+01 -2.068852e+00
      vertex   4.138274e+00 1.000000e+01 -2.522961e+00
      vertex   4.164485e+00 1.000000e+01 -2.476695e+00
    endloop
  endfacet
  facet normal -2.474661e-10 -1.000000e+00 1.468514e-10
    outer loop
      vertex   4.164485e+00 1.000000e+01 -2.476695e+00
      vertex   4.190207e+00 1.000000e+01 -2.430145e+00
      vertex   4.000000e+00 1.000000e+01 -2.068852e+00
    endloop
  endfacet
  facet normal -1.282161e-10 -1.000000e+00 2.096320e-10
    outer loop
      vertex   4.000000e+00 1.000000e+01 -2.068852e+00
      vertex   4.190207e+00 1.000000e+01 -2.430145e+00
      vertex   4.215427e+00 1.000000e+01 -2.383333e+00
    endloop
  endfacet
  facet normal -2.561619e-10 -1.000000e+00 1.219859e-10
    outer loop
      vertex   4.000000e+00 1.000000e+01 -2.068852e+00
      vertex   4.215427e+00 1.000000e+01 -2.383333e+00
      vertex   4.032788e+00 1.000000e+01 -2.000000e+00
    endloop
  endfacet
  facet normal -1.289145e-11 -1.000000e+00 2.378924e-10
    outer loop
      vertex   4.032788e+00 1.000000e+01 -2.000000e+00
      vertex   4.215427e+00 1.000000e+01 -2.383333e+00
      vertex   4.240144e+00 1.000000e+01 -2.336265e+00
    endloop
  endfacet
  facet normal 4.086336e-11 -1.000000e+00 2.710400e-10
    outer loop
      vertex   4.032788e+00 1.000000e+01 -2.000000e+00
      vertex   4.240144e+00 1.000000e+01 -2.336265e+00
      vertex   4.264356e+00 1.000000e+01 -2.288946e+00
    endloop
  endfacet
  facet normal 6.577287e-11 -1.000000e+00 2.910030e-10
    outer loop
      vertex   4.264356e+00 1.000000e+01 -2.288946e+00
      vertex   4.288061e+00 1.000000e+01 -2.241380e+00
      vertex   4.032788e+00 1.000000e+01 -2.000000e+00
    endloop
  endfacet
  facet normal 6.844790e-11 -1.000000e+00 2.938320e-10
    outer loop
      vertex   4.032788e+00 1.000000e+01 -2.000000e+00
      vertex   4.288061e+00 1.000000e+01 -2.241380e+00
      vertex   4.311258e+00 1.000000e+01 -2.193572e+00
    endloop
  endfacet
  facet normal 5.585643e-11 -1.000000e+00 2.757180e-10
    outer loop
      vertex   4.032788e+00 1.000000e+01 -2.000000e+00
      vertex   4.311258e+00 1.000000e+01 -2.193572e+00
      vertex   4.333946e+00 1.000000e+01 -2.145525e+00
    endloop
  endfacet
  facet normal 3.533863e-11 -1.000000e+00 2.332573e-10
    outer loop
      vertex   4.333946e+00 1.000000e+01 -2.145525e+00
      vertex   4.356123e+00 1.000000e+01 -2.097244e+00
      vertex   4.032788e+00 1.000000e+01 -2.000000e+00
    endloop
  endfacet
  facet normal 1.421243e-11 -1.000000e+00 1.630133e-10
    outer loop
      vertex   4.032788e+00 1.000000e+01 -2.000000e+00
      vertex   4.356123e+00 1.000000e+01 -2.097244e+00
      vertex   4.377788e+00 1.000000e+01 -2.048735e+00
    endloop
  endfacet
  facet normal 0.000000e+00 -1.000000e+00 6.240159e-11
    outer loop
      vertex   4.032788e+00 1.000000e+01 -2.000000e+00
      vertex   4.377788e+00 1.000000e+01 -2.048735e+00
      vertex   4.398938e+00 1.000000e+01 -2.000000e+00
    endloop
  endfacet
  facet normal 0.000000e+00 0.000000e+00 1.000000e+00
    outer loop
      vertex   4.398938e+00 1.000000e+01 -2.000000e+00
      vertex   4.299784e+00 1.004115e+01 -2.000000e+00
      vertex   4.032788e+00 1.000000e+01 -2.000000e+00
    endloop
  endfacet
  facet normal 0.000000e+00 0.000000e+00 1.000000e+00
    outer loop
      vertex   4.032788e+00 1.000000e+01 -2.000000e+00
      vertex   4.299784e+00 1.004115e+01 -2.000000e+00
      vertex   4.200238e+00 1.008136e+01 -2.000000e+00
    endloop
  endfacet
  facet normal 0.000000e+00 -0.000000e+00 1.000000e+00
    outer loop
      vertex   4.032788e+00 1.000000e+01 -2.000000e+00
      vertex   4.200238e+00 1.008136e+01 -2.000000e+00
      vertex   4.000000e+00 1.001258e+01 -2.000000e+00
    endloop
  endfacet
  facet normal 0.000000e+00 0.000000e+00 1.000000e+00
    outer loop
      vertex   4.000000e+00 1.001258e+01 -2.000000e+00
      vertex   4.200238e+00 1.008136e+01 -2.000000e+00
      vertex   4.100308e+00 1.012063e+01 -2.000000e+00
    endloop
  endfacet
  facet normal 0.000000e+00 0.000000e+00 1.000000e+00
    outer loop
      vertex   4.000000e+00 1.001258e+01 -2.000000e+00
      vertex   4.100308e+00 1.012063e+01 -2.000000e+00
      vertex   4.000000e+00 1.015894e+01 -2.000000e+00
    endloop
  endfacet
  facet normal -1.000000e+00 -0.000000e+00 0.000000e+00
    outer loop
      vertex   4.000000e+00 1.015894e+01 -2.000000e+00
      vertex   4.000000e+00 1.014183e+01 -2.094298e+00
      vertex   4.000000e+00 1.001258e+01 -2.000000e+00
    endloop
  endfacet
  facet normal -1.000000e+00 0.000000e+00 0.000000e+00
    outer loop
      vertex   4.000000e+00 1.001258e+01 -2.000000e+00
      vertex   4.000000e+00 1.014183e+01 -2.094298e+00
      vertex   4.000000e+00 1.012393e+01 -2.188443e+00
    endloop
  endfacet
  facet normal -1.000000e+00 0.000000e+00 0.000000e+00
    outer loop
      vertex   4.000000e+00 1.001258e+01 -2.000000e+00
      vertex   4.000000e+00 1.012393e+01 -2.188443e+00
      vertex   4.000000e+00 1.010524e+01 -2.282431e+00
    endloop
  endfacet
  facet normal -1.000000e+00 -0.000000e+00 0.000000e+00
    outer loop
      vertex   4.000000e+00 1.010524e+01 -2.282431e+00
      vertex   4.000000e+00 1.008577e+01 -2.376255e+00
      vertex   4.000000e+00 1.001258e+01 -2.000000e+00
    endloop
  endfacet
  facet normal -1.000000e+00 0.000000e+00 -0.000000e+00
    outer loop
      vertex   4.000000e+00 1.001258e+01 -2.000000e+00
      vertex   4.000000e+00 1.008577e+01 -2.376255e+00
      vertex   4.000000e+00 1.000000e+01 -2.068852e+00
    endloop
  endfacet
  facet normal -1.000000e+00 0.000000e+00 0.000000e+00
    outer loop
      vertex   4.000000e+00 1.000000e+01 -2.068852e+00
      vertex   4.000000e+00 1.008577e+01 -2.376255e+00
      vertex   4.000000e+00 1.006550e+01 -2.469911e+00
    endloop
  endfacet
  facet normal -1.000000e+00 -2.445613e-14 -3.994358e-15
    outer loop
      vertex   4.000000e+00 1.000000e+01 -2.068852e+00
      vertex   4.000000e+00 1.006550e+01 -2.469911e+00
      vertex   4.000000e+00 1.004445e+01 -2.563391e+00
    endloop
  endfacet
  facet normal -1.000000e+00 3.493325e-14 1.344211e-15
    outer loop
      vertex   4.000000e+00 1.004445e+01 -2.563391e+00
      vertex   4.000000e+00 1.002262e+01 -2.656692e+00
      vertex   4.000000e+00 1.000000e+01 -2.068852e+00
    endloop
  endfacet
  facet normal -1.000000e+00 0.000000e+00 0.000000e+00
    outer loop
      vertex   4.000000e+00 1.000000e+01 -2.068852e+00
      vertex   4.000000e+00 1.002262e+01 -2.656692e+00
      vertex   4.000000e+00 1.000000e+01 -2.749807e+00
    endloop
  endfacet
endsolid
