solid ASCII
  facet normal -2.509457e-01 9.103859e-01 -3.289737e-01
    outer loop
      vertex   -2.839165e+00 1.000000e+01 -4.000000e+00
      vertex   -2.919667e+00 9.977810e+00 -4.000000e+00
      vertex   -2.879886e+00 1.000000e+01 -3.968937e+00
    endloop
  endfacet
  facet normal -2.538517e-01 9.108093e-01 -3.255545e-01
    outer loop
      vertex   -2.879886e+00 1.000000e+01 -3.968937e+00
      vertex   -2.919667e+00 9.977810e+00 -4.000000e+00
      vertex   -2.920268e+00 1.000000e+01 -3.937450e+00
    endloop
  endfacet
  facet normal -2.549589e-01 9.105314e-01 -3.254666e-01
    outer loop
      vertex   -2.920268e+00 1.000000e+01 -3.937450e+00
      vertex   -2.919667e+00 9.977810e+00 -4.000000e+00
      vertex   -2.925721e+00 9.998765e+00 -3.936631e+00
    endloop
  endfacet
  facet normal -2.545605e-01 9.127824e-01 -3.194169e-01
    outer loop
      vertex   -2.920268e+00 1.000000e+01 -3.937450e+00
      vertex   -2.925721e+00 9.998765e+00 -3.936631e+00
      vertex   -2.960306e+00 1.000000e+01 -3.905541e+00
    endloop
  endfacet
  facet normal -2.568732e-01 9.112508e-01 -3.219288e-01
    outer loop
      vertex   -2.960306e+00 1.000000e+01 -3.905541e+00
      vertex   -2.925721e+00 9.998765e+00 -3.936631e+00
      vertex   -2.966009e+00 9.987409e+00 -3.936631e+00
    endloop
  endfacet
  facet normal -2.612558e-01 9.104082e-01 -3.207838e-01
    outer loop
      vertex   -2.960306e+00 1.000000e+01 -3.905541e+00
      vertex   -2.966009e+00 9.987409e+00 -3.936631e+00
      vertex   -3.000000e+00 1.000000e+01 -3.873213e+00
    endloop
  endfacet
  facet normal -2.602734e-01 9.108444e-01 -3.203438e-01
    outer loop
      vertex   -3.000000e+00 1.000000e+01 -3.873213e+00
      vertex   -2.966009e+00 9.987409e+00 -3.936631e+00
      vertex   -3.000000e+00 9.977682e+00 -3.936671e+00
    endloop
  endfacet
  facet normal -2.597690e-01 9.091031e-01 -3.256556e-01
    outer loop
      vertex   -3.000000e+00 9.977682e+00 -3.936671e+00
      vertex   -2.966009e+00 9.987409e+00 -3.936631e+00
      vertex   -3.000000e+00 9.954996e+00 -4.000000e+00
    endloop
  endfacet
  facet normal -2.582070e-01 9.092252e-01 -3.265559e-01
    outer loop
      vertex   -3.000000e+00 9.954996e+00 -4.000000e+00
      vertex   -2.966009e+00 9.987409e+00 -3.936631e+00
      vertex   -2.919667e+00 9.977810e+00 -4.000000e+00
    endloop
  endfacet
  facet normal -2.565444e-01 9.100846e-01 -3.254703e-01
    outer loop
      vertex   -2.919667e+00 9.977810e+00 -4.000000e+00
      vertex   -2.966009e+00 9.987409e+00 -3.936631e+00
      vertex   -2.925721e+00 9.998765e+00 -3.936631e+00
    endloop
  endfacet
  facet normal 2.607748e-01 -9.075321e-01 3.292143e-01
    outer loop
      vertex   -3.000000e+00 9.806106e+00 -4.000000e+00
      vertex   -2.904803e+00 9.833460e+00 -4.000000e+00
      vertex   -3.000000e+00 9.832005e+00 -3.928604e+00
    endloop
  endfacet
  facet normal 2.598561e-01 -9.082441e-01 3.279749e-01
    outer loop
      vertex   -3.000000e+00 9.832005e+00 -3.928604e+00
      vertex   -2.904803e+00 9.833460e+00 -4.000000e+00
      vertex   -2.895860e+00 9.861933e+00 -3.928237e+00
    endloop
  endfacet
  facet normal 2.603216e-01 -9.098057e-01 3.232434e-01
    outer loop
      vertex   -3.000000e+00 9.832005e+00 -3.928604e+00
      vertex   -2.895860e+00 9.861933e+00 -3.928237e+00
      vertex   -3.000000e+00 9.857431e+00 -3.857041e+00
    endloop
  endfacet
  facet normal 2.600197e-01 -9.100544e-01 3.227860e-01
    outer loop
      vertex   -3.000000e+00 9.857431e+00 -3.857041e+00
      vertex   -2.895860e+00 9.861933e+00 -3.928237e+00
      vertex   -2.902763e+00 9.885438e+00 -3.856406e+00
    endloop
  endfacet
  facet normal 2.605757e-01 -9.118582e-01 3.171985e-01
    outer loop
      vertex   -3.000000e+00 9.857431e+00 -3.857041e+00
      vertex   -2.902763e+00 9.885438e+00 -3.856406e+00
      vertex   -3.000000e+00 9.882382e+00 -3.785314e+00
    endloop
  endfacet
  facet normal 2.602627e-01 -9.121000e-01 3.167600e-01
    outer loop
      vertex   -3.000000e+00 9.882382e+00 -3.785314e+00
      vertex   -2.902763e+00 9.885438e+00 -3.856406e+00
      vertex   -2.909527e+00 9.908475e+00 -3.784514e+00
    endloop
  endfacet
  facet normal 2.606398e-01 -9.132921e-01 3.129926e-01
    outer loop
      vertex   -3.000000e+00 9.882382e+00 -3.785314e+00
      vertex   -2.909527e+00 9.908475e+00 -3.784514e+00
      vertex   -2.911197e+00 9.914161e+00 -3.766532e+00
    endloop
  endfacet
  facet normal 2.516739e-01 -9.158153e-01 3.129579e-01
    outer loop
      vertex   -2.911197e+00 9.914161e+00 -3.766532e+00
      vertex   -2.909527e+00 9.908475e+00 -3.784514e+00
      vertex   -2.799121e+00 9.944961e+00 -3.766532e+00
    endloop
  endfacet
  facet normal 2.518051e-01 -9.162927e-01 3.114514e-01
    outer loop
      vertex   -2.911197e+00 9.914161e+00 -3.766532e+00
      vertex   -2.799121e+00 9.944961e+00 -3.766532e+00
      vertex   -2.800718e+00 9.950635e+00 -3.748547e+00
    endloop
  endfacet
  facet normal 2.418928e-01 -9.189711e-01 3.114162e-01
    outer loop
      vertex   -2.800718e+00 9.950635e+00 -3.748547e+00
      vertex   -2.799121e+00 9.944961e+00 -3.766532e+00
      vertex   -2.688565e+00 9.980156e+00 -3.748547e+00
    endloop
  endfacet
  facet normal 2.420805e-01 -9.196843e-01 3.091567e-01
    outer loop
      vertex   -2.800718e+00 9.950635e+00 -3.748547e+00
      vertex   -2.688565e+00 9.980156e+00 -3.748547e+00
      vertex   -2.691607e+00 9.991451e+00 -3.712566e+00
    endloop
  endfacet
  facet normal 2.338962e-01 -9.218082e-01 3.091313e-01
    outer loop
      vertex   -2.691607e+00 9.991451e+00 -3.712566e+00
      vertex   -2.688565e+00 9.980156e+00 -3.748547e+00
      vertex   -2.679095e+00 1.000000e+01 -3.696539e+00
    endloop
  endfacet
  facet normal 2.387051e-01 -9.218240e-01 3.053856e-01
    outer loop
      vertex   -2.691607e+00 9.991451e+00 -3.712566e+00
      vertex   -2.679095e+00 1.000000e+01 -3.696539e+00
      vertex   -2.726519e+00 1.000000e+01 -3.659470e+00
    endloop
  endfacet
  facet normal 2.522972e-01 -9.098083e-01 3.295375e-01
    outer loop
      vertex   -2.904803e+00 9.833460e+00 -4.000000e+00
      vertex   -2.809363e+00 9.859926e+00 -4.000000e+00
      vertex   -2.895860e+00 9.861933e+00 -3.928237e+00
    endloop
  endfacet
  facet normal 2.503916e-01 -9.111493e-01 3.272782e-01
    outer loop
      vertex   -2.895860e+00 9.861933e+00 -3.928237e+00
      vertex   -2.809363e+00 9.859926e+00 -4.000000e+00
      vertex   -2.784375e+00 9.892570e+00 -3.928237e+00
    endloop
  endfacet
  facet normal 2.508040e-01 -9.126499e-01 3.227498e-01
    outer loop
      vertex   -2.895860e+00 9.861933e+00 -3.928237e+00
      vertex   -2.784375e+00 9.892570e+00 -3.928237e+00
      vertex   -2.791011e+00 9.916148e+00 -3.856406e+00
    endloop
  endfacet
  facet normal 2.409314e-01 -9.153185e-01 3.227136e-01
    outer loop
      vertex   -2.791011e+00 9.916148e+00 -3.856406e+00
      vertex   -2.784375e+00 9.892570e+00 -3.928237e+00
      vertex   -2.679247e+00 9.945567e+00 -3.856406e+00
    endloop
  endfacet
  facet normal 2.414488e-01 -9.172842e-01 3.166894e-01
    outer loop
      vertex   -2.791011e+00 9.916148e+00 -3.856406e+00
      vertex   -2.679247e+00 9.945567e+00 -3.856406e+00
      vertex   -2.685490e+00 9.968744e+00 -3.784514e+00
    endloop
  endfacet
  facet normal 2.340272e-01 -9.192135e-01 3.166668e-01
    outer loop
      vertex   -2.685490e+00 9.968744e+00 -3.784514e+00
      vertex   -2.679247e+00 9.945567e+00 -3.856406e+00
      vertex   -2.629480e+00 9.983004e+00 -3.784514e+00
    endloop
  endfacet
  facet normal 2.343354e-01 -9.204240e-01 3.129002e-01
    outer loop
      vertex   -2.685490e+00 9.968744e+00 -3.784514e+00
      vertex   -2.629480e+00 9.983004e+00 -3.784514e+00
      vertex   -2.630989e+00 9.988733e+00 -3.766532e+00
    endloop
  endfacet
  facet normal 2.297714e-01 -9.215791e-01 3.128852e-01
    outer loop
      vertex   -2.630989e+00 9.988733e+00 -3.766532e+00
      vertex   -2.629480e+00 9.983004e+00 -3.784514e+00
      vertex   -2.582835e+00 1.000000e+01 -3.768709e+00
    endloop
  endfacet
  facet normal 2.298358e-01 -9.222417e-01 3.108791e-01
    outer loop
      vertex   -2.630989e+00 9.988733e+00 -3.766532e+00
      vertex   -2.582835e+00 1.000000e+01 -3.768709e+00
      vertex   -2.631195e+00 1.000000e+01 -3.732956e+00
    endloop
  endfacet
  facet normal 2.437951e-01 -9.119741e-01 3.299503e-01
    outer loop
      vertex   -2.809363e+00 9.859926e+00 -4.000000e+00
      vertex   -2.713687e+00 9.885503e+00 -4.000000e+00
      vertex   -2.784375e+00 9.892570e+00 -3.928237e+00
    endloop
  endfacet
  facet normal 2.405606e-01 -9.139098e-01 3.269548e-01
    outer loop
      vertex   -2.784375e+00 9.892570e+00 -3.928237e+00
      vertex   -2.713687e+00 9.885503e+00 -4.000000e+00
      vertex   -2.672876e+00 9.921919e+00 -3.928237e+00
    endloop
  endfacet
  facet normal 2.409314e-01 -9.153185e-01 3.227136e-01
    outer loop
      vertex   -2.784375e+00 9.892570e+00 -3.928237e+00
      vertex   -2.672876e+00 9.921919e+00 -3.928237e+00
      vertex   -2.679247e+00 9.945567e+00 -3.856406e+00
    endloop
  endfacet
  facet normal 2.335257e-01 -9.172439e-01 3.226907e-01
    outer loop
      vertex   -2.679247e+00 9.945567e+00 -3.856406e+00
      vertex   -2.672876e+00 9.921919e+00 -3.928237e+00
      vertex   -2.623366e+00 9.959794e+00 -3.856406e+00
    endloop
  endfacet
  facet normal 2.340272e-01 -9.192135e-01 3.166668e-01
    outer loop
      vertex   -2.679247e+00 9.945567e+00 -3.856406e+00
      vertex   -2.623366e+00 9.959794e+00 -3.856406e+00
      vertex   -2.629480e+00 9.983004e+00 -3.784514e+00
    endloop
  endfacet
  facet normal 2.290828e-01 -9.204639e-01 3.166501e-01
    outer loop
      vertex   -2.629480e+00 9.983004e+00 -3.784514e+00
      vertex   -2.623366e+00 9.959794e+00 -3.856406e+00
      vertex   -2.573474e+00 9.996943e+00 -3.784514e+00
    endloop
  endfacet
  facet normal 2.292947e-01 -9.213156e-01 3.140086e-01
    outer loop
      vertex   -2.629480e+00 9.983004e+00 -3.784514e+00
      vertex   -2.573474e+00 9.996943e+00 -3.784514e+00
      vertex   -2.582835e+00 1.000000e+01 -3.768709e+00
    endloop
  endfacet
  facet normal 2.235983e-01 -9.237007e-01 3.110960e-01
    outer loop
      vertex   -2.582835e+00 1.000000e+01 -3.768709e+00
      vertex   -2.573474e+00 9.996943e+00 -3.784514e+00
      vertex   -2.534022e+00 1.000000e+01 -3.803793e+00
    endloop
  endfacet
  facet normal 2.261143e-01 -9.212007e-01 3.166412e-01
    outer loop
      vertex   -2.534022e+00 1.000000e+01 -3.803793e+00
      vertex   -2.573474e+00 9.996943e+00 -3.784514e+00
      vertex   -2.567491e+00 9.973700e+00 -3.856406e+00
    endloop
  endfacet
  facet normal 2.228519e-01 -9.212683e-01 3.187503e-01
    outer loop
      vertex   -2.534022e+00 1.000000e+01 -3.803793e+00
      vertex   -2.567491e+00 9.973700e+00 -3.856406e+00
      vertex   -2.486264e+00 9.993349e+00 -3.856406e+00
    endloop
  endfacet
  facet normal 2.225413e-01 -9.199842e-01 3.226521e-01
    outer loop
      vertex   -2.486264e+00 9.993349e+00 -3.856406e+00
      vertex   -2.567491e+00 9.973700e+00 -3.856406e+00
      vertex   -2.561386e+00 9.949985e+00 -3.928237e+00
    endloop
  endfacet
  facet normal 2.225413e-01 -9.199842e-01 3.226521e-01
    outer loop
      vertex   -2.486264e+00 9.993349e+00 -3.856406e+00
      vertex   -2.561386e+00 9.949985e+00 -3.928237e+00
      vertex   -2.480352e+00 9.969587e+00 -3.928237e+00
    endloop
  endfacet
  facet normal 2.221292e-01 -9.182803e-01 3.277497e-01
    outer loop
      vertex   -2.480352e+00 9.969587e+00 -3.928237e+00
      vertex   -2.561386e+00 9.949985e+00 -3.928237e+00
      vertex   -2.521652e+00 9.933983e+00 -4.000000e+00
    endloop
  endfacet
  facet normal 2.182939e-01 -9.183901e-01 3.300113e-01
    outer loop
      vertex   -2.480352e+00 9.969587e+00 -3.928237e+00
      vertex   -2.521652e+00 9.933983e+00 -4.000000e+00
      vertex   -2.425305e+00 9.956884e+00 -4.000000e+00
    endloop
  endfacet
  facet normal 2.353031e-01 -9.141584e-01 3.300709e-01
    outer loop
      vertex   -2.713687e+00 9.885503e+00 -4.000000e+00
      vertex   -2.617781e+00 9.910189e+00 -4.000000e+00
      vertex   -2.672876e+00 9.921919e+00 -3.928237e+00
    endloop
  endfacet
  facet normal 2.330310e-01 -9.153008e-01 3.285133e-01
    outer loop
      vertex   -2.672876e+00 9.921919e+00 -3.928237e+00
      vertex   -2.617781e+00 9.910189e+00 -4.000000e+00
      vertex   -2.617129e+00 9.936112e+00 -3.928237e+00
    endloop
  endfacet
  facet normal 2.335257e-01 -9.172439e-01 3.226907e-01
    outer loop
      vertex   -2.672876e+00 9.921919e+00 -3.928237e+00
      vertex   -2.617129e+00 9.936112e+00 -3.928237e+00
      vertex   -2.623366e+00 9.959794e+00 -3.856406e+00
    endloop
  endfacet
  facet normal 2.285920e-01 -9.184919e-01 3.226737e-01
    outer loop
      vertex   -2.623366e+00 9.959794e+00 -3.856406e+00
      vertex   -2.617129e+00 9.936112e+00 -3.928237e+00
      vertex   -2.567491e+00 9.973700e+00 -3.856406e+00
    endloop
  endfacet
  facet normal 2.290828e-01 -9.204639e-01 3.166501e-01
    outer loop
      vertex   -2.623366e+00 9.959794e+00 -3.856406e+00
      vertex   -2.567491e+00 9.973700e+00 -3.856406e+00
      vertex   -2.573474e+00 9.996943e+00 -3.784514e+00
    endloop
  endfacet
  facet normal 2.280694e-01 -9.163921e-01 3.289526e-01
    outer loop
      vertex   -2.617129e+00 9.936112e+00 -3.928237e+00
      vertex   -2.617781e+00 9.910189e+00 -4.000000e+00
      vertex   -2.561386e+00 9.949985e+00 -3.928237e+00
    endloop
  endfacet
  facet normal 2.268175e-01 -9.163563e-01 3.299165e-01
    outer loop
      vertex   -2.561386e+00 9.949985e+00 -3.928237e+00
      vertex   -2.617781e+00 9.910189e+00 -4.000000e+00
      vertex   -2.521652e+00 9.933983e+00 -4.000000e+00
    endloop
  endfacet
  facet normal 2.149728e-01 -9.199834e-01 3.277458e-01
    outer loop
      vertex   -2.480352e+00 9.969587e+00 -3.928237e+00
      vertex   -2.425305e+00 9.956884e+00 -4.000000e+00
      vertex   -2.399343e+00 9.988516e+00 -3.928237e+00
    endloop
  endfacet
  facet normal 2.097762e-01 -9.204392e-01 3.298267e-01
    outer loop
      vertex   -2.399343e+00 9.988516e+00 -3.928237e+00
      vertex   -2.425305e+00 9.956884e+00 -4.000000e+00
      vertex   -2.328749e+00 9.978890e+00 -4.000000e+00
    endloop
  endfacet
  facet normal 2.089174e-01 -9.209139e-01 3.290456e-01
    outer loop
      vertex   -2.399343e+00 9.988516e+00 -3.928237e+00
      vertex   -2.328749e+00 9.978890e+00 -4.000000e+00
      vertex   -2.334366e+00 1.000000e+01 -3.937352e+00
    endloop
  endfacet
  facet normal 2.043829e-01 -9.219512e-01 3.289886e-01
    outer loop
      vertex   -2.334366e+00 1.000000e+01 -3.937352e+00
      vertex   -2.328749e+00 9.978890e+00 -4.000000e+00
      vertex   -2.283385e+00 1.000000e+01 -3.969024e+00
    endloop
  endfacet
  facet normal 2.009576e-01 -9.211081e-01 3.334305e-01
    outer loop
      vertex   -2.283385e+00 1.000000e+01 -3.969024e+00
      vertex   -2.328749e+00 9.978890e+00 -4.000000e+00
      vertex   -2.231989e+00 1.000000e+01 -4.000000e+00
    endloop
  endfacet
  facet normal 2.086933e-01 -9.220343e-01 3.260367e-01
    outer loop
      vertex   -2.334366e+00 1.000000e+01 -3.937352e+00
      vertex   -2.384927e+00 1.000000e+01 -3.904988e+00
      vertex   -2.399343e+00 9.988516e+00 -3.928237e+00
    endloop
  endfacet
  facet normal 2.131176e-01 -9.219950e-01 3.232739e-01
    outer loop
      vertex   -2.399343e+00 9.988516e+00 -3.928237e+00
      vertex   -2.384927e+00 1.000000e+01 -3.904988e+00
      vertex   -2.435061e+00 1.000000e+01 -3.871937e+00
    endloop
  endfacet
  facet normal 2.152328e-01 -9.210963e-01 3.244325e-01
    outer loop
      vertex   -2.399343e+00 9.988516e+00 -3.928237e+00
      vertex   -2.435061e+00 1.000000e+01 -3.871937e+00
      vertex   -2.480352e+00 9.969587e+00 -3.928237e+00
    endloop
  endfacet
  facet normal 2.175257e-01 -9.211881e-01 3.226376e-01
    outer loop
      vertex   -2.480352e+00 9.969587e+00 -3.928237e+00
      vertex   -2.435061e+00 1.000000e+01 -3.871937e+00
      vertex   -2.486264e+00 9.993349e+00 -3.856406e+00
    endloop
  endfacet
  facet normal 2.166729e-01 -9.225744e-01 3.192324e-01
    outer loop
      vertex   -2.435061e+00 1.000000e+01 -3.871937e+00
      vertex   -2.484762e+00 1.000000e+01 -3.838204e+00
      vertex   -2.486264e+00 9.993349e+00 -3.856406e+00
    endloop
  endfacet
  facet normal 2.223999e-01 -9.215089e-01 3.183704e-01
    outer loop
      vertex   -2.486264e+00 9.993349e+00 -3.856406e+00
      vertex   -2.484762e+00 1.000000e+01 -3.838204e+00
      vertex   -2.534022e+00 1.000000e+01 -3.803793e+00
    endloop
  endfacet
  facet normal 2.348454e-01 -9.216456e-01 3.088964e-01
    outer loop
      vertex   -2.679095e+00 1.000000e+01 -3.696539e+00
      vertex   -2.688565e+00 9.980156e+00 -3.748547e+00
      vertex   -2.631195e+00 1.000000e+01 -3.732956e+00
    endloop
  endfacet
  facet normal 2.346042e-01 -9.214800e-01 3.095732e-01
    outer loop
      vertex   -2.631195e+00 1.000000e+01 -3.732956e+00
      vertex   -2.688565e+00 9.980156e+00 -3.748547e+00
      vertex   -2.632490e+00 9.994433e+00 -3.748547e+00
    endloop
  endfacet
  facet normal 2.230470e-01 -9.237506e-01 3.113437e-01
    outer loop
      vertex   -2.631195e+00 1.000000e+01 -3.732956e+00
      vertex   -2.632490e+00 9.994433e+00 -3.748547e+00
      vertex   -2.630989e+00 9.988733e+00 -3.766532e+00
    endloop
  endfacet
  facet normal 2.344575e-01 -9.209037e-01 3.113939e-01
    outer loop
      vertex   -2.630989e+00 9.988733e+00 -3.766532e+00
      vertex   -2.632490e+00 9.994433e+00 -3.748547e+00
      vertex   -2.687032e+00 9.974465e+00 -3.766532e+00
    endloop
  endfacet
  facet normal 2.343354e-01 -9.204240e-01 3.129002e-01
    outer loop
      vertex   -2.630989e+00 9.988733e+00 -3.766532e+00
      vertex   -2.687032e+00 9.974465e+00 -3.766532e+00
      vertex   -2.685490e+00 9.968744e+00 -3.784514e+00
    endloop
  endfacet
  facet normal 2.417668e-01 -9.184924e-01 3.129226e-01
    outer loop
      vertex   -2.685490e+00 9.968744e+00 -3.784514e+00
      vertex   -2.687032e+00 9.974465e+00 -3.766532e+00
      vertex   -2.797515e+00 9.939257e+00 -3.784514e+00
    endloop
  endfacet
  facet normal 2.414488e-01 -9.172842e-01 3.166894e-01
    outer loop
      vertex   -2.685490e+00 9.968744e+00 -3.784514e+00
      vertex   -2.797515e+00 9.939257e+00 -3.784514e+00
      vertex   -2.791011e+00 9.916148e+00 -3.856406e+00
    endloop
  endfacet
  facet normal 2.513427e-01 -9.146103e-01 3.167251e-01
    outer loop
      vertex   -2.791011e+00 9.916148e+00 -3.856406e+00
      vertex   -2.797515e+00 9.939257e+00 -3.784514e+00
      vertex   -2.902763e+00 9.885438e+00 -3.856406e+00
    endloop
  endfacet
  facet normal 2.508040e-01 -9.126499e-01 3.227498e-01
    outer loop
      vertex   -2.791011e+00 9.916148e+00 -3.856406e+00
      vertex   -2.902763e+00 9.885438e+00 -3.856406e+00
      vertex   -2.895860e+00 9.861933e+00 -3.928237e+00
    endloop
  endfacet
  facet normal 2.439456e-01 -9.210349e-01 3.036202e-01
    outer loop
      vertex   -2.773426e+00 1.000000e+01 -3.621782e+00
      vertex   -2.807024e+00 9.973040e+00 -3.676572e+00
      vertex   -2.726519e+00 1.000000e+01 -3.659470e+00
    endloop
  endfacet
  facet normal 2.431949e-01 -9.203965e-01 3.061478e-01
    outer loop
      vertex   -2.726519e+00 1.000000e+01 -3.659470e+00
      vertex   -2.807024e+00 9.973040e+00 -3.676572e+00
      vertex   -2.803888e+00 9.961896e+00 -3.712566e+00
    endloop
  endfacet
  facet normal 2.422221e-01 -9.202222e-01 3.074402e-01
    outer loop
      vertex   -2.726519e+00 1.000000e+01 -3.659470e+00
      vertex   -2.803888e+00 9.961896e+00 -3.712566e+00
      vertex   -2.691607e+00 9.991451e+00 -3.712566e+00
    endloop
  endfacet
  facet normal 2.420805e-01 -9.196843e-01 3.091567e-01
    outer loop
      vertex   -2.691607e+00 9.991451e+00 -3.712566e+00
      vertex   -2.803888e+00 9.961896e+00 -3.712566e+00
      vertex   -2.800718e+00 9.950635e+00 -3.748547e+00
    endloop
  endfacet
  facet normal 2.452987e-01 -9.228069e-01 2.970791e-01
    outer loop
      vertex   -2.819809e+00 1.000000e+01 -3.583484e+00
      vertex   -2.813198e+00 9.994976e+00 -3.604548e+00
      vertex   -2.773426e+00 1.000000e+01 -3.621782e+00
    endloop
  endfacet
  facet normal 2.464581e-01 -9.215088e-01 3.001331e-01
    outer loop
      vertex   -2.773426e+00 1.000000e+01 -3.621782e+00
      vertex   -2.813198e+00 9.994976e+00 -3.604548e+00
      vertex   -2.810128e+00 9.984066e+00 -3.640566e+00
    endloop
  endfacet
  facet normal 2.446955e-01 -9.209941e-01 3.031403e-01
    outer loop
      vertex   -2.773426e+00 1.000000e+01 -3.621782e+00
      vertex   -2.810128e+00 9.984066e+00 -3.640566e+00
      vertex   -2.807024e+00 9.973040e+00 -3.676572e+00
    endloop
  endfacet
  facet normal 2.525142e-01 -9.188731e-01 3.031647e-01
    outer loop
      vertex   -2.807024e+00 9.973040e+00 -3.676572e+00
      vertex   -2.810128e+00 9.984066e+00 -3.640566e+00
      vertex   -2.919416e+00 9.942153e+00 -3.676572e+00
    endloop
  endfacet
  facet normal 2.522588e-01 -9.179436e-01 3.061782e-01
    outer loop
      vertex   -2.807024e+00 9.973040e+00 -3.676572e+00
      vertex   -2.919416e+00 9.942153e+00 -3.676572e+00
      vertex   -2.916154e+00 9.931044e+00 -3.712566e+00
    endloop
  endfacet
  facet normal 2.609520e-01 -9.154990e-01 3.062116e-01
    outer loop
      vertex   -2.916154e+00 9.931044e+00 -3.712566e+00
      vertex   -2.919416e+00 9.942153e+00 -3.676572e+00
      vertex   -3.000000e+00 9.906857e+00 -3.713425e+00
    endloop
  endfacet
  facet normal 2.606534e-01 -9.145707e-01 3.092252e-01
    outer loop
      vertex   -2.916154e+00 9.931044e+00 -3.712566e+00
      vertex   -3.000000e+00 9.906857e+00 -3.713425e+00
      vertex   -2.912858e+00 9.919818e+00 -3.748547e+00
    endloop
  endfacet
  facet normal 2.612891e-01 -9.137515e-01 3.111049e-01
    outer loop
      vertex   -2.912858e+00 9.919818e+00 -3.748547e+00
      vertex   -3.000000e+00 9.906857e+00 -3.713425e+00
      vertex   -3.000000e+00 9.882382e+00 -3.785314e+00
    endloop
  endfacet
  facet normal 2.610959e-01 -9.136766e-01 3.114866e-01
    outer loop
      vertex   -2.912858e+00 9.919818e+00 -3.748547e+00
      vertex   -3.000000e+00 9.882382e+00 -3.785314e+00
      vertex   -2.911197e+00 9.914161e+00 -3.766532e+00
    endloop
  endfacet
  facet normal 2.536925e-01 -9.199056e-01 2.990214e-01
    outer loop
      vertex   -2.819809e+00 1.000000e+01 -3.583484e+00
      vertex   -2.865663e+00 1.000000e+01 -3.544581e+00
      vertex   -2.813198e+00 9.994976e+00 -3.604548e+00
    endloop
  endfacet
  facet normal 2.529144e-01 -9.203293e-01 2.983761e-01
    outer loop
      vertex   -2.813198e+00 9.994976e+00 -3.604548e+00
      vertex   -2.865663e+00 1.000000e+01 -3.544581e+00
      vertex   -2.925838e+00 9.964022e+00 -3.604548e+00
    endloop
  endfacet
  facet normal 2.527669e-01 -9.197925e-01 3.001510e-01
    outer loop
      vertex   -2.813198e+00 9.994976e+00 -3.604548e+00
      vertex   -2.925838e+00 9.964022e+00 -3.604548e+00
      vertex   -2.922644e+00 9.953146e+00 -3.640566e+00
    endloop
  endfacet
  facet normal 2.611821e-01 -9.174279e-01 3.001832e-01
    outer loop
      vertex   -2.922644e+00 9.953146e+00 -3.640566e+00
      vertex   -2.925838e+00 9.964022e+00 -3.604548e+00
      vertex   -3.000000e+00 9.930858e+00 -3.641378e+00
    endloop
  endfacet
  facet normal 2.608888e-01 -9.165198e-01 3.031970e-01
    outer loop
      vertex   -2.922644e+00 9.953146e+00 -3.640566e+00
      vertex   -3.000000e+00 9.930858e+00 -3.641378e+00
      vertex   -2.919416e+00 9.942153e+00 -3.676572e+00
    endloop
  endfacet
  facet normal 2.615804e-01 -9.157107e-01 3.050403e-01
    outer loop
      vertex   -2.919416e+00 9.942153e+00 -3.676572e+00
      vertex   -3.000000e+00 9.930858e+00 -3.641378e+00
      vertex   -3.000000e+00 9.906857e+00 -3.713425e+00
    endloop
  endfacet
  facet normal 2.554314e-01 -9.213419e-01 2.930597e-01
    outer loop
      vertex   -2.910983e+00 1.000000e+01 -3.505080e+00
      vertex   -2.932122e+00 9.985424e+00 -3.532481e+00
      vertex   -2.865663e+00 1.000000e+01 -3.544581e+00
    endloop
  endfacet
  facet normal 2.555450e-01 -9.209678e-01 2.941344e-01
    outer loop
      vertex   -2.865663e+00 1.000000e+01 -3.544581e+00
      vertex   -2.932122e+00 9.985424e+00 -3.532481e+00
      vertex   -2.928997e+00 9.974781e+00 -3.568520e+00
    endloop
  endfacet
  facet normal 2.541742e-01 -9.203812e-01 2.971431e-01
    outer loop
      vertex   -2.865663e+00 1.000000e+01 -3.544581e+00
      vertex   -2.928997e+00 9.974781e+00 -3.568520e+00
      vertex   -2.925838e+00 9.964022e+00 -3.604548e+00
    endloop
  endfacet
  facet normal 2.611209e-01 -9.184263e-01 2.971684e-01
    outer loop
      vertex   -2.925838e+00 9.964022e+00 -3.604548e+00
      vertex   -2.928997e+00 9.974781e+00 -3.568520e+00
      vertex   -3.000000e+00 9.954382e+00 -3.569175e+00
    endloop
  endfacet
  facet normal 2.618751e-01 -9.176274e-01 2.989673e-01
    outer loop
      vertex   -2.925838e+00 9.964022e+00 -3.604548e+00
      vertex   -3.000000e+00 9.954382e+00 -3.569175e+00
      vertex   -3.000000e+00 9.930858e+00 -3.641378e+00
    endloop
  endfacet
  facet normal 2.578847e-01 -9.212705e-01 2.911290e-01
    outer loop
      vertex   -2.932122e+00 9.985424e+00 -3.532481e+00
      vertex   -2.910983e+00 1.000000e+01 -3.505080e+00
      vertex   -2.935213e+00 9.995950e+00 -3.496433e+00
    endloop
  endfacet
  facet normal 2.565538e-01 -9.230745e-01 2.865546e-01
    outer loop
      vertex   -2.935213e+00 9.995950e+00 -3.496433e+00
      vertex   -2.910983e+00 1.000000e+01 -3.505080e+00
      vertex   -2.955763e+00 1.000000e+01 -3.464988e+00
    endloop
  endfacet
  facet normal 2.614973e-01 -9.207691e-01 2.894884e-01
    outer loop
      vertex   -2.935213e+00 9.995950e+00 -3.496433e+00
      vertex   -2.955763e+00 1.000000e+01 -3.464988e+00
      vertex   -3.000000e+00 9.977430e+00 -3.496818e+00
    endloop
  endfacet
  facet normal 2.636357e-01 -9.210310e-01 2.867022e-01
    outer loop
      vertex   -3.000000e+00 9.977430e+00 -3.496818e+00
      vertex   -2.955763e+00 1.000000e+01 -3.464988e+00
      vertex   -3.000000e+00 1.000000e+01 -3.424310e+00
    endloop
  endfacet
  facet normal 2.613505e-01 -9.202899e-01 2.911398e-01
    outer loop
      vertex   -2.935213e+00 9.995950e+00 -3.496433e+00
      vertex   -3.000000e+00 9.977430e+00 -3.496818e+00
      vertex   -2.932122e+00 9.985424e+00 -3.532481e+00
    endloop
  endfacet
  facet normal 2.621749e-01 -9.195011e-01 2.928857e-01
    outer loop
      vertex   -2.932122e+00 9.985424e+00 -3.532481e+00
      vertex   -3.000000e+00 9.977430e+00 -3.496818e+00
      vertex   -3.000000e+00 9.954382e+00 -3.569175e+00
    endloop
  endfacet
  facet normal 2.614042e-01 -9.193155e-01 2.941545e-01
    outer loop
      vertex   -2.932122e+00 9.985424e+00 -3.532481e+00
      vertex   -3.000000e+00 9.954382e+00 -3.569175e+00
      vertex   -2.928997e+00 9.974781e+00 -3.568520e+00
    endloop
  endfacet
  facet normal 2.516739e-01 -9.158153e-01 3.129579e-01
    outer loop
      vertex   -2.799121e+00 9.944961e+00 -3.766532e+00
      vertex   -2.909527e+00 9.908475e+00 -3.784514e+00
      vertex   -2.797515e+00 9.939257e+00 -3.784514e+00
    endloop
  endfacet
  facet normal 2.513427e-01 -9.146103e-01 3.167251e-01
    outer loop
      vertex   -2.797515e+00 9.939257e+00 -3.784514e+00
      vertex   -2.909527e+00 9.908475e+00 -3.784514e+00
      vertex   -2.902763e+00 9.885438e+00 -3.856406e+00
    endloop
  endfacet
  facet normal 2.518051e-01 -9.162927e-01 3.114514e-01
    outer loop
      vertex   -2.911197e+00 9.914161e+00 -3.766532e+00
      vertex   -2.800718e+00 9.950635e+00 -3.748547e+00
      vertex   -2.912858e+00 9.919818e+00 -3.748547e+00
    endloop
  endfacet
  facet normal 2.520005e-01 -9.170040e-01 3.091916e-01
    outer loop
      vertex   -2.912858e+00 9.919818e+00 -3.748547e+00
      vertex   -2.800718e+00 9.950635e+00 -3.748547e+00
      vertex   -2.803888e+00 9.961896e+00 -3.712566e+00
    endloop
  endfacet
  facet normal 2.520005e-01 -9.170040e-01 3.091916e-01
    outer loop
      vertex   -2.912858e+00 9.919818e+00 -3.748547e+00
      vertex   -2.803888e+00 9.961896e+00 -3.712566e+00
      vertex   -2.916154e+00 9.931044e+00 -3.712566e+00
    endloop
  endfacet
  facet normal 2.522588e-01 -9.179436e-01 3.061782e-01
    outer loop
      vertex   -2.916154e+00 9.931044e+00 -3.712566e+00
      vertex   -2.803888e+00 9.961896e+00 -3.712566e+00
      vertex   -2.807024e+00 9.973040e+00 -3.676572e+00
    endloop
  endfacet
  facet normal 2.527669e-01 -9.197925e-01 3.001510e-01
    outer loop
      vertex   -2.813198e+00 9.994976e+00 -3.604548e+00
      vertex   -2.922644e+00 9.953146e+00 -3.640566e+00
      vertex   -2.810128e+00 9.984066e+00 -3.640566e+00
    endloop
  endfacet
  facet normal 2.525142e-01 -9.188731e-01 3.031647e-01
    outer loop
      vertex   -2.810128e+00 9.984066e+00 -3.640566e+00
      vertex   -2.922644e+00 9.953146e+00 -3.640566e+00
      vertex   -2.919416e+00 9.942153e+00 -3.676572e+00
    endloop
  endfacet
  facet normal 2.418928e-01 -9.189711e-01 3.114162e-01
    outer loop
      vertex   -2.688565e+00 9.980156e+00 -3.748547e+00
      vertex   -2.799121e+00 9.944961e+00 -3.766532e+00
      vertex   -2.687032e+00 9.974465e+00 -3.766532e+00
    endloop
  endfacet
  facet normal 2.417668e-01 -9.184924e-01 3.129226e-01
    outer loop
      vertex   -2.687032e+00 9.974465e+00 -3.766532e+00
      vertex   -2.799121e+00 9.944961e+00 -3.766532e+00
      vertex   -2.797515e+00 9.939257e+00 -3.784514e+00
    endloop
  endfacet
  facet normal 2.344575e-01 -9.209037e-01 3.113939e-01
    outer loop
      vertex   -2.632490e+00 9.994433e+00 -3.748547e+00
      vertex   -2.688565e+00 9.980156e+00 -3.748547e+00
      vertex   -2.687032e+00 9.974465e+00 -3.766532e+00
    endloop
  endfacet
  facet normal 2.285920e-01 -9.184919e-01 3.226737e-01
    outer loop
      vertex   -2.561386e+00 9.949985e+00 -3.928237e+00
      vertex   -2.567491e+00 9.973700e+00 -3.856406e+00
      vertex   -2.617129e+00 9.936112e+00 -3.928237e+00
    endloop
  endfacet
  facet normal -1.000000e+00 -1.497567e-14 -8.729531e-15
    outer loop
      vertex   -3.000000e+00 9.977682e+00 -3.936671e+00
      vertex   -3.000000e+00 9.906857e+00 -3.713425e+00
      vertex   -3.000000e+00 1.000000e+01 -3.873213e+00
    endloop
  endfacet
  facet normal -1.000000e+00 0.000000e+00 0.000000e+00
    outer loop
      vertex   -3.000000e+00 1.000000e+01 -3.873213e+00
      vertex   -3.000000e+00 9.906857e+00 -3.713425e+00
      vertex   -3.000000e+00 9.930858e+00 -3.641378e+00
    endloop
  endfacet
  facet normal -1.000000e+00 0.000000e+00 0.000000e+00
    outer loop
      vertex   -3.000000e+00 1.000000e+01 -3.873213e+00
      vertex   -3.000000e+00 9.930858e+00 -3.641378e+00
      vertex   -3.000000e+00 9.954382e+00 -3.569175e+00
    endloop
  endfacet
  facet normal -1.000000e+00 2.665300e-14 4.477192e-15
    outer loop
      vertex   -3.000000e+00 9.977682e+00 -3.936671e+00
      vertex   -3.000000e+00 9.954996e+00 -4.000000e+00
      vertex   -3.000000e+00 9.906857e+00 -3.713425e+00
    endloop
  endfacet
  facet normal -1.000000e+00 0.000000e+00 -0.000000e+00
    outer loop
      vertex   -3.000000e+00 9.906857e+00 -3.713425e+00
      vertex   -3.000000e+00 9.954996e+00 -4.000000e+00
      vertex   -3.000000e+00 9.882382e+00 -3.785314e+00
    endloop
  endfacet
  facet normal -1.000000e+00 0.000000e+00 -0.000000e+00
    outer loop
      vertex   -3.000000e+00 9.882382e+00 -3.785314e+00
      vertex   -3.000000e+00 9.954996e+00 -4.000000e+00
      vertex   -3.000000e+00 9.857431e+00 -3.857041e+00
    endloop
  endfacet
  facet normal -1.000000e+00 1.195953e-14 8.162072e-15
    outer loop
      vertex   -3.000000e+00 9.857431e+00 -3.857041e+00
      vertex   -3.000000e+00 9.954996e+00 -4.000000e+00
      vertex   -3.000000e+00 9.832005e+00 -3.928604e+00
    endloop
  endfacet
  facet normal -1.000000e+00 0.000000e+00 -1.244015e-14
    outer loop
      vertex   -3.000000e+00 9.832005e+00 -3.928604e+00
      vertex   -3.000000e+00 9.954996e+00 -4.000000e+00
      vertex   -3.000000e+00 9.806106e+00 -4.000000e+00
    endloop
  endfacet
  facet normal -1.000000e+00 0.000000e+00 0.000000e+00
    outer loop
      vertex   -3.000000e+00 9.954382e+00 -3.569175e+00
      vertex   -3.000000e+00 9.977430e+00 -3.496818e+00
      vertex   -3.000000e+00 1.000000e+01 -3.873213e+00
    endloop
  endfacet
  facet normal -1.000000e+00 0.000000e+00 0.000000e+00
    outer loop
      vertex   -3.000000e+00 1.000000e+01 -3.873213e+00
      vertex   -3.000000e+00 9.977430e+00 -3.496818e+00
      vertex   -3.000000e+00 1.000000e+01 -3.424310e+00
    endloop
  endfacet
  facet normal 0.000000e+00 -0.000000e+00 -1.000000e+00
    outer loop
      vertex   -2.919667e+00 9.977810e+00 -4.000000e+00
      vertex   -2.713687e+00 9.885503e+00 -4.000000e+00
      vertex   -3.000000e+00 9.954996e+00 -4.000000e+00
    endloop
  endfacet
  facet normal 0.000000e+00 0.000000e+00 -1.000000e+00
    outer loop
      vertex   -3.000000e+00 9.954996e+00 -4.000000e+00
      vertex   -2.713687e+00 9.885503e+00 -4.000000e+00
      vertex   -2.809363e+00 9.859926e+00 -4.000000e+00
    endloop
  endfacet
  facet normal 5.980580e-15 1.199238e-14 -1.000000e+00
    outer loop
      vertex   -3.000000e+00 9.954996e+00 -4.000000e+00
      vertex   -2.809363e+00 9.859926e+00 -4.000000e+00
      vertex   -2.904803e+00 9.833460e+00 -4.000000e+00
    endloop
  endfacet
  facet normal 0.000000e+00 0.000000e+00 -1.000000e+00
    outer loop
      vertex   -2.713687e+00 9.885503e+00 -4.000000e+00
      vertex   -2.919667e+00 9.977810e+00 -4.000000e+00
      vertex   -2.617781e+00 9.910189e+00 -4.000000e+00
    endloop
  endfacet
  facet normal 0.000000e+00 0.000000e+00 -1.000000e+00
    outer loop
      vertex   -2.617781e+00 9.910189e+00 -4.000000e+00
      vertex   -2.919667e+00 9.977810e+00 -4.000000e+00
      vertex   -2.839165e+00 1.000000e+01 -4.000000e+00
    endloop
  endfacet
  facet normal 0.000000e+00 0.000000e+00 -1.000000e+00
    outer loop
      vertex   -2.617781e+00 9.910189e+00 -4.000000e+00
      vertex   -2.839165e+00 1.000000e+01 -4.000000e+00
      vertex   -2.521652e+00 9.933983e+00 -4.000000e+00
    endloop
  endfacet
  facet normal 0.000000e+00 0.000000e+00 -1.000000e+00
    outer loop
      vertex   -2.521652e+00 9.933983e+00 -4.000000e+00
      vertex   -2.839165e+00 1.000000e+01 -4.000000e+00
      vertex   -2.425305e+00 9.956884e+00 -4.000000e+00
    endloop
  endfacet
  facet normal 0.000000e+00 0.000000e+00 -1.000000e+00
    outer loop
      vertex   -2.425305e+00 9.956884e+00 -4.000000e+00
      vertex   -2.839165e+00 1.000000e+01 -4.000000e+00
      vertex   -2.328749e+00 9.978890e+00 -4.000000e+00
    endloop
  endfacet
  facet normal 0.000000e+00 0.000000e+00 -1.000000e+00
    outer loop
      vertex   -2.328749e+00 9.978890e+00 -4.000000e+00
      vertex   -2.839165e+00 1.000000e+01 -4.000000e+00
      vertex   -2.231989e+00 1.000000e+01 -4.000000e+00
    endloop
  endfacet
  facet normal -9.329912e-15 0.000000e+00 -1.000000e+00
    outer loop
      vertex   -2.904803e+00 9.833460e+00 -4.000000e+00
      vertex   -3.000000e+00 9.806106e+00 -4.000000e+00
      vertex   -3.000000e+00 9.954996e+00 -4.000000e+00
    endloop
  endfacet
  facet normal -0.000000e+00 1.000000e+00 0.000000e+00
    outer loop
      vertex   -2.879886e+00 1.000000e+01 -3.968937e+00
      vertex   -2.582835e+00 1.000000e+01 -3.768709e+00
      vertex   -2.839165e+00 1.000000e+01 -4.000000e+00
    endloop
  endfacet
  facet normal 0.000000e+00 1.000000e+00 0.000000e+00
    outer loop
      vertex   -2.839165e+00 1.000000e+01 -4.000000e+00
      vertex   -2.582835e+00 1.000000e+01 -3.768709e+00
      vertex   -2.534022e+00 1.000000e+01 -3.803793e+00
    endloop
  endfacet
  facet normal 0.000000e+00 1.000000e+00 0.000000e+00
    outer loop
      vertex   -2.839165e+00 1.000000e+01 -4.000000e+00
      vertex   -2.534022e+00 1.000000e+01 -3.803793e+00
      vertex   -2.484762e+00 1.000000e+01 -3.838204e+00
    endloop
  endfacet
  facet normal 0.000000e+00 1.000000e+00 0.000000e+00
    outer loop
      vertex   -2.582835e+00 1.000000e+01 -3.768709e+00
      vertex   -2.879886e+00 1.000000e+01 -3.968937e+00
      vertex   -2.631195e+00 1.000000e+01 -3.732956e+00
    endloop
  endfacet
  facet normal 0.000000e+00 1.000000e+00 0.000000e+00
    outer loop
      vertex   -2.631195e+00 1.000000e+01 -3.732956e+00
      vertex   -2.879886e+00 1.000000e+01 -3.968937e+00
      vertex   -2.920268e+00 1.000000e+01 -3.937450e+00
    endloop
  endfacet
  facet normal 0.000000e+00 1.000000e+00 0.000000e+00
    outer loop
      vertex   -2.631195e+00 1.000000e+01 -3.732956e+00
      vertex   -2.920268e+00 1.000000e+01 -3.937450e+00
      vertex   -2.960306e+00 1.000000e+01 -3.905541e+00
    endloop
  endfacet
  facet normal 0.000000e+00 1.000000e+00 0.000000e+00
    outer loop
      vertex   -2.631195e+00 1.000000e+01 -3.732956e+00
      vertex   -2.960306e+00 1.000000e+01 -3.905541e+00
      vertex   -2.679095e+00 1.000000e+01 -3.696539e+00
    endloop
  endfacet
  facet normal 0.000000e+00 1.000000e+00 0.000000e+00
    outer loop
      vertex   -2.679095e+00 1.000000e+01 -3.696539e+00
      vertex   -2.960306e+00 1.000000e+01 -3.905541e+00
      vertex   -3.000000e+00 1.000000e+01 -3.873213e+00
    endloop
  endfacet
  facet normal 0.000000e+00 1.000000e+00 0.000000e+00
    outer loop
      vertex   -2.679095e+00 1.000000e+01 -3.696539e+00
      vertex   -3.000000e+00 1.000000e+01 -3.873213e+00
      vertex   -2.726519e+00 1.000000e+01 -3.659470e+00
    endloop
  endfacet
  facet normal 0.000000e+00 1.000000e+00 0.000000e+00
    outer loop
      vertex   -2.726519e+00 1.000000e+01 -3.659470e+00
      vertex   -3.000000e+00 1.000000e+01 -3.873213e+00
      vertex   -2.773426e+00 1.000000e+01 -3.621782e+00
    endloop
  endfacet
  facet normal 0.000000e+00 1.000000e+00 0.000000e+00
    outer loop
      vertex   -2.773426e+00 1.000000e+01 -3.621782e+00
      vertex   -3.000000e+00 1.000000e+01 -3.873213e+00
      vertex   -2.819809e+00 1.000000e+01 -3.583484e+00
    endloop
  endfacet
  facet normal 0.000000e+00 1.000000e+00 0.000000e+00
    outer loop
      vertex   -2.819809e+00 1.000000e+01 -3.583484e+00
      vertex   -3.000000e+00 1.000000e+01 -3.873213e+00
      vertex   -2.865663e+00 1.000000e+01 -3.544581e+00
    endloop
  endfacet
  facet normal 0.000000e+00 1.000000e+00 0.000000e+00
    outer loop
      vertex   -2.865663e+00 1.000000e+01 -3.544581e+00
      vertex   -3.000000e+00 1.000000e+01 -3.873213e+00
      vertex   -2.910983e+00 1.000000e+01 -3.505080e+00
    endloop
  endfacet
  facet normal 0.000000e+00 1.000000e+00 0.000000e+00
    outer loop
      vertex   -2.910983e+00 1.000000e+01 -3.505080e+00
      vertex   -3.000000e+00 1.000000e+01 -3.873213e+00
      vertex   -2.955763e+00 1.000000e+01 -3.464988e+00
    endloop
  endfacet
  facet normal 0.000000e+00 1.000000e+00 0.000000e+00
    outer loop
      vertex   -2.955763e+00 1.000000e+01 -3.464988e+00
      vertex   -3.000000e+00 1.000000e+01 -3.873213e+00
      vertex   -3.000000e+00 1.000000e+01 -3.424310e+00
    endloop
  endfacet
  facet normal 0.000000e+00 1.000000e+00 0.000000e+00
    outer loop
      vertex   -2.484762e+00 1.000000e+01 -3.838204e+00
      vertex   -2.435061e+00 1.000000e+01 -3.871937e+00
      vertex   -2.839165e+00 1.000000e+01 -4.000000e+00
    endloop
  endfacet
  facet normal 0.000000e+00 1.000000e+00 0.000000e+00
    outer loop
      vertex   -2.839165e+00 1.000000e+01 -4.000000e+00
      vertex   -2.435061e+00 1.000000e+01 -3.871937e+00
      vertex   -2.384927e+00 1.000000e+01 -3.904988e+00
    endloop
  endfacet
  facet normal 0.000000e+00 1.000000e+00 0.000000e+00
    outer loop
      vertex   -2.839165e+00 1.000000e+01 -4.000000e+00
      vertex   -2.384927e+00 1.000000e+01 -3.904988e+00
      vertex   -2.334366e+00 1.000000e+01 -3.937352e+00
    endloop
  endfacet
  facet normal 0.000000e+00 1.000000e+00 0.000000e+00
    outer loop
      vertex   -2.334366e+00 1.000000e+01 -3.937352e+00
      vertex   -2.283385e+00 1.000000e+01 -3.969024e+00
      vertex   -2.839165e+00 1.000000e+01 -4.000000e+00
    endloop
  endfacet
  facet normal 0.000000e+00 1.000000e+00 0.000000e+00
    outer loop
      vertex   -2.839165e+00 1.000000e+01 -4.000000e+00
      vertex   -2.283385e+00 1.000000e+01 -3.969024e+00
      vertex   -2.231989e+00 1.000000e+01 -4.000000e+00
    endloop
  endfacet
endsolid
