solid ASCII
  facet normal 8.891391e-01 1.858219e-01 4.182127e-01
    outer loop
      vertex   9.999327e+00 2.000000e+00 5.000000e+00
      vertex   1.000000e+01 1.996779e+00 5.000000e+00
      vertex   1.000000e+01 2.000000e+00 4.998569e+00
    endloop
  endfacet
  facet normal -9.005954e-01 -1.018080e-01 -4.225673e-01
    outer loop
      vertex   1.000000e+01 1.050138e+00 5.000000e+00
      vertex   9.993242e+00 1.109921e+00 5.000000e+00
      vertex   1.000000e+01 1.111406e+00 4.985239e+00
    endloop
  endfacet
  facet normal -8.998396e-01 -1.074256e-01 -4.227866e-01
    outer loop
      vertex   1.000000e+01 1.111406e+00 4.985239e+00
      vertex   9.993242e+00 1.109921e+00 5.000000e+00
      vertex   9.986111e+00 1.169655e+00 5.000000e+00
    endloop
  endfacet
  facet normal -9.002091e-01 -1.077331e-01 -4.219209e-01
    outer loop
      vertex   1.000000e+01 1.111406e+00 4.985239e+00
      vertex   9.986111e+00 1.169655e+00 5.000000e+00
      vertex   1.000000e+01 1.172477e+00 4.969645e+00
    endloop
  endfacet
  facet normal -8.994756e-01 -1.130904e-01 -4.220832e-01
    outer loop
      vertex   1.000000e+01 1.172477e+00 4.969645e+00
      vertex   9.986111e+00 1.169655e+00 5.000000e+00
      vertex   9.978606e+00 1.229341e+00 5.000000e+00
    endloop
  endfacet
  facet normal -8.998009e-01 -1.136659e-01 -4.212344e-01
    outer loop
      vertex   1.000000e+01 1.172477e+00 4.969645e+00
      vertex   9.978606e+00 1.229341e+00 5.000000e+00
      vertex   1.000000e+01 1.233342e+00 4.953221e+00
    endloop
  endfacet
  facet normal -8.990913e-01 -1.187560e-01 -4.213453e-01
    outer loop
      vertex   1.000000e+01 1.233342e+00 4.953221e+00
      vertex   9.978606e+00 1.229341e+00 5.000000e+00
      vertex   9.970730e+00 1.288975e+00 5.000000e+00
    endloop
  endfacet
  facet normal -8.993705e-01 -1.196070e-01 -4.205079e-01
    outer loop
      vertex   1.000000e+01 1.233342e+00 4.953221e+00
      vertex   9.970730e+00 1.288975e+00 5.000000e+00
      vertex   1.000000e+01 1.293994e+00 4.935970e+00
    endloop
  endfacet
  facet normal -8.986866e-01 -1.244225e-01 -4.205727e-01
    outer loop
      vertex   1.000000e+01 1.293994e+00 4.935970e+00
      vertex   9.970730e+00 1.288975e+00 5.000000e+00
      vertex   9.962480e+00 1.348557e+00 5.000000e+00
    endloop
  endfacet
  facet normal -8.989176e-01 -1.255573e-01 -4.197410e-01
    outer loop
      vertex   1.000000e+01 1.293994e+00 4.935970e+00
      vertex   9.962480e+00 1.348557e+00 5.000000e+00
      vertex   1.000000e+01 1.354426e+00 4.917893e+00
    endloop
  endfacet
  facet normal -8.982702e-01 -1.300307e-01 -4.197649e-01
    outer loop
      vertex   1.000000e+01 1.354426e+00 4.917893e+00
      vertex   9.962480e+00 1.348557e+00 5.000000e+00
      vertex   9.992450e+00 1.409803e+00 4.916895e+00
    endloop
  endfacet
  facet normal -9.005023e-01 -1.302471e-01 -4.148871e-01
    outer loop
      vertex   1.000000e+01 1.354426e+00 4.917893e+00
      vertex   9.992450e+00 1.409803e+00 4.916895e+00
      vertex   1.000000e+01 1.414629e+00 4.898993e+00
    endloop
  endfacet
  facet normal -8.992785e-01 -1.356188e-01 -4.158192e-01
    outer loop
      vertex   1.000000e+01 1.414629e+00 4.898993e+00
      vertex   9.992450e+00 1.409803e+00 4.916895e+00
      vertex   9.983472e+00 1.469335e+00 4.916895e+00
    endloop
  endfacet
  facet normal -8.998497e-01 -1.362657e-01 -4.143696e-01
    outer loop
      vertex   1.000000e+01 1.414629e+00 4.898993e+00
      vertex   9.983472e+00 1.469335e+00 4.916895e+00
      vertex   1.000000e+01 1.474590e+00 4.879275e+00
    endloop
  endfacet
  facet normal -8.989331e-01 -1.413058e-01 -4.146709e-01
    outer loop
      vertex   1.000000e+01 1.474590e+00 4.879275e+00
      vertex   9.983472e+00 1.469335e+00 4.916895e+00
      vertex   9.974104e+00 1.528933e+00 4.916895e+00
    endloop
  endfacet
  facet normal -8.992873e-01 -1.422247e-01 -4.135873e-01
    outer loop
      vertex   1.000000e+01 1.474590e+00 4.879275e+00
      vertex   9.974104e+00 1.528933e+00 4.916895e+00
      vertex   1.000000e+01 1.534257e+00 4.858756e+00
    endloop
  endfacet
  facet normal -8.984838e-01 -1.469937e-01 -4.136661e-01
    outer loop
      vertex   1.000000e+01 1.534257e+00 4.858756e+00
      vertex   9.974104e+00 1.528933e+00 4.916895e+00
      vertex   9.964344e+00 1.588592e+00 4.916895e+00
    endloop
  endfacet
  facet normal -8.987284e-01 -1.481746e-01 -4.127125e-01
    outer loop
      vertex   1.000000e+01 1.534257e+00 4.858756e+00
      vertex   9.964344e+00 1.588592e+00 4.916895e+00
      vertex   1.000000e+01 1.593617e+00 4.837445e+00
    endloop
  endfacet
  facet normal -8.979925e-01 -1.526915e-01 -4.126679e-01
    outer loop
      vertex   1.000000e+01 1.593617e+00 4.837445e+00
      vertex   9.964344e+00 1.588592e+00 4.916895e+00
      vertex   9.954189e+00 1.648309e+00 4.916895e+00
    endloop
  endfacet
  facet normal -8.980196e-01 -1.529263e-01 -4.125219e-01
    outer loop
      vertex   1.000000e+01 1.593617e+00 4.837445e+00
      vertex   9.954189e+00 1.648309e+00 4.916895e+00
      vertex   9.991407e+00 1.654472e+00 4.833591e+00
    endloop
  endfacet
  facet normal -8.970893e-01 -1.583334e-01 -4.125062e-01
    outer loop
      vertex   9.991407e+00 1.654472e+00 4.833591e+00
      vertex   9.954189e+00 1.648309e+00 4.916895e+00
      vertex   9.980818e+00 1.714468e+00 4.833591e+00
    endloop
  endfacet
  facet normal -8.993003e-01 -1.587236e-01 -4.075117e-01
    outer loop
      vertex   9.991407e+00 1.654472e+00 4.833591e+00
      vertex   9.980818e+00 1.714468e+00 4.833591e+00
      vertex   1.000000e+01 1.711391e+00 4.792458e+00
    endloop
  endfacet
  facet normal -8.985663e-01 -1.648094e-01 -4.067141e-01
    outer loop
      vertex   1.000000e+01 1.711391e+00 4.792458e+00
      vertex   9.980818e+00 1.714468e+00 4.833591e+00
      vertex   1.000000e+01 1.769791e+00 4.768793e+00
    endloop
  endfacet
  facet normal -8.987442e-01 -1.644553e-01 -4.064644e-01
    outer loop
      vertex   1.000000e+01 1.769791e+00 4.768793e+00
      vertex   9.980818e+00 1.714468e+00 4.833591e+00
      vertex   9.969830e+00 1.774515e+00 4.833591e+00
    endloop
  endfacet
  facet normal -8.979560e-01 -1.706679e-01 -4.056446e-01
    outer loop
      vertex   1.000000e+01 1.769791e+00 4.768793e+00
      vertex   9.969830e+00 1.774515e+00 4.833591e+00
      vertex   9.994851e+00 1.841318e+00 4.750098e+00
    endloop
  endfacet
  facet normal -8.981818e-01 -1.702027e-01 -4.053401e-01
    outer loop
      vertex   9.994851e+00 1.841318e+00 4.750098e+00
      vertex   9.969830e+00 1.774515e+00 4.833591e+00
      vertex   9.958442e+00 1.834611e+00 4.833591e+00
    endloop
  endfacet
  facet normal -8.970982e-01 -1.758653e-01 -4.053224e-01
    outer loop
      vertex   9.994851e+00 1.841318e+00 4.750098e+00
      vertex   9.958442e+00 1.834611e+00 4.833591e+00
      vertex   9.983018e+00 1.901678e+00 4.750098e+00
    endloop
  endfacet
  facet normal -8.970982e-01 -1.758653e-01 -4.053224e-01
    outer loop
      vertex   9.983018e+00 1.901678e+00 4.750098e+00
      vertex   9.958442e+00 1.834611e+00 4.833591e+00
      vertex   9.946653e+00 1.894751e+00 4.833591e+00
    endloop
  endfacet
  facet normal -8.959771e-01 -1.815312e-01 -4.053042e-01
    outer loop
      vertex   9.983018e+00 1.901678e+00 4.750098e+00
      vertex   9.946653e+00 1.894751e+00 4.833591e+00
      vertex   9.970780e+00 1.962080e+00 4.750098e+00
    endloop
  endfacet
  facet normal -8.959771e-01 -1.815312e-01 -4.053042e-01
    outer loop
      vertex   9.970780e+00 1.962080e+00 4.750098e+00
      vertex   9.946653e+00 1.894751e+00 4.833591e+00
      vertex   9.934459e+00 1.954932e+00 4.833591e+00
    endloop
  endfacet
  facet normal -8.950404e-01 -1.861254e-01 -4.052900e-01
    outer loop
      vertex   9.970780e+00 1.962080e+00 4.750098e+00
      vertex   9.934459e+00 1.954932e+00 4.833591e+00
      vertex   9.962818e+00 2.000000e+00 4.750267e+00
    endloop
  endfacet
  facet normal -8.948961e-01 -1.864929e-01 -4.054397e-01
    outer loop
      vertex   9.962818e+00 2.000000e+00 4.750267e+00
      vertex   9.934459e+00 1.954932e+00 4.833591e+00
      vertex   9.924966e+00 2.000000e+00 4.833814e+00
    endloop
  endfacet
  facet normal -8.918420e-01 -1.858150e-01 -4.124205e-01
    outer loop
      vertex   9.924966e+00 2.000000e+00 4.833814e+00
      vertex   9.934459e+00 1.954932e+00 4.833591e+00
      vertex   9.897454e+00 1.947650e+00 4.916895e+00
    endloop
  endfacet
  facet normal -8.916829e-01 -1.861818e-01 -4.125989e-01
    outer loop
      vertex   9.924966e+00 2.000000e+00 4.833814e+00
      vertex   9.897454e+00 1.947650e+00 4.916895e+00
      vertex   9.886447e+00 2.000000e+00 4.917060e+00
    endloop
  endfacet
  facet normal -8.885899e-01 -1.855097e-01 -4.195165e-01
    outer loop
      vertex   9.886447e+00 2.000000e+00 4.917060e+00
      vertex   9.897454e+00 1.947650e+00 4.916895e+00
      vertex   9.859584e+00 1.941108e+00 5.000000e+00
    endloop
  endfacet
  facet normal -8.884051e-01 -1.859012e-01 -4.197347e-01
    outer loop
      vertex   9.886447e+00 2.000000e+00 4.917060e+00
      vertex   9.859584e+00 1.941108e+00 5.000000e+00
      vertex   9.847261e+00 2.000000e+00 5.000000e+00
    endloop
  endfacet
  facet normal -8.982464e-01 -1.300877e-01 -4.197983e-01
    outer loop
      vertex   9.962480e+00 1.348557e+00 5.000000e+00
      vertex   9.953859e+00 1.408084e+00 5.000000e+00
      vertex   9.992450e+00 1.409803e+00 4.916895e+00
    endloop
  endfacet
  facet normal -8.975641e-01 -1.353602e-01 -4.195905e-01
    outer loop
      vertex   9.992450e+00 1.409803e+00 4.916895e+00
      vertex   9.953859e+00 1.408084e+00 5.000000e+00
      vertex   9.983472e+00 1.469335e+00 4.916895e+00
    endloop
  endfacet
  facet normal -8.974204e-01 -1.356985e-01 -4.197886e-01
    outer loop
      vertex   9.953859e+00 1.408084e+00 5.000000e+00
      vertex   9.944867e+00 1.467556e+00 5.000000e+00
      vertex   9.983472e+00 1.469335e+00 4.916895e+00
    endloop
  endfacet
  facet normal -8.967111e-01 -1.409565e-01 -4.195717e-01
    outer loop
      vertex   9.983472e+00 1.469335e+00 4.916895e+00
      vertex   9.944867e+00 1.467556e+00 5.000000e+00
      vertex   9.974104e+00 1.528933e+00 4.916895e+00
    endloop
  endfacet
  facet normal -8.965612e-01 -1.413036e-01 -4.197754e-01
    outer loop
      vertex   9.944867e+00 1.467556e+00 5.000000e+00
      vertex   9.935503e+00 1.526969e+00 5.000000e+00
      vertex   9.974104e+00 1.528933e+00 4.916895e+00
    endloop
  endfacet
  facet normal -8.958203e-01 -1.465580e-01 -4.195554e-01
    outer loop
      vertex   9.974104e+00 1.528933e+00 4.916895e+00
      vertex   9.935503e+00 1.526969e+00 5.000000e+00
      vertex   9.964344e+00 1.588592e+00 4.916895e+00
    endloop
  endfacet
  facet normal -8.956687e-01 -1.469028e-01 -4.197585e-01
    outer loop
      vertex   9.935503e+00 1.526969e+00 5.000000e+00
      vertex   9.925768e+00 1.586323e+00 5.000000e+00
      vertex   9.964344e+00 1.588592e+00 4.916895e+00
    endloop
  endfacet
  facet normal -8.948916e-01 -1.521642e-01 -4.195415e-01
    outer loop
      vertex   9.964344e+00 1.588592e+00 4.916895e+00
      vertex   9.925768e+00 1.586323e+00 5.000000e+00
      vertex   9.954189e+00 1.648309e+00 4.916895e+00
    endloop
  endfacet
  facet normal -8.947429e-01 -1.524960e-01 -4.197381e-01
    outer loop
      vertex   9.925768e+00 1.586323e+00 5.000000e+00
      vertex   9.915662e+00 1.645616e+00 5.000000e+00
      vertex   9.954189e+00 1.648309e+00 4.916895e+00
    endloop
  endfacet
  facet normal -8.939249e-01 -1.577749e-01 -4.195299e-01
    outer loop
      vertex   9.954189e+00 1.648309e+00 4.916895e+00
      vertex   9.915662e+00 1.645616e+00 5.000000e+00
      vertex   9.943640e+00 1.708081e+00 4.916895e+00
    endloop
  endfacet
  facet normal -8.970893e-01 -1.583334e-01 -4.125062e-01
    outer loop
      vertex   9.954189e+00 1.648309e+00 4.916895e+00
      vertex   9.943640e+00 1.708081e+00 4.916895e+00
      vertex   9.980818e+00 1.714468e+00 4.833591e+00
    endloop
  endfacet
  facet normal -8.960840e-01 -1.639685e-01 -4.124896e-01
    outer loop
      vertex   9.980818e+00 1.714468e+00 4.833591e+00
      vertex   9.943640e+00 1.708081e+00 4.916895e+00
      vertex   9.969830e+00 1.774515e+00 4.833591e+00
    endloop
  endfacet
  facet normal -8.937840e-01 -1.580830e-01 -4.197141e-01
    outer loop
      vertex   9.915662e+00 1.645616e+00 5.000000e+00
      vertex   9.905186e+00 1.704847e+00 5.000000e+00
      vertex   9.943640e+00 1.708081e+00 4.916895e+00
    endloop
  endfacet
  facet normal -8.929200e-01 -1.633896e-01 -4.195208e-01
    outer loop
      vertex   9.943640e+00 1.708081e+00 4.916895e+00
      vertex   9.905186e+00 1.704847e+00 5.000000e+00
      vertex   9.932693e+00 1.767905e+00 4.916895e+00
    endloop
  endfacet
  facet normal -8.960840e-01 -1.639685e-01 -4.124896e-01
    outer loop
      vertex   9.943640e+00 1.708081e+00 4.916895e+00
      vertex   9.932693e+00 1.767905e+00 4.916895e+00
      vertex   9.969830e+00 1.774515e+00 4.833591e+00
    endloop
  endfacet
  facet normal -8.950417e-01 -1.696077e-01 -4.124724e-01
    outer loop
      vertex   9.969830e+00 1.774515e+00 4.833591e+00
      vertex   9.932693e+00 1.767905e+00 4.916895e+00
      vertex   9.958442e+00 1.834611e+00 4.833591e+00
    endloop
  endfacet
  facet normal -8.927920e-01 -1.636636e-01 -4.196864e-01
    outer loop
      vertex   9.905186e+00 1.704847e+00 5.000000e+00
      vertex   9.894340e+00 1.764013e+00 5.000000e+00
      vertex   9.932693e+00 1.767905e+00 4.916895e+00
    endloop
  endfacet
  facet normal -8.918767e-01 -1.690080e-01 -4.195143e-01
    outer loop
      vertex   9.932693e+00 1.767905e+00 4.916895e+00
      vertex   9.894340e+00 1.764013e+00 5.000000e+00
      vertex   9.921348e+00 1.827777e+00 4.916895e+00
    endloop
  endfacet
  facet normal -8.950417e-01 -1.696077e-01 -4.124724e-01
    outer loop
      vertex   9.932693e+00 1.767905e+00 4.916895e+00
      vertex   9.921348e+00 1.827777e+00 4.916895e+00
      vertex   9.958442e+00 1.834611e+00 4.833591e+00
    endloop
  endfacet
  facet normal -8.939622e-01 -1.752505e-01 -4.124546e-01
    outer loop
      vertex   9.958442e+00 1.834611e+00 4.833591e+00
      vertex   9.921348e+00 1.827777e+00 4.916895e+00
      vertex   9.946653e+00 1.894751e+00 4.833591e+00
    endloop
  endfacet
  facet normal -8.917670e-01 -1.692378e-01 -4.196550e-01
    outer loop
      vertex   9.894340e+00 1.764013e+00 5.000000e+00
      vertex   9.883124e+00 1.823113e+00 5.000000e+00
      vertex   9.921348e+00 1.827777e+00 4.916895e+00
    endloop
  endfacet
  facet normal -8.907949e-01 -1.746296e-01 -4.195105e-01
    outer loop
      vertex   9.921348e+00 1.827777e+00 4.916895e+00
      vertex   9.883124e+00 1.823113e+00 5.000000e+00
      vertex   9.909602e+00 1.887693e+00 4.916895e+00
    endloop
  endfacet
  facet normal -8.939622e-01 -1.752505e-01 -4.124546e-01
    outer loop
      vertex   9.921348e+00 1.827777e+00 4.916895e+00
      vertex   9.909602e+00 1.887693e+00 4.916895e+00
      vertex   9.946653e+00 1.894751e+00 4.833591e+00
    endloop
  endfacet
  facet normal -8.928453e-01 -1.808967e-01 -4.124362e-01
    outer loop
      vertex   9.946653e+00 1.894751e+00 4.833591e+00
      vertex   9.909602e+00 1.887693e+00 4.916895e+00
      vertex   9.934459e+00 1.954932e+00 4.833591e+00
    endloop
  endfacet
  facet normal -8.907090e-01 -1.748053e-01 -4.196196e-01
    outer loop
      vertex   9.883124e+00 1.823113e+00 5.000000e+00
      vertex   9.871539e+00 1.882145e+00 5.000000e+00
      vertex   9.909602e+00 1.887693e+00 4.916895e+00
    endloop
  endfacet
  facet normal -8.896742e-01 -1.802542e-01 -4.195094e-01
    outer loop
      vertex   9.909602e+00 1.887693e+00 4.916895e+00
      vertex   9.871539e+00 1.882145e+00 5.000000e+00
      vertex   9.897454e+00 1.947650e+00 4.916895e+00
    endloop
  endfacet
  facet normal -8.928453e-01 -1.808967e-01 -4.124362e-01
    outer loop
      vertex   9.909602e+00 1.887693e+00 4.916895e+00
      vertex   9.897454e+00 1.947650e+00 4.916895e+00
      vertex   9.934459e+00 1.954932e+00 4.833591e+00
    endloop
  endfacet
  facet normal -8.896182e-01 -1.803661e-01 -4.195802e-01
    outer loop
      vertex   9.871539e+00 1.882145e+00 5.000000e+00
      vertex   9.859584e+00 1.941108e+00 5.000000e+00
      vertex   9.897454e+00 1.947650e+00 4.916895e+00
    endloop
  endfacet
  facet normal -8.980523e-01 -1.867893e-01 -3.982609e-01
    outer loop
      vertex   9.962818e+00 2.000000e+00 4.750267e+00
      vertex   1.000000e+01 2.000000e+00 4.666424e+00
      vertex   9.970780e+00 1.962080e+00 4.750098e+00
    endloop
  endfacet
  facet normal -8.980769e-01 -1.867198e-01 -3.982380e-01
    outer loop
      vertex   9.970780e+00 1.962080e+00 4.750098e+00
      vertex   1.000000e+01 2.000000e+00 4.666424e+00
      vertex   1.000000e+01 1.942970e+00 4.693164e+00
    endloop
  endfacet
  facet normal -8.982926e-01 -1.820003e-01 -3.999328e-01
    outer loop
      vertex   9.970780e+00 1.962080e+00 4.750098e+00
      vertex   1.000000e+01 1.942970e+00 4.693164e+00
      vertex   9.983018e+00 1.901678e+00 4.750098e+00
    endloop
  endfacet
  facet normal -8.988894e-01 -1.807112e-01 -3.991758e-01
    outer loop
      vertex   9.983018e+00 1.901678e+00 4.750098e+00
      vertex   1.000000e+01 1.942970e+00 4.693164e+00
      vertex   1.000000e+01 1.885588e+00 4.719141e+00
    endloop
  endfacet
  facet normal -8.987697e-01 -1.761930e-01 -4.014587e-01
    outer loop
      vertex   9.983018e+00 1.901678e+00 4.750098e+00
      vertex   1.000000e+01 1.885588e+00 4.719141e+00
      vertex   9.994851e+00 1.841318e+00 4.750098e+00
    endloop
  endfacet
  facet normal -9.003222e-01 -1.741863e-01 -3.988471e-01
    outer loop
      vertex   9.994851e+00 1.841318e+00 4.750098e+00
      vertex   1.000000e+01 1.885588e+00 4.719141e+00
      vertex   1.000000e+01 1.827859e+00 4.744353e+00
    endloop
  endfacet
  facet normal -8.981254e-01 -1.705905e-01 -4.053019e-01
    outer loop
      vertex   9.994851e+00 1.841318e+00 4.750098e+00
      vertex   1.000000e+01 1.827859e+00 4.744353e+00
      vertex   1.000000e+01 1.769791e+00 4.768793e+00
    endloop
  endfacet
  facet normal -8.991882e-01 -1.588763e-01 -4.076996e-01
    outer loop
      vertex   1.000000e+01 1.711391e+00 4.792458e+00
      vertex   1.000000e+01 1.652664e+00 4.815344e+00
      vertex   9.991407e+00 1.654472e+00 4.833591e+00
    endloop
  endfacet
  facet normal -8.998169e-01 -1.529307e-01 -4.085850e-01
    outer loop
      vertex   9.991407e+00 1.654472e+00 4.833591e+00
      vertex   1.000000e+01 1.652664e+00 4.815344e+00
      vertex   1.000000e+01 1.593617e+00 4.837445e+00
    endloop
  endfacet
  facet normal 1.000000e+00 2.276193e-15 5.122824e-15
    outer loop
      vertex   1.000000e+01 1.996779e+00 5.000000e+00
      vertex   1.000000e+01 1.534257e+00 4.858756e+00
      vertex   1.000000e+01 2.000000e+00 4.998569e+00
    endloop
  endfacet
  facet normal 1.000000e+00 1.570435e-14 -3.960905e-14
    outer loop
      vertex   1.000000e+01 2.000000e+00 4.998569e+00
      vertex   1.000000e+01 1.534257e+00 4.858756e+00
      vertex   1.000000e+01 1.593617e+00 4.837445e+00
    endloop
  endfacet
  facet normal 1.000000e+00 0.000000e+00 0.000000e+00
    outer loop
      vertex   1.000000e+01 2.000000e+00 4.998569e+00
      vertex   1.000000e+01 1.593617e+00 4.837445e+00
      vertex   1.000000e+01 1.652664e+00 4.815344e+00
    endloop
  endfacet
  facet normal 1.000000e+00 -0.000000e+00 0.000000e+00
    outer loop
      vertex   1.000000e+01 1.050138e+00 5.000000e+00
      vertex   1.000000e+01 1.111406e+00 4.985239e+00
      vertex   1.000000e+01 1.996779e+00 5.000000e+00
    endloop
  endfacet
  facet normal 1.000000e+00 0.000000e+00 0.000000e+00
    outer loop
      vertex   1.000000e+01 1.996779e+00 5.000000e+00
      vertex   1.000000e+01 1.111406e+00 4.985239e+00
      vertex   1.000000e+01 1.172477e+00 4.969645e+00
    endloop
  endfacet
  facet normal 1.000000e+00 -3.504612e-15 9.516939e-14
    outer loop
      vertex   1.000000e+01 1.996779e+00 5.000000e+00
      vertex   1.000000e+01 1.172477e+00 4.969645e+00
      vertex   1.000000e+01 1.233342e+00 4.953221e+00
    endloop
  endfacet
  facet normal 1.000000e+00 7.105359e-15 -7.798707e-14
    outer loop
      vertex   1.000000e+01 1.233342e+00 4.953221e+00
      vertex   1.000000e+01 1.293994e+00 4.935970e+00
      vertex   1.000000e+01 1.996779e+00 5.000000e+00
    endloop
  endfacet
  facet normal 1.000000e+00 -6.862741e-15 7.532414e-14
    outer loop
      vertex   1.000000e+01 1.996779e+00 5.000000e+00
      vertex   1.000000e+01 1.293994e+00 4.935970e+00
      vertex   1.000000e+01 1.354426e+00 4.917893e+00
    endloop
  endfacet
  facet normal 1.000000e+00 1.965220e-15 6.259983e-15
    outer loop
      vertex   1.000000e+01 1.996779e+00 5.000000e+00
      vertex   1.000000e+01 1.354426e+00 4.917893e+00
      vertex   1.000000e+01 1.414629e+00 4.898993e+00
    endloop
  endfacet
  facet normal 1.000000e+00 1.997472e-15 6.074102e-15
    outer loop
      vertex   1.000000e+01 1.414629e+00 4.898993e+00
      vertex   1.000000e+01 1.474590e+00 4.879275e+00
      vertex   1.000000e+01 1.996779e+00 5.000000e+00
    endloop
  endfacet
  facet normal 1.000000e+00 2.034174e-15 5.915349e-15
    outer loop
      vertex   1.000000e+01 1.996779e+00 5.000000e+00
      vertex   1.000000e+01 1.474590e+00 4.879275e+00
      vertex   1.000000e+01 1.534257e+00 4.858756e+00
    endloop
  endfacet
  facet normal 1.000000e+00 -0.000000e+00 0.000000e+00
    outer loop
      vertex   1.000000e+01 1.652664e+00 4.815344e+00
      vertex   1.000000e+01 1.711391e+00 4.792458e+00
      vertex   1.000000e+01 2.000000e+00 4.998569e+00
    endloop
  endfacet
  facet normal 1.000000e+00 0.000000e+00 0.000000e+00
    outer loop
      vertex   1.000000e+01 2.000000e+00 4.998569e+00
      vertex   1.000000e+01 1.711391e+00 4.792458e+00
      vertex   1.000000e+01 1.769791e+00 4.768793e+00
    endloop
  endfacet
  facet normal 1.000000e+00 0.000000e+00 0.000000e+00
    outer loop
      vertex   1.000000e+01 2.000000e+00 4.998569e+00
      vertex   1.000000e+01 1.769791e+00 4.768793e+00
      vertex   1.000000e+01 1.827859e+00 4.744353e+00
    endloop
  endfacet
  facet normal 1.000000e+00 -0.000000e+00 0.000000e+00
    outer loop
      vertex   1.000000e+01 1.827859e+00 4.744353e+00
      vertex   1.000000e+01 1.885588e+00 4.719141e+00
      vertex   1.000000e+01 2.000000e+00 4.998569e+00
    endloop
  endfacet
  facet normal 1.000000e+00 0.000000e+00 0.000000e+00
    outer loop
      vertex   1.000000e+01 2.000000e+00 4.998569e+00
      vertex   1.000000e+01 1.885588e+00 4.719141e+00
      vertex   1.000000e+01 1.942970e+00 4.693164e+00
    endloop
  endfacet
  facet normal 1.000000e+00 0.000000e+00 0.000000e+00
    outer loop
      vertex   1.000000e+01 2.000000e+00 4.998569e+00
      vertex   1.000000e+01 1.942970e+00 4.693164e+00
      vertex   1.000000e+01 2.000000e+00 4.666424e+00
    endloop
  endfacet
  facet normal 0.000000e+00 0.000000e+00 1.000000e+00
    outer loop
      vertex   9.999327e+00 2.000000e+00 5.000000e+00
      vertex   9.935503e+00 1.526969e+00 5.000000e+00
      vertex   1.000000e+01 1.996779e+00 5.000000e+00
    endloop
  endfacet
  facet normal 0.000000e+00 0.000000e+00 1.000000e+00
    outer loop
      vertex   1.000000e+01 1.996779e+00 5.000000e+00
      vertex   9.935503e+00 1.526969e+00 5.000000e+00
      vertex   9.944867e+00 1.467556e+00 5.000000e+00
    endloop
  endfacet
  facet normal 0.000000e+00 0.000000e+00 1.000000e+00
    outer loop
      vertex   1.000000e+01 1.996779e+00 5.000000e+00
      vertex   9.944867e+00 1.467556e+00 5.000000e+00
      vertex   9.953859e+00 1.408084e+00 5.000000e+00
    endloop
  endfacet
  facet normal -0.000000e+00 0.000000e+00 1.000000e+00
    outer loop
      vertex   9.847261e+00 2.000000e+00 5.000000e+00
      vertex   9.859584e+00 1.941108e+00 5.000000e+00
      vertex   9.999327e+00 2.000000e+00 5.000000e+00
    endloop
  endfacet
  facet normal 0.000000e+00 0.000000e+00 1.000000e+00
    outer loop
      vertex   9.999327e+00 2.000000e+00 5.000000e+00
      vertex   9.859584e+00 1.941108e+00 5.000000e+00
      vertex   9.871539e+00 1.882145e+00 5.000000e+00
    endloop
  endfacet
  facet normal 0.000000e+00 0.000000e+00 1.000000e+00
    outer loop
      vertex   9.999327e+00 2.000000e+00 5.000000e+00
      vertex   9.871539e+00 1.882145e+00 5.000000e+00
      vertex   9.883124e+00 1.823113e+00 5.000000e+00
    endloop
  endfacet
  facet normal -0.000000e+00 0.000000e+00 1.000000e+00
    outer loop
      vertex   9.883124e+00 1.823113e+00 5.000000e+00
      vertex   9.894340e+00 1.764013e+00 5.000000e+00
      vertex   9.999327e+00 2.000000e+00 5.000000e+00
    endloop
  endfacet
  facet normal 0.000000e+00 0.000000e+00 1.000000e+00
    outer loop
      vertex   9.999327e+00 2.000000e+00 5.000000e+00
      vertex   9.894340e+00 1.764013e+00 5.000000e+00
      vertex   9.905186e+00 1.704847e+00 5.000000e+00
    endloop
  endfacet
  facet normal 0.000000e+00 0.000000e+00 1.000000e+00
    outer loop
      vertex   9.999327e+00 2.000000e+00 5.000000e+00
      vertex   9.905186e+00 1.704847e+00 5.000000e+00
      vertex   9.915662e+00 1.645616e+00 5.000000e+00
    endloop
  endfacet
  facet normal -0.000000e+00 0.000000e+00 1.000000e+00
    outer loop
      vertex   9.915662e+00 1.645616e+00 5.000000e+00
      vertex   9.925768e+00 1.586323e+00 5.000000e+00
      vertex   9.999327e+00 2.000000e+00 5.000000e+00
    endloop
  endfacet
  facet normal 0.000000e+00 0.000000e+00 1.000000e+00
    outer loop
      vertex   9.999327e+00 2.000000e+00 5.000000e+00
      vertex   9.925768e+00 1.586323e+00 5.000000e+00
      vertex   9.935503e+00 1.526969e+00 5.000000e+00
    endloop
  endfacet
  facet normal -0.000000e+00 0.000000e+00 1.000000e+00
    outer loop
      vertex   9.953859e+00 1.408084e+00 5.000000e+00
      vertex   9.962480e+00 1.348557e+00 5.000000e+00
      vertex   1.000000e+01 1.996779e+00 5.000000e+00
    endloop
  endfacet
  facet normal 0.000000e+00 0.000000e+00 1.000000e+00
    outer loop
      vertex   1.000000e+01 1.996779e+00 5.000000e+00
      vertex   9.962480e+00 1.348557e+00 5.000000e+00
      vertex   9.970730e+00 1.288975e+00 5.000000e+00
    endloop
  endfacet
  facet normal 0.000000e+00 0.000000e+00 1.000000e+00
    outer loop
      vertex   1.000000e+01 1.996779e+00 5.000000e+00
      vertex   9.970730e+00 1.288975e+00 5.000000e+00
      vertex   9.978606e+00 1.229341e+00 5.000000e+00
    endloop
  endfacet
  facet normal -0.000000e+00 0.000000e+00 1.000000e+00
    outer loop
      vertex   9.978606e+00 1.229341e+00 5.000000e+00
      vertex   9.986111e+00 1.169655e+00 5.000000e+00
      vertex   1.000000e+01 1.996779e+00 5.000000e+00
    endloop
  endfacet
  facet normal 0.000000e+00 0.000000e+00 1.000000e+00
    outer loop
      vertex   1.000000e+01 1.996779e+00 5.000000e+00
      vertex   9.986111e+00 1.169655e+00 5.000000e+00
      vertex   9.993242e+00 1.109921e+00 5.000000e+00
    endloop
  endfacet
  facet normal 0.000000e+00 0.000000e+00 1.000000e+00
    outer loop
      vertex   1.000000e+01 1.996779e+00 5.000000e+00
      vertex   9.993242e+00 1.109921e+00 5.000000e+00
      vertex   1.000000e+01 1.050138e+00 5.000000e+00
    endloop
  endfacet
  facet normal 5.823082e-15 1.000000e+00 2.738927e-15
    outer loop
      vertex   1.000000e+01 2.000000e+00 4.998569e+00
      vertex   9.924966e+00 2.000000e+00 4.833814e+00
      vertex   9.999327e+00 2.000000e+00 5.000000e+00
    endloop
  endfacet
  facet normal -5.850408e-15 1.000000e+00 7.962271e-15
    outer loop
      vertex   9.999327e+00 2.000000e+00 5.000000e+00
      vertex   9.924966e+00 2.000000e+00 4.833814e+00
      vertex   9.886447e+00 2.000000e+00 4.917060e+00
    endloop
  endfacet
  facet normal 0.000000e+00 1.000000e+00 0.000000e+00
    outer loop
      vertex   9.999327e+00 2.000000e+00 5.000000e+00
      vertex   9.886447e+00 2.000000e+00 4.917060e+00
      vertex   9.847261e+00 2.000000e+00 5.000000e+00
    endloop
  endfacet
  facet normal 0.000000e+00 1.000000e+00 -0.000000e+00
    outer loop
      vertex   1.000000e+01 2.000000e+00 4.666424e+00
      vertex   9.962818e+00 2.000000e+00 4.750267e+00
      vertex   1.000000e+01 2.000000e+00 4.998569e+00
    endloop
  endfacet
  facet normal 1.763581e-14 1.000000e+00 -2.640889e-15
    outer loop
      vertex   1.000000e+01 2.000000e+00 4.998569e+00
      vertex   9.962818e+00 2.000000e+00 4.750267e+00
      vertex   9.924966e+00 2.000000e+00 4.833814e+00
    endloop
  endfacet
endsolid
