solid ASCII
  facet normal 1.632275e-01 8.326263e-01 5.292355e-01
    outer loop
      vertex   2.000000e+00 9.068735e+00 6.328917e+00
      vertex   2.000000e+00 9.000000e+00 6.437055e+00
      vertex   2.012893e+00 9.031841e+00 6.382985e+00
    endloop
  endfacet
  facet normal 1.783276e-01 8.287000e-01 5.305239e-01
    outer loop
      vertex   2.012893e+00 9.031841e+00 6.382985e+00
      vertex   2.000000e+00 9.000000e+00 6.437055e+00
      vertex   2.064472e+00 9.000000e+00 6.415384e+00
    endloop
  endfacet
  facet normal 1.795476e-01 8.293007e-01 5.291721e-01
    outer loop
      vertex   2.012893e+00 9.031841e+00 6.382985e+00
      vertex   2.064472e+00 9.000000e+00 6.415384e+00
      vertex   2.073952e+00 9.018621e+00 6.382985e+00
    endloop
  endfacet
  facet normal 1.843398e-01 8.278757e-01 5.297553e-01
    outer loop
      vertex   2.073952e+00 9.018621e+00 6.382985e+00
      vertex   2.064472e+00 9.000000e+00 6.415384e+00
      vertex   2.128713e+00 9.000000e+00 6.393030e+00
    endloop
  endfacet
  facet normal 1.851365e-01 8.290641e-01 5.276147e-01
    outer loop
      vertex   2.073952e+00 9.018621e+00 6.382985e+00
      vertex   2.128713e+00 9.000000e+00 6.393030e+00
      vertex   2.135038e+00 9.004980e+00 6.382985e+00
    endloop
  endfacet
  facet normal 1.906641e-01 8.264227e-01 5.297855e-01
    outer loop
      vertex   2.135038e+00 9.004980e+00 6.382985e+00
      vertex   2.128713e+00 9.000000e+00 6.393030e+00
      vertex   2.192718e+00 9.000000e+00 6.369995e+00
    endloop
  endfacet
  facet normal 1.900010e-01 8.291097e-01 5.258105e-01
    outer loop
      vertex   2.135038e+00 9.004980e+00 6.382985e+00
      vertex   2.192718e+00 9.000000e+00 6.369995e+00
      vertex   2.142773e+00 9.037604e+00 6.328748e+00
    endloop
  endfacet
  facet normal 1.908844e-01 8.294107e-01 5.250153e-01
    outer loop
      vertex   2.142773e+00 9.037604e+00 6.328748e+00
      vertex   2.192718e+00 9.000000e+00 6.369995e+00
      vertex   2.204102e+00 9.023489e+00 6.328748e+00
    endloop
  endfacet
  facet normal 1.914116e-01 8.317013e-01 5.211857e-01
    outer loop
      vertex   2.142773e+00 9.037604e+00 6.328748e+00
      vertex   2.204102e+00 9.023489e+00 6.328748e+00
      vertex   2.211986e+00 9.055765e+00 6.274348e+00
    endloop
  endfacet
  facet normal 1.968230e-01 8.304216e-01 5.212107e-01
    outer loop
      vertex   2.211986e+00 9.055765e+00 6.274348e+00
      vertex   2.204102e+00 9.023489e+00 6.328748e+00
      vertex   2.273552e+00 9.041172e+00 6.274348e+00
    endloop
  endfacet
  facet normal 1.974722e-01 8.331608e-01 5.165731e-01
    outer loop
      vertex   2.211986e+00 9.055765e+00 6.274348e+00
      vertex   2.273552e+00 9.041172e+00 6.274348e+00
      vertex   2.281580e+00 9.073098e+00 6.219788e+00
    endloop
  endfacet
  facet normal 2.029037e-01 8.318388e-01 5.165988e-01
    outer loop
      vertex   2.281580e+00 9.073098e+00 6.219788e+00
      vertex   2.273552e+00 9.041172e+00 6.274348e+00
      vertex   2.343378e+00 9.058024e+00 6.219788e+00
    endloop
  endfacet
  facet normal 2.035641e-01 8.345464e-01 5.119511e-01
    outer loop
      vertex   2.281580e+00 9.073098e+00 6.219788e+00
      vertex   2.343378e+00 9.058024e+00 6.219788e+00
      vertex   2.351546e+00 9.089598e+00 6.165070e+00
    endloop
  endfacet
  facet normal 2.090152e-01 8.331817e-01 5.119774e-01
    outer loop
      vertex   2.351546e+00 9.089598e+00 6.165070e+00
      vertex   2.343378e+00 9.058024e+00 6.219788e+00
      vertex   2.413568e+00 9.074039e+00 6.165070e+00
    endloop
  endfacet
  facet normal 2.096865e-01 8.358577e-01 5.073199e-01
    outer loop
      vertex   2.351546e+00 9.089598e+00 6.165070e+00
      vertex   2.413568e+00 9.074039e+00 6.165070e+00
      vertex   2.421873e+00 9.105260e+00 6.110198e+00
    endloop
  endfacet
  facet normal 2.151567e-01 8.344500e-01 5.073468e-01
    outer loop
      vertex   2.421873e+00 9.105260e+00 6.110198e+00
      vertex   2.413568e+00 9.074039e+00 6.165070e+00
      vertex   2.484113e+00 9.089212e+00 6.110198e+00
    endloop
  endfacet
  facet normal 2.158385e-01 8.370943e-01 5.026797e-01
    outer loop
      vertex   2.421873e+00 9.105260e+00 6.110198e+00
      vertex   2.484113e+00 9.089212e+00 6.110198e+00
      vertex   2.492549e+00 9.120079e+00 6.055173e+00
    endloop
  endfacet
  facet normal 2.213272e-01 8.356433e-01 5.027072e-01
    outer loop
      vertex   2.492549e+00 9.120079e+00 6.055173e+00
      vertex   2.484113e+00 9.089212e+00 6.110198e+00
      vertex   2.555002e+00 9.103538e+00 6.055173e+00
    endloop
  endfacet
  facet normal 2.220048e-01 8.382017e-01 4.981283e-01
    outer loop
      vertex   2.492549e+00 9.120079e+00 6.055173e+00
      vertex   2.555002e+00 9.103538e+00 6.055173e+00
      vertex   2.503438e+00 9.149984e+00 6.000000e+00
    endloop
  endfacet
  facet normal 2.222466e-01 8.382485e-01 4.979417e-01
    outer loop
      vertex   2.503438e+00 9.149984e+00 6.000000e+00
      vertex   2.555002e+00 9.103538e+00 6.055173e+00
      vertex   2.565906e+00 9.133422e+00 6.000000e+00
    endloop
  endfacet
  facet normal 2.275121e-01 8.367109e-01 4.981496e-01
    outer loop
      vertex   2.565906e+00 9.133422e+00 6.000000e+00
      vertex   2.555002e+00 9.103538e+00 6.055173e+00
      vertex   2.617450e+00 9.086558e+00 6.055173e+00
    endloop
  endfacet
  facet normal 2.277304e-01 8.367521e-01 4.979807e-01
    outer loop
      vertex   2.565906e+00 9.133422e+00 6.000000e+00
      vertex   2.617450e+00 9.086558e+00 6.055173e+00
      vertex   2.628265e+00 9.116450e+00 6.000000e+00
    endloop
  endfacet
  facet normal 2.330205e-01 8.351829e-01 4.981676e-01
    outer loop
      vertex   2.628265e+00 9.116450e+00 6.000000e+00
      vertex   2.617450e+00 9.086558e+00 6.055173e+00
      vertex   2.679889e+00 9.069137e+00 6.055173e+00
    endloop
  endfacet
  facet normal 2.332046e-01 8.352169e-01 4.980244e-01
    outer loop
      vertex   2.628265e+00 9.116450e+00 6.000000e+00
      vertex   2.679889e+00 9.069137e+00 6.055173e+00
      vertex   2.690512e+00 9.099070e+00 6.000000e+00
    endloop
  endfacet
  facet normal 2.385297e-01 8.336176e-01 4.981821e-01
    outer loop
      vertex   2.690512e+00 9.099070e+00 6.000000e+00
      vertex   2.679889e+00 9.069137e+00 6.055173e+00
      vertex   2.742316e+00 9.051274e+00 6.055173e+00
    endloop
  endfacet
  facet normal 2.386692e-01 8.336428e-01 4.980729e-01
    outer loop
      vertex   2.690512e+00 9.099070e+00 6.000000e+00
      vertex   2.742316e+00 9.051274e+00 6.055173e+00
      vertex   2.752646e+00 9.081281e+00 6.000000e+00
    endloop
  endfacet
  facet normal 2.440515e-01 8.320111e-01 4.981932e-01
    outer loop
      vertex   2.752646e+00 9.081281e+00 6.000000e+00
      vertex   2.742316e+00 9.051274e+00 6.055173e+00
      vertex   2.805003e+00 9.032887e+00 6.055173e+00
    endloop
  endfacet
  facet normal 2.441220e-01 8.320238e-01 4.981374e-01
    outer loop
      vertex   2.752646e+00 9.081281e+00 6.000000e+00
      vertex   2.805003e+00 9.032887e+00 6.055173e+00
      vertex   2.814664e+00 9.063085e+00 6.000000e+00
    endloop
  endfacet
  facet normal 2.495609e-01 8.303778e-01 4.981889e-01
    outer loop
      vertex   2.814664e+00 9.063085e+00 6.000000e+00
      vertex   2.805003e+00 9.032887e+00 6.055173e+00
      vertex   2.867061e+00 9.014236e+00 6.055173e+00
    endloop
  endfacet
  facet normal 2.495686e-01 8.303791e-01 4.981827e-01
    outer loop
      vertex   2.814664e+00 9.063085e+00 6.000000e+00
      vertex   2.867061e+00 9.014236e+00 6.055173e+00
      vertex   2.876563e+00 9.044481e+00 6.000000e+00
    endloop
  endfacet
  facet normal 2.550095e-01 8.287108e-01 4.982053e-01
    outer loop
      vertex   2.876563e+00 9.044481e+00 6.000000e+00
      vertex   2.867061e+00 9.014236e+00 6.055173e+00
      vertex   2.938343e+00 9.025470e+00 6.000000e+00
    endloop
  endfacet
  facet normal 2.549876e-01 8.287320e-01 4.981813e-01
    outer loop
      vertex   2.938343e+00 9.025470e+00 6.000000e+00
      vertex   2.867061e+00 9.014236e+00 6.055173e+00
      vertex   2.939750e+00 9.000000e+00 6.041649e+00
    endloop
  endfacet
  facet normal 2.605027e-01 8.275588e-01 4.972774e-01
    outer loop
      vertex   2.938343e+00 9.025470e+00 6.000000e+00
      vertex   2.939750e+00 9.000000e+00 6.041649e+00
      vertex   3.000000e+00 9.000000e+00 6.010087e+00
    endloop
  endfacet
  facet normal 1.954268e-01 8.280489e-01 5.254935e-01
    outer loop
      vertex   2.192718e+00 9.000000e+00 6.369995e+00
      vertex   2.256481e+00 9.000000e+00 6.346282e+00
      vertex   2.204102e+00 9.023489e+00 6.328748e+00
    endloop
  endfacet
  facet normal 1.964852e-01 8.289965e-01 5.236013e-01
    outer loop
      vertex   2.204102e+00 9.023489e+00 6.328748e+00
      vertex   2.256481e+00 9.000000e+00 6.346282e+00
      vertex   2.265449e+00 9.008949e+00 6.328748e+00
    endloop
  endfacet
  facet normal 1.968230e-01 8.304216e-01 5.212107e-01
    outer loop
      vertex   2.204102e+00 9.023489e+00 6.328748e+00
      vertex   2.265449e+00 9.008949e+00 6.328748e+00
      vertex   2.273552e+00 9.041172e+00 6.274348e+00
    endloop
  endfacet
  facet normal 2.015530e-01 8.292716e-01 5.212341e-01
    outer loop
      vertex   2.273552e+00 9.041172e+00 6.274348e+00
      vertex   2.265449e+00 9.008949e+00 6.328748e+00
      vertex   2.319997e+00 9.000000e+00 6.321893e+00
    endloop
  endfacet
  facet normal 2.023225e-01 8.294561e-01 5.206421e-01
    outer loop
      vertex   2.273552e+00 9.041172e+00 6.274348e+00
      vertex   2.319997e+00 9.000000e+00 6.321893e+00
      vertex   2.335132e+00 9.026152e+00 6.274348e+00
    endloop
  endfacet
  facet normal 2.064851e-01 8.280743e-01 5.212071e-01
    outer loop
      vertex   2.335132e+00 9.026152e+00 6.274348e+00
      vertex   2.319997e+00 9.000000e+00 6.321893e+00
      vertex   2.383262e+00 9.000000e+00 6.296830e+00
    endloop
  endfacet
  facet normal 2.079694e-01 8.290127e-01 5.191211e-01
    outer loop
      vertex   2.335132e+00 9.026152e+00 6.274348e+00
      vertex   2.383262e+00 9.000000e+00 6.296830e+00
      vertex   2.396721e+00 9.010701e+00 6.274348e+00
    endloop
  endfacet
  facet normal 2.127523e-01 8.266924e-01 5.208802e-01
    outer loop
      vertex   2.396721e+00 9.010701e+00 6.274348e+00
      vertex   2.383262e+00 9.000000e+00 6.296830e+00
      vertex   2.446270e+00 9.000000e+00 6.271094e+00
    endloop
  endfacet
  facet normal 2.130314e-01 8.292713e-01 5.166494e-01
    outer loop
      vertex   2.396721e+00 9.010701e+00 6.274348e+00
      vertex   2.446270e+00 9.000000e+00 6.271094e+00
      vertex   2.405184e+00 9.042519e+00 6.219788e+00
    endloop
  endfacet
  facet normal 2.138552e-01 8.294024e-01 5.160984e-01
    outer loop
      vertex   2.405184e+00 9.042519e+00 6.219788e+00
      vertex   2.446270e+00 9.000000e+00 6.271094e+00
      vertex   2.466996e+00 9.026581e+00 6.219788e+00
    endloop
  endfacet
  facet normal 2.144678e-01 8.317783e-01 5.120044e-01
    outer loop
      vertex   2.405184e+00 9.042519e+00 6.219788e+00
      vertex   2.466996e+00 9.026581e+00 6.219788e+00
      vertex   2.475595e+00 9.058046e+00 6.165070e+00
    endloop
  endfacet
  facet normal 2.199215e-01 8.303359e-01 5.120320e-01
    outer loop
      vertex   2.475595e+00 9.058046e+00 6.165070e+00
      vertex   2.466996e+00 9.026581e+00 6.219788e+00
      vertex   2.537623e+00 9.041617e+00 6.165070e+00
    endloop
  endfacet
  facet normal 2.206280e-01 8.330033e-01 5.073744e-01
    outer loop
      vertex   2.475595e+00 9.058046e+00 6.165070e+00
      vertex   2.537623e+00 9.041617e+00 6.165070e+00
      vertex   2.546354e+00 9.072727e+00 6.110198e+00
    endloop
  endfacet
  facet normal 2.261000e-01 8.315175e-01 5.074027e-01
    outer loop
      vertex   2.546354e+00 9.072727e+00 6.110198e+00
      vertex   2.537623e+00 9.041617e+00 6.165070e+00
      vertex   2.608591e+00 9.055804e+00 6.110198e+00
    endloop
  endfacet
  facet normal 2.268166e-01 8.341531e-01 5.027354e-01
    outer loop
      vertex   2.546354e+00 9.072727e+00 6.110198e+00
      vertex   2.608591e+00 9.055804e+00 6.110198e+00
      vertex   2.617450e+00 9.086558e+00 6.055173e+00
    endloop
  endfacet
  facet normal 2.323064e-01 8.326234e-01 5.027643e-01
    outer loop
      vertex   2.617450e+00 9.086558e+00 6.055173e+00
      vertex   2.608591e+00 9.055804e+00 6.110198e+00
      vertex   2.679889e+00 9.069137e+00 6.055173e+00
    endloop
  endfacet
  facet normal 2.016351e-01 8.268000e-01 5.251143e-01
    outer loop
      vertex   2.256481e+00 9.000000e+00 6.346282e+00
      vertex   2.319997e+00 9.000000e+00 6.321893e+00
      vertex   2.265449e+00 9.008949e+00 6.328748e+00
    endloop
  endfacet
  facet normal 2.175013e-01 8.279912e-01 5.168402e-01
    outer loop
      vertex   2.446270e+00 9.000000e+00 6.271094e+00
      vertex   2.509016e+00 9.000000e+00 6.244689e+00
      vertex   2.466996e+00 9.026581e+00 6.219788e+00
    endloop
  endfacet
  facet normal 2.195578e-01 8.289630e-01 5.144072e-01
    outer loop
      vertex   2.466996e+00 9.026581e+00 6.219788e+00
      vertex   2.509016e+00 9.000000e+00 6.244689e+00
      vertex   2.528808e+00 9.010210e+00 6.219788e+00
    endloop
  endfacet
  facet normal 2.199215e-01 8.303359e-01 5.120320e-01
    outer loop
      vertex   2.466996e+00 9.026581e+00 6.219788e+00
      vertex   2.528808e+00 9.010210e+00 6.219788e+00
      vertex   2.537623e+00 9.041617e+00 6.165070e+00
    endloop
  endfacet
  facet normal 2.243703e-01 8.291298e-01 5.120564e-01
    outer loop
      vertex   2.537623e+00 9.041617e+00 6.165070e+00
      vertex   2.528808e+00 9.010210e+00 6.219788e+00
      vertex   2.571481e+00 9.000000e+00 6.217622e+00
    endloop
  endfacet
  facet normal 2.254762e-01 8.292236e-01 5.114182e-01
    outer loop
      vertex   2.537623e+00 9.041617e+00 6.165070e+00
      vertex   2.571481e+00 9.000000e+00 6.217622e+00
      vertex   2.599646e+00 9.024752e+00 6.165070e+00
    endloop
  endfacet
  facet normal 2.284628e-01 8.278239e-01 5.123596e-01
    outer loop
      vertex   2.599646e+00 9.024752e+00 6.165070e+00
      vertex   2.571481e+00 9.000000e+00 6.217622e+00
      vertex   2.633643e+00 9.000000e+00 6.189904e+00
    endloop
  endfacet
  facet normal 2.312393e-01 8.287987e-01 5.095303e-01
    outer loop
      vertex   2.599646e+00 9.024752e+00 6.165070e+00
      vertex   2.633643e+00 9.000000e+00 6.189904e+00
      vertex   2.661661e+00 9.007450e+00 6.165070e+00
    endloop
  endfacet
  facet normal 2.353171e-01 8.254293e-01 5.131202e-01
    outer loop
      vertex   2.661661e+00 9.007450e+00 6.165070e+00
      vertex   2.633643e+00 9.000000e+00 6.189904e+00
      vertex   2.695497e+00 9.000000e+00 6.161537e+00
    endloop
  endfacet
  facet normal 2.354846e-01 8.288769e-01 5.074546e-01
    outer loop
      vertex   2.661661e+00 9.007450e+00 6.165070e+00
      vertex   2.695497e+00 9.000000e+00 6.161537e+00
      vertex   2.670819e+00 9.038442e+00 6.110198e+00
    endloop
  endfacet
  facet normal 2.371761e-01 8.288872e-01 5.066493e-01
    outer loop
      vertex   2.670819e+00 9.038442e+00 6.110198e+00
      vertex   2.695497e+00 9.000000e+00 6.161537e+00
      vertex   2.733034e+00 9.020640e+00 6.110198e+00
    endloop
  endfacet
  facet normal 2.377962e-01 8.310543e-01 5.027939e-01
    outer loop
      vertex   2.670819e+00 9.038442e+00 6.110198e+00
      vertex   2.733034e+00 9.020640e+00 6.110198e+00
      vertex   2.742316e+00 9.051274e+00 6.055173e+00
    endloop
  endfacet
  facet normal 2.432865e-01 8.294453e-01 5.028242e-01
    outer loop
      vertex   2.742316e+00 9.051274e+00 6.055173e+00
      vertex   2.733034e+00 9.020640e+00 6.110198e+00
      vertex   2.795251e+00 9.002391e+00 6.110198e+00
    endloop
  endfacet
  facet normal 2.432996e-01 8.294477e-01 5.028138e-01
    outer loop
      vertex   2.742316e+00 9.051274e+00 6.055173e+00
      vertex   2.795251e+00 9.002391e+00 6.110198e+00
      vertex   2.805003e+00 9.032887e+00 6.055173e+00
    endloop
  endfacet
  facet normal 2.461501e-01 8.285887e-01 5.028429e-01
    outer loop
      vertex   2.805003e+00 9.032887e+00 6.055173e+00
      vertex   2.795251e+00 9.002391e+00 6.110198e+00
      vertex   2.818266e+00 9.000000e+00 6.102872e+00
    endloop
  endfacet
  facet normal 2.489460e-01 8.283320e-01 5.018885e-01
    outer loop
      vertex   2.805003e+00 9.032887e+00 6.055173e+00
      vertex   2.818266e+00 9.000000e+00 6.102872e+00
      vertex   2.867061e+00 9.014236e+00 6.055173e+00
    endloop
  endfacet
  facet normal 2.500727e-01 8.274524e-01 5.027785e-01
    outer loop
      vertex   2.867061e+00 9.014236e+00 6.055173e+00
      vertex   2.818266e+00 9.000000e+00 6.102872e+00
      vertex   2.879171e+00 9.000000e+00 6.072579e+00
    endloop
  endfacet
  facet normal 2.550795e-01 8.278413e-01 4.996130e-01
    outer loop
      vertex   2.867061e+00 9.014236e+00 6.055173e+00
      vertex   2.879171e+00 9.000000e+00 6.072579e+00
      vertex   2.939750e+00 9.000000e+00 6.041649e+00
    endloop
  endfacet
  facet normal 2.239344e-01 8.263027e-01 5.167951e-01
    outer loop
      vertex   2.509016e+00 9.000000e+00 6.244689e+00
      vertex   2.571481e+00 9.000000e+00 6.217622e+00
      vertex   2.528808e+00 9.010210e+00 6.219788e+00
    endloop
  endfacet
  facet normal 2.393439e-01 8.276080e-01 5.077199e-01
    outer loop
      vertex   2.695497e+00 9.000000e+00 6.161537e+00
      vertex   2.757040e+00 9.000000e+00 6.132526e+00
      vertex   2.733034e+00 9.020640e+00 6.110198e+00
    endloop
  endfacet
  facet normal 2.429982e-01 8.284624e-01 5.045809e-01
    outer loop
      vertex   2.733034e+00 9.020640e+00 6.110198e+00
      vertex   2.757040e+00 9.000000e+00 6.132526e+00
      vertex   2.795251e+00 9.002391e+00 6.110198e+00
    endloop
  endfacet
  facet normal 2.488532e-01 8.210221e-01 5.138042e-01
    outer loop
      vertex   2.757040e+00 9.000000e+00 6.132526e+00
      vertex   2.818266e+00 9.000000e+00 6.102872e+00
      vertex   2.795251e+00 9.002391e+00 6.110198e+00
    endloop
  endfacet
  facet normal 2.606962e-01 8.278168e-01 4.967462e-01
    outer loop
      vertex   3.000000e+00 9.000000e+00 6.010087e+00
      vertex   3.000000e+00 9.006053e+00 6.000000e+00
      vertex   2.938343e+00 9.025470e+00 6.000000e+00
    endloop
  endfacet
  facet normal 2.167535e-01 8.397060e-01 4.979073e-01
    outer loop
      vertex   2.503438e+00 9.149984e+00 6.000000e+00
      vertex   2.440862e+00 9.166137e+00 6.000000e+00
      vertex   2.492549e+00 9.120079e+00 6.055173e+00
    endloop
  endfacet
  facet normal 2.164988e-01 8.396553e-01 4.981036e-01
    outer loop
      vertex   2.492549e+00 9.120079e+00 6.055173e+00
      vertex   2.440862e+00 9.166137e+00 6.000000e+00
      vertex   2.430098e+00 9.136182e+00 6.055173e+00
    endloop
  endfacet
  facet normal 2.158385e-01 8.370943e-01 5.026797e-01
    outer loop
      vertex   2.492549e+00 9.120079e+00 6.055173e+00
      vertex   2.430098e+00 9.136182e+00 6.055173e+00
      vertex   2.421873e+00 9.105260e+00 6.110198e+00
    endloop
  endfacet
  facet normal 2.103509e-01 8.385062e-01 5.026528e-01
    outer loop
      vertex   2.421873e+00 9.105260e+00 6.110198e+00
      vertex   2.430098e+00 9.136182e+00 6.055173e+00
      vertex   2.359637e+00 9.120873e+00 6.110198e+00
    endloop
  endfacet
  facet normal 2.096865e-01 8.358577e-01 5.073199e-01
    outer loop
      vertex   2.421873e+00 9.105260e+00 6.110198e+00
      vertex   2.359637e+00 9.120873e+00 6.110198e+00
      vertex   2.351546e+00 9.089598e+00 6.165070e+00
    endloop
  endfacet
  facet normal 2.042179e-01 8.372265e-01 5.072936e-01
    outer loop
      vertex   2.351546e+00 9.089598e+00 6.165070e+00
      vertex   2.359637e+00 9.120873e+00 6.110198e+00
      vertex   2.289533e+00 9.104724e+00 6.165070e+00
    endloop
  endfacet
  facet normal 2.035641e-01 8.345464e-01 5.119511e-01
    outer loop
      vertex   2.351546e+00 9.089598e+00 6.165070e+00
      vertex   2.289533e+00 9.104724e+00 6.165070e+00
      vertex   2.281580e+00 9.073098e+00 6.219788e+00
    endloop
  endfacet
  facet normal 1.981149e-01 8.358725e-01 5.119255e-01
    outer loop
      vertex   2.281580e+00 9.073098e+00 6.219788e+00
      vertex   2.289533e+00 9.104724e+00 6.165070e+00
      vertex   2.219796e+00 9.087742e+00 6.219788e+00
    endloop
  endfacet
  facet normal 1.974722e-01 8.331608e-01 5.165731e-01
    outer loop
      vertex   2.281580e+00 9.073098e+00 6.219788e+00
      vertex   2.219796e+00 9.087742e+00 6.219788e+00
      vertex   2.211986e+00 9.055765e+00 6.274348e+00
    endloop
  endfacet
  facet normal 1.920429e-01 8.344444e-01 5.165482e-01
    outer loop
      vertex   2.211986e+00 9.055765e+00 6.274348e+00
      vertex   2.219796e+00 9.087742e+00 6.219788e+00
      vertex   2.150437e+00 9.069930e+00 6.274348e+00
    endloop
  endfacet
  facet normal 1.914116e-01 8.317013e-01 5.211857e-01
    outer loop
      vertex   2.211986e+00 9.055765e+00 6.274348e+00
      vertex   2.150437e+00 9.069930e+00 6.274348e+00
      vertex   2.142773e+00 9.037604e+00 6.328748e+00
    endloop
  endfacet
  facet normal 1.860027e-01 8.329428e-01 5.211614e-01
    outer loop
      vertex   2.142773e+00 9.037604e+00 6.328748e+00
      vertex   2.150437e+00 9.069930e+00 6.274348e+00
      vertex   2.081466e+00 9.051294e+00 6.328748e+00
    endloop
  endfacet
  facet normal 1.853831e-01 8.301683e-01 5.257887e-01
    outer loop
      vertex   2.142773e+00 9.037604e+00 6.328748e+00
      vertex   2.081466e+00 9.051294e+00 6.328748e+00
      vertex   2.073952e+00 9.018621e+00 6.382985e+00
    endloop
  endfacet
  facet normal 1.799952e-01 8.313681e-01 5.257651e-01
    outer loop
      vertex   2.073952e+00 9.018621e+00 6.382985e+00
      vertex   2.081466e+00 9.051294e+00 6.328748e+00
      vertex   2.012893e+00 9.031841e+00 6.382985e+00
    endloop
  endfacet
  facet normal 2.112514e-01 8.411247e-01 4.978776e-01
    outer loop
      vertex   2.440862e+00 9.166137e+00 6.000000e+00
      vertex   2.378180e+00 9.181879e+00 6.000000e+00
      vertex   2.430098e+00 9.136182e+00 6.055173e+00
    endloop
  endfacet
  facet normal 2.109946e-01 8.410719e-01 4.980756e-01
    outer loop
      vertex   2.430098e+00 9.136182e+00 6.055173e+00
      vertex   2.378180e+00 9.181879e+00 6.000000e+00
      vertex   2.367651e+00 9.151848e+00 6.055173e+00
    endloop
  endfacet
  facet normal 2.103509e-01 8.385062e-01 5.026528e-01
    outer loop
      vertex   2.430098e+00 9.136182e+00 6.055173e+00
      vertex   2.367651e+00 9.151848e+00 6.055173e+00
      vertex   2.359637e+00 9.120873e+00 6.110198e+00
    endloop
  endfacet
  facet normal 2.048649e-01 8.398790e-01 5.026267e-01
    outer loop
      vertex   2.359637e+00 9.120873e+00 6.110198e+00
      vertex   2.367651e+00 9.151848e+00 6.055173e+00
      vertex   2.297411e+00 9.136051e+00 6.110198e+00
    endloop
  endfacet
  facet normal 2.042179e-01 8.372265e-01 5.072936e-01
    outer loop
      vertex   2.359637e+00 9.120873e+00 6.110198e+00
      vertex   2.297411e+00 9.136051e+00 6.110198e+00
      vertex   2.289533e+00 9.104724e+00 6.165070e+00
    endloop
  endfacet
  facet normal 1.987511e-01 8.385565e-01 5.072681e-01
    outer loop
      vertex   2.289533e+00 9.104724e+00 6.165070e+00
      vertex   2.297411e+00 9.136051e+00 6.110198e+00
      vertex   2.227534e+00 9.119419e+00 6.165070e+00
    endloop
  endfacet
  facet normal 1.981149e-01 8.358725e-01 5.119255e-01
    outer loop
      vertex   2.289533e+00 9.104724e+00 6.165070e+00
      vertex   2.227534e+00 9.119419e+00 6.165070e+00
      vertex   2.219796e+00 9.087742e+00 6.219788e+00
    endloop
  endfacet
  facet normal 1.926678e-01 8.371600e-01 5.119006e-01
    outer loop
      vertex   2.219796e+00 9.087742e+00 6.219788e+00
      vertex   2.227534e+00 9.119419e+00 6.165070e+00
      vertex   2.158031e+00 9.101957e+00 6.219788e+00
    endloop
  endfacet
  facet normal 1.920429e-01 8.344444e-01 5.165482e-01
    outer loop
      vertex   2.219796e+00 9.087742e+00 6.219788e+00
      vertex   2.158031e+00 9.101957e+00 6.219788e+00
      vertex   2.150437e+00 9.069930e+00 6.274348e+00
    endloop
  endfacet
  facet normal 1.866161e-01 8.356898e-01 5.165239e-01
    outer loop
      vertex   2.150437e+00 9.069930e+00 6.274348e+00
      vertex   2.158031e+00 9.101957e+00 6.219788e+00
      vertex   2.088911e+00 9.083669e+00 6.274348e+00
    endloop
  endfacet
  facet normal 1.860027e-01 8.329428e-01 5.211614e-01
    outer loop
      vertex   2.150437e+00 9.069930e+00 6.274348e+00
      vertex   2.088911e+00 9.083669e+00 6.274348e+00
      vertex   2.081466e+00 9.051294e+00 6.328748e+00
    endloop
  endfacet
  facet normal 1.805967e-01 8.341464e-01 5.211378e-01
    outer loop
      vertex   2.081466e+00 9.051294e+00 6.328748e+00
      vertex   2.088911e+00 9.083669e+00 6.274348e+00
      vertex   2.020185e+00 9.064562e+00 6.328748e+00
    endloop
  endfacet
  facet normal 1.799952e-01 8.313681e-01 5.257651e-01
    outer loop
      vertex   2.081466e+00 9.051294e+00 6.328748e+00
      vertex   2.020185e+00 9.064562e+00 6.328748e+00
      vertex   2.012893e+00 9.031841e+00 6.382985e+00
    endloop
  endfacet
  facet normal 1.764404e-01 8.321382e-01 5.257517e-01
    outer loop
      vertex   2.012893e+00 9.031841e+00 6.382985e+00
      vertex   2.020185e+00 9.064562e+00 6.328748e+00
      vertex   2.000000e+00 9.068735e+00 6.328917e+00
    endloop
  endfacet
  facet normal 2.057405e-01 8.425044e-01 4.978526e-01
    outer loop
      vertex   2.378180e+00 9.181879e+00 6.000000e+00
      vertex   2.315396e+00 9.197211e+00 6.000000e+00
      vertex   2.367651e+00 9.151848e+00 6.055173e+00
    endloop
  endfacet
  facet normal 2.054924e-01 8.424517e-01 4.980442e-01
    outer loop
      vertex   2.367651e+00 9.151848e+00 6.055173e+00
      vertex   2.315396e+00 9.197211e+00 6.000000e+00
      vertex   2.305213e+00 9.167078e+00 6.055173e+00
    endloop
  endfacet
  facet normal 2.048649e-01 8.398790e-01 5.026267e-01
    outer loop
      vertex   2.367651e+00 9.151848e+00 6.055173e+00
      vertex   2.305213e+00 9.167078e+00 6.055173e+00
      vertex   2.297411e+00 9.136051e+00 6.110198e+00
    endloop
  endfacet
  facet normal 1.993807e-01 8.412130e-01 5.026012e-01
    outer loop
      vertex   2.297411e+00 9.136051e+00 6.110198e+00
      vertex   2.305213e+00 9.167078e+00 6.055173e+00
      vertex   2.235198e+00 9.150797e+00 6.110198e+00
    endloop
  endfacet
  facet normal 1.987511e-01 8.385565e-01 5.072681e-01
    outer loop
      vertex   2.297411e+00 9.136051e+00 6.110198e+00
      vertex   2.235198e+00 9.150797e+00 6.110198e+00
      vertex   2.227534e+00 9.119419e+00 6.165070e+00
    endloop
  endfacet
  facet normal 1.932865e-01 8.398479e-01 5.072433e-01
    outer loop
      vertex   2.227534e+00 9.119419e+00 6.165070e+00
      vertex   2.235198e+00 9.150797e+00 6.110198e+00
      vertex   2.165553e+00 9.133684e+00 6.165070e+00
    endloop
  endfacet
  facet normal 1.926678e-01 8.371600e-01 5.119006e-01
    outer loop
      vertex   2.227534e+00 9.119419e+00 6.165070e+00
      vertex   2.165553e+00 9.133684e+00 6.165070e+00
      vertex   2.158031e+00 9.101957e+00 6.219788e+00
    endloop
  endfacet
  facet normal 1.872234e-01 8.384092e-01 5.118764e-01
    outer loop
      vertex   2.158031e+00 9.101957e+00 6.219788e+00
      vertex   2.165553e+00 9.133684e+00 6.165070e+00
      vertex   2.096287e+00 9.115745e+00 6.219788e+00
    endloop
  endfacet
  facet normal 1.866161e-01 8.356898e-01 5.165239e-01
    outer loop
      vertex   2.158031e+00 9.101957e+00 6.219788e+00
      vertex   2.096287e+00 9.115745e+00 6.219788e+00
      vertex   2.088911e+00 9.083669e+00 6.274348e+00
    endloop
  endfacet
  facet normal 1.811922e-01 8.368971e-01 5.165004e-01
    outer loop
      vertex   2.088911e+00 9.083669e+00 6.274348e+00
      vertex   2.096287e+00 9.115745e+00 6.219788e+00
      vertex   2.027411e+00 9.096984e+00 6.274348e+00
    endloop
  endfacet
  facet normal 1.805967e-01 8.341464e-01 5.211378e-01
    outer loop
      vertex   2.088911e+00 9.083669e+00 6.274348e+00
      vertex   2.027411e+00 9.096984e+00 6.274348e+00
      vertex   2.020185e+00 9.064562e+00 6.328748e+00
    endloop
  endfacet
  facet normal 1.769788e-01 8.349299e-01 5.211243e-01
    outer loop
      vertex   2.020185e+00 9.064562e+00 6.328748e+00
      vertex   2.027411e+00 9.096984e+00 6.274348e+00
      vertex   2.000000e+00 9.068735e+00 6.328917e+00
    endloop
  endfacet
  facet normal 2.002209e-01 8.438451e-01 4.978323e-01
    outer loop
      vertex   2.315396e+00 9.197211e+00 6.000000e+00
      vertex   2.252510e+00 9.212132e+00 6.000000e+00
      vertex   2.305213e+00 9.167078e+00 6.055173e+00
    endloop
  endfacet
  facet normal 1.999926e-01 8.437949e-01 4.980092e-01
    outer loop
      vertex   2.305213e+00 9.167078e+00 6.055173e+00
      vertex   2.252510e+00 9.212132e+00 6.000000e+00
      vertex   2.242789e+00 9.181873e+00 6.055173e+00
    endloop
  endfacet
  facet normal 1.993807e-01 8.412130e-01 5.026012e-01
    outer loop
      vertex   2.305213e+00 9.167078e+00 6.055173e+00
      vertex   2.242789e+00 9.181873e+00 6.055173e+00
      vertex   2.235198e+00 9.150797e+00 6.110198e+00
    endloop
  endfacet
  facet normal 1.938987e-01 8.425082e-01 5.025765e-01
    outer loop
      vertex   2.235198e+00 9.150797e+00 6.110198e+00
      vertex   2.242789e+00 9.181873e+00 6.055173e+00
      vertex   2.173004e+00 9.165110e+00 6.110198e+00
    endloop
  endfacet
  facet normal 1.932865e-01 8.398479e-01 5.072433e-01
    outer loop
      vertex   2.235198e+00 9.150797e+00 6.110198e+00
      vertex   2.173004e+00 9.165110e+00 6.110198e+00
      vertex   2.165553e+00 9.133684e+00 6.165070e+00
    endloop
  endfacet
  facet normal 1.878244e-01 8.411009e-01 5.072192e-01
    outer loop
      vertex   2.165553e+00 9.133684e+00 6.165070e+00
      vertex   2.173004e+00 9.165110e+00 6.110198e+00
      vertex   2.103594e+00 9.147520e+00 6.165070e+00
    endloop
  endfacet
  facet normal 1.872234e-01 8.384092e-01 5.118764e-01
    outer loop
      vertex   2.165553e+00 9.133684e+00 6.165070e+00
      vertex   2.103594e+00 9.147520e+00 6.165070e+00
      vertex   2.096287e+00 9.115745e+00 6.219788e+00
    endloop
  endfacet
  facet normal 1.817818e-01 8.396201e-01 5.118530e-01
    outer loop
      vertex   2.096287e+00 9.115745e+00 6.219788e+00
      vertex   2.103594e+00 9.147520e+00 6.165070e+00
      vertex   2.034570e+00 9.129107e+00 6.219788e+00
    endloop
  endfacet
  facet normal 1.811922e-01 8.368971e-01 5.165004e-01
    outer loop
      vertex   2.096287e+00 9.115745e+00 6.219788e+00
      vertex   2.034570e+00 9.129107e+00 6.219788e+00
      vertex   2.027411e+00 9.096984e+00 6.274348e+00
    endloop
  endfacet
  facet normal 1.769834e-01 8.378073e-01 5.164840e-01
    outer loop
      vertex   2.027411e+00 9.096984e+00 6.274348e+00
      vertex   2.034570e+00 9.129107e+00 6.219788e+00
      vertex   2.000000e+00 9.136266e+00 6.220021e+00
    endloop
  endfacet
  facet normal 1.708022e-01 8.373616e-01 5.192805e-01
    outer loop
      vertex   2.027411e+00 9.096984e+00 6.274348e+00
      vertex   2.000000e+00 9.136266e+00 6.220021e+00
      vertex   2.000000e+00 9.068735e+00 6.328917e+00
    endloop
  endfacet
  facet normal 1.946928e-01 8.451468e-01 4.978169e-01
    outer loop
      vertex   2.252510e+00 9.212132e+00 6.000000e+00
      vertex   2.189526e+00 9.226642e+00 6.000000e+00
      vertex   2.242789e+00 9.181873e+00 6.055173e+00
    endloop
  endfacet
  facet normal 1.944956e-01 8.451016e-01 4.979706e-01
    outer loop
      vertex   2.242789e+00 9.181873e+00 6.055173e+00
      vertex   2.189526e+00 9.226642e+00 6.000000e+00
      vertex   2.180384e+00 9.196235e+00 6.055173e+00
    endloop
  endfacet
  facet normal 1.938987e-01 8.425082e-01 5.025765e-01
    outer loop
      vertex   2.242789e+00 9.181873e+00 6.055173e+00
      vertex   2.180384e+00 9.196235e+00 6.055173e+00
      vertex   2.173004e+00 9.165110e+00 6.110198e+00
    endloop
  endfacet
  facet normal 1.884193e-01 8.437649e-01 5.025525e-01
    outer loop
      vertex   2.173004e+00 9.165110e+00 6.110198e+00
      vertex   2.180384e+00 9.196235e+00 6.055173e+00
      vertex   2.110832e+00 9.178994e+00 6.110198e+00
    endloop
  endfacet
  facet normal 1.878244e-01 8.411009e-01 5.072192e-01
    outer loop
      vertex   2.173004e+00 9.165110e+00 6.110198e+00
      vertex   2.110832e+00 9.178994e+00 6.110198e+00
      vertex   2.103594e+00 9.147520e+00 6.165070e+00
    endloop
  endfacet
  facet normal 1.823653e-01 8.423154e-01 5.071958e-01
    outer loop
      vertex   2.103594e+00 9.147520e+00 6.165070e+00
      vertex   2.110832e+00 9.178994e+00 6.110198e+00
      vertex   2.041662e+00 9.160928e+00 6.165070e+00
    endloop
  endfacet
  facet normal 1.817818e-01 8.396201e-01 5.118530e-01
    outer loop
      vertex   2.103594e+00 9.147520e+00 6.165070e+00
      vertex   2.041662e+00 9.160928e+00 6.165070e+00
      vertex   2.034570e+00 9.129107e+00 6.219788e+00
    endloop
  endfacet
  facet normal 1.775184e-01 8.405419e-01 5.118365e-01
    outer loop
      vertex   2.034570e+00 9.129107e+00 6.219788e+00
      vertex   2.041662e+00 9.160928e+00 6.165070e+00
      vertex   2.000000e+00 9.136266e+00 6.220021e+00
    endloop
  endfacet
  facet normal 1.891565e-01 8.464092e-01 4.978065e-01
    outer loop
      vertex   2.189526e+00 9.226642e+00 6.000000e+00
      vertex   2.126445e+00 9.240739e+00 6.000000e+00
      vertex   2.180384e+00 9.196235e+00 6.055173e+00
    endloop
  endfacet
  facet normal 1.890016e-01 8.463722e-01 4.979282e-01
    outer loop
      vertex   2.180384e+00 9.196235e+00 6.055173e+00
      vertex   2.126445e+00 9.240739e+00 6.000000e+00
      vertex   2.118001e+00 9.210166e+00 6.055173e+00
    endloop
  endfacet
  facet normal 1.884193e-01 8.437649e-01 5.025525e-01
    outer loop
      vertex   2.180384e+00 9.196235e+00 6.055173e+00
      vertex   2.118001e+00 9.210166e+00 6.055173e+00
      vertex   2.110832e+00 9.178994e+00 6.110198e+00
    endloop
  endfacet
  facet normal 1.829429e-01 8.449831e-01 5.025291e-01
    outer loop
      vertex   2.110832e+00 9.178994e+00 6.110198e+00
      vertex   2.118001e+00 9.210166e+00 6.055173e+00
      vertex   2.048687e+00 9.192449e+00 6.110198e+00
    endloop
  endfacet
  facet normal 1.823653e-01 8.423154e-01 5.071958e-01
    outer loop
      vertex   2.110832e+00 9.178994e+00 6.110198e+00
      vertex   2.048687e+00 9.192449e+00 6.110198e+00
      vertex   2.041662e+00 9.160928e+00 6.165070e+00
    endloop
  endfacet
  facet normal 1.775106e-01 8.433636e-01 5.071764e-01
    outer loop
      vertex   2.041662e+00 9.160928e+00 6.165070e+00
      vertex   2.048687e+00 9.192449e+00 6.110198e+00
      vertex   2.000000e+00 9.202588e+00 6.110378e+00
    endloop
  endfacet
  facet normal 1.734722e-01 8.426683e-01 5.097230e-01
    outer loop
      vertex   2.041662e+00 9.160928e+00 6.165070e+00
      vertex   2.000000e+00 9.202588e+00 6.110378e+00
      vertex   2.000000e+00 9.136266e+00 6.220021e+00
    endloop
  endfacet
  facet normal 1.836121e-01 8.476321e-01 4.978015e-01
    outer loop
      vertex   2.126445e+00 9.240739e+00 6.000000e+00
      vertex   2.063269e+00 9.254424e+00 6.000000e+00
      vertex   2.118001e+00 9.210166e+00 6.055173e+00
    endloop
  endfacet
  facet normal 1.835110e-01 8.476070e-01 4.978816e-01
    outer loop
      vertex   2.118001e+00 9.210166e+00 6.055173e+00
      vertex   2.063269e+00 9.254424e+00 6.000000e+00
      vertex   2.055644e+00 9.223666e+00 6.055173e+00
    endloop
  endfacet
  facet normal 1.829429e-01 8.449831e-01 5.025291e-01
    outer loop
      vertex   2.118001e+00 9.210166e+00 6.055173e+00
      vertex   2.055644e+00 9.223666e+00 6.055173e+00
      vertex   2.048687e+00 9.192449e+00 6.110198e+00
    endloop
  endfacet
  facet normal 1.780505e-01 8.460391e-01 5.025096e-01
    outer loop
      vertex   2.048687e+00 9.192449e+00 6.110198e+00
      vertex   2.055644e+00 9.223666e+00 6.055173e+00
      vertex   2.000000e+00 9.202588e+00 6.110378e+00
    endloop
  endfacet
  facet normal 1.780598e-01 8.488155e-01 4.978021e-01
    outer loop
      vertex   2.063269e+00 9.254424e+00 6.000000e+00
      vertex   2.000000e+00 9.267697e+00 6.000000e+00
      vertex   2.055644e+00 9.223666e+00 6.055173e+00
    endloop
  endfacet
  facet normal 1.750311e-01 8.480218e-01 5.002232e-01
    outer loop
      vertex   2.055644e+00 9.223666e+00 6.055173e+00
      vertex   2.000000e+00 9.267697e+00 6.000000e+00
      vertex   2.000000e+00 9.202588e+00 6.110378e+00
    endloop
  endfacet
  facet normal 1.853831e-01 8.301683e-01 5.257887e-01
    outer loop
      vertex   2.135038e+00 9.004980e+00 6.382985e+00
      vertex   2.142773e+00 9.037604e+00 6.328748e+00
      vertex   2.073952e+00 9.018621e+00 6.382985e+00
    endloop
  endfacet
  facet normal 2.029037e-01 8.318388e-01 5.165988e-01
    outer loop
      vertex   2.273552e+00 9.041172e+00 6.274348e+00
      vertex   2.335132e+00 9.026152e+00 6.274348e+00
      vertex   2.343378e+00 9.058024e+00 6.219788e+00
    endloop
  endfacet
  facet normal 2.083370e-01 8.304783e-01 5.166251e-01
    outer loop
      vertex   2.343378e+00 9.058024e+00 6.219788e+00
      vertex   2.335132e+00 9.026152e+00 6.274348e+00
      vertex   2.405184e+00 9.042519e+00 6.219788e+00
    endloop
  endfacet
  facet normal 2.090152e-01 8.331817e-01 5.119774e-01
    outer loop
      vertex   2.343378e+00 9.058024e+00 6.219788e+00
      vertex   2.405184e+00 9.042519e+00 6.219788e+00
      vertex   2.413568e+00 9.074039e+00 6.165070e+00
    endloop
  endfacet
  facet normal 2.144678e-01 8.317783e-01 5.120044e-01
    outer loop
      vertex   2.413568e+00 9.074039e+00 6.165070e+00
      vertex   2.405184e+00 9.042519e+00 6.219788e+00
      vertex   2.475595e+00 9.058046e+00 6.165070e+00
    endloop
  endfacet
  facet normal 2.151567e-01 8.344500e-01 5.073468e-01
    outer loop
      vertex   2.413568e+00 9.074039e+00 6.165070e+00
      vertex   2.475595e+00 9.058046e+00 6.165070e+00
      vertex   2.484113e+00 9.089212e+00 6.110198e+00
    endloop
  endfacet
  facet normal 2.206280e-01 8.330033e-01 5.073744e-01
    outer loop
      vertex   2.484113e+00 9.089212e+00 6.110198e+00
      vertex   2.475595e+00 9.058046e+00 6.165070e+00
      vertex   2.546354e+00 9.072727e+00 6.110198e+00
    endloop
  endfacet
  facet normal 2.213272e-01 8.356433e-01 5.027072e-01
    outer loop
      vertex   2.484113e+00 9.089212e+00 6.110198e+00
      vertex   2.546354e+00 9.072727e+00 6.110198e+00
      vertex   2.555002e+00 9.103538e+00 6.055173e+00
    endloop
  endfacet
  facet normal 2.268166e-01 8.341531e-01 5.027354e-01
    outer loop
      vertex   2.555002e+00 9.103538e+00 6.055173e+00
      vertex   2.546354e+00 9.072727e+00 6.110198e+00
      vertex   2.617450e+00 9.086558e+00 6.055173e+00
    endloop
  endfacet
  facet normal 2.083370e-01 8.304783e-01 5.166251e-01
    outer loop
      vertex   2.396721e+00 9.010701e+00 6.274348e+00
      vertex   2.405184e+00 9.042519e+00 6.219788e+00
      vertex   2.335132e+00 9.026152e+00 6.274348e+00
    endloop
  endfacet
  facet normal 2.261000e-01 8.315175e-01 5.074027e-01
    outer loop
      vertex   2.537623e+00 9.041617e+00 6.165070e+00
      vertex   2.599646e+00 9.024752e+00 6.165070e+00
      vertex   2.608591e+00 9.055804e+00 6.110198e+00
    endloop
  endfacet
  facet normal 2.315723e-01 8.299924e-01 5.074317e-01
    outer loop
      vertex   2.608591e+00 9.055804e+00 6.110198e+00
      vertex   2.599646e+00 9.024752e+00 6.165070e+00
      vertex   2.670819e+00 9.038442e+00 6.110198e+00
    endloop
  endfacet
  facet normal 2.323064e-01 8.326234e-01 5.027643e-01
    outer loop
      vertex   2.608591e+00 9.055804e+00 6.110198e+00
      vertex   2.670819e+00 9.038442e+00 6.110198e+00
      vertex   2.679889e+00 9.069137e+00 6.055173e+00
    endloop
  endfacet
  facet normal 2.377962e-01 8.310543e-01 5.027939e-01
    outer loop
      vertex   2.679889e+00 9.069137e+00 6.055173e+00
      vertex   2.670819e+00 9.038442e+00 6.110198e+00
      vertex   2.742316e+00 9.051274e+00 6.055173e+00
    endloop
  endfacet
  facet normal 2.315723e-01 8.299924e-01 5.074317e-01
    outer loop
      vertex   2.661661e+00 9.007450e+00 6.165070e+00
      vertex   2.670819e+00 9.038442e+00 6.110198e+00
      vertex   2.599646e+00 9.024752e+00 6.165070e+00
    endloop
  endfacet
  facet normal -1.824546e-01 -8.438159e-01 -5.046633e-01
    outer loop
      vertex   2.000000e+00 9.108690e+00 6.000000e+00
      vertex   2.115903e+00 9.083629e+00 6.000000e+00
      vertex   2.000000e+00 9.054758e+00 6.090177e+00
    endloop
  endfacet
  facet normal -1.828772e-01 -8.434664e-01 -5.050945e-01
    outer loop
      vertex   2.000000e+00 9.054758e+00 6.090177e+00
      vertex   2.115903e+00 9.083629e+00 6.000000e+00
      vertex   2.103330e+00 9.032378e+00 6.090137e+00
    endloop
  endfacet
  facet normal -1.821702e-01 -8.401918e-01 -5.107757e-01
    outer loop
      vertex   2.000000e+00 9.054758e+00 6.090177e+00
      vertex   2.103330e+00 9.032378e+00 6.090137e+00
      vertex   2.058445e+00 9.000000e+00 6.159405e+00
    endloop
  endfacet
  facet normal -1.848659e-01 -8.389050e-01 -5.119209e-01
    outer loop
      vertex   2.058445e+00 9.000000e+00 6.159405e+00
      vertex   2.103330e+00 9.032378e+00 6.090137e+00
      vertex   2.116686e+00 9.000000e+00 6.138373e+00
    endloop
  endfacet
  facet normal -1.900863e-01 -8.387020e-01 -5.103392e-01
    outer loop
      vertex   2.116686e+00 9.000000e+00 6.138373e+00
      vertex   2.103330e+00 9.032378e+00 6.090137e+00
      vertex   2.174718e+00 9.000000e+00 6.116758e+00
    endloop
  endfacet
  facet normal -1.924640e-01 -8.406132e-01 -5.062876e-01
    outer loop
      vertex   2.174718e+00 9.000000e+00 6.116758e+00
      vertex   2.103330e+00 9.032378e+00 6.090137e+00
      vertex   2.218060e+00 9.006110e+00 6.090137e+00
    endloop
  endfacet
  facet normal -1.965095e-01 -8.362796e-01 -5.118794e-01
    outer loop
      vertex   2.174718e+00 9.000000e+00 6.116758e+00
      vertex   2.218060e+00 9.006110e+00 6.090137e+00
      vertex   2.232537e+00 9.000000e+00 6.094562e+00
    endloop
  endfacet
  facet normal -1.999140e-01 -8.395192e-01 -5.052147e-01
    outer loop
      vertex   2.232537e+00 9.000000e+00 6.094562e+00
      vertex   2.218060e+00 9.006110e+00 6.090137e+00
      vertex   2.231479e+00 9.057158e+00 6.000000e+00
    endloop
  endfacet
  facet normal -1.997724e-01 -8.395432e-01 -5.052308e-01
    outer loop
      vertex   2.232537e+00 9.000000e+00 6.094562e+00
      vertex   2.231479e+00 9.057158e+00 6.000000e+00
      vertex   2.290139e+00 9.000000e+00 6.071785e+00
    endloop
  endfacet
  facet normal -2.032442e-01 -8.401317e-01 -5.028623e-01
    outer loop
      vertex   2.290139e+00 9.000000e+00 6.071785e+00
      vertex   2.231479e+00 9.057158e+00 6.000000e+00
      vertex   2.346713e+00 9.029281e+00 6.000000e+00
    endloop
  endfacet
  facet normal -2.050808e-01 -8.390756e-01 -5.038789e-01
    outer loop
      vertex   2.290139e+00 9.000000e+00 6.071785e+00
      vertex   2.346713e+00 9.029281e+00 6.000000e+00
      vertex   2.347520e+00 9.000000e+00 6.048431e+00
    endloop
  endfacet
  facet normal -2.106822e-01 -8.380981e-01 -5.031944e-01
    outer loop
      vertex   2.347520e+00 9.000000e+00 6.048431e+00
      vertex   2.346713e+00 9.029281e+00 6.000000e+00
      vertex   2.404676e+00 9.000000e+00 6.024500e+00
    endloop
  endfacet
  facet normal -2.142293e-01 -8.404955e-01 -4.976678e-01
    outer loop
      vertex   2.404676e+00 9.000000e+00 6.024500e+00
      vertex   2.346713e+00 9.029281e+00 6.000000e+00
      vertex   2.461591e+00 9.000000e+00 6.000000e+00
    endloop
  endfacet
  facet normal -1.926080e-01 -8.412420e-01 -5.051871e-01
    outer loop
      vertex   2.103330e+00 9.032378e+00 6.090137e+00
      vertex   2.115903e+00 9.083629e+00 6.000000e+00
      vertex   2.218060e+00 9.006110e+00 6.090137e+00
    endloop
  endfacet
  facet normal -1.926786e-01 -8.412631e-01 -5.051251e-01
    outer loop
      vertex   2.218060e+00 9.006110e+00 6.090137e+00
      vertex   2.115903e+00 9.083629e+00 6.000000e+00
      vertex   2.231479e+00 9.057158e+00 6.000000e+00
    endloop
  endfacet
  facet normal -1.793661e-01 -8.396257e-01 -5.126952e-01
    outer loop
      vertex   2.058445e+00 9.000000e+00 6.159405e+00
      vertex   2.000000e+00 9.000000e+00 6.179852e+00
      vertex   2.000000e+00 9.054758e+00 6.090177e+00
    endloop
  endfacet
  facet normal 1.000000e+00 0.000000e+00 0.000000e+00
    outer loop
      vertex   3.000000e+00 9.006053e+00 6.000000e+00
      vertex   3.000000e+00 9.000000e+00 6.010087e+00
      vertex   3.000000e+00 9.000000e+00 6.000000e+00
    endloop
  endfacet
  facet normal -0.000000e+00 -1.000000e+00 -0.000000e+00
    outer loop
      vertex   3.000000e+00 9.000000e+00 6.010087e+00
      vertex   2.939750e+00 9.000000e+00 6.041649e+00
      vertex   3.000000e+00 9.000000e+00 6.000000e+00
    endloop
  endfacet
  facet normal 0.000000e+00 -1.000000e+00 0.000000e+00
    outer loop
      vertex   3.000000e+00 9.000000e+00 6.000000e+00
      vertex   2.939750e+00 9.000000e+00 6.041649e+00
      vertex   2.461591e+00 9.000000e+00 6.000000e+00
    endloop
  endfacet
  facet normal 4.273539e-15 -1.000000e+00 -4.906265e-14
    outer loop
      vertex   2.461591e+00 9.000000e+00 6.000000e+00
      vertex   2.939750e+00 9.000000e+00 6.041649e+00
      vertex   2.879171e+00 9.000000e+00 6.072579e+00
    endloop
  endfacet
  facet normal -1.070504e-14 -1.000000e+00 3.711626e-14
    outer loop
      vertex   2.461591e+00 9.000000e+00 6.000000e+00
      vertex   2.879171e+00 9.000000e+00 6.072579e+00
      vertex   2.818266e+00 9.000000e+00 6.102872e+00
    endloop
  endfacet
  facet normal -1.082871e-14 -1.000000e+00 3.754506e-14
    outer loop
      vertex   2.818266e+00 9.000000e+00 6.102872e+00
      vertex   2.757040e+00 9.000000e+00 6.132526e+00
      vertex   2.461591e+00 9.000000e+00 6.000000e+00
    endloop
  endfacet
  facet normal -1.298213e-14 -1.000000e+00 4.234581e-14
    outer loop
      vertex   2.461591e+00 9.000000e+00 6.000000e+00
      vertex   2.757040e+00 9.000000e+00 6.132526e+00
      vertex   2.404676e+00 9.000000e+00 6.024500e+00
    endloop
  endfacet
  facet normal -1.137419e-14 -1.000000e+00 3.710094e-14
    outer loop
      vertex   2.404676e+00 9.000000e+00 6.024500e+00
      vertex   2.757040e+00 9.000000e+00 6.132526e+00
      vertex   2.695497e+00 9.000000e+00 6.161537e+00
    endloop
  endfacet
  facet normal 2.873801e-15 -1.000000e+00 6.863799e-15
    outer loop
      vertex   2.404676e+00 9.000000e+00 6.024500e+00
      vertex   2.695497e+00 9.000000e+00 6.161537e+00
      vertex   2.347520e+00 9.000000e+00 6.048431e+00
    endloop
  endfacet
  facet normal 2.681117e-14 -1.000000e+00 -6.678052e-14
    outer loop
      vertex   2.347520e+00 9.000000e+00 6.048431e+00
      vertex   2.695497e+00 9.000000e+00 6.161537e+00
      vertex   2.633643e+00 9.000000e+00 6.189904e+00
    endloop
  endfacet
  facet normal -1.978311e-14 -1.000000e+00 2.745428e-14
    outer loop
      vertex   2.347520e+00 9.000000e+00 6.048431e+00
      vertex   2.633643e+00 9.000000e+00 6.189904e+00
      vertex   2.290139e+00 9.000000e+00 6.071785e+00
    endloop
  endfacet
  facet normal -5.839427e-15 -1.000000e+00 -1.309573e-14
    outer loop
      vertex   2.290139e+00 9.000000e+00 6.071785e+00
      vertex   2.633643e+00 9.000000e+00 6.189904e+00
      vertex   2.571481e+00 9.000000e+00 6.217622e+00
    endloop
  endfacet
  facet normal -5.464304e-15 -1.000000e+00 -1.381940e-14
    outer loop
      vertex   2.290139e+00 9.000000e+00 6.071785e+00
      vertex   2.571481e+00 9.000000e+00 6.217622e+00
      vertex   2.232537e+00 9.000000e+00 6.094562e+00
    endloop
  endfacet
  facet normal -1.866785e-14 -1.000000e+00 2.254706e-14
    outer loop
      vertex   2.232537e+00 9.000000e+00 6.094562e+00
      vertex   2.571481e+00 9.000000e+00 6.217622e+00
      vertex   2.509016e+00 9.000000e+00 6.244689e+00
    endloop
  endfacet
  facet normal 1.533699e-14 -1.000000e+00 -4.007752e-14
    outer loop
      vertex   2.232537e+00 9.000000e+00 6.094562e+00
      vertex   2.509016e+00 9.000000e+00 6.244689e+00
      vertex   2.174718e+00 9.000000e+00 6.116758e+00
    endloop
  endfacet
  facet normal 0.000000e+00 -1.000000e+00 0.000000e+00
    outer loop
      vertex   2.174718e+00 9.000000e+00 6.116758e+00
      vertex   2.509016e+00 9.000000e+00 6.244689e+00
      vertex   2.446270e+00 9.000000e+00 6.271094e+00
    endloop
  endfacet
  facet normal 0.000000e+00 -1.000000e+00 0.000000e+00
    outer loop
      vertex   2.174718e+00 9.000000e+00 6.116758e+00
      vertex   2.446270e+00 9.000000e+00 6.271094e+00
      vertex   2.116686e+00 9.000000e+00 6.138373e+00
    endloop
  endfacet
  facet normal 0.000000e+00 -1.000000e+00 0.000000e+00
    outer loop
      vertex   2.116686e+00 9.000000e+00 6.138373e+00
      vertex   2.446270e+00 9.000000e+00 6.271094e+00
      vertex   2.383262e+00 9.000000e+00 6.296830e+00
    endloop
  endfacet
  facet normal 1.897345e-14 -1.000000e+00 -3.191963e-14
    outer loop
      vertex   2.116686e+00 9.000000e+00 6.138373e+00
      vertex   2.383262e+00 9.000000e+00 6.296830e+00
      vertex   2.058445e+00 9.000000e+00 6.159405e+00
    endloop
  endfacet
  facet normal 2.644563e-15 -1.000000e+00 6.675372e-15
    outer loop
      vertex   2.058445e+00 9.000000e+00 6.159405e+00
      vertex   2.383262e+00 9.000000e+00 6.296830e+00
      vertex   2.319997e+00 9.000000e+00 6.321893e+00
    endloop
  endfacet
  facet normal 2.446764e-15 -1.000000e+00 6.993764e-15
    outer loop
      vertex   2.058445e+00 9.000000e+00 6.159405e+00
      vertex   2.319997e+00 9.000000e+00 6.321893e+00
      vertex   2.000000e+00 9.000000e+00 6.179852e+00
    endloop
  endfacet
  facet normal 1.756995e-14 -1.000000e+00 -2.707655e-14
    outer loop
      vertex   2.000000e+00 9.000000e+00 6.179852e+00
      vertex   2.319997e+00 9.000000e+00 6.321893e+00
      vertex   2.256481e+00 9.000000e+00 6.346282e+00
    endloop
  endfacet
  facet normal 0.000000e+00 -1.000000e+00 0.000000e+00
    outer loop
      vertex   2.000000e+00 9.000000e+00 6.179852e+00
      vertex   2.256481e+00 9.000000e+00 6.346282e+00
      vertex   2.192718e+00 9.000000e+00 6.369995e+00
    endloop
  endfacet
  facet normal -2.033588e-14 -1.000000e+00 2.061124e-14
    outer loop
      vertex   2.192718e+00 9.000000e+00 6.369995e+00
      vertex   2.128713e+00 9.000000e+00 6.393030e+00
      vertex   2.000000e+00 9.000000e+00 6.179852e+00
    endloop
  endfacet
  facet normal 2.524673e-14 -1.000000e+00 -6.910813e-15
    outer loop
      vertex   2.000000e+00 9.000000e+00 6.179852e+00
      vertex   2.128713e+00 9.000000e+00 6.393030e+00
      vertex   2.064472e+00 9.000000e+00 6.415384e+00
    endloop
  endfacet
  facet normal 0.000000e+00 -1.000000e+00 0.000000e+00
    outer loop
      vertex   2.000000e+00 9.000000e+00 6.179852e+00
      vertex   2.064472e+00 9.000000e+00 6.415384e+00
      vertex   2.000000e+00 9.000000e+00 6.437055e+00
    endloop
  endfacet
  facet normal -4.211463e-14 -0.000000e+00 -1.000000e+00
    outer loop
      vertex   2.000000e+00 9.267697e+00 6.000000e+00
      vertex   2.063269e+00 9.254424e+00 6.000000e+00
      vertex   2.000000e+00 9.108690e+00 6.000000e+00
    endloop
  endfacet
  facet normal 3.493086e-14 -3.344833e-14 -1.000000e+00
    outer loop
      vertex   2.000000e+00 9.108690e+00 6.000000e+00
      vertex   2.063269e+00 9.254424e+00 6.000000e+00
      vertex   2.126445e+00 9.240739e+00 6.000000e+00
    endloop
  endfacet
  facet normal 0.000000e+00 0.000000e+00 -1.000000e+00
    outer loop
      vertex   2.000000e+00 9.108690e+00 6.000000e+00
      vertex   2.126445e+00 9.240739e+00 6.000000e+00
      vertex   2.189526e+00 9.226642e+00 6.000000e+00
    endloop
  endfacet
  facet normal -2.058388e-14 3.307441e-14 -1.000000e+00
    outer loop
      vertex   2.189526e+00 9.226642e+00 6.000000e+00
      vertex   2.252510e+00 9.212132e+00 6.000000e+00
      vertex   2.000000e+00 9.108690e+00 6.000000e+00
    endloop
  endfacet
  facet normal 1.530707e-14 -5.453823e-14 -1.000000e+00
    outer loop
      vertex   2.000000e+00 9.108690e+00 6.000000e+00
      vertex   2.252510e+00 9.212132e+00 6.000000e+00
      vertex   2.315396e+00 9.197211e+00 6.000000e+00
    endloop
  endfacet
  facet normal 0.000000e+00 0.000000e+00 -1.000000e+00
    outer loop
      vertex   2.000000e+00 9.108690e+00 6.000000e+00
      vertex   2.315396e+00 9.197211e+00 6.000000e+00
      vertex   2.378180e+00 9.181879e+00 6.000000e+00
    endloop
  endfacet
  facet normal 0.000000e+00 0.000000e+00 -1.000000e+00
    outer loop
      vertex   2.000000e+00 9.108690e+00 6.000000e+00
      vertex   2.378180e+00 9.181879e+00 6.000000e+00
      vertex   2.115903e+00 9.083629e+00 6.000000e+00
    endloop
  endfacet
  facet normal 0.000000e+00 0.000000e+00 -1.000000e+00
    outer loop
      vertex   2.115903e+00 9.083629e+00 6.000000e+00
      vertex   2.378180e+00 9.181879e+00 6.000000e+00
      vertex   2.440862e+00 9.166137e+00 6.000000e+00
    endloop
  endfacet
  facet normal 0.000000e+00 0.000000e+00 -1.000000e+00
    outer loop
      vertex   2.115903e+00 9.083629e+00 6.000000e+00
      vertex   2.440862e+00 9.166137e+00 6.000000e+00
      vertex   2.503438e+00 9.149984e+00 6.000000e+00
    endloop
  endfacet
  facet normal 0.000000e+00 0.000000e+00 -1.000000e+00
    outer loop
      vertex   2.115903e+00 9.083629e+00 6.000000e+00
      vertex   2.503438e+00 9.149984e+00 6.000000e+00
      vertex   2.231479e+00 9.057158e+00 6.000000e+00
    endloop
  endfacet
  facet normal 0.000000e+00 0.000000e+00 -1.000000e+00
    outer loop
      vertex   2.231479e+00 9.057158e+00 6.000000e+00
      vertex   2.503438e+00 9.149984e+00 6.000000e+00
      vertex   2.565906e+00 9.133422e+00 6.000000e+00
    endloop
  endfacet
  facet normal 0.000000e+00 0.000000e+00 -1.000000e+00
    outer loop
      vertex   2.231479e+00 9.057158e+00 6.000000e+00
      vertex   2.565906e+00 9.133422e+00 6.000000e+00
      vertex   2.346713e+00 9.029281e+00 6.000000e+00
    endloop
  endfacet
  facet normal 0.000000e+00 0.000000e+00 -1.000000e+00
    outer loop
      vertex   2.346713e+00 9.029281e+00 6.000000e+00
      vertex   2.565906e+00 9.133422e+00 6.000000e+00
      vertex   2.628265e+00 9.116450e+00 6.000000e+00
    endloop
  endfacet
  facet normal 0.000000e+00 0.000000e+00 -1.000000e+00
    outer loop
      vertex   2.346713e+00 9.029281e+00 6.000000e+00
      vertex   2.628265e+00 9.116450e+00 6.000000e+00
      vertex   2.690512e+00 9.099070e+00 6.000000e+00
    endloop
  endfacet
  facet normal 0.000000e+00 0.000000e+00 -1.000000e+00
    outer loop
      vertex   2.346713e+00 9.029281e+00 6.000000e+00
      vertex   2.690512e+00 9.099070e+00 6.000000e+00
      vertex   2.461591e+00 9.000000e+00 6.000000e+00
    endloop
  endfacet
  facet normal -1.720645e-14 3.975908e-14 -1.000000e+00
    outer loop
      vertex   2.461591e+00 9.000000e+00 6.000000e+00
      vertex   2.690512e+00 9.099070e+00 6.000000e+00
      vertex   2.752646e+00 9.081281e+00 6.000000e+00
    endloop
  endfacet
  facet normal 1.084072e-14 -6.067344e-14 -1.000000e+00
    outer loop
      vertex   2.461591e+00 9.000000e+00 6.000000e+00
      vertex   2.752646e+00 9.081281e+00 6.000000e+00
      vertex   2.814664e+00 9.063085e+00 6.000000e+00
    endloop
  endfacet
  facet normal 0.000000e+00 -0.000000e+00 -1.000000e+00
    outer loop
      vertex   2.814664e+00 9.063085e+00 6.000000e+00
      vertex   2.876563e+00 9.044481e+00 6.000000e+00
      vertex   2.461591e+00 9.000000e+00 6.000000e+00
    endloop
  endfacet
  facet normal 0.000000e+00 0.000000e+00 -1.000000e+00
    outer loop
      vertex   2.461591e+00 9.000000e+00 6.000000e+00
      vertex   2.876563e+00 9.044481e+00 6.000000e+00
      vertex   2.938343e+00 9.025470e+00 6.000000e+00
    endloop
  endfacet
  facet normal 0.000000e+00 0.000000e+00 -1.000000e+00
    outer loop
      vertex   2.461591e+00 9.000000e+00 6.000000e+00
      vertex   2.938343e+00 9.025470e+00 6.000000e+00
      vertex   3.000000e+00 9.000000e+00 6.000000e+00
    endloop
  endfacet
  facet normal 0.000000e+00 0.000000e+00 -1.000000e+00
    outer loop
      vertex   3.000000e+00 9.000000e+00 6.000000e+00
      vertex   2.938343e+00 9.025470e+00 6.000000e+00
      vertex   3.000000e+00 9.006053e+00 6.000000e+00
    endloop
  endfacet
  facet normal -1.000000e+00 0.000000e+00 0.000000e+00
    outer loop
      vertex   2.000000e+00 9.000000e+00 6.437055e+00
      vertex   2.000000e+00 9.068735e+00 6.328917e+00
      vertex   2.000000e+00 9.000000e+00 6.179852e+00
    endloop
  endfacet
  facet normal -1.000000e+00 0.000000e+00 0.000000e+00
    outer loop
      vertex   2.000000e+00 9.000000e+00 6.179852e+00
      vertex   2.000000e+00 9.068735e+00 6.328917e+00
      vertex   2.000000e+00 9.136266e+00 6.220021e+00
    endloop
  endfacet
  facet normal -1.000000e+00 0.000000e+00 0.000000e+00
    outer loop
      vertex   2.000000e+00 9.000000e+00 6.179852e+00
      vertex   2.000000e+00 9.136266e+00 6.220021e+00
      vertex   2.000000e+00 9.054758e+00 6.090177e+00
    endloop
  endfacet
  facet normal -1.000000e+00 0.000000e+00 0.000000e+00
    outer loop
      vertex   2.000000e+00 9.054758e+00 6.090177e+00
      vertex   2.000000e+00 9.136266e+00 6.220021e+00
      vertex   2.000000e+00 9.108690e+00 6.000000e+00
    endloop
  endfacet
  facet normal -1.000000e+00 0.000000e+00 0.000000e+00
    outer loop
      vertex   2.000000e+00 9.108690e+00 6.000000e+00
      vertex   2.000000e+00 9.136266e+00 6.220021e+00
      vertex   2.000000e+00 9.202588e+00 6.110378e+00
    endloop
  endfacet
  facet normal -1.000000e+00 0.000000e+00 0.000000e+00
    outer loop
      vertex   2.000000e+00 9.108690e+00 6.000000e+00
      vertex   2.000000e+00 9.202588e+00 6.110378e+00
      vertex   2.000000e+00 9.267697e+00 6.000000e+00
    endloop
  endfacet
endsolid
