solid ASCII
  facet normal -7.140139e-01 3.797977e-01 5.881648e-01
    outer loop
      vertex   -8.000000e+00 4.101252e+00 7.000000e+00
      vertex   -8.026882e+00 4.050714e+00 7.000000e+00
      vertex   -8.000000e+00 4.050753e+00 7.032609e+00
    endloop
  endfacet
  facet normal -7.157479e-01 3.742672e-01 5.896008e-01
    outer loop
      vertex   -8.000000e+00 4.050753e+00 7.032609e+00
      vertex   -8.026882e+00 4.050714e+00 7.000000e+00
      vertex   -8.000000e+00 4.000000e+00 7.064826e+00
    endloop
  endfacet
  facet normal -7.154640e-01 3.745933e-01 5.897382e-01
    outer loop
      vertex   -8.000000e+00 4.000000e+00 7.064826e+00
      vertex   -8.026882e+00 4.050714e+00 7.000000e+00
      vertex   -8.053435e+00 4.000000e+00 7.000000e+00
    endloop
  endfacet
  facet normal 0.000000e+00 -1.000000e+00 -0.000000e+00
    outer loop
      vertex   -8.000000e+00 4.000000e+00 7.064826e+00
      vertex   -8.053435e+00 4.000000e+00 7.000000e+00
      vertex   -8.000000e+00 4.000000e+00 7.000000e+00
    endloop
  endfacet
  facet normal 0.000000e+00 0.000000e+00 -1.000000e+00
    outer loop
      vertex   -8.053435e+00 4.000000e+00 7.000000e+00
      vertex   -8.026882e+00 4.050714e+00 7.000000e+00
      vertex   -8.000000e+00 4.000000e+00 7.000000e+00
    endloop
  endfacet
  facet normal 0.000000e+00 0.000000e+00 -1.000000e+00
    outer loop
      vertex   -8.000000e+00 4.000000e+00 7.000000e+00
      vertex   -8.026882e+00 4.050714e+00 7.000000e+00
      vertex   -8.000000e+00 4.101252e+00 7.000000e+00
    endloop
  endfacet
  facet normal 1.000000e+00 0.000000e+00 -2.723697e-14
    outer loop
      vertex   -8.000000e+00 4.101252e+00 7.000000e+00
      vertex   -8.000000e+00 4.050753e+00 7.032609e+00
      vertex   -8.000000e+00 4.000000e+00 7.000000e+00
    endloop
  endfacet
  facet normal 1.000000e+00 -1.750007e-14 0.000000e+00
    outer loop
      vertex   -8.000000e+00 4.000000e+00 7.000000e+00
      vertex   -8.000000e+00 4.050753e+00 7.032609e+00
      vertex   -8.000000e+00 4.000000e+00 7.064826e+00
    endloop
  endfacet
endsolid
