solid ASCII
  facet normal 9.121953e-01 3.722752e-01 1.712042e-01
    outer loop
      vertex   1.032981e+01 4.000000e+00 2.126113e+00
      vertex   1.035348e+01 4.000000e+00 2.000000e+00
      vertex   1.030284e+01 4.095457e+00 2.062262e+00
    endloop
  endfacet
  facet normal 9.120323e-01 3.737978e-01 1.687371e-01
    outer loop
      vertex   1.030284e+01 4.095457e+00 2.062262e+00
      vertex   1.035348e+01 4.000000e+00 2.000000e+00
      vertex   1.031272e+01 4.099440e+00 2.000000e+00
    endloop
  endfacet
  facet normal 9.082773e-01 3.828396e-01 1.687193e-01
    outer loop
      vertex   1.030284e+01 4.095457e+00 2.062262e+00
      vertex   1.031272e+01 4.099440e+00 2.000000e+00
      vertex   1.026164e+01 4.193192e+00 2.062262e+00
    endloop
  endfacet
  facet normal 9.082692e-01 3.829053e-01 1.686137e-01
    outer loop
      vertex   1.026164e+01 4.193192e+00 2.062262e+00
      vertex   1.031272e+01 4.099440e+00 2.000000e+00
      vertex   1.027098e+01 4.198457e+00 2.000000e+00
    endloop
  endfacet
  facet normal 9.044248e-01 3.918231e-01 1.687911e-01
    outer loop
      vertex   1.026164e+01 4.193192e+00 2.062262e+00
      vertex   1.027098e+01 4.198457e+00 2.000000e+00
      vertex   1.021910e+01 4.291399e+00 2.062262e+00
    endloop
  endfacet
  facet normal 9.044058e-01 3.919646e-01 1.685640e-01
    outer loop
      vertex   1.021910e+01 4.291399e+00 2.062262e+00
      vertex   1.027098e+01 4.198457e+00 2.000000e+00
      vertex   1.022826e+01 4.297043e+00 2.000000e+00
    endloop
  endfacet
  facet normal 9.004749e-01 4.008184e-01 1.687885e-01
    outer loop
      vertex   1.021910e+01 4.291399e+00 2.062262e+00
      vertex   1.022826e+01 4.297043e+00 2.000000e+00
      vertex   1.017549e+01 4.389376e+00 2.062262e+00
    endloop
  endfacet
  facet normal 9.004517e-01 4.009789e-01 1.685307e-01
    outer loop
      vertex   1.017549e+01 4.389376e+00 2.062262e+00
      vertex   1.022826e+01 4.297043e+00 2.000000e+00
      vertex   1.018455e+01 4.395192e+00 2.000000e+00
    endloop
  endfacet
  facet normal 8.964306e-01 4.097918e-01 1.687685e-01
    outer loop
      vertex   1.017549e+01 4.389376e+00 2.062262e+00
      vertex   1.018455e+01 4.395192e+00 2.000000e+00
      vertex   1.013078e+01 4.487175e+00 2.062262e+00
    endloop
  endfacet
  facet normal 8.964067e-01 4.099470e-01 1.685185e-01
    outer loop
      vertex   1.013078e+01 4.487175e+00 2.062262e+00
      vertex   1.018455e+01 4.395192e+00 2.000000e+00
      vertex   1.013987e+01 4.492896e+00 2.000000e+00
    endloop
  endfacet
  facet normal 8.922956e-01 4.187363e-01 1.687261e-01
    outer loop
      vertex   1.013078e+01 4.487175e+00 2.062262e+00
      vertex   1.013987e+01 4.492896e+00 2.000000e+00
      vertex   1.008507e+01 4.584583e+00 2.062262e+00
    endloop
  endfacet
  facet normal 8.922738e-01 4.188694e-01 1.685110e-01
    outer loop
      vertex   1.008507e+01 4.584583e+00 2.062262e+00
      vertex   1.013987e+01 4.492896e+00 2.000000e+00
      vertex   1.009421e+01 4.590150e+00 2.000000e+00
    endloop
  endfacet
  facet normal 8.880558e-01 4.276732e-01 1.686787e-01
    outer loop
      vertex   1.008507e+01 4.584583e+00 2.062262e+00
      vertex   1.009421e+01 4.590150e+00 2.000000e+00
      vertex   1.003801e+01 4.682302e+00 2.062262e+00
    endloop
  endfacet
  facet normal 8.880442e-01 4.277409e-01 1.685681e-01
    outer loop
      vertex   1.003801e+01 4.682302e+00 2.062262e+00
      vertex   1.009421e+01 4.590150e+00 2.000000e+00
      vertex   1.004759e+01 4.686946e+00 2.000000e+00
    endloop
  endfacet
  facet normal 8.841545e-01 4.357254e-01 1.685651e-01
    outer loop
      vertex   1.003801e+01 4.682302e+00 2.062262e+00
      vertex   1.004759e+01 4.686946e+00 2.000000e+00
      vertex   1.000000e+01 4.758269e+00 2.065244e+00
    endloop
  endfacet
  facet normal 8.839200e-01 4.366600e-01 1.673723e-01
    outer loop
      vertex   1.000000e+01 4.758269e+00 2.065244e+00
      vertex   1.004759e+01 4.686946e+00 2.000000e+00
      vertex   1.000000e+01 4.783277e+00 2.000000e+00
    endloop
  endfacet
  facet normal 8.835233e-01 4.352320e-01 1.730887e-01
    outer loop
      vertex   1.000000e+01 4.758269e+00 2.065244e+00
      vertex   1.000000e+01 4.732448e+00 2.130171e+00
      vertex   1.003801e+01 4.682302e+00 2.062262e+00
    endloop
  endfacet
  facet normal 8.837483e-01 4.345127e-01 1.737459e-01
    outer loop
      vertex   1.003801e+01 4.682302e+00 2.062262e+00
      vertex   1.000000e+01 4.732448e+00 2.130171e+00
      vertex   1.002811e+01 4.677512e+00 2.124569e+00
    endloop
  endfacet
  facet normal 8.872620e-01 4.272909e-01 1.737487e-01
    outer loop
      vertex   1.003801e+01 4.682302e+00 2.062262e+00
      vertex   1.002811e+01 4.677512e+00 2.124569e+00
      vertex   1.008507e+01 4.584583e+00 2.062262e+00
    endloop
  endfacet
  facet normal 8.872632e-01 4.272835e-01 1.737609e-01
    outer loop
      vertex   1.008507e+01 4.584583e+00 2.062262e+00
      vertex   1.002811e+01 4.677512e+00 2.124569e+00
      vertex   1.007506e+01 4.580032e+00 2.124569e+00
    endloop
  endfacet
  facet normal 8.914973e-01 4.183654e-01 1.737898e-01
    outer loop
      vertex   1.008507e+01 4.584583e+00 2.062262e+00
      vertex   1.007506e+01 4.580032e+00 2.124569e+00
      vertex   1.012069e+01 4.482786e+00 2.124569e+00
    endloop
  endfacet
  facet normal 8.906570e-01 4.179710e-01 1.789704e-01
    outer loop
      vertex   1.012069e+01 4.482786e+00 2.124569e+00
      vertex   1.007506e+01 4.580032e+00 2.124569e+00
      vertex   1.011029e+01 4.478256e+00 2.186919e+00
    endloop
  endfacet
  facet normal 8.947831e-01 4.090459e-01 1.790104e-01
    outer loop
      vertex   1.012069e+01 4.482786e+00 2.124569e+00
      vertex   1.011029e+01 4.478256e+00 2.186919e+00
      vertex   1.015497e+01 4.380525e+00 2.186919e+00
    endloop
  endfacet
  facet normal 8.939121e-01 4.086477e-01 1.841962e-01
    outer loop
      vertex   1.015497e+01 4.380525e+00 2.186919e+00
      vertex   1.011029e+01 4.478256e+00 2.186919e+00
      vertex   1.014423e+01 4.375893e+00 2.249308e+00
    endloop
  endfacet
  facet normal 8.979458e-01 3.996926e-01 1.842256e-01
    outer loop
      vertex   1.015497e+01 4.380525e+00 2.186919e+00
      vertex   1.014423e+01 4.375893e+00 2.249308e+00
      vertex   1.019849e+01 4.282745e+00 2.186919e+00
    endloop
  endfacet
  facet normal 8.979458e-01 3.996926e-01 1.842256e-01
    outer loop
      vertex   1.019849e+01 4.282745e+00 2.186919e+00
      vertex   1.014423e+01 4.375893e+00 2.249308e+00
      vertex   1.018771e+01 4.278216e+00 2.249308e+00
    endloop
  endfacet
  facet normal 9.018801e-01 3.907207e-01 1.842544e-01
    outer loop
      vertex   1.019849e+01 4.282745e+00 2.186919e+00
      vertex   1.018771e+01 4.278216e+00 2.249308e+00
      vertex   1.024095e+01 4.184736e+00 2.186919e+00
    endloop
  endfacet
  facet normal 9.018801e-01 3.907207e-01 1.842544e-01
    outer loop
      vertex   1.024095e+01 4.184736e+00 2.186919e+00
      vertex   1.018771e+01 4.278216e+00 2.249308e+00
      vertex   1.023012e+01 4.180311e+00 2.249308e+00
    endloop
  endfacet
  facet normal 9.057074e-01 3.817514e-01 1.842825e-01
    outer loop
      vertex   1.024095e+01 4.184736e+00 2.186919e+00
      vertex   1.023012e+01 4.180311e+00 2.249308e+00
      vertex   1.028210e+01 4.087107e+00 2.186919e+00
    endloop
  endfacet
  facet normal 9.057076e-01 3.817491e-01 1.842862e-01
    outer loop
      vertex   1.028210e+01 4.087107e+00 2.186919e+00
      vertex   1.023012e+01 4.180311e+00 2.249308e+00
      vertex   1.027125e+01 4.082740e+00 2.249308e+00
    endloop
  endfacet
  facet normal 9.091771e-01 3.734012e-01 1.843055e-01
    outer loop
      vertex   1.028210e+01 4.087107e+00 2.186919e+00
      vertex   1.027125e+01 4.082740e+00 2.249308e+00
      vertex   1.030470e+01 4.000000e+00 2.251935e+00
    endloop
  endfacet
  facet normal 9.082021e-01 3.731721e-01 1.895037e-01
    outer loop
      vertex   1.030470e+01 4.000000e+00 2.251935e+00
      vertex   1.027125e+01 4.082740e+00 2.249308e+00
      vertex   1.026007e+01 4.078244e+00 2.311733e+00
    endloop
  endfacet
  facet normal 9.084295e-01 3.712204e-01 1.922271e-01
    outer loop
      vertex   1.030470e+01 4.000000e+00 2.251935e+00
      vertex   1.026007e+01 4.078244e+00 2.311733e+00
      vertex   1.027814e+01 4.000000e+00 2.377452e+00
    endloop
  endfacet
  facet normal 9.071674e-01 3.730108e-01 1.947057e-01
    outer loop
      vertex   1.027814e+01 4.000000e+00 2.377452e+00
      vertex   1.026007e+01 4.078244e+00 2.311733e+00
      vertex   1.024856e+01 4.073619e+00 2.374193e+00
    endloop
  endfacet
  facet normal 9.061138e-01 3.728180e-01 1.999115e-01
    outer loop
      vertex   1.027814e+01 4.000000e+00 2.377452e+00
      vertex   1.024856e+01 4.073619e+00 2.374193e+00
      vertex   1.023673e+01 4.068863e+00 2.436684e+00
    endloop
  endfacet
  facet normal 9.028955e-01 3.805565e-01 1.998911e-01
    outer loop
      vertex   1.023673e+01 4.068863e+00 2.436684e+00
      vertex   1.024856e+01 4.073619e+00 2.374193e+00
      vertex   1.019569e+01 4.166242e+00 2.436684e+00
    endloop
  endfacet
  facet normal 9.019036e-01 3.801384e-01 2.050966e-01
    outer loop
      vertex   1.023673e+01 4.068863e+00 2.436684e+00
      vertex   1.019569e+01 4.166242e+00 2.436684e+00
      vertex   1.018356e+01 4.161286e+00 2.499202e+00
    endloop
  endfacet
  facet normal 8.980901e-01 3.890787e-01 2.050655e-01
    outer loop
      vertex   1.018356e+01 4.161286e+00 2.499202e+00
      vertex   1.019569e+01 4.166242e+00 2.436684e+00
      vertex   1.014134e+01 4.258745e+00 2.499202e+00
    endloop
  endfacet
  facet normal 8.970748e-01 3.886389e-01 2.102773e-01
    outer loop
      vertex   1.018356e+01 4.161286e+00 2.499202e+00
      vertex   1.014134e+01 4.258745e+00 2.499202e+00
      vertex   1.012894e+01 4.253537e+00 2.561746e+00
    endloop
  endfacet
  facet normal 8.931630e-01 3.975637e-01 2.102448e-01
    outer loop
      vertex   1.012894e+01 4.253537e+00 2.561746e+00
      vertex   1.014134e+01 4.258745e+00 2.499202e+00
      vertex   1.008571e+01 4.350650e+00 2.561746e+00
    endloop
  endfacet
  facet normal 8.921253e-01 3.971018e-01 2.154590e-01
    outer loop
      vertex   1.012894e+01 4.253537e+00 2.561746e+00
      vertex   1.008571e+01 4.350650e+00 2.561746e+00
      vertex   1.007303e+01 4.345182e+00 2.624311e+00
    endloop
  endfacet
  facet normal 8.881115e-01 4.060174e-01 2.154249e-01
    outer loop
      vertex   1.007303e+01 4.345182e+00 2.624311e+00
      vertex   1.008571e+01 4.350650e+00 2.561746e+00
      vertex   1.004116e+01 4.448101e+00 2.561746e+00
    endloop
  endfacet
  facet normal 8.881090e-01 4.060199e-01 2.154302e-01
    outer loop
      vertex   1.007303e+01 4.345182e+00 2.624311e+00
      vertex   1.004116e+01 4.448101e+00 2.561746e+00
      vertex   1.002851e+01 4.442575e+00 2.624311e+00
    endloop
  endfacet
  facet normal 8.845890e-01 4.136523e-01 2.153927e-01
    outer loop
      vertex   1.002851e+01 4.442575e+00 2.624311e+00
      vertex   1.004116e+01 4.448101e+00 2.561746e+00
      vertex   1.000000e+01 4.496889e+00 2.637079e+00
    endloop
  endfacet
  facet normal 8.840154e-01 4.121237e-01 2.206146e-01
    outer loop
      vertex   1.002851e+01 4.442575e+00 2.624311e+00
      vertex   1.000000e+01 4.496889e+00 2.637079e+00
      vertex   1.001553e+01 4.436905e+00 2.686896e+00
    endloop
  endfacet
  facet normal 8.838710e-01 4.122974e-01 2.208688e-01
    outer loop
      vertex   1.001553e+01 4.436905e+00 2.686896e+00
      vertex   1.000000e+01 4.496889e+00 2.637079e+00
      vertex   1.000000e+01 4.463888e+00 2.698683e+00
    endloop
  endfacet
  facet normal 8.836768e-01 4.100130e-01 2.258423e-01
    outer loop
      vertex   1.001553e+01 4.436905e+00 2.686896e+00
      vertex   1.000000e+01 4.463888e+00 2.698683e+00
      vertex   1.000223e+01 4.431090e+00 2.749497e+00
    endloop
  endfacet
  facet normal 8.808089e-01 4.144880e-01 2.288567e-01
    outer loop
      vertex   1.000223e+01 4.431090e+00 2.749497e+00
      vertex   1.000000e+01 4.463888e+00 2.698683e+00
      vertex   1.000000e+01 4.430114e+00 2.759851e+00
    endloop
  endfacet
  facet normal 8.863677e-01 4.024285e-01 2.289182e-01
    outer loop
      vertex   1.000223e+01 4.431090e+00 2.749497e+00
      vertex   1.000000e+01 4.430114e+00 2.759851e+00
      vertex   1.000000e+01 4.395571e+00 2.820576e+00
    endloop
  endfacet
  facet normal 8.831462e-01 4.336904e-01 1.787888e-01
    outer loop
      vertex   1.000000e+01 4.732448e+00 2.130171e+00
      vertex   1.000000e+01 4.705816e+00 2.194773e+00
      vertex   1.002811e+01 4.677512e+00 2.124569e+00
    endloop
  endfacet
  facet normal 8.832434e-01 4.334336e-01 1.789312e-01
    outer loop
      vertex   1.002811e+01 4.677512e+00 2.124569e+00
      vertex   1.000000e+01 4.705816e+00 2.194773e+00
      vertex   1.001790e+01 4.672576e+00 2.186919e+00
    endloop
  endfacet
  facet normal 8.864282e-01 4.268814e-01 1.789340e-01
    outer loop
      vertex   1.002811e+01 4.677512e+00 2.124569e+00
      vertex   1.001790e+01 4.672576e+00 2.186919e+00
      vertex   1.007506e+01 4.580032e+00 2.124569e+00
    endloop
  endfacet
  facet normal 8.864293e-01 4.268739e-01 1.789461e-01
    outer loop
      vertex   1.007506e+01 4.580032e+00 2.124569e+00
      vertex   1.001790e+01 4.672576e+00 2.186919e+00
      vertex   1.006473e+01 4.575338e+00 2.186919e+00
    endloop
  endfacet
  facet normal 8.906547e-01 4.179735e-01 1.789758e-01
    outer loop
      vertex   1.007506e+01 4.580032e+00 2.124569e+00
      vertex   1.006473e+01 4.575338e+00 2.186919e+00
      vertex   1.011029e+01 4.478256e+00 2.186919e+00
    endloop
  endfacet
  facet normal 8.897880e-01 4.175668e-01 1.841608e-01
    outer loop
      vertex   1.011029e+01 4.478256e+00 2.186919e+00
      vertex   1.006473e+01 4.575338e+00 2.186919e+00
      vertex   1.009957e+01 4.473586e+00 2.249308e+00
    endloop
  endfacet
  facet normal 8.939098e-01 4.086503e-01 1.842016e-01
    outer loop
      vertex   1.011029e+01 4.478256e+00 2.186919e+00
      vertex   1.009957e+01 4.473586e+00 2.249308e+00
      vertex   1.014423e+01 4.375893e+00 2.249308e+00
    endloop
  endfacet
  facet normal 8.930123e-01 4.082400e-01 1.893916e-01
    outer loop
      vertex   1.014423e+01 4.375893e+00 2.249308e+00
      vertex   1.009957e+01 4.473586e+00 2.249308e+00
      vertex   1.013317e+01 4.371123e+00 2.311733e+00
    endloop
  endfacet
  facet normal 8.970431e-01 3.992908e-01 1.894218e-01
    outer loop
      vertex   1.014423e+01 4.375893e+00 2.249308e+00
      vertex   1.013317e+01 4.371123e+00 2.311733e+00
      vertex   1.018771e+01 4.278216e+00 2.249308e+00
    endloop
  endfacet
  facet normal 8.970431e-01 3.992908e-01 1.894218e-01
    outer loop
      vertex   1.018771e+01 4.278216e+00 2.249308e+00
      vertex   1.013317e+01 4.371123e+00 2.311733e+00
      vertex   1.017660e+01 4.273552e+00 2.311733e+00
    endloop
  endfacet
  facet normal 9.009731e-01 3.903277e-01 1.894513e-01
    outer loop
      vertex   1.018771e+01 4.278216e+00 2.249308e+00
      vertex   1.017660e+01 4.273552e+00 2.311733e+00
      vertex   1.023012e+01 4.180311e+00 2.249308e+00
    endloop
  endfacet
  facet normal 9.009731e-01 3.903277e-01 1.894513e-01
    outer loop
      vertex   1.023012e+01 4.180311e+00 2.249308e+00
      vertex   1.017660e+01 4.273552e+00 2.311733e+00
      vertex   1.021897e+01 4.175754e+00 2.311733e+00
    endloop
  endfacet
  facet normal 9.047971e-01 3.813653e-01 1.894802e-01
    outer loop
      vertex   1.023012e+01 4.180311e+00 2.249308e+00
      vertex   1.021897e+01 4.175754e+00 2.311733e+00
      vertex   1.027125e+01 4.082740e+00 2.249308e+00
    endloop
  endfacet
  facet normal 9.047973e-01 3.813629e-01 1.894839e-01
    outer loop
      vertex   1.027125e+01 4.082740e+00 2.249308e+00
      vertex   1.021897e+01 4.175754e+00 2.311733e+00
      vertex   1.026007e+01 4.078244e+00 2.311733e+00
    endloop
  endfacet
  facet normal 8.828747e-01 4.320087e-01 1.841215e-01
    outer loop
      vertex   1.001790e+01 4.672576e+00 2.186919e+00
      vertex   1.000000e+01 4.705816e+00 2.194773e+00
      vertex   1.000738e+01 4.667494e+00 2.249308e+00
    endloop
  endfacet
  facet normal 8.822675e-01 4.329352e-01 1.848547e-01
    outer loop
      vertex   1.000738e+01 4.667494e+00 2.249308e+00
      vertex   1.000000e+01 4.705816e+00 2.194773e+00
      vertex   1.000000e+01 4.678375e+00 2.259040e+00
    endloop
  endfacet
  facet normal 8.830778e-01 4.291902e-01 1.896559e-01
    outer loop
      vertex   1.000738e+01 4.667494e+00 2.249308e+00
      vertex   1.000000e+01 4.678375e+00 2.259040e+00
      vertex   1.000000e+01 4.650127e+00 2.322966e+00
    endloop
  endfacet
  facet normal 8.841720e-01 4.248950e-01 1.941753e-01
    outer loop
      vertex   1.000000e+01 4.621074e+00 2.386539e+00
      vertex   1.004313e+01 4.565517e+00 2.311733e+00
      vertex   1.000000e+01 4.650127e+00 2.322966e+00
    endloop
  endfacet
  facet normal 8.847672e-01 4.258415e-01 1.893305e-01
    outer loop
      vertex   1.000000e+01 4.650127e+00 2.322966e+00
      vertex   1.004313e+01 4.565517e+00 2.311733e+00
      vertex   1.005409e+01 4.570500e+00 2.249308e+00
    endloop
  endfacet
  facet normal 8.847233e-01 4.260443e-01 1.890790e-01
    outer loop
      vertex   1.000000e+01 4.650127e+00 2.322966e+00
      vertex   1.005409e+01 4.570500e+00 2.249308e+00
      vertex   1.000738e+01 4.667494e+00 2.249308e+00
    endloop
  endfacet
  facet normal 8.855693e-01 4.264517e-01 1.841358e-01
    outer loop
      vertex   1.000738e+01 4.667494e+00 2.249308e+00
      vertex   1.005409e+01 4.570500e+00 2.249308e+00
      vertex   1.006473e+01 4.575338e+00 2.186919e+00
    endloop
  endfacet
  facet normal 8.855682e-01 4.264592e-01 1.841237e-01
    outer loop
      vertex   1.000738e+01 4.667494e+00 2.249308e+00
      vertex   1.006473e+01 4.575338e+00 2.186919e+00
      vertex   1.001790e+01 4.672576e+00 2.186919e+00
    endloop
  endfacet
  facet normal 8.836723e-01 4.232715e-01 1.999112e-01
    outer loop
      vertex   1.000000e+01 4.591218e+00 2.449753e+00
      vertex   1.002025e+01 4.555117e+00 2.436684e+00
      vertex   1.000000e+01 4.621074e+00 2.386539e+00
    endloop
  endfacet
  facet normal 8.837613e-01 4.231673e-01 1.997382e-01
    outer loop
      vertex   1.000000e+01 4.621074e+00 2.386539e+00
      vertex   1.002025e+01 4.555117e+00 2.436684e+00
      vertex   1.003185e+01 4.560390e+00 2.374193e+00
    endloop
  endfacet
  facet normal 8.842831e-01 4.245003e-01 1.945325e-01
    outer loop
      vertex   1.000000e+01 4.621074e+00 2.386539e+00
      vertex   1.003185e+01 4.560390e+00 2.374193e+00
      vertex   1.004313e+01 4.565517e+00 2.311733e+00
    endloop
  endfacet
  facet normal 8.879684e-01 4.167237e-01 1.945596e-01
    outer loop
      vertex   1.004313e+01 4.565517e+00 2.311733e+00
      vertex   1.003185e+01 4.560390e+00 2.374193e+00
      vertex   1.007717e+01 4.463820e+00 2.374193e+00
    endloop
  endfacet
  facet normal 8.879708e-01 4.167212e-01 1.945542e-01
    outer loop
      vertex   1.004313e+01 4.565517e+00 2.311733e+00
      vertex   1.007717e+01 4.463820e+00 2.374193e+00
      vertex   1.008853e+01 4.468774e+00 2.311733e+00
    endloop
  endfacet
  facet normal 8.920835e-01 4.078226e-01 1.945965e-01
    outer loop
      vertex   1.008853e+01 4.468774e+00 2.311733e+00
      vertex   1.007717e+01 4.463820e+00 2.374193e+00
      vertex   1.012179e+01 4.366214e+00 2.374193e+00
    endloop
  endfacet
  facet normal 8.920858e-01 4.078200e-01 1.945911e-01
    outer loop
      vertex   1.008853e+01 4.468774e+00 2.311733e+00
      vertex   1.012179e+01 4.366214e+00 2.374193e+00
      vertex   1.013317e+01 4.371123e+00 2.311733e+00
    endloop
  endfacet
  facet normal 8.961135e-01 3.988770e-01 1.946220e-01
    outer loop
      vertex   1.013317e+01 4.371123e+00 2.311733e+00
      vertex   1.012179e+01 4.366214e+00 2.374193e+00
      vertex   1.017660e+01 4.273552e+00 2.311733e+00
    endloop
  endfacet
  facet normal 8.834495e-01 4.213225e-01 2.049497e-01
    outer loop
      vertex   1.002025e+01 4.555117e+00 2.436684e+00
      vertex   1.000000e+01 4.591218e+00 2.449753e+00
      vertex   1.000833e+01 4.549699e+00 2.499202e+00
    endloop
  endfacet
  facet normal 8.825879e-01 4.225520e-01 2.061271e-01
    outer loop
      vertex   1.000833e+01 4.549699e+00 2.499202e+00
      vertex   1.000000e+01 4.591218e+00 2.449753e+00
      vertex   1.000000e+01 4.560561e+00 2.512598e+00
    endloop
  endfacet
  facet normal 8.837116e-01 4.180254e-01 2.104961e-01
    outer loop
      vertex   1.000833e+01 4.549699e+00 2.499202e+00
      vertex   1.000000e+01 4.560561e+00 2.512598e+00
      vertex   1.000000e+01 4.529115e+00 2.575048e+00
    endloop
  endfacet
  facet normal 8.844857e-01 4.140296e-01 2.150918e-01
    outer loop
      vertex   1.000000e+01 4.496889e+00 2.637079e+00
      vertex   1.004116e+01 4.448101e+00 2.561746e+00
      vertex   1.000000e+01 4.529115e+00 2.575048e+00
    endloop
  endfacet
  facet normal 8.851347e-01 4.151669e-01 2.101736e-01
    outer loop
      vertex   1.000000e+01 4.529115e+00 2.575048e+00
      vertex   1.004116e+01 4.448101e+00 2.561746e+00
      vertex   1.005348e+01 4.453484e+00 2.499202e+00
    endloop
  endfacet
  facet normal 8.850921e-01 4.153810e-01 2.099301e-01
    outer loop
      vertex   1.000000e+01 4.529115e+00 2.575048e+00
      vertex   1.005348e+01 4.453484e+00 2.499202e+00
      vertex   1.000833e+01 4.549699e+00 2.499202e+00
    endloop
  endfacet
  facet normal 8.860446e-01 4.158281e-01 2.049682e-01
    outer loop
      vertex   1.000833e+01 4.549699e+00 2.499202e+00
      vertex   1.005348e+01 4.453484e+00 2.499202e+00
      vertex   1.002025e+01 4.555117e+00 2.436684e+00
    endloop
  endfacet
  facet normal 8.844988e-01 4.025546e-01 2.358213e-01
    outer loop
      vertex   1.000000e+01 4.360263e+00 2.880848e+00
      vertex   1.003304e+01 4.327931e+00 2.812111e+00
      vertex   1.000000e+01 4.395571e+00 2.820576e+00
    endloop
  endfacet
  facet normal 8.852997e-01 4.035383e-01 2.310873e-01
    outer loop
      vertex   1.000000e+01 4.395571e+00 2.820576e+00
      vertex   1.003304e+01 4.327931e+00 2.812111e+00
      vertex   1.004670e+01 4.333823e+00 2.749497e+00
    endloop
  endfacet
  facet normal 8.850824e-01 4.046433e-01 2.299846e-01
    outer loop
      vertex   1.000000e+01 4.395571e+00 2.820576e+00
      vertex   1.004670e+01 4.333823e+00 2.749497e+00
      vertex   1.000223e+01 4.431090e+00 2.749497e+00
    endloop
  endfacet
  facet normal 8.859593e-01 4.050442e-01 2.258657e-01
    outer loop
      vertex   1.000223e+01 4.431090e+00 2.749497e+00
      vertex   1.004670e+01 4.333823e+00 2.749497e+00
      vertex   1.001553e+01 4.436905e+00 2.686896e+00
    endloop
  endfacet
  facet normal 8.847359e-01 4.017415e-01 2.363178e-01
    outer loop
      vertex   1.003304e+01 4.327931e+00 2.812111e+00
      vertex   1.000000e+01 4.360263e+00 2.880848e+00
      vertex   1.001905e+01 4.321897e+00 2.874734e+00
    endloop
  endfacet
  facet normal 8.838950e-01 4.004942e-01 2.415246e-01
    outer loop
      vertex   1.001905e+01 4.321897e+00 2.874734e+00
      vertex   1.000000e+01 4.360263e+00 2.880848e+00
      vertex   1.000000e+01 4.324193e+00 2.940659e+00
    endloop
  endfacet
  facet normal 8.839581e-01 4.003406e-01 2.415482e-01
    outer loop
      vertex   1.001905e+01 4.321897e+00 2.874734e+00
      vertex   1.000000e+01 4.324193e+00 2.940659e+00
      vertex   1.000474e+01 4.315721e+00 2.937365e+00
    endloop
  endfacet
  facet normal 8.835197e-01 3.979789e-01 2.469935e-01
    outer loop
      vertex   1.000474e+01 4.315721e+00 2.937365e+00
      vertex   1.000000e+01 4.324193e+00 2.940659e+00
      vertex   1.000000e+01 4.287365e+00 3.000000e+00
    endloop
  endfacet
  facet normal 8.856358e-01 3.942132e-01 2.454487e-01
    outer loop
      vertex   1.000474e+01 4.315721e+00 2.937365e+00
      vertex   1.000000e+01 4.287365e+00 3.000000e+00
      vertex   1.004762e+01 4.219387e+00 2.937365e+00
    endloop
  endfacet
  facet normal 8.857556e-01 3.931987e-01 2.466408e-01
    outer loop
      vertex   1.004762e+01 4.219387e+00 2.937365e+00
      vertex   1.000000e+01 4.287365e+00 3.000000e+00
      vertex   1.003174e+01 4.215875e+00 3.000000e+00
    endloop
  endfacet
  facet normal 8.885658e-01 3.865880e-01 2.469826e-01
    outer loop
      vertex   1.004762e+01 4.219387e+00 2.937365e+00
      vertex   1.003174e+01 4.215875e+00 3.000000e+00
      vertex   1.006294e+01 4.144149e+00 3.000000e+00
    endloop
  endfacet
  facet normal 8.895576e-01 3.853822e-01 2.452915e-01
    outer loop
      vertex   1.004762e+01 4.219387e+00 2.937365e+00
      vertex   1.006294e+01 4.144149e+00 3.000000e+00
      vertex   1.008945e+01 4.122829e+00 2.937365e+00
    endloop
  endfacet
  facet normal 8.912034e-01 3.799016e-01 2.478535e-01
    outer loop
      vertex   1.008945e+01 4.122829e+00 2.937365e+00
      vertex   1.006294e+01 4.144149e+00 3.000000e+00
      vertex   1.009362e+01 4.072190e+00 3.000000e+00
    endloop
  endfacet
  facet normal 8.934179e-01 3.765424e-01 2.449904e-01
    outer loop
      vertex   1.008945e+01 4.122829e+00 2.937365e+00
      vertex   1.009362e+01 4.072190e+00 3.000000e+00
      vertex   1.013021e+01 4.026106e+00 2.937365e+00
    endloop
  endfacet
  facet normal 8.940245e-01 3.732917e-01 2.477365e-01
    outer loop
      vertex   1.013021e+01 4.026106e+00 2.937365e+00
      vertex   1.009362e+01 4.072190e+00 3.000000e+00
      vertex   1.012376e+01 4.000000e+00 3.000000e+00
    endloop
  endfacet
  facet normal 8.981289e-01 3.652779e-01 2.448194e-01
    outer loop
      vertex   1.013021e+01 4.026106e+00 2.937365e+00
      vertex   1.012376e+01 4.000000e+00 3.000000e+00
      vertex   1.015750e+01 4.000000e+00 2.876206e+00
    endloop
  endfacet
  facet normal 9.000476e-01 3.674944e-01 2.342268e-01
    outer loop
      vertex   1.018982e+01 4.000000e+00 2.752041e+00
      vertex   1.015884e+01 4.037587e+00 2.812111e+00
      vertex   1.015750e+01 4.000000e+00 2.876206e+00
    endloop
  endfacet
  facet normal 8.978866e-01 3.713438e-01 2.364392e-01
    outer loop
      vertex   1.015750e+01 4.000000e+00 2.876206e+00
      vertex   1.015884e+01 4.037587e+00 2.812111e+00
      vertex   1.014469e+01 4.031913e+00 2.874734e+00
    endloop
  endfacet
  facet normal 8.966065e-01 3.710710e-01 2.416672e-01
    outer loop
      vertex   1.015750e+01 4.000000e+00 2.876206e+00
      vertex   1.014469e+01 4.031913e+00 2.874734e+00
      vertex   1.013021e+01 4.026106e+00 2.937365e+00
    endloop
  endfacet
  facet normal 8.941909e-01 3.768682e-01 2.416463e-01
    outer loop
      vertex   1.013021e+01 4.026106e+00 2.937365e+00
      vertex   1.014469e+01 4.031913e+00 2.874734e+00
      vertex   1.008945e+01 4.122829e+00 2.937365e+00
    endloop
  endfacet
  facet normal 9.021709e-01 3.688376e-01 2.237107e-01
    outer loop
      vertex   1.022069e+01 4.000000e+00 2.627518e+00
      vertex   1.018613e+01 4.048538e+00 2.686896e+00
      vertex   1.018982e+01 4.000000e+00 2.752041e+00
    endloop
  endfacet
  facet normal 9.004011e-01 3.717615e-01 2.259895e-01
    outer loop
      vertex   1.018982e+01 4.000000e+00 2.752041e+00
      vertex   1.018613e+01 4.048538e+00 2.686896e+00
      vertex   1.017265e+01 4.043128e+00 2.749497e+00
    endloop
  endfacet
  facet normal 8.991520e-01 3.715725e-01 2.312132e-01
    outer loop
      vertex   1.018982e+01 4.000000e+00 2.752041e+00
      vertex   1.017265e+01 4.043128e+00 2.749497e+00
      vertex   1.015884e+01 4.037587e+00 2.812111e+00
    endloop
  endfacet
  facet normal 8.965332e-01 3.778603e-01 2.311920e-01
    outer loop
      vertex   1.015884e+01 4.037587e+00 2.812111e+00
      vertex   1.017265e+01 4.043128e+00 2.749497e+00
      vertex   1.011799e+01 4.134493e+00 2.812111e+00
    endloop
  endfacet
  facet normal 8.953760e-01 3.773725e-01 2.364146e-01
    outer loop
      vertex   1.015884e+01 4.037587e+00 2.812111e+00
      vertex   1.011799e+01 4.134493e+00 2.812111e+00
      vertex   1.010389e+01 4.128729e+00 2.874734e+00
    endloop
  endfacet
  facet normal 8.915868e-01 3.862613e-01 2.363792e-01
    outer loop
      vertex   1.010389e+01 4.128729e+00 2.874734e+00
      vertex   1.011799e+01 4.134493e+00 2.812111e+00
      vertex   1.006200e+01 4.225426e+00 2.874734e+00
    endloop
  endfacet
  facet normal 8.904062e-01 3.857499e-01 2.416067e-01
    outer loop
      vertex   1.010389e+01 4.128729e+00 2.874734e+00
      vertex   1.006200e+01 4.225426e+00 2.874734e+00
      vertex   1.004762e+01 4.219387e+00 2.937365e+00
    endloop
  endfacet
  facet normal 8.865255e-01 3.946093e-01 2.415699e-01
    outer loop
      vertex   1.004762e+01 4.219387e+00 2.937365e+00
      vertex   1.006200e+01 4.225426e+00 2.874734e+00
      vertex   1.000474e+01 4.315721e+00 2.937365e+00
    endloop
  endfacet
  facet normal 9.043128e-01 3.698070e-01 2.132161e-01
    outer loop
      vertex   1.025013e+01 4.000000e+00 2.502651e+00
      vertex   1.021209e+01 4.058962e+00 2.561746e+00
      vertex   1.022069e+01 4.000000e+00 2.627518e+00
    endloop
  endfacet
  facet normal 9.027821e-01 3.721866e-01 2.155495e-01
    outer loop
      vertex   1.022069e+01 4.000000e+00 2.627518e+00
      vertex   1.021209e+01 4.058962e+00 2.561746e+00
      vertex   1.019927e+01 4.053816e+00 2.624311e+00
    endloop
  endfacet
  facet normal 9.015880e-01 3.720222e-01 2.207680e-01
    outer loop
      vertex   1.022069e+01 4.000000e+00 2.627518e+00
      vertex   1.019927e+01 4.053816e+00 2.624311e+00
      vertex   1.018613e+01 4.048538e+00 2.686896e+00
    endloop
  endfacet
  facet normal 8.987643e-01 3.788055e-01 2.207469e-01
    outer loop
      vertex   1.018613e+01 4.048538e+00 2.686896e+00
      vertex   1.019927e+01 4.053816e+00 2.624311e+00
      vertex   1.014521e+01 4.145615e+00 2.686896e+00
    endloop
  endfacet
  facet normal 8.976625e-01 3.783411e-01 2.259646e-01
    outer loop
      vertex   1.018613e+01 4.048538e+00 2.686896e+00
      vertex   1.014521e+01 4.145615e+00 2.686896e+00
      vertex   1.013177e+01 4.140121e+00 2.749497e+00
    endloop
  endfacet
  facet normal 8.938647e-01 3.872482e-01 2.259307e-01
    outer loop
      vertex   1.013177e+01 4.140121e+00 2.749497e+00
      vertex   1.014521e+01 4.145615e+00 2.686896e+00
      vertex   1.008976e+01 4.237085e+00 2.749497e+00
    endloop
  endfacet
  facet normal 8.927396e-01 3.867608e-01 2.311538e-01
    outer loop
      vertex   1.013177e+01 4.140121e+00 2.749497e+00
      vertex   1.008976e+01 4.237085e+00 2.749497e+00
      vertex   1.007604e+01 4.231325e+00 2.812111e+00
    endloop
  endfacet
  facet normal 8.888480e-01 3.956430e-01 2.311184e-01
    outer loop
      vertex   1.007604e+01 4.231325e+00 2.812111e+00
      vertex   1.008976e+01 4.237085e+00 2.749497e+00
      vertex   1.003304e+01 4.327931e+00 2.812111e+00
    endloop
  endfacet
  facet normal 8.877006e-01 3.951323e-01 2.363431e-01
    outer loop
      vertex   1.007604e+01 4.231325e+00 2.812111e+00
      vertex   1.003304e+01 4.327931e+00 2.812111e+00
      vertex   1.001905e+01 4.321897e+00 2.874734e+00
    endloop
  endfacet
  facet normal 9.064085e-01 3.705759e-01 2.027242e-01
    outer loop
      vertex   1.027814e+01 4.000000e+00 2.377452e+00
      vertex   1.023673e+01 4.068863e+00 2.436684e+00
      vertex   1.025013e+01 4.000000e+00 2.502651e+00
    endloop
  endfacet
  facet normal 9.050365e-01 3.726049e-01 2.051209e-01
    outer loop
      vertex   1.025013e+01 4.000000e+00 2.502651e+00
      vertex   1.023673e+01 4.068863e+00 2.436684e+00
      vertex   1.022458e+01 4.063978e+00 2.499202e+00
    endloop
  endfacet
  facet normal 9.039091e-01 3.724355e-01 2.103336e-01
    outer loop
      vertex   1.025013e+01 4.000000e+00 2.502651e+00
      vertex   1.022458e+01 4.063978e+00 2.499202e+00
      vertex   1.021209e+01 4.058962e+00 2.561746e+00
    endloop
  endfacet
  facet normal 9.008848e-01 3.797041e-01 2.103127e-01
    outer loop
      vertex   1.021209e+01 4.058962e+00 2.561746e+00
      vertex   1.022458e+01 4.063978e+00 2.499202e+00
      vertex   1.017111e+01 4.156197e+00 2.561746e+00
    endloop
  endfacet
  facet normal 8.998382e-01 3.792630e-01 2.155247e-01
    outer loop
      vertex   1.021209e+01 4.058962e+00 2.561746e+00
      vertex   1.017111e+01 4.156197e+00 2.561746e+00
      vertex   1.015832e+01 4.150973e+00 2.624311e+00
    endloop
  endfacet
  facet normal 8.960323e-01 3.881872e-01 2.154922e-01
    outer loop
      vertex   1.015832e+01 4.150973e+00 2.624311e+00
      vertex   1.017111e+01 4.156197e+00 2.561746e+00
      vertex   1.011621e+01 4.248190e+00 2.624311e+00
    endloop
  endfacet
  facet normal 8.949622e-01 3.877237e-01 2.207101e-01
    outer loop
      vertex   1.015832e+01 4.150973e+00 2.624311e+00
      vertex   1.011621e+01 4.248190e+00 2.624311e+00
      vertex   1.010315e+01 4.242707e+00 2.686896e+00
    endloop
  endfacet
  facet normal 8.910603e-01 3.966278e-01 2.206761e-01
    outer loop
      vertex   1.010315e+01 4.242707e+00 2.686896e+00
      vertex   1.011621e+01 4.248190e+00 2.624311e+00
      vertex   1.006003e+01 4.339573e+00 2.686896e+00
    endloop
  endfacet
  facet normal 8.899679e-01 3.961415e-01 2.258960e-01
    outer loop
      vertex   1.010315e+01 4.242707e+00 2.686896e+00
      vertex   1.006003e+01 4.339573e+00 2.686896e+00
      vertex   1.004670e+01 4.333823e+00 2.749497e+00
    endloop
  endfacet
  facet normal 8.859617e-01 4.050418e-01 2.258605e-01
    outer loop
      vertex   1.004670e+01 4.333823e+00 2.749497e+00
      vertex   1.006003e+01 4.339573e+00 2.686896e+00
      vertex   1.001553e+01 4.436905e+00 2.686896e+00
    endloop
  endfacet
  facet normal 9.103612e-01 3.717794e-01 1.817210e-01
    outer loop
      vertex   1.030470e+01 4.000000e+00 2.251935e+00
      vertex   1.032981e+01 4.000000e+00 2.126113e+00
      vertex   1.028210e+01 4.087107e+00 2.186919e+00
    endloop
  endfacet
  facet normal 9.101746e-01 3.734987e-01 1.791116e-01
    outer loop
      vertex   1.028210e+01 4.087107e+00 2.186919e+00
      vertex   1.032981e+01 4.000000e+00 2.126113e+00
      vertex   1.029263e+01 4.091346e+00 2.124569e+00
    endloop
  endfacet
  facet normal 9.065910e-01 3.821238e-01 1.790927e-01
    outer loop
      vertex   1.028210e+01 4.087107e+00 2.186919e+00
      vertex   1.029263e+01 4.091346e+00 2.124569e+00
      vertex   1.024095e+01 4.184736e+00 2.186919e+00
    endloop
  endfacet
  facet normal 9.065907e-01 3.821262e-01 1.790890e-01
    outer loop
      vertex   1.024095e+01 4.184736e+00 2.186919e+00
      vertex   1.029263e+01 4.091346e+00 2.124569e+00
      vertex   1.025146e+01 4.189030e+00 2.124569e+00
    endloop
  endfacet
  facet normal 9.027603e-01 3.911020e-01 1.790616e-01
    outer loop
      vertex   1.024095e+01 4.184736e+00 2.186919e+00
      vertex   1.025146e+01 4.189030e+00 2.124569e+00
      vertex   1.019849e+01 4.282745e+00 2.186919e+00
    endloop
  endfacet
  facet normal 9.027603e-01 3.911020e-01 1.790616e-01
    outer loop
      vertex   1.019849e+01 4.282745e+00 2.186919e+00
      vertex   1.025146e+01 4.189030e+00 2.124569e+00
      vertex   1.020895e+01 4.287139e+00 2.124569e+00
    endloop
  endfacet
  facet normal 8.988219e-01 4.000826e-01 1.790336e-01
    outer loop
      vertex   1.019849e+01 4.282745e+00 2.186919e+00
      vertex   1.020895e+01 4.287139e+00 2.124569e+00
      vertex   1.015497e+01 4.380525e+00 2.186919e+00
    endloop
  endfacet
  facet normal 8.988219e-01 4.000826e-01 1.790336e-01
    outer loop
      vertex   1.015497e+01 4.380525e+00 2.186919e+00
      vertex   1.020895e+01 4.287139e+00 2.124569e+00
      vertex   1.016538e+01 4.385019e+00 2.124569e+00
    endloop
  endfacet
  facet normal 8.947853e-01 4.090433e-01 1.790050e-01
    outer loop
      vertex   1.015497e+01 4.380525e+00 2.186919e+00
      vertex   1.016538e+01 4.385019e+00 2.124569e+00
      vertex   1.012069e+01 4.482786e+00 2.124569e+00
    endloop
  endfacet
  facet normal 8.956299e-01 4.094294e-01 1.738237e-01
    outer loop
      vertex   1.012069e+01 4.482786e+00 2.124569e+00
      vertex   1.016538e+01 4.385019e+00 2.124569e+00
      vertex   1.013078e+01 4.487175e+00 2.062262e+00
    endloop
  endfacet
  facet normal 8.914996e-01 4.183628e-01 1.737844e-01
    outer loop
      vertex   1.012069e+01 4.482786e+00 2.124569e+00
      vertex   1.013078e+01 4.487175e+00 2.062262e+00
      vertex   1.008507e+01 4.584583e+00 2.062262e+00
    endloop
  endfacet
  facet normal 9.110675e-01 3.737744e-01 1.739219e-01
    outer loop
      vertex   1.029263e+01 4.091346e+00 2.124569e+00
      vertex   1.032981e+01 4.000000e+00 2.126113e+00
      vertex   1.030284e+01 4.095457e+00 2.062262e+00
    endloop
  endfacet
  facet normal 9.074475e-01 3.824873e-01 1.739037e-01
    outer loop
      vertex   1.025146e+01 4.189030e+00 2.124569e+00
      vertex   1.029263e+01 4.091346e+00 2.124569e+00
      vertex   1.030284e+01 4.095457e+00 2.062262e+00
    endloop
  endfacet
  facet normal 9.074472e-01 3.824897e-01 1.738999e-01
    outer loop
      vertex   1.025146e+01 4.189030e+00 2.124569e+00
      vertex   1.030284e+01 4.095457e+00 2.062262e+00
      vertex   1.026164e+01 4.193192e+00 2.062262e+00
    endloop
  endfacet
  facet normal 9.038600e-01 3.809654e-01 1.946856e-01
    outer loop
      vertex   1.024856e+01 4.073619e+00 2.374193e+00
      vertex   1.026007e+01 4.078244e+00 2.311733e+00
      vertex   1.020749e+01 4.171065e+00 2.374193e+00
    endloop
  endfacet
  facet normal 9.038598e-01 3.809678e-01 1.946819e-01
    outer loop
      vertex   1.020749e+01 4.171065e+00 2.374193e+00
      vertex   1.026007e+01 4.078244e+00 2.311733e+00
      vertex   1.021897e+01 4.175754e+00 2.311733e+00
    endloop
  endfacet
  facet normal 9.000391e-01 3.899231e-01 1.946523e-01
    outer loop
      vertex   1.020749e+01 4.171065e+00 2.374193e+00
      vertex   1.021897e+01 4.175754e+00 2.311733e+00
      vertex   1.016517e+01 4.268753e+00 2.374193e+00
    endloop
  endfacet
  facet normal 9.000391e-01 3.899231e-01 1.946523e-01
    outer loop
      vertex   1.016517e+01 4.268753e+00 2.374193e+00
      vertex   1.021897e+01 4.175754e+00 2.311733e+00
      vertex   1.017660e+01 4.273552e+00 2.311733e+00
    endloop
  endfacet
  facet normal 8.961135e-01 3.988770e-01 1.946220e-01
    outer loop
      vertex   1.016517e+01 4.268753e+00 2.374193e+00
      vertex   1.017660e+01 4.273552e+00 2.311733e+00
      vertex   1.012179e+01 4.366214e+00 2.374193e+00
    endloop
  endfacet
  facet normal 9.008846e-01 3.797065e-01 2.103091e-01
    outer loop
      vertex   1.017111e+01 4.156197e+00 2.561746e+00
      vertex   1.022458e+01 4.063978e+00 2.499202e+00
      vertex   1.018356e+01 4.161286e+00 2.499202e+00
    endloop
  endfacet
  facet normal 9.019038e-01 3.801360e-01 2.051002e-01
    outer loop
      vertex   1.018356e+01 4.161286e+00 2.499202e+00
      vertex   1.022458e+01 4.063978e+00 2.499202e+00
      vertex   1.023673e+01 4.068863e+00 2.436684e+00
    endloop
  endfacet
  facet normal 8.987641e-01 3.788079e-01 2.207433e-01
    outer loop
      vertex   1.014521e+01 4.145615e+00 2.686896e+00
      vertex   1.019927e+01 4.053816e+00 2.624311e+00
      vertex   1.015832e+01 4.150973e+00 2.624311e+00
    endloop
  endfacet
  facet normal 8.998383e-01 3.792606e-01 2.155283e-01
    outer loop
      vertex   1.015832e+01 4.150973e+00 2.624311e+00
      vertex   1.019927e+01 4.053816e+00 2.624311e+00
      vertex   1.021209e+01 4.058962e+00 2.561746e+00
    endloop
  endfacet
  facet normal 8.965331e-01 3.778627e-01 2.311885e-01
    outer loop
      vertex   1.011799e+01 4.134493e+00 2.812111e+00
      vertex   1.017265e+01 4.043128e+00 2.749497e+00
      vertex   1.013177e+01 4.140121e+00 2.749497e+00
    endloop
  endfacet
  facet normal 8.976626e-01 3.783387e-01 2.259682e-01
    outer loop
      vertex   1.013177e+01 4.140121e+00 2.749497e+00
      vertex   1.017265e+01 4.043128e+00 2.749497e+00
      vertex   1.018613e+01 4.048538e+00 2.686896e+00
    endloop
  endfacet
  facet normal 8.941909e-01 3.768706e-01 2.416428e-01
    outer loop
      vertex   1.008945e+01 4.122829e+00 2.937365e+00
      vertex   1.014469e+01 4.031913e+00 2.874734e+00
      vertex   1.010389e+01 4.128729e+00 2.874734e+00
    endloop
  endfacet
  facet normal 8.953760e-01 3.773702e-01 2.364181e-01
    outer loop
      vertex   1.010389e+01 4.128729e+00 2.874734e+00
      vertex   1.014469e+01 4.031913e+00 2.874734e+00
      vertex   1.015884e+01 4.037587e+00 2.812111e+00
    endloop
  endfacet
  facet normal 9.036138e-01 3.914718e-01 1.738733e-01
    outer loop
      vertex   1.020895e+01 4.287139e+00 2.124569e+00
      vertex   1.025146e+01 4.189030e+00 2.124569e+00
      vertex   1.026164e+01 4.193192e+00 2.062262e+00
    endloop
  endfacet
  facet normal 9.028953e-01 3.805588e-01 1.998875e-01
    outer loop
      vertex   1.024856e+01 4.073619e+00 2.374193e+00
      vertex   1.020749e+01 4.171065e+00 2.374193e+00
      vertex   1.019569e+01 4.166242e+00 2.436684e+00
    endloop
  endfacet
  facet normal 8.990782e-01 3.895068e-01 1.998571e-01
    outer loop
      vertex   1.019569e+01 4.166242e+00 2.436684e+00
      vertex   1.020749e+01 4.171065e+00 2.374193e+00
      vertex   1.015342e+01 4.263817e+00 2.436684e+00
    endloop
  endfacet
  facet normal 8.980901e-01 3.890787e-01 2.050655e-01
    outer loop
      vertex   1.019569e+01 4.166242e+00 2.436684e+00
      vertex   1.015342e+01 4.263817e+00 2.436684e+00
      vertex   1.014134e+01 4.258745e+00 2.499202e+00
    endloop
  endfacet
  facet normal 8.941736e-01 3.980135e-01 2.050337e-01
    outer loop
      vertex   1.014134e+01 4.258745e+00 2.499202e+00
      vertex   1.015342e+01 4.263817e+00 2.436684e+00
      vertex   1.009806e+01 4.355978e+00 2.499202e+00
    endloop
  endfacet
  facet normal 8.931630e-01 3.975637e-01 2.102448e-01
    outer loop
      vertex   1.014134e+01 4.258745e+00 2.499202e+00
      vertex   1.009806e+01 4.355978e+00 2.499202e+00
      vertex   1.008571e+01 4.350650e+00 2.561746e+00
    endloop
  endfacet
  facet normal 8.891455e-01 4.064866e-01 2.102115e-01
    outer loop
      vertex   1.008571e+01 4.350650e+00 2.561746e+00
      vertex   1.009806e+01 4.355978e+00 2.499202e+00
      vertex   1.005348e+01 4.453484e+00 2.499202e+00
    endloop
  endfacet
  facet normal 8.891431e-01 4.064891e-01 2.102168e-01
    outer loop
      vertex   1.008571e+01 4.350650e+00 2.561746e+00
      vertex   1.005348e+01 4.453484e+00 2.499202e+00
      vertex   1.004116e+01 4.448101e+00 2.561746e+00
    endloop
  endfacet
  facet normal 8.990782e-01 3.895068e-01 1.998571e-01
    outer loop
      vertex   1.015342e+01 4.263817e+00 2.436684e+00
      vertex   1.020749e+01 4.171065e+00 2.374193e+00
      vertex   1.016517e+01 4.268753e+00 2.374193e+00
    endloop
  endfacet
  facet normal 8.960323e-01 3.881872e-01 2.154922e-01
    outer loop
      vertex   1.011621e+01 4.248190e+00 2.624311e+00
      vertex   1.017111e+01 4.156197e+00 2.561746e+00
      vertex   1.012894e+01 4.253537e+00 2.561746e+00
    endloop
  endfacet
  facet normal 8.970748e-01 3.886389e-01 2.102773e-01
    outer loop
      vertex   1.012894e+01 4.253537e+00 2.561746e+00
      vertex   1.017111e+01 4.156197e+00 2.561746e+00
      vertex   1.018356e+01 4.161286e+00 2.499202e+00
    endloop
  endfacet
  facet normal 8.938647e-01 3.872482e-01 2.259307e-01
    outer loop
      vertex   1.008976e+01 4.237085e+00 2.749497e+00
      vertex   1.014521e+01 4.145615e+00 2.686896e+00
      vertex   1.010315e+01 4.242707e+00 2.686896e+00
    endloop
  endfacet
  facet normal 8.949622e-01 3.877237e-01 2.207101e-01
    outer loop
      vertex   1.010315e+01 4.242707e+00 2.686896e+00
      vertex   1.014521e+01 4.145615e+00 2.686896e+00
      vertex   1.015832e+01 4.150973e+00 2.624311e+00
    endloop
  endfacet
  facet normal 8.915868e-01 3.862613e-01 2.363792e-01
    outer loop
      vertex   1.006200e+01 4.225426e+00 2.874734e+00
      vertex   1.011799e+01 4.134493e+00 2.812111e+00
      vertex   1.007604e+01 4.231325e+00 2.812111e+00
    endloop
  endfacet
  facet normal 8.927396e-01 3.867608e-01 2.311538e-01
    outer loop
      vertex   1.007604e+01 4.231325e+00 2.812111e+00
      vertex   1.011799e+01 4.134493e+00 2.812111e+00
      vertex   1.013177e+01 4.140121e+00 2.749497e+00
    endloop
  endfacet
  facet normal 8.904062e-01 3.857499e-01 2.416067e-01
    outer loop
      vertex   1.004762e+01 4.219387e+00 2.937365e+00
      vertex   1.008945e+01 4.122829e+00 2.937365e+00
      vertex   1.010389e+01 4.128729e+00 2.874734e+00
    endloop
  endfacet
  facet normal 8.996715e-01 4.004608e-01 1.738460e-01
    outer loop
      vertex   1.016538e+01 4.385019e+00 2.124569e+00
      vertex   1.020895e+01 4.287139e+00 2.124569e+00
      vertex   1.021910e+01 4.291399e+00 2.062262e+00
    endloop
  endfacet
  facet normal 9.036138e-01 3.914718e-01 1.738733e-01
    outer loop
      vertex   1.021910e+01 4.291399e+00 2.062262e+00
      vertex   1.020895e+01 4.287139e+00 2.124569e+00
      vertex   1.026164e+01 4.193192e+00 2.062262e+00
    endloop
  endfacet
  facet normal 8.951570e-01 3.984513e-01 1.998261e-01
    outer loop
      vertex   1.015342e+01 4.263817e+00 2.436684e+00
      vertex   1.016517e+01 4.268753e+00 2.374193e+00
      vertex   1.011009e+01 4.361166e+00 2.436684e+00
    endloop
  endfacet
  facet normal 8.951570e-01 3.984513e-01 1.998261e-01
    outer loop
      vertex   1.011009e+01 4.361166e+00 2.436684e+00
      vertex   1.016517e+01 4.268753e+00 2.374193e+00
      vertex   1.012179e+01 4.366214e+00 2.374193e+00
    endloop
  endfacet
  facet normal 8.911326e-01 4.073878e-01 1.997943e-01
    outer loop
      vertex   1.011009e+01 4.361166e+00 2.436684e+00
      vertex   1.012179e+01 4.366214e+00 2.374193e+00
      vertex   1.007717e+01 4.463820e+00 2.374193e+00
    endloop
  endfacet
  facet normal 8.910603e-01 3.966278e-01 2.206761e-01
    outer loop
      vertex   1.006003e+01 4.339573e+00 2.686896e+00
      vertex   1.011621e+01 4.248190e+00 2.624311e+00
      vertex   1.007303e+01 4.345182e+00 2.624311e+00
    endloop
  endfacet
  facet normal 8.921253e-01 3.971018e-01 2.154590e-01
    outer loop
      vertex   1.007303e+01 4.345182e+00 2.624311e+00
      vertex   1.011621e+01 4.248190e+00 2.624311e+00
      vertex   1.012894e+01 4.253537e+00 2.561746e+00
    endloop
  endfacet
  facet normal 8.888480e-01 3.956430e-01 2.311184e-01
    outer loop
      vertex   1.003304e+01 4.327931e+00 2.812111e+00
      vertex   1.008976e+01 4.237085e+00 2.749497e+00
      vertex   1.004670e+01 4.333823e+00 2.749497e+00
    endloop
  endfacet
  facet normal 8.899679e-01 3.961415e-01 2.258960e-01
    outer loop
      vertex   1.004670e+01 4.333823e+00 2.749497e+00
      vertex   1.008976e+01 4.237085e+00 2.749497e+00
      vertex   1.010315e+01 4.242707e+00 2.686896e+00
    endloop
  endfacet
  facet normal 8.865255e-01 3.946093e-01 2.415699e-01
    outer loop
      vertex   1.000474e+01 4.315721e+00 2.937365e+00
      vertex   1.006200e+01 4.225426e+00 2.874734e+00
      vertex   1.001905e+01 4.321897e+00 2.874734e+00
    endloop
  endfacet
  facet normal 8.877006e-01 3.951323e-01 2.363431e-01
    outer loop
      vertex   1.001905e+01 4.321897e+00 2.874734e+00
      vertex   1.006200e+01 4.225426e+00 2.874734e+00
      vertex   1.007604e+01 4.231325e+00 2.812111e+00
    endloop
  endfacet
  facet normal 8.956321e-01 4.094268e-01 1.738182e-01
    outer loop
      vertex   1.013078e+01 4.487175e+00 2.062262e+00
      vertex   1.016538e+01 4.385019e+00 2.124569e+00
      vertex   1.017549e+01 4.389376e+00 2.062262e+00
    endloop
  endfacet
  facet normal 8.996715e-01 4.004608e-01 1.738460e-01
    outer loop
      vertex   1.017549e+01 4.389376e+00 2.062262e+00
      vertex   1.016538e+01 4.385019e+00 2.124569e+00
      vertex   1.021910e+01 4.291399e+00 2.062262e+00
    endloop
  endfacet
  facet normal 8.930100e-01 4.082425e-01 1.893970e-01
    outer loop
      vertex   1.008853e+01 4.468774e+00 2.311733e+00
      vertex   1.013317e+01 4.371123e+00 2.311733e+00
      vertex   1.009957e+01 4.473586e+00 2.249308e+00
    endloop
  endfacet
  facet normal 8.941736e-01 3.980135e-01 2.050337e-01
    outer loop
      vertex   1.015342e+01 4.263817e+00 2.436684e+00
      vertex   1.011009e+01 4.361166e+00 2.436684e+00
      vertex   1.009806e+01 4.355978e+00 2.499202e+00
    endloop
  endfacet
  facet normal 8.901526e-01 4.069434e-01 2.050012e-01
    outer loop
      vertex   1.009806e+01 4.355978e+00 2.499202e+00
      vertex   1.011009e+01 4.361166e+00 2.436684e+00
      vertex   1.006549e+01 4.458723e+00 2.436684e+00
    endloop
  endfacet
  facet normal 8.901502e-01 4.069459e-01 2.050066e-01
    outer loop
      vertex   1.009806e+01 4.355978e+00 2.499202e+00
      vertex   1.006549e+01 4.458723e+00 2.436684e+00
      vertex   1.005348e+01 4.453484e+00 2.499202e+00
    endloop
  endfacet
  facet normal 8.860470e-01 4.158256e-01 2.049629e-01
    outer loop
      vertex   1.005348e+01 4.453484e+00 2.499202e+00
      vertex   1.006549e+01 4.458723e+00 2.436684e+00
      vertex   1.002025e+01 4.555117e+00 2.436684e+00
    endloop
  endfacet
  facet normal 8.911303e-01 4.073904e-01 1.997997e-01
    outer loop
      vertex   1.006549e+01 4.458723e+00 2.436684e+00
      vertex   1.011009e+01 4.361166e+00 2.436684e+00
      vertex   1.007717e+01 4.463820e+00 2.374193e+00
    endloop
  endfacet
  facet normal 8.870478e-01 4.055383e-01 2.206466e-01
    outer loop
      vertex   1.001553e+01 4.436905e+00 2.686896e+00
      vertex   1.006003e+01 4.339573e+00 2.686896e+00
      vertex   1.002851e+01 4.442575e+00 2.624311e+00
    endloop
  endfacet
  facet normal 8.870502e-01 4.055358e-01 2.206413e-01
    outer loop
      vertex   1.002851e+01 4.442575e+00 2.624311e+00
      vertex   1.006003e+01 4.339573e+00 2.686896e+00
      vertex   1.007303e+01 4.345182e+00 2.624311e+00
    endloop
  endfacet
  facet normal 8.897857e-01 4.175693e-01 1.841663e-01
    outer loop
      vertex   1.006473e+01 4.575338e+00 2.186919e+00
      vertex   1.005409e+01 4.570500e+00 2.249308e+00
      vertex   1.009957e+01 4.473586e+00 2.249308e+00
    endloop
  endfacet
  facet normal 8.888927e-01 4.171502e-01 1.893555e-01
    outer loop
      vertex   1.009957e+01 4.473586e+00 2.249308e+00
      vertex   1.005409e+01 4.570500e+00 2.249308e+00
      vertex   1.008853e+01 4.468774e+00 2.311733e+00
    endloop
  endfacet
  facet normal 8.888903e-01 4.171528e-01 1.893609e-01
    outer loop
      vertex   1.005409e+01 4.570500e+00 2.249308e+00
      vertex   1.004313e+01 4.565517e+00 2.311733e+00
      vertex   1.008853e+01 4.468774e+00 2.311733e+00
    endloop
  endfacet
  facet normal 8.870199e-01 4.162822e-01 1.997621e-01
    outer loop
      vertex   1.002025e+01 4.555117e+00 2.436684e+00
      vertex   1.006549e+01 4.458723e+00 2.436684e+00
      vertex   1.003185e+01 4.560390e+00 2.374193e+00
    endloop
  endfacet
  facet normal 8.870222e-01 4.162797e-01 1.997568e-01
    outer loop
      vertex   1.003185e+01 4.560390e+00 2.374193e+00
      vertex   1.006549e+01 4.458723e+00 2.436684e+00
      vertex   1.007717e+01 4.463820e+00 2.374193e+00
    endloop
  endfacet
  facet normal -8.954438e-01 -4.120241e-01 -1.685720e-01
    outer loop
      vertex   1.000000e+01 4.444846e+00 2.058873e+00
      vertex   1.000000e+01 4.468932e+00 2.000000e+00
      vertex   1.004912e+01 4.350695e+00 2.028075e+00
    endloop
  endfacet
  facet normal -8.953089e-01 -4.120962e-01 -1.691114e-01
    outer loop
      vertex   1.004912e+01 4.350695e+00 2.028075e+00
      vertex   1.000000e+01 4.468932e+00 2.000000e+00
      vertex   1.005352e+01 4.352648e+00 2.000000e+00
    endloop
  endfacet
  facet normal -9.002049e-01 -4.012819e-01 -1.691270e-01
    outer loop
      vertex   1.004912e+01 4.350695e+00 2.028075e+00
      vertex   1.005352e+01 4.352648e+00 2.000000e+00
      vertex   1.010564e+01 4.235724e+00 2.000000e+00
    endloop
  endfacet
  facet normal -9.002039e-01 -4.012777e-01 -1.691423e-01
    outer loop
      vertex   1.004912e+01 4.350695e+00 2.028075e+00
      vertex   1.010564e+01 4.235724e+00 2.000000e+00
      vertex   1.010121e+01 4.233832e+00 2.028075e+00
    endloop
  endfacet
  facet normal -9.049703e-01 -3.904010e-01 -1.691618e-01
    outer loop
      vertex   1.010121e+01 4.233832e+00 2.028075e+00
      vertex   1.010564e+01 4.235724e+00 2.000000e+00
      vertex   1.015636e+01 4.118170e+00 2.000000e+00
    endloop
  endfacet
  facet normal -9.049697e-01 -3.903983e-01 -1.691718e-01
    outer loop
      vertex   1.010121e+01 4.233832e+00 2.028075e+00
      vertex   1.015636e+01 4.118170e+00 2.000000e+00
      vertex   1.015190e+01 4.116343e+00 2.028075e+00
    endloop
  endfacet
  facet normal -9.096074e-01 -3.794560e-01 -1.691965e-01
    outer loop
      vertex   1.015190e+01 4.116343e+00 2.028075e+00
      vertex   1.015636e+01 4.118170e+00 2.000000e+00
      vertex   1.020565e+01 4.000000e+00 2.000000e+00
    endloop
  endfacet
  facet normal -9.094355e-01 -3.788060e-01 -1.715609e-01
    outer loop
      vertex   1.015190e+01 4.116343e+00 2.028075e+00
      vertex   1.020565e+01 4.000000e+00 2.000000e+00
      vertex   1.014737e+01 4.114490e+00 2.056159e+00
    endloop
  endfacet
  facet normal -9.094471e-01 -3.783530e-01 -1.724966e-01
    outer loop
      vertex   1.014737e+01 4.114490e+00 2.056159e+00
      vertex   1.020565e+01 4.000000e+00 2.000000e+00
      vertex   1.018410e+01 4.000000e+00 2.113632e+00
    endloop
  endfacet
  facet normal -9.089434e-01 -3.789087e-01 -1.739255e-01
    outer loop
      vertex   1.014737e+01 4.114490e+00 2.056159e+00
      vertex   1.018410e+01 4.000000e+00 2.113632e+00
      vertex   1.014278e+01 4.112609e+00 2.084253e+00
    endloop
  endfacet
  facet normal -9.083249e-01 -3.792988e-01 -1.762906e-01
    outer loop
      vertex   1.014278e+01 4.112609e+00 2.084253e+00
      vertex   1.018410e+01 4.000000e+00 2.113632e+00
      vertex   1.013812e+01 4.110702e+00 2.112355e+00
    endloop
  endfacet
  facet normal -9.038303e-01 -3.898993e-01 -1.762650e-01
    outer loop
      vertex   1.014278e+01 4.112609e+00 2.084253e+00
      vertex   1.013812e+01 4.110702e+00 2.112355e+00
      vertex   1.008752e+01 4.227992e+00 2.112355e+00
    endloop
  endfacet
  facet normal -9.034401e-01 -3.897310e-01 -1.786214e-01
    outer loop
      vertex   1.008752e+01 4.227992e+00 2.112355e+00
      vertex   1.013812e+01 4.110702e+00 2.112355e+00
      vertex   1.008283e+01 4.225990e+00 2.140466e+00
    endloop
  endfacet
  facet normal -8.986843e-01 -4.005852e-01 -1.786001e-01
    outer loop
      vertex   1.008752e+01 4.227992e+00 2.112355e+00
      vertex   1.008283e+01 4.225990e+00 2.140466e+00
      vertex   1.003085e+01 4.342599e+00 2.140466e+00
    endloop
  endfacet
  facet normal -8.982918e-01 -4.004102e-01 -1.809518e-01
    outer loop
      vertex   1.003085e+01 4.342599e+00 2.140466e+00
      vertex   1.008283e+01 4.225990e+00 2.140466e+00
      vertex   1.002612e+01 4.340504e+00 2.168585e+00
    endloop
  endfacet
  facet normal -8.946409e-01 -4.085072e-01 -1.809408e-01
    outer loop
      vertex   1.003085e+01 4.342599e+00 2.140466e+00
      vertex   1.002612e+01 4.340504e+00 2.168585e+00
      vertex   1.000000e+01 4.394548e+00 2.175726e+00
    endloop
  endfacet
  facet normal -8.943629e-01 -4.080599e-01 -1.833088e-01
    outer loop
      vertex   1.000000e+01 4.394548e+00 2.175726e+00
      vertex   1.002612e+01 4.340504e+00 2.168585e+00
      vertex   1.002133e+01 4.338381e+00 2.196712e+00
    endloop
  endfacet
  facet normal -8.939347e-01 -4.083961e-01 -1.846439e-01
    outer loop
      vertex   1.000000e+01 4.394548e+00 2.175726e+00
      vertex   1.002133e+01 4.338381e+00 2.196712e+00
      vertex   1.000000e+01 4.368340e+00 2.233693e+00
    endloop
  endfacet
  facet normal -8.942127e-01 -4.073170e-01 -1.856784e-01
    outer loop
      vertex   1.000000e+01 4.368340e+00 2.233693e+00
      vertex   1.002133e+01 4.338381e+00 2.196712e+00
      vertex   1.001646e+01 4.336229e+00 2.224848e+00
    endloop
  endfacet
  facet normal -8.940520e-01 -4.065816e-01 -1.880489e-01
    outer loop
      vertex   1.000000e+01 4.368340e+00 2.233693e+00
      vertex   1.001646e+01 4.336229e+00 2.224848e+00
      vertex   1.001154e+01 4.334049e+00 2.252990e+00
    endloop
  endfacet
  facet normal -8.970776e-01 -3.998576e-01 -1.880578e-01
    outer loop
      vertex   1.001154e+01 4.334049e+00 2.252990e+00
      vertex   1.001646e+01 4.336229e+00 2.224848e+00
      vertex   1.006835e+01 4.219819e+00 2.224848e+00
    endloop
  endfacet
  facet normal -8.970763e-01 -3.998533e-01 -1.880728e-01
    outer loop
      vertex   1.001154e+01 4.334049e+00 2.252990e+00
      vertex   1.006835e+01 4.219819e+00 2.224848e+00
      vertex   1.006339e+01 4.217707e+00 2.252990e+00
    endloop
  endfacet
  facet normal -9.018210e-01 -3.890228e-01 -1.880959e-01
    outer loop
      vertex   1.006339e+01 4.217707e+00 2.252990e+00
      vertex   1.006835e+01 4.219819e+00 2.224848e+00
      vertex   1.011883e+01 4.102805e+00 2.224848e+00
    endloop
  endfacet
  facet normal -9.018202e-01 -3.890200e-01 -1.881058e-01
    outer loop
      vertex   1.006339e+01 4.217707e+00 2.252990e+00
      vertex   1.011883e+01 4.102805e+00 2.224848e+00
      vertex   1.011384e+01 4.100764e+00 2.252990e+00
    endloop
  endfacet
  facet normal -9.061383e-01 -3.788395e-01 -1.881328e-01
    outer loop
      vertex   1.011384e+01 4.100764e+00 2.252990e+00
      vertex   1.011883e+01 4.102805e+00 2.224848e+00
      vertex   1.016136e+01 4.000000e+00 2.227022e+00
    endloop
  endfacet
  facet normal -9.059376e-01 -3.781336e-01 -1.905048e-01
    outer loop
      vertex   1.011384e+01 4.100764e+00 2.252990e+00
      vertex   1.016136e+01 4.000000e+00 2.227022e+00
      vertex   1.010878e+01 4.098695e+00 2.281140e+00
    endloop
  endfacet
  facet normal -9.059540e-01 -3.775228e-01 -1.916346e-01
    outer loop
      vertex   1.010878e+01 4.098695e+00 2.281140e+00
      vertex   1.016136e+01 4.000000e+00 2.227022e+00
      vertex   1.013743e+01 4.000000e+00 2.340160e+00
    endloop
  endfacet
  facet normal -9.049521e-01 -3.786839e-01 -1.940625e-01
    outer loop
      vertex   1.010878e+01 4.098695e+00 2.281140e+00
      vertex   1.013743e+01 4.000000e+00 2.340160e+00
      vertex   1.009847e+01 4.094477e+00 2.337461e+00
    endloop
  endfacet
  facet normal -9.040245e-01 -3.784370e-01 -1.988095e-01
    outer loop
      vertex   1.009847e+01 4.094477e+00 2.337461e+00
      vertex   1.013743e+01 4.000000e+00 2.340160e+00
      vertex   1.008789e+01 4.090151e+00 2.393807e+00
    endloop
  endfacet
  facet normal -8.998919e-01 -3.881759e-01 -1.987813e-01
    outer loop
      vertex   1.009847e+01 4.094477e+00 2.337461e+00
      vertex   1.008789e+01 4.090151e+00 2.393807e+00
      vertex   1.003760e+01 4.206728e+00 2.393807e+00
    endloop
  endfacet
  facet normal -8.989982e-01 -3.877904e-01 -2.035210e-01
    outer loop
      vertex   1.003760e+01 4.206728e+00 2.393807e+00
      vertex   1.008789e+01 4.090151e+00 2.393807e+00
      vertex   1.002682e+01 4.202141e+00 2.450177e+00
    endloop
  endfacet
  facet normal -8.951272e-01 -3.966540e-01 -2.035018e-01
    outer loop
      vertex   1.003760e+01 4.206728e+00 2.393807e+00
      vertex   1.002682e+01 4.202141e+00 2.450177e+00
      vertex   1.000000e+01 4.285503e+00 2.405663e+00
    endloop
  endfacet
  facet normal -8.953298e-01 -3.964525e-01 -2.030023e-01
    outer loop
      vertex   1.000000e+01 4.285503e+00 2.405663e+00
      vertex   1.002682e+01 4.202141e+00 2.450177e+00
      vertex   1.000000e+01 4.256493e+00 2.462318e+00
    endloop
  endfacet
  facet normal -8.947648e-01 -3.949998e-01 -2.082574e-01
    outer loop
      vertex   1.000000e+01 4.256493e+00 2.462318e+00
      vertex   1.002682e+01 4.202141e+00 2.450177e+00
      vertex   1.001577e+01 4.197442e+00 2.506568e+00
    endloop
  endfacet
  facet normal -8.946702e-01 -3.951151e-01 -2.084451e-01
    outer loop
      vertex   1.000000e+01 4.256493e+00 2.462318e+00
      vertex   1.001577e+01 4.197442e+00 2.506568e+00
      vertex   1.000000e+01 4.226787e+00 2.518627e+00
    endloop
  endfacet
  facet normal -8.944687e-01 -3.931283e-01 -2.130162e-01
    outer loop
      vertex   1.000000e+01 4.226787e+00 2.518627e+00
      vertex   1.001577e+01 4.197442e+00 2.506568e+00
      vertex   1.000445e+01 4.192631e+00 2.562979e+00
    endloop
  endfacet
  facet normal -8.932200e-01 -3.950778e-01 -2.146428e-01
    outer loop
      vertex   1.000000e+01 4.226787e+00 2.518627e+00
      vertex   1.000445e+01 4.192631e+00 2.562979e+00
      vertex   1.000000e+01 4.196396e+00 2.574566e+00
    endloop
  endfacet
  facet normal -8.960321e-01 -3.864963e-01 -2.185108e-01
    outer loop
      vertex   1.000000e+01 4.196396e+00 2.574566e+00
      vertex   1.000445e+01 4.192631e+00 2.562979e+00
      vertex   1.005453e+01 4.076517e+00 2.562979e+00
    endloop
  endfacet
  facet normal -8.963930e-01 -3.868682e-01 -2.163620e-01
    outer loop
      vertex   1.000000e+01 4.196396e+00 2.574566e+00
      vertex   1.005453e+01 4.076517e+00 2.562979e+00
      vertex   1.000000e+01 4.165330e+00 2.630113e+00
    endloop
  endfacet
  facet normal -8.966399e-01 -3.841283e-01 -2.201872e-01
    outer loop
      vertex   1.000000e+01 4.165330e+00 2.630113e+00
      vertex   1.005453e+01 4.076517e+00 2.562979e+00
      vertex   1.003095e+01 4.066880e+00 2.675848e+00
    endloop
  endfacet
  facet normal -8.962141e-01 -3.844984e-01 -2.212719e-01
    outer loop
      vertex   1.000000e+01 4.165330e+00 2.630113e+00
      vertex   1.003095e+01 4.066880e+00 2.675848e+00
      vertex   1.000000e+01 4.133594e+00 2.685261e+00
    endloop
  endfacet
  facet normal -8.953248e-01 -3.832929e-01 -2.268919e-01
    outer loop
      vertex   1.000000e+01 4.133594e+00 2.685261e+00
      vertex   1.003095e+01 4.066880e+00 2.675848e+00
      vertex   1.000000e+01 4.101189e+00 2.740002e+00
    endloop
  endfacet
  facet normal -8.964326e-01 -3.789909e-01 -2.297270e-01
    outer loop
      vertex   1.000000e+01 4.101189e+00 2.740002e+00
      vertex   1.003095e+01 4.066880e+00 2.675848e+00
      vertex   1.000627e+01 4.056802e+00 2.788767e+00
    endloop
  endfacet
  facet normal -8.947460e-01 -3.814642e-01 -2.321952e-01
    outer loop
      vertex   1.000000e+01 4.101189e+00 2.740002e+00
      vertex   1.000627e+01 4.056802e+00 2.788767e+00
      vertex   1.000000e+01 4.068120e+00 2.794331e+00
    endloop
  endfacet
  facet normal -8.942992e-01 -3.764403e-01 -2.419126e-01
    outer loop
      vertex   1.000000e+01 4.068120e+00 2.794331e+00
      vertex   1.000627e+01 4.056802e+00 2.788767e+00
      vertex   1.002985e+01 4.000000e+00 2.789991e+00
    endloop
  endfacet
  facet normal -8.954782e-01 -3.773273e-01 -2.360994e-01
    outer loop
      vertex   1.000000e+01 4.068120e+00 2.794331e+00
      vertex   1.002985e+01 4.000000e+00 2.789991e+00
      vertex   1.000000e+01 4.034389e+00 2.848238e+00
    endloop
  endfacet
  facet normal -8.965919e-01 -3.724931e-01 -2.395242e-01
    outer loop
      vertex   1.000000e+01 4.034389e+00 2.848238e+00
      vertex   1.002985e+01 4.000000e+00 2.789991e+00
      vertex   1.000000e+01 4.000000e+00 2.901718e+00
    endloop
  endfacet
  facet normal -9.077447e-01 -3.779546e-01 -1.820711e-01
    outer loop
      vertex   1.016136e+01 4.000000e+00 2.227022e+00
      vertex   1.012861e+01 4.106808e+00 2.168585e+00
      vertex   1.018410e+01 4.000000e+00 2.113632e+00
    endloop
  endfacet
  facet normal -9.077323e-01 -3.784861e-01 -1.810257e-01
    outer loop
      vertex   1.018410e+01 4.000000e+00 2.113632e+00
      vertex   1.012861e+01 4.106808e+00 2.168585e+00
      vertex   1.013340e+01 4.108768e+00 2.140466e+00
    endloop
  endfacet
  facet normal -9.079210e-01 -3.791583e-01 -1.786573e-01
    outer loop
      vertex   1.018410e+01 4.000000e+00 2.113632e+00
      vertex   1.013340e+01 4.108768e+00 2.140466e+00
      vertex   1.013812e+01 4.110702e+00 2.112355e+00
    endloop
  endfacet
  facet normal -9.034394e-01 -3.897283e-01 -1.786314e-01
    outer loop
      vertex   1.013812e+01 4.110702e+00 2.112355e+00
      vertex   1.013340e+01 4.108768e+00 2.140466e+00
      vertex   1.008283e+01 4.225990e+00 2.140466e+00
    endloop
  endfacet
  facet normal -9.040775e-01 -3.770510e-01 -2.011875e-01
    outer loop
      vertex   1.013743e+01 4.000000e+00 2.340160e+00
      vertex   1.011231e+01 4.000000e+00 2.453036e+00
      vertex   1.008789e+01 4.090151e+00 2.393807e+00
    endloop
  endfacet
  facet normal -9.030153e-01 -3.783214e-01 -2.035592e-01
    outer loop
      vertex   1.008789e+01 4.090151e+00 2.393807e+00
      vertex   1.011231e+01 4.000000e+00 2.453036e+00
      vertex   1.007704e+01 4.085715e+00 2.450177e+00
    endloop
  endfacet
  facet normal -8.989981e-01 -3.877855e-01 -2.035307e-01
    outer loop
      vertex   1.008789e+01 4.090151e+00 2.393807e+00
      vertex   1.007704e+01 4.085715e+00 2.450177e+00
      vertex   1.002682e+01 4.202141e+00 2.450177e+00
    endloop
  endfacet
  facet normal -8.980819e-01 -3.873902e-01 -2.082733e-01
    outer loop
      vertex   1.002682e+01 4.202141e+00 2.450177e+00
      vertex   1.007704e+01 4.085715e+00 2.450177e+00
      vertex   1.001577e+01 4.197442e+00 2.506568e+00
    endloop
  endfacet
  facet normal -9.020336e-01 -3.780761e-01 -2.083119e-01
    outer loop
      vertex   1.007704e+01 4.085715e+00 2.450177e+00
      vertex   1.011231e+01 4.000000e+00 2.453036e+00
      vertex   1.006592e+01 4.081171e+00 2.506568e+00
    endloop
  endfacet
  facet normal -9.021187e-01 -3.765297e-01 -2.107304e-01
    outer loop
      vertex   1.006592e+01 4.081171e+00 2.506568e+00
      vertex   1.011231e+01 4.000000e+00 2.453036e+00
      vertex   1.008600e+01 4.000000e+00 2.565639e+00
    endloop
  endfacet
  facet normal -9.009762e-01 -3.779475e-01 -2.130671e-01
    outer loop
      vertex   1.006592e+01 4.081171e+00 2.506568e+00
      vertex   1.008600e+01 4.000000e+00 2.565639e+00
      vertex   1.005453e+01 4.076517e+00 2.562979e+00
    endloop
  endfacet
  facet normal -8.994219e-01 -3.775566e-01 -2.202075e-01
    outer loop
      vertex   1.005453e+01 4.076517e+00 2.562979e+00
      vertex   1.008600e+01 4.000000e+00 2.565639e+00
      vertex   1.003095e+01 4.066880e+00 2.675848e+00
    endloop
  endfacet
  facet normal -8.993840e-01 -3.777131e-01 -2.200936e-01
    outer loop
      vertex   1.008600e+01 4.000000e+00 2.565639e+00
      vertex   1.005852e+01 4.000000e+00 2.677961e+00
      vertex   1.003095e+01 4.066880e+00 2.675848e+00
    endloop
  endfacet
  facet normal -8.972180e-01 -3.771247e-01 -2.297321e-01
    outer loop
      vertex   1.003095e+01 4.066880e+00 2.675848e+00
      vertex   1.005852e+01 4.000000e+00 2.677961e+00
      vertex   1.000627e+01 4.056802e+00 2.788767e+00
    endloop
  endfacet
  facet normal -8.971570e-01 -3.773611e-01 -2.295821e-01
    outer loop
      vertex   1.005852e+01 4.000000e+00 2.677961e+00
      vertex   1.002985e+01 4.000000e+00 2.789991e+00
      vertex   1.000627e+01 4.056802e+00 2.788767e+00
    endloop
  endfacet
  facet normal -8.958853e-01 -3.978954e-01 -1.976581e-01
    outer loop
      vertex   1.000000e+01 4.285503e+00 2.405663e+00
      vertex   1.000000e+01 4.313816e+00 2.348668e+00
      vertex   1.003760e+01 4.206728e+00 2.393807e+00
    endloop
  endfacet
  facet normal -8.954997e-01 -3.982199e-01 -1.987492e-01
    outer loop
      vertex   1.003760e+01 4.206728e+00 2.393807e+00
      vertex   1.000000e+01 4.313816e+00 2.348668e+00
      vertex   1.004812e+01 4.211203e+00 2.337461e+00
    endloop
  endfacet
  facet normal -8.998920e-01 -3.881808e-01 -1.987715e-01
    outer loop
      vertex   1.003760e+01 4.206728e+00 2.393807e+00
      vertex   1.004812e+01 4.211203e+00 2.337461e+00
      vertex   1.009847e+01 4.094477e+00 2.337461e+00
    endloop
  endfacet
  facet normal -9.007631e-01 -3.885566e-01 -1.940349e-01
    outer loop
      vertex   1.009847e+01 4.094477e+00 2.337461e+00
      vertex   1.004812e+01 4.211203e+00 2.337461e+00
      vertex   1.010878e+01 4.098695e+00 2.281140e+00
    endloop
  endfacet
  facet normal -8.963972e-01 -3.993393e-01 -1.923542e-01
    outer loop
      vertex   1.000000e+01 4.313816e+00 2.348668e+00
      vertex   1.000000e+01 4.341429e+00 2.291343e+00
      vertex   1.004812e+01 4.211203e+00 2.337461e+00
    endloop
  endfacet
  facet normal -8.958696e-01 -3.997271e-01 -1.939997e-01
    outer loop
      vertex   1.004812e+01 4.211203e+00 2.337461e+00
      vertex   1.000000e+01 4.341429e+00 2.291343e+00
      vertex   1.005837e+01 4.215567e+00 2.281140e+00
    endloop
  endfacet
  facet normal -9.007631e-01 -3.885615e-01 -1.940251e-01
    outer loop
      vertex   1.004812e+01 4.211203e+00 2.337461e+00
      vertex   1.005837e+01 4.215567e+00 2.281140e+00
      vertex   1.010878e+01 4.098695e+00 2.281140e+00
    endloop
  endfacet
  facet normal -9.014015e-01 -3.888369e-01 -1.904765e-01
    outer loop
      vertex   1.010878e+01 4.098695e+00 2.281140e+00
      vertex   1.005837e+01 4.215567e+00 2.281140e+00
      vertex   1.011384e+01 4.100764e+00 2.252990e+00
    endloop
  endfacet
  facet normal -8.951169e-01 -3.989762e-01 -1.989564e-01
    outer loop
      vertex   1.005837e+01 4.215567e+00 2.281140e+00
      vertex   1.000000e+01 4.341429e+00 2.291343e+00
      vertex   1.000654e+01 4.331841e+00 2.281140e+00
    endloop
  endfacet
  facet normal -8.933383e-01 -4.072035e-01 -1.900844e-01
    outer loop
      vertex   1.000654e+01 4.331841e+00 2.281140e+00
      vertex   1.000000e+01 4.341429e+00 2.291343e+00
      vertex   1.000000e+01 4.368340e+00 2.233693e+00
    endloop
  endfacet
  facet normal -8.930910e-01 -4.075906e-01 -1.904162e-01
    outer loop
      vertex   1.000654e+01 4.331841e+00 2.281140e+00
      vertex   1.000000e+01 4.368340e+00 2.233693e+00
      vertex   1.001154e+01 4.334049e+00 2.252990e+00
    endloop
  endfacet
  facet normal -8.944949e-01 -4.095763e-01 -1.792379e-01
    outer loop
      vertex   1.000000e+01 4.394548e+00 2.175726e+00
      vertex   1.000000e+01 4.420050e+00 2.117450e+00
      vertex   1.003085e+01 4.342599e+00 2.140466e+00
    endloop
  endfacet
  facet normal -8.946840e-01 -4.094538e-01 -1.785725e-01
    outer loop
      vertex   1.003085e+01 4.342599e+00 2.140466e+00
      vertex   1.000000e+01 4.420050e+00 2.117450e+00
      vertex   1.003552e+01 4.344665e+00 2.112355e+00
    endloop
  endfacet
  facet normal -8.986854e-01 -4.005895e-01 -1.785849e-01
    outer loop
      vertex   1.003085e+01 4.342599e+00 2.140466e+00
      vertex   1.003552e+01 4.344665e+00 2.112355e+00
      vertex   1.008752e+01 4.227992e+00 2.112355e+00
    endloop
  endfacet
  facet normal -8.990725e-01 -4.007620e-01 -1.762342e-01
    outer loop
      vertex   1.008752e+01 4.227992e+00 2.112355e+00
      vertex   1.003552e+01 4.344665e+00 2.112355e+00
      vertex   1.009215e+01 4.229966e+00 2.084253e+00
    endloop
  endfacet
  facet normal -9.038310e-01 -3.899021e-01 -1.762551e-01
    outer loop
      vertex   1.008752e+01 4.227992e+00 2.112355e+00
      vertex   1.009215e+01 4.229966e+00 2.084253e+00
      vertex   1.014278e+01 4.112609e+00 2.084253e+00
    endloop
  endfacet
  facet normal -9.042156e-01 -3.900680e-01 -1.738996e-01
    outer loop
      vertex   1.014278e+01 4.112609e+00 2.084253e+00
      vertex   1.009215e+01 4.229966e+00 2.084253e+00
      vertex   1.014737e+01 4.114490e+00 2.056159e+00
    endloop
  endfacet
  facet normal -8.950096e-01 -4.097672e-01 -1.762066e-01
    outer loop
      vertex   1.003552e+01 4.344665e+00 2.112355e+00
      vertex   1.000000e+01 4.420050e+00 2.117450e+00
      vertex   1.004012e+01 4.346703e+00 2.084253e+00
    endloop
  endfacet
  facet normal -8.949875e-01 -4.108038e-01 -1.738897e-01
    outer loop
      vertex   1.004012e+01 4.346703e+00 2.084253e+00
      vertex   1.000000e+01 4.420050e+00 2.117450e+00
      vertex   1.000000e+01 4.444846e+00 2.058873e+00
    endloop
  endfacet
  facet normal -8.950006e-01 -4.107963e-01 -1.738400e-01
    outer loop
      vertex   1.004012e+01 4.346703e+00 2.084253e+00
      vertex   1.000000e+01 4.444846e+00 2.058873e+00
      vertex   1.004465e+01 4.348713e+00 2.056159e+00
    endloop
  endfacet
  facet normal -8.953511e-01 -4.110258e-01 -1.714762e-01
    outer loop
      vertex   1.004465e+01 4.348713e+00 2.056159e+00
      vertex   1.000000e+01 4.444846e+00 2.058873e+00
      vertex   1.004912e+01 4.350695e+00 2.028075e+00
    endloop
  endfacet
  facet normal -8.998333e-01 -4.011125e-01 -1.714900e-01
    outer loop
      vertex   1.004465e+01 4.348713e+00 2.056159e+00
      vertex   1.004912e+01 4.350695e+00 2.028075e+00
      vertex   1.010121e+01 4.233832e+00 2.028075e+00
    endloop
  endfacet
  facet normal -8.971426e-01 -3.869753e-01 -2.130380e-01
    outer loop
      vertex   1.006592e+01 4.081171e+00 2.506568e+00
      vertex   1.005453e+01 4.076517e+00 2.562979e+00
      vertex   1.000445e+01 4.192631e+00 2.562979e+00
    endloop
  endfacet
  facet normal -8.990736e-01 -4.007662e-01 -1.762190e-01
    outer loop
      vertex   1.009215e+01 4.229966e+00 2.084253e+00
      vertex   1.003552e+01 4.344665e+00 2.112355e+00
      vertex   1.004012e+01 4.346703e+00 2.084253e+00
    endloop
  endfacet
  facet normal -8.994562e-01 -4.009406e-01 -1.738540e-01
    outer loop
      vertex   1.004012e+01 4.346703e+00 2.084253e+00
      vertex   1.004465e+01 4.348713e+00 2.056159e+00
      vertex   1.009672e+01 4.231913e+00 2.056159e+00
    endloop
  endfacet
  facet normal -8.998323e-01 -4.011082e-01 -1.715053e-01
    outer loop
      vertex   1.009672e+01 4.231913e+00 2.056159e+00
      vertex   1.004465e+01 4.348713e+00 2.056159e+00
      vertex   1.010121e+01 4.233832e+00 2.028075e+00
    endloop
  endfacet
  facet normal -9.045961e-01 -3.902371e-01 -1.715252e-01
    outer loop
      vertex   1.009672e+01 4.231913e+00 2.056159e+00
      vertex   1.010121e+01 4.233832e+00 2.028075e+00
      vertex   1.015190e+01 4.116343e+00 2.028075e+00
    endloop
  endfacet
  facet normal -8.978926e-01 -4.002285e-01 -1.833196e-01
    outer loop
      vertex   1.002133e+01 4.338381e+00 2.196712e+00
      vertex   1.002612e+01 4.340504e+00 2.168585e+00
      vertex   1.007807e+01 4.223961e+00 2.168585e+00
    endloop
  endfacet
  facet normal -8.982906e-01 -4.004059e-01 -1.809670e-01
    outer loop
      vertex   1.007807e+01 4.223961e+00 2.168585e+00
      vertex   1.002612e+01 4.340504e+00 2.168585e+00
      vertex   1.008283e+01 4.225990e+00 2.140466e+00
    endloop
  endfacet
  facet normal -9.030437e-01 -3.895576e-01 -1.809887e-01
    outer loop
      vertex   1.007807e+01 4.223961e+00 2.168585e+00
      vertex   1.008283e+01 4.225990e+00 2.140466e+00
      vertex   1.013340e+01 4.108768e+00 2.140466e+00
    endloop
  endfacet
  facet normal -8.974878e-01 -4.000443e-01 -1.856882e-01
    outer loop
      vertex   1.001646e+01 4.336229e+00 2.224848e+00
      vertex   1.002133e+01 4.338381e+00 2.196712e+00
      vertex   1.007324e+01 4.221904e+00 2.196712e+00
    endloop
  endfacet
  facet normal -8.978914e-01 -4.002242e-01 -1.833347e-01
    outer loop
      vertex   1.007324e+01 4.221904e+00 2.196712e+00
      vertex   1.002133e+01 4.338381e+00 2.196712e+00
      vertex   1.007807e+01 4.223961e+00 2.168585e+00
    endloop
  endfacet
  facet normal -9.026417e-01 -3.893817e-01 -1.833569e-01
    outer loop
      vertex   1.007324e+01 4.221904e+00 2.196712e+00
      vertex   1.007807e+01 4.223961e+00 2.168585e+00
      vertex   1.012861e+01 4.106808e+00 2.168585e+00
    endloop
  endfacet
  facet normal -9.030429e-01 -3.895548e-01 -1.809986e-01
    outer loop
      vertex   1.012861e+01 4.106808e+00 2.168585e+00
      vertex   1.007807e+01 4.223961e+00 2.168585e+00
      vertex   1.013340e+01 4.108768e+00 2.140466e+00
    endloop
  endfacet
  facet normal -8.966604e-01 -3.996642e-01 -1.904432e-01
    outer loop
      vertex   1.005837e+01 4.215567e+00 2.281140e+00
      vertex   1.000654e+01 4.331841e+00 2.281140e+00
      vertex   1.006339e+01 4.217707e+00 2.252990e+00
    endloop
  endfacet
  facet normal -8.966617e-01 -3.996685e-01 -1.904282e-01
    outer loop
      vertex   1.006339e+01 4.217707e+00 2.252990e+00
      vertex   1.000654e+01 4.331841e+00 2.281140e+00
      vertex   1.001154e+01 4.334049e+00 2.252990e+00
    endloop
  endfacet
  facet normal -9.042163e-01 -3.900708e-01 -1.738897e-01
    outer loop
      vertex   1.014737e+01 4.114490e+00 2.056159e+00
      vertex   1.009215e+01 4.229966e+00 2.084253e+00
      vertex   1.009672e+01 4.231913e+00 2.056159e+00
    endloop
  endfacet
  facet normal -8.994551e-01 -4.009363e-01 -1.738693e-01
    outer loop
      vertex   1.009672e+01 4.231913e+00 2.056159e+00
      vertex   1.009215e+01 4.229966e+00 2.084253e+00
      vertex   1.004012e+01 4.346703e+00 2.084253e+00
    endloop
  endfacet
  facet normal -9.045954e-01 -3.902343e-01 -1.715352e-01
    outer loop
      vertex   1.014737e+01 4.114490e+00 2.056159e+00
      vertex   1.009672e+01 4.231913e+00 2.056159e+00
      vertex   1.015190e+01 4.116343e+00 2.028075e+00
    endloop
  endfacet
  facet normal -8.974866e-01 -4.000400e-01 -1.857033e-01
    outer loop
      vertex   1.001646e+01 4.336229e+00 2.224848e+00
      vertex   1.007324e+01 4.221904e+00 2.196712e+00
      vertex   1.006835e+01 4.219819e+00 2.224848e+00
    endloop
  endfacet
  facet normal -9.022342e-01 -3.892035e-01 -1.857260e-01
    outer loop
      vertex   1.006835e+01 4.219819e+00 2.224848e+00
      vertex   1.007324e+01 4.221904e+00 2.196712e+00
      vertex   1.012375e+01 4.104820e+00 2.196712e+00
    endloop
  endfacet
  facet normal -9.022334e-01 -3.892006e-01 -1.857358e-01
    outer loop
      vertex   1.006835e+01 4.219819e+00 2.224848e+00
      vertex   1.012375e+01 4.104820e+00 2.196712e+00
      vertex   1.011883e+01 4.102805e+00 2.224848e+00
    endloop
  endfacet
  facet normal -9.065730e-01 -3.789692e-01 -1.857626e-01
    outer loop
      vertex   1.011883e+01 4.102805e+00 2.224848e+00
      vertex   1.012375e+01 4.104820e+00 2.196712e+00
      vertex   1.016136e+01 4.000000e+00 2.227022e+00
    endloop
  endfacet
  facet normal -9.026409e-01 -3.893789e-01 -1.833668e-01
    outer loop
      vertex   1.012375e+01 4.104820e+00 2.196712e+00
      vertex   1.007324e+01 4.221904e+00 2.196712e+00
      vertex   1.012861e+01 4.106808e+00 2.168585e+00
    endloop
  endfacet
  facet normal -9.014023e-01 -3.888397e-01 -1.904667e-01
    outer loop
      vertex   1.011384e+01 4.100764e+00 2.252990e+00
      vertex   1.005837e+01 4.215567e+00 2.281140e+00
      vertex   1.006339e+01 4.217707e+00 2.252990e+00
    endloop
  endfacet
  facet normal -8.971428e-01 -3.869803e-01 -2.130284e-01
    outer loop
      vertex   1.006592e+01 4.081171e+00 2.506568e+00
      vertex   1.000445e+01 4.192631e+00 2.562979e+00
      vertex   1.001577e+01 4.197442e+00 2.506568e+00
    endloop
  endfacet
  facet normal -8.980817e-01 -3.873853e-01 -2.082830e-01
    outer loop
      vertex   1.006592e+01 4.081171e+00 2.506568e+00
      vertex   1.001577e+01 4.197442e+00 2.506568e+00
      vertex   1.007704e+01 4.085715e+00 2.450177e+00
    endloop
  endfacet
  facet normal -9.072410e-01 -3.785240e-01 -1.833940e-01
    outer loop
      vertex   1.016136e+01 4.000000e+00 2.227022e+00
      vertex   1.012375e+01 4.104820e+00 2.196712e+00
      vertex   1.012861e+01 4.106808e+00 2.168585e+00
    endloop
  endfacet
  facet normal -1.000000e+00 5.111299e-15 3.172172e-15
    outer loop
      vertex   1.000000e+01 4.324193e+00 2.940659e+00
      vertex   1.000000e+01 4.101189e+00 2.740002e+00
      vertex   1.000000e+01 4.287365e+00 3.000000e+00
    endloop
  endfacet
  facet normal -1.000000e+00 -1.952397e-14 2.081269e-14
    outer loop
      vertex   1.000000e+01 4.287365e+00 3.000000e+00
      vertex   1.000000e+01 4.101189e+00 2.740002e+00
      vertex   1.000000e+01 4.068120e+00 2.794331e+00
    endloop
  endfacet
  facet normal -1.000000e+00 0.000000e+00 0.000000e+00
    outer loop
      vertex   1.000000e+01 4.287365e+00 3.000000e+00
      vertex   1.000000e+01 4.068120e+00 2.794331e+00
      vertex   1.000000e+01 4.034389e+00 2.848238e+00
    endloop
  endfacet
  facet normal -1.000000e+00 5.197317e-15 3.076575e-15
    outer loop
      vertex   1.000000e+01 4.101189e+00 2.740002e+00
      vertex   1.000000e+01 4.324193e+00 2.940659e+00
      vertex   1.000000e+01 4.133594e+00 2.685261e+00
    endloop
  endfacet
  facet normal -1.000000e+00 5.154517e-15 3.108516e-15
    outer loop
      vertex   1.000000e+01 4.133594e+00 2.685261e+00
      vertex   1.000000e+01 4.324193e+00 2.940659e+00
      vertex   1.000000e+01 4.360263e+00 2.880848e+00
    endloop
  endfacet
  facet normal -1.000000e+00 5.236495e-15 3.013509e-15
    outer loop
      vertex   1.000000e+01 4.133594e+00 2.685261e+00
      vertex   1.000000e+01 4.360263e+00 2.880848e+00
      vertex   1.000000e+01 4.165330e+00 2.630113e+00
    endloop
  endfacet
  facet normal -1.000000e+00 5.196817e-15 3.044357e-15
    outer loop
      vertex   1.000000e+01 4.165330e+00 2.630113e+00
      vertex   1.000000e+01 4.360263e+00 2.880848e+00
      vertex   1.000000e+01 4.395571e+00 2.820576e+00
    endloop
  endfacet
  facet normal -1.000000e+00 5.274842e-15 2.950036e-15
    outer loop
      vertex   1.000000e+01 4.165330e+00 2.630113e+00
      vertex   1.000000e+01 4.395571e+00 2.820576e+00
      vertex   1.000000e+01 4.196396e+00 2.574566e+00
    endloop
  endfacet
  facet normal -1.000000e+00 5.238196e-15 2.979705e-15
    outer loop
      vertex   1.000000e+01 4.196396e+00 2.574566e+00
      vertex   1.000000e+01 4.395571e+00 2.820576e+00
      vertex   1.000000e+01 4.430114e+00 2.759851e+00
    endloop
  endfacet
  facet normal -1.000000e+00 5.312354e-15 2.886162e-15
    outer loop
      vertex   1.000000e+01 4.196396e+00 2.574566e+00
      vertex   1.000000e+01 4.430114e+00 2.759851e+00
      vertex   1.000000e+01 4.226787e+00 2.518627e+00
    endloop
  endfacet
  facet normal -1.000000e+00 5.278651e-15 2.914571e-15
    outer loop
      vertex   1.000000e+01 4.226787e+00 2.518627e+00
      vertex   1.000000e+01 4.430114e+00 2.759851e+00
      vertex   1.000000e+01 4.463888e+00 2.698683e+00
    endloop
  endfacet
  facet normal -1.000000e+00 5.349022e-15 2.821905e-15
    outer loop
      vertex   1.000000e+01 4.226787e+00 2.518627e+00
      vertex   1.000000e+01 4.463888e+00 2.698683e+00
      vertex   1.000000e+01 4.256493e+00 2.462318e+00
    endloop
  endfacet
  facet normal -1.000000e+00 5.318183e-15 2.848964e-15
    outer loop
      vertex   1.000000e+01 4.256493e+00 2.462318e+00
      vertex   1.000000e+01 4.463888e+00 2.698683e+00
      vertex   1.000000e+01 4.496889e+00 2.637079e+00
    endloop
  endfacet
  facet normal -1.000000e+00 5.384830e-15 2.757286e-15
    outer loop
      vertex   1.000000e+01 4.256493e+00 2.462318e+00
      vertex   1.000000e+01 4.496889e+00 2.637079e+00
      vertex   1.000000e+01 4.285503e+00 2.405663e+00
    endloop
  endfacet
  facet normal -1.000000e+00 5.356792e-15 2.782898e-15
    outer loop
      vertex   1.000000e+01 4.285503e+00 2.405663e+00
      vertex   1.000000e+01 4.496889e+00 2.637079e+00
      vertex   1.000000e+01 4.529115e+00 2.575048e+00
    endloop
  endfacet
  facet normal -1.000000e+00 5.419772e-15 2.692320e-15
    outer loop
      vertex   1.000000e+01 4.285503e+00 2.405663e+00
      vertex   1.000000e+01 4.529115e+00 2.575048e+00
      vertex   1.000000e+01 4.313816e+00 2.348668e+00
    endloop
  endfacet
  facet normal -1.000000e+00 5.394473e-15 2.716380e-15
    outer loop
      vertex   1.000000e+01 4.313816e+00 2.348668e+00
      vertex   1.000000e+01 4.529115e+00 2.575048e+00
      vertex   1.000000e+01 4.560561e+00 2.512598e+00
    endloop
  endfacet
  facet normal -1.000000e+00 5.453845e-15 2.627014e-15
    outer loop
      vertex   1.000000e+01 4.313816e+00 2.348668e+00
      vertex   1.000000e+01 4.560561e+00 2.512598e+00
      vertex   1.000000e+01 4.341429e+00 2.291343e+00
    endloop
  endfacet
  facet normal -1.000000e+00 5.431215e-15 2.649427e-15
    outer loop
      vertex   1.000000e+01 4.341429e+00 2.291343e+00
      vertex   1.000000e+01 4.560561e+00 2.512598e+00
      vertex   1.000000e+01 4.591218e+00 2.449753e+00
    endloop
  endfacet
  facet normal -1.000000e+00 2.056443e-14 -2.121334e-14
    outer loop
      vertex   1.000000e+01 4.341429e+00 2.291343e+00
      vertex   1.000000e+01 4.591218e+00 2.449753e+00
      vertex   1.000000e+01 4.368340e+00 2.233693e+00
    endloop
  endfacet
  facet normal -1.000000e+00 0.000000e+00 0.000000e+00
    outer loop
      vertex   1.000000e+01 4.368340e+00 2.233693e+00
      vertex   1.000000e+01 4.591218e+00 2.449753e+00
      vertex   1.000000e+01 4.621074e+00 2.386539e+00
    endloop
  endfacet
  facet normal -1.000000e+00 0.000000e+00 0.000000e+00
    outer loop
      vertex   1.000000e+01 4.368340e+00 2.233693e+00
      vertex   1.000000e+01 4.621074e+00 2.386539e+00
      vertex   1.000000e+01 4.394548e+00 2.175726e+00
    endloop
  endfacet
  facet normal -1.000000e+00 0.000000e+00 0.000000e+00
    outer loop
      vertex   1.000000e+01 4.394548e+00 2.175726e+00
      vertex   1.000000e+01 4.621074e+00 2.386539e+00
      vertex   1.000000e+01 4.650127e+00 2.322966e+00
    endloop
  endfacet
  facet normal -1.000000e+00 0.000000e+00 0.000000e+00
    outer loop
      vertex   1.000000e+01 4.394548e+00 2.175726e+00
      vertex   1.000000e+01 4.650127e+00 2.322966e+00
      vertex   1.000000e+01 4.420050e+00 2.117450e+00
    endloop
  endfacet
  facet normal -1.000000e+00 0.000000e+00 0.000000e+00
    outer loop
      vertex   1.000000e+01 4.420050e+00 2.117450e+00
      vertex   1.000000e+01 4.650127e+00 2.322966e+00
      vertex   1.000000e+01 4.678375e+00 2.259040e+00
    endloop
  endfacet
  facet normal -1.000000e+00 0.000000e+00 0.000000e+00
    outer loop
      vertex   1.000000e+01 4.420050e+00 2.117450e+00
      vertex   1.000000e+01 4.678375e+00 2.259040e+00
      vertex   1.000000e+01 4.444846e+00 2.058873e+00
    endloop
  endfacet
  facet normal -1.000000e+00 0.000000e+00 0.000000e+00
    outer loop
      vertex   1.000000e+01 4.444846e+00 2.058873e+00
      vertex   1.000000e+01 4.678375e+00 2.259040e+00
      vertex   1.000000e+01 4.705816e+00 2.194773e+00
    endloop
  endfacet
  facet normal -1.000000e+00 0.000000e+00 0.000000e+00
    outer loop
      vertex   1.000000e+01 4.444846e+00 2.058873e+00
      vertex   1.000000e+01 4.705816e+00 2.194773e+00
      vertex   1.000000e+01 4.468932e+00 2.000000e+00
    endloop
  endfacet
  facet normal -1.000000e+00 0.000000e+00 0.000000e+00
    outer loop
      vertex   1.000000e+01 4.468932e+00 2.000000e+00
      vertex   1.000000e+01 4.705816e+00 2.194773e+00
      vertex   1.000000e+01 4.732448e+00 2.130171e+00
    endloop
  endfacet
  facet normal -1.000000e+00 0.000000e+00 0.000000e+00
    outer loop
      vertex   1.000000e+01 4.468932e+00 2.000000e+00
      vertex   1.000000e+01 4.732448e+00 2.130171e+00
      vertex   1.000000e+01 4.758269e+00 2.065244e+00
    endloop
  endfacet
  facet normal -1.000000e+00 0.000000e+00 -0.000000e+00
    outer loop
      vertex   1.000000e+01 4.758269e+00 2.065244e+00
      vertex   1.000000e+01 4.783277e+00 2.000000e+00
      vertex   1.000000e+01 4.468932e+00 2.000000e+00
    endloop
  endfacet
  facet normal -1.000000e+00 0.000000e+00 0.000000e+00
    outer loop
      vertex   1.000000e+01 4.000000e+00 2.901718e+00
      vertex   1.000000e+01 4.000000e+00 3.000000e+00
      vertex   1.000000e+01 4.034389e+00 2.848238e+00
    endloop
  endfacet
  facet normal -1.000000e+00 0.000000e+00 0.000000e+00
    outer loop
      vertex   1.000000e+01 4.034389e+00 2.848238e+00
      vertex   1.000000e+01 4.000000e+00 3.000000e+00
      vertex   1.000000e+01 4.287365e+00 3.000000e+00
    endloop
  endfacet
  facet normal 0.000000e+00 0.000000e+00 -1.000000e+00
    outer loop
      vertex   1.000000e+01 4.783277e+00 2.000000e+00
      vertex   1.004759e+01 4.686946e+00 2.000000e+00
      vertex   1.000000e+01 4.468932e+00 2.000000e+00
    endloop
  endfacet
  facet normal 0.000000e+00 0.000000e+00 -1.000000e+00
    outer loop
      vertex   1.000000e+01 4.468932e+00 2.000000e+00
      vertex   1.004759e+01 4.686946e+00 2.000000e+00
      vertex   1.009421e+01 4.590150e+00 2.000000e+00
    endloop
  endfacet
  facet normal 0.000000e+00 0.000000e+00 -1.000000e+00
    outer loop
      vertex   1.000000e+01 4.468932e+00 2.000000e+00
      vertex   1.009421e+01 4.590150e+00 2.000000e+00
      vertex   1.005352e+01 4.352648e+00 2.000000e+00
    endloop
  endfacet
  facet normal 0.000000e+00 0.000000e+00 -1.000000e+00
    outer loop
      vertex   1.005352e+01 4.352648e+00 2.000000e+00
      vertex   1.009421e+01 4.590150e+00 2.000000e+00
      vertex   1.013987e+01 4.492896e+00 2.000000e+00
    endloop
  endfacet
  facet normal 0.000000e+00 0.000000e+00 -1.000000e+00
    outer loop
      vertex   1.005352e+01 4.352648e+00 2.000000e+00
      vertex   1.013987e+01 4.492896e+00 2.000000e+00
      vertex   1.010564e+01 4.235724e+00 2.000000e+00
    endloop
  endfacet
  facet normal 0.000000e+00 0.000000e+00 -1.000000e+00
    outer loop
      vertex   1.010564e+01 4.235724e+00 2.000000e+00
      vertex   1.013987e+01 4.492896e+00 2.000000e+00
      vertex   1.018455e+01 4.395192e+00 2.000000e+00
    endloop
  endfacet
  facet normal 0.000000e+00 0.000000e+00 -1.000000e+00
    outer loop
      vertex   1.010564e+01 4.235724e+00 2.000000e+00
      vertex   1.018455e+01 4.395192e+00 2.000000e+00
      vertex   1.022826e+01 4.297043e+00 2.000000e+00
    endloop
  endfacet
  facet normal 0.000000e+00 0.000000e+00 -1.000000e+00
    outer loop
      vertex   1.010564e+01 4.235724e+00 2.000000e+00
      vertex   1.022826e+01 4.297043e+00 2.000000e+00
      vertex   1.015636e+01 4.118170e+00 2.000000e+00
    endloop
  endfacet
  facet normal 0.000000e+00 0.000000e+00 -1.000000e+00
    outer loop
      vertex   1.015636e+01 4.118170e+00 2.000000e+00
      vertex   1.022826e+01 4.297043e+00 2.000000e+00
      vertex   1.027098e+01 4.198457e+00 2.000000e+00
    endloop
  endfacet
  facet normal 0.000000e+00 0.000000e+00 -1.000000e+00
    outer loop
      vertex   1.015636e+01 4.118170e+00 2.000000e+00
      vertex   1.027098e+01 4.198457e+00 2.000000e+00
      vertex   1.020565e+01 4.000000e+00 2.000000e+00
    endloop
  endfacet
  facet normal 0.000000e+00 0.000000e+00 -1.000000e+00
    outer loop
      vertex   1.020565e+01 4.000000e+00 2.000000e+00
      vertex   1.027098e+01 4.198457e+00 2.000000e+00
      vertex   1.031272e+01 4.099440e+00 2.000000e+00
    endloop
  endfacet
  facet normal 0.000000e+00 0.000000e+00 -1.000000e+00
    outer loop
      vertex   1.020565e+01 4.000000e+00 2.000000e+00
      vertex   1.031272e+01 4.099440e+00 2.000000e+00
      vertex   1.035348e+01 4.000000e+00 2.000000e+00
    endloop
  endfacet
  facet normal 0.000000e+00 0.000000e+00 1.000000e+00
    outer loop
      vertex   1.012376e+01 4.000000e+00 3.000000e+00
      vertex   1.009362e+01 4.072190e+00 3.000000e+00
      vertex   1.000000e+01 4.000000e+00 3.000000e+00
    endloop
  endfacet
  facet normal 0.000000e+00 0.000000e+00 1.000000e+00
    outer loop
      vertex   1.000000e+01 4.000000e+00 3.000000e+00
      vertex   1.009362e+01 4.072190e+00 3.000000e+00
      vertex   1.006294e+01 4.144149e+00 3.000000e+00
    endloop
  endfacet
  facet normal 0.000000e+00 0.000000e+00 1.000000e+00
    outer loop
      vertex   1.000000e+01 4.000000e+00 3.000000e+00
      vertex   1.006294e+01 4.144149e+00 3.000000e+00
      vertex   1.003174e+01 4.215875e+00 3.000000e+00
    endloop
  endfacet
  facet normal 0.000000e+00 0.000000e+00 1.000000e+00
    outer loop
      vertex   1.003174e+01 4.215875e+00 3.000000e+00
      vertex   1.000000e+01 4.287365e+00 3.000000e+00
      vertex   1.000000e+01 4.000000e+00 3.000000e+00
    endloop
  endfacet
  facet normal 0.000000e+00 -1.000000e+00 0.000000e+00
    outer loop
      vertex   1.035348e+01 4.000000e+00 2.000000e+00
      vertex   1.032981e+01 4.000000e+00 2.126113e+00
      vertex   1.020565e+01 4.000000e+00 2.000000e+00
    endloop
  endfacet
  facet normal -5.961459e-15 -1.000000e+00 5.869033e-15
    outer loop
      vertex   1.020565e+01 4.000000e+00 2.000000e+00
      vertex   1.032981e+01 4.000000e+00 2.126113e+00
      vertex   1.030470e+01 4.000000e+00 2.251935e+00
    endloop
  endfacet
  facet normal 6.049147e-15 -1.000000e+00 1.147353e-15
    outer loop
      vertex   1.020565e+01 4.000000e+00 2.000000e+00
      vertex   1.030470e+01 4.000000e+00 2.251935e+00
      vertex   1.018410e+01 4.000000e+00 2.113632e+00
    endloop
  endfacet
  facet normal 1.245715e-14 -1.000000e+00 -4.440185e-15
    outer loop
      vertex   1.018410e+01 4.000000e+00 2.113632e+00
      vertex   1.030470e+01 4.000000e+00 2.251935e+00
      vertex   1.027814e+01 4.000000e+00 2.377452e+00
    endloop
  endfacet
  facet normal 0.000000e+00 -1.000000e+00 0.000000e+00
    outer loop
      vertex   1.018410e+01 4.000000e+00 2.113632e+00
      vertex   1.027814e+01 4.000000e+00 2.377452e+00
      vertex   1.016136e+01 4.000000e+00 2.227022e+00
    endloop
  endfacet
  facet normal 0.000000e+00 -1.000000e+00 0.000000e+00
    outer loop
      vertex   1.016136e+01 4.000000e+00 2.227022e+00
      vertex   1.027814e+01 4.000000e+00 2.377452e+00
      vertex   1.025013e+01 4.000000e+00 2.502651e+00
    endloop
  endfacet
  facet normal 0.000000e+00 -1.000000e+00 0.000000e+00
    outer loop
      vertex   1.016136e+01 4.000000e+00 2.227022e+00
      vertex   1.025013e+01 4.000000e+00 2.502651e+00
      vertex   1.013743e+01 4.000000e+00 2.340160e+00
    endloop
  endfacet
  facet normal 0.000000e+00 -1.000000e+00 0.000000e+00
    outer loop
      vertex   1.013743e+01 4.000000e+00 2.340160e+00
      vertex   1.025013e+01 4.000000e+00 2.502651e+00
      vertex   1.022069e+01 4.000000e+00 2.627518e+00
    endloop
  endfacet
  facet normal 0.000000e+00 -1.000000e+00 0.000000e+00
    outer loop
      vertex   1.013743e+01 4.000000e+00 2.340160e+00
      vertex   1.022069e+01 4.000000e+00 2.627518e+00
      vertex   1.011231e+01 4.000000e+00 2.453036e+00
    endloop
  endfacet
  facet normal 0.000000e+00 -1.000000e+00 0.000000e+00
    outer loop
      vertex   1.011231e+01 4.000000e+00 2.453036e+00
      vertex   1.022069e+01 4.000000e+00 2.627518e+00
      vertex   1.018982e+01 4.000000e+00 2.752041e+00
    endloop
  endfacet
  facet normal 0.000000e+00 -1.000000e+00 0.000000e+00
    outer loop
      vertex   1.011231e+01 4.000000e+00 2.453036e+00
      vertex   1.018982e+01 4.000000e+00 2.752041e+00
      vertex   1.008600e+01 4.000000e+00 2.565639e+00
    endloop
  endfacet
  facet normal 0.000000e+00 -1.000000e+00 0.000000e+00
    outer loop
      vertex   1.008600e+01 4.000000e+00 2.565639e+00
      vertex   1.018982e+01 4.000000e+00 2.752041e+00
      vertex   1.015750e+01 4.000000e+00 2.876206e+00
    endloop
  endfacet
  facet normal 0.000000e+00 -1.000000e+00 0.000000e+00
    outer loop
      vertex   1.008600e+01 4.000000e+00 2.565639e+00
      vertex   1.015750e+01 4.000000e+00 2.876206e+00
      vertex   1.005852e+01 4.000000e+00 2.677961e+00
    endloop
  endfacet
  facet normal -1.049779e-14 -1.000000e+00 5.241687e-15
    outer loop
      vertex   1.005852e+01 4.000000e+00 2.677961e+00
      vertex   1.015750e+01 4.000000e+00 2.876206e+00
      vertex   1.002985e+01 4.000000e+00 2.789991e+00
    endloop
  endfacet
  facet normal -5.875898e-15 -1.000000e+00 -1.601701e-15
    outer loop
      vertex   1.002985e+01 4.000000e+00 2.789991e+00
      vertex   1.015750e+01 4.000000e+00 2.876206e+00
      vertex   1.012376e+01 4.000000e+00 3.000000e+00
    endloop
  endfacet
  facet normal 5.208123e-15 -1.000000e+00 -6.558152e-15
    outer loop
      vertex   1.002985e+01 4.000000e+00 2.789991e+00
      vertex   1.012376e+01 4.000000e+00 3.000000e+00
      vertex   1.000000e+01 4.000000e+00 2.901718e+00
    endloop
  endfacet
  facet normal 0.000000e+00 -1.000000e+00 0.000000e+00
    outer loop
      vertex   1.000000e+01 4.000000e+00 2.901718e+00
      vertex   1.012376e+01 4.000000e+00 3.000000e+00
      vertex   1.000000e+01 4.000000e+00 3.000000e+00
    endloop
  endfacet
endsolid
