solid ASCII
  facet normal 2.311344e-01 7.900308e-01 -5.678276e-01
    outer loop
      vertex   -2.000000e+00 -1.090646e+01 4.955150e+00
      vertex   -2.000000e+00 -1.087423e+01 5.000000e+00
      vertex   -1.981295e+00 -1.089566e+01 4.977795e+00
    endloop
  endfacet
  facet normal 2.251283e-01 7.889014e-01 -5.717970e-01
    outer loop
      vertex   -1.981295e+00 -1.089566e+01 4.977795e+00
      vertex   -2.000000e+00 -1.087423e+01 5.000000e+00
      vertex   -1.937847e+00 -1.089197e+01 5.000000e+00
    endloop
  endfacet
  facet normal 2.234814e-01 7.913956e-01 -5.689896e-01
    outer loop
      vertex   -1.981295e+00 -1.089566e+01 4.977795e+00
      vertex   -1.937847e+00 -1.089197e+01 5.000000e+00
      vertex   -1.949682e+00 -1.090459e+01 4.977795e+00
    endloop
  endfacet
  facet normal 2.194186e-01 7.933056e-01 -5.679099e-01
    outer loop
      vertex   -1.949682e+00 -1.090459e+01 4.977795e+00
      vertex   -1.937847e+00 -1.089197e+01 5.000000e+00
      vertex   -1.917966e+00 -1.091336e+01 4.977795e+00
    endloop
  endfacet
  facet normal 2.201871e-01 7.960842e-01 -5.637087e-01
    outer loop
      vertex   -1.949682e+00 -1.090459e+01 4.977795e+00
      vertex   -1.917966e+00 -1.091336e+01 4.977795e+00
      vertex   -1.930114e+00 -1.092583e+01 4.955444e+00
    endloop
  endfacet
  facet normal 2.161338e-01 7.979965e-01 -5.625724e-01
    outer loop
      vertex   -1.930114e+00 -1.092583e+01 4.955444e+00
      vertex   -1.917966e+00 -1.091336e+01 4.977795e+00
      vertex   -1.898099e+00 -1.093450e+01 4.955444e+00
    endloop
  endfacet
  facet normal 2.168688e-01 8.007100e-01 -5.584187e-01
    outer loop
      vertex   -1.930114e+00 -1.092583e+01 4.955444e+00
      vertex   -1.898099e+00 -1.093450e+01 4.955444e+00
      vertex   -1.909994e+00 -1.094697e+01 4.932947e+00
    endloop
  endfacet
  facet normal 2.128109e-01 8.025724e-01 -5.573052e-01
    outer loop
      vertex   -1.909994e+00 -1.094697e+01 4.932947e+00
      vertex   -1.898099e+00 -1.093450e+01 4.955444e+00
      vertex   -1.877684e+00 -1.095553e+01 4.932947e+00
    endloop
  endfacet
  facet normal 2.135200e-01 8.052463e-01 -5.531614e-01
    outer loop
      vertex   -1.909994e+00 -1.094697e+01 4.932947e+00
      vertex   -1.877684e+00 -1.095553e+01 4.932947e+00
      vertex   -1.889326e+00 -1.096800e+01 4.910305e+00
    endloop
  endfacet
  facet normal 2.094583e-01 8.070594e-01 -5.520710e-01
    outer loop
      vertex   -1.889326e+00 -1.096800e+01 4.910305e+00
      vertex   -1.877684e+00 -1.095553e+01 4.932947e+00
      vertex   -1.856723e+00 -1.097646e+01 4.910305e+00
    endloop
  endfacet
  facet normal 2.104441e-01 8.108576e-01 -5.460982e-01
    outer loop
      vertex   -1.889326e+00 -1.096800e+01 4.910305e+00
      vertex   -1.856723e+00 -1.097646e+01 4.910305e+00
      vertex   -1.874036e+00 -1.100000e+01 4.868684e+00
    endloop
  endfacet
  facet normal 2.057903e-01 8.126649e-01 -5.451845e-01
    outer loop
      vertex   -1.874036e+00 -1.100000e+01 4.868684e+00
      vertex   -1.856723e+00 -1.097646e+01 4.910305e+00
      vertex   -1.810563e+00 -1.100000e+01 4.892643e+00
    endloop
  endfacet
  facet normal 2.037254e-01 8.110239e-01 -5.483942e-01
    outer loop
      vertex   -1.810563e+00 -1.100000e+01 4.892643e+00
      vertex   -1.856723e+00 -1.097646e+01 4.910305e+00
      vertex   -1.791258e+00 -1.099291e+01 4.910305e+00
    endloop
  endfacet
  facet normal 1.969756e-01 8.162316e-01 -5.431083e-01
    outer loop
      vertex   -1.810563e+00 -1.100000e+01 4.892643e+00
      vertex   -1.791258e+00 -1.099291e+01 4.910305e+00
      vertex   -1.746774e+00 -1.100000e+01 4.915778e+00
    endloop
  endfacet
  facet normal 1.970647e-01 8.123536e-01 -5.488599e-01
    outer loop
      vertex   -1.746774e+00 -1.100000e+01 4.915778e+00
      vertex   -1.791258e+00 -1.099291e+01 4.910305e+00
      vertex   -1.780220e+00 -1.098029e+01 4.932947e+00
    endloop
  endfacet
  facet normal 1.948520e-01 8.110109e-01 -5.516284e-01
    outer loop
      vertex   -1.746774e+00 -1.100000e+01 4.915778e+00
      vertex   -1.780220e+00 -1.098029e+01 4.932947e+00
      vertex   -1.714841e+00 -1.099599e+01 4.932947e+00
    endloop
  endfacet
  facet normal 1.947082e-01 8.104121e-01 -5.525586e-01
    outer loop
      vertex   -1.714841e+00 -1.099599e+01 4.932947e+00
      vertex   -1.780220e+00 -1.098029e+01 4.932947e+00
      vertex   -1.769133e+00 -1.096761e+01 4.955444e+00
    endloop
  endfacet
  facet normal 1.947082e-01 8.104121e-01 -5.525586e-01
    outer loop
      vertex   -1.714841e+00 -1.099599e+01 4.932947e+00
      vertex   -1.769133e+00 -1.096761e+01 4.955444e+00
      vertex   -1.704161e+00 -1.098322e+01 4.955444e+00
    endloop
  endfacet
  facet normal 1.940620e-01 8.077227e-01 -5.567081e-01
    outer loop
      vertex   -1.704161e+00 -1.098322e+01 4.955444e+00
      vertex   -1.769133e+00 -1.096761e+01 4.955444e+00
      vertex   -1.757998e+00 -1.095488e+01 4.977795e+00
    endloop
  endfacet
  facet normal 1.940620e-01 8.077227e-01 -5.567081e-01
    outer loop
      vertex   -1.704161e+00 -1.098322e+01 4.955444e+00
      vertex   -1.757998e+00 -1.095488e+01 4.977795e+00
      vertex   -1.693435e+00 -1.097039e+01 4.977795e+00
    endloop
  endfacet
  facet normal 1.934381e-01 8.051260e-01 -5.606727e-01
    outer loop
      vertex   -1.693435e+00 -1.097039e+01 4.977795e+00
      vertex   -1.757998e+00 -1.095488e+01 4.977795e+00
      vertex   -1.684060e+00 -1.095718e+01 5.000000e+00
    endloop
  endfacet
  facet normal 1.856315e-01 8.080435e-01 -5.591124e-01
    outer loop
      vertex   -1.693435e+00 -1.097039e+01 4.977795e+00
      vertex   -1.684060e+00 -1.095718e+01 5.000000e+00
      vertex   -1.619385e+00 -1.097204e+01 5.000000e+00
    endloop
  endfacet
  facet normal 2.171165e-01 7.928062e-01 -5.694899e-01
    outer loop
      vertex   -1.937847e+00 -1.089197e+01 5.000000e+00
      vertex   -1.875164e+00 -1.090913e+01 5.000000e+00
      vertex   -1.917966e+00 -1.091336e+01 4.977795e+00
    endloop
  endfacet
  facet normal 2.154027e-01 7.952971e-01 -5.666606e-01
    outer loop
      vertex   -1.917966e+00 -1.091336e+01 4.977795e+00
      vertex   -1.875164e+00 -1.090913e+01 5.000000e+00
      vertex   -1.886153e+00 -1.092198e+01 4.977795e+00
    endloop
  endfacet
  facet normal 2.161338e-01 7.979965e-01 -5.625724e-01
    outer loop
      vertex   -1.917966e+00 -1.091336e+01 4.977795e+00
      vertex   -1.886153e+00 -1.092198e+01 4.977795e+00
      vertex   -1.898099e+00 -1.093450e+01 4.955444e+00
    endloop
  endfacet
  facet normal 2.120926e-01 7.998633e-01 -5.614583e-01
    outer loop
      vertex   -1.898099e+00 -1.093450e+01 4.955444e+00
      vertex   -1.886153e+00 -1.092198e+01 4.977795e+00
      vertex   -1.865990e+00 -1.094301e+01 4.955444e+00
    endloop
  endfacet
  facet normal 2.128109e-01 8.025724e-01 -5.573052e-01
    outer loop
      vertex   -1.898099e+00 -1.093450e+01 4.955444e+00
      vertex   -1.865990e+00 -1.094301e+01 4.955444e+00
      vertex   -1.877684e+00 -1.095553e+01 4.932947e+00
    endloop
  endfacet
  facet normal 2.087654e-01 8.043898e-01 -5.562140e-01
    outer loop
      vertex   -1.877684e+00 -1.095553e+01 4.932947e+00
      vertex   -1.865990e+00 -1.094301e+01 4.955444e+00
      vertex   -1.845281e+00 -1.096394e+01 4.932947e+00
    endloop
  endfacet
  facet normal 2.094583e-01 8.070594e-01 -5.520710e-01
    outer loop
      vertex   -1.877684e+00 -1.095553e+01 4.932947e+00
      vertex   -1.845281e+00 -1.096394e+01 4.932947e+00
      vertex   -1.856723e+00 -1.097646e+01 4.910305e+00
    endloop
  endfacet
  facet normal 2.033933e-01 8.097018e-01 -5.504672e-01
    outer loop
      vertex   -1.856723e+00 -1.097646e+01 4.910305e+00
      vertex   -1.845281e+00 -1.096394e+01 4.932947e+00
      vertex   -1.791258e+00 -1.099291e+01 4.910305e+00
    endloop
  endfacet
  facet normal 2.113535e-01 7.970757e-01 -5.656854e-01
    outer loop
      vertex   -1.886153e+00 -1.092198e+01 4.977795e+00
      vertex   -1.875164e+00 -1.090913e+01 5.000000e+00
      vertex   -1.854246e+00 -1.093044e+01 4.977795e+00
    endloop
  endfacet
  facet normal 2.091318e-01 7.965397e-01 -5.672640e-01
    outer loop
      vertex   -1.854246e+00 -1.093044e+01 4.977795e+00
      vertex   -1.875164e+00 -1.090913e+01 5.000000e+00
      vertex   -1.811963e+00 -1.092573e+01 5.000000e+00
    endloop
  endfacet
  facet normal 2.073690e-01 7.990091e-01 -5.644312e-01
    outer loop
      vertex   -1.854246e+00 -1.093044e+01 4.977795e+00
      vertex   -1.811963e+00 -1.092573e+01 5.000000e+00
      vertex   -1.822248e+00 -1.093874e+01 4.977795e+00
    endloop
  endfacet
  facet normal 2.015050e-01 8.014237e-01 -5.631303e-01
    outer loop
      vertex   -1.822248e+00 -1.093874e+01 4.977795e+00
      vertex   -1.811963e+00 -1.092573e+01 5.000000e+00
      vertex   -1.748257e+00 -1.094174e+01 5.000000e+00
    endloop
  endfacet
  facet normal 2.013938e-01 8.017421e-01 -5.627168e-01
    outer loop
      vertex   -1.822248e+00 -1.093874e+01 4.977795e+00
      vertex   -1.748257e+00 -1.094174e+01 5.000000e+00
      vertex   -1.757998e+00 -1.095488e+01 4.977795e+00
    endloop
  endfacet
  facet normal 1.935537e-01 8.048069e-01 -5.610907e-01
    outer loop
      vertex   -1.757998e+00 -1.095488e+01 4.977795e+00
      vertex   -1.748257e+00 -1.094174e+01 5.000000e+00
      vertex   -1.684060e+00 -1.095718e+01 5.000000e+00
    endloop
  endfacet
  facet normal 1.855272e-01 8.083224e-01 -5.587437e-01
    outer loop
      vertex   -1.693435e+00 -1.097039e+01 4.977795e+00
      vertex   -1.619385e+00 -1.097204e+01 5.000000e+00
      vertex   -1.628591e+00 -1.098528e+01 4.977795e+00
    endloop
  endfacet
  facet normal 1.777374e-01 8.111385e-01 -5.571928e-01
    outer loop
      vertex   -1.628591e+00 -1.098528e+01 4.977795e+00
      vertex   -1.619385e+00 -1.097204e+01 5.000000e+00
      vertex   -1.554246e+00 -1.098631e+01 5.000000e+00
    endloop
  endfacet
  facet normal 1.776617e-01 8.113355e-01 -5.569300e-01
    outer loop
      vertex   -1.628591e+00 -1.098528e+01 4.977795e+00
      vertex   -1.554246e+00 -1.098631e+01 5.000000e+00
      vertex   -1.563497e+00 -1.099953e+01 4.977795e+00
    endloop
  endfacet
  facet normal 1.738815e-01 8.126834e-01 -5.561573e-01
    outer loop
      vertex   -1.563497e+00 -1.099953e+01 4.977795e+00
      vertex   -1.554246e+00 -1.098631e+01 5.000000e+00
      vertex   -1.553592e+00 -1.100000e+01 4.980205e+00
    endloop
  endfacet
  facet normal 1.669506e-01 8.357112e-01 -5.231771e-01
    outer loop
      vertex   -1.563497e+00 -1.099953e+01 4.977795e+00
      vertex   -1.553592e+00 -1.100000e+01 4.980205e+00
      vertex   -1.618279e+00 -1.100000e+01 4.959563e+00
    endloop
  endfacet
  facet normal 1.696877e-01 8.132205e-01 -5.566673e-01
    outer loop
      vertex   -1.554246e+00 -1.098631e+01 5.000000e+00
      vertex   -1.488654e+00 -1.100000e+01 5.000000e+00
      vertex   -1.553592e+00 -1.100000e+01 4.980205e+00
    endloop
  endfacet
  facet normal 1.793188e-01 8.238643e-01 -5.376731e-01
    outer loop
      vertex   -1.682677e+00 -1.100000e+01 4.938086e+00
      vertex   -1.638906e+00 -1.099820e+01 4.955444e+00
      vertex   -1.618279e+00 -1.100000e+01 4.959563e+00
    endloop
  endfacet
  facet normal 1.815366e-01 8.127173e-01 -5.536560e-01
    outer loop
      vertex   -1.618279e+00 -1.100000e+01 4.959563e+00
      vertex   -1.638906e+00 -1.099820e+01 4.955444e+00
      vertex   -1.628591e+00 -1.098528e+01 4.977795e+00
    endloop
  endfacet
  facet normal 1.778792e-01 8.123287e-01 -5.554108e-01
    outer loop
      vertex   -1.618279e+00 -1.100000e+01 4.959563e+00
      vertex   -1.628591e+00 -1.098528e+01 4.977795e+00
      vertex   -1.563497e+00 -1.099953e+01 4.977795e+00
    endloop
  endfacet
  facet normal 1.885734e-01 8.190613e-01 -5.418290e-01
    outer loop
      vertex   -1.746774e+00 -1.100000e+01 4.915778e+00
      vertex   -1.714841e+00 -1.099599e+01 4.932947e+00
      vertex   -1.682677e+00 -1.100000e+01 4.938086e+00
    endloop
  endfacet
  facet normal 1.892702e-01 8.126067e-01 -5.512232e-01
    outer loop
      vertex   -1.682677e+00 -1.100000e+01 4.938086e+00
      vertex   -1.714841e+00 -1.099599e+01 4.932947e+00
      vertex   -1.704161e+00 -1.098322e+01 4.955444e+00
    endloop
  endfacet
  facet normal 1.862555e-01 8.114957e-01 -5.538805e-01
    outer loop
      vertex   -1.682677e+00 -1.100000e+01 4.938086e+00
      vertex   -1.704161e+00 -1.098322e+01 4.955444e+00
      vertex   -1.638906e+00 -1.099820e+01 4.955444e+00
    endloop
  endfacet
  facet normal 1.861268e-01 8.109352e-01 -5.547440e-01
    outer loop
      vertex   -1.638906e+00 -1.099820e+01 4.955444e+00
      vertex   -1.704161e+00 -1.098322e+01 4.955444e+00
      vertex   -1.693435e+00 -1.097039e+01 4.977795e+00
    endloop
  endfacet
  facet normal 1.861268e-01 8.109352e-01 -5.547440e-01
    outer loop
      vertex   -1.638906e+00 -1.099820e+01 4.955444e+00
      vertex   -1.693435e+00 -1.097039e+01 4.977795e+00
      vertex   -1.628591e+00 -1.098528e+01 4.977795e+00
    endloop
  endfacet
  facet normal 2.108084e-01 8.108547e-01 -5.459620e-01
    outer loop
      vertex   -1.889326e+00 -1.096800e+01 4.910305e+00
      vertex   -1.874036e+00 -1.100000e+01 4.868684e+00
      vertex   -1.912457e+00 -1.099277e+01 4.864591e+00
    endloop
  endfacet
  facet normal 2.109584e-01 8.163770e-01 -5.376105e-01
    outer loop
      vertex   -1.912457e+00 -1.099277e+01 4.864591e+00
      vertex   -1.874036e+00 -1.100000e+01 4.868684e+00
      vertex   -1.937184e+00 -1.100000e+01 4.843904e+00
    endloop
  endfacet
  facet normal 2.154520e-01 8.125325e-01 -5.416376e-01
    outer loop
      vertex   -1.912457e+00 -1.099277e+01 4.864591e+00
      vertex   -1.937184e+00 -1.100000e+01 4.843904e+00
      vertex   -1.945366e+00 -1.098404e+01 4.864591e+00
    endloop
  endfacet
  facet normal 2.199746e-01 8.125184e-01 -5.398380e-01
    outer loop
      vertex   -1.945366e+00 -1.098404e+01 4.864591e+00
      vertex   -1.937184e+00 -1.100000e+01 4.843904e+00
      vertex   -2.000000e+00 -1.100000e+01 4.818308e+00
    endloop
  endfacet
  facet normal 2.200496e-01 8.124540e-01 -5.399043e-01
    outer loop
      vertex   -1.945366e+00 -1.098404e+01 4.864591e+00
      vertex   -2.000000e+00 -1.100000e+01 4.818308e+00
      vertex   -1.978178e+00 -1.097515e+01 4.864591e+00
    endloop
  endfacet
  facet normal 2.234503e-01 8.109833e-01 -5.407181e-01
    outer loop
      vertex   -1.978178e+00 -1.097515e+01 4.864591e+00
      vertex   -2.000000e+00 -1.100000e+01 4.818308e+00
      vertex   -2.000000e+00 -1.096931e+01 4.864340e+00
    endloop
  endfacet
  facet normal 2.221415e-01 8.057394e-01 -5.490329e-01
    outer loop
      vertex   -1.978178e+00 -1.097515e+01 4.864591e+00
      vertex   -2.000000e+00 -1.096931e+01 4.864340e+00
      vertex   -1.954253e+00 -1.095060e+01 4.910305e+00
    endloop
  endfacet
  facet normal 2.227350e-01 8.052959e-01 -5.494430e-01
    outer loop
      vertex   -1.954253e+00 -1.095060e+01 4.910305e+00
      vertex   -2.000000e+00 -1.096931e+01 4.864340e+00
      vertex   -1.986568e+00 -1.094166e+01 4.910305e+00
    endloop
  endfacet
  facet normal 2.216810e-01 8.014853e-01 -5.554087e-01
    outer loop
      vertex   -1.954253e+00 -1.095060e+01 4.910305e+00
      vertex   -1.986568e+00 -1.094166e+01 4.910305e+00
      vertex   -1.974326e+00 -1.092936e+01 4.932947e+00
    endloop
  endfacet
  facet normal 2.246404e-01 8.000800e-01 -5.562451e-01
    outer loop
      vertex   -1.974326e+00 -1.092936e+01 4.932947e+00
      vertex   -1.986568e+00 -1.094166e+01 4.910305e+00
      vertex   -2.000000e+00 -1.093813e+01 4.909955e+00
    endloop
  endfacet
  facet normal 2.278156e-01 7.974158e-01 -5.587738e-01
    outer loop
      vertex   -1.974326e+00 -1.092936e+01 4.932947e+00
      vertex   -2.000000e+00 -1.093813e+01 4.909955e+00
      vertex   -2.000000e+00 -1.090646e+01 4.955150e+00
    endloop
  endfacet
  facet normal 2.255857e-01 8.043299e-01 -5.496950e-01
    outer loop
      vertex   -2.000000e+00 -1.096931e+01 4.864340e+00
      vertex   -2.000000e+00 -1.093813e+01 4.909955e+00
      vertex   -1.986568e+00 -1.094166e+01 4.910305e+00
    endloop
  endfacet
  facet normal 2.276172e-01 7.973553e-01 -5.589409e-01
    outer loop
      vertex   -1.974326e+00 -1.092936e+01 4.932947e+00
      vertex   -2.000000e+00 -1.090646e+01 4.955150e+00
      vertex   -1.993844e+00 -1.090802e+01 4.955444e+00
    endloop
  endfacet
  facet normal 2.268059e-01 7.928724e-01 -5.656081e-01
    outer loop
      vertex   -1.993844e+00 -1.090802e+01 4.955444e+00
      vertex   -2.000000e+00 -1.090646e+01 4.955150e+00
      vertex   -1.981295e+00 -1.089566e+01 4.977795e+00
    endloop
  endfacet
  facet normal 2.242524e-01 7.941258e-01 -5.648673e-01
    outer loop
      vertex   -1.993844e+00 -1.090802e+01 4.955444e+00
      vertex   -1.981295e+00 -1.089566e+01 4.977795e+00
      vertex   -1.962031e+00 -1.091700e+01 4.955444e+00
    endloop
  endfacet
  facet normal 2.242524e-01 7.941258e-01 -5.648673e-01
    outer loop
      vertex   -1.962031e+00 -1.091700e+01 4.955444e+00
      vertex   -1.981295e+00 -1.089566e+01 4.977795e+00
      vertex   -1.949682e+00 -1.090459e+01 4.977795e+00
    endloop
  endfacet
  facet normal 2.201871e-01 7.960842e-01 -5.637087e-01
    outer loop
      vertex   -1.962031e+00 -1.091700e+01 4.955444e+00
      vertex   -1.949682e+00 -1.090459e+01 4.977795e+00
      vertex   -1.930114e+00 -1.092583e+01 4.955444e+00
    endloop
  endfacet
  facet normal 2.250212e-01 7.968484e-01 -5.607122e-01
    outer loop
      vertex   -1.974326e+00 -1.092936e+01 4.932947e+00
      vertex   -1.993844e+00 -1.090802e+01 4.955444e+00
      vertex   -1.962031e+00 -1.091700e+01 4.955444e+00
    endloop
  endfacet
  facet normal 2.209389e-01 7.988022e-01 -5.595543e-01
    outer loop
      vertex   -1.974326e+00 -1.092936e+01 4.932947e+00
      vertex   -1.962031e+00 -1.091700e+01 4.955444e+00
      vertex   -1.942210e+00 -1.093824e+01 4.932947e+00
    endloop
  endfacet
  facet normal 2.209389e-01 7.988022e-01 -5.595543e-01
    outer loop
      vertex   -1.942210e+00 -1.093824e+01 4.932947e+00
      vertex   -1.962031e+00 -1.091700e+01 4.955444e+00
      vertex   -1.930114e+00 -1.092583e+01 4.955444e+00
    endloop
  endfacet
  facet normal 2.168688e-01 8.007100e-01 -5.584187e-01
    outer loop
      vertex   -1.942210e+00 -1.093824e+01 4.932947e+00
      vertex   -1.930114e+00 -1.092583e+01 4.955444e+00
      vertex   -1.909994e+00 -1.094697e+01 4.932947e+00
    endloop
  endfacet
  facet normal 2.175943e-01 8.033885e-01 -5.542739e-01
    outer loop
      vertex   -1.909994e+00 -1.094697e+01 4.932947e+00
      vertex   -1.921837e+00 -1.095938e+01 4.910305e+00
      vertex   -1.942210e+00 -1.093824e+01 4.932947e+00
    endloop
  endfacet
  facet normal 2.175943e-01 8.033885e-01 -5.542739e-01
    outer loop
      vertex   -1.942210e+00 -1.093824e+01 4.932947e+00
      vertex   -1.921837e+00 -1.095938e+01 4.910305e+00
      vertex   -1.954253e+00 -1.095060e+01 4.910305e+00
    endloop
  endfacet
  facet normal 2.216810e-01 8.014853e-01 -5.554087e-01
    outer loop
      vertex   -1.942210e+00 -1.093824e+01 4.932947e+00
      vertex   -1.954253e+00 -1.095060e+01 4.910305e+00
      vertex   -1.974326e+00 -1.092936e+01 4.932947e+00
    endloop
  endfacet
  facet normal 2.186649e-01 8.073417e-01 -5.480740e-01
    outer loop
      vertex   -1.978178e+00 -1.097515e+01 4.864591e+00
      vertex   -1.954253e+00 -1.095060e+01 4.910305e+00
      vertex   -1.945366e+00 -1.098404e+01 4.864591e+00
    endloop
  endfacet
  facet normal 2.186649e-01 8.073417e-01 -5.480740e-01
    outer loop
      vertex   -1.945366e+00 -1.098404e+01 4.864591e+00
      vertex   -1.954253e+00 -1.095060e+01 4.910305e+00
      vertex   -1.921837e+00 -1.095938e+01 4.910305e+00
    endloop
  endfacet
  facet normal 2.145664e-01 8.091926e-01 -5.469630e-01
    outer loop
      vertex   -1.945366e+00 -1.098404e+01 4.864591e+00
      vertex   -1.921837e+00 -1.095938e+01 4.910305e+00
      vertex   -1.912457e+00 -1.099277e+01 4.864591e+00
    endloop
  endfacet
  facet normal 2.145664e-01 8.091926e-01 -5.469630e-01
    outer loop
      vertex   -1.912457e+00 -1.099277e+01 4.864591e+00
      vertex   -1.921837e+00 -1.095938e+01 4.910305e+00
      vertex   -1.889326e+00 -1.096800e+01 4.910305e+00
    endloop
  endfacet
  facet normal 2.135200e-01 8.052463e-01 -5.531614e-01
    outer loop
      vertex   -1.921837e+00 -1.095938e+01 4.910305e+00
      vertex   -1.909994e+00 -1.094697e+01 4.932947e+00
      vertex   -1.889326e+00 -1.096800e+01 4.910305e+00
    endloop
  endfacet
  facet normal 2.080635e-01 8.016852e-01 -5.603663e-01
    outer loop
      vertex   -1.822248e+00 -1.093874e+01 4.977795e+00
      vertex   -1.833789e+00 -1.095137e+01 4.955444e+00
      vertex   -1.854246e+00 -1.093044e+01 4.977795e+00
    endloop
  endfacet
  facet normal 2.080635e-01 8.016852e-01 -5.603663e-01
    outer loop
      vertex   -1.854246e+00 -1.093044e+01 4.977795e+00
      vertex   -1.833789e+00 -1.095137e+01 4.955444e+00
      vertex   -1.865990e+00 -1.094301e+01 4.955444e+00
    endloop
  endfacet
  facet normal 2.120926e-01 7.998633e-01 -5.614583e-01
    outer loop
      vertex   -1.854246e+00 -1.093044e+01 4.977795e+00
      vertex   -1.865990e+00 -1.094301e+01 4.955444e+00
      vertex   -1.886153e+00 -1.092198e+01 4.977795e+00
    endloop
  endfacet
  facet normal 2.087654e-01 8.043898e-01 -5.562140e-01
    outer loop
      vertex   -1.865990e+00 -1.094301e+01 4.955444e+00
      vertex   -1.833789e+00 -1.095137e+01 4.955444e+00
      vertex   -1.845281e+00 -1.096394e+01 4.932947e+00
    endloop
  endfacet
  facet normal 2.027244e-01 8.070390e-01 -5.546087e-01
    outer loop
      vertex   -1.845281e+00 -1.096394e+01 4.932947e+00
      vertex   -1.833789e+00 -1.095137e+01 4.955444e+00
      vertex   -1.780220e+00 -1.098029e+01 4.932947e+00
    endloop
  endfacet
  facet normal 2.033933e-01 8.097018e-01 -5.504672e-01
    outer loop
      vertex   -1.845281e+00 -1.096394e+01 4.932947e+00
      vertex   -1.780220e+00 -1.098029e+01 4.932947e+00
      vertex   -1.791258e+00 -1.099291e+01 4.910305e+00
    endloop
  endfacet
  facet normal 2.020467e-01 8.043411e-01 -5.587598e-01
    outer loop
      vertex   -1.757998e+00 -1.095488e+01 4.977795e+00
      vertex   -1.769133e+00 -1.096761e+01 4.955444e+00
      vertex   -1.822248e+00 -1.093874e+01 4.977795e+00
    endloop
  endfacet
  facet normal 2.020467e-01 8.043411e-01 -5.587598e-01
    outer loop
      vertex   -1.822248e+00 -1.093874e+01 4.977795e+00
      vertex   -1.769133e+00 -1.096761e+01 4.955444e+00
      vertex   -1.833789e+00 -1.095137e+01 4.955444e+00
    endloop
  endfacet
  facet normal 2.027244e-01 8.070390e-01 -5.546087e-01
    outer loop
      vertex   -1.769133e+00 -1.096761e+01 4.955444e+00
      vertex   -1.780220e+00 -1.098029e+01 4.932947e+00
      vertex   -1.833789e+00 -1.095137e+01 4.955444e+00
    endloop
  endfacet
  facet normal 0.000000e+00 -1.000000e+00 0.000000e+00
    outer loop
      vertex   -2.000000e+00 -1.100000e+01 4.818308e+00
      vertex   -1.937184e+00 -1.100000e+01 4.843904e+00
      vertex   -2.000000e+00 -1.100000e+01 5.000000e+00
    endloop
  endfacet
  facet normal 0.000000e+00 -1.000000e+00 0.000000e+00
    outer loop
      vertex   -2.000000e+00 -1.100000e+01 5.000000e+00
      vertex   -1.937184e+00 -1.100000e+01 4.843904e+00
      vertex   -1.874036e+00 -1.100000e+01 4.868684e+00
    endloop
  endfacet
  facet normal 0.000000e+00 -1.000000e+00 0.000000e+00
    outer loop
      vertex   -2.000000e+00 -1.100000e+01 5.000000e+00
      vertex   -1.874036e+00 -1.100000e+01 4.868684e+00
      vertex   -1.810563e+00 -1.100000e+01 4.892643e+00
    endloop
  endfacet
  facet normal 0.000000e+00 -1.000000e+00 0.000000e+00
    outer loop
      vertex   -1.810563e+00 -1.100000e+01 4.892643e+00
      vertex   -1.746774e+00 -1.100000e+01 4.915778e+00
      vertex   -2.000000e+00 -1.100000e+01 5.000000e+00
    endloop
  endfacet
  facet normal -2.708499e-14 -1.000000e+00 -8.143473e-14
    outer loop
      vertex   -2.000000e+00 -1.100000e+01 5.000000e+00
      vertex   -1.746774e+00 -1.100000e+01 4.915778e+00
      vertex   -1.682677e+00 -1.100000e+01 4.938086e+00
    endloop
  endfacet
  facet normal -7.063493e-15 -1.000000e+00 2.117931e-14
    outer loop
      vertex   -2.000000e+00 -1.100000e+01 5.000000e+00
      vertex   -1.682677e+00 -1.100000e+01 4.938086e+00
      vertex   -1.618279e+00 -1.100000e+01 4.959563e+00
    endloop
  endfacet
  facet normal -6.987483e-15 -1.000000e+00 2.189685e-14
    outer loop
      vertex   -1.618279e+00 -1.100000e+01 4.959563e+00
      vertex   -1.553592e+00 -1.100000e+01 4.980205e+00
      vertex   -2.000000e+00 -1.100000e+01 5.000000e+00
    endloop
  endfacet
  facet normal 0.000000e+00 -1.000000e+00 1.794777e-13
    outer loop
      vertex   -2.000000e+00 -1.100000e+01 5.000000e+00
      vertex   -1.553592e+00 -1.100000e+01 4.980205e+00
      vertex   -1.488654e+00 -1.100000e+01 5.000000e+00
    endloop
  endfacet
  facet normal 0.000000e+00 0.000000e+00 1.000000e+00
    outer loop
      vertex   -1.488654e+00 -1.100000e+01 5.000000e+00
      vertex   -1.554246e+00 -1.098631e+01 5.000000e+00
      vertex   -2.000000e+00 -1.100000e+01 5.000000e+00
    endloop
  endfacet
  facet normal 0.000000e+00 0.000000e+00 1.000000e+00
    outer loop
      vertex   -2.000000e+00 -1.100000e+01 5.000000e+00
      vertex   -1.554246e+00 -1.098631e+01 5.000000e+00
      vertex   -1.619385e+00 -1.097204e+01 5.000000e+00
    endloop
  endfacet
  facet normal 0.000000e+00 0.000000e+00 1.000000e+00
    outer loop
      vertex   -2.000000e+00 -1.100000e+01 5.000000e+00
      vertex   -1.619385e+00 -1.097204e+01 5.000000e+00
      vertex   -1.684060e+00 -1.095718e+01 5.000000e+00
    endloop
  endfacet
  facet normal 0.000000e+00 0.000000e+00 1.000000e+00
    outer loop
      vertex   -1.684060e+00 -1.095718e+01 5.000000e+00
      vertex   -1.748257e+00 -1.094174e+01 5.000000e+00
      vertex   -2.000000e+00 -1.100000e+01 5.000000e+00
    endloop
  endfacet
  facet normal 0.000000e+00 0.000000e+00 1.000000e+00
    outer loop
      vertex   -2.000000e+00 -1.100000e+01 5.000000e+00
      vertex   -1.748257e+00 -1.094174e+01 5.000000e+00
      vertex   -1.811963e+00 -1.092573e+01 5.000000e+00
    endloop
  endfacet
  facet normal 0.000000e+00 0.000000e+00 1.000000e+00
    outer loop
      vertex   -2.000000e+00 -1.100000e+01 5.000000e+00
      vertex   -1.811963e+00 -1.092573e+01 5.000000e+00
      vertex   -1.875164e+00 -1.090913e+01 5.000000e+00
    endloop
  endfacet
  facet normal 0.000000e+00 0.000000e+00 1.000000e+00
    outer loop
      vertex   -1.875164e+00 -1.090913e+01 5.000000e+00
      vertex   -1.937847e+00 -1.089197e+01 5.000000e+00
      vertex   -2.000000e+00 -1.100000e+01 5.000000e+00
    endloop
  endfacet
  facet normal 0.000000e+00 0.000000e+00 1.000000e+00
    outer loop
      vertex   -2.000000e+00 -1.100000e+01 5.000000e+00
      vertex   -1.937847e+00 -1.089197e+01 5.000000e+00
      vertex   -2.000000e+00 -1.087423e+01 5.000000e+00
    endloop
  endfacet
  facet normal -1.000000e+00 -0.000000e+00 -4.950845e-15
    outer loop
      vertex   -2.000000e+00 -1.087423e+01 5.000000e+00
      vertex   -2.000000e+00 -1.090646e+01 4.955150e+00
      vertex   -2.000000e+00 -1.100000e+01 5.000000e+00
    endloop
  endfacet
  facet normal -1.000000e+00 3.540190e-15 2.432308e-15
    outer loop
      vertex   -2.000000e+00 -1.100000e+01 5.000000e+00
      vertex   -2.000000e+00 -1.090646e+01 4.955150e+00
      vertex   -2.000000e+00 -1.093813e+01 4.909955e+00
    endloop
  endfacet
  facet normal -1.000000e+00 0.000000e+00 0.000000e+00
    outer loop
      vertex   -2.000000e+00 -1.100000e+01 5.000000e+00
      vertex   -2.000000e+00 -1.093813e+01 4.909955e+00
      vertex   -2.000000e+00 -1.096931e+01 4.864340e+00
    endloop
  endfacet
  facet normal -1.000000e+00 -0.000000e+00 0.000000e+00
    outer loop
      vertex   -2.000000e+00 -1.096931e+01 4.864340e+00
      vertex   -2.000000e+00 -1.100000e+01 4.818308e+00
      vertex   -2.000000e+00 -1.100000e+01 5.000000e+00
    endloop
  endfacet
endsolid
