solid ASCII
  facet normal 3.598043e-01 -3.228273e-01 -8.753990e-01
    outer loop
      vertex   3.877100e+00 -3.000000e+00 -1.022293e+01
      vertex   3.892133e+00 -2.997661e+00 -1.021761e+01
      vertex   4.000000e+00 -3.000000e+00 -1.017241e+01
    endloop
  endfacet
  facet normal 3.647448e-01 -2.881594e-01 -8.853956e-01
    outer loop
      vertex   4.000000e+00 -3.000000e+00 -1.017241e+01
      vertex   3.892133e+00 -2.997661e+00 -1.021761e+01
      vertex   3.951536e+00 -2.922469e+00 -1.021761e+01
    endloop
  endfacet
  facet normal 3.704381e-01 -2.840049e-01 -8.843737e-01
    outer loop
      vertex   4.000000e+00 -3.000000e+00 -1.017241e+01
      vertex   3.951536e+00 -2.922469e+00 -1.021761e+01
      vertex   4.000000e+00 -2.876679e+00 -1.021202e+01
    endloop
  endfacet
  facet normal 3.643333e-01 -2.769623e-01 -8.891305e-01
    outer loop
      vertex   4.000000e+00 -2.876679e+00 -1.021202e+01
      vertex   3.951536e+00 -2.922469e+00 -1.021761e+01
      vertex   3.882254e+00 -2.871229e+00 -1.026196e+01
    endloop
  endfacet
  facet normal 3.644175e-01 -2.764074e-01 -8.892687e-01
    outer loop
      vertex   4.000000e+00 -2.876679e+00 -1.021202e+01
      vertex   3.882254e+00 -2.871229e+00 -1.026196e+01
      vertex   3.939047e+00 -2.796353e+00 -1.026196e+01
    endloop
  endfacet
  facet normal 3.582686e-01 -2.717435e-01 -8.931960e-01
    outer loop
      vertex   3.939047e+00 -2.796353e+00 -1.026196e+01
      vertex   3.882254e+00 -2.871229e+00 -1.026196e+01
      vertex   3.812775e+00 -2.819844e+00 -1.030546e+01
    endloop
  endfacet
  facet normal 3.582686e-01 -2.717435e-01 -8.931960e-01
    outer loop
      vertex   3.939047e+00 -2.796353e+00 -1.026196e+01
      vertex   3.812775e+00 -2.819844e+00 -1.030546e+01
      vertex   3.868552e+00 -2.746308e+00 -1.030546e+01
    endloop
  endfacet
  facet normal 3.518868e-01 -2.669030e-01 -8.971836e-01
    outer loop
      vertex   3.868552e+00 -2.746308e+00 -1.030546e+01
      vertex   3.812775e+00 -2.819844e+00 -1.030546e+01
      vertex   3.743110e+00 -2.768321e+00 -1.034812e+01
    endloop
  endfacet
  facet normal 3.518868e-01 -2.669030e-01 -8.971836e-01
    outer loop
      vertex   3.868552e+00 -2.746308e+00 -1.030546e+01
      vertex   3.743110e+00 -2.768321e+00 -1.034812e+01
      vertex   3.797868e+00 -2.696129e+00 -1.034812e+01
    endloop
  endfacet
  facet normal 3.454831e-01 -2.620459e-01 -9.010956e-01
    outer loop
      vertex   3.797868e+00 -2.696129e+00 -1.034812e+01
      vertex   3.743110e+00 -2.768321e+00 -1.034812e+01
      vertex   3.673267e+00 -2.716667e+00 -1.038992e+01
    endloop
  endfacet
  facet normal 3.454831e-01 -2.620459e-01 -9.010956e-01
    outer loop
      vertex   3.797868e+00 -2.696129e+00 -1.034812e+01
      vertex   3.673267e+00 -2.716667e+00 -1.038992e+01
      vertex   3.727003e+00 -2.645821e+00 -1.038992e+01
    endloop
  endfacet
  facet normal 3.390584e-01 -2.571727e-01 -9.049318e-01
    outer loop
      vertex   3.727003e+00 -2.645821e+00 -1.038992e+01
      vertex   3.673267e+00 -2.716667e+00 -1.038992e+01
      vertex   3.603255e+00 -2.664888e+00 -1.043086e+01
    endloop
  endfacet
  facet normal 3.390584e-01 -2.571727e-01 -9.049318e-01
    outer loop
      vertex   3.727003e+00 -2.645821e+00 -1.038992e+01
      vertex   3.603255e+00 -2.664888e+00 -1.043086e+01
      vertex   3.655967e+00 -2.595393e+00 -1.043086e+01
    endloop
  endfacet
  facet normal 3.326134e-01 -2.522843e-01 -9.086919e-01
    outer loop
      vertex   3.655967e+00 -2.595393e+00 -1.043086e+01
      vertex   3.603255e+00 -2.664888e+00 -1.043086e+01
      vertex   3.533084e+00 -2.612990e+00 -1.047096e+01
    endloop
  endfacet
  facet normal 3.326134e-01 -2.522843e-01 -9.086919e-01
    outer loop
      vertex   3.655967e+00 -2.595393e+00 -1.043086e+01
      vertex   3.533084e+00 -2.612990e+00 -1.047096e+01
      vertex   3.584769e+00 -2.544849e+00 -1.047096e+01
    endloop
  endfacet
  facet normal 3.261491e-01 -2.473812e-01 -9.123756e-01
    outer loop
      vertex   3.584769e+00 -2.544849e+00 -1.047096e+01
      vertex   3.533084e+00 -2.612990e+00 -1.047096e+01
      vertex   3.462761e+00 -2.560981e+00 -1.051020e+01
    endloop
  endfacet
  facet normal 3.261491e-01 -2.473812e-01 -9.123756e-01
    outer loop
      vertex   3.584769e+00 -2.544849e+00 -1.047096e+01
      vertex   3.462761e+00 -2.560981e+00 -1.051020e+01
      vertex   3.513417e+00 -2.494196e+00 -1.051020e+01
    endloop
  endfacet
  facet normal 3.196664e-01 -2.424641e-01 -9.159828e-01
    outer loop
      vertex   3.513417e+00 -2.494196e+00 -1.051020e+01
      vertex   3.462761e+00 -2.560981e+00 -1.051020e+01
      vertex   3.392297e+00 -2.508868e+00 -1.054858e+01
    endloop
  endfacet
  facet normal 3.196664e-01 -2.424641e-01 -9.159828e-01
    outer loop
      vertex   3.513417e+00 -2.494196e+00 -1.051020e+01
      vertex   3.392297e+00 -2.508868e+00 -1.054858e+01
      vertex   3.441922e+00 -2.443441e+00 -1.054858e+01
    endloop
  endfacet
  facet normal 3.131661e-01 -2.375337e-01 -9.195133e-01
    outer loop
      vertex   3.441922e+00 -2.443441e+00 -1.054858e+01
      vertex   3.392297e+00 -2.508868e+00 -1.054858e+01
      vertex   3.321700e+00 -2.456655e+00 -1.058611e+01
    endloop
  endfacet
  facet normal 3.131661e-01 -2.375337e-01 -9.195133e-01
    outer loop
      vertex   3.441922e+00 -2.443441e+00 -1.054858e+01
      vertex   3.321700e+00 -2.456655e+00 -1.058611e+01
      vertex   3.370292e+00 -2.392590e+00 -1.058611e+01
    endloop
  endfacet
  facet normal 3.066492e-01 -2.325907e-01 -9.229669e-01
    outer loop
      vertex   3.370292e+00 -2.392590e+00 -1.058611e+01
      vertex   3.321700e+00 -2.456655e+00 -1.058611e+01
      vertex   3.250978e+00 -2.404352e+00 -1.062279e+01
    endloop
  endfacet
  facet normal 3.066492e-01 -2.325907e-01 -9.229669e-01
    outer loop
      vertex   3.370292e+00 -2.392590e+00 -1.058611e+01
      vertex   3.250978e+00 -2.404352e+00 -1.062279e+01
      vertex   3.298536e+00 -2.341651e+00 -1.062279e+01
    endloop
  endfacet
  facet normal 3.001166e-01 -2.276357e-01 -9.263434e-01
    outer loop
      vertex   3.298536e+00 -2.341651e+00 -1.062279e+01
      vertex   3.250978e+00 -2.404352e+00 -1.062279e+01
      vertex   3.180142e+00 -2.351962e+00 -1.065861e+01
    endloop
  endfacet
  facet normal 3.001166e-01 -2.276357e-01 -9.263434e-01
    outer loop
      vertex   3.298536e+00 -2.341651e+00 -1.062279e+01
      vertex   3.180142e+00 -2.351962e+00 -1.065861e+01
      vertex   3.226664e+00 -2.290628e+00 -1.065861e+01
    endloop
  endfacet
  facet normal 2.935690e-01 -2.226695e-01 -9.296427e-01
    outer loop
      vertex   3.226664e+00 -2.290628e+00 -1.065861e+01
      vertex   3.180142e+00 -2.351962e+00 -1.065861e+01
      vertex   3.109199e+00 -2.299495e+00 -1.069358e+01
    endloop
  endfacet
  facet normal 2.935690e-01 -2.226695e-01 -9.296427e-01
    outer loop
      vertex   3.226664e+00 -2.290628e+00 -1.065861e+01
      vertex   3.109199e+00 -2.299495e+00 -1.069358e+01
      vertex   3.154683e+00 -2.239528e+00 -1.069358e+01
    endloop
  endfacet
  facet normal 2.870075e-01 -2.176926e-01 -9.328647e-01
    outer loop
      vertex   3.154683e+00 -2.239528e+00 -1.069358e+01
      vertex   3.109199e+00 -2.299495e+00 -1.069358e+01
      vertex   3.038158e+00 -2.246955e+00 -1.072770e+01
    endloop
  endfacet
  facet normal 2.870075e-01 -2.176926e-01 -9.328647e-01
    outer loop
      vertex   3.154683e+00 -2.239528e+00 -1.069358e+01
      vertex   3.038158e+00 -2.246955e+00 -1.072770e+01
      vertex   3.082603e+00 -2.188358e+00 -1.072770e+01
    endloop
  endfacet
  facet normal 2.804329e-01 -2.127058e-01 -9.360094e-01
    outer loop
      vertex   3.082603e+00 -2.188358e+00 -1.072770e+01
      vertex   3.038158e+00 -2.246955e+00 -1.072770e+01
      vertex   3.010433e+00 -2.137125e+00 -1.076097e+01
    endloop
  endfacet
  facet normal 2.844633e-01 -2.070607e-01 -9.360590e-01
    outer loop
      vertex   3.082603e+00 -2.188358e+00 -1.072770e+01
      vertex   3.010433e+00 -2.137125e+00 -1.076097e+01
      vertex   3.125800e+00 -2.129015e+00 -1.072770e+01
    endloop
  endfacet
  facet normal 2.844633e-01 -2.070607e-01 -9.360590e-01
    outer loop
      vertex   3.125800e+00 -2.129015e+00 -1.072770e+01
      vertex   3.010433e+00 -2.137125e+00 -1.076097e+01
      vertex   3.052618e+00 -2.079170e+00 -1.076097e+01
    endloop
  endfacet
  facet normal 2.883786e-01 -2.013448e-01 -9.361079e-01
    outer loop
      vertex   3.125800e+00 -2.129015e+00 -1.072770e+01
      vertex   3.052618e+00 -2.079170e+00 -1.076097e+01
      vertex   3.167729e+00 -2.068961e+00 -1.072770e+01
    endloop
  endfacet
  facet normal 2.883786e-01 -2.013448e-01 -9.361079e-01
    outer loop
      vertex   3.167729e+00 -2.068961e+00 -1.072770e+01
      vertex   3.052618e+00 -2.079170e+00 -1.076097e+01
      vertex   3.093566e+00 -2.020523e+00 -1.076097e+01
    endloop
  endfacet
  facet normal 2.902583e-01 -1.984872e-01 -9.361373e-01
    outer loop
      vertex   3.167729e+00 -2.068961e+00 -1.072770e+01
      vertex   3.093566e+00 -2.020523e+00 -1.076097e+01
      vertex   3.126841e+00 -2.000000e+00 -1.075500e+01
    endloop
  endfacet
  facet normal 2.844564e-01 -1.879313e-01 -9.400885e-01
    outer loop
      vertex   3.126841e+00 -2.000000e+00 -1.075500e+01
      vertex   3.093566e+00 -2.020523e+00 -1.076097e+01
      vertex   3.000000e+00 -2.000000e+00 -1.079338e+01
    endloop
  endfacet
  facet normal 2.820856e-01 -1.969510e-01 -9.389558e-01
    outer loop
      vertex   3.000000e+00 -2.000000e+00 -1.079338e+01
      vertex   3.093566e+00 -2.020523e+00 -1.076097e+01
      vertex   3.052618e+00 -2.079170e+00 -1.076097e+01
    endloop
  endfacet
  facet normal 2.774213e-01 -2.003274e-01 -9.396309e-01
    outer loop
      vertex   3.000000e+00 -2.000000e+00 -1.079338e+01
      vertex   3.052618e+00 -2.079170e+00 -1.076097e+01
      vertex   3.000000e+00 -2.126402e+00 -1.076643e+01
    endloop
  endfacet
  facet normal 2.809935e-01 -2.045350e-01 -9.376609e-01
    outer loop
      vertex   3.000000e+00 -2.126402e+00 -1.076643e+01
      vertex   3.052618e+00 -2.079170e+00 -1.076097e+01
      vertex   3.010433e+00 -2.137125e+00 -1.076097e+01
    endloop
  endfacet
  facet normal 2.727856e-01 -2.128172e-01 -9.382414e-01
    outer loop
      vertex   3.000000e+00 -2.126402e+00 -1.076643e+01
      vertex   3.010433e+00 -2.137125e+00 -1.076097e+01
      vertex   3.000000e+00 -2.252451e+00 -1.073784e+01
    endloop
  endfacet
  facet normal 2.794613e-01 -2.130176e-01 -9.362291e-01
    outer loop
      vertex   3.000000e+00 -2.252451e+00 -1.073784e+01
      vertex   3.010433e+00 -2.137125e+00 -1.076097e+01
      vertex   3.038158e+00 -2.246955e+00 -1.072770e+01
    endloop
  endfacet
  facet normal 2.803025e-01 -2.241045e-01 -9.333851e-01
    outer loop
      vertex   3.000000e+00 -2.252451e+00 -1.073784e+01
      vertex   3.038158e+00 -2.246955e+00 -1.072770e+01
      vertex   3.062458e+00 -2.358658e+00 -1.069358e+01
    endloop
  endfacet
  facet normal 2.827660e-01 -2.233936e-01 -9.328123e-01
    outer loop
      vertex   3.062458e+00 -2.358658e+00 -1.069358e+01
      vertex   3.038158e+00 -2.246955e+00 -1.072770e+01
      vertex   3.109199e+00 -2.299495e+00 -1.069358e+01
    endloop
  endfacet
  facet normal 2.892298e-01 -2.285002e-01 -9.295880e-01
    outer loop
      vertex   3.062458e+00 -2.358658e+00 -1.069358e+01
      vertex   3.109199e+00 -2.299495e+00 -1.069358e+01
      vertex   3.180142e+00 -2.351962e+00 -1.065861e+01
    endloop
  endfacet
  facet normal 3.586696e-01 -2.845186e-01 -8.890474e-01
    outer loop
      vertex   3.892133e+00 -2.997661e+00 -1.021761e+01
      vertex   3.877100e+00 -3.000000e+00 -1.022293e+01
      vertex   3.823892e+00 -2.945103e+00 -1.026196e+01
    endloop
  endfacet
  facet normal 3.524373e-01 -2.908699e-01 -8.894845e-01
    outer loop
      vertex   3.823892e+00 -2.945103e+00 -1.026196e+01
      vertex   3.877100e+00 -3.000000e+00 -1.022293e+01
      vertex   3.753563e+00 -3.000000e+00 -1.027188e+01
    endloop
  endfacet
  facet normal 3.482719e-01 -2.848891e-01 -8.930537e-01
    outer loop
      vertex   3.823892e+00 -2.945103e+00 -1.026196e+01
      vertex   3.753563e+00 -3.000000e+00 -1.027188e+01
      vertex   3.755458e+00 -2.892396e+00 -1.030546e+01
    endloop
  endfacet
  facet normal 3.465353e-01 -2.850530e-01 -8.936767e-01
    outer loop
      vertex   3.755458e+00 -2.892396e+00 -1.030546e+01
      vertex   3.753563e+00 -3.000000e+00 -1.027188e+01
      vertex   3.696626e+00 -2.963917e+00 -1.030546e+01
    endloop
  endfacet
  facet normal 3.413271e-01 -2.807689e-01 -8.970310e-01
    outer loop
      vertex   3.755458e+00 -2.892396e+00 -1.030546e+01
      vertex   3.696626e+00 -2.963917e+00 -1.030546e+01
      vertex   3.629083e+00 -2.909761e+00 -1.034812e+01
    endloop
  endfacet
  facet normal 3.373404e-01 -2.857021e-01 -8.969815e-01
    outer loop
      vertex   3.629083e+00 -2.909761e+00 -1.034812e+01
      vertex   3.696626e+00 -2.963917e+00 -1.030546e+01
      vertex   3.629405e+00 -3.000000e+00 -1.031925e+01
    endloop
  endfacet
  facet normal 3.341046e-01 -2.860639e-01 -8.980766e-01
    outer loop
      vertex   3.629083e+00 -2.909761e+00 -1.034812e+01
      vertex   3.629405e+00 -3.000000e+00 -1.031925e+01
      vertex   3.569868e+00 -2.978921e+00 -1.034812e+01
    endloop
  endfacet
  facet normal 3.289095e-01 -2.980313e-01 -8.961004e-01
    outer loop
      vertex   3.569868e+00 -2.978921e+00 -1.034812e+01
      vertex   3.629405e+00 -3.000000e+00 -1.031925e+01
      vertex   3.504638e+00 -3.000000e+00 -1.036505e+01
    endloop
  endfacet
  facet normal 3.263585e-01 -2.863343e-01 -9.008345e-01
    outer loop
      vertex   3.569868e+00 -2.978921e+00 -1.034812e+01
      vertex   3.504638e+00 -3.000000e+00 -1.036505e+01
      vertex   3.503255e+00 -2.923340e+00 -1.038992e+01
    endloop
  endfacet
  facet normal 3.219659e-01 -2.868706e-01 -9.022434e-01
    outer loop
      vertex   3.503255e+00 -2.923340e+00 -1.038992e+01
      vertex   3.504638e+00 -3.000000e+00 -1.036505e+01
      vertex   3.443749e+00 -2.990126e+00 -1.038992e+01
    endloop
  endfacet
  facet normal 3.181899e-01 -2.835063e-01 -9.046432e-01
    outer loop
      vertex   3.503255e+00 -2.923340e+00 -1.038992e+01
      vertex   3.443749e+00 -2.990126e+00 -1.038992e+01
      vertex   3.436480e+00 -2.867625e+00 -1.043086e+01
    endloop
  endfacet
  facet normal 3.181897e-01 -2.835063e-01 -9.046433e-01
    outer loop
      vertex   3.436480e+00 -2.867625e+00 -1.043086e+01
      vertex   3.443749e+00 -2.990126e+00 -1.038992e+01
      vertex   3.378112e+00 -2.933134e+00 -1.043086e+01
    endloop
  endfacet
  facet normal 3.121452e-01 -2.781207e-01 -9.084130e-01
    outer loop
      vertex   3.436480e+00 -2.867625e+00 -1.043086e+01
      vertex   3.378112e+00 -2.933134e+00 -1.043086e+01
      vertex   3.369554e+00 -2.811782e+00 -1.047096e+01
    endloop
  endfacet
  facet normal 3.121450e-01 -2.781208e-01 -9.084131e-01
    outer loop
      vertex   3.369554e+00 -2.811782e+00 -1.047096e+01
      vertex   3.378112e+00 -2.933134e+00 -1.043086e+01
      vertex   3.312325e+00 -2.876013e+00 -1.047096e+01
    endloop
  endfacet
  facet normal 3.060822e-01 -2.727188e-01 -9.121064e-01
    outer loop
      vertex   3.369554e+00 -2.811782e+00 -1.047096e+01
      vertex   3.312325e+00 -2.876013e+00 -1.047096e+01
      vertex   3.302484e+00 -2.755819e+00 -1.051020e+01
    endloop
  endfacet
  facet normal 3.060820e-01 -2.727189e-01 -9.121065e-01
    outer loop
      vertex   3.302484e+00 -2.755819e+00 -1.051020e+01
      vertex   3.312325e+00 -2.876013e+00 -1.047096e+01
      vertex   3.246396e+00 -2.818769e+00 -1.051020e+01
    endloop
  endfacet
  facet normal 3.000017e-01 -2.673014e-01 -9.157232e-01
    outer loop
      vertex   3.302484e+00 -2.755819e+00 -1.051020e+01
      vertex   3.246396e+00 -2.818769e+00 -1.051020e+01
      vertex   3.235279e+00 -2.699744e+00 -1.054858e+01
    endloop
  endfacet
  facet normal 3.000015e-01 -2.673014e-01 -9.157232e-01
    outer loop
      vertex   3.235279e+00 -2.699744e+00 -1.054858e+01
      vertex   3.246396e+00 -2.818769e+00 -1.051020e+01
      vertex   3.180335e+00 -2.761409e+00 -1.054858e+01
    endloop
  endfacet
  facet normal 2.939046e-01 -2.618691e-01 -9.192631e-01
    outer loop
      vertex   3.235279e+00 -2.699744e+00 -1.054858e+01
      vertex   3.180335e+00 -2.761409e+00 -1.054858e+01
      vertex   3.167947e+00 -2.643562e+00 -1.058611e+01
    endloop
  endfacet
  facet normal 2.939044e-01 -2.618691e-01 -9.192632e-01
    outer loop
      vertex   3.167947e+00 -2.643562e+00 -1.058611e+01
      vertex   3.180335e+00 -2.761409e+00 -1.054858e+01
      vertex   3.114148e+00 -2.703941e+00 -1.058611e+01
    endloop
  endfacet
  facet normal 2.877916e-01 -2.564226e-01 -9.227261e-01
    outer loop
      vertex   3.167947e+00 -2.643562e+00 -1.058611e+01
      vertex   3.114148e+00 -2.703941e+00 -1.058611e+01
      vertex   3.100496e+00 -2.587281e+00 -1.062279e+01
    endloop
  endfacet
  facet normal 2.877914e-01 -2.564227e-01 -9.227261e-01
    outer loop
      vertex   3.100496e+00 -2.587281e+00 -1.062279e+01
      vertex   3.114148e+00 -2.703941e+00 -1.058611e+01
      vertex   3.047846e+00 -2.646372e+00 -1.062279e+01
    endloop
  endfacet
  facet normal 2.816637e-01 -2.509629e-01 -9.261119e-01
    outer loop
      vertex   3.100496e+00 -2.587281e+00 -1.062279e+01
      vertex   3.047846e+00 -2.646372e+00 -1.062279e+01
      vertex   3.032936e+00 -2.530909e+00 -1.065861e+01
    endloop
  endfacet
  facet normal 2.821505e-01 -2.508625e-01 -9.259909e-01
    outer loop
      vertex   3.032936e+00 -2.530909e+00 -1.065861e+01
      vertex   3.047846e+00 -2.646372e+00 -1.062279e+01
      vertex   3.000000e+00 -2.628276e+00 -1.064227e+01
    endloop
  endfacet
  facet normal 2.753348e-01 -2.489857e-01 -9.285456e-01
    outer loop
      vertex   3.032936e+00 -2.530909e+00 -1.065861e+01
      vertex   3.000000e+00 -2.628276e+00 -1.064227e+01
      vertex   3.000000e+00 -2.503427e+00 -1.067575e+01
    endloop
  endfacet
  facet normal 3.407886e-01 -2.936017e-01 -8.931188e-01
    outer loop
      vertex   3.753563e+00 -3.000000e+00 -1.027188e+01
      vertex   3.629405e+00 -3.000000e+00 -1.031925e+01
      vertex   3.696626e+00 -2.963917e+00 -1.030546e+01
    endloop
  endfacet
  facet normal 3.163471e-01 -3.085074e-01 -8.970773e-01
    outer loop
      vertex   3.504638e+00 -3.000000e+00 -1.036505e+01
      vertex   3.379277e+00 -3.000000e+00 -1.040926e+01
      vertex   3.443749e+00 -2.990126e+00 -1.038992e+01
    endloop
  endfacet
  facet normal 3.152870e-01 -2.868274e-01 -9.046127e-01
    outer loop
      vertex   3.443749e+00 -2.990126e+00 -1.038992e+01
      vertex   3.379277e+00 -3.000000e+00 -1.040926e+01
      vertex   3.378112e+00 -2.933134e+00 -1.043086e+01
    endloop
  endfacet
  facet normal 3.100674e-01 -2.874382e-01 -9.062215e-01
    outer loop
      vertex   3.378112e+00 -2.933134e+00 -1.043086e+01
      vertex   3.379277e+00 -3.000000e+00 -1.040926e+01
      vertex   3.318394e+00 -2.997553e+00 -1.043086e+01
    endloop
  endfacet
  facet normal 2.986054e-01 -3.633134e-01 -8.825181e-01
    outer loop
      vertex   3.318394e+00 -2.997553e+00 -1.043086e+01
      vertex   3.379277e+00 -3.000000e+00 -1.040926e+01
      vertex   3.253366e+00 -3.000000e+00 -1.045186e+01
    endloop
  endfacet
  facet normal 3.040718e-01 -2.872329e-01 -9.083158e-01
    outer loop
      vertex   3.318394e+00 -2.997553e+00 -1.043086e+01
      vertex   3.253366e+00 -3.000000e+00 -1.045186e+01
      vertex   3.253770e+00 -2.939177e+00 -1.047096e+01
    endloop
  endfacet
  facet normal 2.953177e-01 -2.880039e-01 -9.109562e-01
    outer loop
      vertex   3.253770e+00 -2.939177e+00 -1.047096e+01
      vertex   3.253366e+00 -3.000000e+00 -1.045186e+01
      vertex   3.126936e+00 -3.000000e+00 -1.049284e+01
    endloop
  endfacet
  facet normal 2.951118e-01 -2.874924e-01 -9.111845e-01
    outer loop
      vertex   3.253770e+00 -2.939177e+00 -1.047096e+01
      vertex   3.126936e+00 -3.000000e+00 -1.049284e+01
      vertex   3.130360e+00 -2.941490e+00 -1.051020e+01
    endloop
  endfacet
  facet normal 2.836999e-01 -2.878628e-01 -9.146854e-01
    outer loop
      vertex   3.130360e+00 -2.941490e+00 -1.051020e+01
      vertex   3.126936e+00 -3.000000e+00 -1.049284e+01
      vertex   3.008005e+00 -2.940104e+00 -1.054858e+01
    endloop
  endfacet
  facet normal 2.839967e-01 -2.848887e-01 -9.155241e-01
    outer loop
      vertex   3.130360e+00 -2.941490e+00 -1.051020e+01
      vertex   3.008005e+00 -2.940104e+00 -1.054858e+01
      vertex   3.066659e+00 -2.881633e+00 -1.054858e+01
    endloop
  endfacet
  facet normal 2.803722e-01 -2.812528e-01 -9.177627e-01
    outer loop
      vertex   3.066659e+00 -2.881633e+00 -1.054858e+01
      vertex   3.008005e+00 -2.940104e+00 -1.054858e+01
      vertex   3.000000e+00 -2.876576e+00 -1.057050e+01
    endloop
  endfacet
  facet normal 2.812191e-01 -2.759441e-01 -9.191141e-01
    outer loop
      vertex   3.066659e+00 -2.881633e+00 -1.054858e+01
      vertex   3.000000e+00 -2.876576e+00 -1.057050e+01
      vertex   3.002839e+00 -2.821663e+00 -1.058611e+01
    endloop
  endfacet
  facet normal 2.117659e-01 -2.774701e-01 -9.371049e-01
    outer loop
      vertex   3.002839e+00 -2.821663e+00 -1.058611e+01
      vertex   3.000000e+00 -2.876576e+00 -1.057050e+01
      vertex   3.000000e+00 -2.752664e+00 -1.060719e+01
    endloop
  endfacet
  facet normal 2.798273e-01 -2.698564e-01 -9.213437e-01
    outer loop
      vertex   3.002839e+00 -2.821663e+00 -1.058611e+01
      vertex   3.000000e+00 -2.752664e+00 -1.060719e+01
      vertex   3.059097e+00 -2.763326e+00 -1.058611e+01
    endloop
  endfacet
  facet normal 2.817505e-01 -2.623308e-01 -9.229297e-01
    outer loop
      vertex   3.059097e+00 -2.763326e+00 -1.058611e+01
      vertex   3.000000e+00 -2.752664e+00 -1.060719e+01
      vertex   3.047846e+00 -2.646372e+00 -1.062279e+01
    endloop
  endfacet
  facet normal 2.827862e-01 -2.621481e-01 -9.226648e-01
    outer loop
      vertex   3.059097e+00 -2.763326e+00 -1.058611e+01
      vertex   3.047846e+00 -2.646372e+00 -1.062279e+01
      vertex   3.114148e+00 -2.703941e+00 -1.058611e+01
    endloop
  endfacet
  facet normal 2.836601e-01 -2.879327e-01 -9.146757e-01
    outer loop
      vertex   3.126936e+00 -3.000000e+00 -1.049284e+01
      vertex   3.000000e+00 -3.000000e+00 -1.053221e+01
      vertex   3.008005e+00 -2.940104e+00 -1.054858e+01
    endloop
  endfacet
  facet normal 2.546998e-01 -2.865027e-01 -9.236039e-01
    outer loop
      vertex   3.008005e+00 -2.940104e+00 -1.054858e+01
      vertex   3.000000e+00 -3.000000e+00 -1.053221e+01
      vertex   3.000000e+00 -2.876576e+00 -1.057050e+01
    endloop
  endfacet
  facet normal 2.778100e-01 -2.607960e-01 -9.245578e-01
    outer loop
      vertex   3.000000e+00 -2.752664e+00 -1.060719e+01
      vertex   3.000000e+00 -2.628276e+00 -1.064227e+01
      vertex   3.047846e+00 -2.646372e+00 -1.062279e+01
    endloop
  endfacet
  facet normal 2.674899e-01 -2.374715e-01 -9.338396e-01
    outer loop
      vertex   3.000000e+00 -2.378134e+00 -1.070761e+01
      vertex   3.014483e+00 -2.416981e+00 -1.069358e+01
      vertex   3.000000e+00 -2.503427e+00 -1.067575e+01
    endloop
  endfacet
  facet normal 2.810653e-01 -2.388487e-01 -9.294910e-01
    outer loop
      vertex   3.000000e+00 -2.503427e+00 -1.067575e+01
      vertex   3.014483e+00 -2.416981e+00 -1.069358e+01
      vertex   3.083264e+00 -2.472130e+00 -1.065861e+01
    endloop
  endfacet
  facet normal 2.818059e-01 -2.412870e-01 -9.286366e-01
    outer loop
      vertex   3.000000e+00 -2.503427e+00 -1.067575e+01
      vertex   3.083264e+00 -2.472130e+00 -1.065861e+01
      vertex   3.032936e+00 -2.530909e+00 -1.065861e+01
    endloop
  endfacet
  facet normal 2.864503e-01 -2.452636e-01 -9.261706e-01
    outer loop
      vertex   3.032936e+00 -2.530909e+00 -1.065861e+01
      vertex   3.083264e+00 -2.472130e+00 -1.065861e+01
      vertex   3.100496e+00 -2.587281e+00 -1.062279e+01
    endloop
  endfacet
  facet normal 2.813115e-01 -2.314012e-01 -9.312987e-01
    outer loop
      vertex   3.014483e+00 -2.416981e+00 -1.069358e+01
      vertex   3.000000e+00 -2.378134e+00 -1.070761e+01
      vertex   3.062458e+00 -2.358658e+00 -1.069358e+01
    endloop
  endfacet
  facet normal 2.796563e-01 -2.245233e-01 -9.334782e-01
    outer loop
      vertex   3.062458e+00 -2.358658e+00 -1.069358e+01
      vertex   3.000000e+00 -2.378134e+00 -1.070761e+01
      vertex   3.000000e+00 -2.252451e+00 -1.073784e+01
    endloop
  endfacet
  facet normal 2.934223e-01 -1.963953e-01 -9.355919e-01
    outer loop
      vertex   3.167729e+00 -2.068961e+00 -1.072770e+01
      vertex   3.126841e+00 -2.000000e+00 -1.075500e+01
      vertex   3.208374e+00 -2.008236e+00 -1.072770e+01
    endloop
  endfacet
  facet normal 2.969853e-01 -1.728030e-01 -9.391160e-01
    outer loop
      vertex   3.208374e+00 -2.008236e+00 -1.072770e+01
      vertex   3.126841e+00 -2.000000e+00 -1.075500e+01
      vertex   3.253203e+00 -2.000000e+00 -1.071504e+01
    endloop
  endfacet
  facet normal 3.000069e-01 -1.985993e-01 -9.330349e-01
    outer loop
      vertex   3.208374e+00 -2.008236e+00 -1.072770e+01
      vertex   3.253203e+00 -2.000000e+00 -1.071504e+01
      vertex   3.283399e+00 -2.055187e+00 -1.069358e+01
    endloop
  endfacet
  facet normal 3.074198e-01 -1.939824e-01 -9.315921e-01
    outer loop
      vertex   3.283399e+00 -2.055187e+00 -1.069358e+01
      vertex   3.253203e+00 -2.000000e+00 -1.071504e+01
      vertex   3.379070e+00 -2.000000e+00 -1.067351e+01
    endloop
  endfacet
  facet normal 3.097221e-01 -1.986061e-01 -9.298537e-01
    outer loop
      vertex   3.283399e+00 -2.055187e+00 -1.069358e+01
      vertex   3.379070e+00 -2.000000e+00 -1.067351e+01
      vertex   3.358320e+00 -2.102074e+00 -1.065861e+01
    endloop
  endfacet
  facet normal 3.097232e-01 -1.986063e-01 -9.298533e-01
    outer loop
      vertex   3.358320e+00 -2.102074e+00 -1.065861e+01
      vertex   3.379070e+00 -2.000000e+00 -1.067351e+01
      vertex   3.399494e+00 -2.037864e+00 -1.065861e+01
    endloop
  endfacet
  facet normal 3.166334e-01 -2.030373e-01 -9.265631e-01
    outer loop
      vertex   3.358320e+00 -2.102074e+00 -1.065861e+01
      vertex   3.399494e+00 -2.037864e+00 -1.065861e+01
      vertex   3.433130e+00 -2.148890e+00 -1.062279e+01
    endloop
  endfacet
  facet normal 3.166338e-01 -2.030372e-01 -9.265630e-01
    outer loop
      vertex   3.433130e+00 -2.148890e+00 -1.062279e+01
      vertex   3.399494e+00 -2.037864e+00 -1.065861e+01
      vertex   3.475217e+00 -2.083257e+00 -1.062279e+01
    endloop
  endfacet
  facet normal 3.235291e-01 -2.074587e-01 -9.231954e-01
    outer loop
      vertex   3.433130e+00 -2.148890e+00 -1.062279e+01
      vertex   3.475217e+00 -2.083257e+00 -1.062279e+01
      vertex   3.507819e+00 -2.195630e+00 -1.058611e+01
    endloop
  endfacet
  facet normal 3.235296e-01 -2.074585e-01 -9.231953e-01
    outer loop
      vertex   3.507819e+00 -2.195630e+00 -1.058611e+01
      vertex   3.475217e+00 -2.083257e+00 -1.062279e+01
      vertex   3.550816e+00 -2.128576e+00 -1.058611e+01
    endloop
  endfacet
  facet normal 3.304085e-01 -2.118695e-01 -9.197508e-01
    outer loop
      vertex   3.507819e+00 -2.195630e+00 -1.058611e+01
      vertex   3.550816e+00 -2.128576e+00 -1.058611e+01
      vertex   3.582376e+00 -2.242288e+00 -1.054858e+01
    endloop
  endfacet
  facet normal 3.304090e-01 -2.118694e-01 -9.197507e-01
    outer loop
      vertex   3.582376e+00 -2.242288e+00 -1.054858e+01
      vertex   3.550816e+00 -2.128576e+00 -1.058611e+01
      vertex   3.626283e+00 -2.173815e+00 -1.054858e+01
    endloop
  endfacet
  facet normal 3.372705e-01 -2.162692e-01 -9.162294e-01
    outer loop
      vertex   3.582376e+00 -2.242288e+00 -1.054858e+01
      vertex   3.626283e+00 -2.173815e+00 -1.054858e+01
      vertex   3.656793e+00 -2.288857e+00 -1.051020e+01
    endloop
  endfacet
  facet normal 3.372710e-01 -2.162690e-01 -9.162292e-01
    outer loop
      vertex   3.656793e+00 -2.288857e+00 -1.051020e+01
      vertex   3.626283e+00 -2.173815e+00 -1.054858e+01
      vertex   3.701608e+00 -2.218969e+00 -1.051020e+01
    endloop
  endfacet
  facet normal 3.441142e-01 -2.206571e-01 -9.126313e-01
    outer loop
      vertex   3.656793e+00 -2.288857e+00 -1.051020e+01
      vertex   3.701608e+00 -2.218969e+00 -1.051020e+01
      vertex   3.731061e+00 -2.335332e+00 -1.047096e+01
    endloop
  endfacet
  facet normal 3.441147e-01 -2.206570e-01 -9.126311e-01
    outer loop
      vertex   3.731061e+00 -2.335332e+00 -1.047096e+01
      vertex   3.701608e+00 -2.218969e+00 -1.051020e+01
      vertex   3.776781e+00 -2.264033e+00 -1.047096e+01
    endloop
  endfacet
  facet normal 3.509387e-01 -2.250327e-01 -9.089567e-01
    outer loop
      vertex   3.731061e+00 -2.335332e+00 -1.047096e+01
      vertex   3.776781e+00 -2.264033e+00 -1.047096e+01
      vertex   3.805170e+00 -2.381707e+00 -1.043086e+01
    endloop
  endfacet
  facet normal 3.509392e-01 -2.250326e-01 -9.089565e-01
    outer loop
      vertex   3.805170e+00 -2.381707e+00 -1.043086e+01
      vertex   3.776781e+00 -2.264033e+00 -1.047096e+01
      vertex   3.851792e+00 -2.308999e+00 -1.043086e+01
    endloop
  endfacet
  facet normal 3.577431e-01 -2.293954e-01 -9.052059e-01
    outer loop
      vertex   3.805170e+00 -2.381707e+00 -1.043086e+01
      vertex   3.851792e+00 -2.308999e+00 -1.043086e+01
      vertex   3.879110e+00 -2.427977e+00 -1.038992e+01
    endloop
  endfacet
  facet normal 3.577436e-01 -2.293952e-01 -9.052057e-01
    outer loop
      vertex   3.879110e+00 -2.427977e+00 -1.038992e+01
      vertex   3.851792e+00 -2.308999e+00 -1.043086e+01
      vertex   3.926633e+00 -2.353863e+00 -1.038992e+01
    endloop
  endfacet
  facet normal 3.645264e-01 -2.337445e-01 -9.013790e-01
    outer loop
      vertex   3.879110e+00 -2.427977e+00 -1.038992e+01
      vertex   3.926633e+00 -2.353863e+00 -1.038992e+01
      vertex   3.952872e+00 -2.474134e+00 -1.034812e+01
    endloop
  endfacet
  facet normal 3.649658e-01 -2.335999e-01 -9.012386e-01
    outer loop
      vertex   3.952872e+00 -2.474134e+00 -1.034812e+01
      vertex   3.926633e+00 -2.353863e+00 -1.038992e+01
      vertex   4.000000e+00 -2.378318e+00 -1.035387e+01
    endloop
  endfacet
  facet normal 3.707308e-01 -2.362524e-01 -8.981890e-01
    outer loop
      vertex   3.952872e+00 -2.474134e+00 -1.034812e+01
      vertex   4.000000e+00 -2.378318e+00 -1.035387e+01
      vertex   4.000000e+00 -2.503625e+00 -1.032091e+01
    endloop
  endfacet
  facet normal 3.190665e-01 -1.928035e-01 -9.279135e-01
    outer loop
      vertex   3.379070e+00 -2.000000e+00 -1.067351e+01
      vertex   3.504413e+00 -2.000000e+00 -1.063041e+01
      vertex   3.399494e+00 -2.037864e+00 -1.065861e+01
    endloop
  endfacet
  facet normal 3.202486e-01 -1.970472e-01 -9.266138e-01
    outer loop
      vertex   3.399494e+00 -2.037864e+00 -1.065861e+01
      vertex   3.504413e+00 -2.000000e+00 -1.063041e+01
      vertex   3.475217e+00 -2.083257e+00 -1.062279e+01
    endloop
  endfacet
  facet normal 3.217406e-01 -1.975140e-01 -9.259974e-01
    outer loop
      vertex   3.475217e+00 -2.083257e+00 -1.062279e+01
      vertex   3.504413e+00 -2.000000e+00 -1.063041e+01
      vertex   3.515911e+00 -2.016968e+00 -1.062279e+01
    endloop
  endfacet
  facet normal 3.307239e-01 -1.906507e-01 -9.242694e-01
    outer loop
      vertex   3.515911e+00 -2.016968e+00 -1.062279e+01
      vertex   3.504413e+00 -2.000000e+00 -1.063041e+01
      vertex   3.629190e+00 -2.000000e+00 -1.058576e+01
    endloop
  endfacet
  facet normal 3.310249e-01 -1.947726e-01 -9.233017e-01
    outer loop
      vertex   3.515911e+00 -2.016968e+00 -1.062279e+01
      vertex   3.629190e+00 -2.000000e+00 -1.058576e+01
      vertex   3.592396e+00 -2.060844e+00 -1.058611e+01
    endloop
  endfacet
  facet normal 3.380074e-01 -1.990153e-01 -9.198608e-01
    outer loop
      vertex   3.592396e+00 -2.060844e+00 -1.058611e+01
      vertex   3.629190e+00 -2.000000e+00 -1.058576e+01
      vertex   3.668746e+00 -2.104644e+00 -1.054858e+01
    endloop
  endfacet
  facet normal 3.343882e-01 -2.052783e-01 -9.198072e-01
    outer loop
      vertex   3.592396e+00 -2.060844e+00 -1.058611e+01
      vertex   3.668746e+00 -2.104644e+00 -1.054858e+01
      vertex   3.550816e+00 -2.128576e+00 -1.058611e+01
    endloop
  endfacet
  facet normal 3.343882e-01 -2.052783e-01 -9.198072e-01
    outer loop
      vertex   3.550816e+00 -2.128576e+00 -1.058611e+01
      vertex   3.668746e+00 -2.104644e+00 -1.054858e+01
      vertex   3.626283e+00 -2.173815e+00 -1.054858e+01
    endloop
  endfacet
  facet normal 3.385029e-01 -1.987812e-01 -9.197292e-01
    outer loop
      vertex   3.668746e+00 -2.104644e+00 -1.054858e+01
      vertex   3.629190e+00 -2.000000e+00 -1.058576e+01
      vertex   3.709729e+00 -2.034855e+00 -1.054858e+01
    endloop
  endfacet
  facet normal 3.421831e-01 -1.906591e-01 -9.200869e-01
    outer loop
      vertex   3.709729e+00 -2.034855e+00 -1.054858e+01
      vertex   3.629190e+00 -2.000000e+00 -1.058576e+01
      vertex   3.753390e+00 -2.000000e+00 -1.053957e+01
    endloop
  endfacet
  facet normal 3.476385e-01 -1.984495e-01 -9.163871e-01
    outer loop
      vertex   3.709729e+00 -2.034855e+00 -1.054858e+01
      vertex   3.753390e+00 -2.000000e+00 -1.053957e+01
      vertex   3.786787e+00 -2.077123e+00 -1.051020e+01
    endloop
  endfacet
  facet normal 3.506902e-01 -1.968190e-01 -9.155756e-01
    outer loop
      vertex   3.786787e+00 -2.077123e+00 -1.051020e+01
      vertex   3.753390e+00 -2.000000e+00 -1.053957e+01
      vertex   3.827097e+00 -2.005300e+00 -1.051020e+01
    endloop
  endfacet
  facet normal 3.561313e-01 -1.998727e-01 -9.128096e-01
    outer loop
      vertex   3.786787e+00 -2.077123e+00 -1.051020e+01
      vertex   3.827097e+00 -2.005300e+00 -1.051020e+01
      vertex   3.904818e+00 -2.046024e+00 -1.047096e+01
    endloop
  endfacet
  facet normal 3.568373e-01 -1.985399e-01 -9.128248e-01
    outer loop
      vertex   3.904818e+00 -2.046024e+00 -1.047096e+01
      vertex   3.827097e+00 -2.005300e+00 -1.051020e+01
      vertex   3.876997e+00 -2.000000e+00 -1.049184e+01
    endloop
  endfacet
  facet normal 3.647526e-01 -1.928847e-01 -9.109067e-01
    outer loop
      vertex   3.904818e+00 -2.046024e+00 -1.047096e+01
      vertex   3.876997e+00 -2.000000e+00 -1.049184e+01
      vertex   4.000000e+00 -2.000000e+00 -1.044259e+01
    endloop
  endfacet
  facet normal 3.556290e-01 -1.585961e-01 -9.210729e-01
    outer loop
      vertex   3.753390e+00 -2.000000e+00 -1.053957e+01
      vertex   3.876997e+00 -2.000000e+00 -1.049184e+01
      vertex   3.827097e+00 -2.005300e+00 -1.051020e+01
    endloop
  endfacet
  facet normal 3.665087e-01 -1.975710e-01 -9.091959e-01
    outer loop
      vertex   3.904818e+00 -2.046024e+00 -1.047096e+01
      vertex   4.000000e+00 -2.000000e+00 -1.044259e+01
      vertex   3.982373e+00 -2.086660e+00 -1.043086e+01
    endloop
  endfacet
  facet normal 3.781299e-01 -1.992396e-01 -9.040583e-01
    outer loop
      vertex   3.982373e+00 -2.086660e+00 -1.043086e+01
      vertex   4.000000e+00 -2.000000e+00 -1.044259e+01
      vertex   4.000000e+00 -2.126490e+00 -1.041471e+01
    endloop
  endfacet
  facet normal 3.665396e-01 -2.057142e-01 -9.073755e-01
    outer loop
      vertex   3.982373e+00 -2.086660e+00 -1.043086e+01
      vertex   4.000000e+00 -2.126490e+00 -1.041471e+01
      vertex   3.940428e+00 -2.161398e+00 -1.043086e+01
    endloop
  endfacet
  facet normal 3.695789e-01 -2.121598e-01 -9.046545e-01
    outer loop
      vertex   3.940428e+00 -2.161398e+00 -1.043086e+01
      vertex   4.000000e+00 -2.126490e+00 -1.041471e+01
      vertex   4.000000e+00 -2.252601e+00 -1.038514e+01
    endloop
  endfacet
  facet normal 3.659806e-01 -2.149171e-01 -9.054661e-01
    outer loop
      vertex   3.940428e+00 -2.161398e+00 -1.043086e+01
      vertex   4.000000e+00 -2.252601e+00 -1.038514e+01
      vertex   3.896897e+00 -2.235527e+00 -1.043086e+01
    endloop
  endfacet
  facet normal 3.657661e-01 -2.158500e-01 -9.053308e-01
    outer loop
      vertex   3.896897e+00 -2.235527e+00 -1.043086e+01
      vertex   4.000000e+00 -2.252601e+00 -1.038514e+01
      vertex   3.972614e+00 -2.278963e+00 -1.038992e+01
    endloop
  endfacet
  facet normal 3.620550e-01 -2.222627e-01 -9.052710e-01
    outer loop
      vertex   3.896897e+00 -2.235527e+00 -1.043086e+01
      vertex   3.972614e+00 -2.278963e+00 -1.038992e+01
      vertex   3.851792e+00 -2.308999e+00 -1.043086e+01
    endloop
  endfacet
  facet normal 3.620550e-01 -2.222627e-01 -9.052710e-01
    outer loop
      vertex   3.851792e+00 -2.308999e+00 -1.043086e+01
      vertex   3.972614e+00 -2.278963e+00 -1.038992e+01
      vertex   3.926633e+00 -2.353863e+00 -1.038992e+01
    endloop
  endfacet
  facet normal 3.727516e-01 -2.239836e-01 -9.004930e-01
    outer loop
      vertex   4.000000e+00 -2.252601e+00 -1.038514e+01
      vertex   4.000000e+00 -2.378318e+00 -1.035387e+01
      vertex   3.972614e+00 -2.278963e+00 -1.038992e+01
    endloop
  endfacet
  facet normal 3.679221e-01 -2.258645e-01 -9.020081e-01
    outer loop
      vertex   3.972614e+00 -2.278963e+00 -1.038992e+01
      vertex   4.000000e+00 -2.378318e+00 -1.035387e+01
      vertex   3.926633e+00 -2.353863e+00 -1.038992e+01
    endloop
  endfacet
  facet normal 3.743699e-01 -2.478815e-01 -8.935334e-01
    outer loop
      vertex   4.000000e+00 -2.628477e+00 -1.028627e+01
      vertex   3.975381e+00 -2.596469e+00 -1.030546e+01
      vertex   4.000000e+00 -2.503625e+00 -1.032091e+01
    endloop
  endfacet
  facet normal 3.660603e-01 -2.463211e-01 -8.973995e-01
    outer loop
      vertex   4.000000e+00 -2.503625e+00 -1.032091e+01
      vertex   3.975381e+00 -2.596469e+00 -1.030546e+01
      vertex   3.902745e+00 -2.549028e+00 -1.034812e+01
    endloop
  endfacet
  facet normal 3.654594e-01 -2.446064e-01 -8.981131e-01
    outer loop
      vertex   4.000000e+00 -2.503625e+00 -1.032091e+01
      vertex   3.902745e+00 -2.549028e+00 -1.034812e+01
      vertex   3.952872e+00 -2.474134e+00 -1.034812e+01
    endloop
  endfacet
  facet normal 3.599836e-01 -2.409413e-01 -9.013097e-01
    outer loop
      vertex   3.952872e+00 -2.474134e+00 -1.034812e+01
      vertex   3.902745e+00 -2.549028e+00 -1.034812e+01
      vertex   3.879110e+00 -2.427977e+00 -1.038992e+01
    endloop
  endfacet
  facet normal 3.926556e-01 -2.576961e-01 -8.828445e-01
    outer loop
      vertex   4.000000e+00 -2.752833e+00 -1.024997e+01
      vertex   3.994244e+00 -2.720521e+00 -1.026196e+01
      vertex   4.000000e+00 -2.628477e+00 -1.028627e+01
    endloop
  endfacet
  facet normal 3.673226e-01 -2.588833e-01 -8.933384e-01
    outer loop
      vertex   4.000000e+00 -2.628477e+00 -1.028627e+01
      vertex   3.994244e+00 -2.720521e+00 -1.026196e+01
      vertex   3.922762e+00 -2.671834e+00 -1.030546e+01
    endloop
  endfacet
  facet normal 3.657623e-01 -2.553738e-01 -8.949872e-01
    outer loop
      vertex   4.000000e+00 -2.628477e+00 -1.028627e+01
      vertex   3.922762e+00 -2.671834e+00 -1.030546e+01
      vertex   3.975381e+00 -2.596469e+00 -1.030546e+01
    endloop
  endfacet
  facet normal 3.618790e-01 -2.526625e-01 -8.973323e-01
    outer loop
      vertex   3.975381e+00 -2.596469e+00 -1.030546e+01
      vertex   3.922762e+00 -2.671834e+00 -1.030546e+01
      vertex   3.851087e+00 -2.623015e+00 -1.034812e+01
    endloop
  endfacet
  facet normal 3.618790e-01 -2.526625e-01 -8.973323e-01
    outer loop
      vertex   3.975381e+00 -2.596469e+00 -1.030546e+01
      vertex   3.851087e+00 -2.623015e+00 -1.034812e+01
      vertex   3.902745e+00 -2.549028e+00 -1.034812e+01
    endloop
  endfacet
  facet normal 3.552914e-01 -2.480630e-01 -9.012396e-01
    outer loop
      vertex   3.902745e+00 -2.549028e+00 -1.034812e+01
      vertex   3.851087e+00 -2.623015e+00 -1.034812e+01
      vertex   3.779229e+00 -2.574072e+00 -1.038992e+01
    endloop
  endfacet
  facet normal 3.552914e-01 -2.480630e-01 -9.012396e-01
    outer loop
      vertex   3.902745e+00 -2.549028e+00 -1.034812e+01
      vertex   3.779229e+00 -2.574072e+00 -1.038992e+01
      vertex   3.829923e+00 -2.501465e+00 -1.038992e+01
    endloop
  endfacet
  facet normal 3.486821e-01 -2.434485e-01 -9.050710e-01
    outer loop
      vertex   3.829923e+00 -2.501465e+00 -1.038992e+01
      vertex   3.779229e+00 -2.574072e+00 -1.038992e+01
      vertex   3.707198e+00 -2.525011e+00 -1.043086e+01
    endloop
  endfacet
  facet normal 3.486821e-01 -2.434485e-01 -9.050710e-01
    outer loop
      vertex   3.829923e+00 -2.501465e+00 -1.038992e+01
      vertex   3.707198e+00 -2.525011e+00 -1.043086e+01
      vertex   3.756925e+00 -2.453788e+00 -1.043086e+01
    endloop
  endfacet
  facet normal 3.420522e-01 -2.388195e-01 -9.088264e-01
    outer loop
      vertex   3.756925e+00 -2.453788e+00 -1.043086e+01
      vertex   3.707198e+00 -2.525011e+00 -1.043086e+01
      vertex   3.635002e+00 -2.475837e+00 -1.047096e+01
    endloop
  endfacet
  facet normal 3.420522e-01 -2.388195e-01 -9.088264e-01
    outer loop
      vertex   3.756925e+00 -2.453788e+00 -1.043086e+01
      vertex   3.635002e+00 -2.475837e+00 -1.047096e+01
      vertex   3.683761e+00 -2.406001e+00 -1.047096e+01
    endloop
  endfacet
  facet normal 3.354026e-01 -2.341768e-01 -9.125055e-01
    outer loop
      vertex   3.683761e+00 -2.406001e+00 -1.047096e+01
      vertex   3.635002e+00 -2.475837e+00 -1.047096e+01
      vertex   3.562651e+00 -2.426558e+00 -1.051020e+01
    endloop
  endfacet
  facet normal 3.354026e-01 -2.341768e-01 -9.125055e-01
    outer loop
      vertex   3.683761e+00 -2.406001e+00 -1.047096e+01
      vertex   3.562651e+00 -2.426558e+00 -1.051020e+01
      vertex   3.610440e+00 -2.358112e+00 -1.051020e+01
    endloop
  endfacet
  facet normal 3.287341e-01 -2.295209e-01 -9.161081e-01
    outer loop
      vertex   3.610440e+00 -2.358112e+00 -1.051020e+01
      vertex   3.562651e+00 -2.426558e+00 -1.051020e+01
      vertex   3.490154e+00 -2.377180e+00 -1.054858e+01
    endloop
  endfacet
  facet normal 3.287341e-01 -2.295209e-01 -9.161081e-01
    outer loop
      vertex   3.610440e+00 -2.358112e+00 -1.051020e+01
      vertex   3.490154e+00 -2.377180e+00 -1.054858e+01
      vertex   3.536970e+00 -2.310127e+00 -1.054858e+01
    endloop
  endfacet
  facet normal 3.220477e-01 -2.248524e-01 -9.196340e-01
    outer loop
      vertex   3.536970e+00 -2.310127e+00 -1.054858e+01
      vertex   3.490154e+00 -2.377180e+00 -1.054858e+01
      vertex   3.417520e+00 -2.327708e+00 -1.058611e+01
    endloop
  endfacet
  facet normal 3.220477e-01 -2.248524e-01 -9.196340e-01
    outer loop
      vertex   3.536970e+00 -2.310127e+00 -1.054858e+01
      vertex   3.417520e+00 -2.327708e+00 -1.058611e+01
      vertex   3.463362e+00 -2.262050e+00 -1.058611e+01
    endloop
  endfacet
  facet normal 3.153443e-01 -2.201721e-01 -9.230830e-01
    outer loop
      vertex   3.463362e+00 -2.262050e+00 -1.058611e+01
      vertex   3.417520e+00 -2.327708e+00 -1.058611e+01
      vertex   3.344759e+00 -2.278150e+00 -1.062279e+01
    endloop
  endfacet
  facet normal 3.153443e-01 -2.201721e-01 -9.230830e-01
    outer loop
      vertex   3.463362e+00 -2.262050e+00 -1.058611e+01
      vertex   3.344759e+00 -2.278150e+00 -1.062279e+01
      vertex   3.389625e+00 -2.213890e+00 -1.062279e+01
    endloop
  endfacet
  facet normal 3.086247e-01 -2.154806e-01 -9.264550e-01
    outer loop
      vertex   3.389625e+00 -2.213890e+00 -1.062279e+01
      vertex   3.344759e+00 -2.278150e+00 -1.062279e+01
      vertex   3.271879e+00 -2.228511e+00 -1.065861e+01
    endloop
  endfacet
  facet normal 3.086247e-01 -2.154806e-01 -9.264550e-01
    outer loop
      vertex   3.389625e+00 -2.213890e+00 -1.062279e+01
      vertex   3.271879e+00 -2.228511e+00 -1.065861e+01
      vertex   3.315767e+00 -2.165651e+00 -1.065861e+01
    endloop
  endfacet
  facet normal 3.018900e-01 -2.107784e-01 -9.297499e-01
    outer loop
      vertex   3.315767e+00 -2.165651e+00 -1.065861e+01
      vertex   3.271879e+00 -2.228511e+00 -1.065861e+01
      vertex   3.198889e+00 -2.178797e+00 -1.069358e+01
    endloop
  endfacet
  facet normal 3.018900e-01 -2.107784e-01 -9.297499e-01
    outer loop
      vertex   3.315767e+00 -2.165651e+00 -1.065861e+01
      vertex   3.198889e+00 -2.178797e+00 -1.069358e+01
      vertex   3.241799e+00 -2.117339e+00 -1.069358e+01
    endloop
  endfacet
  facet normal 2.951410e-01 -2.060663e-01 -9.329676e-01
    outer loop
      vertex   3.241799e+00 -2.117339e+00 -1.069358e+01
      vertex   3.198889e+00 -2.178797e+00 -1.069358e+01
      vertex   3.125800e+00 -2.129015e+00 -1.072770e+01
    endloop
  endfacet
  facet normal 2.951410e-01 -2.060663e-01 -9.329676e-01
    outer loop
      vertex   3.241799e+00 -2.117339e+00 -1.069358e+01
      vertex   3.125800e+00 -2.129015e+00 -1.072770e+01
      vertex   3.167729e+00 -2.068961e+00 -1.072770e+01
    endloop
  endfacet
  facet normal 3.653915e-01 -2.659682e-01 -8.920482e-01
    outer loop
      vertex   3.994244e+00 -2.720521e+00 -1.026196e+01
      vertex   4.000000e+00 -2.752833e+00 -1.024997e+01
      vertex   3.939047e+00 -2.796353e+00 -1.026196e+01
    endloop
  endfacet
  facet normal 3.692295e-01 -2.723081e-01 -8.885482e-01
    outer loop
      vertex   3.939047e+00 -2.796353e+00 -1.026196e+01
      vertex   4.000000e+00 -2.752833e+00 -1.024997e+01
      vertex   4.000000e+00 -2.876679e+00 -1.021202e+01
    endloop
  endfacet
  facet normal 2.956797e-01 -2.335959e-01 -9.262864e-01
    outer loop
      vertex   3.180142e+00 -2.351962e+00 -1.065861e+01
      vertex   3.250978e+00 -2.404352e+00 -1.062279e+01
      vertex   3.132334e+00 -2.412476e+00 -1.065861e+01
    endloop
  endfacet
  facet normal 2.956797e-01 -2.335959e-01 -9.262864e-01
    outer loop
      vertex   3.132334e+00 -2.412476e+00 -1.065861e+01
      vertex   3.250978e+00 -2.404352e+00 -1.062279e+01
      vertex   3.202106e+00 -2.466213e+00 -1.062279e+01
    endloop
  endfacet
  facet normal 2.911239e-01 -2.394727e-01 -9.262287e-01
    outer loop
      vertex   3.132334e+00 -2.412476e+00 -1.065861e+01
      vertex   3.202106e+00 -2.466213e+00 -1.062279e+01
      vertex   3.083264e+00 -2.472130e+00 -1.065861e+01
    endloop
  endfacet
  facet normal 2.911239e-01 -2.394727e-01 -9.262287e-01
    outer loop
      vertex   3.083264e+00 -2.472130e+00 -1.065861e+01
      vertex   3.202106e+00 -2.466213e+00 -1.062279e+01
      vertex   3.151943e+00 -2.527195e+00 -1.062279e+01
    endloop
  endfacet
  facet normal 2.864505e-01 -2.452635e-01 -9.261706e-01
    outer loop
      vertex   3.083264e+00 -2.472130e+00 -1.065861e+01
      vertex   3.151943e+00 -2.527195e+00 -1.062279e+01
      vertex   3.100496e+00 -2.587281e+00 -1.062279e+01
    endloop
  endfacet
  facet normal 2.926832e-01 -2.506001e-01 -9.227872e-01
    outer loop
      vertex   3.100496e+00 -2.587281e+00 -1.062279e+01
      vertex   3.151943e+00 -2.527195e+00 -1.062279e+01
      vertex   3.167947e+00 -2.643562e+00 -1.058611e+01
    endloop
  endfacet
  facet normal 3.021150e-01 -2.386799e-01 -9.229076e-01
    outer loop
      vertex   3.250978e+00 -2.404352e+00 -1.062279e+01
      vertex   3.321700e+00 -2.456655e+00 -1.058611e+01
      vertex   3.202106e+00 -2.466213e+00 -1.062279e+01
    endloop
  endfacet
  facet normal 3.021150e-01 -2.386799e-01 -9.229076e-01
    outer loop
      vertex   3.202106e+00 -2.466213e+00 -1.062279e+01
      vertex   3.321700e+00 -2.456655e+00 -1.058611e+01
      vertex   3.271764e+00 -2.519862e+00 -1.058611e+01
    endloop
  endfacet
  facet normal 2.974592e-01 -2.446840e-01 -9.228476e-01
    outer loop
      vertex   3.202106e+00 -2.466213e+00 -1.062279e+01
      vertex   3.271764e+00 -2.519862e+00 -1.058611e+01
      vertex   3.151943e+00 -2.527195e+00 -1.062279e+01
    endloop
  endfacet
  facet normal 2.974592e-01 -2.446840e-01 -9.228476e-01
    outer loop
      vertex   3.151943e+00 -2.527195e+00 -1.062279e+01
      vertex   3.271764e+00 -2.519862e+00 -1.058611e+01
      vertex   3.220510e+00 -2.582172e+00 -1.058611e+01
    endloop
  endfacet
  facet normal 2.926834e-01 -2.506000e-01 -9.227871e-01
    outer loop
      vertex   3.151943e+00 -2.527195e+00 -1.062279e+01
      vertex   3.220510e+00 -2.582172e+00 -1.058611e+01
      vertex   3.167947e+00 -2.643562e+00 -1.058611e+01
    endloop
  endfacet
  facet normal 2.989009e-01 -2.559235e-01 -9.193266e-01
    outer loop
      vertex   3.167947e+00 -2.643562e+00 -1.058611e+01
      vertex   3.220510e+00 -2.582172e+00 -1.058611e+01
      vertex   3.235279e+00 -2.699744e+00 -1.054858e+01
    endloop
  endfacet
  facet normal 3.085347e-01 -2.437517e-01 -9.194517e-01
    outer loop
      vertex   3.321700e+00 -2.456655e+00 -1.058611e+01
      vertex   3.392297e+00 -2.508868e+00 -1.054858e+01
      vertex   3.271764e+00 -2.519862e+00 -1.058611e+01
    endloop
  endfacet
  facet normal 3.085347e-01 -2.437517e-01 -9.194517e-01
    outer loop
      vertex   3.271764e+00 -2.519862e+00 -1.058611e+01
      vertex   3.392297e+00 -2.508868e+00 -1.054858e+01
      vertex   3.341300e+00 -2.573418e+00 -1.054858e+01
    endloop
  endfacet
  facet normal 3.037791e-01 -2.498826e-01 -9.193894e-01
    outer loop
      vertex   3.271764e+00 -2.519862e+00 -1.058611e+01
      vertex   3.341300e+00 -2.573418e+00 -1.054858e+01
      vertex   3.220510e+00 -2.582172e+00 -1.058611e+01
    endloop
  endfacet
  facet normal 3.037791e-01 -2.498826e-01 -9.193894e-01
    outer loop
      vertex   3.220510e+00 -2.582172e+00 -1.058611e+01
      vertex   3.341300e+00 -2.573418e+00 -1.054858e+01
      vertex   3.288957e+00 -2.637051e+00 -1.054858e+01
    endloop
  endfacet
  facet normal 2.989011e-01 -2.559235e-01 -9.193265e-01
    outer loop
      vertex   3.220510e+00 -2.582172e+00 -1.058611e+01
      vertex   3.288957e+00 -2.637051e+00 -1.054858e+01
      vertex   3.235279e+00 -2.699744e+00 -1.054858e+01
    endloop
  endfacet
  facet normal 3.051026e-01 -2.612333e-01 -9.157891e-01
    outer loop
      vertex   3.235279e+00 -2.699744e+00 -1.054858e+01
      vertex   3.288957e+00 -2.637051e+00 -1.054858e+01
      vertex   3.302484e+00 -2.755819e+00 -1.051020e+01
    endloop
  endfacet
  facet normal 3.149379e-01 -2.488104e-01 -9.159189e-01
    outer loop
      vertex   3.392297e+00 -2.508868e+00 -1.054858e+01
      vertex   3.462761e+00 -2.560981e+00 -1.051020e+01
      vertex   3.341300e+00 -2.573418e+00 -1.054858e+01
    endloop
  endfacet
  facet normal 3.149379e-01 -2.488104e-01 -9.159189e-01
    outer loop
      vertex   3.341300e+00 -2.573418e+00 -1.054858e+01
      vertex   3.462761e+00 -2.560981e+00 -1.051020e+01
      vertex   3.410705e+00 -2.626873e+00 -1.051020e+01
    endloop
  endfacet
  facet normal 3.100828e-01 -2.550679e-01 -9.158543e-01
    outer loop
      vertex   3.341300e+00 -2.573418e+00 -1.054858e+01
      vertex   3.410705e+00 -2.626873e+00 -1.051020e+01
      vertex   3.288957e+00 -2.637051e+00 -1.054858e+01
    endloop
  endfacet
  facet normal 3.100828e-01 -2.550679e-01 -9.158543e-01
    outer loop
      vertex   3.288957e+00 -2.637051e+00 -1.054858e+01
      vertex   3.410705e+00 -2.626873e+00 -1.051020e+01
      vertex   3.357274e+00 -2.691828e+00 -1.051020e+01
    endloop
  endfacet
  facet normal 3.051028e-01 -2.612332e-01 -9.157890e-01
    outer loop
      vertex   3.288957e+00 -2.637051e+00 -1.054858e+01
      vertex   3.357274e+00 -2.691828e+00 -1.051020e+01
      vertex   3.302484e+00 -2.755819e+00 -1.051020e+01
    endloop
  endfacet
  facet normal 3.112874e-01 -2.665285e-01 -9.121747e-01
    outer loop
      vertex   3.302484e+00 -2.755819e+00 -1.051020e+01
      vertex   3.357274e+00 -2.691828e+00 -1.051020e+01
      vertex   3.369554e+00 -2.811782e+00 -1.047096e+01
    endloop
  endfacet
  facet normal 3.213238e-01 -2.538555e-01 -9.123094e-01
    outer loop
      vertex   3.462761e+00 -2.560981e+00 -1.051020e+01
      vertex   3.533084e+00 -2.612990e+00 -1.047096e+01
      vertex   3.410705e+00 -2.626873e+00 -1.051020e+01
    endloop
  endfacet
  facet normal 3.213238e-01 -2.538555e-01 -9.123094e-01
    outer loop
      vertex   3.410705e+00 -2.626873e+00 -1.051020e+01
      vertex   3.533084e+00 -2.612990e+00 -1.047096e+01
      vertex   3.479970e+00 -2.680220e+00 -1.047096e+01
    endloop
  endfacet
  facet normal 3.163693e-01 -2.602391e-01 -9.122423e-01
    outer loop
      vertex   3.410705e+00 -2.626873e+00 -1.051020e+01
      vertex   3.479970e+00 -2.680220e+00 -1.047096e+01
      vertex   3.357274e+00 -2.691828e+00 -1.051020e+01
    endloop
  endfacet
  facet normal 3.163693e-01 -2.602391e-01 -9.122423e-01
    outer loop
      vertex   3.357274e+00 -2.691828e+00 -1.051020e+01
      vertex   3.479970e+00 -2.680220e+00 -1.047096e+01
      vertex   3.425454e+00 -2.746494e+00 -1.047096e+01
    endloop
  endfacet
  facet normal 3.112876e-01 -2.665285e-01 -9.121747e-01
    outer loop
      vertex   3.357274e+00 -2.691828e+00 -1.051020e+01
      vertex   3.425454e+00 -2.746494e+00 -1.047096e+01
      vertex   3.369554e+00 -2.811782e+00 -1.047096e+01
    endloop
  endfacet
  facet normal 3.174544e-01 -2.718086e-01 -9.084838e-01
    outer loop
      vertex   3.369554e+00 -2.811782e+00 -1.047096e+01
      vertex   3.425454e+00 -2.746494e+00 -1.047096e+01
      vertex   3.436480e+00 -2.867625e+00 -1.043086e+01
    endloop
  endfacet
  facet normal 3.276915e-01 -2.588862e-01 -9.086232e-01
    outer loop
      vertex   3.533084e+00 -2.612990e+00 -1.047096e+01
      vertex   3.603255e+00 -2.664888e+00 -1.043086e+01
      vertex   3.479970e+00 -2.680220e+00 -1.047096e+01
    endloop
  endfacet
  facet normal 3.276915e-01 -2.588862e-01 -9.086232e-01
    outer loop
      vertex   3.479970e+00 -2.680220e+00 -1.047096e+01
      vertex   3.603255e+00 -2.664888e+00 -1.043086e+01
      vertex   3.549087e+00 -2.733452e+00 -1.043086e+01
    endloop
  endfacet
  facet normal 3.226379e-01 -2.653955e-01 -9.085538e-01
    outer loop
      vertex   3.479970e+00 -2.680220e+00 -1.047096e+01
      vertex   3.549087e+00 -2.733452e+00 -1.043086e+01
      vertex   3.425454e+00 -2.746494e+00 -1.047096e+01
    endloop
  endfacet
  facet normal 3.226379e-01 -2.653955e-01 -9.085538e-01
    outer loop
      vertex   3.425454e+00 -2.746494e+00 -1.047096e+01
      vertex   3.549087e+00 -2.733452e+00 -1.043086e+01
      vertex   3.493488e+00 -2.801043e+00 -1.043086e+01
    endloop
  endfacet
  facet normal 3.174547e-01 -2.718085e-01 -9.084837e-01
    outer loop
      vertex   3.425454e+00 -2.746494e+00 -1.047096e+01
      vertex   3.493488e+00 -2.801043e+00 -1.043086e+01
      vertex   3.436480e+00 -2.867625e+00 -1.043086e+01
    endloop
  endfacet
  facet normal 3.236029e-01 -2.770727e-01 -9.047165e-01
    outer loop
      vertex   3.436480e+00 -2.867625e+00 -1.043086e+01
      vertex   3.493488e+00 -2.801043e+00 -1.043086e+01
      vertex   3.503255e+00 -2.923340e+00 -1.038992e+01
    endloop
  endfacet
  facet normal 3.340402e-01 -2.639018e-01 -9.048608e-01
    outer loop
      vertex   3.603255e+00 -2.664888e+00 -1.043086e+01
      vertex   3.673267e+00 -2.716667e+00 -1.038992e+01
      vertex   3.549087e+00 -2.733452e+00 -1.043086e+01
    endloop
  endfacet
  facet normal 3.340402e-01 -2.639018e-01 -9.048608e-01
    outer loop
      vertex   3.549087e+00 -2.733452e+00 -1.043086e+01
      vertex   3.673267e+00 -2.716667e+00 -1.038992e+01
      vertex   3.618047e+00 -2.786564e+00 -1.038992e+01
    endloop
  endfacet
  facet normal 3.288876e-01 -2.705364e-01 -9.047889e-01
    outer loop
      vertex   3.549087e+00 -2.733452e+00 -1.043086e+01
      vertex   3.618047e+00 -2.786564e+00 -1.038992e+01
      vertex   3.493488e+00 -2.801043e+00 -1.043086e+01
    endloop
  endfacet
  facet normal 3.288876e-01 -2.705364e-01 -9.047889e-01
    outer loop
      vertex   3.493488e+00 -2.801043e+00 -1.043086e+01
      vertex   3.618047e+00 -2.786564e+00 -1.038992e+01
      vertex   3.561368e+00 -2.855468e+00 -1.038992e+01
    endloop
  endfacet
  facet normal 3.236031e-01 -2.770727e-01 -9.047164e-01
    outer loop
      vertex   3.493488e+00 -2.801043e+00 -1.043086e+01
      vertex   3.561368e+00 -2.855468e+00 -1.038992e+01
      vertex   3.503255e+00 -2.923340e+00 -1.038992e+01
    endloop
  endfacet
  facet normal 3.297319e-01 -2.823202e-01 -9.008730e-01
    outer loop
      vertex   3.503255e+00 -2.923340e+00 -1.038992e+01
      vertex   3.561368e+00 -2.855468e+00 -1.038992e+01
      vertex   3.569868e+00 -2.978921e+00 -1.034812e+01
    endloop
  endfacet
  facet normal 3.403688e-01 -2.689016e-01 -9.010222e-01
    outer loop
      vertex   3.673267e+00 -2.716667e+00 -1.038992e+01
      vertex   3.743110e+00 -2.768321e+00 -1.034812e+01
      vertex   3.618047e+00 -2.786564e+00 -1.038992e+01
    endloop
  endfacet
  facet normal 3.403688e-01 -2.689016e-01 -9.010222e-01
    outer loop
      vertex   3.618047e+00 -2.786564e+00 -1.038992e+01
      vertex   3.743110e+00 -2.768321e+00 -1.034812e+01
      vertex   3.686840e+00 -2.839547e+00 -1.034812e+01
    endloop
  endfacet
  facet normal 3.351176e-01 -2.756611e-01 -9.009479e-01
    outer loop
      vertex   3.618047e+00 -2.786564e+00 -1.038992e+01
      vertex   3.686840e+00 -2.839547e+00 -1.034812e+01
      vertex   3.561368e+00 -2.855468e+00 -1.038992e+01
    endloop
  endfacet
  facet normal 3.351176e-01 -2.756611e-01 -9.009479e-01
    outer loop
      vertex   3.561368e+00 -2.855468e+00 -1.038992e+01
      vertex   3.686840e+00 -2.839547e+00 -1.034812e+01
      vertex   3.629083e+00 -2.909761e+00 -1.034812e+01
    endloop
  endfacet
  facet normal 3.297322e-01 -2.823202e-01 -9.008729e-01
    outer loop
      vertex   3.561368e+00 -2.855468e+00 -1.038992e+01
      vertex   3.629083e+00 -2.909761e+00 -1.034812e+01
      vertex   3.569868e+00 -2.978921e+00 -1.034812e+01
    endloop
  endfacet
  facet normal 3.466767e-01 -2.738850e-01 -8.971077e-01
    outer loop
      vertex   3.743110e+00 -2.768321e+00 -1.034812e+01
      vertex   3.812775e+00 -2.819844e+00 -1.030546e+01
      vertex   3.686840e+00 -2.839547e+00 -1.034812e+01
    endloop
  endfacet
  facet normal 3.466767e-01 -2.738850e-01 -8.971077e-01
    outer loop
      vertex   3.686840e+00 -2.839547e+00 -1.034812e+01
      vertex   3.812775e+00 -2.819844e+00 -1.030546e+01
      vertex   3.755458e+00 -2.892396e+00 -1.030546e+01
    endloop
  endfacet
  facet normal 3.413271e-01 -2.807689e-01 -8.970310e-01
    outer loop
      vertex   3.686840e+00 -2.839547e+00 -1.034812e+01
      vertex   3.755458e+00 -2.892396e+00 -1.030546e+01
      vertex   3.629083e+00 -2.909761e+00 -1.034812e+01
    endloop
  endfacet
  facet normal 3.529628e-01 -2.788512e-01 -8.931177e-01
    outer loop
      vertex   3.823892e+00 -2.945103e+00 -1.026196e+01
      vertex   3.755458e+00 -2.892396e+00 -1.030546e+01
      vertex   3.882254e+00 -2.871229e+00 -1.026196e+01
    endloop
  endfacet
  facet normal 3.529628e-01 -2.788512e-01 -8.931177e-01
    outer loop
      vertex   3.882254e+00 -2.871229e+00 -1.026196e+01
      vertex   3.755458e+00 -2.892396e+00 -1.030546e+01
      vertex   3.812775e+00 -2.819844e+00 -1.030546e+01
    endloop
  endfacet
  facet normal 3.592265e-01 -2.837997e-01 -8.890524e-01
    outer loop
      vertex   3.892133e+00 -2.997661e+00 -1.021761e+01
      vertex   3.823892e+00 -2.945103e+00 -1.026196e+01
      vertex   3.951536e+00 -2.922469e+00 -1.021761e+01
    endloop
  endfacet
  facet normal 3.592265e-01 -2.837997e-01 -8.890524e-01
    outer loop
      vertex   3.951536e+00 -2.922469e+00 -1.021761e+01
      vertex   3.823892e+00 -2.945103e+00 -1.026196e+01
      vertex   3.882254e+00 -2.871229e+00 -1.026196e+01
    endloop
  endfacet
  facet normal 2.847741e-01 -2.342495e-01 -9.295326e-01
    outer loop
      vertex   3.014483e+00 -2.416981e+00 -1.069358e+01
      vertex   3.062458e+00 -2.358658e+00 -1.069358e+01
      vertex   3.132334e+00 -2.412476e+00 -1.065861e+01
    endloop
  endfacet
  facet normal 2.892298e-01 -2.285002e-01 -9.295880e-01
    outer loop
      vertex   3.132334e+00 -2.412476e+00 -1.065861e+01
      vertex   3.062458e+00 -2.358658e+00 -1.069358e+01
      vertex   3.180142e+00 -2.351962e+00 -1.065861e+01
    endloop
  endfacet
  facet normal 2.847741e-01 -2.342495e-01 -9.295326e-01
    outer loop
      vertex   3.014483e+00 -2.416981e+00 -1.069358e+01
      vertex   3.132334e+00 -2.412476e+00 -1.065861e+01
      vertex   3.083264e+00 -2.472130e+00 -1.065861e+01
    endloop
  endfacet
  facet normal 3.067122e-01 -2.843279e-01 -9.083420e-01
    outer loop
      vertex   3.318394e+00 -2.997553e+00 -1.043086e+01
      vertex   3.253770e+00 -2.939177e+00 -1.047096e+01
      vertex   3.378112e+00 -2.933134e+00 -1.043086e+01
    endloop
  endfacet
  facet normal 3.067122e-01 -2.843279e-01 -9.083420e-01
    outer loop
      vertex   3.378112e+00 -2.933134e+00 -1.043086e+01
      vertex   3.253770e+00 -2.939177e+00 -1.047096e+01
      vertex   3.312325e+00 -2.876013e+00 -1.047096e+01
    endloop
  endfacet
  facet normal 3.007558e-01 -2.788062e-01 -9.120379e-01
    outer loop
      vertex   3.246396e+00 -2.818769e+00 -1.051020e+01
      vertex   3.312325e+00 -2.876013e+00 -1.047096e+01
      vertex   3.189007e+00 -2.880676e+00 -1.051020e+01
    endloop
  endfacet
  facet normal 3.007558e-01 -2.788062e-01 -9.120379e-01
    outer loop
      vertex   3.189007e+00 -2.880676e+00 -1.051020e+01
      vertex   3.312325e+00 -2.876013e+00 -1.047096e+01
      vertex   3.253770e+00 -2.939177e+00 -1.047096e+01
    endloop
  endfacet
  facet normal 2.953106e-01 -2.847880e-01 -9.119690e-01
    outer loop
      vertex   3.189007e+00 -2.880676e+00 -1.051020e+01
      vertex   3.253770e+00 -2.939177e+00 -1.047096e+01
      vertex   3.130360e+00 -2.941490e+00 -1.051020e+01
    endloop
  endfacet
  facet normal 2.887920e-01 -2.677155e-01 -9.191994e-01
    outer loop
      vertex   3.059097e+00 -2.763326e+00 -1.058611e+01
      vertex   3.114148e+00 -2.703941e+00 -1.058611e+01
      vertex   3.180335e+00 -2.761409e+00 -1.054858e+01
    endloop
  endfacet
  facet normal 2.947821e-01 -2.732684e-01 -9.156571e-01
    outer loop
      vertex   3.180335e+00 -2.761409e+00 -1.054858e+01
      vertex   3.246396e+00 -2.818769e+00 -1.051020e+01
      vertex   3.124113e+00 -2.822056e+00 -1.054858e+01
    endloop
  endfacet
  facet normal 2.947821e-01 -2.732684e-01 -9.156571e-01
    outer loop
      vertex   3.124113e+00 -2.822056e+00 -1.054858e+01
      vertex   3.246396e+00 -2.818769e+00 -1.051020e+01
      vertex   3.189007e+00 -2.880676e+00 -1.051020e+01
    endloop
  endfacet
  facet normal 2.894459e-01 -2.791323e-01 -9.155907e-01
    outer loop
      vertex   3.124113e+00 -2.822056e+00 -1.054858e+01
      vertex   3.189007e+00 -2.880676e+00 -1.051020e+01
      vertex   3.066659e+00 -2.881633e+00 -1.054858e+01
    endloop
  endfacet
  facet normal 2.894459e-01 -2.791323e-01 -9.155907e-01
    outer loop
      vertex   3.066659e+00 -2.881633e+00 -1.054858e+01
      vertex   3.189007e+00 -2.880676e+00 -1.051020e+01
      vertex   3.130360e+00 -2.941490e+00 -1.051020e+01
    endloop
  endfacet
  facet normal 2.835650e-01 -2.734610e-01 -9.191354e-01
    outer loop
      vertex   3.002839e+00 -2.821663e+00 -1.058611e+01
      vertex   3.059097e+00 -2.763326e+00 -1.058611e+01
      vertex   3.124113e+00 -2.822056e+00 -1.054858e+01
    endloop
  endfacet
  facet normal 2.887920e-01 -2.677155e-01 -9.191994e-01
    outer loop
      vertex   3.124113e+00 -2.822056e+00 -1.054858e+01
      vertex   3.059097e+00 -2.763326e+00 -1.058611e+01
      vertex   3.180335e+00 -2.761409e+00 -1.054858e+01
    endloop
  endfacet
  facet normal 2.835650e-01 -2.734610e-01 -9.191354e-01
    outer loop
      vertex   3.002839e+00 -2.821663e+00 -1.058611e+01
      vertex   3.124113e+00 -2.822056e+00 -1.054858e+01
      vertex   3.066659e+00 -2.881633e+00 -1.054858e+01
    endloop
  endfacet
  facet normal 2.911331e-01 -2.119156e-01 -9.329165e-01
    outer loop
      vertex   3.154683e+00 -2.239528e+00 -1.069358e+01
      vertex   3.082603e+00 -2.188358e+00 -1.072770e+01
      vertex   3.198889e+00 -2.178797e+00 -1.069358e+01
    endloop
  endfacet
  facet normal 2.911331e-01 -2.119156e-01 -9.329165e-01
    outer loop
      vertex   3.198889e+00 -2.178797e+00 -1.069358e+01
      vertex   3.082603e+00 -2.188358e+00 -1.072770e+01
      vertex   3.125800e+00 -2.129015e+00 -1.072770e+01
    endloop
  endfacet
  facet normal 2.977897e-01 -2.167610e-01 -9.296967e-01
    outer loop
      vertex   3.226664e+00 -2.290628e+00 -1.065861e+01
      vertex   3.154683e+00 -2.239528e+00 -1.069358e+01
      vertex   3.271879e+00 -2.228511e+00 -1.065861e+01
    endloop
  endfacet
  facet normal 2.977897e-01 -2.167610e-01 -9.296967e-01
    outer loop
      vertex   3.271879e+00 -2.228511e+00 -1.065861e+01
      vertex   3.154683e+00 -2.239528e+00 -1.069358e+01
      vertex   3.198889e+00 -2.178797e+00 -1.069358e+01
    endloop
  endfacet
  facet normal 3.044322e-01 -2.215960e-01 -9.263996e-01
    outer loop
      vertex   3.298536e+00 -2.341651e+00 -1.062279e+01
      vertex   3.226664e+00 -2.290628e+00 -1.065861e+01
      vertex   3.344759e+00 -2.278150e+00 -1.062279e+01
    endloop
  endfacet
  facet normal 3.044322e-01 -2.215960e-01 -9.263996e-01
    outer loop
      vertex   3.344759e+00 -2.278150e+00 -1.062279e+01
      vertex   3.226664e+00 -2.290628e+00 -1.065861e+01
      vertex   3.271879e+00 -2.228511e+00 -1.065861e+01
    endloop
  endfacet
  facet normal 3.110597e-01 -2.264201e-01 -9.230254e-01
    outer loop
      vertex   3.370292e+00 -2.392590e+00 -1.058611e+01
      vertex   3.298536e+00 -2.341651e+00 -1.062279e+01
      vertex   3.417520e+00 -2.327708e+00 -1.058611e+01
    endloop
  endfacet
  facet normal 3.110597e-01 -2.264201e-01 -9.230254e-01
    outer loop
      vertex   3.417520e+00 -2.327708e+00 -1.058611e+01
      vertex   3.298536e+00 -2.341651e+00 -1.062279e+01
      vertex   3.344759e+00 -2.278150e+00 -1.062279e+01
    endloop
  endfacet
  facet normal 3.176712e-01 -2.312326e-01 -9.195741e-01
    outer loop
      vertex   3.441922e+00 -2.443441e+00 -1.054858e+01
      vertex   3.370292e+00 -2.392590e+00 -1.058611e+01
      vertex   3.490154e+00 -2.377180e+00 -1.054858e+01
    endloop
  endfacet
  facet normal 3.176712e-01 -2.312326e-01 -9.195741e-01
    outer loop
      vertex   3.490154e+00 -2.377180e+00 -1.054858e+01
      vertex   3.370292e+00 -2.392590e+00 -1.058611e+01
      vertex   3.417520e+00 -2.327708e+00 -1.058611e+01
    endloop
  endfacet
  facet normal 3.242658e-01 -2.360329e-01 -9.160459e-01
    outer loop
      vertex   3.513417e+00 -2.494196e+00 -1.051020e+01
      vertex   3.441922e+00 -2.443441e+00 -1.054858e+01
      vertex   3.562651e+00 -2.426558e+00 -1.051020e+01
    endloop
  endfacet
  facet normal 3.242658e-01 -2.360329e-01 -9.160459e-01
    outer loop
      vertex   3.562651e+00 -2.426558e+00 -1.051020e+01
      vertex   3.441922e+00 -2.443441e+00 -1.054858e+01
      vertex   3.490154e+00 -2.377180e+00 -1.054858e+01
    endloop
  endfacet
  facet normal 3.308427e-01 -2.408202e-01 -9.124411e-01
    outer loop
      vertex   3.584769e+00 -2.544849e+00 -1.047096e+01
      vertex   3.513417e+00 -2.494196e+00 -1.051020e+01
      vertex   3.635002e+00 -2.475837e+00 -1.047096e+01
    endloop
  endfacet
  facet normal 3.308427e-01 -2.408202e-01 -9.124411e-01
    outer loop
      vertex   3.635002e+00 -2.475837e+00 -1.047096e+01
      vertex   3.513417e+00 -2.494196e+00 -1.051020e+01
      vertex   3.562651e+00 -2.426558e+00 -1.051020e+01
    endloop
  endfacet
  facet normal 3.374010e-01 -2.455940e-01 -9.087597e-01
    outer loop
      vertex   3.655967e+00 -2.595393e+00 -1.043086e+01
      vertex   3.584769e+00 -2.544849e+00 -1.047096e+01
      vertex   3.707198e+00 -2.525011e+00 -1.043086e+01
    endloop
  endfacet
  facet normal 3.374010e-01 -2.455940e-01 -9.087597e-01
    outer loop
      vertex   3.707198e+00 -2.525011e+00 -1.043086e+01
      vertex   3.584769e+00 -2.544849e+00 -1.047096e+01
      vertex   3.635002e+00 -2.475837e+00 -1.047096e+01
    endloop
  endfacet
  facet normal 3.439398e-01 -2.503535e-01 -9.050020e-01
    outer loop
      vertex   3.727003e+00 -2.645821e+00 -1.038992e+01
      vertex   3.655967e+00 -2.595393e+00 -1.043086e+01
      vertex   3.779229e+00 -2.574072e+00 -1.038992e+01
    endloop
  endfacet
  facet normal 3.439398e-01 -2.503535e-01 -9.050020e-01
    outer loop
      vertex   3.779229e+00 -2.574072e+00 -1.038992e+01
      vertex   3.655967e+00 -2.595393e+00 -1.043086e+01
      vertex   3.707198e+00 -2.525011e+00 -1.043086e+01
    endloop
  endfacet
  facet normal 3.504581e-01 -2.550982e-01 -9.011682e-01
    outer loop
      vertex   3.797868e+00 -2.696129e+00 -1.034812e+01
      vertex   3.727003e+00 -2.645821e+00 -1.038992e+01
      vertex   3.851087e+00 -2.623015e+00 -1.034812e+01
    endloop
  endfacet
  facet normal 3.504581e-01 -2.550982e-01 -9.011682e-01
    outer loop
      vertex   3.851087e+00 -2.623015e+00 -1.034812e+01
      vertex   3.727003e+00 -2.645821e+00 -1.038992e+01
      vertex   3.779229e+00 -2.574072e+00 -1.038992e+01
    endloop
  endfacet
  facet normal 3.569551e-01 -2.598274e-01 -8.972585e-01
    outer loop
      vertex   3.868552e+00 -2.746308e+00 -1.030546e+01
      vertex   3.797868e+00 -2.696129e+00 -1.034812e+01
      vertex   3.922762e+00 -2.671834e+00 -1.030546e+01
    endloop
  endfacet
  facet normal 3.569551e-01 -2.598274e-01 -8.972585e-01
    outer loop
      vertex   3.922762e+00 -2.671834e+00 -1.030546e+01
      vertex   3.797868e+00 -2.696129e+00 -1.034812e+01
      vertex   3.851087e+00 -2.623015e+00 -1.034812e+01
    endloop
  endfacet
  facet normal 3.634298e-01 -2.645404e-01 -8.932733e-01
    outer loop
      vertex   3.939047e+00 -2.796353e+00 -1.026196e+01
      vertex   3.868552e+00 -2.746308e+00 -1.030546e+01
      vertex   3.994244e+00 -2.720521e+00 -1.026196e+01
    endloop
  endfacet
  facet normal 3.634298e-01 -2.645404e-01 -8.932733e-01
    outer loop
      vertex   3.994244e+00 -2.720521e+00 -1.026196e+01
      vertex   3.868552e+00 -2.746308e+00 -1.030546e+01
      vertex   3.922762e+00 -2.671834e+00 -1.030546e+01
    endloop
  endfacet
  facet normal 2.990294e-01 -2.001483e-01 -9.330177e-01
    outer loop
      vertex   3.167729e+00 -2.068961e+00 -1.072770e+01
      vertex   3.208374e+00 -2.008236e+00 -1.072770e+01
      vertex   3.241799e+00 -2.117339e+00 -1.069358e+01
    endloop
  endfacet
  facet normal 2.990298e-01 -2.001481e-01 -9.330176e-01
    outer loop
      vertex   3.241799e+00 -2.117339e+00 -1.069358e+01
      vertex   3.208374e+00 -2.008236e+00 -1.072770e+01
      vertex   3.283399e+00 -2.055187e+00 -1.069358e+01
    endloop
  endfacet
  facet normal 3.058683e-01 -2.047253e-01 -9.298022e-01
    outer loop
      vertex   3.241799e+00 -2.117339e+00 -1.069358e+01
      vertex   3.283399e+00 -2.055187e+00 -1.069358e+01
      vertex   3.315767e+00 -2.165651e+00 -1.065861e+01
    endloop
  endfacet
  facet normal 3.058687e-01 -2.047251e-01 -9.298021e-01
    outer loop
      vertex   3.315767e+00 -2.165651e+00 -1.065861e+01
      vertex   3.283399e+00 -2.055187e+00 -1.069358e+01
      vertex   3.358320e+00 -2.102074e+00 -1.065861e+01
    endloop
  endfacet
  facet normal 3.126927e-01 -2.092926e-01 -9.265095e-01
    outer loop
      vertex   3.315767e+00 -2.165651e+00 -1.065861e+01
      vertex   3.358320e+00 -2.102074e+00 -1.065861e+01
      vertex   3.389625e+00 -2.213890e+00 -1.062279e+01
    endloop
  endfacet
  facet normal 3.126932e-01 -2.092925e-01 -9.265094e-01
    outer loop
      vertex   3.389625e+00 -2.213890e+00 -1.062279e+01
      vertex   3.358320e+00 -2.102074e+00 -1.065861e+01
      vertex   3.433130e+00 -2.148890e+00 -1.062279e+01
    endloop
  endfacet
  facet normal 3.195019e-01 -2.138497e-01 -9.231397e-01
    outer loop
      vertex   3.389625e+00 -2.213890e+00 -1.062279e+01
      vertex   3.433130e+00 -2.148890e+00 -1.062279e+01
      vertex   3.463362e+00 -2.262050e+00 -1.058611e+01
    endloop
  endfacet
  facet normal 3.195023e-01 -2.138495e-01 -9.231396e-01
    outer loop
      vertex   3.463362e+00 -2.262050e+00 -1.058611e+01
      vertex   3.433130e+00 -2.148890e+00 -1.062279e+01
      vertex   3.507819e+00 -2.195630e+00 -1.058611e+01
    endloop
  endfacet
  facet normal 3.262948e-01 -2.183959e-01 -9.196929e-01
    outer loop
      vertex   3.463362e+00 -2.262050e+00 -1.058611e+01
      vertex   3.507819e+00 -2.195630e+00 -1.058611e+01
      vertex   3.536970e+00 -2.310127e+00 -1.054858e+01
    endloop
  endfacet
  facet normal 3.262952e-01 -2.183957e-01 -9.196927e-01
    outer loop
      vertex   3.536970e+00 -2.310127e+00 -1.054858e+01
      vertex   3.507819e+00 -2.195630e+00 -1.058611e+01
      vertex   3.582376e+00 -2.242288e+00 -1.054858e+01
    endloop
  endfacet
  facet normal 3.330705e-01 -2.229305e-01 -9.161692e-01
    outer loop
      vertex   3.536970e+00 -2.310127e+00 -1.054858e+01
      vertex   3.582376e+00 -2.242288e+00 -1.054858e+01
      vertex   3.610440e+00 -2.358112e+00 -1.051020e+01
    endloop
  endfacet
  facet normal 3.330710e-01 -2.229303e-01 -9.161691e-01
    outer loop
      vertex   3.610440e+00 -2.358112e+00 -1.051020e+01
      vertex   3.582376e+00 -2.242288e+00 -1.054858e+01
      vertex   3.656793e+00 -2.288857e+00 -1.051020e+01
    endloop
  endfacet
  facet normal 3.398281e-01 -2.274530e-01 -9.125689e-01
    outer loop
      vertex   3.610440e+00 -2.358112e+00 -1.051020e+01
      vertex   3.656793e+00 -2.288857e+00 -1.051020e+01
      vertex   3.683761e+00 -2.406001e+00 -1.047096e+01
    endloop
  endfacet
  facet normal 3.398286e-01 -2.274528e-01 -9.125688e-01
    outer loop
      vertex   3.683761e+00 -2.406001e+00 -1.047096e+01
      vertex   3.656793e+00 -2.288857e+00 -1.051020e+01
      vertex   3.731061e+00 -2.335332e+00 -1.047096e+01
    endloop
  endfacet
  facet normal 3.465667e-01 -2.319627e-01 -9.088921e-01
    outer loop
      vertex   3.683761e+00 -2.406001e+00 -1.047096e+01
      vertex   3.731061e+00 -2.335332e+00 -1.047096e+01
      vertex   3.756925e+00 -2.453788e+00 -1.043086e+01
    endloop
  endfacet
  facet normal 3.465672e-01 -2.319626e-01 -9.088919e-01
    outer loop
      vertex   3.756925e+00 -2.453788e+00 -1.043086e+01
      vertex   3.731061e+00 -2.335332e+00 -1.047096e+01
      vertex   3.805170e+00 -2.381707e+00 -1.043086e+01
    endloop
  endfacet
  facet normal 3.532853e-01 -2.364591e-01 -9.051390e-01
    outer loop
      vertex   3.756925e+00 -2.453788e+00 -1.043086e+01
      vertex   3.805170e+00 -2.381707e+00 -1.043086e+01
      vertex   3.829923e+00 -2.501465e+00 -1.038992e+01
    endloop
  endfacet
  facet normal 3.532858e-01 -2.364589e-01 -9.051388e-01
    outer loop
      vertex   3.829923e+00 -2.501465e+00 -1.038992e+01
      vertex   3.805170e+00 -2.381707e+00 -1.043086e+01
      vertex   3.879110e+00 -2.427977e+00 -1.038992e+01
    endloop
  endfacet
  facet normal 3.599830e-01 -2.409415e-01 -9.013098e-01
    outer loop
      vertex   3.829923e+00 -2.501465e+00 -1.038992e+01
      vertex   3.879110e+00 -2.427977e+00 -1.038992e+01
      vertex   3.902745e+00 -2.549028e+00 -1.034812e+01
    endloop
  endfacet
  facet normal 3.274254e-01 -2.010038e-01 -9.232497e-01
    outer loop
      vertex   3.592396e+00 -2.060844e+00 -1.058611e+01
      vertex   3.550816e+00 -2.128576e+00 -1.058611e+01
      vertex   3.475217e+00 -2.083257e+00 -1.062279e+01
    endloop
  endfacet
  facet normal 3.274254e-01 -2.010038e-01 -9.232497e-01
    outer loop
      vertex   3.515911e+00 -2.016968e+00 -1.062279e+01
      vertex   3.592396e+00 -2.060844e+00 -1.058611e+01
      vertex   3.475217e+00 -2.083257e+00 -1.062279e+01
    endloop
  endfacet
  facet normal 3.413335e-01 -2.095419e-01 -9.162879e-01
    outer loop
      vertex   3.701608e+00 -2.218969e+00 -1.051020e+01
      vertex   3.626283e+00 -2.173815e+00 -1.054858e+01
      vertex   3.744953e+00 -2.148362e+00 -1.051020e+01
    endloop
  endfacet
  facet normal 3.413335e-01 -2.095419e-01 -9.162879e-01
    outer loop
      vertex   3.744953e+00 -2.148362e+00 -1.051020e+01
      vertex   3.626283e+00 -2.173815e+00 -1.054858e+01
      vertex   3.668746e+00 -2.104644e+00 -1.054858e+01
    endloop
  endfacet
  facet normal 3.452594e-01 -2.027489e-01 -9.163454e-01
    outer loop
      vertex   3.744953e+00 -2.148362e+00 -1.051020e+01
      vertex   3.668746e+00 -2.104644e+00 -1.054858e+01
      vertex   3.786787e+00 -2.077123e+00 -1.051020e+01
    endloop
  endfacet
  facet normal 3.452594e-01 -2.027489e-01 -9.163454e-01
    outer loop
      vertex   3.786787e+00 -2.077123e+00 -1.051020e+01
      vertex   3.668746e+00 -2.104644e+00 -1.054858e+01
      vertex   3.709729e+00 -2.034855e+00 -1.054858e+01
    endloop
  endfacet
  facet normal 3.551679e-01 -2.180347e-01 -9.090196e-01
    outer loop
      vertex   3.896897e+00 -2.235527e+00 -1.043086e+01
      vertex   3.851792e+00 -2.308999e+00 -1.043086e+01
      vertex   3.776781e+00 -2.264033e+00 -1.047096e+01
    endloop
  endfacet
  facet normal 3.482604e-01 -2.137943e-01 -9.126920e-01
    outer loop
      vertex   3.776781e+00 -2.264033e+00 -1.047096e+01
      vertex   3.701608e+00 -2.218969e+00 -1.051020e+01
      vertex   3.821006e+00 -2.191991e+00 -1.047096e+01
    endloop
  endfacet
  facet normal 3.482604e-01 -2.137943e-01 -9.126920e-01
    outer loop
      vertex   3.821006e+00 -2.191991e+00 -1.047096e+01
      vertex   3.701608e+00 -2.218969e+00 -1.051020e+01
      vertex   3.744953e+00 -2.148362e+00 -1.051020e+01
    endloop
  endfacet
  facet normal 3.522669e-01 -2.068639e-01 -9.127515e-01
    outer loop
      vertex   3.821006e+00 -2.191991e+00 -1.047096e+01
      vertex   3.744953e+00 -2.148362e+00 -1.051020e+01
      vertex   3.863690e+00 -2.119306e+00 -1.047096e+01
    endloop
  endfacet
  facet normal 3.522669e-01 -2.068639e-01 -9.127515e-01
    outer loop
      vertex   3.863690e+00 -2.119306e+00 -1.047096e+01
      vertex   3.744953e+00 -2.148362e+00 -1.051020e+01
      vertex   3.786787e+00 -2.077123e+00 -1.051020e+01
    endloop
  endfacet
  facet normal 3.561313e-01 -1.998727e-01 -9.128096e-01
    outer loop
      vertex   3.863690e+00 -2.119306e+00 -1.047096e+01
      vertex   3.786787e+00 -2.077123e+00 -1.051020e+01
      vertex   3.904818e+00 -2.046024e+00 -1.047096e+01
    endloop
  endfacet
  facet normal 3.592547e-01 -2.109674e-01 -9.090813e-01
    outer loop
      vertex   3.940428e+00 -2.161398e+00 -1.043086e+01
      vertex   3.896897e+00 -2.235527e+00 -1.043086e+01
      vertex   3.821006e+00 -2.191991e+00 -1.047096e+01
    endloop
  endfacet
  facet normal 3.551679e-01 -2.180347e-01 -9.090196e-01
    outer loop
      vertex   3.821006e+00 -2.191991e+00 -1.047096e+01
      vertex   3.896897e+00 -2.235527e+00 -1.043086e+01
      vertex   3.776781e+00 -2.264033e+00 -1.047096e+01
    endloop
  endfacet
  facet normal 3.592547e-01 -2.109674e-01 -9.090813e-01
    outer loop
      vertex   3.940428e+00 -2.161398e+00 -1.043086e+01
      vertex   3.821006e+00 -2.191991e+00 -1.047096e+01
      vertex   3.863690e+00 -2.119306e+00 -1.047096e+01
    endloop
  endfacet
  facet normal 3.631967e-01 -2.038381e-01 -9.091414e-01
    outer loop
      vertex   3.982373e+00 -2.086660e+00 -1.043086e+01
      vertex   3.940428e+00 -2.161398e+00 -1.043086e+01
      vertex   3.863690e+00 -2.119306e+00 -1.047096e+01
    endloop
  endfacet
  facet normal 3.631967e-01 -2.038381e-01 -9.091414e-01
    outer loop
      vertex   3.982373e+00 -2.086660e+00 -1.043086e+01
      vertex   3.863690e+00 -2.119306e+00 -1.047096e+01
      vertex   3.904818e+00 -2.046024e+00 -1.047096e+01
    endloop
  endfacet
  facet normal -1.000000e+00 0.000000e+00 0.000000e+00
    outer loop
      vertex   3.000000e+00 -2.000000e+00 -1.079338e+01
      vertex   3.000000e+00 -2.126402e+00 -1.076643e+01
      vertex   3.000000e+00 -2.000000e+00 -1.000000e+01
    endloop
  endfacet
  facet normal -1.000000e+00 -3.396094e-15 5.600905e-16
    outer loop
      vertex   3.000000e+00 -2.000000e+00 -1.000000e+01
      vertex   3.000000e+00 -2.126402e+00 -1.076643e+01
      vertex   3.000000e+00 -2.252451e+00 -1.073784e+01
    endloop
  endfacet
  facet normal -1.000000e+00 -1.337577e-16 -5.561112e-16
    outer loop
      vertex   3.000000e+00 -2.000000e+00 -1.000000e+01
      vertex   3.000000e+00 -2.252451e+00 -1.073784e+01
      vertex   3.000000e+00 -2.378134e+00 -1.070761e+01
    endloop
  endfacet
  facet normal -1.000000e+00 -1.405005e-16 -5.525080e-16
    outer loop
      vertex   3.000000e+00 -2.378134e+00 -1.070761e+01
      vertex   3.000000e+00 -2.503427e+00 -1.067575e+01
      vertex   3.000000e+00 -2.000000e+00 -1.000000e+01
    endloop
  endfacet
  facet normal -1.000000e+00 -1.468786e-16 -5.477564e-16
    outer loop
      vertex   3.000000e+00 -2.000000e+00 -1.000000e+01
      vertex   3.000000e+00 -2.503427e+00 -1.067575e+01
      vertex   3.000000e+00 -2.628276e+00 -1.064227e+01
    endloop
  endfacet
  facet normal -1.000000e+00 -1.528590e-16 -5.419063e-16
    outer loop
      vertex   3.000000e+00 -2.000000e+00 -1.000000e+01
      vertex   3.000000e+00 -2.628276e+00 -1.064227e+01
      vertex   3.000000e+00 -2.752664e+00 -1.060719e+01
    endloop
  endfacet
  facet normal -1.000000e+00 -0.000000e+00 -7.313895e-16
    outer loop
      vertex   3.000000e+00 -2.000000e+00 -1.000000e+01
      vertex   3.000000e+00 -2.752664e+00 -1.060719e+01
      vertex   3.000000e+00 -3.000000e+00 -1.000000e+01
    endloop
  endfacet
  facet normal -1.000000e+00 1.198008e-14 4.148674e-15
    outer loop
      vertex   3.000000e+00 -3.000000e+00 -1.000000e+01
      vertex   3.000000e+00 -2.752664e+00 -1.060719e+01
      vertex   3.000000e+00 -2.876576e+00 -1.057050e+01
    endloop
  endfacet
  facet normal -1.000000e+00 -7.196183e-15 -0.000000e+00
    outer loop
      vertex   3.000000e+00 -3.000000e+00 -1.000000e+01
      vertex   3.000000e+00 -2.876576e+00 -1.057050e+01
      vertex   3.000000e+00 -3.000000e+00 -1.053221e+01
    endloop
  endfacet
  facet normal 0.000000e+00 -1.000000e+00 0.000000e+00
    outer loop
      vertex   3.000000e+00 -3.000000e+00 -1.053221e+01
      vertex   3.126936e+00 -3.000000e+00 -1.049284e+01
      vertex   3.000000e+00 -3.000000e+00 -1.000000e+01
    endloop
  endfacet
  facet normal 6.483670e-15 -1.000000e+00 1.669916e-15
    outer loop
      vertex   3.000000e+00 -3.000000e+00 -1.000000e+01
      vertex   3.126936e+00 -3.000000e+00 -1.049284e+01
      vertex   3.253366e+00 -3.000000e+00 -1.045186e+01
    endloop
  endfacet
  facet normal 5.590190e-16 -1.000000e+00 -1.652161e-15
    outer loop
      vertex   3.000000e+00 -3.000000e+00 -1.000000e+01
      vertex   3.253366e+00 -3.000000e+00 -1.045186e+01
      vertex   3.379277e+00 -3.000000e+00 -1.040926e+01
    endloop
  endfacet
  facet normal 5.768078e-16 -1.000000e+00 -1.635675e-15
    outer loop
      vertex   3.379277e+00 -3.000000e+00 -1.040926e+01
      vertex   3.504638e+00 -3.000000e+00 -1.036505e+01
      vertex   3.000000e+00 -3.000000e+00 -1.000000e+01
    endloop
  endfacet
  facet normal 5.924369e-16 -1.000000e+00 -1.614070e-15
    outer loop
      vertex   3.000000e+00 -3.000000e+00 -1.000000e+01
      vertex   3.504638e+00 -3.000000e+00 -1.036505e+01
      vertex   3.629405e+00 -3.000000e+00 -1.031925e+01
    endloop
  endfacet
  facet normal 6.058173e-16 -1.000000e+00 -1.587691e-15
    outer loop
      vertex   3.000000e+00 -3.000000e+00 -1.000000e+01
      vertex   3.629405e+00 -3.000000e+00 -1.031925e+01
      vertex   3.753563e+00 -3.000000e+00 -1.027188e+01
    endloop
  endfacet
  facet normal 0.000000e+00 -1.000000e+00 -3.266838e-15
    outer loop
      vertex   3.000000e+00 -3.000000e+00 -1.000000e+01
      vertex   3.753563e+00 -3.000000e+00 -1.027188e+01
      vertex   4.000000e+00 -3.000000e+00 -1.000000e+01
    endloop
  endfacet
  facet normal -9.199050e-15 -1.000000e+00 5.071424e-15
    outer loop
      vertex   4.000000e+00 -3.000000e+00 -1.000000e+01
      vertex   3.753563e+00 -3.000000e+00 -1.027188e+01
      vertex   3.877100e+00 -3.000000e+00 -1.022293e+01
    endloop
  endfacet
  facet normal 0.000000e+00 -1.000000e+00 -0.000000e+00
    outer loop
      vertex   4.000000e+00 -3.000000e+00 -1.000000e+01
      vertex   3.877100e+00 -3.000000e+00 -1.022293e+01
      vertex   4.000000e+00 -3.000000e+00 -1.017241e+01
    endloop
  endfacet
  facet normal 0.000000e+00 0.000000e+00 1.000000e+00
    outer loop
      vertex   4.000000e+00 -2.000000e+00 -1.000000e+01
      vertex   3.000000e+00 -2.000000e+00 -1.000000e+01
      vertex   4.000000e+00 -3.000000e+00 -1.000000e+01
    endloop
  endfacet
  facet normal 0.000000e+00 0.000000e+00 1.000000e+00
    outer loop
      vertex   4.000000e+00 -3.000000e+00 -1.000000e+01
      vertex   3.000000e+00 -2.000000e+00 -1.000000e+01
      vertex   3.000000e+00 -3.000000e+00 -1.000000e+01
    endloop
  endfacet
  facet normal 1.176989e-12 1.000000e+00 -0.000000e+00
    outer loop
      vertex   4.000000e+00 -2.000000e+00 -1.044259e+01
      vertex   3.876997e+00 -2.000000e+00 -1.049184e+01
      vertex   4.000000e+00 -2.000000e+00 -1.000000e+01
    endloop
  endfacet
  facet normal 2.946223e-12 1.000000e+00 -4.424607e-13
    outer loop
      vertex   4.000000e+00 -2.000000e+00 -1.000000e+01
      vertex   3.876997e+00 -2.000000e+00 -1.049184e+01
      vertex   3.753390e+00 -2.000000e+00 -1.053957e+01
    endloop
  endfacet
  facet normal 0.000000e+00 1.000000e+00 9.041168e-13
    outer loop
      vertex   4.000000e+00 -2.000000e+00 -1.000000e+01
      vertex   3.753390e+00 -2.000000e+00 -1.053957e+01
      vertex   3.000000e+00 -2.000000e+00 -1.000000e+01
    endloop
  endfacet
  facet normal 1.913301e-12 1.000000e+00 3.575629e-12
    outer loop
      vertex   3.000000e+00 -2.000000e+00 -1.000000e+01
      vertex   3.753390e+00 -2.000000e+00 -1.053957e+01
      vertex   3.629190e+00 -2.000000e+00 -1.058576e+01
    endloop
  endfacet
  facet normal 1.491472e-12 1.000000e+00 3.122522e-12
    outer loop
      vertex   3.000000e+00 -2.000000e+00 -1.000000e+01
      vertex   3.629190e+00 -2.000000e+00 -1.058576e+01
      vertex   3.504413e+00 -2.000000e+00 -1.063041e+01
    endloop
  endfacet
  facet normal 1.341317e-13 1.000000e+00 2.036460e-12
    outer loop
      vertex   3.504413e+00 -2.000000e+00 -1.063041e+01
      vertex   3.379070e+00 -2.000000e+00 -1.067351e+01
      vertex   3.000000e+00 -2.000000e+00 -1.000000e+01
    endloop
  endfacet
  facet normal -3.141937e-12 1.000000e+00 1.925860e-13
    outer loop
      vertex   3.000000e+00 -2.000000e+00 -1.000000e+01
      vertex   3.379070e+00 -2.000000e+00 -1.067351e+01
      vertex   3.253203e+00 -2.000000e+00 -1.071504e+01
    endloop
  endfacet
  facet normal -4.737436e-12 1.000000e+00 -3.723951e-13
    outer loop
      vertex   3.000000e+00 -2.000000e+00 -1.000000e+01
      vertex   3.253203e+00 -2.000000e+00 -1.071504e+01
      vertex   3.126841e+00 -2.000000e+00 -1.075500e+01
    endloop
  endfacet
  facet normal -2.520820e-12 1.000000e+00 0.000000e+00
    outer loop
      vertex   3.126841e+00 -2.000000e+00 -1.075500e+01
      vertex   3.000000e+00 -2.000000e+00 -1.079338e+01
      vertex   3.000000e+00 -2.000000e+00 -1.000000e+01
    endloop
  endfacet
  facet normal 1.000000e+00 -3.601079e-15 0.000000e+00
    outer loop
      vertex   4.000000e+00 -3.000000e+00 -1.017241e+01
      vertex   4.000000e+00 -2.876679e+00 -1.021202e+01
      vertex   4.000000e+00 -3.000000e+00 -1.000000e+01
    endloop
  endfacet
  facet normal 1.000000e+00 7.811630e-16 2.548955e-15
    outer loop
      vertex   4.000000e+00 -3.000000e+00 -1.000000e+01
      vertex   4.000000e+00 -2.876679e+00 -1.021202e+01
      vertex   4.000000e+00 -2.752833e+00 -1.024997e+01
    endloop
  endfacet
  facet normal 1.000000e+00 -0.000000e+00 1.776557e-15
    outer loop
      vertex   4.000000e+00 -3.000000e+00 -1.000000e+01
      vertex   4.000000e+00 -2.752833e+00 -1.024997e+01
      vertex   4.000000e+00 -2.000000e+00 -1.000000e+01
    endloop
  endfacet
  facet normal 1.000000e+00 -7.325840e-15 2.383958e-14
    outer loop
      vertex   4.000000e+00 -2.000000e+00 -1.000000e+01
      vertex   4.000000e+00 -2.752833e+00 -1.024997e+01
      vertex   4.000000e+00 -2.628477e+00 -1.028627e+01
    endloop
  endfacet
  facet normal 1.000000e+00 1.337304e-15 4.820551e-15
    outer loop
      vertex   4.000000e+00 -2.000000e+00 -1.000000e+01
      vertex   4.000000e+00 -2.628477e+00 -1.028627e+01
      vertex   4.000000e+00 -2.503625e+00 -1.032091e+01
    endloop
  endfacet
  facet normal 1.000000e+00 1.288220e-15 4.897581e-15
    outer loop
      vertex   4.000000e+00 -2.503625e+00 -1.032091e+01
      vertex   4.000000e+00 -2.378318e+00 -1.035387e+01
      vertex   4.000000e+00 -2.000000e+00 -1.000000e+01
    endloop
  endfacet
  facet normal 1.000000e+00 1.232906e-15 4.956718e-15
    outer loop
      vertex   4.000000e+00 -2.000000e+00 -1.000000e+01
      vertex   4.000000e+00 -2.378318e+00 -1.035387e+01
      vertex   4.000000e+00 -2.252601e+00 -1.038514e+01
    endloop
  endfacet
  facet normal 1.000000e+00 1.337975e-14 -3.010063e-15
    outer loop
      vertex   4.000000e+00 -2.000000e+00 -1.000000e+01
      vertex   4.000000e+00 -2.252601e+00 -1.038514e+01
      vertex   4.000000e+00 -2.126490e+00 -1.041471e+01
    endloop
  endfacet
  facet normal 1.000000e+00 3.510875e-15 0.000000e+00
    outer loop
      vertex   4.000000e+00 -2.126490e+00 -1.041471e+01
      vertex   4.000000e+00 -2.000000e+00 -1.044259e+01
      vertex   4.000000e+00 -2.000000e+00 -1.000000e+01
    endloop
  endfacet
endsolid
