solid ASCII
  facet normal 6.318825e-01 9.744811e-04 -7.750636e-01
    outer loop
      vertex   6.911477e+00 -3.552352e-34 -8.927215e+00
      vertex   6.822200e+00 0.000000e+00 -9.000000e+00
      vertex   6.885471e+00 6.163481e-02 -8.948340e+00
    endloop
  endfacet
  facet normal 6.306727e-01 3.037280e-03 -7.760430e-01
    outer loop
      vertex   6.885471e+00 6.163481e-02 -8.948340e+00
      vertex   6.822200e+00 0.000000e+00 -9.000000e+00
      vertex   6.821897e+00 6.277536e-02 -9.000000e+00
    endloop
  endfacet
  facet normal 6.307138e-01 8.871387e-03 -7.759648e-01
    outer loop
      vertex   6.885471e+00 6.163481e-02 -8.948340e+00
      vertex   6.821897e+00 6.277536e-02 -9.000000e+00
      vertex   6.884602e+00 1.234044e-01 -8.948340e+00
    endloop
  endfacet
  facet normal 6.305740e-01 9.110375e-03 -7.760756e-01
    outer loop
      vertex   6.884602e+00 1.234044e-01 -8.948340e+00
      vertex   6.821897e+00 6.277536e-02 -9.000000e+00
      vertex   6.820991e+00 1.255334e-01 -9.000000e+00
    endloop
  endfacet
  facet normal 6.306460e-01 1.481450e-02 -7.759292e-01
    outer loop
      vertex   6.884602e+00 1.234044e-01 -8.948340e+00
      vertex   6.820991e+00 1.255334e-01 -9.000000e+00
      vertex   6.883142e+00 1.855771e-01 -8.948340e+00
    endloop
  endfacet
  facet normal 6.304312e-01 1.518103e-02 -7.760967e-01
    outer loop
      vertex   6.883142e+00 1.855771e-01 -8.948340e+00
      vertex   6.820991e+00 1.255334e-01 -9.000000e+00
      vertex   6.819480e+00 1.882700e-01 -9.000000e+00
    endloop
  endfacet
  facet normal 6.305105e-01 2.078305e-02 -7.759024e-01
    outer loop
      vertex   6.883142e+00 1.855771e-01 -8.948340e+00
      vertex   6.819480e+00 1.882700e-01 -9.000000e+00
      vertex   6.881088e+00 2.478712e-01 -8.948340e+00
    endloop
  endfacet
  facet normal 6.302361e-01 2.124891e-02 -7.761127e-01
    outer loop
      vertex   6.881088e+00 2.478712e-01 -8.948340e+00
      vertex   6.819480e+00 1.882700e-01 -9.000000e+00
      vertex   6.817366e+00 2.509810e-01 -9.000000e+00
    endloop
  endfacet
  facet normal 6.303150e-01 2.676756e-02 -7.758779e-01
    outer loop
      vertex   6.881088e+00 2.478712e-01 -8.948340e+00
      vertex   6.817366e+00 2.509810e-01 -9.000000e+00
      vertex   6.878434e+00 3.103713e-01 -8.948340e+00
    endloop
  endfacet
  facet normal 6.299906e-01 2.731380e-02 -7.761223e-01
    outer loop
      vertex   6.878434e+00 3.103713e-01 -8.948340e+00
      vertex   6.817366e+00 2.509810e-01 -9.000000e+00
      vertex   6.814648e+00 3.136622e-01 -9.000000e+00
    endloop
  endfacet
  facet normal 6.300572e-01 3.277151e-02 -7.758569e-01
    outer loop
      vertex   6.878434e+00 3.103713e-01 -8.948340e+00
      vertex   6.814648e+00 3.136622e-01 -9.000000e+00
      vertex   6.875173e+00 3.730703e-01 -8.948340e+00
    endloop
  endfacet
  facet normal 6.296941e-01 3.337540e-02 -7.761259e-01
    outer loop
      vertex   6.875173e+00 3.730703e-01 -8.948340e+00
      vertex   6.814648e+00 3.136622e-01 -9.000000e+00
      vertex   6.811328e+00 3.763095e-01 -9.000000e+00
    endloop
  endfacet
  facet normal 6.297370e-01 3.879403e-02 -7.758391e-01
    outer loop
      vertex   6.875173e+00 3.730703e-01 -8.948340e+00
      vertex   6.811328e+00 3.763095e-01 -9.000000e+00
      vertex   6.871299e+00 4.359609e-01 -8.948340e+00
    endloop
  endfacet
  facet normal 6.293463e-01 3.943344e-02 -7.761239e-01
    outer loop
      vertex   6.871299e+00 4.359609e-01 -8.948340e+00
      vertex   6.811328e+00 3.763095e-01 -9.000000e+00
      vertex   6.807405e+00 4.389186e-01 -9.000000e+00
    endloop
  endfacet
  facet normal 6.293540e-01 4.483425e-02 -7.758243e-01
    outer loop
      vertex   6.871299e+00 4.359609e-01 -8.948340e+00
      vertex   6.807405e+00 4.389186e-01 -9.000000e+00
      vertex   6.866805e+00 4.990357e-01 -8.948340e+00
    endloop
  endfacet
  facet normal 6.289469e-01 4.548763e-02 -7.761164e-01
    outer loop
      vertex   6.866805e+00 4.990357e-01 -8.948340e+00
      vertex   6.807405e+00 4.389186e-01 -9.000000e+00
      vertex   6.802880e+00 5.014855e-01 -9.000000e+00
    endloop
  endfacet
  facet normal 6.289081e-01 5.089130e-02 -7.758123e-01
    outer loop
      vertex   6.866805e+00 4.990357e-01 -8.948340e+00
      vertex   6.802880e+00 5.014855e-01 -9.000000e+00
      vertex   6.861687e+00 5.622871e-01 -8.948340e+00
    endloop
  endfacet
  facet normal 6.284958e-01 5.153768e-02 -7.761037e-01
    outer loop
      vertex   6.861687e+00 5.622871e-01 -8.948340e+00
      vertex   6.802880e+00 5.014855e-01 -9.000000e+00
      vertex   6.797753e+00 5.640060e-01 -9.000000e+00
    endloop
  endfacet
  facet normal 6.283987e-01 5.696425e-02 -7.758029e-01
    outer loop
      vertex   6.861687e+00 5.622871e-01 -8.948340e+00
      vertex   6.797753e+00 5.640060e-01 -9.000000e+00
      vertex   6.855938e+00 6.257072e-01 -8.948340e+00
    endloop
  endfacet
  facet normal 6.279932e-01 5.758330e-02 -7.760855e-01
    outer loop
      vertex   6.855938e+00 6.257072e-01 -8.948340e+00
      vertex   6.797753e+00 5.640060e-01 -9.000000e+00
      vertex   6.792025e+00 6.264759e-01 -9.000000e+00
    endloop
  endfacet
  facet normal 6.278252e-01 6.305217e-02 -7.757963e-01
    outer loop
      vertex   6.855938e+00 6.257072e-01 -8.948340e+00
      vertex   6.792025e+00 6.264759e-01 -9.000000e+00
      vertex   6.849553e+00 6.892882e-01 -8.948340e+00
    endloop
  endfacet
  facet normal 6.274391e-01 6.362423e-02 -7.760620e-01
    outer loop
      vertex   6.849553e+00 6.892882e-01 -8.948340e+00
      vertex   6.792025e+00 6.264759e-01 -9.000000e+00
      vertex   6.785696e+00 6.888910e-01 -9.000000e+00
    endloop
  endfacet
  facet normal 6.271869e-01 6.915409e-02 -7.757927e-01
    outer loop
      vertex   6.849553e+00 6.892882e-01 -8.948340e+00
      vertex   6.785696e+00 6.888910e-01 -9.000000e+00
      vertex   6.842525e+00 7.530219e-01 -8.948340e+00
    endloop
  endfacet
  facet normal 6.268339e-01 6.966023e-02 -7.760327e-01
    outer loop
      vertex   6.842525e+00 7.530219e-01 -8.948340e+00
      vertex   6.785696e+00 6.888910e-01 -9.000000e+00
      vertex   6.778766e+00 7.512473e-01 -9.000000e+00
    endloop
  endfacet
  facet normal 6.264830e-01 7.526901e-02 -7.757923e-01
    outer loop
      vertex   6.842525e+00 7.530219e-01 -8.948340e+00
      vertex   6.778766e+00 7.512473e-01 -9.000000e+00
      vertex   6.834851e+00 8.169000e-01 -8.948340e+00
    endloop
  endfacet
  facet normal 6.261779e-01 7.569106e-02 -7.759975e-01
    outer loop
      vertex   6.834851e+00 8.169000e-01 -8.948340e+00
      vertex   6.778766e+00 7.512473e-01 -9.000000e+00
      vertex   6.771236e+00 8.135405e-01 -9.000000e+00
    endloop
  endfacet
  facet normal 6.257125e-01 8.139587e-02 -7.757954e-01
    outer loop
      vertex   6.834851e+00 8.169000e-01 -8.948340e+00
      vertex   6.771236e+00 8.135405e-01 -9.000000e+00
      vertex   6.826523e+00 8.809143e-01 -8.948340e+00
    endloop
  endfacet
  facet normal 6.254717e-01 8.171654e-02 -7.759559e-01
    outer loop
      vertex   6.826523e+00 8.809143e-01 -8.948340e+00
      vertex   6.771236e+00 8.135405e-01 -9.000000e+00
      vertex   6.763106e+00 8.757664e-01 -9.000000e+00
    endloop
  endfacet
  facet normal 6.248746e-01 8.753356e-02 -7.758025e-01
    outer loop
      vertex   6.826523e+00 8.809143e-01 -8.948340e+00
      vertex   6.763106e+00 8.757664e-01 -9.000000e+00
      vertex   6.817538e+00 9.450561e-01 -8.948340e+00
    endloop
  endfacet
  facet normal 6.247159e-01 8.773649e-02 -7.759075e-01
    outer loop
      vertex   6.817538e+00 9.450561e-01 -8.948340e+00
      vertex   6.763106e+00 8.757664e-01 -9.000000e+00
      vertex   6.754377e+00 9.379210e-01 -9.000000e+00
    endloop
  endfacet
  facet normal 6.240248e-01 9.323604e-02 -7.758222e-01
    outer loop
      vertex   6.817538e+00 9.450561e-01 -8.948340e+00
      vertex   6.754377e+00 9.379210e-01 -9.000000e+00
      vertex   6.809369e+00 1.000000e+00 -8.948308e+00
    endloop
  endfacet
  facet normal 6.236847e-01 9.371677e-02 -7.760377e-01
    outer loop
      vertex   6.809369e+00 1.000000e+00 -8.948308e+00
      vertex   6.754377e+00 9.379210e-01 -9.000000e+00
      vertex   6.745049e+00 1.000000e+00 -9.000000e+00
    endloop
  endfacet
  facet normal 6.294254e-01 9.403645e-02 -7.713500e-01
    outer loop
      vertex   6.809369e+00 1.000000e+00 -8.948308e+00
      vertex   6.873302e+00 1.000000e+00 -8.896138e+00
      vertex   6.817538e+00 9.450561e-01 -8.948340e+00
    endloop
  endfacet
  facet normal 6.296769e-01 9.363269e-02 -7.711938e-01
    outer loop
      vertex   6.817538e+00 9.450561e-01 -8.948340e+00
      vertex   6.873302e+00 1.000000e+00 -8.896138e+00
      vertex   6.880131e+00 9.537327e-01 -8.896180e+00
    endloop
  endfacet
  facet normal 6.304270e-01 8.831135e-02 -7.712087e-01
    outer loop
      vertex   6.817538e+00 9.450561e-01 -8.948340e+00
      vertex   6.880131e+00 9.537327e-01 -8.896180e+00
      vertex   6.826523e+00 8.809143e-01 -8.948340e+00
    endloop
  endfacet
  facet normal 6.304270e-01 8.831135e-02 -7.712087e-01
    outer loop
      vertex   6.826523e+00 8.809143e-01 -8.948340e+00
      vertex   6.880131e+00 9.537327e-01 -8.896180e+00
      vertex   6.889198e+00 8.890021e-01 -8.896180e+00
    endloop
  endfacet
  facet normal 6.312418e-01 8.211513e-02 -7.712269e-01
    outer loop
      vertex   6.826523e+00 8.809143e-01 -8.948340e+00
      vertex   6.889198e+00 8.890021e-01 -8.896180e+00
      vertex   6.834851e+00 8.169000e-01 -8.948340e+00
    endloop
  endfacet
  facet normal 6.312418e-01 8.211513e-02 -7.712269e-01
    outer loop
      vertex   6.834851e+00 8.169000e-01 -8.948340e+00
      vertex   6.889198e+00 8.890021e-01 -8.896180e+00
      vertex   6.897602e+00 8.244001e-01 -8.896180e+00
    endloop
  endfacet
  facet normal 6.319949e-01 7.593124e-02 -7.712438e-01
    outer loop
      vertex   6.834851e+00 8.169000e-01 -8.948340e+00
      vertex   6.897602e+00 8.244001e-01 -8.896180e+00
      vertex   6.842525e+00 7.530219e-01 -8.948340e+00
    endloop
  endfacet
  facet normal 6.319949e-01 7.593124e-02 -7.712438e-01
    outer loop
      vertex   6.842525e+00 7.530219e-01 -8.948340e+00
      vertex   6.897602e+00 8.244001e-01 -8.896180e+00
      vertex   6.905347e+00 7.599354e-01 -8.896180e+00
    endloop
  endfacet
  facet normal 6.326868e-01 6.976052e-02 -7.712593e-01
    outer loop
      vertex   6.842525e+00 7.530219e-01 -8.948340e+00
      vertex   6.905347e+00 7.599354e-01 -8.896180e+00
      vertex   6.849553e+00 6.892882e-01 -8.948340e+00
    endloop
  endfacet
  facet normal 6.326868e-01 6.976052e-02 -7.712593e-01
    outer loop
      vertex   6.849553e+00 6.892882e-01 -8.948340e+00
      vertex   6.905347e+00 7.599354e-01 -8.896180e+00
      vertex   6.912439e+00 6.956166e-01 -8.896180e+00
    endloop
  endfacet
  facet normal 6.333181e-01 6.360382e-02 -7.712734e-01
    outer loop
      vertex   6.849553e+00 6.892882e-01 -8.948340e+00
      vertex   6.912439e+00 6.956166e-01 -8.896180e+00
      vertex   6.855938e+00 6.257072e-01 -8.948340e+00
    endloop
  endfacet
  facet normal 6.333181e-01 6.360382e-02 -7.712734e-01
    outer loop
      vertex   6.855938e+00 6.257072e-01 -8.948340e+00
      vertex   6.912439e+00 6.956166e-01 -8.896180e+00
      vertex   6.918883e+00 6.314519e-01 -8.896180e+00
    endloop
  endfacet
  facet normal 6.338893e-01 5.746197e-02 -7.712862e-01
    outer loop
      vertex   6.855938e+00 6.257072e-01 -8.948340e+00
      vertex   6.918883e+00 6.314519e-01 -8.896180e+00
      vertex   6.861687e+00 5.622871e-01 -8.948340e+00
    endloop
  endfacet
  facet normal 6.338893e-01 5.746197e-02 -7.712862e-01
    outer loop
      vertex   6.861687e+00 5.622871e-01 -8.948340e+00
      vertex   6.918883e+00 6.314519e-01 -8.896180e+00
      vertex   6.924685e+00 5.674495e-01 -8.896180e+00
    endloop
  endfacet
  facet normal 6.344008e-01 5.133577e-02 -7.712977e-01
    outer loop
      vertex   6.861687e+00 5.622871e-01 -8.948340e+00
      vertex   6.924685e+00 5.674495e-01 -8.896180e+00
      vertex   6.866805e+00 4.990357e-01 -8.948340e+00
    endloop
  endfacet
  facet normal 6.344008e-01 5.133577e-02 -7.712977e-01
    outer loop
      vertex   6.866805e+00 4.990357e-01 -8.948340e+00
      vertex   6.924685e+00 5.674495e-01 -8.896180e+00
      vertex   6.929850e+00 5.036174e-01 -8.896180e+00
    endloop
  endfacet
  facet normal 6.348533e-01 4.522601e-02 -7.713079e-01
    outer loop
      vertex   6.866805e+00 4.990357e-01 -8.948340e+00
      vertex   6.929850e+00 5.036174e-01 -8.896180e+00
      vertex   6.871299e+00 4.359609e-01 -8.948340e+00
    endloop
  endfacet
  facet normal 6.348533e-01 4.522601e-02 -7.713079e-01
    outer loop
      vertex   6.871299e+00 4.359609e-01 -8.948340e+00
      vertex   6.929850e+00 5.036174e-01 -8.896180e+00
      vertex   6.934385e+00 4.399635e-01 -8.896180e+00
    endloop
  endfacet
  facet normal 6.352472e-01 3.913348e-02 -7.713168e-01
    outer loop
      vertex   6.871299e+00 4.359609e-01 -8.948340e+00
      vertex   6.934385e+00 4.399635e-01 -8.896180e+00
      vertex   6.875173e+00 3.730703e-01 -8.948340e+00
    endloop
  endfacet
  facet normal 6.352472e-01 3.913348e-02 -7.713168e-01
    outer loop
      vertex   6.875173e+00 3.730703e-01 -8.948340e+00
      vertex   6.934385e+00 4.399635e-01 -8.896180e+00
      vertex   6.938295e+00 3.764955e-01 -8.896180e+00
    endloop
  endfacet
  facet normal 6.355830e-01 3.305893e-02 -7.713244e-01
    outer loop
      vertex   6.875173e+00 3.730703e-01 -8.948340e+00
      vertex   6.938295e+00 3.764955e-01 -8.896180e+00
      vertex   6.878434e+00 3.103713e-01 -8.948340e+00
    endloop
  endfacet
  facet normal 6.355830e-01 3.305893e-02 -7.713244e-01
    outer loop
      vertex   6.878434e+00 3.103713e-01 -8.948340e+00
      vertex   6.938295e+00 3.764955e-01 -8.896180e+00
      vertex   6.941586e+00 3.132208e-01 -8.896180e+00
    endloop
  endfacet
  facet normal 6.358615e-01 2.700310e-02 -7.713307e-01
    outer loop
      vertex   6.878434e+00 3.103713e-01 -8.948340e+00
      vertex   6.941586e+00 3.132208e-01 -8.896180e+00
      vertex   6.881088e+00 2.478712e-01 -8.948340e+00
    endloop
  endfacet
  facet normal 6.358615e-01 2.700310e-02 -7.713307e-01
    outer loop
      vertex   6.881088e+00 2.478712e-01 -8.948340e+00
      vertex   6.941586e+00 3.132208e-01 -8.896180e+00
      vertex   6.944264e+00 2.501469e-01 -8.896180e+00
    endloop
  endfacet
  facet normal 6.360831e-01 2.096674e-02 -7.713357e-01
    outer loop
      vertex   6.881088e+00 2.478712e-01 -8.948340e+00
      vertex   6.944264e+00 2.501469e-01 -8.896180e+00
      vertex   6.883142e+00 1.855771e-01 -8.948340e+00
    endloop
  endfacet
  facet normal 6.360831e-01 2.096674e-02 -7.713357e-01
    outer loop
      vertex   6.883142e+00 1.855771e-01 -8.948340e+00
      vertex   6.944264e+00 2.501469e-01 -8.896180e+00
      vertex   6.946337e+00 1.872809e-01 -8.896180e+00
    endloop
  endfacet
  facet normal 6.362485e-01 1.494611e-02 -7.713394e-01
    outer loop
      vertex   6.883142e+00 1.855771e-01 -8.948340e+00
      vertex   6.946337e+00 1.872809e-01 -8.896180e+00
      vertex   6.884602e+00 1.234044e-01 -8.948340e+00
    endloop
  endfacet
  facet normal 6.362512e-01 1.494174e-02 -7.713373e-01
    outer loop
      vertex   6.884602e+00 1.234044e-01 -8.948340e+00
      vertex   6.946337e+00 1.872809e-01 -8.896180e+00
      vertex   6.947812e+00 1.244449e-01 -8.896180e+00
    endloop
  endfacet
  facet normal 6.363554e-01 8.950739e-03 -7.713441e-01
    outer loop
      vertex   6.884602e+00 1.234044e-01 -8.948340e+00
      vertex   6.947812e+00 1.244449e-01 -8.896180e+00
      vertex   6.885471e+00 6.163481e-02 -8.948340e+00
    endloop
  endfacet
  facet normal 6.363581e-01 8.946341e-03 -7.713419e-01
    outer loop
      vertex   6.885471e+00 6.163481e-02 -8.948340e+00
      vertex   6.947812e+00 1.244449e-01 -8.896180e+00
      vertex   6.948687e+00 6.220069e-02 -8.896180e+00
    endloop
  endfacet
  facet normal 6.364035e-01 4.156600e-03 -7.713451e-01
    outer loop
      vertex   6.885471e+00 6.163481e-02 -8.948340e+00
      vertex   6.948687e+00 6.220069e-02 -8.896180e+00
      vertex   6.911477e+00 -3.552352e-34 -8.927215e+00
    endloop
  endfacet
  facet normal 6.398624e-01 6.625251e-04 -7.684893e-01
    outer loop
      vertex   6.911477e+00 -3.552352e-34 -8.927215e+00
      vertex   6.948687e+00 6.220069e-02 -8.896180e+00
      vertex   7.000000e+00 0.000000e+00 -8.853509e+00
    endloop
  endfacet
  facet normal 6.436892e-01 6.032608e-03 -7.652632e-01
    outer loop
      vertex   7.000000e+00 0.000000e+00 -8.853509e+00
      vertex   6.948687e+00 6.220069e-02 -8.896180e+00
      vertex   7.000000e+00 1.253023e-01 -8.852521e+00
    endloop
  endfacet
  facet normal 6.415315e-01 9.019073e-03 -7.670437e-01
    outer loop
      vertex   7.000000e+00 1.253023e-01 -8.852521e+00
      vertex   6.948687e+00 6.220069e-02 -8.896180e+00
      vertex   6.947812e+00 1.244449e-01 -8.896180e+00
    endloop
  endfacet
  facet normal 6.414264e-01 1.506327e-02 -7.670367e-01
    outer loop
      vertex   7.000000e+00 1.253023e-01 -8.852521e+00
      vertex   6.947812e+00 1.244449e-01 -8.896180e+00
      vertex   6.946337e+00 1.872809e-01 -8.896180e+00
    endloop
  endfacet
  facet normal 6.351223e-01 9.443228e-02 -7.666174e-01
    outer loop
      vertex   6.873302e+00 1.000000e+00 -8.896138e+00
      vertex   6.936846e+00 1.000000e+00 -8.843493e+00
      vertex   6.880131e+00 9.537327e-01 -8.896180e+00
    endloop
  endfacet
  facet normal 6.353334e-01 9.403048e-02 -7.664918e-01
    outer loop
      vertex   6.880131e+00 9.537327e-01 -8.896180e+00
      vertex   6.936846e+00 1.000000e+00 -8.843493e+00
      vertex   6.942380e+00 9.623618e-01 -8.843524e+00
    endloop
  endfacet
  facet normal 6.360285e-01 8.909602e-02 -7.665048e-01
    outer loop
      vertex   6.880131e+00 9.537327e-01 -8.896180e+00
      vertex   6.942380e+00 9.623618e-01 -8.843524e+00
      vertex   6.889198e+00 8.890021e-01 -8.896180e+00
    endloop
  endfacet
  facet normal 6.360285e-01 8.909602e-02 -7.665048e-01
    outer loop
      vertex   6.889198e+00 8.890021e-01 -8.896180e+00
      vertex   6.942380e+00 9.623618e-01 -8.843524e+00
      vertex   6.951530e+00 8.970455e-01 -8.843524e+00
    endloop
  endfacet
  facet normal 6.368507e-01 8.284478e-02 -7.665232e-01
    outer loop
      vertex   6.889198e+00 8.890021e-01 -8.896180e+00
      vertex   6.951530e+00 8.970455e-01 -8.843524e+00
      vertex   6.897602e+00 8.244001e-01 -8.896180e+00
    endloop
  endfacet
  facet normal 6.368507e-01 8.284478e-02 -7.665232e-01
    outer loop
      vertex   6.897602e+00 8.244001e-01 -8.896180e+00
      vertex   6.951530e+00 8.970455e-01 -8.843524e+00
      vertex   6.960009e+00 8.318590e-01 -8.843524e+00
    endloop
  endfacet
  facet normal 6.376108e-01 7.660596e-02 -7.665403e-01
    outer loop
      vertex   6.897602e+00 8.244001e-01 -8.896180e+00
      vertex   6.960009e+00 8.318590e-01 -8.843524e+00
      vertex   6.905347e+00 7.599354e-01 -8.896180e+00
    endloop
  endfacet
  facet normal 6.376108e-01 7.660596e-02 -7.665403e-01
    outer loop
      vertex   6.905347e+00 7.599354e-01 -8.896180e+00
      vertex   6.960009e+00 8.318590e-01 -8.843524e+00
      vertex   6.967825e+00 7.668111e-01 -8.843524e+00
    endloop
  endfacet
  facet normal 6.383091e-01 7.038044e-02 -7.665560e-01
    outer loop
      vertex   6.905347e+00 7.599354e-01 -8.896180e+00
      vertex   6.967825e+00 7.668111e-01 -8.843524e+00
      vertex   6.912439e+00 6.956166e-01 -8.896180e+00
    endloop
  endfacet
  facet normal 6.383091e-01 7.038044e-02 -7.665560e-01
    outer loop
      vertex   6.912439e+00 6.956166e-01 -8.896180e+00
      vertex   6.967825e+00 7.668111e-01 -8.843524e+00
      vertex   6.974981e+00 7.019103e-01 -8.843524e+00
    endloop
  endfacet
  facet normal 6.389462e-01 6.416905e-02 -7.665703e-01
    outer loop
      vertex   6.912439e+00 6.956166e-01 -8.896180e+00
      vertex   6.974981e+00 7.019103e-01 -8.843524e+00
      vertex   6.918883e+00 6.314519e-01 -8.896180e+00
    endloop
  endfacet
  facet normal 6.389462e-01 6.416905e-02 -7.665703e-01
    outer loop
      vertex   6.918883e+00 6.314519e-01 -8.896180e+00
      vertex   6.974981e+00 7.019103e-01 -8.843524e+00
      vertex   6.981483e+00 6.371651e-01 -8.843524e+00
    endloop
  endfacet
  facet normal 6.395227e-01 5.797263e-02 -7.665833e-01
    outer loop
      vertex   6.918883e+00 6.314519e-01 -8.896180e+00
      vertex   6.981483e+00 6.371651e-01 -8.843524e+00
      vertex   6.924685e+00 5.674495e-01 -8.896180e+00
    endloop
  endfacet
  facet normal 6.395227e-01 5.797263e-02 -7.665833e-01
    outer loop
      vertex   6.924685e+00 5.674495e-01 -8.896180e+00
      vertex   6.981483e+00 6.371651e-01 -8.843524e+00
      vertex   6.987337e+00 5.725836e-01 -8.843524e+00
    endloop
  endfacet
  facet normal 6.400389e-01 5.179200e-02 -7.665949e-01
    outer loop
      vertex   6.924685e+00 5.674495e-01 -8.896180e+00
      vertex   6.987337e+00 5.725836e-01 -8.843524e+00
      vertex   6.929850e+00 5.036174e-01 -8.896180e+00
    endloop
  endfacet
  facet normal 6.400389e-01 5.179200e-02 -7.665949e-01
    outer loop
      vertex   6.929850e+00 5.036174e-01 -8.896180e+00
      vertex   6.987337e+00 5.725836e-01 -8.843524e+00
      vertex   6.992549e+00 5.081740e-01 -8.843524e+00
    endloop
  endfacet
  facet normal 6.404955e-01 4.562796e-02 -7.666052e-01
    outer loop
      vertex   6.929850e+00 5.036174e-01 -8.896180e+00
      vertex   6.992549e+00 5.081740e-01 -8.843524e+00
      vertex   6.934385e+00 4.399635e-01 -8.896180e+00
    endloop
  endfacet
  facet normal 6.404955e-01 4.562796e-02 -7.666052e-01
    outer loop
      vertex   6.934385e+00 4.399635e-01 -8.896180e+00
      vertex   6.992549e+00 5.081740e-01 -8.843524e+00
      vertex   6.997125e+00 4.439442e-01 -8.843524e+00
    endloop
  endfacet
  facet normal 6.408931e-01 3.948128e-02 -7.666142e-01
    outer loop
      vertex   6.934385e+00 4.399635e-01 -8.896180e+00
      vertex   6.997125e+00 4.439442e-01 -8.843524e+00
      vertex   6.938295e+00 3.764955e-01 -8.896180e+00
    endloop
  endfacet
  facet normal 6.409617e-01 3.938064e-02 -7.665620e-01
    outer loop
      vertex   6.938295e+00 3.764955e-01 -8.896180e+00
      vertex   6.997125e+00 4.439442e-01 -8.843524e+00
      vertex   7.000000e+00 3.758234e-01 -8.844619e+00
    endloop
  endfacet
  facet normal 6.410638e-01 3.334400e-02 -7.667629e-01
    outer loop
      vertex   6.938295e+00 3.764955e-01 -8.896180e+00
      vertex   7.000000e+00 3.758234e-01 -8.844619e+00
      vertex   6.941586e+00 3.132208e-01 -8.896180e+00
    endloop
  endfacet
  facet normal 6.430820e-01 3.017584e-02 -7.652026e-01
    outer loop
      vertex   6.941586e+00 3.132208e-01 -8.896180e+00
      vertex   7.000000e+00 3.758234e-01 -8.844619e+00
      vertex   7.000000e+00 2.505837e-01 -8.849558e+00
    endloop
  endfacet
  facet normal 6.412432e-01 2.723165e-02 -7.668543e-01
    outer loop
      vertex   6.941586e+00 3.132208e-01 -8.896180e+00
      vertex   7.000000e+00 2.505837e-01 -8.849558e+00
      vertex   6.944264e+00 2.501469e-01 -8.896180e+00
    endloop
  endfacet
  facet normal 6.413658e-01 2.114087e-02 -7.669439e-01
    outer loop
      vertex   6.944264e+00 2.501469e-01 -8.896180e+00
      vertex   7.000000e+00 2.505837e-01 -8.849558e+00
      vertex   6.946337e+00 1.872809e-01 -8.896180e+00
    endloop
  endfacet
  facet normal 6.407799e-01 9.482743e-02 -7.618457e-01
    outer loop
      vertex   6.936846e+00 1.000000e+00 -8.843493e+00
      vertex   7.000000e+00 1.000000e+00 -8.790375e+00
      vertex   6.942380e+00 9.623618e-01 -8.843524e+00
    endloop
  endfacet
  facet normal 6.427161e-01 9.033073e-02 -7.607604e-01
    outer loop
      vertex   6.942380e+00 9.623618e-01 -8.843524e+00
      vertex   7.000000e+00 1.000000e+00 -8.790375e+00
      vertex   7.000000e+00 8.755697e-01 -8.805150e+00
    endloop
  endfacet
  facet normal 6.424040e-01 8.998911e-02 -7.610644e-01
    outer loop
      vertex   6.942380e+00 9.623618e-01 -8.843524e+00
      vertex   7.000000e+00 8.755697e-01 -8.805150e+00
      vertex   6.951530e+00 8.970455e-01 -8.843524e+00
    endloop
  endfacet
  facet normal 6.410053e-01 8.338523e-02 -7.629935e-01
    outer loop
      vertex   6.951530e+00 8.970455e-01 -8.843524e+00
      vertex   7.000000e+00 8.755697e-01 -8.805150e+00
      vertex   6.960009e+00 8.318590e-01 -8.843524e+00
    endloop
  endfacet
  facet normal 6.444284e-01 7.820082e-02 -7.606554e-01
    outer loop
      vertex   7.000000e+00 8.755697e-01 -8.805150e+00
      vertex   7.000000e+00 7.509126e-01 -8.817965e+00
      vertex   6.960009e+00 8.318590e-01 -8.843524e+00
    endloop
  endfacet
  facet normal 6.432642e-01 7.728520e-02 -7.617337e-01
    outer loop
      vertex   6.960009e+00 8.318590e-01 -8.843524e+00
      vertex   7.000000e+00 7.509126e-01 -8.817965e+00
      vertex   6.967825e+00 7.668111e-01 -8.843524e+00
    endloop
  endfacet
  facet normal 6.416305e-01 7.074665e-02 -7.637442e-01
    outer loop
      vertex   6.967825e+00 7.668111e-01 -8.843524e+00
      vertex   7.000000e+00 7.509126e-01 -8.817965e+00
      vertex   6.974981e+00 7.019103e-01 -8.843524e+00
    endloop
  endfacet
  facet normal 6.468080e-01 6.603975e-02 -7.597882e-01
    outer loop
      vertex   6.974981e+00 7.019103e-01 -8.843524e+00
      vertex   7.000000e+00 7.509126e-01 -8.817965e+00
      vertex   7.000000e+00 6.260492e-01 -8.828818e+00
    endloop
  endfacet
  facet normal 6.441197e-01 6.468862e-02 -7.621845e-01
    outer loop
      vertex   6.974981e+00 7.019103e-01 -8.843524e+00
      vertex   7.000000e+00 6.260492e-01 -8.828818e+00
      vertex   6.981483e+00 6.371651e-01 -8.843524e+00
    endloop
  endfacet
  facet normal 6.420346e-01 5.820034e-02 -7.644634e-01
    outer loop
      vertex   6.981483e+00 6.371651e-01 -8.843524e+00
      vertex   7.000000e+00 6.260492e-01 -8.828818e+00
      vertex   6.987337e+00 5.725836e-01 -8.843524e+00
    endloop
  endfacet
  facet normal 6.516398e-01 5.376832e-02 -7.566205e-01
    outer loop
      vertex   7.000000e+00 6.260492e-01 -8.828818e+00
      vertex   7.000000e+00 5.010003e-01 -8.837705e+00
      vertex   6.987337e+00 5.725836e-01 -8.843524e+00
    endloop
  endfacet
  facet normal 6.454195e-01 5.222740e-02 -7.620407e-01
    outer loop
      vertex   6.987337e+00 5.725836e-01 -8.843524e+00
      vertex   7.000000e+00 5.010003e-01 -8.837705e+00
      vertex   6.992549e+00 5.081740e-01 -8.843524e+00
    endloop
  endfacet
  facet normal 6.418394e-01 4.572370e-02 -7.654747e-01
    outer loop
      vertex   6.992549e+00 5.081740e-01 -8.843524e+00
      vertex   7.000000e+00 5.010003e-01 -8.837705e+00
      vertex   6.997125e+00 4.439442e-01 -8.843524e+00
    endloop
  endfacet
  facet normal 6.795509e-01 4.046170e-02 -7.325117e-01
    outer loop
      vertex   6.997125e+00 4.439442e-01 -8.843524e+00
      vertex   7.000000e+00 5.010003e-01 -8.837705e+00
      vertex   7.000000e+00 3.758234e-01 -8.844619e+00
    endloop
  endfacet
  facet normal 6.434798e-01 1.810053e-02 -7.652490e-01
    outer loop
      vertex   7.000000e+00 2.505837e-01 -8.849558e+00
      vertex   7.000000e+00 1.253023e-01 -8.852521e+00
      vertex   6.946337e+00 1.872809e-01 -8.896180e+00
    endloop
  endfacet
  facet normal 0.000000e+00 1.000000e+00 -0.000000e+00
    outer loop
      vertex   7.000000e+00 1.000000e+00 -8.790375e+00
      vertex   6.936846e+00 1.000000e+00 -8.843493e+00
      vertex   7.000000e+00 1.000000e+00 -8.000000e+00
    endloop
  endfacet
  facet normal 0.000000e+00 1.000000e+00 0.000000e+00
    outer loop
      vertex   7.000000e+00 1.000000e+00 -8.000000e+00
      vertex   6.936846e+00 1.000000e+00 -8.843493e+00
      vertex   6.873302e+00 1.000000e+00 -8.896138e+00
    endloop
  endfacet
  facet normal 0.000000e+00 1.000000e+00 0.000000e+00
    outer loop
      vertex   7.000000e+00 1.000000e+00 -8.000000e+00
      vertex   6.873302e+00 1.000000e+00 -8.896138e+00
      vertex   6.000000e+00 1.000000e+00 -8.000000e+00
    endloop
  endfacet
  facet normal 0.000000e+00 1.000000e+00 0.000000e+00
    outer loop
      vertex   6.000000e+00 1.000000e+00 -8.000000e+00
      vertex   6.873302e+00 1.000000e+00 -8.896138e+00
      vertex   6.809369e+00 1.000000e+00 -8.948308e+00
    endloop
  endfacet
  facet normal 0.000000e+00 1.000000e+00 0.000000e+00
    outer loop
      vertex   6.000000e+00 1.000000e+00 -8.000000e+00
      vertex   6.809369e+00 1.000000e+00 -8.948308e+00
      vertex   6.745049e+00 1.000000e+00 -9.000000e+00
    endloop
  endfacet
  facet normal 0.000000e+00 1.000000e+00 0.000000e+00
    outer loop
      vertex   6.745049e+00 1.000000e+00 -9.000000e+00
      vertex   6.000000e+00 1.000000e+00 -9.000000e+00
      vertex   6.000000e+00 1.000000e+00 -8.000000e+00
    endloop
  endfacet
  facet normal -0.000000e+00 -0.000000e+00 -1.000000e+00
    outer loop
      vertex   6.745049e+00 1.000000e+00 -9.000000e+00
      vertex   6.754377e+00 9.379210e-01 -9.000000e+00
      vertex   6.000000e+00 1.000000e+00 -9.000000e+00
    endloop
  endfacet
  facet normal -2.379370e-15 -2.891383e-14 -1.000000e+00
    outer loop
      vertex   6.000000e+00 1.000000e+00 -9.000000e+00
      vertex   6.754377e+00 9.379210e-01 -9.000000e+00
      vertex   6.763106e+00 8.757664e-01 -9.000000e+00
    endloop
  endfacet
  facet normal 7.126808e-15 2.947798e-14 -1.000000e+00
    outer loop
      vertex   6.000000e+00 1.000000e+00 -9.000000e+00
      vertex   6.763106e+00 8.757664e-01 -9.000000e+00
      vertex   6.771236e+00 8.135405e-01 -9.000000e+00
    endloop
  endfacet
  facet normal -0.000000e+00 -0.000000e+00 -1.000000e+00
    outer loop
      vertex   6.771236e+00 8.135405e-01 -9.000000e+00
      vertex   6.778766e+00 7.512473e-01 -9.000000e+00
      vertex   6.000000e+00 1.000000e+00 -9.000000e+00
    endloop
  endfacet
  facet normal 0.000000e+00 0.000000e+00 -1.000000e+00
    outer loop
      vertex   6.000000e+00 1.000000e+00 -9.000000e+00
      vertex   6.778766e+00 7.512473e-01 -9.000000e+00
      vertex   6.785696e+00 6.888910e-01 -9.000000e+00
    endloop
  endfacet
  facet normal 0.000000e+00 0.000000e+00 -1.000000e+00
    outer loop
      vertex   6.000000e+00 1.000000e+00 -9.000000e+00
      vertex   6.785696e+00 6.888910e-01 -9.000000e+00
      vertex   6.792025e+00 6.264759e-01 -9.000000e+00
    endloop
  endfacet
  facet normal -0.000000e+00 -0.000000e+00 -1.000000e+00
    outer loop
      vertex   6.792025e+00 6.264759e-01 -9.000000e+00
      vertex   6.797753e+00 5.640060e-01 -9.000000e+00
      vertex   6.000000e+00 1.000000e+00 -9.000000e+00
    endloop
  endfacet
  facet normal 0.000000e+00 0.000000e+00 -1.000000e+00
    outer loop
      vertex   6.000000e+00 1.000000e+00 -9.000000e+00
      vertex   6.797753e+00 5.640060e-01 -9.000000e+00
      vertex   6.000000e+00 0.000000e+00 -9.000000e+00
    endloop
  endfacet
  facet normal 0.000000e+00 0.000000e+00 -1.000000e+00
    outer loop
      vertex   6.000000e+00 0.000000e+00 -9.000000e+00
      vertex   6.797753e+00 5.640060e-01 -9.000000e+00
      vertex   6.802880e+00 5.014855e-01 -9.000000e+00
    endloop
  endfacet
  facet normal 0.000000e+00 0.000000e+00 -1.000000e+00
    outer loop
      vertex   6.000000e+00 0.000000e+00 -9.000000e+00
      vertex   6.802880e+00 5.014855e-01 -9.000000e+00
      vertex   6.807405e+00 4.389186e-01 -9.000000e+00
    endloop
  endfacet
  facet normal 0.000000e+00 -0.000000e+00 -1.000000e+00
    outer loop
      vertex   6.807405e+00 4.389186e-01 -9.000000e+00
      vertex   6.811328e+00 3.763095e-01 -9.000000e+00
      vertex   6.000000e+00 0.000000e+00 -9.000000e+00
    endloop
  endfacet
  facet normal 0.000000e+00 0.000000e+00 -1.000000e+00
    outer loop
      vertex   6.000000e+00 0.000000e+00 -9.000000e+00
      vertex   6.811328e+00 3.763095e-01 -9.000000e+00
      vertex   6.814648e+00 3.136622e-01 -9.000000e+00
    endloop
  endfacet
  facet normal 0.000000e+00 0.000000e+00 -1.000000e+00
    outer loop
      vertex   6.000000e+00 0.000000e+00 -9.000000e+00
      vertex   6.814648e+00 3.136622e-01 -9.000000e+00
      vertex   6.817366e+00 2.509810e-01 -9.000000e+00
    endloop
  endfacet
  facet normal 0.000000e+00 -0.000000e+00 -1.000000e+00
    outer loop
      vertex   6.817366e+00 2.509810e-01 -9.000000e+00
      vertex   6.819480e+00 1.882700e-01 -9.000000e+00
      vertex   6.000000e+00 0.000000e+00 -9.000000e+00
    endloop
  endfacet
  facet normal 0.000000e+00 0.000000e+00 -1.000000e+00
    outer loop
      vertex   6.000000e+00 0.000000e+00 -9.000000e+00
      vertex   6.819480e+00 1.882700e-01 -9.000000e+00
      vertex   6.820991e+00 1.255334e-01 -9.000000e+00
    endloop
  endfacet
  facet normal 0.000000e+00 0.000000e+00 -1.000000e+00
    outer loop
      vertex   6.000000e+00 0.000000e+00 -9.000000e+00
      vertex   6.820991e+00 1.255334e-01 -9.000000e+00
      vertex   6.821897e+00 6.277536e-02 -9.000000e+00
    endloop
  endfacet
  facet normal 0.000000e+00 -0.000000e+00 -1.000000e+00
    outer loop
      vertex   6.821897e+00 6.277536e-02 -9.000000e+00
      vertex   6.822200e+00 0.000000e+00 -9.000000e+00
      vertex   6.000000e+00 0.000000e+00 -9.000000e+00
    endloop
  endfacet
  facet normal 0.000000e+00 0.000000e+00 1.000000e+00
    outer loop
      vertex   7.000000e+00 1.000000e+00 -8.000000e+00
      vertex   6.000000e+00 1.000000e+00 -8.000000e+00
      vertex   7.000000e+00 0.000000e+00 -8.000000e+00
    endloop
  endfacet
  facet normal 0.000000e+00 0.000000e+00 1.000000e+00
    outer loop
      vertex   7.000000e+00 0.000000e+00 -8.000000e+00
      vertex   6.000000e+00 1.000000e+00 -8.000000e+00
      vertex   6.000000e+00 0.000000e+00 -8.000000e+00
    endloop
  endfacet
  facet normal 0.000000e+00 -1.000000e+00 0.000000e+00
    outer loop
      vertex   6.000000e+00 0.000000e+00 -9.000000e+00
      vertex   6.822200e+00 0.000000e+00 -9.000000e+00
      vertex   6.000000e+00 0.000000e+00 -8.000000e+00
    endloop
  endfacet
  facet normal -2.382186e-33 -1.000000e+00 -1.958633e-33
    outer loop
      vertex   6.000000e+00 0.000000e+00 -8.000000e+00
      vertex   6.822200e+00 0.000000e+00 -9.000000e+00
      vertex   6.911477e+00 -3.552352e-34 -8.927215e+00
    endloop
  endfacet
  facet normal 0.000000e+00 -1.000000e+00 3.831206e-34
    outer loop
      vertex   6.000000e+00 0.000000e+00 -8.000000e+00
      vertex   6.911477e+00 -3.552352e-34 -8.927215e+00
      vertex   7.000000e+00 0.000000e+00 -8.000000e+00
    endloop
  endfacet
  facet normal 4.012933e-33 -1.000000e+00 0.000000e+00
    outer loop
      vertex   7.000000e+00 0.000000e+00 -8.000000e+00
      vertex   6.911477e+00 -3.552352e-34 -8.927215e+00
      vertex   7.000000e+00 0.000000e+00 -8.853509e+00
    endloop
  endfacet
  facet normal -1.000000e+00 -0.000000e+00 -0.000000e+00
    outer loop
      vertex   6.000000e+00 1.000000e+00 -8.000000e+00
      vertex   6.000000e+00 1.000000e+00 -9.000000e+00
      vertex   6.000000e+00 0.000000e+00 -8.000000e+00
    endloop
  endfacet
  facet normal -1.000000e+00 0.000000e+00 0.000000e+00
    outer loop
      vertex   6.000000e+00 0.000000e+00 -8.000000e+00
      vertex   6.000000e+00 1.000000e+00 -9.000000e+00
      vertex   6.000000e+00 0.000000e+00 -9.000000e+00
    endloop
  endfacet
  facet normal 1.000000e+00 -3.470425e-11 0.000000e+00
    outer loop
      vertex   7.000000e+00 0.000000e+00 -8.853509e+00
      vertex   7.000000e+00 1.253023e-01 -8.852521e+00
      vertex   7.000000e+00 0.000000e+00 -8.000000e+00
    endloop
  endfacet
  facet normal 1.000000e+00 -7.583479e-11 -6.045303e-12
    outer loop
      vertex   7.000000e+00 0.000000e+00 -8.000000e+00
      vertex   7.000000e+00 1.253023e-01 -8.852521e+00
      vertex   7.000000e+00 2.505837e-01 -8.849558e+00
    endloop
  endfacet
  facet normal 1.000000e+00 -7.480513e-11 -5.741595e-12
    outer loop
      vertex   7.000000e+00 0.000000e+00 -8.000000e+00
      vertex   7.000000e+00 2.505837e-01 -8.849558e+00
      vertex   7.000000e+00 3.758234e-01 -8.844619e+00
    endloop
  endfacet
  facet normal 1.000000e+00 -3.257207e-11 1.305051e-11
    outer loop
      vertex   7.000000e+00 3.758234e-01 -8.844619e+00
      vertex   7.000000e+00 5.010003e-01 -8.837705e+00
      vertex   7.000000e+00 0.000000e+00 -8.000000e+00
    endloop
  endfacet
  facet normal 1.000000e+00 -0.000000e+00 3.253066e-11
    outer loop
      vertex   7.000000e+00 0.000000e+00 -8.000000e+00
      vertex   7.000000e+00 5.010003e-01 -8.837705e+00
      vertex   7.000000e+00 1.000000e+00 -8.000000e+00
    endloop
  endfacet
  facet normal 1.000000e+00 3.525497e-11 1.153016e-11
    outer loop
      vertex   7.000000e+00 1.000000e+00 -8.000000e+00
      vertex   7.000000e+00 5.010003e-01 -8.837705e+00
      vertex   7.000000e+00 6.260492e-01 -8.828818e+00
    endloop
  endfacet
  facet normal 1.000000e+00 7.537357e-11 -6.570770e-12
    outer loop
      vertex   7.000000e+00 1.000000e+00 -8.000000e+00
      vertex   7.000000e+00 6.260492e-01 -8.828818e+00
      vertex   7.000000e+00 7.509126e-01 -8.817965e+00
    endloop
  endfacet
  facet normal 1.000000e+00 7.468232e-11 -6.360271e-12
    outer loop
      vertex   7.000000e+00 7.509126e-01 -8.817965e+00
      vertex   7.000000e+00 8.755697e-01 -8.805150e+00
      vertex   7.000000e+00 1.000000e+00 -8.000000e+00
    endloop
  endfacet
  facet normal 1.000000e+00 3.352699e-11 0.000000e+00
    outer loop
      vertex   7.000000e+00 1.000000e+00 -8.000000e+00
      vertex   7.000000e+00 8.755697e-01 -8.805150e+00
      vertex   7.000000e+00 1.000000e+00 -8.790375e+00
    endloop
  endfacet
endsolid
