solid ASCII
  facet normal 5.457336e-01 -5.873707e-01 5.976375e-01
    outer loop
      vertex   6.000000e+00 -6.228887e+00 7.000000e+00
      vertex   6.060663e+00 -6.172524e+00 7.000000e+00
      vertex   6.000000e+00 -6.172367e+00 7.055549e+00
    endloop
  endfacet
  facet normal 5.461792e-01 -5.864630e-01 5.981216e-01
    outer loop
      vertex   6.000000e+00 -6.172367e+00 7.055549e+00
      vertex   6.060663e+00 -6.172524e+00 7.000000e+00
      vertex   6.018968e+00 -6.155069e+00 7.055189e+00
    endloop
  endfacet
  facet normal 5.434094e-01 -5.833096e-01 6.037020e-01
    outer loop
      vertex   6.000000e+00 -6.172367e+00 7.055549e+00
      vertex   6.018968e+00 -6.155069e+00 7.055189e+00
      vertex   6.000000e+00 -6.115377e+00 7.110613e+00
    endloop
  endfacet
  facet normal 5.467451e-01 -5.808377e-01 6.030733e-01
    outer loop
      vertex   6.000000e+00 -6.115377e+00 7.110613e+00
      vertex   6.018968e+00 -6.155069e+00 7.055189e+00
      vertex   6.066209e+00 -6.110600e+00 7.055189e+00
    endloop
  endfacet
  facet normal 5.470075e-01 -5.802083e-01 6.034410e-01
    outer loop
      vertex   6.000000e+00 -6.115377e+00 7.110613e+00
      vertex   6.066209e+00 -6.110600e+00 7.055189e+00
      vertex   6.036906e+00 -6.081083e+00 7.110133e+00
    endloop
  endfacet
  facet normal 5.508763e-01 -5.764757e-01 6.034991e-01
    outer loop
      vertex   6.036906e+00 -6.081083e+00 7.110133e+00
      vertex   6.066209e+00 -6.110600e+00 7.055189e+00
      vertex   6.083580e+00 -6.036482e+00 7.110133e+00
    endloop
  endfacet
  facet normal 5.483371e-01 -5.738185e-01 6.083245e-01
    outer loop
      vertex   6.036906e+00 -6.081083e+00 7.110133e+00
      vertex   6.083580e+00 -6.036482e+00 7.110133e+00
      vertex   6.053811e+00 -6.006943e+00 7.164829e+00
    endloop
  endfacet
  facet normal 5.509114e-01 -5.713024e-01 6.083668e-01
    outer loop
      vertex   6.053811e+00 -6.006943e+00 7.164829e+00
      vertex   6.083580e+00 -6.036482e+00 7.110133e+00
      vertex   6.060559e+00 -6.000000e+00 7.165239e+00
    endloop
  endfacet
  facet normal 5.477124e-01 -5.685167e-01 6.138403e-01
    outer loop
      vertex   6.053811e+00 -6.006943e+00 7.164829e+00
      vertex   6.060559e+00 -6.000000e+00 7.165239e+00
      vertex   6.000000e+00 -6.000000e+00 7.219274e+00
    endloop
  endfacet
  facet normal 5.488244e-01 -5.830467e-01 5.990395e-01
    outer loop
      vertex   6.018968e+00 -6.155069e+00 7.055189e+00
      vertex   6.060663e+00 -6.172524e+00 7.000000e+00
      vertex   6.066209e+00 -6.110600e+00 7.055189e+00
    endloop
  endfacet
  facet normal 5.512781e-01 -5.820880e-01 5.977173e-01
    outer loop
      vertex   6.066209e+00 -6.110600e+00 7.055189e+00
      vertex   6.060663e+00 -6.172524e+00 7.000000e+00
      vertex   6.120783e+00 -6.115586e+00 7.000000e+00
    endloop
  endfacet
  facet normal 5.531002e-01 -5.788030e-01 5.992223e-01
    outer loop
      vertex   6.066209e+00 -6.110600e+00 7.055189e+00
      vertex   6.120783e+00 -6.115586e+00 7.000000e+00
      vertex   6.113110e+00 -6.065783e+00 7.055189e+00
    endloop
  endfacet
  facet normal 5.567473e-01 -5.767210e-01 5.978506e-01
    outer loop
      vertex   6.113110e+00 -6.065783e+00 7.055189e+00
      vertex   6.120783e+00 -6.115586e+00 7.000000e+00
      vertex   6.180355e+00 -6.058077e+00 7.000000e+00
    endloop
  endfacet
  facet normal 5.575185e-01 -5.747054e-01 5.990717e-01
    outer loop
      vertex   6.113110e+00 -6.065783e+00 7.055189e+00
      vertex   6.180355e+00 -6.058077e+00 7.000000e+00
      vertex   6.159665e+00 -6.020620e+00 7.055189e+00
    endloop
  endfacet
  facet normal 5.609937e-01 -5.719253e-01 5.984877e-01
    outer loop
      vertex   6.159665e+00 -6.020620e+00 7.055189e+00
      vertex   6.180355e+00 -6.058077e+00 7.000000e+00
      vertex   6.180250e+00 -6.000000e+00 7.055599e+00
    endloop
  endfacet
  facet normal 5.580536e-01 -5.690980e-01 6.039070e-01
    outer loop
      vertex   6.159665e+00 -6.020620e+00 7.055189e+00
      vertex   6.180250e+00 -6.000000e+00 7.055599e+00
      vertex   6.120643e+00 -6.000000e+00 7.110679e+00
    endloop
  endfacet
  facet normal 5.622176e-01 -5.713497e-01 5.978887e-01
    outer loop
      vertex   6.180355e+00 -6.058077e+00 7.000000e+00
      vertex   6.239376e+00 -6.000000e+00 7.000000e+00
      vertex   6.180250e+00 -6.000000e+00 7.055599e+00
    endloop
  endfacet
  facet normal 5.522686e-01 -5.701791e-01 6.081901e-01
    outer loop
      vertex   6.060559e+00 -6.000000e+00 7.165239e+00
      vertex   6.083580e+00 -6.036482e+00 7.110133e+00
      vertex   6.120643e+00 -6.000000e+00 7.110679e+00
    endloop
  endfacet
  facet normal 5.547773e-01 -5.726584e-01 6.035599e-01
    outer loop
      vertex   6.120643e+00 -6.000000e+00 7.110679e+00
      vertex   6.083580e+00 -6.036482e+00 7.110133e+00
      vertex   6.113110e+00 -6.065783e+00 7.055189e+00
    endloop
  endfacet
  facet normal 5.553342e-01 -5.724538e-01 6.032417e-01
    outer loop
      vertex   6.120643e+00 -6.000000e+00 7.110679e+00
      vertex   6.113110e+00 -6.065783e+00 7.055189e+00
      vertex   6.159665e+00 -6.020620e+00 7.055189e+00
    endloop
  endfacet
  facet normal 5.460672e-01 -5.714432e-01 6.125874e-01
    outer loop
      vertex   6.053811e+00 -6.006943e+00 7.164829e+00
      vertex   6.000000e+00 -6.000000e+00 7.219274e+00
      vertex   6.007366e+00 -6.051326e+00 7.164829e+00
    endloop
  endfacet
  facet normal 5.431108e-01 -5.730561e-01 6.137079e-01
    outer loop
      vertex   6.007366e+00 -6.051326e+00 7.164829e+00
      vertex   6.000000e+00 -6.000000e+00 7.219274e+00
      vertex   6.000000e+00 -6.057921e+00 7.165190e+00
    endloop
  endfacet
  facet normal 5.457590e-01 -5.763101e-01 6.082876e-01
    outer loop
      vertex   6.007366e+00 -6.051326e+00 7.164829e+00
      vertex   6.000000e+00 -6.057921e+00 7.165190e+00
      vertex   6.036906e+00 -6.081083e+00 7.110133e+00
    endloop
  endfacet
  facet normal 5.446377e-01 -5.775931e-01 6.080757e-01
    outer loop
      vertex   6.036906e+00 -6.081083e+00 7.110133e+00
      vertex   6.000000e+00 -6.057921e+00 7.165190e+00
      vertex   6.000000e+00 -6.115377e+00 7.110613e+00
    endloop
  endfacet
  facet normal 5.483371e-01 -5.738185e-01 6.083245e-01
    outer loop
      vertex   6.053811e+00 -6.006943e+00 7.164829e+00
      vertex   6.007366e+00 -6.051326e+00 7.164829e+00
      vertex   6.036906e+00 -6.081083e+00 7.110133e+00
    endloop
  endfacet
  facet normal 5.508763e-01 -5.764757e-01 6.034991e-01
    outer loop
      vertex   6.113110e+00 -6.065783e+00 7.055189e+00
      vertex   6.083580e+00 -6.036482e+00 7.110133e+00
      vertex   6.066209e+00 -6.110600e+00 7.055189e+00
    endloop
  endfacet
  facet normal 0.000000e+00 1.000000e+00 0.000000e+00
    outer loop
      vertex   6.000000e+00 -6.000000e+00 7.219274e+00
      vertex   6.060559e+00 -6.000000e+00 7.165239e+00
      vertex   6.000000e+00 -6.000000e+00 7.000000e+00
    endloop
  endfacet
  facet normal 0.000000e+00 1.000000e+00 0.000000e+00
    outer loop
      vertex   6.000000e+00 -6.000000e+00 7.000000e+00
      vertex   6.060559e+00 -6.000000e+00 7.165239e+00
      vertex   6.120643e+00 -6.000000e+00 7.110679e+00
    endloop
  endfacet
  facet normal 0.000000e+00 1.000000e+00 0.000000e+00
    outer loop
      vertex   6.000000e+00 -6.000000e+00 7.000000e+00
      vertex   6.120643e+00 -6.000000e+00 7.110679e+00
      vertex   6.180250e+00 -6.000000e+00 7.055599e+00
    endloop
  endfacet
  facet normal 0.000000e+00 1.000000e+00 0.000000e+00
    outer loop
      vertex   6.180250e+00 -6.000000e+00 7.055599e+00
      vertex   6.239376e+00 -6.000000e+00 7.000000e+00
      vertex   6.000000e+00 -6.000000e+00 7.000000e+00
    endloop
  endfacet
  facet normal -0.000000e+00 0.000000e+00 -1.000000e+00
    outer loop
      vertex   6.239376e+00 -6.000000e+00 7.000000e+00
      vertex   6.180355e+00 -6.058077e+00 7.000000e+00
      vertex   6.000000e+00 -6.000000e+00 7.000000e+00
    endloop
  endfacet
  facet normal 0.000000e+00 0.000000e+00 -1.000000e+00
    outer loop
      vertex   6.000000e+00 -6.000000e+00 7.000000e+00
      vertex   6.180355e+00 -6.058077e+00 7.000000e+00
      vertex   6.120783e+00 -6.115586e+00 7.000000e+00
    endloop
  endfacet
  facet normal 0.000000e+00 0.000000e+00 -1.000000e+00
    outer loop
      vertex   6.000000e+00 -6.000000e+00 7.000000e+00
      vertex   6.120783e+00 -6.115586e+00 7.000000e+00
      vertex   6.060663e+00 -6.172524e+00 7.000000e+00
    endloop
  endfacet
  facet normal -0.000000e+00 0.000000e+00 -1.000000e+00
    outer loop
      vertex   6.060663e+00 -6.172524e+00 7.000000e+00
      vertex   6.000000e+00 -6.228887e+00 7.000000e+00
      vertex   6.000000e+00 -6.000000e+00 7.000000e+00
    endloop
  endfacet
  facet normal -1.000000e+00 0.000000e+00 0.000000e+00
    outer loop
      vertex   6.000000e+00 -6.228887e+00 7.000000e+00
      vertex   6.000000e+00 -6.172367e+00 7.055549e+00
      vertex   6.000000e+00 -6.000000e+00 7.000000e+00
    endloop
  endfacet
  facet normal -1.000000e+00 0.000000e+00 0.000000e+00
    outer loop
      vertex   6.000000e+00 -6.000000e+00 7.000000e+00
      vertex   6.000000e+00 -6.172367e+00 7.055549e+00
      vertex   6.000000e+00 -6.115377e+00 7.110613e+00
    endloop
  endfacet
  facet normal -1.000000e+00 0.000000e+00 0.000000e+00
    outer loop
      vertex   6.000000e+00 -6.000000e+00 7.000000e+00
      vertex   6.000000e+00 -6.115377e+00 7.110613e+00
      vertex   6.000000e+00 -6.057921e+00 7.165190e+00
    endloop
  endfacet
  facet normal -1.000000e+00 0.000000e+00 0.000000e+00
    outer loop
      vertex   6.000000e+00 -6.057921e+00 7.165190e+00
      vertex   6.000000e+00 -6.000000e+00 7.219274e+00
      vertex   6.000000e+00 -6.000000e+00 7.000000e+00
    endloop
  endfacet
endsolid
