solid ASCII
  facet normal 0.000000e+00 -1.000000e+00 0.000000e+00
    outer loop
      vertex   -2.253015e+00 -8.945000e+00 -6.000000e+00
      vertex   -2.000000e+00 -8.945000e+00 -6.000000e+00
      vertex   -2.348879e+00 -8.945000e+00 -5.960748e+00
    endloop
  endfacet
  facet normal 0.000000e+00 -1.000000e+00 0.000000e+00
    outer loop
      vertex   -2.348879e+00 -8.945000e+00 -5.960748e+00
      vertex   -2.000000e+00 -8.945000e+00 -6.000000e+00
      vertex   -2.000000e+00 -8.945000e+00 -5.000000e+00
    endloop
  endfacet
  facet normal 0.000000e+00 -1.000000e+00 0.000000e+00
    outer loop
      vertex   -2.348879e+00 -8.945000e+00 -5.960748e+00
      vertex   -2.000000e+00 -8.945000e+00 -5.000000e+00
      vertex   -2.444069e+00 -8.945000e+00 -5.919881e+00
    endloop
  endfacet
  facet normal 0.000000e+00 -1.000000e+00 0.000000e+00
    outer loop
      vertex   -2.444069e+00 -8.945000e+00 -5.919881e+00
      vertex   -2.000000e+00 -8.945000e+00 -5.000000e+00
      vertex   -2.538567e+00 -8.945000e+00 -5.877407e+00
    endloop
  endfacet
  facet normal 0.000000e+00 -1.000000e+00 0.000000e+00
    outer loop
      vertex   -2.538567e+00 -8.945000e+00 -5.877407e+00
      vertex   -2.000000e+00 -8.945000e+00 -5.000000e+00
      vertex   -2.632352e+00 -8.945000e+00 -5.833336e+00
    endloop
  endfacet
  facet normal -1.391035e-14 -1.000000e+00 1.055545e-14
    outer loop
      vertex   -2.632352e+00 -8.945000e+00 -5.833336e+00
      vertex   -2.000000e+00 -8.945000e+00 -5.000000e+00
      vertex   -2.725408e+00 -8.945000e+00 -5.787680e+00
    endloop
  endfacet
  facet normal 0.000000e+00 -1.000000e+00 -2.255177e-15
    outer loop
      vertex   -2.725408e+00 -8.945000e+00 -5.787680e+00
      vertex   -2.000000e+00 -8.945000e+00 -5.000000e+00
      vertex   -3.000000e+00 -8.945000e+00 -5.000000e+00
    endloop
  endfacet
  facet normal -1.404536e-15 -1.000000e+00 -2.744811e-15
    outer loop
      vertex   -2.725408e+00 -8.945000e+00 -5.787680e+00
      vertex   -3.000000e+00 -8.945000e+00 -5.000000e+00
      vertex   -2.817713e+00 -8.945000e+00 -5.740446e+00
    endloop
  endfacet
  facet normal -2.380976e-14 -1.000000e+00 -8.260642e-15
    outer loop
      vertex   -2.817713e+00 -8.945000e+00 -5.740446e+00
      vertex   -3.000000e+00 -8.945000e+00 -5.000000e+00
      vertex   -2.909250e+00 -8.945000e+00 -5.691646e+00
    endloop
  endfacet
  facet normal 3.914850e-14 -1.000000e+00 8.931265e-24
    outer loop
      vertex   -2.909250e+00 -8.945000e+00 -5.691646e+00
      vertex   -3.000000e+00 -8.945000e+00 -5.000000e+00
      vertex   -3.000000e+00 -8.945000e+00 -5.641289e+00
    endloop
  endfacet
  facet normal -2.654746e-01 -8.229546e-01 -5.022638e-01
    outer loop
      vertex   -3.000000e+00 -8.732941e+00 -6.000000e+00
      vertex   -2.907585e+00 -8.762753e+00 -6.000000e+00
      vertex   -3.000000e+00 -8.787219e+00 -5.911065e+00
    endloop
  endfacet
  facet normal -2.647994e-01 -8.235073e-01 -5.017141e-01
    outer loop
      vertex   -3.000000e+00 -8.787219e+00 -5.911065e+00
      vertex   -2.907585e+00 -8.762753e+00 -6.000000e+00
      vertex   -2.923652e+00 -8.811869e+00 -5.910901e+00
    endloop
  endfacet
  facet normal -2.660997e-01 -8.274861e-01 -4.944267e-01
    outer loop
      vertex   -3.000000e+00 -8.787219e+00 -5.911065e+00
      vertex   -2.923652e+00 -8.811869e+00 -5.910901e+00
      vertex   -3.000000e+00 -8.840657e+00 -5.821631e+00
    endloop
  endfacet
  facet normal -2.654029e-01 -8.279720e-01 -4.939875e-01
    outer loop
      vertex   -3.000000e+00 -8.840657e+00 -5.821631e+00
      vertex   -2.923652e+00 -8.811869e+00 -5.910901e+00
      vertex   -2.939455e+00 -8.860198e+00 -5.821407e+00
    endloop
  endfacet
  facet normal -2.667107e-01 -8.319394e-01 -4.865617e-01
    outer loop
      vertex   -3.000000e+00 -8.840657e+00 -5.821631e+00
      vertex   -2.939455e+00 -8.860198e+00 -5.821407e+00
      vertex   -3.000000e+00 -8.893251e+00 -5.731703e+00
    endloop
  endfacet
  facet normal -2.660012e-01 -8.323565e-01 -4.862365e-01
    outer loop
      vertex   -3.000000e+00 -8.893251e+00 -5.731703e+00
      vertex   -2.939455e+00 -8.860198e+00 -5.821407e+00
      vertex   -2.954992e+00 -8.907734e+00 -5.731533e+00
    endloop
  endfacet
  facet normal -2.673039e-01 -8.363156e-01 -4.786698e-01
    outer loop
      vertex   -3.000000e+00 -8.893251e+00 -5.731703e+00
      vertex   -2.954992e+00 -8.907734e+00 -5.731533e+00
      vertex   -3.000000e+00 -8.945000e+00 -5.641289e+00
    endloop
  endfacet
  facet normal -2.652802e-01 -8.373034e-01 -4.780685e-01
    outer loop
      vertex   -3.000000e+00 -8.945000e+00 -5.641289e+00
      vertex   -2.954992e+00 -8.907734e+00 -5.731533e+00
      vertex   -2.909250e+00 -8.945000e+00 -5.691646e+00
    endloop
  endfacet
  facet normal -2.603188e-01 -8.361914e-01 -4.827194e-01
    outer loop
      vertex   -2.909250e+00 -8.945000e+00 -5.691646e+00
      vertex   -2.954992e+00 -8.907734e+00 -5.731533e+00
      vertex   -2.859998e+00 -8.937307e+00 -5.731533e+00
    endloop
  endfacet
  facet normal -2.534911e-01 -8.424094e-01 -4.754878e-01
    outer loop
      vertex   -2.909250e+00 -8.945000e+00 -5.691646e+00
      vertex   -2.859998e+00 -8.937307e+00 -5.731533e+00
      vertex   -2.817713e+00 -8.945000e+00 -5.740446e+00
    endloop
  endfacet
  facet normal -2.545704e-01 -8.359598e-01 -4.861740e-01
    outer loop
      vertex   -2.817713e+00 -8.945000e+00 -5.740446e+00
      vertex   -2.859998e+00 -8.937307e+00 -5.731533e+00
      vertex   -2.844757e+00 -8.889679e+00 -5.821407e+00
    endloop
  endfacet
  facet normal -2.510144e-01 -8.362341e-01 -4.875492e-01
    outer loop
      vertex   -2.817713e+00 -8.945000e+00 -5.740446e+00
      vertex   -2.844757e+00 -8.889679e+00 -5.821407e+00
      vertex   -2.750371e+00 -8.918011e+00 -5.821407e+00
    endloop
  endfacet
  facet normal -2.499864e-01 -8.328093e-01 -4.938983e-01
    outer loop
      vertex   -2.750371e+00 -8.918011e+00 -5.821407e+00
      vertex   -2.844757e+00 -8.889679e+00 -5.821407e+00
      vertex   -2.829261e+00 -8.841257e+00 -5.910901e+00
    endloop
  endfacet
  facet normal -2.499864e-01 -8.328093e-01 -4.938983e-01
    outer loop
      vertex   -2.750371e+00 -8.918011e+00 -5.821407e+00
      vertex   -2.829261e+00 -8.841257e+00 -5.910901e+00
      vertex   -2.735390e+00 -8.869434e+00 -5.910901e+00
    endloop
  endfacet
  facet normal -2.487228e-01 -8.285997e-01 -5.015570e-01
    outer loop
      vertex   -2.735390e+00 -8.869434e+00 -5.910901e+00
      vertex   -2.829261e+00 -8.841257e+00 -5.910901e+00
      vertex   -2.721895e+00 -8.819553e+00 -6.000000e+00
    endloop
  endfacet
  facet normal -2.404472e-01 -8.309883e-01 -5.016409e-01
    outer loop
      vertex   -2.735390e+00 -8.869434e+00 -5.910901e+00
      vertex   -2.721895e+00 -8.819553e+00 -6.000000e+00
      vertex   -2.628636e+00 -8.846537e+00 -6.000000e+00
    endloop
  endfacet
  facet normal -2.572214e-01 -8.259258e-01 -5.016809e-01
    outer loop
      vertex   -2.907585e+00 -8.762753e+00 -6.000000e+00
      vertex   -2.814881e+00 -8.791624e+00 -6.000000e+00
      vertex   -2.923652e+00 -8.811869e+00 -5.910901e+00
    endloop
  endfacet
  facet normal -2.571609e-01 -8.259818e-01 -5.016197e-01
    outer loop
      vertex   -2.923652e+00 -8.811869e+00 -5.910901e+00
      vertex   -2.814881e+00 -8.791624e+00 -6.000000e+00
      vertex   -2.829261e+00 -8.841257e+00 -5.910901e+00
    endloop
  endfacet
  facet normal -2.584685e-01 -8.301815e-01 -4.939561e-01
    outer loop
      vertex   -2.923652e+00 -8.811869e+00 -5.910901e+00
      vertex   -2.829261e+00 -8.841257e+00 -5.910901e+00
      vertex   -2.939455e+00 -8.860198e+00 -5.821407e+00
    endloop
  endfacet
  facet normal -2.584605e-01 -8.301890e-01 -4.939478e-01
    outer loop
      vertex   -2.939455e+00 -8.860198e+00 -5.821407e+00
      vertex   -2.829261e+00 -8.841257e+00 -5.910901e+00
      vertex   -2.844757e+00 -8.889679e+00 -5.821407e+00
    endloop
  endfacet
  facet normal -2.597540e-01 -8.343440e-01 -4.862077e-01
    outer loop
      vertex   -2.939455e+00 -8.860198e+00 -5.821407e+00
      vertex   -2.844757e+00 -8.889679e+00 -5.821407e+00
      vertex   -2.954992e+00 -8.907734e+00 -5.731533e+00
    endloop
  endfacet
  facet normal -2.597460e-01 -8.343514e-01 -4.861993e-01
    outer loop
      vertex   -2.954992e+00 -8.907734e+00 -5.731533e+00
      vertex   -2.844757e+00 -8.889679e+00 -5.821407e+00
      vertex   -2.859998e+00 -8.937307e+00 -5.731533e+00
    endloop
  endfacet
  facet normal -2.488429e-01 -8.284920e-01 -5.016755e-01
    outer loop
      vertex   -2.814881e+00 -8.791624e+00 -6.000000e+00
      vertex   -2.721895e+00 -8.819553e+00 -6.000000e+00
      vertex   -2.829261e+00 -8.841257e+00 -5.910901e+00
    endloop
  endfacet
  facet normal -2.403068e-01 -8.311114e-01 -5.015042e-01
    outer loop
      vertex   -2.735390e+00 -8.869434e+00 -5.910901e+00
      vertex   -2.628636e+00 -8.846537e+00 -6.000000e+00
      vertex   -2.641470e+00 -8.896590e+00 -5.910901e+00
    endloop
  endfacet
  facet normal -2.320311e-01 -8.334025e-01 -5.015993e-01
    outer loop
      vertex   -2.641470e+00 -8.896590e+00 -5.910901e+00
      vertex   -2.628636e+00 -8.846537e+00 -6.000000e+00
      vertex   -2.535111e+00 -8.872576e+00 -6.000000e+00
    endloop
  endfacet
  facet normal -2.318881e-01 -8.335251e-01 -5.014617e-01
    outer loop
      vertex   -2.641470e+00 -8.896590e+00 -5.910901e+00
      vertex   -2.535111e+00 -8.872576e+00 -6.000000e+00
      vertex   -2.547517e+00 -8.922728e+00 -5.910901e+00
    endloop
  endfacet
  facet normal -2.235949e-01 -8.357346e-01 -5.015506e-01
    outer loop
      vertex   -2.547517e+00 -8.922728e+00 -5.910901e+00
      vertex   -2.535111e+00 -8.872576e+00 -6.000000e+00
      vertex   -2.441328e+00 -8.897667e+00 -6.000000e+00
    endloop
  endfacet
  facet normal -2.234781e-01 -8.358328e-01 -5.014390e-01
    outer loop
      vertex   -2.547517e+00 -8.922728e+00 -5.910901e+00
      vertex   -2.441328e+00 -8.897667e+00 -6.000000e+00
      vertex   -2.444069e+00 -8.945000e+00 -5.919881e+00
    endloop
  endfacet
  facet normal -2.155838e-01 -8.374819e-01 -5.021432e-01
    outer loop
      vertex   -2.444069e+00 -8.945000e+00 -5.919881e+00
      vertex   -2.441328e+00 -8.897667e+00 -6.000000e+00
      vertex   -2.348879e+00 -8.945000e+00 -5.960748e+00
    endloop
  endfacet
  facet normal -2.148909e-01 -8.370169e-01 -5.032143e-01
    outer loop
      vertex   -2.348879e+00 -8.945000e+00 -5.960748e+00
      vertex   -2.441328e+00 -8.897667e+00 -6.000000e+00
      vertex   -2.347293e+00 -8.921809e+00 -6.000000e+00
    endloop
  endfacet
  facet normal -2.063222e-01 -8.387598e-01 -5.038979e-01
    outer loop
      vertex   -2.348879e+00 -8.945000e+00 -5.960748e+00
      vertex   -2.347293e+00 -8.921809e+00 -6.000000e+00
      vertex   -2.253015e+00 -8.945000e+00 -6.000000e+00
    endloop
  endfacet
  facet normal -2.236317e-01 -8.381165e-01 -4.975435e-01
    outer loop
      vertex   -2.444069e+00 -8.945000e+00 -5.919881e+00
      vertex   -2.538567e+00 -8.945000e+00 -5.877407e+00
      vertex   -2.547517e+00 -8.922728e+00 -5.910901e+00
    endloop
  endfacet
  facet normal -2.324628e-01 -8.373945e-01 -4.947035e-01
    outer loop
      vertex   -2.547517e+00 -8.922728e+00 -5.910901e+00
      vertex   -2.538567e+00 -8.945000e+00 -5.877407e+00
      vertex   -2.632352e+00 -8.945000e+00 -5.833336e+00
    endloop
  endfacet
  facet normal -2.328741e-01 -8.370694e-01 -4.950601e-01
    outer loop
      vertex   -2.547517e+00 -8.922728e+00 -5.910901e+00
      vertex   -2.632352e+00 -8.945000e+00 -5.833336e+00
      vertex   -2.641470e+00 -8.896590e+00 -5.910901e+00
    endloop
  endfacet
  facet normal -2.409932e-01 -8.358010e-01 -4.933142e-01
    outer loop
      vertex   -2.641470e+00 -8.896590e+00 -5.910901e+00
      vertex   -2.632352e+00 -8.945000e+00 -5.833336e+00
      vertex   -2.750371e+00 -8.918011e+00 -5.821407e+00
    endloop
  endfacet
  facet normal -2.415266e-01 -8.353302e-01 -4.938505e-01
    outer loop
      vertex   -2.641470e+00 -8.896590e+00 -5.910901e+00
      vertex   -2.750371e+00 -8.918011e+00 -5.821407e+00
      vertex   -2.735390e+00 -8.869434e+00 -5.910901e+00
    endloop
  endfacet
  facet normal -2.410563e-01 -8.369633e-01 -4.913087e-01
    outer loop
      vertex   -2.632352e+00 -8.945000e+00 -5.833336e+00
      vertex   -2.725408e+00 -8.945000e+00 -5.787680e+00
      vertex   -2.750371e+00 -8.918011e+00 -5.821407e+00
    endloop
  endfacet
  facet normal -2.487808e-01 -8.376979e-01 -4.861793e-01
    outer loop
      vertex   -2.750371e+00 -8.918011e+00 -5.821407e+00
      vertex   -2.725408e+00 -8.945000e+00 -5.787680e+00
      vertex   -2.817713e+00 -8.945000e+00 -5.740446e+00
    endloop
  endfacet
  facet normal -1.000000e+00 0.000000e+00 2.570417e-10
    outer loop
      vertex   -3.000000e+00 -8.732941e+00 -6.000000e+00
      vertex   -3.000000e+00 -8.787219e+00 -5.911065e+00
      vertex   -3.000000e+00 -8.000000e+00 -6.000000e+00
    endloop
  endfacet
  facet normal -1.000000e+00 3.698543e-11 5.844237e-10
    outer loop
      vertex   -3.000000e+00 -8.000000e+00 -6.000000e+00
      vertex   -3.000000e+00 -8.787219e+00 -5.911065e+00
      vertex   -3.000000e+00 -8.840657e+00 -5.821631e+00
    endloop
  endfacet
  facet normal -1.000000e+00 -8.701680e-11 0.000000e+00
    outer loop
      vertex   -3.000000e+00 -8.000000e+00 -6.000000e+00
      vertex   -3.000000e+00 -8.840657e+00 -5.821631e+00
      vertex   -3.000000e+00 -8.000000e+00 -5.000000e+00
    endloop
  endfacet
  facet normal -1.000000e+00 -4.031562e-10 3.234601e-10
    outer loop
      vertex   -3.000000e+00 -8.000000e+00 -5.000000e+00
      vertex   -3.000000e+00 -8.840657e+00 -5.821631e+00
      vertex   -3.000000e+00 -8.893251e+00 -5.731703e+00
    endloop
  endfacet
  facet normal -1.000000e+00 -2.350841e-10 1.182805e-10
    outer loop
      vertex   -3.000000e+00 -8.000000e+00 -5.000000e+00
      vertex   -3.000000e+00 -8.893251e+00 -5.731703e+00
      vertex   -3.000000e+00 -8.945000e+00 -5.641289e+00
    endloop
  endfacet
  facet normal -1.000000e+00 0.000000e+00 -2.281381e-10
    outer loop
      vertex   -3.000000e+00 -8.945000e+00 -5.641289e+00
      vertex   -3.000000e+00 -8.945000e+00 -5.000000e+00
      vertex   -3.000000e+00 -8.000000e+00 -5.000000e+00
    endloop
  endfacet
  facet normal 0.000000e+00 0.000000e+00 1.000000e+00
    outer loop
      vertex   -3.000000e+00 -8.945000e+00 -5.000000e+00
      vertex   -2.000000e+00 -8.945000e+00 -5.000000e+00
      vertex   -3.000000e+00 -8.000000e+00 -5.000000e+00
    endloop
  endfacet
  facet normal -0.000000e+00 0.000000e+00 1.000000e+00
    outer loop
      vertex   -3.000000e+00 -8.000000e+00 -5.000000e+00
      vertex   -2.000000e+00 -8.945000e+00 -5.000000e+00
      vertex   -2.000000e+00 -8.000000e+00 -5.000000e+00
    endloop
  endfacet
  facet normal -5.195362e-13 0.000000e+00 -1.000000e+00
    outer loop
      vertex   -2.000000e+00 -8.945000e+00 -6.000000e+00
      vertex   -2.253015e+00 -8.945000e+00 -6.000000e+00
      vertex   -2.000000e+00 -8.000000e+00 -6.000000e+00
    endloop
  endfacet
  facet normal 2.092991e-14 -1.447047e-13 -1.000000e+00
    outer loop
      vertex   -2.000000e+00 -8.000000e+00 -6.000000e+00
      vertex   -2.253015e+00 -8.945000e+00 -6.000000e+00
      vertex   -2.347293e+00 -8.921809e+00 -6.000000e+00
    endloop
  endfacet
  facet normal 1.143793e-13 -1.799120e-13 -1.000000e+00
    outer loop
      vertex   -2.000000e+00 -8.000000e+00 -6.000000e+00
      vertex   -2.347293e+00 -8.921809e+00 -6.000000e+00
      vertex   -2.441328e+00 -8.897667e+00 -6.000000e+00
    endloop
  endfacet
  facet normal 1.548885e-13 -1.998278e-13 -1.000000e+00
    outer loop
      vertex   -2.441328e+00 -8.897667e+00 -6.000000e+00
      vertex   -2.535111e+00 -8.872576e+00 -6.000000e+00
      vertex   -2.000000e+00 -8.000000e+00 -6.000000e+00
    endloop
  endfacet
  facet normal 2.103068e-13 -2.338133e-13 -1.000000e+00
    outer loop
      vertex   -2.000000e+00 -8.000000e+00 -6.000000e+00
      vertex   -2.535111e+00 -8.872576e+00 -6.000000e+00
      vertex   -2.628636e+00 -8.846537e+00 -6.000000e+00
    endloop
  endfacet
  facet normal -0.000000e+00 -7.764006e-14 -1.000000e+00
    outer loop
      vertex   -2.000000e+00 -8.000000e+00 -6.000000e+00
      vertex   -2.628636e+00 -8.846537e+00 -6.000000e+00
      vertex   -3.000000e+00 -8.000000e+00 -6.000000e+00
    endloop
  endfacet
  facet normal 2.469794e-13 3.070622e-14 -1.000000e+00
    outer loop
      vertex   -3.000000e+00 -8.000000e+00 -6.000000e+00
      vertex   -2.628636e+00 -8.846537e+00 -6.000000e+00
      vertex   -2.721895e+00 -8.819553e+00 -6.000000e+00
    endloop
  endfacet
  facet normal 2.481360e-13 3.109871e-14 -1.000000e+00
    outer loop
      vertex   -3.000000e+00 -8.000000e+00 -6.000000e+00
      vertex   -2.721895e+00 -8.819553e+00 -6.000000e+00
      vertex   -2.814881e+00 -8.791624e+00 -6.000000e+00
    endloop
  endfacet
  facet normal 1.976222e-13 1.928618e-14 -1.000000e+00
    outer loop
      vertex   -2.814881e+00 -8.791624e+00 -6.000000e+00
      vertex   -2.907585e+00 -8.762753e+00 -6.000000e+00
      vertex   -3.000000e+00 -8.000000e+00 -6.000000e+00
    endloop
  endfacet
  facet normal 3.844294e-14 0.000000e+00 -1.000000e+00
    outer loop
      vertex   -3.000000e+00 -8.000000e+00 -6.000000e+00
      vertex   -2.907585e+00 -8.762753e+00 -6.000000e+00
      vertex   -3.000000e+00 -8.732941e+00 -6.000000e+00
    endloop
  endfacet
  facet normal 0.000000e+00 1.000000e+00 0.000000e+00
    outer loop
      vertex   -2.000000e+00 -8.000000e+00 -5.000000e+00
      vertex   -2.000000e+00 -8.000000e+00 -6.000000e+00
      vertex   -3.000000e+00 -8.000000e+00 -5.000000e+00
    endloop
  endfacet
  facet normal 0.000000e+00 1.000000e+00 0.000000e+00
    outer loop
      vertex   -3.000000e+00 -8.000000e+00 -5.000000e+00
      vertex   -2.000000e+00 -8.000000e+00 -6.000000e+00
      vertex   -3.000000e+00 -8.000000e+00 -6.000000e+00
    endloop
  endfacet
  facet normal 1.000000e+00 -0.000000e+00 0.000000e+00
    outer loop
      vertex   -2.000000e+00 -8.945000e+00 -5.000000e+00
      vertex   -2.000000e+00 -8.945000e+00 -6.000000e+00
      vertex   -2.000000e+00 -8.000000e+00 -5.000000e+00
    endloop
  endfacet
  facet normal 1.000000e+00 0.000000e+00 0.000000e+00
    outer loop
      vertex   -2.000000e+00 -8.000000e+00 -5.000000e+00
      vertex   -2.000000e+00 -8.945000e+00 -6.000000e+00
      vertex   -2.000000e+00 -8.000000e+00 -6.000000e+00
    endloop
  endfacet
endsolid
