solid ASCII
  facet normal 4.625497e-01 -4.805689e-01 7.450512e-01
    outer loop
      vertex   5.129687e+00 -5.000000e+00 8.641720e+00
      vertex   5.067621e+00 -4.953227e+00 8.710422e+00
      vertex   5.000000e+00 -5.000000e+00 8.722233e+00
    endloop
  endfacet
  facet normal 4.591950e-01 -4.741652e-01 7.512039e-01
    outer loop
      vertex   5.000000e+00 -5.000000e+00 8.722233e+00
      vertex   5.067621e+00 -4.953227e+00 8.710422e+00
      vertex   5.019504e+00 -4.906197e+00 8.769521e+00
    endloop
  endfacet
  facet normal 4.523001e-01 -4.746735e-01 7.550561e-01
    outer loop
      vertex   5.000000e+00 -5.000000e+00 8.722233e+00
      vertex   5.019504e+00 -4.906197e+00 8.769521e+00
      vertex   5.000000e+00 -4.885611e+00 8.794145e+00
    endloop
  endfacet
  facet normal 4.610957e-01 -4.662526e-01 7.549830e-01
    outer loop
      vertex   5.000000e+00 -4.885611e+00 8.794145e+00
      vertex   5.019504e+00 -4.906197e+00 8.769521e+00
      vertex   5.077935e+00 -4.848411e+00 8.769521e+00
    endloop
  endfacet
  facet normal 4.605890e-01 -4.641164e-01 7.566067e-01
    outer loop
      vertex   5.000000e+00 -4.885611e+00 8.794145e+00
      vertex   5.077935e+00 -4.848411e+00 8.769521e+00
      vertex   5.028948e+00 -4.801639e+00 8.828033e+00
    endloop
  endfacet
  facet normal 4.651332e-01 -4.594456e-01 7.566775e-01
    outer loop
      vertex   5.028948e+00 -4.801639e+00 8.828033e+00
      vertex   5.077935e+00 -4.848411e+00 8.769521e+00
      vertex   5.086122e+00 -4.743757e+00 8.828033e+00
    endloop
  endfacet
  facet normal 4.616782e-01 -4.560328e-01 7.608464e-01
    outer loop
      vertex   5.028948e+00 -4.801639e+00 8.828033e+00
      vertex   5.086122e+00 -4.743757e+00 8.828033e+00
      vertex   5.000000e+00 -4.770240e+00 8.864418e+00
    endloop
  endfacet
  facet normal 4.616005e-01 -4.542553e-01 7.619561e-01
    outer loop
      vertex   5.000000e+00 -4.770240e+00 8.864418e+00
      vertex   5.086122e+00 -4.743757e+00 8.828033e+00
      vertex   5.036270e+00 -4.697260e+00 8.885953e+00
    endloop
  endfacet
  facet normal 4.549226e-01 -4.524360e-01 7.670379e-01
    outer loop
      vertex   5.000000e+00 -4.770240e+00 8.864418e+00
      vertex   5.036270e+00 -4.697260e+00 8.885953e+00
      vertex   5.000000e+00 -4.653900e+00 8.933041e+00
    endloop
  endfacet
  facet normal 4.621236e-01 -4.458963e-01 7.665626e-01
    outer loop
      vertex   5.000000e+00 -4.653900e+00 8.933041e+00
      vertex   5.036270e+00 -4.697260e+00 8.885953e+00
      vertex   5.092186e+00 -4.639310e+00 8.885953e+00
    endloop
  endfacet
  facet normal 4.622646e-01 -4.445625e-01 7.672520e-01
    outer loop
      vertex   5.000000e+00 -4.653900e+00 8.933041e+00
      vertex   5.092186e+00 -4.639310e+00 8.885953e+00
      vertex   5.041474e+00 -4.593108e+00 8.943277e+00
    endloop
  endfacet
  facet normal 4.666582e-01 -4.398266e-01 7.673218e-01
    outer loop
      vertex   5.041474e+00 -4.593108e+00 8.943277e+00
      vertex   5.092186e+00 -4.639310e+00 8.885953e+00
      vertex   5.096131e+00 -4.535117e+00 8.943277e+00
    endloop
  endfacet
  facet normal 4.623932e-01 -4.358068e-01 7.721820e-01
    outer loop
      vertex   5.041474e+00 -4.593108e+00 8.943277e+00
      vertex   5.096131e+00 -4.535117e+00 8.943277e+00
      vertex   5.000000e+00 -4.536609e+00 9.000000e+00
    endloop
  endfacet
  facet normal 4.628534e-01 -4.338391e-01 7.730138e-01
    outer loop
      vertex   5.000000e+00 -4.536609e+00 9.000000e+00
      vertex   5.096131e+00 -4.535117e+00 8.943277e+00
      vertex   5.060369e+00 -4.472202e+00 9.000000e+00
    endloop
  endfacet
  facet normal 4.675149e-01 -4.303955e-01 7.721331e-01
    outer loop
      vertex   5.060369e+00 -4.472202e+00 9.000000e+00
      vertex   5.096131e+00 -4.535117e+00 8.943277e+00
      vertex   5.150075e+00 -4.476520e+00 8.943277e+00
    endloop
  endfacet
  facet normal 4.683320e-01 -4.275647e-01 7.732099e-01
    outer loop
      vertex   5.060369e+00 -4.472202e+00 9.000000e+00
      vertex   5.150075e+00 -4.476520e+00 8.943277e+00
      vertex   5.119881e+00 -4.407016e+00 9.000000e+00
    endloop
  endfacet
  facet normal 4.725209e-01 -4.248746e-01 7.721435e-01
    outer loop
      vertex   5.119881e+00 -4.407016e+00 9.000000e+00
      vertex   5.150075e+00 -4.476520e+00 8.943277e+00
      vertex   5.203296e+00 -4.417332e+00 8.943277e+00
    endloop
  endfacet
  facet normal 4.737848e-01 -4.212651e-01 7.733458e-01
    outer loop
      vertex   5.119881e+00 -4.407016e+00 9.000000e+00
      vertex   5.203296e+00 -4.417332e+00 8.943277e+00
      vertex   5.178525e+00 -4.341060e+00 9.000000e+00
    endloop
  endfacet
  facet normal 4.774077e-01 -4.192466e-01 7.722138e-01
    outer loop
      vertex   5.178525e+00 -4.341060e+00 9.000000e+00
      vertex   5.203296e+00 -4.417332e+00 8.943277e+00
      vertex   5.255783e+00 -4.357563e+00 8.943277e+00
    endloop
  endfacet
  facet normal 4.792138e-01 -4.149395e-01 7.734206e-01
    outer loop
      vertex   5.178525e+00 -4.341060e+00 9.000000e+00
      vertex   5.255783e+00 -4.357563e+00 8.943277e+00
      vertex   5.236295e+00 -4.274342e+00 9.000000e+00
    endloop
  endfacet
  facet normal 4.821717e-01 -4.135137e-01 7.723450e-01
    outer loop
      vertex   5.236295e+00 -4.274342e+00 9.000000e+00
      vertex   5.255783e+00 -4.357563e+00 8.943277e+00
      vertex   5.307527e+00 -4.297228e+00 8.943277e+00
    endloop
  endfacet
  facet normal 4.846210e-01 -4.085873e-01 7.734332e-01
    outer loop
      vertex   5.236295e+00 -4.274342e+00 9.000000e+00
      vertex   5.307527e+00 -4.297228e+00 8.943277e+00
      vertex   5.293183e+00 -4.206868e+00 9.000000e+00
    endloop
  endfacet
  facet normal 4.868091e-01 -4.076782e-01 7.725383e-01
    outer loop
      vertex   5.293183e+00 -4.206868e+00 9.000000e+00
      vertex   5.307527e+00 -4.297228e+00 8.943277e+00
      vertex   5.358518e+00 -4.236339e+00 8.943277e+00
    endloop
  endfacet
  facet normal 4.900090e-01 -4.022082e-01 7.733821e-01
    outer loop
      vertex   5.293183e+00 -4.206868e+00 9.000000e+00
      vertex   5.358518e+00 -4.236339e+00 8.943277e+00
      vertex   5.349179e+00 -4.138648e+00 9.000000e+00
    endloop
  endfacet
  facet normal 4.913159e-01 -4.017422e-01 7.727948e-01
    outer loop
      vertex   5.349179e+00 -4.138648e+00 9.000000e+00
      vertex   5.358518e+00 -4.236339e+00 8.943277e+00
      vertex   5.408748e+00 -4.174910e+00 8.943277e+00
    endloop
  endfacet
  facet normal 4.953803e-01 -3.958016e-01 7.732655e-01
    outer loop
      vertex   5.349179e+00 -4.138648e+00 9.000000e+00
      vertex   5.408748e+00 -4.174910e+00 8.943277e+00
      vertex   5.404276e+00 -4.069690e+00 9.000000e+00
    endloop
  endfacet
  facet normal 4.956880e-01 -3.957080e-01 7.731162e-01
    outer loop
      vertex   5.404276e+00 -4.069690e+00 9.000000e+00
      vertex   5.408748e+00 -4.174910e+00 8.943277e+00
      vertex   5.458207e+00 -4.112955e+00 8.943277e+00
    endloop
  endfacet
  facet normal 5.003230e-01 -3.898909e-01 7.730860e-01
    outer loop
      vertex   5.404276e+00 -4.069690e+00 9.000000e+00
      vertex   5.458207e+00 -4.112955e+00 8.943277e+00
      vertex   5.506886e+00 -4.050487e+00 8.943277e+00
    endloop
  endfacet
  facet normal 5.051862e-01 -3.936807e-01 7.679859e-01
    outer loop
      vertex   5.506886e+00 -4.050487e+00 8.943277e+00
      vertex   5.458207e+00 -4.112955e+00 8.943277e+00
      vertex   5.513110e+00 -4.154327e+00 8.885953e+00
    endloop
  endfacet
  facet normal 5.051862e-01 -3.936807e-01 7.679859e-01
    outer loop
      vertex   5.506886e+00 -4.050487e+00 8.943277e+00
      vertex   5.513110e+00 -4.154327e+00 8.885953e+00
      vertex   5.562280e+00 -4.091231e+00 8.885953e+00
    endloop
  endfacet
  facet normal 5.100673e-01 -3.974844e-01 7.627828e-01
    outer loop
      vertex   5.562280e+00 -4.091231e+00 8.885953e+00
      vertex   5.513110e+00 -4.154327e+00 8.885953e+00
      vertex   5.567682e+00 -4.195449e+00 8.828033e+00
    endloop
  endfacet
  facet normal 5.100673e-01 -3.974844e-01 7.627828e-01
    outer loop
      vertex   5.562280e+00 -4.091231e+00 8.885953e+00
      vertex   5.567682e+00 -4.195449e+00 8.828033e+00
      vertex   5.617339e+00 -4.131728e+00 8.828033e+00
    endloop
  endfacet
  facet normal 5.149139e-01 -4.012613e-01 7.575309e-01
    outer loop
      vertex   5.617339e+00 -4.131728e+00 8.828033e+00
      vertex   5.567682e+00 -4.195449e+00 8.828033e+00
      vertex   5.621917e+00 -4.236317e+00 8.769521e+00
    endloop
  endfacet
  facet normal 5.149139e-01 -4.012613e-01 7.575309e-01
    outer loop
      vertex   5.617339e+00 -4.131728e+00 8.828033e+00
      vertex   5.621917e+00 -4.236317e+00 8.769521e+00
      vertex   5.672057e+00 -4.171975e+00 8.769521e+00
    endloop
  endfacet
  facet normal 5.197257e-01 -4.050110e-01 7.522308e-01
    outer loop
      vertex   5.672057e+00 -4.171975e+00 8.769521e+00
      vertex   5.621917e+00 -4.236317e+00 8.769521e+00
      vertex   5.675809e+00 -4.276926e+00 8.710422e+00
    endloop
  endfacet
  facet normal 5.197257e-01 -4.050110e-01 7.522308e-01
    outer loop
      vertex   5.672057e+00 -4.171975e+00 8.769521e+00
      vertex   5.675809e+00 -4.276926e+00 8.710422e+00
      vertex   5.726429e+00 -4.211968e+00 8.710422e+00
    endloop
  endfacet
  facet normal 5.245022e-01 -4.087333e-01 7.468832e-01
    outer loop
      vertex   5.726429e+00 -4.211968e+00 8.710422e+00
      vertex   5.675809e+00 -4.276926e+00 8.710422e+00
      vertex   5.729352e+00 -4.317272e+00 8.650741e+00
    endloop
  endfacet
  facet normal 5.245022e-01 -4.087333e-01 7.468832e-01
    outer loop
      vertex   5.726429e+00 -4.211968e+00 8.710422e+00
      vertex   5.729352e+00 -4.317272e+00 8.650741e+00
      vertex   5.780450e+00 -4.251701e+00 8.650741e+00
    endloop
  endfacet
  facet normal 5.292430e-01 -4.124276e-01 7.414886e-01
    outer loop
      vertex   5.780450e+00 -4.251701e+00 8.650741e+00
      vertex   5.729352e+00 -4.317272e+00 8.650741e+00
      vertex   5.782541e+00 -4.357352e+00 8.590484e+00
    endloop
  endfacet
  facet normal 5.292430e-01 -4.124276e-01 7.414886e-01
    outer loop
      vertex   5.780450e+00 -4.251701e+00 8.650741e+00
      vertex   5.782541e+00 -4.357352e+00 8.590484e+00
      vertex   5.834113e+00 -4.291172e+00 8.590484e+00
    endloop
  endfacet
  facet normal 5.339476e-01 -4.160938e-01 7.360475e-01
    outer loop
      vertex   5.834113e+00 -4.291172e+00 8.590484e+00
      vertex   5.782541e+00 -4.357352e+00 8.590484e+00
      vertex   5.835370e+00 -4.397161e+00 8.529656e+00
    endloop
  endfacet
  facet normal 5.339476e-01 -4.160938e-01 7.360475e-01
    outer loop
      vertex   5.834113e+00 -4.291172e+00 8.590484e+00
      vertex   5.835370e+00 -4.397161e+00 8.529656e+00
      vertex   5.887413e+00 -4.330376e+00 8.529656e+00
    endloop
  endfacet
  facet normal 5.386155e-01 -4.197314e-01 7.305606e-01
    outer loop
      vertex   5.887413e+00 -4.330376e+00 8.529656e+00
      vertex   5.835370e+00 -4.397161e+00 8.529656e+00
      vertex   5.887834e+00 -4.436694e+00 8.468263e+00
    endloop
  endfacet
  facet normal 5.386155e-01 -4.197314e-01 7.305606e-01
    outer loop
      vertex   5.887413e+00 -4.330376e+00 8.529656e+00
      vertex   5.887834e+00 -4.436694e+00 8.468263e+00
      vertex   5.940345e+00 -4.369310e+00 8.468263e+00
    endloop
  endfacet
  facet normal 5.432465e-01 -4.233402e-01 7.250285e-01
    outer loop
      vertex   5.940345e+00 -4.369310e+00 8.468263e+00
      vertex   5.887834e+00 -4.436694e+00 8.468263e+00
      vertex   5.939928e+00 -4.475949e+00 8.406310e+00
    endloop
  endfacet
  facet normal 5.432465e-01 -4.233402e-01 7.250285e-01
    outer loop
      vertex   5.940345e+00 -4.369310e+00 8.468263e+00
      vertex   5.939928e+00 -4.475949e+00 8.406310e+00
      vertex   5.992904e+00 -4.407968e+00 8.406310e+00
    endloop
  endfacet
  facet normal 5.477596e-01 -4.268572e-01 7.195501e-01
    outer loop
      vertex   5.992904e+00 -4.407968e+00 8.406310e+00
      vertex   5.939928e+00 -4.475949e+00 8.406310e+00
      vertex   6.000000e+00 -4.509776e+00 8.340513e+00
    endloop
  endfacet
  facet normal 5.619112e-01 -4.210170e-01 7.120397e-01
    outer loop
      vertex   5.992904e+00 -4.407968e+00 8.406310e+00
      vertex   6.000000e+00 -4.509776e+00 8.340513e+00
      vertex   6.000000e+00 -4.384113e+00 8.414815e+00
    endloop
  endfacet
  facet normal 4.710970e-01 -4.906631e-01 7.330193e-01
    outer loop
      vertex   5.258076e+00 -5.000000e+00 8.559207e+00
      vertex   5.223016e+00 -4.986935e+00 8.590484e+00
      vertex   5.129687e+00 -5.000000e+00 8.641720e+00
    endloop
  endfacet
  facet normal 4.733167e-01 -4.770573e-01 7.405320e-01
    outer loop
      vertex   5.129687e+00 -5.000000e+00 8.641720e+00
      vertex   5.223016e+00 -4.986935e+00 8.590484e+00
      vertex   5.174974e+00 -4.941064e+00 8.650741e+00
    endloop
  endfacet
  facet normal 4.682601e-01 -4.739650e-01 7.457142e-01
    outer loop
      vertex   5.129687e+00 -5.000000e+00 8.641720e+00
      vertex   5.174974e+00 -4.941064e+00 8.650741e+00
      vertex   5.067621e+00 -4.953227e+00 8.710422e+00
    endloop
  endfacet
  facet normal 4.683306e-01 -4.735685e-01 7.459218e-01
    outer loop
      vertex   5.067621e+00 -4.953227e+00 8.710422e+00
      vertex   5.174974e+00 -4.941064e+00 8.650741e+00
      vertex   5.126612e+00 -4.894888e+00 8.710422e+00
    endloop
  endfacet
  facet normal 4.640765e-01 -4.692668e-01 7.512801e-01
    outer loop
      vertex   5.067621e+00 -4.953227e+00 8.710422e+00
      vertex   5.126612e+00 -4.894888e+00 8.710422e+00
      vertex   5.077935e+00 -4.848411e+00 8.769521e+00
    endloop
  endfacet
  facet normal 4.694699e-01 -4.637292e-01 7.513676e-01
    outer loop
      vertex   5.077935e+00 -4.848411e+00 8.769521e+00
      vertex   5.126612e+00 -4.894888e+00 8.710422e+00
      vertex   5.135666e+00 -4.789966e+00 8.769521e+00
    endloop
  endfacet
  facet normal 4.651332e-01 -4.594456e-01 7.566775e-01
    outer loop
      vertex   5.077935e+00 -4.848411e+00 8.769521e+00
      vertex   5.135666e+00 -4.789966e+00 8.769521e+00
      vertex   5.086122e+00 -4.743757e+00 8.828033e+00
    endloop
  endfacet
  facet normal 4.704128e-01 -4.538944e-01 7.567639e-01
    outer loop
      vertex   5.086122e+00 -4.743757e+00 8.828033e+00
      vertex   5.135666e+00 -4.789966e+00 8.769521e+00
      vertex   5.142592e+00 -4.685232e+00 8.828033e+00
    endloop
  endfacet
  facet normal 4.659938e-01 -4.496306e-01 7.620250e-01
    outer loop
      vertex   5.086122e+00 -4.743757e+00 8.828033e+00
      vertex   5.142592e+00 -4.685232e+00 8.828033e+00
      vertex   5.092186e+00 -4.639310e+00 8.885953e+00
    endloop
  endfacet
  facet normal 4.711591e-01 -4.440687e-01 7.621103e-01
    outer loop
      vertex   5.092186e+00 -4.639310e+00 8.885953e+00
      vertex   5.142592e+00 -4.685232e+00 8.828033e+00
      vertex   5.147393e+00 -4.580735e+00 8.885953e+00
    endloop
  endfacet
  facet normal 4.666582e-01 -4.398266e-01 7.673218e-01
    outer loop
      vertex   5.092186e+00 -4.639310e+00 8.885953e+00
      vertex   5.147393e+00 -4.580735e+00 8.885953e+00
      vertex   5.096131e+00 -4.535117e+00 8.943277e+00
    endloop
  endfacet
  facet normal 4.717090e-01 -4.342566e-01 7.674059e-01
    outer loop
      vertex   5.096131e+00 -4.535117e+00 8.943277e+00
      vertex   5.147393e+00 -4.580735e+00 8.885953e+00
      vertex   5.150075e+00 -4.476520e+00 8.943277e+00
    endloop
  endfacet
  facet normal 4.845225e-01 -4.840234e-01 7.286695e-01
    outer loop
      vertex   5.385146e+00 -5.000000e+00 8.474713e+00
      vertex   5.330657e+00 -4.971831e+00 8.529656e+00
      vertex   5.258076e+00 -5.000000e+00 8.559207e+00
    endloop
  endfacet
  facet normal 4.836554e-01 -4.749564e-01 7.351829e-01
    outer loop
      vertex   5.258076e+00 -5.000000e+00 8.559207e+00
      vertex   5.330657e+00 -4.971831e+00 8.529656e+00
      vertex   5.282397e+00 -4.926819e+00 8.590484e+00
    endloop
  endfacet
  facet normal 4.807137e-01 -4.748355e-01 7.371876e-01
    outer loop
      vertex   5.258076e+00 -5.000000e+00 8.559207e+00
      vertex   5.282397e+00 -4.926819e+00 8.590484e+00
      vertex   5.223016e+00 -4.986935e+00 8.590484e+00
    endloop
  endfacet
  facet normal 4.780466e-01 -4.722010e-01 7.406062e-01
    outer loop
      vertex   5.223016e+00 -4.986935e+00 8.590484e+00
      vertex   5.282397e+00 -4.926819e+00 8.590484e+00
      vertex   5.233809e+00 -4.881502e+00 8.650741e+00
    endloop
  endfacet
  facet normal 4.780466e-01 -4.722010e-01 7.406062e-01
    outer loop
      vertex   5.223016e+00 -4.986935e+00 8.590484e+00
      vertex   5.233809e+00 -4.881502e+00 8.650741e+00
      vertex   5.174974e+00 -4.941064e+00 8.650741e+00
    endloop
  endfacet
  facet normal 4.737745e-01 -4.679812e-01 7.460103e-01
    outer loop
      vertex   5.174974e+00 -4.941064e+00 8.650741e+00
      vertex   5.233809e+00 -4.881502e+00 8.650741e+00
      vertex   5.184897e+00 -4.835882e+00 8.710422e+00
    endloop
  endfacet
  facet normal 4.737745e-01 -4.679812e-01 7.460103e-01
    outer loop
      vertex   5.174974e+00 -4.941064e+00 8.650741e+00
      vertex   5.184897e+00 -4.835882e+00 8.710422e+00
      vertex   5.126612e+00 -4.894888e+00 8.710422e+00
    endloop
  endfacet
  facet normal 4.694699e-01 -4.637292e-01 7.513676e-01
    outer loop
      vertex   5.126612e+00 -4.894888e+00 8.710422e+00
      vertex   5.184897e+00 -4.835882e+00 8.710422e+00
      vertex   5.135666e+00 -4.789966e+00 8.769521e+00
    endloop
  endfacet
  facet normal 4.710427e-01 -5.557611e-01 6.850171e-01
    outer loop
      vertex   5.510877e+00 -5.000000e+00 8.388256e+00
      vertex   5.486416e+00 -4.998479e+00 8.406310e+00
      vertex   5.385146e+00 -5.000000e+00 8.474713e+00
    endloop
  endfacet
  facet normal 4.963604e-01 -4.786859e-01 7.242141e-01
    outer loop
      vertex   5.385146e+00 -5.000000e+00 8.474713e+00
      vertex   5.486416e+00 -4.998479e+00 8.406310e+00
      vertex   5.438300e+00 -4.954641e+00 8.468263e+00
    endloop
  endfacet
  facet normal 4.928817e-01 -4.738195e-01 7.297689e-01
    outer loop
      vertex   5.385146e+00 -5.000000e+00 8.474713e+00
      vertex   5.438300e+00 -4.954641e+00 8.468263e+00
      vertex   5.389841e+00 -4.910493e+00 8.529656e+00
    endloop
  endfacet
  facet normal 4.974792e-01 -4.688755e-01 7.298426e-01
    outer loop
      vertex   5.389841e+00 -4.910493e+00 8.529656e+00
      vertex   5.438300e+00 -4.954641e+00 8.468263e+00
      vertex   5.448275e+00 -4.848494e+00 8.529656e+00
    endloop
  endfacet
  facet normal 4.931761e-01 -4.648198e-01 7.353365e-01
    outer loop
      vertex   5.389841e+00 -4.910493e+00 8.529656e+00
      vertex   5.448275e+00 -4.848494e+00 8.529656e+00
      vertex   5.398950e+00 -4.804600e+00 8.590484e+00
    endloop
  endfacet
  facet normal 4.985204e-01 -4.589392e-01 7.354265e-01
    outer loop
      vertex   5.398950e+00 -4.804600e+00 8.590484e+00
      vertex   5.448275e+00 -4.848494e+00 8.529656e+00
      vertex   5.456099e+00 -4.742521e+00 8.590484e+00
    endloop
  endfacet
  facet normal 4.941353e-01 -4.549023e-01 7.408740e-01
    outer loop
      vertex   5.398950e+00 -4.804600e+00 8.590484e+00
      vertex   5.456099e+00 -4.742521e+00 8.590484e+00
      vertex   5.405913e+00 -4.698899e+00 8.650741e+00
    endloop
  endfacet
  facet normal 4.993633e-01 -4.490104e-01 7.409628e-01
    outer loop
      vertex   5.405913e+00 -4.698899e+00 8.650741e+00
      vertex   5.456099e+00 -4.742521e+00 8.590484e+00
      vertex   5.461778e+00 -4.636770e+00 8.650741e+00
    endloop
  endfacet
  facet normal 4.948965e-01 -4.449940e-01 7.463631e-01
    outer loop
      vertex   5.405913e+00 -4.698899e+00 8.650741e+00
      vertex   5.461778e+00 -4.636770e+00 8.650741e+00
      vertex   5.410735e+00 -4.593437e+00 8.710422e+00
    endloop
  endfacet
  facet normal 5.000081e-01 -4.390936e-01 7.464507e-01
    outer loop
      vertex   5.410735e+00 -4.593437e+00 8.710422e+00
      vertex   5.461778e+00 -4.636770e+00 8.650741e+00
      vertex   5.465315e+00 -4.531286e+00 8.710422e+00
    endloop
  endfacet
  facet normal 4.954598e-01 -4.350995e-01 7.518032e-01
    outer loop
      vertex   5.410735e+00 -4.593437e+00 8.710422e+00
      vertex   5.465315e+00 -4.531286e+00 8.710422e+00
      vertex   5.413422e+00 -4.488261e+00 8.769521e+00
    endloop
  endfacet
  facet normal 5.004549e-01 -4.291935e-01 7.518895e-01
    outer loop
      vertex   5.413422e+00 -4.488261e+00 8.769521e+00
      vertex   5.465315e+00 -4.531286e+00 8.710422e+00
      vertex   5.466718e+00 -4.426116e+00 8.769521e+00
    endloop
  endfacet
  facet normal 4.958256e-01 -4.252234e-01 7.571935e-01
    outer loop
      vertex   5.413422e+00 -4.488261e+00 8.769521e+00
      vertex   5.466718e+00 -4.426116e+00 8.769521e+00
      vertex   5.413980e+00 -4.383418e+00 8.828033e+00
    endloop
  endfacet
  facet normal 5.007041e-01 -4.193145e-01 7.572785e-01
    outer loop
      vertex   5.413980e+00 -4.383418e+00 8.828033e+00
      vertex   5.466718e+00 -4.426116e+00 8.769521e+00
      vertex   5.465995e+00 -4.321308e+00 8.828033e+00
    endloop
  endfacet
  facet normal 4.959942e-01 -4.153703e-01 7.625334e-01
    outer loop
      vertex   5.413980e+00 -4.383418e+00 8.828033e+00
      vertex   5.465995e+00 -4.321308e+00 8.828033e+00
      vertex   5.412419e+00 -4.278952e+00 8.885953e+00
    endloop
  endfacet
  facet normal 5.007561e-01 -4.094614e-01 7.626170e-01
    outer loop
      vertex   5.412419e+00 -4.278952e+00 8.885953e+00
      vertex   5.465995e+00 -4.321308e+00 8.828033e+00
      vertex   5.463154e+00 -4.216905e+00 8.885953e+00
    endloop
  endfacet
  facet normal 4.959662e-01 -4.055447e-01 7.678223e-01
    outer loop
      vertex   5.412419e+00 -4.278952e+00 8.885953e+00
      vertex   5.463154e+00 -4.216905e+00 8.885953e+00
      vertex   5.408748e+00 -4.174910e+00 8.943277e+00
    endloop
  endfacet
  facet normal 5.006116e-01 -3.996385e-01 7.679044e-01
    outer loop
      vertex   5.408748e+00 -4.174910e+00 8.943277e+00
      vertex   5.463154e+00 -4.216905e+00 8.885953e+00
      vertex   5.458207e+00 -4.112955e+00 8.943277e+00
    endloop
  endfacet
  facet normal 5.064560e-01 -4.856037e-01 7.125246e-01
    outer loop
      vertex   5.635248e+00 -5.000000e+00 8.299854e+00
      vertex   5.594184e+00 -4.978341e+00 8.343803e+00
      vertex   5.510877e+00 -5.000000e+00 8.388256e+00
    endloop
  endfacet
  facet normal 5.071709e-01 -4.755884e-01 7.187443e-01
    outer loop
      vertex   5.510877e+00 -5.000000e+00 8.388256e+00
      vertex   5.594184e+00 -4.978341e+00 8.343803e+00
      vertex   5.545897e+00 -4.935369e+00 8.406310e+00
    endloop
  endfacet
  facet normal 5.034478e-01 -4.745009e-01 7.220729e-01
    outer loop
      vertex   5.510877e+00 -5.000000e+00 8.388256e+00
      vertex   5.545897e+00 -4.935369e+00 8.406310e+00
      vertex   5.486416e+00 -4.998479e+00 8.406310e+00
    endloop
  endfacet
  facet normal 5.017480e-01 -4.728988e-01 7.243036e-01
    outer loop
      vertex   5.486416e+00 -4.998479e+00 8.406310e+00
      vertex   5.545897e+00 -4.935369e+00 8.406310e+00
      vertex   5.497259e+00 -4.892086e+00 8.468263e+00
    endloop
  endfacet
  facet normal 5.017480e-01 -4.728988e-01 7.243036e-01
    outer loop
      vertex   5.486416e+00 -4.998479e+00 8.406310e+00
      vertex   5.497259e+00 -4.892086e+00 8.468263e+00
      vertex   5.438300e+00 -4.954641e+00 8.468263e+00
    endloop
  endfacet
  facet normal 4.974792e-01 -4.688755e-01 7.298426e-01
    outer loop
      vertex   5.438300e+00 -4.954641e+00 8.468263e+00
      vertex   5.497259e+00 -4.892086e+00 8.468263e+00
      vertex   5.448275e+00 -4.848494e+00 8.529656e+00
    endloop
  endfacet
  facet normal 5.115698e-01 -5.031013e-01 6.965525e-01
    outer loop
      vertex   5.758239e+00 -5.000000e+00 8.209525e+00
      vertex   5.749914e+00 -4.997910e+00 8.217149e+00
      vertex   5.635248e+00 -5.000000e+00 8.299854e+00
    endloop
  endfacet
  facet normal 5.190360e-01 -4.796345e-01 7.074972e-01
    outer loop
      vertex   5.635248e+00 -5.000000e+00 8.299854e+00
      vertex   5.749914e+00 -4.997910e+00 8.217149e+00
      vertex   5.701839e+00 -4.956122e+00 8.280747e+00
    endloop
  endfacet
  facet normal 5.167231e-01 -4.736378e-01 7.132072e-01
    outer loop
      vertex   5.635248e+00 -5.000000e+00 8.299854e+00
      vertex   5.701839e+00 -4.956122e+00 8.280747e+00
      vertex   5.653400e+00 -4.914018e+00 8.343803e+00
    endloop
  endfacet
  facet normal 5.211758e-01 -4.686235e-01 7.132796e-01
    outer loop
      vertex   5.653400e+00 -4.914018e+00 8.343803e+00
      vertex   5.701839e+00 -4.956122e+00 8.280747e+00
      vertex   5.711822e+00 -4.849045e+00 8.343803e+00
    endloop
  endfacet
  facet normal 5.168841e-01 -4.647646e-01 7.189052e-01
    outer loop
      vertex   5.653400e+00 -4.914018e+00 8.343803e+00
      vertex   5.711822e+00 -4.849045e+00 8.343803e+00
      vertex   5.662519e+00 -4.807189e+00 8.406310e+00
    endloop
  endfacet
  facet normal 5.222284e-01 -4.586070e-01 7.189973e-01
    outer loop
      vertex   5.662519e+00 -4.807189e+00 8.406310e+00
      vertex   5.711822e+00 -4.849045e+00 8.343803e+00
      vertex   5.719639e+00 -4.742145e+00 8.406310e+00
    endloop
  endfacet
  facet normal 5.178551e-01 -4.547665e-01 7.245782e-01
    outer loop
      vertex   5.662519e+00 -4.807189e+00 8.406310e+00
      vertex   5.719639e+00 -4.742145e+00 8.406310e+00
      vertex   5.669477e+00 -4.700556e+00 8.468263e+00
    endloop
  endfacet
  facet normal 5.230815e-01 -4.485982e-01 7.246691e-01
    outer loop
      vertex   5.669477e+00 -4.700556e+00 8.468263e+00
      vertex   5.719639e+00 -4.742145e+00 8.406310e+00
      vertex   5.725294e+00 -4.635472e+00 8.468263e+00
    endloop
  endfacet
  facet normal 5.186268e-01 -4.447779e-01 7.302047e-01
    outer loop
      vertex   5.669477e+00 -4.700556e+00 8.468263e+00
      vertex   5.725294e+00 -4.635472e+00 8.468263e+00
      vertex   5.674278e+00 -4.594167e+00 8.529656e+00
    endloop
  endfacet
  facet normal 5.237351e-01 -4.386019e-01 7.302944e-01
    outer loop
      vertex   5.674278e+00 -4.594167e+00 8.529656e+00
      vertex   5.725294e+00 -4.635472e+00 8.468263e+00
      vertex   5.728793e+00 -4.529071e+00 8.529656e+00
    endloop
  endfacet
  facet normal 5.191994e-01 -4.348035e-01 7.357839e-01
    outer loop
      vertex   5.674278e+00 -4.594167e+00 8.529656e+00
      vertex   5.728793e+00 -4.529071e+00 8.529656e+00
      vertex   5.676928e+00 -4.488068e+00 8.590484e+00
    endloop
  endfacet
  facet normal 5.241895e-01 -4.286226e-01 7.358723e-01
    outer loop
      vertex   5.676928e+00 -4.488068e+00 8.590484e+00
      vertex   5.728793e+00 -4.529071e+00 8.529656e+00
      vertex   5.730143e+00 -4.422989e+00 8.590484e+00
    endloop
  endfacet
  facet normal 5.195731e-01 -4.248478e-01 7.413151e-01
    outer loop
      vertex   5.676928e+00 -4.488068e+00 8.590484e+00
      vertex   5.730143e+00 -4.422989e+00 8.590484e+00
      vertex   5.677436e+00 -4.382305e+00 8.650741e+00
    endloop
  endfacet
  facet normal 5.244451e-01 -4.186648e-01 7.414021e-01
    outer loop
      vertex   5.677436e+00 -4.382305e+00 8.650741e+00
      vertex   5.730143e+00 -4.422989e+00 8.590484e+00
      vertex   5.729352e+00 -4.317272e+00 8.650741e+00
    endloop
  endfacet
  facet normal 5.197484e-01 -4.149155e-01 7.467977e-01
    outer loop
      vertex   5.677436e+00 -4.382305e+00 8.650741e+00
      vertex   5.729352e+00 -4.317272e+00 8.650741e+00
      vertex   5.675809e+00 -4.276926e+00 8.710422e+00
    endloop
  endfacet
  facet normal 5.295759e-01 -4.818634e-01 6.981096e-01
    outer loop
      vertex   5.879830e+00 -5.000000e+00 8.117288e+00
      vertex   5.857533e+00 -4.972746e+00 8.153014e+00
      vertex   5.758239e+00 -5.000000e+00 8.209525e+00
    endloop
  endfacet
  facet normal 5.300649e-01 -4.757688e-01 7.019083e-01
    outer loop
      vertex   5.758239e+00 -5.000000e+00 8.209525e+00
      vertex   5.857533e+00 -4.972746e+00 8.153014e+00
      vertex   5.809334e+00 -4.931827e+00 8.217149e+00
    endloop
  endfacet
  facet normal 5.270423e-01 -4.738984e-01 7.054408e-01
    outer loop
      vertex   5.758239e+00 -5.000000e+00 8.209525e+00
      vertex   5.809334e+00 -4.931827e+00 8.217149e+00
      vertex   5.749914e+00 -4.997910e+00 8.217149e+00
    endloop
  endfacet
  facet normal 5.254313e-01 -4.724499e-01 7.076108e-01
    outer loop
      vertex   5.749914e+00 -4.997910e+00 8.217149e+00
      vertex   5.809334e+00 -4.931827e+00 8.217149e+00
      vertex   5.760762e+00 -4.890592e+00 8.280747e+00
    endloop
  endfacet
  facet normal 5.254313e-01 -4.724499e-01 7.076108e-01
    outer loop
      vertex   5.749914e+00 -4.997910e+00 8.217149e+00
      vertex   5.760762e+00 -4.890592e+00 8.280747e+00
      vertex   5.701839e+00 -4.956122e+00 8.280747e+00
    endloop
  endfacet
  facet normal 5.211758e-01 -4.686235e-01 7.132796e-01
    outer loop
      vertex   5.701839e+00 -4.956122e+00 8.280747e+00
      vertex   5.760762e+00 -4.890592e+00 8.280747e+00
      vertex   5.711822e+00 -4.849045e+00 8.343803e+00
    endloop
  endfacet
  facet normal 5.414732e-01 -4.784677e-01 6.912853e-01
    outer loop
      vertex   6.000000e+00 -5.000000e+00 8.023161e+00
      vertex   5.964924e+00 -4.945511e+00 8.088350e+00
      vertex   5.879830e+00 -5.000000e+00 8.117288e+00
    endloop
  endfacet
  facet normal 5.397674e-01 -4.731671e-01 6.962500e-01
    outer loop
      vertex   5.879830e+00 -5.000000e+00 8.117288e+00
      vertex   5.964924e+00 -4.945511e+00 8.088350e+00
      vertex   5.916620e+00 -4.905462e+00 8.153014e+00
    endloop
  endfacet
  facet normal 5.387164e-01 -4.730862e-01 6.971184e-01
    outer loop
      vertex   5.879830e+00 -5.000000e+00 8.117288e+00
      vertex   5.916620e+00 -4.905462e+00 8.153014e+00
      vertex   5.857533e+00 -4.972746e+00 8.153014e+00
    endloop
  endfacet
  facet normal 5.351300e-01 -4.699368e-01 7.019939e-01
    outer loop
      vertex   5.857533e+00 -4.972746e+00 8.153014e+00
      vertex   5.916620e+00 -4.905462e+00 8.153014e+00
      vertex   5.867934e+00 -4.865097e+00 8.217149e+00
    endloop
  endfacet
  facet normal 5.351300e-01 -4.699368e-01 7.019939e-01
    outer loop
      vertex   5.857533e+00 -4.972746e+00 8.153014e+00
      vertex   5.867934e+00 -4.865097e+00 8.217149e+00
      vertex   5.809334e+00 -4.931827e+00 8.217149e+00
    endloop
  endfacet
  facet normal 5.308662e-01 -4.661924e-01 7.077045e-01
    outer loop
      vertex   5.809334e+00 -4.931827e+00 8.217149e+00
      vertex   5.867934e+00 -4.865097e+00 8.217149e+00
      vertex   5.818872e+00 -4.824420e+00 8.280747e+00
    endloop
  endfacet
  facet normal 5.308662e-01 -4.661924e-01 7.077045e-01
    outer loop
      vertex   5.809334e+00 -4.931827e+00 8.217149e+00
      vertex   5.818872e+00 -4.824420e+00 8.280747e+00
      vertex   5.760762e+00 -4.890592e+00 8.280747e+00
    endloop
  endfacet
  facet normal 5.265656e-01 -4.624157e-01 7.133725e-01
    outer loop
      vertex   5.760762e+00 -4.890592e+00 8.280747e+00
      vertex   5.818872e+00 -4.824420e+00 8.280747e+00
      vertex   5.769439e+00 -4.783435e+00 8.343803e+00
    endloop
  endfacet
  facet normal 5.265656e-01 -4.624157e-01 7.133725e-01
    outer loop
      vertex   5.760762e+00 -4.890592e+00 8.280747e+00
      vertex   5.769439e+00 -4.783435e+00 8.343803e+00
      vertex   5.711822e+00 -4.849045e+00 8.343803e+00
    endloop
  endfacet
  facet normal 5.222284e-01 -4.586070e-01 7.189973e-01
    outer loop
      vertex   5.711822e+00 -4.849045e+00 8.343803e+00
      vertex   5.769439e+00 -4.783435e+00 8.343803e+00
      vertex   5.719639e+00 -4.742145e+00 8.406310e+00
    endloop
  endfacet
  facet normal 5.506247e-01 -4.704826e-01 6.895350e-01
    outer loop
      vertex   6.000000e+00 -5.000000e+00 8.023161e+00
      vertex   6.000000e+00 -4.879350e+00 8.105483e+00
      vertex   5.964924e+00 -4.945511e+00 8.088350e+00
    endloop
  endfacet
  facet normal 5.436821e-01 -4.685591e-01 6.963205e-01
    outer loop
      vertex   5.964924e+00 -4.945511e+00 8.088350e+00
      vertex   6.000000e+00 -4.879350e+00 8.105483e+00
      vertex   5.916620e+00 -4.905462e+00 8.153014e+00
    endloop
  endfacet
  facet normal 5.437876e-01 -4.663559e-01 6.977158e-01
    outer loop
      vertex   5.916620e+00 -4.905462e+00 8.153014e+00
      vertex   6.000000e+00 -4.879350e+00 8.105483e+00
      vertex   5.974870e+00 -4.837540e+00 8.153014e+00
    endloop
  endfacet
  facet normal 5.531496e-01 -4.583729e-01 6.956435e-01
    outer loop
      vertex   5.974870e+00 -4.837540e+00 8.153014e+00
      vertex   6.000000e+00 -4.879350e+00 8.105483e+00
      vertex   6.000000e+00 -4.757415e+00 8.185828e+00
    endloop
  endfacet
  facet normal 5.448005e-01 -4.584257e-01 7.021668e-01
    outer loop
      vertex   5.974870e+00 -4.837540e+00 8.153014e+00
      vertex   6.000000e+00 -4.757415e+00 8.185828e+00
      vertex   5.925705e+00 -4.797734e+00 8.217149e+00
    endloop
  endfacet
  facet normal 5.442682e-01 -4.557973e-01 7.042875e-01
    outer loop
      vertex   5.925705e+00 -4.797734e+00 8.217149e+00
      vertex   6.000000e+00 -4.757415e+00 8.185828e+00
      vertex   5.982635e+00 -4.729754e+00 8.217149e+00
    endloop
  endfacet
  facet normal 5.415136e-01 -4.534905e-01 7.078908e-01
    outer loop
      vertex   5.925705e+00 -4.797734e+00 8.217149e+00
      vertex   5.982635e+00 -4.729754e+00 8.217149e+00
      vertex   5.932615e+00 -4.690208e+00 8.280747e+00
    endloop
  endfacet
  facet normal 5.461430e-01 -4.477708e-01 7.079754e-01
    outer loop
      vertex   5.932615e+00 -4.690208e+00 8.280747e+00
      vertex   5.982635e+00 -4.729754e+00 8.217149e+00
      vertex   6.000000e+00 -4.634217e+00 8.264177e+00
    endloop
  endfacet
  facet normal 5.448712e-01 -4.455337e-01 7.103627e-01
    outer loop
      vertex   5.932615e+00 -4.690208e+00 8.280747e+00
      vertex   6.000000e+00 -4.634217e+00 8.264177e+00
      vertex   5.988225e+00 -4.622198e+00 8.280747e+00
    endloop
  endfacet
  facet normal 5.541998e-01 -4.352416e-01 7.095261e-01
    outer loop
      vertex   5.988225e+00 -4.622198e+00 8.280747e+00
      vertex   6.000000e+00 -4.634217e+00 8.264177e+00
      vertex   6.000000e+00 -4.509776e+00 8.340513e+00
    endloop
  endfacet
  facet normal 5.475320e-01 -4.367846e-01 7.137422e-01
    outer loop
      vertex   5.988225e+00 -4.622198e+00 8.280747e+00
      vertex   6.000000e+00 -4.509776e+00 8.340513e+00
      vertex   5.937353e+00 -4.582931e+00 8.343803e+00
    endloop
  endfacet
  facet normal 5.501621e-01 -4.391947e-01 7.102321e-01
    outer loop
      vertex   5.937353e+00 -4.582931e+00 8.343803e+00
      vertex   6.000000e+00 -4.509776e+00 8.340513e+00
      vertex   5.991646e+00 -4.514920e+00 8.343803e+00
    endloop
  endfacet
  facet normal 5.428689e-01 -4.333726e-01 7.193619e-01
    outer loop
      vertex   5.937353e+00 -4.582931e+00 8.343803e+00
      vertex   5.991646e+00 -4.514920e+00 8.343803e+00
      vertex   5.939928e+00 -4.475949e+00 8.406310e+00
    endloop
  endfacet
  facet normal 5.469466e-01 -4.280852e-01 7.194391e-01
    outer loop
      vertex   5.939928e+00 -4.475949e+00 8.406310e+00
      vertex   5.991646e+00 -4.514920e+00 8.343803e+00
      vertex   6.000000e+00 -4.509776e+00 8.340513e+00
    endloop
  endfacet
  facet normal 5.549868e-01 -4.464047e-01 7.019348e-01
    outer loop
      vertex   6.000000e+00 -4.757415e+00 8.185828e+00
      vertex   6.000000e+00 -4.634217e+00 8.264177e+00
      vertex   5.982635e+00 -4.729754e+00 8.217149e+00
    endloop
  endfacet
  facet normal 5.672168e-01 -4.075704e-01 7.156476e-01
    outer loop
      vertex   6.000000e+00 -4.257248e+00 8.487066e+00
      vertex   5.992008e+00 -4.301387e+00 8.468263e+00
      vertex   6.000000e+00 -4.384113e+00 8.414815e+00
    endloop
  endfacet
  facet normal 5.472676e-01 -4.162548e-01 7.261061e-01
    outer loop
      vertex   6.000000e+00 -4.384113e+00 8.414815e+00
      vertex   5.992008e+00 -4.301387e+00 8.468263e+00
      vertex   5.940345e+00 -4.369310e+00 8.468263e+00
    endloop
  endfacet
  facet normal 5.452360e-01 -4.207024e-01 7.250704e-01
    outer loop
      vertex   6.000000e+00 -4.384113e+00 8.414815e+00
      vertex   5.940345e+00 -4.369310e+00 8.468263e+00
      vertex   5.992904e+00 -4.407968e+00 8.406310e+00
    endloop
  endfacet
  facet normal 5.641004e-01 -3.968632e-01 7.240790e-01
    outer loop
      vertex   6.000000e+00 -4.129204e+00 8.557246e+00
      vertex   5.988967e+00 -4.195224e+00 8.529656e+00
      vertex   6.000000e+00 -4.257248e+00 8.487066e+00
    endloop
  endfacet
  facet normal 5.466364e-01 -4.057513e-01 7.324989e-01
    outer loop
      vertex   6.000000e+00 -4.257248e+00 8.487066e+00
      vertex   5.988967e+00 -4.195224e+00 8.529656e+00
      vertex   5.938615e+00 -4.263059e+00 8.529656e+00
    endloop
  endfacet
  facet normal 5.457986e-01 -4.101034e-01 7.306977e-01
    outer loop
      vertex   6.000000e+00 -4.257248e+00 8.487066e+00
      vertex   5.938615e+00 -4.263059e+00 8.529656e+00
      vertex   5.992008e+00 -4.301387e+00 8.468263e+00
    endloop
  endfacet
  facet normal 5.434244e-01 -4.133317e-01 7.306483e-01
    outer loop
      vertex   5.992008e+00 -4.301387e+00 8.468263e+00
      vertex   5.938615e+00 -4.263059e+00 8.529656e+00
      vertex   5.940345e+00 -4.369310e+00 8.468263e+00
    endloop
  endfacet
  facet normal 5.582548e-01 -3.868125e-01 7.339807e-01
    outer loop
      vertex   6.000000e+00 -4.000000e+00 8.625338e+00
      vertex   5.983794e+00 -4.089524e+00 8.590484e+00
      vertex   6.000000e+00 -4.129204e+00 8.557246e+00
    endloop
  endfacet
  facet normal 5.461110e-01 -3.955243e-01 7.384600e-01
    outer loop
      vertex   6.000000e+00 -4.129204e+00 8.557246e+00
      vertex   5.983794e+00 -4.089524e+00 8.590484e+00
      vertex   5.934748e+00 -4.157243e+00 8.590484e+00
    endloop
  endfacet
  facet normal 5.465054e-01 -3.990230e-01 7.362829e-01
    outer loop
      vertex   6.000000e+00 -4.129204e+00 8.557246e+00
      vertex   5.934748e+00 -4.157243e+00 8.590484e+00
      vertex   5.988967e+00 -4.195224e+00 8.529656e+00
    endloop
  endfacet
  facet normal 5.434033e-01 -4.033515e-01 7.362204e-01
    outer loop
      vertex   5.988967e+00 -4.195224e+00 8.529656e+00
      vertex   5.934748e+00 -4.157243e+00 8.590484e+00
      vertex   5.938615e+00 -4.263059e+00 8.529656e+00
    endloop
  endfacet
  facet normal 5.470693e-01 -3.878393e-01 7.418193e-01
    outer loop
      vertex   5.983794e+00 -4.089524e+00 8.590484e+00
      vertex   6.000000e+00 -4.000000e+00 8.625338e+00
      vertex   5.928754e+00 -4.051908e+00 8.650741e+00
    endloop
  endfacet
  facet normal 5.441420e-01 -3.810586e-01 7.474649e-01
    outer loop
      vertex   5.928754e+00 -4.051908e+00 8.650741e+00
      vertex   6.000000e+00 -4.000000e+00 8.625338e+00
      vertex   5.866862e+00 -4.000000e+00 8.722260e+00
    endloop
  endfacet
  facet normal 5.469840e-01 -3.773820e-01 7.472559e-01
    outer loop
      vertex   5.928754e+00 -4.051908e+00 8.650741e+00
      vertex   5.866862e+00 -4.000000e+00 8.722260e+00
      vertex   5.873347e+00 -4.014041e+00 8.710422e+00
    endloop
  endfacet
  facet normal 5.342349e-01 -3.869230e-01 7.515874e-01
    outer loop
      vertex   5.873347e+00 -4.014041e+00 8.710422e+00
      vertex   5.866862e+00 -4.000000e+00 8.722260e+00
      vertex   5.825207e+00 -4.080510e+00 8.710422e+00
    endloop
  endfacet
  facet normal 5.383149e-01 -3.898779e-01 7.471361e-01
    outer loop
      vertex   5.873347e+00 -4.014041e+00 8.710422e+00
      vertex   5.825207e+00 -4.080510e+00 8.710422e+00
      vertex   5.880159e+00 -4.119004e+00 8.650741e+00
    endloop
  endfacet
  facet normal 5.337863e-01 -3.962131e-01 7.470525e-01
    outer loop
      vertex   5.880159e+00 -4.119004e+00 8.650741e+00
      vertex   5.825207e+00 -4.080510e+00 8.710422e+00
      vertex   5.830722e+00 -4.185607e+00 8.650741e+00
    endloop
  endfacet
  facet normal 5.386132e-01 -3.997959e-01 7.416597e-01
    outer loop
      vertex   5.880159e+00 -4.119004e+00 8.650741e+00
      vertex   5.830722e+00 -4.185607e+00 8.650741e+00
      vertex   5.884851e+00 -4.224464e+00 8.590484e+00
    endloop
  endfacet
  facet normal 5.339660e-01 -4.061375e-01 7.415744e-01
    outer loop
      vertex   5.884851e+00 -4.224464e+00 8.590484e+00
      vertex   5.830722e+00 -4.185607e+00 8.650741e+00
      vertex   5.834113e+00 -4.291172e+00 8.590484e+00
    endloop
  endfacet
  facet normal 5.387136e-01 -4.097486e-01 7.361343e-01
    outer loop
      vertex   5.884851e+00 -4.224464e+00 8.590484e+00
      vertex   5.834113e+00 -4.291172e+00 8.590484e+00
      vertex   5.887413e+00 -4.330376e+00 8.529656e+00
    endloop
  endfacet
  facet normal 5.332524e-01 -3.865457e-01 7.524788e-01
    outer loop
      vertex   5.825207e+00 -4.080510e+00 8.710422e+00
      vertex   5.866862e+00 -4.000000e+00 8.722260e+00
      vertex   5.769896e+00 -4.041766e+00 8.769521e+00
    endloop
  endfacet
  facet normal 5.323610e-01 -3.800029e-01 7.564321e-01
    outer loop
      vertex   5.769896e+00 -4.041766e+00 8.769521e+00
      vertex   5.866862e+00 -4.000000e+00 8.722260e+00
      vertex   5.732211e+00 -4.000000e+00 8.817025e+00
    endloop
  endfacet
  facet normal 5.240305e-01 -3.889577e-01 7.576965e-01
    outer loop
      vertex   5.769896e+00 -4.041766e+00 8.769521e+00
      vertex   5.732211e+00 -4.000000e+00 8.817025e+00
      vertex   5.714234e+00 -4.002775e+00 8.828033e+00
    endloop
  endfacet
  facet normal 5.286516e-01 -3.410008e-01 7.773326e-01
    outer loop
      vertex   5.714234e+00 -4.002775e+00 8.828033e+00
      vertex   5.732211e+00 -4.000000e+00 8.817025e+00
      vertex   5.596071e+00 -4.000000e+00 8.909611e+00
    endloop
  endfacet
  facet normal 5.192161e-01 -3.809858e-01 7.650258e-01
    outer loop
      vertex   5.714234e+00 -4.002775e+00 8.828033e+00
      vertex   5.596071e+00 -4.000000e+00 8.909611e+00
      vertex   5.610654e+00 -4.027631e+00 8.885953e+00
    endloop
  endfacet
  facet normal 5.101218e-01 -3.880015e-01 7.676136e-01
    outer loop
      vertex   5.610654e+00 -4.027631e+00 8.885953e+00
      vertex   5.596071e+00 -4.000000e+00 8.909611e+00
      vertex   5.562280e+00 -4.091231e+00 8.885953e+00
    endloop
  endfacet
  facet normal 5.146149e-01 -3.914190e-01 7.628648e-01
    outer loop
      vertex   5.610654e+00 -4.027631e+00 8.885953e+00
      vertex   5.562280e+00 -4.091231e+00 8.885953e+00
      vertex   5.617339e+00 -4.131728e+00 8.828033e+00
    endloop
  endfacet
  facet normal 5.095222e-01 -3.878964e-01 7.680647e-01
    outer loop
      vertex   5.562280e+00 -4.091231e+00 8.885953e+00
      vertex   5.596071e+00 -4.000000e+00 8.909611e+00
      vertex   5.506886e+00 -4.050487e+00 8.943277e+00
    endloop
  endfacet
  facet normal 5.075354e-01 -3.813241e-01 7.726576e-01
    outer loop
      vertex   5.506886e+00 -4.050487e+00 8.943277e+00
      vertex   5.596071e+00 -4.000000e+00 8.909611e+00
      vertex   5.458465e+00 -4.000000e+00 9.000000e+00
    endloop
  endfacet
  facet normal 5.003771e-01 -3.890867e-01 7.734561e-01
    outer loop
      vertex   5.506886e+00 -4.050487e+00 8.943277e+00
      vertex   5.458465e+00 -4.000000e+00 9.000000e+00
      vertex   5.404276e+00 -4.069690e+00 9.000000e+00
    endloop
  endfacet
  facet normal 4.559905e-01 -4.412344e-01 7.729068e-01
    outer loop
      vertex   5.000000e+00 -4.536609e+00 9.000000e+00
      vertex   5.000000e+00 -4.653900e+00 8.933041e+00
      vertex   5.041474e+00 -4.593108e+00 8.943277e+00
    endloop
  endfacet
  facet normal 4.537726e-01 -4.635609e-01 7.610531e-01
    outer loop
      vertex   5.000000e+00 -4.770240e+00 8.864418e+00
      vertex   5.000000e+00 -4.885611e+00 8.794145e+00
      vertex   5.028948e+00 -4.801639e+00 8.828033e+00
    endloop
  endfacet
  facet normal 4.640765e-01 -4.692668e-01 7.512801e-01
    outer loop
      vertex   5.077935e+00 -4.848411e+00 8.769521e+00
      vertex   5.019504e+00 -4.906197e+00 8.769521e+00
      vertex   5.067621e+00 -4.953227e+00 8.710422e+00
    endloop
  endfacet
  facet normal 4.877643e-01 -4.706366e-01 7.352463e-01
    outer loop
      vertex   5.282397e+00 -4.926819e+00 8.590484e+00
      vertex   5.330657e+00 -4.971831e+00 8.529656e+00
      vertex   5.341045e+00 -4.866037e+00 8.590484e+00
    endloop
  endfacet
  facet normal 4.877643e-01 -4.706366e-01 7.352463e-01
    outer loop
      vertex   5.341045e+00 -4.866037e+00 8.590484e+00
      vertex   5.330657e+00 -4.971831e+00 8.529656e+00
      vertex   5.389841e+00 -4.910493e+00 8.529656e+00
    endloop
  endfacet
  facet normal 4.931761e-01 -4.648198e-01 7.353365e-01
    outer loop
      vertex   5.341045e+00 -4.866037e+00 8.590484e+00
      vertex   5.389841e+00 -4.910493e+00 8.529656e+00
      vertex   5.398950e+00 -4.804600e+00 8.590484e+00
    endloop
  endfacet
  facet normal 4.834758e-01 -4.664988e-01 7.406956e-01
    outer loop
      vertex   5.233809e+00 -4.881502e+00 8.650741e+00
      vertex   5.282397e+00 -4.926819e+00 8.590484e+00
      vertex   5.291918e+00 -4.821278e+00 8.650741e+00
    endloop
  endfacet
  facet normal 4.834758e-01 -4.664988e-01 7.406956e-01
    outer loop
      vertex   5.291918e+00 -4.821278e+00 8.650741e+00
      vertex   5.282397e+00 -4.926819e+00 8.590484e+00
      vertex   5.341045e+00 -4.866037e+00 8.590484e+00
    endloop
  endfacet
  facet normal 4.888391e-01 -4.607322e-01 7.407849e-01
    outer loop
      vertex   5.291918e+00 -4.821278e+00 8.650741e+00
      vertex   5.341045e+00 -4.866037e+00 8.590484e+00
      vertex   5.349290e+00 -4.760406e+00 8.650741e+00
    endloop
  endfacet
  facet normal 4.888391e-01 -4.607322e-01 7.407849e-01
    outer loop
      vertex   5.349290e+00 -4.760406e+00 8.650741e+00
      vertex   5.341045e+00 -4.866037e+00 8.590484e+00
      vertex   5.398950e+00 -4.804600e+00 8.590484e+00
    endloop
  endfacet
  facet normal 4.941353e-01 -4.549023e-01 7.408740e-01
    outer loop
      vertex   5.349290e+00 -4.760406e+00 8.650741e+00
      vertex   5.398950e+00 -4.804600e+00 8.590484e+00
      vertex   5.405913e+00 -4.698899e+00 8.650741e+00
    endloop
  endfacet
  facet normal 4.791542e-01 -4.623289e-01 7.460987e-01
    outer loop
      vertex   5.184897e+00 -4.835882e+00 8.710422e+00
      vertex   5.233809e+00 -4.881502e+00 8.650741e+00
      vertex   5.242463e+00 -4.776221e+00 8.710422e+00
    endloop
  endfacet
  facet normal 4.791542e-01 -4.623289e-01 7.460987e-01
    outer loop
      vertex   5.242463e+00 -4.776221e+00 8.710422e+00
      vertex   5.233809e+00 -4.881502e+00 8.650741e+00
      vertex   5.291918e+00 -4.821278e+00 8.650741e+00
    endloop
  endfacet
  facet normal 4.844685e-01 -4.566128e-01 7.461870e-01
    outer loop
      vertex   5.242463e+00 -4.776221e+00 8.710422e+00
      vertex   5.291918e+00 -4.821278e+00 8.650741e+00
      vertex   5.299298e+00 -4.715918e+00 8.710422e+00
    endloop
  endfacet
  facet normal 4.844685e-01 -4.566128e-01 7.461870e-01
    outer loop
      vertex   5.299298e+00 -4.715918e+00 8.710422e+00
      vertex   5.291918e+00 -4.821278e+00 8.650741e+00
      vertex   5.349290e+00 -4.760406e+00 8.650741e+00
    endloop
  endfacet
  facet normal 4.897162e-01 -4.508341e-01 7.462751e-01
    outer loop
      vertex   5.299298e+00 -4.715918e+00 8.710422e+00
      vertex   5.349290e+00 -4.760406e+00 8.650741e+00
      vertex   5.355393e+00 -4.654986e+00 8.710422e+00
    endloop
  endfacet
  facet normal 4.897162e-01 -4.508341e-01 7.462751e-01
    outer loop
      vertex   5.355393e+00 -4.654986e+00 8.710422e+00
      vertex   5.349290e+00 -4.760406e+00 8.650741e+00
      vertex   5.405913e+00 -4.698899e+00 8.650741e+00
    endloop
  endfacet
  facet normal 4.948965e-01 -4.449940e-01 7.463631e-01
    outer loop
      vertex   5.355393e+00 -4.654986e+00 8.710422e+00
      vertex   5.405913e+00 -4.698899e+00 8.650741e+00
      vertex   5.410735e+00 -4.593437e+00 8.710422e+00
    endloop
  endfacet
  facet normal 4.747997e-01 -4.581273e-01 7.514550e-01
    outer loop
      vertex   5.135666e+00 -4.789966e+00 8.769521e+00
      vertex   5.184897e+00 -4.835882e+00 8.710422e+00
      vertex   5.192686e+00 -4.730871e+00 8.769521e+00
    endloop
  endfacet
  facet normal 4.747997e-01 -4.581273e-01 7.514550e-01
    outer loop
      vertex   5.192686e+00 -4.730871e+00 8.769521e+00
      vertex   5.184897e+00 -4.835882e+00 8.710422e+00
      vertex   5.242463e+00 -4.776221e+00 8.710422e+00
    endloop
  endfacet
  facet normal 4.800646e-01 -4.524622e-01 7.515423e-01
    outer loop
      vertex   5.192686e+00 -4.730871e+00 8.769521e+00
      vertex   5.242463e+00 -4.776221e+00 8.710422e+00
      vertex   5.248982e+00 -4.671141e+00 8.769521e+00
    endloop
  endfacet
  facet normal 4.800646e-01 -4.524622e-01 7.515423e-01
    outer loop
      vertex   5.248982e+00 -4.671141e+00 8.769521e+00
      vertex   5.242463e+00 -4.776221e+00 8.710422e+00
      vertex   5.299298e+00 -4.715918e+00 8.710422e+00
    endloop
  endfacet
  facet normal 4.852637e-01 -4.467351e-01 7.516295e-01
    outer loop
      vertex   5.248982e+00 -4.671141e+00 8.769521e+00
      vertex   5.299298e+00 -4.715918e+00 8.710422e+00
      vertex   5.304544e+00 -4.610787e+00 8.769521e+00
    endloop
  endfacet
  facet normal 4.852637e-01 -4.467351e-01 7.516295e-01
    outer loop
      vertex   5.304544e+00 -4.610787e+00 8.769521e+00
      vertex   5.299298e+00 -4.715918e+00 8.710422e+00
      vertex   5.355393e+00 -4.654986e+00 8.710422e+00
    endloop
  endfacet
  facet normal 4.903958e-01 -4.409471e-01 7.517165e-01
    outer loop
      vertex   5.304544e+00 -4.610787e+00 8.769521e+00
      vertex   5.355393e+00 -4.654986e+00 8.710422e+00
      vertex   5.359360e+00 -4.549823e+00 8.769521e+00
    endloop
  endfacet
  facet normal 4.903958e-01 -4.409471e-01 7.517165e-01
    outer loop
      vertex   5.359360e+00 -4.549823e+00 8.769521e+00
      vertex   5.355393e+00 -4.654986e+00 8.710422e+00
      vertex   5.410735e+00 -4.593437e+00 8.710422e+00
    endloop
  endfacet
  facet normal 4.954598e-01 -4.350995e-01 7.518032e-01
    outer loop
      vertex   5.359360e+00 -4.549823e+00 8.769521e+00
      vertex   5.410735e+00 -4.593437e+00 8.710422e+00
      vertex   5.413422e+00 -4.488261e+00 8.769521e+00
    endloop
  endfacet
  facet normal 4.659938e-01 -4.496306e-01 7.620250e-01
    outer loop
      vertex   5.092186e+00 -4.639310e+00 8.885953e+00
      vertex   5.036270e+00 -4.697260e+00 8.885953e+00
      vertex   5.086122e+00 -4.743757e+00 8.828033e+00
    endloop
  endfacet
  facet normal 4.914471e-01 -4.741901e-01 7.304954e-01
    outer loop
      vertex   5.330657e+00 -4.971831e+00 8.529656e+00
      vertex   5.385146e+00 -5.000000e+00 8.474713e+00
      vertex   5.389841e+00 -4.910493e+00 8.529656e+00
    endloop
  endfacet
  facet normal 4.704128e-01 -4.538944e-01 7.567639e-01
    outer loop
      vertex   5.135666e+00 -4.789966e+00 8.769521e+00
      vertex   5.192686e+00 -4.730871e+00 8.769521e+00
      vertex   5.142592e+00 -4.685232e+00 8.828033e+00
    endloop
  endfacet
  facet normal 4.756281e-01 -4.482807e-01 7.568503e-01
    outer loop
      vertex   5.142592e+00 -4.685232e+00 8.828033e+00
      vertex   5.192686e+00 -4.730871e+00 8.769521e+00
      vertex   5.198345e+00 -4.626078e+00 8.828033e+00
    endloop
  endfacet
  facet normal 4.711591e-01 -4.440687e-01 7.621103e-01
    outer loop
      vertex   5.142592e+00 -4.685232e+00 8.828033e+00
      vertex   5.198345e+00 -4.626078e+00 8.828033e+00
      vertex   5.147393e+00 -4.580735e+00 8.885953e+00
    endloop
  endfacet
  facet normal 4.762597e-01 -4.384460e-01 7.621954e-01
    outer loop
      vertex   5.147393e+00 -4.580735e+00 8.885953e+00
      vertex   5.198345e+00 -4.626078e+00 8.828033e+00
      vertex   5.201879e+00 -4.521550e+00 8.885953e+00
    endloop
  endfacet
  facet normal 4.717090e-01 -4.342566e-01 7.674059e-01
    outer loop
      vertex   5.147393e+00 -4.580735e+00 8.885953e+00
      vertex   5.201879e+00 -4.521550e+00 8.885953e+00
      vertex   5.150075e+00 -4.476520e+00 8.943277e+00
    endloop
  endfacet
  facet normal 4.766947e-01 -4.286276e-01 7.674898e-01
    outer loop
      vertex   5.150075e+00 -4.476520e+00 8.943277e+00
      vertex   5.201879e+00 -4.521550e+00 8.885953e+00
      vertex   5.203296e+00 -4.417332e+00 8.943277e+00
    endloop
  endfacet
  facet normal 4.756281e-01 -4.482807e-01 7.568503e-01
    outer loop
      vertex   5.198345e+00 -4.626078e+00 8.828033e+00
      vertex   5.192686e+00 -4.730871e+00 8.769521e+00
      vertex   5.248982e+00 -4.671141e+00 8.769521e+00
    endloop
  endfacet
  facet normal 5.114683e-01 -4.708591e-01 7.188128e-01
    outer loop
      vertex   5.545897e+00 -4.935369e+00 8.406310e+00
      vertex   5.594184e+00 -4.978341e+00 8.343803e+00
      vertex   5.604602e+00 -4.871602e+00 8.406310e+00
    endloop
  endfacet
  facet normal 5.114683e-01 -4.708591e-01 7.188128e-01
    outer loop
      vertex   5.604602e+00 -4.871602e+00 8.406310e+00
      vertex   5.594184e+00 -4.978341e+00 8.343803e+00
      vertex   5.653400e+00 -4.914018e+00 8.343803e+00
    endloop
  endfacet
  facet normal 5.168841e-01 -4.647646e-01 7.189052e-01
    outer loop
      vertex   5.604602e+00 -4.871602e+00 8.406310e+00
      vertex   5.653400e+00 -4.914018e+00 8.343803e+00
      vertex   5.662519e+00 -4.807189e+00 8.406310e+00
    endloop
  endfacet
  facet normal 5.071873e-01 -4.669180e-01 7.243954e-01
    outer loop
      vertex   5.497259e+00 -4.892086e+00 8.468263e+00
      vertex   5.545897e+00 -4.935369e+00 8.406310e+00
      vertex   5.555449e+00 -4.828877e+00 8.468263e+00
    endloop
  endfacet
  facet normal 5.071873e-01 -4.669180e-01 7.243954e-01
    outer loop
      vertex   5.555449e+00 -4.828877e+00 8.468263e+00
      vertex   5.545897e+00 -4.935369e+00 8.406310e+00
      vertex   5.604602e+00 -4.871602e+00 8.406310e+00
    endloop
  endfacet
  facet normal 5.125567e-01 -4.608735e-01 7.244869e-01
    outer loop
      vertex   5.555449e+00 -4.828877e+00 8.468263e+00
      vertex   5.604602e+00 -4.871602e+00 8.406310e+00
      vertex   5.612858e+00 -4.765029e+00 8.468263e+00
    endloop
  endfacet
  facet normal 5.125567e-01 -4.608735e-01 7.244869e-01
    outer loop
      vertex   5.612858e+00 -4.765029e+00 8.468263e+00
      vertex   5.604602e+00 -4.871602e+00 8.406310e+00
      vertex   5.662519e+00 -4.807189e+00 8.406310e+00
    endloop
  endfacet
  facet normal 5.178551e-01 -4.547665e-01 7.245782e-01
    outer loop
      vertex   5.612858e+00 -4.765029e+00 8.468263e+00
      vertex   5.662519e+00 -4.807189e+00 8.406310e+00
      vertex   5.669477e+00 -4.700556e+00 8.468263e+00
    endloop
  endfacet
  facet normal 5.028712e-01 -4.629446e-01 7.299335e-01
    outer loop
      vertex   5.448275e+00 -4.848494e+00 8.529656e+00
      vertex   5.497259e+00 -4.892086e+00 8.468263e+00
      vertex   5.505946e+00 -4.785849e+00 8.529656e+00
    endloop
  endfacet
  facet normal 5.028712e-01 -4.629446e-01 7.299335e-01
    outer loop
      vertex   5.505946e+00 -4.785849e+00 8.529656e+00
      vertex   5.497259e+00 -4.892086e+00 8.468263e+00
      vertex   5.555449e+00 -4.828877e+00 8.468263e+00
    endloop
  endfacet
  facet normal 5.081938e-01 -4.569505e-01 7.300242e-01
    outer loop
      vertex   5.505946e+00 -4.785849e+00 8.529656e+00
      vertex   5.555449e+00 -4.828877e+00 8.468263e+00
      vertex   5.562844e+00 -4.722570e+00 8.529656e+00
    endloop
  endfacet
  facet normal 5.081938e-01 -4.569505e-01 7.300242e-01
    outer loop
      vertex   5.562844e+00 -4.722570e+00 8.529656e+00
      vertex   5.555449e+00 -4.828877e+00 8.468263e+00
      vertex   5.612858e+00 -4.765029e+00 8.468263e+00
    endloop
  endfacet
  facet normal 5.134460e-01 -4.508945e-01 7.301146e-01
    outer loop
      vertex   5.562844e+00 -4.722570e+00 8.529656e+00
      vertex   5.612858e+00 -4.765029e+00 8.468263e+00
      vertex   5.618958e+00 -4.658671e+00 8.529656e+00
    endloop
  endfacet
  facet normal 5.134460e-01 -4.508945e-01 7.301146e-01
    outer loop
      vertex   5.618958e+00 -4.658671e+00 8.529656e+00
      vertex   5.612858e+00 -4.765029e+00 8.468263e+00
      vertex   5.669477e+00 -4.700556e+00 8.468263e+00
    endloop
  endfacet
  facet normal 5.186268e-01 -4.447779e-01 7.302047e-01
    outer loop
      vertex   5.618958e+00 -4.658671e+00 8.529656e+00
      vertex   5.669477e+00 -4.700556e+00 8.468263e+00
      vertex   5.674278e+00 -4.594167e+00 8.529656e+00
    endloop
  endfacet
  facet normal 4.807780e-01 -4.426056e-01 7.569364e-01
    outer loop
      vertex   5.198345e+00 -4.626078e+00 8.828033e+00
      vertex   5.248982e+00 -4.671141e+00 8.769521e+00
      vertex   5.253371e+00 -4.566307e+00 8.828033e+00
    endloop
  endfacet
  facet normal 4.807780e-01 -4.426056e-01 7.569364e-01
    outer loop
      vertex   5.253371e+00 -4.566307e+00 8.828033e+00
      vertex   5.248982e+00 -4.671141e+00 8.769521e+00
      vertex   5.304544e+00 -4.610787e+00 8.769521e+00
    endloop
  endfacet
  facet normal 4.858616e-01 -4.368702e-01 7.570224e-01
    outer loop
      vertex   5.253371e+00 -4.566307e+00 8.828033e+00
      vertex   5.304544e+00 -4.610787e+00 8.769521e+00
      vertex   5.307659e+00 -4.505931e+00 8.828033e+00
    endloop
  endfacet
  facet normal 4.858616e-01 -4.368702e-01 7.570224e-01
    outer loop
      vertex   5.307659e+00 -4.505931e+00 8.828033e+00
      vertex   5.304544e+00 -4.610787e+00 8.769521e+00
      vertex   5.359360e+00 -4.549823e+00 8.769521e+00
    endloop
  endfacet
  facet normal 4.908778e-01 -4.310757e-01 7.571081e-01
    outer loop
      vertex   5.307659e+00 -4.505931e+00 8.828033e+00
      vertex   5.359360e+00 -4.549823e+00 8.769521e+00
      vertex   5.361199e+00 -4.444963e+00 8.828033e+00
    endloop
  endfacet
  facet normal 4.908778e-01 -4.310757e-01 7.571081e-01
    outer loop
      vertex   5.361199e+00 -4.444963e+00 8.828033e+00
      vertex   5.359360e+00 -4.549823e+00 8.769521e+00
      vertex   5.413422e+00 -4.488261e+00 8.769521e+00
    endloop
  endfacet
  facet normal 4.958256e-01 -4.252234e-01 7.571935e-01
    outer loop
      vertex   5.361199e+00 -4.444963e+00 8.828033e+00
      vertex   5.413422e+00 -4.488261e+00 8.769521e+00
      vertex   5.413980e+00 -4.383418e+00 8.828033e+00
    endloop
  endfacet
  facet normal 5.147409e-01 -4.738719e-01 7.144839e-01
    outer loop
      vertex   5.594184e+00 -4.978341e+00 8.343803e+00
      vertex   5.635248e+00 -5.000000e+00 8.299854e+00
      vertex   5.653400e+00 -4.914018e+00 8.343803e+00
    endloop
  endfacet
  facet normal 4.985204e-01 -4.589392e-01 7.354265e-01
    outer loop
      vertex   5.448275e+00 -4.848494e+00 8.529656e+00
      vertex   5.505946e+00 -4.785849e+00 8.529656e+00
      vertex   5.456099e+00 -4.742521e+00 8.590484e+00
    endloop
  endfacet
  facet normal 5.037959e-01 -4.529961e-01 7.355163e-01
    outer loop
      vertex   5.456099e+00 -4.742521e+00 8.590484e+00
      vertex   5.505946e+00 -4.785849e+00 8.529656e+00
      vertex   5.512482e+00 -4.679815e+00 8.590484e+00
    endloop
  endfacet
  facet normal 4.993633e-01 -4.490104e-01 7.409628e-01
    outer loop
      vertex   5.456099e+00 -4.742521e+00 8.590484e+00
      vertex   5.512482e+00 -4.679815e+00 8.590484e+00
      vertex   5.461778e+00 -4.636770e+00 8.650741e+00
    endloop
  endfacet
  facet normal 5.045221e-01 -4.430578e-01 7.410515e-01
    outer loop
      vertex   5.461778e+00 -4.636770e+00 8.650741e+00
      vertex   5.512482e+00 -4.679815e+00 8.590484e+00
      vertex   5.516872e+00 -4.574032e+00 8.650741e+00
    endloop
  endfacet
  facet normal 5.000081e-01 -4.390936e-01 7.464507e-01
    outer loop
      vertex   5.461778e+00 -4.636770e+00 8.650741e+00
      vertex   5.516872e+00 -4.574032e+00 8.650741e+00
      vertex   5.465315e+00 -4.531286e+00 8.710422e+00
    endloop
  endfacet
  facet normal 5.050500e-01 -4.331343e-01 7.465381e-01
    outer loop
      vertex   5.465315e+00 -4.531286e+00 8.710422e+00
      vertex   5.516872e+00 -4.574032e+00 8.650741e+00
      vertex   5.519122e+00 -4.468545e+00 8.710422e+00
    endloop
  endfacet
  facet normal 5.004549e-01 -4.291935e-01 7.518895e-01
    outer loop
      vertex   5.465315e+00 -4.531286e+00 8.710422e+00
      vertex   5.519122e+00 -4.468545e+00 8.710422e+00
      vertex   5.466718e+00 -4.426116e+00 8.769521e+00
    endloop
  endfacet
  facet normal 5.053799e-01 -4.232303e-01 7.519755e-01
    outer loop
      vertex   5.466718e+00 -4.426116e+00 8.769521e+00
      vertex   5.519122e+00 -4.468545e+00 8.710422e+00
      vertex   5.519239e+00 -4.363401e+00 8.769521e+00
    endloop
  endfacet
  facet normal 5.007041e-01 -4.193145e-01 7.572785e-01
    outer loop
      vertex   5.466718e+00 -4.426116e+00 8.769521e+00
      vertex   5.519239e+00 -4.363401e+00 8.769521e+00
      vertex   5.465995e+00 -4.321308e+00 8.828033e+00
    endloop
  endfacet
  facet normal 5.055122e-01 -4.133504e-01 7.573631e-01
    outer loop
      vertex   5.465995e+00 -4.321308e+00 8.828033e+00
      vertex   5.519239e+00 -4.363401e+00 8.769521e+00
      vertex   5.517232e+00 -4.258647e+00 8.828033e+00
    endloop
  endfacet
  facet normal 5.007561e-01 -4.094614e-01 7.626170e-01
    outer loop
      vertex   5.465995e+00 -4.321308e+00 8.828033e+00
      vertex   5.517232e+00 -4.258647e+00 8.828033e+00
      vertex   5.463154e+00 -4.216905e+00 8.885953e+00
    endloop
  endfacet
  facet normal 5.054474e-01 -4.034990e-01 7.627001e-01
    outer loop
      vertex   5.463154e+00 -4.216905e+00 8.885953e+00
      vertex   5.517232e+00 -4.258647e+00 8.828033e+00
      vertex   5.513110e+00 -4.154327e+00 8.885953e+00
    endloop
  endfacet
  facet normal 5.006116e-01 -3.996385e-01 7.679044e-01
    outer loop
      vertex   5.463154e+00 -4.216905e+00 8.885953e+00
      vertex   5.513110e+00 -4.154327e+00 8.885953e+00
      vertex   5.458207e+00 -4.112955e+00 8.943277e+00
    endloop
  endfacet
  facet normal 5.037959e-01 -4.529961e-01 7.355163e-01
    outer loop
      vertex   5.512482e+00 -4.679815e+00 8.590484e+00
      vertex   5.505946e+00 -4.785849e+00 8.529656e+00
      vertex   5.562844e+00 -4.722570e+00 8.529656e+00
    endloop
  endfacet
  facet normal 4.762597e-01 -4.384460e-01 7.621954e-01
    outer loop
      vertex   5.198345e+00 -4.626078e+00 8.828033e+00
      vertex   5.253371e+00 -4.566307e+00 8.828033e+00
      vertex   5.201879e+00 -4.521550e+00 8.885953e+00
    endloop
  endfacet
  facet normal 4.812945e-01 -4.327635e-01 7.622804e-01
    outer loop
      vertex   5.201879e+00 -4.521550e+00 8.885953e+00
      vertex   5.253371e+00 -4.566307e+00 8.828033e+00
      vertex   5.255635e+00 -4.461765e+00 8.885953e+00
    endloop
  endfacet
  facet normal 4.766947e-01 -4.286276e-01 7.674898e-01
    outer loop
      vertex   5.201879e+00 -4.521550e+00 8.885953e+00
      vertex   5.255635e+00 -4.461765e+00 8.885953e+00
      vertex   5.203296e+00 -4.417332e+00 8.943277e+00
    endloop
  endfacet
  facet normal 4.816142e-01 -4.229407e-01 7.675734e-01
    outer loop
      vertex   5.203296e+00 -4.417332e+00 8.943277e+00
      vertex   5.255635e+00 -4.461765e+00 8.885953e+00
      vertex   5.255783e+00 -4.357563e+00 8.943277e+00
    endloop
  endfacet
  facet normal 4.812945e-01 -4.327635e-01 7.622804e-01
    outer loop
      vertex   5.255635e+00 -4.461765e+00 8.885953e+00
      vertex   5.253371e+00 -4.566307e+00 8.828033e+00
      vertex   5.307659e+00 -4.505931e+00 8.828033e+00
    endloop
  endfacet
  facet normal 5.090016e-01 -4.469915e-01 7.356059e-01
    outer loop
      vertex   5.512482e+00 -4.679815e+00 8.590484e+00
      vertex   5.562844e+00 -4.722570e+00 8.529656e+00
      vertex   5.568088e+00 -4.616495e+00 8.590484e+00
    endloop
  endfacet
  facet normal 5.090016e-01 -4.469915e-01 7.356059e-01
    outer loop
      vertex   5.568088e+00 -4.616495e+00 8.590484e+00
      vertex   5.562844e+00 -4.722570e+00 8.529656e+00
      vertex   5.618958e+00 -4.658671e+00 8.529656e+00
    endloop
  endfacet
  facet normal 5.141364e-01 -4.409269e-01 7.356951e-01
    outer loop
      vertex   5.568088e+00 -4.616495e+00 8.590484e+00
      vertex   5.618958e+00 -4.658671e+00 8.529656e+00
      vertex   5.622907e+00 -4.552575e+00 8.590484e+00
    endloop
  endfacet
  facet normal 5.141364e-01 -4.409269e-01 7.356951e-01
    outer loop
      vertex   5.622907e+00 -4.552575e+00 8.590484e+00
      vertex   5.618958e+00 -4.658671e+00 8.529656e+00
      vertex   5.674278e+00 -4.594167e+00 8.529656e+00
    endloop
  endfacet
  facet normal 5.191994e-01 -4.348035e-01 7.357839e-01
    outer loop
      vertex   5.622907e+00 -4.552575e+00 8.590484e+00
      vertex   5.674278e+00 -4.594167e+00 8.529656e+00
      vertex   5.676928e+00 -4.488068e+00 8.590484e+00
    endloop
  endfacet
  facet normal 4.862625e-01 -4.270226e-01 7.623650e-01
    outer loop
      vertex   5.255635e+00 -4.461765e+00 8.885953e+00
      vertex   5.307659e+00 -4.505931e+00 8.828033e+00
      vertex   5.308650e+00 -4.401395e+00 8.885953e+00
    endloop
  endfacet
  facet normal 4.862625e-01 -4.270226e-01 7.623650e-01
    outer loop
      vertex   5.308650e+00 -4.401395e+00 8.885953e+00
      vertex   5.307659e+00 -4.505931e+00 8.828033e+00
      vertex   5.361199e+00 -4.444963e+00 8.828033e+00
    endloop
  endfacet
  facet normal 4.911627e-01 -4.212245e-01 7.624494e-01
    outer loop
      vertex   5.308650e+00 -4.401395e+00 8.885953e+00
      vertex   5.361199e+00 -4.444963e+00 8.828033e+00
      vertex   5.360915e+00 -4.340453e+00 8.885953e+00
    endloop
  endfacet
  facet normal 4.911627e-01 -4.212245e-01 7.624494e-01
    outer loop
      vertex   5.360915e+00 -4.340453e+00 8.885953e+00
      vertex   5.361199e+00 -4.444963e+00 8.828033e+00
      vertex   5.413980e+00 -4.383418e+00 8.828033e+00
    endloop
  endfacet
  facet normal 4.959942e-01 -4.153703e-01 7.625334e-01
    outer loop
      vertex   5.360915e+00 -4.340453e+00 8.885953e+00
      vertex   5.413980e+00 -4.383418e+00 8.828033e+00
      vertex   5.412419e+00 -4.278952e+00 8.885953e+00
    endloop
  endfacet
  facet normal 5.405353e-01 -4.635667e-01 7.020880e-01
    outer loop
      vertex   5.974870e+00 -4.837540e+00 8.153014e+00
      vertex   5.925705e+00 -4.797734e+00 8.217149e+00
      vertex   5.916620e+00 -4.905462e+00 8.153014e+00
    endloop
  endfacet
  facet normal 5.405353e-01 -4.635667e-01 7.020880e-01
    outer loop
      vertex   5.916620e+00 -4.905462e+00 8.153014e+00
      vertex   5.925705e+00 -4.797734e+00 8.217149e+00
      vertex   5.867934e+00 -4.865097e+00 8.217149e+00
    endloop
  endfacet
  facet normal 5.362273e-01 -4.598722e-01 7.077979e-01
    outer loop
      vertex   5.818872e+00 -4.824420e+00 8.280747e+00
      vertex   5.867934e+00 -4.865097e+00 8.217149e+00
      vertex   5.876160e+00 -4.757620e+00 8.280747e+00
    endloop
  endfacet
  facet normal 5.362273e-01 -4.598722e-01 7.077979e-01
    outer loop
      vertex   5.876160e+00 -4.757620e+00 8.280747e+00
      vertex   5.867934e+00 -4.865097e+00 8.217149e+00
      vertex   5.925705e+00 -4.797734e+00 8.217149e+00
    endloop
  endfacet
  facet normal 5.415136e-01 -4.534905e-01 7.078908e-01
    outer loop
      vertex   5.876160e+00 -4.757620e+00 8.280747e+00
      vertex   5.925705e+00 -4.797734e+00 8.217149e+00
      vertex   5.932615e+00 -4.690208e+00 8.280747e+00
    endloop
  endfacet
  facet normal 5.318821e-01 -4.561457e-01 7.134651e-01
    outer loop
      vertex   5.769439e+00 -4.783435e+00 8.343803e+00
      vertex   5.818872e+00 -4.824420e+00 8.280747e+00
      vertex   5.826240e+00 -4.717203e+00 8.343803e+00
    endloop
  endfacet
  facet normal 5.318821e-01 -4.561457e-01 7.134651e-01
    outer loop
      vertex   5.826240e+00 -4.717203e+00 8.343803e+00
      vertex   5.818872e+00 -4.824420e+00 8.280747e+00
      vertex   5.876160e+00 -4.757620e+00 8.280747e+00
    endloop
  endfacet
  facet normal 5.371244e-01 -4.498148e-01 7.135573e-01
    outer loop
      vertex   5.826240e+00 -4.717203e+00 8.343803e+00
      vertex   5.876160e+00 -4.757620e+00 8.280747e+00
      vertex   5.882215e+00 -4.650363e+00 8.343803e+00
    endloop
  endfacet
  facet normal 5.371244e-01 -4.498148e-01 7.135573e-01
    outer loop
      vertex   5.882215e+00 -4.650363e+00 8.343803e+00
      vertex   5.876160e+00 -4.757620e+00 8.280747e+00
      vertex   5.932615e+00 -4.690208e+00 8.280747e+00
    endloop
  endfacet
  facet normal 5.422914e-01 -4.434242e-01 7.136490e-01
    outer loop
      vertex   5.882215e+00 -4.650363e+00 8.343803e+00
      vertex   5.932615e+00 -4.690208e+00 8.280747e+00
      vertex   5.937353e+00 -4.582931e+00 8.343803e+00
    endloop
  endfacet
  facet normal 5.422914e-01 -4.434242e-01 7.136490e-01
    outer loop
      vertex   5.937353e+00 -4.582931e+00 8.343803e+00
      vertex   5.932615e+00 -4.690208e+00 8.280747e+00
      vertex   5.988225e+00 -4.622198e+00 8.280747e+00
    endloop
  endfacet
  facet normal 5.275001e-01 -4.523876e-01 7.190891e-01
    outer loop
      vertex   5.719639e+00 -4.742145e+00 8.406310e+00
      vertex   5.769439e+00 -4.783435e+00 8.343803e+00
      vertex   5.775949e+00 -4.676485e+00 8.406310e+00
    endloop
  endfacet
  facet normal 5.275001e-01 -4.523876e-01 7.190891e-01
    outer loop
      vertex   5.775949e+00 -4.676485e+00 8.406310e+00
      vertex   5.769439e+00 -4.783435e+00 8.343803e+00
      vertex   5.826240e+00 -4.717203e+00 8.343803e+00
    endloop
  endfacet
  facet normal 5.326980e-01 -4.461079e-01 7.191805e-01
    outer loop
      vertex   5.775949e+00 -4.676485e+00 8.406310e+00
      vertex   5.826240e+00 -4.717203e+00 8.343803e+00
      vertex   5.831441e+00 -4.610222e+00 8.406310e+00
    endloop
  endfacet
  facet normal 5.326980e-01 -4.461079e-01 7.191805e-01
    outer loop
      vertex   5.831441e+00 -4.610222e+00 8.406310e+00
      vertex   5.826240e+00 -4.717203e+00 8.343803e+00
      vertex   5.882215e+00 -4.650363e+00 8.343803e+00
    endloop
  endfacet
  facet normal 5.378213e-01 -4.397691e-01 7.192714e-01
    outer loop
      vertex   5.831441e+00 -4.610222e+00 8.406310e+00
      vertex   5.882215e+00 -4.650363e+00 8.343803e+00
      vertex   5.886104e+00 -4.543372e+00 8.406310e+00
    endloop
  endfacet
  facet normal 5.378213e-01 -4.397691e-01 7.192714e-01
    outer loop
      vertex   5.886104e+00 -4.543372e+00 8.406310e+00
      vertex   5.882215e+00 -4.650363e+00 8.343803e+00
      vertex   5.937353e+00 -4.582931e+00 8.343803e+00
    endloop
  endfacet
  facet normal 5.428689e-01 -4.333726e-01 7.193619e-01
    outer loop
      vertex   5.886104e+00 -4.543372e+00 8.406310e+00
      vertex   5.937353e+00 -4.582931e+00 8.343803e+00
      vertex   5.939928e+00 -4.475949e+00 8.406310e+00
    endloop
  endfacet
  facet normal 5.045221e-01 -4.430578e-01 7.410515e-01
    outer loop
      vertex   5.512482e+00 -4.679815e+00 8.590484e+00
      vertex   5.568088e+00 -4.616495e+00 8.590484e+00
      vertex   5.516872e+00 -4.574032e+00 8.650741e+00
    endloop
  endfacet
  facet normal 5.096107e-01 -4.370456e-01 7.411397e-01
    outer loop
      vertex   5.516872e+00 -4.574032e+00 8.650741e+00
      vertex   5.568088e+00 -4.616495e+00 8.590484e+00
      vertex   5.571187e+00 -4.510699e+00 8.650741e+00
    endloop
  endfacet
  facet normal 5.050500e-01 -4.331343e-01 7.465381e-01
    outer loop
      vertex   5.516872e+00 -4.574032e+00 8.650741e+00
      vertex   5.571187e+00 -4.510699e+00 8.650741e+00
      vertex   5.519122e+00 -4.468545e+00 8.710422e+00
    endloop
  endfacet
  facet normal 5.100214e-01 -4.271173e-01 7.466251e-01
    outer loop
      vertex   5.519122e+00 -4.468545e+00 8.710422e+00
      vertex   5.571187e+00 -4.510699e+00 8.650741e+00
      vertex   5.572146e+00 -4.405229e+00 8.710422e+00
    endloop
  endfacet
  facet normal 5.053799e-01 -4.232303e-01 7.519755e-01
    outer loop
      vertex   5.519122e+00 -4.468545e+00 8.710422e+00
      vertex   5.572146e+00 -4.405229e+00 8.710422e+00
      vertex   5.519239e+00 -4.363401e+00 8.769521e+00
    endloop
  endfacet
  facet normal 5.102340e-01 -4.172113e-01 7.520611e-01
    outer loop
      vertex   5.519239e+00 -4.363401e+00 8.769521e+00
      vertex   5.572146e+00 -4.405229e+00 8.710422e+00
      vertex   5.570975e+00 -4.300130e+00 8.769521e+00
    endloop
  endfacet
  facet normal 5.055122e-01 -4.133504e-01 7.573631e-01
    outer loop
      vertex   5.519239e+00 -4.363401e+00 8.769521e+00
      vertex   5.570975e+00 -4.300130e+00 8.769521e+00
      vertex   5.517232e+00 -4.258647e+00 8.828033e+00
    endloop
  endfacet
  facet normal 5.102491e-01 -4.073322e-01 7.574473e-01
    outer loop
      vertex   5.517232e+00 -4.258647e+00 8.828033e+00
      vertex   5.570975e+00 -4.300130e+00 8.769521e+00
      vertex   5.567682e+00 -4.195449e+00 8.828033e+00
    endloop
  endfacet
  facet normal 5.054474e-01 -4.034990e-01 7.627001e-01
    outer loop
      vertex   5.517232e+00 -4.258647e+00 8.828033e+00
      vertex   5.567682e+00 -4.195449e+00 8.828033e+00
      vertex   5.513110e+00 -4.154327e+00 8.885953e+00
    endloop
  endfacet
  facet normal 5.096107e-01 -4.370456e-01 7.411397e-01
    outer loop
      vertex   5.571187e+00 -4.510699e+00 8.650741e+00
      vertex   5.568088e+00 -4.616495e+00 8.590484e+00
      vertex   5.622907e+00 -4.552575e+00 8.590484e+00
    endloop
  endfacet
  facet normal 4.864666e-01 -4.171971e-01 7.676567e-01
    outer loop
      vertex   5.307527e+00 -4.297228e+00 8.943277e+00
      vertex   5.255783e+00 -4.357563e+00 8.943277e+00
      vertex   5.308650e+00 -4.401395e+00 8.885953e+00
    endloop
  endfacet
  facet normal 4.816142e-01 -4.229407e-01 7.675734e-01
    outer loop
      vertex   5.308650e+00 -4.401395e+00 8.885953e+00
      vertex   5.255783e+00 -4.357563e+00 8.943277e+00
      vertex   5.255635e+00 -4.461765e+00 8.885953e+00
    endloop
  endfacet
  facet normal 4.864666e-01 -4.171971e-01 7.676567e-01
    outer loop
      vertex   5.307527e+00 -4.297228e+00 8.943277e+00
      vertex   5.308650e+00 -4.401395e+00 8.885953e+00
      vertex   5.360915e+00 -4.340453e+00 8.885953e+00
    endloop
  endfacet
  facet normal 5.230815e-01 -4.485982e-01 7.246691e-01
    outer loop
      vertex   5.719639e+00 -4.742145e+00 8.406310e+00
      vertex   5.775949e+00 -4.676485e+00 8.406310e+00
      vertex   5.725294e+00 -4.635472e+00 8.468263e+00
    endloop
  endfacet
  facet normal 5.282348e-01 -4.423702e-01 7.247597e-01
    outer loop
      vertex   5.725294e+00 -4.635472e+00 8.468263e+00
      vertex   5.775949e+00 -4.676485e+00 8.406310e+00
      vertex   5.780299e+00 -4.569790e+00 8.468263e+00
    endloop
  endfacet
  facet normal 5.237351e-01 -4.386019e-01 7.302944e-01
    outer loop
      vertex   5.725294e+00 -4.635472e+00 8.468263e+00
      vertex   5.780299e+00 -4.569790e+00 8.468263e+00
      vertex   5.728793e+00 -4.529071e+00 8.529656e+00
    endloop
  endfacet
  facet normal 5.287700e-01 -4.323679e-01 7.303836e-01
    outer loop
      vertex   5.728793e+00 -4.529071e+00 8.529656e+00
      vertex   5.780299e+00 -4.569790e+00 8.468263e+00
      vertex   5.782493e+00 -4.463397e+00 8.529656e+00
    endloop
  endfacet
  facet normal 5.241895e-01 -4.286226e-01 7.358723e-01
    outer loop
      vertex   5.728793e+00 -4.529071e+00 8.529656e+00
      vertex   5.782493e+00 -4.463397e+00 8.529656e+00
      vertex   5.730143e+00 -4.422989e+00 8.590484e+00
    endloop
  endfacet
  facet normal 5.291059e-01 -4.223856e-01 7.359602e-01
    outer loop
      vertex   5.730143e+00 -4.422989e+00 8.590484e+00
      vertex   5.782493e+00 -4.463397e+00 8.529656e+00
      vertex   5.782541e+00 -4.357352e+00 8.590484e+00
    endloop
  endfacet
  facet normal 5.244451e-01 -4.186648e-01 7.414021e-01
    outer loop
      vertex   5.730143e+00 -4.422989e+00 8.590484e+00
      vertex   5.782541e+00 -4.357352e+00 8.590484e+00
      vertex   5.729352e+00 -4.317272e+00 8.650741e+00
    endloop
  endfacet
  facet normal 5.282348e-01 -4.423702e-01 7.247597e-01
    outer loop
      vertex   5.780299e+00 -4.569790e+00 8.468263e+00
      vertex   5.775949e+00 -4.676485e+00 8.406310e+00
      vertex   5.831441e+00 -4.610222e+00 8.406310e+00
    endloop
  endfacet
  facet normal 5.146280e-01 -4.309752e-01 7.412277e-01
    outer loop
      vertex   5.571187e+00 -4.510699e+00 8.650741e+00
      vertex   5.622907e+00 -4.552575e+00 8.590484e+00
      vertex   5.624711e+00 -4.446786e+00 8.650741e+00
    endloop
  endfacet
  facet normal 5.146280e-01 -4.309752e-01 7.412277e-01
    outer loop
      vertex   5.624711e+00 -4.446786e+00 8.650741e+00
      vertex   5.622907e+00 -4.552575e+00 8.590484e+00
      vertex   5.676928e+00 -4.488068e+00 8.590484e+00
    endloop
  endfacet
  facet normal 5.195731e-01 -4.248478e-01 7.413151e-01
    outer loop
      vertex   5.624711e+00 -4.446786e+00 8.650741e+00
      vertex   5.676928e+00 -4.488068e+00 8.590484e+00
      vertex   5.677436e+00 -4.382305e+00 8.650741e+00
    endloop
  endfacet
  facet normal 4.912509e-01 -4.113980e-01 7.677397e-01
    outer loop
      vertex   5.358518e+00 -4.236339e+00 8.943277e+00
      vertex   5.307527e+00 -4.297228e+00 8.943277e+00
      vertex   5.360915e+00 -4.340453e+00 8.885953e+00
    endloop
  endfacet
  facet normal 4.912509e-01 -4.113980e-01 7.677397e-01
    outer loop
      vertex   5.358518e+00 -4.236339e+00 8.943277e+00
      vertex   5.360915e+00 -4.340453e+00 8.885953e+00
      vertex   5.412419e+00 -4.278952e+00 8.885953e+00
    endloop
  endfacet
  facet normal 5.333140e-01 -4.360836e-01 7.248498e-01
    outer loop
      vertex   5.780299e+00 -4.569790e+00 8.468263e+00
      vertex   5.831441e+00 -4.610222e+00 8.406310e+00
      vertex   5.834482e+00 -4.503526e+00 8.468263e+00
    endloop
  endfacet
  facet normal 5.333140e-01 -4.360836e-01 7.248498e-01
    outer loop
      vertex   5.834482e+00 -4.503526e+00 8.468263e+00
      vertex   5.831441e+00 -4.610222e+00 8.406310e+00
      vertex   5.886104e+00 -4.543372e+00 8.406310e+00
    endloop
  endfacet
  facet normal 5.383182e-01 -4.297398e-01 7.249394e-01
    outer loop
      vertex   5.834482e+00 -4.503526e+00 8.468263e+00
      vertex   5.886104e+00 -4.543372e+00 8.406310e+00
      vertex   5.887834e+00 -4.436694e+00 8.468263e+00
    endloop
  endfacet
  facet normal 5.383182e-01 -4.297398e-01 7.249394e-01
    outer loop
      vertex   5.887834e+00 -4.436694e+00 8.468263e+00
      vertex   5.886104e+00 -4.543372e+00 8.406310e+00
      vertex   5.939928e+00 -4.475949e+00 8.406310e+00
    endloop
  endfacet
  facet normal 5.100214e-01 -4.271173e-01 7.466251e-01
    outer loop
      vertex   5.571187e+00 -4.510699e+00 8.650741e+00
      vertex   5.624711e+00 -4.446786e+00 8.650741e+00
      vertex   5.572146e+00 -4.405229e+00 8.710422e+00
    endloop
  endfacet
  facet normal 5.149211e-01 -4.210439e-01 7.467116e-01
    outer loop
      vertex   5.572146e+00 -4.405229e+00 8.710422e+00
      vertex   5.624711e+00 -4.446786e+00 8.650741e+00
      vertex   5.624378e+00 -4.341351e+00 8.710422e+00
    endloop
  endfacet
  facet normal 5.102340e-01 -4.172113e-01 7.520611e-01
    outer loop
      vertex   5.572146e+00 -4.405229e+00 8.710422e+00
      vertex   5.624378e+00 -4.341351e+00 8.710422e+00
      vertex   5.570975e+00 -4.300130e+00 8.769521e+00
    endloop
  endfacet
  facet normal 5.150163e-01 -4.111378e-01 7.521462e-01
    outer loop
      vertex   5.570975e+00 -4.300130e+00 8.769521e+00
      vertex   5.624378e+00 -4.341351e+00 8.710422e+00
      vertex   5.621917e+00 -4.236317e+00 8.769521e+00
    endloop
  endfacet
  facet normal 5.102491e-01 -4.073322e-01 7.574473e-01
    outer loop
      vertex   5.570975e+00 -4.300130e+00 8.769521e+00
      vertex   5.621917e+00 -4.236317e+00 8.769521e+00
      vertex   5.567682e+00 -4.195449e+00 8.828033e+00
    endloop
  endfacet
  facet normal 5.149211e-01 -4.210439e-01 7.467116e-01
    outer loop
      vertex   5.624378e+00 -4.341351e+00 8.710422e+00
      vertex   5.624711e+00 -4.446786e+00 8.650741e+00
      vertex   5.677436e+00 -4.382305e+00 8.650741e+00
    endloop
  endfacet
  facet normal 4.959662e-01 -4.055447e-01 7.678223e-01
    outer loop
      vertex   5.408748e+00 -4.174910e+00 8.943277e+00
      vertex   5.358518e+00 -4.236339e+00 8.943277e+00
      vertex   5.412419e+00 -4.278952e+00 8.885953e+00
    endloop
  endfacet
  facet normal 5.287700e-01 -4.323679e-01 7.303836e-01
    outer loop
      vertex   5.780299e+00 -4.569790e+00 8.468263e+00
      vertex   5.834482e+00 -4.503526e+00 8.468263e+00
      vertex   5.782493e+00 -4.463397e+00 8.529656e+00
    endloop
  endfacet
  facet normal 5.337304e-01 -4.260773e-01 7.304724e-01
    outer loop
      vertex   5.782493e+00 -4.463397e+00 8.529656e+00
      vertex   5.834482e+00 -4.503526e+00 8.468263e+00
      vertex   5.835370e+00 -4.397161e+00 8.529656e+00
    endloop
  endfacet
  facet normal 5.291059e-01 -4.223856e-01 7.359602e-01
    outer loop
      vertex   5.782493e+00 -4.463397e+00 8.529656e+00
      vertex   5.835370e+00 -4.397161e+00 8.529656e+00
      vertex   5.782541e+00 -4.357352e+00 8.590484e+00
    endloop
  endfacet
  facet normal 5.337304e-01 -4.260773e-01 7.304724e-01
    outer loop
      vertex   5.835370e+00 -4.397161e+00 8.529656e+00
      vertex   5.834482e+00 -4.503526e+00 8.468263e+00
      vertex   5.887834e+00 -4.436694e+00 8.468263e+00
    endloop
  endfacet
  facet normal 5.150163e-01 -4.111378e-01 7.521462e-01
    outer loop
      vertex   5.621917e+00 -4.236317e+00 8.769521e+00
      vertex   5.624378e+00 -4.341351e+00 8.710422e+00
      vertex   5.675809e+00 -4.276926e+00 8.710422e+00
    endloop
  endfacet
  facet normal 5.197484e-01 -4.149155e-01 7.467977e-01
    outer loop
      vertex   5.675809e+00 -4.276926e+00 8.710422e+00
      vertex   5.624378e+00 -4.341351e+00 8.710422e+00
      vertex   5.677436e+00 -4.382305e+00 8.650741e+00
    endloop
  endfacet
  facet normal 5.387136e-01 -4.097486e-01 7.361343e-01
    outer loop
      vertex   5.884851e+00 -4.224464e+00 8.590484e+00
      vertex   5.887413e+00 -4.330376e+00 8.529656e+00
      vertex   5.938615e+00 -4.263059e+00 8.529656e+00
    endloop
  endfacet
  facet normal 5.434244e-01 -4.133317e-01 7.306483e-01
    outer loop
      vertex   5.938615e+00 -4.263059e+00 8.529656e+00
      vertex   5.887413e+00 -4.330376e+00 8.529656e+00
      vertex   5.940345e+00 -4.369310e+00 8.468263e+00
    endloop
  endfacet
  facet normal 5.339660e-01 -4.061375e-01 7.415744e-01
    outer loop
      vertex   5.834113e+00 -4.291172e+00 8.590484e+00
      vertex   5.830722e+00 -4.185607e+00 8.650741e+00
      vertex   5.780450e+00 -4.251701e+00 8.650741e+00
    endloop
  endfacet
  facet normal 5.291818e-01 -4.024987e-01 7.469682e-01
    outer loop
      vertex   5.780450e+00 -4.251701e+00 8.650741e+00
      vertex   5.830722e+00 -4.185607e+00 8.650741e+00
      vertex   5.776231e+00 -4.146491e+00 8.710422e+00
    endloop
  endfacet
  facet normal 5.291818e-01 -4.024987e-01 7.469682e-01
    outer loop
      vertex   5.780450e+00 -4.251701e+00 8.650741e+00
      vertex   5.776231e+00 -4.146491e+00 8.710422e+00
      vertex   5.726429e+00 -4.211968e+00 8.710422e+00
    endloop
  endfacet
  facet normal 5.243616e-01 -3.988324e-01 7.523148e-01
    outer loop
      vertex   5.726429e+00 -4.211968e+00 8.710422e+00
      vertex   5.776231e+00 -4.146491e+00 8.710422e+00
      vertex   5.721386e+00 -4.107120e+00 8.769521e+00
    endloop
  endfacet
  facet normal 5.243616e-01 -3.988324e-01 7.523148e-01
    outer loop
      vertex   5.726429e+00 -4.211968e+00 8.710422e+00
      vertex   5.721386e+00 -4.107120e+00 8.769521e+00
      vertex   5.672057e+00 -4.171975e+00 8.769521e+00
    endloop
  endfacet
  facet normal 5.195058e-01 -3.951391e-01 7.576139e-01
    outer loop
      vertex   5.672057e+00 -4.171975e+00 8.769521e+00
      vertex   5.721386e+00 -4.107120e+00 8.769521e+00
      vertex   5.666192e+00 -4.067499e+00 8.828033e+00
    endloop
  endfacet
  facet normal 5.195058e-01 -3.951391e-01 7.576139e-01
    outer loop
      vertex   5.672057e+00 -4.171975e+00 8.769521e+00
      vertex   5.666192e+00 -4.067499e+00 8.828033e+00
      vertex   5.617339e+00 -4.131728e+00 8.828033e+00
    endloop
  endfacet
  facet normal 5.146149e-01 -3.914190e-01 7.628648e-01
    outer loop
      vertex   5.617339e+00 -4.131728e+00 8.828033e+00
      vertex   5.666192e+00 -4.067499e+00 8.828033e+00
      vertex   5.610654e+00 -4.027631e+00 8.885953e+00
    endloop
  endfacet
  facet normal 5.386132e-01 -3.997959e-01 7.416597e-01
    outer loop
      vertex   5.880159e+00 -4.119004e+00 8.650741e+00
      vertex   5.884851e+00 -4.224464e+00 8.590484e+00
      vertex   5.934748e+00 -4.157243e+00 8.590484e+00
    endloop
  endfacet
  facet normal 5.434033e-01 -4.033515e-01 7.362204e-01
    outer loop
      vertex   5.934748e+00 -4.157243e+00 8.590484e+00
      vertex   5.884851e+00 -4.224464e+00 8.590484e+00
      vertex   5.938615e+00 -4.263059e+00 8.529656e+00
    endloop
  endfacet
  facet normal 5.337863e-01 -3.962131e-01 7.470525e-01
    outer loop
      vertex   5.830722e+00 -4.185607e+00 8.650741e+00
      vertex   5.825207e+00 -4.080510e+00 8.710422e+00
      vertex   5.776231e+00 -4.146491e+00 8.710422e+00
    endloop
  endfacet
  facet normal 5.289231e-01 -3.926033e-01 7.523982e-01
    outer loop
      vertex   5.776231e+00 -4.146491e+00 8.710422e+00
      vertex   5.825207e+00 -4.080510e+00 8.710422e+00
      vertex   5.769896e+00 -4.041766e+00 8.769521e+00
    endloop
  endfacet
  facet normal 5.289231e-01 -3.926033e-01 7.523982e-01
    outer loop
      vertex   5.776231e+00 -4.146491e+00 8.710422e+00
      vertex   5.769896e+00 -4.041766e+00 8.769521e+00
      vertex   5.721386e+00 -4.107120e+00 8.769521e+00
    endloop
  endfacet
  facet normal 5.240240e-01 -3.889668e-01 7.576963e-01
    outer loop
      vertex   5.721386e+00 -4.107120e+00 8.769521e+00
      vertex   5.769896e+00 -4.041766e+00 8.769521e+00
      vertex   5.714234e+00 -4.002775e+00 8.828033e+00
    endloop
  endfacet
  facet normal 5.240240e-01 -3.889668e-01 7.576963e-01
    outer loop
      vertex   5.721386e+00 -4.107120e+00 8.769521e+00
      vertex   5.714234e+00 -4.002775e+00 8.828033e+00
      vertex   5.666192e+00 -4.067499e+00 8.828033e+00
    endloop
  endfacet
  facet normal 5.190894e-01 -3.853041e-01 7.629462e-01
    outer loop
      vertex   5.666192e+00 -4.067499e+00 8.828033e+00
      vertex   5.714234e+00 -4.002775e+00 8.828033e+00
      vertex   5.610654e+00 -4.027631e+00 8.885953e+00
    endloop
  endfacet
  facet normal 5.431838e-01 -3.934043e-01 7.417442e-01
    outer loop
      vertex   5.983794e+00 -4.089524e+00 8.590484e+00
      vertex   5.928754e+00 -4.051908e+00 8.650741e+00
      vertex   5.934748e+00 -4.157243e+00 8.590484e+00
    endloop
  endfacet
  facet normal 5.431838e-01 -3.934043e-01 7.417442e-01
    outer loop
      vertex   5.934748e+00 -4.157243e+00 8.590484e+00
      vertex   5.928754e+00 -4.051908e+00 8.650741e+00
      vertex   5.880159e+00 -4.119004e+00 8.650741e+00
    endloop
  endfacet
  facet normal 5.383149e-01 -3.898779e-01 7.471361e-01
    outer loop
      vertex   5.928754e+00 -4.051908e+00 8.650741e+00
      vertex   5.873347e+00 -4.014041e+00 8.710422e+00
      vertex   5.880159e+00 -4.119004e+00 8.650741e+00
    endloop
  endfacet
  facet normal -0.000000e+00 1.000000e+00 0.000000e+00
    outer loop
      vertex   5.000000e+00 -4.000000e+00 9.000000e+00
      vertex   5.458465e+00 -4.000000e+00 9.000000e+00
      vertex   5.000000e+00 -4.000000e+00 8.000000e+00
    endloop
  endfacet
  facet normal 0.000000e+00 1.000000e+00 0.000000e+00
    outer loop
      vertex   5.000000e+00 -4.000000e+00 8.000000e+00
      vertex   5.458465e+00 -4.000000e+00 9.000000e+00
      vertex   5.596071e+00 -4.000000e+00 8.909611e+00
    endloop
  endfacet
  facet normal 0.000000e+00 1.000000e+00 0.000000e+00
    outer loop
      vertex   5.000000e+00 -4.000000e+00 8.000000e+00
      vertex   5.596071e+00 -4.000000e+00 8.909611e+00
      vertex   5.732211e+00 -4.000000e+00 8.817025e+00
    endloop
  endfacet
  facet normal 0.000000e+00 1.000000e+00 0.000000e+00
    outer loop
      vertex   5.732211e+00 -4.000000e+00 8.817025e+00
      vertex   5.866862e+00 -4.000000e+00 8.722260e+00
      vertex   5.000000e+00 -4.000000e+00 8.000000e+00
    endloop
  endfacet
  facet normal 0.000000e+00 1.000000e+00 0.000000e+00
    outer loop
      vertex   5.000000e+00 -4.000000e+00 8.000000e+00
      vertex   5.866862e+00 -4.000000e+00 8.722260e+00
      vertex   6.000000e+00 -4.000000e+00 8.000000e+00
    endloop
  endfacet
  facet normal 0.000000e+00 1.000000e+00 -0.000000e+00
    outer loop
      vertex   6.000000e+00 -4.000000e+00 8.000000e+00
      vertex   5.866862e+00 -4.000000e+00 8.722260e+00
      vertex   6.000000e+00 -4.000000e+00 8.625338e+00
    endloop
  endfacet
  facet normal 1.000000e+00 6.874236e-15 0.000000e+00
    outer loop
      vertex   6.000000e+00 -4.000000e+00 8.625338e+00
      vertex   6.000000e+00 -4.129204e+00 8.557246e+00
      vertex   6.000000e+00 -4.000000e+00 8.000000e+00
    endloop
  endfacet
  facet normal 1.000000e+00 -5.379281e-15 -2.841119e-15
    outer loop
      vertex   6.000000e+00 -4.000000e+00 8.000000e+00
      vertex   6.000000e+00 -4.129204e+00 8.557246e+00
      vertex   6.000000e+00 -4.257248e+00 8.487066e+00
    endloop
  endfacet
  facet normal 1.000000e+00 0.000000e+00 0.000000e+00
    outer loop
      vertex   6.000000e+00 -4.000000e+00 8.000000e+00
      vertex   6.000000e+00 -4.257248e+00 8.487066e+00
      vertex   6.000000e+00 -4.384113e+00 8.414815e+00
    endloop
  endfacet
  facet normal 1.000000e+00 0.000000e+00 0.000000e+00
    outer loop
      vertex   6.000000e+00 -4.384113e+00 8.414815e+00
      vertex   6.000000e+00 -4.509776e+00 8.340513e+00
      vertex   6.000000e+00 -4.000000e+00 8.000000e+00
    endloop
  endfacet
  facet normal 1.000000e+00 0.000000e+00 0.000000e+00
    outer loop
      vertex   6.000000e+00 -4.000000e+00 8.000000e+00
      vertex   6.000000e+00 -4.509776e+00 8.340513e+00
      vertex   6.000000e+00 -4.634217e+00 8.264177e+00
    endloop
  endfacet
  facet normal 1.000000e+00 0.000000e+00 0.000000e+00
    outer loop
      vertex   6.000000e+00 -4.000000e+00 8.000000e+00
      vertex   6.000000e+00 -4.634217e+00 8.264177e+00
      vertex   6.000000e+00 -4.757415e+00 8.185828e+00
    endloop
  endfacet
  facet normal 1.000000e+00 0.000000e+00 0.000000e+00
    outer loop
      vertex   6.000000e+00 -4.757415e+00 8.185828e+00
      vertex   6.000000e+00 -4.879350e+00 8.105483e+00
      vertex   6.000000e+00 -4.000000e+00 8.000000e+00
    endloop
  endfacet
  facet normal 1.000000e+00 0.000000e+00 0.000000e+00
    outer loop
      vertex   6.000000e+00 -4.000000e+00 8.000000e+00
      vertex   6.000000e+00 -4.879350e+00 8.105483e+00
      vertex   6.000000e+00 -5.000000e+00 8.000000e+00
    endloop
  endfacet
  facet normal 1.000000e+00 0.000000e+00 0.000000e+00
    outer loop
      vertex   6.000000e+00 -5.000000e+00 8.000000e+00
      vertex   6.000000e+00 -4.879350e+00 8.105483e+00
      vertex   6.000000e+00 -5.000000e+00 8.023161e+00
    endloop
  endfacet
  facet normal -0.000000e+00 -1.000000e+00 -0.000000e+00
    outer loop
      vertex   6.000000e+00 -5.000000e+00 8.023161e+00
      vertex   5.879830e+00 -5.000000e+00 8.117288e+00
      vertex   6.000000e+00 -5.000000e+00 8.000000e+00
    endloop
  endfacet
  facet normal 0.000000e+00 -1.000000e+00 0.000000e+00
    outer loop
      vertex   6.000000e+00 -5.000000e+00 8.000000e+00
      vertex   5.879830e+00 -5.000000e+00 8.117288e+00
      vertex   5.000000e+00 -5.000000e+00 8.000000e+00
    endloop
  endfacet
  facet normal 0.000000e+00 -1.000000e+00 0.000000e+00
    outer loop
      vertex   5.000000e+00 -5.000000e+00 8.000000e+00
      vertex   5.879830e+00 -5.000000e+00 8.117288e+00
      vertex   5.758239e+00 -5.000000e+00 8.209525e+00
    endloop
  endfacet
  facet normal 0.000000e+00 -1.000000e+00 0.000000e+00
    outer loop
      vertex   5.000000e+00 -5.000000e+00 8.000000e+00
      vertex   5.758239e+00 -5.000000e+00 8.209525e+00
      vertex   5.635248e+00 -5.000000e+00 8.299854e+00
    endloop
  endfacet
  facet normal -0.000000e+00 -1.000000e+00 0.000000e+00
    outer loop
      vertex   5.635248e+00 -5.000000e+00 8.299854e+00
      vertex   5.510877e+00 -5.000000e+00 8.388256e+00
      vertex   5.000000e+00 -5.000000e+00 8.000000e+00
    endloop
  endfacet
  facet normal 0.000000e+00 -1.000000e+00 0.000000e+00
    outer loop
      vertex   5.000000e+00 -5.000000e+00 8.000000e+00
      vertex   5.510877e+00 -5.000000e+00 8.388256e+00
      vertex   5.385146e+00 -5.000000e+00 8.474713e+00
    endloop
  endfacet
  facet normal 0.000000e+00 -1.000000e+00 0.000000e+00
    outer loop
      vertex   5.000000e+00 -5.000000e+00 8.000000e+00
      vertex   5.385146e+00 -5.000000e+00 8.474713e+00
      vertex   5.258076e+00 -5.000000e+00 8.559207e+00
    endloop
  endfacet
  facet normal -0.000000e+00 -1.000000e+00 0.000000e+00
    outer loop
      vertex   5.258076e+00 -5.000000e+00 8.559207e+00
      vertex   5.129687e+00 -5.000000e+00 8.641720e+00
      vertex   5.000000e+00 -5.000000e+00 8.000000e+00
    endloop
  endfacet
  facet normal 0.000000e+00 -1.000000e+00 0.000000e+00
    outer loop
      vertex   5.000000e+00 -5.000000e+00 8.000000e+00
      vertex   5.129687e+00 -5.000000e+00 8.641720e+00
      vertex   5.000000e+00 -5.000000e+00 8.722233e+00
    endloop
  endfacet
  facet normal 2.942480e-14 -0.000000e+00 1.000000e+00
    outer loop
      vertex   5.000000e+00 -4.536609e+00 9.000000e+00
      vertex   5.060369e+00 -4.472202e+00 9.000000e+00
      vertex   5.000000e+00 -4.000000e+00 9.000000e+00
    endloop
  endfacet
  facet normal 3.614397e-15 -3.299771e-15 1.000000e+00
    outer loop
      vertex   5.000000e+00 -4.000000e+00 9.000000e+00
      vertex   5.060369e+00 -4.472202e+00 9.000000e+00
      vertex   5.119881e+00 -4.407016e+00 9.000000e+00
    endloop
  endfacet
  facet normal -4.181909e-14 -1.668152e-14 1.000000e+00
    outer loop
      vertex   5.000000e+00 -4.000000e+00 9.000000e+00
      vertex   5.119881e+00 -4.407016e+00 9.000000e+00
      vertex   5.178525e+00 -4.341060e+00 9.000000e+00
    endloop
  endfacet
  facet normal 1.541495e-14 1.327716e-14 1.000000e+00
    outer loop
      vertex   5.178525e+00 -4.341060e+00 9.000000e+00
      vertex   5.236295e+00 -4.274342e+00 9.000000e+00
      vertex   5.000000e+00 -4.000000e+00 9.000000e+00
    endloop
  endfacet
  facet normal 0.000000e+00 0.000000e+00 1.000000e+00
    outer loop
      vertex   5.000000e+00 -4.000000e+00 9.000000e+00
      vertex   5.236295e+00 -4.274342e+00 9.000000e+00
      vertex   5.293183e+00 -4.206868e+00 9.000000e+00
    endloop
  endfacet
  facet normal 1.163447e-14 1.648885e-14 1.000000e+00
    outer loop
      vertex   5.000000e+00 -4.000000e+00 9.000000e+00
      vertex   5.293183e+00 -4.206868e+00 9.000000e+00
      vertex   5.349179e+00 -4.138648e+00 9.000000e+00
    endloop
  endfacet
  facet normal -3.902934e-15 -2.264130e-14 1.000000e+00
    outer loop
      vertex   5.349179e+00 -4.138648e+00 9.000000e+00
      vertex   5.404276e+00 -4.069690e+00 9.000000e+00
      vertex   5.000000e+00 -4.000000e+00 9.000000e+00
    endloop
  endfacet
  facet normal -0.000000e+00 0.000000e+00 1.000000e+00
    outer loop
      vertex   5.000000e+00 -4.000000e+00 9.000000e+00
      vertex   5.404276e+00 -4.069690e+00 9.000000e+00
      vertex   5.458465e+00 -4.000000e+00 9.000000e+00
    endloop
  endfacet
  facet normal 0.000000e+00 0.000000e+00 -1.000000e+00
    outer loop
      vertex   6.000000e+00 -5.000000e+00 8.000000e+00
      vertex   5.000000e+00 -5.000000e+00 8.000000e+00
      vertex   6.000000e+00 -4.000000e+00 8.000000e+00
    endloop
  endfacet
  facet normal -0.000000e+00 0.000000e+00 -1.000000e+00
    outer loop
      vertex   6.000000e+00 -4.000000e+00 8.000000e+00
      vertex   5.000000e+00 -5.000000e+00 8.000000e+00
      vertex   5.000000e+00 -4.000000e+00 8.000000e+00
    endloop
  endfacet
  facet normal -1.000000e+00 0.000000e+00 0.000000e+00
    outer loop
      vertex   5.000000e+00 -5.000000e+00 8.722233e+00
      vertex   5.000000e+00 -4.885611e+00 8.794145e+00
      vertex   5.000000e+00 -5.000000e+00 8.000000e+00
    endloop
  endfacet
  facet normal -1.000000e+00 0.000000e+00 0.000000e+00
    outer loop
      vertex   5.000000e+00 -5.000000e+00 8.000000e+00
      vertex   5.000000e+00 -4.885611e+00 8.794145e+00
      vertex   5.000000e+00 -4.770240e+00 8.864418e+00
    endloop
  endfacet
  facet normal -1.000000e+00 0.000000e+00 0.000000e+00
    outer loop
      vertex   5.000000e+00 -5.000000e+00 8.000000e+00
      vertex   5.000000e+00 -4.770240e+00 8.864418e+00
      vertex   5.000000e+00 -4.000000e+00 8.000000e+00
    endloop
  endfacet
  facet normal -1.000000e+00 0.000000e+00 0.000000e+00
    outer loop
      vertex   5.000000e+00 -4.000000e+00 8.000000e+00
      vertex   5.000000e+00 -4.770240e+00 8.864418e+00
      vertex   5.000000e+00 -4.653900e+00 8.933041e+00
    endloop
  endfacet
  facet normal -1.000000e+00 0.000000e+00 0.000000e+00
    outer loop
      vertex   5.000000e+00 -4.000000e+00 8.000000e+00
      vertex   5.000000e+00 -4.653900e+00 8.933041e+00
      vertex   5.000000e+00 -4.536609e+00 9.000000e+00
    endloop
  endfacet
  facet normal -1.000000e+00 0.000000e+00 0.000000e+00
    outer loop
      vertex   5.000000e+00 -4.536609e+00 9.000000e+00
      vertex   5.000000e+00 -4.000000e+00 9.000000e+00
      vertex   5.000000e+00 -4.000000e+00 8.000000e+00
    endloop
  endfacet
endsolid
