solid ASCII
  facet normal -8.119982e-01 4.735603e-01 -3.411739e-01
    outer loop
      vertex   -9.025123e+00 5.000000e+00 -4.000000e+00
      vertex   -9.000000e+00 5.043078e+00 -4.000000e+00
      vertex   -9.000000e+00 5.000000e+00 -4.059793e+00
    endloop
  endfacet
  facet normal 1.000000e+00 0.000000e+00 0.000000e+00
    outer loop
      vertex   -9.000000e+00 5.000000e+00 -4.059793e+00
      vertex   -9.000000e+00 5.043078e+00 -4.000000e+00
      vertex   -9.000000e+00 5.000000e+00 -4.000000e+00
    endloop
  endfacet
  facet normal 0.000000e+00 0.000000e+00 1.000000e+00
    outer loop
      vertex   -9.000000e+00 5.043078e+00 -4.000000e+00
      vertex   -9.025123e+00 5.000000e+00 -4.000000e+00
      vertex   -9.000000e+00 5.000000e+00 -4.000000e+00
    endloop
  endfacet
  facet normal 0.000000e+00 -1.000000e+00 0.000000e+00
    outer loop
      vertex   -9.025123e+00 5.000000e+00 -4.000000e+00
      vertex   -9.000000e+00 5.000000e+00 -4.059793e+00
      vertex   -9.000000e+00 5.000000e+00 -4.000000e+00
    endloop
  endfacet
endsolid
