solid ASCII
  facet normal -3.628347e-01 8.303792e-01 -4.228727e-01
    outer loop
      vertex   -4.127956e+00 8.857657e+00 -5.000000e+00
      vertex   -4.104708e+00 8.883538e+00 -4.969128e+00
      vertex   -4.000000e+00 8.913568e+00 -5.000000e+00
    endloop
  endfacet
  facet normal -3.619297e-01 8.341873e-01 -4.160992e-01
    outer loop
      vertex   -4.000000e+00 8.913568e+00 -5.000000e+00
      vertex   -4.104708e+00 8.883538e+00 -4.969128e+00
      vertex   -4.110527e+00 8.896427e+00 -4.938226e+00
    endloop
  endfacet
  facet normal -3.616879e-01 8.345591e-01 -4.155634e-01
    outer loop
      vertex   -4.000000e+00 8.913568e+00 -5.000000e+00
      vertex   -4.110527e+00 8.896427e+00 -4.938226e+00
      vertex   -4.000000e+00 8.957180e+00 -4.912416e+00
    endloop
  endfacet
  facet normal -3.625496e-01 8.352315e-01 -4.134563e-01
    outer loop
      vertex   -4.000000e+00 8.957180e+00 -4.912416e+00
      vertex   -4.110527e+00 8.896427e+00 -4.938226e+00
      vertex   -4.116306e+00 8.909229e+00 -4.907297e+00
    endloop
  endfacet
  facet normal -3.629071e-01 8.363811e-01 -4.108103e-01
    outer loop
      vertex   -4.000000e+00 8.957180e+00 -4.912416e+00
      vertex   -4.116306e+00 8.909229e+00 -4.907297e+00
      vertex   -4.122044e+00 8.921945e+00 -4.876338e+00
    endloop
  endfacet
  facet normal -3.740922e-01 8.314207e-01 -4.108462e-01
    outer loop
      vertex   -4.122044e+00 8.921945e+00 -4.876338e+00
      vertex   -4.116306e+00 8.909229e+00 -4.907297e+00
      vertex   -4.253883e+00 8.862625e+00 -4.876338e+00
    endloop
  endfacet
  facet normal -3.745759e-01 8.324956e-01 -4.082206e-01
    outer loop
      vertex   -4.122044e+00 8.921945e+00 -4.876338e+00
      vertex   -4.253883e+00 8.862625e+00 -4.876338e+00
      vertex   -4.259880e+00 8.875121e+00 -4.845353e+00
    endloop
  endfacet
  facet normal -3.864031e-01 8.270302e-01 -4.083059e-01
    outer loop
      vertex   -4.259880e+00 8.875121e+00 -4.845353e+00
      vertex   -4.253883e+00 8.862625e+00 -4.876338e+00
      vertex   -4.390892e+00 8.813910e+00 -4.845353e+00
    endloop
  endfacet
  facet normal -3.869026e-01 8.280995e-01 -4.056569e-01
    outer loop
      vertex   -4.259880e+00 8.875121e+00 -4.845353e+00
      vertex   -4.390892e+00 8.813910e+00 -4.845353e+00
      vertex   -4.397031e+00 8.826233e+00 -4.814340e+00
    endloop
  endfacet
  facet normal -3.986801e-01 8.224512e-01 -4.057440e-01
    outer loop
      vertex   -4.397031e+00 8.826233e+00 -4.814340e+00
      vertex   -4.390892e+00 8.813910e+00 -4.845353e+00
      vertex   -4.527620e+00 8.762931e+00 -4.814340e+00
    endloop
  endfacet
  facet normal -3.991914e-01 8.235060e-01 -4.030933e-01
    outer loop
      vertex   -4.397031e+00 8.826233e+00 -4.814340e+00
      vertex   -4.527620e+00 8.762931e+00 -4.814340e+00
      vertex   -4.533898e+00 8.775081e+00 -4.783300e+00
    endloop
  endfacet
  facet normal -4.109351e-01 8.176653e-01 -4.031821e-01
    outer loop
      vertex   -4.533898e+00 8.775081e+00 -4.783300e+00
      vertex   -4.527620e+00 8.762931e+00 -4.814340e+00
      vertex   -4.664014e+00 8.709688e+00 -4.783300e+00
    endloop
  endfacet
  facet normal -4.114578e-01 8.187053e-01 -4.005297e-01
    outer loop
      vertex   -4.533898e+00 8.775081e+00 -4.783300e+00
      vertex   -4.664014e+00 8.709688e+00 -4.783300e+00
      vertex   -4.670427e+00 8.721664e+00 -4.752234e+00
    endloop
  endfacet
  facet normal -4.231636e-01 8.126721e-01 -4.006203e-01
    outer loop
      vertex   -4.670427e+00 8.721664e+00 -4.752234e+00
      vertex   -4.664014e+00 8.709688e+00 -4.783300e+00
      vertex   -4.800021e+00 8.654183e+00 -4.752234e+00
    endloop
  endfacet
  facet normal -4.236974e-01 8.136974e-01 -3.979661e-01
    outer loop
      vertex   -4.670427e+00 8.721664e+00 -4.752234e+00
      vertex   -4.800021e+00 8.654183e+00 -4.752234e+00
      vertex   -4.806565e+00 8.665982e+00 -4.721143e+00
    endloop
  endfacet
  facet normal -4.353608e-01 8.074716e-01 -3.980585e-01
    outer loop
      vertex   -4.806565e+00 8.665982e+00 -4.721143e+00
      vertex   -4.800021e+00 8.654183e+00 -4.752234e+00
      vertex   -4.935587e+00 8.596418e+00 -4.721143e+00
    endloop
  endfacet
  facet normal -4.359056e-01 8.084820e-01 -3.954026e-01
    outer loop
      vertex   -4.806565e+00 8.665982e+00 -4.721143e+00
      vertex   -4.935587e+00 8.596418e+00 -4.721143e+00
      vertex   -4.942259e+00 8.608039e+00 -4.690026e+00
    endloop
  endfacet
  facet normal -4.461372e-01 8.028388e-01 -3.954889e-01
    outer loop
      vertex   -4.942259e+00 8.608039e+00 -4.690026e+00
      vertex   -4.935587e+00 8.596418e+00 -4.721143e+00
      vertex   -5.000000e+00 8.544081e+00 -4.754724e+00
    endloop
  endfacet
  facet normal -4.472506e-01 8.027509e-01 -3.944084e-01
    outer loop
      vertex   -4.942259e+00 8.608039e+00 -4.690026e+00
      vertex   -5.000000e+00 8.544081e+00 -4.754724e+00
      vertex   -5.000000e+00 8.604939e+00 -4.630857e+00
    endloop
  endfacet
  facet normal -3.734287e-01 8.299053e-01 -4.144976e-01
    outer loop
      vertex   -4.104708e+00 8.883538e+00 -4.969128e+00
      vertex   -4.127956e+00 8.857657e+00 -5.000000e+00
      vertex   -4.235642e+00 8.824622e+00 -4.969128e+00
    endloop
  endfacet
  facet normal -3.743647e-01 8.253853e-01 -4.225994e-01
    outer loop
      vertex   -4.235642e+00 8.824622e+00 -4.969128e+00
      vertex   -4.127956e+00 8.857657e+00 -5.000000e+00
      vertex   -4.255106e+00 8.799987e+00 -5.000000e+00
    endloop
  endfacet
  facet normal -3.851322e-01 8.243102e-01 -4.149530e-01
    outer loop
      vertex   -4.235642e+00 8.824622e+00 -4.969128e+00
      vertex   -4.255106e+00 8.799987e+00 -5.000000e+00
      vertex   -4.365908e+00 8.763759e+00 -4.969128e+00
    endloop
  endfacet
  facet normal -3.858439e-01 8.202514e-01 -4.222701e-01
    outer loop
      vertex   -4.365908e+00 8.763759e+00 -4.969128e+00
      vertex   -4.255106e+00 8.799987e+00 -5.000000e+00
      vertex   -4.381430e+00 8.740564e+00 -5.000000e+00
    endloop
  endfacet
  facet normal -3.967698e-01 8.185105e-01 -4.154687e-01
    outer loop
      vertex   -4.365908e+00 8.763759e+00 -4.969128e+00
      vertex   -4.381430e+00 8.740564e+00 -5.000000e+00
      vertex   -4.495572e+00 8.700905e+00 -4.969128e+00
    endloop
  endfacet
  facet normal -3.972753e-01 8.149854e-01 -4.218662e-01
    outer loop
      vertex   -4.495572e+00 8.700905e+00 -4.969128e+00
      vertex   -4.381430e+00 8.740564e+00 -5.000000e+00
      vertex   -4.506910e+00 8.679397e+00 -5.000000e+00
    endloop
  endfacet
  facet normal -4.083366e-01 8.124948e-01 -4.160689e-01
    outer loop
      vertex   -4.495572e+00 8.700905e+00 -4.969128e+00
      vertex   -4.506910e+00 8.679397e+00 -5.000000e+00
      vertex   -4.624589e+00 8.636065e+00 -4.969128e+00
    endloop
  endfacet
  facet normal -4.086602e-01 8.095899e-01 -4.213798e-01
    outer loop
      vertex   -4.624589e+00 8.636065e+00 -4.969128e+00
      vertex   -4.506910e+00 8.679397e+00 -5.000000e+00
      vertex   -4.631526e+00 8.616494e+00 -5.000000e+00
    endloop
  endfacet
  facet normal -4.198253e-01 8.062612e-01 -4.167608e-01
    outer loop
      vertex   -4.624589e+00 8.636065e+00 -4.969128e+00
      vertex   -4.631526e+00 8.616494e+00 -5.000000e+00
      vertex   -4.752911e+00 8.569246e+00 -4.969128e+00
    endloop
  endfacet
  facet normal -4.199997e-01 8.040674e-01 -4.208038e-01
    outer loop
      vertex   -4.752911e+00 8.569246e+00 -4.969128e+00
      vertex   -4.631526e+00 8.616494e+00 -5.000000e+00
      vertex   -4.755260e+00 8.551863e+00 -5.000000e+00
    endloop
  endfacet
  facet normal -4.312288e-01 7.998079e-01 -4.175512e-01
    outer loop
      vertex   -4.752911e+00 8.569246e+00 -4.969128e+00
      vertex   -4.755260e+00 8.551863e+00 -5.000000e+00
      vertex   -4.880492e+00 8.500459e+00 -4.969128e+00
    endloop
  endfacet
  facet normal -4.312951e-01 7.984201e-01 -4.201309e-01
    outer loop
      vertex   -4.880492e+00 8.500459e+00 -4.969128e+00
      vertex   -4.755260e+00 8.551863e+00 -5.000000e+00
      vertex   -4.878091e+00 8.485511e+00 -5.000000e+00
    endloop
  endfacet
  facet normal -4.427593e-01 7.930291e-01 -4.184126e-01
    outer loop
      vertex   -4.880492e+00 8.500459e+00 -4.969128e+00
      vertex   -4.878091e+00 8.485511e+00 -5.000000e+00
      vertex   -5.000000e+00 8.417448e+00 -5.000000e+00
    endloop
  endfacet
  facet normal -4.436554e-01 7.935775e-01 -4.164188e-01
    outer loop
      vertex   -5.000000e+00 8.417448e+00 -5.000000e+00
      vertex   -5.000000e+00 8.481582e+00 -4.877778e+00
      vertex   -4.880492e+00 8.500459e+00 -4.969128e+00
    endloop
  endfacet
  facet normal -4.438389e-01 7.933209e-01 -4.167120e-01
    outer loop
      vertex   -4.880492e+00 8.500459e+00 -4.969128e+00
      vertex   -5.000000e+00 8.481582e+00 -4.877778e+00
      vertex   -4.887546e+00 8.512745e+00 -4.938226e+00
    endloop
  endfacet
  facet normal -4.314337e-01 8.001879e-01 -4.166104e-01
    outer loop
      vertex   -4.880492e+00 8.500459e+00 -4.969128e+00
      vertex   -4.887546e+00 8.512745e+00 -4.938226e+00
      vertex   -4.752911e+00 8.569246e+00 -4.969128e+00
    endloop
  endfacet
  facet normal -4.314337e-01 8.001879e-01 -4.166104e-01
    outer loop
      vertex   -4.752911e+00 8.569246e+00 -4.969128e+00
      vertex   -4.887546e+00 8.512745e+00 -4.938226e+00
      vertex   -4.759780e+00 8.581631e+00 -4.938226e+00
    endloop
  endfacet
  facet normal -4.198773e-01 8.063609e-01 -4.165155e-01
    outer loop
      vertex   -4.752911e+00 8.569246e+00 -4.969128e+00
      vertex   -4.759780e+00 8.581631e+00 -4.938226e+00
      vertex   -4.624589e+00 8.636065e+00 -4.969128e+00
    endloop
  endfacet
  facet normal -4.198773e-01 8.063609e-01 -4.165155e-01
    outer loop
      vertex   -4.624589e+00 8.636065e+00 -4.969128e+00
      vertex   -4.759780e+00 8.581631e+00 -4.938226e+00
      vertex   -4.631273e+00 8.648546e+00 -4.938226e+00
    endloop
  endfacet
  facet normal -4.082639e-01 8.123501e-01 -4.164228e-01
    outer loop
      vertex   -4.624589e+00 8.636065e+00 -4.969128e+00
      vertex   -4.631273e+00 8.648546e+00 -4.938226e+00
      vertex   -4.495572e+00 8.700905e+00 -4.969128e+00
    endloop
  endfacet
  facet normal -4.082639e-01 8.123501e-01 -4.164228e-01
    outer loop
      vertex   -4.495572e+00 8.700905e+00 -4.969128e+00
      vertex   -4.631273e+00 8.648546e+00 -4.938226e+00
      vertex   -4.502070e+00 8.713480e+00 -4.938226e+00
    endloop
  endfacet
  facet normal -3.965976e-01 8.181552e-01 -4.163321e-01
    outer loop
      vertex   -4.495572e+00 8.700905e+00 -4.969128e+00
      vertex   -4.502070e+00 8.713480e+00 -4.938226e+00
      vertex   -4.365908e+00 8.763759e+00 -4.969128e+00
    endloop
  endfacet
  facet normal -3.965976e-01 8.181552e-01 -4.163321e-01
    outer loop
      vertex   -4.365908e+00 8.763759e+00 -4.969128e+00
      vertex   -4.502070e+00 8.713480e+00 -4.938226e+00
      vertex   -4.372218e+00 8.776425e+00 -4.938226e+00
    endloop
  endfacet
  facet normal -3.848825e-01 8.237758e-01 -4.162438e-01
    outer loop
      vertex   -4.365908e+00 8.763759e+00 -4.969128e+00
      vertex   -4.372218e+00 8.776425e+00 -4.938226e+00
      vertex   -4.235642e+00 8.824622e+00 -4.969128e+00
    endloop
  endfacet
  facet normal -3.848825e-01 8.237758e-01 -4.162438e-01
    outer loop
      vertex   -4.235642e+00 8.824622e+00 -4.969128e+00
      vertex   -4.372218e+00 8.776425e+00 -4.938226e+00
      vertex   -4.241763e+00 8.837376e+00 -4.938226e+00
    endloop
  endfacet
  facet normal -3.731177e-01 8.292141e-01 -4.161577e-01
    outer loop
      vertex   -4.235642e+00 8.824622e+00 -4.969128e+00
      vertex   -4.241763e+00 8.837376e+00 -4.938226e+00
      vertex   -4.104708e+00 8.883538e+00 -4.969128e+00
    endloop
  endfacet
  facet normal -3.731166e-01 8.292253e-01 -4.161363e-01
    outer loop
      vertex   -4.104708e+00 8.883538e+00 -4.969128e+00
      vertex   -4.241763e+00 8.837376e+00 -4.938226e+00
      vertex   -4.110527e+00 8.896427e+00 -4.938226e+00
    endloop
  endfacet
  facet normal -4.450865e-01 7.984094e-01 -4.055125e-01
    outer loop
      vertex   -5.000000e+00 8.544081e+00 -4.754724e+00
      vertex   -4.908421e+00 8.549103e+00 -4.845353e+00
      vertex   -5.000000e+00 8.481582e+00 -4.877778e+00
    endloop
  endfacet
  facet normal -4.434067e-01 7.976892e-01 -4.087571e-01
    outer loop
      vertex   -5.000000e+00 8.481582e+00 -4.877778e+00
      vertex   -4.908421e+00 8.549103e+00 -4.845353e+00
      vertex   -4.901510e+00 8.537067e+00 -4.876338e+00
    endloop
  endfacet
  facet normal -4.427926e-01 7.966679e-01 -4.114061e-01
    outer loop
      vertex   -5.000000e+00 8.481582e+00 -4.877778e+00
      vertex   -4.901510e+00 8.537067e+00 -4.876338e+00
      vertex   -4.894552e+00 8.524947e+00 -4.907297e+00
    endloop
  endfacet
  facet normal -4.325761e-01 8.023067e-01 -4.113173e-01
    outer loop
      vertex   -4.894552e+00 8.524947e+00 -4.907297e+00
      vertex   -4.901510e+00 8.537067e+00 -4.876338e+00
      vertex   -4.766603e+00 8.593933e+00 -4.907297e+00
    endloop
  endfacet
  facet normal -4.320069e-01 8.012511e-01 -4.139646e-01
    outer loop
      vertex   -4.894552e+00 8.524947e+00 -4.907297e+00
      vertex   -4.766603e+00 8.593933e+00 -4.907297e+00
      vertex   -4.759780e+00 8.581631e+00 -4.938226e+00
    endloop
  endfacet
  facet normal -4.204349e-01 8.074318e-01 -4.138701e-01
    outer loop
      vertex   -4.759780e+00 8.581631e+00 -4.938226e+00
      vertex   -4.766603e+00 8.593933e+00 -4.907297e+00
      vertex   -4.631273e+00 8.648546e+00 -4.938226e+00
    endloop
  endfacet
  facet normal -4.506058e-01 8.063812e-01 -3.830192e-01
    outer loop
      vertex   -5.000000e+00 8.664151e+00 -4.506198e+00
      vertex   -4.968469e+00 8.653691e+00 -4.565314e+00
      vertex   -5.000000e+00 8.604939e+00 -4.630857e+00
    endloop
  endfacet
  facet normal -4.478394e-01 8.070512e-01 -3.848483e-01
    outer loop
      vertex   -5.000000e+00 8.604939e+00 -4.630857e+00
      vertex   -4.968469e+00 8.653691e+00 -4.565314e+00
      vertex   -4.961988e+00 8.642403e+00 -4.596527e+00
    endloop
  endfacet
  facet normal -4.454825e-01 8.070878e-01 -3.874979e-01
    outer loop
      vertex   -5.000000e+00 8.604939e+00 -4.630857e+00
      vertex   -4.961988e+00 8.642403e+00 -4.596527e+00
      vertex   -4.955460e+00 8.631032e+00 -4.627718e+00
    endloop
  endfacet
  facet normal -4.375155e-01 8.114680e-01 -3.874272e-01
    outer loop
      vertex   -4.955460e+00 8.631032e+00 -4.627718e+00
      vertex   -4.961988e+00 8.642403e+00 -4.596527e+00
      vertex   -4.825919e+00 8.700875e+00 -4.627718e+00
    endloop
  endfacet
  facet normal -4.369829e-01 8.104802e-01 -3.900869e-01
    outer loop
      vertex   -4.955460e+00 8.631032e+00 -4.627718e+00
      vertex   -4.825919e+00 8.700875e+00 -4.627718e+00
      vertex   -4.819514e+00 8.689328e+00 -4.658884e+00
    endloop
  endfacet
  facet normal -4.252753e-01 8.167277e-01 -3.899957e-01
    outer loop
      vertex   -4.819514e+00 8.689328e+00 -4.658884e+00
      vertex   -4.825919e+00 8.700875e+00 -4.627718e+00
      vertex   -4.689394e+00 8.757083e+00 -4.658884e+00
    endloop
  endfacet
  facet normal -4.247533e-01 8.157252e-01 -3.926538e-01
    outer loop
      vertex   -4.819514e+00 8.689328e+00 -4.658884e+00
      vertex   -4.689394e+00 8.757083e+00 -4.658884e+00
      vertex   -4.683117e+00 8.745361e+00 -4.690026e+00
    endloop
  endfacet
  facet normal -4.130029e-01 8.217797e-01 -3.925643e-01
    outer loop
      vertex   -4.683117e+00 8.745361e+00 -4.690026e+00
      vertex   -4.689394e+00 8.757083e+00 -4.658884e+00
      vertex   -4.552468e+00 8.811022e+00 -4.690026e+00
    endloop
  endfacet
  facet normal -4.124917e-01 8.207626e-01 -3.952207e-01
    outer loop
      vertex   -4.683117e+00 8.745361e+00 -4.690026e+00
      vertex   -4.552468e+00 8.811022e+00 -4.690026e+00
      vertex   -4.546322e+00 8.799127e+00 -4.721143e+00
    endloop
  endfacet
  facet normal -4.007028e-01 8.266240e-01 -3.951329e-01
    outer loop
      vertex   -4.546322e+00 8.799127e+00 -4.721143e+00
      vertex   -4.552468e+00 8.811022e+00 -4.690026e+00
      vertex   -4.415193e+00 8.862691e+00 -4.721143e+00
    endloop
  endfacet
  facet normal -4.002027e-01 8.255923e-01 -3.977877e-01
    outer loop
      vertex   -4.546322e+00 8.799127e+00 -4.721143e+00
      vertex   -4.415193e+00 8.862691e+00 -4.721143e+00
      vertex   -4.409182e+00 8.850624e+00 -4.752234e+00
    endloop
  endfacet
  facet normal -3.883797e-01 8.312608e-01 -3.977017e-01
    outer loop
      vertex   -4.409182e+00 8.850624e+00 -4.752234e+00
      vertex   -4.415193e+00 8.862691e+00 -4.721143e+00
      vertex   -4.277625e+00 8.912090e+00 -4.752234e+00
    endloop
  endfacet
  facet normal -3.878909e-01 8.302148e-01 -4.003548e-01
    outer loop
      vertex   -4.409182e+00 8.850624e+00 -4.752234e+00
      vertex   -4.277625e+00 8.912090e+00 -4.752234e+00
      vertex   -4.271751e+00 8.899853e+00 -4.783300e+00
    endloop
  endfacet
  facet normal -3.760023e-01 8.357068e-01 -4.002704e-01
    outer loop
      vertex   -4.271751e+00 8.899853e+00 -4.783300e+00
      vertex   -4.277625e+00 8.912090e+00 -4.752234e+00
      vertex   -4.139018e+00 8.959573e+00 -4.783300e+00
    endloop
  endfacet
  facet normal -3.755292e-01 8.346553e-01 -4.028999e-01
    outer loop
      vertex   -4.271751e+00 8.899853e+00 -4.783300e+00
      vertex   -4.139018e+00 8.959573e+00 -4.783300e+00
      vertex   -4.133400e+00 8.947117e+00 -4.814340e+00
    endloop
  endfacet
  facet normal -3.655239e-01 8.390985e-01 -4.028722e-01
    outer loop
      vertex   -4.133400e+00 8.947117e+00 -4.814340e+00
      vertex   -4.139018e+00 8.959573e+00 -4.783300e+00
      vertex   -4.052968e+00 9.000000e+00 -4.777171e+00
    endloop
  endfacet
  facet normal -3.631222e-01 8.382296e-01 -4.068333e-01
    outer loop
      vertex   -4.133400e+00 8.947117e+00 -4.814340e+00
      vertex   -4.052968e+00 9.000000e+00 -4.777171e+00
      vertex   -4.000000e+00 9.000000e+00 -4.824448e+00
    endloop
  endfacet
  facet normal -4.726032e-01 8.009701e-01 -3.675502e-01
    outer loop
      vertex   -5.000000e+00 8.721711e+00 -4.380763e+00
      vertex   -4.993915e+00 8.698010e+00 -4.440235e+00
      vertex   -5.000000e+00 8.664151e+00 -4.506198e+00
    endloop
  endfacet
  facet normal -4.513400e-01 8.101030e-01 -3.741997e-01
    outer loop
      vertex   -5.000000e+00 8.664151e+00 -4.506198e+00
      vertex   -4.993915e+00 8.698010e+00 -4.440235e+00
      vertex   -4.987625e+00 8.687055e+00 -4.471538e+00
    endloop
  endfacet
  facet normal -4.465716e-01 8.115208e-01 -3.768391e-01
    outer loop
      vertex   -5.000000e+00 8.664151e+00 -4.506198e+00
      vertex   -4.987625e+00 8.687055e+00 -4.471538e+00
      vertex   -4.981288e+00 8.676017e+00 -4.502819e+00
    endloop
  endfacet
  facet normal -4.396054e-01 8.153442e-01 -3.767769e-01
    outer loop
      vertex   -4.981288e+00 8.676017e+00 -4.502819e+00
      vertex   -4.987625e+00 8.687055e+00 -4.471538e+00
      vertex   -4.851072e+00 8.746225e+00 -4.502819e+00
    endloop
  endfacet
  facet normal -4.390890e-01 8.143864e-01 -3.794411e-01
    outer loop
      vertex   -4.981288e+00 8.676017e+00 -4.502819e+00
      vertex   -4.851072e+00 8.746225e+00 -4.502819e+00
      vertex   -4.844854e+00 8.735014e+00 -4.534078e+00
    endloop
  endfacet
  facet normal -4.273241e-01 8.206622e-01 -3.793516e-01
    outer loop
      vertex   -4.844854e+00 8.735014e+00 -4.534078e+00
      vertex   -4.851072e+00 8.746225e+00 -4.502819e+00
      vertex   -4.714049e+00 8.803124e+00 -4.534078e+00
    endloop
  endfacet
  facet normal -4.268178e-01 8.196899e-01 -3.820144e-01
    outer loop
      vertex   -4.844854e+00 8.735014e+00 -4.534078e+00
      vertex   -4.714049e+00 8.803124e+00 -4.534078e+00
      vertex   -4.707953e+00 8.791741e+00 -4.565314e+00
    endloop
  endfacet
  facet normal -4.150093e-01 8.257720e-01 -3.819264e-01
    outer loop
      vertex   -4.707953e+00 8.791741e+00 -4.565314e+00
      vertex   -4.714049e+00 8.803124e+00 -4.534078e+00
      vertex   -4.576611e+00 8.857750e+00 -4.565314e+00
    endloop
  endfacet
  facet normal -4.145135e-01 8.247854e-01 -3.845876e-01
    outer loop
      vertex   -4.707953e+00 8.791741e+00 -4.565314e+00
      vertex   -4.576611e+00 8.857750e+00 -4.565314e+00
      vertex   -4.570641e+00 8.846195e+00 -4.596527e+00
    endloop
  endfacet
  facet normal -4.026659e-01 8.306737e-01 -3.845014e-01
    outer loop
      vertex   -4.570641e+00 8.846195e+00 -4.596527e+00
      vertex   -4.576611e+00 8.857750e+00 -4.565314e+00
      vertex   -4.438811e+00 8.910099e+00 -4.596527e+00
    endloop
  endfacet
  facet normal -4.021807e-01 8.296728e-01 -3.871611e-01
    outer loop
      vertex   -4.570641e+00 8.846195e+00 -4.596527e+00
      vertex   -4.438811e+00 8.910099e+00 -4.596527e+00
      vertex   -4.432971e+00 8.898376e+00 -4.627718e+00
    endloop
  endfacet
  facet normal -3.902984e-01 8.353675e-01 -3.870766e-01
    outer loop
      vertex   -4.432971e+00 8.898376e+00 -4.627718e+00
      vertex   -4.438811e+00 8.910099e+00 -4.596527e+00
      vertex   -4.300704e+00 8.960173e+00 -4.627718e+00
    endloop
  endfacet
  facet normal -3.898241e-01 8.343524e-01 -3.897347e-01
    outer loop
      vertex   -4.432971e+00 8.898376e+00 -4.627718e+00
      vertex   -4.300704e+00 8.960173e+00 -4.627718e+00
      vertex   -4.294996e+00 8.948282e+00 -4.658884e+00
    endloop
  endfacet
  facet normal -3.798159e-01 8.389859e-01 -3.896697e-01
    outer loop
      vertex   -4.294996e+00 8.948282e+00 -4.658884e+00
      vertex   -4.300704e+00 8.960173e+00 -4.627718e+00
      vertex   -4.208535e+00 9.000000e+00 -4.631806e+00
    endloop
  endfacet
  facet normal -3.774232e-01 8.376688e-01 -3.947945e-01
    outer loop
      vertex   -4.294996e+00 8.948282e+00 -4.658884e+00
      vertex   -4.208535e+00 9.000000e+00 -4.631806e+00
      vertex   -4.157240e+00 9.000000e+00 -4.680844e+00
    endloop
  endfacet
  facet normal -4.427361e-01 8.198106e-01 -3.631740e-01
    outer loop
      vertex   -5.000000e+00 8.777613e+00 -4.254573e+00
      vertex   -4.887404e+00 8.811730e+00 -4.314819e+00
      vertex   -5.000000e+00 8.721711e+00 -4.380763e+00
    endloop
  endfacet
  facet normal -4.416838e-01 8.196673e-01 -3.647752e-01
    outer loop
      vertex   -5.000000e+00 8.721711e+00 -4.380763e+00
      vertex   -4.887404e+00 8.811730e+00 -4.314819e+00
      vertex   -4.875480e+00 8.790231e+00 -4.377568e+00
    endloop
  endfacet
  facet normal -4.405618e-01 8.178772e-01 -3.701109e-01
    outer loop
      vertex   -5.000000e+00 8.721711e+00 -4.380763e+00
      vertex   -4.875480e+00 8.790231e+00 -4.377568e+00
      vertex   -4.863369e+00 8.768396e+00 -4.440235e+00
    endloop
  endfacet
  facet normal -4.290650e-01 8.240056e-01 -3.700244e-01
    outer loop
      vertex   -4.863369e+00 8.768396e+00 -4.440235e+00
      vertex   -4.875480e+00 8.790231e+00 -4.377568e+00
      vertex   -4.732065e+00 8.836767e+00 -4.440235e+00
    endloop
  endfacet
  facet normal -4.283248e-01 8.225841e-01 -3.740230e-01
    outer loop
      vertex   -4.863369e+00 8.768396e+00 -4.440235e+00
      vertex   -4.732065e+00 8.836767e+00 -4.440235e+00
      vertex   -4.726105e+00 8.825637e+00 -4.471538e+00
    endloop
  endfacet
  facet normal -4.164740e-01 8.286864e-01 -3.739363e-01
    outer loop
      vertex   -4.726105e+00 8.825637e+00 -4.471538e+00
      vertex   -4.732065e+00 8.836767e+00 -4.440235e+00
      vertex   -4.594256e+00 8.891901e+00 -4.471538e+00
    endloop
  endfacet
  facet normal -4.159896e-01 8.277225e-01 -3.766007e-01
    outer loop
      vertex   -4.726105e+00 8.825637e+00 -4.471538e+00
      vertex   -4.594256e+00 8.891901e+00 -4.471538e+00
      vertex   -4.588419e+00 8.880602e+00 -4.502819e+00
    endloop
  endfacet
  facet normal -4.040992e-01 8.336305e-01 -3.765156e-01
    outer loop
      vertex   -4.588419e+00 8.880602e+00 -4.502819e+00
      vertex   -4.594256e+00 8.891901e+00 -4.471538e+00
      vertex   -4.456076e+00 8.944755e+00 -4.502819e+00
    endloop
  endfacet
  facet normal -4.036252e-01 8.326526e-01 -3.791786e-01
    outer loop
      vertex   -4.588419e+00 8.880602e+00 -4.502819e+00
      vertex   -4.456076e+00 8.944755e+00 -4.502819e+00
      vertex   -4.450364e+00 8.933289e+00 -4.534078e+00
    endloop
  endfacet
  facet normal -3.916995e-01 8.383664e-01 -3.790953e-01
    outer loop
      vertex   -4.450364e+00 8.933289e+00 -4.534078e+00
      vertex   -4.456076e+00 8.944755e+00 -4.502819e+00
      vertex   -4.317578e+00 8.995329e+00 -4.534078e+00
    endloop
  endfacet
  facet normal -3.912361e-01 8.373745e-01 -3.817568e-01
    outer loop
      vertex   -4.450364e+00 8.933289e+00 -4.534078e+00
      vertex   -4.317578e+00 8.995329e+00 -4.534078e+00
      vertex   -4.311995e+00 8.983697e+00 -4.565314e+00
    endloop
  endfacet
  facet normal -3.845508e-01 8.404826e-01 -3.817193e-01
    outer loop
      vertex   -4.311995e+00 8.983697e+00 -4.565314e+00
      vertex   -4.317578e+00 8.995329e+00 -4.534078e+00
      vertex   -4.309424e+00 9.000000e+00 -4.532007e+00
    endloop
  endfacet
  facet normal -3.824339e-01 8.412117e-01 -3.822396e-01
    outer loop
      vertex   -4.311995e+00 8.983697e+00 -4.565314e+00
      vertex   -4.309424e+00 9.000000e+00 -4.532007e+00
      vertex   -4.259265e+00 9.000000e+00 -4.582192e+00
    endloop
  endfacet
  facet normal -4.440357e-01 8.239343e-01 -3.520859e-01
    outer loop
      vertex   -5.000000e+00 8.831852e+00 -4.127645e+00
      vertex   -4.910694e+00 8.853721e+00 -4.189096e+00
      vertex   -5.000000e+00 8.777613e+00 -4.254573e+00
    endloop
  endfacet
  facet normal -4.425290e-01 8.238875e-01 -3.540868e-01
    outer loop
      vertex   -5.000000e+00 8.777613e+00 -4.254573e+00
      vertex   -4.910694e+00 8.853721e+00 -4.189096e+00
      vertex   -4.899142e+00 8.832894e+00 -4.251994e+00
    endloop
  endfacet
  facet normal -4.414428e-01 8.221550e-01 -3.594292e-01
    outer loop
      vertex   -5.000000e+00 8.777613e+00 -4.254573e+00
      vertex   -4.899142e+00 8.832894e+00 -4.251994e+00
      vertex   -4.887404e+00 8.811730e+00 -4.314819e+00
    endloop
  endfacet
  facet normal -4.309959e-01 8.277138e-01 -3.593499e-01
    outer loop
      vertex   -4.887404e+00 8.811730e+00 -4.314819e+00
      vertex   -4.899142e+00 8.832894e+00 -4.251994e+00
      vertex   -4.755451e+00 8.880439e+00 -4.314819e+00
    endloop
  endfacet
  facet normal -4.300383e-01 8.258747e-01 -3.646889e-01
    outer loop
      vertex   -4.887404e+00 8.811730e+00 -4.314819e+00
      vertex   -4.755451e+00 8.880439e+00 -4.314819e+00
      vertex   -4.743849e+00 8.858772e+00 -4.377568e+00
    endloop
  endfacet
  facet normal -4.181392e-01 8.319998e-01 -3.646037e-01
    outer loop
      vertex   -4.743849e+00 8.858772e+00 -4.377568e+00
      vertex   -4.755451e+00 8.880439e+00 -4.314819e+00
      vertex   -4.611505e+00 8.925285e+00 -4.377568e+00
    endloop
  endfacet
  facet normal -4.171933e-01 8.301177e-01 -3.699383e-01
    outer loop
      vertex   -4.743849e+00 8.858772e+00 -4.377568e+00
      vertex   -4.611505e+00 8.925285e+00 -4.377568e+00
      vertex   -4.600050e+00 8.903114e+00 -4.440235e+00
    endloop
  endfacet
  facet normal -4.052680e-01 8.360417e-01 -3.698543e-01
    outer loop
      vertex   -4.600050e+00 8.903114e+00 -4.440235e+00
      vertex   -4.611505e+00 8.925285e+00 -4.377568e+00
      vertex   -4.467372e+00 8.967429e+00 -4.440235e+00
    endloop
  endfacet
  facet normal -4.045695e-01 8.346008e-01 -3.738516e-01
    outer loop
      vertex   -4.600050e+00 8.903114e+00 -4.440235e+00
      vertex   -4.467372e+00 8.967429e+00 -4.440235e+00
      vertex   -4.461745e+00 8.956135e+00 -4.471538e+00
    endloop
  endfacet
  facet normal -3.938956e-01 8.397226e-01 -3.737810e-01
    outer loop
      vertex   -4.461745e+00 8.956135e+00 -4.471538e+00
      vertex   -4.467372e+00 8.967429e+00 -4.440235e+00
      vertex   -4.359009e+00 9.000000e+00 -4.481258e+00
    endloop
  endfacet
  facet normal -3.936819e-01 8.386312e-01 -3.764469e-01
    outer loop
      vertex   -4.461745e+00 8.956135e+00 -4.471538e+00
      vertex   -4.359009e+00 9.000000e+00 -4.481258e+00
      vertex   -4.456076e+00 8.944755e+00 -4.502819e+00
    endloop
  endfacet
  facet normal -3.914146e-01 8.369832e-01 -3.824314e-01
    outer loop
      vertex   -4.456076e+00 8.944755e+00 -4.502819e+00
      vertex   -4.359009e+00 9.000000e+00 -4.481258e+00
      vertex   -4.309424e+00 9.000000e+00 -4.532007e+00
    endloop
  endfacet
  facet normal -3.909687e-01 8.446102e-01 -3.657554e-01
    outer loop
      vertex   -4.456076e+00 8.944755e+00 -4.502819e+00
      vertex   -4.309424e+00 9.000000e+00 -4.532007e+00
      vertex   -4.317578e+00 8.995329e+00 -4.534078e+00
    endloop
  endfacet
  facet normal -4.455428e-01 8.278040e-01 -3.409284e-01
    outer loop
      vertex   -5.000000e+00 8.884422e+00 -4.000000e+00
      vertex   -4.933239e+00 8.894368e+00 -4.063095e+00
      vertex   -5.000000e+00 8.831852e+00 -4.127645e+00
    endloop
  endfacet
  facet normal -4.433284e-01 8.279769e-01 -3.433862e-01
    outer loop
      vertex   -5.000000e+00 8.831852e+00 -4.127645e+00
      vertex   -4.933239e+00 8.894368e+00 -4.063095e+00
      vertex   -4.922060e+00 8.874213e+00 -4.126128e+00
    endloop
  endfacet
  facet normal -4.423057e-01 8.262868e-01 -3.487345e-01
    outer loop
      vertex   -5.000000e+00 8.831852e+00 -4.127645e+00
      vertex   -4.922060e+00 8.874213e+00 -4.126128e+00
      vertex   -4.910694e+00 8.853721e+00 -4.189096e+00
    endloop
  endfacet
  facet normal -4.328643e-01 8.313020e-01 -3.486624e-01
    outer loop
      vertex   -4.910694e+00 8.853721e+00 -4.189096e+00
      vertex   -4.922060e+00 8.874213e+00 -4.126128e+00
      vertex   -4.778112e+00 8.922757e+00 -4.189096e+00
    endloop
  endfacet
  facet normal -4.319379e-01 8.295229e-01 -3.540076e-01
    outer loop
      vertex   -4.910694e+00 8.853721e+00 -4.189096e+00
      vertex   -4.778112e+00 8.922757e+00 -4.189096e+00
      vertex   -4.766872e+00 8.901768e+00 -4.251994e+00
    endloop
  endfacet
  facet normal -4.199854e-01 8.356733e-01 -3.539242e-01
    outer loop
      vertex   -4.766872e+00 8.901768e+00 -4.251994e+00
      vertex   -4.778112e+00 8.922757e+00 -4.189096e+00
      vertex   -4.633886e+00 8.968603e+00 -4.251994e+00
    endloop
  endfacet
  facet normal -4.190699e-01 8.338517e-01 -3.592656e-01
    outer loop
      vertex   -4.766872e+00 8.901768e+00 -4.251994e+00
      vertex   -4.633886e+00 8.968603e+00 -4.251994e+00
      vertex   -4.622784e+00 8.947114e+00 -4.314819e+00
    endloop
  endfacet
  facet normal -4.099827e-01 8.383813e-01 -3.592089e-01
    outer loop
      vertex   -4.622784e+00 8.947114e+00 -4.314819e+00
      vertex   -4.633886e+00 8.968603e+00 -4.251994e+00
      vertex   -4.551522e+00 9.000000e+00 -4.272720e+00
    endloop
  endfacet
  facet normal -4.072267e-01 8.379484e-01 -3.633303e-01
    outer loop
      vertex   -4.622784e+00 8.947114e+00 -4.314819e+00
      vertex   -4.551522e+00 9.000000e+00 -4.272720e+00
      vertex   -4.504276e+00 9.000000e+00 -4.325674e+00
    endloop
  endfacet
  facet normal -4.411359e-01 8.323498e-01 -3.355488e-01
    outer loop
      vertex   -5.000000e+00 8.884422e+00 -4.000000e+00
      vertex   -4.889711e+00 8.942874e+00 -4.000000e+00
      vertex   -4.933239e+00 8.894368e+00 -4.063095e+00
    endloop
  endfacet
  facet normal -4.340944e-01 8.336644e-01 -3.414172e-01
    outer loop
      vertex   -4.933239e+00 8.894368e+00 -4.063095e+00
      vertex   -4.889711e+00 8.942874e+00 -4.000000e+00
      vertex   -4.800049e+00 8.963722e+00 -4.063095e+00
    endloop
  endfacet
  facet normal -4.337751e-01 8.330512e-01 -3.433145e-01
    outer loop
      vertex   -4.933239e+00 8.894368e+00 -4.063095e+00
      vertex   -4.800049e+00 8.963722e+00 -4.063095e+00
      vertex   -4.789171e+00 8.943409e+00 -4.126128e+00
    endloop
  endfacet
  facet normal -4.234590e-01 8.383694e-01 -3.432481e-01
    outer loop
      vertex   -4.789171e+00 8.943409e+00 -4.126128e+00
      vertex   -4.800049e+00 8.963722e+00 -4.063095e+00
      vertex   -4.689672e+00 9.000000e+00 -4.110656e+00
    endloop
  endfacet
  facet normal -4.211403e-01 8.363778e-01 -3.508746e-01
    outer loop
      vertex   -4.789171e+00 8.943409e+00 -4.126128e+00
      vertex   -4.689672e+00 9.000000e+00 -4.110656e+00
      vertex   -4.644224e+00 9.000000e+00 -4.165206e+00
    endloop
  endfacet
  facet normal -4.311073e-01 8.374368e-01 -3.359259e-01
    outer loop
      vertex   -4.889711e+00 8.942874e+00 -4.000000e+00
      vertex   -4.778742e+00 9.000000e+00 -4.000000e+00
      vertex   -4.800049e+00 8.963722e+00 -4.063095e+00
    endloop
  endfacet
  facet normal -4.256805e-01 8.390901e-01 -3.387091e-01
    outer loop
      vertex   -4.800049e+00 8.963722e+00 -4.063095e+00
      vertex   -4.778742e+00 9.000000e+00 -4.000000e+00
      vertex   -4.734513e+00 9.000000e+00 -4.055586e+00
    endloop
  endfacet
  facet normal -4.239546e-01 8.373162e-01 -3.452016e-01
    outer loop
      vertex   -4.800049e+00 8.963722e+00 -4.063095e+00
      vertex   -4.734513e+00 9.000000e+00 -4.055586e+00
      vertex   -4.689672e+00 9.000000e+00 -4.110656e+00
    endloop
  endfacet
  facet normal -4.115006e-01 8.412020e-01 -3.507798e-01
    outer loop
      vertex   -4.598173e+00 9.000000e+00 -4.219229e+00
      vertex   -4.644813e+00 8.989750e+00 -4.189096e+00
      vertex   -4.644224e+00 9.000000e+00 -4.165206e+00
    endloop
  endfacet
  facet normal -4.208322e-01 8.373581e-01 -3.489007e-01
    outer loop
      vertex   -4.644224e+00 9.000000e+00 -4.165206e+00
      vertex   -4.644813e+00 8.989750e+00 -4.189096e+00
      vertex   -4.778112e+00 8.922757e+00 -4.189096e+00
    endloop
  endfacet
  facet normal -4.209362e-01 8.374393e-01 -3.485803e-01
    outer loop
      vertex   -4.644224e+00 9.000000e+00 -4.165206e+00
      vertex   -4.778112e+00 8.922757e+00 -4.189096e+00
      vertex   -4.789171e+00 8.943409e+00 -4.126128e+00
    endloop
  endfacet
  facet normal -4.328643e-01 8.313020e-01 -3.486624e-01
    outer loop
      vertex   -4.789171e+00 8.943409e+00 -4.126128e+00
      vertex   -4.778112e+00 8.922757e+00 -4.189096e+00
      vertex   -4.922060e+00 8.874213e+00 -4.126128e+00
    endloop
  endfacet
  facet normal -4.337751e-01 8.330512e-01 -3.433145e-01
    outer loop
      vertex   -4.789171e+00 8.943409e+00 -4.126128e+00
      vertex   -4.922060e+00 8.874213e+00 -4.126128e+00
      vertex   -4.933239e+00 8.894368e+00 -4.063095e+00
    endloop
  endfacet
  facet normal -4.130531e-01 8.391380e-01 -3.538848e-01
    outer loop
      vertex   -4.644813e+00 8.989750e+00 -4.189096e+00
      vertex   -4.598173e+00 9.000000e+00 -4.219229e+00
      vertex   -4.633886e+00 8.968603e+00 -4.251994e+00
    endloop
  endfacet
  facet normal -4.098501e-01 8.392026e-01 -3.574379e-01
    outer loop
      vertex   -4.633886e+00 8.968603e+00 -4.251994e+00
      vertex   -4.598173e+00 9.000000e+00 -4.219229e+00
      vertex   -4.551522e+00 9.000000e+00 -4.272720e+00
    endloop
  endfacet
  facet normal -3.991627e-01 8.413896e-01 -3.643249e-01
    outer loop
      vertex   -4.456439e+00 9.000000e+00 -4.378086e+00
      vertex   -4.478496e+00 8.989760e+00 -4.377568e+00
      vertex   -4.504276e+00 9.000000e+00 -4.325674e+00
    endloop
  endfacet
  facet normal -4.057988e-01 8.371368e-01 -3.667824e-01
    outer loop
      vertex   -4.504276e+00 9.000000e+00 -4.325674e+00
      vertex   -4.478496e+00 8.989760e+00 -4.377568e+00
      vertex   -4.611505e+00 8.925285e+00 -4.377568e+00
    endloop
  endfacet
  facet normal -4.071259e-01 8.374765e-01 -3.645294e-01
    outer loop
      vertex   -4.504276e+00 9.000000e+00 -4.325674e+00
      vertex   -4.611505e+00 8.925285e+00 -4.377568e+00
      vertex   -4.622784e+00 8.947114e+00 -4.314819e+00
    endloop
  endfacet
  facet normal -4.181392e-01 8.319998e-01 -3.646037e-01
    outer loop
      vertex   -4.622784e+00 8.947114e+00 -4.314819e+00
      vertex   -4.611505e+00 8.925285e+00 -4.377568e+00
      vertex   -4.755451e+00 8.880439e+00 -4.314819e+00
    endloop
  endfacet
  facet normal -4.190699e-01 8.338517e-01 -3.592656e-01
    outer loop
      vertex   -4.622784e+00 8.947114e+00 -4.314819e+00
      vertex   -4.755451e+00 8.880439e+00 -4.314819e+00
      vertex   -4.766872e+00 8.901768e+00 -4.251994e+00
    endloop
  endfacet
  facet normal -4.309959e-01 8.277138e-01 -3.593499e-01
    outer loop
      vertex   -4.766872e+00 8.901768e+00 -4.251994e+00
      vertex   -4.755451e+00 8.880439e+00 -4.314819e+00
      vertex   -4.899142e+00 8.832894e+00 -4.251994e+00
    endloop
  endfacet
  facet normal -4.319379e-01 8.295229e-01 -3.540076e-01
    outer loop
      vertex   -4.766872e+00 8.901768e+00 -4.251994e+00
      vertex   -4.899142e+00 8.832894e+00 -4.251994e+00
      vertex   -4.910694e+00 8.853721e+00 -4.189096e+00
    endloop
  endfacet
  facet normal -3.980783e-01 8.386817e-01 -3.716809e-01
    outer loop
      vertex   -4.456439e+00 9.000000e+00 -4.378086e+00
      vertex   -4.408015e+00 9.000000e+00 -4.429949e+00
      vertex   -4.478496e+00 8.989760e+00 -4.377568e+00
    endloop
  endfacet
  facet normal -3.968857e-01 8.400756e-01 -3.698037e-01
    outer loop
      vertex   -4.478496e+00 8.989760e+00 -4.377568e+00
      vertex   -4.408015e+00 9.000000e+00 -4.429949e+00
      vertex   -4.467372e+00 8.967429e+00 -4.440235e+00
    endloop
  endfacet
  facet normal -4.052680e-01 8.360417e-01 -3.698543e-01
    outer loop
      vertex   -4.478496e+00 8.989760e+00 -4.377568e+00
      vertex   -4.467372e+00 8.967429e+00 -4.440235e+00
      vertex   -4.611505e+00 8.925285e+00 -4.377568e+00
    endloop
  endfacet
  facet normal -3.945508e-01 8.380441e-01 -3.768444e-01
    outer loop
      vertex   -4.408015e+00 9.000000e+00 -4.429949e+00
      vertex   -4.359009e+00 9.000000e+00 -4.481258e+00
      vertex   -4.467372e+00 8.967429e+00 -4.440235e+00
    endloop
  endfacet
  facet normal -3.827684e-01 8.400883e-01 -3.843697e-01
    outer loop
      vertex   -4.311995e+00 8.983697e+00 -4.565314e+00
      vertex   -4.259265e+00 9.000000e+00 -4.582192e+00
      vertex   -4.306370e+00 8.971978e+00 -4.596527e+00
    endloop
  endfacet
  facet normal -3.805933e-01 8.388761e-01 -3.891472e-01
    outer loop
      vertex   -4.306370e+00 8.971978e+00 -4.596527e+00
      vertex   -4.259265e+00 9.000000e+00 -4.582192e+00
      vertex   -4.208535e+00 9.000000e+00 -4.631806e+00
    endloop
  endfacet
  facet normal -3.801618e-01 8.400593e-01 -3.870109e-01
    outer loop
      vertex   -4.306370e+00 8.971978e+00 -4.596527e+00
      vertex   -4.208535e+00 9.000000e+00 -4.631806e+00
      vertex   -4.300704e+00 8.960173e+00 -4.627718e+00
    endloop
  endfacet
  facet normal -3.674192e-01 8.428495e-01 -3.932021e-01
    outer loop
      vertex   -4.105383e+00 9.000000e+00 -4.729301e+00
      vertex   -4.155627e+00 8.996420e+00 -4.690026e+00
      vertex   -4.157240e+00 9.000000e+00 -4.680844e+00
    endloop
  endfacet
  facet normal -3.772360e-01 8.384900e-01 -3.932269e-01
    outer loop
      vertex   -4.157240e+00 9.000000e+00 -4.680844e+00
      vertex   -4.155627e+00 8.996420e+00 -4.690026e+00
      vertex   -4.289247e+00 8.936304e+00 -4.690026e+00
    endloop
  endfacet
  facet normal -3.774590e-01 8.388198e-01 -3.923087e-01
    outer loop
      vertex   -4.157240e+00 9.000000e+00 -4.680844e+00
      vertex   -4.289247e+00 8.936304e+00 -4.690026e+00
      vertex   -4.294996e+00 8.948282e+00 -4.658884e+00
    endloop
  endfacet
  facet normal -3.893463e-01 8.333296e-01 -3.923916e-01
    outer loop
      vertex   -4.294996e+00 8.948282e+00 -4.658884e+00
      vertex   -4.289247e+00 8.936304e+00 -4.690026e+00
      vertex   -4.427088e+00 8.886567e+00 -4.658884e+00
    endloop
  endfacet
  facet normal -3.898241e-01 8.343524e-01 -3.897347e-01
    outer loop
      vertex   -4.294996e+00 8.948282e+00 -4.658884e+00
      vertex   -4.427088e+00 8.886567e+00 -4.658884e+00
      vertex   -4.432971e+00 8.898376e+00 -4.627718e+00
    endloop
  endfacet
  facet normal -4.016918e-01 8.286642e-01 -3.898196e-01
    outer loop
      vertex   -4.432971e+00 8.898376e+00 -4.627718e+00
      vertex   -4.427088e+00 8.886567e+00 -4.658884e+00
      vertex   -4.564627e+00 8.834556e+00 -4.627718e+00
    endloop
  endfacet
  facet normal -4.021807e-01 8.296728e-01 -3.871611e-01
    outer loop
      vertex   -4.432971e+00 8.898376e+00 -4.627718e+00
      vertex   -4.564627e+00 8.834556e+00 -4.627718e+00
      vertex   -4.570641e+00 8.846195e+00 -4.596527e+00
    endloop
  endfacet
  facet normal -4.140138e-01 8.237911e-01 -3.872477e-01
    outer loop
      vertex   -4.570641e+00 8.846195e+00 -4.596527e+00
      vertex   -4.564627e+00 8.834556e+00 -4.627718e+00
      vertex   -4.701812e+00 8.780273e+00 -4.596527e+00
    endloop
  endfacet
  facet normal -4.145135e-01 8.247854e-01 -3.845876e-01
    outer loop
      vertex   -4.570641e+00 8.846195e+00 -4.596527e+00
      vertex   -4.701812e+00 8.780273e+00 -4.596527e+00
      vertex   -4.707953e+00 8.791741e+00 -4.565314e+00
    endloop
  endfacet
  facet normal -4.263076e-01 8.187101e-01 -3.846760e-01
    outer loop
      vertex   -4.707953e+00 8.791741e+00 -4.565314e+00
      vertex   -4.701812e+00 8.780273e+00 -4.596527e+00
      vertex   -4.838589e+00 8.723718e+00 -4.565314e+00
    endloop
  endfacet
  facet normal -4.268178e-01 8.196899e-01 -3.820144e-01
    outer loop
      vertex   -4.707953e+00 8.791741e+00 -4.565314e+00
      vertex   -4.838589e+00 8.723718e+00 -4.565314e+00
      vertex   -4.844854e+00 8.735014e+00 -4.534078e+00
    endloop
  endfacet
  facet normal -4.385686e-01 8.134211e-01 -3.821043e-01
    outer loop
      vertex   -4.844854e+00 8.735014e+00 -4.534078e+00
      vertex   -4.838589e+00 8.723718e+00 -4.565314e+00
      vertex   -4.974902e+00 8.664896e+00 -4.534078e+00
    endloop
  endfacet
  facet normal -4.390890e-01 8.143864e-01 -3.794411e-01
    outer loop
      vertex   -4.844854e+00 8.735014e+00 -4.534078e+00
      vertex   -4.974902e+00 8.664896e+00 -4.534078e+00
      vertex   -4.981288e+00 8.676017e+00 -4.502819e+00
    endloop
  endfacet
  facet normal -4.456319e-01 8.107968e-01 -3.795006e-01
    outer loop
      vertex   -4.981288e+00 8.676017e+00 -4.502819e+00
      vertex   -4.974902e+00 8.664896e+00 -4.534078e+00
      vertex   -5.000000e+00 8.664151e+00 -4.506198e+00
    endloop
  endfacet
  facet normal -3.662661e-01 8.396517e-01 -4.010414e-01
    outer loop
      vertex   -4.052968e+00 9.000000e+00 -4.777171e+00
      vertex   -4.144595e+00 8.971942e+00 -4.752234e+00
      vertex   -4.105383e+00 9.000000e+00 -4.729301e+00
    endloop
  endfacet
  facet normal -3.687054e-01 8.402306e-01 -3.975788e-01
    outer loop
      vertex   -4.105383e+00 9.000000e+00 -4.729301e+00
      vertex   -4.144595e+00 8.971942e+00 -4.752234e+00
      vertex   -4.150131e+00 8.984224e+00 -4.721143e+00
    endloop
  endfacet
  facet normal -3.686681e-01 8.414985e-01 -3.949230e-01
    outer loop
      vertex   -4.105383e+00 9.000000e+00 -4.729301e+00
      vertex   -4.150131e+00 8.984224e+00 -4.721143e+00
      vertex   -4.155627e+00 8.996420e+00 -4.690026e+00
    endloop
  endfacet
  facet normal -3.769344e-01 8.378197e-01 -3.949412e-01
    outer loop
      vertex   -4.155627e+00 8.996420e+00 -4.690026e+00
      vertex   -4.150131e+00 8.984224e+00 -4.721143e+00
      vertex   -4.289247e+00 8.936304e+00 -4.690026e+00
    endloop
  endfacet
  facet normal -3.632533e-01 8.388130e-01 -4.055117e-01
    outer loop
      vertex   -4.133400e+00 8.947117e+00 -4.814340e+00
      vertex   -4.000000e+00 9.000000e+00 -4.824448e+00
      vertex   -4.127743e+00 8.934574e+00 -4.845353e+00
    endloop
  endfacet
  facet normal -3.624432e-01 8.379987e-01 -4.079131e-01
    outer loop
      vertex   -4.127743e+00 8.934574e+00 -4.845353e+00
      vertex   -4.000000e+00 9.000000e+00 -4.824448e+00
      vertex   -4.000000e+00 8.957180e+00 -4.912416e+00
    endloop
  endfacet
  facet normal -3.625432e-01 8.378360e-01 -4.081584e-01
    outer loop
      vertex   -4.127743e+00 8.934574e+00 -4.845353e+00
      vertex   -4.000000e+00 8.957180e+00 -4.912416e+00
      vertex   -4.122044e+00 8.921945e+00 -4.876338e+00
    endloop
  endfacet
  facet normal -3.736062e-01 8.303269e-01 -4.134920e-01
    outer loop
      vertex   -4.116306e+00 8.909229e+00 -4.907297e+00
      vertex   -4.110527e+00 8.896427e+00 -4.938226e+00
      vertex   -4.247844e+00 8.850043e+00 -4.907297e+00
    endloop
  endfacet
  facet normal -3.736073e-01 8.303157e-01 -4.135135e-01
    outer loop
      vertex   -4.247844e+00 8.850043e+00 -4.907297e+00
      vertex   -4.110527e+00 8.896427e+00 -4.938226e+00
      vertex   -4.241763e+00 8.837376e+00 -4.938226e+00
    endloop
  endfacet
  facet normal -3.853930e-01 8.248684e-01 -4.135993e-01
    outer loop
      vertex   -4.247844e+00 8.850043e+00 -4.907297e+00
      vertex   -4.241763e+00 8.837376e+00 -4.938226e+00
      vertex   -4.378485e+00 8.789005e+00 -4.907297e+00
    endloop
  endfacet
  facet normal -3.853930e-01 8.248684e-01 -4.135993e-01
    outer loop
      vertex   -4.378485e+00 8.789005e+00 -4.907297e+00
      vertex   -4.241763e+00 8.837376e+00 -4.938226e+00
      vertex   -4.372218e+00 8.776425e+00 -4.938226e+00
    endloop
  endfacet
  facet normal -3.971238e-01 8.192408e-01 -4.136874e-01
    outer loop
      vertex   -4.378485e+00 8.789005e+00 -4.907297e+00
      vertex   -4.372218e+00 8.776425e+00 -4.938226e+00
      vertex   -4.508523e+00 8.725970e+00 -4.907297e+00
    endloop
  endfacet
  facet normal -3.971238e-01 8.192408e-01 -4.136874e-01
    outer loop
      vertex   -4.508523e+00 8.725970e+00 -4.907297e+00
      vertex   -4.372218e+00 8.776425e+00 -4.938226e+00
      vertex   -4.502070e+00 8.713480e+00 -4.938226e+00
    endloop
  endfacet
  facet normal -4.088058e-01 8.134285e-01 -4.137776e-01
    outer loop
      vertex   -4.508523e+00 8.725970e+00 -4.907297e+00
      vertex   -4.502070e+00 8.713480e+00 -4.938226e+00
      vertex   -4.637912e+00 8.660943e+00 -4.907297e+00
    endloop
  endfacet
  facet normal -4.088058e-01 8.134285e-01 -4.137776e-01
    outer loop
      vertex   -4.637912e+00 8.660943e+00 -4.907297e+00
      vertex   -4.502070e+00 8.713480e+00 -4.938226e+00
      vertex   -4.631273e+00 8.648546e+00 -4.938226e+00
    endloop
  endfacet
  facet normal -4.204349e-01 8.074318e-01 -4.138701e-01
    outer loop
      vertex   -4.637912e+00 8.660943e+00 -4.907297e+00
      vertex   -4.631273e+00 8.648546e+00 -4.938226e+00
      vertex   -4.766603e+00 8.593933e+00 -4.907297e+00
    endloop
  endfacet
  facet normal -3.745748e-01 8.325067e-01 -4.081988e-01
    outer loop
      vertex   -4.122044e+00 8.921945e+00 -4.876338e+00
      vertex   -4.259880e+00 8.875121e+00 -4.845353e+00
      vertex   -4.127743e+00 8.934574e+00 -4.845353e+00
    endloop
  endfacet
  facet normal -3.750549e-01 8.335738e-01 -4.055720e-01
    outer loop
      vertex   -4.127743e+00 8.934574e+00 -4.845353e+00
      vertex   -4.259880e+00 8.875121e+00 -4.845353e+00
      vertex   -4.265836e+00 8.887530e+00 -4.814340e+00
    endloop
  endfacet
  facet normal -3.750537e-01 8.335849e-01 -4.055501e-01
    outer loop
      vertex   -4.127743e+00 8.934574e+00 -4.845353e+00
      vertex   -4.265836e+00 8.887530e+00 -4.814340e+00
      vertex   -4.133400e+00 8.947117e+00 -4.814340e+00
    endloop
  endfacet
  facet normal -3.755303e-01 8.346442e-01 -4.029219e-01
    outer loop
      vertex   -4.133400e+00 8.947117e+00 -4.814340e+00
      vertex   -4.265836e+00 8.887530e+00 -4.814340e+00
      vertex   -4.271751e+00 8.899853e+00 -4.783300e+00
    endloop
  endfacet
  facet normal -3.661749e-01 8.400823e-01 -4.002220e-01
    outer loop
      vertex   -4.144595e+00 8.971942e+00 -4.752234e+00
      vertex   -4.052968e+00 9.000000e+00 -4.777171e+00
      vertex   -4.139018e+00 8.959573e+00 -4.783300e+00
    endloop
  endfacet
  facet normal -3.760011e-01 8.357179e-01 -4.002483e-01
    outer loop
      vertex   -4.139018e+00 8.959573e+00 -4.783300e+00
      vertex   -4.277625e+00 8.912090e+00 -4.752234e+00
      vertex   -4.144595e+00 8.971942e+00 -4.752234e+00
    endloop
  endfacet
  facet normal -3.764707e-01 8.367616e-01 -3.976176e-01
    outer loop
      vertex   -4.144595e+00 8.971942e+00 -4.752234e+00
      vertex   -4.277625e+00 8.912090e+00 -4.752234e+00
      vertex   -4.283457e+00 8.924240e+00 -4.721143e+00
    endloop
  endfacet
  facet normal -3.764696e-01 8.367727e-01 -3.975954e-01
    outer loop
      vertex   -4.144595e+00 8.971942e+00 -4.752234e+00
      vertex   -4.283457e+00 8.924240e+00 -4.721143e+00
      vertex   -4.150131e+00 8.984224e+00 -4.721143e+00
    endloop
  endfacet
  facet normal -3.769356e-01 8.378087e-01 -3.949635e-01
    outer loop
      vertex   -4.150131e+00 8.984224e+00 -4.721143e+00
      vertex   -4.283457e+00 8.924240e+00 -4.721143e+00
      vertex   -4.289247e+00 8.936304e+00 -4.690026e+00
    endloop
  endfacet
  facet normal -3.740933e-01 8.314095e-01 -4.108678e-01
    outer loop
      vertex   -4.116306e+00 8.909229e+00 -4.907297e+00
      vertex   -4.247844e+00 8.850043e+00 -4.907297e+00
      vertex   -4.253883e+00 8.862625e+00 -4.876338e+00
    endloop
  endfacet
  facet normal -3.858998e-01 8.259532e-01 -4.109534e-01
    outer loop
      vertex   -4.253883e+00 8.862625e+00 -4.876338e+00
      vertex   -4.247844e+00 8.850043e+00 -4.907297e+00
      vertex   -4.384710e+00 8.801500e+00 -4.876338e+00
    endloop
  endfacet
  facet normal -3.864031e-01 8.270302e-01 -4.083059e-01
    outer loop
      vertex   -4.253883e+00 8.862625e+00 -4.876338e+00
      vertex   -4.384710e+00 8.801500e+00 -4.876338e+00
      vertex   -4.390892e+00 8.813910e+00 -4.845353e+00
    endloop
  endfacet
  facet normal -3.981651e-01 8.213888e-01 -4.083932e-01
    outer loop
      vertex   -4.390892e+00 8.813910e+00 -4.845353e+00
      vertex   -4.384710e+00 8.801500e+00 -4.876338e+00
      vertex   -4.521298e+00 8.750696e+00 -4.845353e+00
    endloop
  endfacet
  facet normal -3.986801e-01 8.224512e-01 -4.057440e-01
    outer loop
      vertex   -4.390892e+00 8.813910e+00 -4.845353e+00
      vertex   -4.521298e+00 8.750696e+00 -4.845353e+00
      vertex   -4.527620e+00 8.762931e+00 -4.814340e+00
    endloop
  endfacet
  facet normal -4.104086e-01 8.166176e-01 -4.058332e-01
    outer loop
      vertex   -4.527620e+00 8.762931e+00 -4.814340e+00
      vertex   -4.521298e+00 8.750696e+00 -4.845353e+00
      vertex   -4.657557e+00 8.697629e+00 -4.814340e+00
    endloop
  endfacet
  facet normal -4.109351e-01 8.176653e-01 -4.031821e-01
    outer loop
      vertex   -4.527620e+00 8.762931e+00 -4.814340e+00
      vertex   -4.657557e+00 8.697629e+00 -4.814340e+00
      vertex   -4.664014e+00 8.709688e+00 -4.783300e+00
    endloop
  endfacet
  facet normal -4.226257e-01 8.116392e-01 -4.032732e-01
    outer loop
      vertex   -4.664014e+00 8.709688e+00 -4.783300e+00
      vertex   -4.657557e+00 8.697629e+00 -4.814340e+00
      vertex   -4.793431e+00 8.642301e+00 -4.783300e+00
    endloop
  endfacet
  facet normal -4.231636e-01 8.126721e-01 -4.006203e-01
    outer loop
      vertex   -4.664014e+00 8.709688e+00 -4.783300e+00
      vertex   -4.793431e+00 8.642301e+00 -4.783300e+00
      vertex   -4.800021e+00 8.654183e+00 -4.752234e+00
    endloop
  endfacet
  facet normal -4.348120e-01 8.064537e-01 -4.007130e-01
    outer loop
      vertex   -4.800021e+00 8.654183e+00 -4.752234e+00
      vertex   -4.793431e+00 8.642301e+00 -4.783300e+00
      vertex   -4.928867e+00 8.584714e+00 -4.752234e+00
    endloop
  endfacet
  facet normal -4.353608e-01 8.074716e-01 -3.980585e-01
    outer loop
      vertex   -4.800021e+00 8.654183e+00 -4.752234e+00
      vertex   -4.928867e+00 8.584714e+00 -4.752234e+00
      vertex   -4.935587e+00 8.596418e+00 -4.721143e+00
    endloop
  endfacet
  facet normal -4.444516e-01 8.024641e-01 -3.981383e-01
    outer loop
      vertex   -4.935587e+00 8.596418e+00 -4.721143e+00
      vertex   -4.928867e+00 8.584714e+00 -4.752234e+00
      vertex   -5.000000e+00 8.544081e+00 -4.754724e+00
    endloop
  endfacet
  facet normal -3.858998e-01 8.259532e-01 -4.109534e-01
    outer loop
      vertex   -4.384710e+00 8.801500e+00 -4.876338e+00
      vertex   -4.247844e+00 8.850043e+00 -4.907297e+00
      vertex   -4.378485e+00 8.789005e+00 -4.907297e+00
    endloop
  endfacet
  facet normal -3.869026e-01 8.280995e-01 -4.056569e-01
    outer loop
      vertex   -4.259880e+00 8.875121e+00 -4.845353e+00
      vertex   -4.397031e+00 8.826233e+00 -4.814340e+00
      vertex   -4.265836e+00 8.887530e+00 -4.814340e+00
    endloop
  endfacet
  facet normal -3.873986e-01 8.291610e-01 -4.030066e-01
    outer loop
      vertex   -4.265836e+00 8.887530e+00 -4.814340e+00
      vertex   -4.397031e+00 8.826233e+00 -4.814340e+00
      vertex   -4.403128e+00 8.838472e+00 -4.783300e+00
    endloop
  endfacet
  facet normal -3.873986e-01 8.291610e-01 -4.030066e-01
    outer loop
      vertex   -4.265836e+00 8.887530e+00 -4.814340e+00
      vertex   -4.403128e+00 8.838472e+00 -4.783300e+00
      vertex   -4.271751e+00 8.899853e+00 -4.783300e+00
    endloop
  endfacet
  facet normal -3.878909e-01 8.302148e-01 -4.003548e-01
    outer loop
      vertex   -4.271751e+00 8.899853e+00 -4.783300e+00
      vertex   -4.403128e+00 8.838472e+00 -4.783300e+00
      vertex   -4.409182e+00 8.850624e+00 -4.752234e+00
    endloop
  endfacet
  facet normal -3.883797e-01 8.312608e-01 -3.977017e-01
    outer loop
      vertex   -4.277625e+00 8.912090e+00 -4.752234e+00
      vertex   -4.415193e+00 8.862691e+00 -4.721143e+00
      vertex   -4.283457e+00 8.924240e+00 -4.721143e+00
    endloop
  endfacet
  facet normal -3.888648e-01 8.322991e-01 -3.950473e-01
    outer loop
      vertex   -4.283457e+00 8.924240e+00 -4.721143e+00
      vertex   -4.415193e+00 8.862691e+00 -4.721143e+00
      vertex   -4.421162e+00 8.874671e+00 -4.690026e+00
    endloop
  endfacet
  facet normal -3.888648e-01 8.322991e-01 -3.950473e-01
    outer loop
      vertex   -4.283457e+00 8.924240e+00 -4.721143e+00
      vertex   -4.421162e+00 8.874671e+00 -4.690026e+00
      vertex   -4.289247e+00 8.936304e+00 -4.690026e+00
    endloop
  endfacet
  facet normal -3.893463e-01 8.333296e-01 -3.923916e-01
    outer loop
      vertex   -4.289247e+00 8.936304e+00 -4.690026e+00
      vertex   -4.421162e+00 8.874671e+00 -4.690026e+00
      vertex   -4.427088e+00 8.886567e+00 -4.658884e+00
    endloop
  endfacet
  facet normal -3.902984e-01 8.353675e-01 -3.870766e-01
    outer loop
      vertex   -4.300704e+00 8.960173e+00 -4.627718e+00
      vertex   -4.438811e+00 8.910099e+00 -4.596527e+00
      vertex   -4.306370e+00 8.971978e+00 -4.596527e+00
    endloop
  endfacet
  facet normal -3.907690e-01 8.363749e-01 -3.844173e-01
    outer loop
      vertex   -4.306370e+00 8.971978e+00 -4.596527e+00
      vertex   -4.438811e+00 8.910099e+00 -4.596527e+00
      vertex   -4.444609e+00 8.921737e+00 -4.565314e+00
    endloop
  endfacet
  facet normal -3.907690e-01 8.363749e-01 -3.844173e-01
    outer loop
      vertex   -4.306370e+00 8.971978e+00 -4.596527e+00
      vertex   -4.444609e+00 8.921737e+00 -4.565314e+00
      vertex   -4.311995e+00 8.983697e+00 -4.565314e+00
    endloop
  endfacet
  facet normal -3.912361e-01 8.373745e-01 -3.817568e-01
    outer loop
      vertex   -4.311995e+00 8.983697e+00 -4.565314e+00
      vertex   -4.444609e+00 8.921737e+00 -4.565314e+00
      vertex   -4.450364e+00 8.933289e+00 -4.534078e+00
    endloop
  endfacet
  facet normal -3.976463e-01 8.203186e-01 -4.110411e-01
    outer loop
      vertex   -4.384710e+00 8.801500e+00 -4.876338e+00
      vertex   -4.378485e+00 8.789005e+00 -4.907297e+00
      vertex   -4.514933e+00 8.738375e+00 -4.876338e+00
    endloop
  endfacet
  facet normal -3.976463e-01 8.203186e-01 -4.110411e-01
    outer loop
      vertex   -4.514933e+00 8.738375e+00 -4.876338e+00
      vertex   -4.378485e+00 8.789005e+00 -4.907297e+00
      vertex   -4.508523e+00 8.725970e+00 -4.907297e+00
    endloop
  endfacet
  facet normal -4.093439e-01 8.144992e-01 -4.111310e-01
    outer loop
      vertex   -4.514933e+00 8.738375e+00 -4.876338e+00
      vertex   -4.508523e+00 8.725970e+00 -4.907297e+00
      vertex   -4.644505e+00 8.673256e+00 -4.876338e+00
    endloop
  endfacet
  facet normal -4.093439e-01 8.144992e-01 -4.111310e-01
    outer loop
      vertex   -4.644505e+00 8.673256e+00 -4.876338e+00
      vertex   -4.508523e+00 8.725970e+00 -4.907297e+00
      vertex   -4.637912e+00 8.660943e+00 -4.907297e+00
    endloop
  endfacet
  facet normal -4.209885e-01 8.084950e-01 -4.112231e-01
    outer loop
      vertex   -4.644505e+00 8.673256e+00 -4.876338e+00
      vertex   -4.637912e+00 8.660943e+00 -4.907297e+00
      vertex   -4.773380e+00 8.606150e+00 -4.876338e+00
    endloop
  endfacet
  facet normal -4.209885e-01 8.084950e-01 -4.112231e-01
    outer loop
      vertex   -4.773380e+00 8.606150e+00 -4.876338e+00
      vertex   -4.637912e+00 8.660943e+00 -4.907297e+00
      vertex   -4.766603e+00 8.593933e+00 -4.907297e+00
    endloop
  endfacet
  facet normal -4.325761e-01 8.023067e-01 -4.113173e-01
    outer loop
      vertex   -4.773380e+00 8.606150e+00 -4.876338e+00
      vertex   -4.766603e+00 8.593933e+00 -4.907297e+00
      vertex   -4.901510e+00 8.537067e+00 -4.876338e+00
    endloop
  endfacet
  facet normal -3.991914e-01 8.235060e-01 -4.030933e-01
    outer loop
      vertex   -4.397031e+00 8.826233e+00 -4.814340e+00
      vertex   -4.533898e+00 8.775081e+00 -4.783300e+00
      vertex   -4.403128e+00 8.838472e+00 -4.783300e+00
    endloop
  endfacet
  facet normal -3.996989e-01 8.245530e-01 -4.004412e-01
    outer loop
      vertex   -4.403128e+00 8.838472e+00 -4.783300e+00
      vertex   -4.533898e+00 8.775081e+00 -4.783300e+00
      vertex   -4.540132e+00 8.787146e+00 -4.752234e+00
    endloop
  endfacet
  facet normal -3.996989e-01 8.245530e-01 -4.004412e-01
    outer loop
      vertex   -4.403128e+00 8.838472e+00 -4.783300e+00
      vertex   -4.540132e+00 8.787146e+00 -4.752234e+00
      vertex   -4.409182e+00 8.850624e+00 -4.752234e+00
    endloop
  endfacet
  facet normal -4.002027e-01 8.255923e-01 -3.977877e-01
    outer loop
      vertex   -4.409182e+00 8.850624e+00 -4.752234e+00
      vertex   -4.540132e+00 8.787146e+00 -4.752234e+00
      vertex   -4.546322e+00 8.799127e+00 -4.721143e+00
    endloop
  endfacet
  facet normal -4.007028e-01 8.266240e-01 -3.951329e-01
    outer loop
      vertex   -4.415193e+00 8.862691e+00 -4.721143e+00
      vertex   -4.552468e+00 8.811022e+00 -4.690026e+00
      vertex   -4.421162e+00 8.874671e+00 -4.690026e+00
    endloop
  endfacet
  facet normal -4.011992e-01 8.276479e-01 -3.924769e-01
    outer loop
      vertex   -4.421162e+00 8.874671e+00 -4.690026e+00
      vertex   -4.552468e+00 8.811022e+00 -4.690026e+00
      vertex   -4.558569e+00 8.822831e+00 -4.658884e+00
    endloop
  endfacet
  facet normal -4.011992e-01 8.276479e-01 -3.924769e-01
    outer loop
      vertex   -4.421162e+00 8.874671e+00 -4.690026e+00
      vertex   -4.558569e+00 8.822831e+00 -4.658884e+00
      vertex   -4.427088e+00 8.886567e+00 -4.658884e+00
    endloop
  endfacet
  facet normal -4.016918e-01 8.286642e-01 -3.898196e-01
    outer loop
      vertex   -4.427088e+00 8.886567e+00 -4.658884e+00
      vertex   -4.558569e+00 8.822831e+00 -4.658884e+00
      vertex   -4.564627e+00 8.834556e+00 -4.627718e+00
    endloop
  endfacet
  facet normal -4.026659e-01 8.306737e-01 -3.845014e-01
    outer loop
      vertex   -4.438811e+00 8.910099e+00 -4.596527e+00
      vertex   -4.576611e+00 8.857750e+00 -4.565314e+00
      vertex   -4.444609e+00 8.921737e+00 -4.565314e+00
    endloop
  endfacet
  facet normal -4.031474e-01 8.316670e-01 -3.818406e-01
    outer loop
      vertex   -4.444609e+00 8.921737e+00 -4.565314e+00
      vertex   -4.576611e+00 8.857750e+00 -4.565314e+00
      vertex   -4.582537e+00 8.869219e+00 -4.534078e+00
    endloop
  endfacet
  facet normal -4.031474e-01 8.316670e-01 -3.818406e-01
    outer loop
      vertex   -4.444609e+00 8.921737e+00 -4.565314e+00
      vertex   -4.582537e+00 8.869219e+00 -4.534078e+00
      vertex   -4.450364e+00 8.933289e+00 -4.534078e+00
    endloop
  endfacet
  facet normal -4.036252e-01 8.326526e-01 -3.791786e-01
    outer loop
      vertex   -4.450364e+00 8.933289e+00 -4.534078e+00
      vertex   -4.582537e+00 8.869219e+00 -4.534078e+00
      vertex   -4.588419e+00 8.880602e+00 -4.502819e+00
    endloop
  endfacet
  facet normal -4.045695e-01 8.346008e-01 -3.738516e-01
    outer loop
      vertex   -4.600050e+00 8.903114e+00 -4.440235e+00
      vertex   -4.461745e+00 8.956135e+00 -4.471538e+00
      vertex   -4.594256e+00 8.891901e+00 -4.471538e+00
    endloop
  endfacet
  facet normal -4.040992e-01 8.336305e-01 -3.765156e-01
    outer loop
      vertex   -4.594256e+00 8.891901e+00 -4.471538e+00
      vertex   -4.461745e+00 8.956135e+00 -4.471538e+00
      vertex   -4.456076e+00 8.944755e+00 -4.502819e+00
    endloop
  endfacet
  facet normal -3.981651e-01 8.213888e-01 -4.083932e-01
    outer loop
      vertex   -4.384710e+00 8.801500e+00 -4.876338e+00
      vertex   -4.514933e+00 8.738375e+00 -4.876338e+00
      vertex   -4.521298e+00 8.750696e+00 -4.845353e+00
    endloop
  endfacet
  facet normal -4.098782e-01 8.155622e-01 -4.084828e-01
    outer loop
      vertex   -4.521298e+00 8.750696e+00 -4.845353e+00
      vertex   -4.514933e+00 8.738375e+00 -4.876338e+00
      vertex   -4.651053e+00 8.685484e+00 -4.845353e+00
    endloop
  endfacet
  facet normal -4.104086e-01 8.166176e-01 -4.058332e-01
    outer loop
      vertex   -4.521298e+00 8.750696e+00 -4.845353e+00
      vertex   -4.651053e+00 8.685484e+00 -4.845353e+00
      vertex   -4.657557e+00 8.697629e+00 -4.814340e+00
    endloop
  endfacet
  facet normal -4.220840e-01 8.105988e-01 -4.059246e-01
    outer loop
      vertex   -4.657557e+00 8.697629e+00 -4.814340e+00
      vertex   -4.651053e+00 8.685484e+00 -4.845353e+00
      vertex   -4.786793e+00 8.630334e+00 -4.814340e+00
    endloop
  endfacet
  facet normal -4.226257e-01 8.116392e-01 -4.032732e-01
    outer loop
      vertex   -4.657557e+00 8.697629e+00 -4.814340e+00
      vertex   -4.786793e+00 8.630334e+00 -4.814340e+00
      vertex   -4.793431e+00 8.642301e+00 -4.783300e+00
    endloop
  endfacet
  facet normal -4.342591e-01 8.054283e-01 -4.033662e-01
    outer loop
      vertex   -4.793431e+00 8.642301e+00 -4.783300e+00
      vertex   -4.786793e+00 8.630334e+00 -4.814340e+00
      vertex   -4.922099e+00 8.572927e+00 -4.783300e+00
    endloop
  endfacet
  facet normal -4.348120e-01 8.064537e-01 -4.007130e-01
    outer loop
      vertex   -4.793431e+00 8.642301e+00 -4.783300e+00
      vertex   -4.922099e+00 8.572927e+00 -4.783300e+00
      vertex   -4.928867e+00 8.584714e+00 -4.752234e+00
    endloop
  endfacet
  facet normal -4.438073e-01 8.014988e-01 -4.007926e-01
    outer loop
      vertex   -4.928867e+00 8.584714e+00 -4.752234e+00
      vertex   -4.922099e+00 8.572927e+00 -4.783300e+00
      vertex   -5.000000e+00 8.544081e+00 -4.754724e+00
    endloop
  endfacet
  facet normal -4.098782e-01 8.155622e-01 -4.084828e-01
    outer loop
      vertex   -4.651053e+00 8.685484e+00 -4.845353e+00
      vertex   -4.514933e+00 8.738375e+00 -4.876338e+00
      vertex   -4.644505e+00 8.673256e+00 -4.876338e+00
    endloop
  endfacet
  facet normal -4.114578e-01 8.187053e-01 -4.005297e-01
    outer loop
      vertex   -4.533898e+00 8.775081e+00 -4.783300e+00
      vertex   -4.670427e+00 8.721664e+00 -4.752234e+00
      vertex   -4.540132e+00 8.787146e+00 -4.752234e+00
    endloop
  endfacet
  facet normal -4.119767e-01 8.197378e-01 -3.978759e-01
    outer loop
      vertex   -4.540132e+00 8.787146e+00 -4.752234e+00
      vertex   -4.670427e+00 8.721664e+00 -4.752234e+00
      vertex   -4.676795e+00 8.733555e+00 -4.721143e+00
    endloop
  endfacet
  facet normal -4.119767e-01 8.197378e-01 -3.978759e-01
    outer loop
      vertex   -4.540132e+00 8.787146e+00 -4.752234e+00
      vertex   -4.676795e+00 8.733555e+00 -4.721143e+00
      vertex   -4.546322e+00 8.799127e+00 -4.721143e+00
    endloop
  endfacet
  facet normal -4.124917e-01 8.207626e-01 -3.952207e-01
    outer loop
      vertex   -4.546322e+00 8.799127e+00 -4.721143e+00
      vertex   -4.676795e+00 8.733555e+00 -4.721143e+00
      vertex   -4.683117e+00 8.745361e+00 -4.690026e+00
    endloop
  endfacet
  facet normal -4.130029e-01 8.217797e-01 -3.925643e-01
    outer loop
      vertex   -4.552468e+00 8.811022e+00 -4.690026e+00
      vertex   -4.689394e+00 8.757083e+00 -4.658884e+00
      vertex   -4.558569e+00 8.822831e+00 -4.658884e+00
    endloop
  endfacet
  facet normal -4.135103e-01 8.227892e-01 -3.899066e-01
    outer loop
      vertex   -4.558569e+00 8.822831e+00 -4.658884e+00
      vertex   -4.689394e+00 8.757083e+00 -4.658884e+00
      vertex   -4.695626e+00 8.768720e+00 -4.627718e+00
    endloop
  endfacet
  facet normal -4.135103e-01 8.227892e-01 -3.899066e-01
    outer loop
      vertex   -4.558569e+00 8.822831e+00 -4.658884e+00
      vertex   -4.695626e+00 8.768720e+00 -4.627718e+00
      vertex   -4.564627e+00 8.834556e+00 -4.627718e+00
    endloop
  endfacet
  facet normal -4.140138e-01 8.237911e-01 -3.872477e-01
    outer loop
      vertex   -4.564627e+00 8.834556e+00 -4.627718e+00
      vertex   -4.695626e+00 8.768720e+00 -4.627718e+00
      vertex   -4.701812e+00 8.780273e+00 -4.596527e+00
    endloop
  endfacet
  facet normal -4.150093e-01 8.257720e-01 -3.819264e-01
    outer loop
      vertex   -4.576611e+00 8.857750e+00 -4.565314e+00
      vertex   -4.714049e+00 8.803124e+00 -4.534078e+00
      vertex   -4.582537e+00 8.869219e+00 -4.534078e+00
    endloop
  endfacet
  facet normal -4.155014e-01 8.267511e-01 -3.792641e-01
    outer loop
      vertex   -4.582537e+00 8.869219e+00 -4.534078e+00
      vertex   -4.714049e+00 8.803124e+00 -4.534078e+00
      vertex   -4.720100e+00 8.814423e+00 -4.502819e+00
    endloop
  endfacet
  facet normal -4.155014e-01 8.267511e-01 -3.792641e-01
    outer loop
      vertex   -4.582537e+00 8.869219e+00 -4.534078e+00
      vertex   -4.720100e+00 8.814423e+00 -4.502819e+00
      vertex   -4.588419e+00 8.880602e+00 -4.502819e+00
    endloop
  endfacet
  facet normal -4.159896e-01 8.277225e-01 -3.766007e-01
    outer loop
      vertex   -4.588419e+00 8.880602e+00 -4.502819e+00
      vertex   -4.720100e+00 8.814423e+00 -4.502819e+00
      vertex   -4.726105e+00 8.825637e+00 -4.471538e+00
    endloop
  endfacet
  facet normal -4.171933e-01 8.301177e-01 -3.699383e-01
    outer loop
      vertex   -4.743849e+00 8.858772e+00 -4.377568e+00
      vertex   -4.600050e+00 8.903114e+00 -4.440235e+00
      vertex   -4.732065e+00 8.836767e+00 -4.440235e+00
    endloop
  endfacet
  facet normal -4.164740e-01 8.286864e-01 -3.739363e-01
    outer loop
      vertex   -4.732065e+00 8.836767e+00 -4.440235e+00
      vertex   -4.600050e+00 8.903114e+00 -4.440235e+00
      vertex   -4.594256e+00 8.891901e+00 -4.471538e+00
    endloop
  endfacet
  facet normal -4.199854e-01 8.356733e-01 -3.539242e-01
    outer loop
      vertex   -4.778112e+00 8.922757e+00 -4.189096e+00
      vertex   -4.644813e+00 8.989750e+00 -4.189096e+00
      vertex   -4.633886e+00 8.968603e+00 -4.251994e+00
    endloop
  endfacet
  facet normal -4.215382e-01 8.095507e-01 -4.085746e-01
    outer loop
      vertex   -4.651053e+00 8.685484e+00 -4.845353e+00
      vertex   -4.644505e+00 8.673256e+00 -4.876338e+00
      vertex   -4.780110e+00 8.618284e+00 -4.845353e+00
    endloop
  endfacet
  facet normal -4.215382e-01 8.095507e-01 -4.085746e-01
    outer loop
      vertex   -4.780110e+00 8.618284e+00 -4.845353e+00
      vertex   -4.644505e+00 8.673256e+00 -4.876338e+00
      vertex   -4.773380e+00 8.606150e+00 -4.876338e+00
    endloop
  endfacet
  facet normal -4.331411e-01 8.033548e-01 -4.086684e-01
    outer loop
      vertex   -4.780110e+00 8.618284e+00 -4.845353e+00
      vertex   -4.773380e+00 8.606150e+00 -4.876338e+00
      vertex   -4.908421e+00 8.549103e+00 -4.845353e+00
    endloop
  endfacet
  facet normal -4.331411e-01 8.033548e-01 -4.086684e-01
    outer loop
      vertex   -4.908421e+00 8.549103e+00 -4.845353e+00
      vertex   -4.773380e+00 8.606150e+00 -4.876338e+00
      vertex   -4.901510e+00 8.537067e+00 -4.876338e+00
    endloop
  endfacet
  facet normal -4.236974e-01 8.136974e-01 -3.979661e-01
    outer loop
      vertex   -4.670427e+00 8.721664e+00 -4.752234e+00
      vertex   -4.806565e+00 8.665982e+00 -4.721143e+00
      vertex   -4.676795e+00 8.733555e+00 -4.721143e+00
    endloop
  endfacet
  facet normal -4.242273e-01 8.147151e-01 -3.953106e-01
    outer loop
      vertex   -4.676795e+00 8.733555e+00 -4.721143e+00
      vertex   -4.806565e+00 8.665982e+00 -4.721143e+00
      vertex   -4.813063e+00 8.677697e+00 -4.690026e+00
    endloop
  endfacet
  facet normal -4.242273e-01 8.147151e-01 -3.953106e-01
    outer loop
      vertex   -4.676795e+00 8.733555e+00 -4.721143e+00
      vertex   -4.813063e+00 8.677697e+00 -4.690026e+00
      vertex   -4.683117e+00 8.745361e+00 -4.690026e+00
    endloop
  endfacet
  facet normal -4.247533e-01 8.157252e-01 -3.926538e-01
    outer loop
      vertex   -4.683117e+00 8.745361e+00 -4.690026e+00
      vertex   -4.813063e+00 8.677697e+00 -4.690026e+00
      vertex   -4.819514e+00 8.689328e+00 -4.658884e+00
    endloop
  endfacet
  facet normal -4.252753e-01 8.167277e-01 -3.899957e-01
    outer loop
      vertex   -4.689394e+00 8.757083e+00 -4.658884e+00
      vertex   -4.825919e+00 8.700875e+00 -4.627718e+00
      vertex   -4.695626e+00 8.768720e+00 -4.627718e+00
    endloop
  endfacet
  facet normal -4.257934e-01 8.177227e-01 -3.873364e-01
    outer loop
      vertex   -4.695626e+00 8.768720e+00 -4.627718e+00
      vertex   -4.825919e+00 8.700875e+00 -4.627718e+00
      vertex   -4.832277e+00 8.712339e+00 -4.596527e+00
    endloop
  endfacet
  facet normal -4.257934e-01 8.177227e-01 -3.873364e-01
    outer loop
      vertex   -4.695626e+00 8.768720e+00 -4.627718e+00
      vertex   -4.832277e+00 8.712339e+00 -4.596527e+00
      vertex   -4.701812e+00 8.780273e+00 -4.596527e+00
    endloop
  endfacet
  facet normal -4.263076e-01 8.187101e-01 -3.846760e-01
    outer loop
      vertex   -4.701812e+00 8.780273e+00 -4.596527e+00
      vertex   -4.832277e+00 8.712339e+00 -4.596527e+00
      vertex   -4.838589e+00 8.723718e+00 -4.565314e+00
    endloop
  endfacet
  facet normal -4.273241e-01 8.206622e-01 -3.793516e-01
    outer loop
      vertex   -4.714049e+00 8.803124e+00 -4.534078e+00
      vertex   -4.851072e+00 8.746225e+00 -4.502819e+00
      vertex   -4.720100e+00 8.814423e+00 -4.502819e+00
    endloop
  endfacet
  facet normal -4.278264e-01 8.216270e-01 -3.766878e-01
    outer loop
      vertex   -4.720100e+00 8.814423e+00 -4.502819e+00
      vertex   -4.851072e+00 8.746225e+00 -4.502819e+00
      vertex   -4.857244e+00 8.757353e+00 -4.471538e+00
    endloop
  endfacet
  facet normal -4.278264e-01 8.216270e-01 -3.766878e-01
    outer loop
      vertex   -4.720100e+00 8.814423e+00 -4.502819e+00
      vertex   -4.857244e+00 8.757353e+00 -4.471538e+00
      vertex   -4.726105e+00 8.825637e+00 -4.471538e+00
    endloop
  endfacet
  facet normal -4.283248e-01 8.225841e-01 -3.740230e-01
    outer loop
      vertex   -4.726105e+00 8.825637e+00 -4.471538e+00
      vertex   -4.857244e+00 8.757353e+00 -4.471538e+00
      vertex   -4.863369e+00 8.768396e+00 -4.440235e+00
    endloop
  endfacet
  facet normal -4.300383e-01 8.258747e-01 -3.646889e-01
    outer loop
      vertex   -4.887404e+00 8.811730e+00 -4.314819e+00
      vertex   -4.743849e+00 8.858772e+00 -4.377568e+00
      vertex   -4.875480e+00 8.790231e+00 -4.377568e+00
    endloop
  endfacet
  facet normal -4.290650e-01 8.240056e-01 -3.700244e-01
    outer loop
      vertex   -4.875480e+00 8.790231e+00 -4.377568e+00
      vertex   -4.743849e+00 8.858772e+00 -4.377568e+00
      vertex   -4.732065e+00 8.836767e+00 -4.440235e+00
    endloop
  endfacet
  facet normal -4.320069e-01 8.012511e-01 -4.139646e-01
    outer loop
      vertex   -4.894552e+00 8.524947e+00 -4.907297e+00
      vertex   -4.759780e+00 8.581631e+00 -4.938226e+00
      vertex   -4.887546e+00 8.512745e+00 -4.938226e+00
    endloop
  endfacet
  facet normal -4.220840e-01 8.105988e-01 -4.059246e-01
    outer loop
      vertex   -4.651053e+00 8.685484e+00 -4.845353e+00
      vertex   -4.780110e+00 8.618284e+00 -4.845353e+00
      vertex   -4.786793e+00 8.630334e+00 -4.814340e+00
    endloop
  endfacet
  facet normal -4.337022e-01 8.043953e-01 -4.060180e-01
    outer loop
      vertex   -4.786793e+00 8.630334e+00 -4.814340e+00
      vertex   -4.780110e+00 8.618284e+00 -4.845353e+00
      vertex   -4.915284e+00 8.561057e+00 -4.814340e+00
    endloop
  endfacet
  facet normal -4.342591e-01 8.054283e-01 -4.033662e-01
    outer loop
      vertex   -4.786793e+00 8.630334e+00 -4.814340e+00
      vertex   -4.915284e+00 8.561057e+00 -4.814340e+00
      vertex   -4.922099e+00 8.572927e+00 -4.783300e+00
    endloop
  endfacet
  facet normal -4.442064e-01 7.999419e-01 -4.034522e-01
    outer loop
      vertex   -4.922099e+00 8.572927e+00 -4.783300e+00
      vertex   -4.915284e+00 8.561057e+00 -4.814340e+00
      vertex   -5.000000e+00 8.544081e+00 -4.754724e+00
    endloop
  endfacet
  facet normal -4.337022e-01 8.043953e-01 -4.060180e-01
    outer loop
      vertex   -4.915284e+00 8.561057e+00 -4.814340e+00
      vertex   -4.780110e+00 8.618284e+00 -4.845353e+00
      vertex   -4.908421e+00 8.549103e+00 -4.845353e+00
    endloop
  endfacet
  facet normal -4.359056e-01 8.084820e-01 -3.954026e-01
    outer loop
      vertex   -4.806565e+00 8.665982e+00 -4.721143e+00
      vertex   -4.942259e+00 8.608039e+00 -4.690026e+00
      vertex   -4.813063e+00 8.677697e+00 -4.690026e+00
    endloop
  endfacet
  facet normal -4.364463e-01 8.094849e-01 -3.927454e-01
    outer loop
      vertex   -4.813063e+00 8.677697e+00 -4.690026e+00
      vertex   -4.942259e+00 8.608039e+00 -4.690026e+00
      vertex   -4.948883e+00 8.619577e+00 -4.658884e+00
    endloop
  endfacet
  facet normal -4.364463e-01 8.094849e-01 -3.927454e-01
    outer loop
      vertex   -4.813063e+00 8.677697e+00 -4.690026e+00
      vertex   -4.948883e+00 8.619577e+00 -4.658884e+00
      vertex   -4.819514e+00 8.689328e+00 -4.658884e+00
    endloop
  endfacet
  facet normal -4.369829e-01 8.104802e-01 -3.900869e-01
    outer loop
      vertex   -4.819514e+00 8.689328e+00 -4.658884e+00
      vertex   -4.948883e+00 8.619577e+00 -4.658884e+00
      vertex   -4.955460e+00 8.631032e+00 -4.627718e+00
    endloop
  endfacet
  facet normal -4.375155e-01 8.114680e-01 -3.874272e-01
    outer loop
      vertex   -4.825919e+00 8.700875e+00 -4.627718e+00
      vertex   -4.961988e+00 8.642403e+00 -4.596527e+00
      vertex   -4.832277e+00 8.712339e+00 -4.596527e+00
    endloop
  endfacet
  facet normal -4.380441e-01 8.124483e-01 -3.847663e-01
    outer loop
      vertex   -4.832277e+00 8.712339e+00 -4.596527e+00
      vertex   -4.961988e+00 8.642403e+00 -4.596527e+00
      vertex   -4.968469e+00 8.653691e+00 -4.565314e+00
    endloop
  endfacet
  facet normal -4.380441e-01 8.124483e-01 -3.847663e-01
    outer loop
      vertex   -4.832277e+00 8.712339e+00 -4.596527e+00
      vertex   -4.968469e+00 8.653691e+00 -4.565314e+00
      vertex   -4.838589e+00 8.723718e+00 -4.565314e+00
    endloop
  endfacet
  facet normal -4.385686e-01 8.134211e-01 -3.821043e-01
    outer loop
      vertex   -4.838589e+00 8.723718e+00 -4.565314e+00
      vertex   -4.968469e+00 8.653691e+00 -4.565314e+00
      vertex   -4.974902e+00 8.664896e+00 -4.534078e+00
    endloop
  endfacet
  facet normal -4.396054e-01 8.153442e-01 -3.767769e-01
    outer loop
      vertex   -4.851072e+00 8.746225e+00 -4.502819e+00
      vertex   -4.987625e+00 8.687055e+00 -4.471538e+00
      vertex   -4.857244e+00 8.757353e+00 -4.471538e+00
    endloop
  endfacet
  facet normal -4.401178e-01 8.162945e-01 -3.741117e-01
    outer loop
      vertex   -4.857244e+00 8.757353e+00 -4.471538e+00
      vertex   -4.987625e+00 8.687055e+00 -4.471538e+00
      vertex   -4.993915e+00 8.698010e+00 -4.440235e+00
    endloop
  endfacet
  facet normal -4.401178e-01 8.162945e-01 -3.741117e-01
    outer loop
      vertex   -4.857244e+00 8.757353e+00 -4.471538e+00
      vertex   -4.993915e+00 8.698010e+00 -4.440235e+00
      vertex   -4.863369e+00 8.768396e+00 -4.440235e+00
    endloop
  endfacet
  facet normal -4.407381e-01 8.174450e-01 -3.708553e-01
    outer loop
      vertex   -4.863369e+00 8.768396e+00 -4.440235e+00
      vertex   -4.993915e+00 8.698010e+00 -4.440235e+00
      vertex   -5.000000e+00 8.721711e+00 -4.380763e+00
    endloop
  endfacet
  facet normal -4.429365e-01 7.952127e-01 -4.140580e-01
    outer loop
      vertex   -5.000000e+00 8.481582e+00 -4.877778e+00
      vertex   -4.894552e+00 8.524947e+00 -4.907297e+00
      vertex   -4.887546e+00 8.512745e+00 -4.938226e+00
    endloop
  endfacet
  facet normal -4.456492e-01 7.977888e-01 -4.061155e-01
    outer loop
      vertex   -5.000000e+00 8.544081e+00 -4.754724e+00
      vertex   -4.915284e+00 8.561057e+00 -4.814340e+00
      vertex   -4.908421e+00 8.549103e+00 -4.845353e+00
    endloop
  endfacet
  facet normal -4.447735e-01 8.061974e-01 -3.901568e-01
    outer loop
      vertex   -5.000000e+00 8.604939e+00 -4.630857e+00
      vertex   -4.955460e+00 8.631032e+00 -4.627718e+00
      vertex   -4.948883e+00 8.619577e+00 -4.658884e+00
    endloop
  endfacet
  facet normal -4.457160e-01 8.043789e-01 -3.928255e-01
    outer loop
      vertex   -4.948883e+00 8.619577e+00 -4.658884e+00
      vertex   -4.942259e+00 8.608039e+00 -4.690026e+00
      vertex   -5.000000e+00 8.604939e+00 -4.630857e+00
    endloop
  endfacet
  facet normal -4.485310e-01 8.079314e-01 -3.821869e-01
    outer loop
      vertex   -5.000000e+00 8.664151e+00 -4.506198e+00
      vertex   -4.974902e+00 8.664896e+00 -4.534078e+00
      vertex   -4.968469e+00 8.653691e+00 -4.565314e+00
    endloop
  endfacet
  facet normal -0.000000e+00 0.000000e+00 1.000000e+00
    outer loop
      vertex   -4.889711e+00 8.942874e+00 -4.000000e+00
      vertex   -5.000000e+00 8.000000e+00 -4.000000e+00
      vertex   -4.778742e+00 9.000000e+00 -4.000000e+00
    endloop
  endfacet
  facet normal 0.000000e+00 0.000000e+00 1.000000e+00
    outer loop
      vertex   -4.778742e+00 9.000000e+00 -4.000000e+00
      vertex   -5.000000e+00 8.000000e+00 -4.000000e+00
      vertex   -4.000000e+00 8.000000e+00 -4.000000e+00
    endloop
  endfacet
  facet normal -0.000000e+00 0.000000e+00 1.000000e+00
    outer loop
      vertex   -4.778742e+00 9.000000e+00 -4.000000e+00
      vertex   -4.000000e+00 8.000000e+00 -4.000000e+00
      vertex   -4.000000e+00 9.000000e+00 -4.000000e+00
    endloop
  endfacet
  facet normal 0.000000e+00 0.000000e+00 1.000000e+00
    outer loop
      vertex   -4.889711e+00 8.942874e+00 -4.000000e+00
      vertex   -5.000000e+00 8.884422e+00 -4.000000e+00
      vertex   -5.000000e+00 8.000000e+00 -4.000000e+00
    endloop
  endfacet
  facet normal -1.000000e+00 -0.000000e+00 0.000000e+00
    outer loop
      vertex   -5.000000e+00 8.884422e+00 -4.000000e+00
      vertex   -5.000000e+00 8.831852e+00 -4.127645e+00
      vertex   -5.000000e+00 8.000000e+00 -4.000000e+00
    endloop
  endfacet
  facet normal -1.000000e+00 0.000000e+00 0.000000e+00
    outer loop
      vertex   -5.000000e+00 8.000000e+00 -4.000000e+00
      vertex   -5.000000e+00 8.831852e+00 -4.127645e+00
      vertex   -5.000000e+00 8.777613e+00 -4.254573e+00
    endloop
  endfacet
  facet normal -1.000000e+00 0.000000e+00 0.000000e+00
    outer loop
      vertex   -5.000000e+00 8.000000e+00 -4.000000e+00
      vertex   -5.000000e+00 8.777613e+00 -4.254573e+00
      vertex   -5.000000e+00 8.721711e+00 -4.380763e+00
    endloop
  endfacet
  facet normal -1.000000e+00 -0.000000e+00 0.000000e+00
    outer loop
      vertex   -5.000000e+00 8.721711e+00 -4.380763e+00
      vertex   -5.000000e+00 8.664151e+00 -4.506198e+00
      vertex   -5.000000e+00 8.000000e+00 -4.000000e+00
    endloop
  endfacet
  facet normal -1.000000e+00 0.000000e+00 0.000000e+00
    outer loop
      vertex   -5.000000e+00 8.000000e+00 -4.000000e+00
      vertex   -5.000000e+00 8.664151e+00 -4.506198e+00
      vertex   -5.000000e+00 8.604939e+00 -4.630857e+00
    endloop
  endfacet
  facet normal -1.000000e+00 0.000000e+00 0.000000e+00
    outer loop
      vertex   -5.000000e+00 8.000000e+00 -4.000000e+00
      vertex   -5.000000e+00 8.604939e+00 -4.630857e+00
      vertex   -5.000000e+00 8.544081e+00 -4.754724e+00
    endloop
  endfacet
  facet normal -1.000000e+00 0.000000e+00 0.000000e+00
    outer loop
      vertex   -5.000000e+00 8.000000e+00 -4.000000e+00
      vertex   -5.000000e+00 8.544081e+00 -4.754724e+00
      vertex   -5.000000e+00 8.000000e+00 -5.000000e+00
    endloop
  endfacet
  facet normal -1.000000e+00 0.000000e+00 0.000000e+00
    outer loop
      vertex   -5.000000e+00 8.000000e+00 -5.000000e+00
      vertex   -5.000000e+00 8.544081e+00 -4.754724e+00
      vertex   -5.000000e+00 8.481582e+00 -4.877778e+00
    endloop
  endfacet
  facet normal -1.000000e+00 0.000000e+00 0.000000e+00
    outer loop
      vertex   -5.000000e+00 8.000000e+00 -5.000000e+00
      vertex   -5.000000e+00 8.481582e+00 -4.877778e+00
      vertex   -5.000000e+00 8.417448e+00 -5.000000e+00
    endloop
  endfacet
  facet normal 0.000000e+00 0.000000e+00 -1.000000e+00
    outer loop
      vertex   -5.000000e+00 8.417448e+00 -5.000000e+00
      vertex   -4.878091e+00 8.485511e+00 -5.000000e+00
      vertex   -5.000000e+00 8.000000e+00 -5.000000e+00
    endloop
  endfacet
  facet normal 0.000000e+00 0.000000e+00 -1.000000e+00
    outer loop
      vertex   -5.000000e+00 8.000000e+00 -5.000000e+00
      vertex   -4.878091e+00 8.485511e+00 -5.000000e+00
      vertex   -4.755260e+00 8.551863e+00 -5.000000e+00
    endloop
  endfacet
  facet normal 0.000000e+00 0.000000e+00 -1.000000e+00
    outer loop
      vertex   -5.000000e+00 8.000000e+00 -5.000000e+00
      vertex   -4.755260e+00 8.551863e+00 -5.000000e+00
      vertex   -4.000000e+00 8.000000e+00 -5.000000e+00
    endloop
  endfacet
  facet normal 0.000000e+00 0.000000e+00 -1.000000e+00
    outer loop
      vertex   -4.000000e+00 8.000000e+00 -5.000000e+00
      vertex   -4.755260e+00 8.551863e+00 -5.000000e+00
      vertex   -4.631526e+00 8.616494e+00 -5.000000e+00
    endloop
  endfacet
  facet normal 0.000000e+00 0.000000e+00 -1.000000e+00
    outer loop
      vertex   -4.000000e+00 8.000000e+00 -5.000000e+00
      vertex   -4.631526e+00 8.616494e+00 -5.000000e+00
      vertex   -4.506910e+00 8.679397e+00 -5.000000e+00
    endloop
  endfacet
  facet normal 0.000000e+00 0.000000e+00 -1.000000e+00
    outer loop
      vertex   -4.506910e+00 8.679397e+00 -5.000000e+00
      vertex   -4.381430e+00 8.740564e+00 -5.000000e+00
      vertex   -4.000000e+00 8.000000e+00 -5.000000e+00
    endloop
  endfacet
  facet normal 0.000000e+00 0.000000e+00 -1.000000e+00
    outer loop
      vertex   -4.000000e+00 8.000000e+00 -5.000000e+00
      vertex   -4.381430e+00 8.740564e+00 -5.000000e+00
      vertex   -4.255106e+00 8.799987e+00 -5.000000e+00
    endloop
  endfacet
  facet normal 0.000000e+00 0.000000e+00 -1.000000e+00
    outer loop
      vertex   -4.000000e+00 8.000000e+00 -5.000000e+00
      vertex   -4.255106e+00 8.799987e+00 -5.000000e+00
      vertex   -4.127956e+00 8.857657e+00 -5.000000e+00
    endloop
  endfacet
  facet normal 0.000000e+00 0.000000e+00 -1.000000e+00
    outer loop
      vertex   -4.127956e+00 8.857657e+00 -5.000000e+00
      vertex   -4.000000e+00 8.913568e+00 -5.000000e+00
      vertex   -4.000000e+00 8.000000e+00 -5.000000e+00
    endloop
  endfacet
  facet normal 0.000000e+00 -1.000000e+00 0.000000e+00
    outer loop
      vertex   -5.000000e+00 8.000000e+00 -4.000000e+00
      vertex   -5.000000e+00 8.000000e+00 -5.000000e+00
      vertex   -4.000000e+00 8.000000e+00 -4.000000e+00
    endloop
  endfacet
  facet normal 0.000000e+00 -1.000000e+00 -0.000000e+00
    outer loop
      vertex   -4.000000e+00 8.000000e+00 -4.000000e+00
      vertex   -5.000000e+00 8.000000e+00 -5.000000e+00
      vertex   -4.000000e+00 8.000000e+00 -5.000000e+00
    endloop
  endfacet
  facet normal 0.000000e+00 1.000000e+00 -0.000000e+00
    outer loop
      vertex   -4.000000e+00 9.000000e+00 -4.824448e+00
      vertex   -4.052968e+00 9.000000e+00 -4.777171e+00
      vertex   -4.000000e+00 9.000000e+00 -4.000000e+00
    endloop
  endfacet
  facet normal 0.000000e+00 1.000000e+00 0.000000e+00
    outer loop
      vertex   -4.000000e+00 9.000000e+00 -4.000000e+00
      vertex   -4.052968e+00 9.000000e+00 -4.777171e+00
      vertex   -4.105383e+00 9.000000e+00 -4.729301e+00
    endloop
  endfacet
  facet normal 0.000000e+00 1.000000e+00 0.000000e+00
    outer loop
      vertex   -4.000000e+00 9.000000e+00 -4.000000e+00
      vertex   -4.105383e+00 9.000000e+00 -4.729301e+00
      vertex   -4.157240e+00 9.000000e+00 -4.680844e+00
    endloop
  endfacet
  facet normal 0.000000e+00 1.000000e+00 -0.000000e+00
    outer loop
      vertex   -4.157240e+00 9.000000e+00 -4.680844e+00
      vertex   -4.208535e+00 9.000000e+00 -4.631806e+00
      vertex   -4.000000e+00 9.000000e+00 -4.000000e+00
    endloop
  endfacet
  facet normal 0.000000e+00 1.000000e+00 0.000000e+00
    outer loop
      vertex   -4.000000e+00 9.000000e+00 -4.000000e+00
      vertex   -4.208535e+00 9.000000e+00 -4.631806e+00
      vertex   -4.259265e+00 9.000000e+00 -4.582192e+00
    endloop
  endfacet
  facet normal 0.000000e+00 1.000000e+00 0.000000e+00
    outer loop
      vertex   -4.000000e+00 9.000000e+00 -4.000000e+00
      vertex   -4.259265e+00 9.000000e+00 -4.582192e+00
      vertex   -4.309424e+00 9.000000e+00 -4.532007e+00
    endloop
  endfacet
  facet normal 0.000000e+00 1.000000e+00 -0.000000e+00
    outer loop
      vertex   -4.309424e+00 9.000000e+00 -4.532007e+00
      vertex   -4.359009e+00 9.000000e+00 -4.481258e+00
      vertex   -4.000000e+00 9.000000e+00 -4.000000e+00
    endloop
  endfacet
  facet normal 0.000000e+00 1.000000e+00 0.000000e+00
    outer loop
      vertex   -4.000000e+00 9.000000e+00 -4.000000e+00
      vertex   -4.359009e+00 9.000000e+00 -4.481258e+00
      vertex   -4.408015e+00 9.000000e+00 -4.429949e+00
    endloop
  endfacet
  facet normal 0.000000e+00 1.000000e+00 0.000000e+00
    outer loop
      vertex   -4.000000e+00 9.000000e+00 -4.000000e+00
      vertex   -4.408015e+00 9.000000e+00 -4.429949e+00
      vertex   -4.456439e+00 9.000000e+00 -4.378086e+00
    endloop
  endfacet
  facet normal 0.000000e+00 1.000000e+00 -0.000000e+00
    outer loop
      vertex   -4.456439e+00 9.000000e+00 -4.378086e+00
      vertex   -4.504276e+00 9.000000e+00 -4.325674e+00
      vertex   -4.000000e+00 9.000000e+00 -4.000000e+00
    endloop
  endfacet
  facet normal 0.000000e+00 1.000000e+00 0.000000e+00
    outer loop
      vertex   -4.000000e+00 9.000000e+00 -4.000000e+00
      vertex   -4.504276e+00 9.000000e+00 -4.325674e+00
      vertex   -4.551522e+00 9.000000e+00 -4.272720e+00
    endloop
  endfacet
  facet normal 0.000000e+00 1.000000e+00 0.000000e+00
    outer loop
      vertex   -4.000000e+00 9.000000e+00 -4.000000e+00
      vertex   -4.551522e+00 9.000000e+00 -4.272720e+00
      vertex   -4.598173e+00 9.000000e+00 -4.219229e+00
    endloop
  endfacet
  facet normal 0.000000e+00 1.000000e+00 -0.000000e+00
    outer loop
      vertex   -4.598173e+00 9.000000e+00 -4.219229e+00
      vertex   -4.644224e+00 9.000000e+00 -4.165206e+00
      vertex   -4.000000e+00 9.000000e+00 -4.000000e+00
    endloop
  endfacet
  facet normal 0.000000e+00 1.000000e+00 0.000000e+00
    outer loop
      vertex   -4.000000e+00 9.000000e+00 -4.000000e+00
      vertex   -4.644224e+00 9.000000e+00 -4.165206e+00
      vertex   -4.689672e+00 9.000000e+00 -4.110656e+00
    endloop
  endfacet
  facet normal 0.000000e+00 1.000000e+00 0.000000e+00
    outer loop
      vertex   -4.000000e+00 9.000000e+00 -4.000000e+00
      vertex   -4.689672e+00 9.000000e+00 -4.110656e+00
      vertex   -4.734513e+00 9.000000e+00 -4.055586e+00
    endloop
  endfacet
  facet normal 0.000000e+00 1.000000e+00 -0.000000e+00
    outer loop
      vertex   -4.734513e+00 9.000000e+00 -4.055586e+00
      vertex   -4.778742e+00 9.000000e+00 -4.000000e+00
      vertex   -4.000000e+00 9.000000e+00 -4.000000e+00
    endloop
  endfacet
  facet normal 1.000000e+00 0.000000e+00 -0.000000e+00
    outer loop
      vertex   -4.000000e+00 8.913568e+00 -5.000000e+00
      vertex   -4.000000e+00 8.957180e+00 -4.912416e+00
      vertex   -4.000000e+00 8.000000e+00 -5.000000e+00
    endloop
  endfacet
  facet normal 1.000000e+00 0.000000e+00 0.000000e+00
    outer loop
      vertex   -4.000000e+00 8.000000e+00 -5.000000e+00
      vertex   -4.000000e+00 8.957180e+00 -4.912416e+00
      vertex   -4.000000e+00 9.000000e+00 -4.824448e+00
    endloop
  endfacet
  facet normal 1.000000e+00 0.000000e+00 0.000000e+00
    outer loop
      vertex   -4.000000e+00 8.000000e+00 -5.000000e+00
      vertex   -4.000000e+00 9.000000e+00 -4.824448e+00
      vertex   -4.000000e+00 8.000000e+00 -4.000000e+00
    endloop
  endfacet
  facet normal 1.000000e+00 -0.000000e+00 0.000000e+00
    outer loop
      vertex   -4.000000e+00 8.000000e+00 -4.000000e+00
      vertex   -4.000000e+00 9.000000e+00 -4.824448e+00
      vertex   -4.000000e+00 9.000000e+00 -4.000000e+00
    endloop
  endfacet
endsolid
