solid ASCII
  facet normal -6.408414e-01 -7.676564e-01 -5.101909e-03
    outer loop
      vertex   3.965485e+00 -6.000000e+00 6.314464e-02
      vertex   3.965988e+00 -6.000000e+00 0.000000e+00
      vertex   3.980255e+00 -6.012313e+00 6.063887e-02
    endloop
  endfacet
  facet normal -6.456110e-01 -7.636599e-01 -3.168277e-03
    outer loop
      vertex   3.980255e+00 -6.012313e+00 6.063887e-02
      vertex   3.965988e+00 -6.000000e+00 0.000000e+00
      vertex   4.000000e+00 -6.028754e+00 0.000000e+00
    endloop
  endfacet
  facet normal -6.491719e-01 -7.606243e-01 -5.150881e-03
    outer loop
      vertex   3.980255e+00 -6.012313e+00 6.063887e-02
      vertex   4.000000e+00 -6.028754e+00 0.000000e+00
      vertex   4.000000e+00 -6.029180e+00 6.280800e-02
    endloop
  endfacet
  facet normal -6.484951e-01 -7.610746e-01 -1.481345e-02
    outer loop
      vertex   3.980255e+00 -6.012313e+00 6.063887e-02
      vertex   4.000000e+00 -6.029180e+00 6.280800e-02
      vertex   3.979162e+00 -6.012569e+00 1.216005e-01
    endloop
  endfacet
  facet normal -6.495521e-01 -7.601602e-01 -1.544644e-02
    outer loop
      vertex   3.979162e+00 -6.012569e+00 1.216005e-01
      vertex   4.000000e+00 -6.029180e+00 6.280800e-02
      vertex   4.000000e+00 -6.030453e+00 1.254824e-01
    endloop
  endfacet
  facet normal -6.484293e-01 -7.608723e-01 -2.475484e-02
    outer loop
      vertex   3.979162e+00 -6.012569e+00 1.216005e-01
      vertex   4.000000e+00 -6.030453e+00 1.254824e-01
      vertex   3.977328e+00 -6.012999e+00 1.828705e-01
    endloop
  endfacet
  facet normal -6.490453e-01 -7.603336e-01 -2.516207e-02
    outer loop
      vertex   3.977328e+00 -6.012999e+00 1.828705e-01
      vertex   4.000000e+00 -6.030453e+00 1.254824e-01
      vertex   3.998795e+00 -6.031323e+00 1.828705e-01
    endloop
  endfacet
  facet normal -6.489089e-01 -7.601738e-01 -3.244920e-02
    outer loop
      vertex   3.977328e+00 -6.012999e+00 1.828705e-01
      vertex   3.998795e+00 -6.031323e+00 1.828705e-01
      vertex   4.000000e+00 -6.032583e+00 1.882654e-01
    endloop
  endfacet
  facet normal -6.658105e-01 -7.456921e-01 -2.529222e-02
    outer loop
      vertex   4.000000e+00 -6.032583e+00 1.882654e-01
      vertex   3.998795e+00 -6.031323e+00 1.828705e-01
      vertex   4.000000e+00 -6.030453e+00 1.254824e-01
    endloop
  endfacet
  facet normal -6.485084e-01 -7.604039e-01 -3.496781e-02
    outer loop
      vertex   3.977328e+00 -6.012999e+00 1.828705e-01
      vertex   4.000000e+00 -6.032583e+00 1.882654e-01
      vertex   3.996192e+00 -6.031918e+00 2.444340e-01
    endloop
  endfacet
  facet normal -6.589938e-01 -7.512965e-01 -3.578645e-02
    outer loop
      vertex   3.996192e+00 -6.031918e+00 2.444340e-01
      vertex   4.000000e+00 -6.032583e+00 1.882654e-01
      vertex   4.000000e+00 -6.035582e+00 2.512279e-01
    endloop
  endfacet
  facet normal -6.498869e-01 -7.587043e-01 -4.488571e-02
    outer loop
      vertex   3.996192e+00 -6.031918e+00 2.444340e-01
      vertex   4.000000e+00 -6.035582e+00 2.512279e-01
      vertex   3.992820e+00 -6.032688e+00 3.062758e-01
    endloop
  endfacet
  facet normal -6.576368e-01 -7.519139e-01 -4.625342e-02
    outer loop
      vertex   3.992820e+00 -6.032688e+00 3.062758e-01
      vertex   4.000000e+00 -6.035582e+00 2.512279e-01
      vertex   4.000000e+00 -6.039462e+00 3.143126e-01
    endloop
  endfacet
  facet normal -6.518618e-01 -7.563308e-01 -5.513554e-02
    outer loop
      vertex   3.992820e+00 -6.032688e+00 3.062758e-01
      vertex   4.000000e+00 -6.039462e+00 3.143126e-01
      vertex   3.988668e+00 -6.033637e+00 3.683798e-01
    endloop
  endfacet
  facet normal -6.573375e-01 -7.514520e-01 -5.680885e-02
    outer loop
      vertex   3.988668e+00 -6.033637e+00 3.683798e-01
      vertex   4.000000e+00 -6.039462e+00 3.143126e-01
      vertex   4.000000e+00 -6.044236e+00 3.774618e-01
    endloop
  endfacet
  facet normal -6.531587e-01 -7.543873e-01 -6.544853e-02
    outer loop
      vertex   3.988668e+00 -6.033637e+00 3.683798e-01
      vertex   4.000000e+00 -6.044236e+00 3.774618e-01
      vertex   3.983725e+00 -6.034767e+00 4.307297e-01
    endloop
  endfacet
  facet normal -6.575047e-01 -7.504224e-01 -6.748123e-02
    outer loop
      vertex   3.983725e+00 -6.034767e+00 4.307297e-01
      vertex   4.000000e+00 -6.044236e+00 3.774618e-01
      vertex   4.000000e+00 -6.049916e+00 4.406180e-01
    endloop
  endfacet
  facet normal -6.542914e-01 -7.524296e-01 -7.584495e-02
    outer loop
      vertex   3.983725e+00 -6.034767e+00 4.307297e-01
      vertex   4.000000e+00 -6.049916e+00 4.406180e-01
      vertex   3.977980e+00 -6.036079e+00 4.933087e-01
    endloop
  endfacet
  facet normal -6.567776e-01 -7.500915e-01 -7.749791e-02
    outer loop
      vertex   3.977980e+00 -6.036079e+00 4.933087e-01
      vertex   4.000000e+00 -6.049916e+00 4.406180e-01
      vertex   3.998877e+00 -6.054376e+00 4.933087e-01
    endloop
  endfacet
  facet normal -6.564874e-01 -7.497601e-01 -8.297002e-02
    outer loop
      vertex   3.977980e+00 -6.036079e+00 4.933087e-01
      vertex   3.998877e+00 -6.054376e+00 4.933087e-01
      vertex   4.000000e+00 -6.056512e+00 5.037237e-01
    endloop
  endfacet
  facet normal -6.799895e-01 -7.292486e-01 -7.622838e-02
    outer loop
      vertex   4.000000e+00 -6.056512e+00 5.037237e-01
      vertex   3.998877e+00 -6.054376e+00 4.933087e-01
      vertex   4.000000e+00 -6.049916e+00 4.406180e-01
    endloop
  endfacet
  facet normal -6.552241e-01 -7.504164e-01 -8.692858e-02
    outer loop
      vertex   3.977980e+00 -6.036079e+00 4.933087e-01
      vertex   4.000000e+00 -6.056512e+00 5.037237e-01
      vertex   3.992286e+00 -6.055844e+00 5.560993e-01
    endloop
  endfacet
  facet normal -6.653946e-01 -7.412220e-01 -8.854382e-02
    outer loop
      vertex   3.992286e+00 -6.055844e+00 5.560993e-01
      vertex   4.000000e+00 -6.056512e+00 5.037237e-01
      vertex   4.000000e+00 -6.064038e+00 5.667214e-01
    endloop
  endfacet
  facet normal -6.587317e-01 -7.460818e-01 -9.713134e-02
    outer loop
      vertex   3.992286e+00 -6.055844e+00 5.560993e-01
      vertex   4.000000e+00 -6.064038e+00 5.667214e-01
      vertex   3.984870e+00 -6.057496e+00 6.190837e-01
    endloop
  endfacet
  facet normal -6.650967e-01 -7.400689e-01 -9.972175e-02
    outer loop
      vertex   3.984870e+00 -6.057496e+00 6.190837e-01
      vertex   4.000000e+00 -6.064038e+00 5.667214e-01
      vertex   4.000000e+00 -6.072504e+00 6.295536e-01
    endloop
  endfacet
  facet normal -6.614480e-01 -7.421727e-01 -1.080102e-01
    outer loop
      vertex   3.984870e+00 -6.057496e+00 6.190837e-01
      vertex   4.000000e+00 -6.072504e+00 6.295536e-01
      vertex   3.976618e+00 -6.059333e+00 6.822435e-01
    endloop
  endfacet
  facet normal -6.642684e-01 -7.393614e-01 -1.099645e-01
    outer loop
      vertex   3.976618e+00 -6.059333e+00 6.822435e-01
      vertex   4.000000e+00 -6.072504e+00 6.295536e-01
      vertex   3.996941e+00 -6.077592e+00 6.822435e-01
    endloop
  endfacet
  facet normal -6.635759e-01 -7.385906e-01 -1.189576e-01
    outer loop
      vertex   3.976618e+00 -6.059333e+00 6.822435e-01
      vertex   3.996941e+00 -6.077592e+00 6.822435e-01
      vertex   3.987799e+00 -6.079576e+00 7.455600e-01
    endloop
  endfacet
  facet normal -6.622315e-01 -7.398213e-01 -1.188021e-01
    outer loop
      vertex   3.987799e+00 -6.079576e+00 7.455600e-01
      vertex   3.996941e+00 -6.077592e+00 6.822435e-01
      vertex   4.000000e+00 -6.081923e+00 6.921626e-01
    endloop
  endfacet
  facet normal -6.726086e-01 -7.299378e-01 -1.216077e-01
    outer loop
      vertex   3.987799e+00 -6.079576e+00 7.455600e-01
      vertex   4.000000e+00 -6.081923e+00 6.921626e-01
      vertex   4.000000e+00 -6.092307e+00 7.544910e-01
    endloop
  endfacet
  facet normal -6.761246e-01 -7.285881e-01 -1.096125e-01
    outer loop
      vertex   4.000000e+00 -6.072504e+00 6.295536e-01
      vertex   4.000000e+00 -6.081923e+00 6.921626e-01
      vertex   3.996941e+00 -6.077592e+00 6.822435e-01
    endloop
  endfacet
  facet normal -6.845587e-01 -7.170166e-01 -1.314022e-01
    outer loop
      vertex   4.000000e+00 -6.103668e+00 8.164813e-01
      vertex   3.997569e+00 -6.099978e+00 8.090138e-01
      vertex   4.000000e+00 -6.092307e+00 7.544910e-01
    endloop
  endfacet
  facet normal -6.719589e-01 -7.286435e-01 -1.324761e-01
    outer loop
      vertex   4.000000e+00 -6.092307e+00 7.544910e-01
      vertex   3.997569e+00 -6.099978e+00 8.090138e-01
      vertex   3.977799e+00 -6.081746e+00 8.090138e-01
    endloop
  endfacet
  facet normal -6.685168e-01 -7.321773e-01 -1.303900e-01
    outer loop
      vertex   4.000000e+00 -6.092307e+00 7.544910e-01
      vertex   3.977799e+00 -6.081746e+00 8.090138e-01
      vertex   3.987799e+00 -6.079576e+00 7.455600e-01
    endloop
  endfacet
  facet normal -6.626802e-01 -7.375937e-01 -1.296555e-01
    outer loop
      vertex   3.987799e+00 -6.079576e+00 7.455600e-01
      vertex   3.977799e+00 -6.081746e+00 8.090138e-01
      vertex   3.967522e+00 -6.061359e+00 7.455600e-01
    endloop
  endfacet
  facet normal -6.635759e-01 -7.385906e-01 -1.189576e-01
    outer loop
      vertex   3.987799e+00 -6.079576e+00 7.455600e-01
      vertex   3.967522e+00 -6.061359e+00 7.455600e-01
      vertex   3.976618e+00 -6.059333e+00 6.822435e-01
    endloop
  endfacet
  facet normal -6.541660e-01 -7.471088e-01 -1.178784e-01
    outer loop
      vertex   3.976618e+00 -6.059333e+00 6.822435e-01
      vertex   3.967522e+00 -6.061359e+00 7.455600e-01
      vertex   3.955838e+00 -6.041138e+00 6.822435e-01
    endloop
  endfacet
  facet normal -6.549533e-01 -7.480081e-01 -1.073315e-01
    outer loop
      vertex   3.976618e+00 -6.059333e+00 6.822435e-01
      vertex   3.955838e+00 -6.041138e+00 6.822435e-01
      vertex   3.964046e+00 -6.039263e+00 6.190837e-01
    endloop
  endfacet
  facet normal -6.455683e-01 -7.562604e-01 -1.063569e-01
    outer loop
      vertex   3.964046e+00 -6.039263e+00 6.190837e-01
      vertex   3.955838e+00 -6.041138e+00 6.822435e-01
      vertex   3.942766e+00 -6.021097e+00 6.190837e-01
    endloop
  endfacet
  facet normal -6.462546e-01 -7.570644e-01 -9.596042e-02
    outer loop
      vertex   3.964046e+00 -6.039263e+00 6.190837e-01
      vertex   3.942766e+00 -6.021097e+00 6.190837e-01
      vertex   3.950104e+00 -6.019378e+00 5.560993e-01
    endloop
  endfacet
  facet normal -6.369148e-01 -7.650473e-01 -9.509021e-02
    outer loop
      vertex   3.950104e+00 -6.019378e+00 5.560993e-01
      vertex   3.942766e+00 -6.021097e+00 6.190837e-01
      vertex   3.928386e+00 -6.001297e+00 5.560993e-01
    endloop
  endfacet
  facet normal -6.374587e-01 -7.657006e-01 -8.572615e-02
    outer loop
      vertex   3.950104e+00 -6.019378e+00 5.560993e-01
      vertex   3.928386e+00 -6.001297e+00 5.560993e-01
      vertex   3.933813e+00 -6.000000e+00 5.041553e-01
    endloop
  endfacet
  facet normal -6.155864e-01 -7.835919e-01 -8.388721e-02
    outer loop
      vertex   3.933813e+00 -6.000000e+00 5.041553e-01
      vertex   3.928386e+00 -6.001297e+00 5.560993e-01
      vertex   3.925274e+00 -6.000000e+00 5.668193e-01
    endloop
  endfacet
  facet normal -6.461102e-01 -7.571903e-01 -9.594002e-02
    outer loop
      vertex   3.925274e+00 -6.000000e+00 5.668193e-01
      vertex   3.928386e+00 -6.001297e+00 5.560993e-01
      vertex   3.921080e+00 -6.003043e+00 6.190837e-01
    endloop
  endfacet
  facet normal -6.243981e-01 -7.752770e-01 -9.525057e-02
    outer loop
      vertex   3.925274e+00 -6.000000e+00 5.668193e-01
      vertex   3.921080e+00 -6.003043e+00 6.190837e-01
      vertex   3.915741e+00 -6.000000e+00 6.293114e-01
    endloop
  endfacet
  facet normal -6.372589e-01 -7.633945e-01 -1.054989e-01
    outer loop
      vertex   3.915741e+00 -6.000000e+00 6.293114e-01
      vertex   3.921080e+00 -6.003043e+00 6.190837e-01
      vertex   3.912952e+00 -6.004987e+00 6.822435e-01
    endloop
  endfacet
  facet normal -6.262356e-01 -7.724260e-01 -1.057689e-01
    outer loop
      vertex   3.915741e+00 -6.000000e+00 6.293114e-01
      vertex   3.912952e+00 -6.004987e+00 6.822435e-01
      vertex   3.905217e+00 -6.000000e+00 6.916198e-01
    endloop
  endfacet
  facet normal -6.333758e-01 -7.651740e-01 -1.155158e-01
    outer loop
      vertex   3.905217e+00 -6.000000e+00 6.916198e-01
      vertex   3.912952e+00 -6.004987e+00 6.822435e-01
      vertex   3.903994e+00 -6.007130e+00 7.455600e-01
    endloop
  endfacet
  facet normal -6.264489e-01 -7.707678e-01 -1.160981e-01
    outer loop
      vertex   3.905217e+00 -6.000000e+00 6.916198e-01
      vertex   3.903994e+00 -6.007130e+00 7.455600e-01
      vertex   3.893706e+00 -6.000000e+00 7.537329e-01
    endloop
  endfacet
  facet normal -6.306383e-01 -7.658335e-01 -1.256759e-01
    outer loop
      vertex   3.893706e+00 -6.000000e+00 7.537329e-01
      vertex   3.903994e+00 -6.007130e+00 7.455600e-01
      vertex   3.894196e+00 -6.009475e+00 8.090138e-01
    endloop
  endfacet
  facet normal -6.259718e-01 -7.695416e-01 -1.263529e-01
    outer loop
      vertex   3.893706e+00 -6.000000e+00 7.537329e-01
      vertex   3.894196e+00 -6.009475e+00 8.090138e-01
      vertex   3.881210e+00 -6.000000e+00 8.156392e-01
    endloop
  endfacet
  facet normal -6.282820e-01 -7.660215e-01 -1.359150e-01
    outer loop
      vertex   3.881210e+00 -6.000000e+00 8.156392e-01
      vertex   3.894196e+00 -6.009475e+00 8.090138e-01
      vertex   3.883551e+00 -6.012024e+00 8.725852e-01
    endloop
  endfacet
  facet normal -6.250999e-01 -7.685042e-01 -1.365700e-01
    outer loop
      vertex   3.881210e+00 -6.000000e+00 8.156392e-01
      vertex   3.883551e+00 -6.012024e+00 8.725852e-01
      vertex   3.867733e+00 -6.000000e+00 8.773269e-01
    endloop
  endfacet
  facet normal -6.260503e-01 -7.659528e-01 -1.462103e-01
    outer loop
      vertex   3.867733e+00 -6.000000e+00 8.773269e-01
      vertex   3.883551e+00 -6.012024e+00 8.725852e-01
      vertex   3.872051e+00 -6.014778e+00 9.362542e-01
    endloop
  endfacet
  facet normal -6.239566e-01 -7.675533e-01 -1.467651e-01
    outer loop
      vertex   3.867733e+00 -6.000000e+00 8.773269e-01
      vertex   3.872051e+00 -6.014778e+00 9.362542e-01
      vertex   3.853277e+00 -6.000000e+00 9.387844e-01
    endloop
  endfacet
  facet normal -6.238204e-01 -7.655845e-01 -1.572531e-01
    outer loop
      vertex   3.853277e+00 -6.000000e+00 9.387844e-01
      vertex   3.872051e+00 -6.014778e+00 9.362542e-01
      vertex   3.837846e+00 -6.000000e+00 1.000000e+00
    endloop
  endfacet
  facet normal -6.266422e-01 -7.628299e-01 -1.594059e-01
    outer loop
      vertex   3.837846e+00 -6.000000e+00 1.000000e+00
      vertex   3.872051e+00 -6.014778e+00 9.362542e-01
      vertex   3.879558e+00 -6.034265e+00 1.000000e+00
    endloop
  endfacet
  facet normal -6.318071e-01 -7.589334e-01 -1.576065e-01
    outer loop
      vertex   3.879558e+00 -6.034265e+00 1.000000e+00
      vertex   3.872051e+00 -6.014778e+00 9.362542e-01
      vertex   3.893507e+00 -6.032640e+00 9.362542e-01
    endloop
  endfacet
  facet normal -6.402065e-01 -7.515141e-01 -1.592555e-01
    outer loop
      vertex   3.879558e+00 -6.034265e+00 1.000000e+00
      vertex   3.893507e+00 -6.032640e+00 9.362542e-01
      vertex   3.900153e+00 -6.051810e+00 1.000000e+00
    endloop
  endfacet
  facet normal -6.409926e-01 -7.509001e-01 -1.589889e-01
    outer loop
      vertex   3.900153e+00 -6.051810e+00 1.000000e+00
      vertex   3.893507e+00 -6.032640e+00 9.362542e-01
      vertex   3.914522e+00 -6.050579e+00 9.362542e-01
    endloop
  endfacet
  facet normal -6.493140e-01 -7.433443e-01 -1.607188e-01
    outer loop
      vertex   3.900153e+00 -6.051810e+00 1.000000e+00
      vertex   3.914522e+00 -6.050579e+00 9.362542e-01
      vertex   3.920562e+00 -6.069637e+00 1.000000e+00
    endloop
  endfacet
  facet normal -6.502279e-01 -7.426112e-01 -1.604130e-01
    outer loop
      vertex   3.920562e+00 -6.069637e+00 1.000000e+00
      vertex   3.914522e+00 -6.050579e+00 9.362542e-01
      vertex   3.935085e+00 -6.068584e+00 9.362542e-01
    endloop
  endfacet
  facet normal -6.585826e-01 -7.348225e-01 -1.621877e-01
    outer loop
      vertex   3.920562e+00 -6.069637e+00 1.000000e+00
      vertex   3.935085e+00 -6.068584e+00 9.362542e-01
      vertex   3.940768e+00 -6.087747e+00 1.000000e+00
    endloop
  endfacet
  facet normal -6.595069e-01 -7.340617e-01 -1.618766e-01
    outer loop
      vertex   3.940768e+00 -6.087747e+00 1.000000e+00
      vertex   3.935085e+00 -6.068584e+00 9.362542e-01
      vertex   3.955195e+00 -6.086652e+00 9.362542e-01
    endloop
  endfacet
  facet normal -6.680108e-01 -7.259314e-01 -1.636616e-01
    outer loop
      vertex   3.940768e+00 -6.087747e+00 1.000000e+00
      vertex   3.955195e+00 -6.086652e+00 9.362542e-01
      vertex   3.960754e+00 -6.106139e+00 1.000000e+00
    endloop
  endfacet
  facet normal -6.688247e-01 -7.252449e-01 -1.633808e-01
    outer loop
      vertex   3.960754e+00 -6.106139e+00 1.000000e+00
      vertex   3.955195e+00 -6.086652e+00 9.362542e-01
      vertex   3.974853e+00 -6.104780e+00 9.362542e-01
    endloop
  endfacet
  facet normal -6.775965e-01 -7.166537e-01 -1.651376e-01
    outer loop
      vertex   3.960754e+00 -6.106139e+00 1.000000e+00
      vertex   3.974853e+00 -6.104780e+00 9.362542e-01
      vertex   3.980504e+00 -6.124812e+00 1.000000e+00
    endloop
  endfacet
  facet normal -6.781755e-01 -7.161539e-01 -1.649292e-01
    outer loop
      vertex   3.980504e+00 -6.124812e+00 1.000000e+00
      vertex   3.974853e+00 -6.104780e+00 9.362542e-01
      vertex   3.994055e+00 -6.122964e+00 9.362542e-01
    endloop
  endfacet
  facet normal -6.831871e-01 -7.111605e-01 -1.658498e-01
    outer loop
      vertex   3.980504e+00 -6.124812e+00 1.000000e+00
      vertex   3.994055e+00 -6.122964e+00 9.362542e-01
      vertex   4.000000e+00 -6.129366e+00 9.392172e-01
    endloop
  endfacet
  facet normal -6.871435e-01 -7.098005e-01 -1.549741e-01
    outer loop
      vertex   4.000000e+00 -6.129366e+00 9.392172e-01
      vertex   3.994055e+00 -6.122964e+00 9.362542e-01
      vertex   4.000000e+00 -6.116017e+00 8.780759e-01
    endloop
  endfacet
  facet normal -6.792746e-01 -7.173145e-01 -1.550674e-01
    outer loop
      vertex   4.000000e+00 -6.116017e+00 8.780759e-01
      vertex   3.994055e+00 -6.122964e+00 9.362542e-01
      vertex   3.974853e+00 -6.104780e+00 9.362542e-01
    endloop
  endfacet
  facet normal -6.770400e-01 -7.197313e-01 -1.536347e-01
    outer loop
      vertex   4.000000e+00 -6.116017e+00 8.780759e-01
      vertex   3.974853e+00 -6.104780e+00 9.362542e-01
      vertex   3.986649e+00 -6.102286e+00 8.725852e-01
    endloop
  endfacet
  facet normal -6.699947e-01 -7.265136e-01 -1.525949e-01
    outer loop
      vertex   3.986649e+00 -6.102286e+00 8.725852e-01
      vertex   3.974853e+00 -6.104780e+00 9.362542e-01
      vertex   3.966934e+00 -6.084104e+00 8.725852e-01
    endloop
  endfacet
  facet normal -6.710945e-01 -7.277062e-01 -1.416894e-01
    outer loop
      vertex   3.986649e+00 -6.102286e+00 8.725852e-01
      vertex   3.966934e+00 -6.084104e+00 8.725852e-01
      vertex   3.977799e+00 -6.081746e+00 8.090138e-01
    endloop
  endfacet
  facet normal -6.617006e-01 -7.365034e-01 -1.404102e-01
    outer loop
      vertex   3.977799e+00 -6.081746e+00 8.090138e-01
      vertex   3.966934e+00 -6.084104e+00 8.725852e-01
      vertex   3.957574e+00 -6.063575e+00 8.090138e-01
    endloop
  endfacet
  facet normal -6.626802e-01 -7.375937e-01 -1.296555e-01
    outer loop
      vertex   3.977799e+00 -6.081746e+00 8.090138e-01
      vertex   3.957574e+00 -6.063575e+00 8.090138e-01
      vertex   3.967522e+00 -6.061359e+00 7.455600e-01
    endloop
  endfacet
  facet normal -6.532989e-01 -7.461185e-01 -1.284823e-01
    outer loop
      vertex   3.967522e+00 -6.061359e+00 7.455600e-01
      vertex   3.957574e+00 -6.063575e+00 8.090138e-01
      vertex   3.946790e+00 -6.043206e+00 7.455600e-01
    endloop
  endfacet
  facet normal -6.541660e-01 -7.471088e-01 -1.178784e-01
    outer loop
      vertex   3.967522e+00 -6.061359e+00 7.455600e-01
      vertex   3.946790e+00 -6.043206e+00 7.455600e-01
      vertex   3.955838e+00 -6.041138e+00 6.822435e-01
    endloop
  endfacet
  facet normal -6.448062e-01 -7.553676e-01 -1.168105e-01
    outer loop
      vertex   3.955838e+00 -6.041138e+00 6.822435e-01
      vertex   3.946790e+00 -6.043206e+00 7.455600e-01
      vertex   3.934602e+00 -6.023011e+00 6.822435e-01
    endloop
  endfacet
  facet normal -6.455683e-01 -7.562604e-01 -1.063569e-01
    outer loop
      vertex   3.955838e+00 -6.041138e+00 6.822435e-01
      vertex   3.934602e+00 -6.023011e+00 6.822435e-01
      vertex   3.942766e+00 -6.021097e+00 6.190837e-01
    endloop
  endfacet
  facet normal -6.362488e-01 -7.642510e-01 -1.053942e-01
    outer loop
      vertex   3.942766e+00 -6.021097e+00 6.190837e-01
      vertex   3.934602e+00 -6.023011e+00 6.822435e-01
      vertex   3.921080e+00 -6.003043e+00 6.190837e-01
    endloop
  endfacet
  facet normal -6.369130e-01 -7.650487e-01 -9.509107e-02
    outer loop
      vertex   3.942766e+00 -6.021097e+00 6.190837e-01
      vertex   3.921080e+00 -6.003043e+00 6.190837e-01
      vertex   3.928386e+00 -6.001297e+00 5.560993e-01
    endloop
  endfacet
  facet normal -6.704275e-01 -7.283385e-01 -1.415978e-01
    outer loop
      vertex   3.997569e+00 -6.099978e+00 8.090138e-01
      vertex   4.000000e+00 -6.103668e+00 8.164813e-01
      vertex   3.986649e+00 -6.102286e+00 8.725852e-01
    endloop
  endfacet
  facet normal -6.800536e-01 -7.188574e-01 -1.441220e-01
    outer loop
      vertex   3.986649e+00 -6.102286e+00 8.725852e-01
      vertex   4.000000e+00 -6.103668e+00 8.164813e-01
      vertex   4.000000e+00 -6.116017e+00 8.780759e-01
    endloop
  endfacet
  facet normal -6.872354e-01 -7.068672e-01 -1.674699e-01
    outer loop
      vertex   4.000000e+00 -6.129366e+00 9.392172e-01
      vertex   4.000000e+00 -6.143766e+00 1.000000e+00
      vertex   3.980504e+00 -6.124812e+00 1.000000e+00
    endloop
  endfacet
  facet normal -6.387573e-01 -7.647046e-01 -8.494727e-02
    outer loop
      vertex   3.950104e+00 -6.019378e+00 5.560993e-01
      vertex   3.933813e+00 -6.000000e+00 5.041553e-01
      vertex   3.956625e+00 -6.017850e+00 4.933087e-01
    endloop
  endfacet
  facet normal -6.367343e-01 -7.672844e-01 -7.644715e-02
    outer loop
      vertex   3.956625e+00 -6.017850e+00 4.933087e-01
      vertex   3.933813e+00 -6.000000e+00 5.041553e-01
      vertex   3.941354e+00 -6.000000e+00 4.413474e-01
    endloop
  endfacet
  facet normal -6.397126e-01 -7.649682e-01 -7.477618e-02
    outer loop
      vertex   3.956625e+00 -6.017850e+00 4.933087e-01
      vertex   3.941354e+00 -6.000000e+00 4.413474e-01
      vertex   3.962339e+00 -6.016511e+00 4.307297e-01
    endloop
  endfacet
  facet normal -6.374780e-01 -7.676156e-01 -6.624273e-02
    outer loop
      vertex   3.962339e+00 -6.016511e+00 4.307297e-01
      vertex   3.941354e+00 -6.000000e+00 4.413474e-01
      vertex   3.947890e+00 -6.000000e+00 3.784530e-01
    endloop
  endfacet
  facet normal -6.405131e-01 -7.652213e-01 -6.464764e-02
    outer loop
      vertex   3.962339e+00 -6.016511e+00 4.307297e-01
      vertex   3.947890e+00 -6.000000e+00 3.784530e-01
      vertex   3.967256e+00 -6.015359e+00 3.683798e-01
    endloop
  endfacet
  facet normal -6.381433e-01 -7.678750e-01 -5.604555e-02
    outer loop
      vertex   3.967256e+00 -6.015359e+00 3.683798e-01
      vertex   3.947890e+00 -6.000000e+00 3.784530e-01
      vertex   3.953420e+00 -6.000000e+00 3.154868e-01
    endloop
  endfacet
  facet normal -6.411468e-01 -7.654761e-01 -5.456328e-02
    outer loop
      vertex   3.967256e+00 -6.015359e+00 3.683798e-01
      vertex   3.953420e+00 -6.000000e+00 3.154868e-01
      vertex   3.971386e+00 -6.014391e+00 3.062758e-01
    endloop
  endfacet
  facet normal -6.387446e-01 -7.680512e-01 -4.585472e-02
    outer loop
      vertex   3.971386e+00 -6.014391e+00 3.062758e-01
      vertex   3.953420e+00 -6.000000e+00 3.154868e-01
      vertex   3.957944e+00 -6.000000e+00 2.524608e-01
    endloop
  endfacet
  facet normal -6.416000e-01 -7.657460e-01 -4.452513e-02
    outer loop
      vertex   3.971386e+00 -6.014391e+00 3.062758e-01
      vertex   3.957944e+00 -6.000000e+00 2.524608e-01
      vertex   3.974739e+00 -6.013605e+00 2.444340e-01
    endloop
  endfacet
  facet normal -6.392988e-01 -7.681307e-01 -3.566839e-02
    outer loop
      vertex   3.974739e+00 -6.013605e+00 2.444340e-01
      vertex   3.957944e+00 -6.000000e+00 2.524608e-01
      vertex   3.961464e+00 -6.000000e+00 1.893871e-01
    endloop
  endfacet
  facet normal -6.418581e-01 -7.660453e-01 -3.453575e-02
    outer loop
      vertex   3.974739e+00 -6.013605e+00 2.444340e-01
      vertex   3.961464e+00 -6.000000e+00 1.893871e-01
      vertex   3.977328e+00 -6.012999e+00 1.828705e-01
    endloop
  endfacet
  facet normal -6.398230e-01 -7.680997e-01 -2.548367e-02
    outer loop
      vertex   3.977328e+00 -6.012999e+00 1.828705e-01
      vertex   3.961464e+00 -6.000000e+00 1.893871e-01
      vertex   3.963977e+00 -6.000000e+00 1.262777e-01
    endloop
  endfacet
  facet normal -6.419084e-01 -7.663867e-01 -2.459827e-02
    outer loop
      vertex   3.977328e+00 -6.012999e+00 1.828705e-01
      vertex   3.963977e+00 -6.000000e+00 1.262777e-01
      vertex   3.979162e+00 -6.012569e+00 1.216005e-01
    endloop
  endfacet
  facet normal -6.403331e-01 -7.679450e-01 -1.529652e-02
    outer loop
      vertex   3.979162e+00 -6.012569e+00 1.216005e-01
      vertex   3.963977e+00 -6.000000e+00 1.262777e-01
      vertex   3.965485e+00 -6.000000e+00 6.314464e-02
    endloop
  endfacet
  facet normal -6.417417e-01 -7.667797e-01 -1.471640e-02
    outer loop
      vertex   3.979162e+00 -6.012569e+00 1.216005e-01
      vertex   3.965485e+00 -6.000000e+00 6.314464e-02
      vertex   3.980255e+00 -6.012313e+00 6.063887e-02
    endloop
  endfacet
  facet normal -6.488582e-01 -7.601144e-01 -3.477165e-02
    outer loop
      vertex   3.977328e+00 -6.012999e+00 1.828705e-01
      vertex   3.996192e+00 -6.031918e+00 2.444340e-01
      vertex   3.974739e+00 -6.013605e+00 2.444340e-01
    endloop
  endfacet
  facet normal -6.485981e-01 -7.598097e-01 -4.482921e-02
    outer loop
      vertex   3.974739e+00 -6.013605e+00 2.444340e-01
      vertex   3.996192e+00 -6.031918e+00 2.444340e-01
      vertex   3.992820e+00 -6.032688e+00 3.062758e-01
    endloop
  endfacet
  facet normal -6.485981e-01 -7.598097e-01 -4.482921e-02
    outer loop
      vertex   3.974739e+00 -6.013605e+00 2.444340e-01
      vertex   3.992820e+00 -6.032688e+00 3.062758e-01
      vertex   3.971386e+00 -6.014391e+00 3.062758e-01
    endloop
  endfacet
  facet normal -6.482701e-01 -7.594255e-01 -5.494269e-02
    outer loop
      vertex   3.971386e+00 -6.014391e+00 3.062758e-01
      vertex   3.992820e+00 -6.032688e+00 3.062758e-01
      vertex   3.988668e+00 -6.033637e+00 3.683798e-01
    endloop
  endfacet
  facet normal -6.482701e-01 -7.594255e-01 -5.494269e-02
    outer loop
      vertex   3.971386e+00 -6.014391e+00 3.062758e-01
      vertex   3.988668e+00 -6.033637e+00 3.683798e-01
      vertex   3.967256e+00 -6.015359e+00 3.683798e-01
    endloop
  endfacet
  facet normal -6.478731e-01 -7.589604e-01 -6.511232e-02
    outer loop
      vertex   3.967256e+00 -6.015359e+00 3.683798e-01
      vertex   3.988668e+00 -6.033637e+00 3.683798e-01
      vertex   3.983725e+00 -6.034767e+00 4.307297e-01
    endloop
  endfacet
  facet normal -6.478731e-01 -7.589604e-01 -6.511232e-02
    outer loop
      vertex   3.967256e+00 -6.015359e+00 3.683798e-01
      vertex   3.983725e+00 -6.034767e+00 4.307297e-01
      vertex   3.962339e+00 -6.016511e+00 4.307297e-01
    endloop
  endfacet
  facet normal -6.474057e-01 -7.584128e-01 -7.533835e-02
    outer loop
      vertex   3.962339e+00 -6.016511e+00 4.307297e-01
      vertex   3.983725e+00 -6.034767e+00 4.307297e-01
      vertex   3.977980e+00 -6.036079e+00 4.933087e-01
    endloop
  endfacet
  facet normal -6.474057e-01 -7.584128e-01 -7.533835e-02
    outer loop
      vertex   3.962339e+00 -6.016511e+00 4.307297e-01
      vertex   3.977980e+00 -6.036079e+00 4.933087e-01
      vertex   3.956625e+00 -6.017850e+00 4.933087e-01
    endloop
  endfacet
  facet normal -6.468666e-01 -7.577814e-01 -8.562098e-02
    outer loop
      vertex   3.956625e+00 -6.017850e+00 4.933087e-01
      vertex   3.977980e+00 -6.036079e+00 4.933087e-01
      vertex   3.971424e+00 -6.037577e+00 5.560993e-01
    endloop
  endfacet
  facet normal -6.468666e-01 -7.577814e-01 -8.562098e-02
    outer loop
      vertex   3.956625e+00 -6.017850e+00 4.933087e-01
      vertex   3.971424e+00 -6.037577e+00 5.560993e-01
      vertex   3.950104e+00 -6.019378e+00 5.560993e-01
    endloop
  endfacet
  facet normal -6.462546e-01 -7.570644e-01 -9.596042e-02
    outer loop
      vertex   3.950104e+00 -6.019378e+00 5.560993e-01
      vertex   3.971424e+00 -6.037577e+00 5.560993e-01
      vertex   3.964046e+00 -6.039263e+00 6.190837e-01
    endloop
  endfacet
  facet normal -6.362470e-01 -7.642523e-01 -1.053950e-01
    outer loop
      vertex   3.912952e+00 -6.004987e+00 6.822435e-01
      vertex   3.921080e+00 -6.003043e+00 6.190837e-01
      vertex   3.934602e+00 -6.023011e+00 6.822435e-01
    endloop
  endfacet
  facet normal -6.355077e-01 -7.633679e-01 -1.157563e-01
    outer loop
      vertex   3.903994e+00 -6.007130e+00 7.455600e-01
      vertex   3.912952e+00 -6.004987e+00 6.822435e-01
      vertex   3.925602e+00 -6.025119e+00 7.455600e-01
    endloop
  endfacet
  facet normal -6.355095e-01 -7.633665e-01 -1.157555e-01
    outer loop
      vertex   3.925602e+00 -6.025119e+00 7.455600e-01
      vertex   3.912952e+00 -6.004987e+00 6.822435e-01
      vertex   3.934602e+00 -6.023011e+00 6.822435e-01
    endloop
  endfacet
  facet normal -6.448062e-01 -7.553676e-01 -1.168105e-01
    outer loop
      vertex   3.925602e+00 -6.025119e+00 7.455600e-01
      vertex   3.934602e+00 -6.023011e+00 6.822435e-01
      vertex   3.946790e+00 -6.043206e+00 7.455600e-01
    endloop
  endfacet
  facet normal -6.346936e-01 -7.623935e-01 -1.261750e-01
    outer loop
      vertex   3.894196e+00 -6.009475e+00 8.090138e-01
      vertex   3.903994e+00 -6.007130e+00 7.455600e-01
      vertex   3.915759e+00 -6.027426e+00 8.090138e-01
    endloop
  endfacet
  facet normal -6.346954e-01 -7.623922e-01 -1.261742e-01
    outer loop
      vertex   3.915759e+00 -6.027426e+00 8.090138e-01
      vertex   3.903994e+00 -6.007130e+00 7.455600e-01
      vertex   3.925602e+00 -6.025119e+00 7.455600e-01
    endloop
  endfacet
  facet normal -6.439669e-01 -7.543844e-01 -1.273214e-01
    outer loop
      vertex   3.915759e+00 -6.027426e+00 8.090138e-01
      vertex   3.925602e+00 -6.025119e+00 7.455600e-01
      vertex   3.936893e+00 -6.045467e+00 8.090138e-01
    endloop
  endfacet
  facet normal -6.439669e-01 -7.543844e-01 -1.273214e-01
    outer loop
      vertex   3.936893e+00 -6.045467e+00 8.090138e-01
      vertex   3.925602e+00 -6.025119e+00 7.455600e-01
      vertex   3.946790e+00 -6.043206e+00 7.455600e-01
    endloop
  endfacet
  facet normal -6.532989e-01 -7.461185e-01 -1.284823e-01
    outer loop
      vertex   3.936893e+00 -6.045467e+00 8.090138e-01
      vertex   3.946790e+00 -6.043206e+00 7.455600e-01
      vertex   3.957574e+00 -6.063575e+00 8.090138e-01
    endloop
  endfacet
  facet normal -6.338033e-01 -7.613277e-01 -1.366514e-01
    outer loop
      vertex   3.883551e+00 -6.012024e+00 8.725852e-01
      vertex   3.894196e+00 -6.009475e+00 8.090138e-01
      vertex   3.905063e+00 -6.029932e+00 8.725852e-01
    endloop
  endfacet
  facet normal -6.338051e-01 -7.613263e-01 -1.366506e-01
    outer loop
      vertex   3.905063e+00 -6.029932e+00 8.725852e-01
      vertex   3.894196e+00 -6.009475e+00 8.090138e-01
      vertex   3.915759e+00 -6.027426e+00 8.090138e-01
    endloop
  endfacet
  facet normal -6.430489e-01 -7.533090e-01 -1.378898e-01
    outer loop
      vertex   3.905063e+00 -6.029932e+00 8.725852e-01
      vertex   3.915759e+00 -6.027426e+00 8.090138e-01
      vertex   3.926140e+00 -6.047924e+00 8.725852e-01
    endloop
  endfacet
  facet normal -6.430489e-01 -7.533090e-01 -1.378898e-01
    outer loop
      vertex   3.926140e+00 -6.047924e+00 8.725852e-01
      vertex   3.915759e+00 -6.027426e+00 8.090138e-01
      vertex   3.936893e+00 -6.045467e+00 8.090138e-01
    endloop
  endfacet
  facet normal -6.523506e-01 -7.450355e-01 -1.391434e-01
    outer loop
      vertex   3.926140e+00 -6.047924e+00 8.725852e-01
      vertex   3.936893e+00 -6.045467e+00 8.090138e-01
      vertex   3.946764e+00 -6.065982e+00 8.725852e-01
    endloop
  endfacet
  facet normal -6.523506e-01 -7.450355e-01 -1.391434e-01
    outer loop
      vertex   3.946764e+00 -6.065982e+00 8.725852e-01
      vertex   3.936893e+00 -6.045467e+00 8.090138e-01
      vertex   3.957574e+00 -6.063575e+00 8.090138e-01
    endloop
  endfacet
  facet normal -6.617006e-01 -7.365034e-01 -1.404102e-01
    outer loop
      vertex   3.946764e+00 -6.065982e+00 8.725852e-01
      vertex   3.957574e+00 -6.063575e+00 8.090138e-01
      vertex   3.966934e+00 -6.084104e+00 8.725852e-01
    endloop
  endfacet
  facet normal -6.328352e-01 -7.601684e-01 -1.471856e-01
    outer loop
      vertex   3.872051e+00 -6.014778e+00 9.362542e-01
      vertex   3.883551e+00 -6.012024e+00 8.725852e-01
      vertex   3.893507e+00 -6.032640e+00 9.362542e-01
    endloop
  endfacet
  facet normal -6.328370e-01 -7.601670e-01 -1.471849e-01
    outer loop
      vertex   3.893507e+00 -6.032640e+00 9.362542e-01
      vertex   3.883551e+00 -6.012024e+00 8.725852e-01
      vertex   3.905063e+00 -6.029932e+00 8.725852e-01
    endloop
  endfacet
  facet normal -6.420507e-01 -7.521396e-01 -1.485157e-01
    outer loop
      vertex   3.893507e+00 -6.032640e+00 9.362542e-01
      vertex   3.905063e+00 -6.029932e+00 8.725852e-01
      vertex   3.914522e+00 -6.050579e+00 9.362542e-01
    endloop
  endfacet
  facet normal -6.420507e-01 -7.521396e-01 -1.485157e-01
    outer loop
      vertex   3.914522e+00 -6.050579e+00 9.362542e-01
      vertex   3.905063e+00 -6.029932e+00 8.725852e-01
      vertex   3.926140e+00 -6.047924e+00 8.725852e-01
    endloop
  endfacet
  facet normal -6.513194e-01 -7.438578e-01 -1.498617e-01
    outer loop
      vertex   3.914522e+00 -6.050579e+00 9.362542e-01
      vertex   3.926140e+00 -6.047924e+00 8.725852e-01
      vertex   3.935085e+00 -6.068584e+00 9.362542e-01
    endloop
  endfacet
  facet normal -6.513194e-01 -7.438578e-01 -1.498617e-01
    outer loop
      vertex   3.935085e+00 -6.068584e+00 9.362542e-01
      vertex   3.926140e+00 -6.047924e+00 8.725852e-01
      vertex   3.946764e+00 -6.065982e+00 8.725852e-01
    endloop
  endfacet
  facet normal -6.606356e-01 -7.353180e-01 -1.512217e-01
    outer loop
      vertex   3.935085e+00 -6.068584e+00 9.362542e-01
      vertex   3.946764e+00 -6.065982e+00 8.725852e-01
      vertex   3.955195e+00 -6.086652e+00 9.362542e-01
    endloop
  endfacet
  facet normal -6.606356e-01 -7.353180e-01 -1.512217e-01
    outer loop
      vertex   3.955195e+00 -6.086652e+00 9.362542e-01
      vertex   3.946764e+00 -6.065982e+00 8.725852e-01
      vertex   3.966934e+00 -6.084104e+00 8.725852e-01
    endloop
  endfacet
  facet normal -6.699947e-01 -7.265136e-01 -1.525949e-01
    outer loop
      vertex   3.955195e+00 -6.086652e+00 9.362542e-01
      vertex   3.966934e+00 -6.084104e+00 8.725852e-01
      vertex   3.974853e+00 -6.104780e+00 9.362542e-01
    endloop
  endfacet
  facet normal -6.562949e-01 -7.495402e-01 -8.640881e-02
    outer loop
      vertex   3.977980e+00 -6.036079e+00 4.933087e-01
      vertex   3.992286e+00 -6.055844e+00 5.560993e-01
      vertex   3.971424e+00 -6.037577e+00 5.560993e-01
    endloop
  endfacet
  facet normal -6.556625e-01 -7.488180e-01 -9.684170e-02
    outer loop
      vertex   3.971424e+00 -6.037577e+00 5.560993e-01
      vertex   3.992286e+00 -6.055844e+00 5.560993e-01
      vertex   3.984870e+00 -6.057496e+00 6.190837e-01
    endloop
  endfacet
  facet normal -6.556625e-01 -7.488180e-01 -9.684170e-02
    outer loop
      vertex   3.971424e+00 -6.037577e+00 5.560993e-01
      vertex   3.984870e+00 -6.057496e+00 6.190837e-01
      vertex   3.964046e+00 -6.039263e+00 6.190837e-01
    endloop
  endfacet
  facet normal -6.549533e-01 -7.480081e-01 -1.073315e-01
    outer loop
      vertex   3.964046e+00 -6.039263e+00 6.190837e-01
      vertex   3.984870e+00 -6.057496e+00 6.190837e-01
      vertex   3.976618e+00 -6.059333e+00 6.822435e-01
    endloop
  endfacet
  facet normal -6.710945e-01 -7.277062e-01 -1.416894e-01
    outer loop
      vertex   3.997569e+00 -6.099978e+00 8.090138e-01
      vertex   3.986649e+00 -6.102286e+00 8.725852e-01
      vertex   3.977799e+00 -6.081746e+00 8.090138e-01
    endloop
  endfacet
  facet normal 1.000000e+00 0.000000e+00 -7.306172e-15
    outer loop
      vertex   4.000000e+00 -6.143766e+00 1.000000e+00
      vertex   4.000000e+00 -6.129366e+00 9.392172e-01
      vertex   4.000000e+00 -6.000000e+00 1.000000e+00
    endloop
  endfacet
  facet normal 1.000000e+00 -3.113426e-15 -6.797691e-16
    outer loop
      vertex   4.000000e+00 -6.000000e+00 1.000000e+00
      vertex   4.000000e+00 -6.129366e+00 9.392172e-01
      vertex   4.000000e+00 -6.116017e+00 8.780759e-01
    endloop
  endfacet
  facet normal 1.000000e+00 -3.161659e-15 -6.338733e-16
    outer loop
      vertex   4.000000e+00 -6.000000e+00 1.000000e+00
      vertex   4.000000e+00 -6.116017e+00 8.780759e-01
      vertex   4.000000e+00 -6.103668e+00 8.164813e-01
    endloop
  endfacet
  facet normal 1.000000e+00 -3.234452e-15 -5.927536e-16
    outer loop
      vertex   4.000000e+00 -6.103668e+00 8.164813e-01
      vertex   4.000000e+00 -6.092307e+00 7.544910e-01
      vertex   4.000000e+00 -6.000000e+00 1.000000e+00
    endloop
  endfacet
  facet normal 1.000000e+00 -3.333780e-15 -5.554079e-16
    outer loop
      vertex   4.000000e+00 -6.000000e+00 1.000000e+00
      vertex   4.000000e+00 -6.092307e+00 7.544910e-01
      vertex   4.000000e+00 -6.081923e+00 6.921626e-01
    endloop
  endfacet
  facet normal 1.000000e+00 -2.049034e-14 4.010380e-15
    outer loop
      vertex   4.000000e+00 -6.000000e+00 1.000000e+00
      vertex   4.000000e+00 -6.081923e+00 6.921626e-01
      vertex   4.000000e+00 -6.072504e+00 6.295536e-01
    endloop
  endfacet
  facet normal 1.000000e+00 -0.000000e+00 0.000000e+00
    outer loop
      vertex   4.000000e+00 -6.072504e+00 6.295536e-01
      vertex   4.000000e+00 -6.064038e+00 5.667214e-01
      vertex   4.000000e+00 -6.000000e+00 1.000000e+00
    endloop
  endfacet
  facet normal 1.000000e+00 -2.637673e-14 3.898419e-15
    outer loop
      vertex   4.000000e+00 -6.000000e+00 1.000000e+00
      vertex   4.000000e+00 -6.064038e+00 5.667214e-01
      vertex   4.000000e+00 -6.056512e+00 5.037237e-01
    endloop
  endfacet
  facet normal 1.000000e+00 3.631862e-14 -3.240838e-15
    outer loop
      vertex   4.000000e+00 -6.000000e+00 1.000000e+00
      vertex   4.000000e+00 -6.056512e+00 5.037237e-01
      vertex   4.000000e+00 -6.049916e+00 4.406180e-01
    endloop
  endfacet
  facet normal 1.000000e+00 -0.000000e+00 0.000000e+00
    outer loop
      vertex   4.000000e+00 -6.049916e+00 4.406180e-01
      vertex   4.000000e+00 -6.044236e+00 3.774618e-01
      vertex   4.000000e+00 -6.000000e+00 1.000000e+00
    endloop
  endfacet
  facet normal 1.000000e+00 0.000000e+00 0.000000e+00
    outer loop
      vertex   4.000000e+00 -6.000000e+00 1.000000e+00
      vertex   4.000000e+00 -6.044236e+00 3.774618e-01
      vertex   4.000000e+00 -6.039462e+00 3.143126e-01
    endloop
  endfacet
  facet normal 1.000000e+00 0.000000e+00 0.000000e+00
    outer loop
      vertex   4.000000e+00 -6.000000e+00 1.000000e+00
      vertex   4.000000e+00 -6.039462e+00 3.143126e-01
      vertex   4.000000e+00 -6.035582e+00 2.512279e-01
    endloop
  endfacet
  facet normal 1.000000e+00 0.000000e+00 0.000000e+00
    outer loop
      vertex   4.000000e+00 -6.000000e+00 1.000000e+00
      vertex   4.000000e+00 -6.035582e+00 2.512279e-01
      vertex   4.000000e+00 -6.000000e+00 0.000000e+00
    endloop
  endfacet
  facet normal 1.000000e+00 -7.503565e-14 -1.062739e-14
    outer loop
      vertex   4.000000e+00 -6.000000e+00 0.000000e+00
      vertex   4.000000e+00 -6.035582e+00 2.512279e-01
      vertex   4.000000e+00 -6.032583e+00 1.882654e-01
    endloop
  endfacet
  facet normal 1.000000e+00 8.471417e-14 1.702013e-14
    outer loop
      vertex   4.000000e+00 -6.000000e+00 0.000000e+00
      vertex   4.000000e+00 -6.032583e+00 1.882654e-01
      vertex   4.000000e+00 -6.030453e+00 1.254824e-01
    endloop
  endfacet
  facet normal 1.000000e+00 -4.781359e-14 -1.514288e-14
    outer loop
      vertex   4.000000e+00 -6.030453e+00 1.254824e-01
      vertex   4.000000e+00 -6.029180e+00 6.280800e-02
      vertex   4.000000e+00 -6.000000e+00 0.000000e+00
    endloop
  endfacet
  facet normal 1.000000e+00 0.000000e+00 7.070584e-15
    outer loop
      vertex   4.000000e+00 -6.000000e+00 0.000000e+00
      vertex   4.000000e+00 -6.029180e+00 6.280800e-02
      vertex   4.000000e+00 -6.028754e+00 0.000000e+00
    endloop
  endfacet
  facet normal 0.000000e+00 0.000000e+00 -1.000000e+00
    outer loop
      vertex   4.000000e+00 -6.028754e+00 0.000000e+00
      vertex   3.965988e+00 -6.000000e+00 0.000000e+00
      vertex   4.000000e+00 -6.000000e+00 0.000000e+00
    endloop
  endfacet
  facet normal 0.000000e+00 -3.240113e-15 1.000000e+00
    outer loop
      vertex   3.837846e+00 -6.000000e+00 1.000000e+00
      vertex   3.879558e+00 -6.034265e+00 1.000000e+00
      vertex   4.000000e+00 -6.000000e+00 1.000000e+00
    endloop
  endfacet
  facet normal 6.585501e-16 -5.554938e-15 1.000000e+00
    outer loop
      vertex   4.000000e+00 -6.000000e+00 1.000000e+00
      vertex   3.879558e+00 -6.034265e+00 1.000000e+00
      vertex   3.900153e+00 -6.051810e+00 1.000000e+00
    endloop
  endfacet
  facet normal -5.449519e-15 6.216525e-15 1.000000e+00
    outer loop
      vertex   4.000000e+00 -6.000000e+00 1.000000e+00
      vertex   3.900153e+00 -6.051810e+00 1.000000e+00
      vertex   3.920562e+00 -6.069637e+00 1.000000e+00
    endloop
  endfacet
  facet normal -0.000000e+00 0.000000e+00 1.000000e+00
    outer loop
      vertex   3.920562e+00 -6.069637e+00 1.000000e+00
      vertex   3.940768e+00 -6.087747e+00 1.000000e+00
      vertex   4.000000e+00 -6.000000e+00 1.000000e+00
    endloop
  endfacet
  facet normal 0.000000e+00 0.000000e+00 1.000000e+00
    outer loop
      vertex   4.000000e+00 -6.000000e+00 1.000000e+00
      vertex   3.940768e+00 -6.087747e+00 1.000000e+00
      vertex   3.960754e+00 -6.106139e+00 1.000000e+00
    endloop
  endfacet
  facet normal 0.000000e+00 0.000000e+00 1.000000e+00
    outer loop
      vertex   4.000000e+00 -6.000000e+00 1.000000e+00
      vertex   3.960754e+00 -6.106139e+00 1.000000e+00
      vertex   3.980504e+00 -6.124812e+00 1.000000e+00
    endloop
  endfacet
  facet normal -0.000000e+00 0.000000e+00 1.000000e+00
    outer loop
      vertex   3.980504e+00 -6.124812e+00 1.000000e+00
      vertex   4.000000e+00 -6.143766e+00 1.000000e+00
      vertex   4.000000e+00 -6.000000e+00 1.000000e+00
    endloop
  endfacet
  facet normal 0.000000e+00 1.000000e+00 -0.000000e+00
    outer loop
      vertex   3.965988e+00 -6.000000e+00 0.000000e+00
      vertex   3.965485e+00 -6.000000e+00 6.314464e-02
      vertex   4.000000e+00 -6.000000e+00 0.000000e+00
    endloop
  endfacet
  facet normal 0.000000e+00 1.000000e+00 0.000000e+00
    outer loop
      vertex   4.000000e+00 -6.000000e+00 0.000000e+00
      vertex   3.965485e+00 -6.000000e+00 6.314464e-02
      vertex   3.963977e+00 -6.000000e+00 1.262777e-01
    endloop
  endfacet
  facet normal 0.000000e+00 1.000000e+00 0.000000e+00
    outer loop
      vertex   4.000000e+00 -6.000000e+00 0.000000e+00
      vertex   3.963977e+00 -6.000000e+00 1.262777e-01
      vertex   3.961464e+00 -6.000000e+00 1.893871e-01
    endloop
  endfacet
  facet normal -0.000000e+00 1.000000e+00 -0.000000e+00
    outer loop
      vertex   3.961464e+00 -6.000000e+00 1.893871e-01
      vertex   3.957944e+00 -6.000000e+00 2.524608e-01
      vertex   4.000000e+00 -6.000000e+00 0.000000e+00
    endloop
  endfacet
  facet normal 0.000000e+00 1.000000e+00 -0.000000e+00
    outer loop
      vertex   4.000000e+00 -6.000000e+00 0.000000e+00
      vertex   3.957944e+00 -6.000000e+00 2.524608e-01
      vertex   4.000000e+00 -6.000000e+00 1.000000e+00
    endloop
  endfacet
  facet normal 0.000000e+00 1.000000e+00 0.000000e+00
    outer loop
      vertex   4.000000e+00 -6.000000e+00 1.000000e+00
      vertex   3.957944e+00 -6.000000e+00 2.524608e-01
      vertex   3.953420e+00 -6.000000e+00 3.154868e-01
    endloop
  endfacet
  facet normal 0.000000e+00 1.000000e+00 0.000000e+00
    outer loop
      vertex   4.000000e+00 -6.000000e+00 1.000000e+00
      vertex   3.953420e+00 -6.000000e+00 3.154868e-01
      vertex   3.947890e+00 -6.000000e+00 3.784530e-01
    endloop
  endfacet
  facet normal 0.000000e+00 1.000000e+00 -0.000000e+00
    outer loop
      vertex   3.947890e+00 -6.000000e+00 3.784530e-01
      vertex   3.941354e+00 -6.000000e+00 4.413474e-01
      vertex   4.000000e+00 -6.000000e+00 1.000000e+00
    endloop
  endfacet
  facet normal 1.256780e-13 1.000000e+00 -1.319331e-14
    outer loop
      vertex   4.000000e+00 -6.000000e+00 1.000000e+00
      vertex   3.941354e+00 -6.000000e+00 4.413474e-01
      vertex   3.933813e+00 -6.000000e+00 5.041553e-01
    endloop
  endfacet
  facet normal -9.180511e-14 1.000000e+00 1.583685e-14
    outer loop
      vertex   4.000000e+00 -6.000000e+00 1.000000e+00
      vertex   3.933813e+00 -6.000000e+00 5.041553e-01
      vertex   3.925274e+00 -6.000000e+00 5.668193e-01
    endloop
  endfacet
  facet normal 0.000000e+00 1.000000e+00 -0.000000e+00
    outer loop
      vertex   3.925274e+00 -6.000000e+00 5.668193e-01
      vertex   3.915741e+00 -6.000000e+00 6.293114e-01
      vertex   4.000000e+00 -6.000000e+00 1.000000e+00
    endloop
  endfacet
  facet normal 0.000000e+00 1.000000e+00 0.000000e+00
    outer loop
      vertex   4.000000e+00 -6.000000e+00 1.000000e+00
      vertex   3.915741e+00 -6.000000e+00 6.293114e-01
      vertex   3.905217e+00 -6.000000e+00 6.916198e-01
    endloop
  endfacet
  facet normal 0.000000e+00 1.000000e+00 0.000000e+00
    outer loop
      vertex   4.000000e+00 -6.000000e+00 1.000000e+00
      vertex   3.905217e+00 -6.000000e+00 6.916198e-01
      vertex   3.893706e+00 -6.000000e+00 7.537329e-01
    endloop
  endfacet
  facet normal 0.000000e+00 1.000000e+00 -0.000000e+00
    outer loop
      vertex   3.893706e+00 -6.000000e+00 7.537329e-01
      vertex   3.881210e+00 -6.000000e+00 8.156392e-01
      vertex   4.000000e+00 -6.000000e+00 1.000000e+00
    endloop
  endfacet
  facet normal 0.000000e+00 1.000000e+00 0.000000e+00
    outer loop
      vertex   4.000000e+00 -6.000000e+00 1.000000e+00
      vertex   3.881210e+00 -6.000000e+00 8.156392e-01
      vertex   3.867733e+00 -6.000000e+00 8.773269e-01
    endloop
  endfacet
  facet normal 0.000000e+00 1.000000e+00 0.000000e+00
    outer loop
      vertex   4.000000e+00 -6.000000e+00 1.000000e+00
      vertex   3.867733e+00 -6.000000e+00 8.773269e-01
      vertex   3.853277e+00 -6.000000e+00 9.387844e-01
    endloop
  endfacet
  facet normal 0.000000e+00 1.000000e+00 -0.000000e+00
    outer loop
      vertex   3.853277e+00 -6.000000e+00 9.387844e-01
      vertex   3.837846e+00 -6.000000e+00 1.000000e+00
      vertex   4.000000e+00 -6.000000e+00 1.000000e+00
    endloop
  endfacet
endsolid
