solid ASCII
  facet normal 8.124591e-01 -2.792736e-01 -5.117778e-01
    outer loop
      vertex   8.956559e+00 -2.867640e+00 -6.000000e+00
      vertex   8.974264e+00 -2.946903e+00 -5.928640e+00
      vertex   8.911062e+00 -3.000000e+00 -6.000000e+00
    endloop
  endfacet
  facet normal 8.126006e-01 -2.810613e-01 -5.105730e-01
    outer loop
      vertex   8.911062e+00 -3.000000e+00 -6.000000e+00
      vertex   8.974264e+00 -2.946903e+00 -5.928640e+00
      vertex   8.962748e+00 -2.980197e+00 -5.928640e+00
    endloop
  endfacet
  facet normal 8.122802e-01 -2.837499e-01 -5.095948e-01
    outer loop
      vertex   8.911062e+00 -3.000000e+00 -6.000000e+00
      vertex   8.962748e+00 -2.980197e+00 -5.928640e+00
      vertex   8.955805e+00 -3.000000e+00 -5.928681e+00
    endloop
  endfacet
  facet normal 8.158297e-01 -2.850078e-01 -5.031823e-01
    outer loop
      vertex   8.955805e+00 -3.000000e+00 -5.928681e+00
      vertex   8.962748e+00 -2.980197e+00 -5.928640e+00
      vertex   9.000000e+00 -3.000000e+00 -5.857026e+00
    endloop
  endfacet
  facet normal 8.168071e-01 -2.825162e-01 -5.030017e-01
    outer loop
      vertex   9.000000e+00 -3.000000e+00 -5.857026e+00
      vertex   8.962748e+00 -2.980197e+00 -5.928640e+00
      vertex   8.974264e+00 -2.946903e+00 -5.928640e+00
    endloop
  endfacet
  facet normal 8.164012e-01 -2.831335e-01 -5.033135e-01
    outer loop
      vertex   9.000000e+00 -3.000000e+00 -5.857026e+00
      vertex   8.974264e+00 -2.946903e+00 -5.928640e+00
      vertex   9.000000e+00 -2.934319e+00 -5.893974e+00
    endloop
  endfacet
  facet normal 8.167443e-01 -2.789642e-01 -5.050818e-01
    outer loop
      vertex   9.000000e+00 -2.934319e+00 -5.893974e+00
      vertex   8.974264e+00 -2.946903e+00 -5.928640e+00
      vertex   8.985640e+00 -2.913597e+00 -5.928640e+00
    endloop
  endfacet
  facet normal 8.184112e-01 -2.760092e-01 -5.040060e-01
    outer loop
      vertex   9.000000e+00 -2.934319e+00 -5.893974e+00
      vertex   8.985640e+00 -2.913597e+00 -5.928640e+00
      vertex   8.996870e+00 -2.880297e+00 -5.928640e+00
    endloop
  endfacet
  facet normal 8.154085e-01 -2.749965e-01 -5.093976e-01
    outer loop
      vertex   8.996870e+00 -2.880297e+00 -5.928640e+00
      vertex   8.985640e+00 -2.913597e+00 -5.928640e+00
      vertex   8.956559e+00 -2.867640e+00 -6.000000e+00
    endloop
  endfacet
  facet normal 8.159619e-01 -2.733213e-01 -5.094131e-01
    outer loop
      vertex   8.996870e+00 -2.880297e+00 -5.928640e+00
      vertex   8.956559e+00 -2.867640e+00 -6.000000e+00
      vertex   9.000000e+00 -2.868191e+00 -5.930122e+00
    endloop
  endfacet
  facet normal 8.166086e-01 -2.706663e-01 -5.097942e-01
    outer loop
      vertex   9.000000e+00 -2.868191e+00 -5.930122e+00
      vertex   8.956559e+00 -2.867640e+00 -6.000000e+00
      vertex   9.000000e+00 -2.801621e+00 -5.965466e+00
    endloop
  endfacet
  facet normal 8.142951e-01 -2.659214e-01 -5.159548e-01
    outer loop
      vertex   9.000000e+00 -2.801621e+00 -5.965466e+00
      vertex   8.956559e+00 -2.867640e+00 -6.000000e+00
      vertex   9.000000e+00 -2.734617e+00 -6.000000e+00
    endloop
  endfacet
  facet normal 8.213274e-01 -2.736233e-01 -5.005513e-01
    outer loop
      vertex   9.000000e+00 -2.868191e+00 -5.930122e+00
      vertex   9.000000e+00 -2.934319e+00 -5.893974e+00
      vertex   8.996870e+00 -2.880297e+00 -5.928640e+00
    endloop
  endfacet
  facet normal 8.136802e-01 -2.779176e-01 -5.105746e-01
    outer loop
      vertex   8.974264e+00 -2.946903e+00 -5.928640e+00
      vertex   8.956559e+00 -2.867640e+00 -6.000000e+00
      vertex   8.985640e+00 -2.913597e+00 -5.928640e+00
    endloop
  endfacet
  facet normal 1.000000e+00 -0.000000e+00 0.000000e+00
    outer loop
      vertex   9.000000e+00 -3.000000e+00 -5.857026e+00
      vertex   9.000000e+00 -2.934319e+00 -5.893974e+00
      vertex   9.000000e+00 -3.000000e+00 -5.000000e+00
    endloop
  endfacet
  facet normal 1.000000e+00 0.000000e+00 0.000000e+00
    outer loop
      vertex   9.000000e+00 -3.000000e+00 -5.000000e+00
      vertex   9.000000e+00 -2.934319e+00 -5.893974e+00
      vertex   9.000000e+00 -2.868191e+00 -5.930122e+00
    endloop
  endfacet
  facet normal 1.000000e+00 0.000000e+00 0.000000e+00
    outer loop
      vertex   9.000000e+00 -3.000000e+00 -5.000000e+00
      vertex   9.000000e+00 -2.868191e+00 -5.930122e+00
      vertex   9.000000e+00 -2.801621e+00 -5.965466e+00
    endloop
  endfacet
  facet normal 1.000000e+00 -0.000000e+00 0.000000e+00
    outer loop
      vertex   9.000000e+00 -3.000000e+00 -5.000000e+00
      vertex   9.000000e+00 -2.801621e+00 -5.965466e+00
      vertex   9.000000e+00 -2.000000e+00 -5.000000e+00
    endloop
  endfacet
  facet normal 1.000000e+00 0.000000e+00 0.000000e+00
    outer loop
      vertex   9.000000e+00 -2.000000e+00 -5.000000e+00
      vertex   9.000000e+00 -2.801621e+00 -5.965466e+00
      vertex   9.000000e+00 -2.734617e+00 -6.000000e+00
    endloop
  endfacet
  facet normal 1.000000e+00 0.000000e+00 0.000000e+00
    outer loop
      vertex   9.000000e+00 -2.000000e+00 -5.000000e+00
      vertex   9.000000e+00 -2.734617e+00 -6.000000e+00
      vertex   9.000000e+00 -2.000000e+00 -6.000000e+00
    endloop
  endfacet
  facet normal -0.000000e+00 0.000000e+00 -1.000000e+00
    outer loop
      vertex   8.956559e+00 -2.867640e+00 -6.000000e+00
      vertex   8.000000e+00 -3.000000e+00 -6.000000e+00
      vertex   9.000000e+00 -2.734617e+00 -6.000000e+00
    endloop
  endfacet
  facet normal -0.000000e+00 0.000000e+00 -1.000000e+00
    outer loop
      vertex   9.000000e+00 -2.734617e+00 -6.000000e+00
      vertex   8.000000e+00 -3.000000e+00 -6.000000e+00
      vertex   8.000000e+00 -2.000000e+00 -6.000000e+00
    endloop
  endfacet
  facet normal 0.000000e+00 0.000000e+00 -1.000000e+00
    outer loop
      vertex   9.000000e+00 -2.734617e+00 -6.000000e+00
      vertex   8.000000e+00 -2.000000e+00 -6.000000e+00
      vertex   9.000000e+00 -2.000000e+00 -6.000000e+00
    endloop
  endfacet
  facet normal 0.000000e+00 0.000000e+00 -1.000000e+00
    outer loop
      vertex   8.956559e+00 -2.867640e+00 -6.000000e+00
      vertex   8.911062e+00 -3.000000e+00 -6.000000e+00
      vertex   8.000000e+00 -3.000000e+00 -6.000000e+00
    endloop
  endfacet
  facet normal 0.000000e+00 0.000000e+00 1.000000e+00
    outer loop
      vertex   9.000000e+00 -2.000000e+00 -5.000000e+00
      vertex   8.000000e+00 -2.000000e+00 -5.000000e+00
      vertex   9.000000e+00 -3.000000e+00 -5.000000e+00
    endloop
  endfacet
  facet normal 0.000000e+00 0.000000e+00 1.000000e+00
    outer loop
      vertex   9.000000e+00 -3.000000e+00 -5.000000e+00
      vertex   8.000000e+00 -2.000000e+00 -5.000000e+00
      vertex   8.000000e+00 -3.000000e+00 -5.000000e+00
    endloop
  endfacet
  facet normal 0.000000e+00 -1.000000e+00 0.000000e+00
    outer loop
      vertex   8.911062e+00 -3.000000e+00 -6.000000e+00
      vertex   8.955805e+00 -3.000000e+00 -5.928681e+00
      vertex   8.000000e+00 -3.000000e+00 -6.000000e+00
    endloop
  endfacet
  facet normal 0.000000e+00 -1.000000e+00 0.000000e+00
    outer loop
      vertex   8.000000e+00 -3.000000e+00 -6.000000e+00
      vertex   8.955805e+00 -3.000000e+00 -5.928681e+00
      vertex   9.000000e+00 -3.000000e+00 -5.857026e+00
    endloop
  endfacet
  facet normal 0.000000e+00 -1.000000e+00 0.000000e+00
    outer loop
      vertex   8.000000e+00 -3.000000e+00 -6.000000e+00
      vertex   9.000000e+00 -3.000000e+00 -5.857026e+00
      vertex   8.000000e+00 -3.000000e+00 -5.000000e+00
    endloop
  endfacet
  facet normal 0.000000e+00 -1.000000e+00 0.000000e+00
    outer loop
      vertex   8.000000e+00 -3.000000e+00 -5.000000e+00
      vertex   9.000000e+00 -3.000000e+00 -5.857026e+00
      vertex   9.000000e+00 -3.000000e+00 -5.000000e+00
    endloop
  endfacet
  facet normal -1.000000e+00 -0.000000e+00 -0.000000e+00
    outer loop
      vertex   8.000000e+00 -2.000000e+00 -5.000000e+00
      vertex   8.000000e+00 -2.000000e+00 -6.000000e+00
      vertex   8.000000e+00 -3.000000e+00 -5.000000e+00
    endloop
  endfacet
  facet normal -1.000000e+00 0.000000e+00 0.000000e+00
    outer loop
      vertex   8.000000e+00 -3.000000e+00 -5.000000e+00
      vertex   8.000000e+00 -2.000000e+00 -6.000000e+00
      vertex   8.000000e+00 -3.000000e+00 -6.000000e+00
    endloop
  endfacet
  facet normal 0.000000e+00 1.000000e+00 0.000000e+00
    outer loop
      vertex   9.000000e+00 -2.000000e+00 -5.000000e+00
      vertex   9.000000e+00 -2.000000e+00 -6.000000e+00
      vertex   8.000000e+00 -2.000000e+00 -5.000000e+00
    endloop
  endfacet
  facet normal 0.000000e+00 1.000000e+00 0.000000e+00
    outer loop
      vertex   8.000000e+00 -2.000000e+00 -5.000000e+00
      vertex   9.000000e+00 -2.000000e+00 -6.000000e+00
      vertex   8.000000e+00 -2.000000e+00 -6.000000e+00
    endloop
  endfacet
endsolid
