solid ASCII
  facet normal -8.175236e-01 4.689265e-01 -3.343099e-01
    outer loop
      vertex   -9.075392e+00 5.000000e+00 -3.877071e+00
      vertex   -9.025123e+00 5.000000e+00 -4.000000e+00
      vertex   -9.101704e+00 4.951886e+00 -3.880217e+00
    endloop
  endfacet
  facet normal -8.181844e-01 4.668810e-01 -3.355539e-01
    outer loop
      vertex   -9.101704e+00 4.951886e+00 -3.880217e+00
      vertex   -9.025123e+00 5.000000e+00 -4.000000e+00
      vertex   -9.094648e+00 4.878161e+00 -4.000000e+00
    endloop
  endfacet
  facet normal -8.210314e-01 4.633199e-01 -3.335298e-01
    outer loop
      vertex   -9.101704e+00 4.951886e+00 -3.880217e+00
      vertex   -9.094648e+00 4.878161e+00 -4.000000e+00
      vertex   -9.140584e+00 4.882988e+00 -3.880217e+00
    endloop
  endfacet
  facet normal -8.243201e-01 4.567159e-01 -3.345249e-01
    outer loop
      vertex   -9.140584e+00 4.882988e+00 -3.880217e+00
      vertex   -9.094648e+00 4.878161e+00 -4.000000e+00
      vertex   -9.178876e+00 4.813875e+00 -3.880217e+00
    endloop
  endfacet
  facet normal -8.276193e-01 4.585439e-01 -3.237033e-01
    outer loop
      vertex   -9.140584e+00 4.882988e+00 -3.880217e+00
      vertex   -9.178876e+00 4.813875e+00 -3.880217e+00
      vertex   -9.215234e+00 4.832943e+00 -3.760249e+00
    endloop
  endfacet
  facet normal -8.311631e-01 4.520578e-01 -3.237463e-01
    outer loop
      vertex   -9.215234e+00 4.832943e+00 -3.760249e+00
      vertex   -9.178876e+00 4.813875e+00 -3.880217e+00
      vertex   -9.253086e+00 4.763348e+00 -3.760249e+00
    endloop
  endfacet
  facet normal -8.341898e-01 4.537040e-01 -3.134965e-01
    outer loop
      vertex   -9.215234e+00 4.832943e+00 -3.760249e+00
      vertex   -9.253086e+00 4.763348e+00 -3.760249e+00
      vertex   -9.288356e+00 4.781505e+00 -3.640121e+00
    endloop
  endfacet
  facet normal -8.376934e-01 4.471729e-01 -3.135380e-01
    outer loop
      vertex   -9.288356e+00 4.781505e+00 -3.640121e+00
      vertex   -9.253086e+00 4.763348e+00 -3.760249e+00
      vertex   -9.325756e+00 4.711442e+00 -3.640121e+00
    endloop
  endfacet
  facet normal -8.406269e-01 4.487389e-01 -3.032818e-01
    outer loop
      vertex   -9.288356e+00 4.781505e+00 -3.640121e+00
      vertex   -9.325756e+00 4.711442e+00 -3.640121e+00
      vertex   -9.359929e+00 4.728707e+00 -3.519858e+00
    endloop
  endfacet
  facet normal -8.440893e-01 4.421641e-01 -3.033218e-01
    outer loop
      vertex   -9.359929e+00 4.728707e+00 -3.519858e+00
      vertex   -9.325756e+00 4.711442e+00 -3.640121e+00
      vertex   -9.396867e+00 4.658191e+00 -3.519858e+00
    endloop
  endfacet
  facet normal -8.469288e-01 4.436516e-01 -2.930612e-01
    outer loop
      vertex   -9.359929e+00 4.728707e+00 -3.519858e+00
      vertex   -9.396867e+00 4.658191e+00 -3.519858e+00
      vertex   -9.429933e+00 4.674583e+00 -3.399485e+00
    endloop
  endfacet
  facet normal -8.503490e-01 4.370345e-01 -2.930996e-01
    outer loop
      vertex   -9.429933e+00 4.674583e+00 -3.399485e+00
      vertex   -9.396867e+00 4.658191e+00 -3.519858e+00
      vertex   -9.466399e+00 4.603630e+00 -3.399485e+00
    endloop
  endfacet
  facet normal -8.530940e-01 4.384453e-01 -2.828363e-01
    outer loop
      vertex   -9.429933e+00 4.674583e+00 -3.399485e+00
      vertex   -9.466399e+00 4.603630e+00 -3.399485e+00
      vertex   -9.498351e+00 4.619169e+00 -3.279024e+00
    endloop
  endfacet
  facet normal -8.564710e-01 4.317871e-01 -2.828732e-01
    outer loop
      vertex   -9.498351e+00 4.619169e+00 -3.279024e+00
      vertex   -9.466399e+00 4.603630e+00 -3.399485e+00
      vertex   -9.534335e+00 4.547794e+00 -3.279024e+00
    endloop
  endfacet
  facet normal -8.591209e-01 4.331231e-01 -2.726090e-01
    outer loop
      vertex   -9.498351e+00 4.619169e+00 -3.279024e+00
      vertex   -9.534335e+00 4.547794e+00 -3.279024e+00
      vertex   -9.565164e+00 4.562499e+00 -3.158501e+00
    endloop
  endfacet
  facet normal -8.624538e-01 4.264253e-01 -2.726443e-01
    outer loop
      vertex   -9.565164e+00 4.562499e+00 -3.158501e+00
      vertex   -9.534335e+00 4.547794e+00 -3.279024e+00
      vertex   -9.600656e+00 4.490717e+00 -3.158501e+00
    endloop
  endfacet
  facet normal -8.650081e-01 4.276882e-01 -2.623810e-01
    outer loop
      vertex   -9.565164e+00 4.562499e+00 -3.158501e+00
      vertex   -9.600656e+00 4.490717e+00 -3.158501e+00
      vertex   -9.630357e+00 4.504609e+00 -3.037938e+00
    endloop
  endfacet
  facet normal -8.682959e-01 4.209521e-01 -2.624147e-01
    outer loop
      vertex   -9.630357e+00 4.504609e+00 -3.037938e+00
      vertex   -9.600656e+00 4.490717e+00 -3.158501e+00
      vertex   -9.665347e+00 4.432435e+00 -3.037938e+00
    endloop
  endfacet
  facet normal -8.698705e-01 4.217155e-01 -2.558931e-01
    outer loop
      vertex   -9.630357e+00 4.504609e+00 -3.037938e+00
      vertex   -9.665347e+00 4.432435e+00 -3.037938e+00
      vertex   -9.640558e+00 4.506589e+00 -3.000000e+00
    endloop
  endfacet
  facet normal -8.725213e-01 4.196712e-01 -2.501653e-01
    outer loop
      vertex   -9.640558e+00 4.506589e+00 -3.000000e+00
      vertex   -9.665347e+00 4.432435e+00 -3.037938e+00
      vertex   -9.700898e+00 4.381137e+00 -3.000000e+00
    endloop
  endfacet
  facet normal -8.728459e-01 4.148243e-01 -2.570233e-01
    outer loop
      vertex   -9.700898e+00 4.381137e+00 -3.000000e+00
      vertex   -9.665347e+00 4.432435e+00 -3.037938e+00
      vertex   -9.699725e+00 4.360099e+00 -3.037938e+00
    endloop
  endfacet
  facet normal -8.768544e-01 4.084278e-01 -2.536001e-01
    outer loop
      vertex   -9.700898e+00 4.381137e+00 -3.000000e+00
      vertex   -9.699725e+00 4.360099e+00 -3.037938e+00
      vertex   -9.733491e+00 4.287607e+00 -3.037938e+00
    endloop
  endfacet
  facet normal -8.747043e-01 4.074263e-01 -2.624809e-01
    outer loop
      vertex   -9.733491e+00 4.287607e+00 -3.037938e+00
      vertex   -9.699725e+00 4.360099e+00 -3.037938e+00
      vertex   -9.669810e+00 4.346652e+00 -3.158501e+00
    endloop
  endfacet
  facet normal -8.747043e-01 4.074263e-01 -2.624809e-01
    outer loop
      vertex   -9.733491e+00 4.287607e+00 -3.037938e+00
      vertex   -9.669810e+00 4.346652e+00 -3.158501e+00
      vertex   -9.703472e+00 4.274383e+00 -3.158501e+00
    endloop
  endfacet
  facet normal -8.721194e-01 4.062223e-01 -2.727475e-01
    outer loop
      vertex   -9.703472e+00 4.274383e+00 -3.158501e+00
      vertex   -9.669810e+00 4.346652e+00 -3.158501e+00
      vertex   -9.638643e+00 4.332642e+00 -3.279024e+00
    endloop
  endfacet
  facet normal -8.721194e-01 4.062223e-01 -2.727475e-01
    outer loop
      vertex   -9.703472e+00 4.274383e+00 -3.158501e+00
      vertex   -9.638643e+00 4.332642e+00 -3.279024e+00
      vertex   -9.672197e+00 4.260606e+00 -3.279024e+00
    endloop
  endfacet
  facet normal -8.694267e-01 4.049681e-01 -2.830161e-01
    outer loop
      vertex   -9.672197e+00 4.260606e+00 -3.279024e+00
      vertex   -9.638643e+00 4.332642e+00 -3.279024e+00
      vertex   -9.606220e+00 4.318067e+00 -3.399485e+00
    endloop
  endfacet
  facet normal -8.694267e-01 4.049681e-01 -2.830161e-01
    outer loop
      vertex   -9.672197e+00 4.260606e+00 -3.279024e+00
      vertex   -9.606220e+00 4.318067e+00 -3.399485e+00
      vertex   -9.639660e+00 4.246274e+00 -3.399485e+00
    endloop
  endfacet
  facet normal -8.666256e-01 4.036634e-01 -2.932847e-01
    outer loop
      vertex   -9.639660e+00 4.246274e+00 -3.399485e+00
      vertex   -9.606220e+00 4.318067e+00 -3.399485e+00
      vertex   -9.572535e+00 4.302926e+00 -3.519858e+00
    endloop
  endfacet
  facet normal -8.666256e-01 4.036634e-01 -2.932847e-01
    outer loop
      vertex   -9.639660e+00 4.246274e+00 -3.399485e+00
      vertex   -9.572535e+00 4.302926e+00 -3.519858e+00
      vertex   -9.605858e+00 4.231384e+00 -3.519858e+00
    endloop
  endfacet
  facet normal -8.637156e-01 4.023080e-01 -3.035516e-01
    outer loop
      vertex   -9.605858e+00 4.231384e+00 -3.519858e+00
      vertex   -9.572535e+00 4.302926e+00 -3.519858e+00
      vertex   -9.537587e+00 4.287216e+00 -3.640121e+00
    endloop
  endfacet
  facet normal -8.637156e-01 4.023080e-01 -3.035516e-01
    outer loop
      vertex   -9.605858e+00 4.231384e+00 -3.519858e+00
      vertex   -9.537587e+00 4.287216e+00 -3.640121e+00
      vertex   -9.570788e+00 4.215936e+00 -3.640121e+00
    endloop
  endfacet
  facet normal -8.606963e-01 4.009016e-01 -3.138150e-01
    outer loop
      vertex   -9.570788e+00 4.215936e+00 -3.640121e+00
      vertex   -9.537587e+00 4.287216e+00 -3.640121e+00
      vertex   -9.501370e+00 4.270936e+00 -3.760249e+00
    endloop
  endfacet
  facet normal -8.606963e-01 4.009016e-01 -3.138150e-01
    outer loop
      vertex   -9.570788e+00 4.215936e+00 -3.640121e+00
      vertex   -9.501370e+00 4.270936e+00 -3.760249e+00
      vertex   -9.534445e+00 4.199927e+00 -3.760249e+00
    endloop
  endfacet
  facet normal -8.575670e-01 3.994440e-01 -3.240729e-01
    outer loop
      vertex   -9.534445e+00 4.199927e+00 -3.760249e+00
      vertex   -9.501370e+00 4.270936e+00 -3.760249e+00
      vertex   -9.463883e+00 4.254086e+00 -3.880217e+00
    endloop
  endfacet
  facet normal -8.575670e-01 3.994440e-01 -3.240729e-01
    outer loop
      vertex   -9.534445e+00 4.199927e+00 -3.760249e+00
      vertex   -9.463883e+00 4.254086e+00 -3.880217e+00
      vertex   -9.496828e+00 4.183356e+00 -3.880217e+00
    endloop
  endfacet
  facet normal -8.541012e-01 3.978297e-01 -3.350264e-01
    outer loop
      vertex   -9.496828e+00 4.183356e+00 -3.880217e+00
      vertex   -9.463883e+00 4.254086e+00 -3.880217e+00
      vertex   -9.416356e+00 4.255248e+00 -4.000000e+00
    endloop
  endfacet
  facet normal -8.542873e-01 3.968046e-01 -3.357667e-01
    outer loop
      vertex   -9.496828e+00 4.183356e+00 -3.880217e+00
      vertex   -9.416356e+00 4.255248e+00 -4.000000e+00
      vertex   -9.475442e+00 4.128041e+00 -4.000000e+00
    endloop
  endfacet
  facet normal -8.246466e-01 4.554637e-01 -3.354265e-01
    outer loop
      vertex   -9.094648e+00 4.878161e+00 -4.000000e+00
      vertex   -9.162459e+00 4.755385e+00 -4.000000e+00
      vertex   -9.178876e+00 4.813875e+00 -3.880217e+00
    endloop
  endfacet
  facet normal -8.281938e-01 4.504429e-01 -3.334610e-01
    outer loop
      vertex   -9.178876e+00 4.813875e+00 -3.880217e+00
      vertex   -9.162459e+00 4.755385e+00 -4.000000e+00
      vertex   -9.216578e+00 4.744555e+00 -3.880217e+00
    endloop
  endfacet
  facet normal -8.311631e-01 4.520578e-01 -3.237463e-01
    outer loop
      vertex   -9.178876e+00 4.813875e+00 -3.880217e+00
      vertex   -9.216578e+00 4.744555e+00 -3.880217e+00
      vertex   -9.253086e+00 4.763348e+00 -3.760249e+00
    endloop
  endfacet
  facet normal -8.346532e-01 4.455500e-01 -3.237889e-01
    outer loop
      vertex   -9.253086e+00 4.763348e+00 -3.760249e+00
      vertex   -9.216578e+00 4.744555e+00 -3.880217e+00
      vertex   -9.290344e+00 4.693552e+00 -3.760249e+00
    endloop
  endfacet
  facet normal -8.376934e-01 4.471729e-01 -3.135380e-01
    outer loop
      vertex   -9.253086e+00 4.763348e+00 -3.760249e+00
      vertex   -9.290344e+00 4.693552e+00 -3.760249e+00
      vertex   -9.325756e+00 4.711442e+00 -3.640121e+00
    endloop
  endfacet
  facet normal -8.411430e-01 4.406207e-01 -3.135791e-01
    outer loop
      vertex   -9.325756e+00 4.711442e+00 -3.640121e+00
      vertex   -9.290344e+00 4.693552e+00 -3.760249e+00
      vertex   -9.362560e+00 4.641185e+00 -3.640121e+00
    endloop
  endfacet
  facet normal -8.440893e-01 4.421641e-01 -3.033218e-01
    outer loop
      vertex   -9.325756e+00 4.711442e+00 -3.640121e+00
      vertex   -9.362560e+00 4.641185e+00 -3.640121e+00
      vertex   -9.396867e+00 4.658191e+00 -3.519858e+00
    endloop
  endfacet
  facet normal -8.474973e-01 4.355688e-01 -3.033614e-01
    outer loop
      vertex   -9.396867e+00 4.658191e+00 -3.519858e+00
      vertex   -9.362560e+00 4.641185e+00 -3.640121e+00
      vertex   -9.433205e+00 4.587488e+00 -3.519858e+00
    endloop
  endfacet
  facet normal -8.503490e-01 4.370345e-01 -2.930996e-01
    outer loop
      vertex   -9.396867e+00 4.658191e+00 -3.519858e+00
      vertex   -9.433205e+00 4.587488e+00 -3.519858e+00
      vertex   -9.466399e+00 4.603630e+00 -3.399485e+00
    endloop
  endfacet
  facet normal -8.537145e-01 4.303974e-01 -2.931376e-01
    outer loop
      vertex   -9.466399e+00 4.603630e+00 -3.399485e+00
      vertex   -9.433205e+00 4.587488e+00 -3.519858e+00
      vertex   -9.502262e+00 4.532495e+00 -3.399485e+00
    endloop
  endfacet
  facet normal -8.564710e-01 4.317871e-01 -2.828732e-01
    outer loop
      vertex   -9.466399e+00 4.603630e+00 -3.399485e+00
      vertex   -9.502262e+00 4.532495e+00 -3.399485e+00
      vertex   -9.534335e+00 4.547794e+00 -3.279024e+00
    endloop
  endfacet
  facet normal -8.597929e-01 4.251097e-01 -2.829096e-01
    outer loop
      vertex   -9.534335e+00 4.547794e+00 -3.279024e+00
      vertex   -9.502262e+00 4.532495e+00 -3.399485e+00
      vertex   -9.569712e+00 4.476243e+00 -3.279024e+00
    endloop
  endfacet
  facet normal -8.624538e-01 4.264253e-01 -2.726443e-01
    outer loop
      vertex   -9.534335e+00 4.547794e+00 -3.279024e+00
      vertex   -9.569712e+00 4.476243e+00 -3.279024e+00
      vertex   -9.600656e+00 4.490717e+00 -3.158501e+00
    endloop
  endfacet
  facet normal -8.657312e-01 4.197088e-01 -2.726792e-01
    outer loop
      vertex   -9.600656e+00 4.490717e+00 -3.158501e+00
      vertex   -9.569712e+00 4.476243e+00 -3.279024e+00
      vertex   -9.635538e+00 4.418765e+00 -3.158501e+00
    endloop
  endfacet
  facet normal -8.682959e-01 4.209521e-01 -2.624147e-01
    outer loop
      vertex   -9.600656e+00 4.490717e+00 -3.158501e+00
      vertex   -9.635538e+00 4.418765e+00 -3.158501e+00
      vertex   -9.665347e+00 4.432435e+00 -3.037938e+00
    endloop
  endfacet
  facet normal -8.715280e-01 4.141979e-01 -2.624480e-01
    outer loop
      vertex   -9.665347e+00 4.432435e+00 -3.037938e+00
      vertex   -9.635538e+00 4.418765e+00 -3.158501e+00
      vertex   -9.699725e+00 4.360099e+00 -3.037938e+00
    endloop
  endfacet
  facet normal -8.309547e-01 4.439497e-01 -3.352954e-01
    outer loop
      vertex   -9.162459e+00 4.755385e+00 -4.000000e+00
      vertex   -9.228546e+00 4.631688e+00 -4.000000e+00
      vertex   -9.216578e+00 4.744555e+00 -3.880217e+00
    endloop
  endfacet
  facet normal -8.311908e-01 4.437018e-01 -3.350382e-01
    outer loop
      vertex   -9.216578e+00 4.744555e+00 -3.880217e+00
      vertex   -9.228546e+00 4.631688e+00 -4.000000e+00
      vertex   -9.253690e+00 4.675034e+00 -3.880217e+00
    endloop
  endfacet
  facet normal -8.346532e-01 4.455500e-01 -3.237889e-01
    outer loop
      vertex   -9.216578e+00 4.744555e+00 -3.880217e+00
      vertex   -9.253690e+00 4.675034e+00 -3.880217e+00
      vertex   -9.290344e+00 4.693552e+00 -3.760249e+00
    endloop
  endfacet
  facet normal -8.380894e-01 4.390212e-01 -3.238311e-01
    outer loop
      vertex   -9.290344e+00 4.693552e+00 -3.760249e+00
      vertex   -9.253690e+00 4.675034e+00 -3.880217e+00
      vertex   -9.327008e+00 4.623561e+00 -3.760249e+00
    endloop
  endfacet
  facet normal -8.411430e-01 4.406207e-01 -3.135791e-01
    outer loop
      vertex   -9.290344e+00 4.693552e+00 -3.760249e+00
      vertex   -9.327008e+00 4.623561e+00 -3.760249e+00
      vertex   -9.362560e+00 4.641185e+00 -3.640121e+00
    endloop
  endfacet
  facet normal -8.445383e-01 4.340481e-01 -3.136197e-01
    outer loop
      vertex   -9.362560e+00 4.641185e+00 -3.640121e+00
      vertex   -9.327008e+00 4.623561e+00 -3.760249e+00
      vertex   -9.398765e+00 4.570739e+00 -3.640121e+00
    endloop
  endfacet
  facet normal -8.474973e-01 4.355688e-01 -3.033614e-01
    outer loop
      vertex   -9.362560e+00 4.641185e+00 -3.640121e+00
      vertex   -9.398765e+00 4.570739e+00 -3.640121e+00
      vertex   -9.433205e+00 4.587488e+00 -3.519858e+00
    endloop
  endfacet
  facet normal -8.508507e-01 4.289537e-01 -3.034004e-01
    outer loop
      vertex   -9.433205e+00 4.587488e+00 -3.519858e+00
      vertex   -9.398765e+00 4.570739e+00 -3.640121e+00
      vertex   -9.468942e+00 4.516602e+00 -3.519858e+00
    endloop
  endfacet
  facet normal -8.537145e-01 4.303974e-01 -2.931376e-01
    outer loop
      vertex   -9.433205e+00 4.587488e+00 -3.519858e+00
      vertex   -9.468942e+00 4.516602e+00 -3.519858e+00
      vertex   -9.502262e+00 4.532495e+00 -3.399485e+00
    endloop
  endfacet
  facet normal -8.570250e-01 4.237411e-01 -2.931751e-01
    outer loop
      vertex   -9.502262e+00 4.532495e+00 -3.399485e+00
      vertex   -9.468942e+00 4.516602e+00 -3.519858e+00
      vertex   -9.537520e+00 4.461185e+00 -3.399485e+00
    endloop
  endfacet
  facet normal -8.597929e-01 4.251097e-01 -2.829096e-01
    outer loop
      vertex   -9.502262e+00 4.532495e+00 -3.399485e+00
      vertex   -9.537520e+00 4.461185e+00 -3.399485e+00
      vertex   -9.569712e+00 4.476243e+00 -3.279024e+00
    endloop
  endfacet
  facet normal -8.630596e-01 4.184136e-01 -2.829456e-01
    outer loop
      vertex   -9.569712e+00 4.476243e+00 -3.279024e+00
      vertex   -9.537520e+00 4.461185e+00 -3.399485e+00
      vertex   -9.604482e+00 4.404523e+00 -3.279024e+00
    endloop
  endfacet
  facet normal -8.657312e-01 4.197088e-01 -2.726792e-01
    outer loop
      vertex   -9.569712e+00 4.476243e+00 -3.279024e+00
      vertex   -9.604482e+00 4.404523e+00 -3.279024e+00
      vertex   -9.635538e+00 4.418765e+00 -3.158501e+00
    endloop
  endfacet
  facet normal -8.689532e-01 4.129742e-01 -2.727136e-01
    outer loop
      vertex   -9.635538e+00 4.418765e+00 -3.158501e+00
      vertex   -9.604482e+00 4.404523e+00 -3.279024e+00
      vertex   -9.669810e+00 4.346652e+00 -3.158501e+00
    endloop
  endfacet
  facet normal -8.715280e-01 4.141979e-01 -2.624480e-01
    outer loop
      vertex   -9.635538e+00 4.418765e+00 -3.158501e+00
      vertex   -9.669810e+00 4.346652e+00 -3.158501e+00
      vertex   -9.699725e+00 4.360099e+00 -3.037938e+00
    endloop
  endfacet
  facet normal -8.350804e-01 4.374450e-01 -3.335905e-01
    outer loop
      vertex   -9.253690e+00 4.675034e+00 -3.880217e+00
      vertex   -9.228546e+00 4.631688e+00 -4.000000e+00
      vertex   -9.290209e+00 4.605319e+00 -3.880217e+00
    endloop
  endfacet
  facet normal -8.369398e-01 4.322541e-01 -3.356904e-01
    outer loop
      vertex   -9.290209e+00 4.605319e+00 -3.880217e+00
      vertex   -9.228546e+00 4.631688e+00 -4.000000e+00
      vertex   -9.292898e+00 4.507088e+00 -4.000000e+00
    endloop
  endfacet
  facet normal -8.381898e-01 4.307853e-01 -3.344578e-01
    outer loop
      vertex   -9.290209e+00 4.605319e+00 -3.880217e+00
      vertex   -9.292898e+00 4.507088e+00 -4.000000e+00
      vertex   -9.326134e+00 4.535418e+00 -3.880217e+00
    endloop
  endfacet
  facet normal -8.416925e-01 4.243366e-01 -3.339045e-01
    outer loop
      vertex   -9.326134e+00 4.535418e+00 -3.880217e+00
      vertex   -9.292898e+00 4.507088e+00 -4.000000e+00
      vertex   -9.361466e+00 4.465337e+00 -3.880217e+00
    endloop
  endfacet
  facet normal -8.447997e-01 4.259031e-01 -3.239138e-01
    outer loop
      vertex   -9.326134e+00 4.535418e+00 -3.880217e+00
      vertex   -9.361466e+00 4.465337e+00 -3.880217e+00
      vertex   -9.398547e+00 4.483024e+00 -3.760249e+00
    endloop
  endfacet
  facet normal -8.480733e-01 4.193151e-01 -3.239544e-01
    outer loop
      vertex   -9.398547e+00 4.483024e+00 -3.760249e+00
      vertex   -9.361466e+00 4.465337e+00 -3.880217e+00
      vertex   -9.433420e+00 4.412492e+00 -3.760249e+00
    endloop
  endfacet
  facet normal -8.511657e-01 4.208441e-01 -3.136994e-01
    outer loop
      vertex   -9.398547e+00 4.483024e+00 -3.760249e+00
      vertex   -9.433420e+00 4.412492e+00 -3.760249e+00
      vertex   -9.469378e+00 4.429311e+00 -3.640121e+00
    endloop
  endfacet
  facet normal -8.543974e-01 4.142141e-01 -3.137384e-01
    outer loop
      vertex   -9.469378e+00 4.429311e+00 -3.640121e+00
      vertex   -9.433420e+00 4.412492e+00 -3.760249e+00
      vertex   -9.503783e+00 4.358343e+00 -3.640121e+00
    endloop
  endfacet
  facet normal -8.573932e-01 4.156665e-01 -3.034771e-01
    outer loop
      vertex   -9.469378e+00 4.429311e+00 -3.640121e+00
      vertex   -9.503783e+00 4.358343e+00 -3.640121e+00
      vertex   -9.538608e+00 4.374314e+00 -3.519858e+00
    endloop
  endfacet
  facet normal -8.605820e-01 4.089958e-01 -3.035146e-01
    outer loop
      vertex   -9.538608e+00 4.374314e+00 -3.519858e+00
      vertex   -9.503783e+00 4.358343e+00 -3.640121e+00
      vertex   -9.572535e+00 4.302926e+00 -3.519858e+00
    endloop
  endfacet
  facet normal -8.634807e-01 4.103734e-01 -2.932487e-01
    outer loop
      vertex   -9.538608e+00 4.374314e+00 -3.519858e+00
      vertex   -9.572535e+00 4.302926e+00 -3.519858e+00
      vertex   -9.606220e+00 4.318067e+00 -3.399485e+00
    endloop
  endfacet
  facet normal -8.428267e-01 4.205001e-01 -3.358910e-01
    outer loop
      vertex   -9.292898e+00 4.507088e+00 -4.000000e+00
      vertex   -9.355505e+00 4.381603e+00 -4.000000e+00
      vertex   -9.361466e+00 4.465337e+00 -3.880217e+00
    endloop
  endfacet
  facet normal -8.449127e-01 4.177524e-01 -3.340741e-01
    outer loop
      vertex   -9.361466e+00 4.465337e+00 -3.880217e+00
      vertex   -9.355505e+00 4.381603e+00 -4.000000e+00
      vertex   -9.396201e+00 4.395083e+00 -3.880217e+00
    endloop
  endfacet
  facet normal -8.480733e-01 4.193151e-01 -3.239544e-01
    outer loop
      vertex   -9.361466e+00 4.465337e+00 -3.880217e+00
      vertex   -9.396201e+00 4.395083e+00 -3.880217e+00
      vertex   -9.433420e+00 4.412492e+00 -3.760249e+00
    endloop
  endfacet
  facet normal -8.512926e-01 4.127089e-01 -3.239944e-01
    outer loop
      vertex   -9.433420e+00 4.412492e+00 -3.760249e+00
      vertex   -9.396201e+00 4.395083e+00 -3.880217e+00
      vertex   -9.467695e+00 4.341794e+00 -3.760249e+00
    endloop
  endfacet
  facet normal -8.543974e-01 4.142141e-01 -3.137384e-01
    outer loop
      vertex   -9.433420e+00 4.412492e+00 -3.760249e+00
      vertex   -9.467695e+00 4.341794e+00 -3.760249e+00
      vertex   -9.503783e+00 4.358343e+00 -3.640121e+00
    endloop
  endfacet
  facet normal -8.575743e-01 4.075664e-01 -3.137770e-01
    outer loop
      vertex   -9.503783e+00 4.358343e+00 -3.640121e+00
      vertex   -9.467695e+00 4.341794e+00 -3.760249e+00
      vertex   -9.537587e+00 4.287216e+00 -3.640121e+00
    endloop
  endfacet
  facet normal -8.605820e-01 4.089958e-01 -3.035146e-01
    outer loop
      vertex   -9.503783e+00 4.358343e+00 -3.640121e+00
      vertex   -9.537587e+00 4.287216e+00 -3.640121e+00
      vertex   -9.572535e+00 4.302926e+00 -3.519858e+00
    endloop
  endfacet
  facet normal -8.480319e-01 4.111281e-01 -3.343883e-01
    outer loop
      vertex   -9.396201e+00 4.395083e+00 -3.880217e+00
      vertex   -9.355505e+00 4.381603e+00 -4.000000e+00
      vertex   -9.430341e+00 4.324664e+00 -3.880217e+00
    endloop
  endfacet
  facet normal -8.486108e-01 4.086846e-01 -3.359115e-01
    outer loop
      vertex   -9.430341e+00 4.324664e+00 -3.880217e+00
      vertex   -9.355505e+00 4.381603e+00 -4.000000e+00
      vertex   -9.416356e+00 4.255248e+00 -4.000000e+00
    endloop
  endfacet
  facet normal -8.513614e-01 4.046137e-01 -3.338735e-01
    outer loop
      vertex   -9.430341e+00 4.324664e+00 -3.880217e+00
      vertex   -9.416356e+00 4.255248e+00 -4.000000e+00
      vertex   -9.463883e+00 4.254086e+00 -3.880217e+00
    endloop
  endfacet
  facet normal -8.575383e-01 3.913794e-01 -3.338418e-01
    outer loop
      vertex   -9.496828e+00 4.183356e+00 -3.880217e+00
      vertex   -9.475442e+00 4.128041e+00 -4.000000e+00
      vertex   -9.529175e+00 4.112482e+00 -3.880217e+00
    endloop
  endfacet
  facet normal -8.597774e-01 3.848245e-01 -3.356976e-01
    outer loop
      vertex   -9.529175e+00 4.112482e+00 -3.880217e+00
      vertex   -9.475442e+00 4.128041e+00 -4.000000e+00
      vertex   -9.532752e+00 4.000000e+00 -4.000000e+00
    endloop
  endfacet
  facet normal -8.600359e-01 3.845106e-01 -3.353951e-01
    outer loop
      vertex   -9.529175e+00 4.112482e+00 -3.880217e+00
      vertex   -9.532752e+00 4.000000e+00 -4.000000e+00
      vertex   -9.560923e+00 4.041471e+00 -3.880217e+00
    endloop
  endfacet
  facet normal -8.629427e-01 3.790189e-01 -3.341775e-01
    outer loop
      vertex   -9.560923e+00 4.041471e+00 -3.880217e+00
      vertex   -9.532752e+00 4.000000e+00 -4.000000e+00
      vertex   -9.580437e+00 4.000000e+00 -3.876862e+00
    endloop
  endfacet
  facet normal -8.658031e-01 3.811736e-01 -3.241784e-01
    outer loop
      vertex   -9.560923e+00 4.041471e+00 -3.880217e+00
      vertex   -9.580437e+00 4.000000e+00 -3.876862e+00
      vertex   -9.598794e+00 4.057479e+00 -3.760249e+00
    endloop
  endfacet
  facet normal -8.667405e-01 3.795813e-01 -3.235412e-01
    outer loop
      vertex   -9.598794e+00 4.057479e+00 -3.760249e+00
      vertex   -9.580437e+00 4.000000e+00 -3.876862e+00
      vertex   -9.626612e+00 4.000000e+00 -3.753163e+00
    endloop
  endfacet
  facet normal -8.692254e-01 3.819699e-01 -3.139207e-01
    outer loop
      vertex   -9.598794e+00 4.057479e+00 -3.760249e+00
      vertex   -9.626612e+00 4.000000e+00 -3.753163e+00
      vertex   -9.635382e+00 4.072945e+00 -3.640121e+00
    endloop
  endfacet
  facet normal -8.699262e-01 3.808969e-01 -3.132827e-01
    outer loop
      vertex   -9.635382e+00 4.072945e+00 -3.640121e+00
      vertex   -9.626612e+00 4.000000e+00 -3.753163e+00
      vertex   -9.666774e+00 4.001249e+00 -3.640121e+00
    endloop
  endfacet
  facet normal -8.716772e-01 3.816636e-01 -3.074278e-01
    outer loop
      vertex   -9.635382e+00 4.072945e+00 -3.640121e+00
      vertex   -9.666774e+00 4.001249e+00 -3.640121e+00
      vertex   -9.671273e+00 4.000000e+00 -3.628916e+00
    endloop
  endfacet
  facet normal -8.868571e-01 3.344557e-01 -3.187849e-01
    outer loop
      vertex   -9.671273e+00 4.000000e+00 -3.628916e+00
      vertex   -9.666774e+00 4.001249e+00 -3.640121e+00
      vertex   -9.626612e+00 4.000000e+00 -3.753163e+00
    endloop
  endfacet
  facet normal -8.766074e-01 3.737576e-01 -3.030919e-01
    outer loop
      vertex   -9.714416e+00 4.000000e+00 -3.504137e+00
      vertex   -9.702197e+00 4.015911e+00 -3.519858e+00
      vertex   -9.671273e+00 4.000000e+00 -3.628916e+00
    endloop
  endfacet
  facet normal -8.728980e-01 3.821981e-01 -3.032716e-01
    outer loop
      vertex   -9.671273e+00 4.000000e+00 -3.628916e+00
      vertex   -9.702197e+00 4.015911e+00 -3.519858e+00
      vertex   -9.670689e+00 4.087870e+00 -3.519858e+00
    endloop
  endfacet
  facet normal -8.725550e-01 3.826747e-01 -3.036574e-01
    outer loop
      vertex   -9.671273e+00 4.000000e+00 -3.628916e+00
      vertex   -9.670689e+00 4.087870e+00 -3.519858e+00
      vertex   -9.635382e+00 4.072945e+00 -3.640121e+00
    endloop
  endfacet
  facet normal -8.698172e-01 3.888837e-01 -3.036241e-01
    outer loop
      vertex   -9.635382e+00 4.072945e+00 -3.640121e+00
      vertex   -9.670689e+00 4.087870e+00 -3.519858e+00
      vertex   -9.603387e+00 4.144510e+00 -3.640121e+00
    endloop
  endfacet
  facet normal -8.667750e-01 3.875236e-01 -3.138894e-01
    outer loop
      vertex   -9.635382e+00 4.072945e+00 -3.640121e+00
      vertex   -9.603387e+00 4.144510e+00 -3.640121e+00
      vertex   -9.566920e+00 4.128772e+00 -3.760249e+00
    endloop
  endfacet
  facet normal -8.637632e-01 3.942204e-01 -3.138525e-01
    outer loop
      vertex   -9.566920e+00 4.128772e+00 -3.760249e+00
      vertex   -9.603387e+00 4.144510e+00 -3.640121e+00
      vertex   -9.534445e+00 4.199927e+00 -3.760249e+00
    endloop
  endfacet
  facet normal -8.606221e-01 3.927868e-01 -3.241113e-01
    outer loop
      vertex   -9.566920e+00 4.128772e+00 -3.760249e+00
      vertex   -9.534445e+00 4.199927e+00 -3.760249e+00
      vertex   -9.496828e+00 4.183356e+00 -3.880217e+00
    endloop
  endfacet
  facet normal -8.759794e-01 3.828583e-01 -2.933932e-01
    outer loop
      vertex   -9.702197e+00 4.015911e+00 -3.519858e+00
      vertex   -9.714416e+00 4.000000e+00 -3.504137e+00
      vertex   -9.736337e+00 4.030042e+00 -3.399485e+00
    endloop
  endfacet
  facet normal -8.793996e-01 3.759283e-01 -2.921202e-01
    outer loop
      vertex   -9.736337e+00 4.030042e+00 -3.399485e+00
      vertex   -9.714416e+00 4.000000e+00 -3.504137e+00
      vertex   -9.756037e+00 4.000000e+00 -3.378841e+00
    endloop
  endfacet
  facet normal -8.796159e-01 3.822465e-01 -2.831316e-01
    outer loop
      vertex   -9.736337e+00 4.030042e+00 -3.399485e+00
      vertex   -9.756037e+00 4.000000e+00 -3.378841e+00
      vertex   -9.769200e+00 4.043645e+00 -3.279024e+00
    endloop
  endfacet
  facet normal -8.824337e-01 3.771031e-01 -2.812543e-01
    outer loop
      vertex   -9.769200e+00 4.043645e+00 -3.279024e+00
      vertex   -9.756037e+00 4.000000e+00 -3.378841e+00
      vertex   -9.796132e+00 4.000000e+00 -3.253043e+00
    endloop
  endfacet
  facet normal -8.828169e-01 3.823336e-01 -2.728649e-01
    outer loop
      vertex   -9.769200e+00 4.043645e+00 -3.279024e+00
      vertex   -9.796132e+00 4.000000e+00 -3.253043e+00
      vertex   -9.800789e+00 4.056720e+00 -3.158501e+00
    endloop
  endfacet
  facet normal -8.854369e-01 3.780043e-01 -2.703965e-01
    outer loop
      vertex   -9.800789e+00 4.056720e+00 -3.158501e+00
      vertex   -9.796132e+00 4.000000e+00 -3.253043e+00
      vertex   -9.834698e+00 4.000000e+00 -3.126758e+00
    endloop
  endfacet
  facet normal -8.858129e-01 3.825933e-01 -2.625983e-01
    outer loop
      vertex   -9.800789e+00 4.056720e+00 -3.158501e+00
      vertex   -9.834698e+00 4.000000e+00 -3.126758e+00
      vertex   -9.831109e+00 4.069270e+00 -3.037938e+00
    endloop
  endfacet
  facet normal -8.883505e-01 3.787865e-01 -2.595268e-01
    outer loop
      vertex   -9.831109e+00 4.069270e+00 -3.037938e+00
      vertex   -9.834698e+00 4.000000e+00 -3.126758e+00
      vertex   -9.871729e+00 4.000000e+00 -3.000000e+00
    endloop
  endfacet
  facet normal -8.887304e-01 3.840339e-01 -2.503524e-01
    outer loop
      vertex   -9.831109e+00 4.069270e+00 -3.037938e+00
      vertex   -9.871729e+00 4.000000e+00 -3.000000e+00
      vertex   -9.816493e+00 4.127827e+00 -3.000000e+00
    endloop
  endfacet
  facet normal -8.832584e-01 3.958938e-01 -2.512422e-01
    outer loop
      vertex   -9.759547e+00 4.254878e+00 -3.000000e+00
      vertex   -9.766644e+00 4.214966e+00 -3.037938e+00
      vertex   -9.816493e+00 4.127827e+00 -3.000000e+00
    endloop
  endfacet
  facet normal -8.830955e-01 3.948202e-01 -2.534941e-01
    outer loop
      vertex   -9.816493e+00 4.127827e+00 -3.000000e+00
      vertex   -9.766644e+00 4.214966e+00 -3.037938e+00
      vertex   -9.799184e+00 4.142185e+00 -3.037938e+00
    endloop
  endfacet
  facet normal -8.852226e-01 3.875944e-01 -2.571993e-01
    outer loop
      vertex   -9.816493e+00 4.127827e+00 -3.000000e+00
      vertex   -9.799184e+00 4.142185e+00 -3.037938e+00
      vertex   -9.831109e+00 4.069270e+00 -3.037938e+00
    endloop
  endfacet
  facet normal -8.838969e-01 3.870140e-01 -2.625766e-01
    outer loop
      vertex   -9.831109e+00 4.069270e+00 -3.037938e+00
      vertex   -9.799184e+00 4.142185e+00 -3.037938e+00
      vertex   -9.768962e+00 4.129410e+00 -3.158501e+00
    endloop
  endfacet
  facet normal -8.838969e-01 3.870140e-01 -2.625766e-01
    outer loop
      vertex   -9.831109e+00 4.069270e+00 -3.037938e+00
      vertex   -9.768962e+00 4.129410e+00 -3.158501e+00
      vertex   -9.800789e+00 4.056720e+00 -3.158501e+00
    endloop
  endfacet
  facet normal -8.812829e-01 3.858694e-01 -2.728464e-01
    outer loop
      vertex   -9.800789e+00 4.056720e+00 -3.158501e+00
      vertex   -9.768962e+00 4.129410e+00 -3.158501e+00
      vertex   -9.737475e+00 4.116101e+00 -3.279024e+00
    endloop
  endfacet
  facet normal -8.812829e-01 3.858694e-01 -2.728464e-01
    outer loop
      vertex   -9.800789e+00 4.056720e+00 -3.158501e+00
      vertex   -9.737475e+00 4.116101e+00 -3.279024e+00
      vertex   -9.769200e+00 4.043645e+00 -3.279024e+00
    endloop
  endfacet
  facet normal -8.785600e-01 3.846772e-01 -2.831180e-01
    outer loop
      vertex   -9.769200e+00 4.043645e+00 -3.279024e+00
      vertex   -9.737475e+00 4.116101e+00 -3.279024e+00
      vertex   -9.704719e+00 4.102255e+00 -3.399485e+00
    endloop
  endfacet
  facet normal -8.785600e-01 3.846772e-01 -2.831180e-01
    outer loop
      vertex   -9.769200e+00 4.043645e+00 -3.279024e+00
      vertex   -9.704719e+00 4.102255e+00 -3.399485e+00
      vertex   -9.736337e+00 4.030042e+00 -3.399485e+00
    endloop
  endfacet
  facet normal -8.757275e-01 3.834370e-01 -2.933897e-01
    outer loop
      vertex   -9.736337e+00 4.030042e+00 -3.399485e+00
      vertex   -9.704719e+00 4.102255e+00 -3.399485e+00
      vertex   -9.670689e+00 4.087870e+00 -3.519858e+00
    endloop
  endfacet
  facet normal -8.757275e-01 3.834370e-01 -2.933897e-01
    outer loop
      vertex   -9.736337e+00 4.030042e+00 -3.399485e+00
      vertex   -9.670689e+00 4.087870e+00 -3.519858e+00
      vertex   -9.702197e+00 4.015911e+00 -3.519858e+00
    endloop
  endfacet
  facet normal -8.790278e-01 4.011872e-01 -2.576023e-01
    outer loop
      vertex   -9.766644e+00 4.214966e+00 -3.037938e+00
      vertex   -9.759547e+00 4.254878e+00 -3.000000e+00
      vertex   -9.733491e+00 4.287607e+00 -3.037938e+00
    endloop
  endfacet
  facet normal -8.778700e-01 4.077767e-01 -2.511224e-01
    outer loop
      vertex   -9.733491e+00 4.287607e+00 -3.037938e+00
      vertex   -9.759547e+00 4.254878e+00 -3.000000e+00
      vertex   -9.700898e+00 4.381137e+00 -3.000000e+00
    endloop
  endfacet
  facet normal -8.666873e-01 4.285185e-01 -2.553921e-01
    outer loop
      vertex   -9.630357e+00 4.504609e+00 -3.037938e+00
      vertex   -9.640558e+00 4.506589e+00 -3.000000e+00
      vertex   -9.594755e+00 4.576614e+00 -3.037938e+00
    endloop
  endfacet
  facet normal -8.667765e-01 4.313679e-01 -2.502403e-01
    outer loop
      vertex   -9.594755e+00 4.576614e+00 -3.037938e+00
      vertex   -9.640558e+00 4.506589e+00 -3.000000e+00
      vertex   -9.578534e+00 4.631217e+00 -3.000000e+00
    endloop
  endfacet
  facet normal -8.629085e-01 4.350326e-01 -2.571685e-01
    outer loop
      vertex   -9.594755e+00 4.576614e+00 -3.037938e+00
      vertex   -9.578534e+00 4.631217e+00 -3.000000e+00
      vertex   -9.558544e+00 4.648441e+00 -3.037938e+00
    endloop
  endfacet
  facet normal -8.605583e-01 4.422815e-01 -2.526390e-01
    outer loop
      vertex   -9.558544e+00 4.648441e+00 -3.037938e+00
      vertex   -9.578534e+00 4.631217e+00 -3.000000e+00
      vertex   -9.521723e+00 4.720085e+00 -3.037938e+00
    endloop
  endfacet
  facet normal -8.582658e-01 4.411033e-01 -2.623122e-01
    outer loop
      vertex   -9.558544e+00 4.648441e+00 -3.037938e+00
      vertex   -9.521723e+00 4.720085e+00 -3.037938e+00
      vertex   -9.492357e+00 4.705528e+00 -3.158501e+00
    endloop
  endfacet
  facet normal -8.548117e-01 4.477809e-01 -2.622771e-01
    outer loop
      vertex   -9.492357e+00 4.705528e+00 -3.158501e+00
      vertex   -9.521723e+00 4.720085e+00 -3.037938e+00
      vertex   -9.455043e+00 4.776759e+00 -3.158501e+00
    endloop
  endfacet
  facet normal -8.522895e-01 4.464597e-01 -2.725370e-01
    outer loop
      vertex   -9.492357e+00 4.705528e+00 -3.158501e+00
      vertex   -9.455043e+00 4.776759e+00 -3.158501e+00
      vertex   -9.424568e+00 4.761363e+00 -3.279024e+00
    endloop
  endfacet
  facet normal -8.487912e-01 4.530971e-01 -2.725004e-01
    outer loop
      vertex   -9.424568e+00 4.761363e+00 -3.279024e+00
      vertex   -9.455043e+00 4.776759e+00 -3.158501e+00
      vertex   -9.386772e+00 4.832168e+00 -3.279024e+00
    endloop
  endfacet
  facet normal -8.461753e-01 4.517007e-01 -2.827612e-01
    outer loop
      vertex   -9.424568e+00 4.761363e+00 -3.279024e+00
      vertex   -9.386772e+00 4.832168e+00 -3.279024e+00
      vertex   -9.355195e+00 4.815913e+00 -3.399485e+00
    endloop
  endfacet
  facet normal -8.426339e-01 4.582966e-01 -2.827229e-01
    outer loop
      vertex   -9.355195e+00 4.815913e+00 -3.399485e+00
      vertex   -9.386772e+00 4.832168e+00 -3.279024e+00
      vertex   -9.316926e+00 4.886276e+00 -3.399485e+00
    endloop
  endfacet
  facet normal -8.399248e-01 4.568232e-01 -2.929829e-01
    outer loop
      vertex   -9.355195e+00 4.815913e+00 -3.399485e+00
      vertex   -9.316926e+00 4.886276e+00 -3.399485e+00
      vertex   -9.284256e+00 4.869142e+00 -3.519858e+00
    endloop
  endfacet
  facet normal -8.363413e-01 4.633763e-01 -2.929431e-01
    outer loop
      vertex   -9.284256e+00 4.869142e+00 -3.519858e+00
      vertex   -9.316926e+00 4.886276e+00 -3.399485e+00
      vertex   -9.245524e+00 4.939048e+00 -3.519858e+00
    endloop
  endfacet
  facet normal -8.335395e-01 4.618240e-01 -3.032004e-01
    outer loop
      vertex   -9.284256e+00 4.869142e+00 -3.519858e+00
      vertex   -9.245524e+00 4.939048e+00 -3.519858e+00
      vertex   -9.211770e+00 4.921016e+00 -3.640121e+00
    endloop
  endfacet
  facet normal -8.299149e-01 4.683330e-01 -3.031591e-01
    outer loop
      vertex   -9.211770e+00 4.921016e+00 -3.640121e+00
      vertex   -9.245524e+00 4.939048e+00 -3.519858e+00
      vertex   -9.172587e+00 4.990450e+00 -3.640121e+00
    endloop
  endfacet
  facet normal -8.270212e-01 4.667000e-01 -3.134120e-01
    outer loop
      vertex   -9.211770e+00 4.921016e+00 -3.640121e+00
      vertex   -9.172587e+00 4.990450e+00 -3.640121e+00
      vertex   -9.137756e+00 4.971500e+00 -3.760249e+00
    endloop
  endfacet
  facet normal -8.250325e-01 4.702207e-01 -3.133908e-01
    outer loop
      vertex   -9.137756e+00 4.971500e+00 -3.760249e+00
      vertex   -9.172587e+00 4.990450e+00 -3.640121e+00
      vertex   -9.124070e+00 5.000000e+00 -3.753518e+00
    endloop
  endfacet
  facet normal -8.209225e-01 4.706176e-01 -3.234274e-01
    outer loop
      vertex   -9.137756e+00 4.971500e+00 -3.760249e+00
      vertex   -9.124070e+00 5.000000e+00 -3.753518e+00
      vertex   -9.075392e+00 5.000000e+00 -3.877071e+00
    endloop
  endfacet
  facet normal -8.606259e-01 4.428476e-01 -2.514142e-01
    outer loop
      vertex   -9.578534e+00 4.631217e+00 -3.000000e+00
      vertex   -9.514837e+00 4.755005e+00 -3.000000e+00
      vertex   -9.521723e+00 4.720085e+00 -3.037938e+00
    endloop
  endfacet
  facet normal -8.559830e-01 4.483945e-01 -2.573625e-01
    outer loop
      vertex   -9.521723e+00 4.720085e+00 -3.037938e+00
      vertex   -9.514837e+00 4.755005e+00 -3.000000e+00
      vertex   -9.484294e+00 4.791537e+00 -3.037938e+00
    endloop
  endfacet
  facet normal -8.548117e-01 4.477809e-01 -2.622771e-01
    outer loop
      vertex   -9.521723e+00 4.720085e+00 -3.037938e+00
      vertex   -9.484294e+00 4.791537e+00 -3.037938e+00
      vertex   -9.455043e+00 4.776759e+00 -3.158501e+00
    endloop
  endfacet
  facet normal -8.513024e-01 4.544376e-01 -2.622416e-01
    outer loop
      vertex   -9.455043e+00 4.776759e+00 -3.158501e+00
      vertex   -9.484294e+00 4.791537e+00 -3.037938e+00
      vertex   -9.417124e+00 4.847793e+00 -3.158501e+00
    endloop
  endfacet
  facet normal -8.487912e-01 4.530971e-01 -2.725004e-01
    outer loop
      vertex   -9.455043e+00 4.776759e+00 -3.158501e+00
      vertex   -9.417124e+00 4.847793e+00 -3.158501e+00
      vertex   -9.386772e+00 4.832168e+00 -3.279024e+00
    endloop
  endfacet
  facet normal -8.452382e-01 4.597131e-01 -2.724633e-01
    outer loop
      vertex   -9.386772e+00 4.832168e+00 -3.279024e+00
      vertex   -9.417124e+00 4.847793e+00 -3.158501e+00
      vertex   -9.348373e+00 4.902768e+00 -3.279024e+00
    endloop
  endfacet
  facet normal -8.426339e-01 4.582966e-01 -2.827229e-01
    outer loop
      vertex   -9.386772e+00 4.832168e+00 -3.279024e+00
      vertex   -9.348373e+00 4.902768e+00 -3.279024e+00
      vertex   -9.316926e+00 4.886276e+00 -3.399485e+00
    endloop
  endfacet
  facet normal -8.390382e-01 4.648705e-01 -2.826843e-01
    outer loop
      vertex   -9.316926e+00 4.886276e+00 -3.399485e+00
      vertex   -9.348373e+00 4.902768e+00 -3.279024e+00
      vertex   -9.278058e+00 4.956428e+00 -3.399485e+00
    endloop
  endfacet
  facet normal -8.363413e-01 4.633763e-01 -2.929431e-01
    outer loop
      vertex   -9.316926e+00 4.886276e+00 -3.399485e+00
      vertex   -9.278058e+00 4.956428e+00 -3.399485e+00
      vertex   -9.245524e+00 4.939048e+00 -3.519858e+00
    endloop
  endfacet
  facet normal -8.335362e-01 4.684220e-01 -2.929135e-01
    outer loop
      vertex   -9.245524e+00 4.939048e+00 -3.519858e+00
      vertex   -9.278058e+00 4.956428e+00 -3.399485e+00
      vertex   -9.216633e+00 5.000000e+00 -3.504601e+00
    endloop
  endfacet
  facet normal -8.296767e-01 4.690449e-01 -3.027103e-01
    outer loop
      vertex   -9.245524e+00 4.939048e+00 -3.519858e+00
      vertex   -9.216633e+00 5.000000e+00 -3.504601e+00
      vertex   -9.172587e+00 4.990450e+00 -3.640121e+00
    endloop
  endfacet
  facet normal -8.310520e-01 4.664331e-01 -3.029732e-01
    outer loop
      vertex   -9.172587e+00 4.990450e+00 -3.640121e+00
      vertex   -9.216633e+00 5.000000e+00 -3.504601e+00
      vertex   -9.171152e+00 5.000000e+00 -3.629355e+00
    endloop
  endfacet
  facet normal -8.226671e-01 4.752949e-01 -3.119514e-01
    outer loop
      vertex   -9.172587e+00 4.990450e+00 -3.640121e+00
      vertex   -9.171152e+00 5.000000e+00 -3.629355e+00
      vertex   -9.124070e+00 5.000000e+00 -3.753518e+00
    endloop
  endfacet
  facet normal -8.547949e-01 4.544808e-01 -2.505454e-01
    outer loop
      vertex   -9.514837e+00 4.755005e+00 -3.000000e+00
      vertex   -9.449475e+00 4.877938e+00 -3.000000e+00
      vertex   -9.484294e+00 4.791537e+00 -3.037938e+00
    endloop
  endfacet
  facet normal -8.531948e-01 4.554478e-01 -2.542162e-01
    outer loop
      vertex   -9.484294e+00 4.791537e+00 -3.037938e+00
      vertex   -9.449475e+00 4.877938e+00 -3.000000e+00
      vertex   -9.446258e+00 4.862790e+00 -3.037938e+00
    endloop
  endfacet
  facet normal -8.513024e-01 4.544376e-01 -2.622416e-01
    outer loop
      vertex   -9.484294e+00 4.791537e+00 -3.037938e+00
      vertex   -9.446258e+00 4.862790e+00 -3.037938e+00
      vertex   -9.417124e+00 4.847793e+00 -3.158501e+00
    endloop
  endfacet
  facet normal -8.477382e-01 4.610728e-01 -2.622057e-01
    outer loop
      vertex   -9.417124e+00 4.847793e+00 -3.158501e+00
      vertex   -9.446258e+00 4.862790e+00 -3.037938e+00
      vertex   -9.378602e+00 4.918622e+00 -3.158501e+00
    endloop
  endfacet
  facet normal -8.452382e-01 4.597131e-01 -2.724633e-01
    outer loop
      vertex   -9.417124e+00 4.847793e+00 -3.158501e+00
      vertex   -9.378602e+00 4.918622e+00 -3.158501e+00
      vertex   -9.348373e+00 4.902768e+00 -3.279024e+00
    endloop
  endfacet
  facet normal -8.416306e-01 4.663068e-01 -2.724258e-01
    outer loop
      vertex   -9.348373e+00 4.902768e+00 -3.279024e+00
      vertex   -9.378602e+00 4.918622e+00 -3.158501e+00
      vertex   -9.309374e+00 4.973157e+00 -3.279024e+00
    endloop
  endfacet
  facet normal -8.390382e-01 4.648705e-01 -2.826843e-01
    outer loop
      vertex   -9.348373e+00 4.902768e+00 -3.279024e+00
      vertex   -9.309374e+00 4.973157e+00 -3.279024e+00
      vertex   -9.278058e+00 4.956428e+00 -3.399485e+00
    endloop
  endfacet
  facet normal -8.371365e-01 4.682974e-01 -2.826658e-01
    outer loop
      vertex   -9.278058e+00 4.956428e+00 -3.399485e+00
      vertex   -9.309374e+00 4.973157e+00 -3.279024e+00
      vertex   -9.260509e+00 5.000000e+00 -3.379272e+00
    endloop
  endfacet
  facet normal -8.327626e-01 4.706511e-01 -2.915374e-01
    outer loop
      vertex   -9.278058e+00 4.956428e+00 -3.399485e+00
      vertex   -9.260509e+00 5.000000e+00 -3.379272e+00
      vertex   -9.216633e+00 5.000000e+00 -3.504601e+00
    endloop
  endfacet
  facet normal -8.491047e-01 4.618160e-01 -2.564120e-01
    outer loop
      vertex   -9.446258e+00 4.862790e+00 -3.037938e+00
      vertex   -9.449475e+00 4.877938e+00 -3.000000e+00
      vertex   -9.407616e+00 4.933838e+00 -3.037938e+00
    endloop
  endfacet
  facet normal -8.487671e-01 4.660061e-01 -2.498656e-01
    outer loop
      vertex   -9.407616e+00 4.933838e+00 -3.037938e+00
      vertex   -9.449475e+00 4.877938e+00 -3.000000e+00
      vertex   -9.382459e+00 5.000000e+00 -3.000000e+00
    endloop
  endfacet
  facet normal -8.438734e-01 4.696415e-01 -2.594506e-01
    outer loop
      vertex   -9.407616e+00 4.933838e+00 -3.037938e+00
      vertex   -9.382459e+00 5.000000e+00 -3.000000e+00
      vertex   -9.343426e+00 5.000000e+00 -3.126955e+00
    endloop
  endfacet
  facet normal -8.349065e-01 4.804839e-01 -2.684518e-01
    outer loop
      vertex   -9.302775e+00 5.000000e+00 -3.253384e+00
      vertex   -9.339477e+00 4.989238e+00 -3.158501e+00
      vertex   -9.343426e+00 5.000000e+00 -3.126955e+00
    endloop
  endfacet
  facet normal -8.434368e-01 4.673075e-01 -2.650247e-01
    outer loop
      vertex   -9.343426e+00 5.000000e+00 -3.126955e+00
      vertex   -9.339477e+00 4.989238e+00 -3.158501e+00
      vertex   -9.378602e+00 4.918622e+00 -3.158501e+00
    endloop
  endfacet
  facet normal -8.446480e-01 4.667266e-01 -2.621756e-01
    outer loop
      vertex   -9.343426e+00 5.000000e+00 -3.126955e+00
      vertex   -9.378602e+00 4.918622e+00 -3.158501e+00
      vertex   -9.407616e+00 4.933838e+00 -3.037938e+00
    endloop
  endfacet
  facet normal -8.477382e-01 4.610728e-01 -2.622057e-01
    outer loop
      vertex   -9.407616e+00 4.933838e+00 -3.037938e+00
      vertex   -9.378602e+00 4.918622e+00 -3.158501e+00
      vertex   -9.446258e+00 4.862790e+00 -3.037938e+00
    endloop
  endfacet
  facet normal -8.412279e-01 4.670349e-01 -2.724224e-01
    outer loop
      vertex   -9.339477e+00 4.989238e+00 -3.158501e+00
      vertex   -9.302775e+00 5.000000e+00 -3.253384e+00
      vertex   -9.309374e+00 4.973157e+00 -3.279024e+00
    endloop
  endfacet
  facet normal -8.351603e-01 4.731630e-01 -2.803997e-01
    outer loop
      vertex   -9.309374e+00 4.973157e+00 -3.279024e+00
      vertex   -9.302775e+00 5.000000e+00 -3.253384e+00
      vertex   -9.260509e+00 5.000000e+00 -3.379272e+00
    endloop
  endfacet
  facet normal -8.210946e-01 4.701808e-01 -3.236258e-01
    outer loop
      vertex   -9.137756e+00 4.971500e+00 -3.760249e+00
      vertex   -9.075392e+00 5.000000e+00 -3.877071e+00
      vertex   -9.101704e+00 4.951886e+00 -3.880217e+00
    endloop
  endfacet
  facet normal -8.240221e-01 4.650075e-01 -3.236597e-01
    outer loop
      vertex   -9.137756e+00 4.971500e+00 -3.760249e+00
      vertex   -9.101704e+00 4.951886e+00 -3.880217e+00
      vertex   -9.176790e+00 4.902330e+00 -3.760249e+00
    endloop
  endfacet
  facet normal -8.240221e-01 4.650075e-01 -3.236597e-01
    outer loop
      vertex   -9.176790e+00 4.902330e+00 -3.760249e+00
      vertex   -9.101704e+00 4.951886e+00 -3.880217e+00
      vertex   -9.140584e+00 4.882988e+00 -3.880217e+00
    endloop
  endfacet
  facet normal -8.276193e-01 4.585439e-01 -3.237033e-01
    outer loop
      vertex   -9.176790e+00 4.902330e+00 -3.760249e+00
      vertex   -9.140584e+00 4.882988e+00 -3.880217e+00
      vertex   -9.215234e+00 4.832943e+00 -3.760249e+00
    endloop
  endfacet
  facet normal -8.270212e-01 4.667000e-01 -3.134120e-01
    outer loop
      vertex   -9.137756e+00 4.971500e+00 -3.760249e+00
      vertex   -9.176790e+00 4.902330e+00 -3.760249e+00
      vertex   -9.211770e+00 4.921016e+00 -3.640121e+00
    endloop
  endfacet
  facet normal -8.306323e-01 4.602132e-01 -3.134544e-01
    outer loop
      vertex   -9.211770e+00 4.921016e+00 -3.640121e+00
      vertex   -9.176790e+00 4.902330e+00 -3.760249e+00
      vertex   -9.250360e+00 4.851365e+00 -3.640121e+00
    endloop
  endfacet
  facet normal -8.335395e-01 4.618240e-01 -3.032004e-01
    outer loop
      vertex   -9.211770e+00 4.921016e+00 -3.640121e+00
      vertex   -9.250360e+00 4.851365e+00 -3.640121e+00
      vertex   -9.284256e+00 4.869142e+00 -3.519858e+00
    endloop
  endfacet
  facet normal -8.371102e-01 4.552924e-01 -3.032414e-01
    outer loop
      vertex   -9.284256e+00 4.869142e+00 -3.519858e+00
      vertex   -9.250360e+00 4.851365e+00 -3.640121e+00
      vertex   -9.322391e+00 4.799026e+00 -3.519858e+00
    endloop
  endfacet
  facet normal -8.399248e-01 4.568232e-01 -2.929829e-01
    outer loop
      vertex   -9.284256e+00 4.869142e+00 -3.519858e+00
      vertex   -9.322391e+00 4.799026e+00 -3.519858e+00
      vertex   -9.355195e+00 4.815913e+00 -3.399485e+00
    endloop
  endfacet
  facet normal -8.434540e-01 4.502480e-01 -2.930223e-01
    outer loop
      vertex   -9.355195e+00 4.815913e+00 -3.399485e+00
      vertex   -9.322391e+00 4.799026e+00 -3.519858e+00
      vertex   -9.392865e+00 4.745346e+00 -3.399485e+00
    endloop
  endfacet
  facet normal -8.461753e-01 4.517007e-01 -2.827612e-01
    outer loop
      vertex   -9.355195e+00 4.815913e+00 -3.399485e+00
      vertex   -9.392865e+00 4.745346e+00 -3.399485e+00
      vertex   -9.424568e+00 4.761363e+00 -3.279024e+00
    endloop
  endfacet
  facet normal -8.496620e-01 4.450833e-01 -2.827990e-01
    outer loop
      vertex   -9.424568e+00 4.761363e+00 -3.279024e+00
      vertex   -9.392865e+00 4.745346e+00 -3.399485e+00
      vertex   -9.461762e+00 4.690361e+00 -3.279024e+00
    endloop
  endfacet
  facet normal -8.522895e-01 4.464597e-01 -2.725370e-01
    outer loop
      vertex   -9.424568e+00 4.761363e+00 -3.279024e+00
      vertex   -9.461762e+00 4.690361e+00 -3.279024e+00
      vertex   -9.492357e+00 4.705528e+00 -3.158501e+00
    endloop
  endfacet
  facet normal -8.557327e-01 4.398014e-01 -2.725732e-01
    outer loop
      vertex   -9.492357e+00 4.705528e+00 -3.158501e+00
      vertex   -9.461762e+00 4.690361e+00 -3.279024e+00
      vertex   -9.529064e+00 4.634105e+00 -3.158501e+00
    endloop
  endfacet
  facet normal -8.582658e-01 4.411033e-01 -2.623122e-01
    outer loop
      vertex   -9.492357e+00 4.705528e+00 -3.158501e+00
      vertex   -9.529064e+00 4.634105e+00 -3.158501e+00
      vertex   -9.558544e+00 4.648441e+00 -3.037938e+00
    endloop
  endfacet
  facet normal -8.616647e-01 4.344055e-01 -2.623468e-01
    outer loop
      vertex   -9.558544e+00 4.648441e+00 -3.037938e+00
      vertex   -9.529064e+00 4.634105e+00 -3.158501e+00
      vertex   -9.594755e+00 4.576614e+00 -3.037938e+00
    endloop
  endfacet
  facet normal -8.306323e-01 4.602132e-01 -3.134544e-01
    outer loop
      vertex   -9.250360e+00 4.851365e+00 -3.640121e+00
      vertex   -9.176790e+00 4.902330e+00 -3.760249e+00
      vertex   -9.215234e+00 4.832943e+00 -3.760249e+00
    endloop
  endfacet
  facet normal -8.416306e-01 4.663068e-01 -2.724258e-01
    outer loop
      vertex   -9.378602e+00 4.918622e+00 -3.158501e+00
      vertex   -9.339477e+00 4.989238e+00 -3.158501e+00
      vertex   -9.309374e+00 4.973157e+00 -3.279024e+00
    endloop
  endfacet
  facet normal -8.341898e-01 4.537040e-01 -3.134965e-01
    outer loop
      vertex   -9.250360e+00 4.851365e+00 -3.640121e+00
      vertex   -9.215234e+00 4.832943e+00 -3.760249e+00
      vertex   -9.288356e+00 4.781505e+00 -3.640121e+00
    endloop
  endfacet
  facet normal -8.371102e-01 4.552924e-01 -3.032414e-01
    outer loop
      vertex   -9.250360e+00 4.851365e+00 -3.640121e+00
      vertex   -9.288356e+00 4.781505e+00 -3.640121e+00
      vertex   -9.322391e+00 4.799026e+00 -3.519858e+00
    endloop
  endfacet
  facet normal -8.406269e-01 4.487389e-01 -3.032818e-01
    outer loop
      vertex   -9.322391e+00 4.799026e+00 -3.519858e+00
      vertex   -9.288356e+00 4.781505e+00 -3.640121e+00
      vertex   -9.359929e+00 4.728707e+00 -3.519858e+00
    endloop
  endfacet
  facet normal -8.434540e-01 4.502480e-01 -2.930223e-01
    outer loop
      vertex   -9.322391e+00 4.799026e+00 -3.519858e+00
      vertex   -9.359929e+00 4.728707e+00 -3.519858e+00
      vertex   -9.392865e+00 4.745346e+00 -3.399485e+00
    endloop
  endfacet
  facet normal -8.469288e-01 4.436516e-01 -2.930612e-01
    outer loop
      vertex   -9.392865e+00 4.745346e+00 -3.399485e+00
      vertex   -9.359929e+00 4.728707e+00 -3.519858e+00
      vertex   -9.429933e+00 4.674583e+00 -3.399485e+00
    endloop
  endfacet
  facet normal -8.496620e-01 4.450833e-01 -2.827990e-01
    outer loop
      vertex   -9.392865e+00 4.745346e+00 -3.399485e+00
      vertex   -9.429933e+00 4.674583e+00 -3.399485e+00
      vertex   -9.461762e+00 4.690361e+00 -3.279024e+00
    endloop
  endfacet
  facet normal -8.530940e-01 4.384453e-01 -2.828363e-01
    outer loop
      vertex   -9.461762e+00 4.690361e+00 -3.279024e+00
      vertex   -9.429933e+00 4.674583e+00 -3.399485e+00
      vertex   -9.498351e+00 4.619169e+00 -3.279024e+00
    endloop
  endfacet
  facet normal -8.557327e-01 4.398014e-01 -2.725732e-01
    outer loop
      vertex   -9.461762e+00 4.690361e+00 -3.279024e+00
      vertex   -9.498351e+00 4.619169e+00 -3.279024e+00
      vertex   -9.529064e+00 4.634105e+00 -3.158501e+00
    endloop
  endfacet
  facet normal -8.591209e-01 4.331231e-01 -2.726090e-01
    outer loop
      vertex   -9.529064e+00 4.634105e+00 -3.158501e+00
      vertex   -9.498351e+00 4.619169e+00 -3.279024e+00
      vertex   -9.565164e+00 4.562499e+00 -3.158501e+00
    endloop
  endfacet
  facet normal -8.616647e-01 4.344055e-01 -2.623468e-01
    outer loop
      vertex   -9.529064e+00 4.634105e+00 -3.158501e+00
      vertex   -9.565164e+00 4.562499e+00 -3.158501e+00
      vertex   -9.594755e+00 4.576614e+00 -3.037938e+00
    endloop
  endfacet
  facet normal -8.650081e-01 4.276882e-01 -2.623810e-01
    outer loop
      vertex   -9.594755e+00 4.576614e+00 -3.037938e+00
      vertex   -9.565164e+00 4.562499e+00 -3.158501e+00
      vertex   -9.630357e+00 4.504609e+00 -3.037938e+00
    endloop
  endfacet
  facet normal -8.380894e-01 4.390212e-01 -3.238311e-01
    outer loop
      vertex   -9.253690e+00 4.675034e+00 -3.880217e+00
      vertex   -9.290209e+00 4.605319e+00 -3.880217e+00
      vertex   -9.327008e+00 4.623561e+00 -3.760249e+00
    endloop
  endfacet
  facet normal -8.414716e-01 4.324720e-01 -3.238727e-01
    outer loop
      vertex   -9.327008e+00 4.623561e+00 -3.760249e+00
      vertex   -9.290209e+00 4.605319e+00 -3.880217e+00
      vertex   -9.363076e+00 4.553383e+00 -3.760249e+00
    endloop
  endfacet
  facet normal -8.445383e-01 4.340481e-01 -3.136197e-01
    outer loop
      vertex   -9.327008e+00 4.623561e+00 -3.760249e+00
      vertex   -9.363076e+00 4.553383e+00 -3.760249e+00
      vertex   -9.398765e+00 4.570739e+00 -3.640121e+00
    endloop
  endfacet
  facet normal -8.478793e-01 4.274556e-01 -3.136598e-01
    outer loop
      vertex   -9.398765e+00 4.570739e+00 -3.640121e+00
      vertex   -9.363076e+00 4.553383e+00 -3.760249e+00
      vertex   -9.434371e+00 4.500112e+00 -3.640121e+00
    endloop
  endfacet
  facet normal -8.508507e-01 4.289537e-01 -3.034004e-01
    outer loop
      vertex   -9.398765e+00 4.570739e+00 -3.640121e+00
      vertex   -9.434371e+00 4.500112e+00 -3.640121e+00
      vertex   -9.468942e+00 4.516602e+00 -3.519858e+00
    endloop
  endfacet
  facet normal -8.541494e-01 4.223193e-01 -3.034390e-01
    outer loop
      vertex   -9.468942e+00 4.516602e+00 -3.519858e+00
      vertex   -9.434371e+00 4.500112e+00 -3.640121e+00
      vertex   -9.504076e+00 4.445542e+00 -3.519858e+00
    endloop
  endfacet
  facet normal -8.570250e-01 4.237411e-01 -2.931751e-01
    outer loop
      vertex   -9.468942e+00 4.516602e+00 -3.519858e+00
      vertex   -9.504076e+00 4.445542e+00 -3.519858e+00
      vertex   -9.537520e+00 4.461185e+00 -3.399485e+00
    endloop
  endfacet
  facet normal -8.602804e-01 4.170662e-01 -2.932122e-01
    outer loop
      vertex   -9.537520e+00 4.461185e+00 -3.399485e+00
      vertex   -9.504076e+00 4.445542e+00 -3.519858e+00
      vertex   -9.572173e+00 4.389706e+00 -3.399485e+00
    endloop
  endfacet
  facet normal -8.630596e-01 4.184136e-01 -2.829456e-01
    outer loop
      vertex   -9.537520e+00 4.461185e+00 -3.399485e+00
      vertex   -9.572173e+00 4.389706e+00 -3.399485e+00
      vertex   -9.604482e+00 4.404523e+00 -3.279024e+00
    endloop
  endfacet
  facet normal -8.662709e-01 4.116995e-01 -2.829811e-01
    outer loop
      vertex   -9.604482e+00 4.404523e+00 -3.279024e+00
      vertex   -9.572173e+00 4.389706e+00 -3.399485e+00
      vertex   -9.638643e+00 4.332642e+00 -3.279024e+00
    endloop
  endfacet
  facet normal -8.689532e-01 4.129742e-01 -2.727136e-01
    outer loop
      vertex   -9.604482e+00 4.404523e+00 -3.279024e+00
      vertex   -9.638643e+00 4.332642e+00 -3.279024e+00
      vertex   -9.669810e+00 4.346652e+00 -3.158501e+00
    endloop
  endfacet
  facet normal -8.447997e-01 4.259031e-01 -3.239138e-01
    outer loop
      vertex   -9.326134e+00 4.535418e+00 -3.880217e+00
      vertex   -9.398547e+00 4.483024e+00 -3.760249e+00
      vertex   -9.363076e+00 4.553383e+00 -3.760249e+00
    endloop
  endfacet
  facet normal -8.478793e-01 4.274556e-01 -3.136598e-01
    outer loop
      vertex   -9.363076e+00 4.553383e+00 -3.760249e+00
      vertex   -9.398547e+00 4.483024e+00 -3.760249e+00
      vertex   -9.434371e+00 4.500112e+00 -3.640121e+00
    endloop
  endfacet
  facet normal -8.541494e-01 4.223193e-01 -3.034390e-01
    outer loop
      vertex   -9.504076e+00 4.445542e+00 -3.519858e+00
      vertex   -9.434371e+00 4.500112e+00 -3.640121e+00
      vertex   -9.469378e+00 4.429311e+00 -3.640121e+00
    endloop
  endfacet
  facet normal -8.511657e-01 4.208441e-01 -3.136994e-01
    outer loop
      vertex   -9.469378e+00 4.429311e+00 -3.640121e+00
      vertex   -9.434371e+00 4.500112e+00 -3.640121e+00
      vertex   -9.398547e+00 4.483024e+00 -3.760249e+00
    endloop
  endfacet
  facet normal -8.414716e-01 4.324720e-01 -3.238727e-01
    outer loop
      vertex   -9.290209e+00 4.605319e+00 -3.880217e+00
      vertex   -9.326134e+00 4.535418e+00 -3.880217e+00
      vertex   -9.363076e+00 4.553383e+00 -3.760249e+00
    endloop
  endfacet
  facet normal -8.602804e-01 4.170662e-01 -2.932122e-01
    outer loop
      vertex   -9.572173e+00 4.389706e+00 -3.399485e+00
      vertex   -9.504076e+00 4.445542e+00 -3.519858e+00
      vertex   -9.538608e+00 4.374314e+00 -3.519858e+00
    endloop
  endfacet
  facet normal -8.573932e-01 4.156665e-01 -3.034771e-01
    outer loop
      vertex   -9.538608e+00 4.374314e+00 -3.519858e+00
      vertex   -9.504076e+00 4.445542e+00 -3.519858e+00
      vertex   -9.469378e+00 4.429311e+00 -3.640121e+00
    endloop
  endfacet
  facet normal -8.544572e-01 4.060849e-01 -3.240339e-01
    outer loop
      vertex   -9.463883e+00 4.254086e+00 -3.880217e+00
      vertex   -9.501370e+00 4.270936e+00 -3.760249e+00
      vertex   -9.430341e+00 4.324664e+00 -3.880217e+00
    endloop
  endfacet
  facet normal -8.544572e-01 4.060849e-01 -3.240339e-01
    outer loop
      vertex   -9.430341e+00 4.324664e+00 -3.880217e+00
      vertex   -9.501370e+00 4.270936e+00 -3.760249e+00
      vertex   -9.467695e+00 4.341794e+00 -3.760249e+00
    endloop
  endfacet
  facet normal -8.512926e-01 4.127089e-01 -3.239944e-01
    outer loop
      vertex   -9.430341e+00 4.324664e+00 -3.880217e+00
      vertex   -9.467695e+00 4.341794e+00 -3.760249e+00
      vertex   -9.396201e+00 4.395083e+00 -3.880217e+00
    endloop
  endfacet
  facet normal -8.575743e-01 4.075664e-01 -3.137770e-01
    outer loop
      vertex   -9.501370e+00 4.270936e+00 -3.760249e+00
      vertex   -9.537587e+00 4.287216e+00 -3.640121e+00
      vertex   -9.467695e+00 4.341794e+00 -3.760249e+00
    endloop
  endfacet
  facet normal -8.634807e-01 4.103734e-01 -2.932487e-01
    outer loop
      vertex   -9.572173e+00 4.389706e+00 -3.399485e+00
      vertex   -9.538608e+00 4.374314e+00 -3.519858e+00
      vertex   -9.606220e+00 4.318067e+00 -3.399485e+00
    endloop
  endfacet
  facet normal -8.662709e-01 4.116995e-01 -2.829811e-01
    outer loop
      vertex   -9.606220e+00 4.318067e+00 -3.399485e+00
      vertex   -9.638643e+00 4.332642e+00 -3.279024e+00
      vertex   -9.572173e+00 4.389706e+00 -3.399485e+00
    endloop
  endfacet
  facet normal -8.606221e-01 3.927868e-01 -3.241113e-01
    outer loop
      vertex   -9.496828e+00 4.183356e+00 -3.880217e+00
      vertex   -9.529175e+00 4.112482e+00 -3.880217e+00
      vertex   -9.566920e+00 4.128772e+00 -3.760249e+00
    endloop
  endfacet
  facet normal -8.636222e-01 3.861140e-01 -3.241492e-01
    outer loop
      vertex   -9.566920e+00 4.128772e+00 -3.760249e+00
      vertex   -9.529175e+00 4.112482e+00 -3.880217e+00
      vertex   -9.598794e+00 4.057479e+00 -3.760249e+00
    endloop
  endfacet
  facet normal -8.667750e-01 3.875236e-01 -3.138894e-01
    outer loop
      vertex   -9.566920e+00 4.128772e+00 -3.760249e+00
      vertex   -9.598794e+00 4.057479e+00 -3.760249e+00
      vertex   -9.635382e+00 4.072945e+00 -3.640121e+00
    endloop
  endfacet
  facet normal -8.637632e-01 3.942204e-01 -3.138525e-01
    outer loop
      vertex   -9.570788e+00 4.215936e+00 -3.640121e+00
      vertex   -9.534445e+00 4.199927e+00 -3.760249e+00
      vertex   -9.603387e+00 4.144510e+00 -3.640121e+00
    endloop
  endfacet
  facet normal -8.636222e-01 3.861140e-01 -3.241492e-01
    outer loop
      vertex   -9.560923e+00 4.041471e+00 -3.880217e+00
      vertex   -9.598794e+00 4.057479e+00 -3.760249e+00
      vertex   -9.529175e+00 4.112482e+00 -3.880217e+00
    endloop
  endfacet
  facet normal -8.667941e-01 3.956037e-01 -3.035882e-01
    outer loop
      vertex   -9.605858e+00 4.231384e+00 -3.519858e+00
      vertex   -9.570788e+00 4.215936e+00 -3.640121e+00
      vertex   -9.638577e+00 4.159697e+00 -3.519858e+00
    endloop
  endfacet
  facet normal -8.667941e-01 3.956037e-01 -3.035882e-01
    outer loop
      vertex   -9.638577e+00 4.159697e+00 -3.519858e+00
      vertex   -9.570788e+00 4.215936e+00 -3.640121e+00
      vertex   -9.603387e+00 4.144510e+00 -3.640121e+00
    endloop
  endfacet
  facet normal -8.698172e-01 3.888837e-01 -3.036241e-01
    outer loop
      vertex   -9.638577e+00 4.159697e+00 -3.519858e+00
      vertex   -9.603387e+00 4.144510e+00 -3.640121e+00
      vertex   -9.670689e+00 4.087870e+00 -3.519858e+00
    endloop
  endfacet
  facet normal -8.697151e-01 3.969369e-01 -2.933202e-01
    outer loop
      vertex   -9.639660e+00 4.246274e+00 -3.399485e+00
      vertex   -9.605858e+00 4.231384e+00 -3.519858e+00
      vertex   -9.672493e+00 4.174334e+00 -3.399485e+00
    endloop
  endfacet
  facet normal -8.697151e-01 3.969369e-01 -2.933202e-01
    outer loop
      vertex   -9.672493e+00 4.174334e+00 -3.399485e+00
      vertex   -9.605858e+00 4.231384e+00 -3.519858e+00
      vertex   -9.638577e+00 4.159697e+00 -3.519858e+00
    endloop
  endfacet
  facet normal -8.727491e-01 3.901945e-01 -2.933552e-01
    outer loop
      vertex   -9.672493e+00 4.174334e+00 -3.399485e+00
      vertex   -9.638577e+00 4.159697e+00 -3.519858e+00
      vertex   -9.704719e+00 4.102255e+00 -3.399485e+00
    endloop
  endfacet
  facet normal -8.727491e-01 3.901945e-01 -2.933552e-01
    outer loop
      vertex   -9.704719e+00 4.102255e+00 -3.399485e+00
      vertex   -9.638577e+00 4.159697e+00 -3.519858e+00
      vertex   -9.670689e+00 4.087870e+00 -3.519858e+00
    endloop
  endfacet
  facet normal -8.725269e-01 3.982201e-01 -2.830506e-01
    outer loop
      vertex   -9.672197e+00 4.260606e+00 -3.279024e+00
      vertex   -9.639660e+00 4.246274e+00 -3.399485e+00
      vertex   -9.705141e+00 4.188424e+00 -3.279024e+00
    endloop
  endfacet
  facet normal -8.725269e-01 3.982201e-01 -2.830506e-01
    outer loop
      vertex   -9.705141e+00 4.188424e+00 -3.279024e+00
      vertex   -9.639660e+00 4.246274e+00 -3.399485e+00
      vertex   -9.672493e+00 4.174334e+00 -3.399485e+00
    endloop
  endfacet
  facet normal -8.755713e-01 3.914563e-01 -2.830845e-01
    outer loop
      vertex   -9.705141e+00 4.188424e+00 -3.279024e+00
      vertex   -9.672493e+00 4.174334e+00 -3.399485e+00
      vertex   -9.737475e+00 4.116101e+00 -3.279024e+00
    endloop
  endfacet
  facet normal -8.755713e-01 3.914563e-01 -2.830845e-01
    outer loop
      vertex   -9.737475e+00 4.116101e+00 -3.279024e+00
      vertex   -9.672493e+00 4.174334e+00 -3.399485e+00
      vertex   -9.704719e+00 4.102255e+00 -3.399485e+00
    endloop
  endfacet
  facet normal -8.752298e-01 3.994538e-01 -2.727810e-01
    outer loop
      vertex   -9.703472e+00 4.274383e+00 -3.158501e+00
      vertex   -9.672197e+00 4.260606e+00 -3.279024e+00
      vertex   -9.736523e+00 4.201967e+00 -3.158501e+00
    endloop
  endfacet
  facet normal -8.752298e-01 3.994538e-01 -2.727810e-01
    outer loop
      vertex   -9.736523e+00 4.201967e+00 -3.158501e+00
      vertex   -9.672197e+00 4.260606e+00 -3.279024e+00
      vertex   -9.705141e+00 4.188424e+00 -3.279024e+00
    endloop
  endfacet
  facet normal -8.782844e-01 3.926692e-01 -2.728139e-01
    outer loop
      vertex   -9.736523e+00 4.201967e+00 -3.158501e+00
      vertex   -9.705141e+00 4.188424e+00 -3.279024e+00
      vertex   -9.768962e+00 4.129410e+00 -3.158501e+00
    endloop
  endfacet
  facet normal -8.782844e-01 3.926692e-01 -2.728139e-01
    outer loop
      vertex   -9.768962e+00 4.129410e+00 -3.158501e+00
      vertex   -9.705141e+00 4.188424e+00 -3.279024e+00
      vertex   -9.737475e+00 4.116101e+00 -3.279024e+00
    endloop
  endfacet
  facet normal -8.778246e-01 4.006380e-01 -2.625133e-01
    outer loop
      vertex   -9.733491e+00 4.287607e+00 -3.037938e+00
      vertex   -9.703472e+00 4.274383e+00 -3.158501e+00
      vertex   -9.766644e+00 4.214966e+00 -3.037938e+00
    endloop
  endfacet
  facet normal -8.778246e-01 4.006380e-01 -2.625133e-01
    outer loop
      vertex   -9.766644e+00 4.214966e+00 -3.037938e+00
      vertex   -9.703472e+00 4.274383e+00 -3.158501e+00
      vertex   -9.736523e+00 4.201967e+00 -3.158501e+00
    endloop
  endfacet
  facet normal -8.808888e-01 3.938336e-01 -2.625452e-01
    outer loop
      vertex   -9.766644e+00 4.214966e+00 -3.037938e+00
      vertex   -9.736523e+00 4.201967e+00 -3.158501e+00
      vertex   -9.799184e+00 4.142185e+00 -3.037938e+00
    endloop
  endfacet
  facet normal -8.808888e-01 3.938336e-01 -2.625452e-01
    outer loop
      vertex   -9.799184e+00 4.142185e+00 -3.037938e+00
      vertex   -9.736523e+00 4.201967e+00 -3.158501e+00
      vertex   -9.768962e+00 4.129410e+00 -3.158501e+00
    endloop
  endfacet
  facet normal 0.000000e+00 -1.000000e+00 0.000000e+00
    outer loop
      vertex   -9.871729e+00 4.000000e+00 -3.000000e+00
      vertex   -9.834698e+00 4.000000e+00 -3.126758e+00
      vertex   -9.000000e+00 4.000000e+00 -3.000000e+00
    endloop
  endfacet
  facet normal 0.000000e+00 -1.000000e+00 0.000000e+00
    outer loop
      vertex   -9.000000e+00 4.000000e+00 -3.000000e+00
      vertex   -9.834698e+00 4.000000e+00 -3.126758e+00
      vertex   -9.796132e+00 4.000000e+00 -3.253043e+00
    endloop
  endfacet
  facet normal 0.000000e+00 -1.000000e+00 0.000000e+00
    outer loop
      vertex   -9.000000e+00 4.000000e+00 -3.000000e+00
      vertex   -9.796132e+00 4.000000e+00 -3.253043e+00
      vertex   -9.756037e+00 4.000000e+00 -3.378841e+00
    endloop
  endfacet
  facet normal 0.000000e+00 -1.000000e+00 0.000000e+00
    outer loop
      vertex   -9.756037e+00 4.000000e+00 -3.378841e+00
      vertex   -9.714416e+00 4.000000e+00 -3.504137e+00
      vertex   -9.000000e+00 4.000000e+00 -3.000000e+00
    endloop
  endfacet
  facet normal 0.000000e+00 -1.000000e+00 0.000000e+00
    outer loop
      vertex   -9.000000e+00 4.000000e+00 -3.000000e+00
      vertex   -9.714416e+00 4.000000e+00 -3.504137e+00
      vertex   -9.671273e+00 4.000000e+00 -3.628916e+00
    endloop
  endfacet
  facet normal 0.000000e+00 -1.000000e+00 0.000000e+00
    outer loop
      vertex   -9.000000e+00 4.000000e+00 -3.000000e+00
      vertex   -9.671273e+00 4.000000e+00 -3.628916e+00
      vertex   -9.626612e+00 4.000000e+00 -3.753163e+00
    endloop
  endfacet
  facet normal 0.000000e+00 -1.000000e+00 -0.000000e+00
    outer loop
      vertex   -9.000000e+00 4.000000e+00 -3.000000e+00
      vertex   -9.626612e+00 4.000000e+00 -3.753163e+00
      vertex   -9.000000e+00 4.000000e+00 -4.000000e+00
    endloop
  endfacet
  facet normal 0.000000e+00 -1.000000e+00 0.000000e+00
    outer loop
      vertex   -9.000000e+00 4.000000e+00 -4.000000e+00
      vertex   -9.626612e+00 4.000000e+00 -3.753163e+00
      vertex   -9.580437e+00 4.000000e+00 -3.876862e+00
    endloop
  endfacet
  facet normal 0.000000e+00 -1.000000e+00 0.000000e+00
    outer loop
      vertex   -9.000000e+00 4.000000e+00 -4.000000e+00
      vertex   -9.580437e+00 4.000000e+00 -3.876862e+00
      vertex   -9.532752e+00 4.000000e+00 -4.000000e+00
    endloop
  endfacet
  facet normal 0.000000e+00 -1.387331e-14 -1.000000e+00
    outer loop
      vertex   -9.532752e+00 4.000000e+00 -4.000000e+00
      vertex   -9.475442e+00 4.128041e+00 -4.000000e+00
      vertex   -9.000000e+00 4.000000e+00 -4.000000e+00
    endloop
  endfacet
  facet normal 6.663427e-15 1.086928e-14 -1.000000e+00
    outer loop
      vertex   -9.000000e+00 4.000000e+00 -4.000000e+00
      vertex   -9.475442e+00 4.128041e+00 -4.000000e+00
      vertex   -9.416356e+00 4.255248e+00 -4.000000e+00
    endloop
  endfacet
  facet normal 0.000000e+00 0.000000e+00 -1.000000e+00
    outer loop
      vertex   -9.000000e+00 4.000000e+00 -4.000000e+00
      vertex   -9.416356e+00 4.255248e+00 -4.000000e+00
      vertex   -9.355505e+00 4.381603e+00 -4.000000e+00
    endloop
  endfacet
  facet normal 0.000000e+00 0.000000e+00 -1.000000e+00
    outer loop
      vertex   -9.355505e+00 4.381603e+00 -4.000000e+00
      vertex   -9.292898e+00 4.507088e+00 -4.000000e+00
      vertex   -9.000000e+00 4.000000e+00 -4.000000e+00
    endloop
  endfacet
  facet normal 0.000000e+00 0.000000e+00 -1.000000e+00
    outer loop
      vertex   -9.000000e+00 4.000000e+00 -4.000000e+00
      vertex   -9.292898e+00 4.507088e+00 -4.000000e+00
      vertex   -9.228546e+00 4.631688e+00 -4.000000e+00
    endloop
  endfacet
  facet normal 0.000000e+00 0.000000e+00 -1.000000e+00
    outer loop
      vertex   -9.000000e+00 4.000000e+00 -4.000000e+00
      vertex   -9.228546e+00 4.631688e+00 -4.000000e+00
      vertex   -9.162459e+00 4.755385e+00 -4.000000e+00
    endloop
  endfacet
  facet normal -1.885402e-14 -4.054900e-15 -1.000000e+00
    outer loop
      vertex   -9.162459e+00 4.755385e+00 -4.000000e+00
      vertex   -9.094648e+00 4.878161e+00 -4.000000e+00
      vertex   -9.000000e+00 4.000000e+00 -4.000000e+00
    endloop
  endfacet
  facet normal 1.876800e-14 0.000000e+00 -1.000000e+00
    outer loop
      vertex   -9.000000e+00 4.000000e+00 -4.000000e+00
      vertex   -9.094648e+00 4.878161e+00 -4.000000e+00
      vertex   -9.000000e+00 5.000000e+00 -4.000000e+00
    endloop
  endfacet
  facet normal 0.000000e+00 1.457955e-14 -1.000000e+00
    outer loop
      vertex   -9.000000e+00 5.000000e+00 -4.000000e+00
      vertex   -9.094648e+00 4.878161e+00 -4.000000e+00
      vertex   -9.025123e+00 5.000000e+00 -4.000000e+00
    endloop
  endfacet
  facet normal -0.000000e+00 0.000000e+00 1.000000e+00
    outer loop
      vertex   -9.382459e+00 5.000000e+00 -3.000000e+00
      vertex   -9.449475e+00 4.877938e+00 -3.000000e+00
      vertex   -9.000000e+00 5.000000e+00 -3.000000e+00
    endloop
  endfacet
  facet normal 0.000000e+00 0.000000e+00 1.000000e+00
    outer loop
      vertex   -9.000000e+00 5.000000e+00 -3.000000e+00
      vertex   -9.449475e+00 4.877938e+00 -3.000000e+00
      vertex   -9.514837e+00 4.755005e+00 -3.000000e+00
    endloop
  endfacet
  facet normal 0.000000e+00 0.000000e+00 1.000000e+00
    outer loop
      vertex   -9.000000e+00 5.000000e+00 -3.000000e+00
      vertex   -9.514837e+00 4.755005e+00 -3.000000e+00
      vertex   -9.000000e+00 4.000000e+00 -3.000000e+00
    endloop
  endfacet
  facet normal 0.000000e+00 0.000000e+00 1.000000e+00
    outer loop
      vertex   -9.000000e+00 4.000000e+00 -3.000000e+00
      vertex   -9.514837e+00 4.755005e+00 -3.000000e+00
      vertex   -9.578534e+00 4.631217e+00 -3.000000e+00
    endloop
  endfacet
  facet normal 0.000000e+00 0.000000e+00 1.000000e+00
    outer loop
      vertex   -9.000000e+00 4.000000e+00 -3.000000e+00
      vertex   -9.578534e+00 4.631217e+00 -3.000000e+00
      vertex   -9.640558e+00 4.506589e+00 -3.000000e+00
    endloop
  endfacet
  facet normal 0.000000e+00 0.000000e+00 1.000000e+00
    outer loop
      vertex   -9.640558e+00 4.506589e+00 -3.000000e+00
      vertex   -9.700898e+00 4.381137e+00 -3.000000e+00
      vertex   -9.000000e+00 4.000000e+00 -3.000000e+00
    endloop
  endfacet
  facet normal 0.000000e+00 0.000000e+00 1.000000e+00
    outer loop
      vertex   -9.000000e+00 4.000000e+00 -3.000000e+00
      vertex   -9.700898e+00 4.381137e+00 -3.000000e+00
      vertex   -9.759547e+00 4.254878e+00 -3.000000e+00
    endloop
  endfacet
  facet normal -1.019573e-15 -3.038370e-15 1.000000e+00
    outer loop
      vertex   -9.000000e+00 4.000000e+00 -3.000000e+00
      vertex   -9.759547e+00 4.254878e+00 -3.000000e+00
      vertex   -9.816493e+00 4.127827e+00 -3.000000e+00
    endloop
  endfacet
  facet normal 0.000000e+00 3.474148e-15 1.000000e+00
    outer loop
      vertex   -9.816493e+00 4.127827e+00 -3.000000e+00
      vertex   -9.871729e+00 4.000000e+00 -3.000000e+00
      vertex   -9.000000e+00 4.000000e+00 -3.000000e+00
    endloop
  endfacet
  facet normal 0.000000e+00 1.000000e+00 -0.000000e+00
    outer loop
      vertex   -9.025123e+00 5.000000e+00 -4.000000e+00
      vertex   -9.075392e+00 5.000000e+00 -3.877071e+00
      vertex   -9.000000e+00 5.000000e+00 -4.000000e+00
    endloop
  endfacet
  facet normal 0.000000e+00 1.000000e+00 -0.000000e+00
    outer loop
      vertex   -9.000000e+00 5.000000e+00 -4.000000e+00
      vertex   -9.075392e+00 5.000000e+00 -3.877071e+00
      vertex   -9.000000e+00 5.000000e+00 -3.000000e+00
    endloop
  endfacet
  facet normal 0.000000e+00 1.000000e+00 0.000000e+00
    outer loop
      vertex   -9.000000e+00 5.000000e+00 -3.000000e+00
      vertex   -9.075392e+00 5.000000e+00 -3.877071e+00
      vertex   -9.124070e+00 5.000000e+00 -3.753518e+00
    endloop
  endfacet
  facet normal 0.000000e+00 1.000000e+00 0.000000e+00
    outer loop
      vertex   -9.000000e+00 5.000000e+00 -3.000000e+00
      vertex   -9.124070e+00 5.000000e+00 -3.753518e+00
      vertex   -9.171152e+00 5.000000e+00 -3.629355e+00
    endloop
  endfacet
  facet normal 0.000000e+00 1.000000e+00 -0.000000e+00
    outer loop
      vertex   -9.171152e+00 5.000000e+00 -3.629355e+00
      vertex   -9.216633e+00 5.000000e+00 -3.504601e+00
      vertex   -9.000000e+00 5.000000e+00 -3.000000e+00
    endloop
  endfacet
  facet normal 0.000000e+00 1.000000e+00 0.000000e+00
    outer loop
      vertex   -9.000000e+00 5.000000e+00 -3.000000e+00
      vertex   -9.216633e+00 5.000000e+00 -3.504601e+00
      vertex   -9.260509e+00 5.000000e+00 -3.379272e+00
    endloop
  endfacet
  facet normal 0.000000e+00 1.000000e+00 0.000000e+00
    outer loop
      vertex   -9.000000e+00 5.000000e+00 -3.000000e+00
      vertex   -9.260509e+00 5.000000e+00 -3.379272e+00
      vertex   -9.302775e+00 5.000000e+00 -3.253384e+00
    endloop
  endfacet
  facet normal 0.000000e+00 1.000000e+00 -0.000000e+00
    outer loop
      vertex   -9.302775e+00 5.000000e+00 -3.253384e+00
      vertex   -9.343426e+00 5.000000e+00 -3.126955e+00
      vertex   -9.000000e+00 5.000000e+00 -3.000000e+00
    endloop
  endfacet
  facet normal 0.000000e+00 1.000000e+00 0.000000e+00
    outer loop
      vertex   -9.000000e+00 5.000000e+00 -3.000000e+00
      vertex   -9.343426e+00 5.000000e+00 -3.126955e+00
      vertex   -9.382459e+00 5.000000e+00 -3.000000e+00
    endloop
  endfacet
  facet normal 1.000000e+00 -0.000000e+00 0.000000e+00
    outer loop
      vertex   -9.000000e+00 4.000000e+00 -3.000000e+00
      vertex   -9.000000e+00 4.000000e+00 -4.000000e+00
      vertex   -9.000000e+00 5.000000e+00 -3.000000e+00
    endloop
  endfacet
  facet normal 1.000000e+00 0.000000e+00 0.000000e+00
    outer loop
      vertex   -9.000000e+00 5.000000e+00 -3.000000e+00
      vertex   -9.000000e+00 4.000000e+00 -4.000000e+00
      vertex   -9.000000e+00 5.000000e+00 -4.000000e+00
    endloop
  endfacet
endsolid
