solid ASCII
  facet normal -8.210208e-01 -2.563774e-01 -5.100937e-01
    outer loop
      vertex   -9.000000e+00 -2.734617e+00 -6.000000e+00
      vertex   -9.028374e+00 -2.643751e+00 -6.000000e+00
      vertex   -9.000000e+00 -2.689961e+00 -6.022444e+00
    endloop
  endfacet
  facet normal -8.196380e-01 -2.538370e-01 -5.135760e-01
    outer loop
      vertex   -9.000000e+00 -2.689961e+00 -6.022444e+00
      vertex   -9.028374e+00 -2.643751e+00 -6.000000e+00
      vertex   -9.017270e+00 -2.639503e+00 -6.019821e+00
    endloop
  endfacet
  facet normal -8.187342e-01 -2.534427e-01 -5.152097e-01
    outer loop
      vertex   -9.000000e+00 -2.689961e+00 -6.022444e+00
      vertex   -9.017270e+00 -2.639503e+00 -6.019821e+00
      vertex   -9.005845e+00 -2.636159e+00 -6.039622e+00
    endloop
  endfacet
  facet normal -8.207603e-01 -2.467292e-01 -5.152449e-01
    outer loop
      vertex   -9.005845e+00 -2.636159e+00 -6.039622e+00
      vertex   -9.017270e+00 -2.639503e+00 -6.019821e+00
      vertex   -9.033379e+00 -2.544565e+00 -6.039622e+00
    endloop
  endfacet
  facet normal -8.211503e-01 -2.468465e-01 -5.145668e-01
    outer loop
      vertex   -9.005845e+00 -2.636159e+00 -6.039622e+00
      vertex   -9.033379e+00 -2.544565e+00 -6.039622e+00
      vertex   -9.000000e+00 -2.600091e+00 -6.066252e+00
    endloop
  endfacet
  facet normal -8.201604e-01 -2.450954e-01 -5.169770e-01
    outer loop
      vertex   -9.000000e+00 -2.600091e+00 -6.066252e+00
      vertex   -9.033379e+00 -2.544565e+00 -6.039622e+00
      vertex   -9.021879e+00 -2.541326e+00 -6.059402e+00
    endloop
  endfacet
  facet normal -8.192352e-01 -2.445502e-01 -5.186992e-01
    outer loop
      vertex   -9.000000e+00 -2.600091e+00 -6.066252e+00
      vertex   -9.021879e+00 -2.541326e+00 -6.059402e+00
      vertex   -9.010339e+00 -2.538075e+00 -6.079162e+00
    endloop
  endfacet
  facet normal -8.212985e-01 -2.374486e-01 -5.187359e-01
    outer loop
      vertex   -9.010339e+00 -2.538075e+00 -6.079162e+00
      vertex   -9.021879e+00 -2.541326e+00 -6.059402e+00
      vertex   -9.036760e+00 -2.446686e+00 -6.079162e+00
    endloop
  endfacet
  facet normal -8.202943e-01 -2.371583e-01 -5.204549e-01
    outer loop
      vertex   -9.010339e+00 -2.538075e+00 -6.079162e+00
      vertex   -9.036760e+00 -2.446686e+00 -6.079162e+00
      vertex   -9.025146e+00 -2.443541e+00 -6.098901e+00
    endloop
  endfacet
  facet normal -8.227233e-01 -2.284823e-01 -5.205019e-01
    outer loop
      vertex   -9.025146e+00 -2.443541e+00 -6.098901e+00
      vertex   -9.036760e+00 -2.446686e+00 -6.079162e+00
      vertex   -9.050497e+00 -2.352257e+00 -6.098901e+00
    endloop
  endfacet
  facet normal -8.217122e-01 -2.282015e-01 -5.222194e-01
    outer loop
      vertex   -9.025146e+00 -2.443541e+00 -6.098901e+00
      vertex   -9.050497e+00 -2.352257e+00 -6.098901e+00
      vertex   -9.038809e+00 -2.349219e+00 -6.118619e+00
    endloop
  endfacet
  facet normal -8.240416e-01 -2.195334e-01 -5.222648e-01
    outer loop
      vertex   -9.038809e+00 -2.349219e+00 -6.118619e+00
      vertex   -9.050497e+00 -2.352257e+00 -6.098901e+00
      vertex   -9.063096e+00 -2.258055e+00 -6.118619e+00
    endloop
  endfacet
  facet normal -8.230238e-01 -2.192622e-01 -5.239808e-01
    outer loop
      vertex   -9.038809e+00 -2.349219e+00 -6.118619e+00
      vertex   -9.063096e+00 -2.258055e+00 -6.118619e+00
      vertex   -9.051337e+00 -2.255125e+00 -6.138316e+00
    endloop
  endfacet
  facet normal -8.247039e-01 -2.127654e-01 -5.240175e-01
    outer loop
      vertex   -9.051337e+00 -2.255125e+00 -6.138316e+00
      vertex   -9.063096e+00 -2.258055e+00 -6.118619e+00
      vertex   -9.063080e+00 -2.209608e+00 -6.138316e+00
    endloop
  endfacet
  facet normal -8.236802e-01 -2.125013e-01 -5.257320e-01
    outer loop
      vertex   -9.051337e+00 -2.255125e+00 -6.138316e+00
      vertex   -9.063080e+00 -2.209608e+00 -6.138316e+00
      vertex   -9.051264e+00 -2.206728e+00 -6.157992e+00
    endloop
  endfacet
  facet normal -8.247701e-01 -2.081772e-01 -5.257533e-01
    outer loop
      vertex   -9.051264e+00 -2.206728e+00 -6.157992e+00
      vertex   -9.063080e+00 -2.209608e+00 -6.138316e+00
      vertex   -9.062736e+00 -2.161277e+00 -6.157992e+00
    endloop
  endfacet
  facet normal -8.221906e-01 -2.075262e-01 -5.300335e-01
    outer loop
      vertex   -9.051264e+00 -2.206728e+00 -6.157992e+00
      vertex   -9.062736e+00 -2.161277e+00 -6.157992e+00
      vertex   -9.015011e+00 -2.149895e+00 -6.236479e+00
    endloop
  endfacet
  facet normal -8.232530e-01 -2.032158e-01 -5.300545e-01
    outer loop
      vertex   -9.015011e+00 -2.149895e+00 -6.236479e+00
      vertex   -9.062736e+00 -2.161277e+00 -6.157992e+00
      vertex   -9.026169e+00 -2.104692e+00 -6.236479e+00
    endloop
  endfacet
  facet normal -8.206369e-01 -2.025700e-01 -5.343411e-01
    outer loop
      vertex   -9.015011e+00 -2.149895e+00 -6.236479e+00
      vertex   -9.026169e+00 -2.104692e+00 -6.236479e+00
      vertex   -9.000000e+00 -2.140707e+00 -6.263017e+00
    endloop
  endfacet
  facet normal -8.201736e-01 -2.013782e-01 -5.355017e-01
    outer loop
      vertex   -9.000000e+00 -2.140707e+00 -6.263017e+00
      vertex   -9.026169e+00 -2.104692e+00 -6.236479e+00
      vertex   -9.000000e+00 -2.093945e+00 -6.280602e+00
    endloop
  endfacet
  facet normal -8.211133e-01 -1.981388e-01 -5.352700e-01
    outer loop
      vertex   -9.000000e+00 -2.093945e+00 -6.280602e+00
      vertex   -9.026169e+00 -2.104692e+00 -6.236479e+00
      vertex   -9.037075e+00 -2.059499e+00 -6.236479e+00
    endloop
  endfacet
  facet normal -8.208533e-01 -1.966426e-01 -5.362196e-01
    outer loop
      vertex   -9.000000e+00 -2.093945e+00 -6.280602e+00
      vertex   -9.037075e+00 -2.059499e+00 -6.236479e+00
      vertex   -9.000000e+00 -2.047042e+00 -6.297802e+00
    endloop
  endfacet
  facet normal -8.216270e-01 -1.937288e-01 -5.360954e-01
    outer loop
      vertex   -9.000000e+00 -2.047042e+00 -6.297802e+00
      vertex   -9.037075e+00 -2.059499e+00 -6.236479e+00
      vertex   -9.047728e+00 -2.014318e+00 -6.236479e+00
    endloop
  endfacet
  facet normal -8.213999e-01 -1.907424e-01 -5.375123e-01
    outer loop
      vertex   -9.000000e+00 -2.047042e+00 -6.297802e+00
      vertex   -9.047728e+00 -2.014318e+00 -6.236479e+00
      vertex   -9.050981e+00 -2.000000e+00 -6.236588e+00
    endloop
  endfacet
  facet normal -8.259696e-01 -1.917244e-01 -5.301094e-01
    outer loop
      vertex   -9.050981e+00 -2.000000e+00 -6.236588e+00
      vertex   -9.047728e+00 -2.014318e+00 -6.236479e+00
      vertex   -9.095626e+00 -2.024982e+00 -6.157992e+00
    endloop
  endfacet
  facet normal -8.261077e-01 -1.912919e-01 -5.300504e-01
    outer loop
      vertex   -9.050981e+00 -2.000000e+00 -6.236588e+00
      vertex   -9.095626e+00 -2.024982e+00 -6.157992e+00
      vertex   -9.101316e+00 -2.000000e+00 -6.158140e+00
    endloop
  endfacet
  facet normal -8.286707e-01 -1.918506e-01 -5.258310e-01
    outer loop
      vertex   -9.101316e+00 -2.000000e+00 -6.158140e+00
      vertex   -9.095626e+00 -2.024982e+00 -6.157992e+00
      vertex   -9.107499e+00 -2.027625e+00 -6.138316e+00
    endloop
  endfacet
  facet normal -8.301088e-01 -1.903026e-01 -5.241225e-01
    outer loop
      vertex   -9.101316e+00 -2.000000e+00 -6.158140e+00
      vertex   -9.107499e+00 -2.027625e+00 -6.138316e+00
      vertex   -9.119332e+00 -2.030259e+00 -6.118619e+00
    endloop
  endfacet
  facet normal -8.289260e-01 -1.954498e-01 -5.241003e-01
    outer loop
      vertex   -9.119332e+00 -2.030259e+00 -6.118619e+00
      vertex   -9.107499e+00 -2.027625e+00 -6.138316e+00
      vertex   -9.108594e+00 -2.075798e+00 -6.118619e+00
    endloop
  endfacet
  facet normal -8.299515e-01 -1.956916e-01 -5.223842e-01
    outer loop
      vertex   -9.119332e+00 -2.030259e+00 -6.118619e+00
      vertex   -9.108594e+00 -2.075798e+00 -6.118619e+00
      vertex   -9.120372e+00 -2.078482e+00 -6.098901e+00
    endloop
  endfacet
  facet normal -8.289304e-01 -2.000252e-01 -5.223642e-01
    outer loop
      vertex   -9.120372e+00 -2.078482e+00 -6.098901e+00
      vertex   -9.108594e+00 -2.075798e+00 -6.118619e+00
      vertex   -9.109367e+00 -2.124092e+00 -6.098901e+00
    endloop
  endfacet
  facet normal -8.299509e-01 -2.002714e-01 -5.206466e-01
    outer loop
      vertex   -9.120372e+00 -2.078482e+00 -6.098901e+00
      vertex   -9.109367e+00 -2.124092e+00 -6.098901e+00
      vertex   -9.121090e+00 -2.126825e+00 -6.079162e+00
    endloop
  endfacet
  facet normal -8.289046e-01 -2.046109e-01 -5.206261e-01
    outer loop
      vertex   -9.121090e+00 -2.126825e+00 -6.079162e+00
      vertex   -9.109367e+00 -2.124092e+00 -6.098901e+00
      vertex   -9.109814e+00 -2.172504e+00 -6.079162e+00
    endloop
  endfacet
  facet normal -8.299200e-01 -2.048615e-01 -5.189070e-01
    outer loop
      vertex   -9.121090e+00 -2.126825e+00 -6.079162e+00
      vertex   -9.109814e+00 -2.172504e+00 -6.079162e+00
      vertex   -9.121482e+00 -2.175286e+00 -6.059402e+00
    endloop
  endfacet
  facet normal -8.288484e-01 -2.092067e-01 -5.188861e-01
    outer loop
      vertex   -9.121482e+00 -2.175286e+00 -6.059402e+00
      vertex   -9.109814e+00 -2.172504e+00 -6.079162e+00
      vertex   -9.109935e+00 -2.221032e+00 -6.059402e+00
    endloop
  endfacet
  facet normal -8.298588e-01 -2.094617e-01 -5.171656e-01
    outer loop
      vertex   -9.121482e+00 -2.175286e+00 -6.059402e+00
      vertex   -9.109935e+00 -2.221032e+00 -6.059402e+00
      vertex   -9.121548e+00 -2.223863e+00 -6.039622e+00
    endloop
  endfacet
  facet normal -8.287618e-01 -2.138123e-01 -5.171443e-01
    outer loop
      vertex   -9.121548e+00 -2.223863e+00 -6.039622e+00
      vertex   -9.109935e+00 -2.221032e+00 -6.059402e+00
      vertex   -9.109729e+00 -2.269674e+00 -6.039622e+00
    endloop
  endfacet
  facet normal -8.297670e-01 -2.140716e-01 -5.154222e-01
    outer loop
      vertex   -9.121548e+00 -2.223863e+00 -6.039622e+00
      vertex   -9.109729e+00 -2.269674e+00 -6.039622e+00
      vertex   -9.121286e+00 -2.272553e+00 -6.019821e+00
    endloop
  endfacet
  facet normal -8.280759e-01 -2.206081e-01 -5.153857e-01
    outer loop
      vertex   -9.121286e+00 -2.272553e+00 -6.019821e+00
      vertex   -9.109729e+00 -2.269674e+00 -6.039622e+00
      vertex   -9.096843e+00 -2.364302e+00 -6.019821e+00
    endloop
  endfacet
  facet normal -8.288747e-01 -2.208210e-01 -5.140086e-01
    outer loop
      vertex   -9.121286e+00 -2.272553e+00 -6.019821e+00
      vertex   -9.096843e+00 -2.364302e+00 -6.019821e+00
      vertex   -9.132268e+00 -2.277469e+00 -6.000000e+00
    endloop
  endfacet
  facet normal -8.292343e-01 -2.211305e-01 -5.132951e-01
    outer loop
      vertex   -9.132268e+00 -2.277469e+00 -6.000000e+00
      vertex   -9.096843e+00 -2.364302e+00 -6.019821e+00
      vertex   -9.107740e+00 -2.369447e+00 -6.000000e+00
    endloop
  endfacet
  facet normal -8.265188e-01 -2.295364e-01 -5.139842e-01
    outer loop
      vertex   -9.107740e+00 -2.369447e+00 -6.000000e+00
      vertex   -9.096843e+00 -2.364302e+00 -6.019821e+00
      vertex   -9.071362e+00 -2.456054e+00 -6.019821e+00
    endloop
  endfacet
  facet normal -8.268730e-01 -2.298475e-01 -5.132749e-01
    outer loop
      vertex   -9.107740e+00 -2.369447e+00 -6.000000e+00
      vertex   -9.071362e+00 -2.456054e+00 -6.019821e+00
      vertex   -9.082247e+00 -2.461159e+00 -6.000000e+00
    endloop
  endfacet
  facet normal -8.240918e-01 -2.382562e-01 -5.139132e-01
    outer loop
      vertex   -9.082247e+00 -2.461159e+00 -6.000000e+00
      vertex   -9.071362e+00 -2.456054e+00 -6.019821e+00
      vertex   -9.044839e+00 -2.547793e+00 -6.019821e+00
    endloop
  endfacet
  facet normal -8.243967e-01 -2.385287e-01 -5.132973e-01
    outer loop
      vertex   -9.082247e+00 -2.461159e+00 -6.000000e+00
      vertex   -9.044839e+00 -2.547793e+00 -6.019821e+00
      vertex   -9.055791e+00 -2.552596e+00 -6.000000e+00
    endloop
  endfacet
  facet normal -8.215930e-01 -2.469796e-01 -5.137957e-01
    outer loop
      vertex   -9.055791e+00 -2.552596e+00 -6.000000e+00
      vertex   -9.044839e+00 -2.547793e+00 -6.019821e+00
      vertex   -9.017270e+00 -2.639503e+00 -6.019821e+00
    endloop
  endfacet
  facet normal -8.218058e-01 -2.471727e-01 -5.133624e-01
    outer loop
      vertex   -9.055791e+00 -2.552596e+00 -6.000000e+00
      vertex   -9.017270e+00 -2.639503e+00 -6.019821e+00
      vertex   -9.028374e+00 -2.643751e+00 -6.000000e+00
    endloop
  endfacet
  facet normal -8.308754e-01 -2.143576e-01 -5.135142e-01
    outer loop
      vertex   -9.121286e+00 -2.272553e+00 -6.019821e+00
      vertex   -9.132268e+00 -2.277469e+00 -6.000000e+00
      vertex   -9.133120e+00 -2.226684e+00 -6.019821e+00
    endloop
  endfacet
  facet normal -8.335854e-01 -2.129172e-01 -5.097074e-01
    outer loop
      vertex   -9.133120e+00 -2.226684e+00 -6.019821e+00
      vertex   -9.132268e+00 -2.277469e+00 -6.000000e+00
      vertex   -9.155828e+00 -2.185230e+00 -6.000000e+00
    endloop
  endfacet
  facet normal -8.317886e-01 -2.099488e-01 -5.138572e-01
    outer loop
      vertex   -9.133120e+00 -2.226684e+00 -6.019821e+00
      vertex   -9.155828e+00 -2.185230e+00 -6.000000e+00
      vertex   -9.144696e+00 -2.180822e+00 -6.019821e+00
    endloop
  endfacet
  facet normal -8.330295e-01 -2.056291e-01 -5.135937e-01
    outer loop
      vertex   -9.144696e+00 -2.180822e+00 -6.019821e+00
      vertex   -9.155828e+00 -2.185230e+00 -6.000000e+00
      vertex   -9.156014e+00 -2.134969e+00 -6.019821e+00
    endloop
  endfacet
  facet normal -8.319398e-01 -2.053601e-01 -5.154643e-01
    outer loop
      vertex   -9.144696e+00 -2.180822e+00 -6.019821e+00
      vertex   -9.156014e+00 -2.134969e+00 -6.019821e+00
      vertex   -9.144413e+00 -2.132264e+00 -6.039622e+00
    endloop
  endfacet
  facet normal -8.329901e-01 -2.010048e-01 -5.154847e-01
    outer loop
      vertex   -9.144413e+00 -2.132264e+00 -6.039622e+00
      vertex   -9.156014e+00 -2.134969e+00 -6.019821e+00
      vertex   -9.155462e+00 -2.086479e+00 -6.039622e+00
    endloop
  endfacet
  facet normal -8.319808e-01 -2.007612e-01 -5.172068e-01
    outer loop
      vertex   -9.144413e+00 -2.132264e+00 -6.039622e+00
      vertex   -9.155462e+00 -2.086479e+00 -6.039622e+00
      vertex   -9.143806e+00 -2.083822e+00 -6.059402e+00
    endloop
  endfacet
  facet normal -8.330059e-01 -1.964118e-01 -5.172268e-01
    outer loop
      vertex   -9.143806e+00 -2.083822e+00 -6.059402e+00
      vertex   -9.155462e+00 -2.086479e+00 -6.039622e+00
      vertex   -9.154585e+00 -2.038108e+00 -6.059402e+00
    endloop
  endfacet
  facet normal -8.319915e-01 -1.961726e-01 -5.189475e-01
    outer loop
      vertex   -9.143806e+00 -2.083822e+00 -6.059402e+00
      vertex   -9.154585e+00 -2.038108e+00 -6.059402e+00
      vertex   -9.142875e+00 -2.035501e+00 -6.079162e+00
    endloop
  endfacet
  facet normal -8.328820e-01 -1.923084e-01 -5.189654e-01
    outer loop
      vertex   -9.142875e+00 -2.035501e+00 -6.079162e+00
      vertex   -9.154585e+00 -2.038108e+00 -6.059402e+00
      vertex   -9.151001e+00 -2.000000e+00 -6.079276e+00
    endloop
  endfacet
  facet normal -8.318611e-01 -1.920802e-01 -5.206845e-01
    outer loop
      vertex   -9.142875e+00 -2.035501e+00 -6.079162e+00
      vertex   -9.151001e+00 -2.000000e+00 -6.079276e+00
      vertex   -9.131124e+00 -2.032885e+00 -6.098901e+00
    endloop
  endfacet
  facet normal -8.311206e-01 -1.906052e-01 -5.224062e-01
    outer loop
      vertex   -9.131124e+00 -2.032885e+00 -6.098901e+00
      vertex   -9.151001e+00 -2.000000e+00 -6.079276e+00
      vertex   -9.119332e+00 -2.030259e+00 -6.118619e+00
    endloop
  endfacet
  facet normal -8.299515e-01 -1.956916e-01 -5.223842e-01
    outer loop
      vertex   -9.131124e+00 -2.032885e+00 -6.098901e+00
      vertex   -9.119332e+00 -2.030259e+00 -6.118619e+00
      vertex   -9.120372e+00 -2.078482e+00 -6.098901e+00
    endloop
  endfacet
  facet normal -8.357604e-01 -2.041211e-01 -5.097442e-01
    outer loop
      vertex   -9.155828e+00 -2.185230e+00 -6.000000e+00
      vertex   -9.178418e+00 -2.092738e+00 -6.000000e+00
      vertex   -9.156014e+00 -2.134969e+00 -6.019821e+00
    endloop
  endfacet
  facet normal -8.339482e-01 -2.012360e-01 -5.138428e-01
    outer loop
      vertex   -9.156014e+00 -2.134969e+00 -6.019821e+00
      vertex   -9.178418e+00 -2.092738e+00 -6.000000e+00
      vertex   -9.167076e+00 -2.089126e+00 -6.019821e+00
    endloop
  endfacet
  facet normal -8.329901e-01 -2.010048e-01 -5.154847e-01
    outer loop
      vertex   -9.156014e+00 -2.134969e+00 -6.019821e+00
      vertex   -9.167076e+00 -2.089126e+00 -6.019821e+00
      vertex   -9.155462e+00 -2.086479e+00 -6.039622e+00
    endloop
  endfacet
  facet normal -8.340166e-01 -1.966501e-01 -5.155047e-01
    outer loop
      vertex   -9.155462e+00 -2.086479e+00 -6.039622e+00
      vertex   -9.167076e+00 -2.089126e+00 -6.019821e+00
      vertex   -9.166254e+00 -2.040706e+00 -6.039622e+00
    endloop
  endfacet
  facet normal -8.330059e-01 -1.964118e-01 -5.172268e-01
    outer loop
      vertex   -9.155462e+00 -2.086479e+00 -6.039622e+00
      vertex   -9.166254e+00 -2.040706e+00 -6.039622e+00
      vertex   -9.154585e+00 -2.038108e+00 -6.059402e+00
    endloop
  endfacet
  facet normal -8.341832e-01 -1.912908e-01 -5.172488e-01
    outer loop
      vertex   -9.154585e+00 -2.038108e+00 -6.059402e+00
      vertex   -9.166254e+00 -2.040706e+00 -6.039622e+00
      vertex   -9.151001e+00 -2.000000e+00 -6.079276e+00
    endloop
  endfacet
  facet normal -8.350731e-01 -1.968992e-01 -5.136961e-01
    outer loop
      vertex   -9.167076e+00 -2.089126e+00 -6.019821e+00
      vertex   -9.178418e+00 -2.092738e+00 -6.000000e+00
      vertex   -9.177883e+00 -2.043295e+00 -6.019821e+00
    endloop
  endfacet
  facet normal -8.378444e-01 -1.952990e-01 -5.097794e-01
    outer loop
      vertex   -9.177883e+00 -2.043295e+00 -6.019821e+00
      vertex   -9.178418e+00 -2.092738e+00 -6.000000e+00
      vertex   -9.200035e+00 -2.000000e+00 -6.000000e+00
    endloop
  endfacet
  facet normal -8.352383e-01 -1.913341e-01 -5.155271e-01
    outer loop
      vertex   -9.177883e+00 -2.043295e+00 -6.019821e+00
      vertex   -9.200035e+00 -2.000000e+00 -6.000000e+00
      vertex   -9.166254e+00 -2.040706e+00 -6.039622e+00
    endloop
  endfacet
  facet normal -8.349387e-01 -1.902084e-01 -5.164282e-01
    outer loop
      vertex   -9.166254e+00 -2.040706e+00 -6.039622e+00
      vertex   -9.200035e+00 -2.000000e+00 -6.000000e+00
      vertex   -9.151001e+00 -2.000000e+00 -6.079276e+00
    endloop
  endfacet
  facet normal -8.308436e-01 -1.889724e-01 -5.234390e-01
    outer loop
      vertex   -9.151001e+00 -2.000000e+00 -6.079276e+00
      vertex   -9.101316e+00 -2.000000e+00 -6.158140e+00
      vertex   -9.119332e+00 -2.030259e+00 -6.118619e+00
    endloop
  endfacet
  facet normal -8.215973e-01 -1.918733e-01 -5.368076e-01
    outer loop
      vertex   -9.050981e+00 -2.000000e+00 -6.236588e+00
      vertex   -9.000000e+00 -2.000000e+00 -6.314617e+00
      vertex   -9.000000e+00 -2.047042e+00 -6.297802e+00
    endloop
  endfacet
  facet normal -8.193897e-01 -2.061644e-01 -5.348801e-01
    outer loop
      vertex   -9.000000e+00 -2.140707e+00 -6.263017e+00
      vertex   -9.000000e+00 -2.187327e+00 -6.245048e+00
      vertex   -9.015011e+00 -2.149895e+00 -6.236479e+00
    endloop
  endfacet
  facet normal -8.205317e-01 -2.071075e-01 -5.327609e-01
    outer loop
      vertex   -9.015011e+00 -2.149895e+00 -6.236479e+00
      vertex   -9.000000e+00 -2.187327e+00 -6.245048e+00
      vertex   -9.003600e+00 -2.195107e+00 -6.236479e+00
    endloop
  endfacet
  facet normal -8.221906e-01 -2.075262e-01 -5.300335e-01
    outer loop
      vertex   -9.015011e+00 -2.149895e+00 -6.236479e+00
      vertex   -9.003600e+00 -2.195107e+00 -6.236479e+00
      vertex   -9.051264e+00 -2.206728e+00 -6.157992e+00
    endloop
  endfacet
  facet normal -8.214618e-01 -2.104260e-01 -5.300203e-01
    outer loop
      vertex   -9.051264e+00 -2.206728e+00 -6.157992e+00
      vertex   -9.003600e+00 -2.195107e+00 -6.236479e+00
      vertex   -9.000000e+00 -2.233801e+00 -6.226696e+00
    endloop
  endfacet
  facet normal -8.214587e-01 -2.119281e-01 -5.294261e-01
    outer loop
      vertex   -9.051264e+00 -2.206728e+00 -6.157992e+00
      vertex   -9.000000e+00 -2.233801e+00 -6.226696e+00
      vertex   -9.039537e+00 -2.252185e+00 -6.157992e+00
    endloop
  endfacet
  facet normal -8.207551e-01 -2.141613e-01 -5.296187e-01
    outer loop
      vertex   -9.039537e+00 -2.252185e+00 -6.157992e+00
      vertex   -9.000000e+00 -2.233801e+00 -6.226696e+00
      vertex   -9.000000e+00 -2.280129e+00 -6.207962e+00
    endloop
  endfacet
  facet normal -8.210225e-01 -2.183382e-01 -5.274946e-01
    outer loop
      vertex   -9.039537e+00 -2.252185e+00 -6.157992e+00
      vertex   -9.000000e+00 -2.280129e+00 -6.207962e+00
      vertex   -9.000000e+00 -2.326307e+00 -6.188849e+00
    endloop
  endfacet
  facet normal -8.176396e-01 -2.114542e-01 -5.354929e-01
    outer loop
      vertex   -9.000000e+00 -2.187327e+00 -6.245048e+00
      vertex   -9.000000e+00 -2.233801e+00 -6.226696e+00
      vertex   -9.003600e+00 -2.195107e+00 -6.236479e+00
    endloop
  endfacet
  facet normal -8.213589e-01 -2.188187e-01 -5.267713e-01
    outer loop
      vertex   -9.039537e+00 -2.252185e+00 -6.157992e+00
      vertex   -9.000000e+00 -2.326307e+00 -6.188849e+00
      vertex   -9.015313e+00 -2.343112e+00 -6.157992e+00
    endloop
  endfacet
  facet normal -8.190419e-01 -2.237480e-01 -5.283060e-01
    outer loop
      vertex   -9.015313e+00 -2.343112e+00 -6.157992e+00
      vertex   -9.000000e+00 -2.326307e+00 -6.188849e+00
      vertex   -9.000000e+00 -2.372334e+00 -6.169355e+00
    endloop
  endfacet
  facet normal -8.212775e-01 -2.267803e-01 -5.235207e-01
    outer loop
      vertex   -9.015313e+00 -2.343112e+00 -6.157992e+00
      vertex   -9.000000e+00 -2.372334e+00 -6.169355e+00
      vertex   -9.000000e+00 -2.418208e+00 -6.149483e+00
    endloop
  endfacet
  facet normal -8.135180e-01 -2.355032e-01 -5.317205e-01
    outer loop
      vertex   -9.000000e+00 -2.463927e+00 -6.129234e+00
      vertex   -9.001796e+00 -2.437219e+00 -6.138316e+00
      vertex   -9.000000e+00 -2.418208e+00 -6.149483e+00
    endloop
  endfacet
  facet normal -8.224034e-01 -2.283935e-01 -5.210461e-01
    outer loop
      vertex   -9.000000e+00 -2.418208e+00 -6.149483e+00
      vertex   -9.001796e+00 -2.437219e+00 -6.138316e+00
      vertex   -9.027081e+00 -2.346171e+00 -6.138316e+00
    endloop
  endfacet
  facet normal -8.199217e-01 -2.267458e-01 -5.256564e-01
    outer loop
      vertex   -9.000000e+00 -2.418208e+00 -6.149483e+00
      vertex   -9.027081e+00 -2.346171e+00 -6.138316e+00
      vertex   -9.015313e+00 -2.343112e+00 -6.157992e+00
    endloop
  endfacet
  facet normal -8.220023e-01 -2.189901e-01 -5.256952e-01
    outer loop
      vertex   -9.015313e+00 -2.343112e+00 -6.157992e+00
      vertex   -9.027081e+00 -2.346171e+00 -6.138316e+00
      vertex   -9.039537e+00 -2.252185e+00 -6.157992e+00
    endloop
  endfacet
  facet normal -8.192192e-01 -2.332311e-01 -5.239115e-01
    outer loop
      vertex   -9.001796e+00 -2.437219e+00 -6.138316e+00
      vertex   -9.000000e+00 -2.463927e+00 -6.129234e+00
      vertex   -9.013491e+00 -2.440386e+00 -6.118619e+00
    endloop
  endfacet
  facet normal -8.207101e-01 -2.356260e-01 -5.204952e-01
    outer loop
      vertex   -9.013491e+00 -2.440386e+00 -6.118619e+00
      vertex   -9.000000e+00 -2.463927e+00 -6.129234e+00
      vertex   -9.000000e+00 -2.509488e+00 -6.108609e+00
    endloop
  endfacet
  facet normal -8.196288e-01 -2.356591e-01 -5.221814e-01
    outer loop
      vertex   -9.013491e+00 -2.440386e+00 -6.118619e+00
      vertex   -9.000000e+00 -2.509488e+00 -6.108609e+00
      vertex   -9.025146e+00 -2.443541e+00 -6.098901e+00
    endloop
  endfacet
  facet normal -8.215958e-01 -2.369523e-01 -5.184919e-01
    outer loop
      vertex   -9.025146e+00 -2.443541e+00 -6.098901e+00
      vertex   -9.000000e+00 -2.509488e+00 -6.108609e+00
      vertex   -9.010339e+00 -2.538075e+00 -6.079162e+00
    endloop
  endfacet
  facet normal -8.184188e-01 -2.412340e-01 -5.215332e-01
    outer loop
      vertex   -9.000000e+00 -2.509488e+00 -6.108609e+00
      vertex   -9.000000e+00 -2.554880e+00 -6.087613e+00
      vertex   -9.010339e+00 -2.538075e+00 -6.079162e+00
    endloop
  endfacet
  facet normal -8.201466e-01 -2.444152e-01 -5.173207e-01
    outer loop
      vertex   -9.010339e+00 -2.538075e+00 -6.079162e+00
      vertex   -9.000000e+00 -2.554880e+00 -6.087613e+00
      vertex   -9.000000e+00 -2.600091e+00 -6.066252e+00
    endloop
  endfacet
  facet normal -8.180112e-01 -2.499366e-01 -5.180631e-01
    outer loop
      vertex   -9.000000e+00 -2.600091e+00 -6.066252e+00
      vertex   -9.000000e+00 -2.645118e+00 -6.044529e+00
      vertex   -9.005845e+00 -2.636159e+00 -6.039622e+00
    endloop
  endfacet
  facet normal -8.195625e-01 -2.531567e-01 -5.140321e-01
    outer loop
      vertex   -9.005845e+00 -2.636159e+00 -6.039622e+00
      vertex   -9.000000e+00 -2.645118e+00 -6.044529e+00
      vertex   -9.000000e+00 -2.689961e+00 -6.022444e+00
    endloop
  endfacet
  facet normal -8.207603e-01 -2.467292e-01 -5.152449e-01
    outer loop
      vertex   -9.017270e+00 -2.639503e+00 -6.019821e+00
      vertex   -9.044839e+00 -2.547793e+00 -6.019821e+00
      vertex   -9.033379e+00 -2.544565e+00 -6.039622e+00
    endloop
  endfacet
  facet normal -8.232959e-01 -2.380261e-01 -5.152935e-01
    outer loop
      vertex   -9.033379e+00 -2.544565e+00 -6.039622e+00
      vertex   -9.044839e+00 -2.547793e+00 -6.019821e+00
      vertex   -9.059869e+00 -2.452942e+00 -6.039622e+00
    endloop
  endfacet
  facet normal -8.222990e-01 -2.377379e-01 -5.170155e-01
    outer loop
      vertex   -9.033379e+00 -2.544565e+00 -6.039622e+00
      vertex   -9.059869e+00 -2.452942e+00 -6.039622e+00
      vertex   -9.048335e+00 -2.449819e+00 -6.059402e+00
    endloop
  endfacet
  facet normal -8.247343e-01 -2.290408e-01 -5.170625e-01
    outer loop
      vertex   -9.048335e+00 -2.449819e+00 -6.059402e+00
      vertex   -9.059869e+00 -2.452942e+00 -6.039622e+00
      vertex   -9.073751e+00 -2.358300e+00 -6.059402e+00
    endloop
  endfacet
  facet normal -8.237306e-01 -2.287621e-01 -5.187829e-01
    outer loop
      vertex   -9.048335e+00 -2.449819e+00 -6.059402e+00
      vertex   -9.073751e+00 -2.358300e+00 -6.059402e+00
      vertex   -9.062144e+00 -2.355284e+00 -6.079162e+00
    endloop
  endfacet
  facet normal -8.260661e-01 -2.200727e-01 -5.188282e-01
    outer loop
      vertex   -9.062144e+00 -2.355284e+00 -6.079162e+00
      vertex   -9.073751e+00 -2.358300e+00 -6.059402e+00
      vertex   -9.086494e+00 -2.263885e+00 -6.079162e+00
    endloop
  endfacet
  facet normal -8.250557e-01 -2.198035e-01 -5.205473e-01
    outer loop
      vertex   -9.062144e+00 -2.355284e+00 -6.079162e+00
      vertex   -9.086494e+00 -2.263885e+00 -6.079162e+00
      vertex   -9.074815e+00 -2.260975e+00 -6.098901e+00
    endloop
  endfacet
  facet normal -8.267403e-01 -2.132907e-01 -5.205839e-01
    outer loop
      vertex   -9.074815e+00 -2.260975e+00 -6.098901e+00
      vertex   -9.086494e+00 -2.263885e+00 -6.079162e+00
      vertex   -9.086589e+00 -2.215340e+00 -6.098901e+00
    endloop
  endfacet
  facet normal -8.257240e-01 -2.130285e-01 -5.223014e-01
    outer loop
      vertex   -9.074815e+00 -2.260975e+00 -6.098901e+00
      vertex   -9.086589e+00 -2.215340e+00 -6.098901e+00
      vertex   -9.074854e+00 -2.212479e+00 -6.118619e+00
    endloop
  endfacet
  facet normal -8.268167e-01 -2.086938e-01 -5.223228e-01
    outer loop
      vertex   -9.074854e+00 -2.212479e+00 -6.118619e+00
      vertex   -9.086589e+00 -2.215340e+00 -6.098901e+00
      vertex   -9.086356e+00 -2.166910e+00 -6.118619e+00
    endloop
  endfacet
  facet normal -8.257952e-01 -2.084360e-01 -5.240388e-01
    outer loop
      vertex   -9.074854e+00 -2.212479e+00 -6.118619e+00
      vertex   -9.086356e+00 -2.166910e+00 -6.118619e+00
      vertex   -9.074567e+00 -2.164098e+00 -6.138316e+00
    endloop
  endfacet
  facet normal -8.268626e-01 -2.041068e-01 -5.240598e-01
    outer loop
      vertex   -9.074567e+00 -2.164098e+00 -6.138316e+00
      vertex   -9.086356e+00 -2.166910e+00 -6.118619e+00
      vertex   -9.085799e+00 -2.118596e+00 -6.138316e+00
    endloop
  endfacet
  facet normal -8.258360e-01 -2.038534e-01 -5.257743e-01
    outer loop
      vertex   -9.074567e+00 -2.164098e+00 -6.138316e+00
      vertex   -9.085799e+00 -2.118596e+00 -6.138316e+00
      vertex   -9.073954e+00 -2.115834e+00 -6.157992e+00
    endloop
  endfacet
  facet normal -8.268782e-01 -1.995300e-01 -5.257948e-01
    outer loop
      vertex   -9.073954e+00 -2.115834e+00 -6.157992e+00
      vertex   -9.085799e+00 -2.118596e+00 -6.138316e+00
      vertex   -9.084917e+00 -2.070402e+00 -6.157992e+00
    endloop
  endfacet
  facet normal -8.242918e-01 -1.989058e-01 -5.300750e-01
    outer loop
      vertex   -9.073954e+00 -2.115834e+00 -6.157992e+00
      vertex   -9.084917e+00 -2.070402e+00 -6.157992e+00
      vertex   -9.037075e+00 -2.059499e+00 -6.236479e+00
    endloop
  endfacet
  facet normal -8.253068e-01 -1.945964e-01 -5.300951e-01
    outer loop
      vertex   -9.037075e+00 -2.059499e+00 -6.236479e+00
      vertex   -9.084917e+00 -2.070402e+00 -6.157992e+00
      vertex   -9.047728e+00 -2.014318e+00 -6.236479e+00
    endloop
  endfacet
  facet normal -8.212985e-01 -2.374486e-01 -5.187359e-01
    outer loop
      vertex   -9.036760e+00 -2.446686e+00 -6.079162e+00
      vertex   -9.021879e+00 -2.541326e+00 -6.059402e+00
      vertex   -9.048335e+00 -2.449819e+00 -6.059402e+00
    endloop
  endfacet
  facet normal -8.222990e-01 -2.377379e-01 -5.170155e-01
    outer loop
      vertex   -9.048335e+00 -2.449819e+00 -6.059402e+00
      vertex   -9.021879e+00 -2.541326e+00 -6.059402e+00
      vertex   -9.033379e+00 -2.544565e+00 -6.039622e+00
    endloop
  endfacet
  facet normal -8.232959e-01 -2.380261e-01 -5.152935e-01
    outer loop
      vertex   -9.044839e+00 -2.547793e+00 -6.019821e+00
      vertex   -9.071362e+00 -2.456054e+00 -6.019821e+00
      vertex   -9.059869e+00 -2.452942e+00 -6.039622e+00
    endloop
  endfacet
  facet normal -8.257343e-01 -2.293185e-01 -5.153405e-01
    outer loop
      vertex   -9.059869e+00 -2.452942e+00 -6.039622e+00
      vertex   -9.071362e+00 -2.456054e+00 -6.019821e+00
      vertex   -9.085317e+00 -2.361306e+00 -6.039622e+00
    endloop
  endfacet
  facet normal -8.247343e-01 -2.290408e-01 -5.170625e-01
    outer loop
      vertex   -9.059869e+00 -2.452942e+00 -6.039622e+00
      vertex   -9.085317e+00 -2.361306e+00 -6.039622e+00
      vertex   -9.073751e+00 -2.358300e+00 -6.059402e+00
    endloop
  endfacet
  facet normal -8.270728e-01 -2.203409e-01 -5.171077e-01
    outer loop
      vertex   -9.073751e+00 -2.358300e+00 -6.059402e+00
      vertex   -9.085317e+00 -2.361306e+00 -6.039622e+00
      vertex   -9.098132e+00 -2.266784e+00 -6.059402e+00
    endloop
  endfacet
  facet normal -8.260661e-01 -2.200727e-01 -5.188282e-01
    outer loop
      vertex   -9.073751e+00 -2.358300e+00 -6.059402e+00
      vertex   -9.098132e+00 -2.266784e+00 -6.059402e+00
      vertex   -9.086494e+00 -2.263885e+00 -6.079162e+00
    endloop
  endfacet
  facet normal -8.277529e-01 -2.135520e-01 -5.188648e-01
    outer loop
      vertex   -9.086494e+00 -2.263885e+00 -6.079162e+00
      vertex   -9.098132e+00 -2.266784e+00 -6.059402e+00
      vertex   -9.098282e+00 -2.218191e+00 -6.079162e+00
    endloop
  endfacet
  facet normal -8.267403e-01 -2.132907e-01 -5.205839e-01
    outer loop
      vertex   -9.086494e+00 -2.263885e+00 -6.079162e+00
      vertex   -9.098282e+00 -2.218191e+00 -6.079162e+00
      vertex   -9.086589e+00 -2.215340e+00 -6.098901e+00
    endloop
  endfacet
  facet normal -8.278344e-01 -2.089507e-01 -5.206052e-01
    outer loop
      vertex   -9.086589e+00 -2.215340e+00 -6.098901e+00
      vertex   -9.098282e+00 -2.218191e+00 -6.079162e+00
      vertex   -9.098105e+00 -2.169712e+00 -6.098901e+00
    endloop
  endfacet
  facet normal -8.268167e-01 -2.086938e-01 -5.223228e-01
    outer loop
      vertex   -9.086589e+00 -2.215340e+00 -6.098901e+00
      vertex   -9.098105e+00 -2.169712e+00 -6.098901e+00
      vertex   -9.086356e+00 -2.166910e+00 -6.118619e+00
    endloop
  endfacet
  facet normal -8.278855e-01 -2.043593e-01 -5.223437e-01
    outer loop
      vertex   -9.086356e+00 -2.166910e+00 -6.118619e+00
      vertex   -9.098105e+00 -2.169712e+00 -6.098901e+00
      vertex   -9.097603e+00 -2.121349e+00 -6.118619e+00
    endloop
  endfacet
  facet normal -8.268626e-01 -2.041068e-01 -5.240598e-01
    outer loop
      vertex   -9.086356e+00 -2.166910e+00 -6.118619e+00
      vertex   -9.097603e+00 -2.121349e+00 -6.118619e+00
      vertex   -9.085799e+00 -2.118596e+00 -6.138316e+00
    endloop
  endfacet
  facet normal -8.279062e-01 -1.997780e-01 -5.240803e-01
    outer loop
      vertex   -9.085799e+00 -2.118596e+00 -6.138316e+00
      vertex   -9.097603e+00 -2.121349e+00 -6.118619e+00
      vertex   -9.096776e+00 -2.073105e+00 -6.138316e+00
    endloop
  endfacet
  facet normal -8.268782e-01 -1.995300e-01 -5.257948e-01
    outer loop
      vertex   -9.085799e+00 -2.118596e+00 -6.138316e+00
      vertex   -9.096776e+00 -2.073105e+00 -6.138316e+00
      vertex   -9.084917e+00 -2.070402e+00 -6.157992e+00
    endloop
  endfacet
  facet normal -8.278967e-01 -1.952071e-01 -5.258149e-01
    outer loop
      vertex   -9.084917e+00 -2.070402e+00 -6.157992e+00
      vertex   -9.096776e+00 -2.073105e+00 -6.138316e+00
      vertex   -9.095626e+00 -2.024982e+00 -6.157992e+00
    endloop
  endfacet
  facet normal -8.253068e-01 -1.945964e-01 -5.300951e-01
    outer loop
      vertex   -9.084917e+00 -2.070402e+00 -6.157992e+00
      vertex   -9.095626e+00 -2.024982e+00 -6.157992e+00
      vertex   -9.047728e+00 -2.014318e+00 -6.236479e+00
    endloop
  endfacet
  facet normal -8.227233e-01 -2.284823e-01 -5.205019e-01
    outer loop
      vertex   -9.050497e+00 -2.352257e+00 -6.098901e+00
      vertex   -9.036760e+00 -2.446686e+00 -6.079162e+00
      vertex   -9.062144e+00 -2.355284e+00 -6.079162e+00
    endloop
  endfacet
  facet normal -8.237306e-01 -2.287621e-01 -5.187829e-01
    outer loop
      vertex   -9.062144e+00 -2.355284e+00 -6.079162e+00
      vertex   -9.036760e+00 -2.446686e+00 -6.079162e+00
      vertex   -9.048335e+00 -2.449819e+00 -6.059402e+00
    endloop
  endfacet
  facet normal -8.206975e-01 -2.279197e-01 -5.239354e-01
    outer loop
      vertex   -9.027081e+00 -2.346171e+00 -6.138316e+00
      vertex   -9.001796e+00 -2.437219e+00 -6.138316e+00
      vertex   -9.013491e+00 -2.440386e+00 -6.118619e+00
    endloop
  endfacet
  facet normal -8.206975e-01 -2.279197e-01 -5.239354e-01
    outer loop
      vertex   -9.027081e+00 -2.346171e+00 -6.138316e+00
      vertex   -9.013491e+00 -2.440386e+00 -6.118619e+00
      vertex   -9.038809e+00 -2.349219e+00 -6.118619e+00
    endloop
  endfacet
  facet normal -8.217122e-01 -2.282015e-01 -5.222194e-01
    outer loop
      vertex   -9.038809e+00 -2.349219e+00 -6.118619e+00
      vertex   -9.013491e+00 -2.440386e+00 -6.118619e+00
      vertex   -9.025146e+00 -2.443541e+00 -6.098901e+00
    endloop
  endfacet
  facet normal -8.257343e-01 -2.293185e-01 -5.153405e-01
    outer loop
      vertex   -9.071362e+00 -2.456054e+00 -6.019821e+00
      vertex   -9.096843e+00 -2.364302e+00 -6.019821e+00
      vertex   -9.085317e+00 -2.361306e+00 -6.039622e+00
    endloop
  endfacet
  facet normal -8.280759e-01 -2.206081e-01 -5.153857e-01
    outer loop
      vertex   -9.085317e+00 -2.361306e+00 -6.039622e+00
      vertex   -9.096843e+00 -2.364302e+00 -6.019821e+00
      vertex   -9.109729e+00 -2.269674e+00 -6.039622e+00
    endloop
  endfacet
  facet normal -8.270728e-01 -2.203409e-01 -5.171077e-01
    outer loop
      vertex   -9.085317e+00 -2.361306e+00 -6.039622e+00
      vertex   -9.109729e+00 -2.269674e+00 -6.039622e+00
      vertex   -9.098132e+00 -2.266784e+00 -6.059402e+00
    endloop
  endfacet
  facet normal -8.287618e-01 -2.138123e-01 -5.171443e-01
    outer loop
      vertex   -9.098132e+00 -2.266784e+00 -6.059402e+00
      vertex   -9.109729e+00 -2.269674e+00 -6.039622e+00
      vertex   -9.109935e+00 -2.221032e+00 -6.059402e+00
    endloop
  endfacet
  facet normal -8.277529e-01 -2.135520e-01 -5.188648e-01
    outer loop
      vertex   -9.098132e+00 -2.266784e+00 -6.059402e+00
      vertex   -9.109935e+00 -2.221032e+00 -6.059402e+00
      vertex   -9.098282e+00 -2.218191e+00 -6.079162e+00
    endloop
  endfacet
  facet normal -8.288484e-01 -2.092067e-01 -5.188861e-01
    outer loop
      vertex   -9.098282e+00 -2.218191e+00 -6.079162e+00
      vertex   -9.109935e+00 -2.221032e+00 -6.059402e+00
      vertex   -9.109814e+00 -2.172504e+00 -6.079162e+00
    endloop
  endfacet
  facet normal -8.278344e-01 -2.089507e-01 -5.206052e-01
    outer loop
      vertex   -9.098282e+00 -2.218191e+00 -6.079162e+00
      vertex   -9.109814e+00 -2.172504e+00 -6.079162e+00
      vertex   -9.098105e+00 -2.169712e+00 -6.098901e+00
    endloop
  endfacet
  facet normal -8.289046e-01 -2.046109e-01 -5.206261e-01
    outer loop
      vertex   -9.098105e+00 -2.169712e+00 -6.098901e+00
      vertex   -9.109814e+00 -2.172504e+00 -6.079162e+00
      vertex   -9.109367e+00 -2.124092e+00 -6.098901e+00
    endloop
  endfacet
  facet normal -8.278855e-01 -2.043593e-01 -5.223437e-01
    outer loop
      vertex   -9.098105e+00 -2.169712e+00 -6.098901e+00
      vertex   -9.109367e+00 -2.124092e+00 -6.098901e+00
      vertex   -9.097603e+00 -2.121349e+00 -6.118619e+00
    endloop
  endfacet
  facet normal -8.289304e-01 -2.000252e-01 -5.223642e-01
    outer loop
      vertex   -9.097603e+00 -2.121349e+00 -6.118619e+00
      vertex   -9.109367e+00 -2.124092e+00 -6.098901e+00
      vertex   -9.108594e+00 -2.075798e+00 -6.118619e+00
    endloop
  endfacet
  facet normal -8.279062e-01 -1.997780e-01 -5.240803e-01
    outer loop
      vertex   -9.097603e+00 -2.121349e+00 -6.118619e+00
      vertex   -9.108594e+00 -2.075798e+00 -6.118619e+00
      vertex   -9.096776e+00 -2.073105e+00 -6.138316e+00
    endloop
  endfacet
  facet normal -8.289260e-01 -1.954498e-01 -5.241003e-01
    outer loop
      vertex   -9.096776e+00 -2.073105e+00 -6.138316e+00
      vertex   -9.108594e+00 -2.075798e+00 -6.118619e+00
      vertex   -9.107499e+00 -2.027625e+00 -6.138316e+00
    endloop
  endfacet
  facet normal -8.278967e-01 -1.952071e-01 -5.258149e-01
    outer loop
      vertex   -9.096776e+00 -2.073105e+00 -6.138316e+00
      vertex   -9.107499e+00 -2.027625e+00 -6.138316e+00
      vertex   -9.095626e+00 -2.024982e+00 -6.157992e+00
    endloop
  endfacet
  facet normal -8.240416e-01 -2.195334e-01 -5.222648e-01
    outer loop
      vertex   -9.063096e+00 -2.258055e+00 -6.118619e+00
      vertex   -9.050497e+00 -2.352257e+00 -6.098901e+00
      vertex   -9.074815e+00 -2.260975e+00 -6.098901e+00
    endloop
  endfacet
  facet normal -8.250557e-01 -2.198035e-01 -5.205473e-01
    outer loop
      vertex   -9.074815e+00 -2.260975e+00 -6.098901e+00
      vertex   -9.050497e+00 -2.352257e+00 -6.098901e+00
      vertex   -9.062144e+00 -2.355284e+00 -6.079162e+00
    endloop
  endfacet
  facet normal -8.220023e-01 -2.189901e-01 -5.256952e-01
    outer loop
      vertex   -9.039537e+00 -2.252185e+00 -6.157992e+00
      vertex   -9.027081e+00 -2.346171e+00 -6.138316e+00
      vertex   -9.051337e+00 -2.255125e+00 -6.138316e+00
    endloop
  endfacet
  facet normal -8.230238e-01 -2.192622e-01 -5.239808e-01
    outer loop
      vertex   -9.051337e+00 -2.255125e+00 -6.138316e+00
      vertex   -9.027081e+00 -2.346171e+00 -6.138316e+00
      vertex   -9.038809e+00 -2.349219e+00 -6.118619e+00
    endloop
  endfacet
  facet normal -8.247039e-01 -2.127654e-01 -5.240175e-01
    outer loop
      vertex   -9.063080e+00 -2.209608e+00 -6.138316e+00
      vertex   -9.063096e+00 -2.258055e+00 -6.118619e+00
      vertex   -9.074854e+00 -2.212479e+00 -6.118619e+00
    endloop
  endfacet
  facet normal -8.257240e-01 -2.130285e-01 -5.223014e-01
    outer loop
      vertex   -9.074854e+00 -2.212479e+00 -6.118619e+00
      vertex   -9.063096e+00 -2.258055e+00 -6.118619e+00
      vertex   -9.074815e+00 -2.260975e+00 -6.098901e+00
    endloop
  endfacet
  facet normal -8.236802e-01 -2.125013e-01 -5.257320e-01
    outer loop
      vertex   -9.051264e+00 -2.206728e+00 -6.157992e+00
      vertex   -9.039537e+00 -2.252185e+00 -6.157992e+00
      vertex   -9.051337e+00 -2.255125e+00 -6.138316e+00
    endloop
  endfacet
  facet normal -8.308654e-01 -2.097157e-01 -5.154435e-01
    outer loop
      vertex   -9.144696e+00 -2.180822e+00 -6.019821e+00
      vertex   -9.133109e+00 -2.178059e+00 -6.039622e+00
      vertex   -9.133120e+00 -2.226684e+00 -6.019821e+00
    endloop
  endfacet
  facet normal -8.308654e-01 -2.097157e-01 -5.154435e-01
    outer loop
      vertex   -9.133120e+00 -2.226684e+00 -6.019821e+00
      vertex   -9.133109e+00 -2.178059e+00 -6.039622e+00
      vertex   -9.121548e+00 -2.223863e+00 -6.039622e+00
    endloop
  endfacet
  facet normal -8.297670e-01 -2.140716e-01 -5.154222e-01
    outer loop
      vertex   -9.133120e+00 -2.226684e+00 -6.019821e+00
      vertex   -9.121548e+00 -2.223863e+00 -6.039622e+00
      vertex   -9.121286e+00 -2.272553e+00 -6.019821e+00
    endloop
  endfacet
  facet normal -8.298588e-01 -2.094617e-01 -5.171656e-01
    outer loop
      vertex   -9.121548e+00 -2.223863e+00 -6.039622e+00
      vertex   -9.133109e+00 -2.178059e+00 -6.039622e+00
      vertex   -9.121482e+00 -2.175286e+00 -6.059402e+00
    endloop
  endfacet
  facet normal -8.309317e-01 -2.051113e-01 -5.171864e-01
    outer loop
      vertex   -9.121482e+00 -2.175286e+00 -6.059402e+00
      vertex   -9.133109e+00 -2.178059e+00 -6.039622e+00
      vertex   -9.132772e+00 -2.129549e+00 -6.059402e+00
    endloop
  endfacet
  facet normal -8.299200e-01 -2.048615e-01 -5.189070e-01
    outer loop
      vertex   -9.121482e+00 -2.175286e+00 -6.059402e+00
      vertex   -9.132772e+00 -2.129549e+00 -6.059402e+00
      vertex   -9.121090e+00 -2.126825e+00 -6.079162e+00
    endloop
  endfacet
  facet normal -8.309677e-01 -2.005168e-01 -5.189275e-01
    outer loop
      vertex   -9.121090e+00 -2.126825e+00 -6.079162e+00
      vertex   -9.132772e+00 -2.129549e+00 -6.059402e+00
      vertex   -9.132110e+00 -2.081157e+00 -6.079162e+00
    endloop
  endfacet
  facet normal -8.299509e-01 -2.002714e-01 -5.206466e-01
    outer loop
      vertex   -9.121090e+00 -2.126825e+00 -6.079162e+00
      vertex   -9.132110e+00 -2.081157e+00 -6.079162e+00
      vertex   -9.120372e+00 -2.078482e+00 -6.098901e+00
    endloop
  endfacet
  facet normal -8.309734e-01 -1.959325e-01 -5.206666e-01
    outer loop
      vertex   -9.120372e+00 -2.078482e+00 -6.098901e+00
      vertex   -9.132110e+00 -2.081157e+00 -6.079162e+00
      vertex   -9.131124e+00 -2.032885e+00 -6.098901e+00
    endloop
  endfacet
  facet normal -8.309317e-01 -2.051113e-01 -5.171864e-01
    outer loop
      vertex   -9.132772e+00 -2.129549e+00 -6.059402e+00
      vertex   -9.133109e+00 -2.178059e+00 -6.039622e+00
      vertex   -9.144413e+00 -2.132264e+00 -6.039622e+00
    endloop
  endfacet
  facet normal -8.319398e-01 -2.053601e-01 -5.154643e-01
    outer loop
      vertex   -9.144413e+00 -2.132264e+00 -6.039622e+00
      vertex   -9.133109e+00 -2.178059e+00 -6.039622e+00
      vertex   -9.144696e+00 -2.180822e+00 -6.019821e+00
    endloop
  endfacet
  facet normal -8.257952e-01 -2.084360e-01 -5.240388e-01
    outer loop
      vertex   -9.063080e+00 -2.209608e+00 -6.138316e+00
      vertex   -9.074854e+00 -2.212479e+00 -6.118619e+00
      vertex   -9.074567e+00 -2.164098e+00 -6.138316e+00
    endloop
  endfacet
  facet normal -8.247701e-01 -2.081772e-01 -5.257533e-01
    outer loop
      vertex   -9.063080e+00 -2.209608e+00 -6.138316e+00
      vertex   -9.074567e+00 -2.164098e+00 -6.138316e+00
      vertex   -9.062736e+00 -2.161277e+00 -6.157992e+00
    endloop
  endfacet
  facet normal -8.258360e-01 -2.038534e-01 -5.257743e-01
    outer loop
      vertex   -9.062736e+00 -2.161277e+00 -6.157992e+00
      vertex   -9.074567e+00 -2.164098e+00 -6.138316e+00
      vertex   -9.073954e+00 -2.115834e+00 -6.157992e+00
    endloop
  endfacet
  facet normal -8.232530e-01 -2.032158e-01 -5.300545e-01
    outer loop
      vertex   -9.062736e+00 -2.161277e+00 -6.157992e+00
      vertex   -9.073954e+00 -2.115834e+00 -6.157992e+00
      vertex   -9.026169e+00 -2.104692e+00 -6.236479e+00
    endloop
  endfacet
  facet normal -8.242918e-01 -1.989058e-01 -5.300750e-01
    outer loop
      vertex   -9.026169e+00 -2.104692e+00 -6.236479e+00
      vertex   -9.073954e+00 -2.115834e+00 -6.157992e+00
      vertex   -9.037075e+00 -2.059499e+00 -6.236479e+00
    endloop
  endfacet
  facet normal -8.319808e-01 -2.007612e-01 -5.172068e-01
    outer loop
      vertex   -9.132772e+00 -2.129549e+00 -6.059402e+00
      vertex   -9.144413e+00 -2.132264e+00 -6.039622e+00
      vertex   -9.143806e+00 -2.083822e+00 -6.059402e+00
    endloop
  endfacet
  facet normal -8.340166e-01 -1.966501e-01 -5.155047e-01
    outer loop
      vertex   -9.177883e+00 -2.043295e+00 -6.019821e+00
      vertex   -9.166254e+00 -2.040706e+00 -6.039622e+00
      vertex   -9.167076e+00 -2.089126e+00 -6.019821e+00
    endloop
  endfacet
  facet normal -8.309677e-01 -2.005168e-01 -5.189275e-01
    outer loop
      vertex   -9.132772e+00 -2.129549e+00 -6.059402e+00
      vertex   -9.143806e+00 -2.083822e+00 -6.059402e+00
      vertex   -9.132110e+00 -2.081157e+00 -6.079162e+00
    endloop
  endfacet
  facet normal -8.319915e-01 -1.961726e-01 -5.189475e-01
    outer loop
      vertex   -9.132110e+00 -2.081157e+00 -6.079162e+00
      vertex   -9.143806e+00 -2.083822e+00 -6.059402e+00
      vertex   -9.142875e+00 -2.035501e+00 -6.079162e+00
    endloop
  endfacet
  facet normal -8.309734e-01 -1.959325e-01 -5.206666e-01
    outer loop
      vertex   -9.132110e+00 -2.081157e+00 -6.079162e+00
      vertex   -9.142875e+00 -2.035501e+00 -6.079162e+00
      vertex   -9.131124e+00 -2.032885e+00 -6.098901e+00
    endloop
  endfacet
  facet normal 0.000000e+00 1.000000e+00 -0.000000e+00
    outer loop
      vertex   -9.000000e+00 -2.000000e+00 -6.314617e+00
      vertex   -9.050981e+00 -2.000000e+00 -6.236588e+00
      vertex   -9.000000e+00 -2.000000e+00 -6.000000e+00
    endloop
  endfacet
  facet normal 0.000000e+00 1.000000e+00 0.000000e+00
    outer loop
      vertex   -9.000000e+00 -2.000000e+00 -6.000000e+00
      vertex   -9.050981e+00 -2.000000e+00 -6.236588e+00
      vertex   -9.101316e+00 -2.000000e+00 -6.158140e+00
    endloop
  endfacet
  facet normal 0.000000e+00 1.000000e+00 0.000000e+00
    outer loop
      vertex   -9.000000e+00 -2.000000e+00 -6.000000e+00
      vertex   -9.101316e+00 -2.000000e+00 -6.158140e+00
      vertex   -9.151001e+00 -2.000000e+00 -6.079276e+00
    endloop
  endfacet
  facet normal 0.000000e+00 1.000000e+00 -0.000000e+00
    outer loop
      vertex   -9.151001e+00 -2.000000e+00 -6.079276e+00
      vertex   -9.200035e+00 -2.000000e+00 -6.000000e+00
      vertex   -9.000000e+00 -2.000000e+00 -6.000000e+00
    endloop
  endfacet
  facet normal -0.000000e+00 0.000000e+00 1.000000e+00
    outer loop
      vertex   -9.200035e+00 -2.000000e+00 -6.000000e+00
      vertex   -9.178418e+00 -2.092738e+00 -6.000000e+00
      vertex   -9.000000e+00 -2.000000e+00 -6.000000e+00
    endloop
  endfacet
  facet normal 0.000000e+00 0.000000e+00 1.000000e+00
    outer loop
      vertex   -9.000000e+00 -2.000000e+00 -6.000000e+00
      vertex   -9.178418e+00 -2.092738e+00 -6.000000e+00
      vertex   -9.155828e+00 -2.185230e+00 -6.000000e+00
    endloop
  endfacet
  facet normal 0.000000e+00 0.000000e+00 1.000000e+00
    outer loop
      vertex   -9.000000e+00 -2.000000e+00 -6.000000e+00
      vertex   -9.155828e+00 -2.185230e+00 -6.000000e+00
      vertex   -9.132268e+00 -2.277469e+00 -6.000000e+00
    endloop
  endfacet
  facet normal -0.000000e+00 0.000000e+00 1.000000e+00
    outer loop
      vertex   -9.132268e+00 -2.277469e+00 -6.000000e+00
      vertex   -9.107740e+00 -2.369447e+00 -6.000000e+00
      vertex   -9.000000e+00 -2.000000e+00 -6.000000e+00
    endloop
  endfacet
  facet normal 0.000000e+00 0.000000e+00 1.000000e+00
    outer loop
      vertex   -9.000000e+00 -2.000000e+00 -6.000000e+00
      vertex   -9.107740e+00 -2.369447e+00 -6.000000e+00
      vertex   -9.082247e+00 -2.461159e+00 -6.000000e+00
    endloop
  endfacet
  facet normal 0.000000e+00 0.000000e+00 1.000000e+00
    outer loop
      vertex   -9.000000e+00 -2.000000e+00 -6.000000e+00
      vertex   -9.082247e+00 -2.461159e+00 -6.000000e+00
      vertex   -9.055791e+00 -2.552596e+00 -6.000000e+00
    endloop
  endfacet
  facet normal -0.000000e+00 0.000000e+00 1.000000e+00
    outer loop
      vertex   -9.055791e+00 -2.552596e+00 -6.000000e+00
      vertex   -9.028374e+00 -2.643751e+00 -6.000000e+00
      vertex   -9.000000e+00 -2.000000e+00 -6.000000e+00
    endloop
  endfacet
  facet normal 0.000000e+00 0.000000e+00 1.000000e+00
    outer loop
      vertex   -9.000000e+00 -2.000000e+00 -6.000000e+00
      vertex   -9.028374e+00 -2.643751e+00 -6.000000e+00
      vertex   -9.000000e+00 -2.734617e+00 -6.000000e+00
    endloop
  endfacet
  facet normal 1.000000e+00 -0.000000e+00 0.000000e+00
    outer loop
      vertex   -9.000000e+00 -2.734617e+00 -6.000000e+00
      vertex   -9.000000e+00 -2.689961e+00 -6.022444e+00
      vertex   -9.000000e+00 -2.000000e+00 -6.000000e+00
    endloop
  endfacet
  facet normal 1.000000e+00 0.000000e+00 0.000000e+00
    outer loop
      vertex   -9.000000e+00 -2.000000e+00 -6.000000e+00
      vertex   -9.000000e+00 -2.689961e+00 -6.022444e+00
      vertex   -9.000000e+00 -2.645118e+00 -6.044529e+00
    endloop
  endfacet
  facet normal 1.000000e+00 0.000000e+00 0.000000e+00
    outer loop
      vertex   -9.000000e+00 -2.000000e+00 -6.000000e+00
      vertex   -9.000000e+00 -2.645118e+00 -6.044529e+00
      vertex   -9.000000e+00 -2.600091e+00 -6.066252e+00
    endloop
  endfacet
  facet normal 1.000000e+00 -0.000000e+00 0.000000e+00
    outer loop
      vertex   -9.000000e+00 -2.600091e+00 -6.066252e+00
      vertex   -9.000000e+00 -2.554880e+00 -6.087613e+00
      vertex   -9.000000e+00 -2.000000e+00 -6.000000e+00
    endloop
  endfacet
  facet normal 1.000000e+00 0.000000e+00 0.000000e+00
    outer loop
      vertex   -9.000000e+00 -2.000000e+00 -6.000000e+00
      vertex   -9.000000e+00 -2.554880e+00 -6.087613e+00
      vertex   -9.000000e+00 -2.509488e+00 -6.108609e+00
    endloop
  endfacet
  facet normal 1.000000e+00 0.000000e+00 0.000000e+00
    outer loop
      vertex   -9.000000e+00 -2.000000e+00 -6.000000e+00
      vertex   -9.000000e+00 -2.509488e+00 -6.108609e+00
      vertex   -9.000000e+00 -2.463927e+00 -6.129234e+00
    endloop
  endfacet
  facet normal 1.000000e+00 -0.000000e+00 0.000000e+00
    outer loop
      vertex   -9.000000e+00 -2.463927e+00 -6.129234e+00
      vertex   -9.000000e+00 -2.418208e+00 -6.149483e+00
      vertex   -9.000000e+00 -2.000000e+00 -6.000000e+00
    endloop
  endfacet
  facet normal 1.000000e+00 0.000000e+00 0.000000e+00
    outer loop
      vertex   -9.000000e+00 -2.000000e+00 -6.000000e+00
      vertex   -9.000000e+00 -2.418208e+00 -6.149483e+00
      vertex   -9.000000e+00 -2.372334e+00 -6.169355e+00
    endloop
  endfacet
  facet normal 1.000000e+00 0.000000e+00 0.000000e+00
    outer loop
      vertex   -9.000000e+00 -2.000000e+00 -6.000000e+00
      vertex   -9.000000e+00 -2.372334e+00 -6.169355e+00
      vertex   -9.000000e+00 -2.326307e+00 -6.188849e+00
    endloop
  endfacet
  facet normal 1.000000e+00 -0.000000e+00 0.000000e+00
    outer loop
      vertex   -9.000000e+00 -2.326307e+00 -6.188849e+00
      vertex   -9.000000e+00 -2.280129e+00 -6.207962e+00
      vertex   -9.000000e+00 -2.000000e+00 -6.000000e+00
    endloop
  endfacet
  facet normal 1.000000e+00 0.000000e+00 0.000000e+00
    outer loop
      vertex   -9.000000e+00 -2.000000e+00 -6.000000e+00
      vertex   -9.000000e+00 -2.280129e+00 -6.207962e+00
      vertex   -9.000000e+00 -2.233801e+00 -6.226696e+00
    endloop
  endfacet
  facet normal 1.000000e+00 0.000000e+00 0.000000e+00
    outer loop
      vertex   -9.000000e+00 -2.000000e+00 -6.000000e+00
      vertex   -9.000000e+00 -2.233801e+00 -6.226696e+00
      vertex   -9.000000e+00 -2.187327e+00 -6.245048e+00
    endloop
  endfacet
  facet normal 1.000000e+00 -0.000000e+00 0.000000e+00
    outer loop
      vertex   -9.000000e+00 -2.187327e+00 -6.245048e+00
      vertex   -9.000000e+00 -2.140707e+00 -6.263017e+00
      vertex   -9.000000e+00 -2.000000e+00 -6.000000e+00
    endloop
  endfacet
  facet normal 1.000000e+00 0.000000e+00 0.000000e+00
    outer loop
      vertex   -9.000000e+00 -2.000000e+00 -6.000000e+00
      vertex   -9.000000e+00 -2.140707e+00 -6.263017e+00
      vertex   -9.000000e+00 -2.093945e+00 -6.280602e+00
    endloop
  endfacet
  facet normal 1.000000e+00 0.000000e+00 0.000000e+00
    outer loop
      vertex   -9.000000e+00 -2.000000e+00 -6.000000e+00
      vertex   -9.000000e+00 -2.093945e+00 -6.280602e+00
      vertex   -9.000000e+00 -2.047042e+00 -6.297802e+00
    endloop
  endfacet
  facet normal 1.000000e+00 -0.000000e+00 0.000000e+00
    outer loop
      vertex   -9.000000e+00 -2.047042e+00 -6.297802e+00
      vertex   -9.000000e+00 -2.000000e+00 -6.314617e+00
      vertex   -9.000000e+00 -2.000000e+00 -6.000000e+00
    endloop
  endfacet
endsolid
