solid ASCII
  facet normal 7.000104e-01 3.828232e-01 6.028531e-01
    outer loop
      vertex   7.649472e+00 4.000000e+00 7.101867e+00
      vertex   7.737200e+00 4.000000e+00 7.000000e+00
      vertex   7.653064e+00 4.074311e+00 7.050507e+00
    endloop
  endfacet
  facet normal 6.999884e-01 3.827487e-01 6.029260e-01
    outer loop
      vertex   7.653064e+00 4.074311e+00 7.050507e+00
      vertex   7.737200e+00 4.000000e+00 7.000000e+00
      vertex   7.701642e+00 4.065031e+00 7.000000e+00
    endloop
  endfacet
  facet normal 6.984530e-01 3.898627e-01 6.001421e-01
    outer loop
      vertex   7.653064e+00 4.074311e+00 7.050507e+00
      vertex   7.701642e+00 4.065031e+00 7.000000e+00
      vertex   7.665523e+00 4.129739e+00 7.000000e+00
    endloop
  endfacet
  facet normal 6.947690e-01 3.928237e-01 6.024828e-01
    outer loop
      vertex   7.653064e+00 4.074311e+00 7.050507e+00
      vertex   7.665523e+00 4.129739e+00 7.000000e+00
      vertex   7.601437e+00 4.165620e+00 7.050507e+00
    endloop
  endfacet
  facet normal 6.948370e-01 3.958291e-01 6.004340e-01
    outer loop
      vertex   7.601437e+00 4.165620e+00 7.050507e+00
      vertex   7.665523e+00 4.129739e+00 7.000000e+00
      vertex   7.628845e+00 4.194122e+00 7.000000e+00
    endloop
  endfacet
  facet normal 6.907297e-01 4.015011e-01 6.014061e-01
    outer loop
      vertex   7.601437e+00 4.165620e+00 7.050507e+00
      vertex   7.628845e+00 4.194122e+00 7.000000e+00
      vertex   7.591612e+00 4.258177e+00 7.000000e+00
    endloop
  endfacet
  facet normal 6.890016e-01 4.021586e-01 6.029471e-01
    outer loop
      vertex   7.601437e+00 4.165620e+00 7.050507e+00
      vertex   7.591612e+00 4.258177e+00 7.000000e+00
      vertex   7.537001e+00 4.276016e+00 7.050507e+00
    endloop
  endfacet
  facet normal 6.881522e-01 4.080612e-01 5.999439e-01
    outer loop
      vertex   7.537001e+00 4.276016e+00 7.050507e+00
      vertex   7.591612e+00 4.258177e+00 7.000000e+00
      vertex   7.553826e+00 4.321899e+00 7.000000e+00
    endloop
  endfacet
  facet normal 6.831460e-01 4.126977e-01 6.024882e-01
    outer loop
      vertex   7.537001e+00 4.276016e+00 7.050507e+00
      vertex   7.553826e+00 4.321899e+00 7.000000e+00
      vertex   7.470755e+00 4.385674e+00 7.050507e+00
    endloop
  endfacet
  facet normal 6.832583e-01 4.132386e-01 6.019900e-01
    outer loop
      vertex   7.470755e+00 4.385674e+00 7.050507e+00
      vertex   7.553826e+00 4.321899e+00 7.000000e+00
      vertex   7.515489e+00 4.385287e+00 7.000000e+00
    endloop
  endfacet
  facet normal 6.809689e-01 4.199866e-01 5.999105e-01
    outer loop
      vertex   7.470755e+00 4.385674e+00 7.050507e+00
      vertex   7.515489e+00 4.385287e+00 7.000000e+00
      vertex   7.476604e+00 4.448336e+00 7.000000e+00
    endloop
  endfacet
  facet normal 6.765588e-01 4.228135e-01 6.029070e-01
    outer loop
      vertex   7.470755e+00 4.385674e+00 7.050507e+00
      vertex   7.476604e+00 4.448336e+00 7.000000e+00
      vertex   7.402713e+00 4.494550e+00 7.050507e+00
    endloop
  endfacet
  facet normal 6.767827e-01 4.255702e-01 6.007122e-01
    outer loop
      vertex   7.402713e+00 4.494550e+00 7.050507e+00
      vertex   7.476604e+00 4.448336e+00 7.000000e+00
      vertex   7.437173e+00 4.511043e+00 7.000000e+00
    endloop
  endfacet
  facet normal 6.733125e-01 4.315964e-01 6.003123e-01
    outer loop
      vertex   7.402713e+00 4.494550e+00 7.050507e+00
      vertex   7.437173e+00 4.511043e+00 7.000000e+00
      vertex   7.397198e+00 4.573405e+00 7.000000e+00
    endloop
  endfacet
  facet normal 6.700953e-01 4.330179e-01 6.028830e-01
    outer loop
      vertex   7.402713e+00 4.494550e+00 7.050507e+00
      vertex   7.397198e+00 4.573405e+00 7.000000e+00
      vertex   7.332889e+00 4.602603e+00 7.050507e+00
    endloop
  endfacet
  facet normal 6.698151e-01 4.376072e-01 5.998731e-01
    outer loop
      vertex   7.332889e+00 4.602603e+00 7.050507e+00
      vertex   7.397198e+00 4.573405e+00 7.000000e+00
      vertex   7.356683e+00 4.635418e+00 7.000000e+00
    endloop
  endfacet
  facet normal 6.652067e-01 4.428817e-01 6.011288e-01
    outer loop
      vertex   7.332889e+00 4.602603e+00 7.050507e+00
      vertex   7.356683e+00 4.635418e+00 7.000000e+00
      vertex   7.315630e+00 4.697080e+00 7.000000e+00
    endloop
  endfacet
  facet normal 6.637367e-01 4.433116e-01 6.024354e-01
    outer loop
      vertex   7.332889e+00 4.602603e+00 7.050507e+00
      vertex   7.315630e+00 4.697080e+00 7.000000e+00
      vertex   7.261297e+00 4.709793e+00 7.050507e+00
    endloop
  endfacet
  facet normal 6.623783e-01 4.493403e-01 5.994566e-01
    outer loop
      vertex   7.261297e+00 4.709793e+00 7.050507e+00
      vertex   7.315630e+00 4.697080e+00 7.000000e+00
      vertex   7.274041e+00 4.758387e+00 7.000000e+00
    endloop
  endfacet
  facet normal 6.571390e-01 4.534697e-01 6.021076e-01
    outer loop
      vertex   7.261297e+00 4.709793e+00 7.050507e+00
      vertex   7.274041e+00 4.758387e+00 7.000000e+00
      vertex   7.187953e+00 4.816078e+00 7.050507e+00
    endloop
  endfacet
  facet normal 6.572443e-01 4.542285e-01 6.014204e-01
    outer loop
      vertex   7.187953e+00 4.816078e+00 7.050507e+00
      vertex   7.274041e+00 4.758387e+00 7.000000e+00
      vertex   7.231919e+00 4.819336e+00 7.000000e+00
    endloop
  endfacet
  facet normal 6.544940e-01 4.607603e-01 5.994477e-01
    outer loop
      vertex   7.187953e+00 4.816078e+00 7.050507e+00
      vertex   7.231919e+00 4.819336e+00 7.000000e+00
      vertex   7.189266e+00 4.879923e+00 7.000000e+00
    endloop
  endfacet
  facet normal 6.499606e-01 4.632386e-01 6.024626e-01
    outer loop
      vertex   7.187953e+00 4.816078e+00 7.050507e+00
      vertex   7.189266e+00 4.879923e+00 7.000000e+00
      vertex   7.112875e+00 4.921418e+00 7.050507e+00
    endloop
  endfacet
  facet normal 6.500141e-01 4.660802e-01 6.002091e-01
    outer loop
      vertex   7.112875e+00 4.921418e+00 7.050507e+00
      vertex   7.189266e+00 4.879923e+00 7.000000e+00
      vertex   7.146084e+00 4.940146e+00 7.000000e+00
    endloop
  endfacet
  facet normal 6.461822e-01 4.718582e-01 5.998320e-01
    outer loop
      vertex   7.112875e+00 4.921418e+00 7.050507e+00
      vertex   7.146084e+00 4.940146e+00 7.000000e+00
      vertex   7.102377e+00 5.000000e+00 7.000000e+00
    endloop
  endfacet
  facet normal 6.417395e-01 4.734948e-01 6.033018e-01
    outer loop
      vertex   7.102377e+00 5.000000e+00 7.000000e+00
      vertex   7.000000e+00 5.000000e+00 7.108900e+00
      vertex   7.112875e+00 4.921418e+00 7.050507e+00
    endloop
  endfacet
  facet normal 6.415358e-01 4.724103e-01 6.043677e-01
    outer loop
      vertex   7.112875e+00 4.921418e+00 7.050507e+00
      vertex   7.000000e+00 5.000000e+00 7.108900e+00
      vertex   7.081482e+00 4.899697e+00 7.100810e+00
    endloop
  endfacet
  facet normal 6.487069e-01 4.623451e-01 6.044968e-01
    outer loop
      vertex   7.112875e+00 4.921418e+00 7.050507e+00
      vertex   7.081482e+00 4.899697e+00 7.100810e+00
      vertex   7.187953e+00 4.816078e+00 7.050507e+00
    endloop
  endfacet
  facet normal 6.487069e-01 4.623451e-01 6.044968e-01
    outer loop
      vertex   7.187953e+00 4.816078e+00 7.050507e+00
      vertex   7.081482e+00 4.899697e+00 7.100810e+00
      vertex   7.156228e+00 4.794822e+00 7.100810e+00
    endloop
  endfacet
  facet normal 6.555739e-01 4.523897e-01 6.046209e-01
    outer loop
      vertex   7.187953e+00 4.816078e+00 7.050507e+00
      vertex   7.156228e+00 4.794822e+00 7.100810e+00
      vertex   7.261297e+00 4.709793e+00 7.050507e+00
    endloop
  endfacet
  facet normal 6.555739e-01 4.523897e-01 6.046209e-01
    outer loop
      vertex   7.261297e+00 4.709793e+00 7.050507e+00
      vertex   7.156228e+00 4.794822e+00 7.100810e+00
      vertex   7.229248e+00 4.689006e+00 7.100810e+00
    endloop
  endfacet
  facet normal 6.622838e-01 4.423412e-01 6.047433e-01
    outer loop
      vertex   7.261297e+00 4.709793e+00 7.050507e+00
      vertex   7.229248e+00 4.689006e+00 7.100810e+00
      vertex   7.332889e+00 4.602603e+00 7.050507e+00
    endloop
  endfacet
  facet normal 6.622838e-01 4.423412e-01 6.047433e-01
    outer loop
      vertex   7.332889e+00 4.602603e+00 7.050507e+00
      vertex   7.229248e+00 4.689006e+00 7.100810e+00
      vertex   7.300524e+00 4.582289e+00 7.100810e+00
    endloop
  endfacet
  facet normal 6.688346e-01 4.322033e-01 6.048641e-01
    outer loop
      vertex   7.332889e+00 4.602603e+00 7.050507e+00
      vertex   7.300524e+00 4.582289e+00 7.100810e+00
      vertex   7.402713e+00 4.494550e+00 7.050507e+00
    endloop
  endfacet
  facet normal 6.688346e-01 4.322033e-01 6.048641e-01
    outer loop
      vertex   7.402713e+00 4.494550e+00 7.050507e+00
      vertex   7.300524e+00 4.582289e+00 7.100810e+00
      vertex   7.370041e+00 4.474713e+00 7.100810e+00
    endloop
  endfacet
  facet normal 6.752248e-01 4.219798e-01 6.049830e-01
    outer loop
      vertex   7.402713e+00 4.494550e+00 7.050507e+00
      vertex   7.370041e+00 4.474713e+00 7.100810e+00
      vertex   7.470755e+00 4.385674e+00 7.050507e+00
    endloop
  endfacet
  facet normal 6.752248e-01 4.219798e-01 6.049830e-01
    outer loop
      vertex   7.470755e+00 4.385674e+00 7.050507e+00
      vertex   7.370041e+00 4.474713e+00 7.100810e+00
      vertex   7.437782e+00 4.366317e+00 7.100810e+00
    endloop
  endfacet
  facet normal 6.814528e-01 4.116748e-01 6.050999e-01
    outer loop
      vertex   7.470755e+00 4.385674e+00 7.050507e+00
      vertex   7.437782e+00 4.366317e+00 7.100810e+00
      vertex   7.537001e+00 4.276016e+00 7.050507e+00
    endloop
  endfacet
  facet normal 6.814528e-01 4.116748e-01 6.050999e-01
    outer loop
      vertex   7.537001e+00 4.276016e+00 7.050507e+00
      vertex   7.437782e+00 4.366317e+00 7.100810e+00
      vertex   7.503735e+00 4.257144e+00 7.100810e+00
    endloop
  endfacet
  facet normal 6.875170e-01 4.012921e-01 6.052148e-01
    outer loop
      vertex   7.537001e+00 4.276016e+00 7.050507e+00
      vertex   7.503735e+00 4.257144e+00 7.100810e+00
      vertex   7.601437e+00 4.165620e+00 7.050507e+00
    endloop
  endfacet
  facet normal 6.875170e-01 4.012921e-01 6.052148e-01
    outer loop
      vertex   7.601437e+00 4.165620e+00 7.050507e+00
      vertex   7.503735e+00 4.257144e+00 7.100810e+00
      vertex   7.567888e+00 4.147234e+00 7.100810e+00
    endloop
  endfacet
  facet normal 6.928971e-01 3.917653e-01 6.053211e-01
    outer loop
      vertex   7.601437e+00 4.165620e+00 7.050507e+00
      vertex   7.567888e+00 4.147234e+00 7.100810e+00
      vertex   7.653064e+00 4.074311e+00 7.050507e+00
    endloop
  endfacet
  facet normal 6.928971e-01 3.917653e-01 6.053211e-01
    outer loop
      vertex   7.653064e+00 4.074311e+00 7.050507e+00
      vertex   7.567888e+00 4.147234e+00 7.100810e+00
      vertex   7.619286e+00 4.056328e+00 7.100810e+00
    endloop
  endfacet
  facet normal 6.967538e-01 3.847407e-01 6.053997e-01
    outer loop
      vertex   7.653064e+00 4.074311e+00 7.050507e+00
      vertex   7.619286e+00 4.056328e+00 7.100810e+00
      vertex   7.649472e+00 4.000000e+00 7.101867e+00
    endloop
  endfacet
  facet normal 6.937417e-01 3.832094e-01 6.098139e-01
    outer loop
      vertex   7.649472e+00 4.000000e+00 7.101867e+00
      vertex   7.619286e+00 4.056328e+00 7.100810e+00
      vertex   7.585258e+00 4.038213e+00 7.150905e+00
    endloop
  endfacet
  facet normal 6.934646e-01 3.788671e-01 6.128348e-01
    outer loop
      vertex   7.649472e+00 4.000000e+00 7.101867e+00
      vertex   7.585258e+00 4.038213e+00 7.150905e+00
      vertex   7.560460e+00 4.000000e+00 7.202590e+00
    endloop
  endfacet
  facet normal 6.899968e-01 3.829648e-01 6.142006e-01
    outer loop
      vertex   7.560460e+00 4.000000e+00 7.202590e+00
      vertex   7.585258e+00 4.038213e+00 7.150905e+00
      vertex   7.550981e+00 4.019964e+00 7.200791e+00
    endloop
  endfacet
  facet normal 6.867210e-01 3.818039e-01 6.185790e-01
    outer loop
      vertex   7.560460e+00 4.000000e+00 7.202590e+00
      vertex   7.550981e+00 4.019964e+00 7.200791e+00
      vertex   7.516455e+00 4.001584e+00 7.250464e+00
    endloop
  endfacet
  facet normal 6.840077e-01 3.867392e-01 6.185194e-01
    outer loop
      vertex   7.516455e+00 4.001584e+00 7.250464e+00
      vertex   7.550981e+00 4.019964e+00 7.200791e+00
      vertex   7.465751e+00 4.091263e+00 7.250464e+00
    endloop
  endfacet
  facet normal 6.815790e-01 3.853660e-01 6.220475e-01
    outer loop
      vertex   7.516455e+00 4.001584e+00 7.250464e+00
      vertex   7.465751e+00 4.091263e+00 7.250464e+00
      vertex   7.470175e+00 4.000000e+00 7.302155e+00
    endloop
  endfacet
  facet normal 6.805776e-01 3.857895e-01 6.228809e-01
    outer loop
      vertex   7.470175e+00 4.000000e+00 7.302155e+00
      vertex   7.465751e+00 4.091263e+00 7.250464e+00
      vertex   7.431214e+00 4.072336e+00 7.299923e+00
    endloop
  endfacet
  facet normal 6.774521e-01 3.842403e-01 6.272305e-01
    outer loop
      vertex   7.470175e+00 4.000000e+00 7.302155e+00
      vertex   7.431214e+00 4.072336e+00 7.299923e+00
      vertex   7.396433e+00 4.053276e+00 7.349164e+00
    endloop
  endfacet
  facet normal 6.727060e-01 3.926472e-01 6.271322e-01
    outer loop
      vertex   7.396433e+00 4.053276e+00 7.349164e+00
      vertex   7.431214e+00 4.072336e+00 7.299923e+00
      vertex   7.333734e+00 4.160696e+00 7.349164e+00
    endloop
  endfacet
  facet normal 6.696747e-01 3.908779e-01 6.314667e-01
    outer loop
      vertex   7.396433e+00 4.053276e+00 7.349164e+00
      vertex   7.333734e+00 4.160696e+00 7.349164e+00
      vertex   7.299009e+00 4.140995e+00 7.398185e+00
    endloop
  endfacet
  facet normal 6.637744e-01 4.009950e-01 6.313530e-01
    outer loop
      vertex   7.299009e+00 4.140995e+00 7.398185e+00
      vertex   7.333734e+00 4.160696e+00 7.349164e+00
      vertex   7.234856e+00 4.247190e+00 7.398185e+00
    endloop
  endfacet
  facet normal 6.607483e-01 3.991670e-01 6.356708e-01
    outer loop
      vertex   7.299009e+00 4.140995e+00 7.398185e+00
      vertex   7.234856e+00 4.247190e+00 7.398185e+00
      vertex   7.200199e+00 4.226845e+00 7.446984e+00
    endloop
  endfacet
  facet normal 6.547172e-01 4.091636e-01 6.355553e-01
    outer loop
      vertex   7.200199e+00 4.226845e+00 7.446984e+00
      vertex   7.234856e+00 4.247190e+00 7.398185e+00
      vertex   7.134622e+00 4.331778e+00 7.446984e+00
    endloop
  endfacet
  facet normal 6.516975e-01 4.072765e-01 6.398564e-01
    outer loop
      vertex   7.200199e+00 4.226845e+00 7.446984e+00
      vertex   7.134622e+00 4.331778e+00 7.446984e+00
      vertex   7.100048e+00 4.310787e+00 7.495558e+00
    endloop
  endfacet
  facet normal 6.455387e-01 4.171493e-01 6.397392e-01
    outer loop
      vertex   7.100048e+00 4.310787e+00 7.495558e+00
      vertex   7.134622e+00 4.331778e+00 7.446984e+00
      vertex   7.033079e+00 4.414423e+00 7.495558e+00
    endloop
  endfacet
  facet normal 6.427167e-01 4.153258e-01 6.437544e-01
    outer loop
      vertex   7.100048e+00 4.310787e+00 7.495558e+00
      vertex   7.033079e+00 4.414423e+00 7.495558e+00
      vertex   7.000000e+00 4.386333e+00 7.546706e+00
    endloop
  endfacet
  facet normal 6.383980e-01 4.212394e-01 6.442091e-01
    outer loop
      vertex   7.000000e+00 4.386333e+00 7.546706e+00
      vertex   7.033079e+00 4.414423e+00 7.495558e+00
      vertex   7.000000e+00 4.449433e+00 7.505446e+00
    endloop
  endfacet
  facet normal 6.406875e-01 4.246887e-01 6.396554e-01
    outer loop
      vertex   7.000000e+00 4.449433e+00 7.505446e+00
      vertex   7.033079e+00 4.414423e+00 7.495558e+00
      vertex   7.067326e+00 4.435918e+00 7.446984e+00
    endloop
  endfacet
  facet normal 6.403973e-01 4.261280e-01 6.389884e-01
    outer loop
      vertex   7.000000e+00 4.449433e+00 7.505446e+00
      vertex   7.067326e+00 4.435918e+00 7.446984e+00
      vertex   7.000000e+00 4.512156e+00 7.463617e+00
    endloop
  endfacet
  facet normal 6.423542e-01 4.286559e-01 6.353229e-01
    outer loop
      vertex   7.000000e+00 4.512156e+00 7.463617e+00
      vertex   7.067326e+00 4.435918e+00 7.446984e+00
      vertex   7.101343e+00 4.457270e+00 7.398185e+00
    endloop
  endfacet
  facet normal 6.423792e-01 4.290468e-01 6.350337e-01
    outer loop
      vertex   7.000000e+00 4.512156e+00 7.463617e+00
      vertex   7.101343e+00 4.457270e+00 7.398185e+00
      vertex   7.032011e+00 4.561075e+00 7.398185e+00
    endloop
  endfacet
  facet normal 6.451221e-01 4.308788e-01 6.309999e-01
    outer loop
      vertex   7.032011e+00 4.561075e+00 7.398185e+00
      vertex   7.101343e+00 4.457270e+00 7.398185e+00
      vertex   7.135127e+00 4.478475e+00 7.349164e+00
    endloop
  endfacet
  facet normal 6.451221e-01 4.308788e-01 6.309999e-01
    outer loop
      vertex   7.032011e+00 4.561075e+00 7.398185e+00
      vertex   7.135127e+00 4.478475e+00 7.349164e+00
      vertex   7.065466e+00 4.582774e+00 7.349164e+00
    endloop
  endfacet
  facet normal 6.480379e-01 4.328263e-01 6.266645e-01
    outer loop
      vertex   7.065466e+00 4.582774e+00 7.349164e+00
      vertex   7.135127e+00 4.478475e+00 7.349164e+00
      vertex   7.168679e+00 4.499534e+00 7.299923e+00
    endloop
  endfacet
  facet normal 6.480379e-01 4.328263e-01 6.266645e-01
    outer loop
      vertex   7.065466e+00 4.582774e+00 7.349164e+00
      vertex   7.168679e+00 4.499534e+00 7.299923e+00
      vertex   7.098690e+00 4.604324e+00 7.299923e+00
    endloop
  endfacet
  facet normal 6.509315e-01 4.347590e-01 6.223124e-01
    outer loop
      vertex   7.098690e+00 4.604324e+00 7.299923e+00
      vertex   7.168679e+00 4.499534e+00 7.299923e+00
      vertex   7.201996e+00 4.520446e+00 7.250464e+00
    endloop
  endfacet
  facet normal 6.509315e-01 4.347590e-01 6.223124e-01
    outer loop
      vertex   7.098690e+00 4.604324e+00 7.299923e+00
      vertex   7.201996e+00 4.520446e+00 7.250464e+00
      vertex   7.131681e+00 4.625723e+00 7.250464e+00
    endloop
  endfacet
  facet normal 6.538031e-01 4.366769e-01 6.179441e-01
    outer loop
      vertex   7.131681e+00 4.625723e+00 7.250464e+00
      vertex   7.201996e+00 4.520446e+00 7.250464e+00
      vertex   7.235077e+00 4.541210e+00 7.200791e+00
    endloop
  endfacet
  facet normal 6.538031e-01 4.366769e-01 6.179441e-01
    outer loop
      vertex   7.131681e+00 4.625723e+00 7.250464e+00
      vertex   7.235077e+00 4.541210e+00 7.200791e+00
      vertex   7.164439e+00 4.646970e+00 7.200791e+00
    endloop
  endfacet
  facet normal 6.566523e-01 4.385799e-01 6.135596e-01
    outer loop
      vertex   7.164439e+00 4.646970e+00 7.200791e+00
      vertex   7.235077e+00 4.541210e+00 7.200791e+00
      vertex   7.267920e+00 4.561825e+00 7.150905e+00
    endloop
  endfacet
  facet normal 6.566523e-01 4.385799e-01 6.135596e-01
    outer loop
      vertex   7.164439e+00 4.646970e+00 7.200791e+00
      vertex   7.267920e+00 4.561825e+00 7.150905e+00
      vertex   7.196962e+00 4.668065e+00 7.150905e+00
    endloop
  endfacet
  facet normal 6.594793e-01 4.404680e-01 6.091593e-01
    outer loop
      vertex   7.196962e+00 4.668065e+00 7.150905e+00
      vertex   7.267920e+00 4.561825e+00 7.150905e+00
      vertex   7.300524e+00 4.582289e+00 7.100810e+00
    endloop
  endfacet
  facet normal 6.594793e-01 4.404680e-01 6.091593e-01
    outer loop
      vertex   7.196962e+00 4.668065e+00 7.150905e+00
      vertex   7.300524e+00 4.582289e+00 7.100810e+00
      vertex   7.229248e+00 4.689006e+00 7.100810e+00
    endloop
  endfacet
  facet normal 6.401567e-01 4.710893e-01 6.068560e-01
    outer loop
      vertex   7.000000e+00 5.000000e+00 7.108900e+00
      vertex   7.000000e+00 4.940405e+00 7.155162e+00
      vertex   7.081482e+00 4.899697e+00 7.100810e+00
    endloop
  endfacet
  facet normal 6.401808e-01 4.685212e-01 6.088155e-01
    outer loop
      vertex   7.081482e+00 4.899697e+00 7.100810e+00
      vertex   7.000000e+00 4.940405e+00 7.155162e+00
      vertex   7.049855e+00 4.877815e+00 7.150905e+00
    endloop
  endfacet
  facet normal 6.459621e-01 4.603889e-01 6.089130e-01
    outer loop
      vertex   7.081482e+00 4.899697e+00 7.100810e+00
      vertex   7.049855e+00 4.877815e+00 7.150905e+00
      vertex   7.156228e+00 4.794822e+00 7.100810e+00
    endloop
  endfacet
  facet normal 6.459621e-01 4.603889e-01 6.089130e-01
    outer loop
      vertex   7.156228e+00 4.794822e+00 7.100810e+00
      vertex   7.049855e+00 4.877815e+00 7.150905e+00
      vertex   7.124268e+00 4.773408e+00 7.150905e+00
    endloop
  endfacet
  facet normal 6.527989e-01 4.504748e-01 6.090370e-01
    outer loop
      vertex   7.156228e+00 4.794822e+00 7.100810e+00
      vertex   7.124268e+00 4.773408e+00 7.150905e+00
      vertex   7.229248e+00 4.689006e+00 7.100810e+00
    endloop
  endfacet
  facet normal 6.527989e-01 4.504748e-01 6.090370e-01
    outer loop
      vertex   7.229248e+00 4.689006e+00 7.100810e+00
      vertex   7.124268e+00 4.773408e+00 7.150905e+00
      vertex   7.196962e+00 4.668065e+00 7.150905e+00
    endloop
  endfacet
  facet normal 6.381391e-01 4.666522e-01 6.123840e-01
    outer loop
      vertex   7.000000e+00 4.940405e+00 7.155162e+00
      vertex   7.000000e+00 4.880407e+00 7.200882e+00
      vertex   7.049855e+00 4.877815e+00 7.150905e+00
    endloop
  endfacet
  facet normal 6.388910e-01 4.644857e-01 6.132465e-01
    outer loop
      vertex   7.049855e+00 4.877815e+00 7.150905e+00
      vertex   7.000000e+00 4.880407e+00 7.200882e+00
      vertex   7.017997e+00 4.855772e+00 7.200791e+00
    endloop
  endfacet
  facet normal 6.431953e-01 4.584169e-01 6.133137e-01
    outer loop
      vertex   7.049855e+00 4.877815e+00 7.150905e+00
      vertex   7.017997e+00 4.855772e+00 7.200791e+00
      vertex   7.124268e+00 4.773408e+00 7.150905e+00
    endloop
  endfacet
  facet normal 6.431953e-01 4.584169e-01 6.133137e-01
    outer loop
      vertex   7.124268e+00 4.773408e+00 7.150905e+00
      vertex   7.017997e+00 4.855772e+00 7.200791e+00
      vertex   7.092074e+00 4.751837e+00 7.200791e+00
    endloop
  endfacet
  facet normal 6.500017e-01 4.485446e-01 6.134374e-01
    outer loop
      vertex   7.124268e+00 4.773408e+00 7.150905e+00
      vertex   7.092074e+00 4.751837e+00 7.200791e+00
      vertex   7.196962e+00 4.668065e+00 7.150905e+00
    endloop
  endfacet
  facet normal 6.500017e-01 4.485446e-01 6.134374e-01
    outer loop
      vertex   7.196962e+00 4.668065e+00 7.150905e+00
      vertex   7.092074e+00 4.751837e+00 7.200791e+00
      vertex   7.164439e+00 4.646970e+00 7.200791e+00
    endloop
  endfacet
  facet normal 6.358739e-01 4.622639e-01 6.180424e-01
    outer loop
      vertex   7.000000e+00 4.880407e+00 7.200882e+00
      vertex   7.000000e+00 4.820011e+00 7.246055e+00
      vertex   7.017997e+00 4.855772e+00 7.200791e+00
    endloop
  endfacet
  facet normal 6.413814e-01 4.571241e-01 6.161716e-01
    outer loop
      vertex   7.017997e+00 4.855772e+00 7.200791e+00
      vertex   7.000000e+00 4.820011e+00 7.246055e+00
      vertex   7.092074e+00 4.751837e+00 7.200791e+00
    endloop
  endfacet
  facet normal 6.409967e-01 4.555812e-01 6.177127e-01
    outer loop
      vertex   7.092074e+00 4.751837e+00 7.200791e+00
      vertex   7.000000e+00 4.820011e+00 7.246055e+00
      vertex   7.059647e+00 4.730110e+00 7.250464e+00
    endloop
  endfacet
  facet normal 6.397071e-01 4.548187e-01 6.196086e-01
    outer loop
      vertex   7.059647e+00 4.730110e+00 7.250464e+00
      vertex   7.000000e+00 4.820011e+00 7.246055e+00
      vertex   7.000000e+00 4.759219e+00 7.290679e+00
    endloop
  endfacet
  facet normal 6.397153e-01 4.513721e-01 6.221154e-01
    outer loop
      vertex   7.059647e+00 4.730110e+00 7.250464e+00
      vertex   7.000000e+00 4.759219e+00 7.290679e+00
      vertex   7.026988e+00 4.708229e+00 7.299923e+00
    endloop
  endfacet
  facet normal 6.369952e-01 4.505454e-01 6.254966e-01
    outer loop
      vertex   7.026988e+00 4.708229e+00 7.299923e+00
      vertex   7.000000e+00 4.759219e+00 7.290679e+00
      vertex   7.000000e+00 4.698034e+00 7.334750e+00
    endloop
  endfacet
  facet normal 6.413226e-01 4.428220e-01 6.265893e-01
    outer loop
      vertex   7.026988e+00 4.708229e+00 7.299923e+00
      vertex   7.000000e+00 4.698034e+00 7.334750e+00
      vertex   7.000000e+00 4.636460e+00 7.378266e+00
    endloop
  endfacet
  facet normal 6.388473e-01 4.383323e-01 6.322491e-01
    outer loop
      vertex   7.000000e+00 4.574500e+00 7.421223e+00
      vertex   7.032011e+00 4.561075e+00 7.398185e+00
      vertex   7.000000e+00 4.636460e+00 7.378266e+00
    endloop
  endfacet
  facet normal 6.400566e-01 4.384928e-01 6.309133e-01
    outer loop
      vertex   7.000000e+00 4.636460e+00 7.378266e+00
      vertex   7.032011e+00 4.561075e+00 7.398185e+00
      vertex   7.065466e+00 4.582774e+00 7.349164e+00
    endloop
  endfacet
  facet normal 6.415029e-01 4.426252e-01 6.265436e-01
    outer loop
      vertex   7.000000e+00 4.636460e+00 7.378266e+00
      vertex   7.065466e+00 4.582774e+00 7.349164e+00
      vertex   7.098690e+00 4.604324e+00 7.299923e+00
    endloop
  endfacet
  facet normal 6.391005e-01 4.324911e-01 6.360047e-01
    outer loop
      vertex   7.000000e+00 4.574500e+00 7.421223e+00
      vertex   7.000000e+00 4.512156e+00 7.463617e+00
      vertex   7.032011e+00 4.561075e+00 7.398185e+00
    endloop
  endfacet
  facet normal 6.426341e-01 4.150324e-01 6.440261e-01
    outer loop
      vertex   7.100048e+00 4.310787e+00 7.495558e+00
      vertex   7.000000e+00 4.386333e+00 7.546706e+00
      vertex   7.065244e+00 4.289656e+00 7.543905e+00
    endloop
  endfacet
  facet normal 6.413053e-01 4.140796e-01 6.459610e-01
    outer loop
      vertex   7.065244e+00 4.289656e+00 7.543905e+00
      vertex   7.000000e+00 4.386333e+00 7.546706e+00
      vertex   7.000000e+00 4.322859e+00 7.587395e+00
    endloop
  endfacet
  facet normal 6.411306e-01 4.106343e-01 6.483294e-01
    outer loop
      vertex   7.065244e+00 4.289656e+00 7.543905e+00
      vertex   7.000000e+00 4.322859e+00 7.587395e+00
      vertex   7.030210e+00 4.268385e+00 7.592022e+00
    endloop
  endfacet
  facet normal 6.384854e-01 4.094518e-01 6.516791e-01
    outer loop
      vertex   7.030210e+00 4.268385e+00 7.592022e+00
      vertex   7.000000e+00 4.322859e+00 7.587395e+00
      vertex   7.000000e+00 4.259015e+00 7.627508e+00
    endloop
  endfacet
  facet normal 6.421237e-01 4.019250e-01 6.527890e-01
    outer loop
      vertex   7.030210e+00 4.268385e+00 7.592022e+00
      vertex   7.000000e+00 4.259015e+00 7.627508e+00
      vertex   7.000000e+00 4.194804e+00 7.667043e+00
    endloop
  endfacet
  facet normal 6.394479e-01 3.971239e-01 6.583304e-01
    outer loop
      vertex   7.000000e+00 4.130229e+00 7.705996e+00
      vertex   7.023428e+00 4.123072e+00 7.687558e+00
      vertex   7.000000e+00 4.194804e+00 7.667043e+00
    endloop
  endfacet
  facet normal 6.408596e-01 3.971819e-01 6.569213e-01
    outer loop
      vertex   7.000000e+00 4.194804e+00 7.667043e+00
      vertex   7.023428e+00 4.123072e+00 7.687558e+00
      vertex   7.059242e+00 4.144097e+00 7.639907e+00
    endloop
  endfacet
  facet normal 6.425571e-01 4.014478e-01 6.526561e-01
    outer loop
      vertex   7.000000e+00 4.194804e+00 7.667043e+00
      vertex   7.059242e+00 4.144097e+00 7.639907e+00
      vertex   7.094828e+00 4.164987e+00 7.592022e+00
    endloop
  endfacet
  facet normal 6.484201e-01 3.917193e-01 6.527690e-01
    outer loop
      vertex   7.094828e+00 4.164987e+00 7.592022e+00
      vertex   7.059242e+00 4.144097e+00 7.639907e+00
      vertex   7.157740e+00 4.060848e+00 7.592022e+00
    endloop
  endfacet
  facet normal 6.515355e-01 3.936014e-01 6.485209e-01
    outer loop
      vertex   7.094828e+00 4.164987e+00 7.592022e+00
      vertex   7.157740e+00 4.060848e+00 7.592022e+00
      vertex   7.193410e+00 4.081085e+00 7.543905e+00
    endloop
  endfacet
  facet normal 6.561476e-01 3.857016e-01 6.486175e-01
    outer loop
      vertex   7.193410e+00 4.081085e+00 7.543905e+00
      vertex   7.157740e+00 4.060848e+00 7.592022e+00
      vertex   7.191780e+00 4.000000e+00 7.593771e+00
    endloop
  endfacet
  facet normal 6.595939e-01 3.840737e-01 6.460830e-01
    outer loop
      vertex   7.193410e+00 4.081085e+00 7.543905e+00
      vertex   7.191780e+00 4.000000e+00 7.593771e+00
      vertex   7.285825e+00 4.000000e+00 7.497759e+00
    endloop
  endfacet
  facet normal 6.400317e-01 3.908636e-01 6.615021e-01
    outer loop
      vertex   7.000000e+00 4.130229e+00 7.705996e+00
      vertex   7.000000e+00 4.065293e+00 7.744365e+00
      vertex   7.023428e+00 4.123072e+00 7.687558e+00
    endloop
  endfacet
  facet normal 6.429068e-01 3.883886e-01 6.601706e-01
    outer loop
      vertex   7.023428e+00 4.123072e+00 7.687558e+00
      vertex   7.000000e+00 4.065293e+00 7.744365e+00
      vertex   7.085707e+00 4.019981e+00 7.687558e+00
    endloop
  endfacet
  facet normal 6.452825e-01 3.898239e-01 6.569991e-01
    outer loop
      vertex   7.023428e+00 4.123072e+00 7.687558e+00
      vertex   7.085707e+00 4.019981e+00 7.687558e+00
      vertex   7.121839e+00 4.040480e+00 7.639907e+00
    endloop
  endfacet
  facet normal 6.487859e-01 3.838308e-01 6.570774e-01
    outer loop
      vertex   7.121839e+00 4.040480e+00 7.639907e+00
      vertex   7.085707e+00 4.019981e+00 7.687558e+00
      vertex   7.096502e+00 4.000000e+00 7.688571e+00
    endloop
  endfacet
  facet normal 6.524388e-01 3.799242e-01 6.557296e-01
    outer loop
      vertex   7.121839e+00 4.040480e+00 7.639907e+00
      vertex   7.096502e+00 4.000000e+00 7.688571e+00
      vertex   7.191780e+00 4.000000e+00 7.593771e+00
    endloop
  endfacet
  facet normal 6.428759e-01 3.836224e-01 6.629814e-01
    outer loop
      vertex   7.000000e+00 4.000000e+00 7.782146e+00
      vertex   7.096502e+00 4.000000e+00 7.688571e+00
      vertex   7.000000e+00 4.065293e+00 7.744365e+00
    endloop
  endfacet
  facet normal 6.422329e-01 3.807066e-01 6.652815e-01
    outer loop
      vertex   7.000000e+00 4.065293e+00 7.744365e+00
      vertex   7.096502e+00 4.000000e+00 7.688571e+00
      vertex   7.085707e+00 4.019981e+00 7.687558e+00
    endloop
  endfacet
  facet normal 6.717393e-01 3.708472e-01 6.412789e-01
    outer loop
      vertex   7.378626e+00 4.000000e+00 7.400549e+00
      vertex   7.326149e+00 4.014760e+00 7.446984e+00
      vertex   7.285825e+00 4.000000e+00 7.497759e+00
    endloop
  endfacet
  facet normal 6.636720e-01 3.876311e-01 6.397512e-01
    outer loop
      vertex   7.285825e+00 4.000000e+00 7.497759e+00
      vertex   7.326149e+00 4.014760e+00 7.446984e+00
      vertex   7.228845e+00 4.101189e+00 7.495558e+00
    endloop
  endfacet
  facet normal 6.602601e-01 3.858102e-01 6.443656e-01
    outer loop
      vertex   7.285825e+00 4.000000e+00 7.497759e+00
      vertex   7.228845e+00 4.101189e+00 7.495558e+00
      vertex   7.193410e+00 4.081085e+00 7.543905e+00
    endloop
  endfacet
  facet normal 6.546288e-01 3.954701e-01 6.442550e-01
    outer loop
      vertex   7.193410e+00 4.081085e+00 7.543905e+00
      vertex   7.228845e+00 4.101189e+00 7.495558e+00
      vertex   7.130184e+00 4.185743e+00 7.543905e+00
    endloop
  endfacet
  facet normal 6.515355e-01 3.936014e-01 6.485209e-01
    outer loop
      vertex   7.193410e+00 4.081085e+00 7.543905e+00
      vertex   7.130184e+00 4.185743e+00 7.543905e+00
      vertex   7.094828e+00 4.164987e+00 7.592022e+00
    endloop
  endfacet
  facet normal 6.455917e-01 4.034607e-01 6.484063e-01
    outer loop
      vertex   7.094828e+00 4.164987e+00 7.592022e+00
      vertex   7.130184e+00 4.185743e+00 7.543905e+00
      vertex   7.030210e+00 4.268385e+00 7.592022e+00
    endloop
  endfacet
  facet normal 6.425465e-01 4.015576e-01 6.525990e-01
    outer loop
      vertex   7.094828e+00 4.164987e+00 7.592022e+00
      vertex   7.030210e+00 4.268385e+00 7.592022e+00
      vertex   7.000000e+00 4.194804e+00 7.667043e+00
    endloop
  endfacet
  facet normal 6.768445e-01 3.811741e-01 6.297522e-01
    outer loop
      vertex   7.470175e+00 4.000000e+00 7.302155e+00
      vertex   7.396433e+00 4.053276e+00 7.349164e+00
      vertex   7.378626e+00 4.000000e+00 7.400549e+00
    endloop
  endfacet
  facet normal 6.735582e-01 3.840079e-01 6.315515e-01
    outer loop
      vertex   7.378626e+00 4.000000e+00 7.400549e+00
      vertex   7.396433e+00 4.053276e+00 7.349164e+00
      vertex   7.361411e+00 4.034084e+00 7.398185e+00
    endloop
  endfacet
  facet normal 6.702673e-01 3.826450e-01 6.358651e-01
    outer loop
      vertex   7.378626e+00 4.000000e+00 7.400549e+00
      vertex   7.361411e+00 4.034084e+00 7.398185e+00
      vertex   7.326149e+00 4.014760e+00 7.446984e+00
    endloop
  endfacet
  facet normal 6.666207e-01 3.890953e-01 6.357843e-01
    outer loop
      vertex   7.326149e+00 4.014760e+00 7.446984e+00
      vertex   7.361411e+00 4.034084e+00 7.398185e+00
      vertex   7.264046e+00 4.121159e+00 7.446984e+00
    endloop
  endfacet
  facet normal 6.635440e-01 3.872995e-01 6.400848e-01
    outer loop
      vertex   7.326149e+00 4.014760e+00 7.446984e+00
      vertex   7.264046e+00 4.121159e+00 7.446984e+00
      vertex   7.228845e+00 4.101189e+00 7.495558e+00
    endloop
  endfacet
  facet normal 6.576997e-01 3.973253e-01 6.399716e-01
    outer loop
      vertex   7.228845e+00 4.101189e+00 7.495558e+00
      vertex   7.264046e+00 4.121159e+00 7.446984e+00
      vertex   7.165308e+00 4.206362e+00 7.495558e+00
    endloop
  endfacet
  facet normal 6.546288e-01 3.954701e-01 6.442550e-01
    outer loop
      vertex   7.228845e+00 4.101189e+00 7.495558e+00
      vertex   7.165308e+00 4.206362e+00 7.495558e+00
      vertex   7.130184e+00 4.185743e+00 7.543905e+00
    endloop
  endfacet
  facet normal 6.486557e-01 4.053755e-01 6.441401e-01
    outer loop
      vertex   7.130184e+00 4.185743e+00 7.543905e+00
      vertex   7.165308e+00 4.206362e+00 7.495558e+00
      vertex   7.065244e+00 4.289656e+00 7.543905e+00
    endloop
  endfacet
  facet normal 6.455917e-01 4.034607e-01 6.484063e-01
    outer loop
      vertex   7.130184e+00 4.185743e+00 7.543905e+00
      vertex   7.065244e+00 4.289656e+00 7.543905e+00
      vertex   7.030210e+00 4.268385e+00 7.592022e+00
    endloop
  endfacet
  facet normal 7.138932e-01 2.670036e-01 6.473528e-01
    outer loop
      vertex   7.470175e+00 4.000000e+00 7.302155e+00
      vertex   7.560460e+00 4.000000e+00 7.202590e+00
      vertex   7.516455e+00 4.001584e+00 7.250464e+00
    endloop
  endfacet
  facet normal 6.899574e-01 3.901031e-01 6.097363e-01
    outer loop
      vertex   7.585258e+00 4.038213e+00 7.150905e+00
      vertex   7.619286e+00 4.056328e+00 7.100810e+00
      vertex   7.534089e+00 4.128712e+00 7.150905e+00
    endloop
  endfacet
  facet normal 6.899574e-01 3.901031e-01 6.097363e-01
    outer loop
      vertex   7.534089e+00 4.128712e+00 7.150905e+00
      vertex   7.619286e+00 4.056328e+00 7.100810e+00
      vertex   7.567888e+00 4.147234e+00 7.100810e+00
    endloop
  endfacet
  facet normal 6.846011e-01 3.995902e-01 6.096302e-01
    outer loop
      vertex   7.534089e+00 4.128712e+00 7.150905e+00
      vertex   7.567888e+00 4.147234e+00 7.100810e+00
      vertex   7.470223e+00 4.238131e+00 7.150905e+00
    endloop
  endfacet
  facet normal 6.846011e-01 3.995902e-01 6.096302e-01
    outer loop
      vertex   7.470223e+00 4.238131e+00 7.150905e+00
      vertex   7.567888e+00 4.147234e+00 7.100810e+00
      vertex   7.503735e+00 4.257144e+00 7.100810e+00
    endloop
  endfacet
  facet normal 6.785637e-01 4.099295e-01 6.095154e-01
    outer loop
      vertex   7.470223e+00 4.238131e+00 7.150905e+00
      vertex   7.503735e+00 4.257144e+00 7.100810e+00
      vertex   7.404565e+00 4.346817e+00 7.150905e+00
    endloop
  endfacet
  facet normal 6.785637e-01 4.099295e-01 6.095154e-01
    outer loop
      vertex   7.404565e+00 4.346817e+00 7.150905e+00
      vertex   7.503735e+00 4.257144e+00 7.100810e+00
      vertex   7.437782e+00 4.366317e+00 7.100810e+00
    endloop
  endfacet
  facet normal 6.723633e-01 4.201915e-01 6.093986e-01
    outer loop
      vertex   7.404565e+00 4.346817e+00 7.150905e+00
      vertex   7.437782e+00 4.366317e+00 7.100810e+00
      vertex   7.337126e+00 4.454728e+00 7.150905e+00
    endloop
  endfacet
  facet normal 6.723633e-01 4.201915e-01 6.093986e-01
    outer loop
      vertex   7.337126e+00 4.454728e+00 7.150905e+00
      vertex   7.437782e+00 4.366317e+00 7.100810e+00
      vertex   7.370041e+00 4.474713e+00 7.100810e+00
    endloop
  endfacet
  facet normal 6.660013e-01 4.303723e-01 6.092799e-01
    outer loop
      vertex   7.337126e+00 4.454728e+00 7.150905e+00
      vertex   7.370041e+00 4.474713e+00 7.100810e+00
      vertex   7.267920e+00 4.561825e+00 7.150905e+00
    endloop
  endfacet
  facet normal 6.660013e-01 4.303723e-01 6.092799e-01
    outer loop
      vertex   7.267920e+00 4.561825e+00 7.150905e+00
      vertex   7.370041e+00 4.474713e+00 7.100810e+00
      vertex   7.300524e+00 4.582289e+00 7.100810e+00
    endloop
  endfacet
  facet normal 6.869942e-01 3.884278e-01 6.141358e-01
    outer loop
      vertex   7.550981e+00 4.019964e+00 7.200791e+00
      vertex   7.585258e+00 4.038213e+00 7.150905e+00
      vertex   7.500043e+00 4.110055e+00 7.200791e+00
    endloop
  endfacet
  facet normal 6.869942e-01 3.884278e-01 6.141358e-01
    outer loop
      vertex   7.500043e+00 4.110055e+00 7.200791e+00
      vertex   7.585258e+00 4.038213e+00 7.150905e+00
      vertex   7.534089e+00 4.128712e+00 7.150905e+00
    endloop
  endfacet
  facet normal 6.816620e-01 3.978747e-01 6.140298e-01
    outer loop
      vertex   7.500043e+00 4.110055e+00 7.200791e+00
      vertex   7.534089e+00 4.128712e+00 7.150905e+00
      vertex   7.436466e+00 4.218979e+00 7.200791e+00
    endloop
  endfacet
  facet normal 6.816620e-01 3.978747e-01 6.140298e-01
    outer loop
      vertex   7.436466e+00 4.218979e+00 7.200791e+00
      vertex   7.534089e+00 4.128712e+00 7.150905e+00
      vertex   7.470223e+00 4.238131e+00 7.150905e+00
    endloop
  endfacet
  facet normal 6.756516e-01 4.081703e-01 6.139153e-01
    outer loop
      vertex   7.436466e+00 4.218979e+00 7.200791e+00
      vertex   7.470223e+00 4.238131e+00 7.150905e+00
      vertex   7.371104e+00 4.327174e+00 7.200791e+00
    endloop
  endfacet
  facet normal 6.756516e-01 4.081703e-01 6.139153e-01
    outer loop
      vertex   7.371104e+00 4.327174e+00 7.200791e+00
      vertex   7.470223e+00 4.238131e+00 7.150905e+00
      vertex   7.404565e+00 4.346817e+00 7.150905e+00
    endloop
  endfacet
  facet normal 6.694789e-01 4.183889e-01 6.137986e-01
    outer loop
      vertex   7.371104e+00 4.327174e+00 7.200791e+00
      vertex   7.404565e+00 4.346817e+00 7.150905e+00
      vertex   7.303970e+00 4.434598e+00 7.200791e+00
    endloop
  endfacet
  facet normal 6.694789e-01 4.183889e-01 6.137986e-01
    outer loop
      vertex   7.303970e+00 4.434598e+00 7.200791e+00
      vertex   7.404565e+00 4.346817e+00 7.150905e+00
      vertex   7.337126e+00 4.454728e+00 7.150905e+00
    endloop
  endfacet
  facet normal 6.631453e-01 4.285268e-01 6.136800e-01
    outer loop
      vertex   7.303970e+00 4.434598e+00 7.200791e+00
      vertex   7.337126e+00 4.454728e+00 7.150905e+00
      vertex   7.235077e+00 4.541210e+00 7.200791e+00
    endloop
  endfacet
  facet normal 6.631453e-01 4.285268e-01 6.136800e-01
    outer loop
      vertex   7.235077e+00 4.541210e+00 7.200791e+00
      vertex   7.337126e+00 4.454728e+00 7.150905e+00
      vertex   7.267920e+00 4.561825e+00 7.150905e+00
    endloop
  endfacet
  facet normal 6.840077e-01 3.867392e-01 6.185194e-01
    outer loop
      vertex   7.550981e+00 4.019964e+00 7.200791e+00
      vertex   7.500043e+00 4.110055e+00 7.200791e+00
      vertex   7.465751e+00 4.091263e+00 7.250464e+00
    endloop
  endfacet
  facet normal 6.786997e-01 3.961456e-01 6.184136e-01
    outer loop
      vertex   7.465751e+00 4.091263e+00 7.250464e+00
      vertex   7.500043e+00 4.110055e+00 7.200791e+00
      vertex   7.402464e+00 4.199689e+00 7.250464e+00
    endloop
  endfacet
  facet normal 6.757143e-01 3.944031e-01 6.227811e-01
    outer loop
      vertex   7.465751e+00 4.091263e+00 7.250464e+00
      vertex   7.402464e+00 4.199689e+00 7.250464e+00
      vertex   7.368220e+00 4.180261e+00 7.299923e+00
    endloop
  endfacet
  facet normal 6.697586e-01 4.046102e-01 6.226669e-01
    outer loop
      vertex   7.368220e+00 4.180261e+00 7.299923e+00
      vertex   7.402464e+00 4.199689e+00 7.250464e+00
      vertex   7.303458e+00 4.287463e+00 7.299923e+00
    endloop
  endfacet
  facet normal 6.667778e-01 4.028095e-01 6.270183e-01
    outer loop
      vertex   7.368220e+00 4.180261e+00 7.299923e+00
      vertex   7.303458e+00 4.287463e+00 7.299923e+00
      vertex   7.269276e+00 4.267396e+00 7.349164e+00
    endloop
  endfacet
  facet normal 6.606894e-01 4.128960e-01 6.269022e-01
    outer loop
      vertex   7.269276e+00 4.267396e+00 7.349164e+00
      vertex   7.303458e+00 4.287463e+00 7.299923e+00
      vertex   7.203069e+00 4.373336e+00 7.349164e+00
    endloop
  endfacet
  facet normal 6.577145e-01 4.110368e-01 6.312372e-01
    outer loop
      vertex   7.269276e+00 4.267396e+00 7.349164e+00
      vertex   7.203069e+00 4.373336e+00 7.349164e+00
      vertex   7.168962e+00 4.352628e+00 7.398185e+00
    endloop
  endfacet
  facet normal 6.514966e-01 4.209993e-01 6.311195e-01
    outer loop
      vertex   7.168962e+00 4.352628e+00 7.398185e+00
      vertex   7.203069e+00 4.373336e+00 7.349164e+00
      vertex   7.101343e+00 4.457270e+00 7.398185e+00
    endloop
  endfacet
  facet normal 6.485287e-01 4.190815e-01 6.354379e-01
    outer loop
      vertex   7.168962e+00 4.352628e+00 7.398185e+00
      vertex   7.101343e+00 4.457270e+00 7.398185e+00
      vertex   7.067326e+00 4.435918e+00 7.446984e+00
    endloop
  endfacet
  facet normal 6.786997e-01 3.961456e-01 6.184136e-01
    outer loop
      vertex   7.402464e+00 4.199689e+00 7.250464e+00
      vertex   7.500043e+00 4.110055e+00 7.200791e+00
      vertex   7.436466e+00 4.218979e+00 7.200791e+00
    endloop
  endfacet
  facet normal 6.727060e-01 3.926472e-01 6.271322e-01
    outer loop
      vertex   7.333734e+00 4.160696e+00 7.349164e+00
      vertex   7.431214e+00 4.072336e+00 7.299923e+00
      vertex   7.368220e+00 4.180261e+00 7.299923e+00
    endloop
  endfacet
  facet normal 6.757143e-01 3.944031e-01 6.227811e-01
    outer loop
      vertex   7.368220e+00 4.180261e+00 7.299923e+00
      vertex   7.431214e+00 4.072336e+00 7.299923e+00
      vertex   7.465751e+00 4.091263e+00 7.250464e+00
    endloop
  endfacet
  facet normal 6.666207e-01 3.890953e-01 6.357843e-01
    outer loop
      vertex   7.264046e+00 4.121159e+00 7.446984e+00
      vertex   7.361411e+00 4.034084e+00 7.398185e+00
      vertex   7.299009e+00 4.140995e+00 7.398185e+00
    endloop
  endfacet
  facet normal 6.696747e-01 3.908779e-01 6.314667e-01
    outer loop
      vertex   7.299009e+00 4.140995e+00 7.398185e+00
      vertex   7.361411e+00 4.034084e+00 7.398185e+00
      vertex   7.396433e+00 4.053276e+00 7.349164e+00
    endloop
  endfacet
  facet normal 6.727165e-01 4.063971e-01 6.182992e-01
    outer loop
      vertex   7.402464e+00 4.199689e+00 7.250464e+00
      vertex   7.436466e+00 4.218979e+00 7.200791e+00
      vertex   7.337401e+00 4.307389e+00 7.250464e+00
    endloop
  endfacet
  facet normal 6.727165e-01 4.063971e-01 6.182992e-01
    outer loop
      vertex   7.337401e+00 4.307389e+00 7.250464e+00
      vertex   7.436466e+00 4.218979e+00 7.200791e+00
      vertex   7.371104e+00 4.327174e+00 7.200791e+00
    endloop
  endfacet
  facet normal 6.665717e-01 4.165721e-01 6.181827e-01
    outer loop
      vertex   7.337401e+00 4.307389e+00 7.250464e+00
      vertex   7.371104e+00 4.327174e+00 7.200791e+00
      vertex   7.270574e+00 4.414321e+00 7.250464e+00
    endloop
  endfacet
  facet normal 6.665717e-01 4.165721e-01 6.181827e-01
    outer loop
      vertex   7.270574e+00 4.414321e+00 7.250464e+00
      vertex   7.371104e+00 4.327174e+00 7.200791e+00
      vertex   7.303970e+00 4.434598e+00 7.200791e+00
    endloop
  endfacet
  facet normal 6.602667e-01 4.266666e-01 6.180643e-01
    outer loop
      vertex   7.270574e+00 4.414321e+00 7.250464e+00
      vertex   7.303970e+00 4.434598e+00 7.200791e+00
      vertex   7.201996e+00 4.520446e+00 7.250464e+00
    endloop
  endfacet
  facet normal 6.602667e-01 4.266666e-01 6.180643e-01
    outer loop
      vertex   7.201996e+00 4.520446e+00 7.250464e+00
      vertex   7.303970e+00 4.434598e+00 7.200791e+00
      vertex   7.235077e+00 4.541210e+00 7.200791e+00
    endloop
  endfacet
  facet normal 6.637744e-01 4.009950e-01 6.313530e-01
    outer loop
      vertex   7.234856e+00 4.247190e+00 7.398185e+00
      vertex   7.333734e+00 4.160696e+00 7.349164e+00
      vertex   7.269276e+00 4.267396e+00 7.349164e+00
    endloop
  endfacet
  facet normal 6.667778e-01 4.028095e-01 6.270183e-01
    outer loop
      vertex   7.269276e+00 4.267396e+00 7.349164e+00
      vertex   7.333734e+00 4.160696e+00 7.349164e+00
      vertex   7.368220e+00 4.180261e+00 7.299923e+00
    endloop
  endfacet
  facet normal 6.576997e-01 3.973253e-01 6.399716e-01
    outer loop
      vertex   7.165308e+00 4.206362e+00 7.495558e+00
      vertex   7.264046e+00 4.121159e+00 7.446984e+00
      vertex   7.200199e+00 4.226845e+00 7.446984e+00
    endloop
  endfacet
  facet normal 6.607483e-01 3.991670e-01 6.356708e-01
    outer loop
      vertex   7.200199e+00 4.226845e+00 7.446984e+00
      vertex   7.264046e+00 4.121159e+00 7.446984e+00
      vertex   7.299009e+00 4.140995e+00 7.398185e+00
    endloop
  endfacet
  facet normal 6.529168e-01 3.840163e-01 6.528638e-01
    outer loop
      vertex   7.121839e+00 4.040480e+00 7.639907e+00
      vertex   7.191780e+00 4.000000e+00 7.593771e+00
      vertex   7.157740e+00 4.060848e+00 7.592022e+00
    endloop
  endfacet
  facet normal 6.452825e-01 3.898239e-01 6.569991e-01
    outer loop
      vertex   7.023428e+00 4.123072e+00 7.687558e+00
      vertex   7.121839e+00 4.040480e+00 7.639907e+00
      vertex   7.059242e+00 4.144097e+00 7.639907e+00
    endloop
  endfacet
  facet normal 6.484201e-01 3.917193e-01 6.527690e-01
    outer loop
      vertex   7.059242e+00 4.144097e+00 7.639907e+00
      vertex   7.121839e+00 4.040480e+00 7.639907e+00
      vertex   7.157740e+00 4.060848e+00 7.592022e+00
    endloop
  endfacet
  facet normal 6.697586e-01 4.046102e-01 6.226669e-01
    outer loop
      vertex   7.402464e+00 4.199689e+00 7.250464e+00
      vertex   7.337401e+00 4.307389e+00 7.250464e+00
      vertex   7.303458e+00 4.287463e+00 7.299923e+00
    endloop
  endfacet
  facet normal 6.636419e-01 4.147411e-01 6.225506e-01
    outer loop
      vertex   7.303458e+00 4.287463e+00 7.299923e+00
      vertex   7.337401e+00 4.307389e+00 7.250464e+00
      vertex   7.236940e+00 4.393901e+00 7.299923e+00
    endloop
  endfacet
  facet normal 6.606894e-01 4.128960e-01 6.269022e-01
    outer loop
      vertex   7.303458e+00 4.287463e+00 7.299923e+00
      vertex   7.236940e+00 4.393901e+00 7.299923e+00
      vertex   7.203069e+00 4.373336e+00 7.349164e+00
    endloop
  endfacet
  facet normal 6.544423e-01 4.229028e-01 6.267843e-01
    outer loop
      vertex   7.203069e+00 4.373336e+00 7.349164e+00
      vertex   7.236940e+00 4.393901e+00 7.299923e+00
      vertex   7.135127e+00 4.478475e+00 7.349164e+00
    endloop
  endfacet
  facet normal 6.514966e-01 4.209993e-01 6.311195e-01
    outer loop
      vertex   7.203069e+00 4.373336e+00 7.349164e+00
      vertex   7.135127e+00 4.478475e+00 7.349164e+00
      vertex   7.101343e+00 4.457270e+00 7.398185e+00
    endloop
  endfacet
  facet normal 6.636419e-01 4.147411e-01 6.225506e-01
    outer loop
      vertex   7.236940e+00 4.393901e+00 7.299923e+00
      vertex   7.337401e+00 4.307389e+00 7.250464e+00
      vertex   7.270574e+00 4.414321e+00 7.250464e+00
    endloop
  endfacet
  facet normal 6.547172e-01 4.091636e-01 6.355553e-01
    outer loop
      vertex   7.134622e+00 4.331778e+00 7.446984e+00
      vertex   7.234856e+00 4.247190e+00 7.398185e+00
      vertex   7.168962e+00 4.352628e+00 7.398185e+00
    endloop
  endfacet
  facet normal 6.577145e-01 4.110368e-01 6.312372e-01
    outer loop
      vertex   7.168962e+00 4.352628e+00 7.398185e+00
      vertex   7.234856e+00 4.247190e+00 7.398185e+00
      vertex   7.269276e+00 4.267396e+00 7.349164e+00
    endloop
  endfacet
  facet normal 6.486557e-01 4.053755e-01 6.441401e-01
    outer loop
      vertex   7.065244e+00 4.289656e+00 7.543905e+00
      vertex   7.165308e+00 4.206362e+00 7.495558e+00
      vertex   7.100048e+00 4.310787e+00 7.495558e+00
    endloop
  endfacet
  facet normal 6.516975e-01 4.072765e-01 6.398564e-01
    outer loop
      vertex   7.100048e+00 4.310787e+00 7.495558e+00
      vertex   7.165308e+00 4.206362e+00 7.495558e+00
      vertex   7.200199e+00 4.226845e+00 7.446984e+00
    endloop
  endfacet
  facet normal 6.573657e-01 4.247920e-01 6.224324e-01
    outer loop
      vertex   7.201996e+00 4.520446e+00 7.250464e+00
      vertex   7.168679e+00 4.499534e+00 7.299923e+00
      vertex   7.270574e+00 4.414321e+00 7.250464e+00
    endloop
  endfacet
  facet normal 6.573657e-01 4.247920e-01 6.224324e-01
    outer loop
      vertex   7.270574e+00 4.414321e+00 7.250464e+00
      vertex   7.168679e+00 4.499534e+00 7.299923e+00
      vertex   7.236940e+00 4.393901e+00 7.299923e+00
    endloop
  endfacet
  facet normal 6.544423e-01 4.229028e-01 6.267843e-01
    outer loop
      vertex   7.168679e+00 4.499534e+00 7.299923e+00
      vertex   7.135127e+00 4.478475e+00 7.349164e+00
      vertex   7.236940e+00 4.393901e+00 7.299923e+00
    endloop
  endfacet
  facet normal 6.455387e-01 4.171493e-01 6.397392e-01
    outer loop
      vertex   7.033079e+00 4.414423e+00 7.495558e+00
      vertex   7.134622e+00 4.331778e+00 7.446984e+00
      vertex   7.067326e+00 4.435918e+00 7.446984e+00
    endloop
  endfacet
  facet normal 6.485287e-01 4.190815e-01 6.354379e-01
    outer loop
      vertex   7.067326e+00 4.435918e+00 7.446984e+00
      vertex   7.134622e+00 4.331778e+00 7.446984e+00
      vertex   7.168962e+00 4.352628e+00 7.398185e+00
    endloop
  endfacet
  facet normal 6.471825e-01 4.465991e-01 6.178221e-01
    outer loop
      vertex   7.092074e+00 4.751837e+00 7.200791e+00
      vertex   7.059647e+00 4.730110e+00 7.250464e+00
      vertex   7.164439e+00 4.646970e+00 7.200791e+00
    endloop
  endfacet
  facet normal 6.471825e-01 4.465991e-01 6.178221e-01
    outer loop
      vertex   7.164439e+00 4.646970e+00 7.200791e+00
      vertex   7.059647e+00 4.730110e+00 7.250464e+00
      vertex   7.131681e+00 4.625723e+00 7.250464e+00
    endloop
  endfacet
  facet normal 6.443411e-01 4.446384e-01 6.221907e-01
    outer loop
      vertex   7.059647e+00 4.730110e+00 7.250464e+00
      vertex   7.026988e+00 4.708229e+00 7.299923e+00
      vertex   7.131681e+00 4.625723e+00 7.250464e+00
    endloop
  endfacet
  facet normal 6.443411e-01 4.446384e-01 6.221907e-01
    outer loop
      vertex   7.131681e+00 4.625723e+00 7.250464e+00
      vertex   7.026988e+00 4.708229e+00 7.299923e+00
      vertex   7.098690e+00 4.604324e+00 7.299923e+00
    endloop
  endfacet
  facet normal 6.414964e-01 4.426753e-01 6.265148e-01
    outer loop
      vertex   7.026988e+00 4.708229e+00 7.299923e+00
      vertex   7.000000e+00 4.636460e+00 7.378266e+00
      vertex   7.098690e+00 4.604324e+00 7.299923e+00
    endloop
  endfacet
  facet normal 0.000000e+00 1.000000e+00 0.000000e+00
    outer loop
      vertex   7.000000e+00 5.000000e+00 7.108900e+00
      vertex   7.102377e+00 5.000000e+00 7.000000e+00
      vertex   7.000000e+00 5.000000e+00 7.000000e+00
    endloop
  endfacet
  facet normal -0.000000e+00 -0.000000e+00 -1.000000e+00
    outer loop
      vertex   7.102377e+00 5.000000e+00 7.000000e+00
      vertex   7.146084e+00 4.940146e+00 7.000000e+00
      vertex   7.000000e+00 5.000000e+00 7.000000e+00
    endloop
  endfacet
  facet normal 0.000000e+00 0.000000e+00 -1.000000e+00
    outer loop
      vertex   7.000000e+00 5.000000e+00 7.000000e+00
      vertex   7.146084e+00 4.940146e+00 7.000000e+00
      vertex   7.189266e+00 4.879923e+00 7.000000e+00
    endloop
  endfacet
  facet normal 0.000000e+00 0.000000e+00 -1.000000e+00
    outer loop
      vertex   7.000000e+00 5.000000e+00 7.000000e+00
      vertex   7.189266e+00 4.879923e+00 7.000000e+00
      vertex   7.000000e+00 4.000000e+00 7.000000e+00
    endloop
  endfacet
  facet normal 0.000000e+00 0.000000e+00 -1.000000e+00
    outer loop
      vertex   7.000000e+00 4.000000e+00 7.000000e+00
      vertex   7.189266e+00 4.879923e+00 7.000000e+00
      vertex   7.231919e+00 4.819336e+00 7.000000e+00
    endloop
  endfacet
  facet normal -2.991793e-14 8.468475e-15 -1.000000e+00
    outer loop
      vertex   7.000000e+00 4.000000e+00 7.000000e+00
      vertex   7.231919e+00 4.819336e+00 7.000000e+00
      vertex   7.274041e+00 4.758387e+00 7.000000e+00
    endloop
  endfacet
  facet normal 2.561503e-14 -1.159820e-14 -1.000000e+00
    outer loop
      vertex   7.274041e+00 4.758387e+00 7.000000e+00
      vertex   7.315630e+00 4.697080e+00 7.000000e+00
      vertex   7.000000e+00 4.000000e+00 7.000000e+00
    endloop
  endfacet
  facet normal 0.000000e+00 0.000000e+00 -1.000000e+00
    outer loop
      vertex   7.000000e+00 4.000000e+00 7.000000e+00
      vertex   7.315630e+00 4.697080e+00 7.000000e+00
      vertex   7.356683e+00 4.635418e+00 7.000000e+00
    endloop
  endfacet
  facet normal 0.000000e+00 0.000000e+00 -1.000000e+00
    outer loop
      vertex   7.000000e+00 4.000000e+00 7.000000e+00
      vertex   7.356683e+00 4.635418e+00 7.000000e+00
      vertex   7.397198e+00 4.573405e+00 7.000000e+00
    endloop
  endfacet
  facet normal 0.000000e+00 -0.000000e+00 -1.000000e+00
    outer loop
      vertex   7.397198e+00 4.573405e+00 7.000000e+00
      vertex   7.437173e+00 4.511043e+00 7.000000e+00
      vertex   7.000000e+00 4.000000e+00 7.000000e+00
    endloop
  endfacet
  facet normal 0.000000e+00 0.000000e+00 -1.000000e+00
    outer loop
      vertex   7.000000e+00 4.000000e+00 7.000000e+00
      vertex   7.437173e+00 4.511043e+00 7.000000e+00
      vertex   7.476604e+00 4.448336e+00 7.000000e+00
    endloop
  endfacet
  facet normal 0.000000e+00 0.000000e+00 -1.000000e+00
    outer loop
      vertex   7.000000e+00 4.000000e+00 7.000000e+00
      vertex   7.476604e+00 4.448336e+00 7.000000e+00
      vertex   7.515489e+00 4.385287e+00 7.000000e+00
    endloop
  endfacet
  facet normal 0.000000e+00 -0.000000e+00 -1.000000e+00
    outer loop
      vertex   7.515489e+00 4.385287e+00 7.000000e+00
      vertex   7.553826e+00 4.321899e+00 7.000000e+00
      vertex   7.000000e+00 4.000000e+00 7.000000e+00
    endloop
  endfacet
  facet normal -1.204958e-14 2.073124e-14 -1.000000e+00
    outer loop
      vertex   7.000000e+00 4.000000e+00 7.000000e+00
      vertex   7.553826e+00 4.321899e+00 7.000000e+00
      vertex   7.591612e+00 4.258177e+00 7.000000e+00
    endloop
  endfacet
  facet normal 7.258342e-15 -2.351290e-14 -1.000000e+00
    outer loop
      vertex   7.000000e+00 4.000000e+00 7.000000e+00
      vertex   7.591612e+00 4.258177e+00 7.000000e+00
      vertex   7.628845e+00 4.194122e+00 7.000000e+00
    endloop
  endfacet
  facet normal 0.000000e+00 -0.000000e+00 -1.000000e+00
    outer loop
      vertex   7.628845e+00 4.194122e+00 7.000000e+00
      vertex   7.665523e+00 4.129739e+00 7.000000e+00
      vertex   7.000000e+00 4.000000e+00 7.000000e+00
    endloop
  endfacet
  facet normal 0.000000e+00 0.000000e+00 -1.000000e+00
    outer loop
      vertex   7.000000e+00 4.000000e+00 7.000000e+00
      vertex   7.665523e+00 4.129739e+00 7.000000e+00
      vertex   7.701642e+00 4.065031e+00 7.000000e+00
    endloop
  endfacet
  facet normal 0.000000e+00 0.000000e+00 -1.000000e+00
    outer loop
      vertex   7.000000e+00 4.000000e+00 7.000000e+00
      vertex   7.701642e+00 4.065031e+00 7.000000e+00
      vertex   7.737200e+00 4.000000e+00 7.000000e+00
    endloop
  endfacet
  facet normal 0.000000e+00 -1.000000e+00 0.000000e+00
    outer loop
      vertex   7.737200e+00 4.000000e+00 7.000000e+00
      vertex   7.649472e+00 4.000000e+00 7.101867e+00
      vertex   7.000000e+00 4.000000e+00 7.000000e+00
    endloop
  endfacet
  facet normal 0.000000e+00 -1.000000e+00 0.000000e+00
    outer loop
      vertex   7.000000e+00 4.000000e+00 7.000000e+00
      vertex   7.649472e+00 4.000000e+00 7.101867e+00
      vertex   7.560460e+00 4.000000e+00 7.202590e+00
    endloop
  endfacet
  facet normal 0.000000e+00 -1.000000e+00 0.000000e+00
    outer loop
      vertex   7.000000e+00 4.000000e+00 7.000000e+00
      vertex   7.560460e+00 4.000000e+00 7.202590e+00
      vertex   7.470175e+00 4.000000e+00 7.302155e+00
    endloop
  endfacet
  facet normal -0.000000e+00 -1.000000e+00 0.000000e+00
    outer loop
      vertex   7.470175e+00 4.000000e+00 7.302155e+00
      vertex   7.378626e+00 4.000000e+00 7.400549e+00
      vertex   7.000000e+00 4.000000e+00 7.000000e+00
    endloop
  endfacet
  facet normal 0.000000e+00 -1.000000e+00 0.000000e+00
    outer loop
      vertex   7.000000e+00 4.000000e+00 7.000000e+00
      vertex   7.378626e+00 4.000000e+00 7.400549e+00
      vertex   7.285825e+00 4.000000e+00 7.497759e+00
    endloop
  endfacet
  facet normal 0.000000e+00 -1.000000e+00 0.000000e+00
    outer loop
      vertex   7.000000e+00 4.000000e+00 7.000000e+00
      vertex   7.285825e+00 4.000000e+00 7.497759e+00
      vertex   7.191780e+00 4.000000e+00 7.593771e+00
    endloop
  endfacet
  facet normal -1.410956e-14 -1.000000e+00 4.557195e-15
    outer loop
      vertex   7.191780e+00 4.000000e+00 7.593771e+00
      vertex   7.096502e+00 4.000000e+00 7.688571e+00
      vertex   7.000000e+00 4.000000e+00 7.000000e+00
    endloop
  endfacet
  facet normal 1.840754e-14 -1.000000e+00 0.000000e+00
    outer loop
      vertex   7.000000e+00 4.000000e+00 7.000000e+00
      vertex   7.096502e+00 4.000000e+00 7.688571e+00
      vertex   7.000000e+00 4.000000e+00 7.782146e+00
    endloop
  endfacet
  facet normal -1.000000e+00 0.000000e+00 0.000000e+00
    outer loop
      vertex   7.000000e+00 4.000000e+00 7.782146e+00
      vertex   7.000000e+00 4.065293e+00 7.744365e+00
      vertex   7.000000e+00 4.000000e+00 7.000000e+00
    endloop
  endfacet
  facet normal -1.000000e+00 0.000000e+00 0.000000e+00
    outer loop
      vertex   7.000000e+00 4.000000e+00 7.000000e+00
      vertex   7.000000e+00 4.065293e+00 7.744365e+00
      vertex   7.000000e+00 4.130229e+00 7.705996e+00
    endloop
  endfacet
  facet normal -1.000000e+00 0.000000e+00 0.000000e+00
    outer loop
      vertex   7.000000e+00 4.000000e+00 7.000000e+00
      vertex   7.000000e+00 4.130229e+00 7.705996e+00
      vertex   7.000000e+00 4.194804e+00 7.667043e+00
    endloop
  endfacet
  facet normal -1.000000e+00 0.000000e+00 -0.000000e+00
    outer loop
      vertex   7.000000e+00 4.194804e+00 7.667043e+00
      vertex   7.000000e+00 4.259015e+00 7.627508e+00
      vertex   7.000000e+00 4.000000e+00 7.000000e+00
    endloop
  endfacet
  facet normal -1.000000e+00 0.000000e+00 0.000000e+00
    outer loop
      vertex   7.000000e+00 4.000000e+00 7.000000e+00
      vertex   7.000000e+00 4.259015e+00 7.627508e+00
      vertex   7.000000e+00 4.322859e+00 7.587395e+00
    endloop
  endfacet
  facet normal -1.000000e+00 0.000000e+00 0.000000e+00
    outer loop
      vertex   7.000000e+00 4.000000e+00 7.000000e+00
      vertex   7.000000e+00 4.322859e+00 7.587395e+00
      vertex   7.000000e+00 4.386333e+00 7.546706e+00
    endloop
  endfacet
  facet normal -1.000000e+00 0.000000e+00 -0.000000e+00
    outer loop
      vertex   7.000000e+00 4.386333e+00 7.546706e+00
      vertex   7.000000e+00 4.449433e+00 7.505446e+00
      vertex   7.000000e+00 4.000000e+00 7.000000e+00
    endloop
  endfacet
  facet normal -1.000000e+00 0.000000e+00 0.000000e+00
    outer loop
      vertex   7.000000e+00 4.000000e+00 7.000000e+00
      vertex   7.000000e+00 4.449433e+00 7.505446e+00
      vertex   7.000000e+00 4.512156e+00 7.463617e+00
    endloop
  endfacet
  facet normal -1.000000e+00 0.000000e+00 0.000000e+00
    outer loop
      vertex   7.000000e+00 4.000000e+00 7.000000e+00
      vertex   7.000000e+00 4.512156e+00 7.463617e+00
      vertex   7.000000e+00 4.574500e+00 7.421223e+00
    endloop
  endfacet
  facet normal -1.000000e+00 0.000000e+00 -0.000000e+00
    outer loop
      vertex   7.000000e+00 4.574500e+00 7.421223e+00
      vertex   7.000000e+00 4.636460e+00 7.378266e+00
      vertex   7.000000e+00 4.000000e+00 7.000000e+00
    endloop
  endfacet
  facet normal -1.000000e+00 0.000000e+00 0.000000e+00
    outer loop
      vertex   7.000000e+00 4.000000e+00 7.000000e+00
      vertex   7.000000e+00 4.636460e+00 7.378266e+00
      vertex   7.000000e+00 4.698034e+00 7.334750e+00
    endloop
  endfacet
  facet normal -1.000000e+00 0.000000e+00 0.000000e+00
    outer loop
      vertex   7.000000e+00 4.000000e+00 7.000000e+00
      vertex   7.000000e+00 4.698034e+00 7.334750e+00
      vertex   7.000000e+00 4.759219e+00 7.290679e+00
    endloop
  endfacet
  facet normal -1.000000e+00 0.000000e+00 -0.000000e+00
    outer loop
      vertex   7.000000e+00 4.759219e+00 7.290679e+00
      vertex   7.000000e+00 4.820011e+00 7.246055e+00
      vertex   7.000000e+00 4.000000e+00 7.000000e+00
    endloop
  endfacet
  facet normal -1.000000e+00 0.000000e+00 0.000000e+00
    outer loop
      vertex   7.000000e+00 4.000000e+00 7.000000e+00
      vertex   7.000000e+00 4.820011e+00 7.246055e+00
      vertex   7.000000e+00 4.880407e+00 7.200882e+00
    endloop
  endfacet
  facet normal -1.000000e+00 0.000000e+00 0.000000e+00
    outer loop
      vertex   7.000000e+00 4.000000e+00 7.000000e+00
      vertex   7.000000e+00 4.880407e+00 7.200882e+00
      vertex   7.000000e+00 5.000000e+00 7.000000e+00
    endloop
  endfacet
  facet normal -1.000000e+00 8.128842e-14 4.839411e-14
    outer loop
      vertex   7.000000e+00 5.000000e+00 7.000000e+00
      vertex   7.000000e+00 4.880407e+00 7.200882e+00
      vertex   7.000000e+00 4.940405e+00 7.155162e+00
    endloop
  endfacet
  facet normal -1.000000e+00 -4.471058e-14 0.000000e+00
    outer loop
      vertex   7.000000e+00 5.000000e+00 7.000000e+00
      vertex   7.000000e+00 4.940405e+00 7.155162e+00
      vertex   7.000000e+00 5.000000e+00 7.108900e+00
    endloop
  endfacet
endsolid
