solid ASCII
  facet normal -2.690050e-01 5.746020e-01 -7.729611e-01
    outer loop
      vertex   -2.976641e+00 6.000000e+00 -9.000000e+00
      vertex   -2.917351e+00 6.027757e+00 -9.000000e+00
      vertex   -2.916600e+00 6.000000e+00 -9.020895e+00
    endloop
  endfacet
  facet normal -2.628942e-01 5.757220e-01 -7.742291e-01
    outer loop
      vertex   -2.916600e+00 6.000000e+00 -9.020895e+00
      vertex   -2.917351e+00 6.027757e+00 -9.000000e+00
      vertex   -2.857808e+00 6.054946e+00 -9.000000e+00
    endloop
  endfacet
  facet normal -2.632405e-01 5.759760e-01 -7.739226e-01
    outer loop
      vertex   -2.916600e+00 6.000000e+00 -9.020895e+00
      vertex   -2.857808e+00 6.054946e+00 -9.000000e+00
      vertex   -2.856411e+00 6.000000e+00 -9.041368e+00
    endloop
  endfacet
  facet normal -2.619565e-01 5.762071e-01 -7.741862e-01
    outer loop
      vertex   -2.856411e+00 6.000000e+00 -9.041368e+00
      vertex   -2.857808e+00 6.054946e+00 -9.000000e+00
      vertex   -2.837426e+00 6.015496e+00 -9.036258e+00
    endloop
  endfacet
  facet normal -2.584270e-01 5.730451e-01 -7.777113e-01
    outer loop
      vertex   -2.856411e+00 6.000000e+00 -9.041368e+00
      vertex   -2.837426e+00 6.015496e+00 -9.036258e+00
      vertex   -2.796078e+00 6.000000e+00 -9.061416e+00
    endloop
  endfacet
  facet normal -2.563089e-01 5.761308e-01 -7.761308e-01
    outer loop
      vertex   -2.796078e+00 6.000000e+00 -9.061416e+00
      vertex   -2.837426e+00 6.015496e+00 -9.036258e+00
      vertex   -2.777425e+00 6.042189e+00 -9.036258e+00
    endloop
  endfacet
  facet normal -2.535467e-01 5.756587e-01 -7.773874e-01
    outer loop
      vertex   -2.796078e+00 6.000000e+00 -9.061416e+00
      vertex   -2.777425e+00 6.042189e+00 -9.036258e+00
      vertex   -2.758838e+00 6.001754e+00 -9.072264e+00
    endloop
  endfacet
  facet normal -2.501833e-01 5.771744e-01 -7.773532e-01
    outer loop
      vertex   -2.758838e+00 6.001754e+00 -9.072264e+00
      vertex   -2.777425e+00 6.042189e+00 -9.036258e+00
      vertex   -2.699084e+00 6.027655e+00 -9.072264e+00
    endloop
  endfacet
  facet normal -2.501059e-01 5.769956e-01 -7.775108e-01
    outer loop
      vertex   -2.758838e+00 6.001754e+00 -9.072264e+00
      vertex   -2.699084e+00 6.027655e+00 -9.072264e+00
      vertex   -2.735602e+00 6.000000e+00 -9.081039e+00
    endloop
  endfacet
  facet normal -2.472009e-01 5.741265e-01 -7.805578e-01
    outer loop
      vertex   -2.735602e+00 6.000000e+00 -9.081039e+00
      vertex   -2.699084e+00 6.027655e+00 -9.072264e+00
      vertex   -2.674986e+00 6.000000e+00 -9.100236e+00
    endloop
  endfacet
  facet normal -2.434530e-01 5.766798e-01 -7.798532e-01
    outer loop
      vertex   -2.674986e+00 6.000000e+00 -9.100236e+00
      vertex   -2.699084e+00 6.027655e+00 -9.072264e+00
      vertex   -2.639185e+00 6.052942e+00 -9.072264e+00
    endloop
  endfacet
  facet normal -2.422121e-01 5.762230e-01 -7.805769e-01
    outer loop
      vertex   -2.674986e+00 6.000000e+00 -9.100236e+00
      vertex   -2.639185e+00 6.052942e+00 -9.072264e+00
      vertex   -2.621340e+00 6.012013e+00 -9.108014e+00
    endloop
  endfacet
  facet normal -2.376229e-01 5.781873e-01 -7.805350e-01
    outer loop
      vertex   -2.621340e+00 6.012013e+00 -9.108014e+00
      vertex   -2.639185e+00 6.052942e+00 -9.072264e+00
      vertex   -2.561712e+00 6.036519e+00 -9.108014e+00
    endloop
  endfacet
  facet normal -2.366894e-01 5.759158e-01 -7.824954e-01
    outer loop
      vertex   -2.621340e+00 6.012013e+00 -9.108014e+00
      vertex   -2.561712e+00 6.036519e+00 -9.108014e+00
      vertex   -2.614230e+00 6.000000e+00 -9.119007e+00
    endloop
  endfacet
  facet normal -2.359562e-01 5.751070e-01 -7.833113e-01
    outer loop
      vertex   -2.614230e+00 6.000000e+00 -9.119007e+00
      vertex   -2.561712e+00 6.036519e+00 -9.108014e+00
      vertex   -2.553338e+00 6.000000e+00 -9.137349e+00
    endloop
  endfacet
  facet normal -2.306154e-01 5.766802e-01 -7.837451e-01
    outer loop
      vertex   -2.553338e+00 6.000000e+00 -9.137349e+00
      vertex   -2.561712e+00 6.036519e+00 -9.108014e+00
      vertex   -2.484867e+00 6.019009e+00 -9.143509e+00
    endloop
  endfacet
  facet normal -2.303550e-01 5.754165e-01 -7.847499e-01
    outer loop
      vertex   -2.553338e+00 6.000000e+00 -9.137349e+00
      vertex   -2.484867e+00 6.019009e+00 -9.143509e+00
      vertex   -2.492311e+00 6.000000e+00 -9.155263e+00
    endloop
  endfacet
  facet normal -2.249555e-01 5.746264e-01 -7.868923e-01
    outer loop
      vertex   -2.492311e+00 6.000000e+00 -9.155263e+00
      vertex   -2.484867e+00 6.019009e+00 -9.143509e+00
      vertex   -2.431163e+00 6.000000e+00 -9.172744e+00
    endloop
  endfacet
  facet normal -2.240423e-01 5.760292e-01 -7.861269e-01
    outer loop
      vertex   -2.431163e+00 6.000000e+00 -9.172744e+00
      vertex   -2.484867e+00 6.019009e+00 -9.143509e+00
      vertex   -2.425408e+00 6.042135e+00 -9.143509e+00
    endloop
  endfacet
  facet normal -2.190860e-01 5.762225e-01 -7.873811e-01
    outer loop
      vertex   -2.431163e+00 6.000000e+00 -9.172744e+00
      vertex   -2.425408e+00 6.042135e+00 -9.143509e+00
      vertex   -2.369899e+00 6.000000e+00 -9.189790e+00
    endloop
  endfacet
  facet normal -2.184525e-01 5.767921e-01 -7.871400e-01
    outer loop
      vertex   -2.369899e+00 6.000000e+00 -9.189790e+00
      vertex   -2.425408e+00 6.042135e+00 -9.143509e+00
      vertex   -2.349513e+00 6.022790e+00 -9.178748e+00
    endloop
  endfacet
  facet normal -2.138808e-01 5.742194e-01 -7.902703e-01
    outer loop
      vertex   -2.369899e+00 6.000000e+00 -9.189790e+00
      vertex   -2.349513e+00 6.022790e+00 -9.178748e+00
      vertex   -2.308520e+00 6.000000e+00 -9.206402e+00
    endloop
  endfacet
  facet normal -2.117923e-01 5.765757e-01 -7.891163e-01
    outer loop
      vertex   -2.308520e+00 6.000000e+00 -9.206402e+00
      vertex   -2.349513e+00 6.022790e+00 -9.178748e+00
      vertex   -2.290265e+00 6.044554e+00 -9.178748e+00
    endloop
  endfacet
  facet normal -2.093721e-01 5.761689e-01 -7.900587e-01
    outer loop
      vertex   -2.308520e+00 6.000000e+00 -9.206402e+00
      vertex   -2.290265e+00 6.044554e+00 -9.178748e+00
      vertex   -2.274290e+00 6.002393e+00 -9.213728e+00
    endloop
  endfacet
  facet normal -2.059557e-01 5.774391e-01 -7.900293e-01
    outer loop
      vertex   -2.274290e+00 6.002393e+00 -9.213728e+00
      vertex   -2.290265e+00 6.044554e+00 -9.178748e+00
      vertex   -2.215370e+00 6.023408e+00 -9.213728e+00
    endloop
  endfacet
  facet normal -2.058724e-01 5.772055e-01 -7.902217e-01
    outer loop
      vertex   -2.274290e+00 6.002393e+00 -9.213728e+00
      vertex   -2.215370e+00 6.023408e+00 -9.213728e+00
      vertex   -2.247031e+00 6.000000e+00 -9.222578e+00
    endloop
  endfacet
  facet normal -2.027026e-01 5.740849e-01 -7.933084e-01
    outer loop
      vertex   -2.247031e+00 6.000000e+00 -9.222578e+00
      vertex   -2.215370e+00 6.023408e+00 -9.213728e+00
      vertex   -2.185432e+00 6.000000e+00 -9.238317e+00
    endloop
  endfacet
  facet normal -1.996296e-01 5.767796e-01 -7.921322e-01
    outer loop
      vertex   -2.185432e+00 6.000000e+00 -9.238317e+00
      vertex   -2.215370e+00 6.023408e+00 -9.213728e+00
      vertex   -2.156373e+00 6.043827e+00 -9.213728e+00
    endloop
  endfacet
  facet normal -1.976205e-01 5.760341e-01 -7.931777e-01
    outer loop
      vertex   -2.185432e+00 6.000000e+00 -9.238317e+00
      vertex   -2.156373e+00 6.043827e+00 -9.213728e+00
      vertex   -2.141175e+00 6.001231e+00 -9.248450e+00
    endloop
  endfacet
  facet normal -1.937927e-01 5.773750e-01 -7.931472e-01
    outer loop
      vertex   -2.141175e+00 6.001231e+00 -9.248450e+00
      vertex   -2.156373e+00 6.043827e+00 -9.213728e+00
      vertex   -2.082527e+00 6.020916e+00 -9.248450e+00
    endloop
  endfacet
  facet normal -1.940371e-01 5.781029e-01 -7.925570e-01
    outer loop
      vertex   -2.141175e+00 6.001231e+00 -9.248450e+00
      vertex   -2.082527e+00 6.020916e+00 -9.248450e+00
      vertex   -2.123725e+00 6.000000e+00 -9.253620e+00
    endloop
  endfacet
  facet normal -1.914749e-01 5.739535e-01 -7.961876e-01
    outer loop
      vertex   -2.123725e+00 6.000000e+00 -9.253620e+00
      vertex   -2.082527e+00 6.020916e+00 -9.248450e+00
      vertex   -2.061914e+00 6.000000e+00 -9.268485e+00
    endloop
  endfacet
  facet normal -1.875946e-01 5.767358e-01 -7.951000e-01
    outer loop
      vertex   -2.061914e+00 6.000000e+00 -9.268485e+00
      vertex   -2.082527e+00 6.020916e+00 -9.248450e+00
      vertex   -2.023820e+00 6.040011e+00 -9.248450e+00
    endloop
  endfacet
  facet normal -1.855856e-01 5.755051e-01 -7.964621e-01
    outer loop
      vertex   -2.061914e+00 6.000000e+00 -9.268485e+00
      vertex   -2.023820e+00 6.040011e+00 -9.248450e+00
      vertex   -2.000000e+00 6.000000e+00 -9.282912e+00
    endloop
  endfacet
  facet normal -1.775744e-01 5.794091e-01 -7.954574e-01
    outer loop
      vertex   -2.000000e+00 6.000000e+00 -9.282912e+00
      vertex   -2.023820e+00 6.040011e+00 -9.248450e+00
      vertex   -2.000000e+00 6.094971e+00 -9.213735e+00
    endloop
  endfacet
  facet normal -1.839579e-01 5.806745e-01 -7.930805e-01
    outer loop
      vertex   -2.000000e+00 6.094971e+00 -9.213735e+00
      vertex   -2.023820e+00 6.040011e+00 -9.248450e+00
      vertex   -2.038185e+00 6.082883e+00 -9.213728e+00
    endloop
  endfacet
  facet normal -1.852075e-01 5.846237e-01 -7.898819e-01
    outer loop
      vertex   -2.000000e+00 6.094971e+00 -9.213735e+00
      vertex   -2.038185e+00 6.082883e+00 -9.213728e+00
      vertex   -2.052502e+00 6.125609e+00 -9.178748e+00
    endloop
  endfacet
  facet normal -1.896804e-01 5.831486e-01 -7.899108e-01
    outer loop
      vertex   -2.052502e+00 6.125609e+00 -9.178748e+00
      vertex   -2.038185e+00 6.082883e+00 -9.213728e+00
      vertex   -2.112040e+00 6.106243e+00 -9.178748e+00
    endloop
  endfacet
  facet normal -1.909563e-01 5.870712e-01 -7.866912e-01
    outer loop
      vertex   -2.052502e+00 6.125609e+00 -9.178748e+00
      vertex   -2.112040e+00 6.106243e+00 -9.178748e+00
      vertex   -2.126721e+00 6.148689e+00 -9.143509e+00
    endloop
  endfacet
  facet normal -1.964234e-01 5.852125e-01 -7.867300e-01
    outer loop
      vertex   -2.126721e+00 6.148689e+00 -9.143509e+00
      vertex   -2.112040e+00 6.106243e+00 -9.178748e+00
      vertex   -2.186614e+00 6.128586e+00 -9.143509e+00
    endloop
  endfacet
  facet normal -1.977304e-01 5.891065e-01 -7.834898e-01
    outer loop
      vertex   -2.126721e+00 6.148689e+00 -9.143509e+00
      vertex   -2.186614e+00 6.128586e+00 -9.143509e+00
      vertex   -2.201655e+00 6.170744e+00 -9.108014e+00
    endloop
  endfacet
  facet normal -2.032289e-01 5.871786e-01 -7.835300e-01
    outer loop
      vertex   -2.201655e+00 6.170744e+00 -9.108014e+00
      vertex   -2.186614e+00 6.128586e+00 -9.143509e+00
      vertex   -2.261891e+00 6.149896e+00 -9.108014e+00
    endloop
  endfacet
  facet normal -2.045666e-01 5.910436e-01 -7.802692e-01
    outer loop
      vertex   -2.201655e+00 6.170744e+00 -9.108014e+00
      vertex   -2.261891e+00 6.149896e+00 -9.108014e+00
      vertex   -2.277290e+00 6.191763e+00 -9.072264e+00
    endloop
  endfacet
  facet normal -2.100955e-01 5.890457e-01 -7.803109e-01
    outer loop
      vertex   -2.277290e+00 6.191763e+00 -9.072264e+00
      vertex   -2.261891e+00 6.149896e+00 -9.108014e+00
      vertex   -2.337857e+00 6.170161e+00 -9.072264e+00
    endloop
  endfacet
  facet normal -2.114635e-01 5.928813e-01 -7.770296e-01
    outer loop
      vertex   -2.277290e+00 6.191763e+00 -9.072264e+00
      vertex   -2.337857e+00 6.170161e+00 -9.072264e+00
      vertex   -2.353608e+00 6.211731e+00 -9.036258e+00
    endloop
  endfacet
  facet normal -2.170219e-01 5.908126e-01 -7.770727e-01
    outer loop
      vertex   -2.353608e+00 6.211731e+00 -9.036258e+00
      vertex   -2.337857e+00 6.170161e+00 -9.072264e+00
      vertex   -2.414494e+00 6.189366e+00 -9.036258e+00
    endloop
  endfacet
  facet normal -2.183704e-01 5.944837e-01 -7.738885e-01
    outer loop
      vertex   -2.353608e+00 6.211731e+00 -9.036258e+00
      vertex   -2.414494e+00 6.189366e+00 -9.036258e+00
      vertex   -2.372851e+00 6.251863e+00 -9.000000e+00
    endloop
  endfacet
  facet normal -2.188006e-01 5.946332e-01 -7.736521e-01
    outer loop
      vertex   -2.372851e+00 6.251863e+00 -9.000000e+00
      vertex   -2.414494e+00 6.189366e+00 -9.036258e+00
      vertex   -2.434268e+00 6.229264e+00 -9.000000e+00
    endloop
  endfacet
  facet normal -2.239538e-01 5.923388e-01 -7.739376e-01
    outer loop
      vertex   -2.434268e+00 6.229264e+00 -9.000000e+00
      vertex   -2.414494e+00 6.189366e+00 -9.036258e+00
      vertex   -2.475283e+00 6.166383e+00 -9.036258e+00
    endloop
  endfacet
  facet normal -2.243947e-01 5.924872e-01 -7.736963e-01
    outer loop
      vertex   -2.434268e+00 6.229264e+00 -9.000000e+00
      vertex   -2.475283e+00 6.166383e+00 -9.036258e+00
      vertex   -2.495465e+00 6.206087e+00 -9.000000e+00
    endloop
  endfacet
  facet normal -2.295304e-01 5.901394e-01 -7.739840e-01
    outer loop
      vertex   -2.495465e+00 6.206087e+00 -9.000000e+00
      vertex   -2.475283e+00 6.166383e+00 -9.036258e+00
      vertex   -2.535964e+00 6.142781e+00 -9.036258e+00
    endloop
  endfacet
  facet normal -2.299679e-01 5.902824e-01 -7.737451e-01
    outer loop
      vertex   -2.495465e+00 6.206087e+00 -9.000000e+00
      vertex   -2.535964e+00 6.142781e+00 -9.036258e+00
      vertex   -2.556439e+00 6.182332e+00 -9.000000e+00
    endloop
  endfacet
  facet normal -2.350993e-01 5.878853e-01 -7.740279e-01
    outer loop
      vertex   -2.556439e+00 6.182332e+00 -9.000000e+00
      vertex   -2.535964e+00 6.142781e+00 -9.036258e+00
      vertex   -2.596528e+00 6.118561e+00 -9.036258e+00
    endloop
  endfacet
  facet normal -2.355199e-01 5.880192e-01 -7.737983e-01
    outer loop
      vertex   -2.556439e+00 6.182332e+00 -9.000000e+00
      vertex   -2.596528e+00 6.118561e+00 -9.036258e+00
      vertex   -2.617185e+00 6.158001e+00 -9.000000e+00
    endloop
  endfacet
  facet normal -2.406597e-01 5.855764e-01 -7.740692e-01
    outer loop
      vertex   -2.617185e+00 6.158001e+00 -9.000000e+00
      vertex   -2.596528e+00 6.118561e+00 -9.036258e+00
      vertex   -2.656966e+00 6.093722e+00 -9.036258e+00
    endloop
  endfacet
  facet normal -2.410503e-01 5.856978e-01 -7.738559e-01
    outer loop
      vertex   -2.617185e+00 6.158001e+00 -9.000000e+00
      vertex   -2.656966e+00 6.093722e+00 -9.036258e+00
      vertex   -2.677700e+00 6.133096e+00 -9.000000e+00
    endloop
  endfacet
  facet normal -2.462109e-01 5.832126e-01 -7.741081e-01
    outer loop
      vertex   -2.677700e+00 6.133096e+00 -9.000000e+00
      vertex   -2.656966e+00 6.093722e+00 -9.036258e+00
      vertex   -2.717268e+00 6.068265e+00 -9.036258e+00
    endloop
  endfacet
  facet normal -2.465584e-01 5.833182e-01 -7.739178e-01
    outer loop
      vertex   -2.677700e+00 6.133096e+00 -9.000000e+00
      vertex   -2.717268e+00 6.068265e+00 -9.036258e+00
      vertex   -2.737978e+00 6.107617e+00 -9.000000e+00
    endloop
  endfacet
  facet normal -2.517522e-01 5.807937e-01 -7.741443e-01
    outer loop
      vertex   -2.737978e+00 6.107617e+00 -9.000000e+00
      vertex   -2.717268e+00 6.068265e+00 -9.036258e+00
      vertex   -2.777425e+00 6.042189e+00 -9.036258e+00
    endloop
  endfacet
  facet normal -2.520439e-01 5.808808e-01 -7.739841e-01
    outer loop
      vertex   -2.737978e+00 6.107617e+00 -9.000000e+00
      vertex   -2.777425e+00 6.042189e+00 -9.036258e+00
      vertex   -2.798015e+00 6.081567e+00 -9.000000e+00
    endloop
  endfacet
  facet normal -2.572828e-01 5.783199e-01 -7.741780e-01
    outer loop
      vertex   -2.798015e+00 6.081567e+00 -9.000000e+00
      vertex   -2.777425e+00 6.042189e+00 -9.036258e+00
      vertex   -2.837426e+00 6.015496e+00 -9.036258e+00
    endloop
  endfacet
  facet normal -2.575061e-01 5.783855e-01 -7.740548e-01
    outer loop
      vertex   -2.798015e+00 6.081567e+00 -9.000000e+00
      vertex   -2.837426e+00 6.015496e+00 -9.036258e+00
      vertex   -2.857808e+00 6.054946e+00 -9.000000e+00
    endloop
  endfacet
  facet normal -2.131863e-01 5.967203e-01 -7.736126e-01
    outer loop
      vertex   -2.372851e+00 6.251863e+00 -9.000000e+00
      vertex   -2.311221e+00 6.273881e+00 -9.000000e+00
      vertex   -2.353608e+00 6.211731e+00 -9.036258e+00
    endloop
  endfacet
  facet normal -2.127808e-01 5.965745e-01 -7.738367e-01
    outer loop
      vertex   -2.353608e+00 6.211731e+00 -9.036258e+00
      vertex   -2.311221e+00 6.273881e+00 -9.000000e+00
      vertex   -2.292632e+00 6.233479e+00 -9.036258e+00
    endloop
  endfacet
  facet normal -2.114635e-01 5.928813e-01 -7.770296e-01
    outer loop
      vertex   -2.353608e+00 6.211731e+00 -9.036258e+00
      vertex   -2.292632e+00 6.233479e+00 -9.036258e+00
      vertex   -2.277290e+00 6.191763e+00 -9.072264e+00
    endloop
  endfacet
  facet normal -2.058985e-01 5.948918e-01 -7.769875e-01
    outer loop
      vertex   -2.277290e+00 6.191763e+00 -9.072264e+00
      vertex   -2.292632e+00 6.233479e+00 -9.036258e+00
      vertex   -2.216644e+00 6.212753e+00 -9.072264e+00
    endloop
  endfacet
  facet normal -2.045666e-01 5.910436e-01 -7.802692e-01
    outer loop
      vertex   -2.277290e+00 6.191763e+00 -9.072264e+00
      vertex   -2.216644e+00 6.212753e+00 -9.072264e+00
      vertex   -2.201655e+00 6.170744e+00 -9.108014e+00
    endloop
  endfacet
  facet normal -1.990318e-01 5.929838e-01 -7.802285e-01
    outer loop
      vertex   -2.201655e+00 6.170744e+00 -9.108014e+00
      vertex   -2.216644e+00 6.212753e+00 -9.072264e+00
      vertex   -2.141351e+00 6.190985e+00 -9.108014e+00
    endloop
  endfacet
  facet normal -1.977304e-01 5.891065e-01 -7.834898e-01
    outer loop
      vertex   -2.201655e+00 6.170744e+00 -9.108014e+00
      vertex   -2.141351e+00 6.190985e+00 -9.108014e+00
      vertex   -2.126721e+00 6.148689e+00 -9.143509e+00
    endloop
  endfacet
  facet normal -1.922268e-01 5.909772e-01 -7.834506e-01
    outer loop
      vertex   -2.126721e+00 6.148689e+00 -9.143509e+00
      vertex   -2.141351e+00 6.190985e+00 -9.108014e+00
      vertex   -2.066769e+00 6.168189e+00 -9.143509e+00
    endloop
  endfacet
  facet normal -1.909563e-01 5.870712e-01 -7.866912e-01
    outer loop
      vertex   -2.126721e+00 6.148689e+00 -9.143509e+00
      vertex   -2.066769e+00 6.168189e+00 -9.143509e+00
      vertex   -2.052502e+00 6.125609e+00 -9.178748e+00
    endloop
  endfacet
  facet normal -1.854851e-01 5.888732e-01 -7.866534e-01
    outer loop
      vertex   -2.052502e+00 6.125609e+00 -9.178748e+00
      vertex   -2.066769e+00 6.168189e+00 -9.143509e+00
      vertex   -2.006766e+00 6.187089e+00 -9.143509e+00
    endloop
  endfacet
  facet normal -1.824504e-01 5.875769e-01 -7.883306e-01
    outer loop
      vertex   -2.052502e+00 6.125609e+00 -9.178748e+00
      vertex   -2.006766e+00 6.187089e+00 -9.143509e+00
      vertex   -2.000000e+00 6.094971e+00 -9.213735e+00
    endloop
  endfacet
  facet normal -1.817802e-01 5.876836e-01 -7.884060e-01
    outer loop
      vertex   -2.000000e+00 6.094971e+00 -9.213735e+00
      vertex   -2.006766e+00 6.187089e+00 -9.143509e+00
      vertex   -2.000000e+00 6.189169e+00 -9.143519e+00
    endloop
  endfacet
  facet normal -1.836457e-01 5.937731e-01 -7.833950e-01
    outer loop
      vertex   -2.000000e+00 6.189169e+00 -9.143519e+00
      vertex   -2.006766e+00 6.187089e+00 -9.143509e+00
      vertex   -2.020571e+00 6.229650e+00 -9.108014e+00
    endloop
  endfacet
  facet normal -1.762107e-01 5.969387e-01 -7.826966e-01
    outer loop
      vertex   -2.000000e+00 6.189169e+00 -9.143519e+00
      vertex   -2.020571e+00 6.229650e+00 -9.108014e+00
      vertex   -2.000000e+00 6.282588e+00 -9.072271e+00
    endloop
  endfacet
  facet normal -1.836088e-01 5.980761e-01 -7.801236e-01
    outer loop
      vertex   -2.000000e+00 6.282588e+00 -9.072271e+00
      vertex   -2.020571e+00 6.229650e+00 -9.108014e+00
      vertex   -2.034326e+00 6.272060e+00 -9.072264e+00
    endloop
  endfacet
  facet normal -1.848021e-01 6.019691e-01 -7.768406e-01
    outer loop
      vertex   -2.000000e+00 6.282588e+00 -9.072271e+00
      vertex   -2.034326e+00 6.272060e+00 -9.072264e+00
      vertex   -2.048032e+00 6.314317e+00 -9.036258e+00
    endloop
  endfacet
  facet normal -1.891711e-01 6.005753e-01 -7.768679e-01
    outer loop
      vertex   -2.048032e+00 6.314317e+00 -9.036258e+00
      vertex   -2.034326e+00 6.272060e+00 -9.072264e+00
      vertex   -2.109269e+00 6.295028e+00 -9.036258e+00
    endloop
  endfacet
  facet normal -1.903772e-01 6.044045e-01 -7.735966e-01
    outer loop
      vertex   -2.048032e+00 6.314317e+00 -9.036258e+00
      vertex   -2.109269e+00 6.295028e+00 -9.036258e+00
      vertex   -2.062639e+00 6.356124e+00 -9.000000e+00
    endloop
  endfacet
  facet normal -1.905339e-01 6.044706e-01 -7.735064e-01
    outer loop
      vertex   -2.062639e+00 6.356124e+00 -9.000000e+00
      vertex   -2.109269e+00 6.295028e+00 -9.036258e+00
      vertex   -2.125084e+00 6.336441e+00 -9.000000e+00
    endloop
  endfacet
  facet normal -1.959833e-01 6.025258e-01 -7.736622e-01
    outer loop
      vertex   -2.125084e+00 6.336441e+00 -9.000000e+00
      vertex   -2.109269e+00 6.295028e+00 -9.036258e+00
      vertex   -2.170454e+00 6.275127e+00 -9.036258e+00
    endloop
  endfacet
  facet normal -1.962254e-01 6.026237e-01 -7.735246e-01
    outer loop
      vertex   -2.125084e+00 6.336441e+00 -9.000000e+00
      vertex   -2.170454e+00 6.275127e+00 -9.036258e+00
      vertex   -2.187333e+00 6.316172e+00 -9.000000e+00
    endloop
  endfacet
  facet normal -2.015864e-01 6.005950e-01 -7.737238e-01
    outer loop
      vertex   -2.187333e+00 6.316172e+00 -9.000000e+00
      vertex   -2.170454e+00 6.275127e+00 -9.036258e+00
      vertex   -2.231578e+00 6.254611e+00 -9.036258e+00
    endloop
  endfacet
  facet normal -2.018983e-01 6.007160e-01 -7.735486e-01
    outer loop
      vertex   -2.187333e+00 6.316172e+00 -9.000000e+00
      vertex   -2.231578e+00 6.254611e+00 -9.036258e+00
      vertex   -2.249380e+00 6.295318e+00 -9.000000e+00
    endloop
  endfacet
  facet normal -2.071859e-01 5.986114e-01 -7.737819e-01
    outer loop
      vertex   -2.249380e+00 6.295318e+00 -9.000000e+00
      vertex   -2.231578e+00 6.254611e+00 -9.036258e+00
      vertex   -2.292632e+00 6.233479e+00 -9.036258e+00
    endloop
  endfacet
  facet normal -2.075520e-01 5.987480e-01 -7.735780e-01
    outer loop
      vertex   -2.249380e+00 6.295318e+00 -9.000000e+00
      vertex   -2.292632e+00 6.233479e+00 -9.036258e+00
      vertex   -2.311221e+00 6.273881e+00 -9.000000e+00
    endloop
  endfacet
  facet normal -1.848240e-01 6.062561e-01 -7.734944e-01
    outer loop
      vertex   -2.062639e+00 6.356124e+00 -9.000000e+00
      vertex   -2.000000e+00 6.375221e+00 -9.000000e+00
      vertex   -2.048032e+00 6.314317e+00 -9.036258e+00
    endloop
  endfacet
  facet normal -1.817216e-01 6.048849e-01 -7.753009e-01
    outer loop
      vertex   -2.048032e+00 6.314317e+00 -9.036258e+00
      vertex   -2.000000e+00 6.375221e+00 -9.000000e+00
      vertex   -2.000000e+00 6.282588e+00 -9.072271e+00
    endloop
  endfacet
  facet normal -2.004836e-01 5.533922e-01 -8.084327e-01
    outer loop
      vertex   -2.123725e+00 6.000000e+00 -9.253620e+00
      vertex   -2.185432e+00 6.000000e+00 -9.238317e+00
      vertex   -2.141175e+00 6.001231e+00 -9.248450e+00
    endloop
  endfacet
  facet normal -2.105346e-01 5.614062e-01 -8.003114e-01
    outer loop
      vertex   -2.247031e+00 6.000000e+00 -9.222578e+00
      vertex   -2.308520e+00 6.000000e+00 -9.206402e+00
      vertex   -2.274290e+00 6.002393e+00 -9.213728e+00
    endloop
  endfacet
  facet normal -2.418740e-01 5.732128e-01 -7.828947e-01
    outer loop
      vertex   -2.614230e+00 6.000000e+00 -9.119007e+00
      vertex   -2.674986e+00 6.000000e+00 -9.100236e+00
      vertex   -2.621340e+00 6.012013e+00 -9.108014e+00
    endloop
  endfacet
  facet normal -2.563424e-01 5.569268e-01 -7.900134e-01
    outer loop
      vertex   -2.735602e+00 6.000000e+00 -9.081039e+00
      vertex   -2.796078e+00 6.000000e+00 -9.061416e+00
      vertex   -2.758838e+00 6.001754e+00 -9.072264e+00
    endloop
  endfacet
  facet normal -2.446831e-01 5.795936e-01 -7.773040e-01
    outer loop
      vertex   -2.639185e+00 6.052942e+00 -9.072264e+00
      vertex   -2.699084e+00 6.027655e+00 -9.072264e+00
      vertex   -2.717268e+00 6.068265e+00 -9.036258e+00
    endloop
  endfacet
  facet normal -2.501833e-01 5.771744e-01 -7.773532e-01
    outer loop
      vertex   -2.717268e+00 6.068265e+00 -9.036258e+00
      vertex   -2.699084e+00 6.027655e+00 -9.072264e+00
      vertex   -2.777425e+00 6.042189e+00 -9.036258e+00
    endloop
  endfacet
  facet normal -2.446831e-01 5.795936e-01 -7.773040e-01
    outer loop
      vertex   -2.717268e+00 6.068265e+00 -9.036258e+00
      vertex   -2.656966e+00 6.093722e+00 -9.036258e+00
      vertex   -2.639185e+00 6.052942e+00 -9.072264e+00
    endloop
  endfacet
  facet normal -2.391711e-01 5.819543e-01 -7.772557e-01
    outer loop
      vertex   -2.639185e+00 6.052942e+00 -9.072264e+00
      vertex   -2.656966e+00 6.093722e+00 -9.036258e+00
      vertex   -2.579152e+00 6.077614e+00 -9.072264e+00
    endloop
  endfacet
  facet normal -2.376229e-01 5.781873e-01 -7.805350e-01
    outer loop
      vertex   -2.639185e+00 6.052942e+00 -9.072264e+00
      vertex   -2.579152e+00 6.077614e+00 -9.072264e+00
      vertex   -2.561712e+00 6.036519e+00 -9.108014e+00
    endloop
  endfacet
  facet normal -2.321358e-01 5.804750e-01 -7.804881e-01
    outer loop
      vertex   -2.561712e+00 6.036519e+00 -9.108014e+00
      vertex   -2.579152e+00 6.077614e+00 -9.072264e+00
      vertex   -2.501960e+00 6.060414e+00 -9.108014e+00
    endloop
  endfacet
  facet normal -2.306170e-01 5.766771e-01 -7.837470e-01
    outer loop
      vertex   -2.561712e+00 6.036519e+00 -9.108014e+00
      vertex   -2.501960e+00 6.060414e+00 -9.108014e+00
      vertex   -2.484867e+00 6.019009e+00 -9.143509e+00
    endloop
  endfacet
  facet normal -2.251560e-01 5.788926e-01 -7.837016e-01
    outer loop
      vertex   -2.484867e+00 6.019009e+00 -9.143509e+00
      vertex   -2.501960e+00 6.060414e+00 -9.108014e+00
      vertex   -2.425408e+00 6.042135e+00 -9.143509e+00
    endloop
  endfacet
  facet normal -2.391711e-01 5.819543e-01 -7.772557e-01
    outer loop
      vertex   -2.656966e+00 6.093722e+00 -9.036258e+00
      vertex   -2.596528e+00 6.118561e+00 -9.036258e+00
      vertex   -2.579152e+00 6.077614e+00 -9.072264e+00
    endloop
  endfacet
  facet normal -2.336481e-01 5.842565e-01 -7.772084e-01
    outer loop
      vertex   -2.579152e+00 6.077614e+00 -9.072264e+00
      vertex   -2.596528e+00 6.118561e+00 -9.036258e+00
      vertex   -2.518993e+00 6.101672e+00 -9.072264e+00
    endloop
  endfacet
  facet normal -2.321358e-01 5.804750e-01 -7.804881e-01
    outer loop
      vertex   -2.579152e+00 6.077614e+00 -9.072264e+00
      vertex   -2.518993e+00 6.101672e+00 -9.072264e+00
      vertex   -2.501960e+00 6.060414e+00 -9.108014e+00
    endloop
  endfacet
  facet normal -2.266387e-01 5.827047e-01 -7.804422e-01
    outer loop
      vertex   -2.501960e+00 6.060414e+00 -9.108014e+00
      vertex   -2.518993e+00 6.101672e+00 -9.072264e+00
      vertex   -2.442092e+00 6.083699e+00 -9.108014e+00
    endloop
  endfacet
  facet normal -2.251560e-01 5.788926e-01 -7.837016e-01
    outer loop
      vertex   -2.501960e+00 6.060414e+00 -9.108014e+00
      vertex   -2.442092e+00 6.083699e+00 -9.108014e+00
      vertex   -2.425408e+00 6.042135e+00 -9.143509e+00
    endloop
  endfacet
  facet normal -2.196859e-01 5.810504e-01 -7.836571e-01
    outer loop
      vertex   -2.425408e+00 6.042135e+00 -9.143509e+00
      vertex   -2.442092e+00 6.083699e+00 -9.108014e+00
      vertex   -2.365844e+00 6.064656e+00 -9.143509e+00
    endloop
  endfacet
  facet normal -2.182332e-01 5.772081e-01 -7.868959e-01
    outer loop
      vertex   -2.425408e+00 6.042135e+00 -9.143509e+00
      vertex   -2.365844e+00 6.064656e+00 -9.143509e+00
      vertex   -2.349513e+00 6.022790e+00 -9.178748e+00
    endloop
  endfacet
  facet normal -2.127911e-01 5.792948e-01 -7.868529e-01
    outer loop
      vertex   -2.349513e+00 6.022790e+00 -9.178748e+00
      vertex   -2.365844e+00 6.064656e+00 -9.143509e+00
      vertex   -2.290265e+00 6.044554e+00 -9.178748e+00
    endloop
  endfacet
  facet normal -2.336481e-01 5.842565e-01 -7.772084e-01
    outer loop
      vertex   -2.596528e+00 6.118561e+00 -9.036258e+00
      vertex   -2.535964e+00 6.142781e+00 -9.036258e+00
      vertex   -2.518993e+00 6.101672e+00 -9.072264e+00
    endloop
  endfacet
  facet normal -2.281150e-01 5.865003e-01 -7.771621e-01
    outer loop
      vertex   -2.518993e+00 6.101672e+00 -9.072264e+00
      vertex   -2.535964e+00 6.142781e+00 -9.036258e+00
      vertex   -2.458718e+00 6.125116e+00 -9.072264e+00
    endloop
  endfacet
  facet normal -2.266387e-01 5.827047e-01 -7.804422e-01
    outer loop
      vertex   -2.518993e+00 6.101672e+00 -9.072264e+00
      vertex   -2.458718e+00 6.125116e+00 -9.072264e+00
      vertex   -2.442092e+00 6.083699e+00 -9.108014e+00
    endloop
  endfacet
  facet normal -2.211324e-01 5.848763e-01 -7.803974e-01
    outer loop
      vertex   -2.442092e+00 6.083699e+00 -9.108014e+00
      vertex   -2.458718e+00 6.125116e+00 -9.072264e+00
      vertex   -2.382119e+00 6.106374e+00 -9.108014e+00
    endloop
  endfacet
  facet normal -2.196859e-01 5.810504e-01 -7.836571e-01
    outer loop
      vertex   -2.442092e+00 6.083699e+00 -9.108014e+00
      vertex   -2.382119e+00 6.106374e+00 -9.108014e+00
      vertex   -2.365844e+00 6.064656e+00 -9.143509e+00
    endloop
  endfacet
  facet normal -2.142074e-01 5.831507e-01 -7.836137e-01
    outer loop
      vertex   -2.365844e+00 6.064656e+00 -9.143509e+00
      vertex   -2.382119e+00 6.106374e+00 -9.108014e+00
      vertex   -2.306184e+00 6.086570e+00 -9.143509e+00
    endloop
  endfacet
  facet normal -2.127911e-01 5.792948e-01 -7.868529e-01
    outer loop
      vertex   -2.365844e+00 6.064656e+00 -9.143509e+00
      vertex   -2.306184e+00 6.086570e+00 -9.143509e+00
      vertex   -2.290265e+00 6.044554e+00 -9.178748e+00
    endloop
  endfacet
  facet normal -2.073415e-01 5.813244e-01 -7.868109e-01
    outer loop
      vertex   -2.290265e+00 6.044554e+00 -9.178748e+00
      vertex   -2.306184e+00 6.086570e+00 -9.143509e+00
      vertex   -2.230931e+00 6.065717e+00 -9.178748e+00
    endloop
  endfacet
  facet normal -2.059557e-01 5.774391e-01 -7.900293e-01
    outer loop
      vertex   -2.290265e+00 6.044554e+00 -9.178748e+00
      vertex   -2.230931e+00 6.065717e+00 -9.178748e+00
      vertex   -2.215370e+00 6.023408e+00 -9.213728e+00
    endloop
  endfacet
  facet normal -2.005362e-01 5.793988e-01 -7.899888e-01
    outer loop
      vertex   -2.215370e+00 6.023408e+00 -9.213728e+00
      vertex   -2.230931e+00 6.065717e+00 -9.178748e+00
      vertex   -2.156373e+00 6.043827e+00 -9.213728e+00
    endloop
  endfacet
  facet normal -2.281150e-01 5.865003e-01 -7.771621e-01
    outer loop
      vertex   -2.535964e+00 6.142781e+00 -9.036258e+00
      vertex   -2.475283e+00 6.166383e+00 -9.036258e+00
      vertex   -2.458718e+00 6.125116e+00 -9.072264e+00
    endloop
  endfacet
  facet normal -2.225726e-01 5.886856e-01 -7.771169e-01
    outer loop
      vertex   -2.458718e+00 6.125116e+00 -9.072264e+00
      vertex   -2.475283e+00 6.166383e+00 -9.036258e+00
      vertex   -2.398336e+00 6.147945e+00 -9.072264e+00
    endloop
  endfacet
  facet normal -2.211324e-01 5.848763e-01 -7.803974e-01
    outer loop
      vertex   -2.458718e+00 6.125116e+00 -9.072264e+00
      vertex   -2.398336e+00 6.147945e+00 -9.072264e+00
      vertex   -2.382119e+00 6.106374e+00 -9.108014e+00
    endloop
  endfacet
  facet normal -2.156177e-01 5.869900e-01 -7.803536e-01
    outer loop
      vertex   -2.382119e+00 6.106374e+00 -9.108014e+00
      vertex   -2.398336e+00 6.147945e+00 -9.072264e+00
      vertex   -2.322049e+00 6.128440e+00 -9.108014e+00
    endloop
  endfacet
  facet normal -2.142074e-01 5.831507e-01 -7.836137e-01
    outer loop
      vertex   -2.382119e+00 6.106374e+00 -9.108014e+00
      vertex   -2.322049e+00 6.128440e+00 -9.108014e+00
      vertex   -2.306184e+00 6.086570e+00 -9.143509e+00
    endloop
  endfacet
  facet normal -2.087215e-01 5.851934e-01 -7.835713e-01
    outer loop
      vertex   -2.306184e+00 6.086570e+00 -9.143509e+00
      vertex   -2.322049e+00 6.128440e+00 -9.108014e+00
      vertex   -2.246438e+00 6.107880e+00 -9.143509e+00
    endloop
  endfacet
  facet normal -2.073415e-01 5.813244e-01 -7.868109e-01
    outer loop
      vertex   -2.306184e+00 6.086570e+00 -9.143509e+00
      vertex   -2.246438e+00 6.107880e+00 -9.143509e+00
      vertex   -2.230931e+00 6.065717e+00 -9.178748e+00
    endloop
  endfacet
  facet normal -2.018854e-01 5.832970e-01 -7.867699e-01
    outer loop
      vertex   -2.230931e+00 6.065717e+00 -9.178748e+00
      vertex   -2.246438e+00 6.107880e+00 -9.143509e+00
      vertex   -2.171519e+00 6.086279e+00 -9.178748e+00
    endloop
  endfacet
  facet normal -2.005362e-01 5.793988e-01 -7.899888e-01
    outer loop
      vertex   -2.230931e+00 6.065717e+00 -9.178748e+00
      vertex   -2.171519e+00 6.086279e+00 -9.178748e+00
      vertex   -2.156373e+00 6.043827e+00 -9.213728e+00
    endloop
  endfacet
  facet normal -1.951108e-01 5.813019e-01 -7.899493e-01
    outer loop
      vertex   -2.156373e+00 6.043827e+00 -9.213728e+00
      vertex   -2.171519e+00 6.086279e+00 -9.178748e+00
      vertex   -2.097308e+00 6.063652e+00 -9.213728e+00
    endloop
  endfacet
  facet normal -1.937927e-01 5.773750e-01 -7.931472e-01
    outer loop
      vertex   -2.156373e+00 6.043827e+00 -9.213728e+00
      vertex   -2.097308e+00 6.063652e+00 -9.213728e+00
      vertex   -2.082527e+00 6.020916e+00 -9.248450e+00
    endloop
  endfacet
  facet normal -1.883992e-01 5.792095e-01 -7.931091e-01
    outer loop
      vertex   -2.082527e+00 6.020916e+00 -9.248450e+00
      vertex   -2.097308e+00 6.063652e+00 -9.213728e+00
      vertex   -2.023820e+00 6.040011e+00 -9.248450e+00
    endloop
  endfacet
  facet normal -2.225726e-01 5.886856e-01 -7.771169e-01
    outer loop
      vertex   -2.475283e+00 6.166383e+00 -9.036258e+00
      vertex   -2.414494e+00 6.189366e+00 -9.036258e+00
      vertex   -2.398336e+00 6.147945e+00 -9.072264e+00
    endloop
  endfacet
  facet normal -2.170219e-01 5.908126e-01 -7.770727e-01
    outer loop
      vertex   -2.398336e+00 6.147945e+00 -9.072264e+00
      vertex   -2.414494e+00 6.189366e+00 -9.036258e+00
      vertex   -2.337857e+00 6.170161e+00 -9.072264e+00
    endloop
  endfacet
  facet normal -2.156177e-01 5.869900e-01 -7.803536e-01
    outer loop
      vertex   -2.398336e+00 6.147945e+00 -9.072264e+00
      vertex   -2.337857e+00 6.170161e+00 -9.072264e+00
      vertex   -2.322049e+00 6.128440e+00 -9.108014e+00
    endloop
  endfacet
  facet normal -2.100955e-01 5.890457e-01 -7.803109e-01
    outer loop
      vertex   -2.322049e+00 6.128440e+00 -9.108014e+00
      vertex   -2.337857e+00 6.170161e+00 -9.072264e+00
      vertex   -2.261891e+00 6.149896e+00 -9.108014e+00
    endloop
  endfacet
  facet normal -2.087215e-01 5.851934e-01 -7.835713e-01
    outer loop
      vertex   -2.322049e+00 6.128440e+00 -9.108014e+00
      vertex   -2.261891e+00 6.149896e+00 -9.108014e+00
      vertex   -2.246438e+00 6.107880e+00 -9.143509e+00
    endloop
  endfacet
  facet normal -2.032289e-01 5.871786e-01 -7.835300e-01
    outer loop
      vertex   -2.246438e+00 6.107880e+00 -9.143509e+00
      vertex   -2.261891e+00 6.149896e+00 -9.108014e+00
      vertex   -2.186614e+00 6.128586e+00 -9.143509e+00
    endloop
  endfacet
  facet normal -2.018854e-01 5.832970e-01 -7.867699e-01
    outer loop
      vertex   -2.246438e+00 6.107880e+00 -9.143509e+00
      vertex   -2.186614e+00 6.128586e+00 -9.143509e+00
      vertex   -2.171519e+00 6.086279e+00 -9.178748e+00
    endloop
  endfacet
  facet normal -1.964234e-01 5.852125e-01 -7.867300e-01
    outer loop
      vertex   -2.171519e+00 6.086279e+00 -9.178748e+00
      vertex   -2.186614e+00 6.128586e+00 -9.143509e+00
      vertex   -2.112040e+00 6.106243e+00 -9.178748e+00
    endloop
  endfacet
  facet normal -1.951108e-01 5.813019e-01 -7.899493e-01
    outer loop
      vertex   -2.171519e+00 6.086279e+00 -9.178748e+00
      vertex   -2.112040e+00 6.106243e+00 -9.178748e+00
      vertex   -2.097308e+00 6.063652e+00 -9.213728e+00
    endloop
  endfacet
  facet normal -1.896804e-01 5.831486e-01 -7.899108e-01
    outer loop
      vertex   -2.097308e+00 6.063652e+00 -9.213728e+00
      vertex   -2.112040e+00 6.106243e+00 -9.178748e+00
      vertex   -2.038185e+00 6.082883e+00 -9.213728e+00
    endloop
  endfacet
  facet normal -1.883992e-01 5.792095e-01 -7.931091e-01
    outer loop
      vertex   -2.097308e+00 6.063652e+00 -9.213728e+00
      vertex   -2.038185e+00 6.082883e+00 -9.213728e+00
      vertex   -2.023820e+00 6.040011e+00 -9.248450e+00
    endloop
  endfacet
  facet normal -2.058985e-01 5.948918e-01 -7.769875e-01
    outer loop
      vertex   -2.292632e+00 6.233479e+00 -9.036258e+00
      vertex   -2.231578e+00 6.254611e+00 -9.036258e+00
      vertex   -2.216644e+00 6.212753e+00 -9.072264e+00
    endloop
  endfacet
  facet normal -2.003275e-01 5.968442e-01 -7.769466e-01
    outer loop
      vertex   -2.216644e+00 6.212753e+00 -9.072264e+00
      vertex   -2.231578e+00 6.254611e+00 -9.036258e+00
      vertex   -2.155929e+00 6.233132e+00 -9.072264e+00
    endloop
  endfacet
  facet normal -1.990318e-01 5.929838e-01 -7.802285e-01
    outer loop
      vertex   -2.216644e+00 6.212753e+00 -9.072264e+00
      vertex   -2.155929e+00 6.233132e+00 -9.072264e+00
      vertex   -2.141351e+00 6.190985e+00 -9.108014e+00
    endloop
  endfacet
  facet normal -1.934919e-01 5.948664e-01 -7.801890e-01
    outer loop
      vertex   -2.141351e+00 6.190985e+00 -9.108014e+00
      vertex   -2.155929e+00 6.233132e+00 -9.072264e+00
      vertex   -2.080986e+00 6.210620e+00 -9.108014e+00
    endloop
  endfacet
  facet normal -1.922268e-01 5.909772e-01 -7.834506e-01
    outer loop
      vertex   -2.141351e+00 6.190985e+00 -9.108014e+00
      vertex   -2.080986e+00 6.210620e+00 -9.108014e+00
      vertex   -2.066769e+00 6.168189e+00 -9.143509e+00
    endloop
  endfacet
  facet normal -1.867191e-01 5.927908e-01 -7.834124e-01
    outer loop
      vertex   -2.066769e+00 6.168189e+00 -9.143509e+00
      vertex   -2.080986e+00 6.210620e+00 -9.108014e+00
      vertex   -2.006766e+00 6.187089e+00 -9.143509e+00
    endloop
  endfacet
  facet normal -2.003275e-01 5.968442e-01 -7.769466e-01
    outer loop
      vertex   -2.231578e+00 6.254611e+00 -9.036258e+00
      vertex   -2.170454e+00 6.275127e+00 -9.036258e+00
      vertex   -2.155929e+00 6.233132e+00 -9.072264e+00
    endloop
  endfacet
  facet normal -1.947514e-01 5.987386e-01 -7.769067e-01
    outer loop
      vertex   -2.155929e+00 6.233132e+00 -9.072264e+00
      vertex   -2.170454e+00 6.275127e+00 -9.036258e+00
      vertex   -2.095153e+00 6.252901e+00 -9.072264e+00
    endloop
  endfacet
  facet normal -1.934919e-01 5.948664e-01 -7.801890e-01
    outer loop
      vertex   -2.155929e+00 6.233132e+00 -9.072264e+00
      vertex   -2.095153e+00 6.252901e+00 -9.072264e+00
      vertex   -2.080986e+00 6.210620e+00 -9.108014e+00
    endloop
  endfacet
  facet normal -1.879477e-01 5.966915e-01 -7.801505e-01
    outer loop
      vertex   -2.080986e+00 6.210620e+00 -9.108014e+00
      vertex   -2.095153e+00 6.252901e+00 -9.072264e+00
      vertex   -2.020571e+00 6.229650e+00 -9.108014e+00
    endloop
  endfacet
  facet normal -1.867191e-01 5.927908e-01 -7.834124e-01
    outer loop
      vertex   -2.080986e+00 6.210620e+00 -9.108014e+00
      vertex   -2.020571e+00 6.229650e+00 -9.108014e+00
      vertex   -2.006766e+00 6.187089e+00 -9.143509e+00
    endloop
  endfacet
  facet normal -1.947514e-01 5.987386e-01 -7.769067e-01
    outer loop
      vertex   -2.170454e+00 6.275127e+00 -9.036258e+00
      vertex   -2.109269e+00 6.295028e+00 -9.036258e+00
      vertex   -2.095153e+00 6.252901e+00 -9.072264e+00
    endloop
  endfacet
  facet normal -1.891711e-01 6.005753e-01 -7.768679e-01
    outer loop
      vertex   -2.095153e+00 6.252901e+00 -9.072264e+00
      vertex   -2.109269e+00 6.295028e+00 -9.036258e+00
      vertex   -2.034326e+00 6.272060e+00 -9.072264e+00
    endloop
  endfacet
  facet normal -1.879477e-01 5.966915e-01 -7.801505e-01
    outer loop
      vertex   -2.095153e+00 6.252901e+00 -9.072264e+00
      vertex   -2.034326e+00 6.272060e+00 -9.072264e+00
      vertex   -2.020571e+00 6.229650e+00 -9.108014e+00
    endloop
  endfacet
  facet normal 1.000000e+00 4.676049e-15 -0.000000e+00
    outer loop
      vertex   -2.000000e+00 6.000000e+00 -9.282912e+00
      vertex   -2.000000e+00 6.094971e+00 -9.213735e+00
      vertex   -2.000000e+00 6.000000e+00 -9.000000e+00
    endloop
  endfacet
  facet normal 1.000000e+00 -2.378000e-15 -3.134398e-15
    outer loop
      vertex   -2.000000e+00 6.000000e+00 -9.000000e+00
      vertex   -2.000000e+00 6.094971e+00 -9.213735e+00
      vertex   -2.000000e+00 6.189169e+00 -9.143519e+00
    endloop
  endfacet
  facet normal 1.000000e+00 2.370638e-15 3.124693e-15
    outer loop
      vertex   -2.000000e+00 6.000000e+00 -9.000000e+00
      vertex   -2.000000e+00 6.189169e+00 -9.143519e+00
      vertex   -2.000000e+00 6.282588e+00 -9.072271e+00
    endloop
  endfacet
  facet normal 1.000000e+00 0.000000e+00 -6.144768e-15
    outer loop
      vertex   -2.000000e+00 6.282588e+00 -9.072271e+00
      vertex   -2.000000e+00 6.375221e+00 -9.000000e+00
      vertex   -2.000000e+00 6.000000e+00 -9.000000e+00
    endloop
  endfacet
  facet normal 0.000000e+00 0.000000e+00 1.000000e+00
    outer loop
      vertex   -2.000000e+00 6.375221e+00 -9.000000e+00
      vertex   -2.062639e+00 6.356124e+00 -9.000000e+00
      vertex   -2.000000e+00 6.000000e+00 -9.000000e+00
    endloop
  endfacet
  facet normal 0.000000e+00 0.000000e+00 1.000000e+00
    outer loop
      vertex   -2.000000e+00 6.000000e+00 -9.000000e+00
      vertex   -2.062639e+00 6.356124e+00 -9.000000e+00
      vertex   -2.125084e+00 6.336441e+00 -9.000000e+00
    endloop
  endfacet
  facet normal 0.000000e+00 0.000000e+00 1.000000e+00
    outer loop
      vertex   -2.000000e+00 6.000000e+00 -9.000000e+00
      vertex   -2.125084e+00 6.336441e+00 -9.000000e+00
      vertex   -2.187333e+00 6.316172e+00 -9.000000e+00
    endloop
  endfacet
  facet normal -2.387486e-14 -1.414594e-14 1.000000e+00
    outer loop
      vertex   -2.187333e+00 6.316172e+00 -9.000000e+00
      vertex   -2.249380e+00 6.295318e+00 -9.000000e+00
      vertex   -2.000000e+00 6.000000e+00 -9.000000e+00
    endloop
  endfacet
  facet normal 2.060731e-14 2.341680e-14 1.000000e+00
    outer loop
      vertex   -2.000000e+00 6.000000e+00 -9.000000e+00
      vertex   -2.249380e+00 6.295318e+00 -9.000000e+00
      vertex   -2.311221e+00 6.273881e+00 -9.000000e+00
    endloop
  endfacet
  facet normal 0.000000e+00 0.000000e+00 1.000000e+00
    outer loop
      vertex   -2.000000e+00 6.000000e+00 -9.000000e+00
      vertex   -2.311221e+00 6.273881e+00 -9.000000e+00
      vertex   -2.372851e+00 6.251863e+00 -9.000000e+00
    endloop
  endfacet
  facet normal 0.000000e+00 0.000000e+00 1.000000e+00
    outer loop
      vertex   -2.372851e+00 6.251863e+00 -9.000000e+00
      vertex   -2.434268e+00 6.229264e+00 -9.000000e+00
      vertex   -2.000000e+00 6.000000e+00 -9.000000e+00
    endloop
  endfacet
  facet normal 0.000000e+00 0.000000e+00 1.000000e+00
    outer loop
      vertex   -2.000000e+00 6.000000e+00 -9.000000e+00
      vertex   -2.434268e+00 6.229264e+00 -9.000000e+00
      vertex   -2.495465e+00 6.206087e+00 -9.000000e+00
    endloop
  endfacet
  facet normal 0.000000e+00 0.000000e+00 1.000000e+00
    outer loop
      vertex   -2.000000e+00 6.000000e+00 -9.000000e+00
      vertex   -2.495465e+00 6.206087e+00 -9.000000e+00
      vertex   -2.556439e+00 6.182332e+00 -9.000000e+00
    endloop
  endfacet
  facet normal 0.000000e+00 0.000000e+00 1.000000e+00
    outer loop
      vertex   -2.556439e+00 6.182332e+00 -9.000000e+00
      vertex   -2.617185e+00 6.158001e+00 -9.000000e+00
      vertex   -2.000000e+00 6.000000e+00 -9.000000e+00
    endloop
  endfacet
  facet normal 0.000000e+00 0.000000e+00 1.000000e+00
    outer loop
      vertex   -2.000000e+00 6.000000e+00 -9.000000e+00
      vertex   -2.617185e+00 6.158001e+00 -9.000000e+00
      vertex   -2.677700e+00 6.133096e+00 -9.000000e+00
    endloop
  endfacet
  facet normal 0.000000e+00 0.000000e+00 1.000000e+00
    outer loop
      vertex   -2.000000e+00 6.000000e+00 -9.000000e+00
      vertex   -2.677700e+00 6.133096e+00 -9.000000e+00
      vertex   -2.737978e+00 6.107617e+00 -9.000000e+00
    endloop
  endfacet
  facet normal 0.000000e+00 0.000000e+00 1.000000e+00
    outer loop
      vertex   -2.737978e+00 6.107617e+00 -9.000000e+00
      vertex   -2.798015e+00 6.081567e+00 -9.000000e+00
      vertex   -2.000000e+00 6.000000e+00 -9.000000e+00
    endloop
  endfacet
  facet normal 0.000000e+00 0.000000e+00 1.000000e+00
    outer loop
      vertex   -2.000000e+00 6.000000e+00 -9.000000e+00
      vertex   -2.798015e+00 6.081567e+00 -9.000000e+00
      vertex   -2.857808e+00 6.054946e+00 -9.000000e+00
    endloop
  endfacet
  facet normal 0.000000e+00 0.000000e+00 1.000000e+00
    outer loop
      vertex   -2.000000e+00 6.000000e+00 -9.000000e+00
      vertex   -2.857808e+00 6.054946e+00 -9.000000e+00
      vertex   -2.917351e+00 6.027757e+00 -9.000000e+00
    endloop
  endfacet
  facet normal 0.000000e+00 0.000000e+00 1.000000e+00
    outer loop
      vertex   -2.917351e+00 6.027757e+00 -9.000000e+00
      vertex   -2.976641e+00 6.000000e+00 -9.000000e+00
      vertex   -2.000000e+00 6.000000e+00 -9.000000e+00
    endloop
  endfacet
  facet normal 0.000000e+00 -1.000000e+00 0.000000e+00
    outer loop
      vertex   -2.976641e+00 6.000000e+00 -9.000000e+00
      vertex   -2.916600e+00 6.000000e+00 -9.020895e+00
      vertex   -2.000000e+00 6.000000e+00 -9.000000e+00
    endloop
  endfacet
  facet normal 0.000000e+00 -1.000000e+00 0.000000e+00
    outer loop
      vertex   -2.000000e+00 6.000000e+00 -9.000000e+00
      vertex   -2.916600e+00 6.000000e+00 -9.020895e+00
      vertex   -2.856411e+00 6.000000e+00 -9.041368e+00
    endloop
  endfacet
  facet normal 1.868360e-15 -1.000000e+00 -3.867953e-14
    outer loop
      vertex   -2.000000e+00 6.000000e+00 -9.000000e+00
      vertex   -2.856411e+00 6.000000e+00 -9.041368e+00
      vertex   -2.796078e+00 6.000000e+00 -9.061416e+00
    endloop
  endfacet
  facet normal -9.013799e-16 -1.000000e+00 -2.777934e-15
    outer loop
      vertex   -2.796078e+00 6.000000e+00 -9.061416e+00
      vertex   -2.735602e+00 6.000000e+00 -9.081039e+00
      vertex   -2.000000e+00 6.000000e+00 -9.000000e+00
    endloop
  endfacet
  facet normal -4.677340e-15 -1.000000e+00 3.149694e-14
    outer loop
      vertex   -2.000000e+00 6.000000e+00 -9.000000e+00
      vertex   -2.735602e+00 6.000000e+00 -9.081039e+00
      vertex   -2.674986e+00 6.000000e+00 -9.100236e+00
    endloop
  endfacet
  facet normal 4.745715e-15 -1.000000e+00 -3.195737e-14
    outer loop
      vertex   -2.000000e+00 6.000000e+00 -9.000000e+00
      vertex   -2.674986e+00 6.000000e+00 -9.100236e+00
      vertex   -2.614230e+00 6.000000e+00 -9.119007e+00
    endloop
  endfacet
  facet normal -1.800827e-14 -1.000000e+00 8.548299e-14
    outer loop
      vertex   -2.614230e+00 6.000000e+00 -9.119007e+00
      vertex   -2.553338e+00 6.000000e+00 -9.137349e+00
      vertex   -2.000000e+00 6.000000e+00 -9.000000e+00
    endloop
  endfacet
  facet normal 2.174418e-14 -1.000000e+00 -7.466754e-14
    outer loop
      vertex   -2.000000e+00 6.000000e+00 -9.000000e+00
      vertex   -2.553338e+00 6.000000e+00 -9.137349e+00
      vertex   -2.492311e+00 6.000000e+00 -9.155263e+00
    endloop
  endfacet
  facet normal -8.577960e-16 -1.000000e+00 -3.000562e-15
    outer loop
      vertex   -2.000000e+00 6.000000e+00 -9.000000e+00
      vertex   -2.492311e+00 6.000000e+00 -9.155263e+00
      vertex   -2.431163e+00 6.000000e+00 -9.172744e+00
    endloop
  endfacet
  facet normal -8.442815e-16 -1.000000e+00 -3.034294e-15
    outer loop
      vertex   -2.431163e+00 6.000000e+00 -9.172744e+00
      vertex   -2.369899e+00 6.000000e+00 -9.189790e+00
      vertex   -2.000000e+00 6.000000e+00 -9.000000e+00
    endloop
  endfacet
  facet normal -8.291766e-16 -1.000000e+00 -3.063733e-15
    outer loop
      vertex   -2.000000e+00 6.000000e+00 -9.000000e+00
      vertex   -2.369899e+00 6.000000e+00 -9.189790e+00
      vertex   -2.308520e+00 6.000000e+00 -9.206402e+00
    endloop
  endfacet
  facet normal -3.191533e-14 -1.000000e+00 4.340248e-14
    outer loop
      vertex   -2.000000e+00 6.000000e+00 -9.000000e+00
      vertex   -2.308520e+00 6.000000e+00 -9.206402e+00
      vertex   -2.247031e+00 6.000000e+00 -9.222578e+00
    endloop
  endfacet
  facet normal 2.405495e-14 -1.000000e+00 -1.871686e-14
    outer loop
      vertex   -2.247031e+00 6.000000e+00 -9.222578e+00
      vertex   -2.185432e+00 6.000000e+00 -9.238317e+00
      vertex   -2.000000e+00 6.000000e+00 -9.000000e+00
    endloop
  endfacet
  facet normal 0.000000e+00 -1.000000e+00 0.000000e+00
    outer loop
      vertex   -2.000000e+00 6.000000e+00 -9.000000e+00
      vertex   -2.185432e+00 6.000000e+00 -9.238317e+00
      vertex   -2.123725e+00 6.000000e+00 -9.253620e+00
    endloop
  endfacet
  facet normal 2.572082e-14 -1.000000e+00 -1.254760e-14
    outer loop
      vertex   -2.000000e+00 6.000000e+00 -9.000000e+00
      vertex   -2.123725e+00 6.000000e+00 -9.253620e+00
      vertex   -2.061914e+00 6.000000e+00 -9.268485e+00
    endloop
  endfacet
  facet normal -2.869064e-14 -1.000000e+00 0.000000e+00
    outer loop
      vertex   -2.061914e+00 6.000000e+00 -9.268485e+00
      vertex   -2.000000e+00 6.000000e+00 -9.282912e+00
      vertex   -2.000000e+00 6.000000e+00 -9.000000e+00
    endloop
  endfacet
endsolid
