solid ASCII
  facet normal -6.398624e-01 -6.625250e-04 7.684893e-01
    outer loop
      vertex   -6.911477e+00 -8.272603e-16 8.927215e+00
      vertex   -7.000000e+00 -8.379017e-16 8.853509e+00
      vertex   -6.948687e+00 -6.220069e-02 8.896180e+00
    endloop
  endfacet
  facet normal -6.436903e-01 -6.034086e-03 7.652623e-01
    outer loop
      vertex   -6.948687e+00 -6.220069e-02 8.896180e+00
      vertex   -7.000000e+00 -8.379017e-16 8.853509e+00
      vertex   -7.000000e+00 -1.253328e-01 8.852521e+00
    endloop
  endfacet
  facet normal -6.415318e-01 -9.020111e-03 7.670434e-01
    outer loop
      vertex   -6.948687e+00 -6.220069e-02 8.896180e+00
      vertex   -7.000000e+00 -1.253328e-01 8.852521e+00
      vertex   -6.947812e+00 -1.244663e-01 8.896180e+00
    endloop
  endfacet
  facet normal -6.414261e-01 -1.506430e-02 7.670369e-01
    outer loop
      vertex   -6.947812e+00 -1.244663e-01 8.896180e+00
      vertex   -7.000000e+00 -1.253328e-01 8.852521e+00
      vertex   -6.946337e+00 -1.872809e-01 8.896180e+00
    endloop
  endfacet
  facet normal -6.362509e-01 -1.494275e-02 7.713375e-01
    outer loop
      vertex   -6.947812e+00 -1.244663e-01 8.896180e+00
      vertex   -6.946337e+00 -1.872809e-01 8.896180e+00
      vertex   -6.884602e+00 -1.234150e-01 8.948340e+00
    endloop
  endfacet
  facet normal -6.362485e-01 -1.494662e-02 7.713394e-01
    outer loop
      vertex   -6.884602e+00 -1.234150e-01 8.948340e+00
      vertex   -6.946337e+00 -1.872809e-01 8.896180e+00
      vertex   -6.883142e+00 -1.855771e-01 8.948340e+00
    endloop
  endfacet
  facet normal -6.306457e-01 -1.481500e-02 7.759294e-01
    outer loop
      vertex   -6.884602e+00 -1.234150e-01 8.948340e+00
      vertex   -6.883142e+00 -1.855771e-01 8.948340e+00
      vertex   -6.820991e+00 -1.255334e-01 9.000000e+00
    endloop
  endfacet
  facet normal -6.304312e-01 -1.518103e-02 7.760967e-01
    outer loop
      vertex   -6.820991e+00 -1.255334e-01 9.000000e+00
      vertex   -6.883142e+00 -1.855771e-01 8.948340e+00
      vertex   -6.819480e+00 -1.882700e-01 9.000000e+00
    endloop
  endfacet
  facet normal -6.305105e-01 -2.078305e-02 7.759024e-01
    outer loop
      vertex   -6.819480e+00 -1.882700e-01 9.000000e+00
      vertex   -6.883142e+00 -1.855771e-01 8.948340e+00
      vertex   -6.881088e+00 -2.478712e-01 8.948340e+00
    endloop
  endfacet
  facet normal -6.302361e-01 -2.124891e-02 7.761127e-01
    outer loop
      vertex   -6.819480e+00 -1.882700e-01 9.000000e+00
      vertex   -6.881088e+00 -2.478712e-01 8.948340e+00
      vertex   -6.817366e+00 -2.509810e-01 9.000000e+00
    endloop
  endfacet
  facet normal -6.303150e-01 -2.676756e-02 7.758779e-01
    outer loop
      vertex   -6.817366e+00 -2.509810e-01 9.000000e+00
      vertex   -6.881088e+00 -2.478712e-01 8.948340e+00
      vertex   -6.878434e+00 -3.103713e-01 8.948340e+00
    endloop
  endfacet
  facet normal -6.299906e-01 -2.731380e-02 7.761223e-01
    outer loop
      vertex   -6.817366e+00 -2.509810e-01 9.000000e+00
      vertex   -6.878434e+00 -3.103713e-01 8.948340e+00
      vertex   -6.814648e+00 -3.136622e-01 9.000000e+00
    endloop
  endfacet
  facet normal -6.300572e-01 -3.277151e-02 7.758569e-01
    outer loop
      vertex   -6.814648e+00 -3.136622e-01 9.000000e+00
      vertex   -6.878434e+00 -3.103713e-01 8.948340e+00
      vertex   -6.875173e+00 -3.730703e-01 8.948340e+00
    endloop
  endfacet
  facet normal -6.296941e-01 -3.337540e-02 7.761259e-01
    outer loop
      vertex   -6.814648e+00 -3.136622e-01 9.000000e+00
      vertex   -6.875173e+00 -3.730703e-01 8.948340e+00
      vertex   -6.811328e+00 -3.763095e-01 9.000000e+00
    endloop
  endfacet
  facet normal -6.297370e-01 -3.879403e-02 7.758391e-01
    outer loop
      vertex   -6.811328e+00 -3.763095e-01 9.000000e+00
      vertex   -6.875173e+00 -3.730703e-01 8.948340e+00
      vertex   -6.871299e+00 -4.359609e-01 8.948340e+00
    endloop
  endfacet
  facet normal -6.293463e-01 -3.943344e-02 7.761239e-01
    outer loop
      vertex   -6.811328e+00 -3.763095e-01 9.000000e+00
      vertex   -6.871299e+00 -4.359609e-01 8.948340e+00
      vertex   -6.807405e+00 -4.389186e-01 9.000000e+00
    endloop
  endfacet
  facet normal -6.293540e-01 -4.483425e-02 7.758243e-01
    outer loop
      vertex   -6.807405e+00 -4.389186e-01 9.000000e+00
      vertex   -6.871299e+00 -4.359609e-01 8.948340e+00
      vertex   -6.866805e+00 -4.990357e-01 8.948340e+00
    endloop
  endfacet
  facet normal -6.289469e-01 -4.548763e-02 7.761164e-01
    outer loop
      vertex   -6.807405e+00 -4.389186e-01 9.000000e+00
      vertex   -6.866805e+00 -4.990357e-01 8.948340e+00
      vertex   -6.802880e+00 -5.014855e-01 9.000000e+00
    endloop
  endfacet
  facet normal -6.289081e-01 -5.089130e-02 7.758123e-01
    outer loop
      vertex   -6.802880e+00 -5.014855e-01 9.000000e+00
      vertex   -6.866805e+00 -4.990357e-01 8.948340e+00
      vertex   -6.861687e+00 -5.622871e-01 8.948340e+00
    endloop
  endfacet
  facet normal -6.284958e-01 -5.153768e-02 7.761037e-01
    outer loop
      vertex   -6.802880e+00 -5.014855e-01 9.000000e+00
      vertex   -6.861687e+00 -5.622871e-01 8.948340e+00
      vertex   -6.797753e+00 -5.640060e-01 9.000000e+00
    endloop
  endfacet
  facet normal -6.283987e-01 -5.696425e-02 7.758029e-01
    outer loop
      vertex   -6.797753e+00 -5.640060e-01 9.000000e+00
      vertex   -6.861687e+00 -5.622871e-01 8.948340e+00
      vertex   -6.855938e+00 -6.257072e-01 8.948340e+00
    endloop
  endfacet
  facet normal -6.279932e-01 -5.758330e-02 7.760855e-01
    outer loop
      vertex   -6.797753e+00 -5.640060e-01 9.000000e+00
      vertex   -6.855938e+00 -6.257072e-01 8.948340e+00
      vertex   -6.792025e+00 -6.264759e-01 9.000000e+00
    endloop
  endfacet
  facet normal -6.278252e-01 -6.305217e-02 7.757963e-01
    outer loop
      vertex   -6.792025e+00 -6.264759e-01 9.000000e+00
      vertex   -6.855938e+00 -6.257072e-01 8.948340e+00
      vertex   -6.849553e+00 -6.892882e-01 8.948340e+00
    endloop
  endfacet
  facet normal -6.274391e-01 -6.362423e-02 7.760620e-01
    outer loop
      vertex   -6.792025e+00 -6.264759e-01 9.000000e+00
      vertex   -6.849553e+00 -6.892882e-01 8.948340e+00
      vertex   -6.785696e+00 -6.888910e-01 9.000000e+00
    endloop
  endfacet
  facet normal -6.271869e-01 -6.915409e-02 7.757927e-01
    outer loop
      vertex   -6.785696e+00 -6.888910e-01 9.000000e+00
      vertex   -6.849553e+00 -6.892882e-01 8.948340e+00
      vertex   -6.842525e+00 -7.530219e-01 8.948340e+00
    endloop
  endfacet
  facet normal -6.268339e-01 -6.966023e-02 7.760327e-01
    outer loop
      vertex   -6.785696e+00 -6.888910e-01 9.000000e+00
      vertex   -6.842525e+00 -7.530219e-01 8.948340e+00
      vertex   -6.778766e+00 -7.512473e-01 9.000000e+00
    endloop
  endfacet
  facet normal -6.264830e-01 -7.526901e-02 7.757923e-01
    outer loop
      vertex   -6.778766e+00 -7.512473e-01 9.000000e+00
      vertex   -6.842525e+00 -7.530219e-01 8.948340e+00
      vertex   -6.834851e+00 -8.169000e-01 8.948340e+00
    endloop
  endfacet
  facet normal -6.261779e-01 -7.569106e-02 7.759975e-01
    outer loop
      vertex   -6.778766e+00 -7.512473e-01 9.000000e+00
      vertex   -6.834851e+00 -8.169000e-01 8.948340e+00
      vertex   -6.771236e+00 -8.135405e-01 9.000000e+00
    endloop
  endfacet
  facet normal -6.257126e-01 -8.139587e-02 7.757954e-01
    outer loop
      vertex   -6.771236e+00 -8.135405e-01 9.000000e+00
      vertex   -6.834851e+00 -8.169000e-01 8.948340e+00
      vertex   -6.826523e+00 -8.809143e-01 8.948340e+00
    endloop
  endfacet
  facet normal -6.254717e-01 -8.171654e-02 7.759559e-01
    outer loop
      vertex   -6.771236e+00 -8.135405e-01 9.000000e+00
      vertex   -6.826523e+00 -8.809143e-01 8.948340e+00
      vertex   -6.763106e+00 -8.757664e-01 9.000000e+00
    endloop
  endfacet
  facet normal -6.248746e-01 -8.753356e-02 7.758025e-01
    outer loop
      vertex   -6.763106e+00 -8.757664e-01 9.000000e+00
      vertex   -6.826523e+00 -8.809143e-01 8.948340e+00
      vertex   -6.817538e+00 -9.450561e-01 8.948340e+00
    endloop
  endfacet
  facet normal -6.247159e-01 -8.773649e-02 7.759075e-01
    outer loop
      vertex   -6.763106e+00 -8.757664e-01 9.000000e+00
      vertex   -6.817538e+00 -9.450561e-01 8.948340e+00
      vertex   -6.754377e+00 -9.379210e-01 9.000000e+00
    endloop
  endfacet
  facet normal -6.240248e-01 -9.323604e-02 7.758222e-01
    outer loop
      vertex   -6.754377e+00 -9.379210e-01 9.000000e+00
      vertex   -6.817538e+00 -9.450561e-01 8.948340e+00
      vertex   -6.809369e+00 -1.000000e+00 8.948308e+00
    endloop
  endfacet
  facet normal -6.236847e-01 -9.371677e-02 7.760377e-01
    outer loop
      vertex   -6.754377e+00 -9.379210e-01 9.000000e+00
      vertex   -6.809369e+00 -1.000000e+00 8.948308e+00
      vertex   -6.745049e+00 -1.000000e+00 9.000000e+00
    endloop
  endfacet
  facet normal -6.434798e-01 -1.810341e-02 7.652490e-01
    outer loop
      vertex   -7.000000e+00 -1.253328e-01 8.852521e+00
      vertex   -7.000000e+00 -2.506123e-01 8.849557e+00
      vertex   -6.946337e+00 -1.872809e-01 8.896180e+00
    endloop
  endfacet
  facet normal -6.413668e-01 -2.114090e-02 7.669431e-01
    outer loop
      vertex   -6.946337e+00 -1.872809e-01 8.896180e+00
      vertex   -7.000000e+00 -2.506123e-01 8.849557e+00
      vertex   -6.944264e+00 -2.501469e-01 8.896180e+00
    endloop
  endfacet
  facet normal -6.360831e-01 -2.096674e-02 7.713357e-01
    outer loop
      vertex   -6.946337e+00 -1.872809e-01 8.896180e+00
      vertex   -6.944264e+00 -2.501469e-01 8.896180e+00
      vertex   -6.881088e+00 -2.478712e-01 8.948340e+00
    endloop
  endfacet
  facet normal -6.358615e-01 -2.700310e-02 7.713307e-01
    outer loop
      vertex   -6.881088e+00 -2.478712e-01 8.948340e+00
      vertex   -6.944264e+00 -2.501469e-01 8.896180e+00
      vertex   -6.878434e+00 -3.103713e-01 8.948340e+00
    endloop
  endfacet
  facet normal -6.412424e-01 -2.723161e-02 7.668551e-01
    outer loop
      vertex   -6.944264e+00 -2.501469e-01 8.896180e+00
      vertex   -7.000000e+00 -2.506123e-01 8.849557e+00
      vertex   -6.941586e+00 -3.132208e-01 8.896180e+00
    endloop
  endfacet
  facet normal -6.430810e-01 -3.017702e-02 7.652034e-01
    outer loop
      vertex   -6.941586e+00 -3.132208e-01 8.896180e+00
      vertex   -7.000000e+00 -2.506123e-01 8.849557e+00
      vertex   -7.000000e+00 -3.758178e-01 8.844619e+00
    endloop
  endfacet
  facet normal -6.410638e-01 -3.334400e-02 7.667629e-01
    outer loop
      vertex   -6.941586e+00 -3.132208e-01 8.896180e+00
      vertex   -7.000000e+00 -3.758178e-01 8.844619e+00
      vertex   -6.938295e+00 -3.764955e-01 8.896180e+00
    endloop
  endfacet
  facet normal -6.409620e-01 -3.938023e-02 7.665618e-01
    outer loop
      vertex   -6.938295e+00 -3.764955e-01 8.896180e+00
      vertex   -7.000000e+00 -3.758178e-01 8.844619e+00
      vertex   -6.997125e+00 -4.439442e-01 8.843524e+00
    endloop
  endfacet
  facet normal -6.408931e-01 -3.948128e-02 7.666142e-01
    outer loop
      vertex   -6.938295e+00 -3.764955e-01 8.896180e+00
      vertex   -6.997125e+00 -4.439442e-01 8.843524e+00
      vertex   -6.934385e+00 -4.399635e-01 8.896180e+00
    endloop
  endfacet
  facet normal -6.404955e-01 -4.562796e-02 7.666052e-01
    outer loop
      vertex   -6.934385e+00 -4.399635e-01 8.896180e+00
      vertex   -6.997125e+00 -4.439442e-01 8.843524e+00
      vertex   -6.929850e+00 -5.036174e-01 8.896180e+00
    endloop
  endfacet
  facet normal -6.348533e-01 -4.522601e-02 7.713079e-01
    outer loop
      vertex   -6.934385e+00 -4.399635e-01 8.896180e+00
      vertex   -6.929850e+00 -5.036174e-01 8.896180e+00
      vertex   -6.866805e+00 -4.990357e-01 8.948340e+00
    endloop
  endfacet
  facet normal -6.344008e-01 -5.133577e-02 7.712977e-01
    outer loop
      vertex   -6.866805e+00 -4.990357e-01 8.948340e+00
      vertex   -6.929850e+00 -5.036174e-01 8.896180e+00
      vertex   -6.861687e+00 -5.622871e-01 8.948340e+00
    endloop
  endfacet
  facet normal -6.795134e-01 -4.046005e-02 7.325466e-01
    outer loop
      vertex   -7.000000e+00 -3.758178e-01 8.844619e+00
      vertex   -7.000000e+00 -5.009282e-01 8.837709e+00
      vertex   -6.997125e+00 -4.439442e-01 8.843524e+00
    endloop
  endfacet
  facet normal -6.418246e-01 -4.572264e-02 7.654871e-01
    outer loop
      vertex   -6.997125e+00 -4.439442e-01 8.843524e+00
      vertex   -7.000000e+00 -5.009282e-01 8.837709e+00
      vertex   -6.992549e+00 -5.081740e-01 8.843524e+00
    endloop
  endfacet
  facet normal -6.404955e-01 -4.562796e-02 7.666052e-01
    outer loop
      vertex   -6.997125e+00 -4.439442e-01 8.843524e+00
      vertex   -6.992549e+00 -5.081740e-01 8.843524e+00
      vertex   -6.929850e+00 -5.036174e-01 8.896180e+00
    endloop
  endfacet
  facet normal -6.400389e-01 -5.179200e-02 7.665949e-01
    outer loop
      vertex   -6.929850e+00 -5.036174e-01 8.896180e+00
      vertex   -6.992549e+00 -5.081740e-01 8.843524e+00
      vertex   -6.924685e+00 -5.674495e-01 8.896180e+00
    endloop
  endfacet
  facet normal -6.344008e-01 -5.133577e-02 7.712977e-01
    outer loop
      vertex   -6.929850e+00 -5.036174e-01 8.896180e+00
      vertex   -6.924685e+00 -5.674495e-01 8.896180e+00
      vertex   -6.861687e+00 -5.622871e-01 8.948340e+00
    endloop
  endfacet
  facet normal -6.338893e-01 -5.746197e-02 7.712862e-01
    outer loop
      vertex   -6.861687e+00 -5.622871e-01 8.948340e+00
      vertex   -6.924685e+00 -5.674495e-01 8.896180e+00
      vertex   -6.855938e+00 -6.257072e-01 8.948340e+00
    endloop
  endfacet
  facet normal -6.454457e-01 -5.222952e-02 7.620183e-01
    outer loop
      vertex   -6.992549e+00 -5.081740e-01 8.843524e+00
      vertex   -7.000000e+00 -5.009282e-01 8.837709e+00
      vertex   -6.987337e+00 -5.725836e-01 8.843524e+00
    endloop
  endfacet
  facet normal -6.516293e-01 -5.375948e-02 7.566301e-01
    outer loop
      vertex   -6.987337e+00 -5.725836e-01 8.843524e+00
      vertex   -7.000000e+00 -5.009282e-01 8.837709e+00
      vertex   -7.000000e+00 -6.259225e-01 8.828828e+00
    endloop
  endfacet
  facet normal -6.420258e-01 -5.819954e-02 7.644708e-01
    outer loop
      vertex   -6.987337e+00 -5.725836e-01 8.843524e+00
      vertex   -7.000000e+00 -6.259225e-01 8.828828e+00
      vertex   -6.981483e+00 -6.371651e-01 8.843524e+00
    endloop
  endfacet
  facet normal -6.441392e-01 -6.469057e-02 7.621679e-01
    outer loop
      vertex   -6.981483e+00 -6.371651e-01 8.843524e+00
      vertex   -7.000000e+00 -6.259225e-01 8.828828e+00
      vertex   -6.974981e+00 -7.019103e-01 8.843524e+00
    endloop
  endfacet
  facet normal -6.389462e-01 -6.416905e-02 7.665703e-01
    outer loop
      vertex   -6.981483e+00 -6.371651e-01 8.843524e+00
      vertex   -6.974981e+00 -7.019103e-01 8.843524e+00
      vertex   -6.912439e+00 -6.956166e-01 8.896180e+00
    endloop
  endfacet
  facet normal -6.383091e-01 -7.038044e-02 7.665560e-01
    outer loop
      vertex   -6.912439e+00 -6.956166e-01 8.896180e+00
      vertex   -6.974981e+00 -7.019103e-01 8.843524e+00
      vertex   -6.905347e+00 -7.599354e-01 8.896180e+00
    endloop
  endfacet
  facet normal -6.326868e-01 -6.976052e-02 7.712593e-01
    outer loop
      vertex   -6.912439e+00 -6.956166e-01 8.896180e+00
      vertex   -6.905347e+00 -7.599354e-01 8.896180e+00
      vertex   -6.842525e+00 -7.530219e-01 8.948340e+00
    endloop
  endfacet
  facet normal -6.319949e-01 -7.593124e-02 7.712438e-01
    outer loop
      vertex   -6.842525e+00 -7.530219e-01 8.948340e+00
      vertex   -6.905347e+00 -7.599354e-01 8.896180e+00
      vertex   -6.834851e+00 -8.169000e-01 8.948340e+00
    endloop
  endfacet
  facet normal -6.468045e-01 -6.602756e-02 7.597923e-01
    outer loop
      vertex   -7.000000e+00 -6.259225e-01 8.828828e+00
      vertex   -7.000000e+00 -7.507799e-01 8.817978e+00
      vertex   -6.974981e+00 -7.019103e-01 8.843524e+00
    endloop
  endfacet
  facet normal -6.416264e-01 -7.074620e-02 7.637477e-01
    outer loop
      vertex   -6.974981e+00 -7.019103e-01 8.843524e+00
      vertex   -7.000000e+00 -7.507799e-01 8.817978e+00
      vertex   -6.967825e+00 -7.668111e-01 8.843524e+00
    endloop
  endfacet
  facet normal -6.383091e-01 -7.038044e-02 7.665560e-01
    outer loop
      vertex   -6.974981e+00 -7.019103e-01 8.843524e+00
      vertex   -6.967825e+00 -7.668111e-01 8.843524e+00
      vertex   -6.905347e+00 -7.599354e-01 8.896180e+00
    endloop
  endfacet
  facet normal -6.376108e-01 -7.660596e-02 7.665403e-01
    outer loop
      vertex   -6.905347e+00 -7.599354e-01 8.896180e+00
      vertex   -6.967825e+00 -7.668111e-01 8.843524e+00
      vertex   -6.897602e+00 -8.244001e-01 8.896180e+00
    endloop
  endfacet
  facet normal -6.319949e-01 -7.593124e-02 7.712438e-01
    outer loop
      vertex   -6.905347e+00 -7.599354e-01 8.896180e+00
      vertex   -6.897602e+00 -8.244001e-01 8.896180e+00
      vertex   -6.834851e+00 -8.169000e-01 8.948340e+00
    endloop
  endfacet
  facet normal -6.312418e-01 -8.211513e-02 7.712269e-01
    outer loop
      vertex   -6.834851e+00 -8.169000e-01 8.948340e+00
      vertex   -6.897602e+00 -8.244001e-01 8.896180e+00
      vertex   -6.826523e+00 -8.809143e-01 8.948340e+00
    endloop
  endfacet
  facet normal -6.432772e-01 -7.728676e-02 7.617225e-01
    outer loop
      vertex   -6.967825e+00 -7.668111e-01 8.843524e+00
      vertex   -7.000000e+00 -7.507799e-01 8.817978e+00
      vertex   -6.960009e+00 -8.318590e-01 8.843524e+00
    endloop
  endfacet
  facet normal -6.444280e-01 -7.819009e-02 7.606569e-01
    outer loop
      vertex   -6.960009e+00 -8.318590e-01 8.843524e+00
      vertex   -7.000000e+00 -7.507799e-01 8.817978e+00
      vertex   -7.000000e+00 -8.754794e-01 8.805160e+00
    endloop
  endfacet
  facet normal -6.410041e-01 -8.338506e-02 7.629946e-01
    outer loop
      vertex   -6.960009e+00 -8.318590e-01 8.843524e+00
      vertex   -7.000000e+00 -8.754794e-01 8.805160e+00
      vertex   -6.951530e+00 -8.970455e-01 8.843524e+00
    endloop
  endfacet
  facet normal -6.424862e-01 -9.034909e-02 7.609524e-01
    outer loop
      vertex   -6.951530e+00 -8.970455e-01 8.843524e+00
      vertex   -7.000000e+00 -8.754794e-01 8.805160e+00
      vertex   -7.000000e+00 -1.000000e+00 8.790375e+00
    endloop
  endfacet
  facet normal -6.428366e-01 -9.004970e-02 7.606919e-01
    outer loop
      vertex   -6.951530e+00 -8.970455e-01 8.843524e+00
      vertex   -7.000000e+00 -1.000000e+00 8.790375e+00
      vertex   -6.942380e+00 -9.623618e-01 8.843524e+00
    endloop
  endfacet
  facet normal -6.407799e-01 -9.482743e-02 7.618457e-01
    outer loop
      vertex   -6.942380e+00 -9.623618e-01 8.843524e+00
      vertex   -7.000000e+00 -1.000000e+00 8.790375e+00
      vertex   -6.936846e+00 -1.000000e+00 8.843493e+00
    endloop
  endfacet
  facet normal -6.353334e-01 -9.403048e-02 7.664918e-01
    outer loop
      vertex   -6.942380e+00 -9.623618e-01 8.843524e+00
      vertex   -6.936846e+00 -1.000000e+00 8.843493e+00
      vertex   -6.880131e+00 -9.537327e-01 8.896180e+00
    endloop
  endfacet
  facet normal -6.351223e-01 -9.443228e-02 7.666174e-01
    outer loop
      vertex   -6.880131e+00 -9.537327e-01 8.896180e+00
      vertex   -6.936846e+00 -1.000000e+00 8.843493e+00
      vertex   -6.873302e+00 -1.000000e+00 8.896138e+00
    endloop
  endfacet
  facet normal -6.296769e-01 -9.363269e-02 7.711938e-01
    outer loop
      vertex   -6.880131e+00 -9.537327e-01 8.896180e+00
      vertex   -6.873302e+00 -1.000000e+00 8.896138e+00
      vertex   -6.817538e+00 -9.450561e-01 8.948340e+00
    endloop
  endfacet
  facet normal -6.294254e-01 -9.403645e-02 7.713500e-01
    outer loop
      vertex   -6.817538e+00 -9.450561e-01 8.948340e+00
      vertex   -6.873302e+00 -1.000000e+00 8.896138e+00
      vertex   -6.809369e+00 -1.000000e+00 8.948308e+00
    endloop
  endfacet
  facet normal -6.305743e-01 -9.110380e-03 7.760754e-01
    outer loop
      vertex   -6.820991e+00 -1.255334e-01 9.000000e+00
      vertex   -6.821897e+00 -6.277537e-02 9.000000e+00
      vertex   -6.884602e+00 -1.234150e-01 8.948340e+00
    endloop
  endfacet
  facet normal -6.307138e-01 -8.871895e-03 7.759648e-01
    outer loop
      vertex   -6.884602e+00 -1.234150e-01 8.948340e+00
      vertex   -6.821897e+00 -6.277537e-02 9.000000e+00
      vertex   -6.885471e+00 -6.163481e-02 8.948340e+00
    endloop
  endfacet
  facet normal -6.363557e-01 -8.951256e-03 7.713438e-01
    outer loop
      vertex   -6.884602e+00 -1.234150e-01 8.948340e+00
      vertex   -6.885471e+00 -6.163481e-02 8.948340e+00
      vertex   -6.947812e+00 -1.244663e-01 8.896180e+00
    endloop
  endfacet
  facet normal -6.363581e-01 -8.947367e-03 7.713419e-01
    outer loop
      vertex   -6.947812e+00 -1.244663e-01 8.896180e+00
      vertex   -6.885471e+00 -6.163481e-02 8.948340e+00
      vertex   -6.948687e+00 -6.220069e-02 8.896180e+00
    endloop
  endfacet
  facet normal -6.306727e-01 -3.037282e-03 7.760430e-01
    outer loop
      vertex   -6.821897e+00 -6.277537e-02 9.000000e+00
      vertex   -6.822200e+00 -8.166189e-16 9.000000e+00
      vertex   -6.885471e+00 -6.163481e-02 8.948340e+00
    endloop
  endfacet
  facet normal -6.318825e-01 -9.744811e-04 7.750636e-01
    outer loop
      vertex   -6.885471e+00 -6.163481e-02 8.948340e+00
      vertex   -6.822200e+00 -8.166189e-16 9.000000e+00
      vertex   -6.911477e+00 -8.272603e-16 8.927215e+00
    endloop
  endfacet
  facet normal -6.364035e-01 -4.156600e-03 7.713451e-01
    outer loop
      vertex   -6.885471e+00 -6.163481e-02 8.948340e+00
      vertex   -6.911477e+00 -8.272603e-16 8.927215e+00
      vertex   -6.948687e+00 -6.220069e-02 8.896180e+00
    endloop
  endfacet
  facet normal -6.360831e-01 -2.096674e-02 7.713357e-01
    outer loop
      vertex   -6.881088e+00 -2.478712e-01 8.948340e+00
      vertex   -6.883142e+00 -1.855771e-01 8.948340e+00
      vertex   -6.946337e+00 -1.872809e-01 8.896180e+00
    endloop
  endfacet
  facet normal -6.355830e-01 -3.305893e-02 7.713244e-01
    outer loop
      vertex   -6.938295e+00 -3.764955e-01 8.896180e+00
      vertex   -6.875173e+00 -3.730703e-01 8.948340e+00
      vertex   -6.941586e+00 -3.132208e-01 8.896180e+00
    endloop
  endfacet
  facet normal -6.355830e-01 -3.305893e-02 7.713244e-01
    outer loop
      vertex   -6.941586e+00 -3.132208e-01 8.896180e+00
      vertex   -6.875173e+00 -3.730703e-01 8.948340e+00
      vertex   -6.878434e+00 -3.103713e-01 8.948340e+00
    endloop
  endfacet
  facet normal -6.358615e-01 -2.700310e-02 7.713307e-01
    outer loop
      vertex   -6.941586e+00 -3.132208e-01 8.896180e+00
      vertex   -6.878434e+00 -3.103713e-01 8.948340e+00
      vertex   -6.944264e+00 -2.501469e-01 8.896180e+00
    endloop
  endfacet
  facet normal -6.352472e-01 -3.913348e-02 7.713168e-01
    outer loop
      vertex   -6.875173e+00 -3.730703e-01 8.948340e+00
      vertex   -6.938295e+00 -3.764955e-01 8.896180e+00
      vertex   -6.871299e+00 -4.359609e-01 8.948340e+00
    endloop
  endfacet
  facet normal -6.352472e-01 -3.913348e-02 7.713168e-01
    outer loop
      vertex   -6.871299e+00 -4.359609e-01 8.948340e+00
      vertex   -6.938295e+00 -3.764955e-01 8.896180e+00
      vertex   -6.934385e+00 -4.399635e-01 8.896180e+00
    endloop
  endfacet
  facet normal -6.348533e-01 -4.522601e-02 7.713079e-01
    outer loop
      vertex   -6.871299e+00 -4.359609e-01 8.948340e+00
      vertex   -6.934385e+00 -4.399635e-01 8.896180e+00
      vertex   -6.866805e+00 -4.990357e-01 8.948340e+00
    endloop
  endfacet
  facet normal -6.395227e-01 -5.797263e-02 7.665833e-01
    outer loop
      vertex   -6.981483e+00 -6.371651e-01 8.843524e+00
      vertex   -6.918883e+00 -6.314519e-01 8.896180e+00
      vertex   -6.987337e+00 -5.725836e-01 8.843524e+00
    endloop
  endfacet
  facet normal -6.395227e-01 -5.797263e-02 7.665833e-01
    outer loop
      vertex   -6.987337e+00 -5.725836e-01 8.843524e+00
      vertex   -6.918883e+00 -6.314519e-01 8.896180e+00
      vertex   -6.924685e+00 -5.674495e-01 8.896180e+00
    endloop
  endfacet
  facet normal -6.400389e-01 -5.179200e-02 7.665949e-01
    outer loop
      vertex   -6.987337e+00 -5.725836e-01 8.843524e+00
      vertex   -6.924685e+00 -5.674495e-01 8.896180e+00
      vertex   -6.992549e+00 -5.081740e-01 8.843524e+00
    endloop
  endfacet
  facet normal -6.333181e-01 -6.360382e-02 7.712734e-01
    outer loop
      vertex   -6.849553e+00 -6.892882e-01 8.948340e+00
      vertex   -6.855938e+00 -6.257072e-01 8.948340e+00
      vertex   -6.918883e+00 -6.314519e-01 8.896180e+00
    endloop
  endfacet
  facet normal -6.338893e-01 -5.746197e-02 7.712862e-01
    outer loop
      vertex   -6.918883e+00 -6.314519e-01 8.896180e+00
      vertex   -6.855938e+00 -6.257072e-01 8.948340e+00
      vertex   -6.924685e+00 -5.674495e-01 8.896180e+00
    endloop
  endfacet
  facet normal -6.333181e-01 -6.360382e-02 7.712734e-01
    outer loop
      vertex   -6.849553e+00 -6.892882e-01 8.948340e+00
      vertex   -6.918883e+00 -6.314519e-01 8.896180e+00
      vertex   -6.912439e+00 -6.956166e-01 8.896180e+00
    endloop
  endfacet
  facet normal -6.389462e-01 -6.416905e-02 7.665703e-01
    outer loop
      vertex   -6.912439e+00 -6.956166e-01 8.896180e+00
      vertex   -6.918883e+00 -6.314519e-01 8.896180e+00
      vertex   -6.981483e+00 -6.371651e-01 8.843524e+00
    endloop
  endfacet
  facet normal -6.326868e-01 -6.976052e-02 7.712593e-01
    outer loop
      vertex   -6.849553e+00 -6.892882e-01 8.948340e+00
      vertex   -6.912439e+00 -6.956166e-01 8.896180e+00
      vertex   -6.842525e+00 -7.530219e-01 8.948340e+00
    endloop
  endfacet
  facet normal -6.368507e-01 -8.284478e-02 7.665232e-01
    outer loop
      vertex   -6.951530e+00 -8.970455e-01 8.843524e+00
      vertex   -6.889198e+00 -8.890021e-01 8.896180e+00
      vertex   -6.960009e+00 -8.318590e-01 8.843524e+00
    endloop
  endfacet
  facet normal -6.368507e-01 -8.284478e-02 7.665232e-01
    outer loop
      vertex   -6.960009e+00 -8.318590e-01 8.843524e+00
      vertex   -6.889198e+00 -8.890021e-01 8.896180e+00
      vertex   -6.897602e+00 -8.244001e-01 8.896180e+00
    endloop
  endfacet
  facet normal -6.376108e-01 -7.660596e-02 7.665403e-01
    outer loop
      vertex   -6.960009e+00 -8.318590e-01 8.843524e+00
      vertex   -6.897602e+00 -8.244001e-01 8.896180e+00
      vertex   -6.967825e+00 -7.668111e-01 8.843524e+00
    endloop
  endfacet
  facet normal -6.304270e-01 -8.831135e-02 7.712087e-01
    outer loop
      vertex   -6.817538e+00 -9.450561e-01 8.948340e+00
      vertex   -6.826523e+00 -8.809143e-01 8.948340e+00
      vertex   -6.889198e+00 -8.890021e-01 8.896180e+00
    endloop
  endfacet
  facet normal -6.312418e-01 -8.211513e-02 7.712269e-01
    outer loop
      vertex   -6.889198e+00 -8.890021e-01 8.896180e+00
      vertex   -6.826523e+00 -8.809143e-01 8.948340e+00
      vertex   -6.897602e+00 -8.244001e-01 8.896180e+00
    endloop
  endfacet
  facet normal -6.360285e-01 -8.909602e-02 7.665048e-01
    outer loop
      vertex   -6.942380e+00 -9.623618e-01 8.843524e+00
      vertex   -6.880131e+00 -9.537327e-01 8.896180e+00
      vertex   -6.951530e+00 -8.970455e-01 8.843524e+00
    endloop
  endfacet
  facet normal -6.360285e-01 -8.909602e-02 7.665048e-01
    outer loop
      vertex   -6.951530e+00 -8.970455e-01 8.843524e+00
      vertex   -6.880131e+00 -9.537327e-01 8.896180e+00
      vertex   -6.889198e+00 -8.890021e-01 8.896180e+00
    endloop
  endfacet
  facet normal -6.304270e-01 -8.831135e-02 7.712087e-01
    outer loop
      vertex   -6.880131e+00 -9.537327e-01 8.896180e+00
      vertex   -6.817538e+00 -9.450561e-01 8.948340e+00
      vertex   -6.889198e+00 -8.890021e-01 8.896180e+00
    endloop
  endfacet
  facet normal -9.376091e-16 1.000000e+00 9.817139e-16
    outer loop
      vertex   -7.000000e+00 -8.379017e-16 8.853509e+00
      vertex   -6.911477e+00 -8.272603e-16 8.927215e+00
      vertex   -7.000000e+00 0.000000e+00 8.000000e+00
    endloop
  endfacet
  facet normal -0.000000e+00 1.000000e+00 8.921990e-16
    outer loop
      vertex   -7.000000e+00 0.000000e+00 8.000000e+00
      vertex   -6.911477e+00 -8.272603e-16 8.927215e+00
      vertex   -6.000000e+00 0.000000e+00 8.000000e+00
    endloop
  endfacet
  facet normal -4.699455e-16 1.000000e+00 4.302299e-16
    outer loop
      vertex   -6.000000e+00 0.000000e+00 8.000000e+00
      vertex   -6.911477e+00 -8.272603e-16 8.927215e+00
      vertex   -6.822200e+00 -8.166189e-16 9.000000e+00
    endloop
  endfacet
  facet normal -9.932124e-16 1.000000e+00 0.000000e+00
    outer loop
      vertex   -6.000000e+00 0.000000e+00 8.000000e+00
      vertex   -6.822200e+00 -8.166189e-16 9.000000e+00
      vertex   -6.000000e+00 0.000000e+00 9.000000e+00
    endloop
  endfacet
  facet normal -0.000000e+00 0.000000e+00 1.000000e+00
    outer loop
      vertex   -6.822200e+00 -8.166189e-16 9.000000e+00
      vertex   -6.821897e+00 -6.277537e-02 9.000000e+00
      vertex   -6.000000e+00 0.000000e+00 9.000000e+00
    endloop
  endfacet
  facet normal 0.000000e+00 0.000000e+00 1.000000e+00
    outer loop
      vertex   -6.000000e+00 0.000000e+00 9.000000e+00
      vertex   -6.821897e+00 -6.277537e-02 9.000000e+00
      vertex   -6.820991e+00 -1.255334e-01 9.000000e+00
    endloop
  endfacet
  facet normal 0.000000e+00 0.000000e+00 1.000000e+00
    outer loop
      vertex   -6.000000e+00 0.000000e+00 9.000000e+00
      vertex   -6.820991e+00 -1.255334e-01 9.000000e+00
      vertex   -6.819480e+00 -1.882700e-01 9.000000e+00
    endloop
  endfacet
  facet normal -0.000000e+00 0.000000e+00 1.000000e+00
    outer loop
      vertex   -6.819480e+00 -1.882700e-01 9.000000e+00
      vertex   -6.817366e+00 -2.509810e-01 9.000000e+00
      vertex   -6.000000e+00 0.000000e+00 9.000000e+00
    endloop
  endfacet
  facet normal 0.000000e+00 0.000000e+00 1.000000e+00
    outer loop
      vertex   -6.000000e+00 0.000000e+00 9.000000e+00
      vertex   -6.817366e+00 -2.509810e-01 9.000000e+00
      vertex   -6.814648e+00 -3.136622e-01 9.000000e+00
    endloop
  endfacet
  facet normal 0.000000e+00 0.000000e+00 1.000000e+00
    outer loop
      vertex   -6.000000e+00 0.000000e+00 9.000000e+00
      vertex   -6.814648e+00 -3.136622e-01 9.000000e+00
      vertex   -6.811328e+00 -3.763095e-01 9.000000e+00
    endloop
  endfacet
  facet normal -0.000000e+00 0.000000e+00 1.000000e+00
    outer loop
      vertex   -6.811328e+00 -3.763095e-01 9.000000e+00
      vertex   -6.807405e+00 -4.389186e-01 9.000000e+00
      vertex   -6.000000e+00 0.000000e+00 9.000000e+00
    endloop
  endfacet
  facet normal 0.000000e+00 0.000000e+00 1.000000e+00
    outer loop
      vertex   -6.000000e+00 0.000000e+00 9.000000e+00
      vertex   -6.807405e+00 -4.389186e-01 9.000000e+00
      vertex   -6.802880e+00 -5.014855e-01 9.000000e+00
    endloop
  endfacet
  facet normal 0.000000e+00 0.000000e+00 1.000000e+00
    outer loop
      vertex   -6.000000e+00 0.000000e+00 9.000000e+00
      vertex   -6.802880e+00 -5.014855e-01 9.000000e+00
      vertex   -6.797753e+00 -5.640060e-01 9.000000e+00
    endloop
  endfacet
  facet normal 0.000000e+00 0.000000e+00 1.000000e+00
    outer loop
      vertex   -6.000000e+00 0.000000e+00 9.000000e+00
      vertex   -6.797753e+00 -5.640060e-01 9.000000e+00
      vertex   -6.000000e+00 -1.000000e+00 9.000000e+00
    endloop
  endfacet
  facet normal 0.000000e+00 0.000000e+00 1.000000e+00
    outer loop
      vertex   -6.000000e+00 -1.000000e+00 9.000000e+00
      vertex   -6.797753e+00 -5.640060e-01 9.000000e+00
      vertex   -6.792025e+00 -6.264759e-01 9.000000e+00
    endloop
  endfacet
  facet normal 0.000000e+00 0.000000e+00 1.000000e+00
    outer loop
      vertex   -6.000000e+00 -1.000000e+00 9.000000e+00
      vertex   -6.792025e+00 -6.264759e-01 9.000000e+00
      vertex   -6.785696e+00 -6.888910e-01 9.000000e+00
    endloop
  endfacet
  facet normal 0.000000e+00 0.000000e+00 1.000000e+00
    outer loop
      vertex   -6.785696e+00 -6.888910e-01 9.000000e+00
      vertex   -6.778766e+00 -7.512473e-01 9.000000e+00
      vertex   -6.000000e+00 -1.000000e+00 9.000000e+00
    endloop
  endfacet
  facet normal 0.000000e+00 0.000000e+00 1.000000e+00
    outer loop
      vertex   -6.000000e+00 -1.000000e+00 9.000000e+00
      vertex   -6.778766e+00 -7.512473e-01 9.000000e+00
      vertex   -6.771236e+00 -8.135405e-01 9.000000e+00
    endloop
  endfacet
  facet normal 0.000000e+00 0.000000e+00 1.000000e+00
    outer loop
      vertex   -6.000000e+00 -1.000000e+00 9.000000e+00
      vertex   -6.771236e+00 -8.135405e-01 9.000000e+00
      vertex   -6.763106e+00 -8.757664e-01 9.000000e+00
    endloop
  endfacet
  facet normal 0.000000e+00 0.000000e+00 1.000000e+00
    outer loop
      vertex   -6.763106e+00 -8.757664e-01 9.000000e+00
      vertex   -6.754377e+00 -9.379210e-01 9.000000e+00
      vertex   -6.000000e+00 -1.000000e+00 9.000000e+00
    endloop
  endfacet
  facet normal 0.000000e+00 0.000000e+00 1.000000e+00
    outer loop
      vertex   -6.000000e+00 -1.000000e+00 9.000000e+00
      vertex   -6.754377e+00 -9.379210e-01 9.000000e+00
      vertex   -6.745049e+00 -1.000000e+00 9.000000e+00
    endloop
  endfacet
  facet normal 0.000000e+00 0.000000e+00 -1.000000e+00
    outer loop
      vertex   -6.000000e+00 -1.000000e+00 8.000000e+00
      vertex   -7.000000e+00 -1.000000e+00 8.000000e+00
      vertex   -6.000000e+00 0.000000e+00 8.000000e+00
    endloop
  endfacet
  facet normal -0.000000e+00 0.000000e+00 -1.000000e+00
    outer loop
      vertex   -6.000000e+00 0.000000e+00 8.000000e+00
      vertex   -7.000000e+00 -1.000000e+00 8.000000e+00
      vertex   -7.000000e+00 0.000000e+00 8.000000e+00
    endloop
  endfacet
  facet normal -0.000000e+00 -1.000000e+00 -0.000000e+00
    outer loop
      vertex   -6.000000e+00 -1.000000e+00 9.000000e+00
      vertex   -6.745049e+00 -1.000000e+00 9.000000e+00
      vertex   -6.000000e+00 -1.000000e+00 8.000000e+00
    endloop
  endfacet
  facet normal 0.000000e+00 -1.000000e+00 0.000000e+00
    outer loop
      vertex   -6.000000e+00 -1.000000e+00 8.000000e+00
      vertex   -6.745049e+00 -1.000000e+00 9.000000e+00
      vertex   -6.809369e+00 -1.000000e+00 8.948308e+00
    endloop
  endfacet
  facet normal 0.000000e+00 -1.000000e+00 0.000000e+00
    outer loop
      vertex   -6.000000e+00 -1.000000e+00 8.000000e+00
      vertex   -6.809369e+00 -1.000000e+00 8.948308e+00
      vertex   -6.873302e+00 -1.000000e+00 8.896138e+00
    endloop
  endfacet
  facet normal 0.000000e+00 -1.000000e+00 0.000000e+00
    outer loop
      vertex   -6.000000e+00 -1.000000e+00 8.000000e+00
      vertex   -6.873302e+00 -1.000000e+00 8.896138e+00
      vertex   -7.000000e+00 -1.000000e+00 8.000000e+00
    endloop
  endfacet
  facet normal 0.000000e+00 -1.000000e+00 0.000000e+00
    outer loop
      vertex   -7.000000e+00 -1.000000e+00 8.000000e+00
      vertex   -6.873302e+00 -1.000000e+00 8.896138e+00
      vertex   -6.936846e+00 -1.000000e+00 8.843493e+00
    endloop
  endfacet
  facet normal 0.000000e+00 -1.000000e+00 0.000000e+00
    outer loop
      vertex   -7.000000e+00 -1.000000e+00 8.000000e+00
      vertex   -6.936846e+00 -1.000000e+00 8.843493e+00
      vertex   -7.000000e+00 -1.000000e+00 8.790375e+00
    endloop
  endfacet
  facet normal -1.000000e+00 0.000000e+00 0.000000e+00
    outer loop
      vertex   -7.000000e+00 -1.000000e+00 8.790375e+00
      vertex   -7.000000e+00 -8.754794e-01 8.805160e+00
      vertex   -7.000000e+00 -1.000000e+00 8.000000e+00
    endloop
  endfacet
  facet normal -1.000000e+00 0.000000e+00 0.000000e+00
    outer loop
      vertex   -7.000000e+00 -1.000000e+00 8.000000e+00
      vertex   -7.000000e+00 -8.754794e-01 8.805160e+00
      vertex   -7.000000e+00 -7.507799e-01 8.817978e+00
    endloop
  endfacet
  facet normal -1.000000e+00 0.000000e+00 0.000000e+00
    outer loop
      vertex   -7.000000e+00 -1.000000e+00 8.000000e+00
      vertex   -7.000000e+00 -7.507799e-01 8.817978e+00
      vertex   -7.000000e+00 -6.259225e-01 8.828828e+00
    endloop
  endfacet
  facet normal -1.000000e+00 0.000000e+00 -0.000000e+00
    outer loop
      vertex   -7.000000e+00 -6.259225e-01 8.828828e+00
      vertex   -7.000000e+00 -5.009282e-01 8.837709e+00
      vertex   -7.000000e+00 -1.000000e+00 8.000000e+00
    endloop
  endfacet
  facet normal -1.000000e+00 0.000000e+00 0.000000e+00
    outer loop
      vertex   -7.000000e+00 -1.000000e+00 8.000000e+00
      vertex   -7.000000e+00 -5.009282e-01 8.837709e+00
      vertex   -7.000000e+00 0.000000e+00 8.000000e+00
    endloop
  endfacet
  facet normal -1.000000e+00 0.000000e+00 0.000000e+00
    outer loop
      vertex   -7.000000e+00 0.000000e+00 8.000000e+00
      vertex   -7.000000e+00 -5.009282e-01 8.837709e+00
      vertex   -7.000000e+00 -3.758178e-01 8.844619e+00
    endloop
  endfacet
  facet normal -1.000000e+00 1.394287e-14 6.203955e-15
    outer loop
      vertex   -7.000000e+00 0.000000e+00 8.000000e+00
      vertex   -7.000000e+00 -3.758178e-01 8.844619e+00
      vertex   -7.000000e+00 -2.506123e-01 8.849557e+00
    endloop
  endfacet
  facet normal -1.000000e+00 -1.413000e-14 -2.077312e-15
    outer loop
      vertex   -7.000000e+00 -2.506123e-01 8.849557e+00
      vertex   -7.000000e+00 -1.253328e-01 8.852521e+00
      vertex   -7.000000e+00 0.000000e+00 8.000000e+00
    endloop
  endfacet
  facet normal -1.000000e+00 0.000000e+00 0.000000e+00
    outer loop
      vertex   -7.000000e+00 0.000000e+00 8.000000e+00
      vertex   -7.000000e+00 -1.253328e-01 8.852521e+00
      vertex   -7.000000e+00 -8.379017e-16 8.853509e+00
    endloop
  endfacet
  facet normal 1.000000e+00 -0.000000e+00 0.000000e+00
    outer loop
      vertex   -6.000000e+00 -1.000000e+00 9.000000e+00
      vertex   -6.000000e+00 -1.000000e+00 8.000000e+00
      vertex   -6.000000e+00 0.000000e+00 9.000000e+00
    endloop
  endfacet
  facet normal 1.000000e+00 0.000000e+00 0.000000e+00
    outer loop
      vertex   -6.000000e+00 0.000000e+00 9.000000e+00
      vertex   -6.000000e+00 -1.000000e+00 8.000000e+00
      vertex   -6.000000e+00 0.000000e+00 8.000000e+00
    endloop
  endfacet
endsolid
