solid ASCII
  facet normal 1.800225e-01 -4.714340e-01 8.633318e-01
    outer loop
      vertex   2.000000e+00 -4.856610e+00 1.000000e+01
      vertex   1.897976e+00 -4.895569e+00 1.000000e+01
      vertex   2.000000e+00 -4.928457e+00 9.960767e+00
    endloop
  endfacet
  facet normal 1.792441e-01 -4.730120e-01 8.626304e-01
    outer loop
      vertex   2.000000e+00 -4.928457e+00 9.960767e+00
      vertex   1.897976e+00 -4.895569e+00 1.000000e+01
      vertex   1.921548e+00 -4.958212e+00 9.960752e+00
    endloop
  endfacet
  facet normal 1.811649e-01 -4.780747e-01 8.594323e-01
    outer loop
      vertex   2.000000e+00 -4.928457e+00 9.960767e+00
      vertex   1.921548e+00 -4.958212e+00 9.960752e+00
      vertex   2.000000e+00 -5.000000e+00 9.920970e+00
    endloop
  endfacet
  facet normal 1.792280e-01 -4.807018e-01 8.583724e-01
    outer loop
      vertex   2.000000e+00 -5.000000e+00 9.920970e+00
      vertex   1.921548e+00 -4.958212e+00 9.960752e+00
      vertex   1.897254e+00 -5.000000e+00 9.942423e+00
    endloop
  endfacet
  facet normal 1.713856e-01 -4.776013e-01 8.616983e-01
    outer loop
      vertex   1.897254e+00 -5.000000e+00 9.942423e+00
      vertex   1.921548e+00 -4.958212e+00 9.960752e+00
      vertex   1.817248e+00 -4.995640e+00 9.960752e+00
    endloop
  endfacet
  facet normal 1.681243e-01 -4.960623e-01 8.518547e-01
    outer loop
      vertex   1.897254e+00 -5.000000e+00 9.942423e+00
      vertex   1.817248e+00 -4.995640e+00 9.960752e+00
      vertex   1.794274e+00 -5.000000e+00 9.962748e+00
    endloop
  endfacet
  facet normal 1.656394e-01 -4.780694e-01 8.625620e-01
    outer loop
      vertex   1.794274e+00 -5.000000e+00 9.962748e+00
      vertex   1.817248e+00 -4.995640e+00 9.960752e+00
      vertex   1.795221e+00 -4.932459e+00 1.000000e+01
    endloop
  endfacet
  facet normal 1.609826e-01 -4.783916e-01 8.632648e-01
    outer loop
      vertex   1.794274e+00 -5.000000e+00 9.962748e+00
      vertex   1.795221e+00 -4.932459e+00 1.000000e+01
      vertex   1.691767e+00 -4.967272e+00 1.000000e+01
    endloop
  endfacet
  facet normal 1.709324e-01 -4.761239e-01 8.626054e-01
    outer loop
      vertex   1.897976e+00 -4.895569e+00 1.000000e+01
      vertex   1.795221e+00 -4.932459e+00 1.000000e+01
      vertex   1.921548e+00 -4.958212e+00 9.960752e+00
    endloop
  endfacet
  facet normal 1.708942e-01 -4.762320e-01 8.625533e-01
    outer loop
      vertex   1.921548e+00 -4.958212e+00 9.960752e+00
      vertex   1.795221e+00 -4.932459e+00 1.000000e+01
      vertex   1.817248e+00 -4.995640e+00 9.960752e+00
    endloop
  endfacet
  facet normal 1.508984e-01 -4.800611e-01 8.641591e-01
    outer loop
      vertex   1.587647e+00 -5.000000e+00 1.000000e+01
      vertex   1.691068e+00 -5.000000e+00 9.981941e+00
      vertex   1.691767e+00 -4.967272e+00 1.000000e+01
    endloop
  endfacet
  facet normal 1.604466e-01 -4.794900e-01 8.627550e-01
    outer loop
      vertex   1.691767e+00 -4.967272e+00 1.000000e+01
      vertex   1.691068e+00 -5.000000e+00 9.981941e+00
      vertex   1.794274e+00 -5.000000e+00 9.962748e+00
    endloop
  endfacet
  facet normal -0.000000e+00 -1.000000e+00 -0.000000e+00
    outer loop
      vertex   2.000000e+00 -5.000000e+00 9.920970e+00
      vertex   1.897254e+00 -5.000000e+00 9.942423e+00
      vertex   2.000000e+00 -5.000000e+00 9.000000e+00
    endloop
  endfacet
  facet normal 0.000000e+00 -1.000000e+00 0.000000e+00
    outer loop
      vertex   2.000000e+00 -5.000000e+00 9.000000e+00
      vertex   1.897254e+00 -5.000000e+00 9.942423e+00
      vertex   1.794274e+00 -5.000000e+00 9.962748e+00
    endloop
  endfacet
  facet normal 0.000000e+00 -1.000000e+00 0.000000e+00
    outer loop
      vertex   2.000000e+00 -5.000000e+00 9.000000e+00
      vertex   1.794274e+00 -5.000000e+00 9.962748e+00
      vertex   1.691068e+00 -5.000000e+00 9.981941e+00
    endloop
  endfacet
  facet normal -0.000000e+00 -1.000000e+00 -0.000000e+00
    outer loop
      vertex   1.691068e+00 -5.000000e+00 9.981941e+00
      vertex   1.587647e+00 -5.000000e+00 1.000000e+01
      vertex   2.000000e+00 -5.000000e+00 9.000000e+00
    endloop
  endfacet
  facet normal 0.000000e+00 -1.000000e+00 0.000000e+00
    outer loop
      vertex   2.000000e+00 -5.000000e+00 9.000000e+00
      vertex   1.587647e+00 -5.000000e+00 1.000000e+01
      vertex   1.000000e+00 -5.000000e+00 9.000000e+00
    endloop
  endfacet
  facet normal 0.000000e+00 -1.000000e+00 0.000000e+00
    outer loop
      vertex   1.000000e+00 -5.000000e+00 9.000000e+00
      vertex   1.587647e+00 -5.000000e+00 1.000000e+01
      vertex   1.000000e+00 -5.000000e+00 1.000000e+01
    endloop
  endfacet
  facet normal 0.000000e+00 0.000000e+00 1.000000e+00
    outer loop
      vertex   1.000000e+00 -5.000000e+00 1.000000e+01
      vertex   1.587647e+00 -5.000000e+00 1.000000e+01
      vertex   1.000000e+00 -4.000000e+00 1.000000e+01
    endloop
  endfacet
  facet normal 0.000000e+00 0.000000e+00 1.000000e+00
    outer loop
      vertex   1.000000e+00 -4.000000e+00 1.000000e+01
      vertex   1.587647e+00 -5.000000e+00 1.000000e+01
      vertex   1.691767e+00 -4.967272e+00 1.000000e+01
    endloop
  endfacet
  facet normal -0.000000e+00 0.000000e+00 1.000000e+00
    outer loop
      vertex   1.000000e+00 -4.000000e+00 1.000000e+01
      vertex   1.691767e+00 -4.967272e+00 1.000000e+01
      vertex   2.000000e+00 -4.000000e+00 1.000000e+01
    endloop
  endfacet
  facet normal 0.000000e+00 0.000000e+00 1.000000e+00
    outer loop
      vertex   2.000000e+00 -4.000000e+00 1.000000e+01
      vertex   1.691767e+00 -4.967272e+00 1.000000e+01
      vertex   1.795221e+00 -4.932459e+00 1.000000e+01
    endloop
  endfacet
  facet normal 0.000000e+00 0.000000e+00 1.000000e+00
    outer loop
      vertex   2.000000e+00 -4.000000e+00 1.000000e+01
      vertex   1.795221e+00 -4.932459e+00 1.000000e+01
      vertex   1.897976e+00 -4.895569e+00 1.000000e+01
    endloop
  endfacet
  facet normal 0.000000e+00 0.000000e+00 1.000000e+00
    outer loop
      vertex   1.897976e+00 -4.895569e+00 1.000000e+01
      vertex   2.000000e+00 -4.856610e+00 1.000000e+01
      vertex   2.000000e+00 -4.000000e+00 1.000000e+01
    endloop
  endfacet
  facet normal 0.000000e+00 0.000000e+00 -1.000000e+00
    outer loop
      vertex   2.000000e+00 -5.000000e+00 9.000000e+00
      vertex   1.000000e+00 -5.000000e+00 9.000000e+00
      vertex   2.000000e+00 -4.000000e+00 9.000000e+00
    endloop
  endfacet
  facet normal -0.000000e+00 0.000000e+00 -1.000000e+00
    outer loop
      vertex   2.000000e+00 -4.000000e+00 9.000000e+00
      vertex   1.000000e+00 -5.000000e+00 9.000000e+00
      vertex   1.000000e+00 -4.000000e+00 9.000000e+00
    endloop
  endfacet
  facet normal -1.000000e+00 -0.000000e+00 -0.000000e+00
    outer loop
      vertex   1.000000e+00 -4.000000e+00 1.000000e+01
      vertex   1.000000e+00 -4.000000e+00 9.000000e+00
      vertex   1.000000e+00 -5.000000e+00 1.000000e+01
    endloop
  endfacet
  facet normal -1.000000e+00 0.000000e+00 0.000000e+00
    outer loop
      vertex   1.000000e+00 -5.000000e+00 1.000000e+01
      vertex   1.000000e+00 -4.000000e+00 9.000000e+00
      vertex   1.000000e+00 -5.000000e+00 9.000000e+00
    endloop
  endfacet
  facet normal 0.000000e+00 1.000000e+00 0.000000e+00
    outer loop
      vertex   2.000000e+00 -4.000000e+00 1.000000e+01
      vertex   2.000000e+00 -4.000000e+00 9.000000e+00
      vertex   1.000000e+00 -4.000000e+00 1.000000e+01
    endloop
  endfacet
  facet normal 0.000000e+00 1.000000e+00 0.000000e+00
    outer loop
      vertex   1.000000e+00 -4.000000e+00 1.000000e+01
      vertex   2.000000e+00 -4.000000e+00 9.000000e+00
      vertex   1.000000e+00 -4.000000e+00 9.000000e+00
    endloop
  endfacet
  facet normal 1.000000e+00 -0.000000e+00 0.000000e+00
    outer loop
      vertex   2.000000e+00 -4.928457e+00 9.960767e+00
      vertex   2.000000e+00 -5.000000e+00 9.000000e+00
      vertex   2.000000e+00 -4.856610e+00 1.000000e+01
    endloop
  endfacet
  facet normal 1.000000e+00 0.000000e+00 0.000000e+00
    outer loop
      vertex   2.000000e+00 -4.856610e+00 1.000000e+01
      vertex   2.000000e+00 -5.000000e+00 9.000000e+00
      vertex   2.000000e+00 -4.000000e+00 9.000000e+00
    endloop
  endfacet
  facet normal 1.000000e+00 -0.000000e+00 0.000000e+00
    outer loop
      vertex   2.000000e+00 -4.856610e+00 1.000000e+01
      vertex   2.000000e+00 -4.000000e+00 9.000000e+00
      vertex   2.000000e+00 -4.000000e+00 1.000000e+01
    endloop
  endfacet
  facet normal 1.000000e+00 0.000000e+00 0.000000e+00
    outer loop
      vertex   2.000000e+00 -4.928457e+00 9.960767e+00
      vertex   2.000000e+00 -5.000000e+00 9.920970e+00
      vertex   2.000000e+00 -5.000000e+00 9.000000e+00
    endloop
  endfacet
endsolid
