solid ASCII
  facet normal -2.075451e-01 -1.940191e-01 9.587918e-01
    outer loop
      vertex   -2.183746e+00 -2.000000e+00 1.100000e+01
      vertex   -2.234387e+00 -1.945828e+00 1.100000e+01
      vertex   -2.286649e+00 -2.000000e+00 1.097772e+01
    endloop
  endfacet
  facet normal -2.110013e-01 -1.906522e-01 9.587128e-01
    outer loop
      vertex   -2.286649e+00 -2.000000e+00 1.097772e+01
      vertex   -2.234387e+00 -1.945828e+00 1.100000e+01
      vertex   -2.298009e+00 -1.993517e+00 1.097651e+01
    endloop
  endfacet
  facet normal -2.167354e-01 -2.013475e-01 9.552408e-01
    outer loop
      vertex   -2.286649e+00 -2.000000e+00 1.097772e+01
      vertex   -2.298009e+00 -1.993517e+00 1.097651e+01
      vertex   -2.389337e+00 -2.000000e+00 1.095443e+01
    endloop
  endfacet
  facet normal -2.177576e-01 -1.924199e-01 9.568470e-01
    outer loop
      vertex   -2.389337e+00 -2.000000e+00 1.095443e+01
      vertex   -2.298009e+00 -1.993517e+00 1.097651e+01
      vertex   -2.352202e+00 -1.932188e+00 1.097651e+01
    endloop
  endfacet
  facet normal -2.208972e-01 -1.905857e-01 9.564944e-01
    outer loop
      vertex   -2.389337e+00 -2.000000e+00 1.095443e+01
      vertex   -2.352202e+00 -1.932188e+00 1.097651e+01
      vertex   -2.413405e+00 -1.982462e+00 1.095236e+01
    endloop
  endfacet
  facet normal -2.237226e-01 -1.871560e-01 9.565149e-01
    outer loop
      vertex   -2.413405e+00 -1.982462e+00 1.095236e+01
      vertex   -2.352202e+00 -1.932188e+00 1.097651e+01
      vertex   -2.467189e+00 -1.918170e+00 1.095236e+01
    endloop
  endfacet
  facet normal -2.283089e-01 -1.909927e-01 9.546711e-01
    outer loop
      vertex   -2.413405e+00 -1.982462e+00 1.095236e+01
      vertex   -2.467189e+00 -1.918170e+00 1.095236e+01
      vertex   -2.491786e+00 -2.000000e+00 1.093011e+01
    endloop
  endfacet
  facet normal -2.308514e-01 -1.901101e-01 9.542357e-01
    outer loop
      vertex   -2.491786e+00 -2.000000e+00 1.093011e+01
      vertex   -2.467189e+00 -1.918170e+00 1.095236e+01
      vertex   -2.529735e+00 -1.966798e+00 1.092754e+01
    endloop
  endfacet
  facet normal -2.359213e-01 -1.960945e-01 9.517815e-01
    outer loop
      vertex   -2.491786e+00 -2.000000e+00 1.093011e+01
      vertex   -2.529735e+00 -1.966798e+00 1.092754e+01
      vertex   -2.593975e+00 -2.000000e+00 1.090478e+01
    endloop
  endfacet
  facet normal -2.394617e-01 -1.895476e-01 9.522236e-01
    outer loop
      vertex   -2.593975e+00 -2.000000e+00 1.090478e+01
      vertex   -2.529735e+00 -1.966798e+00 1.092754e+01
      vertex   -2.582965e+00 -1.899551e+00 1.092754e+01
    endloop
  endfacet
  facet normal -2.408525e-01 -1.893257e-01 9.519169e-01
    outer loop
      vertex   -2.593975e+00 -2.000000e+00 1.090478e+01
      vertex   -2.582965e+00 -1.899551e+00 1.092754e+01
      vertex   -2.646801e+00 -1.946496e+00 1.090205e+01
    endloop
  endfacet
  facet normal -2.451584e-01 -1.834938e-01 9.519598e-01
    outer loop
      vertex   -2.646801e+00 -1.946496e+00 1.090205e+01
      vertex   -2.582965e+00 -1.899551e+00 1.092754e+01
      vertex   -2.699332e+00 -1.876312e+00 1.090205e+01
    endloop
  endfacet
  facet normal -2.510979e-01 -1.879393e-01 9.495413e-01
    outer loop
      vertex   -2.646801e+00 -1.946496e+00 1.090205e+01
      vertex   -2.699332e+00 -1.876312e+00 1.090205e+01
      vertex   -2.764401e+00 -1.921541e+00 1.087590e+01
    endloop
  endfacet
  facet normal -2.559502e-01 -1.809900e-01 9.495958e-01
    outer loop
      vertex   -2.764401e+00 -1.921541e+00 1.087590e+01
      vertex   -2.699332e+00 -1.876312e+00 1.090205e+01
      vertex   -2.816090e+00 -1.848445e+00 1.087590e+01
    endloop
  endfacet
  facet normal -2.619986e-01 -1.852670e-01 9.471182e-01
    outer loop
      vertex   -2.764401e+00 -1.921541e+00 1.087590e+01
      vertex   -2.816090e+00 -1.848445e+00 1.087590e+01
      vertex   -2.882335e+00 -1.891928e+00 1.084906e+01
    endloop
  endfacet
  facet normal -2.667666e-01 -1.780373e-01 9.471739e-01
    outer loop
      vertex   -2.882335e+00 -1.891928e+00 1.084906e+01
      vertex   -2.816090e+00 -1.848445e+00 1.087590e+01
      vertex   -2.933040e+00 -1.815953e+00 1.084906e+01
    endloop
  endfacet
  facet normal -2.728084e-01 -1.820695e-01 9.446831e-01
    outer loop
      vertex   -2.882335e+00 -1.891928e+00 1.084906e+01
      vertex   -2.933040e+00 -1.815953e+00 1.084906e+01
      vertex   -3.000000e+00 -1.875941e+00 1.081817e+01
    endloop
  endfacet
  facet normal -2.779223e-01 -1.761697e-01 9.443111e-01
    outer loop
      vertex   -3.000000e+00 -1.875941e+00 1.081817e+01
      vertex   -2.933040e+00 -1.815953e+00 1.084906e+01
      vertex   -3.000000e+00 -1.751569e+00 1.084137e+01
    endloop
  endfacet
  facet normal -2.751072e-01 -1.730752e-01 9.457066e-01
    outer loop
      vertex   -3.000000e+00 -1.751569e+00 1.084137e+01
      vertex   -2.933040e+00 -1.815953e+00 1.084906e+01
      vertex   -2.981509e+00 -1.738910e+00 1.084906e+01
    endloop
  endfacet
  facet normal -2.812793e-01 -1.639454e-01 9.455178e-01
    outer loop
      vertex   -3.000000e+00 -1.751569e+00 1.084137e+01
      vertex   -2.981509e+00 -1.738910e+00 1.084906e+01
      vertex   -3.000000e+00 -1.626898e+00 1.086299e+01
    endloop
  endfacet
  facet normal -2.757428e-01 -1.632489e-01 9.472675e-01
    outer loop
      vertex   -3.000000e+00 -1.626898e+00 1.086299e+01
      vertex   -2.981509e+00 -1.738910e+00 1.084906e+01
      vertex   -2.958124e+00 -1.622720e+00 1.087590e+01
    endloop
  endfacet
  facet normal -2.772950e-01 -1.520475e-01 9.486775e-01
    outer loop
      vertex   -3.000000e+00 -1.626898e+00 1.086299e+01
      vertex   -2.958124e+00 -1.622720e+00 1.087590e+01
      vertex   -3.000000e+00 -1.501942e+00 1.088301e+01
    endloop
  endfacet
  facet normal -2.755635e-01 -1.514822e-01 9.492723e-01
    outer loop
      vertex   -3.000000e+00 -1.501942e+00 1.088301e+01
      vertex   -2.958124e+00 -1.622720e+00 1.087590e+01
      vertex   -2.930384e+00 -1.509254e+00 1.090205e+01
    endloop
  endfacet
  facet normal -2.751068e-01 -1.436026e-01 9.506285e-01
    outer loop
      vertex   -3.000000e+00 -1.501942e+00 1.088301e+01
      vertex   -2.930384e+00 -1.509254e+00 1.090205e+01
      vertex   -2.970067e+00 -1.433233e+00 1.090205e+01
    endloop
  endfacet
  facet normal -2.706591e-01 -1.412809e-01 9.522517e-01
    outer loop
      vertex   -2.970067e+00 -1.433233e+00 1.090205e+01
      vertex   -2.930384e+00 -1.509254e+00 1.090205e+01
      vertex   -2.859709e+00 -1.472853e+00 1.092754e+01
    endloop
  endfacet
  facet normal -2.706591e-01 -1.412809e-01 9.522517e-01
    outer loop
      vertex   -2.970067e+00 -1.433233e+00 1.090205e+01
      vertex   -2.859709e+00 -1.472853e+00 1.092754e+01
      vertex   -2.898434e+00 -1.398666e+00 1.092754e+01
    endloop
  endfacet
  facet normal -2.640915e-01 -1.378527e-01 9.545954e-01
    outer loop
      vertex   -2.898434e+00 -1.398666e+00 1.092754e+01
      vertex   -2.859709e+00 -1.472853e+00 1.092754e+01
      vertex   -2.789005e+00 -1.436438e+00 1.095236e+01
    endloop
  endfacet
  facet normal -2.640915e-01 -1.378527e-01 9.545954e-01
    outer loop
      vertex   -2.898434e+00 -1.398666e+00 1.092754e+01
      vertex   -2.789005e+00 -1.436438e+00 1.095236e+01
      vertex   -2.826772e+00 -1.364085e+00 1.095236e+01
    endloop
  endfacet
  facet normal -2.575185e-01 -1.344217e-01 9.568778e-01
    outer loop
      vertex   -2.826772e+00 -1.364085e+00 1.095236e+01
      vertex   -2.789005e+00 -1.436438e+00 1.095236e+01
      vertex   -2.718277e+00 -1.400010e+00 1.097651e+01
    endloop
  endfacet
  facet normal -2.575185e-01 -1.344217e-01 9.568778e-01
    outer loop
      vertex   -2.826772e+00 -1.364085e+00 1.095236e+01
      vertex   -2.718277e+00 -1.400010e+00 1.097651e+01
      vertex   -2.755087e+00 -1.329492e+00 1.097651e+01
    endloop
  endfacet
  facet normal -2.516309e-01 -1.313484e-01 9.588689e-01
    outer loop
      vertex   -2.755087e+00 -1.329492e+00 1.097651e+01
      vertex   -2.718277e+00 -1.400010e+00 1.097651e+01
      vertex   -2.660496e+00 -1.339252e+00 1.100000e+01
    endloop
  endfacet
  facet normal -2.514379e-01 -1.283933e-01 9.593196e-01
    outer loop
      vertex   -2.755087e+00 -1.329492e+00 1.097651e+01
      vertex   -2.660496e+00 -1.339252e+00 1.100000e+01
      vertex   -2.694300e+00 -1.273052e+00 1.100000e+01
    endloop
  endfacet
  facet normal -2.124191e-01 -1.887882e-01 9.587686e-01
    outer loop
      vertex   -2.234387e+00 -1.945828e+00 1.100000e+01
      vertex   -2.283678e+00 -1.890367e+00 1.100000e+01
      vertex   -2.298009e+00 -1.993517e+00 1.097651e+01
    endloop
  endfacet
  facet normal -2.134385e-01 -1.886033e-01 9.585785e-01
    outer loop
      vertex   -2.298009e+00 -1.993517e+00 1.097651e+01
      vertex   -2.283678e+00 -1.890367e+00 1.100000e+01
      vertex   -2.352202e+00 -1.932188e+00 1.097651e+01
    endloop
  endfacet
  facet normal -2.168605e-01 -1.831579e-01 9.588664e-01
    outer loop
      vertex   -2.283678e+00 -1.890367e+00 1.100000e+01
      vertex   -2.331590e+00 -1.833639e+00 1.100000e+01
      vertex   -2.352202e+00 -1.932188e+00 1.097651e+01
    endloop
  endfacet
  facet normal -2.184614e-01 -1.827547e-01 9.585798e-01
    outer loop
      vertex   -2.352202e+00 -1.932188e+00 1.097651e+01
      vertex   -2.331590e+00 -1.833639e+00 1.100000e+01
      vertex   -2.404622e+00 -1.869526e+00 1.097651e+01
    endloop
  endfacet
  facet normal -2.237226e-01 -1.871560e-01 9.565149e-01
    outer loop
      vertex   -2.352202e+00 -1.932188e+00 1.097651e+01
      vertex   -2.404622e+00 -1.869526e+00 1.097651e+01
      vertex   -2.467189e+00 -1.918170e+00 1.095236e+01
    endloop
  endfacet
  facet normal -2.285793e-01 -1.809336e-01 9.565639e-01
    outer loop
      vertex   -2.467189e+00 -1.918170e+00 1.095236e+01
      vertex   -2.404622e+00 -1.869526e+00 1.097651e+01
      vertex   -2.519103e+00 -1.852585e+00 1.095236e+01
    endloop
  endfacet
  facet normal -2.344097e-01 -1.855487e-01 9.542661e-01
    outer loop
      vertex   -2.467189e+00 -1.918170e+00 1.095236e+01
      vertex   -2.519103e+00 -1.852585e+00 1.095236e+01
      vertex   -2.582965e+00 -1.899551e+00 1.092754e+01
    endloop
  endfacet
  facet normal -2.392132e-01 -1.790439e-01 9.543167e-01
    outer loop
      vertex   -2.582965e+00 -1.899551e+00 1.092754e+01
      vertex   -2.519103e+00 -1.852585e+00 1.095236e+01
      vertex   -2.634229e+00 -1.831059e+00 1.092754e+01
    endloop
  endfacet
  facet normal -2.451584e-01 -1.834938e-01 9.519598e-01
    outer loop
      vertex   -2.582965e+00 -1.899551e+00 1.092754e+01
      vertex   -2.634229e+00 -1.831059e+00 1.092754e+01
      vertex   -2.699332e+00 -1.876312e+00 1.090205e+01
    endloop
  endfacet
  facet normal -2.498953e-01 -1.767084e-01 9.520118e-01
    outer loop
      vertex   -2.699332e+00 -1.876312e+00 1.090205e+01
      vertex   -2.634229e+00 -1.831059e+00 1.092754e+01
      vertex   -2.749804e+00 -1.804936e+00 1.090205e+01
    endloop
  endfacet
  facet normal -2.559502e-01 -1.809900e-01 9.495958e-01
    outer loop
      vertex   -2.699332e+00 -1.876312e+00 1.090205e+01
      vertex   -2.749804e+00 -1.804936e+00 1.090205e+01
      vertex   -2.816090e+00 -1.848445e+00 1.087590e+01
    endloop
  endfacet
  facet normal -2.606075e-01 -1.739268e-01 9.496490e-01
    outer loop
      vertex   -2.816090e+00 -1.848445e+00 1.087590e+01
      vertex   -2.749804e+00 -1.804936e+00 1.090205e+01
      vertex   -2.865629e+00 -1.774216e+00 1.087590e+01
    endloop
  endfacet
  facet normal -2.667666e-01 -1.780373e-01 9.471739e-01
    outer loop
      vertex   -2.816090e+00 -1.848445e+00 1.087590e+01
      vertex   -2.865629e+00 -1.774216e+00 1.087590e+01
      vertex   -2.933040e+00 -1.815953e+00 1.084906e+01
    endloop
  endfacet
  facet normal -2.713312e-01 -1.706996e-01 9.472281e-01
    outer loop
      vertex   -2.933040e+00 -1.815953e+00 1.084906e+01
      vertex   -2.865629e+00 -1.774216e+00 1.087590e+01
      vertex   -2.981509e+00 -1.738910e+00 1.084906e+01
    endloop
  endfacet
  facet normal -2.211955e-01 -1.774345e-01 9.589523e-01
    outer loop
      vertex   -2.331590e+00 -1.833639e+00 1.100000e+01
      vertex   -2.378096e+00 -1.775664e+00 1.100000e+01
      vertex   -2.404622e+00 -1.869526e+00 1.097651e+01
    endloop
  endfacet
  facet normal -2.232952e-01 -1.767509e-01 9.585919e-01
    outer loop
      vertex   -2.404622e+00 -1.869526e+00 1.097651e+01
      vertex   -2.378096e+00 -1.775664e+00 1.100000e+01
      vertex   -2.455219e+00 -1.805604e+00 1.097651e+01
    endloop
  endfacet
  facet normal -2.285793e-01 -1.809336e-01 9.565639e-01
    outer loop
      vertex   -2.404622e+00 -1.869526e+00 1.097651e+01
      vertex   -2.455219e+00 -1.805604e+00 1.097651e+01
      vertex   -2.519103e+00 -1.852585e+00 1.095236e+01
    endloop
  endfacet
  facet normal -2.332626e-01 -1.745901e-01 9.566122e-01
    outer loop
      vertex   -2.519103e+00 -1.852585e+00 1.095236e+01
      vertex   -2.455219e+00 -1.805604e+00 1.097651e+01
      vertex   -2.569099e+00 -1.785787e+00 1.095236e+01
    endloop
  endfacet
  facet normal -2.392132e-01 -1.790439e-01 9.543167e-01
    outer loop
      vertex   -2.519103e+00 -1.852585e+00 1.095236e+01
      vertex   -2.569099e+00 -1.785787e+00 1.095236e+01
      vertex   -2.634229e+00 -1.831059e+00 1.092754e+01
    endloop
  endfacet
  facet normal -2.438345e-01 -1.724226e-01 9.543664e-01
    outer loop
      vertex   -2.634229e+00 -1.831059e+00 1.092754e+01
      vertex   -2.569099e+00 -1.785787e+00 1.095236e+01
      vertex   -2.683484e+00 -1.761404e+00 1.092754e+01
    endloop
  endfacet
  facet normal -2.498953e-01 -1.767084e-01 9.520118e-01
    outer loop
      vertex   -2.634229e+00 -1.831059e+00 1.092754e+01
      vertex   -2.683484e+00 -1.761404e+00 1.092754e+01
      vertex   -2.749804e+00 -1.804936e+00 1.090205e+01
    endloop
  endfacet
  facet normal -2.544417e-01 -1.698118e-01 9.520627e-01
    outer loop
      vertex   -2.749804e+00 -1.804936e+00 1.090205e+01
      vertex   -2.683484e+00 -1.761404e+00 1.092754e+01
      vertex   -2.798177e+00 -1.732454e+00 1.090205e+01
    endloop
  endfacet
  facet normal -2.606075e-01 -1.739268e-01 9.496490e-01
    outer loop
      vertex   -2.749804e+00 -1.804936e+00 1.090205e+01
      vertex   -2.798177e+00 -1.732454e+00 1.090205e+01
      vertex   -2.865629e+00 -1.774216e+00 1.087590e+01
    endloop
  endfacet
  facet normal -2.650660e-01 -1.667580e-01 9.497009e-01
    outer loop
      vertex   -2.865629e+00 -1.774216e+00 1.087590e+01
      vertex   -2.798177e+00 -1.732454e+00 1.090205e+01
      vertex   -2.912984e+00 -1.698944e+00 1.087590e+01
    endloop
  endfacet
  facet normal -2.713312e-01 -1.706996e-01 9.472281e-01
    outer loop
      vertex   -2.865629e+00 -1.774216e+00 1.087590e+01
      vertex   -2.912984e+00 -1.698944e+00 1.087590e+01
      vertex   -2.981509e+00 -1.738910e+00 1.084906e+01
    endloop
  endfacet
  facet normal -2.756892e-01 -1.632627e-01 9.472807e-01
    outer loop
      vertex   -2.981509e+00 -1.738910e+00 1.084906e+01
      vertex   -2.912984e+00 -1.698944e+00 1.087590e+01
      vertex   -2.958124e+00 -1.622720e+00 1.087590e+01
    endloop
  endfacet
  facet normal -2.254210e-01 -1.716166e-01 9.590272e-01
    outer loop
      vertex   -2.378096e+00 -1.775664e+00 1.100000e+01
      vertex   -2.423166e+00 -1.716463e+00 1.100000e+01
      vertex   -2.455219e+00 -1.805604e+00 1.097651e+01
    endloop
  endfacet
  facet normal -2.279360e-01 -1.706033e-01 9.586134e-01
    outer loop
      vertex   -2.455219e+00 -1.805604e+00 1.097651e+01
      vertex   -2.423166e+00 -1.716463e+00 1.100000e+01
      vertex   -2.503948e+00 -1.740500e+00 1.097651e+01
    endloop
  endfacet
  facet normal -2.332626e-01 -1.745901e-01 9.566122e-01
    outer loop
      vertex   -2.455219e+00 -1.805604e+00 1.097651e+01
      vertex   -2.503948e+00 -1.740500e+00 1.097651e+01
      vertex   -2.569099e+00 -1.785787e+00 1.095236e+01
    endloop
  endfacet
  facet normal -2.377684e-01 -1.681331e-01 9.566595e-01
    outer loop
      vertex   -2.569099e+00 -1.785787e+00 1.095236e+01
      vertex   -2.503948e+00 -1.740500e+00 1.097651e+01
      vertex   -2.617136e+00 -1.717854e+00 1.095236e+01
    endloop
  endfacet
  facet normal -2.438345e-01 -1.724226e-01 9.543664e-01
    outer loop
      vertex   -2.569099e+00 -1.785787e+00 1.095236e+01
      vertex   -2.617136e+00 -1.717854e+00 1.095236e+01
      vertex   -2.683484e+00 -1.761404e+00 1.092754e+01
    endloop
  endfacet
  facet normal -2.482700e-01 -1.656929e-01 9.544149e-01
    outer loop
      vertex   -2.683484e+00 -1.761404e+00 1.092754e+01
      vertex   -2.617136e+00 -1.717854e+00 1.095236e+01
      vertex   -2.730691e+00 -1.690670e+00 1.092754e+01
    endloop
  endfacet
  facet normal -2.544417e-01 -1.698118e-01 9.520627e-01
    outer loop
      vertex   -2.683484e+00 -1.761404e+00 1.092754e+01
      vertex   -2.730691e+00 -1.690670e+00 1.092754e+01
      vertex   -2.798177e+00 -1.732454e+00 1.090205e+01
    endloop
  endfacet
  facet normal -2.587941e-01 -1.628123e-01 9.521123e-01
    outer loop
      vertex   -2.798177e+00 -1.732454e+00 1.090205e+01
      vertex   -2.730691e+00 -1.690670e+00 1.092754e+01
      vertex   -2.844418e+00 -1.658954e+00 1.090205e+01
    endloop
  endfacet
  facet normal -2.650660e-01 -1.667580e-01 9.497009e-01
    outer loop
      vertex   -2.798177e+00 -1.732454e+00 1.090205e+01
      vertex   -2.844418e+00 -1.658954e+00 1.090205e+01
      vertex   -2.912984e+00 -1.698944e+00 1.087590e+01
    endloop
  endfacet
  facet normal -2.693227e-01 -1.594925e-01 9.497512e-01
    outer loop
      vertex   -2.912984e+00 -1.698944e+00 1.087590e+01
      vertex   -2.844418e+00 -1.658954e+00 1.090205e+01
      vertex   -2.958124e+00 -1.622720e+00 1.087590e+01
    endloop
  endfacet
  facet normal -2.295321e-01 -1.657061e-01 9.590915e-01
    outer loop
      vertex   -2.423166e+00 -1.716463e+00 1.100000e+01
      vertex   -2.466728e+00 -1.656122e+00 1.100000e+01
      vertex   -2.503948e+00 -1.740500e+00 1.097651e+01
    endloop
  endfacet
  facet normal -2.323820e-01 -1.643242e-01 9.586429e-01
    outer loop
      vertex   -2.503948e+00 -1.740500e+00 1.097651e+01
      vertex   -2.466728e+00 -1.656122e+00 1.100000e+01
      vertex   -2.550767e+00 -1.674290e+00 1.097651e+01
    endloop
  endfacet
  facet normal -2.377684e-01 -1.681331e-01 9.566595e-01
    outer loop
      vertex   -2.503948e+00 -1.740500e+00 1.097651e+01
      vertex   -2.550767e+00 -1.674290e+00 1.097651e+01
      vertex   -2.617136e+00 -1.717854e+00 1.095236e+01
    endloop
  endfacet
  facet normal -2.420930e-01 -1.615704e-01 9.567058e-01
    outer loop
      vertex   -2.617136e+00 -1.717854e+00 1.095236e+01
      vertex   -2.550767e+00 -1.674290e+00 1.097651e+01
      vertex   -2.663176e+00 -1.648870e+00 1.095236e+01
    endloop
  endfacet
  facet normal -2.482700e-01 -1.656929e-01 9.544149e-01
    outer loop
      vertex   -2.617136e+00 -1.717854e+00 1.095236e+01
      vertex   -2.663176e+00 -1.648870e+00 1.095236e+01
      vertex   -2.730691e+00 -1.690670e+00 1.092754e+01
    endloop
  endfacet
  facet normal -2.525162e-01 -1.588627e-01 9.544623e-01
    outer loop
      vertex   -2.730691e+00 -1.690670e+00 1.092754e+01
      vertex   -2.663176e+00 -1.648870e+00 1.095236e+01
      vertex   -2.775816e+00 -1.618943e+00 1.092754e+01
    endloop
  endfacet
  facet normal -2.587941e-01 -1.628123e-01 9.521123e-01
    outer loop
      vertex   -2.730691e+00 -1.690670e+00 1.092754e+01
      vertex   -2.775816e+00 -1.618943e+00 1.092754e+01
      vertex   -2.844418e+00 -1.658954e+00 1.090205e+01
    endloop
  endfacet
  facet normal -2.629495e-01 -1.557183e-01 9.521604e-01
    outer loop
      vertex   -2.844418e+00 -1.658954e+00 1.090205e+01
      vertex   -2.775816e+00 -1.618943e+00 1.092754e+01
      vertex   -2.888495e+00 -1.584524e+00 1.090205e+01
    endloop
  endfacet
  facet normal -2.693227e-01 -1.594925e-01 9.497512e-01
    outer loop
      vertex   -2.844418e+00 -1.658954e+00 1.090205e+01
      vertex   -2.888495e+00 -1.584524e+00 1.090205e+01
      vertex   -2.958124e+00 -1.622720e+00 1.087590e+01
    endloop
  endfacet
  facet normal -2.733749e-01 -1.521388e-01 9.497999e-01
    outer loop
      vertex   -2.958124e+00 -1.622720e+00 1.087590e+01
      vertex   -2.888495e+00 -1.584524e+00 1.090205e+01
      vertex   -2.930384e+00 -1.509254e+00 1.090205e+01
    endloop
  endfacet
  facet normal -2.335210e-01 -1.597067e-01 9.591464e-01
    outer loop
      vertex   -2.466728e+00 -1.656122e+00 1.100000e+01
      vertex   -2.508715e+00 -1.594730e+00 1.100000e+01
      vertex   -2.550767e+00 -1.674290e+00 1.097651e+01
    endloop
  endfacet
  facet normal -2.366309e-01 -1.579250e-01 9.586791e-01
    outer loop
      vertex   -2.550767e+00 -1.674290e+00 1.097651e+01
      vertex   -2.508715e+00 -1.594730e+00 1.100000e+01
      vertex   -2.595639e+00 -1.607055e+00 1.097651e+01
    endloop
  endfacet
  facet normal -2.420930e-01 -1.615704e-01 9.567058e-01
    outer loop
      vertex   -2.550767e+00 -1.674290e+00 1.097651e+01
      vertex   -2.595639e+00 -1.607055e+00 1.097651e+01
      vertex   -2.663176e+00 -1.648870e+00 1.095236e+01
    endloop
  endfacet
  facet normal -2.462329e-01 -1.549098e-01 9.567509e-01
    outer loop
      vertex   -2.663176e+00 -1.648870e+00 1.095236e+01
      vertex   -2.595639e+00 -1.607055e+00 1.097651e+01
      vertex   -2.707185e+00 -1.578916e+00 1.095236e+01
    endloop
  endfacet
  facet normal -2.525162e-01 -1.588627e-01 9.544623e-01
    outer loop
      vertex   -2.663176e+00 -1.648870e+00 1.095236e+01
      vertex   -2.707185e+00 -1.578916e+00 1.095236e+01
      vertex   -2.775816e+00 -1.618943e+00 1.092754e+01
    endloop
  endfacet
  facet normal -2.565701e-01 -1.519404e-01 9.545082e-01
    outer loop
      vertex   -2.775816e+00 -1.618943e+00 1.092754e+01
      vertex   -2.707185e+00 -1.578916e+00 1.095236e+01
      vertex   -2.818830e+00 -1.546308e+00 1.092754e+01
    endloop
  endfacet
  facet normal -2.629495e-01 -1.557183e-01 9.521604e-01
    outer loop
      vertex   -2.775816e+00 -1.618943e+00 1.092754e+01
      vertex   -2.818830e+00 -1.546308e+00 1.092754e+01
      vertex   -2.888495e+00 -1.584524e+00 1.090205e+01
    endloop
  endfacet
  facet normal -2.669052e-01 -1.485383e-01 9.522069e-01
    outer loop
      vertex   -2.888495e+00 -1.584524e+00 1.090205e+01
      vertex   -2.818830e+00 -1.546308e+00 1.092754e+01
      vertex   -2.930384e+00 -1.509254e+00 1.090205e+01
    endloop
  endfacet
  facet normal -2.373802e-01 -1.536201e-01 9.591932e-01
    outer loop
      vertex   -2.508715e+00 -1.594730e+00 1.100000e+01
      vertex   -2.549105e+00 -1.532318e+00 1.100000e+01
      vertex   -2.595639e+00 -1.607055e+00 1.097651e+01
    endloop
  endfacet
  facet normal -2.406806e-01 -1.514167e-01 9.587209e-01
    outer loop
      vertex   -2.595639e+00 -1.607055e+00 1.097651e+01
      vertex   -2.549105e+00 -1.532318e+00 1.100000e+01
      vertex   -2.638532e+00 -1.538875e+00 1.097651e+01
    endloop
  endfacet
  facet normal -2.462329e-01 -1.549098e-01 9.567509e-01
    outer loop
      vertex   -2.595639e+00 -1.607055e+00 1.097651e+01
      vertex   -2.638532e+00 -1.538875e+00 1.097651e+01
      vertex   -2.707185e+00 -1.578916e+00 1.095236e+01
    endloop
  endfacet
  facet normal -2.501854e-01 -1.481594e-01 9.567947e-01
    outer loop
      vertex   -2.707185e+00 -1.578916e+00 1.095236e+01
      vertex   -2.638532e+00 -1.538875e+00 1.097651e+01
      vertex   -2.749136e+00 -1.508077e+00 1.095236e+01
    endloop
  endfacet
  facet normal -2.565701e-01 -1.519404e-01 9.545082e-01
    outer loop
      vertex   -2.707185e+00 -1.578916e+00 1.095236e+01
      vertex   -2.749136e+00 -1.508077e+00 1.095236e+01
      vertex   -2.818830e+00 -1.546308e+00 1.092754e+01
    endloop
  endfacet
  facet normal -2.604293e-01 -1.449343e-01 9.545526e-01
    outer loop
      vertex   -2.818830e+00 -1.546308e+00 1.092754e+01
      vertex   -2.749136e+00 -1.508077e+00 1.095236e+01
      vertex   -2.859709e+00 -1.472853e+00 1.092754e+01
    endloop
  endfacet
  facet normal -2.669052e-01 -1.485383e-01 9.522069e-01
    outer loop
      vertex   -2.818830e+00 -1.546308e+00 1.092754e+01
      vertex   -2.859709e+00 -1.472853e+00 1.092754e+01
      vertex   -2.930384e+00 -1.509254e+00 1.090205e+01
    endloop
  endfacet
  facet normal -2.411061e-01 -1.474457e-01 9.592328e-01
    outer loop
      vertex   -2.549105e+00 -1.532318e+00 1.100000e+01
      vertex   -2.587878e+00 -1.468914e+00 1.100000e+01
      vertex   -2.638532e+00 -1.538875e+00 1.097651e+01
    endloop
  endfacet
  facet normal -2.445302e-01 -1.448104e-01 9.587674e-01
    outer loop
      vertex   -2.638532e+00 -1.538875e+00 1.097651e+01
      vertex   -2.587878e+00 -1.468914e+00 1.100000e+01
      vertex   -2.679419e+00 -1.469833e+00 1.097651e+01
    endloop
  endfacet
  facet normal -2.501854e-01 -1.481594e-01 9.567947e-01
    outer loop
      vertex   -2.638532e+00 -1.538875e+00 1.097651e+01
      vertex   -2.679419e+00 -1.469833e+00 1.097651e+01
      vertex   -2.749136e+00 -1.508077e+00 1.095236e+01
    endloop
  endfacet
  facet normal -2.539479e-01 -1.413273e-01 9.568370e-01
    outer loop
      vertex   -2.749136e+00 -1.508077e+00 1.095236e+01
      vertex   -2.679419e+00 -1.469833e+00 1.097651e+01
      vertex   -2.789005e+00 -1.436438e+00 1.095236e+01
    endloop
  endfacet
  facet normal -2.604293e-01 -1.449343e-01 9.545526e-01
    outer loop
      vertex   -2.749136e+00 -1.508077e+00 1.095236e+01
      vertex   -2.789005e+00 -1.436438e+00 1.095236e+01
      vertex   -2.859709e+00 -1.472853e+00 1.092754e+01
    endloop
  endfacet
  facet normal -2.446945e-01 -1.411833e-01 9.592663e-01
    outer loop
      vertex   -2.587878e+00 -1.468914e+00 1.100000e+01
      vertex   -2.625016e+00 -1.404549e+00 1.100000e+01
      vertex   -2.679419e+00 -1.469833e+00 1.097651e+01
    endloop
  endfacet
  facet normal -2.481799e-01 -1.381173e-01 9.588172e-01
    outer loop
      vertex   -2.679419e+00 -1.469833e+00 1.097651e+01
      vertex   -2.625016e+00 -1.404549e+00 1.100000e+01
      vertex   -2.718277e+00 -1.400010e+00 1.097651e+01
    endloop
  endfacet
  facet normal -2.539479e-01 -1.413273e-01 9.568370e-01
    outer loop
      vertex   -2.679419e+00 -1.469833e+00 1.097651e+01
      vertex   -2.718277e+00 -1.400010e+00 1.097651e+01
      vertex   -2.789005e+00 -1.436438e+00 1.095236e+01
    endloop
  endfacet
  facet normal -2.481403e-01 -1.348325e-01 9.592948e-01
    outer loop
      vertex   -2.625016e+00 -1.404549e+00 1.100000e+01
      vertex   -2.660496e+00 -1.339252e+00 1.100000e+01
      vertex   -2.718277e+00 -1.400010e+00 1.097651e+01
    endloop
  endfacet
  facet normal -2.548853e-01 -1.245147e-01 9.589211e-01
    outer loop
      vertex   -2.755087e+00 -1.329492e+00 1.097651e+01
      vertex   -2.694300e+00 -1.273052e+00 1.100000e+01
      vertex   -2.789835e+00 -1.258361e+00 1.097651e+01
    endloop
  endfacet
  facet normal -2.545814e-01 -1.218661e-01 9.593419e-01
    outer loop
      vertex   -2.789835e+00 -1.258361e+00 1.097651e+01
      vertex   -2.694300e+00 -1.273052e+00 1.100000e+01
      vertex   -2.726408e+00 -1.205979e+00 1.100000e+01
    endloop
  endfacet
  facet normal -2.579459e-01 -1.176266e-01 9.589723e-01
    outer loop
      vertex   -2.789835e+00 -1.258361e+00 1.097651e+01
      vertex   -2.726408e+00 -1.205979e+00 1.100000e+01
      vertex   -2.822513e+00 -1.186700e+00 1.097651e+01
    endloop
  endfacet
  facet normal -2.575650e-01 -1.152519e-01 9.593630e-01
    outer loop
      vertex   -2.822513e+00 -1.186700e+00 1.097651e+01
      vertex   -2.726408e+00 -1.205979e+00 1.100000e+01
      vertex   -2.756798e+00 -1.138062e+00 1.100000e+01
    endloop
  endfacet
  facet normal -2.608163e-01 -1.106941e-01 9.590212e-01
    outer loop
      vertex   -2.822513e+00 -1.186700e+00 1.097651e+01
      vertex   -2.756798e+00 -1.138062e+00 1.100000e+01
      vertex   -2.853116e+00 -1.114593e+00 1.097651e+01
    endloop
  endfacet
  facet normal -2.603832e-01 -1.085541e-01 9.593835e-01
    outer loop
      vertex   -2.853116e+00 -1.114593e+00 1.097651e+01
      vertex   -2.756798e+00 -1.138062e+00 1.100000e+01
      vertex   -2.785437e+00 -1.069367e+00 1.100000e+01
    endloop
  endfacet
  facet normal -2.624735e-01 -1.053175e-01 9.591746e-01
    outer loop
      vertex   -2.853116e+00 -1.114593e+00 1.097651e+01
      vertex   -2.785437e+00 -1.069367e+00 1.100000e+01
      vertex   -2.867640e+00 -1.078398e+00 1.097651e+01
    endloop
  endfacet
  facet normal -2.629397e-01 -1.017453e-01 9.594325e-01
    outer loop
      vertex   -2.867640e+00 -1.078398e+00 1.097651e+01
      vertex   -2.785437e+00 -1.069367e+00 1.100000e+01
      vertex   -2.812279e+00 -1.000000e+00 1.100000e+01
    endloop
  endfacet
  facet normal -2.631427e-01 -1.015901e-01 9.593932e-01
    outer loop
      vertex   -2.867640e+00 -1.078398e+00 1.097651e+01
      vertex   -2.812279e+00 -1.000000e+00 1.100000e+01
      vertex   -2.881645e+00 -1.042122e+00 1.097651e+01
    endloop
  endfacet
  facet normal -2.656356e-01 -9.734723e-02 9.591461e-01
    outer loop
      vertex   -2.881645e+00 -1.042122e+00 1.097651e+01
      vertex   -2.812279e+00 -1.000000e+00 1.100000e+01
      vertex   -2.906260e+00 -1.000000e+00 1.097397e+01
    endloop
  endfacet
  facet normal -2.717412e-01 -1.010416e-01 9.570514e-01
    outer loop
      vertex   -2.881645e+00 -1.042122e+00 1.097651e+01
      vertex   -2.906260e+00 -1.000000e+00 1.097397e+01
      vertex   -2.956623e+00 -1.069237e+00 1.095236e+01
    endloop
  endfacet
  facet normal -2.742701e-01 -9.904215e-02 9.565389e-01
    outer loop
      vertex   -2.956623e+00 -1.069237e+00 1.095236e+01
      vertex   -2.906260e+00 -1.000000e+00 1.097397e+01
      vertex   -3.000000e+00 -1.000000e+00 1.094709e+01
    endloop
  endfacet
  facet normal -2.807308e-01 -1.032666e-01 9.542150e-01
    outer loop
      vertex   -2.956623e+00 -1.069237e+00 1.095236e+01
      vertex   -3.000000e+00 -1.000000e+00 1.094709e+01
      vertex   -3.000000e+00 -1.125767e+00 1.093348e+01
    endloop
  endfacet
  facet normal -2.763144e-01 -1.156140e-01 9.540879e-01
    outer loop
      vertex   -3.000000e+00 -1.251356e+00 1.091826e+01
      vertex   -2.927353e+00 -1.143594e+00 1.095236e+01
      vertex   -3.000000e+00 -1.125767e+00 1.093348e+01
    endloop
  endfacet
  facet normal -2.752852e-01 -1.104582e-01 9.549958e-01
    outer loop
      vertex   -3.000000e+00 -1.125767e+00 1.093348e+01
      vertex   -2.927353e+00 -1.143594e+00 1.095236e+01
      vertex   -2.942254e+00 -1.106457e+00 1.095236e+01
    endloop
  endfacet
  facet normal -2.765400e-01 -1.067623e-01 9.550536e-01
    outer loop
      vertex   -3.000000e+00 -1.125767e+00 1.093348e+01
      vertex   -2.942254e+00 -1.106457e+00 1.095236e+01
      vertex   -2.956623e+00 -1.069237e+00 1.095236e+01
    endloop
  endfacet
  facet normal -2.705094e-01 -1.044342e-01 9.570361e-01
    outer loop
      vertex   -2.956623e+00 -1.069237e+00 1.095236e+01
      vertex   -2.942254e+00 -1.106457e+00 1.095236e+01
      vertex   -2.867640e+00 -1.078398e+00 1.097651e+01
    endloop
  endfacet
  facet normal -2.705094e-01 -1.044342e-01 9.570361e-01
    outer loop
      vertex   -2.956623e+00 -1.069237e+00 1.095236e+01
      vertex   -2.867640e+00 -1.078398e+00 1.097651e+01
      vertex   -2.881645e+00 -1.042122e+00 1.097651e+01
    endloop
  endfacet
  facet normal -2.782678e-01 -1.277249e-01 9.519734e-01
    outer loop
      vertex   -3.000000e+00 -1.376752e+00 1.090144e+01
      vertex   -2.934991e+00 -1.323834e+00 1.092754e+01
      vertex   -3.000000e+00 -1.251356e+00 1.091826e+01
    endloop
  endfacet
  facet normal -2.765864e-01 -1.261269e-01 9.526762e-01
    outer loop
      vertex   -3.000000e+00 -1.251356e+00 1.091826e+01
      vertex   -2.934991e+00 -1.323834e+00 1.092754e+01
      vertex   -2.969369e+00 -1.248445e+00 1.092754e+01
    endloop
  endfacet
  facet normal -2.793629e-01 -1.031403e-01 9.546300e-01
    outer loop
      vertex   -3.000000e+00 -1.251356e+00 1.091826e+01
      vertex   -2.969369e+00 -1.248445e+00 1.092754e+01
      vertex   -2.895953e+00 -1.217577e+00 1.095236e+01
    endloop
  endfacet
  facet normal -2.708195e-01 -1.234971e-01 9.546755e-01
    outer loop
      vertex   -2.895953e+00 -1.217577e+00 1.095236e+01
      vertex   -2.969369e+00 -1.248445e+00 1.092754e+01
      vertex   -2.862425e+00 -1.291103e+00 1.095236e+01
    endloop
  endfacet
  facet normal -2.640779e-01 -1.204228e-01 9.569541e-01
    outer loop
      vertex   -2.895953e+00 -1.217577e+00 1.095236e+01
      vertex   -2.862425e+00 -1.291103e+00 1.095236e+01
      vertex   -2.789835e+00 -1.258361e+00 1.097651e+01
    endloop
  endfacet
  facet normal -2.608955e-01 -1.274508e-01 9.569168e-01
    outer loop
      vertex   -2.789835e+00 -1.258361e+00 1.097651e+01
      vertex   -2.862425e+00 -1.291103e+00 1.095236e+01
      vertex   -2.755087e+00 -1.329492e+00 1.097651e+01
    endloop
  endfacet
  facet normal -2.830146e-01 -1.396759e-01 9.488906e-01
    outer loop
      vertex   -3.000000e+00 -1.501942e+00 1.088301e+01
      vertex   -2.970067e+00 -1.433233e+00 1.090205e+01
      vertex   -3.000000e+00 -1.376752e+00 1.090144e+01
    endloop
  endfacet
  facet normal -2.738181e-01 -1.347650e-01 9.522930e-01
    outer loop
      vertex   -3.000000e+00 -1.376752e+00 1.090144e+01
      vertex   -2.970067e+00 -1.433233e+00 1.090205e+01
      vertex   -2.898434e+00 -1.398666e+00 1.092754e+01
    endloop
  endfacet
  facet normal -2.736358e-01 -1.336746e-01 9.524991e-01
    outer loop
      vertex   -3.000000e+00 -1.376752e+00 1.090144e+01
      vertex   -2.898434e+00 -1.398666e+00 1.092754e+01
      vertex   -2.934991e+00 -1.323834e+00 1.092754e+01
    endloop
  endfacet
  facet normal -2.675553e-01 -1.307042e-01 9.546364e-01
    outer loop
      vertex   -2.934991e+00 -1.323834e+00 1.092754e+01
      vertex   -2.898434e+00 -1.398666e+00 1.092754e+01
      vertex   -2.826772e+00 -1.364085e+00 1.095236e+01
    endloop
  endfacet
  facet normal -2.675553e-01 -1.307042e-01 9.546364e-01
    outer loop
      vertex   -2.934991e+00 -1.323834e+00 1.092754e+01
      vertex   -2.826772e+00 -1.364085e+00 1.095236e+01
      vertex   -2.862425e+00 -1.291103e+00 1.095236e+01
    endloop
  endfacet
  facet normal -2.608955e-01 -1.274508e-01 9.569168e-01
    outer loop
      vertex   -2.862425e+00 -1.291103e+00 1.095236e+01
      vertex   -2.826772e+00 -1.364085e+00 1.095236e+01
      vertex   -2.755087e+00 -1.329492e+00 1.097651e+01
    endloop
  endfacet
  facet normal -2.728254e-01 -1.822843e-01 9.446368e-01
    outer loop
      vertex   -2.882335e+00 -1.891928e+00 1.084906e+01
      vertex   -3.000000e+00 -1.875941e+00 1.081817e+01
      vertex   -2.948535e+00 -1.935380e+00 1.082156e+01
    endloop
  endfacet
  facet normal -2.793497e-01 -1.881078e-01 9.415834e-01
    outer loop
      vertex   -2.948535e+00 -1.935380e+00 1.082156e+01
      vertex   -3.000000e+00 -1.875941e+00 1.081817e+01
      vertex   -3.000000e+00 -2.000000e+00 1.079338e+01
    endloop
  endfacet
  facet normal -2.736517e-01 -1.929482e-01 9.422769e-01
    outer loop
      vertex   -2.948535e+00 -1.935380e+00 1.082156e+01
      vertex   -3.000000e+00 -2.000000e+00 1.079338e+01
      vertex   -2.898918e+00 -2.000000e+00 1.082274e+01
    endloop
  endfacet
  facet normal -2.641550e-01 -1.956982e-01 9.444175e-01
    outer loop
      vertex   -2.797548e+00 -2.000000e+00 1.085109e+01
      vertex   -2.829431e+00 -1.966744e+00 1.084906e+01
      vertex   -2.898918e+00 -2.000000e+00 1.082274e+01
    endloop
  endfacet
  facet normal -2.674558e-01 -1.891259e-01 9.448274e-01
    outer loop
      vertex   -2.898918e+00 -2.000000e+00 1.082274e+01
      vertex   -2.829431e+00 -1.966744e+00 1.084906e+01
      vertex   -2.882335e+00 -1.891928e+00 1.084906e+01
    endloop
  endfacet
  facet normal -2.684528e-01 -1.889143e-01 9.445869e-01
    outer loop
      vertex   -2.898918e+00 -2.000000e+00 1.082274e+01
      vertex   -2.882335e+00 -1.891928e+00 1.084906e+01
      vertex   -2.948535e+00 -1.935380e+00 1.082156e+01
    endloop
  endfacet
  facet normal -2.543947e-01 -2.029823e-01 9.455588e-01
    outer loop
      vertex   -2.695898e+00 -2.000000e+00 1.087844e+01
      vertex   -2.710604e+00 -1.993418e+00 1.087590e+01
      vertex   -2.797548e+00 -2.000000e+00 1.085109e+01
    endloop
  endfacet
  facet normal -2.558375e-01 -1.914867e-01 9.475653e-01
    outer loop
      vertex   -2.797548e+00 -2.000000e+00 1.085109e+01
      vertex   -2.710604e+00 -1.993418e+00 1.087590e+01
      vertex   -2.764401e+00 -1.921541e+00 1.087590e+01
    endloop
  endfacet
  facet normal -2.585697e-01 -1.901810e-01 9.470865e-01
    outer loop
      vertex   -2.797548e+00 -2.000000e+00 1.085109e+01
      vertex   -2.764401e+00 -1.921541e+00 1.087590e+01
      vertex   -2.829431e+00 -1.966744e+00 1.084906e+01
    endloop
  endfacet
  facet normal -2.619986e-01 -1.852670e-01 9.471182e-01
    outer loop
      vertex   -2.829431e+00 -1.966744e+00 1.084906e+01
      vertex   -2.764401e+00 -1.921541e+00 1.087590e+01
      vertex   -2.882335e+00 -1.891928e+00 1.084906e+01
    endloop
  endfacet
  facet normal -2.493868e-01 -1.902597e-01 9.495301e-01
    outer loop
      vertex   -2.710604e+00 -1.993418e+00 1.087590e+01
      vertex   -2.695898e+00 -2.000000e+00 1.087844e+01
      vertex   -2.646801e+00 -1.946496e+00 1.090205e+01
    endloop
  endfacet
  facet normal -2.454598e-01 -1.939825e-01 9.498001e-01
    outer loop
      vertex   -2.646801e+00 -1.946496e+00 1.090205e+01
      vertex   -2.695898e+00 -2.000000e+00 1.087844e+01
      vertex   -2.593975e+00 -2.000000e+00 1.090478e+01
    endloop
  endfacet
  facet normal -2.263520e-01 -1.984094e-01 9.536239e-01
    outer loop
      vertex   -2.491786e+00 -2.000000e+00 1.093011e+01
      vertex   -2.389337e+00 -2.000000e+00 1.095443e+01
      vertex   -2.413405e+00 -1.982462e+00 1.095236e+01
    endloop
  endfacet
  facet normal -2.344097e-01 -1.855487e-01 9.542661e-01
    outer loop
      vertex   -2.582965e+00 -1.899551e+00 1.092754e+01
      vertex   -2.529735e+00 -1.966798e+00 1.092754e+01
      vertex   -2.467189e+00 -1.918170e+00 1.095236e+01
    endloop
  endfacet
  facet normal -2.510979e-01 -1.879393e-01 9.495413e-01
    outer loop
      vertex   -2.764401e+00 -1.921541e+00 1.087590e+01
      vertex   -2.710604e+00 -1.993418e+00 1.087590e+01
      vertex   -2.646801e+00 -1.946496e+00 1.090205e+01
    endloop
  endfacet
  facet normal -2.708195e-01 -1.234971e-01 9.546755e-01
    outer loop
      vertex   -2.969369e+00 -1.248445e+00 1.092754e+01
      vertex   -2.934991e+00 -1.323834e+00 1.092754e+01
      vertex   -2.862425e+00 -1.291103e+00 1.095236e+01
    endloop
  endfacet
  facet normal -2.640779e-01 -1.204228e-01 9.569541e-01
    outer loop
      vertex   -2.789835e+00 -1.258361e+00 1.097651e+01
      vertex   -2.822513e+00 -1.186700e+00 1.097651e+01
      vertex   -2.895953e+00 -1.217577e+00 1.095236e+01
    endloop
  endfacet
  facet normal -2.670649e-01 -1.133460e-01 9.569896e-01
    outer loop
      vertex   -2.895953e+00 -1.217577e+00 1.095236e+01
      vertex   -2.822513e+00 -1.186700e+00 1.097651e+01
      vertex   -2.927353e+00 -1.143594e+00 1.095236e+01
    endloop
  endfacet
  facet normal -2.748873e-01 -1.166660e-01 9.543720e-01
    outer loop
      vertex   -2.895953e+00 -1.217577e+00 1.095236e+01
      vertex   -2.927353e+00 -1.143594e+00 1.095236e+01
      vertex   -3.000000e+00 -1.251356e+00 1.091826e+01
    endloop
  endfacet
  facet normal -2.691626e-01 -1.080015e-01 9.570199e-01
    outer loop
      vertex   -2.942254e+00 -1.106457e+00 1.095236e+01
      vertex   -2.927353e+00 -1.143594e+00 1.095236e+01
      vertex   -2.853116e+00 -1.114593e+00 1.097651e+01
    endloop
  endfacet
  facet normal -2.670649e-01 -1.133460e-01 9.569896e-01
    outer loop
      vertex   -2.853116e+00 -1.114593e+00 1.097651e+01
      vertex   -2.927353e+00 -1.143594e+00 1.095236e+01
      vertex   -2.822513e+00 -1.186700e+00 1.097651e+01
    endloop
  endfacet
  facet normal -2.691626e-01 -1.080015e-01 9.570199e-01
    outer loop
      vertex   -2.867640e+00 -1.078398e+00 1.097651e+01
      vertex   -2.942254e+00 -1.106457e+00 1.095236e+01
      vertex   -2.853116e+00 -1.114593e+00 1.097651e+01
    endloop
  endfacet
  facet normal 2.368719e-15 1.000000e+00 0.000000e+00
    outer loop
      vertex   -3.000000e+00 -1.000000e+00 1.094709e+01
      vertex   -2.906260e+00 -1.000000e+00 1.097397e+01
      vertex   -3.000000e+00 -1.000000e+00 1.000000e+01
    endloop
  endfacet
  facet normal -2.492233e-15 1.000000e+00 4.678445e-16
    outer loop
      vertex   -3.000000e+00 -1.000000e+00 1.000000e+01
      vertex   -2.906260e+00 -1.000000e+00 1.097397e+01
      vertex   -2.812279e+00 -1.000000e+00 1.100000e+01
    endloop
  endfacet
  facet normal 0.000000e+00 1.000000e+00 0.000000e+00
    outer loop
      vertex   -3.000000e+00 -1.000000e+00 1.000000e+01
      vertex   -2.812279e+00 -1.000000e+00 1.100000e+01
      vertex   -2.000000e+00 -1.000000e+00 1.000000e+01
    endloop
  endfacet
  facet normal 0.000000e+00 1.000000e+00 -0.000000e+00
    outer loop
      vertex   -2.000000e+00 -1.000000e+00 1.000000e+01
      vertex   -2.812279e+00 -1.000000e+00 1.100000e+01
      vertex   -2.000000e+00 -1.000000e+00 1.100000e+01
    endloop
  endfacet
  facet normal -0.000000e+00 0.000000e+00 1.000000e+00
    outer loop
      vertex   -2.812279e+00 -1.000000e+00 1.100000e+01
      vertex   -2.785437e+00 -1.069367e+00 1.100000e+01
      vertex   -2.000000e+00 -1.000000e+00 1.100000e+01
    endloop
  endfacet
  facet normal -4.405251e-15 4.988044e-14 1.000000e+00
    outer loop
      vertex   -2.000000e+00 -1.000000e+00 1.100000e+01
      vertex   -2.785437e+00 -1.069367e+00 1.100000e+01
      vertex   -2.756798e+00 -1.138062e+00 1.100000e+01
    endloop
  endfacet
  facet normal 4.340112e-15 1.942058e-15 1.000000e+00
    outer loop
      vertex   -2.000000e+00 -1.000000e+00 1.100000e+01
      vertex   -2.756798e+00 -1.138062e+00 1.100000e+01
      vertex   -2.726408e+00 -1.205979e+00 1.100000e+01
    endloop
  endfacet
  facet normal -2.305928e-15 2.538008e-14 1.000000e+00
    outer loop
      vertex   -2.726408e+00 -1.205979e+00 1.100000e+01
      vertex   -2.694300e+00 -1.273052e+00 1.100000e+01
      vertex   -2.000000e+00 -1.000000e+00 1.100000e+01
    endloop
  endfacet
  facet normal 6.391838e-15 3.263905e-15 1.000000e+00
    outer loop
      vertex   -2.000000e+00 -1.000000e+00 1.100000e+01
      vertex   -2.694300e+00 -1.273052e+00 1.100000e+01
      vertex   -2.660496e+00 -1.339252e+00 1.100000e+01
    endloop
  endfacet
  facet normal 6.307815e-15 3.427491e-15 1.000000e+00
    outer loop
      vertex   -2.000000e+00 -1.000000e+00 1.100000e+01
      vertex   -2.660496e+00 -1.339252e+00 1.100000e+01
      vertex   -2.625016e+00 -1.404549e+00 1.100000e+01
    endloop
  endfacet
  facet normal 6.207917e-15 3.581830e-15 1.000000e+00
    outer loop
      vertex   -2.625016e+00 -1.404549e+00 1.100000e+01
      vertex   -2.587878e+00 -1.468914e+00 1.100000e+01
      vertex   -2.000000e+00 -1.000000e+00 1.100000e+01
    endloop
  endfacet
  facet normal 6.092891e-15 3.726038e-15 1.000000e+00
    outer loop
      vertex   -2.000000e+00 -1.000000e+00 1.100000e+01
      vertex   -2.587878e+00 -1.468914e+00 1.100000e+01
      vertex   -2.549105e+00 -1.532318e+00 1.100000e+01
    endloop
  endfacet
  facet normal 5.963645e-15 3.859360e-15 1.000000e+00
    outer loop
      vertex   -2.000000e+00 -1.000000e+00 1.100000e+01
      vertex   -2.549105e+00 -1.532318e+00 1.100000e+01
      vertex   -2.508715e+00 -1.594730e+00 1.100000e+01
    endloop
  endfacet
  facet normal 5.821227e-15 3.981181e-15 1.000000e+00
    outer loop
      vertex   -2.508715e+00 -1.594730e+00 1.100000e+01
      vertex   -2.466728e+00 -1.656122e+00 1.100000e+01
      vertex   -2.000000e+00 -1.000000e+00 1.100000e+01
    endloop
  endfacet
  facet normal 5.666799e-15 4.091032e-15 1.000000e+00
    outer loop
      vertex   -2.000000e+00 -1.000000e+00 1.100000e+01
      vertex   -2.466728e+00 -1.656122e+00 1.100000e+01
      vertex   -2.423166e+00 -1.716463e+00 1.100000e+01
    endloop
  endfacet
  facet normal 2.769614e-14 -8.920205e-15 1.000000e+00
    outer loop
      vertex   -2.000000e+00 -1.000000e+00 1.100000e+01
      vertex   -2.423166e+00 -1.716463e+00 1.100000e+01
      vertex   -2.378096e+00 -1.775664e+00 1.100000e+01
    endloop
  endfacet
  facet normal -2.020752e-14 1.443034e-14 1.000000e+00
    outer loop
      vertex   -2.378096e+00 -1.775664e+00 1.100000e+01
      vertex   -2.331590e+00 -1.833639e+00 1.100000e+01
      vertex   -2.000000e+00 -1.000000e+00 1.100000e+01
    endloop
  endfacet
  facet normal 5.145520e-15 4.345846e-15 1.000000e+00
    outer loop
      vertex   -2.000000e+00 -1.000000e+00 1.100000e+01
      vertex   -2.331590e+00 -1.833639e+00 1.100000e+01
      vertex   -2.283678e+00 -1.890367e+00 1.100000e+01
    endloop
  endfacet
  facet normal 1.878561e-14 0.000000e+00 1.000000e+00
    outer loop
      vertex   -2.000000e+00 -1.000000e+00 1.100000e+01
      vertex   -2.283678e+00 -1.890367e+00 1.100000e+01
      vertex   -2.000000e+00 -2.000000e+00 1.100000e+01
    endloop
  endfacet
  facet normal -2.794889e-14 -1.209268e-13 1.000000e+00
    outer loop
      vertex   -2.000000e+00 -2.000000e+00 1.100000e+01
      vertex   -2.283678e+00 -1.890367e+00 1.100000e+01
      vertex   -2.234387e+00 -1.945828e+00 1.100000e+01
    endloop
  endfacet
  facet normal 0.000000e+00 0.000000e+00 1.000000e+00
    outer loop
      vertex   -2.000000e+00 -2.000000e+00 1.100000e+01
      vertex   -2.234387e+00 -1.945828e+00 1.100000e+01
      vertex   -2.183746e+00 -2.000000e+00 1.100000e+01
    endloop
  endfacet
  facet normal 0.000000e+00 0.000000e+00 -1.000000e+00
    outer loop
      vertex   -2.000000e+00 -2.000000e+00 1.000000e+01
      vertex   -3.000000e+00 -2.000000e+00 1.000000e+01
      vertex   -2.000000e+00 -1.000000e+00 1.000000e+01
    endloop
  endfacet
  facet normal -0.000000e+00 0.000000e+00 -1.000000e+00
    outer loop
      vertex   -2.000000e+00 -1.000000e+00 1.000000e+01
      vertex   -3.000000e+00 -2.000000e+00 1.000000e+01
      vertex   -3.000000e+00 -1.000000e+00 1.000000e+01
    endloop
  endfacet
  facet normal -0.000000e+00 -1.000000e+00 -0.000000e+00
    outer loop
      vertex   -2.000000e+00 -2.000000e+00 1.100000e+01
      vertex   -2.183746e+00 -2.000000e+00 1.100000e+01
      vertex   -2.000000e+00 -2.000000e+00 1.000000e+01
    endloop
  endfacet
  facet normal 8.300984e-15 -1.000000e+00 1.525270e-15
    outer loop
      vertex   -2.000000e+00 -2.000000e+00 1.000000e+01
      vertex   -2.183746e+00 -2.000000e+00 1.100000e+01
      vertex   -2.286649e+00 -2.000000e+00 1.097772e+01
    endloop
  endfacet
  facet normal 8.303148e-15 -1.000000e+00 1.525904e-15
    outer loop
      vertex   -2.000000e+00 -2.000000e+00 1.000000e+01
      vertex   -2.286649e+00 -2.000000e+00 1.097772e+01
      vertex   -2.389337e+00 -2.000000e+00 1.095443e+01
    endloop
  endfacet
  facet normal 4.354838e-15 -1.000000e+00 -8.471986e-17
    outer loop
      vertex   -2.389337e+00 -2.000000e+00 1.095443e+01
      vertex   -2.491786e+00 -2.000000e+00 1.093011e+01
      vertex   -2.000000e+00 -2.000000e+00 1.000000e+01
    endloop
  endfacet
  facet normal -7.161180e-15 -1.000000e+00 -6.173700e-15
    outer loop
      vertex   -2.000000e+00 -2.000000e+00 1.000000e+01
      vertex   -2.491786e+00 -2.000000e+00 1.093011e+01
      vertex   -2.593975e+00 -2.000000e+00 1.090478e+01
    endloop
  endfacet
  facet normal -3.399764e-15 -1.000000e+00 -3.704379e-15
    outer loop
      vertex   -2.000000e+00 -2.000000e+00 1.000000e+01
      vertex   -2.593975e+00 -2.000000e+00 1.090478e+01
      vertex   -2.695898e+00 -2.000000e+00 1.087844e+01
    endloop
  endfacet
  facet normal -0.000000e+00 -1.000000e+00 -1.011088e-15
    outer loop
      vertex   -2.000000e+00 -2.000000e+00 1.000000e+01
      vertex   -2.695898e+00 -2.000000e+00 1.087844e+01
      vertex   -3.000000e+00 -2.000000e+00 1.000000e+01
    endloop
  endfacet
  facet normal -9.335057e-15 -1.000000e+00 2.220561e-15
    outer loop
      vertex   -3.000000e+00 -2.000000e+00 1.000000e+01
      vertex   -2.695898e+00 -2.000000e+00 1.087844e+01
      vertex   -2.797548e+00 -2.000000e+00 1.085109e+01
    endloop
  endfacet
  facet normal 0.000000e+00 -1.000000e+00 0.000000e+00
    outer loop
      vertex   -3.000000e+00 -2.000000e+00 1.000000e+01
      vertex   -2.797548e+00 -2.000000e+00 1.085109e+01
      vertex   -2.898918e+00 -2.000000e+00 1.082274e+01
    endloop
  endfacet
  facet normal 0.000000e+00 -1.000000e+00 0.000000e+00
    outer loop
      vertex   -2.898918e+00 -2.000000e+00 1.082274e+01
      vertex   -3.000000e+00 -2.000000e+00 1.079338e+01
      vertex   -3.000000e+00 -2.000000e+00 1.000000e+01
    endloop
  endfacet
  facet normal -1.000000e+00 0.000000e+00 0.000000e+00
    outer loop
      vertex   -3.000000e+00 -2.000000e+00 1.079338e+01
      vertex   -3.000000e+00 -1.875941e+00 1.081817e+01
      vertex   -3.000000e+00 -2.000000e+00 1.000000e+01
    endloop
  endfacet
  facet normal -1.000000e+00 -3.674605e-15 5.571816e-16
    outer loop
      vertex   -3.000000e+00 -2.000000e+00 1.000000e+01
      vertex   -3.000000e+00 -1.875941e+00 1.081817e+01
      vertex   -3.000000e+00 -1.751569e+00 1.084137e+01
    endloop
  endfacet
  facet normal -1.000000e+00 9.645788e-17 -5.562990e-16
    outer loop
      vertex   -3.000000e+00 -2.000000e+00 1.000000e+01
      vertex   -3.000000e+00 -1.751569e+00 1.084137e+01
      vertex   -3.000000e+00 -1.626898e+00 1.086299e+01
    endloop
  endfacet
  facet normal -1.000000e+00 0.000000e+00 -5.145965e-16
    outer loop
      vertex   -3.000000e+00 -2.000000e+00 1.000000e+01
      vertex   -3.000000e+00 -1.626898e+00 1.086299e+01
      vertex   -3.000000e+00 -1.000000e+00 1.000000e+01
    endloop
  endfacet
  facet normal -1.000000e+00 7.387493e-17 -4.609316e-16
    outer loop
      vertex   -3.000000e+00 -1.000000e+00 1.000000e+01
      vertex   -3.000000e+00 -1.626898e+00 1.086299e+01
      vertex   -3.000000e+00 -1.501942e+00 1.088301e+01
    endloop
  endfacet
  facet normal -1.000000e+00 6.831406e-17 -4.640926e-16
    outer loop
      vertex   -3.000000e+00 -1.000000e+00 1.000000e+01
      vertex   -3.000000e+00 -1.501942e+00 1.088301e+01
      vertex   -3.000000e+00 -1.376752e+00 1.090144e+01
    endloop
  endfacet
  facet normal -1.000000e+00 6.258776e-17 -4.664859e-16
    outer loop
      vertex   -3.000000e+00 -1.376752e+00 1.090144e+01
      vertex   -3.000000e+00 -1.251356e+00 1.091826e+01
      vertex   -3.000000e+00 -1.000000e+00 1.000000e+01
    endloop
  endfacet
  facet normal -1.000000e+00 1.032433e-14 2.342454e-15
    outer loop
      vertex   -3.000000e+00 -1.000000e+00 1.000000e+01
      vertex   -3.000000e+00 -1.251356e+00 1.091826e+01
      vertex   -3.000000e+00 -1.125767e+00 1.093348e+01
    endloop
  endfacet
  facet normal -1.000000e+00 -7.062084e-15 0.000000e+00
    outer loop
      vertex   -3.000000e+00 -1.000000e+00 1.000000e+01
      vertex   -3.000000e+00 -1.125767e+00 1.093348e+01
      vertex   -3.000000e+00 -1.000000e+00 1.094709e+01
    endloop
  endfacet
  facet normal 1.000000e+00 -0.000000e+00 0.000000e+00
    outer loop
      vertex   -2.000000e+00 -2.000000e+00 1.100000e+01
      vertex   -2.000000e+00 -2.000000e+00 1.000000e+01
      vertex   -2.000000e+00 -1.000000e+00 1.100000e+01
    endloop
  endfacet
  facet normal 1.000000e+00 0.000000e+00 0.000000e+00
    outer loop
      vertex   -2.000000e+00 -1.000000e+00 1.100000e+01
      vertex   -2.000000e+00 -2.000000e+00 1.000000e+01
      vertex   -2.000000e+00 -1.000000e+00 1.000000e+01
    endloop
  endfacet
endsolid
