solid ASCII
  facet normal 9.062044e-01 3.025936e-03 -4.228292e-01
    outer loop
      vertex   1.000000e+01 0.000000e+00 -4.910215e+00
      vertex   9.958107e+00 0.000000e+00 -5.000000e+00
      vertex   1.000000e+01 6.308838e-02 -4.909763e+00
    endloop
  endfacet
  facet normal 9.054041e-01 5.960200e-03 -4.245091e-01
    outer loop
      vertex   1.000000e+01 6.308838e-02 -4.909763e+00
      vertex   9.958107e+00 0.000000e+00 -5.000000e+00
      vertex   9.957282e+00 1.252491e-01 -5.000000e+00
    endloop
  endfacet
  facet normal 9.062048e-01 9.076336e-03 -4.227416e-01
    outer loop
      vertex   1.000000e+01 6.308838e-02 -4.909763e+00
      vertex   9.957282e+00 1.252491e-01 -5.000000e+00
      vertex   1.000000e+01 1.261504e-01 -4.908409e+00
    endloop
  endfacet
  facet normal 9.061156e-01 1.513001e-02 -4.227595e-01
    outer loop
      vertex   1.000000e+01 1.261504e-01 -4.908409e+00
      vertex   9.957282e+00 1.252491e-01 -5.000000e+00
      vertex   1.000000e+01 1.891760e-01 -4.906154e+00
    endloop
  endfacet
  facet normal 9.053519e-01 1.788061e-02 -4.242856e-01
    outer loop
      vertex   1.000000e+01 1.891760e-01 -4.906154e+00
      vertex   9.957282e+00 1.252491e-01 -5.000000e+00
      vertex   9.954809e+00 2.504581e-01 -5.000000e+00
    endloop
  endfacet
  facet normal 9.061147e-01 2.117482e-02 -4.225018e-01
    outer loop
      vertex   1.000000e+01 1.891760e-01 -4.906154e+00
      vertex   9.954809e+00 2.504581e-01 -5.000000e+00
      vertex   1.000000e+01 2.521565e-01 -4.902997e+00
    endloop
  endfacet
  facet normal 9.059410e-01 2.723741e-02 -4.225270e-01
    outer loop
      vertex   1.000000e+01 2.521565e-01 -4.902997e+00
      vertex   9.954809e+00 2.504581e-01 -5.000000e+00
      vertex   1.000000e+01 3.150832e-01 -4.898941e+00
    endloop
  endfacet
  facet normal 9.052403e-01 2.980200e-02 -4.238536e-01
    outer loop
      vertex   1.000000e+01 3.150832e-01 -4.898941e+00
      vertex   9.954809e+00 2.504581e-01 -5.000000e+00
      vertex   9.950689e+00 3.756115e-01 -5.000000e+00
    endloop
  endfacet
  facet normal 9.058209e-01 3.270812e-02 -4.223964e-01
    outer loop
      vertex   1.000000e+01 3.150832e-01 -4.898941e+00
      vertex   9.950689e+00 3.756115e-01 -5.000000e+00
      vertex   9.998417e+00 3.726846e-01 -4.897875e+00
    endloop
  endfacet
  facet normal 9.056272e-01 4.129007e-02 -4.220599e-01
    outer loop
      vertex   9.998417e+00 3.726846e-01 -4.897875e+00
      vertex   9.950689e+00 3.756115e-01 -5.000000e+00
      vertex   9.992700e+00 4.980817e-01 -4.897875e+00
    endloop
  endfacet
  facet normal 9.004481e-01 4.105394e-02 -4.330217e-01
    outer loop
      vertex   9.998417e+00 3.726846e-01 -4.897875e+00
      vertex   9.992700e+00 4.980817e-01 -4.897875e+00
      vertex   1.000000e+01 4.407408e-01 -4.888131e+00
    endloop
  endfacet
  facet normal 9.080471e-01 4.483534e-02 -4.164616e-01
    outer loop
      vertex   1.000000e+01 4.407408e-01 -4.888131e+00
      vertex   9.992700e+00 4.980817e-01 -4.897875e+00
      vertex   1.000000e+01 5.034543e-01 -4.881380e+00
    endloop
  endfacet
  facet normal 9.070005e-01 5.105274e-02 -4.180235e-01
    outer loop
      vertex   1.000000e+01 5.034543e-01 -4.881380e+00
      vertex   9.992700e+00 4.980817e-01 -4.897875e+00
      vertex   1.000000e+01 5.660783e-01 -4.873731e+00
    endloop
  endfacet
  facet normal 9.044604e-01 5.317418e-02 -4.232302e-01
    outer loop
      vertex   1.000000e+01 5.660783e-01 -4.873731e+00
      vertex   9.992700e+00 4.980817e-01 -4.897875e+00
      vertex   9.985296e+00 6.240182e-01 -4.897875e+00
    endloop
  endfacet
  facet normal 9.074910e-01 5.687108e-02 -4.162040e-01
    outer loop
      vertex   1.000000e+01 5.660783e-01 -4.873731e+00
      vertex   9.985296e+00 6.240182e-01 -4.897875e+00
      vertex   1.000000e+01 6.285712e-01 -4.865192e+00
    endloop
  endfacet
  facet normal 9.068289e-01 6.301408e-02 -4.167619e-01
    outer loop
      vertex   1.000000e+01 6.285712e-01 -4.865192e+00
      vertex   9.985296e+00 6.240182e-01 -4.897875e+00
      vertex   1.000000e+01 6.909097e-01 -4.855767e+00
    endloop
  endfacet
  facet normal 9.052653e-01 6.527201e-02 -4.198028e-01
    outer loop
      vertex   1.000000e+01 6.909097e-01 -4.855767e+00
      vertex   9.985296e+00 6.240182e-01 -4.897875e+00
      vertex   9.976140e+00 7.510090e-01 -4.897875e+00
    endloop
  endfacet
  facet normal 9.069465e-01 6.890360e-02 -4.155722e-01
    outer loop
      vertex   1.000000e+01 6.909097e-01 -4.855767e+00
      vertex   9.976140e+00 7.510090e-01 -4.897875e+00
      vertex   1.000000e+01 7.530856e-01 -4.845458e+00
    endloop
  endfacet
  facet normal 9.064548e-01 7.499867e-02 -4.155899e-01
    outer loop
      vertex   1.000000e+01 7.530856e-01 -4.845458e+00
      vertex   9.976140e+00 7.510090e-01 -4.897875e+00
      vertex   1.000000e+01 8.150908e-01 -4.834268e+00
    endloop
  endfacet
  facet normal 9.053413e-01 7.738362e-02 -4.175749e-01
    outer loop
      vertex   1.000000e+01 8.150908e-01 -4.834268e+00
      vertex   9.976140e+00 7.510090e-01 -4.897875e+00
      vertex   9.965337e+00 8.773957e-01 -4.897875e+00
    endloop
  endfacet
  facet normal 9.063709e-01 8.093410e-02 -4.146582e-01
    outer loop
      vertex   1.000000e+01 8.150908e-01 -4.834268e+00
      vertex   9.965337e+00 8.773957e-01 -4.897875e+00
      vertex   1.000000e+01 8.769170e-01 -4.822201e+00
    endloop
  endfacet
  facet normal 9.059196e-01 8.701387e-02 -4.144131e-01
    outer loop
      vertex   1.000000e+01 8.769170e-01 -4.822201e+00
      vertex   9.965337e+00 8.773957e-01 -4.897875e+00
      vertex   1.000000e+01 9.385561e-01 -4.809258e+00
    endloop
  endfacet
  facet normal 9.051183e-01 8.929825e-02 -4.156762e-01
    outer loop
      vertex   1.000000e+01 9.385561e-01 -4.809258e+00
      vertex   9.965337e+00 8.773957e-01 -4.897875e+00
      vertex   9.953207e+00 1.000000e+00 -4.897949e+00
    endloop
  endfacet
  facet normal 9.057572e-01 9.296113e-02 -4.134757e-01
    outer loop
      vertex   1.000000e+01 9.385561e-01 -4.809258e+00
      vertex   9.953207e+00 1.000000e+00 -4.897949e+00
      vertex   1.000000e+01 1.000000e+00 -4.795444e+00
    endloop
  endfacet
  facet normal 9.053979e-01 4.174162e-02 -4.225071e-01
    outer loop
      vertex   9.950689e+00 3.756115e-01 -5.000000e+00
      vertex   9.944923e+00 5.006936e-01 -5.000000e+00
      vertex   9.992700e+00 4.980817e-01 -4.897875e+00
    endloop
  endfacet
  facet normal 9.050166e-01 5.320688e-02 -4.220355e-01
    outer loop
      vertex   9.992700e+00 4.980817e-01 -4.897875e+00
      vertex   9.944923e+00 5.006936e-01 -5.000000e+00
      vertex   9.985296e+00 6.240182e-01 -4.897875e+00
    endloop
  endfacet
  facet normal 9.047823e-01 5.365277e-02 -4.224813e-01
    outer loop
      vertex   9.944923e+00 5.006936e-01 -5.000000e+00
      vertex   9.937510e+00 6.256891e-01 -5.000000e+00
      vertex   9.985296e+00 6.240182e-01 -4.897875e+00
    endloop
  endfacet
  facet normal 9.042321e-01 6.519752e-02 -4.220350e-01
    outer loop
      vertex   9.985296e+00 6.240182e-01 -4.897875e+00
      vertex   9.937510e+00 6.256891e-01 -5.000000e+00
      vertex   9.976140e+00 7.510090e-01 -4.897875e+00
    endloop
  endfacet
  facet normal 9.040356e-01 6.555586e-02 -4.224003e-01
    outer loop
      vertex   9.937510e+00 6.256891e-01 -5.000000e+00
      vertex   9.928454e+00 7.505824e-01 -5.000000e+00
      vertex   9.976140e+00 7.510090e-01 -4.897875e+00
    endloop
  endfacet
  facet normal 9.032615e-01 7.720585e-02 -4.220875e-01
    outer loop
      vertex   9.976140e+00 7.510090e-01 -4.897875e+00
      vertex   9.928454e+00 7.505824e-01 -5.000000e+00
      vertex   9.965337e+00 8.773957e-01 -4.897875e+00
    endloop
  endfacet
  facet normal 9.031240e-01 7.744723e-02 -4.223376e-01
    outer loop
      vertex   9.928454e+00 7.505824e-01 -5.000000e+00
      vertex   9.917754e+00 8.753578e-01 -5.000000e+00
      vertex   9.965337e+00 8.773957e-01 -4.897875e+00
    endloop
  endfacet
  facet normal 9.021607e-01 8.900172e-02 -4.221194e-01
    outer loop
      vertex   9.965337e+00 8.773957e-01 -4.897875e+00
      vertex   9.917754e+00 8.753578e-01 -5.000000e+00
      vertex   9.953207e+00 1.000000e+00 -4.897949e+00
    endloop
  endfacet
  facet normal 9.019783e-01 8.931797e-02 -4.224423e-01
    outer loop
      vertex   9.917754e+00 8.753578e-01 -5.000000e+00
      vertex   9.905411e+00 1.000000e+00 -5.000000e+00
      vertex   9.953207e+00 1.000000e+00 -4.897949e+00
    endloop
  endfacet
  facet normal 9.058266e-01 3.932504e-02 -4.218196e-01
    outer loop
      vertex   1.000000e+01 4.407408e-01 -4.888131e+00
      vertex   1.000000e+01 3.779475e-01 -4.893985e+00
      vertex   9.998417e+00 3.726846e-01 -4.897875e+00
    endloop
  endfacet
  facet normal 9.095467e-01 3.266096e-02 -4.143164e-01
    outer loop
      vertex   9.998417e+00 3.726846e-01 -4.897875e+00
      vertex   1.000000e+01 3.779475e-01 -4.893985e+00
      vertex   1.000000e+01 3.150832e-01 -4.898941e+00
    endloop
  endfacet
  facet normal 0.000000e+00 1.000000e+00 -0.000000e+00
    outer loop
      vertex   9.953207e+00 1.000000e+00 -4.897949e+00
      vertex   9.000000e+00 1.000000e+00 -5.000000e+00
      vertex   1.000000e+01 1.000000e+00 -4.795444e+00
    endloop
  endfacet
  facet normal 0.000000e+00 1.000000e+00 0.000000e+00
    outer loop
      vertex   1.000000e+01 1.000000e+00 -4.795444e+00
      vertex   9.000000e+00 1.000000e+00 -5.000000e+00
      vertex   9.000000e+00 1.000000e+00 -4.000000e+00
    endloop
  endfacet
  facet normal 0.000000e+00 1.000000e+00 -0.000000e+00
    outer loop
      vertex   1.000000e+01 1.000000e+00 -4.795444e+00
      vertex   9.000000e+00 1.000000e+00 -4.000000e+00
      vertex   1.000000e+01 1.000000e+00 -4.000000e+00
    endloop
  endfacet
  facet normal 0.000000e+00 1.000000e+00 0.000000e+00
    outer loop
      vertex   9.953207e+00 1.000000e+00 -4.897949e+00
      vertex   9.905411e+00 1.000000e+00 -5.000000e+00
      vertex   9.000000e+00 1.000000e+00 -5.000000e+00
    endloop
  endfacet
  facet normal -0.000000e+00 -0.000000e+00 -1.000000e+00
    outer loop
      vertex   9.905411e+00 1.000000e+00 -5.000000e+00
      vertex   9.917754e+00 8.753578e-01 -5.000000e+00
      vertex   9.000000e+00 1.000000e+00 -5.000000e+00
    endloop
  endfacet
  facet normal 0.000000e+00 0.000000e+00 -1.000000e+00
    outer loop
      vertex   9.000000e+00 1.000000e+00 -5.000000e+00
      vertex   9.917754e+00 8.753578e-01 -5.000000e+00
      vertex   9.928454e+00 7.505824e-01 -5.000000e+00
    endloop
  endfacet
  facet normal 0.000000e+00 0.000000e+00 -1.000000e+00
    outer loop
      vertex   9.000000e+00 1.000000e+00 -5.000000e+00
      vertex   9.928454e+00 7.505824e-01 -5.000000e+00
      vertex   9.937510e+00 6.256891e-01 -5.000000e+00
    endloop
  endfacet
  facet normal -0.000000e+00 -0.000000e+00 -1.000000e+00
    outer loop
      vertex   9.937510e+00 6.256891e-01 -5.000000e+00
      vertex   9.944923e+00 5.006936e-01 -5.000000e+00
      vertex   9.000000e+00 1.000000e+00 -5.000000e+00
    endloop
  endfacet
  facet normal 0.000000e+00 0.000000e+00 -1.000000e+00
    outer loop
      vertex   9.000000e+00 1.000000e+00 -5.000000e+00
      vertex   9.944923e+00 5.006936e-01 -5.000000e+00
      vertex   9.000000e+00 0.000000e+00 -5.000000e+00
    endloop
  endfacet
  facet normal 0.000000e+00 0.000000e+00 -1.000000e+00
    outer loop
      vertex   9.000000e+00 0.000000e+00 -5.000000e+00
      vertex   9.944923e+00 5.006936e-01 -5.000000e+00
      vertex   9.950689e+00 3.756115e-01 -5.000000e+00
    endloop
  endfacet
  facet normal 0.000000e+00 0.000000e+00 -1.000000e+00
    outer loop
      vertex   9.000000e+00 0.000000e+00 -5.000000e+00
      vertex   9.950689e+00 3.756115e-01 -5.000000e+00
      vertex   9.954809e+00 2.504581e-01 -5.000000e+00
    endloop
  endfacet
  facet normal 0.000000e+00 -0.000000e+00 -1.000000e+00
    outer loop
      vertex   9.954809e+00 2.504581e-01 -5.000000e+00
      vertex   9.957282e+00 1.252491e-01 -5.000000e+00
      vertex   9.000000e+00 0.000000e+00 -5.000000e+00
    endloop
  endfacet
  facet normal 0.000000e+00 0.000000e+00 -1.000000e+00
    outer loop
      vertex   9.000000e+00 0.000000e+00 -5.000000e+00
      vertex   9.957282e+00 1.252491e-01 -5.000000e+00
      vertex   9.958107e+00 0.000000e+00 -5.000000e+00
    endloop
  endfacet
  facet normal 0.000000e+00 0.000000e+00 1.000000e+00
    outer loop
      vertex   1.000000e+01 1.000000e+00 -4.000000e+00
      vertex   9.000000e+00 1.000000e+00 -4.000000e+00
      vertex   1.000000e+01 0.000000e+00 -4.000000e+00
    endloop
  endfacet
  facet normal 0.000000e+00 0.000000e+00 1.000000e+00
    outer loop
      vertex   1.000000e+01 0.000000e+00 -4.000000e+00
      vertex   9.000000e+00 1.000000e+00 -4.000000e+00
      vertex   9.000000e+00 0.000000e+00 -4.000000e+00
    endloop
  endfacet
  facet normal 0.000000e+00 -1.000000e+00 0.000000e+00
    outer loop
      vertex   9.958107e+00 0.000000e+00 -5.000000e+00
      vertex   1.000000e+01 0.000000e+00 -4.910215e+00
      vertex   9.000000e+00 0.000000e+00 -5.000000e+00
    endloop
  endfacet
  facet normal 0.000000e+00 -1.000000e+00 0.000000e+00
    outer loop
      vertex   9.000000e+00 0.000000e+00 -5.000000e+00
      vertex   1.000000e+01 0.000000e+00 -4.910215e+00
      vertex   9.000000e+00 0.000000e+00 -4.000000e+00
    endloop
  endfacet
  facet normal 0.000000e+00 -1.000000e+00 0.000000e+00
    outer loop
      vertex   9.000000e+00 0.000000e+00 -4.000000e+00
      vertex   1.000000e+01 0.000000e+00 -4.910215e+00
      vertex   1.000000e+01 0.000000e+00 -4.000000e+00
    endloop
  endfacet
  facet normal -1.000000e+00 -0.000000e+00 -0.000000e+00
    outer loop
      vertex   9.000000e+00 1.000000e+00 -4.000000e+00
      vertex   9.000000e+00 1.000000e+00 -5.000000e+00
      vertex   9.000000e+00 0.000000e+00 -4.000000e+00
    endloop
  endfacet
  facet normal -1.000000e+00 0.000000e+00 0.000000e+00
    outer loop
      vertex   9.000000e+00 0.000000e+00 -4.000000e+00
      vertex   9.000000e+00 1.000000e+00 -5.000000e+00
      vertex   9.000000e+00 0.000000e+00 -5.000000e+00
    endloop
  endfacet
  facet normal 1.000000e+00 2.815664e-14 -0.000000e+00
    outer loop
      vertex   1.000000e+01 0.000000e+00 -4.910215e+00
      vertex   1.000000e+01 6.308838e-02 -4.909763e+00
      vertex   1.000000e+01 0.000000e+00 -4.000000e+00
    endloop
  endfacet
  facet normal 1.000000e+00 4.185923e-17 -1.949645e-15
    outer loop
      vertex   1.000000e+01 0.000000e+00 -4.000000e+00
      vertex   1.000000e+01 6.308838e-02 -4.909763e+00
      vertex   1.000000e+01 1.261504e-01 -4.908409e+00
    endloop
  endfacet
  facet normal 1.000000e+00 6.963720e-17 -1.945788e-15
    outer loop
      vertex   1.000000e+01 0.000000e+00 -4.000000e+00
      vertex   1.000000e+01 1.261504e-01 -4.908409e+00
      vertex   1.000000e+01 1.891760e-01 -4.906154e+00
    endloop
  endfacet
  facet normal 1.000000e+00 -5.572842e-14 -1.359464e-14
    outer loop
      vertex   1.000000e+01 1.891760e-01 -4.906154e+00
      vertex   1.000000e+01 2.521565e-01 -4.902997e+00
      vertex   1.000000e+01 0.000000e+00 -4.000000e+00
    endloop
  endfacet
  facet normal 1.000000e+00 2.760524e-14 9.675773e-15
    outer loop
      vertex   1.000000e+01 0.000000e+00 -4.000000e+00
      vertex   1.000000e+01 2.521565e-01 -4.902997e+00
      vertex   1.000000e+01 3.150832e-01 -4.898941e+00
    endloop
  endfacet
  facet normal 1.000000e+00 -2.749723e-14 -9.637915e-15
    outer loop
      vertex   1.000000e+01 0.000000e+00 -4.000000e+00
      vertex   1.000000e+01 3.150832e-01 -4.898941e+00
      vertex   1.000000e+01 3.779475e-01 -4.893985e+00
    endloop
  endfacet
  facet normal 1.000000e+00 -1.782190e-16 1.911664e-15
    outer loop
      vertex   1.000000e+01 3.779475e-01 -4.893985e+00
      vertex   1.000000e+01 4.407408e-01 -4.888131e+00
      vertex   1.000000e+01 0.000000e+00 -4.000000e+00
    endloop
  endfacet
  facet normal 1.000000e+00 -2.044065e-16 1.898668e-15
    outer loop
      vertex   1.000000e+01 0.000000e+00 -4.000000e+00
      vertex   1.000000e+01 4.407408e-01 -4.888131e+00
      vertex   1.000000e+01 5.034543e-01 -4.881380e+00
    endloop
  endfacet
  facet normal 1.000000e+00 -2.300905e-16 1.883997e-15
    outer loop
      vertex   1.000000e+01 0.000000e+00 -4.000000e+00
      vertex   1.000000e+01 5.034543e-01 -4.881380e+00
      vertex   1.000000e+01 5.660783e-01 -4.873731e+00
    endloop
  endfacet
  facet normal 1.000000e+00 -0.000000e+00 2.033070e-15
    outer loop
      vertex   1.000000e+01 0.000000e+00 -4.000000e+00
      vertex   1.000000e+01 5.660783e-01 -4.873731e+00
      vertex   1.000000e+01 1.000000e+00 -4.000000e+00
    endloop
  endfacet
  facet normal 1.000000e+00 -2.980278e-16 2.181079e-15
    outer loop
      vertex   1.000000e+01 1.000000e+00 -4.000000e+00
      vertex   1.000000e+01 5.660783e-01 -4.873731e+00
      vertex   1.000000e+01 6.285712e-01 -4.865192e+00
    endloop
  endfacet
  facet normal 1.000000e+00 3.014139e-14 -1.088663e-14
    outer loop
      vertex   1.000000e+01 1.000000e+00 -4.000000e+00
      vertex   1.000000e+01 6.285712e-01 -4.865192e+00
      vertex   1.000000e+01 6.909097e-01 -4.855767e+00
    endloop
  endfacet
  facet normal 1.000000e+00 0.000000e+00 0.000000e+00
    outer loop
      vertex   1.000000e+01 6.909097e-01 -4.855767e+00
      vertex   1.000000e+01 7.530856e-01 -4.845458e+00
      vertex   1.000000e+01 1.000000e+00 -4.000000e+00
    endloop
  endfacet
  facet normal 1.000000e+00 0.000000e+00 0.000000e+00
    outer loop
      vertex   1.000000e+01 1.000000e+00 -4.000000e+00
      vertex   1.000000e+01 7.530856e-01 -4.845458e+00
      vertex   1.000000e+01 8.150908e-01 -4.834268e+00
    endloop
  endfacet
  facet normal 1.000000e+00 0.000000e+00 0.000000e+00
    outer loop
      vertex   1.000000e+01 1.000000e+00 -4.000000e+00
      vertex   1.000000e+01 8.150908e-01 -4.834268e+00
      vertex   1.000000e+01 8.769170e-01 -4.822201e+00
    endloop
  endfacet
  facet normal 1.000000e+00 0.000000e+00 0.000000e+00
    outer loop
      vertex   1.000000e+01 8.769170e-01 -4.822201e+00
      vertex   1.000000e+01 9.385561e-01 -4.809258e+00
      vertex   1.000000e+01 1.000000e+00 -4.000000e+00
    endloop
  endfacet
  facet normal 1.000000e+00 0.000000e+00 0.000000e+00
    outer loop
      vertex   1.000000e+01 1.000000e+00 -4.000000e+00
      vertex   1.000000e+01 9.385561e-01 -4.809258e+00
      vertex   1.000000e+01 1.000000e+00 -4.795444e+00
    endloop
  endfacet
endsolid
