solid ASCII
  facet normal -6.440979e-01 5.691222e-01 -5.111143e-01
    outer loop
      vertex   -7.151609e+00 6.000000e+00 -6.000000e+00
      vertex   -7.114093e+00 6.042459e+00 -6.000000e+00
      vertex   -7.114154e+00 6.000000e+00 -6.047199e+00
    endloop
  endfacet
  facet normal -6.391683e-01 5.721849e-01 -5.138758e-01
    outer loop
      vertex   -7.114154e+00 6.000000e+00 -6.047199e+00
      vertex   -7.114093e+00 6.042459e+00 -6.000000e+00
      vertex   -7.076401e+00 6.000000e+00 -6.094158e+00
    endloop
  endfacet
  facet normal -6.415686e-01 5.696547e-01 -5.136957e-01
    outer loop
      vertex   -7.076401e+00 6.000000e+00 -6.094158e+00
      vertex   -7.114093e+00 6.042459e+00 -6.000000e+00
      vertex   -7.071245e+00 6.006032e+00 -6.093909e+00
    endloop
  endfacet
  facet normal -6.385043e-01 5.672991e-01 -5.200808e-01
    outer loop
      vertex   -7.076401e+00 6.000000e+00 -6.094158e+00
      vertex   -7.071245e+00 6.006032e+00 -6.093909e+00
      vertex   -7.038349e+00 6.000000e+00 -6.140875e+00
    endloop
  endfacet
  facet normal -6.369425e-01 5.697618e-01 -5.193032e-01
    outer loop
      vertex   -7.038349e+00 6.000000e+00 -6.140875e+00
      vertex   -7.071245e+00 6.006032e+00 -6.093909e+00
      vertex   -7.033695e+00 6.048009e+00 -6.093909e+00
    endloop
  endfacet
  facet normal -6.326399e-01 5.720364e-01 -5.220547e-01
    outer loop
      vertex   -7.038349e+00 6.000000e+00 -6.140875e+00
      vertex   -7.033695e+00 6.048009e+00 -6.093909e+00
      vertex   -7.000000e+00 6.000000e+00 -6.187347e+00
    endloop
  endfacet
  facet normal -6.374629e-01 5.672971e-01 -5.213589e-01
    outer loop
      vertex   -7.000000e+00 6.000000e+00 -6.187347e+00
      vertex   -7.033695e+00 6.048009e+00 -6.093909e+00
      vertex   -7.000000e+00 6.042620e+00 -6.140971e+00
    endloop
  endfacet
  facet normal -6.341869e-01 5.725452e-01 -5.196142e-01
    outer loop
      vertex   -7.000000e+00 6.042620e+00 -6.140971e+00
      vertex   -7.033695e+00 6.048009e+00 -6.093909e+00
      vertex   -7.014835e+00 6.068899e+00 -6.093909e+00
    endloop
  endfacet
  facet normal -6.325200e-01 5.740841e-01 -5.199480e-01
    outer loop
      vertex   -7.000000e+00 6.042620e+00 -6.140971e+00
      vertex   -7.014835e+00 6.068899e+00 -6.093909e+00
      vertex   -7.000000e+00 6.084903e+00 -6.094286e+00
    endloop
  endfacet
  facet normal -6.352751e-01 5.767889e-01 -5.135564e-01
    outer loop
      vertex   -7.000000e+00 6.084903e+00 -6.094286e+00
      vertex   -7.014835e+00 6.068899e+00 -6.093909e+00
      vertex   -7.038287e+00 6.126683e+00 -6.000000e+00
    endloop
  endfacet
  facet normal -6.367167e-01 5.752738e-01 -5.134704e-01
    outer loop
      vertex   -7.000000e+00 6.084903e+00 -6.094286e+00
      vertex   -7.038287e+00 6.126683e+00 -6.000000e+00
      vertex   -7.000000e+00 6.126845e+00 -6.047295e+00
    endloop
  endfacet
  facet normal -6.336360e-01 5.808855e-01 -5.109573e-01
    outer loop
      vertex   -7.000000e+00 6.126845e+00 -6.047295e+00
      vertex   -7.038287e+00 6.126683e+00 -6.000000e+00
      vertex   -7.000000e+00 6.168447e+00 -6.000000e+00
    endloop
  endfacet
  facet normal -6.394780e-01 5.720298e-01 -5.136631e-01
    outer loop
      vertex   -7.071245e+00 6.006032e+00 -6.093909e+00
      vertex   -7.114093e+00 6.042459e+00 -6.000000e+00
      vertex   -7.033695e+00 6.048009e+00 -6.093909e+00
    endloop
  endfacet
  facet normal -6.394770e-01 5.720318e-01 -5.136621e-01
    outer loop
      vertex   -7.033695e+00 6.048009e+00 -6.093909e+00
      vertex   -7.114093e+00 6.042459e+00 -6.000000e+00
      vertex   -7.076318e+00 6.084687e+00 -6.000000e+00
    endloop
  endfacet
  facet normal -6.368693e-01 5.749669e-01 -5.136249e-01
    outer loop
      vertex   -7.033695e+00 6.048009e+00 -6.093909e+00
      vertex   -7.076318e+00 6.084687e+00 -6.000000e+00
      vertex   -7.014835e+00 6.068899e+00 -6.093909e+00
    endloop
  endfacet
  facet normal -6.361242e-01 5.760620e-01 -5.133212e-01
    outer loop
      vertex   -7.014835e+00 6.068899e+00 -6.093909e+00
      vertex   -7.076318e+00 6.084687e+00 -6.000000e+00
      vertex   -7.038287e+00 6.126683e+00 -6.000000e+00
    endloop
  endfacet
  facet normal 1.000000e+00 0.000000e+00 0.000000e+00
    outer loop
      vertex   -7.000000e+00 6.000000e+00 -6.187347e+00
      vertex   -7.000000e+00 6.042620e+00 -6.140971e+00
      vertex   -7.000000e+00 6.000000e+00 -6.000000e+00
    endloop
  endfacet
  facet normal 1.000000e+00 0.000000e+00 0.000000e+00
    outer loop
      vertex   -7.000000e+00 6.000000e+00 -6.000000e+00
      vertex   -7.000000e+00 6.042620e+00 -6.140971e+00
      vertex   -7.000000e+00 6.084903e+00 -6.094286e+00
    endloop
  endfacet
  facet normal 1.000000e+00 0.000000e+00 0.000000e+00
    outer loop
      vertex   -7.000000e+00 6.000000e+00 -6.000000e+00
      vertex   -7.000000e+00 6.084903e+00 -6.094286e+00
      vertex   -7.000000e+00 6.126845e+00 -6.047295e+00
    endloop
  endfacet
  facet normal 1.000000e+00 0.000000e+00 -0.000000e+00
    outer loop
      vertex   -7.000000e+00 6.126845e+00 -6.047295e+00
      vertex   -7.000000e+00 6.168447e+00 -6.000000e+00
      vertex   -7.000000e+00 6.000000e+00 -6.000000e+00
    endloop
  endfacet
  facet normal 0.000000e+00 0.000000e+00 1.000000e+00
    outer loop
      vertex   -7.000000e+00 6.168447e+00 -6.000000e+00
      vertex   -7.038287e+00 6.126683e+00 -6.000000e+00
      vertex   -7.000000e+00 6.000000e+00 -6.000000e+00
    endloop
  endfacet
  facet normal 0.000000e+00 0.000000e+00 1.000000e+00
    outer loop
      vertex   -7.000000e+00 6.000000e+00 -6.000000e+00
      vertex   -7.038287e+00 6.126683e+00 -6.000000e+00
      vertex   -7.076318e+00 6.084687e+00 -6.000000e+00
    endloop
  endfacet
  facet normal 0.000000e+00 0.000000e+00 1.000000e+00
    outer loop
      vertex   -7.000000e+00 6.000000e+00 -6.000000e+00
      vertex   -7.076318e+00 6.084687e+00 -6.000000e+00
      vertex   -7.114093e+00 6.042459e+00 -6.000000e+00
    endloop
  endfacet
  facet normal 0.000000e+00 0.000000e+00 1.000000e+00
    outer loop
      vertex   -7.114093e+00 6.042459e+00 -6.000000e+00
      vertex   -7.151609e+00 6.000000e+00 -6.000000e+00
      vertex   -7.000000e+00 6.000000e+00 -6.000000e+00
    endloop
  endfacet
  facet normal 0.000000e+00 -1.000000e+00 0.000000e+00
    outer loop
      vertex   -7.151609e+00 6.000000e+00 -6.000000e+00
      vertex   -7.114154e+00 6.000000e+00 -6.047199e+00
      vertex   -7.000000e+00 6.000000e+00 -6.000000e+00
    endloop
  endfacet
  facet normal 0.000000e+00 -1.000000e+00 0.000000e+00
    outer loop
      vertex   -7.000000e+00 6.000000e+00 -6.000000e+00
      vertex   -7.114154e+00 6.000000e+00 -6.047199e+00
      vertex   -7.076401e+00 6.000000e+00 -6.094158e+00
    endloop
  endfacet
  facet normal 0.000000e+00 -1.000000e+00 0.000000e+00
    outer loop
      vertex   -7.000000e+00 6.000000e+00 -6.000000e+00
      vertex   -7.076401e+00 6.000000e+00 -6.094158e+00
      vertex   -7.038349e+00 6.000000e+00 -6.140875e+00
    endloop
  endfacet
  facet normal 0.000000e+00 -1.000000e+00 0.000000e+00
    outer loop
      vertex   -7.038349e+00 6.000000e+00 -6.140875e+00
      vertex   -7.000000e+00 6.000000e+00 -6.187347e+00
      vertex   -7.000000e+00 6.000000e+00 -6.000000e+00
    endloop
  endfacet
endsolid
