solid ASCII
  facet normal 2.546979e-01 -2.865026e-01 9.236045e-01
    outer loop
      vertex   3.000000e+00 -2.876572e+00 1.057050e+01
      vertex   3.000000e+00 -3.000000e+00 1.053221e+01
      vertex   3.008005e+00 -2.940104e+00 1.054858e+01
    endloop
  endfacet
  facet normal 2.836599e-01 -2.879326e-01 9.146758e-01
    outer loop
      vertex   3.008005e+00 -2.940104e+00 1.054858e+01
      vertex   3.000000e+00 -3.000000e+00 1.053221e+01
      vertex   3.126930e+00 -3.000000e+00 1.049285e+01
    endloop
  endfacet
  facet normal 2.836999e-01 -2.878623e-01 9.146856e-01
    outer loop
      vertex   3.008005e+00 -2.940104e+00 1.054858e+01
      vertex   3.126930e+00 -3.000000e+00 1.049285e+01
      vertex   3.130360e+00 -2.941490e+00 1.051020e+01
    endloop
  endfacet
  facet normal 2.953651e-01 -2.874842e-01 9.111050e-01
    outer loop
      vertex   3.130360e+00 -2.941490e+00 1.051020e+01
      vertex   3.126930e+00 -3.000000e+00 1.049285e+01
      vertex   3.253355e+00 -3.000000e+00 1.045186e+01
    endloop
  endfacet
  facet normal 2.950724e-01 -2.880240e-01 9.110293e-01
    outer loop
      vertex   3.130360e+00 -2.941490e+00 1.051020e+01
      vertex   3.253355e+00 -3.000000e+00 1.045186e+01
      vertex   3.253770e+00 -2.939177e+00 1.047096e+01
    endloop
  endfacet
  facet normal 3.040712e-01 -2.872335e-01 9.083158e-01
    outer loop
      vertex   3.253770e+00 -2.939177e+00 1.047096e+01
      vertex   3.253355e+00 -3.000000e+00 1.045186e+01
      vertex   3.318394e+00 -2.997553e+00 1.043086e+01
    endloop
  endfacet
  facet normal 3.067122e-01 -2.843279e-01 9.083420e-01
    outer loop
      vertex   3.253770e+00 -2.939177e+00 1.047096e+01
      vertex   3.318394e+00 -2.997553e+00 1.043086e+01
      vertex   3.312325e+00 -2.876013e+00 1.047096e+01
    endloop
  endfacet
  facet normal 3.067122e-01 -2.843279e-01 9.083420e-01
    outer loop
      vertex   3.312325e+00 -2.876013e+00 1.047096e+01
      vertex   3.318394e+00 -2.997553e+00 1.043086e+01
      vertex   3.378112e+00 -2.933134e+00 1.043086e+01
    endloop
  endfacet
  facet normal 3.121453e-01 -2.781204e-01 9.084131e-01
    outer loop
      vertex   3.312325e+00 -2.876013e+00 1.047096e+01
      vertex   3.378112e+00 -2.933134e+00 1.043086e+01
      vertex   3.369560e+00 -2.811775e+00 1.047096e+01
    endloop
  endfacet
  facet normal 3.121454e-01 -2.781204e-01 9.084131e-01
    outer loop
      vertex   3.369560e+00 -2.811775e+00 1.047096e+01
      vertex   3.378112e+00 -2.933134e+00 1.043086e+01
      vertex   3.436485e+00 -2.867620e+00 1.043086e+01
    endloop
  endfacet
  facet normal 3.174548e-01 -2.718083e-01 9.084837e-01
    outer loop
      vertex   3.369560e+00 -2.811775e+00 1.047096e+01
      vertex   3.436485e+00 -2.867620e+00 1.043086e+01
      vertex   3.425454e+00 -2.746494e+00 1.047096e+01
    endloop
  endfacet
  facet normal 3.174549e-01 -2.718083e-01 9.084837e-01
    outer loop
      vertex   3.425454e+00 -2.746494e+00 1.047096e+01
      vertex   3.436485e+00 -2.867620e+00 1.043086e+01
      vertex   3.493488e+00 -2.801043e+00 1.043086e+01
    endloop
  endfacet
  facet normal 3.226379e-01 -2.653955e-01 9.085538e-01
    outer loop
      vertex   3.425454e+00 -2.746494e+00 1.047096e+01
      vertex   3.493488e+00 -2.801043e+00 1.043086e+01
      vertex   3.479970e+00 -2.680220e+00 1.047096e+01
    endloop
  endfacet
  facet normal 3.226379e-01 -2.653955e-01 9.085538e-01
    outer loop
      vertex   3.479970e+00 -2.680220e+00 1.047096e+01
      vertex   3.493488e+00 -2.801043e+00 1.043086e+01
      vertex   3.549087e+00 -2.733452e+00 1.043086e+01
    endloop
  endfacet
  facet normal 3.276915e-01 -2.588862e-01 9.086232e-01
    outer loop
      vertex   3.479970e+00 -2.680220e+00 1.047096e+01
      vertex   3.549087e+00 -2.733452e+00 1.043086e+01
      vertex   3.533084e+00 -2.612990e+00 1.047096e+01
    endloop
  endfacet
  facet normal 3.276915e-01 -2.588862e-01 9.086232e-01
    outer loop
      vertex   3.533084e+00 -2.612990e+00 1.047096e+01
      vertex   3.549087e+00 -2.733452e+00 1.043086e+01
      vertex   3.603255e+00 -2.664888e+00 1.043086e+01
    endloop
  endfacet
  facet normal 3.326134e-01 -2.522843e-01 9.086919e-01
    outer loop
      vertex   3.533084e+00 -2.612990e+00 1.047096e+01
      vertex   3.603255e+00 -2.664888e+00 1.043086e+01
      vertex   3.584769e+00 -2.544849e+00 1.047096e+01
    endloop
  endfacet
  facet normal 3.326134e-01 -2.522843e-01 9.086919e-01
    outer loop
      vertex   3.584769e+00 -2.544849e+00 1.047096e+01
      vertex   3.603255e+00 -2.664888e+00 1.043086e+01
      vertex   3.655967e+00 -2.595393e+00 1.043086e+01
    endloop
  endfacet
  facet normal 3.374010e-01 -2.455940e-01 9.087597e-01
    outer loop
      vertex   3.584769e+00 -2.544849e+00 1.047096e+01
      vertex   3.655967e+00 -2.595393e+00 1.043086e+01
      vertex   3.635002e+00 -2.475837e+00 1.047096e+01
    endloop
  endfacet
  facet normal 3.374010e-01 -2.455940e-01 9.087597e-01
    outer loop
      vertex   3.635002e+00 -2.475837e+00 1.047096e+01
      vertex   3.655967e+00 -2.595393e+00 1.043086e+01
      vertex   3.707198e+00 -2.525011e+00 1.043086e+01
    endloop
  endfacet
  facet normal 3.420522e-01 -2.388195e-01 9.088264e-01
    outer loop
      vertex   3.635002e+00 -2.475837e+00 1.047096e+01
      vertex   3.707198e+00 -2.525011e+00 1.043086e+01
      vertex   3.683761e+00 -2.406001e+00 1.047096e+01
    endloop
  endfacet
  facet normal 3.420522e-01 -2.388195e-01 9.088264e-01
    outer loop
      vertex   3.683761e+00 -2.406001e+00 1.047096e+01
      vertex   3.707198e+00 -2.525011e+00 1.043086e+01
      vertex   3.756925e+00 -2.453788e+00 1.043086e+01
    endloop
  endfacet
  facet normal 3.465663e-01 -2.319633e-01 9.088921e-01
    outer loop
      vertex   3.683761e+00 -2.406001e+00 1.047096e+01
      vertex   3.756925e+00 -2.453788e+00 1.043086e+01
      vertex   3.731053e+00 -2.335344e+00 1.047096e+01
    endloop
  endfacet
  facet normal 3.465667e-01 -2.319632e-01 9.088920e-01
    outer loop
      vertex   3.731053e+00 -2.335344e+00 1.047096e+01
      vertex   3.756925e+00 -2.453788e+00 1.043086e+01
      vertex   3.805161e+00 -2.381721e+00 1.043086e+01
    endloop
  endfacet
  facet normal 3.509384e-01 -2.250334e-01 9.089567e-01
    outer loop
      vertex   3.731053e+00 -2.335344e+00 1.047096e+01
      vertex   3.805161e+00 -2.381721e+00 1.043086e+01
      vertex   3.776781e+00 -2.264033e+00 1.047096e+01
    endloop
  endfacet
  facet normal 3.509388e-01 -2.250332e-01 9.089565e-01
    outer loop
      vertex   3.776781e+00 -2.264033e+00 1.047096e+01
      vertex   3.805161e+00 -2.381721e+00 1.043086e+01
      vertex   3.851792e+00 -2.308999e+00 1.043086e+01
    endloop
  endfacet
  facet normal 3.551679e-01 -2.180347e-01 9.090196e-01
    outer loop
      vertex   3.776781e+00 -2.264033e+00 1.047096e+01
      vertex   3.851792e+00 -2.308999e+00 1.043086e+01
      vertex   3.821006e+00 -2.191991e+00 1.047096e+01
    endloop
  endfacet
  facet normal 3.551679e-01 -2.180347e-01 9.090196e-01
    outer loop
      vertex   3.821006e+00 -2.191991e+00 1.047096e+01
      vertex   3.851792e+00 -2.308999e+00 1.043086e+01
      vertex   3.896897e+00 -2.235527e+00 1.043086e+01
    endloop
  endfacet
  facet normal 3.592547e-01 -2.109674e-01 9.090813e-01
    outer loop
      vertex   3.821006e+00 -2.191991e+00 1.047096e+01
      vertex   3.896897e+00 -2.235527e+00 1.043086e+01
      vertex   3.863690e+00 -2.119306e+00 1.047096e+01
    endloop
  endfacet
  facet normal 3.592547e-01 -2.109674e-01 9.090813e-01
    outer loop
      vertex   3.863690e+00 -2.119306e+00 1.047096e+01
      vertex   3.896897e+00 -2.235527e+00 1.043086e+01
      vertex   3.940428e+00 -2.161398e+00 1.043086e+01
    endloop
  endfacet
  facet normal 3.631967e-01 -2.038381e-01 9.091414e-01
    outer loop
      vertex   3.863690e+00 -2.119306e+00 1.047096e+01
      vertex   3.940428e+00 -2.161398e+00 1.043086e+01
      vertex   3.904818e+00 -2.046024e+00 1.047096e+01
    endloop
  endfacet
  facet normal 3.631967e-01 -2.038381e-01 9.091414e-01
    outer loop
      vertex   3.904818e+00 -2.046024e+00 1.047096e+01
      vertex   3.940428e+00 -2.161398e+00 1.043086e+01
      vertex   3.982373e+00 -2.086660e+00 1.043086e+01
    endloop
  endfacet
  facet normal 3.665087e-01 -1.975710e-01 9.091959e-01
    outer loop
      vertex   3.904818e+00 -2.046024e+00 1.047096e+01
      vertex   3.982373e+00 -2.086660e+00 1.043086e+01
      vertex   4.000000e+00 -2.000000e+00 1.044259e+01
    endloop
  endfacet
  facet normal 3.781312e-01 -1.992398e-01 9.040577e-01
    outer loop
      vertex   4.000000e+00 -2.000000e+00 1.044259e+01
      vertex   3.982373e+00 -2.086660e+00 1.043086e+01
      vertex   4.000000e+00 -2.126496e+00 1.041471e+01
    endloop
  endfacet
  facet normal 3.665397e-01 -2.057143e-01 9.073755e-01
    outer loop
      vertex   4.000000e+00 -2.126496e+00 1.041471e+01
      vertex   3.982373e+00 -2.086660e+00 1.043086e+01
      vertex   3.940428e+00 -2.161398e+00 1.043086e+01
    endloop
  endfacet
  facet normal 3.695787e-01 -2.121607e-01 9.046543e-01
    outer loop
      vertex   4.000000e+00 -2.126496e+00 1.041471e+01
      vertex   3.940428e+00 -2.161398e+00 1.043086e+01
      vertex   4.000000e+00 -2.252614e+00 1.038513e+01
    endloop
  endfacet
  facet normal 3.659810e-01 -2.149173e-01 9.054659e-01
    outer loop
      vertex   4.000000e+00 -2.252614e+00 1.038513e+01
      vertex   3.940428e+00 -2.161398e+00 1.043086e+01
      vertex   3.896897e+00 -2.235527e+00 1.043086e+01
    endloop
  endfacet
  facet normal 3.657666e-01 -2.158491e-01 9.053308e-01
    outer loop
      vertex   4.000000e+00 -2.252614e+00 1.038513e+01
      vertex   3.896897e+00 -2.235527e+00 1.043086e+01
      vertex   3.972614e+00 -2.278963e+00 1.038992e+01
    endloop
  endfacet
  facet normal 3.620550e-01 -2.222627e-01 9.052710e-01
    outer loop
      vertex   3.972614e+00 -2.278963e+00 1.038992e+01
      vertex   3.896897e+00 -2.235527e+00 1.043086e+01
      vertex   3.926633e+00 -2.353863e+00 1.038992e+01
    endloop
  endfacet
  facet normal 3.679231e-01 -2.258651e-01 9.020075e-01
    outer loop
      vertex   3.972614e+00 -2.278963e+00 1.038992e+01
      vertex   3.926633e+00 -2.353863e+00 1.038992e+01
      vertex   4.000000e+00 -2.378339e+00 1.035386e+01
    endloop
  endfacet
  facet normal 3.649646e-01 -2.336010e-01 9.012388e-01
    outer loop
      vertex   4.000000e+00 -2.378339e+00 1.035386e+01
      vertex   3.926633e+00 -2.353863e+00 1.038992e+01
      vertex   3.952860e+00 -2.474152e+00 1.034812e+01
    endloop
  endfacet
  facet normal 3.707302e-01 -2.362548e-01 8.981886e-01
    outer loop
      vertex   4.000000e+00 -2.378339e+00 1.035386e+01
      vertex   3.952860e+00 -2.474152e+00 1.034812e+01
      vertex   4.000000e+00 -2.503652e+00 1.032090e+01
    endloop
  endfacet
  facet normal 3.654594e-01 -2.446075e-01 8.981128e-01
    outer loop
      vertex   4.000000e+00 -2.503652e+00 1.032090e+01
      vertex   3.952860e+00 -2.474152e+00 1.034812e+01
      vertex   3.902745e+00 -2.549028e+00 1.034812e+01
    endloop
  endfacet
  facet normal 3.660597e-01 -2.463221e-01 8.973994e-01
    outer loop
      vertex   4.000000e+00 -2.503652e+00 1.032090e+01
      vertex   3.902745e+00 -2.549028e+00 1.034812e+01
      vertex   3.975381e+00 -2.596469e+00 1.030546e+01
    endloop
  endfacet
  facet normal 3.618790e-01 -2.526625e-01 8.973323e-01
    outer loop
      vertex   3.975381e+00 -2.596469e+00 1.030546e+01
      vertex   3.902745e+00 -2.549028e+00 1.034812e+01
      vertex   3.922762e+00 -2.671834e+00 1.030546e+01
    endloop
  endfacet
  facet normal 3.657621e-01 -2.553737e-01 8.949874e-01
    outer loop
      vertex   3.975381e+00 -2.596469e+00 1.030546e+01
      vertex   3.922762e+00 -2.671834e+00 1.030546e+01
      vertex   4.000000e+00 -2.628495e+00 1.028627e+01
    endloop
  endfacet
  facet normal 3.673220e-01 -2.588842e-01 8.933384e-01
    outer loop
      vertex   4.000000e+00 -2.628495e+00 1.028627e+01
      vertex   3.922762e+00 -2.671834e+00 1.030546e+01
      vertex   3.994244e+00 -2.720521e+00 1.026196e+01
    endloop
  endfacet
  facet normal 3.926583e-01 -2.576971e-01 8.828429e-01
    outer loop
      vertex   4.000000e+00 -2.628495e+00 1.028627e+01
      vertex   3.994244e+00 -2.720521e+00 1.026196e+01
      vertex   4.000000e+00 -2.752844e+00 1.024997e+01
    endloop
  endfacet
  facet normal 3.653917e-01 -2.659684e-01 8.920481e-01
    outer loop
      vertex   4.000000e+00 -2.752844e+00 1.024997e+01
      vertex   3.994244e+00 -2.720521e+00 1.026196e+01
      vertex   3.939047e+00 -2.796353e+00 1.026196e+01
    endloop
  endfacet
  facet normal 3.692289e-01 -2.723089e-01 8.885482e-01
    outer loop
      vertex   4.000000e+00 -2.752844e+00 1.024997e+01
      vertex   3.939047e+00 -2.796353e+00 1.026196e+01
      vertex   4.000000e+00 -2.876684e+00 1.021202e+01
    endloop
  endfacet
  facet normal 3.644176e-01 -2.764075e-01 8.892686e-01
    outer loop
      vertex   4.000000e+00 -2.876684e+00 1.021202e+01
      vertex   3.939047e+00 -2.796353e+00 1.026196e+01
      vertex   3.882254e+00 -2.871229e+00 1.026196e+01
    endloop
  endfacet
  facet normal 3.643334e-01 -2.769622e-01 8.891305e-01
    outer loop
      vertex   4.000000e+00 -2.876684e+00 1.021202e+01
      vertex   3.882254e+00 -2.871229e+00 1.026196e+01
      vertex   3.951536e+00 -2.922469e+00 1.021761e+01
    endloop
  endfacet
  facet normal 3.592265e-01 -2.837997e-01 8.890524e-01
    outer loop
      vertex   3.951536e+00 -2.922469e+00 1.021761e+01
      vertex   3.882254e+00 -2.871229e+00 1.026196e+01
      vertex   3.892133e+00 -2.997661e+00 1.021761e+01
    endloop
  endfacet
  facet normal 3.647448e-01 -2.881594e-01 8.853956e-01
    outer loop
      vertex   3.951536e+00 -2.922469e+00 1.021761e+01
      vertex   3.892133e+00 -2.997661e+00 1.021761e+01
      vertex   4.000000e+00 -3.000000e+00 1.017241e+01
    endloop
  endfacet
  facet normal 3.598034e-01 -3.228333e-01 8.753972e-01
    outer loop
      vertex   4.000000e+00 -3.000000e+00 1.017241e+01
      vertex   3.892133e+00 -2.997661e+00 1.021761e+01
      vertex   3.877097e+00 -3.000000e+00 1.022293e+01
    endloop
  endfacet
  facet normal 3.586696e-01 -2.845186e-01 8.890474e-01
    outer loop
      vertex   3.877097e+00 -3.000000e+00 1.022293e+01
      vertex   3.892133e+00 -2.997661e+00 1.021761e+01
      vertex   3.823892e+00 -2.945103e+00 1.026196e+01
    endloop
  endfacet
  facet normal 3.524368e-01 -2.908701e-01 8.894846e-01
    outer loop
      vertex   3.877097e+00 -3.000000e+00 1.022293e+01
      vertex   3.823892e+00 -2.945103e+00 1.026196e+01
      vertex   3.753557e+00 -3.000000e+00 1.027188e+01
    endloop
  endfacet
  facet normal 3.482718e-01 -2.848892e-01 8.930537e-01
    outer loop
      vertex   3.753557e+00 -3.000000e+00 1.027188e+01
      vertex   3.823892e+00 -2.945103e+00 1.026196e+01
      vertex   3.755458e+00 -2.892396e+00 1.030546e+01
    endloop
  endfacet
  facet normal 3.465352e-01 -2.850530e-01 8.936767e-01
    outer loop
      vertex   3.753557e+00 -3.000000e+00 1.027188e+01
      vertex   3.755458e+00 -2.892396e+00 1.030546e+01
      vertex   3.696626e+00 -2.963917e+00 1.030546e+01
    endloop
  endfacet
  facet normal 3.413271e-01 -2.807689e-01 8.970310e-01
    outer loop
      vertex   3.696626e+00 -2.963917e+00 1.030546e+01
      vertex   3.755458e+00 -2.892396e+00 1.030546e+01
      vertex   3.686840e+00 -2.839547e+00 1.034812e+01
    endloop
  endfacet
  facet normal 3.413271e-01 -2.807689e-01 8.970310e-01
    outer loop
      vertex   3.696626e+00 -2.963917e+00 1.030546e+01
      vertex   3.686840e+00 -2.839547e+00 1.034812e+01
      vertex   3.629083e+00 -2.909761e+00 1.034812e+01
    endloop
  endfacet
  facet normal 3.351176e-01 -2.756611e-01 9.009479e-01
    outer loop
      vertex   3.629083e+00 -2.909761e+00 1.034812e+01
      vertex   3.686840e+00 -2.839547e+00 1.034812e+01
      vertex   3.618047e+00 -2.786564e+00 1.038992e+01
    endloop
  endfacet
  facet normal 3.351176e-01 -2.756611e-01 9.009479e-01
    outer loop
      vertex   3.629083e+00 -2.909761e+00 1.034812e+01
      vertex   3.618047e+00 -2.786564e+00 1.038992e+01
      vertex   3.561368e+00 -2.855468e+00 1.038992e+01
    endloop
  endfacet
  facet normal 3.288876e-01 -2.705364e-01 9.047889e-01
    outer loop
      vertex   3.561368e+00 -2.855468e+00 1.038992e+01
      vertex   3.618047e+00 -2.786564e+00 1.038992e+01
      vertex   3.549087e+00 -2.733452e+00 1.043086e+01
    endloop
  endfacet
  facet normal 3.288876e-01 -2.705364e-01 9.047889e-01
    outer loop
      vertex   3.561368e+00 -2.855468e+00 1.038992e+01
      vertex   3.549087e+00 -2.733452e+00 1.043086e+01
      vertex   3.493488e+00 -2.801043e+00 1.043086e+01
    endloop
  endfacet
  facet normal 2.986052e-01 -3.633048e-01 8.825217e-01
    outer loop
      vertex   3.253355e+00 -3.000000e+00 1.045186e+01
      vertex   3.379259e+00 -3.000000e+00 1.040926e+01
      vertex   3.318394e+00 -2.997553e+00 1.043086e+01
    endloop
  endfacet
  facet normal 3.100667e-01 -2.874376e-01 9.062220e-01
    outer loop
      vertex   3.318394e+00 -2.997553e+00 1.043086e+01
      vertex   3.379259e+00 -3.000000e+00 1.040926e+01
      vertex   3.378112e+00 -2.933134e+00 1.043086e+01
    endloop
  endfacet
  facet normal 3.152863e-01 -2.868281e-01 9.046127e-01
    outer loop
      vertex   3.378112e+00 -2.933134e+00 1.043086e+01
      vertex   3.379259e+00 -3.000000e+00 1.040926e+01
      vertex   3.443749e+00 -2.990126e+00 1.038992e+01
    endloop
  endfacet
  facet normal 3.163455e-01 -3.085078e-01 8.970777e-01
    outer loop
      vertex   3.443749e+00 -2.990126e+00 1.038992e+01
      vertex   3.379259e+00 -3.000000e+00 1.040926e+01
      vertex   3.504622e+00 -3.000000e+00 1.036505e+01
    endloop
  endfacet
  facet normal 3.219654e-01 -2.868700e-01 9.022438e-01
    outer loop
      vertex   3.443749e+00 -2.990126e+00 1.038992e+01
      vertex   3.504622e+00 -3.000000e+00 1.036505e+01
      vertex   3.503257e+00 -2.923337e+00 1.038992e+01
    endloop
  endfacet
  facet normal 3.263581e-01 -2.863347e-01 9.008345e-01
    outer loop
      vertex   3.503257e+00 -2.923337e+00 1.038992e+01
      vertex   3.504622e+00 -3.000000e+00 1.036505e+01
      vertex   3.569868e+00 -2.978920e+00 1.034812e+01
    endloop
  endfacet
  facet normal 3.297321e-01 -2.823201e-01 9.008729e-01
    outer loop
      vertex   3.503257e+00 -2.923337e+00 1.038992e+01
      vertex   3.569868e+00 -2.978920e+00 1.034812e+01
      vertex   3.561368e+00 -2.855468e+00 1.038992e+01
    endloop
  endfacet
  facet normal 3.297322e-01 -2.823201e-01 9.008729e-01
    outer loop
      vertex   3.561368e+00 -2.855468e+00 1.038992e+01
      vertex   3.569868e+00 -2.978920e+00 1.034812e+01
      vertex   3.629083e+00 -2.909761e+00 1.034812e+01
    endloop
  endfacet
  facet normal 3.289083e-01 -2.980317e-01 8.961007e-01
    outer loop
      vertex   3.504622e+00 -3.000000e+00 1.036505e+01
      vertex   3.629394e+00 -3.000000e+00 1.031926e+01
      vertex   3.569868e+00 -2.978920e+00 1.034812e+01
    endloop
  endfacet
  facet normal 3.341045e-01 -2.860637e-01 8.980767e-01
    outer loop
      vertex   3.569868e+00 -2.978920e+00 1.034812e+01
      vertex   3.629394e+00 -3.000000e+00 1.031926e+01
      vertex   3.629083e+00 -2.909761e+00 1.034812e+01
    endloop
  endfacet
  facet normal 3.373403e-01 -2.857023e-01 8.969815e-01
    outer loop
      vertex   3.629083e+00 -2.909761e+00 1.034812e+01
      vertex   3.629394e+00 -3.000000e+00 1.031926e+01
      vertex   3.696626e+00 -2.963917e+00 1.030546e+01
    endloop
  endfacet
  facet normal 3.407877e-01 -2.936021e-01 8.931190e-01
    outer loop
      vertex   3.696626e+00 -2.963917e+00 1.030546e+01
      vertex   3.629394e+00 -3.000000e+00 1.031926e+01
      vertex   3.753557e+00 -3.000000e+00 1.027188e+01
    endloop
  endfacet
  facet normal 3.704377e-01 -2.840052e-01 8.843738e-01
    outer loop
      vertex   4.000000e+00 -3.000000e+00 1.017241e+01
      vertex   4.000000e+00 -2.876684e+00 1.021202e+01
      vertex   3.951536e+00 -2.922469e+00 1.021761e+01
    endloop
  endfacet
  facet normal 3.743711e-01 -2.478835e-01 8.935323e-01
    outer loop
      vertex   4.000000e+00 -2.628495e+00 1.028627e+01
      vertex   4.000000e+00 -2.503652e+00 1.032090e+01
      vertex   3.975381e+00 -2.596469e+00 1.030546e+01
    endloop
  endfacet
  facet normal 3.727502e-01 -2.239854e-01 9.004931e-01
    outer loop
      vertex   4.000000e+00 -2.378339e+00 1.035386e+01
      vertex   4.000000e+00 -2.252614e+00 1.038513e+01
      vertex   3.972614e+00 -2.278963e+00 1.038992e+01
    endloop
  endfacet
  facet normal 3.647527e-01 -1.928849e-01 9.109066e-01
    outer loop
      vertex   4.000000e+00 -2.000000e+00 1.044259e+01
      vertex   3.876999e+00 -2.000000e+00 1.049184e+01
      vertex   3.904818e+00 -2.046024e+00 1.047096e+01
    endloop
  endfacet
  facet normal 3.568374e-01 -1.985397e-01 9.128248e-01
    outer loop
      vertex   3.904818e+00 -2.046024e+00 1.047096e+01
      vertex   3.876999e+00 -2.000000e+00 1.049184e+01
      vertex   3.827097e+00 -2.005300e+00 1.051020e+01
    endloop
  endfacet
  facet normal 3.561313e-01 -1.998727e-01 9.128096e-01
    outer loop
      vertex   3.904818e+00 -2.046024e+00 1.047096e+01
      vertex   3.827097e+00 -2.005300e+00 1.051020e+01
      vertex   3.863690e+00 -2.119306e+00 1.047096e+01
    endloop
  endfacet
  facet normal 3.561313e-01 -1.998727e-01 9.128096e-01
    outer loop
      vertex   3.863690e+00 -2.119306e+00 1.047096e+01
      vertex   3.827097e+00 -2.005300e+00 1.051020e+01
      vertex   3.786787e+00 -2.077123e+00 1.051020e+01
    endloop
  endfacet
  facet normal 3.522669e-01 -2.068639e-01 9.127515e-01
    outer loop
      vertex   3.863690e+00 -2.119306e+00 1.047096e+01
      vertex   3.786787e+00 -2.077123e+00 1.051020e+01
      vertex   3.821006e+00 -2.191991e+00 1.047096e+01
    endloop
  endfacet
  facet normal 3.522669e-01 -2.068639e-01 9.127515e-01
    outer loop
      vertex   3.821006e+00 -2.191991e+00 1.047096e+01
      vertex   3.786787e+00 -2.077123e+00 1.051020e+01
      vertex   3.744953e+00 -2.148362e+00 1.051020e+01
    endloop
  endfacet
  facet normal 3.482604e-01 -2.137943e-01 9.126920e-01
    outer loop
      vertex   3.821006e+00 -2.191991e+00 1.047096e+01
      vertex   3.744953e+00 -2.148362e+00 1.051020e+01
      vertex   3.776781e+00 -2.264033e+00 1.047096e+01
    endloop
  endfacet
  facet normal 3.482604e-01 -2.137943e-01 9.126920e-01
    outer loop
      vertex   3.776781e+00 -2.264033e+00 1.047096e+01
      vertex   3.744953e+00 -2.148362e+00 1.051020e+01
      vertex   3.701608e+00 -2.218969e+00 1.051020e+01
    endloop
  endfacet
  facet normal 3.441144e-01 -2.206575e-01 9.126311e-01
    outer loop
      vertex   3.776781e+00 -2.264033e+00 1.047096e+01
      vertex   3.701608e+00 -2.218969e+00 1.051020e+01
      vertex   3.731053e+00 -2.335344e+00 1.047096e+01
    endloop
  endfacet
  facet normal 3.441140e-01 -2.206577e-01 9.126312e-01
    outer loop
      vertex   3.731053e+00 -2.335344e+00 1.047096e+01
      vertex   3.701608e+00 -2.218969e+00 1.051020e+01
      vertex   3.656787e+00 -2.288867e+00 1.051020e+01
    endloop
  endfacet
  facet normal 3.398282e-01 -2.274533e-01 9.125688e-01
    outer loop
      vertex   3.731053e+00 -2.335344e+00 1.047096e+01
      vertex   3.656787e+00 -2.288867e+00 1.051020e+01
      vertex   3.683761e+00 -2.406001e+00 1.047096e+01
    endloop
  endfacet
  facet normal 3.398278e-01 -2.274535e-01 9.125689e-01
    outer loop
      vertex   3.683761e+00 -2.406001e+00 1.047096e+01
      vertex   3.656787e+00 -2.288867e+00 1.051020e+01
      vertex   3.610440e+00 -2.358112e+00 1.051020e+01
    endloop
  endfacet
  facet normal 3.354026e-01 -2.341768e-01 9.125055e-01
    outer loop
      vertex   3.683761e+00 -2.406001e+00 1.047096e+01
      vertex   3.610440e+00 -2.358112e+00 1.051020e+01
      vertex   3.635002e+00 -2.475837e+00 1.047096e+01
    endloop
  endfacet
  facet normal 3.354026e-01 -2.341768e-01 9.125055e-01
    outer loop
      vertex   3.635002e+00 -2.475837e+00 1.047096e+01
      vertex   3.610440e+00 -2.358112e+00 1.051020e+01
      vertex   3.562651e+00 -2.426558e+00 1.051020e+01
    endloop
  endfacet
  facet normal 3.308427e-01 -2.408202e-01 9.124411e-01
    outer loop
      vertex   3.635002e+00 -2.475837e+00 1.047096e+01
      vertex   3.562651e+00 -2.426558e+00 1.051020e+01
      vertex   3.584769e+00 -2.544849e+00 1.047096e+01
    endloop
  endfacet
  facet normal 3.308427e-01 -2.408202e-01 9.124411e-01
    outer loop
      vertex   3.584769e+00 -2.544849e+00 1.047096e+01
      vertex   3.562651e+00 -2.426558e+00 1.051020e+01
      vertex   3.513417e+00 -2.494196e+00 1.051020e+01
    endloop
  endfacet
  facet normal 3.261491e-01 -2.473812e-01 9.123756e-01
    outer loop
      vertex   3.584769e+00 -2.544849e+00 1.047096e+01
      vertex   3.513417e+00 -2.494196e+00 1.051020e+01
      vertex   3.533084e+00 -2.612990e+00 1.047096e+01
    endloop
  endfacet
  facet normal 3.261491e-01 -2.473812e-01 9.123756e-01
    outer loop
      vertex   3.533084e+00 -2.612990e+00 1.047096e+01
      vertex   3.513417e+00 -2.494196e+00 1.051020e+01
      vertex   3.462761e+00 -2.560981e+00 1.051020e+01
    endloop
  endfacet
  facet normal 3.213238e-01 -2.538555e-01 9.123094e-01
    outer loop
      vertex   3.533084e+00 -2.612990e+00 1.047096e+01
      vertex   3.462761e+00 -2.560981e+00 1.051020e+01
      vertex   3.479970e+00 -2.680220e+00 1.047096e+01
    endloop
  endfacet
  facet normal 3.213238e-01 -2.538555e-01 9.123094e-01
    outer loop
      vertex   3.479970e+00 -2.680220e+00 1.047096e+01
      vertex   3.462761e+00 -2.560981e+00 1.051020e+01
      vertex   3.410705e+00 -2.626873e+00 1.051020e+01
    endloop
  endfacet
  facet normal 3.163693e-01 -2.602391e-01 9.122423e-01
    outer loop
      vertex   3.479970e+00 -2.680220e+00 1.047096e+01
      vertex   3.410705e+00 -2.626873e+00 1.051020e+01
      vertex   3.425454e+00 -2.746494e+00 1.047096e+01
    endloop
  endfacet
  facet normal 3.163693e-01 -2.602391e-01 9.122423e-01
    outer loop
      vertex   3.425454e+00 -2.746494e+00 1.047096e+01
      vertex   3.410705e+00 -2.626873e+00 1.051020e+01
      vertex   3.357274e+00 -2.691828e+00 1.051020e+01
    endloop
  endfacet
  facet normal 3.112879e-01 -2.665281e-01 9.121747e-01
    outer loop
      vertex   3.425454e+00 -2.746494e+00 1.047096e+01
      vertex   3.357274e+00 -2.691828e+00 1.051020e+01
      vertex   3.369560e+00 -2.811775e+00 1.047096e+01
    endloop
  endfacet
  facet normal 3.112878e-01 -2.665282e-01 9.121747e-01
    outer loop
      vertex   3.369560e+00 -2.811775e+00 1.047096e+01
      vertex   3.357274e+00 -2.691828e+00 1.051020e+01
      vertex   3.302492e+00 -2.755811e+00 1.051020e+01
    endloop
  endfacet
  facet normal 3.060825e-01 -2.727185e-01 9.121065e-01
    outer loop
      vertex   3.369560e+00 -2.811775e+00 1.047096e+01
      vertex   3.302492e+00 -2.755811e+00 1.051020e+01
      vertex   3.312325e+00 -2.876013e+00 1.047096e+01
    endloop
  endfacet
  facet normal 3.060824e-01 -2.727185e-01 9.121065e-01
    outer loop
      vertex   3.312325e+00 -2.876013e+00 1.047096e+01
      vertex   3.302492e+00 -2.755811e+00 1.051020e+01
      vertex   3.246396e+00 -2.818769e+00 1.051020e+01
    endloop
  endfacet
  facet normal 3.007558e-01 -2.788062e-01 9.120379e-01
    outer loop
      vertex   3.312325e+00 -2.876013e+00 1.047096e+01
      vertex   3.246396e+00 -2.818769e+00 1.051020e+01
      vertex   3.253770e+00 -2.939177e+00 1.047096e+01
    endloop
  endfacet
  facet normal 3.007558e-01 -2.788062e-01 9.120379e-01
    outer loop
      vertex   3.253770e+00 -2.939177e+00 1.047096e+01
      vertex   3.246396e+00 -2.818769e+00 1.051020e+01
      vertex   3.189007e+00 -2.880676e+00 1.051020e+01
    endloop
  endfacet
  facet normal 2.953106e-01 -2.847880e-01 9.119690e-01
    outer loop
      vertex   3.253770e+00 -2.939177e+00 1.047096e+01
      vertex   3.189007e+00 -2.880676e+00 1.051020e+01
      vertex   3.130360e+00 -2.941490e+00 1.051020e+01
    endloop
  endfacet
  facet normal 2.894459e-01 -2.791323e-01 9.155907e-01
    outer loop
      vertex   3.130360e+00 -2.941490e+00 1.051020e+01
      vertex   3.189007e+00 -2.880676e+00 1.051020e+01
      vertex   3.124113e+00 -2.822056e+00 1.054858e+01
    endloop
  endfacet
  facet normal 2.894459e-01 -2.791323e-01 9.155907e-01
    outer loop
      vertex   3.130360e+00 -2.941490e+00 1.051020e+01
      vertex   3.124113e+00 -2.822056e+00 1.054858e+01
      vertex   3.066659e+00 -2.881633e+00 1.054858e+01
    endloop
  endfacet
  facet normal 2.835650e-01 -2.734610e-01 9.191354e-01
    outer loop
      vertex   3.066659e+00 -2.881633e+00 1.054858e+01
      vertex   3.124113e+00 -2.822056e+00 1.054858e+01
      vertex   3.059097e+00 -2.763326e+00 1.058611e+01
    endloop
  endfacet
  facet normal 2.835650e-01 -2.734610e-01 9.191354e-01
    outer loop
      vertex   3.066659e+00 -2.881633e+00 1.054858e+01
      vertex   3.059097e+00 -2.763326e+00 1.058611e+01
      vertex   3.002839e+00 -2.821663e+00 1.058611e+01
    endloop
  endfacet
  facet normal 2.798268e-01 -2.698559e-01 9.213440e-01
    outer loop
      vertex   3.002839e+00 -2.821663e+00 1.058611e+01
      vertex   3.059097e+00 -2.763326e+00 1.058611e+01
      vertex   3.000000e+00 -2.752653e+00 1.060719e+01
    endloop
  endfacet
  facet normal 2.117606e-01 -2.774697e-01 9.371062e-01
    outer loop
      vertex   3.002839e+00 -2.821663e+00 1.058611e+01
      vertex   3.000000e+00 -2.752653e+00 1.060719e+01
      vertex   3.000000e+00 -2.876572e+00 1.057050e+01
    endloop
  endfacet
  facet normal 3.556293e-01 -1.585972e-01 9.210726e-01
    outer loop
      vertex   3.876999e+00 -2.000000e+00 1.049184e+01
      vertex   3.753395e+00 -2.000000e+00 1.053957e+01
      vertex   3.827097e+00 -2.005300e+00 1.051020e+01
    endloop
  endfacet
  facet normal 3.506904e-01 -1.968191e-01 9.155755e-01
    outer loop
      vertex   3.827097e+00 -2.005300e+00 1.051020e+01
      vertex   3.753395e+00 -2.000000e+00 1.053957e+01
      vertex   3.786787e+00 -2.077123e+00 1.051020e+01
    endloop
  endfacet
  facet normal 3.476384e-01 -1.984496e-01 9.163871e-01
    outer loop
      vertex   3.786787e+00 -2.077123e+00 1.051020e+01
      vertex   3.753395e+00 -2.000000e+00 1.053957e+01
      vertex   3.709729e+00 -2.034855e+00 1.054858e+01
    endloop
  endfacet
  facet normal 3.421837e-01 -1.906591e-01 9.200866e-01
    outer loop
      vertex   3.709729e+00 -2.034855e+00 1.054858e+01
      vertex   3.753395e+00 -2.000000e+00 1.053957e+01
      vertex   3.629199e+00 -2.000000e+00 1.058575e+01
    endloop
  endfacet
  facet normal 3.385032e-01 -1.987813e-01 9.197291e-01
    outer loop
      vertex   3.709729e+00 -2.034855e+00 1.054858e+01
      vertex   3.629199e+00 -2.000000e+00 1.058575e+01
      vertex   3.668746e+00 -2.104644e+00 1.054858e+01
    endloop
  endfacet
  facet normal 3.380072e-01 -1.990156e-01 9.198608e-01
    outer loop
      vertex   3.668746e+00 -2.104644e+00 1.054858e+01
      vertex   3.629199e+00 -2.000000e+00 1.058575e+01
      vertex   3.592396e+00 -2.060844e+00 1.058611e+01
    endloop
  endfacet
  facet normal 3.343882e-01 -2.052783e-01 9.198072e-01
    outer loop
      vertex   3.668746e+00 -2.104644e+00 1.054858e+01
      vertex   3.592396e+00 -2.060844e+00 1.058611e+01
      vertex   3.626283e+00 -2.173815e+00 1.054858e+01
    endloop
  endfacet
  facet normal 3.343882e-01 -2.052783e-01 9.198072e-01
    outer loop
      vertex   3.626283e+00 -2.173815e+00 1.054858e+01
      vertex   3.592396e+00 -2.060844e+00 1.058611e+01
      vertex   3.550816e+00 -2.128576e+00 1.058611e+01
    endloop
  endfacet
  facet normal 3.304087e-01 -2.118698e-01 9.197507e-01
    outer loop
      vertex   3.626283e+00 -2.173815e+00 1.054858e+01
      vertex   3.550816e+00 -2.128576e+00 1.058611e+01
      vertex   3.582371e+00 -2.242296e+00 1.054858e+01
    endloop
  endfacet
  facet normal 3.304084e-01 -2.118699e-01 9.197508e-01
    outer loop
      vertex   3.582371e+00 -2.242296e+00 1.054858e+01
      vertex   3.550816e+00 -2.128576e+00 1.058611e+01
      vertex   3.507814e+00 -2.195637e+00 1.058611e+01
    endloop
  endfacet
  facet normal 3.262949e-01 -2.183960e-01 9.196928e-01
    outer loop
      vertex   3.582371e+00 -2.242296e+00 1.054858e+01
      vertex   3.507814e+00 -2.195637e+00 1.058611e+01
      vertex   3.536970e+00 -2.310127e+00 1.054858e+01
    endloop
  endfacet
  facet normal 3.262946e-01 -2.183962e-01 9.196929e-01
    outer loop
      vertex   3.536970e+00 -2.310127e+00 1.054858e+01
      vertex   3.507814e+00 -2.195637e+00 1.058611e+01
      vertex   3.463362e+00 -2.262050e+00 1.058611e+01
    endloop
  endfacet
  facet normal 3.220477e-01 -2.248524e-01 9.196340e-01
    outer loop
      vertex   3.536970e+00 -2.310127e+00 1.054858e+01
      vertex   3.463362e+00 -2.262050e+00 1.058611e+01
      vertex   3.490154e+00 -2.377180e+00 1.054858e+01
    endloop
  endfacet
  facet normal 3.220477e-01 -2.248524e-01 9.196340e-01
    outer loop
      vertex   3.490154e+00 -2.377180e+00 1.054858e+01
      vertex   3.463362e+00 -2.262050e+00 1.058611e+01
      vertex   3.417520e+00 -2.327708e+00 1.058611e+01
    endloop
  endfacet
  facet normal 3.176712e-01 -2.312326e-01 9.195741e-01
    outer loop
      vertex   3.490154e+00 -2.377180e+00 1.054858e+01
      vertex   3.417520e+00 -2.327708e+00 1.058611e+01
      vertex   3.441922e+00 -2.443441e+00 1.054858e+01
    endloop
  endfacet
  facet normal 3.176712e-01 -2.312326e-01 9.195741e-01
    outer loop
      vertex   3.441922e+00 -2.443441e+00 1.054858e+01
      vertex   3.417520e+00 -2.327708e+00 1.058611e+01
      vertex   3.370292e+00 -2.392590e+00 1.058611e+01
    endloop
  endfacet
  facet normal 3.131661e-01 -2.375337e-01 9.195133e-01
    outer loop
      vertex   3.441922e+00 -2.443441e+00 1.054858e+01
      vertex   3.370292e+00 -2.392590e+00 1.058611e+01
      vertex   3.392297e+00 -2.508868e+00 1.054858e+01
    endloop
  endfacet
  facet normal 3.131661e-01 -2.375337e-01 9.195133e-01
    outer loop
      vertex   3.392297e+00 -2.508868e+00 1.054858e+01
      vertex   3.370292e+00 -2.392590e+00 1.058611e+01
      vertex   3.321700e+00 -2.456655e+00 1.058611e+01
    endloop
  endfacet
  facet normal 3.085347e-01 -2.437517e-01 9.194517e-01
    outer loop
      vertex   3.392297e+00 -2.508868e+00 1.054858e+01
      vertex   3.321700e+00 -2.456655e+00 1.058611e+01
      vertex   3.341300e+00 -2.573418e+00 1.054858e+01
    endloop
  endfacet
  facet normal 3.085347e-01 -2.437517e-01 9.194517e-01
    outer loop
      vertex   3.341300e+00 -2.573418e+00 1.054858e+01
      vertex   3.321700e+00 -2.456655e+00 1.058611e+01
      vertex   3.271764e+00 -2.519862e+00 1.058611e+01
    endloop
  endfacet
  facet normal 3.037791e-01 -2.498826e-01 9.193894e-01
    outer loop
      vertex   3.341300e+00 -2.573418e+00 1.054858e+01
      vertex   3.271764e+00 -2.519862e+00 1.058611e+01
      vertex   3.288957e+00 -2.637051e+00 1.054858e+01
    endloop
  endfacet
  facet normal 3.037791e-01 -2.498826e-01 9.193894e-01
    outer loop
      vertex   3.288957e+00 -2.637051e+00 1.054858e+01
      vertex   3.271764e+00 -2.519862e+00 1.058611e+01
      vertex   3.220510e+00 -2.582172e+00 1.058611e+01
    endloop
  endfacet
  facet normal 2.989016e-01 -2.559230e-01 9.193265e-01
    outer loop
      vertex   3.288957e+00 -2.637051e+00 1.054858e+01
      vertex   3.220510e+00 -2.582172e+00 1.058611e+01
      vertex   3.235288e+00 -2.699733e+00 1.054858e+01
    endloop
  endfacet
  facet normal 2.989015e-01 -2.559230e-01 9.193266e-01
    outer loop
      vertex   3.235288e+00 -2.699733e+00 1.054858e+01
      vertex   3.220510e+00 -2.582172e+00 1.058611e+01
      vertex   3.167957e+00 -2.643550e+00 1.058611e+01
    endloop
  endfacet
  facet normal 2.939050e-01 -2.618685e-01 9.192632e-01
    outer loop
      vertex   3.235288e+00 -2.699733e+00 1.054858e+01
      vertex   3.167957e+00 -2.643550e+00 1.058611e+01
      vertex   3.180335e+00 -2.761409e+00 1.054858e+01
    endloop
  endfacet
  facet normal 2.939049e-01 -2.618685e-01 9.192632e-01
    outer loop
      vertex   3.180335e+00 -2.761409e+00 1.054858e+01
      vertex   3.167957e+00 -2.643550e+00 1.058611e+01
      vertex   3.114148e+00 -2.703941e+00 1.058611e+01
    endloop
  endfacet
  facet normal 2.887920e-01 -2.677155e-01 9.191994e-01
    outer loop
      vertex   3.180335e+00 -2.761409e+00 1.054858e+01
      vertex   3.114148e+00 -2.703941e+00 1.058611e+01
      vertex   3.124113e+00 -2.822056e+00 1.054858e+01
    endloop
  endfacet
  facet normal 2.887920e-01 -2.677155e-01 9.191994e-01
    outer loop
      vertex   3.124113e+00 -2.822056e+00 1.054858e+01
      vertex   3.114148e+00 -2.703941e+00 1.058611e+01
      vertex   3.059097e+00 -2.763326e+00 1.058611e+01
    endloop
  endfacet
  facet normal 3.304746e-01 -1.944373e-01 9.235695e-01
    outer loop
      vertex   3.629199e+00 -2.000000e+00 1.058575e+01
      vertex   3.504426e+00 -2.000000e+00 1.063040e+01
      vertex   3.592396e+00 -2.060844e+00 1.058611e+01
    endloop
  endfacet
  facet normal 3.354829e-01 -1.870000e-01 9.232997e-01
    outer loop
      vertex   3.592396e+00 -2.060844e+00 1.058611e+01
      vertex   3.504426e+00 -2.000000e+00 1.063040e+01
      vertex   3.515911e+00 -2.016968e+00 1.062279e+01
    endloop
  endfacet
  facet normal 3.274254e-01 -2.010038e-01 9.232497e-01
    outer loop
      vertex   3.592396e+00 -2.060844e+00 1.058611e+01
      vertex   3.515911e+00 -2.016968e+00 1.062279e+01
      vertex   3.550816e+00 -2.128576e+00 1.058611e+01
    endloop
  endfacet
  facet normal 3.274254e-01 -2.010038e-01 9.232497e-01
    outer loop
      vertex   3.550816e+00 -2.128576e+00 1.058611e+01
      vertex   3.515911e+00 -2.016968e+00 1.062279e+01
      vertex   3.475217e+00 -2.083257e+00 1.062279e+01
    endloop
  endfacet
  facet normal 3.235294e-01 -2.074589e-01 9.231953e-01
    outer loop
      vertex   3.550816e+00 -2.128576e+00 1.058611e+01
      vertex   3.475217e+00 -2.083257e+00 1.062279e+01
      vertex   3.507814e+00 -2.195637e+00 1.058611e+01
    endloop
  endfacet
  facet normal 3.235291e-01 -2.074590e-01 9.231954e-01
    outer loop
      vertex   3.507814e+00 -2.195637e+00 1.058611e+01
      vertex   3.475217e+00 -2.083257e+00 1.062279e+01
      vertex   3.433127e+00 -2.148895e+00 1.062279e+01
    endloop
  endfacet
  facet normal 3.195021e-01 -2.138498e-01 9.231396e-01
    outer loop
      vertex   3.507814e+00 -2.195637e+00 1.058611e+01
      vertex   3.433127e+00 -2.148895e+00 1.062279e+01
      vertex   3.463362e+00 -2.262050e+00 1.058611e+01
    endloop
  endfacet
  facet normal 3.195017e-01 -2.138499e-01 9.231397e-01
    outer loop
      vertex   3.463362e+00 -2.262050e+00 1.058611e+01
      vertex   3.433127e+00 -2.148895e+00 1.062279e+01
      vertex   3.389625e+00 -2.213890e+00 1.062279e+01
    endloop
  endfacet
  facet normal 3.153443e-01 -2.201721e-01 9.230830e-01
    outer loop
      vertex   3.463362e+00 -2.262050e+00 1.058611e+01
      vertex   3.389625e+00 -2.213890e+00 1.062279e+01
      vertex   3.417520e+00 -2.327708e+00 1.058611e+01
    endloop
  endfacet
  facet normal 3.153443e-01 -2.201721e-01 9.230830e-01
    outer loop
      vertex   3.417520e+00 -2.327708e+00 1.058611e+01
      vertex   3.389625e+00 -2.213890e+00 1.062279e+01
      vertex   3.344759e+00 -2.278150e+00 1.062279e+01
    endloop
  endfacet
  facet normal 3.110597e-01 -2.264201e-01 9.230254e-01
    outer loop
      vertex   3.417520e+00 -2.327708e+00 1.058611e+01
      vertex   3.344759e+00 -2.278150e+00 1.062279e+01
      vertex   3.370292e+00 -2.392590e+00 1.058611e+01
    endloop
  endfacet
  facet normal 3.110597e-01 -2.264201e-01 9.230254e-01
    outer loop
      vertex   3.370292e+00 -2.392590e+00 1.058611e+01
      vertex   3.344759e+00 -2.278150e+00 1.062279e+01
      vertex   3.298536e+00 -2.341651e+00 1.062279e+01
    endloop
  endfacet
  facet normal 3.066492e-01 -2.325907e-01 9.229669e-01
    outer loop
      vertex   3.370292e+00 -2.392590e+00 1.058611e+01
      vertex   3.298536e+00 -2.341651e+00 1.062279e+01
      vertex   3.321700e+00 -2.456655e+00 1.058611e+01
    endloop
  endfacet
  facet normal 3.066492e-01 -2.325907e-01 9.229669e-01
    outer loop
      vertex   3.321700e+00 -2.456655e+00 1.058611e+01
      vertex   3.298536e+00 -2.341651e+00 1.062279e+01
      vertex   3.250978e+00 -2.404352e+00 1.062279e+01
    endloop
  endfacet
  facet normal 3.021150e-01 -2.386799e-01 9.229076e-01
    outer loop
      vertex   3.321700e+00 -2.456655e+00 1.058611e+01
      vertex   3.250978e+00 -2.404352e+00 1.062279e+01
      vertex   3.271764e+00 -2.519862e+00 1.058611e+01
    endloop
  endfacet
  facet normal 3.021150e-01 -2.386799e-01 9.229076e-01
    outer loop
      vertex   3.271764e+00 -2.519862e+00 1.058611e+01
      vertex   3.250978e+00 -2.404352e+00 1.062279e+01
      vertex   3.202106e+00 -2.466213e+00 1.062279e+01
    endloop
  endfacet
  facet normal 2.974592e-01 -2.446840e-01 9.228476e-01
    outer loop
      vertex   3.271764e+00 -2.519862e+00 1.058611e+01
      vertex   3.202106e+00 -2.466213e+00 1.062279e+01
      vertex   3.220510e+00 -2.582172e+00 1.058611e+01
    endloop
  endfacet
  facet normal 2.974592e-01 -2.446840e-01 9.228476e-01
    outer loop
      vertex   3.220510e+00 -2.582172e+00 1.058611e+01
      vertex   3.202106e+00 -2.466213e+00 1.062279e+01
      vertex   3.151943e+00 -2.527195e+00 1.062279e+01
    endloop
  endfacet
  facet normal 2.926839e-01 -2.505994e-01 9.227871e-01
    outer loop
      vertex   3.220510e+00 -2.582172e+00 1.058611e+01
      vertex   3.151943e+00 -2.527195e+00 1.062279e+01
      vertex   3.167957e+00 -2.643550e+00 1.058611e+01
    endloop
  endfacet
  facet normal 2.926838e-01 -2.505994e-01 9.227871e-01
    outer loop
      vertex   3.167957e+00 -2.643550e+00 1.058611e+01
      vertex   3.151943e+00 -2.527195e+00 1.062279e+01
      vertex   3.100509e+00 -2.587267e+00 1.062279e+01
    endloop
  endfacet
  facet normal 2.877921e-01 -2.564220e-01 9.227261e-01
    outer loop
      vertex   3.167957e+00 -2.643550e+00 1.058611e+01
      vertex   3.100509e+00 -2.587267e+00 1.062279e+01
      vertex   3.114148e+00 -2.703941e+00 1.058611e+01
    endloop
  endfacet
  facet normal 2.877920e-01 -2.564220e-01 9.227261e-01
    outer loop
      vertex   3.114148e+00 -2.703941e+00 1.058611e+01
      vertex   3.100509e+00 -2.587267e+00 1.062279e+01
      vertex   3.047846e+00 -2.646372e+00 1.062279e+01
    endloop
  endfacet
  facet normal 2.827862e-01 -2.621481e-01 9.226648e-01
    outer loop
      vertex   3.114148e+00 -2.703941e+00 1.058611e+01
      vertex   3.047846e+00 -2.646372e+00 1.062279e+01
      vertex   3.059097e+00 -2.763326e+00 1.058611e+01
    endloop
  endfacet
  facet normal 2.817513e-01 -2.623307e-01 9.229295e-01
    outer loop
      vertex   3.059097e+00 -2.763326e+00 1.058611e+01
      vertex   3.047846e+00 -2.646372e+00 1.062279e+01
      vertex   3.000000e+00 -2.752653e+00 1.060719e+01
    endloop
  endfacet
  facet normal 3.190679e-01 -1.928056e-01 9.279125e-01
    outer loop
      vertex   3.379089e+00 -2.000000e+00 1.067350e+01
      vertex   3.399494e+00 -2.037864e+00 1.065861e+01
      vertex   3.504426e+00 -2.000000e+00 1.063040e+01
    endloop
  endfacet
  facet normal 3.202490e-01 -1.970465e-01 9.266138e-01
    outer loop
      vertex   3.504426e+00 -2.000000e+00 1.063040e+01
      vertex   3.399494e+00 -2.037864e+00 1.065861e+01
      vertex   3.475217e+00 -2.083257e+00 1.062279e+01
    endloop
  endfacet
  facet normal 3.217390e-01 -1.975130e-01 9.259982e-01
    outer loop
      vertex   3.504426e+00 -2.000000e+00 1.063040e+01
      vertex   3.475217e+00 -2.083257e+00 1.062279e+01
      vertex   3.515911e+00 -2.016968e+00 1.062279e+01
    endloop
  endfacet
  facet normal 3.097222e-01 -1.986052e-01 9.298538e-01
    outer loop
      vertex   3.399494e+00 -2.037864e+00 1.065861e+01
      vertex   3.379089e+00 -2.000000e+00 1.067350e+01
      vertex   3.283397e+00 -2.055189e+00 1.069358e+01
    endloop
  endfacet
  facet normal 3.074212e-01 -1.939830e-01 9.315915e-01
    outer loop
      vertex   3.283397e+00 -2.055189e+00 1.069358e+01
      vertex   3.379089e+00 -2.000000e+00 1.067350e+01
      vertex   3.253215e+00 -2.000000e+00 1.071504e+01
    endloop
  endfacet
  facet normal 3.000073e-01 -1.985987e-01 9.330349e-01
    outer loop
      vertex   3.283397e+00 -2.055189e+00 1.069358e+01
      vertex   3.253215e+00 -2.000000e+00 1.071504e+01
      vertex   3.208374e+00 -2.008236e+00 1.072770e+01
    endloop
  endfacet
  facet normal 2.969864e-01 -1.727989e-01 9.391164e-01
    outer loop
      vertex   3.208374e+00 -2.008236e+00 1.072770e+01
      vertex   3.253215e+00 -2.000000e+00 1.071504e+01
      vertex   3.126847e+00 -2.000000e+00 1.075500e+01
    endloop
  endfacet
  facet normal 2.934225e-01 -1.963955e-01 9.355918e-01
    outer loop
      vertex   3.208374e+00 -2.008236e+00 1.072770e+01
      vertex   3.126847e+00 -2.000000e+00 1.075500e+01
      vertex   3.167729e+00 -2.068961e+00 1.072770e+01
    endloop
  endfacet
  facet normal 2.902582e-01 -1.984872e-01 9.361373e-01
    outer loop
      vertex   3.167729e+00 -2.068961e+00 1.072770e+01
      vertex   3.126847e+00 -2.000000e+00 1.075500e+01
      vertex   3.093566e+00 -2.020523e+00 1.076097e+01
    endloop
  endfacet
  facet normal 2.883786e-01 -2.013448e-01 9.361079e-01
    outer loop
      vertex   3.167729e+00 -2.068961e+00 1.072770e+01
      vertex   3.093566e+00 -2.020523e+00 1.076097e+01
      vertex   3.125800e+00 -2.129015e+00 1.072770e+01
    endloop
  endfacet
  facet normal 2.883786e-01 -2.013448e-01 9.361079e-01
    outer loop
      vertex   3.125800e+00 -2.129015e+00 1.072770e+01
      vertex   3.093566e+00 -2.020523e+00 1.076097e+01
      vertex   3.052618e+00 -2.079170e+00 1.076097e+01
    endloop
  endfacet
  facet normal 2.844633e-01 -2.070607e-01 9.360590e-01
    outer loop
      vertex   3.125800e+00 -2.129015e+00 1.072770e+01
      vertex   3.052618e+00 -2.079170e+00 1.076097e+01
      vertex   3.082603e+00 -2.188358e+00 1.072770e+01
    endloop
  endfacet
  facet normal 2.844633e-01 -2.070607e-01 9.360590e-01
    outer loop
      vertex   3.082603e+00 -2.188358e+00 1.072770e+01
      vertex   3.052618e+00 -2.079170e+00 1.076097e+01
      vertex   3.010433e+00 -2.137125e+00 1.076097e+01
    endloop
  endfacet
  facet normal 2.804329e-01 -2.127058e-01 9.360094e-01
    outer loop
      vertex   3.082603e+00 -2.188358e+00 1.072770e+01
      vertex   3.010433e+00 -2.137125e+00 1.076097e+01
      vertex   3.038158e+00 -2.246955e+00 1.072770e+01
    endloop
  endfacet
  facet normal 2.794634e-01 -2.130169e-01 9.362286e-01
    outer loop
      vertex   3.038158e+00 -2.246955e+00 1.072770e+01
      vertex   3.010433e+00 -2.137125e+00 1.076097e+01
      vertex   3.000000e+00 -2.252435e+00 1.073785e+01
    endloop
  endfacet
  facet normal 2.803003e-01 -2.241051e-01 9.333856e-01
    outer loop
      vertex   3.038158e+00 -2.246955e+00 1.072770e+01
      vertex   3.000000e+00 -2.252435e+00 1.073785e+01
      vertex   3.062458e+00 -2.358658e+00 1.069358e+01
    endloop
  endfacet
  facet normal 2.796582e-01 -2.245212e-01 9.334782e-01
    outer loop
      vertex   3.062458e+00 -2.358658e+00 1.069358e+01
      vertex   3.000000e+00 -2.252435e+00 1.073785e+01
      vertex   3.000000e+00 -2.378109e+00 1.070762e+01
    endloop
  endfacet
  facet normal 2.813110e-01 -2.314009e-01 9.312990e-01
    outer loop
      vertex   3.062458e+00 -2.358658e+00 1.069358e+01
      vertex   3.000000e+00 -2.378109e+00 1.070762e+01
      vertex   3.014483e+00 -2.416981e+00 1.069358e+01
    endloop
  endfacet
  facet normal 2.674864e-01 -2.374692e-01 9.338412e-01
    outer loop
      vertex   3.014483e+00 -2.416981e+00 1.069358e+01
      vertex   3.000000e+00 -2.378109e+00 1.070762e+01
      vertex   3.000000e+00 -2.503399e+00 1.067576e+01
    endloop
  endfacet
  facet normal 2.810662e-01 -2.388476e-01 9.294911e-01
    outer loop
      vertex   3.014483e+00 -2.416981e+00 1.069358e+01
      vertex   3.000000e+00 -2.503399e+00 1.067576e+01
      vertex   3.083264e+00 -2.472130e+00 1.065861e+01
    endloop
  endfacet
  facet normal 2.818059e-01 -2.412857e-01 9.286370e-01
    outer loop
      vertex   3.083264e+00 -2.472130e+00 1.065861e+01
      vertex   3.000000e+00 -2.503399e+00 1.067576e+01
      vertex   3.032950e+00 -2.530894e+00 1.065861e+01
    endloop
  endfacet
  facet normal 2.864510e-01 -2.452629e-01 9.261706e-01
    outer loop
      vertex   3.083264e+00 -2.472130e+00 1.065861e+01
      vertex   3.032950e+00 -2.530894e+00 1.065861e+01
      vertex   3.100509e+00 -2.587267e+00 1.062279e+01
    endloop
  endfacet
  facet normal 2.816642e-01 -2.509621e-01 9.261119e-01
    outer loop
      vertex   3.100509e+00 -2.587267e+00 1.062279e+01
      vertex   3.032950e+00 -2.530894e+00 1.065861e+01
      vertex   3.047846e+00 -2.646372e+00 1.062279e+01
    endloop
  endfacet
  facet normal 2.844567e-01 -1.879300e-01 9.400887e-01
    outer loop
      vertex   3.126847e+00 -2.000000e+00 1.075500e+01
      vertex   3.000000e+00 -2.000000e+00 1.079338e+01
      vertex   3.093566e+00 -2.020523e+00 1.076097e+01
    endloop
  endfacet
  facet normal 2.820856e-01 -1.969510e-01 9.389558e-01
    outer loop
      vertex   3.093566e+00 -2.020523e+00 1.076097e+01
      vertex   3.000000e+00 -2.000000e+00 1.079338e+01
      vertex   3.052618e+00 -2.079170e+00 1.076097e+01
    endloop
  endfacet
  facet normal 2.774219e-01 -2.003270e-01 9.396309e-01
    outer loop
      vertex   3.000000e+00 -2.000000e+00 1.079338e+01
      vertex   3.000000e+00 -2.126394e+00 1.076643e+01
      vertex   3.052618e+00 -2.079170e+00 1.076097e+01
    endloop
  endfacet
  facet normal 2.809941e-01 -2.045355e-01 9.376607e-01
    outer loop
      vertex   3.052618e+00 -2.079170e+00 1.076097e+01
      vertex   3.000000e+00 -2.126394e+00 1.076643e+01
      vertex   3.010433e+00 -2.137125e+00 1.076097e+01
    endloop
  endfacet
  facet normal 2.727827e-01 -2.128163e-01 9.382424e-01
    outer loop
      vertex   3.000000e+00 -2.126394e+00 1.076643e+01
      vertex   3.000000e+00 -2.252435e+00 1.073785e+01
      vertex   3.010433e+00 -2.137125e+00 1.076097e+01
    endloop
  endfacet
  facet normal 2.753354e-01 -2.489834e-01 9.285460e-01
    outer loop
      vertex   3.000000e+00 -2.503399e+00 1.067576e+01
      vertex   3.000000e+00 -2.628257e+00 1.064228e+01
      vertex   3.032950e+00 -2.530894e+00 1.065861e+01
    endloop
  endfacet
  facet normal 2.821522e-01 -2.508616e-01 9.259906e-01
    outer loop
      vertex   3.032950e+00 -2.530894e+00 1.065861e+01
      vertex   3.000000e+00 -2.628257e+00 1.064228e+01
      vertex   3.047846e+00 -2.646372e+00 1.062279e+01
    endloop
  endfacet
  facet normal 2.778082e-01 -2.607947e-01 9.245587e-01
    outer loop
      vertex   3.000000e+00 -2.628257e+00 1.064228e+01
      vertex   3.000000e+00 -2.752653e+00 1.060719e+01
      vertex   3.047846e+00 -2.646372e+00 1.062279e+01
    endloop
  endfacet
  facet normal 2.803720e-01 -2.812526e-01 9.177628e-01
    outer loop
      vertex   3.000000e+00 -2.876572e+00 1.057050e+01
      vertex   3.008005e+00 -2.940104e+00 1.054858e+01
      vertex   3.066659e+00 -2.881633e+00 1.054858e+01
    endloop
  endfacet
  facet normal 2.839967e-01 -2.848887e-01 9.155241e-01
    outer loop
      vertex   3.066659e+00 -2.881633e+00 1.054858e+01
      vertex   3.008005e+00 -2.940104e+00 1.054858e+01
      vertex   3.130360e+00 -2.941490e+00 1.051020e+01
    endloop
  endfacet
  facet normal 2.812194e-01 -2.759439e-01 9.191141e-01
    outer loop
      vertex   3.066659e+00 -2.881633e+00 1.054858e+01
      vertex   3.002839e+00 -2.821663e+00 1.058611e+01
      vertex   3.000000e+00 -2.876572e+00 1.057050e+01
    endloop
  endfacet
  facet normal 2.947821e-01 -2.732684e-01 9.156571e-01
    outer loop
      vertex   3.180335e+00 -2.761409e+00 1.054858e+01
      vertex   3.124113e+00 -2.822056e+00 1.054858e+01
      vertex   3.189007e+00 -2.880676e+00 1.051020e+01
    endloop
  endfacet
  facet normal 2.947821e-01 -2.732684e-01 9.156571e-01
    outer loop
      vertex   3.180335e+00 -2.761409e+00 1.054858e+01
      vertex   3.189007e+00 -2.880676e+00 1.051020e+01
      vertex   3.246396e+00 -2.818769e+00 1.051020e+01
    endloop
  endfacet
  facet normal 3.181899e-01 -2.835061e-01 9.046433e-01
    outer loop
      vertex   3.436485e+00 -2.867620e+00 1.043086e+01
      vertex   3.378112e+00 -2.933134e+00 1.043086e+01
      vertex   3.443749e+00 -2.990126e+00 1.038992e+01
    endloop
  endfacet
  facet normal 3.000020e-01 -2.673009e-01 9.157232e-01
    outer loop
      vertex   3.235288e+00 -2.699733e+00 1.054858e+01
      vertex   3.180335e+00 -2.761409e+00 1.054858e+01
      vertex   3.246396e+00 -2.818769e+00 1.051020e+01
    endloop
  endfacet
  facet normal 3.000020e-01 -2.673009e-01 9.157232e-01
    outer loop
      vertex   3.235288e+00 -2.699733e+00 1.054858e+01
      vertex   3.246396e+00 -2.818769e+00 1.051020e+01
      vertex   3.302492e+00 -2.755811e+00 1.051020e+01
    endloop
  endfacet
  facet normal 3.236032e-01 -2.770725e-01 9.047164e-01
    outer loop
      vertex   3.493488e+00 -2.801043e+00 1.043086e+01
      vertex   3.436485e+00 -2.867620e+00 1.043086e+01
      vertex   3.503257e+00 -2.923337e+00 1.038992e+01
    endloop
  endfacet
  facet normal 3.181900e-01 -2.835060e-01 9.046433e-01
    outer loop
      vertex   3.503257e+00 -2.923337e+00 1.038992e+01
      vertex   3.436485e+00 -2.867620e+00 1.043086e+01
      vertex   3.443749e+00 -2.990126e+00 1.038992e+01
    endloop
  endfacet
  facet normal 3.236032e-01 -2.770725e-01 9.047164e-01
    outer loop
      vertex   3.493488e+00 -2.801043e+00 1.043086e+01
      vertex   3.503257e+00 -2.923337e+00 1.038992e+01
      vertex   3.561368e+00 -2.855468e+00 1.038992e+01
    endloop
  endfacet
  facet normal 3.051031e-01 -2.612328e-01 9.157890e-01
    outer loop
      vertex   3.288957e+00 -2.637051e+00 1.054858e+01
      vertex   3.235288e+00 -2.699733e+00 1.054858e+01
      vertex   3.302492e+00 -2.755811e+00 1.051020e+01
    endloop
  endfacet
  facet normal 3.051032e-01 -2.612328e-01 9.157890e-01
    outer loop
      vertex   3.288957e+00 -2.637051e+00 1.054858e+01
      vertex   3.302492e+00 -2.755811e+00 1.051020e+01
      vertex   3.357274e+00 -2.691828e+00 1.051020e+01
    endloop
  endfacet
  facet normal 2.864511e-01 -2.452629e-01 9.261706e-01
    outer loop
      vertex   3.083264e+00 -2.472130e+00 1.065861e+01
      vertex   3.100509e+00 -2.587267e+00 1.062279e+01
      vertex   3.151943e+00 -2.527195e+00 1.062279e+01
    endloop
  endfacet
  facet normal 3.100828e-01 -2.550679e-01 9.158543e-01
    outer loop
      vertex   3.341300e+00 -2.573418e+00 1.054858e+01
      vertex   3.288957e+00 -2.637051e+00 1.054858e+01
      vertex   3.357274e+00 -2.691828e+00 1.051020e+01
    endloop
  endfacet
  facet normal 3.100828e-01 -2.550679e-01 9.158543e-01
    outer loop
      vertex   3.341300e+00 -2.573418e+00 1.054858e+01
      vertex   3.357274e+00 -2.691828e+00 1.051020e+01
      vertex   3.410705e+00 -2.626873e+00 1.051020e+01
    endloop
  endfacet
  facet normal 2.847741e-01 -2.342495e-01 9.295326e-01
    outer loop
      vertex   3.062458e+00 -2.358658e+00 1.069358e+01
      vertex   3.014483e+00 -2.416981e+00 1.069358e+01
      vertex   3.083264e+00 -2.472130e+00 1.065861e+01
    endloop
  endfacet
  facet normal 2.911239e-01 -2.394727e-01 9.262287e-01
    outer loop
      vertex   3.083264e+00 -2.472130e+00 1.065861e+01
      vertex   3.151943e+00 -2.527195e+00 1.062279e+01
      vertex   3.132334e+00 -2.412476e+00 1.065861e+01
    endloop
  endfacet
  facet normal 2.911239e-01 -2.394727e-01 9.262287e-01
    outer loop
      vertex   3.132334e+00 -2.412476e+00 1.065861e+01
      vertex   3.151943e+00 -2.527195e+00 1.062279e+01
      vertex   3.202106e+00 -2.466213e+00 1.062279e+01
    endloop
  endfacet
  facet normal 2.956797e-01 -2.335959e-01 9.262864e-01
    outer loop
      vertex   3.132334e+00 -2.412476e+00 1.065861e+01
      vertex   3.202106e+00 -2.466213e+00 1.062279e+01
      vertex   3.180142e+00 -2.351962e+00 1.065861e+01
    endloop
  endfacet
  facet normal 2.956797e-01 -2.335959e-01 9.262864e-01
    outer loop
      vertex   3.180142e+00 -2.351962e+00 1.065861e+01
      vertex   3.202106e+00 -2.466213e+00 1.062279e+01
      vertex   3.250978e+00 -2.404352e+00 1.062279e+01
    endloop
  endfacet
  facet normal 3.001166e-01 -2.276357e-01 9.263434e-01
    outer loop
      vertex   3.180142e+00 -2.351962e+00 1.065861e+01
      vertex   3.250978e+00 -2.404352e+00 1.062279e+01
      vertex   3.226664e+00 -2.290628e+00 1.065861e+01
    endloop
  endfacet
  facet normal 3.001166e-01 -2.276357e-01 9.263434e-01
    outer loop
      vertex   3.226664e+00 -2.290628e+00 1.065861e+01
      vertex   3.250978e+00 -2.404352e+00 1.062279e+01
      vertex   3.298536e+00 -2.341651e+00 1.062279e+01
    endloop
  endfacet
  facet normal 3.044322e-01 -2.215960e-01 9.263996e-01
    outer loop
      vertex   3.226664e+00 -2.290628e+00 1.065861e+01
      vertex   3.298536e+00 -2.341651e+00 1.062279e+01
      vertex   3.271879e+00 -2.228511e+00 1.065861e+01
    endloop
  endfacet
  facet normal 3.044322e-01 -2.215960e-01 9.263996e-01
    outer loop
      vertex   3.271879e+00 -2.228511e+00 1.065861e+01
      vertex   3.298536e+00 -2.341651e+00 1.062279e+01
      vertex   3.344759e+00 -2.278150e+00 1.062279e+01
    endloop
  endfacet
  facet normal 3.086247e-01 -2.154806e-01 9.264550e-01
    outer loop
      vertex   3.271879e+00 -2.228511e+00 1.065861e+01
      vertex   3.344759e+00 -2.278150e+00 1.062279e+01
      vertex   3.315767e+00 -2.165651e+00 1.065861e+01
    endloop
  endfacet
  facet normal 3.086247e-01 -2.154806e-01 9.264550e-01
    outer loop
      vertex   3.315767e+00 -2.165651e+00 1.065861e+01
      vertex   3.344759e+00 -2.278150e+00 1.062279e+01
      vertex   3.389625e+00 -2.213890e+00 1.062279e+01
    endloop
  endfacet
  facet normal 3.126926e-01 -2.092928e-01 9.265095e-01
    outer loop
      vertex   3.315767e+00 -2.165651e+00 1.065861e+01
      vertex   3.389625e+00 -2.213890e+00 1.062279e+01
      vertex   3.358318e+00 -2.102077e+00 1.065861e+01
    endloop
  endfacet
  facet normal 3.126930e-01 -2.092927e-01 9.265094e-01
    outer loop
      vertex   3.358318e+00 -2.102077e+00 1.065861e+01
      vertex   3.389625e+00 -2.213890e+00 1.062279e+01
      vertex   3.433127e+00 -2.148895e+00 1.062279e+01
    endloop
  endfacet
  facet normal 3.166333e-01 -2.030375e-01 9.265631e-01
    outer loop
      vertex   3.358318e+00 -2.102077e+00 1.065861e+01
      vertex   3.433127e+00 -2.148895e+00 1.062279e+01
      vertex   3.399494e+00 -2.037864e+00 1.065861e+01
    endloop
  endfacet
  facet normal 3.166337e-01 -2.030374e-01 9.265630e-01
    outer loop
      vertex   3.399494e+00 -2.037864e+00 1.065861e+01
      vertex   3.433127e+00 -2.148895e+00 1.062279e+01
      vertex   3.475217e+00 -2.083257e+00 1.062279e+01
    endloop
  endfacet
  facet normal 3.592265e-01 -2.837997e-01 8.890524e-01
    outer loop
      vertex   3.892133e+00 -2.997661e+00 1.021761e+01
      vertex   3.882254e+00 -2.871229e+00 1.026196e+01
      vertex   3.823892e+00 -2.945103e+00 1.026196e+01
    endloop
  endfacet
  facet normal 3.529628e-01 -2.788512e-01 8.931177e-01
    outer loop
      vertex   3.823892e+00 -2.945103e+00 1.026196e+01
      vertex   3.882254e+00 -2.871229e+00 1.026196e+01
      vertex   3.812775e+00 -2.819844e+00 1.030546e+01
    endloop
  endfacet
  facet normal 3.529628e-01 -2.788512e-01 8.931177e-01
    outer loop
      vertex   3.823892e+00 -2.945103e+00 1.026196e+01
      vertex   3.812775e+00 -2.819844e+00 1.030546e+01
      vertex   3.755458e+00 -2.892396e+00 1.030546e+01
    endloop
  endfacet
  facet normal 3.466767e-01 -2.738850e-01 8.971077e-01
    outer loop
      vertex   3.755458e+00 -2.892396e+00 1.030546e+01
      vertex   3.812775e+00 -2.819844e+00 1.030546e+01
      vertex   3.743110e+00 -2.768321e+00 1.034812e+01
    endloop
  endfacet
  facet normal 3.466767e-01 -2.738850e-01 8.971077e-01
    outer loop
      vertex   3.755458e+00 -2.892396e+00 1.030546e+01
      vertex   3.743110e+00 -2.768321e+00 1.034812e+01
      vertex   3.686840e+00 -2.839547e+00 1.034812e+01
    endloop
  endfacet
  facet normal 3.403688e-01 -2.689016e-01 9.010222e-01
    outer loop
      vertex   3.686840e+00 -2.839547e+00 1.034812e+01
      vertex   3.743110e+00 -2.768321e+00 1.034812e+01
      vertex   3.673267e+00 -2.716667e+00 1.038992e+01
    endloop
  endfacet
  facet normal 3.403688e-01 -2.689016e-01 9.010222e-01
    outer loop
      vertex   3.686840e+00 -2.839547e+00 1.034812e+01
      vertex   3.673267e+00 -2.716667e+00 1.038992e+01
      vertex   3.618047e+00 -2.786564e+00 1.038992e+01
    endloop
  endfacet
  facet normal 3.340402e-01 -2.639018e-01 9.048608e-01
    outer loop
      vertex   3.618047e+00 -2.786564e+00 1.038992e+01
      vertex   3.673267e+00 -2.716667e+00 1.038992e+01
      vertex   3.603255e+00 -2.664888e+00 1.043086e+01
    endloop
  endfacet
  facet normal 3.340402e-01 -2.639018e-01 9.048608e-01
    outer loop
      vertex   3.618047e+00 -2.786564e+00 1.038992e+01
      vertex   3.603255e+00 -2.664888e+00 1.043086e+01
      vertex   3.549087e+00 -2.733452e+00 1.043086e+01
    endloop
  endfacet
  facet normal 3.149379e-01 -2.488104e-01 9.159189e-01
    outer loop
      vertex   3.392297e+00 -2.508868e+00 1.054858e+01
      vertex   3.341300e+00 -2.573418e+00 1.054858e+01
      vertex   3.410705e+00 -2.626873e+00 1.051020e+01
    endloop
  endfacet
  facet normal 3.149379e-01 -2.488104e-01 9.159189e-01
    outer loop
      vertex   3.392297e+00 -2.508868e+00 1.054858e+01
      vertex   3.410705e+00 -2.626873e+00 1.051020e+01
      vertex   3.462761e+00 -2.560981e+00 1.051020e+01
    endloop
  endfacet
  facet normal 2.847741e-01 -2.342495e-01 9.295326e-01
    outer loop
      vertex   3.083264e+00 -2.472130e+00 1.065861e+01
      vertex   3.132334e+00 -2.412476e+00 1.065861e+01
      vertex   3.062458e+00 -2.358658e+00 1.069358e+01
    endloop
  endfacet
  facet normal 2.892298e-01 -2.285002e-01 9.295880e-01
    outer loop
      vertex   3.062458e+00 -2.358658e+00 1.069358e+01
      vertex   3.132334e+00 -2.412476e+00 1.065861e+01
      vertex   3.109199e+00 -2.299495e+00 1.069358e+01
    endloop
  endfacet
  facet normal 2.827660e-01 -2.233936e-01 9.328123e-01
    outer loop
      vertex   3.062458e+00 -2.358658e+00 1.069358e+01
      vertex   3.109199e+00 -2.299495e+00 1.069358e+01
      vertex   3.038158e+00 -2.246955e+00 1.072770e+01
    endloop
  endfacet
  facet normal 2.870075e-01 -2.176926e-01 9.328647e-01
    outer loop
      vertex   3.038158e+00 -2.246955e+00 1.072770e+01
      vertex   3.109199e+00 -2.299495e+00 1.069358e+01
      vertex   3.082603e+00 -2.188358e+00 1.072770e+01
    endloop
  endfacet
  facet normal 2.892298e-01 -2.285002e-01 9.295880e-01
    outer loop
      vertex   3.109199e+00 -2.299495e+00 1.069358e+01
      vertex   3.132334e+00 -2.412476e+00 1.065861e+01
      vertex   3.180142e+00 -2.351962e+00 1.065861e+01
    endloop
  endfacet
  facet normal 3.582686e-01 -2.717435e-01 8.931960e-01
    outer loop
      vertex   3.812775e+00 -2.819844e+00 1.030546e+01
      vertex   3.882254e+00 -2.871229e+00 1.026196e+01
      vertex   3.868552e+00 -2.746308e+00 1.030546e+01
    endloop
  endfacet
  facet normal 3.582686e-01 -2.717435e-01 8.931960e-01
    outer loop
      vertex   3.868552e+00 -2.746308e+00 1.030546e+01
      vertex   3.882254e+00 -2.871229e+00 1.026196e+01
      vertex   3.939047e+00 -2.796353e+00 1.026196e+01
    endloop
  endfacet
  facet normal 3.634298e-01 -2.645404e-01 8.932733e-01
    outer loop
      vertex   3.868552e+00 -2.746308e+00 1.030546e+01
      vertex   3.939047e+00 -2.796353e+00 1.026196e+01
      vertex   3.922762e+00 -2.671834e+00 1.030546e+01
    endloop
  endfacet
  facet normal 3.634298e-01 -2.645404e-01 8.932733e-01
    outer loop
      vertex   3.922762e+00 -2.671834e+00 1.030546e+01
      vertex   3.939047e+00 -2.796353e+00 1.026196e+01
      vertex   3.994244e+00 -2.720521e+00 1.026196e+01
    endloop
  endfacet
  facet normal 3.518868e-01 -2.669030e-01 8.971836e-01
    outer loop
      vertex   3.743110e+00 -2.768321e+00 1.034812e+01
      vertex   3.812775e+00 -2.819844e+00 1.030546e+01
      vertex   3.797868e+00 -2.696129e+00 1.034812e+01
    endloop
  endfacet
  facet normal 3.518868e-01 -2.669030e-01 8.971836e-01
    outer loop
      vertex   3.797868e+00 -2.696129e+00 1.034812e+01
      vertex   3.812775e+00 -2.819844e+00 1.030546e+01
      vertex   3.868552e+00 -2.746308e+00 1.030546e+01
    endloop
  endfacet
  facet normal 3.569551e-01 -2.598274e-01 8.972585e-01
    outer loop
      vertex   3.797868e+00 -2.696129e+00 1.034812e+01
      vertex   3.868552e+00 -2.746308e+00 1.030546e+01
      vertex   3.851087e+00 -2.623015e+00 1.034812e+01
    endloop
  endfacet
  facet normal 3.569551e-01 -2.598274e-01 8.972585e-01
    outer loop
      vertex   3.851087e+00 -2.623015e+00 1.034812e+01
      vertex   3.868552e+00 -2.746308e+00 1.030546e+01
      vertex   3.922762e+00 -2.671834e+00 1.030546e+01
    endloop
  endfacet
  facet normal 3.618790e-01 -2.526625e-01 8.973323e-01
    outer loop
      vertex   3.851087e+00 -2.623015e+00 1.034812e+01
      vertex   3.922762e+00 -2.671834e+00 1.030546e+01
      vertex   3.902745e+00 -2.549028e+00 1.034812e+01
    endloop
  endfacet
  facet normal 3.390584e-01 -2.571727e-01 9.049318e-01
    outer loop
      vertex   3.655967e+00 -2.595393e+00 1.043086e+01
      vertex   3.603255e+00 -2.664888e+00 1.043086e+01
      vertex   3.673267e+00 -2.716667e+00 1.038992e+01
    endloop
  endfacet
  facet normal 3.454831e-01 -2.620459e-01 9.010956e-01
    outer loop
      vertex   3.673267e+00 -2.716667e+00 1.038992e+01
      vertex   3.743110e+00 -2.768321e+00 1.034812e+01
      vertex   3.727003e+00 -2.645821e+00 1.038992e+01
    endloop
  endfacet
  facet normal 3.454831e-01 -2.620459e-01 9.010956e-01
    outer loop
      vertex   3.727003e+00 -2.645821e+00 1.038992e+01
      vertex   3.743110e+00 -2.768321e+00 1.034812e+01
      vertex   3.797868e+00 -2.696129e+00 1.034812e+01
    endloop
  endfacet
  facet normal 3.504581e-01 -2.550982e-01 9.011682e-01
    outer loop
      vertex   3.727003e+00 -2.645821e+00 1.038992e+01
      vertex   3.797868e+00 -2.696129e+00 1.034812e+01
      vertex   3.779229e+00 -2.574072e+00 1.038992e+01
    endloop
  endfacet
  facet normal 3.504581e-01 -2.550982e-01 9.011682e-01
    outer loop
      vertex   3.779229e+00 -2.574072e+00 1.038992e+01
      vertex   3.797868e+00 -2.696129e+00 1.034812e+01
      vertex   3.851087e+00 -2.623015e+00 1.034812e+01
    endloop
  endfacet
  facet normal 3.552914e-01 -2.480630e-01 9.012396e-01
    outer loop
      vertex   3.779229e+00 -2.574072e+00 1.038992e+01
      vertex   3.851087e+00 -2.623015e+00 1.034812e+01
      vertex   3.829923e+00 -2.501465e+00 1.038992e+01
    endloop
  endfacet
  facet normal 3.552914e-01 -2.480630e-01 9.012396e-01
    outer loop
      vertex   3.829923e+00 -2.501465e+00 1.038992e+01
      vertex   3.851087e+00 -2.623015e+00 1.034812e+01
      vertex   3.902745e+00 -2.549028e+00 1.034812e+01
    endloop
  endfacet
  facet normal 3.599825e-01 -2.409422e-01 9.013098e-01
    outer loop
      vertex   3.829923e+00 -2.501465e+00 1.038992e+01
      vertex   3.902745e+00 -2.549028e+00 1.034812e+01
      vertex   3.879099e+00 -2.427993e+00 1.038992e+01
    endloop
  endfacet
  facet normal 3.599830e-01 -2.409421e-01 9.013097e-01
    outer loop
      vertex   3.879099e+00 -2.427993e+00 1.038992e+01
      vertex   3.902745e+00 -2.549028e+00 1.034812e+01
      vertex   3.952860e+00 -2.474152e+00 1.034812e+01
    endloop
  endfacet
  facet normal 3.645260e-01 -2.337453e-01 9.013789e-01
    outer loop
      vertex   3.879099e+00 -2.427993e+00 1.038992e+01
      vertex   3.952860e+00 -2.474152e+00 1.034812e+01
      vertex   3.926633e+00 -2.353863e+00 1.038992e+01
    endloop
  endfacet
  facet normal 3.196664e-01 -2.424641e-01 9.159828e-01
    outer loop
      vertex   3.441922e+00 -2.443441e+00 1.054858e+01
      vertex   3.392297e+00 -2.508868e+00 1.054858e+01
      vertex   3.462761e+00 -2.560981e+00 1.051020e+01
    endloop
  endfacet
  facet normal 3.196664e-01 -2.424641e-01 9.159828e-01
    outer loop
      vertex   3.441922e+00 -2.443441e+00 1.054858e+01
      vertex   3.462761e+00 -2.560981e+00 1.051020e+01
      vertex   3.513417e+00 -2.494196e+00 1.051020e+01
    endloop
  endfacet
  facet normal 2.935690e-01 -2.226695e-01 9.296427e-01
    outer loop
      vertex   3.109199e+00 -2.299495e+00 1.069358e+01
      vertex   3.180142e+00 -2.351962e+00 1.065861e+01
      vertex   3.154683e+00 -2.239528e+00 1.069358e+01
    endloop
  endfacet
  facet normal 2.935690e-01 -2.226695e-01 9.296427e-01
    outer loop
      vertex   3.154683e+00 -2.239528e+00 1.069358e+01
      vertex   3.180142e+00 -2.351962e+00 1.065861e+01
      vertex   3.226664e+00 -2.290628e+00 1.065861e+01
    endloop
  endfacet
  facet normal 2.977897e-01 -2.167610e-01 9.296967e-01
    outer loop
      vertex   3.154683e+00 -2.239528e+00 1.069358e+01
      vertex   3.226664e+00 -2.290628e+00 1.065861e+01
      vertex   3.198889e+00 -2.178797e+00 1.069358e+01
    endloop
  endfacet
  facet normal 2.977897e-01 -2.167610e-01 9.296967e-01
    outer loop
      vertex   3.198889e+00 -2.178797e+00 1.069358e+01
      vertex   3.226664e+00 -2.290628e+00 1.065861e+01
      vertex   3.271879e+00 -2.228511e+00 1.065861e+01
    endloop
  endfacet
  facet normal 3.018900e-01 -2.107784e-01 9.297499e-01
    outer loop
      vertex   3.198889e+00 -2.178797e+00 1.069358e+01
      vertex   3.271879e+00 -2.228511e+00 1.065861e+01
      vertex   3.241799e+00 -2.117339e+00 1.069358e+01
    endloop
  endfacet
  facet normal 3.018900e-01 -2.107784e-01 9.297499e-01
    outer loop
      vertex   3.241799e+00 -2.117339e+00 1.069358e+01
      vertex   3.271879e+00 -2.228511e+00 1.065861e+01
      vertex   3.315767e+00 -2.165651e+00 1.065861e+01
    endloop
  endfacet
  facet normal 3.058682e-01 -2.047254e-01 9.298022e-01
    outer loop
      vertex   3.241799e+00 -2.117339e+00 1.069358e+01
      vertex   3.315767e+00 -2.165651e+00 1.065861e+01
      vertex   3.283397e+00 -2.055189e+00 1.069358e+01
    endloop
  endfacet
  facet normal 3.058685e-01 -2.047253e-01 9.298021e-01
    outer loop
      vertex   3.283397e+00 -2.055189e+00 1.069358e+01
      vertex   3.315767e+00 -2.165651e+00 1.065861e+01
      vertex   3.358318e+00 -2.102077e+00 1.065861e+01
    endloop
  endfacet
  facet normal 3.097223e-01 -1.986059e-01 9.298536e-01
    outer loop
      vertex   3.283397e+00 -2.055189e+00 1.069358e+01
      vertex   3.358318e+00 -2.102077e+00 1.065861e+01
      vertex   3.399494e+00 -2.037864e+00 1.065861e+01
    endloop
  endfacet
  facet normal 3.439398e-01 -2.503535e-01 9.050020e-01
    outer loop
      vertex   3.707198e+00 -2.525011e+00 1.043086e+01
      vertex   3.655967e+00 -2.595393e+00 1.043086e+01
      vertex   3.727003e+00 -2.645821e+00 1.038992e+01
    endloop
  endfacet
  facet normal 3.390584e-01 -2.571727e-01 9.049318e-01
    outer loop
      vertex   3.727003e+00 -2.645821e+00 1.038992e+01
      vertex   3.655967e+00 -2.595393e+00 1.043086e+01
      vertex   3.673267e+00 -2.716667e+00 1.038992e+01
    endloop
  endfacet
  facet normal 3.439398e-01 -2.503535e-01 9.050020e-01
    outer loop
      vertex   3.707198e+00 -2.525011e+00 1.043086e+01
      vertex   3.727003e+00 -2.645821e+00 1.038992e+01
      vertex   3.779229e+00 -2.574072e+00 1.038992e+01
    endloop
  endfacet
  facet normal 3.242658e-01 -2.360329e-01 9.160459e-01
    outer loop
      vertex   3.490154e+00 -2.377180e+00 1.054858e+01
      vertex   3.441922e+00 -2.443441e+00 1.054858e+01
      vertex   3.513417e+00 -2.494196e+00 1.051020e+01
    endloop
  endfacet
  facet normal 3.242658e-01 -2.360329e-01 9.160459e-01
    outer loop
      vertex   3.490154e+00 -2.377180e+00 1.054858e+01
      vertex   3.513417e+00 -2.494196e+00 1.051020e+01
      vertex   3.562651e+00 -2.426558e+00 1.051020e+01
    endloop
  endfacet
  facet normal 2.911331e-01 -2.119156e-01 9.329165e-01
    outer loop
      vertex   3.125800e+00 -2.129015e+00 1.072770e+01
      vertex   3.082603e+00 -2.188358e+00 1.072770e+01
      vertex   3.154683e+00 -2.239528e+00 1.069358e+01
    endloop
  endfacet
  facet normal 2.870075e-01 -2.176926e-01 9.328647e-01
    outer loop
      vertex   3.154683e+00 -2.239528e+00 1.069358e+01
      vertex   3.082603e+00 -2.188358e+00 1.072770e+01
      vertex   3.109199e+00 -2.299495e+00 1.069358e+01
    endloop
  endfacet
  facet normal 2.911331e-01 -2.119156e-01 9.329165e-01
    outer loop
      vertex   3.125800e+00 -2.129015e+00 1.072770e+01
      vertex   3.154683e+00 -2.239528e+00 1.069358e+01
      vertex   3.198889e+00 -2.178797e+00 1.069358e+01
    endloop
  endfacet
  facet normal 3.486821e-01 -2.434485e-01 9.050710e-01
    outer loop
      vertex   3.756925e+00 -2.453788e+00 1.043086e+01
      vertex   3.707198e+00 -2.525011e+00 1.043086e+01
      vertex   3.779229e+00 -2.574072e+00 1.038992e+01
    endloop
  endfacet
  facet normal 3.486821e-01 -2.434485e-01 9.050710e-01
    outer loop
      vertex   3.756925e+00 -2.453788e+00 1.043086e+01
      vertex   3.779229e+00 -2.574072e+00 1.038992e+01
      vertex   3.829923e+00 -2.501465e+00 1.038992e+01
    endloop
  endfacet
  facet normal 3.287341e-01 -2.295209e-01 9.161081e-01
    outer loop
      vertex   3.536970e+00 -2.310127e+00 1.054858e+01
      vertex   3.490154e+00 -2.377180e+00 1.054858e+01
      vertex   3.562651e+00 -2.426558e+00 1.051020e+01
    endloop
  endfacet
  facet normal 3.287341e-01 -2.295209e-01 9.161081e-01
    outer loop
      vertex   3.536970e+00 -2.310127e+00 1.054858e+01
      vertex   3.562651e+00 -2.426558e+00 1.051020e+01
      vertex   3.610440e+00 -2.358112e+00 1.051020e+01
    endloop
  endfacet
  facet normal 2.951410e-01 -2.060663e-01 9.329676e-01
    outer loop
      vertex   3.167729e+00 -2.068961e+00 1.072770e+01
      vertex   3.125800e+00 -2.129015e+00 1.072770e+01
      vertex   3.198889e+00 -2.178797e+00 1.069358e+01
    endloop
  endfacet
  facet normal 2.951410e-01 -2.060663e-01 9.329676e-01
    outer loop
      vertex   3.167729e+00 -2.068961e+00 1.072770e+01
      vertex   3.198889e+00 -2.178797e+00 1.069358e+01
      vertex   3.241799e+00 -2.117339e+00 1.069358e+01
    endloop
  endfacet
  facet normal 3.532849e-01 -2.364598e-01 9.051390e-01
    outer loop
      vertex   3.805161e+00 -2.381721e+00 1.043086e+01
      vertex   3.756925e+00 -2.453788e+00 1.043086e+01
      vertex   3.829923e+00 -2.501465e+00 1.038992e+01
    endloop
  endfacet
  facet normal 3.532853e-01 -2.364596e-01 9.051389e-01
    outer loop
      vertex   3.805161e+00 -2.381721e+00 1.043086e+01
      vertex   3.829923e+00 -2.501465e+00 1.038992e+01
      vertex   3.879099e+00 -2.427993e+00 1.038992e+01
    endloop
  endfacet
  facet normal 3.330702e-01 -2.229309e-01 9.161692e-01
    outer loop
      vertex   3.582371e+00 -2.242296e+00 1.054858e+01
      vertex   3.536970e+00 -2.310127e+00 1.054858e+01
      vertex   3.610440e+00 -2.358112e+00 1.051020e+01
    endloop
  endfacet
  facet normal 3.330706e-01 -2.229308e-01 9.161691e-01
    outer loop
      vertex   3.582371e+00 -2.242296e+00 1.054858e+01
      vertex   3.610440e+00 -2.358112e+00 1.051020e+01
      vertex   3.656787e+00 -2.288867e+00 1.051020e+01
    endloop
  endfacet
  facet normal 2.990294e-01 -2.001483e-01 9.330177e-01
    outer loop
      vertex   3.208374e+00 -2.008236e+00 1.072770e+01
      vertex   3.167729e+00 -2.068961e+00 1.072770e+01
      vertex   3.241799e+00 -2.117339e+00 1.069358e+01
    endloop
  endfacet
  facet normal 2.990297e-01 -2.001482e-01 9.330177e-01
    outer loop
      vertex   3.208374e+00 -2.008236e+00 1.072770e+01
      vertex   3.241799e+00 -2.117339e+00 1.069358e+01
      vertex   3.283397e+00 -2.055189e+00 1.069358e+01
    endloop
  endfacet
  facet normal 3.372703e-01 -2.162696e-01 9.162293e-01
    outer loop
      vertex   3.582371e+00 -2.242296e+00 1.054858e+01
      vertex   3.656787e+00 -2.288867e+00 1.051020e+01
      vertex   3.626283e+00 -2.173815e+00 1.054858e+01
    endloop
  endfacet
  facet normal 3.372707e-01 -2.162695e-01 9.162292e-01
    outer loop
      vertex   3.626283e+00 -2.173815e+00 1.054858e+01
      vertex   3.656787e+00 -2.288867e+00 1.051020e+01
      vertex   3.701608e+00 -2.218969e+00 1.051020e+01
    endloop
  endfacet
  facet normal 3.413335e-01 -2.095419e-01 9.162879e-01
    outer loop
      vertex   3.626283e+00 -2.173815e+00 1.054858e+01
      vertex   3.701608e+00 -2.218969e+00 1.051020e+01
      vertex   3.668746e+00 -2.104644e+00 1.054858e+01
    endloop
  endfacet
  facet normal 3.413335e-01 -2.095419e-01 9.162879e-01
    outer loop
      vertex   3.668746e+00 -2.104644e+00 1.054858e+01
      vertex   3.701608e+00 -2.218969e+00 1.051020e+01
      vertex   3.744953e+00 -2.148362e+00 1.051020e+01
    endloop
  endfacet
  facet normal 3.452594e-01 -2.027489e-01 9.163454e-01
    outer loop
      vertex   3.668746e+00 -2.104644e+00 1.054858e+01
      vertex   3.744953e+00 -2.148362e+00 1.051020e+01
      vertex   3.709729e+00 -2.034855e+00 1.054858e+01
    endloop
  endfacet
  facet normal 3.452594e-01 -2.027489e-01 9.163454e-01
    outer loop
      vertex   3.709729e+00 -2.034855e+00 1.054858e+01
      vertex   3.744953e+00 -2.148362e+00 1.051020e+01
      vertex   3.786787e+00 -2.077123e+00 1.051020e+01
    endloop
  endfacet
  facet normal 3.577427e-01 -2.293961e-01 9.052058e-01
    outer loop
      vertex   3.805161e+00 -2.381721e+00 1.043086e+01
      vertex   3.879099e+00 -2.427993e+00 1.038992e+01
      vertex   3.851792e+00 -2.308999e+00 1.043086e+01
    endloop
  endfacet
  facet normal 3.577431e-01 -2.293960e-01 9.052057e-01
    outer loop
      vertex   3.851792e+00 -2.308999e+00 1.043086e+01
      vertex   3.879099e+00 -2.427993e+00 1.038992e+01
      vertex   3.926633e+00 -2.353863e+00 1.038992e+01
    endloop
  endfacet
  facet normal 3.620550e-01 -2.222627e-01 9.052710e-01
    outer loop
      vertex   3.851792e+00 -2.308999e+00 1.043086e+01
      vertex   3.926633e+00 -2.353863e+00 1.038992e+01
      vertex   3.896897e+00 -2.235527e+00 1.043086e+01
    endloop
  endfacet
  facet normal 1.000000e+00 -3.510707e-15 0.000000e+00
    outer loop
      vertex   4.000000e+00 -2.000000e+00 1.044259e+01
      vertex   4.000000e+00 -2.126496e+00 1.041471e+01
      vertex   4.000000e+00 -2.000000e+00 1.000000e+01
    endloop
  endfacet
  facet normal 1.000000e+00 -1.666509e-14 -4.012367e-15
    outer loop
      vertex   4.000000e+00 -2.000000e+00 1.000000e+01
      vertex   4.000000e+00 -2.126496e+00 1.041471e+01
      vertex   4.000000e+00 -2.252614e+00 1.038513e+01
    endloop
  endfacet
  facet normal 1.000000e+00 -1.058980e-14 -2.751086e-17
    outer loop
      vertex   4.000000e+00 -2.000000e+00 1.000000e+01
      vertex   4.000000e+00 -2.252614e+00 1.038513e+01
      vertex   4.000000e+00 -2.378339e+00 1.035386e+01
    endloop
  endfacet
  facet normal 1.000000e+00 -2.318815e-15 8.815623e-15
    outer loop
      vertex   4.000000e+00 -2.378339e+00 1.035386e+01
      vertex   4.000000e+00 -2.503652e+00 1.032090e+01
      vertex   4.000000e+00 -2.000000e+00 1.000000e+01
    endloop
  endfacet
  facet normal 1.000000e+00 2.549157e-15 1.645592e-14
    outer loop
      vertex   4.000000e+00 -2.000000e+00 1.000000e+01
      vertex   4.000000e+00 -2.503652e+00 1.032090e+01
      vertex   4.000000e+00 -2.628495e+00 1.028627e+01
    endloop
  endfacet
  facet normal 1.000000e+00 6.774235e-15 2.573208e-14
    outer loop
      vertex   4.000000e+00 -2.000000e+00 1.000000e+01
      vertex   4.000000e+00 -2.628495e+00 1.028627e+01
      vertex   4.000000e+00 -2.752844e+00 1.024997e+01
    endloop
  endfacet
  facet normal 1.000000e+00 0.000000e+00 5.329741e-15
    outer loop
      vertex   4.000000e+00 -2.000000e+00 1.000000e+01
      vertex   4.000000e+00 -2.752844e+00 1.024997e+01
      vertex   4.000000e+00 -3.000000e+00 1.000000e+01
    endloop
  endfacet
  facet normal 1.000000e+00 7.946563e-15 -2.527411e-15
    outer loop
      vertex   4.000000e+00 -3.000000e+00 1.000000e+01
      vertex   4.000000e+00 -2.752844e+00 1.024997e+01
      vertex   4.000000e+00 -2.876684e+00 1.021202e+01
    endloop
  endfacet
  facet normal 1.000000e+00 3.601220e-15 -0.000000e+00
    outer loop
      vertex   4.000000e+00 -3.000000e+00 1.000000e+01
      vertex   4.000000e+00 -2.876684e+00 1.021202e+01
      vertex   4.000000e+00 -3.000000e+00 1.017241e+01
    endloop
  endfacet
  facet normal -0.000000e+00 -1.000000e+00 -0.000000e+00
    outer loop
      vertex   4.000000e+00 -3.000000e+00 1.017241e+01
      vertex   3.877097e+00 -3.000000e+00 1.022293e+01
      vertex   4.000000e+00 -3.000000e+00 1.000000e+01
    endloop
  endfacet
  facet normal 4.599411e-15 -1.000000e+00 2.535692e-15
    outer loop
      vertex   4.000000e+00 -3.000000e+00 1.000000e+01
      vertex   3.877097e+00 -3.000000e+00 1.022293e+01
      vertex   3.753557e+00 -3.000000e+00 1.027188e+01
    endloop
  endfacet
  facet normal -0.000000e+00 -1.000000e+00 -1.633404e-15
    outer loop
      vertex   4.000000e+00 -3.000000e+00 1.000000e+01
      vertex   3.753557e+00 -3.000000e+00 1.027188e+01
      vertex   3.000000e+00 -3.000000e+00 1.000000e+01
    endloop
  endfacet
  facet normal 4.911945e-15 -1.000000e+00 -1.524764e-14
    outer loop
      vertex   3.000000e+00 -3.000000e+00 1.000000e+01
      vertex   3.753557e+00 -3.000000e+00 1.027188e+01
      vertex   3.629394e+00 -3.000000e+00 1.031926e+01
    endloop
  endfacet
  facet normal -1.184871e-15 -1.000000e+00 -3.228145e-15
    outer loop
      vertex   3.000000e+00 -3.000000e+00 1.000000e+01
      vertex   3.629394e+00 -3.000000e+00 1.031926e+01
      vertex   3.504622e+00 -3.000000e+00 1.036505e+01
    endloop
  endfacet
  facet normal -5.916669e-15 -1.000000e+00 3.312728e-15
    outer loop
      vertex   3.504622e+00 -3.000000e+00 1.036505e+01
      vertex   3.379259e+00 -3.000000e+00 1.040926e+01
      vertex   3.000000e+00 -3.000000e+00 1.000000e+01
    endloop
  endfacet
  facet normal 4.811473e-15 -1.000000e+00 -6.628951e-15
    outer loop
      vertex   3.000000e+00 -3.000000e+00 1.000000e+01
      vertex   3.379259e+00 -3.000000e+00 1.040926e+01
      vertex   3.253355e+00 -3.000000e+00 1.045186e+01
    endloop
  endfacet
  facet normal -1.296801e-14 -1.000000e+00 3.339856e-15
    outer loop
      vertex   3.000000e+00 -3.000000e+00 1.000000e+01
      vertex   3.253355e+00 -3.000000e+00 1.045186e+01
      vertex   3.126930e+00 -3.000000e+00 1.049285e+01
    endloop
  endfacet
  facet normal -0.000000e+00 -1.000000e+00 0.000000e+00
    outer loop
      vertex   3.126930e+00 -3.000000e+00 1.049285e+01
      vertex   3.000000e+00 -3.000000e+00 1.053221e+01
      vertex   3.000000e+00 -3.000000e+00 1.000000e+01
    endloop
  endfacet
  facet normal 0.000000e+00 0.000000e+00 -1.000000e+00
    outer loop
      vertex   4.000000e+00 -3.000000e+00 1.000000e+01
      vertex   3.000000e+00 -3.000000e+00 1.000000e+01
      vertex   4.000000e+00 -2.000000e+00 1.000000e+01
    endloop
  endfacet
  facet normal -0.000000e+00 0.000000e+00 -1.000000e+00
    outer loop
      vertex   4.000000e+00 -2.000000e+00 1.000000e+01
      vertex   3.000000e+00 -3.000000e+00 1.000000e+01
      vertex   3.000000e+00 -2.000000e+00 1.000000e+01
    endloop
  endfacet
  facet normal -1.000000e+00 7.195895e-15 0.000000e+00
    outer loop
      vertex   3.000000e+00 -3.000000e+00 1.053221e+01
      vertex   3.000000e+00 -2.876572e+00 1.057050e+01
      vertex   3.000000e+00 -3.000000e+00 1.000000e+01
    endloop
  endfacet
  facet normal -1.000000e+00 7.165477e-15 6.580992e-18
    outer loop
      vertex   3.000000e+00 -3.000000e+00 1.000000e+01
      vertex   3.000000e+00 -2.876572e+00 1.057050e+01
      vertex   3.000000e+00 -2.752653e+00 1.060719e+01
    endloop
  endfacet
  facet normal -1.000000e+00 0.000000e+00 2.925542e-15
    outer loop
      vertex   3.000000e+00 -3.000000e+00 1.000000e+01
      vertex   3.000000e+00 -2.752653e+00 1.060719e+01
      vertex   3.000000e+00 -2.000000e+00 1.000000e+01
    endloop
  endfacet
  facet normal -1.000000e+00 7.323903e-15 1.200403e-14
    outer loop
      vertex   3.000000e+00 -2.000000e+00 1.000000e+01
      vertex   3.000000e+00 -2.752653e+00 1.060719e+01
      vertex   3.000000e+00 -2.628257e+00 1.064228e+01
    endloop
  endfacet
  facet normal -1.000000e+00 1.789543e-15 6.590479e-15
    outer loop
      vertex   3.000000e+00 -2.000000e+00 1.000000e+01
      vertex   3.000000e+00 -2.628257e+00 1.064228e+01
      vertex   3.000000e+00 -2.503399e+00 1.067576e+01
    endloop
  endfacet
  facet normal -1.000000e+00 -4.103973e-15 2.200166e-15
    outer loop
      vertex   3.000000e+00 -2.503399e+00 1.067576e+01
      vertex   3.000000e+00 -2.378109e+00 1.070762e+01
      vertex   3.000000e+00 -2.000000e+00 1.000000e+01
    endloop
  endfacet
  facet normal -1.000000e+00 -4.067552e-15 2.219627e-15
    outer loop
      vertex   3.000000e+00 -2.000000e+00 1.000000e+01
      vertex   3.000000e+00 -2.378109e+00 1.070762e+01
      vertex   3.000000e+00 -2.252435e+00 1.073785e+01
    endloop
  endfacet
  facet normal -1.000000e+00 -2.037798e-14 -3.360579e-15
    outer loop
      vertex   3.000000e+00 -2.000000e+00 1.000000e+01
      vertex   3.000000e+00 -2.252435e+00 1.073785e+01
      vertex   3.000000e+00 -2.126394e+00 1.076643e+01
    endloop
  endfacet
  facet normal -1.000000e+00 0.000000e+00 0.000000e+00
    outer loop
      vertex   3.000000e+00 -2.126394e+00 1.076643e+01
      vertex   3.000000e+00 -2.000000e+00 1.079338e+01
      vertex   3.000000e+00 -2.000000e+00 1.000000e+01
    endloop
  endfacet
  facet normal 0.000000e+00 1.000000e+00 0.000000e+00
    outer loop
      vertex   3.000000e+00 -2.000000e+00 1.079338e+01
      vertex   3.126847e+00 -2.000000e+00 1.075500e+01
      vertex   3.000000e+00 -2.000000e+00 1.000000e+01
    endloop
  endfacet
  facet normal -1.668479e-15 1.000000e+00 2.803208e-16
    outer loop
      vertex   3.000000e+00 -2.000000e+00 1.000000e+01
      vertex   3.126847e+00 -2.000000e+00 1.075500e+01
      vertex   3.253215e+00 -2.000000e+00 1.071504e+01
    endloop
  endfacet
  facet normal -1.671200e-15 1.000000e+00 2.812844e-16
    outer loop
      vertex   3.000000e+00 -2.000000e+00 1.000000e+01
      vertex   3.253215e+00 -2.000000e+00 1.071504e+01
      vertex   3.379089e+00 -2.000000e+00 1.067350e+01
    endloop
  endfacet
  facet normal -1.899638e-16 1.000000e+00 -5.524523e-16
    outer loop
      vertex   3.379089e+00 -2.000000e+00 1.067350e+01
      vertex   3.504426e+00 -2.000000e+00 1.063040e+01
      vertex   3.000000e+00 -2.000000e+00 1.000000e+01
    endloop
  endfacet
  facet normal 1.187513e-15 1.000000e+00 -1.654665e-15
    outer loop
      vertex   3.000000e+00 -2.000000e+00 1.000000e+01
      vertex   3.504426e+00 -2.000000e+00 1.063040e+01
      vertex   3.629199e+00 -2.000000e+00 1.058575e+01
    endloop
  endfacet
  facet normal 1.176779e-15 1.000000e+00 -1.643135e-15
    outer loop
      vertex   3.000000e+00 -2.000000e+00 1.000000e+01
      vertex   3.629199e+00 -2.000000e+00 1.058575e+01
      vertex   3.753395e+00 -2.000000e+00 1.053957e+01
    endloop
  endfacet
  facet normal 0.000000e+00 1.000000e+00 0.000000e+00
    outer loop
      vertex   3.000000e+00 -2.000000e+00 1.000000e+01
      vertex   3.753395e+00 -2.000000e+00 1.053957e+01
      vertex   4.000000e+00 -2.000000e+00 1.000000e+01
    endloop
  endfacet
  facet normal -2.181345e-15 1.000000e+00 -9.969714e-16
    outer loop
      vertex   4.000000e+00 -2.000000e+00 1.000000e+01
      vertex   3.753395e+00 -2.000000e+00 1.053957e+01
      vertex   3.876999e+00 -2.000000e+00 1.049184e+01
    endloop
  endfacet
  facet normal 1.805229e-15 1.000000e+00 -0.000000e+00
    outer loop
      vertex   4.000000e+00 -2.000000e+00 1.000000e+01
      vertex   3.876999e+00 -2.000000e+00 1.049184e+01
      vertex   4.000000e+00 -2.000000e+00 1.044259e+01
    endloop
  endfacet
endsolid
