solid ASCII
  facet normal -1.783052e-01 9.276904e-01 3.280209e-01
    outer loop
      vertex   -2.000000e+00 1.000000e+01 3.857608e+00
      vertex   -2.000000e+00 9.949652e+00 4.000000e+00
      vertex   -1.933943e+00 9.987510e+00 3.928838e+00
    endloop
  endfacet
  facet normal -1.714851e-01 9.268725e-01 3.339165e-01
    outer loop
      vertex   -1.933943e+00 9.987510e+00 3.928838e+00
      vertex   -2.000000e+00 9.949652e+00 4.000000e+00
      vertex   -1.858744e+00 9.975786e+00 4.000000e+00
    endloop
  endfacet
  facet normal -1.684829e-01 9.284655e-01 3.310064e-01
    outer loop
      vertex   -1.933943e+00 9.987510e+00 3.928838e+00
      vertex   -1.858744e+00 9.975786e+00 4.000000e+00
      vertex   -1.859953e+00 1.000000e+01 3.931466e+00
    endloop
  endfacet
  facet normal -1.628561e-01 9.293882e-01 3.312332e-01
    outer loop
      vertex   -1.859953e+00 1.000000e+01 3.931466e+00
      vertex   -1.858744e+00 9.975786e+00 4.000000e+00
      vertex   -1.788891e+00 1.000000e+01 3.966404e+00
    endloop
  endfacet
  facet normal -1.586130e-01 9.274452e-01 3.386553e-01
    outer loop
      vertex   -1.788891e+00 1.000000e+01 3.966404e+00
      vertex   -1.858744e+00 9.975786e+00 4.000000e+00
      vertex   -1.717161e+00 1.000000e+01 4.000000e+00
    endloop
  endfacet
  facet normal -1.685751e-01 9.298341e-01 3.270947e-01
    outer loop
      vertex   -1.859953e+00 1.000000e+01 3.931466e+00
      vertex   -1.930328e+00 1.000000e+01 3.895197e+00
      vertex   -1.933943e+00 9.987510e+00 3.928838e+00
    endloop
  endfacet
  facet normal -1.758565e-01 9.288837e-01 3.259593e-01
    outer loop
      vertex   -1.933943e+00 9.987510e+00 3.928838e+00
      vertex   -1.930328e+00 1.000000e+01 3.895197e+00
      vertex   -2.000000e+00 1.000000e+01 3.857608e+00
    endloop
  endfacet
  facet normal -0.000000e+00 1.000000e+00 0.000000e+00
    outer loop
      vertex   -2.000000e+00 1.000000e+01 3.857608e+00
      vertex   -1.930328e+00 1.000000e+01 3.895197e+00
      vertex   -2.000000e+00 1.000000e+01 3.000000e+00
    endloop
  endfacet
  facet normal 0.000000e+00 1.000000e+00 0.000000e+00
    outer loop
      vertex   -2.000000e+00 1.000000e+01 3.000000e+00
      vertex   -1.930328e+00 1.000000e+01 3.895197e+00
      vertex   -1.859953e+00 1.000000e+01 3.931466e+00
    endloop
  endfacet
  facet normal 0.000000e+00 1.000000e+00 0.000000e+00
    outer loop
      vertex   -2.000000e+00 1.000000e+01 3.000000e+00
      vertex   -1.859953e+00 1.000000e+01 3.931466e+00
      vertex   -1.788891e+00 1.000000e+01 3.966404e+00
    endloop
  endfacet
  facet normal 0.000000e+00 1.000000e+00 0.000000e+00
    outer loop
      vertex   -2.000000e+00 1.000000e+01 3.000000e+00
      vertex   -1.788891e+00 1.000000e+01 3.966404e+00
      vertex   -1.000000e+00 1.000000e+01 3.000000e+00
    endloop
  endfacet
  facet normal 0.000000e+00 1.000000e+00 0.000000e+00
    outer loop
      vertex   -1.000000e+00 1.000000e+01 3.000000e+00
      vertex   -1.788891e+00 1.000000e+01 3.966404e+00
      vertex   -1.717161e+00 1.000000e+01 4.000000e+00
    endloop
  endfacet
  facet normal 0.000000e+00 1.000000e+00 -0.000000e+00
    outer loop
      vertex   -1.000000e+00 1.000000e+01 3.000000e+00
      vertex   -1.717161e+00 1.000000e+01 4.000000e+00
      vertex   -1.000000e+00 1.000000e+01 4.000000e+00
    endloop
  endfacet
  facet normal 3.296024e-15 -9.322444e-16 1.000000e+00
    outer loop
      vertex   -1.858744e+00 9.975786e+00 4.000000e+00
      vertex   -2.000000e+00 9.000000e+00 4.000000e+00
      vertex   -1.717161e+00 1.000000e+01 4.000000e+00
    endloop
  endfacet
  facet normal 0.000000e+00 0.000000e+00 1.000000e+00
    outer loop
      vertex   -1.717161e+00 1.000000e+01 4.000000e+00
      vertex   -2.000000e+00 9.000000e+00 4.000000e+00
      vertex   -1.000000e+00 9.000000e+00 4.000000e+00
    endloop
  endfacet
  facet normal -0.000000e+00 0.000000e+00 1.000000e+00
    outer loop
      vertex   -1.717161e+00 1.000000e+01 4.000000e+00
      vertex   -1.000000e+00 9.000000e+00 4.000000e+00
      vertex   -1.000000e+00 1.000000e+01 4.000000e+00
    endloop
  endfacet
  facet normal -3.143869e-15 0.000000e+00 1.000000e+00
    outer loop
      vertex   -1.858744e+00 9.975786e+00 4.000000e+00
      vertex   -2.000000e+00 9.949652e+00 4.000000e+00
      vertex   -2.000000e+00 9.000000e+00 4.000000e+00
    endloop
  endfacet
  facet normal 0.000000e+00 0.000000e+00 -1.000000e+00
    outer loop
      vertex   -1.000000e+00 9.000000e+00 3.000000e+00
      vertex   -2.000000e+00 9.000000e+00 3.000000e+00
      vertex   -1.000000e+00 1.000000e+01 3.000000e+00
    endloop
  endfacet
  facet normal -0.000000e+00 0.000000e+00 -1.000000e+00
    outer loop
      vertex   -1.000000e+00 1.000000e+01 3.000000e+00
      vertex   -2.000000e+00 9.000000e+00 3.000000e+00
      vertex   -2.000000e+00 1.000000e+01 3.000000e+00
    endloop
  endfacet
  facet normal 0.000000e+00 -1.000000e+00 0.000000e+00
    outer loop
      vertex   -2.000000e+00 9.000000e+00 4.000000e+00
      vertex   -2.000000e+00 9.000000e+00 3.000000e+00
      vertex   -1.000000e+00 9.000000e+00 4.000000e+00
    endloop
  endfacet
  facet normal 0.000000e+00 -1.000000e+00 -0.000000e+00
    outer loop
      vertex   -1.000000e+00 9.000000e+00 4.000000e+00
      vertex   -2.000000e+00 9.000000e+00 3.000000e+00
      vertex   -1.000000e+00 9.000000e+00 3.000000e+00
    endloop
  endfacet
  facet normal -1.000000e+00 -0.000000e+00 -0.000000e+00
    outer loop
      vertex   -2.000000e+00 9.949652e+00 4.000000e+00
      vertex   -2.000000e+00 1.000000e+01 3.857608e+00
      vertex   -2.000000e+00 9.000000e+00 4.000000e+00
    endloop
  endfacet
  facet normal -1.000000e+00 0.000000e+00 0.000000e+00
    outer loop
      vertex   -2.000000e+00 9.000000e+00 4.000000e+00
      vertex   -2.000000e+00 1.000000e+01 3.857608e+00
      vertex   -2.000000e+00 9.000000e+00 3.000000e+00
    endloop
  endfacet
  facet normal -1.000000e+00 0.000000e+00 0.000000e+00
    outer loop
      vertex   -2.000000e+00 9.000000e+00 3.000000e+00
      vertex   -2.000000e+00 1.000000e+01 3.857608e+00
      vertex   -2.000000e+00 1.000000e+01 3.000000e+00
    endloop
  endfacet
  facet normal 1.000000e+00 -0.000000e+00 0.000000e+00
    outer loop
      vertex   -1.000000e+00 9.000000e+00 4.000000e+00
      vertex   -1.000000e+00 9.000000e+00 3.000000e+00
      vertex   -1.000000e+00 1.000000e+01 4.000000e+00
    endloop
  endfacet
  facet normal 1.000000e+00 0.000000e+00 0.000000e+00
    outer loop
      vertex   -1.000000e+00 1.000000e+01 4.000000e+00
      vertex   -1.000000e+00 9.000000e+00 3.000000e+00
      vertex   -1.000000e+00 1.000000e+01 3.000000e+00
    endloop
  endfacet
endsolid
