solid ASCII
  facet normal -4.099835e-01 -7.722370e-01 4.853488e-01
    outer loop
      vertex   2.524147e+00 -6.000000e+00 -3.059043e+00
      vertex   2.594043e+00 -6.000000e+00 -3.000000e+00
      vertex   2.521516e+00 -5.979239e+00 -3.028232e+00
    endloop
  endfacet
  facet normal -4.082833e-01 -7.788611e-01 4.761095e-01
    outer loop
      vertex   2.521516e+00 -5.979239e+00 -3.028232e+00
      vertex   2.594043e+00 -6.000000e+00 -3.000000e+00
      vertex   2.521970e+00 -5.962219e+00 -3.000000e+00
    endloop
  endfacet
  facet normal -3.944591e-01 -7.841488e-01 4.790747e-01
    outer loop
      vertex   2.521516e+00 -5.979239e+00 -3.028232e+00
      vertex   2.521970e+00 -5.962219e+00 -3.000000e+00
      vertex   2.467100e+00 -5.951865e+00 -3.028232e+00
    endloop
  endfacet
  facet normal -3.896904e-01 -7.942963e-01 4.660845e-01
    outer loop
      vertex   2.467100e+00 -5.951865e+00 -3.028232e+00
      vertex   2.521970e+00 -5.962219e+00 -3.000000e+00
      vertex   2.448981e+00 -5.926410e+00 -3.000000e+00
    endloop
  endfacet
  facet normal -3.805144e-01 -7.949286e-01 4.725435e-01
    outer loop
      vertex   2.467100e+00 -5.951865e+00 -3.028232e+00
      vertex   2.448981e+00 -5.926410e+00 -3.000000e+00
      vertex   2.411145e+00 -5.925081e+00 -3.028232e+00
    endloop
  endfacet
  facet normal -3.712505e-01 -8.068276e-01 4.595676e-01
    outer loop
      vertex   2.411145e+00 -5.925081e+00 -3.028232e+00
      vertex   2.448981e+00 -5.926410e+00 -3.000000e+00
      vertex   2.375375e+00 -5.892541e+00 -3.000000e+00
    endloop
  endfacet
  facet normal -3.672714e-01 -8.061863e-01 4.638701e-01
    outer loop
      vertex   2.411145e+00 -5.925081e+00 -3.028232e+00
      vertex   2.375375e+00 -5.892541e+00 -3.000000e+00
      vertex   2.353701e+00 -5.898911e+00 -3.028232e+00
    endloop
  endfacet
  facet normal -3.581749e-01 -8.133215e-01 4.584964e-01
    outer loop
      vertex   2.353701e+00 -5.898911e+00 -3.028232e+00
      vertex   2.375375e+00 -5.892541e+00 -3.000000e+00
      vertex   2.332007e+00 -5.889357e+00 -3.028232e+00
    endloop
  endfacet
  facet normal -3.567918e-01 -8.101809e-01 4.650876e-01
    outer loop
      vertex   2.353701e+00 -5.898911e+00 -3.028232e+00
      vertex   2.332007e+00 -5.889357e+00 -3.028232e+00
      vertex   2.313996e+00 -5.897511e+00 -3.056253e+00
    endloop
  endfacet
  facet normal -3.517931e-01 -8.136257e-01 4.628768e-01
    outer loop
      vertex   2.313996e+00 -5.897511e+00 -3.056253e+00
      vertex   2.332007e+00 -5.889357e+00 -3.028232e+00
      vertex   2.292276e+00 -5.888120e+00 -3.056253e+00
    endloop
  endfacet
  facet normal -3.505004e-01 -8.106361e-01 4.690614e-01
    outer loop
      vertex   2.313996e+00 -5.897511e+00 -3.056253e+00
      vertex   2.292276e+00 -5.888120e+00 -3.056253e+00
      vertex   2.274267e+00 -5.896423e+00 -3.084060e+00
    endloop
  endfacet
  facet normal -3.431000e-01 -8.156813e-01 4.657751e-01
    outer loop
      vertex   2.274267e+00 -5.896423e+00 -3.084060e+00
      vertex   2.292276e+00 -5.888120e+00 -3.056253e+00
      vertex   2.230603e+00 -5.878057e+00 -3.084060e+00
    endloop
  endfacet
  facet normal -3.418249e-01 -8.126498e-01 4.719703e-01
    outer loop
      vertex   2.274267e+00 -5.896423e+00 -3.084060e+00
      vertex   2.230603e+00 -5.878057e+00 -3.084060e+00
      vertex   2.212778e+00 -5.886583e+00 -3.111651e+00
    endloop
  endfacet
  facet normal -3.321051e-01 -8.191276e-01 4.676925e-01
    outer loop
      vertex   2.212778e+00 -5.886583e+00 -3.111651e+00
      vertex   2.230603e+00 -5.878057e+00 -3.084060e+00
      vertex   2.168733e+00 -5.868726e+00 -3.111651e+00
    endloop
  endfacet
  facet normal -3.302296e-01 -8.145018e-01 4.770065e-01
    outer loop
      vertex   2.212778e+00 -5.886583e+00 -3.111651e+00
      vertex   2.168733e+00 -5.868726e+00 -3.111651e+00
      vertex   2.133325e+00 -5.886298e+00 -3.166169e+00
    endloop
  endfacet
  facet normal -3.206996e-01 -8.207255e-01 4.728229e-01
    outer loop
      vertex   2.133325e+00 -5.886298e+00 -3.166169e+00
      vertex   2.168733e+00 -5.868726e+00 -3.111651e+00
      vertex   2.089304e+00 -5.869097e+00 -3.166169e+00
    endloop
  endfacet
  facet normal -3.188501e-01 -8.159924e-01 4.821733e-01
    outer loop
      vertex   2.133325e+00 -5.886298e+00 -3.166169e+00
      vertex   2.089304e+00 -5.869097e+00 -3.166169e+00
      vertex   2.071739e+00 -5.878142e+00 -3.193091e+00
    endloop
  endfacet
  facet normal -3.095053e-01 -8.219734e-01 4.780860e-01
    outer loop
      vertex   2.071739e+00 -5.878142e+00 -3.193091e+00
      vertex   2.089304e+00 -5.869097e+00 -3.166169e+00
      vertex   2.027423e+00 -5.861455e+00 -3.193091e+00
    endloop
  endfacet
  facet normal -3.082957e-01 -8.187610e-01 4.843388e-01
    outer loop
      vertex   2.071739e+00 -5.878142e+00 -3.193091e+00
      vertex   2.027423e+00 -5.861455e+00 -3.193091e+00
      vertex   2.010089e+00 -5.870719e+00 -3.219785e+00
    endloop
  endfacet
  facet normal -3.003505e-01 -8.237249e-01 4.809022e-01
    outer loop
      vertex   2.010089e+00 -5.870719e+00 -3.219785e+00
      vertex   2.027423e+00 -5.861455e+00 -3.193091e+00
      vertex   2.000000e+00 -5.869865e+00 -3.224624e+00
    endloop
  endfacet
  facet normal -3.061958e-01 -8.131841e-01 4.949503e-01
    outer loop
      vertex   2.010089e+00 -5.870719e+00 -3.219785e+00
      vertex   2.000000e+00 -5.869865e+00 -3.224624e+00
      vertex   2.054027e+00 -5.887263e+00 -3.219785e+00
    endloop
  endfacet
  facet normal -3.066204e-01 -8.157605e-01 4.904270e-01
    outer loop
      vertex   2.054027e+00 -5.887263e+00 -3.219785e+00
      vertex   2.000000e+00 -5.869865e+00 -3.224624e+00
      vertex   2.036169e+00 -5.896460e+00 -3.246247e+00
    endloop
  endfacet
  facet normal -3.162872e-01 -8.094336e-01 4.947521e-01
    outer loop
      vertex   2.054027e+00 -5.887263e+00 -3.219785e+00
      vertex   2.036169e+00 -5.896460e+00 -3.246247e+00
      vertex   2.097304e+00 -5.904174e+00 -3.219785e+00
    endloop
  endfacet
  facet normal -3.162872e-01 -8.094336e-01 4.947521e-01
    outer loop
      vertex   2.097304e+00 -5.904174e+00 -3.219785e+00
      vertex   2.036169e+00 -5.896460e+00 -3.246247e+00
      vertex   2.079070e+00 -5.913223e+00 -3.246247e+00
    endloop
  endfacet
  facet normal -3.256071e-01 -8.031005e-01 4.990086e-01
    outer loop
      vertex   2.097304e+00 -5.904174e+00 -3.219785e+00
      vertex   2.079070e+00 -5.913223e+00 -3.246247e+00
      vertex   2.139898e+00 -5.921443e+00 -3.219785e+00
    endloop
  endfacet
  facet normal -3.256071e-01 -8.031005e-01 4.990086e-01
    outer loop
      vertex   2.139898e+00 -5.921443e+00 -3.219785e+00
      vertex   2.079070e+00 -5.913223e+00 -3.246247e+00
      vertex   2.121293e+00 -5.930342e+00 -3.246247e+00
    endloop
  endfacet
  facet normal -3.350175e-01 -7.964660e-01 5.033936e-01
    outer loop
      vertex   2.139898e+00 -5.921443e+00 -3.219785e+00
      vertex   2.121293e+00 -5.930342e+00 -3.246247e+00
      vertex   2.181786e+00 -5.939063e+00 -3.219785e+00
    endloop
  endfacet
  facet normal -3.350175e-01 -7.964660e-01 5.033936e-01
    outer loop
      vertex   2.181786e+00 -5.939063e+00 -3.219785e+00
      vertex   2.121293e+00 -5.930342e+00 -3.246247e+00
      vertex   2.162817e+00 -5.947808e+00 -3.246247e+00
    endloop
  endfacet
  facet normal -3.421308e-01 -7.912788e-01 5.067784e-01
    outer loop
      vertex   2.181786e+00 -5.939063e+00 -3.219785e+00
      vertex   2.162817e+00 -5.947808e+00 -3.246247e+00
      vertex   2.202459e+00 -5.948001e+00 -3.219785e+00
    endloop
  endfacet
  facet normal -3.421308e-01 -7.912788e-01 5.067784e-01
    outer loop
      vertex   2.202459e+00 -5.948001e+00 -3.219785e+00
      vertex   2.162817e+00 -5.947808e+00 -3.246247e+00
      vertex   2.183310e+00 -5.956669e+00 -3.246247e+00
    endloop
  endfacet
  facet normal -3.469023e-01 -7.877244e-01 5.090669e-01
    outer loop
      vertex   2.202459e+00 -5.948001e+00 -3.219785e+00
      vertex   2.183310e+00 -5.956669e+00 -3.246247e+00
      vertex   2.222947e+00 -5.957024e+00 -3.219785e+00
    endloop
  endfacet
  facet normal -3.469023e-01 -7.877244e-01 5.090669e-01
    outer loop
      vertex   2.222947e+00 -5.957024e+00 -3.219785e+00
      vertex   2.183310e+00 -5.956669e+00 -3.246247e+00
      vertex   2.203620e+00 -5.965613e+00 -3.246247e+00
    endloop
  endfacet
  facet normal -3.557773e-01 -7.809561e-01 5.133518e-01
    outer loop
      vertex   2.222947e+00 -5.957024e+00 -3.219785e+00
      vertex   2.203620e+00 -5.965613e+00 -3.246247e+00
      vertex   2.277200e+00 -5.981739e+00 -3.219785e+00
    endloop
  endfacet
  facet normal -3.557773e-01 -7.809561e-01 5.133518e-01
    outer loop
      vertex   2.277200e+00 -5.981739e+00 -3.219785e+00
      vertex   2.203620e+00 -5.965613e+00 -3.246247e+00
      vertex   2.257401e+00 -5.990114e+00 -3.246247e+00
    endloop
  endfacet
  facet normal -3.660565e-01 -7.727897e-01 5.184580e-01
    outer loop
      vertex   2.277200e+00 -5.981739e+00 -3.219785e+00
      vertex   2.257401e+00 -5.990114e+00 -3.246247e+00
      vertex   2.306585e+00 -6.000000e+00 -3.226256e+00
    endloop
  endfacet
  facet normal -3.680953e-01 -7.661959e-01 5.267349e-01
    outer loop
      vertex   2.306585e+00 -6.000000e+00 -3.226256e+00
      vertex   2.257401e+00 -5.990114e+00 -3.246247e+00
      vertex   2.237443e+00 -5.998557e+00 -3.272474e+00
    endloop
  endfacet
  facet normal -3.758730e-01 -7.539667e-01 5.387520e-01
    outer loop
      vertex   2.306585e+00 -6.000000e+00 -3.226256e+00
      vertex   2.237443e+00 -5.998557e+00 -3.272474e+00
      vertex   2.231641e+00 -6.000000e+00 -3.278542e+00
    endloop
  endfacet
  facet normal -3.534698e-01 -7.758908e-01 5.225444e-01
    outer loop
      vertex   2.231641e+00 -6.000000e+00 -3.278542e+00
      vertex   2.237443e+00 -5.998557e+00 -3.272474e+00
      vertex   2.184137e+00 -5.974272e+00 -3.272474e+00
    endloop
  endfacet
  facet normal -3.521069e-01 -7.741853e-01 5.259828e-01
    outer loop
      vertex   2.231641e+00 -6.000000e+00 -3.278542e+00
      vertex   2.184137e+00 -5.974272e+00 -3.272474e+00
      vertex   2.164501e+00 -5.983000e+00 -3.298465e+00
    endloop
  endfacet
  facet normal -3.437955e-01 -7.806697e-01 5.218808e-01
    outer loop
      vertex   2.164501e+00 -5.983000e+00 -3.298465e+00
      vertex   2.184137e+00 -5.974272e+00 -3.272474e+00
      vertex   2.144551e+00 -5.974214e+00 -3.298465e+00
    endloop
  endfacet
  facet normal -3.421924e-01 -7.770294e-01 5.283273e-01
    outer loop
      vertex   2.164501e+00 -5.983000e+00 -3.298465e+00
      vertex   2.144551e+00 -5.974214e+00 -3.298465e+00
      vertex   2.124946e+00 -5.983089e+00 -3.324216e+00
    endloop
  endfacet
  facet normal -3.375265e-01 -7.806300e-01 5.260158e-01
    outer loop
      vertex   2.124946e+00 -5.983089e+00 -3.324216e+00
      vertex   2.144551e+00 -5.974214e+00 -3.298465e+00
      vertex   2.105001e+00 -5.974465e+00 -3.324216e+00
    endloop
  endfacet
  facet normal -3.363291e-01 -7.778606e-01 5.308631e-01
    outer loop
      vertex   2.124946e+00 -5.983089e+00 -3.324216e+00
      vertex   2.105001e+00 -5.974465e+00 -3.324216e+00
      vertex   2.095235e+00 -5.978968e+00 -3.337001e+00
    endloop
  endfacet
  facet normal -3.294101e-01 -7.831351e-01 5.274356e-01
    outer loop
      vertex   2.095235e+00 -5.978968e+00 -3.337001e+00
      vertex   2.105001e+00 -5.974465e+00 -3.324216e+00
      vertex   2.055009e+00 -5.962048e+00 -3.337001e+00
    endloop
  endfacet
  facet normal -3.286281e-01 -7.812760e-01 5.306708e-01
    outer loop
      vertex   2.095235e+00 -5.978968e+00 -3.337001e+00
      vertex   2.055009e+00 -5.962048e+00 -3.337001e+00
      vertex   2.045394e+00 -5.966646e+00 -3.349725e+00
    endloop
  endfacet
  facet normal -3.195019e-01 -7.880422e-01 5.262205e-01
    outer loop
      vertex   2.045394e+00 -5.966646e+00 -3.349725e+00
      vertex   2.055009e+00 -5.962048e+00 -3.337001e+00
      vertex   2.004682e+00 -5.950140e+00 -3.349725e+00
    endloop
  endfacet
  facet normal -3.186504e-01 -7.859421e-01 5.298651e-01
    outer loop
      vertex   2.045394e+00 -5.966646e+00 -3.349725e+00
      vertex   2.004682e+00 -5.950140e+00 -3.349725e+00
      vertex   2.000000e+00 -5.966698e+00 -3.377101e+00
    endloop
  endfacet
  facet normal -2.842609e-01 -7.980609e-01 5.313140e-01
    outer loop
      vertex   2.000000e+00 -5.966698e+00 -3.377101e+00
      vertex   2.004682e+00 -5.950140e+00 -3.349725e+00
      vertex   2.000000e+00 -5.933901e+00 -3.327839e+00
    endloop
  endfacet
  facet normal -3.114204e-01 -7.938241e-01 5.223607e-01
    outer loop
      vertex   2.000000e+00 -5.933901e+00 -3.327839e+00
      vertex   2.004682e+00 -5.950140e+00 -3.349725e+00
      vertex   2.014104e+00 -5.945464e+00 -3.337001e+00
    endloop
  endfacet
  facet normal -3.136614e-01 -7.945799e-01 5.198647e-01
    outer loop
      vertex   2.000000e+00 -5.933901e+00 -3.327839e+00
      vertex   2.014104e+00 -5.945464e+00 -3.337001e+00
      vertex   2.023492e+00 -5.940805e+00 -3.324216e+00
    endloop
  endfacet
  facet normal -3.202494e-01 -7.898861e-01 5.229917e-01
    outer loop
      vertex   2.023492e+00 -5.940805e+00 -3.324216e+00
      vertex   2.014104e+00 -5.945464e+00 -3.337001e+00
      vertex   2.064587e+00 -5.957466e+00 -3.324216e+00
    endloop
  endfacet
  facet normal -3.213559e-01 -7.926151e-01 5.181619e-01
    outer loop
      vertex   2.023492e+00 -5.940805e+00 -3.324216e+00
      vertex   2.064587e+00 -5.957466e+00 -3.324216e+00
      vertex   2.083636e+00 -5.948355e+00 -3.298465e+00
    endloop
  endfacet
  facet normal -3.305677e-01 -7.858873e-01 5.225956e-01
    outer loop
      vertex   2.083636e+00 -5.948355e+00 -3.298465e+00
      vertex   2.064587e+00 -5.957466e+00 -3.324216e+00
      vertex   2.124422e+00 -5.965511e+00 -3.298465e+00
    endloop
  endfacet
  facet normal -3.320827e-01 -7.894890e-01 5.161667e-01
    outer loop
      vertex   2.083636e+00 -5.948355e+00 -3.298465e+00
      vertex   2.124422e+00 -5.965511e+00 -3.298465e+00
      vertex   2.143695e+00 -5.956625e+00 -3.272474e+00
    endloop
  endfacet
  facet normal -3.390939e-01 -7.842550e-01 5.195762e-01
    outer loop
      vertex   2.143695e+00 -5.956625e+00 -3.272474e+00
      vertex   2.124422e+00 -5.965511e+00 -3.298465e+00
      vertex   2.164007e+00 -5.965407e+00 -3.272474e+00
    endloop
  endfacet
  facet normal -3.406284e-01 -7.878042e-01 5.131636e-01
    outer loop
      vertex   2.143695e+00 -5.956625e+00 -3.272474e+00
      vertex   2.164007e+00 -5.965407e+00 -3.272474e+00
      vertex   2.183310e+00 -5.956669e+00 -3.246247e+00
    endloop
  endfacet
  facet normal -3.453653e-01 -7.842342e-01 5.154605e-01
    outer loop
      vertex   2.183310e+00 -5.956669e+00 -3.246247e+00
      vertex   2.164007e+00 -5.965407e+00 -3.272474e+00
      vertex   2.203620e+00 -5.965613e+00 -3.246247e+00
    endloop
  endfacet
  facet normal -3.540951e-01 -8.189499e-01 4.515946e-01
    outer loop
      vertex   2.332007e+00 -5.889357e+00 -3.028232e+00
      vertex   2.375375e+00 -5.892541e+00 -3.000000e+00
      vertex   2.310119e+00 -5.879893e+00 -3.028232e+00
    endloop
  endfacet
  facet normal -3.540773e-01 -8.189903e-01 4.515353e-01
    outer loop
      vertex   2.310119e+00 -5.879893e+00 -3.028232e+00
      vertex   2.375375e+00 -5.892541e+00 -3.000000e+00
      vertex   2.301450e+00 -5.860580e+00 -3.000000e+00
    endloop
  endfacet
  facet normal -3.451880e-01 -8.206453e-01 4.553971e-01
    outer loop
      vertex   2.310119e+00 -5.879893e+00 -3.028232e+00
      vertex   2.301450e+00 -5.860580e+00 -3.000000e+00
      vertex   2.265767e+00 -5.861238e+00 -3.028232e+00
    endloop
  endfacet
  facet normal -3.373323e-01 -8.292090e-01 4.456674e-01
    outer loop
      vertex   2.265767e+00 -5.861238e+00 -3.028232e+00
      vertex   2.301450e+00 -5.860580e+00 -3.000000e+00
      vertex   2.227302e+00 -5.830416e+00 -3.000000e+00
    endloop
  endfacet
  facet normal -3.360884e-01 -8.289525e-01 4.470821e-01
    outer loop
      vertex   2.265767e+00 -5.861238e+00 -3.028232e+00
      vertex   2.227302e+00 -5.830416e+00 -3.000000e+00
      vertex   2.220668e+00 -5.842953e+00 -3.028232e+00
    endloop
  endfacet
  facet normal -3.256423e-01 -8.333749e-01 4.465909e-01
    outer loop
      vertex   2.220668e+00 -5.842953e+00 -3.028232e+00
      vertex   2.227302e+00 -5.830416e+00 -3.000000e+00
      vertex   2.174845e+00 -5.825047e+00 -3.028232e+00
    endloop
  endfacet
  facet normal -3.247837e-01 -8.311775e-01 4.512866e-01
    outer loop
      vertex   2.220668e+00 -5.842953e+00 -3.028232e+00
      vertex   2.174845e+00 -5.825047e+00 -3.028232e+00
      vertex   2.158047e+00 -5.833698e+00 -3.056253e+00
    endloop
  endfacet
  facet normal -3.151651e-01 -8.370044e-01 4.473193e-01
    outer loop
      vertex   2.158047e+00 -5.833698e+00 -3.056253e+00
      vertex   2.174845e+00 -5.825047e+00 -3.028232e+00
      vertex   2.111884e+00 -5.816315e+00 -3.056253e+00
    endloop
  endfacet
  facet normal -3.140832e-01 -8.341311e-01 4.534060e-01
    outer loop
      vertex   2.158047e+00 -5.833698e+00 -3.056253e+00
      vertex   2.111884e+00 -5.816315e+00 -3.056253e+00
      vertex   2.095292e+00 -5.825183e+00 -3.084060e+00
    endloop
  endfacet
  facet normal -3.046242e-01 -8.397121e-01 4.495417e-01
    outer loop
      vertex   2.095292e+00 -5.825183e+00 -3.084060e+00
      vertex   2.111884e+00 -5.816315e+00 -3.056253e+00
      vertex   2.048828e+00 -5.808327e+00 -3.084060e+00
    endloop
  endfacet
  facet normal -3.035692e-01 -8.368039e-01 4.556368e-01
    outer loop
      vertex   2.095292e+00 -5.825183e+00 -3.084060e+00
      vertex   2.048828e+00 -5.808327e+00 -3.084060e+00
      vertex   2.032456e+00 -5.817411e+00 -3.111651e+00
    endloop
  endfacet
  facet normal -2.954645e-01 -8.414681e-01 4.523629e-01
    outer loop
      vertex   2.032456e+00 -5.817411e+00 -3.111651e+00
      vertex   2.048828e+00 -5.808327e+00 -3.084060e+00
      vertex   2.000000e+00 -5.807971e+00 -3.115289e+00
    endloop
  endfacet
  facet normal -2.950280e-01 -8.359839e-01 4.626979e-01
    outer loop
      vertex   2.032456e+00 -5.817411e+00 -3.111651e+00
      vertex   2.000000e+00 -5.807971e+00 -3.115289e+00
      vertex   2.000000e+00 -5.838645e+00 -3.170711e+00
    endloop
  endfacet
  facet normal -3.216438e-01 -8.394631e-01 4.380035e-01
    outer loop
      vertex   2.227302e+00 -5.830416e+00 -3.000000e+00
      vertex   2.152312e+00 -5.801683e+00 -3.000000e+00
      vertex   2.174845e+00 -5.825047e+00 -3.028232e+00
    endloop
  endfacet
  facet normal -3.160338e-01 -8.393116e-01 4.423557e-01
    outer loop
      vertex   2.174845e+00 -5.825047e+00 -3.028232e+00
      vertex   2.152312e+00 -5.801683e+00 -3.000000e+00
      vertex   2.128323e+00 -5.807530e+00 -3.028232e+00
    endloop
  endfacet
  facet normal -3.151651e-01 -8.370044e-01 4.473193e-01
    outer loop
      vertex   2.174845e+00 -5.825047e+00 -3.028232e+00
      vertex   2.128323e+00 -5.807530e+00 -3.028232e+00
      vertex   2.111884e+00 -5.816315e+00 -3.056253e+00
    endloop
  endfacet
  facet normal -3.056556e-01 -8.425552e-01 4.434809e-01
    outer loop
      vertex   2.111884e+00 -5.816315e+00 -3.056253e+00
      vertex   2.128323e+00 -5.807530e+00 -3.028232e+00
      vertex   2.065053e+00 -5.799326e+00 -3.056253e+00
    endloop
  endfacet
  facet normal -3.046242e-01 -8.397121e-01 4.495417e-01
    outer loop
      vertex   2.111884e+00 -5.816315e+00 -3.056253e+00
      vertex   2.065053e+00 -5.799326e+00 -3.056253e+00
      vertex   2.048828e+00 -5.808327e+00 -3.084060e+00
    endloop
  endfacet
  facet normal -2.952719e-01 -8.450277e-01 4.458057e-01
    outer loop
      vertex   2.048828e+00 -5.808327e+00 -3.084060e+00
      vertex   2.065053e+00 -5.799326e+00 -3.056253e+00
      vertex   2.001726e+00 -5.791869e+00 -3.084060e+00
    endloop
  endfacet
  facet normal -2.944514e-01 -8.426797e-01 4.507652e-01
    outer loop
      vertex   2.048828e+00 -5.808327e+00 -3.084060e+00
      vertex   2.001726e+00 -5.791869e+00 -3.084060e+00
      vertex   2.000000e+00 -5.807971e+00 -3.115289e+00
    endloop
  endfacet
  facet normal -2.130768e-01 -8.635523e-01 4.570292e-01
    outer loop
      vertex   2.000000e+00 -5.807971e+00 -3.115289e+00
      vertex   2.001726e+00 -5.791869e+00 -3.084060e+00
      vertex   2.000000e+00 -5.777851e+00 -3.058379e+00
    endloop
  endfacet
  facet normal -2.894414e-01 -8.482337e-01 4.435349e-01
    outer loop
      vertex   2.000000e+00 -5.777851e+00 -3.058379e+00
      vertex   2.001726e+00 -5.791869e+00 -3.084060e+00
      vertex   2.017577e+00 -5.782737e+00 -3.056253e+00
    endloop
  endfacet
  facet normal -2.895750e-01 -8.514714e-01 4.371988e-01
    outer loop
      vertex   2.000000e+00 -5.777851e+00 -3.058379e+00
      vertex   2.017577e+00 -5.782737e+00 -3.056253e+00
      vertex   2.033282e+00 -5.773690e+00 -3.028232e+00
    endloop
  endfacet
  facet normal -2.962550e-01 -8.478413e-01 4.397706e-01
    outer loop
      vertex   2.033282e+00 -5.773690e+00 -3.028232e+00
      vertex   2.017577e+00 -5.782737e+00 -3.056253e+00
      vertex   2.081127e+00 -5.790409e+00 -3.028232e+00
    endloop
  endfacet
  facet normal -2.969124e-01 -8.497228e-01 4.356767e-01
    outer loop
      vertex   2.033282e+00 -5.773690e+00 -3.028232e+00
      vertex   2.081127e+00 -5.790409e+00 -3.028232e+00
      vertex   2.076506e+00 -5.774319e+00 -3.000000e+00
    endloop
  endfacet
  facet normal -3.060428e-01 -8.478041e-01 4.330889e-01
    outer loop
      vertex   2.076506e+00 -5.774319e+00 -3.000000e+00
      vertex   2.081127e+00 -5.790409e+00 -3.028232e+00
      vertex   2.152312e+00 -5.801683e+00 -3.000000e+00
    endloop
  endfacet
  facet normal -3.069070e-01 -8.460046e-01 4.359865e-01
    outer loop
      vertex   2.152312e+00 -5.801683e+00 -3.000000e+00
      vertex   2.081127e+00 -5.790409e+00 -3.028232e+00
      vertex   2.128323e+00 -5.807530e+00 -3.028232e+00
    endloop
  endfacet
  facet normal -2.912116e-01 -8.561737e-01 4.268049e-01
    outer loop
      vertex   2.076506e+00 -5.774319e+00 -3.000000e+00
      vertex   2.000000e+00 -5.748297e+00 -3.000000e+00
      vertex   2.033282e+00 -5.773690e+00 -3.028232e+00
    endloop
  endfacet
  facet normal -2.852320e-01 -8.551218e-01 4.329080e-01
    outer loop
      vertex   2.033282e+00 -5.773690e+00 -3.028232e+00
      vertex   2.000000e+00 -5.748297e+00 -3.000000e+00
      vertex   2.000000e+00 -5.777851e+00 -3.058379e+00
    endloop
  endfacet
  facet normal -2.968232e-01 -8.263742e-01 4.785412e-01
    outer loop
      vertex   2.000000e+00 -5.869865e+00 -3.224624e+00
      vertex   2.027423e+00 -5.861455e+00 -3.193091e+00
      vertex   2.000000e+00 -5.838645e+00 -3.170711e+00
    endloop
  endfacet
  facet normal -3.009305e-01 -8.272660e-01 4.744173e-01
    outer loop
      vertex   2.000000e+00 -5.838645e+00 -3.170711e+00
      vertex   2.027423e+00 -5.861455e+00 -3.193091e+00
      vertex   2.044612e+00 -5.852269e+00 -3.166169e+00
    endloop
  endfacet
  facet normal -3.015340e-01 -8.323884e-01 4.649805e-01
    outer loop
      vertex   2.000000e+00 -5.838645e+00 -3.170711e+00
      vertex   2.044612e+00 -5.852269e+00 -3.166169e+00
      vertex   2.032456e+00 -5.817411e+00 -3.111651e+00
    endloop
  endfacet
  facet normal -3.019414e-01 -8.323169e-01 4.648440e-01
    outer loop
      vertex   2.032456e+00 -5.817411e+00 -3.111651e+00
      vertex   2.044612e+00 -5.852269e+00 -3.166169e+00
      vertex   2.078548e+00 -5.834132e+00 -3.111651e+00
    endloop
  endfacet
  facet normal -3.035692e-01 -8.368039e-01 4.556368e-01
    outer loop
      vertex   2.032456e+00 -5.817411e+00 -3.111651e+00
      vertex   2.078548e+00 -5.834132e+00 -3.111651e+00
      vertex   2.095292e+00 -5.825183e+00 -3.084060e+00
    endloop
  endfacet
  facet normal -3.129768e-01 -8.311927e-01 4.595261e-01
    outer loop
      vertex   2.095292e+00 -5.825183e+00 -3.084060e+00
      vertex   2.078548e+00 -5.834132e+00 -3.111651e+00
      vertex   2.141092e+00 -5.842429e+00 -3.084060e+00
    endloop
  endfacet
  facet normal -3.140832e-01 -8.341311e-01 4.534060e-01
    outer loop
      vertex   2.095292e+00 -5.825183e+00 -3.084060e+00
      vertex   2.141092e+00 -5.842429e+00 -3.084060e+00
      vertex   2.158047e+00 -5.833698e+00 -3.056253e+00
    endloop
  endfacet
  facet normal -3.236490e-01 -8.282736e-01 4.573993e-01
    outer loop
      vertex   2.158047e+00 -5.833698e+00 -3.056253e+00
      vertex   2.141092e+00 -5.842429e+00 -3.084060e+00
      vertex   2.203516e+00 -5.851465e+00 -3.056253e+00
    endloop
  endfacet
  facet normal -3.247837e-01 -8.311775e-01 4.512866e-01
    outer loop
      vertex   2.158047e+00 -5.833698e+00 -3.056253e+00
      vertex   2.203516e+00 -5.851465e+00 -3.056253e+00
      vertex   2.220668e+00 -5.842953e+00 -3.028232e+00
    endloop
  endfacet
  facet normal -3.345113e-01 -8.250625e-01 4.553834e-01
    outer loop
      vertex   2.220668e+00 -5.842953e+00 -3.028232e+00
      vertex   2.203516e+00 -5.851465e+00 -3.056253e+00
      vertex   2.265767e+00 -5.861238e+00 -3.028232e+00
    endloop
  endfacet
  facet normal -3.037830e-01 -8.147258e-01 4.939005e-01
    outer loop
      vertex   2.000000e+00 -5.869865e+00 -3.224624e+00
      vertex   2.000000e+00 -5.901621e+00 -3.277006e+00
      vertex   2.036169e+00 -5.896460e+00 -3.246247e+00
    endloop
  endfacet
  facet normal -3.076172e-01 -8.109228e-01 4.977709e-01
    outer loop
      vertex   2.036169e+00 -5.896460e+00 -3.246247e+00
      vertex   2.000000e+00 -5.901621e+00 -3.277006e+00
      vertex   2.018166e+00 -5.905730e+00 -3.272474e+00
    endloop
  endfacet
  facet normal -3.149631e-01 -8.060449e-01 5.010888e-01
    outer loop
      vertex   2.036169e+00 -5.896460e+00 -3.246247e+00
      vertex   2.018166e+00 -5.905730e+00 -3.272474e+00
      vertex   2.079070e+00 -5.913223e+00 -3.246247e+00
    endloop
  endfacet
  facet normal -3.149631e-01 -8.060449e-01 5.010888e-01
    outer loop
      vertex   2.079070e+00 -5.913223e+00 -3.246247e+00
      vertex   2.018166e+00 -5.905730e+00 -3.272474e+00
      vertex   2.060688e+00 -5.922345e+00 -3.272474e+00
    endloop
  endfacet
  facet normal -3.242205e-01 -7.996806e-01 5.053633e-01
    outer loop
      vertex   2.079070e+00 -5.913223e+00 -3.246247e+00
      vertex   2.060688e+00 -5.922345e+00 -3.272474e+00
      vertex   2.121293e+00 -5.930342e+00 -3.246247e+00
    endloop
  endfacet
  facet normal -3.242205e-01 -7.996806e-01 5.053633e-01
    outer loop
      vertex   2.121293e+00 -5.930342e+00 -3.246247e+00
      vertex   2.060688e+00 -5.922345e+00 -3.272474e+00
      vertex   2.102538e+00 -5.939313e+00 -3.272474e+00
    endloop
  endfacet
  facet normal -3.335658e-01 -7.930148e-01 5.097659e-01
    outer loop
      vertex   2.121293e+00 -5.930342e+00 -3.246247e+00
      vertex   2.102538e+00 -5.939313e+00 -3.272474e+00
      vertex   2.162817e+00 -5.947808e+00 -3.246247e+00
    endloop
  endfacet
  facet normal -3.335658e-01 -7.930148e-01 5.097659e-01
    outer loop
      vertex   2.162817e+00 -5.947808e+00 -3.246247e+00
      vertex   2.102538e+00 -5.939313e+00 -3.272474e+00
      vertex   2.143695e+00 -5.956625e+00 -3.272474e+00
    endloop
  endfacet
  facet normal -3.406284e-01 -7.878042e-01 5.131636e-01
    outer loop
      vertex   2.162817e+00 -5.947808e+00 -3.246247e+00
      vertex   2.143695e+00 -5.956625e+00 -3.272474e+00
      vertex   2.183310e+00 -5.956669e+00 -3.246247e+00
    endloop
  endfacet
  facet normal -3.089512e-01 -8.020153e-01 5.111953e-01
    outer loop
      vertex   2.018166e+00 -5.905730e+00 -3.272474e+00
      vertex   2.000000e+00 -5.901621e+00 -3.277006e+00
      vertex   2.042162e+00 -5.931540e+00 -3.298465e+00
    endloop
  endfacet
  facet normal -3.101151e-01 -8.025483e-01 5.096517e-01
    outer loop
      vertex   2.042162e+00 -5.931540e+00 -3.298465e+00
      vertex   2.000000e+00 -5.901621e+00 -3.277006e+00
      vertex   2.000000e+00 -5.933901e+00 -3.327839e+00
    endloop
  endfacet
  facet normal -3.138339e-01 -7.979206e-01 5.146173e-01
    outer loop
      vertex   2.042162e+00 -5.931540e+00 -3.298465e+00
      vertex   2.000000e+00 -5.933901e+00 -3.327839e+00
      vertex   2.023492e+00 -5.940805e+00 -3.324216e+00
    endloop
  endfacet
  facet normal -2.981751e-01 -7.824854e-01 5.466336e-01
    outer loop
      vertex   2.000000e+00 -6.000000e+00 -3.424772e+00
      vertex   2.006587e+00 -5.985209e+00 -3.400005e+00
      vertex   2.000000e+00 -5.966698e+00 -3.377101e+00
    endloop
  endfacet
  facet normal -3.168210e-01 -7.801729e-01 5.394022e-01
    outer loop
      vertex   2.000000e+00 -5.966698e+00 -3.377101e+00
      vertex   2.006587e+00 -5.985209e+00 -3.400005e+00
      vertex   2.016341e+00 -5.980543e+00 -3.387528e+00
    endloop
  endfacet
  facet normal -3.191026e-01 -7.809747e-01 5.368911e-01
    outer loop
      vertex   2.000000e+00 -5.966698e+00 -3.377101e+00
      vertex   2.016341e+00 -5.980543e+00 -3.387528e+00
      vertex   2.026060e+00 -5.975894e+00 -3.374989e+00
    endloop
  endfacet
  facet normal -3.262318e-01 -7.755790e-01 5.404166e-01
    outer loop
      vertex   2.026060e+00 -5.975894e+00 -3.374989e+00
      vertex   2.016341e+00 -5.980543e+00 -3.387528e+00
      vertex   2.065720e+00 -5.992576e+00 -3.374989e+00
    endloop
  endfacet
  facet normal -3.270390e-01 -7.774981e-01 5.371613e-01
    outer loop
      vertex   2.026060e+00 -5.975894e+00 -3.374989e+00
      vertex   2.065720e+00 -5.992576e+00 -3.374989e+00
      vertex   2.075594e+00 -5.988024e+00 -3.362388e+00
    endloop
  endfacet
  facet normal -3.338769e-01 -7.721893e-01 5.406014e-01
    outer loop
      vertex   2.075594e+00 -5.988024e+00 -3.362388e+00
      vertex   2.065720e+00 -5.992576e+00 -3.374989e+00
      vertex   2.095261e+00 -5.996527e+00 -3.362388e+00
    endloop
  endfacet
  facet normal -3.347029e-01 -7.740996e-01 5.373489e-01
    outer loop
      vertex   2.075594e+00 -5.988024e+00 -3.362388e+00
      vertex   2.095261e+00 -5.996527e+00 -3.362388e+00
      vertex   2.105192e+00 -5.992031e+00 -3.349725e+00
    endloop
  endfacet
  facet normal -3.414970e-01 -7.687303e-01 5.407713e-01
    outer loop
      vertex   2.105192e+00 -5.992031e+00 -3.349725e+00
      vertex   2.095261e+00 -5.996527e+00 -3.362388e+00
      vertex   2.134763e+00 -5.996217e+00 -3.337001e+00
    endloop
  endfacet
  facet normal -3.401407e-01 -7.723704e-01 5.364218e-01
    outer loop
      vertex   2.105192e+00 -5.992031e+00 -3.349725e+00
      vertex   2.134763e+00 -5.996217e+00 -3.337001e+00
      vertex   2.115087e+00 -5.987552e+00 -3.337001e+00
    endloop
  endfacet
  facet normal -3.409678e-01 -7.742486e-01 5.331792e-01
    outer loop
      vertex   2.115087e+00 -5.987552e+00 -3.337001e+00
      vertex   2.134763e+00 -5.996217e+00 -3.337001e+00
      vertex   2.144713e+00 -5.991794e+00 -3.324216e+00
    endloop
  endfacet
  facet normal -3.409678e-01 -7.742486e-01 5.331792e-01
    outer loop
      vertex   2.115087e+00 -5.987552e+00 -3.337001e+00
      vertex   2.144713e+00 -5.991794e+00 -3.324216e+00
      vertex   2.124946e+00 -5.983089e+00 -3.324216e+00
    endloop
  endfacet
  facet normal -3.421924e-01 -7.770294e-01 5.283273e-01
    outer loop
      vertex   2.124946e+00 -5.983089e+00 -3.324216e+00
      vertex   2.144713e+00 -5.991794e+00 -3.324216e+00
      vertex   2.164501e+00 -5.983000e+00 -3.298465e+00
    endloop
  endfacet
  facet normal -3.256742e-01 -7.710865e-01 5.471397e-01
    outer loop
      vertex   2.006587e+00 -5.985209e+00 -3.400005e+00
      vertex   2.000000e+00 -6.000000e+00 -3.424772e+00
      vertex   2.055811e+00 -5.997145e+00 -3.387528e+00
    endloop
  endfacet
  facet normal -3.396301e-01 -7.508195e-01 5.664993e-01
    outer loop
      vertex   2.055811e+00 -5.997145e+00 -3.387528e+00
      vertex   2.000000e+00 -6.000000e+00 -3.424772e+00
      vertex   2.078317e+00 -6.000000e+00 -3.377818e+00
    endloop
  endfacet
  facet normal -3.322344e-01 -7.708946e-01 5.434535e-01
    outer loop
      vertex   2.055811e+00 -5.997145e+00 -3.387528e+00
      vertex   2.078317e+00 -6.000000e+00 -3.377818e+00
      vertex   2.065720e+00 -5.992576e+00 -3.374989e+00
    endloop
  endfacet
  facet normal -3.338041e-01 -7.723828e-01 5.403700e-01
    outer loop
      vertex   2.065720e+00 -5.992576e+00 -3.374989e+00
      vertex   2.078317e+00 -6.000000e+00 -3.377818e+00
      vertex   2.095261e+00 -5.996527e+00 -3.362388e+00
    endloop
  endfacet
  facet normal -3.497821e-01 -7.554032e-01 5.540925e-01
    outer loop
      vertex   2.078317e+00 -6.000000e+00 -3.377818e+00
      vertex   2.155542e+00 -6.000000e+00 -3.329069e+00
      vertex   2.095261e+00 -5.996527e+00 -3.362388e+00
    endloop
  endfacet
  facet normal -3.485430e-01 -7.577954e-01 5.516013e-01
    outer loop
      vertex   2.095261e+00 -5.996527e+00 -3.362388e+00
      vertex   2.155542e+00 -6.000000e+00 -3.329069e+00
      vertex   2.134763e+00 -5.996217e+00 -3.337001e+00
    endloop
  endfacet
  facet normal -3.526820e-01 -7.703653e-01 5.311806e-01
    outer loop
      vertex   2.231641e+00 -6.000000e+00 -3.278542e+00
      vertex   2.164501e+00 -5.983000e+00 -3.298465e+00
      vertex   2.155542e+00 -6.000000e+00 -3.329069e+00
    endloop
  endfacet
  facet normal -3.476028e-01 -7.727731e-01 5.310312e-01
    outer loop
      vertex   2.155542e+00 -6.000000e+00 -3.329069e+00
      vertex   2.164501e+00 -5.983000e+00 -3.298465e+00
      vertex   2.144713e+00 -5.991794e+00 -3.324216e+00
    endloop
  endfacet
  facet normal -3.446860e-01 -7.713032e-01 5.350542e-01
    outer loop
      vertex   2.155542e+00 -6.000000e+00 -3.329069e+00
      vertex   2.144713e+00 -5.991794e+00 -3.324216e+00
      vertex   2.134763e+00 -5.996217e+00 -3.337001e+00
    endloop
  endfacet
  facet normal -3.699541e-01 -7.762353e-01 5.104828e-01
    outer loop
      vertex   2.277200e+00 -5.981739e+00 -3.219785e+00
      vertex   2.306585e+00 -6.000000e+00 -3.226256e+00
      vertex   2.350139e+00 -5.998948e+00 -3.193091e+00
    endloop
  endfacet
  facet normal -4.248927e-01 -6.949847e-01 5.800539e-01
    outer loop
      vertex   2.350139e+00 -5.998948e+00 -3.193091e+00
      vertex   2.306585e+00 -6.000000e+00 -3.226256e+00
      vertex   2.380341e+00 -6.000000e+00 -3.172229e+00
    endloop
  endfacet
  facet normal -3.797259e-01 -7.712806e-01 5.108175e-01
    outer loop
      vertex   2.350139e+00 -5.998948e+00 -3.193091e+00
      vertex   2.380341e+00 -6.000000e+00 -3.172229e+00
      vertex   2.370064e+00 -5.990927e+00 -3.166169e+00
    endloop
  endfacet
  facet normal -3.863395e-01 -7.733380e-01 5.026829e-01
    outer loop
      vertex   2.370064e+00 -5.990927e+00 -3.166169e+00
      vertex   2.380341e+00 -6.000000e+00 -3.172229e+00
      vertex   2.452878e+00 -6.000000e+00 -3.116481e+00
    endloop
  endfacet
  facet normal -3.867347e-01 -7.726273e-01 5.034713e-01
    outer loop
      vertex   2.370064e+00 -5.990927e+00 -3.166169e+00
      vertex   2.452878e+00 -6.000000e+00 -3.116481e+00
      vertex   2.409402e+00 -5.975091e+00 -3.111651e+00
    endloop
  endfacet
  facet normal -3.903882e-01 -7.771031e-01 4.936678e-01
    outer loop
      vertex   2.409402e+00 -5.975091e+00 -3.111651e+00
      vertex   2.452878e+00 -6.000000e+00 -3.116481e+00
      vertex   2.482383e+00 -5.994227e+00 -3.084060e+00
    endloop
  endfacet
  facet normal -3.905656e-01 -7.764089e-01 4.946187e-01
    outer loop
      vertex   2.409402e+00 -5.975091e+00 -3.111651e+00
      vertex   2.482383e+00 -5.994227e+00 -3.084060e+00
      vertex   2.428812e+00 -5.967278e+00 -3.084060e+00
    endloop
  endfacet
  facet normal -3.921667e-01 -7.795916e-01 4.883055e-01
    outer loop
      vertex   2.428812e+00 -5.967278e+00 -3.084060e+00
      vertex   2.482383e+00 -5.994227e+00 -3.084060e+00
      vertex   2.502041e+00 -5.986698e+00 -3.056253e+00
    endloop
  endfacet
  facet normal -3.921667e-01 -7.795916e-01 4.883055e-01
    outer loop
      vertex   2.428812e+00 -5.967278e+00 -3.084060e+00
      vertex   2.502041e+00 -5.986698e+00 -3.056253e+00
      vertex   2.448045e+00 -5.959536e+00 -3.056253e+00
    endloop
  endfacet
  facet normal -3.937348e-01 -7.827089e-01 4.820163e-01
    outer loop
      vertex   2.448045e+00 -5.959536e+00 -3.056253e+00
      vertex   2.502041e+00 -5.986698e+00 -3.056253e+00
      vertex   2.521516e+00 -5.979239e+00 -3.028232e+00
    endloop
  endfacet
  facet normal -3.937348e-01 -7.827089e-01 4.820163e-01
    outer loop
      vertex   2.448045e+00 -5.959536e+00 -3.056253e+00
      vertex   2.521516e+00 -5.979239e+00 -3.028232e+00
      vertex   2.467100e+00 -5.951865e+00 -3.028232e+00
    endloop
  endfacet
  facet normal -4.086278e-01 -7.589111e-01 5.070278e-01
    outer loop
      vertex   2.452878e+00 -6.000000e+00 -3.116481e+00
      vertex   2.524147e+00 -6.000000e+00 -3.059043e+00
      vertex   2.482383e+00 -5.994227e+00 -3.084060e+00
    endloop
  endfacet
  facet normal -4.020196e-01 -7.715222e-01 4.930859e-01
    outer loop
      vertex   2.482383e+00 -5.994227e+00 -3.084060e+00
      vertex   2.524147e+00 -6.000000e+00 -3.059043e+00
      vertex   2.502041e+00 -5.986698e+00 -3.056253e+00
    endloop
  endfacet
  facet normal -4.043348e-01 -7.741133e-01 4.870955e-01
    outer loop
      vertex   2.502041e+00 -5.986698e+00 -3.056253e+00
      vertex   2.524147e+00 -6.000000e+00 -3.059043e+00
      vertex   2.521516e+00 -5.979239e+00 -3.028232e+00
    endloop
  endfacet
  facet normal -3.798253e-01 -7.934888e-01 4.755084e-01
    outer loop
      vertex   2.448045e+00 -5.959536e+00 -3.056253e+00
      vertex   2.467100e+00 -5.951865e+00 -3.028232e+00
      vertex   2.392522e+00 -5.932958e+00 -3.056253e+00
    endloop
  endfacet
  facet normal -3.798253e-01 -7.934888e-01 4.755084e-01
    outer loop
      vertex   2.392522e+00 -5.932958e+00 -3.056253e+00
      vertex   2.467100e+00 -5.951865e+00 -3.028232e+00
      vertex   2.411145e+00 -5.925081e+00 -3.028232e+00
    endloop
  endfacet
  facet normal -3.660989e-01 -8.036126e-01 4.692318e-01
    outer loop
      vertex   2.392522e+00 -5.932958e+00 -3.056253e+00
      vertex   2.411145e+00 -5.925081e+00 -3.028232e+00
      vertex   2.335521e+00 -5.906991e+00 -3.056253e+00
    endloop
  endfacet
  facet normal -3.660989e-01 -8.036126e-01 4.692318e-01
    outer loop
      vertex   2.335521e+00 -5.906991e+00 -3.056253e+00
      vertex   2.411145e+00 -5.925081e+00 -3.028232e+00
      vertex   2.353701e+00 -5.898911e+00 -3.028232e+00
    endloop
  endfacet
  facet normal -3.567918e-01 -8.101809e-01 4.650876e-01
    outer loop
      vertex   2.335521e+00 -5.906991e+00 -3.056253e+00
      vertex   2.353701e+00 -5.898911e+00 -3.028232e+00
      vertex   2.313996e+00 -5.897511e+00 -3.056253e+00
    endloop
  endfacet
  facet normal -3.783529e-01 -7.904129e-01 4.817641e-01
    outer loop
      vertex   2.428812e+00 -5.967278e+00 -3.084060e+00
      vertex   2.448045e+00 -5.959536e+00 -3.056253e+00
      vertex   2.373725e+00 -5.940909e+00 -3.084060e+00
    endloop
  endfacet
  facet normal -3.783529e-01 -7.904129e-01 4.817641e-01
    outer loop
      vertex   2.373725e+00 -5.940909e+00 -3.084060e+00
      vertex   2.448045e+00 -5.959536e+00 -3.056253e+00
      vertex   2.392522e+00 -5.932958e+00 -3.056253e+00
    endloop
  endfacet
  facet normal -3.647167e-01 -8.005786e-01 4.754532e-01
    outer loop
      vertex   2.373725e+00 -5.940909e+00 -3.084060e+00
      vertex   2.392522e+00 -5.932958e+00 -3.056253e+00
      vertex   2.317172e+00 -5.915146e+00 -3.084060e+00
    endloop
  endfacet
  facet normal -3.647167e-01 -8.005786e-01 4.754532e-01
    outer loop
      vertex   2.317172e+00 -5.915146e+00 -3.084060e+00
      vertex   2.392522e+00 -5.932958e+00 -3.056253e+00
      vertex   2.335521e+00 -5.906991e+00 -3.056253e+00
    endloop
  endfacet
  facet normal -3.554684e-01 -8.071756e-01 4.712852e-01
    outer loop
      vertex   2.317172e+00 -5.915146e+00 -3.084060e+00
      vertex   2.335521e+00 -5.906991e+00 -3.056253e+00
      vertex   2.295816e+00 -5.905741e+00 -3.084060e+00
    endloop
  endfacet
  facet normal -3.554684e-01 -8.071756e-01 4.712852e-01
    outer loop
      vertex   2.295816e+00 -5.905741e+00 -3.084060e+00
      vertex   2.335521e+00 -5.906991e+00 -3.056253e+00
      vertex   2.313996e+00 -5.897511e+00 -3.056253e+00
    endloop
  endfacet
  facet normal -3.505004e-01 -8.106361e-01 4.690614e-01
    outer loop
      vertex   2.295816e+00 -5.905741e+00 -3.084060e+00
      vertex   2.313996e+00 -5.897511e+00 -3.056253e+00
      vertex   2.274267e+00 -5.896423e+00 -3.084060e+00
    endloop
  endfacet
  facet normal -3.768491e-01 -7.872714e-01 4.880456e-01
    outer loop
      vertex   2.409402e+00 -5.975091e+00 -3.111651e+00
      vertex   2.428812e+00 -5.967278e+00 -3.084060e+00
      vertex   2.354756e+00 -5.948933e+00 -3.111651e+00
    endloop
  endfacet
  facet normal -3.768491e-01 -7.872714e-01 4.880456e-01
    outer loop
      vertex   2.354756e+00 -5.948933e+00 -3.111651e+00
      vertex   2.428812e+00 -5.967278e+00 -3.084060e+00
      vertex   2.373725e+00 -5.940909e+00 -3.084060e+00
    endloop
  endfacet
  facet normal -3.633046e-01 -7.974790e-01 4.817021e-01
    outer loop
      vertex   2.354756e+00 -5.948933e+00 -3.111651e+00
      vertex   2.373725e+00 -5.940909e+00 -3.084060e+00
      vertex   2.298655e+00 -5.923375e+00 -3.111651e+00
    endloop
  endfacet
  facet normal -3.633046e-01 -7.974790e-01 4.817021e-01
    outer loop
      vertex   2.298655e+00 -5.923375e+00 -3.111651e+00
      vertex   2.373725e+00 -5.940909e+00 -3.084060e+00
      vertex   2.317172e+00 -5.915146e+00 -3.084060e+00
    endloop
  endfacet
  facet normal -3.541160e-01 -8.041048e-01 4.775116e-01
    outer loop
      vertex   2.298655e+00 -5.923375e+00 -3.111651e+00
      vertex   2.317172e+00 -5.915146e+00 -3.084060e+00
      vertex   2.277469e+00 -5.914046e+00 -3.111651e+00
    endloop
  endfacet
  facet normal -3.541160e-01 -8.041048e-01 4.775116e-01
    outer loop
      vertex   2.277469e+00 -5.914046e+00 -3.111651e+00
      vertex   2.317172e+00 -5.915146e+00 -3.084060e+00
      vertex   2.295816e+00 -5.905741e+00 -3.084060e+00
    endloop
  endfacet
  facet normal -3.491794e-01 -8.075809e-01 4.752754e-01
    outer loop
      vertex   2.277469e+00 -5.914046e+00 -3.111651e+00
      vertex   2.295816e+00 -5.905741e+00 -3.084060e+00
      vertex   2.256093e+00 -5.904803e+00 -3.111651e+00
    endloop
  endfacet
  facet normal -3.491794e-01 -8.075809e-01 4.752754e-01
    outer loop
      vertex   2.256093e+00 -5.904803e+00 -3.111651e+00
      vertex   2.295816e+00 -5.905741e+00 -3.084060e+00
      vertex   2.274267e+00 -5.896423e+00 -3.084060e+00
    endloop
  endfacet
  facet normal -3.418249e-01 -8.126498e-01 4.719703e-01
    outer loop
      vertex   2.256093e+00 -5.904803e+00 -3.111651e+00
      vertex   2.274267e+00 -5.896423e+00 -3.084060e+00
      vertex   2.212778e+00 -5.886583e+00 -3.111651e+00
    endloop
  endfacet
  facet normal -3.745335e-01 -7.824338e-01 4.975158e-01
    outer loop
      vertex   2.370064e+00 -5.990927e+00 -3.166169e+00
      vertex   2.409402e+00 -5.975091e+00 -3.111651e+00
      vertex   2.316310e+00 -5.965196e+00 -3.166169e+00
    endloop
  endfacet
  facet normal -3.745335e-01 -7.824338e-01 4.975158e-01
    outer loop
      vertex   2.316310e+00 -5.965196e+00 -3.166169e+00
      vertex   2.409402e+00 -5.975091e+00 -3.111651e+00
      vertex   2.354756e+00 -5.948933e+00 -3.111651e+00
    endloop
  endfacet
  facet normal -3.611294e-01 -7.927042e-01 4.911270e-01
    outer loop
      vertex   2.316310e+00 -5.965196e+00 -3.166169e+00
      vertex   2.354756e+00 -5.948933e+00 -3.111651e+00
      vertex   2.261125e+00 -5.940056e+00 -3.166169e+00
    endloop
  endfacet
  facet normal -3.611294e-01 -7.927042e-01 4.911270e-01
    outer loop
      vertex   2.261125e+00 -5.940056e+00 -3.166169e+00
      vertex   2.354756e+00 -5.948933e+00 -3.111651e+00
      vertex   2.298655e+00 -5.923375e+00 -3.111651e+00
    endloop
  endfacet
  facet normal -3.520322e-01 -7.993729e-01 4.869049e-01
    outer loop
      vertex   2.261125e+00 -5.940056e+00 -3.166169e+00
      vertex   2.298655e+00 -5.923375e+00 -3.111651e+00
      vertex   2.240285e+00 -5.930878e+00 -3.166169e+00
    endloop
  endfacet
  facet normal -3.520322e-01 -7.993729e-01 4.869049e-01
    outer loop
      vertex   2.240285e+00 -5.930878e+00 -3.166169e+00
      vertex   2.298655e+00 -5.923375e+00 -3.111651e+00
      vertex   2.277469e+00 -5.914046e+00 -3.111651e+00
    endloop
  endfacet
  facet normal -3.471437e-01 -8.028726e-01 4.846512e-01
    outer loop
      vertex   2.240285e+00 -5.930878e+00 -3.166169e+00
      vertex   2.277469e+00 -5.914046e+00 -3.111651e+00
      vertex   2.219257e+00 -5.921786e+00 -3.166169e+00
    endloop
  endfacet
  facet normal -3.471437e-01 -8.028726e-01 4.846512e-01
    outer loop
      vertex   2.219257e+00 -5.921786e+00 -3.166169e+00
      vertex   2.277469e+00 -5.914046e+00 -3.111651e+00
      vertex   2.256093e+00 -5.904803e+00 -3.111651e+00
    endloop
  endfacet
  facet normal -3.398594e-01 -8.079771e-01 4.813197e-01
    outer loop
      vertex   2.219257e+00 -5.921786e+00 -3.166169e+00
      vertex   2.256093e+00 -5.904803e+00 -3.111651e+00
      vertex   2.176650e+00 -5.903864e+00 -3.166169e+00
    endloop
  endfacet
  facet normal -3.398594e-01 -8.079771e-01 4.813197e-01
    outer loop
      vertex   2.176650e+00 -5.903864e+00 -3.166169e+00
      vertex   2.256093e+00 -5.904803e+00 -3.111651e+00
      vertex   2.212778e+00 -5.886583e+00 -3.111651e+00
    endloop
  endfacet
  facet normal -3.302296e-01 -8.145018e-01 4.770065e-01
    outer loop
      vertex   2.176650e+00 -5.903864e+00 -3.166169e+00
      vertex   2.212778e+00 -5.886583e+00 -3.111651e+00
      vertex   2.133325e+00 -5.886298e+00 -3.166169e+00
    endloop
  endfacet
  facet normal -3.721443e-01 -7.774425e-01 5.070422e-01
    outer loop
      vertex   2.350139e+00 -5.998948e+00 -3.193091e+00
      vertex   2.370064e+00 -5.990927e+00 -3.166169e+00
      vertex   2.296837e+00 -5.973433e+00 -3.193091e+00
    endloop
  endfacet
  facet normal -3.721443e-01 -7.774425e-01 5.070422e-01
    outer loop
      vertex   2.296837e+00 -5.973433e+00 -3.193091e+00
      vertex   2.370064e+00 -5.990927e+00 -3.166169e+00
      vertex   2.316310e+00 -5.965196e+00 -3.166169e+00
    endloop
  endfacet
  facet normal -3.588839e-01 -7.877752e-01 5.006122e-01
    outer loop
      vertex   2.296837e+00 -5.973433e+00 -3.193091e+00
      vertex   2.316310e+00 -5.965196e+00 -3.166169e+00
      vertex   2.242116e+00 -5.948504e+00 -3.193091e+00
    endloop
  endfacet
  facet normal -3.588839e-01 -7.877752e-01 5.006122e-01
    outer loop
      vertex   2.242116e+00 -5.948504e+00 -3.193091e+00
      vertex   2.316310e+00 -5.965196e+00 -3.166169e+00
      vertex   2.261125e+00 -5.940056e+00 -3.166169e+00
    endloop
  endfacet
  facet normal -3.498804e-01 -7.944868e-01 4.963612e-01
    outer loop
      vertex   2.242116e+00 -5.948504e+00 -3.193091e+00
      vertex   2.261125e+00 -5.940056e+00 -3.166169e+00
      vertex   2.221451e+00 -5.939404e+00 -3.193091e+00
    endloop
  endfacet
  facet normal -3.498804e-01 -7.944868e-01 4.963612e-01
    outer loop
      vertex   2.221451e+00 -5.939404e+00 -3.193091e+00
      vertex   2.261125e+00 -5.940056e+00 -3.166169e+00
      vertex   2.240285e+00 -5.930878e+00 -3.166169e+00
    endloop
  endfacet
  facet normal -3.450412e-01 -7.980100e-01 4.940916e-01
    outer loop
      vertex   2.221451e+00 -5.939404e+00 -3.193091e+00
      vertex   2.240285e+00 -5.930878e+00 -3.166169e+00
      vertex   2.200600e+00 -5.930388e+00 -3.193091e+00
    endloop
  endfacet
  facet normal -3.450412e-01 -7.980100e-01 4.940916e-01
    outer loop
      vertex   2.200600e+00 -5.930388e+00 -3.193091e+00
      vertex   2.240285e+00 -5.930878e+00 -3.166169e+00
      vertex   2.219257e+00 -5.921786e+00 -3.166169e+00
    endloop
  endfacet
  facet normal -3.378289e-01 -8.031500e-01 4.907358e-01
    outer loop
      vertex   2.200600e+00 -5.930388e+00 -3.193091e+00
      vertex   2.219257e+00 -5.921786e+00 -3.166169e+00
      vertex   2.158351e+00 -5.912617e+00 -3.193091e+00
    endloop
  endfacet
  facet normal -3.378289e-01 -8.031500e-01 4.907358e-01
    outer loop
      vertex   2.158351e+00 -5.912617e+00 -3.193091e+00
      vertex   2.219257e+00 -5.921786e+00 -3.166169e+00
      vertex   2.176650e+00 -5.903864e+00 -3.166169e+00
    endloop
  endfacet
  facet normal -3.282916e-01 -8.097218e-01 4.863899e-01
    outer loop
      vertex   2.158351e+00 -5.912617e+00 -3.193091e+00
      vertex   2.176650e+00 -5.903864e+00 -3.166169e+00
      vertex   2.115390e+00 -5.895199e+00 -3.193091e+00
    endloop
  endfacet
  facet normal -3.282916e-01 -8.097218e-01 4.863899e-01
    outer loop
      vertex   2.115390e+00 -5.895199e+00 -3.193091e+00
      vertex   2.176650e+00 -5.903864e+00 -3.166169e+00
      vertex   2.133325e+00 -5.886298e+00 -3.166169e+00
    endloop
  endfacet
  facet normal -3.188501e-01 -8.159924e-01 4.821733e-01
    outer loop
      vertex   2.115390e+00 -5.895199e+00 -3.193091e+00
      vertex   2.133325e+00 -5.886298e+00 -3.166169e+00
      vertex   2.071739e+00 -5.878142e+00 -3.193091e+00
    endloop
  endfacet
  facet normal -3.573469e-01 -7.844015e-01 5.069690e-01
    outer loop
      vertex   2.222947e+00 -5.957024e+00 -3.219785e+00
      vertex   2.277200e+00 -5.981739e+00 -3.219785e+00
      vertex   2.296837e+00 -5.973433e+00 -3.193091e+00
    endloop
  endfacet
  facet normal -3.705096e-01 -7.740275e-01 5.134238e-01
    outer loop
      vertex   2.296837e+00 -5.973433e+00 -3.193091e+00
      vertex   2.277200e+00 -5.981739e+00 -3.219785e+00
      vertex   2.350139e+00 -5.998948e+00 -3.193091e+00
    endloop
  endfacet
  facet normal -3.573469e-01 -7.844015e-01 5.069690e-01
    outer loop
      vertex   2.222947e+00 -5.957024e+00 -3.219785e+00
      vertex   2.296837e+00 -5.973433e+00 -3.193091e+00
      vertex   2.242116e+00 -5.948504e+00 -3.193091e+00
    endloop
  endfacet
  facet normal -3.541745e-01 -7.774378e-01 5.197604e-01
    outer loop
      vertex   2.184137e+00 -5.974272e+00 -3.272474e+00
      vertex   2.237443e+00 -5.998557e+00 -3.272474e+00
      vertex   2.257401e+00 -5.990114e+00 -3.246247e+00
    endloop
  endfacet
  facet normal -3.541745e-01 -7.774378e-01 5.197604e-01
    outer loop
      vertex   2.184137e+00 -5.974272e+00 -3.272474e+00
      vertex   2.257401e+00 -5.990114e+00 -3.246247e+00
      vertex   2.203620e+00 -5.965613e+00 -3.246247e+00
    endloop
  endfacet
  facet normal -3.484072e-01 -7.911415e-01 5.027003e-01
    outer loop
      vertex   2.202459e+00 -5.948001e+00 -3.219785e+00
      vertex   2.222947e+00 -5.957024e+00 -3.219785e+00
      vertex   2.242116e+00 -5.948504e+00 -3.193091e+00
    endloop
  endfacet
  facet normal -3.484072e-01 -7.911415e-01 5.027003e-01
    outer loop
      vertex   2.202459e+00 -5.948001e+00 -3.219785e+00
      vertex   2.242116e+00 -5.948504e+00 -3.193091e+00
      vertex   2.221451e+00 -5.939404e+00 -3.193091e+00
    endloop
  endfacet
  facet normal -3.437955e-01 -7.806697e-01 5.218808e-01
    outer loop
      vertex   2.144551e+00 -5.974214e+00 -3.298465e+00
      vertex   2.184137e+00 -5.974272e+00 -3.272474e+00
      vertex   2.164007e+00 -5.965407e+00 -3.272474e+00
    endloop
  endfacet
  facet normal -3.453653e-01 -7.842342e-01 5.154605e-01
    outer loop
      vertex   2.164007e+00 -5.965407e+00 -3.272474e+00
      vertex   2.184137e+00 -5.974272e+00 -3.272474e+00
      vertex   2.203620e+00 -5.965613e+00 -3.246247e+00
    endloop
  endfacet
  facet normal -3.443476e-01 -8.186473e-01 4.596100e-01
    outer loop
      vertex   2.265767e+00 -5.861238e+00 -3.028232e+00
      vertex   2.248267e+00 -5.869608e+00 -3.056253e+00
      vertex   2.310119e+00 -5.879893e+00 -3.028232e+00
    endloop
  endfacet
  facet normal -3.443476e-01 -8.186473e-01 4.596100e-01
    outer loop
      vertex   2.310119e+00 -5.879893e+00 -3.028232e+00
      vertex   2.248267e+00 -5.869608e+00 -3.056253e+00
      vertex   2.292276e+00 -5.888120e+00 -3.056253e+00
    endloop
  endfacet
  facet normal -3.517931e-01 -8.136257e-01 4.628768e-01
    outer loop
      vertex   2.310119e+00 -5.879893e+00 -3.028232e+00
      vertex   2.292276e+00 -5.888120e+00 -3.056253e+00
      vertex   2.332007e+00 -5.889357e+00 -3.028232e+00
    endloop
  endfacet
  facet normal -3.431000e-01 -8.156813e-01 4.657751e-01
    outer loop
      vertex   2.292276e+00 -5.888120e+00 -3.056253e+00
      vertex   2.248267e+00 -5.869608e+00 -3.056253e+00
      vertex   2.230603e+00 -5.878057e+00 -3.084060e+00
    endloop
  endfacet
  facet normal -3.333214e-01 -8.221277e-01 4.615223e-01
    outer loop
      vertex   2.230603e+00 -5.878057e+00 -3.084060e+00
      vertex   2.248267e+00 -5.869608e+00 -3.056253e+00
      vertex   2.186204e+00 -5.860056e+00 -3.084060e+00
    endloop
  endfacet
  facet normal -3.321051e-01 -8.191276e-01 4.676925e-01
    outer loop
      vertex   2.230603e+00 -5.878057e+00 -3.084060e+00
      vertex   2.186204e+00 -5.860056e+00 -3.084060e+00
      vertex   2.168733e+00 -5.868726e+00 -3.111651e+00
    endloop
  endfacet
  facet normal -3.224888e-01 -8.253045e-01 4.635445e-01
    outer loop
      vertex   2.168733e+00 -5.868726e+00 -3.111651e+00
      vertex   2.186204e+00 -5.860056e+00 -3.084060e+00
      vertex   2.123982e+00 -5.851239e+00 -3.111651e+00
    endloop
  endfacet
  facet normal -3.206996e-01 -8.207255e-01 4.728229e-01
    outer loop
      vertex   2.168733e+00 -5.868726e+00 -3.111651e+00
      vertex   2.123982e+00 -5.851239e+00 -3.111651e+00
      vertex   2.089304e+00 -5.869097e+00 -3.166169e+00
    endloop
  endfacet
  facet normal -3.112700e-01 -8.266600e-01 4.687688e-01
    outer loop
      vertex   2.089304e+00 -5.869097e+00 -3.166169e+00
      vertex   2.123982e+00 -5.851239e+00 -3.111651e+00
      vertex   2.044612e+00 -5.852269e+00 -3.166169e+00
    endloop
  endfacet
  facet normal -3.095053e-01 -8.219734e-01 4.780860e-01
    outer loop
      vertex   2.089304e+00 -5.869097e+00 -3.166169e+00
      vertex   2.044612e+00 -5.852269e+00 -3.166169e+00
      vertex   2.027423e+00 -5.861455e+00 -3.193091e+00
    endloop
  endfacet
  facet normal -3.333214e-01 -8.221277e-01 4.615223e-01
    outer loop
      vertex   2.186204e+00 -5.860056e+00 -3.084060e+00
      vertex   2.248267e+00 -5.869608e+00 -3.056253e+00
      vertex   2.203516e+00 -5.851465e+00 -3.056253e+00
    endloop
  endfacet
  facet normal -3.345113e-01 -8.250625e-01 4.553834e-01
    outer loop
      vertex   2.203516e+00 -5.851465e+00 -3.056253e+00
      vertex   2.248267e+00 -5.869608e+00 -3.056253e+00
      vertex   2.265767e+00 -5.861238e+00 -3.028232e+00
    endloop
  endfacet
  facet normal -3.364383e-01 -7.998440e-01 4.970502e-01
    outer loop
      vertex   2.158351e+00 -5.912617e+00 -3.193091e+00
      vertex   2.139898e+00 -5.921443e+00 -3.219785e+00
      vertex   2.200600e+00 -5.930388e+00 -3.193091e+00
    endloop
  endfacet
  facet normal -3.364383e-01 -7.998440e-01 4.970502e-01
    outer loop
      vertex   2.200600e+00 -5.930388e+00 -3.193091e+00
      vertex   2.139898e+00 -5.921443e+00 -3.219785e+00
      vertex   2.181786e+00 -5.939063e+00 -3.219785e+00
    endloop
  endfacet
  facet normal -3.436015e-01 -7.946804e-01 5.004209e-01
    outer loop
      vertex   2.200600e+00 -5.930388e+00 -3.193091e+00
      vertex   2.181786e+00 -5.939063e+00 -3.219785e+00
      vertex   2.221451e+00 -5.939404e+00 -3.193091e+00
    endloop
  endfacet
  facet normal -3.436015e-01 -7.946804e-01 5.004209e-01
    outer loop
      vertex   2.221451e+00 -5.939404e+00 -3.193091e+00
      vertex   2.181786e+00 -5.939063e+00 -3.219785e+00
      vertex   2.202459e+00 -5.948001e+00 -3.219785e+00
    endloop
  endfacet
  facet normal -3.269639e-01 -8.064472e-01 4.926840e-01
    outer loop
      vertex   2.139898e+00 -5.921443e+00 -3.219785e+00
      vertex   2.158351e+00 -5.912617e+00 -3.193091e+00
      vertex   2.097304e+00 -5.904174e+00 -3.219785e+00
    endloop
  endfacet
  facet normal -3.269639e-01 -8.064472e-01 4.926840e-01
    outer loop
      vertex   2.097304e+00 -5.904174e+00 -3.219785e+00
      vertex   2.158351e+00 -5.912617e+00 -3.193091e+00
      vertex   2.115390e+00 -5.895199e+00 -3.193091e+00
    endloop
  endfacet
  facet normal -3.175827e-01 -8.127490e-01 4.884469e-01
    outer loop
      vertex   2.097304e+00 -5.904174e+00 -3.219785e+00
      vertex   2.115390e+00 -5.895199e+00 -3.193091e+00
      vertex   2.054027e+00 -5.887263e+00 -3.219785e+00
    endloop
  endfacet
  facet normal -3.175827e-01 -8.127490e-01 4.884469e-01
    outer loop
      vertex   2.054027e+00 -5.887263e+00 -3.219785e+00
      vertex   2.115390e+00 -5.895199e+00 -3.193091e+00
      vertex   2.071739e+00 -5.878142e+00 -3.193091e+00
    endloop
  endfacet
  facet normal -3.082957e-01 -8.187610e-01 4.843388e-01
    outer loop
      vertex   2.054027e+00 -5.887263e+00 -3.219785e+00
      vertex   2.071739e+00 -5.878142e+00 -3.193091e+00
      vertex   2.010089e+00 -5.870719e+00 -3.219785e+00
    endloop
  endfacet
  facet normal -3.320827e-01 -7.894890e-01 5.161667e-01
    outer loop
      vertex   2.143695e+00 -5.956625e+00 -3.272474e+00
      vertex   2.102538e+00 -5.939313e+00 -3.272474e+00
      vertex   2.083636e+00 -5.948355e+00 -3.298465e+00
    endloop
  endfacet
  facet normal -3.228036e-01 -7.961859e-01 5.117478e-01
    outer loop
      vertex   2.083636e+00 -5.948355e+00 -3.298465e+00
      vertex   2.102538e+00 -5.939313e+00 -3.272474e+00
      vertex   2.042162e+00 -5.931540e+00 -3.298465e+00
    endloop
  endfacet
  facet normal -3.213559e-01 -7.926151e-01 5.181619e-01
    outer loop
      vertex   2.083636e+00 -5.948355e+00 -3.298465e+00
      vertex   2.042162e+00 -5.931540e+00 -3.298465e+00
      vertex   2.023492e+00 -5.940805e+00 -3.324216e+00
    endloop
  endfacet
  facet normal -3.228036e-01 -7.961859e-01 5.117478e-01
    outer loop
      vertex   2.042162e+00 -5.931540e+00 -3.298465e+00
      vertex   2.102538e+00 -5.939313e+00 -3.272474e+00
      vertex   2.060688e+00 -5.922345e+00 -3.272474e+00
    endloop
  endfacet
  facet normal -3.305677e-01 -7.858873e-01 5.225956e-01
    outer loop
      vertex   2.124422e+00 -5.965511e+00 -3.298465e+00
      vertex   2.064587e+00 -5.957466e+00 -3.324216e+00
      vertex   2.105001e+00 -5.974465e+00 -3.324216e+00
    endloop
  endfacet
  facet normal -3.294101e-01 -7.831351e-01 5.274356e-01
    outer loop
      vertex   2.105001e+00 -5.974465e+00 -3.324216e+00
      vertex   2.064587e+00 -5.957466e+00 -3.324216e+00
      vertex   2.055009e+00 -5.962048e+00 -3.337001e+00
    endloop
  endfacet
  facet normal -3.195019e-01 -7.880422e-01 5.262205e-01
    outer loop
      vertex   2.004682e+00 -5.950140e+00 -3.349725e+00
      vertex   2.055009e+00 -5.962048e+00 -3.337001e+00
      vertex   2.014104e+00 -5.945464e+00 -3.337001e+00
    endloop
  endfacet
  facet normal -3.202494e-01 -7.898861e-01 5.229917e-01
    outer loop
      vertex   2.014104e+00 -5.945464e+00 -3.337001e+00
      vertex   2.055009e+00 -5.962048e+00 -3.337001e+00
      vertex   2.064587e+00 -5.957466e+00 -3.324216e+00
    endloop
  endfacet
  facet normal -3.278377e-01 -7.793970e-01 5.339127e-01
    outer loop
      vertex   2.045394e+00 -5.966646e+00 -3.349725e+00
      vertex   2.035745e+00 -5.971262e+00 -3.362388e+00
      vertex   2.085433e+00 -5.983487e+00 -3.349725e+00
    endloop
  endfacet
  facet normal -3.278377e-01 -7.793970e-01 5.339127e-01
    outer loop
      vertex   2.085433e+00 -5.983487e+00 -3.349725e+00
      vertex   2.035745e+00 -5.971262e+00 -3.362388e+00
      vertex   2.075594e+00 -5.988024e+00 -3.362388e+00
    endloop
  endfacet
  facet normal -3.347029e-01 -7.740996e-01 5.373489e-01
    outer loop
      vertex   2.085433e+00 -5.983487e+00 -3.349725e+00
      vertex   2.075594e+00 -5.988024e+00 -3.362388e+00
      vertex   2.105192e+00 -5.992031e+00 -3.349725e+00
    endloop
  endfacet
  facet normal -3.195796e-01 -7.831072e-01 5.334904e-01
    outer loop
      vertex   2.000000e+00 -5.966698e+00 -3.377101e+00
      vertex   2.026060e+00 -5.975894e+00 -3.374989e+00
      vertex   2.035745e+00 -5.971262e+00 -3.362388e+00
    endloop
  endfacet
  facet normal -3.270390e-01 -7.774981e-01 5.371613e-01
    outer loop
      vertex   2.035745e+00 -5.971262e+00 -3.362388e+00
      vertex   2.026060e+00 -5.975894e+00 -3.374989e+00
      vertex   2.075594e+00 -5.988024e+00 -3.362388e+00
    endloop
  endfacet
  facet normal -3.182581e-01 -7.865384e-01 5.292156e-01
    outer loop
      vertex   2.035745e+00 -5.971262e+00 -3.362388e+00
      vertex   2.045394e+00 -5.966646e+00 -3.349725e+00
      vertex   2.000000e+00 -5.966698e+00 -3.377101e+00
    endloop
  endfacet
  facet normal -3.262318e-01 -7.755790e-01 5.404166e-01
    outer loop
      vertex   2.055811e+00 -5.997145e+00 -3.387528e+00
      vertex   2.065720e+00 -5.992576e+00 -3.374989e+00
      vertex   2.016341e+00 -5.980543e+00 -3.387528e+00
    endloop
  endfacet
  facet normal -3.254160e-01 -7.736396e-01 5.436784e-01
    outer loop
      vertex   2.016341e+00 -5.980543e+00 -3.387528e+00
      vertex   2.006587e+00 -5.985209e+00 -3.400005e+00
      vertex   2.055811e+00 -5.997145e+00 -3.387528e+00
    endloop
  endfacet
  facet normal -3.286281e-01 -7.812760e-01 5.306708e-01
    outer loop
      vertex   2.045394e+00 -5.966646e+00 -3.349725e+00
      vertex   2.085433e+00 -5.983487e+00 -3.349725e+00
      vertex   2.095235e+00 -5.978968e+00 -3.337001e+00
    endloop
  endfacet
  facet normal -3.355202e-01 -7.759900e-01 5.341028e-01
    outer loop
      vertex   2.095235e+00 -5.978968e+00 -3.337001e+00
      vertex   2.085433e+00 -5.983487e+00 -3.349725e+00
      vertex   2.115087e+00 -5.987552e+00 -3.337001e+00
    endloop
  endfacet
  facet normal -3.363291e-01 -7.778606e-01 5.308631e-01
    outer loop
      vertex   2.095235e+00 -5.978968e+00 -3.337001e+00
      vertex   2.115087e+00 -5.987552e+00 -3.337001e+00
      vertex   2.124946e+00 -5.983089e+00 -3.324216e+00
    endloop
  endfacet
  facet normal -3.355202e-01 -7.759900e-01 5.341028e-01
    outer loop
      vertex   2.115087e+00 -5.987552e+00 -3.337001e+00
      vertex   2.085433e+00 -5.983487e+00 -3.349725e+00
      vertex   2.105192e+00 -5.992031e+00 -3.349725e+00
    endloop
  endfacet
  facet normal -3.390939e-01 -7.842550e-01 5.195762e-01
    outer loop
      vertex   2.164007e+00 -5.965407e+00 -3.272474e+00
      vertex   2.124422e+00 -5.965511e+00 -3.298465e+00
      vertex   2.144551e+00 -5.974214e+00 -3.298465e+00
    endloop
  endfacet
  facet normal -3.375265e-01 -7.806300e-01 5.260158e-01
    outer loop
      vertex   2.144551e+00 -5.974214e+00 -3.298465e+00
      vertex   2.124422e+00 -5.965511e+00 -3.298465e+00
      vertex   2.105001e+00 -5.974465e+00 -3.324216e+00
    endloop
  endfacet
  facet normal -3.236490e-01 -8.282736e-01 4.573993e-01
    outer loop
      vertex   2.186204e+00 -5.860056e+00 -3.084060e+00
      vertex   2.203516e+00 -5.851465e+00 -3.056253e+00
      vertex   2.141092e+00 -5.842429e+00 -3.084060e+00
    endloop
  endfacet
  facet normal -3.224888e-01 -8.253045e-01 4.635445e-01
    outer loop
      vertex   2.186204e+00 -5.860056e+00 -3.084060e+00
      vertex   2.141092e+00 -5.842429e+00 -3.084060e+00
      vertex   2.123982e+00 -5.851239e+00 -3.111651e+00
    endloop
  endfacet
  facet normal -3.129768e-01 -8.311927e-01 4.595261e-01
    outer loop
      vertex   2.123982e+00 -5.851239e+00 -3.111651e+00
      vertex   2.141092e+00 -5.842429e+00 -3.084060e+00
      vertex   2.078548e+00 -5.834132e+00 -3.111651e+00
    endloop
  endfacet
  facet normal -3.112700e-01 -8.266600e-01 4.687688e-01
    outer loop
      vertex   2.123982e+00 -5.851239e+00 -3.111651e+00
      vertex   2.078548e+00 -5.834132e+00 -3.111651e+00
      vertex   2.044612e+00 -5.852269e+00 -3.166169e+00
    endloop
  endfacet
  facet normal -3.136097e-01 -8.025813e-01 5.074566e-01
    outer loop
      vertex   2.042162e+00 -5.931540e+00 -3.298465e+00
      vertex   2.060688e+00 -5.922345e+00 -3.272474e+00
      vertex   2.018166e+00 -5.905730e+00 -3.272474e+00
    endloop
  endfacet
  facet normal -2.962550e-01 -8.478413e-01 4.397706e-01
    outer loop
      vertex   2.081127e+00 -5.790409e+00 -3.028232e+00
      vertex   2.017577e+00 -5.782737e+00 -3.056253e+00
      vertex   2.065053e+00 -5.799326e+00 -3.056253e+00
    endloop
  endfacet
  facet normal -2.952719e-01 -8.450277e-01 4.458057e-01
    outer loop
      vertex   2.065053e+00 -5.799326e+00 -3.056253e+00
      vertex   2.017577e+00 -5.782737e+00 -3.056253e+00
      vertex   2.001726e+00 -5.791869e+00 -3.084060e+00
    endloop
  endfacet
  facet normal -3.056556e-01 -8.425552e-01 4.434809e-01
    outer loop
      vertex   2.128323e+00 -5.807530e+00 -3.028232e+00
      vertex   2.081127e+00 -5.790409e+00 -3.028232e+00
      vertex   2.065053e+00 -5.799326e+00 -3.056253e+00
    endloop
  endfacet
  facet normal -1.000000e+00 0.000000e+00 0.000000e+00
    outer loop
      vertex   2.000000e+00 -6.000000e+00 -3.424772e+00
      vertex   2.000000e+00 -5.966698e+00 -3.377101e+00
      vertex   2.000000e+00 -6.000000e+00 -4.000000e+00
    endloop
  endfacet
  facet normal -1.000000e+00 0.000000e+00 0.000000e+00
    outer loop
      vertex   2.000000e+00 -6.000000e+00 -4.000000e+00
      vertex   2.000000e+00 -5.966698e+00 -3.377101e+00
      vertex   2.000000e+00 -5.000000e+00 -4.000000e+00
    endloop
  endfacet
  facet normal -1.000000e+00 0.000000e+00 0.000000e+00
    outer loop
      vertex   2.000000e+00 -5.000000e+00 -4.000000e+00
      vertex   2.000000e+00 -5.966698e+00 -3.377101e+00
      vertex   2.000000e+00 -5.933901e+00 -3.327839e+00
    endloop
  endfacet
  facet normal -1.000000e+00 0.000000e+00 0.000000e+00
    outer loop
      vertex   2.000000e+00 -5.000000e+00 -4.000000e+00
      vertex   2.000000e+00 -5.933901e+00 -3.327839e+00
      vertex   2.000000e+00 -5.901621e+00 -3.277006e+00
    endloop
  endfacet
  facet normal -1.000000e+00 0.000000e+00 0.000000e+00
    outer loop
      vertex   2.000000e+00 -5.901621e+00 -3.277006e+00
      vertex   2.000000e+00 -5.869865e+00 -3.224624e+00
      vertex   2.000000e+00 -5.000000e+00 -4.000000e+00
    endloop
  endfacet
  facet normal -1.000000e+00 0.000000e+00 0.000000e+00
    outer loop
      vertex   2.000000e+00 -5.000000e+00 -4.000000e+00
      vertex   2.000000e+00 -5.869865e+00 -3.224624e+00
      vertex   2.000000e+00 -5.000000e+00 -3.000000e+00
    endloop
  endfacet
  facet normal -1.000000e+00 0.000000e+00 0.000000e+00
    outer loop
      vertex   2.000000e+00 -5.000000e+00 -3.000000e+00
      vertex   2.000000e+00 -5.869865e+00 -3.224624e+00
      vertex   2.000000e+00 -5.838645e+00 -3.170711e+00
    endloop
  endfacet
  facet normal -1.000000e+00 -1.838165e-15 9.030284e-15
    outer loop
      vertex   2.000000e+00 -5.000000e+00 -3.000000e+00
      vertex   2.000000e+00 -5.838645e+00 -3.170711e+00
      vertex   2.000000e+00 -5.807971e+00 -3.115289e+00
    endloop
  endfacet
  facet normal -1.000000e+00 6.098714e-16 -8.126062e-15
    outer loop
      vertex   2.000000e+00 -5.807971e+00 -3.115289e+00
      vertex   2.000000e+00 -5.777851e+00 -3.058379e+00
      vertex   2.000000e+00 -5.000000e+00 -3.000000e+00
    endloop
  endfacet
  facet normal -1.000000e+00 -0.000000e+00 0.000000e+00
    outer loop
      vertex   2.000000e+00 -5.000000e+00 -3.000000e+00
      vertex   2.000000e+00 -5.777851e+00 -3.058379e+00
      vertex   2.000000e+00 -5.748297e+00 -3.000000e+00
    endloop
  endfacet
  facet normal -0.000000e+00 0.000000e+00 1.000000e+00
    outer loop
      vertex   2.000000e+00 -5.748297e+00 -3.000000e+00
      vertex   2.076506e+00 -5.774319e+00 -3.000000e+00
      vertex   2.000000e+00 -5.000000e+00 -3.000000e+00
    endloop
  endfacet
  facet normal 0.000000e+00 0.000000e+00 1.000000e+00
    outer loop
      vertex   2.000000e+00 -5.000000e+00 -3.000000e+00
      vertex   2.076506e+00 -5.774319e+00 -3.000000e+00
      vertex   2.152312e+00 -5.801683e+00 -3.000000e+00
    endloop
  endfacet
  facet normal 6.386875e-15 1.213442e-15 1.000000e+00
    outer loop
      vertex   2.000000e+00 -5.000000e+00 -3.000000e+00
      vertex   2.152312e+00 -5.801683e+00 -3.000000e+00
      vertex   2.227302e+00 -5.830416e+00 -3.000000e+00
    endloop
  endfacet
  facet normal -2.448155e-16 -6.017901e-16 1.000000e+00
    outer loop
      vertex   2.227302e+00 -5.830416e+00 -3.000000e+00
      vertex   2.301450e+00 -5.860580e+00 -3.000000e+00
      vertex   2.000000e+00 -5.000000e+00 -3.000000e+00
    endloop
  endfacet
  facet normal 0.000000e+00 -5.160345e-16 1.000000e+00
    outer loop
      vertex   2.000000e+00 -5.000000e+00 -3.000000e+00
      vertex   2.301450e+00 -5.860580e+00 -3.000000e+00
      vertex   3.000000e+00 -5.000000e+00 -3.000000e+00
    endloop
  endfacet
  facet normal -1.651444e-16 -3.819835e-16 1.000000e+00
    outer loop
      vertex   3.000000e+00 -5.000000e+00 -3.000000e+00
      vertex   2.301450e+00 -5.860580e+00 -3.000000e+00
      vertex   2.375375e+00 -5.892541e+00 -3.000000e+00
    endloop
  endfacet
  facet normal -4.736884e-15 2.817448e-15 1.000000e+00
    outer loop
      vertex   3.000000e+00 -5.000000e+00 -3.000000e+00
      vertex   2.375375e+00 -5.892541e+00 -3.000000e+00
      vertex   2.448981e+00 -5.926410e+00 -3.000000e+00
    endloop
  endfacet
  facet normal -0.000000e+00 0.000000e+00 1.000000e+00
    outer loop
      vertex   2.448981e+00 -5.926410e+00 -3.000000e+00
      vertex   2.521970e+00 -5.962219e+00 -3.000000e+00
      vertex   3.000000e+00 -5.000000e+00 -3.000000e+00
    endloop
  endfacet
  facet normal 0.000000e+00 0.000000e+00 1.000000e+00
    outer loop
      vertex   3.000000e+00 -5.000000e+00 -3.000000e+00
      vertex   2.521970e+00 -5.962219e+00 -3.000000e+00
      vertex   3.000000e+00 -6.000000e+00 -3.000000e+00
    endloop
  endfacet
  facet normal 0.000000e+00 0.000000e+00 1.000000e+00
    outer loop
      vertex   3.000000e+00 -6.000000e+00 -3.000000e+00
      vertex   2.521970e+00 -5.962219e+00 -3.000000e+00
      vertex   2.594043e+00 -6.000000e+00 -3.000000e+00
    endloop
  endfacet
  facet normal 0.000000e+00 0.000000e+00 -1.000000e+00
    outer loop
      vertex   3.000000e+00 -6.000000e+00 -4.000000e+00
      vertex   2.000000e+00 -6.000000e+00 -4.000000e+00
      vertex   3.000000e+00 -5.000000e+00 -4.000000e+00
    endloop
  endfacet
  facet normal -0.000000e+00 0.000000e+00 -1.000000e+00
    outer loop
      vertex   3.000000e+00 -5.000000e+00 -4.000000e+00
      vertex   2.000000e+00 -6.000000e+00 -4.000000e+00
      vertex   2.000000e+00 -5.000000e+00 -4.000000e+00
    endloop
  endfacet
  facet normal 0.000000e+00 -1.000000e+00 9.717769e-12
    outer loop
      vertex   2.594043e+00 -6.000000e+00 -3.000000e+00
      vertex   2.524147e+00 -6.000000e+00 -3.059043e+00
      vertex   3.000000e+00 -6.000000e+00 -3.000000e+00
    endloop
  endfacet
  facet normal 1.205758e-12 -1.000000e+00 0.000000e+00
    outer loop
      vertex   3.000000e+00 -6.000000e+00 -3.000000e+00
      vertex   2.524147e+00 -6.000000e+00 -3.059043e+00
      vertex   3.000000e+00 -6.000000e+00 -4.000000e+00
    endloop
  endfacet
  facet normal 2.828192e-12 -1.000000e+00 8.204835e-13
    outer loop
      vertex   3.000000e+00 -6.000000e+00 -4.000000e+00
      vertex   2.524147e+00 -6.000000e+00 -3.059043e+00
      vertex   2.452878e+00 -6.000000e+00 -3.116481e+00
    endloop
  endfacet
  facet normal -4.112432e-13 -1.000000e+00 -1.185547e-12
    outer loop
      vertex   3.000000e+00 -6.000000e+00 -4.000000e+00
      vertex   2.452878e+00 -6.000000e+00 -3.116481e+00
      vertex   2.380341e+00 -6.000000e+00 -3.172229e+00
    endloop
  endfacet
  facet normal -9.924827e-13 -1.000000e+00 -1.620656e-12
    outer loop
      vertex   2.380341e+00 -6.000000e+00 -3.172229e+00
      vertex   2.306585e+00 -6.000000e+00 -3.226256e+00
      vertex   3.000000e+00 -6.000000e+00 -4.000000e+00
    endloop
  endfacet
  facet normal -1.239312e-12 -1.000000e+00 -1.841860e-12
    outer loop
      vertex   3.000000e+00 -6.000000e+00 -4.000000e+00
      vertex   2.306585e+00 -6.000000e+00 -3.226256e+00
      vertex   2.231641e+00 -6.000000e+00 -3.278542e+00
    endloop
  endfacet
  facet normal -1.219040e-12 -1.000000e+00 -1.820270e-12
    outer loop
      vertex   3.000000e+00 -6.000000e+00 -4.000000e+00
      vertex   2.231641e+00 -6.000000e+00 -3.278542e+00
      vertex   2.155542e+00 -6.000000e+00 -3.329069e+00
    endloop
  endfacet
  facet normal -0.000000e+00 -1.000000e+00 -2.859409e-13
    outer loop
      vertex   3.000000e+00 -6.000000e+00 -4.000000e+00
      vertex   2.155542e+00 -6.000000e+00 -3.329069e+00
      vertex   2.000000e+00 -6.000000e+00 -4.000000e+00
    endloop
  endfacet
  facet normal -1.890343e-12 -1.000000e+00 1.522965e-13
    outer loop
      vertex   2.000000e+00 -6.000000e+00 -4.000000e+00
      vertex   2.155542e+00 -6.000000e+00 -3.329069e+00
      vertex   2.078317e+00 -6.000000e+00 -3.377818e+00
    endloop
  endfacet
  facet normal -6.804451e-13 -1.000000e+00 0.000000e+00
    outer loop
      vertex   2.000000e+00 -6.000000e+00 -4.000000e+00
      vertex   2.078317e+00 -6.000000e+00 -3.377818e+00
      vertex   2.000000e+00 -6.000000e+00 -3.424772e+00
    endloop
  endfacet
  facet normal 0.000000e+00 1.000000e+00 0.000000e+00
    outer loop
      vertex   3.000000e+00 -5.000000e+00 -3.000000e+00
      vertex   3.000000e+00 -5.000000e+00 -4.000000e+00
      vertex   2.000000e+00 -5.000000e+00 -3.000000e+00
    endloop
  endfacet
  facet normal 0.000000e+00 1.000000e+00 0.000000e+00
    outer loop
      vertex   2.000000e+00 -5.000000e+00 -3.000000e+00
      vertex   3.000000e+00 -5.000000e+00 -4.000000e+00
      vertex   2.000000e+00 -5.000000e+00 -4.000000e+00
    endloop
  endfacet
  facet normal 1.000000e+00 -0.000000e+00 0.000000e+00
    outer loop
      vertex   3.000000e+00 -6.000000e+00 -3.000000e+00
      vertex   3.000000e+00 -6.000000e+00 -4.000000e+00
      vertex   3.000000e+00 -5.000000e+00 -3.000000e+00
    endloop
  endfacet
  facet normal 1.000000e+00 0.000000e+00 0.000000e+00
    outer loop
      vertex   3.000000e+00 -5.000000e+00 -3.000000e+00
      vertex   3.000000e+00 -6.000000e+00 -4.000000e+00
      vertex   3.000000e+00 -5.000000e+00 -4.000000e+00
    endloop
  endfacet
endsolid
