solid ASCII
  facet normal 4.830284e-01 -9.770480e-02 8.701364e-01
    outer loop
      vertex   5.193528e+00 -1.000000e+00 1.003555e+01
      vertex   5.257563e+00 -1.000000e+00 1.000000e+01
      vertex   5.217537e+00 -9.744616e-01 1.002509e+01
    endloop
  endfacet
  facet normal 4.852262e-01 -9.351146e-02 8.693740e-01
    outer loop
      vertex   5.217537e+00 -9.744616e-01 1.002509e+01
      vertex   5.257563e+00 -1.000000e+00 1.000000e+01
      vertex   5.269475e+00 -9.381872e-01 1.000000e+01
    endloop
  endfacet
  facet normal 4.841048e-01 -9.131213e-02 8.702325e-01
    outer loop
      vertex   5.217537e+00 -9.744616e-01 1.002509e+01
      vertex   5.269475e+00 -9.381872e-01 1.000000e+01
      vertex   5.230035e+00 -9.082024e-01 1.002509e+01
    endloop
  endfacet
  facet normal 4.863918e-01 -8.755925e-02 8.693425e-01
    outer loop
      vertex   5.230035e+00 -9.082024e-01 1.002509e+01
      vertex   5.269475e+00 -9.381872e-01 1.000000e+01
      vertex   5.280625e+00 -8.762511e-01 1.000000e+01
    endloop
  endfacet
  facet normal 4.851706e-01 -8.488182e-02 8.702899e-01
    outer loop
      vertex   5.230035e+00 -9.082024e-01 1.002509e+01
      vertex   5.280625e+00 -8.762511e-01 1.000000e+01
      vertex   5.241607e+00 -8.420606e-01 1.002509e+01
    endloop
  endfacet
  facet normal 4.874443e-01 -8.158580e-02 8.693341e-01
    outer loop
      vertex   5.241607e+00 -8.420606e-01 1.002509e+01
      vertex   5.280625e+00 -8.762511e-01 1.000000e+01
      vertex   5.291011e+00 -8.141985e-01 1.000000e+01
    endloop
  endfacet
  facet normal 4.861899e-01 -7.847132e-02 8.703227e-01
    outer loop
      vertex   5.241607e+00 -8.420606e-01 1.002509e+01
      vertex   5.291011e+00 -8.141985e-01 1.000000e+01
      vertex   5.252261e+00 -7.760528e-01 1.002509e+01
    endloop
  endfacet
  facet normal 4.883893e-01 -7.559426e-02 8.693454e-01
    outer loop
      vertex   5.252261e+00 -7.760528e-01 1.002509e+01
      vertex   5.291011e+00 -8.141985e-01 1.000000e+01
      vertex   5.300633e+00 -7.520361e-01 1.000000e+01
    endloop
  endfacet
  facet normal 4.871573e-01 -7.207976e-02 8.703346e-01
    outer loop
      vertex   5.252261e+00 -7.760528e-01 1.002509e+01
      vertex   5.300633e+00 -7.520361e-01 1.000000e+01
      vertex   5.262005e+00 -7.101955e-01 1.002509e+01
    endloop
  endfacet
  facet normal 4.892324e-01 -6.958749e-02 8.693729e-01
    outer loop
      vertex   5.262005e+00 -7.101955e-01 1.002509e+01
      vertex   5.300633e+00 -7.520361e-01 1.000000e+01
      vertex   5.309489e+00 -6.897707e-01 1.000000e+01
    endloop
  endfacet
  facet normal 4.880681e-01 -6.570663e-02 8.703288e-01
    outer loop
      vertex   5.262005e+00 -7.101955e-01 1.002509e+01
      vertex   5.309489e+00 -6.897707e-01 1.000000e+01
      vertex   5.270848e+00 -6.445046e-01 1.002509e+01
    endloop
  endfacet
  facet normal 4.899790e-01 -6.356803e-02 8.694134e-01
    outer loop
      vertex   5.270848e+00 -6.445046e-01 1.002509e+01
      vertex   5.309489e+00 -6.897707e-01 1.000000e+01
      vertex   5.317580e+00 -6.274092e-01 1.000000e+01
    endloop
  endfacet
  facet normal 4.889173e-01 -5.935169e-02 8.703087e-01
    outer loop
      vertex   5.270848e+00 -6.445046e-01 1.002509e+01
      vertex   5.317580e+00 -6.274092e-01 1.000000e+01
      vertex   5.278801e+00 -5.789957e-01 1.002509e+01
    endloop
  endfacet
  facet normal 4.906347e-01 -5.753813e-02 8.694636e-01
    outer loop
      vertex   5.278801e+00 -5.789957e-01 1.002509e+01
      vertex   5.317580e+00 -6.274092e-01 1.000000e+01
      vertex   5.324904e+00 -5.649583e-01 1.000000e+01
    endloop
  endfacet
  facet normal 4.897004e-01 -5.301502e-02 8.702775e-01
    outer loop
      vertex   5.278801e+00 -5.789957e-01 1.002509e+01
      vertex   5.324904e+00 -5.649583e-01 1.000000e+01
      vertex   5.285872e+00 -5.136841e-01 1.002509e+01
    endloop
  endfacet
  facet normal 4.912044e-01 -5.149973e-02 8.695206e-01
    outer loop
      vertex   5.285872e+00 -5.136841e-01 1.002509e+01
      vertex   5.324904e+00 -5.649583e-01 1.000000e+01
      vertex   5.331460e+00 -5.024249e-01 1.000000e+01
    endloop
  endfacet
  facet normal 4.904131e-01 -4.669700e-02 8.702381e-01
    outer loop
      vertex   5.285872e+00 -5.136841e-01 1.002509e+01
      vertex   5.331460e+00 -5.024249e-01 1.000000e+01
      vertex   5.292070e+00 -4.485847e-01 1.002509e+01
    endloop
  endfacet
  facet normal 4.916932e-01 -4.545449e-02 8.695814e-01
    outer loop
      vertex   5.292070e+00 -4.485847e-01 1.002509e+01
      vertex   5.331460e+00 -5.024249e-01 1.000000e+01
      vertex   5.337248e+00 -4.398157e-01 1.000000e+01
    endloop
  endfacet
  facet normal 4.910515e-01 -4.039823e-02 8.701933e-01
    outer loop
      vertex   5.292070e+00 -4.485847e-01 1.002509e+01
      vertex   5.337248e+00 -4.398157e-01 1.000000e+01
      vertex   5.297407e+00 -3.837120e-01 1.002509e+01
    endloop
  endfacet
  facet normal 4.921056e-01 -3.940380e-02 8.696433e-01
    outer loop
      vertex   5.297407e+00 -3.837120e-01 1.002509e+01
      vertex   5.337248e+00 -4.398157e-01 1.000000e+01
      vertex   5.342267e+00 -3.771375e-01 1.000000e+01
    endloop
  endfacet
  facet normal 4.916121e-01 -3.411959e-02 8.701456e-01
    outer loop
      vertex   5.297407e+00 -3.837120e-01 1.002509e+01
      vertex   5.342267e+00 -3.771375e-01 1.000000e+01
      vertex   5.301893e+00 -3.190801e-01 1.002509e+01
    endloop
  endfacet
  facet normal 4.924460e-01 -3.334879e-02 8.697039e-01
    outer loop
      vertex   5.301893e+00 -3.190801e-01 1.002509e+01
      vertex   5.342267e+00 -3.771375e-01 1.000000e+01
      vertex   5.346515e+00 -3.143971e-01 1.000000e+01
    endloop
  endfacet
  facet normal 4.920915e-01 -2.786216e-02 8.700975e-01
    outer loop
      vertex   5.301893e+00 -3.190801e-01 1.002509e+01
      vertex   5.346515e+00 -3.143971e-01 1.000000e+01
      vertex   5.305538e+00 -2.547028e-01 1.002509e+01
    endloop
  endfacet
  facet normal 4.927183e-01 -2.729037e-02 8.697608e-01
    outer loop
      vertex   5.305538e+00 -2.547028e-01 1.002509e+01
      vertex   5.346515e+00 -3.143971e-01 1.000000e+01
      vertex   5.349993e+00 -2.516013e-01 1.000000e+01
    endloop
  endfacet
  facet normal 4.924870e-01 -2.162722e-02 8.700510e-01
    outer loop
      vertex   5.305538e+00 -2.547028e-01 1.002509e+01
      vertex   5.349993e+00 -2.516013e-01 1.000000e+01
      vertex   5.308353e+00 -1.905933e-01 1.002509e+01
    endloop
  endfacet
  facet normal 4.929261e-01 -2.122924e-02 8.698121e-01
    outer loop
      vertex   5.308353e+00 -1.905933e-01 1.002509e+01
      vertex   5.349993e+00 -2.516013e-01 1.000000e+01
      vertex   5.352700e+00 -1.887569e-01 1.000000e+01
    endloop
  endfacet
  facet normal 4.927963e-01 -1.541619e-02 8.700081e-01
    outer loop
      vertex   5.308353e+00 -1.905933e-01 1.002509e+01
      vertex   5.352700e+00 -1.887569e-01 1.000000e+01
      vertex   5.310350e+00 -1.267647e-01 1.002509e+01
    endloop
  endfacet
  facet normal 4.930726e-01 -1.516588e-02 8.698560e-01
    outer loop
      vertex   5.310350e+00 -1.267647e-01 1.002509e+01
      vertex   5.352700e+00 -1.887569e-01 1.000000e+01
      vertex   5.354634e+00 -1.258707e-01 1.000000e+01
    endloop
  endfacet
  facet normal 4.930176e-01 -9.230663e-03 8.699704e-01
    outer loop
      vertex   5.310350e+00 -1.267647e-01 1.002509e+01
      vertex   5.354634e+00 -1.258707e-01 1.000000e+01
      vertex   5.311540e+00 -6.322958e-02 1.002509e+01
    endloop
  endfacet
  facet normal 4.931603e-01 -9.100656e-03 8.698909e-01
    outer loop
      vertex   5.311540e+00 -6.322958e-02 1.002509e+01
      vertex   5.354634e+00 -1.258707e-01 1.000000e+01
      vertex   5.355795e+00 -6.294945e-02 1.000000e+01
    endloop
  endfacet
  facet normal 4.931493e-01 -3.033514e-03 8.699394e-01
    outer loop
      vertex   5.311540e+00 -6.322958e-02 1.002509e+01
      vertex   5.355795e+00 -6.294945e-02 1.000000e+01
      vertex   5.356183e+00 0.000000e+00 1.000000e+01
    endloop
  endfacet
  facet normal 4.911873e-01 -1.206304e-03 8.710532e-01
    outer loop
      vertex   5.356183e+00 0.000000e+00 1.000000e+01
      vertex   5.267819e+00 -2.346947e-34 1.004983e+01
      vertex   5.311540e+00 -6.322958e-02 1.002509e+01
    endloop
  endfacet
  facet normal 4.891555e-01 -3.056533e-03 8.721913e-01
    outer loop
      vertex   5.311540e+00 -6.322958e-02 1.002509e+01
      vertex   5.267819e+00 -2.346947e-34 1.004983e+01
      vertex   5.267212e+00 -6.270191e-02 1.004995e+01
    endloop
  endfacet
  facet normal 4.890820e-01 -9.156978e-03 8.721897e-01
    outer loop
      vertex   5.311540e+00 -6.322958e-02 1.002509e+01
      vertex   5.267212e+00 -6.270191e-02 1.004995e+01
      vertex   5.310350e+00 -1.267647e-01 1.002509e+01
    endloop
  endfacet
  facet normal 4.890820e-01 -9.156978e-03 8.721897e-01
    outer loop
      vertex   5.310350e+00 -1.267647e-01 1.002509e+01
      vertex   5.267212e+00 -6.270191e-02 1.004995e+01
      vertex   5.266033e+00 -1.257068e-01 1.004995e+01
    endloop
  endfacet
  facet normal 4.889338e-01 -1.529536e-02 8.721868e-01
    outer loop
      vertex   5.310350e+00 -1.267647e-01 1.002509e+01
      vertex   5.266033e+00 -1.257068e-01 1.004995e+01
      vertex   5.308353e+00 -1.905933e-01 1.002509e+01
    endloop
  endfacet
  facet normal 4.889338e-01 -1.529536e-02 8.721868e-01
    outer loop
      vertex   5.308353e+00 -1.905933e-01 1.002509e+01
      vertex   5.266033e+00 -1.257068e-01 1.004995e+01
      vertex   5.264053e+00 -1.890027e-01 1.004995e+01
    endloop
  endfacet
  facet normal 4.887099e-01 -2.146135e-02 8.721823e-01
    outer loop
      vertex   5.308353e+00 -1.905933e-01 1.002509e+01
      vertex   5.264053e+00 -1.890027e-01 1.004995e+01
      vertex   5.305538e+00 -2.547028e-01 1.002509e+01
    endloop
  endfacet
  facet normal 4.887099e-01 -2.146135e-02 8.721823e-01
    outer loop
      vertex   5.305538e+00 -2.547028e-01 1.002509e+01
      vertex   5.264053e+00 -1.890027e-01 1.004995e+01
      vertex   5.261261e+00 -2.525771e-01 1.004995e+01
    endloop
  endfacet
  facet normal 4.884093e-01 -2.765368e-02 8.721764e-01
    outer loop
      vertex   5.305538e+00 -2.547028e-01 1.002509e+01
      vertex   5.261261e+00 -2.525771e-01 1.004995e+01
      vertex   5.301893e+00 -3.190801e-01 1.002509e+01
    endloop
  endfacet
  facet normal 4.884093e-01 -2.765368e-02 8.721764e-01
    outer loop
      vertex   5.301893e+00 -3.190801e-01 1.002509e+01
      vertex   5.261261e+00 -2.525771e-01 1.004995e+01
      vertex   5.257646e+00 -3.164172e-01 1.004995e+01
    endloop
  endfacet
  facet normal 4.880309e-01 -3.387105e-02 8.721689e-01
    outer loop
      vertex   5.301893e+00 -3.190801e-01 1.002509e+01
      vertex   5.257646e+00 -3.164172e-01 1.004995e+01
      vertex   5.297407e+00 -3.837120e-01 1.002509e+01
    endloop
  endfacet
  facet normal 4.880309e-01 -3.387105e-02 8.721689e-01
    outer loop
      vertex   5.297407e+00 -3.837120e-01 1.002509e+01
      vertex   5.257646e+00 -3.164172e-01 1.004995e+01
      vertex   5.253198e+00 -3.805097e-01 1.004995e+01
    endloop
  endfacet
  facet normal 4.875738e-01 -4.011212e-02 8.721599e-01
    outer loop
      vertex   5.297407e+00 -3.837120e-01 1.002509e+01
      vertex   5.253198e+00 -3.805097e-01 1.004995e+01
      vertex   5.292070e+00 -4.485847e-01 1.002509e+01
    endloop
  endfacet
  facet normal 4.875738e-01 -4.011212e-02 8.721599e-01
    outer loop
      vertex   5.292070e+00 -4.485847e-01 1.002509e+01
      vertex   5.253198e+00 -3.805097e-01 1.004995e+01
      vertex   5.247906e+00 -4.448411e-01 1.004995e+01
    endloop
  endfacet
  facet normal 4.870369e-01 -4.637552e-02 8.721493e-01
    outer loop
      vertex   5.292070e+00 -4.485847e-01 1.002509e+01
      vertex   5.247906e+00 -4.448411e-01 1.004995e+01
      vertex   5.285872e+00 -5.136841e-01 1.002509e+01
    endloop
  endfacet
  facet normal 4.870369e-01 -4.637552e-02 8.721493e-01
    outer loop
      vertex   5.285872e+00 -5.136841e-01 1.002509e+01
      vertex   5.247906e+00 -4.448411e-01 1.004995e+01
      vertex   5.241759e+00 -5.093972e-01 1.004995e+01
    endloop
  endfacet
  facet normal 4.864193e-01 -5.265982e-02 8.721371e-01
    outer loop
      vertex   5.285872e+00 -5.136841e-01 1.002509e+01
      vertex   5.241759e+00 -5.093972e-01 1.004995e+01
      vertex   5.278801e+00 -5.789957e-01 1.002509e+01
    endloop
  endfacet
  facet normal 4.864193e-01 -5.265982e-02 8.721371e-01
    outer loop
      vertex   5.278801e+00 -5.789957e-01 1.002509e+01
      vertex   5.241759e+00 -5.093972e-01 1.004995e+01
      vertex   5.234747e+00 -5.741637e-01 1.004995e+01
    endloop
  endfacet
  facet normal 4.857202e-01 -5.896358e-02 8.721234e-01
    outer loop
      vertex   5.278801e+00 -5.789957e-01 1.002509e+01
      vertex   5.234747e+00 -5.741637e-01 1.004995e+01
      vertex   5.270848e+00 -6.445046e-01 1.002509e+01
    endloop
  endfacet
  facet normal 4.857202e-01 -5.896358e-02 8.721234e-01
    outer loop
      vertex   5.270848e+00 -6.445046e-01 1.002509e+01
      vertex   5.234747e+00 -5.741637e-01 1.004995e+01
      vertex   5.226861e+00 -6.391259e-01 1.004995e+01
    endloop
  endfacet
  facet normal 4.849385e-01 -6.528531e-02 8.721081e-01
    outer loop
      vertex   5.270848e+00 -6.445046e-01 1.002509e+01
      vertex   5.226861e+00 -6.391259e-01 1.004995e+01
      vertex   5.262005e+00 -7.101955e-01 1.002509e+01
    endloop
  endfacet
  facet normal 4.849385e-01 -6.528531e-02 8.721081e-01
    outer loop
      vertex   5.262005e+00 -7.101955e-01 1.002509e+01
      vertex   5.226861e+00 -6.391259e-01 1.004995e+01
      vertex   5.218091e+00 -7.042686e-01 1.004995e+01
    endloop
  endfacet
  facet normal 4.840735e-01 -7.162348e-02 8.720911e-01
    outer loop
      vertex   5.262005e+00 -7.101955e-01 1.002509e+01
      vertex   5.218091e+00 -7.042686e-01 1.004995e+01
      vertex   5.252261e+00 -7.760528e-01 1.002509e+01
    endloop
  endfacet
  facet normal 4.840735e-01 -7.162348e-02 8.720911e-01
    outer loop
      vertex   5.252261e+00 -7.760528e-01 1.002509e+01
      vertex   5.218091e+00 -7.042686e-01 1.004995e+01
      vertex   5.208428e+00 -7.695763e-01 1.004995e+01
    endloop
  endfacet
  facet normal 4.831243e-01 -7.797653e-02 8.720726e-01
    outer loop
      vertex   5.252261e+00 -7.760528e-01 1.002509e+01
      vertex   5.208428e+00 -7.695763e-01 1.004995e+01
      vertex   5.241607e+00 -8.420606e-01 1.002509e+01
    endloop
  endfacet
  facet normal 4.831243e-01 -7.797653e-02 8.720726e-01
    outer loop
      vertex   5.241607e+00 -8.420606e-01 1.002509e+01
      vertex   5.208428e+00 -7.695763e-01 1.004995e+01
      vertex   5.197863e+00 -8.350332e-01 1.004995e+01
    endloop
  endfacet
  facet normal 4.820901e-01 -8.434287e-02 8.720524e-01
    outer loop
      vertex   5.241607e+00 -8.420606e-01 1.002509e+01
      vertex   5.197863e+00 -8.350332e-01 1.004995e+01
      vertex   5.230035e+00 -9.082024e-01 1.002509e+01
    endloop
  endfacet
  facet normal 4.820901e-01 -8.434287e-02 8.720524e-01
    outer loop
      vertex   5.230035e+00 -9.082024e-01 1.002509e+01
      vertex   5.197863e+00 -8.350332e-01 1.004995e+01
      vertex   5.186388e+00 -9.006231e-01 1.004995e+01
    endloop
  endfacet
  facet normal 4.809701e-01 -9.072086e-02 8.720307e-01
    outer loop
      vertex   5.230035e+00 -9.082024e-01 1.002509e+01
      vertex   5.186388e+00 -9.006231e-01 1.004995e+01
      vertex   5.217537e+00 -9.744616e-01 1.002509e+01
    endloop
  endfacet
  facet normal 4.809701e-01 -9.072086e-02 8.720307e-01
    outer loop
      vertex   5.217537e+00 -9.744616e-01 1.002509e+01
      vertex   5.186388e+00 -9.006231e-01 1.004995e+01
      vertex   5.173995e+00 -9.663293e-01 1.004995e+01
    endloop
  endfacet
  facet normal 4.802864e-01 -9.435463e-02 8.720219e-01
    outer loop
      vertex   5.217537e+00 -9.744616e-01 1.002509e+01
      vertex   5.173995e+00 -9.663293e-01 1.004995e+01
      vertex   5.193528e+00 -1.000000e+00 1.003555e+01
    endloop
  endfacet
  facet normal 4.772263e-01 -9.673629e-02 8.734398e-01
    outer loop
      vertex   5.193528e+00 -1.000000e+00 1.003555e+01
      vertex   5.173995e+00 -9.663293e-01 1.004995e+01
      vertex   5.129254e+00 -1.000000e+00 1.007066e+01
    endloop
  endfacet
  facet normal 4.760991e-01 -9.472455e-02 8.742751e-01
    outer loop
      vertex   5.129254e+00 -1.000000e+00 1.007066e+01
      vertex   5.173995e+00 -9.663293e-01 1.004995e+01
      vertex   5.130374e+00 -9.581823e-01 1.007459e+01
    endloop
  endfacet
  facet normal 4.719539e-01 -9.482301e-02 8.765090e-01
    outer loop
      vertex   5.129254e+00 -1.000000e+00 1.007066e+01
      vertex   5.130374e+00 -9.581823e-01 1.007459e+01
      vertex   5.086676e+00 -9.500210e-01 1.009900e+01
    endloop
  endfacet
  facet normal 4.730108e-01 -8.921958e-02 8.765276e-01
    outer loop
      vertex   5.086676e+00 -9.500210e-01 1.009900e+01
      vertex   5.130374e+00 -9.581823e-01 1.007459e+01
      vertex   5.098860e+00 -8.854237e-01 1.009900e+01
    endloop
  endfacet
  facet normal 4.690185e-01 -8.846655e-02 8.787464e-01
    outer loop
      vertex   5.086676e+00 -9.500210e-01 1.009900e+01
      vertex   5.098860e+00 -8.854237e-01 1.009900e+01
      vertex   5.054982e+00 -8.778042e-01 1.012318e+01
    endloop
  endfacet
  facet normal 4.701101e-01 -8.224694e-02 8.787673e-01
    outer loop
      vertex   5.054982e+00 -8.778042e-01 1.012318e+01
      vertex   5.098860e+00 -8.854237e-01 1.009900e+01
      vertex   5.066167e+00 -8.138762e-01 1.012318e+01
    endloop
  endfacet
  facet normal 4.661000e-01 -8.154537e-02 8.809660e-01
    outer loop
      vertex   5.054982e+00 -8.778042e-01 1.012318e+01
      vertex   5.066167e+00 -8.138762e-01 1.012318e+01
      vertex   5.022117e+00 -8.067998e-01 1.014714e+01
    endloop
  endfacet
  facet normal 4.670992e-01 -7.539007e-02 8.809851e-01
    outer loop
      vertex   5.022117e+00 -8.067998e-01 1.014714e+01
      vertex   5.066167e+00 -8.138762e-01 1.012318e+01
      vertex   5.032325e+00 -7.435561e-01 1.014714e+01
    endloop
  endfacet
  facet normal 4.644392e-01 -7.496075e-02 8.824268e-01
    outer loop
      vertex   5.022117e+00 -8.067998e-01 1.014714e+01
      vertex   5.032325e+00 -7.435561e-01 1.014714e+01
      vertex   5.000000e+00 -7.507188e-01 1.016355e+01
    endloop
  endfacet
  facet normal 4.636825e-01 -6.963595e-02 8.832607e-01
    outer loop
      vertex   5.000000e+00 -7.507188e-01 1.016355e+01
      vertex   5.032325e+00 -7.435561e-01 1.014714e+01
      vertex   5.000000e+00 -6.883057e-01 1.016847e+01
    endloop
  endfacet
  facet normal 4.648103e-01 -6.877330e-02 8.827353e-01
    outer loop
      vertex   5.000000e+00 -6.883057e-01 1.016847e+01
      vertex   5.032325e+00 -7.435561e-01 1.014714e+01
      vertex   5.041661e+00 -6.804565e-01 1.014714e+01
    endloop
  endfacet
  facet normal 4.641961e-01 -6.357789e-02 8.834477e-01
    outer loop
      vertex   5.000000e+00 -6.883057e-01 1.016847e+01
      vertex   5.041661e+00 -6.804565e-01 1.014714e+01
      vertex   5.000000e+00 -6.258593e-01 1.017296e+01
    endloop
  endfacet
  facet normal 4.651706e-01 -6.262404e-02 8.830031e-01
    outer loop
      vertex   5.000000e+00 -6.258593e-01 1.017296e+01
      vertex   5.041661e+00 -6.804565e-01 1.014714e+01
      vertex   5.050135e+00 -6.175163e-01 1.014714e+01
    endloop
  endfacet
  facet normal 4.650049e-01 -6.100809e-02 8.832035e-01
    outer loop
      vertex   5.000000e+00 -6.258593e-01 1.017296e+01
      vertex   5.050135e+00 -6.175163e-01 1.014714e+01
      vertex   5.005767e+00 -6.120911e-01 1.017088e+01
    endloop
  endfacet
  facet normal 4.655582e-01 -5.651603e-02 8.832109e-01
    outer loop
      vertex   5.005767e+00 -6.120911e-01 1.017088e+01
      vertex   5.050135e+00 -6.175163e-01 1.014714e+01
      vertex   5.013319e+00 -5.498768e-01 1.017088e+01
    endloop
  endfacet
  facet normal 4.652986e-01 -5.648453e-02 8.833497e-01
    outer loop
      vertex   5.005767e+00 -6.120911e-01 1.017088e+01
      vertex   5.013319e+00 -5.498768e-01 1.017088e+01
      vertex   5.000000e+00 -5.633817e-01 1.017703e+01
    endloop
  endfacet
  facet normal 4.614036e-01 -5.157699e-02 8.856898e-01
    outer loop
      vertex   5.000000e+00 -5.633817e-01 1.017703e+01
      vertex   5.013319e+00 -5.498768e-01 1.017088e+01
      vertex   5.000000e+00 -5.008747e-01 1.018067e+01
    endloop
  endfacet
  facet normal 4.647872e-01 -5.031792e-02 8.839915e-01
    outer loop
      vertex   5.000000e+00 -5.008747e-01 1.018067e+01
      vertex   5.013319e+00 -5.498768e-01 1.017088e+01
      vertex   5.020034e+00 -4.878499e-01 1.017088e+01
    endloop
  endfacet
  facet normal 4.623913e-01 -4.549246e-02 8.855082e-01
    outer loop
      vertex   5.000000e+00 -5.008747e-01 1.018067e+01
      vertex   5.020034e+00 -4.878499e-01 1.017088e+01
      vertex   5.000000e+00 -4.383405e-01 1.018388e+01
    endloop
  endfacet
  facet normal 4.647134e-01 -4.424988e-02 8.843548e-01
    outer loop
      vertex   5.000000e+00 -4.383405e-01 1.018388e+01
      vertex   5.020034e+00 -4.878499e-01 1.017088e+01
      vertex   5.025921e+00 -4.260245e-01 1.017088e+01
    endloop
  endfacet
  facet normal 4.629874e-01 -3.942079e-02 8.854878e-01
    outer loop
      vertex   5.000000e+00 -4.383405e-01 1.018388e+01
      vertex   5.025921e+00 -4.260245e-01 1.017088e+01
      vertex   5.000000e+00 -3.757808e-01 1.018667e+01
    endloop
  endfacet
  facet normal 4.647539e-01 -3.823476e-02 8.846140e-01
    outer loop
      vertex   5.000000e+00 -3.757808e-01 1.018667e+01
      vertex   5.025921e+00 -4.260245e-01 1.017088e+01
      vertex   5.030990e+00 -3.644143e-01 1.017088e+01
    endloop
  endfacet
  facet normal 4.634205e-01 -3.335363e-02 8.855106e-01
    outer loop
      vertex   5.000000e+00 -3.757808e-01 1.018667e+01
      vertex   5.030990e+00 -3.644143e-01 1.017088e+01
      vertex   5.000000e+00 -3.131977e-01 1.018903e+01
    endloop
  endfacet
  facet normal 4.648212e-01 -3.226021e-02 8.848167e-01
    outer loop
      vertex   5.000000e+00 -3.131977e-01 1.018903e+01
      vertex   5.030990e+00 -3.644143e-01 1.017088e+01
      vertex   5.035250e+00 -3.030329e-01 1.017088e+01
    endloop
  endfacet
  facet normal 4.637601e-01 -2.728842e-02 8.855404e-01
    outer loop
      vertex   5.000000e+00 -3.131977e-01 1.018903e+01
      vertex   5.035250e+00 -3.030329e-01 1.017088e+01
      vertex   5.000000e+00 -2.505931e-01 1.019096e+01
    endloop
  endfacet
  facet normal 4.648806e-01 -2.632149e-02 8.849821e-01
    outer loop
      vertex   5.000000e+00 -2.505931e-01 1.019096e+01
      vertex   5.035250e+00 -3.030329e-01 1.017088e+01
      vertex   5.038712e+00 -2.418932e-01 1.017088e+01
    endloop
  endfacet
  facet normal 4.640358e-01 -2.122406e-02 8.855621e-01
    outer loop
      vertex   5.000000e+00 -2.505931e-01 1.019096e+01
      vertex   5.038712e+00 -2.418932e-01 1.017088e+01
      vertex   5.000000e+00 -1.879691e-01 1.019246e+01
    endloop
  endfacet
  facet normal 4.649145e-01 -2.041639e-02 8.851201e-01
    outer loop
      vertex   5.000000e+00 -1.879691e-01 1.019246e+01
      vertex   5.038712e+00 -2.418932e-01 1.017088e+01
      vertex   5.041385e+00 -1.810080e-01 1.017088e+01
    endloop
  endfacet
  facet normal 4.642636e-01 -1.516003e-02 8.855673e-01
    outer loop
      vertex   5.000000e+00 -1.879691e-01 1.019246e+01
      vertex   5.041385e+00 -1.810080e-01 1.017088e+01
      vertex   5.000000e+00 -1.253275e-01 1.019353e+01
    endloop
  endfacet
  facet normal 4.649120e-01 -1.454389e-02 8.852374e-01
    outer loop
      vertex   5.000000e+00 -1.253275e-01 1.019353e+01
      vertex   5.041385e+00 -1.810080e-01 1.017088e+01
      vertex   5.043282e+00 -1.203895e-01 1.017088e+01
    endloop
  endfacet
  facet normal 4.644542e-01 -9.096027e-03 8.855504e-01
    outer loop
      vertex   5.000000e+00 -1.253275e-01 1.019353e+01
      vertex   5.043282e+00 -1.203895e-01 1.017088e+01
      vertex   5.000000e+00 -6.267026e-02 1.019417e+01
    endloop
  endfacet
  facet normal 4.648640e-01 -8.703550e-03 8.853393e-01
    outer loop
      vertex   5.000000e+00 -6.267026e-02 1.019417e+01
      vertex   5.043282e+00 -1.203895e-01 1.017088e+01
      vertex   5.044411e+00 -6.004964e-02 1.017088e+01
    endloop
  endfacet
  facet normal 4.646170e-01 -3.031945e-03 8.855065e-01
    outer loop
      vertex   5.000000e+00 -6.267026e-02 1.019417e+01
      vertex   5.044411e+00 -6.004964e-02 1.017088e+01
      vertex   5.000000e+00 0.000000e+00 1.019439e+01
    endloop
  endfacet
  facet normal 4.668189e-01 -9.516712e-04 8.843524e-01
    outer loop
      vertex   5.000000e+00 0.000000e+00 1.019439e+01
      vertex   5.044411e+00 -6.004964e-02 1.017088e+01
      vertex   5.089723e+00 -7.040842e-34 1.014703e+01
    endloop
  endfacet
  facet normal 4.688481e-01 -2.911194e-03 8.832740e-01
    outer loop
      vertex   5.089723e+00 -7.040842e-34 1.014703e+01
      vertex   5.044411e+00 -6.004964e-02 1.017088e+01
      vertex   5.089122e+00 -6.058188e-02 1.014714e+01
    endloop
  endfacet
  facet normal 4.729261e-01 -2.955953e-03 8.810971e-01
    outer loop
      vertex   5.089723e+00 -7.040842e-34 1.014703e+01
      vertex   5.089122e+00 -6.058188e-02 1.014714e+01
      vertex   5.133759e+00 -6.111325e-02 1.012318e+01
    endloop
  endfacet
  facet normal 4.728552e-01 -8.853167e-03 8.810957e-01
    outer loop
      vertex   5.133759e+00 -6.111325e-02 1.012318e+01
      vertex   5.089122e+00 -6.058188e-02 1.014714e+01
      vertex   5.132609e+00 -1.225218e-01 1.012318e+01
    endloop
  endfacet
  facet normal 4.769246e-01 -8.929358e-03 8.788989e-01
    outer loop
      vertex   5.133759e+00 -6.111325e-02 1.012318e+01
      vertex   5.132609e+00 -1.225218e-01 1.012318e+01
      vertex   5.177161e+00 -1.235853e-01 1.009900e+01
    endloop
  endfacet
  facet normal 4.767802e-01 -1.491516e-02 8.788960e-01
    outer loop
      vertex   5.177161e+00 -1.235853e-01 1.009900e+01
      vertex   5.132609e+00 -1.225218e-01 1.012318e+01
      vertex   5.175214e+00 -1.858130e-01 1.009900e+01
    endloop
  endfacet
  facet normal 4.808399e-01 -1.504216e-02 8.766794e-01
    outer loop
      vertex   5.177161e+00 -1.235853e-01 1.009900e+01
      vertex   5.175214e+00 -1.858130e-01 1.009900e+01
      vertex   5.219672e+00 -1.874093e-01 1.007459e+01
    endloop
  endfacet
  facet normal 4.806198e-01 -2.110608e-02 8.766750e-01
    outer loop
      vertex   5.219672e+00 -1.874093e-01 1.007459e+01
      vertex   5.175214e+00 -1.858130e-01 1.009900e+01
      vertex   5.216904e+00 -2.504477e-01 1.007459e+01
    endloop
  endfacet
  facet normal 4.846692e-01 -2.128391e-02 8.744385e-01
    outer loop
      vertex   5.219672e+00 -1.874093e-01 1.007459e+01
      vertex   5.216904e+00 -2.504477e-01 1.007459e+01
      vertex   5.261261e+00 -2.525771e-01 1.004995e+01
    endloop
  endfacet
  facet normal 4.843711e-01 -2.742504e-02 8.744327e-01
    outer loop
      vertex   5.261261e+00 -2.525771e-01 1.004995e+01
      vertex   5.216904e+00 -2.504477e-01 1.007459e+01
      vertex   5.257646e+00 -3.164172e-01 1.004995e+01
    endloop
  endfacet
  facet normal 4.851112e-01 -3.013044e-03 8.744473e-01
    outer loop
      vertex   5.267212e+00 -6.270191e-02 1.004995e+01
      vertex   5.267819e+00 -2.346947e-34 1.004983e+01
      vertex   5.222806e+00 -6.217328e-02 1.007459e+01
    endloop
  endfacet
  facet normal 4.831117e-01 -1.123138e-03 8.755580e-01
    outer loop
      vertex   5.222806e+00 -6.217328e-02 1.007459e+01
      vertex   5.267819e+00 -2.346947e-34 1.004983e+01
      vertex   5.178998e+00 -6.258526e-34 1.009884e+01
    endloop
  endfacet
  facet normal 4.810578e-01 -3.009451e-03 8.766837e-01
    outer loop
      vertex   5.222806e+00 -6.217328e-02 1.007459e+01
      vertex   5.178998e+00 -6.258526e-34 1.009884e+01
      vertex   5.178320e+00 -6.164372e-02 1.009900e+01
    endloop
  endfacet
  facet normal 4.769964e-01 -2.959064e-03 8.789003e-01
    outer loop
      vertex   5.178320e+00 -6.164372e-02 1.009900e+01
      vertex   5.178998e+00 -6.258526e-34 1.009884e+01
      vertex   5.133759e+00 -6.111325e-02 1.012318e+01
    endloop
  endfacet
  facet normal 4.769246e-01 -8.929358e-03 8.788989e-01
    outer loop
      vertex   5.178320e+00 -6.164372e-02 1.009900e+01
      vertex   5.133759e+00 -6.111325e-02 1.012318e+01
      vertex   5.177161e+00 -1.235853e-01 1.009900e+01
    endloop
  endfacet
  facet normal 4.749888e-01 -1.038286e-03 8.799912e-01
    outer loop
      vertex   5.178998e+00 -6.258526e-34 1.009884e+01
      vertex   5.089723e+00 -7.040842e-34 1.014703e+01
      vertex   5.133759e+00 -6.111325e-02 1.012318e+01
    endloop
  endfacet
  facet normal 4.584871e-01 -5.772978e-02 8.868240e-01
    outer loop
      vertex   5.000000e+00 -5.633817e-01 1.017703e+01
      vertex   5.000000e+00 -6.258593e-01 1.017296e+01
      vertex   5.005767e+00 -6.120911e-01 1.017088e+01
    endloop
  endfacet
  facet normal 4.630600e-01 -7.569819e-02 8.830884e-01
    outer loop
      vertex   5.000000e+00 -7.507188e-01 1.016355e+01
      vertex   5.000000e+00 -8.130968e-01 1.015820e+01
      vertex   5.022117e+00 -8.067998e-01 1.014714e+01
    endloop
  endfacet
  facet normal 4.641064e-01 -8.119657e-02 8.820501e-01
    outer loop
      vertex   5.022117e+00 -8.067998e-01 1.014714e+01
      vertex   5.000000e+00 -8.130968e-01 1.015820e+01
      vertex   5.011030e+00 -8.701719e-01 1.014714e+01
    endloop
  endfacet
  facet normal 4.661000e-01 -8.154537e-02 8.809660e-01
    outer loop
      vertex   5.022117e+00 -8.067998e-01 1.014714e+01
      vertex   5.011030e+00 -8.701719e-01 1.014714e+01
      vertex   5.054982e+00 -8.778042e-01 1.012318e+01
    endloop
  endfacet
  facet normal 4.650180e-01 -8.771196e-02 8.809455e-01
    outer loop
      vertex   5.054982e+00 -8.778042e-01 1.012318e+01
      vertex   5.011030e+00 -8.701719e-01 1.014714e+01
      vertex   5.042903e+00 -9.418457e-01 1.012318e+01
    endloop
  endfacet
  facet normal 4.690185e-01 -8.846655e-02 8.787464e-01
    outer loop
      vertex   5.054982e+00 -8.778042e-01 1.012318e+01
      vertex   5.042903e+00 -9.418457e-01 1.012318e+01
      vertex   5.086676e+00 -9.500210e-01 1.009900e+01
    endloop
  endfacet
  facet normal 4.680366e-01 -9.367551e-02 8.787301e-01
    outer loop
      vertex   5.086676e+00 -9.500210e-01 1.009900e+01
      vertex   5.042903e+00 -9.418457e-01 1.012318e+01
      vertex   5.064744e+00 -1.000000e+00 1.010535e+01
    endloop
  endfacet
  facet normal 4.714143e-01 -9.541123e-02 8.767356e-01
    outer loop
      vertex   5.086676e+00 -9.500210e-01 1.009900e+01
      vertex   5.064744e+00 -1.000000e+00 1.010535e+01
      vertex   5.129254e+00 -1.000000e+00 1.007066e+01
    endloop
  endfacet
  facet normal 4.621059e-01 -8.177618e-02 8.830463e-01
    outer loop
      vertex   5.000000e+00 -8.130968e-01 1.015820e+01
      vertex   5.000000e+00 -8.754376e-01 1.015243e+01
      vertex   5.011030e+00 -8.701719e-01 1.014714e+01
    endloop
  endfacet
  facet normal 4.641481e-01 -8.770113e-02 8.814051e-01
    outer loop
      vertex   5.011030e+00 -8.701719e-01 1.014714e+01
      vertex   5.000000e+00 -8.754376e-01 1.015243e+01
      vertex   5.000000e+00 -9.377393e-01 1.014623e+01
    endloop
  endfacet
  facet normal 4.648531e-01 -8.781104e-02 8.810226e-01
    outer loop
      vertex   5.011030e+00 -8.701719e-01 1.014714e+01
      vertex   5.000000e+00 -9.377393e-01 1.014623e+01
      vertex   5.042903e+00 -9.418457e-01 1.012318e+01
    endloop
  endfacet
  facet normal 4.641577e-01 -9.371883e-02 8.807806e-01
    outer loop
      vertex   5.042903e+00 -9.418457e-01 1.012318e+01
      vertex   5.000000e+00 -9.377393e-01 1.014623e+01
      vertex   5.000000e+00 -1.000000e+00 1.013961e+01
    endloop
  endfacet
  facet normal 4.655357e-01 -9.497905e-02 8.799179e-01
    outer loop
      vertex   5.042903e+00 -9.418457e-01 1.012318e+01
      vertex   5.000000e+00 -1.000000e+00 1.013961e+01
      vertex   5.064744e+00 -1.000000e+00 1.010535e+01
    endloop
  endfacet
  facet normal 4.769948e-01 -8.997103e-02 8.742890e-01
    outer loop
      vertex   5.130374e+00 -9.581823e-01 1.007459e+01
      vertex   5.173995e+00 -9.663293e-01 1.004995e+01
      vertex   5.142663e+00 -8.930301e-01 1.007459e+01
    endloop
  endfacet
  facet normal 4.769948e-01 -8.997103e-02 8.742890e-01
    outer loop
      vertex   5.142663e+00 -8.930301e-01 1.007459e+01
      vertex   5.173995e+00 -9.663293e-01 1.004995e+01
      vertex   5.186388e+00 -9.006231e-01 1.004995e+01
    endloop
  endfacet
  facet normal 4.781052e-01 -8.364571e-02 8.743105e-01
    outer loop
      vertex   5.142663e+00 -8.930301e-01 1.007459e+01
      vertex   5.186388e+00 -9.006231e-01 1.004995e+01
      vertex   5.154041e+00 -8.279932e-01 1.007459e+01
    endloop
  endfacet
  facet normal 4.781052e-01 -8.364571e-02 8.743105e-01
    outer loop
      vertex   5.154041e+00 -8.279932e-01 1.007459e+01
      vertex   5.186388e+00 -9.006231e-01 1.004995e+01
      vertex   5.197863e+00 -8.350332e-01 1.004995e+01
    endloop
  endfacet
  facet normal 4.791307e-01 -7.733197e-02 8.743303e-01
    outer loop
      vertex   5.154041e+00 -8.279932e-01 1.007459e+01
      vertex   5.197863e+00 -8.350332e-01 1.004995e+01
      vertex   5.164517e+00 -7.630882e-01 1.007459e+01
    endloop
  endfacet
  facet normal 4.791307e-01 -7.733197e-02 8.743303e-01
    outer loop
      vertex   5.164517e+00 -7.630882e-01 1.007459e+01
      vertex   5.197863e+00 -8.350332e-01 1.004995e+01
      vertex   5.208428e+00 -7.695763e-01 1.004995e+01
    endloop
  endfacet
  facet normal 4.800719e-01 -7.103141e-02 8.743486e-01
    outer loop
      vertex   5.164517e+00 -7.630882e-01 1.007459e+01
      vertex   5.208428e+00 -7.695763e-01 1.004995e+01
      vertex   5.174098e+00 -6.983310e-01 1.007459e+01
    endloop
  endfacet
  facet normal 4.800719e-01 -7.103141e-02 8.743486e-01
    outer loop
      vertex   5.174098e+00 -6.983310e-01 1.007459e+01
      vertex   5.208428e+00 -7.695763e-01 1.004995e+01
      vertex   5.218091e+00 -7.042686e-01 1.004995e+01
    endloop
  endfacet
  facet normal 4.809296e-01 -6.474561e-02 8.743653e-01
    outer loop
      vertex   5.174098e+00 -6.983310e-01 1.007459e+01
      vertex   5.218091e+00 -7.042686e-01 1.004995e+01
      vertex   5.182794e+00 -6.337375e-01 1.007459e+01
    endloop
  endfacet
  facet normal 4.809296e-01 -6.474561e-02 8.743653e-01
    outer loop
      vertex   5.182794e+00 -6.337375e-01 1.007459e+01
      vertex   5.218091e+00 -7.042686e-01 1.004995e+01
      vertex   5.226861e+00 -6.391259e-01 1.004995e+01
    endloop
  endfacet
  facet normal 4.817047e-01 -5.847613e-02 8.743804e-01
    outer loop
      vertex   5.182794e+00 -6.337375e-01 1.007459e+01
      vertex   5.226861e+00 -6.391259e-01 1.004995e+01
      vertex   5.190614e+00 -5.693230e-01 1.007459e+01
    endloop
  endfacet
  facet normal 4.817047e-01 -5.847613e-02 8.743804e-01
    outer loop
      vertex   5.190614e+00 -5.693230e-01 1.007459e+01
      vertex   5.226861e+00 -6.391259e-01 1.004995e+01
      vertex   5.234747e+00 -5.741637e-01 1.004995e+01
    endloop
  endfacet
  facet normal 4.823980e-01 -5.222447e-02 8.743940e-01
    outer loop
      vertex   5.190614e+00 -5.693230e-01 1.007459e+01
      vertex   5.234747e+00 -5.741637e-01 1.004995e+01
      vertex   5.197566e+00 -5.051025e-01 1.007459e+01
    endloop
  endfacet
  facet normal 4.823980e-01 -5.222447e-02 8.743940e-01
    outer loop
      vertex   5.197566e+00 -5.051025e-01 1.007459e+01
      vertex   5.234747e+00 -5.741637e-01 1.004995e+01
      vertex   5.241759e+00 -5.093972e-01 1.004995e+01
    endloop
  endfacet
  facet normal 4.830103e-01 -4.599211e-02 8.744059e-01
    outer loop
      vertex   5.197566e+00 -5.051025e-01 1.007459e+01
      vertex   5.241759e+00 -5.093972e-01 1.004995e+01
      vertex   5.203661e+00 -4.410907e-01 1.007459e+01
    endloop
  endfacet
  facet normal 4.830103e-01 -4.599211e-02 8.744059e-01
    outer loop
      vertex   5.203661e+00 -4.410907e-01 1.007459e+01
      vertex   5.241759e+00 -5.093972e-01 1.004995e+01
      vertex   5.247906e+00 -4.448411e-01 1.004995e+01
    endloop
  endfacet
  facet normal 4.835427e-01 -3.978049e-02 8.744164e-01
    outer loop
      vertex   5.203661e+00 -4.410907e-01 1.007459e+01
      vertex   5.247906e+00 -4.448411e-01 1.004995e+01
      vertex   5.208909e+00 -3.773017e-01 1.007459e+01
    endloop
  endfacet
  facet normal 4.835427e-01 -3.978049e-02 8.744164e-01
    outer loop
      vertex   5.208909e+00 -3.773017e-01 1.007459e+01
      vertex   5.247906e+00 -4.448411e-01 1.004995e+01
      vertex   5.253198e+00 -3.805097e-01 1.004995e+01
    endloop
  endfacet
  facet normal 4.839959e-01 -3.359101e-02 8.744253e-01
    outer loop
      vertex   5.208909e+00 -3.773017e-01 1.007459e+01
      vertex   5.253198e+00 -3.805097e-01 1.004995e+01
      vertex   5.213320e+00 -3.137496e-01 1.007459e+01
    endloop
  endfacet
  facet normal 4.839959e-01 -3.359101e-02 8.744253e-01
    outer loop
      vertex   5.213320e+00 -3.137496e-01 1.007459e+01
      vertex   5.253198e+00 -3.805097e-01 1.004995e+01
      vertex   5.257646e+00 -3.164172e-01 1.004995e+01
    endloop
  endfacet
  facet normal 4.843711e-01 -2.742504e-02 8.744327e-01
    outer loop
      vertex   5.213320e+00 -3.137496e-01 1.007459e+01
      vertex   5.257646e+00 -3.164172e-01 1.004995e+01
      vertex   5.216904e+00 -2.504477e-01 1.007459e+01
    endloop
  endfacet
  facet normal 4.730108e-01 -8.921958e-02 8.765276e-01
    outer loop
      vertex   5.130374e+00 -9.581823e-01 1.007459e+01
      vertex   5.142663e+00 -8.930301e-01 1.007459e+01
      vertex   5.098860e+00 -8.854237e-01 1.009900e+01
    endloop
  endfacet
  facet normal 4.741119e-01 -8.294706e-02 8.765488e-01
    outer loop
      vertex   5.098860e+00 -8.854237e-01 1.009900e+01
      vertex   5.142663e+00 -8.930301e-01 1.007459e+01
      vertex   5.110142e+00 -8.209408e-01 1.009900e+01
    endloop
  endfacet
  facet normal 4.701101e-01 -8.224694e-02 8.787673e-01
    outer loop
      vertex   5.098860e+00 -8.854237e-01 1.009900e+01
      vertex   5.110142e+00 -8.209408e-01 1.009900e+01
      vertex   5.066167e+00 -8.138762e-01 1.012318e+01
    endloop
  endfacet
  facet normal 4.711180e-01 -7.603872e-02 8.787866e-01
    outer loop
      vertex   5.066167e+00 -8.138762e-01 1.012318e+01
      vertex   5.110142e+00 -8.209408e-01 1.009900e+01
      vertex   5.076464e+00 -7.500778e-01 1.012318e+01
    endloop
  endfacet
  facet normal 4.670992e-01 -7.539007e-02 8.809851e-01
    outer loop
      vertex   5.066167e+00 -8.138762e-01 1.012318e+01
      vertex   5.076464e+00 -7.500778e-01 1.012318e+01
      vertex   5.032325e+00 -7.435561e-01 1.014714e+01
    endloop
  endfacet
  facet normal 4.680163e-01 -6.924766e-02 8.810026e-01
    outer loop
      vertex   5.032325e+00 -7.435561e-01 1.014714e+01
      vertex   5.076464e+00 -7.500778e-01 1.012318e+01
      vertex   5.041661e+00 -6.804565e-01 1.014714e+01
    endloop
  endfacet
  facet normal 4.741119e-01 -8.294706e-02 8.765488e-01
    outer loop
      vertex   5.110142e+00 -8.209408e-01 1.009900e+01
      vertex   5.142663e+00 -8.930301e-01 1.007459e+01
      vertex   5.154041e+00 -8.279932e-01 1.007459e+01
    endloop
  endfacet
  facet normal 4.751286e-01 -7.668602e-02 8.765683e-01
    outer loop
      vertex   5.110142e+00 -8.209408e-01 1.009900e+01
      vertex   5.154041e+00 -8.279932e-01 1.007459e+01
      vertex   5.120528e+00 -7.565886e-01 1.009900e+01
    endloop
  endfacet
  facet normal 4.751286e-01 -7.668602e-02 8.765683e-01
    outer loop
      vertex   5.120528e+00 -7.565886e-01 1.009900e+01
      vertex   5.154041e+00 -8.279932e-01 1.007459e+01
      vertex   5.164517e+00 -7.630882e-01 1.007459e+01
    endloop
  endfacet
  facet normal 4.760618e-01 -7.043807e-02 8.765864e-01
    outer loop
      vertex   5.120528e+00 -7.565886e-01 1.009900e+01
      vertex   5.164517e+00 -7.630882e-01 1.007459e+01
      vertex   5.130028e+00 -6.923830e-01 1.009900e+01
    endloop
  endfacet
  facet normal 4.760618e-01 -7.043807e-02 8.765864e-01
    outer loop
      vertex   5.130028e+00 -6.923830e-01 1.009900e+01
      vertex   5.164517e+00 -7.630882e-01 1.007459e+01
      vertex   5.174098e+00 -6.983310e-01 1.007459e+01
    endloop
  endfacet
  facet normal 4.769122e-01 -6.420476e-02 8.766028e-01
    outer loop
      vertex   5.130028e+00 -6.923830e-01 1.009900e+01
      vertex   5.174098e+00 -6.983310e-01 1.007459e+01
      vertex   5.138650e+00 -6.283397e-01 1.009900e+01
    endloop
  endfacet
  facet normal 4.769122e-01 -6.420476e-02 8.766028e-01
    outer loop
      vertex   5.138650e+00 -6.283397e-01 1.009900e+01
      vertex   5.174098e+00 -6.983310e-01 1.007459e+01
      vertex   5.182794e+00 -6.337375e-01 1.007459e+01
    endloop
  endfacet
  facet normal 4.776806e-01 -5.798763e-02 8.766177e-01
    outer loop
      vertex   5.138650e+00 -6.283397e-01 1.009900e+01
      vertex   5.182794e+00 -6.337375e-01 1.007459e+01
      vertex   5.146403e+00 -5.644738e-01 1.009900e+01
    endloop
  endfacet
  facet normal 4.776806e-01 -5.798763e-02 8.766177e-01
    outer loop
      vertex   5.146403e+00 -5.644738e-01 1.009900e+01
      vertex   5.182794e+00 -6.337375e-01 1.007459e+01
      vertex   5.190614e+00 -5.693230e-01 1.007459e+01
    endloop
  endfacet
  facet normal 4.783680e-01 -5.178818e-02 8.766311e-01
    outer loop
      vertex   5.146403e+00 -5.644738e-01 1.009900e+01
      vertex   5.190614e+00 -5.693230e-01 1.007459e+01
      vertex   5.153296e+00 -5.008003e-01 1.009900e+01
    endloop
  endfacet
  facet normal 4.783680e-01 -5.178818e-02 8.766311e-01
    outer loop
      vertex   5.153296e+00 -5.008003e-01 1.009900e+01
      vertex   5.190614e+00 -5.693230e-01 1.007459e+01
      vertex   5.197566e+00 -5.051025e-01 1.007459e+01
    endloop
  endfacet
  facet normal 4.789751e-01 -4.560787e-02 8.766429e-01
    outer loop
      vertex   5.153296e+00 -5.008003e-01 1.009900e+01
      vertex   5.197566e+00 -5.051025e-01 1.007459e+01
      vertex   5.159339e+00 -4.373337e-01 1.009900e+01
    endloop
  endfacet
  facet normal 4.789751e-01 -4.560787e-02 8.766429e-01
    outer loop
      vertex   5.159339e+00 -4.373337e-01 1.009900e+01
      vertex   5.197566e+00 -5.051025e-01 1.007459e+01
      vertex   5.203661e+00 -4.410907e-01 1.007459e+01
    endloop
  endfacet
  facet normal 4.795029e-01 -3.944814e-02 8.766532e-01
    outer loop
      vertex   5.159339e+00 -4.373337e-01 1.009900e+01
      vertex   5.203661e+00 -4.410907e-01 1.007459e+01
      vertex   5.164543e+00 -3.740881e-01 1.009900e+01
    endloop
  endfacet
  facet normal 4.795029e-01 -3.944814e-02 8.766532e-01
    outer loop
      vertex   5.164543e+00 -3.740881e-01 1.009900e+01
      vertex   5.203661e+00 -4.410907e-01 1.007459e+01
      vertex   5.208909e+00 -3.773017e-01 1.007459e+01
    endloop
  endfacet
  facet normal 4.799523e-01 -3.331037e-02 8.766620e-01
    outer loop
      vertex   5.164543e+00 -3.740881e-01 1.009900e+01
      vertex   5.208909e+00 -3.773017e-01 1.007459e+01
      vertex   5.168916e+00 -3.110772e-01 1.009900e+01
    endloop
  endfacet
  facet normal 4.799523e-01 -3.331037e-02 8.766620e-01
    outer loop
      vertex   5.168916e+00 -3.110772e-01 1.009900e+01
      vertex   5.208909e+00 -3.773017e-01 1.007459e+01
      vertex   5.213320e+00 -3.137496e-01 1.007459e+01
    endloop
  endfacet
  facet normal 4.803243e-01 -2.719591e-02 8.766692e-01
    outer loop
      vertex   5.168916e+00 -3.110772e-01 1.009900e+01
      vertex   5.213320e+00 -3.137496e-01 1.007459e+01
      vertex   5.172469e+00 -2.483145e-01 1.009900e+01
    endloop
  endfacet
  facet normal 4.803243e-01 -2.719591e-02 8.766692e-01
    outer loop
      vertex   5.172469e+00 -2.483145e-01 1.009900e+01
      vertex   5.213320e+00 -3.137496e-01 1.007459e+01
      vertex   5.216904e+00 -2.504477e-01 1.007459e+01
    endloop
  endfacet
  facet normal 4.806198e-01 -2.110608e-02 8.766750e-01
    outer loop
      vertex   5.172469e+00 -2.483145e-01 1.009900e+01
      vertex   5.216904e+00 -2.504477e-01 1.007459e+01
      vertex   5.175214e+00 -1.858130e-01 1.009900e+01
    endloop
  endfacet
  facet normal 4.711180e-01 -7.603872e-02 8.787866e-01
    outer loop
      vertex   5.110142e+00 -8.209408e-01 1.009900e+01
      vertex   5.120528e+00 -7.565886e-01 1.009900e+01
      vertex   5.076464e+00 -7.500778e-01 1.012318e+01
    endloop
  endfacet
  facet normal 4.720432e-01 -6.984347e-02 8.788044e-01
    outer loop
      vertex   5.076464e+00 -7.500778e-01 1.012318e+01
      vertex   5.120528e+00 -7.565886e-01 1.009900e+01
      vertex   5.085882e+00 -6.864248e-01 1.012318e+01
    endloop
  endfacet
  facet normal 4.680163e-01 -6.924766e-02 8.810026e-01
    outer loop
      vertex   5.076464e+00 -7.500778e-01 1.012318e+01
      vertex   5.085882e+00 -6.864248e-01 1.012318e+01
      vertex   5.041661e+00 -6.804565e-01 1.014714e+01
    endloop
  endfacet
  facet normal 4.688520e-01 -6.311965e-02 8.810186e-01
    outer loop
      vertex   5.041661e+00 -6.804565e-01 1.014714e+01
      vertex   5.085882e+00 -6.864248e-01 1.012318e+01
      vertex   5.050135e+00 -6.175163e-01 1.014714e+01
    endloop
  endfacet
  facet normal 4.720432e-01 -6.984347e-02 8.788044e-01
    outer loop
      vertex   5.085882e+00 -6.864248e-01 1.012318e+01
      vertex   5.120528e+00 -7.565886e-01 1.009900e+01
      vertex   5.130028e+00 -6.923830e-01 1.009900e+01
    endloop
  endfacet
  facet normal 4.728863e-01 -6.366276e-02 8.788206e-01
    outer loop
      vertex   5.085882e+00 -6.864248e-01 1.012318e+01
      vertex   5.130028e+00 -6.923830e-01 1.009900e+01
      vertex   5.094429e+00 -6.229326e-01 1.012318e+01
    endloop
  endfacet
  facet normal 4.728863e-01 -6.366276e-02 8.788206e-01
    outer loop
      vertex   5.094429e+00 -6.229326e-01 1.012318e+01
      vertex   5.130028e+00 -6.923830e-01 1.009900e+01
      vertex   5.138650e+00 -6.283397e-01 1.009900e+01
    endloop
  endfacet
  facet normal 4.736481e-01 -5.749810e-02 8.788353e-01
    outer loop
      vertex   5.094429e+00 -6.229326e-01 1.012318e+01
      vertex   5.138650e+00 -6.283397e-01 1.009900e+01
      vertex   5.102116e+00 -5.596163e-01 1.012318e+01
    endloop
  endfacet
  facet normal 4.736481e-01 -5.749810e-02 8.788353e-01
    outer loop
      vertex   5.102116e+00 -5.596163e-01 1.012318e+01
      vertex   5.138650e+00 -6.283397e-01 1.009900e+01
      vertex   5.146403e+00 -5.644738e-01 1.009900e+01
    endloop
  endfacet
  facet normal 4.743295e-01 -5.135097e-02 8.788484e-01
    outer loop
      vertex   5.102116e+00 -5.596163e-01 1.012318e+01
      vertex   5.146403e+00 -5.644738e-01 1.009900e+01
      vertex   5.108950e+00 -4.964907e-01 1.012318e+01
    endloop
  endfacet
  facet normal 4.743295e-01 -5.135097e-02 8.788484e-01
    outer loop
      vertex   5.108950e+00 -4.964907e-01 1.012318e+01
      vertex   5.146403e+00 -5.644738e-01 1.009900e+01
      vertex   5.153296e+00 -5.008003e-01 1.009900e+01
    endloop
  endfacet
  facet normal 4.749314e-01 -4.522283e-02 8.788601e-01
    outer loop
      vertex   5.108950e+00 -4.964907e-01 1.012318e+01
      vertex   5.153296e+00 -5.008003e-01 1.009900e+01
      vertex   5.114941e+00 -4.335702e-01 1.012318e+01
    endloop
  endfacet
  facet normal 4.749314e-01 -4.522283e-02 8.788601e-01
    outer loop
      vertex   5.114941e+00 -4.335702e-01 1.012318e+01
      vertex   5.153296e+00 -5.008003e-01 1.009900e+01
      vertex   5.159339e+00 -4.373337e-01 1.009900e+01
    endloop
  endfacet
  facet normal 4.754547e-01 -3.911509e-02 8.788702e-01
    outer loop
      vertex   5.114941e+00 -4.335702e-01 1.012318e+01
      vertex   5.159339e+00 -4.373337e-01 1.009900e+01
      vertex   5.120099e+00 -3.708689e-01 1.012318e+01
    endloop
  endfacet
  facet normal 4.754547e-01 -3.911509e-02 8.788702e-01
    outer loop
      vertex   5.120099e+00 -3.708689e-01 1.012318e+01
      vertex   5.159339e+00 -4.373337e-01 1.009900e+01
      vertex   5.164543e+00 -3.740881e-01 1.009900e+01
    endloop
  endfacet
  facet normal 4.759002e-01 -3.302913e-02 8.788789e-01
    outer loop
      vertex   5.120099e+00 -3.708689e-01 1.012318e+01
      vertex   5.164543e+00 -3.740881e-01 1.009900e+01
      vertex   5.124435e+00 -3.084003e-01 1.012318e+01
    endloop
  endfacet
  facet normal 4.759002e-01 -3.302913e-02 8.788789e-01
    outer loop
      vertex   5.124435e+00 -3.084003e-01 1.012318e+01
      vertex   5.164543e+00 -3.740881e-01 1.009900e+01
      vertex   5.168916e+00 -3.110772e-01 1.009900e+01
    endloop
  endfacet
  facet normal 4.762690e-01 -2.696630e-02 8.788861e-01
    outer loop
      vertex   5.124435e+00 -3.084003e-01 1.012318e+01
      vertex   5.168916e+00 -3.110772e-01 1.009900e+01
      vertex   5.127958e+00 -2.461777e-01 1.012318e+01
    endloop
  endfacet
  facet normal 4.762690e-01 -2.696630e-02 8.788861e-01
    outer loop
      vertex   5.127958e+00 -2.461777e-01 1.012318e+01
      vertex   5.168916e+00 -3.110772e-01 1.009900e+01
      vertex   5.172469e+00 -2.483145e-01 1.009900e+01
    endloop
  endfacet
  facet normal 4.765620e-01 -2.092788e-02 8.788918e-01
    outer loop
      vertex   5.127958e+00 -2.461777e-01 1.012318e+01
      vertex   5.172469e+00 -2.483145e-01 1.009900e+01
      vertex   5.130679e+00 -1.842140e-01 1.012318e+01
    endloop
  endfacet
  facet normal 4.765620e-01 -2.092788e-02 8.788918e-01
    outer loop
      vertex   5.130679e+00 -1.842140e-01 1.012318e+01
      vertex   5.172469e+00 -2.483145e-01 1.009900e+01
      vertex   5.175214e+00 -1.858130e-01 1.009900e+01
    endloop
  endfacet
  facet normal 4.767802e-01 -1.491516e-02 8.788960e-01
    outer loop
      vertex   5.130679e+00 -1.842140e-01 1.012318e+01
      vertex   5.175214e+00 -1.858130e-01 1.009900e+01
      vertex   5.132609e+00 -1.225218e-01 1.012318e+01
    endloop
  endfacet
  facet normal 4.688520e-01 -6.311965e-02 8.810186e-01
    outer loop
      vertex   5.085882e+00 -6.864248e-01 1.012318e+01
      vertex   5.094429e+00 -6.229326e-01 1.012318e+01
      vertex   5.050135e+00 -6.175163e-01 1.014714e+01
    endloop
  endfacet
  facet normal 4.696072e-01 -5.700756e-02 8.810330e-01
    outer loop
      vertex   5.050135e+00 -6.175163e-01 1.014714e+01
      vertex   5.094429e+00 -6.229326e-01 1.012318e+01
      vertex   5.057754e+00 -5.547506e-01 1.014714e+01
    endloop
  endfacet
  facet normal 4.655582e-01 -5.651603e-02 8.832109e-01
    outer loop
      vertex   5.050135e+00 -6.175163e-01 1.014714e+01
      vertex   5.057754e+00 -5.547506e-01 1.014714e+01
      vertex   5.013319e+00 -5.498768e-01 1.017088e+01
    endloop
  endfacet
  facet normal 4.662277e-01 -5.047387e-02 8.832237e-01
    outer loop
      vertex   5.013319e+00 -5.498768e-01 1.017088e+01
      vertex   5.057754e+00 -5.547506e-01 1.014714e+01
      vertex   5.020034e+00 -4.878499e-01 1.017088e+01
    endloop
  endfacet
  facet normal 4.696072e-01 -5.700756e-02 8.810330e-01
    outer loop
      vertex   5.057754e+00 -5.547506e-01 1.014714e+01
      vertex   5.094429e+00 -6.229326e-01 1.012318e+01
      vertex   5.102116e+00 -5.596163e-01 1.012318e+01
    endloop
  endfacet
  facet normal 4.702827e-01 -5.091287e-02 8.810460e-01
    outer loop
      vertex   5.057754e+00 -5.547506e-01 1.014714e+01
      vertex   5.102116e+00 -5.596163e-01 1.012318e+01
      vertex   5.064529e+00 -4.921739e-01 1.014714e+01
    endloop
  endfacet
  facet normal 4.702827e-01 -5.091287e-02 8.810460e-01
    outer loop
      vertex   5.064529e+00 -4.921739e-01 1.014714e+01
      vertex   5.102116e+00 -5.596163e-01 1.012318e+01
      vertex   5.108950e+00 -4.964907e-01 1.012318e+01
    endloop
  endfacet
  facet normal 4.708794e-01 -4.483700e-02 8.810575e-01
    outer loop
      vertex   5.064529e+00 -4.921739e-01 1.014714e+01
      vertex   5.108950e+00 -4.964907e-01 1.012318e+01
      vertex   5.070468e+00 -4.298005e-01 1.014714e+01
    endloop
  endfacet
  facet normal 4.708794e-01 -4.483700e-02 8.810575e-01
    outer loop
      vertex   5.070468e+00 -4.298005e-01 1.014714e+01
      vertex   5.108950e+00 -4.964907e-01 1.012318e+01
      vertex   5.114941e+00 -4.335702e-01 1.012318e+01
    endloop
  endfacet
  facet normal 4.713980e-01 -3.878136e-02 8.810675e-01
    outer loop
      vertex   5.070468e+00 -4.298005e-01 1.014714e+01
      vertex   5.114941e+00 -4.335702e-01 1.012318e+01
      vertex   5.075581e+00 -3.676443e-01 1.014714e+01
    endloop
  endfacet
  facet normal 4.713980e-01 -3.878136e-02 8.810675e-01
    outer loop
      vertex   5.075581e+00 -3.676443e-01 1.014714e+01
      vertex   5.114941e+00 -4.335702e-01 1.012318e+01
      vertex   5.120099e+00 -3.708689e-01 1.012318e+01
    endloop
  endfacet
  facet normal 4.718397e-01 -3.274732e-02 8.810760e-01
    outer loop
      vertex   5.075581e+00 -3.676443e-01 1.014714e+01
      vertex   5.120099e+00 -3.708689e-01 1.012318e+01
      vertex   5.079879e+00 -3.057188e-01 1.014714e+01
    endloop
  endfacet
  facet normal 4.718397e-01 -3.274732e-02 8.810760e-01
    outer loop
      vertex   5.079879e+00 -3.057188e-01 1.014714e+01
      vertex   5.120099e+00 -3.708689e-01 1.012318e+01
      vertex   5.124435e+00 -3.084003e-01 1.012318e+01
    endloop
  endfacet
  facet normal 4.722053e-01 -2.673621e-02 8.810831e-01
    outer loop
      vertex   5.079879e+00 -3.057188e-01 1.014714e+01
      vertex   5.124435e+00 -3.084003e-01 1.012318e+01
      vertex   5.083371e+00 -2.440372e-01 1.014714e+01
    endloop
  endfacet
  facet normal 4.722053e-01 -2.673621e-02 8.810831e-01
    outer loop
      vertex   5.083371e+00 -2.440372e-01 1.014714e+01
      vertex   5.124435e+00 -3.084003e-01 1.012318e+01
      vertex   5.127958e+00 -2.461777e-01 1.012318e+01
    endloop
  endfacet
  facet normal 4.724957e-01 -2.074931e-02 8.810887e-01
    outer loop
      vertex   5.083371e+00 -2.440372e-01 1.014714e+01
      vertex   5.127958e+00 -2.461777e-01 1.012318e+01
      vertex   5.086069e+00 -1.826123e-01 1.014714e+01
    endloop
  endfacet
  facet normal 4.724957e-01 -2.074931e-02 8.810887e-01
    outer loop
      vertex   5.086069e+00 -1.826123e-01 1.014714e+01
      vertex   5.127958e+00 -2.461777e-01 1.012318e+01
      vertex   5.130679e+00 -1.842140e-01 1.012318e+01
    endloop
  endfacet
  facet normal 4.727120e-01 -1.478789e-02 8.810929e-01
    outer loop
      vertex   5.086069e+00 -1.826123e-01 1.014714e+01
      vertex   5.130679e+00 -1.842140e-01 1.012318e+01
      vertex   5.087982e+00 -1.214565e-01 1.014714e+01
    endloop
  endfacet
  facet normal 4.727120e-01 -1.478789e-02 8.810929e-01
    outer loop
      vertex   5.087982e+00 -1.214565e-01 1.014714e+01
      vertex   5.130679e+00 -1.842140e-01 1.012318e+01
      vertex   5.132609e+00 -1.225218e-01 1.012318e+01
    endloop
  endfacet
  facet normal 4.728552e-01 -8.853167e-03 8.810957e-01
    outer loop
      vertex   5.087982e+00 -1.214565e-01 1.014714e+01
      vertex   5.132609e+00 -1.225218e-01 1.012318e+01
      vertex   5.089122e+00 -6.058188e-02 1.014714e+01
    endloop
  endfacet
  facet normal 4.668191e-01 -4.445038e-02 8.832350e-01
    outer loop
      vertex   5.025921e+00 -4.260245e-01 1.017088e+01
      vertex   5.020034e+00 -4.878499e-01 1.017088e+01
      vertex   5.064529e+00 -4.921739e-01 1.014714e+01
    endloop
  endfacet
  facet normal 4.662277e-01 -5.047387e-02 8.832237e-01
    outer loop
      vertex   5.064529e+00 -4.921739e-01 1.014714e+01
      vertex   5.020034e+00 -4.878499e-01 1.017088e+01
      vertex   5.057754e+00 -5.547506e-01 1.014714e+01
    endloop
  endfacet
  facet normal 4.668191e-01 -4.445038e-02 8.832350e-01
    outer loop
      vertex   5.025921e+00 -4.260245e-01 1.017088e+01
      vertex   5.064529e+00 -4.921739e-01 1.014714e+01
      vertex   5.070468e+00 -4.298005e-01 1.014714e+01
    endloop
  endfacet
  facet normal 4.673332e-01 -3.844696e-02 8.832449e-01
    outer loop
      vertex   5.030990e+00 -3.644143e-01 1.017088e+01
      vertex   5.025921e+00 -4.260245e-01 1.017088e+01
      vertex   5.070468e+00 -4.298005e-01 1.014714e+01
    endloop
  endfacet
  facet normal 4.673332e-01 -3.844696e-02 8.832449e-01
    outer loop
      vertex   5.030990e+00 -3.644143e-01 1.017088e+01
      vertex   5.070468e+00 -4.298005e-01 1.014714e+01
      vertex   5.075581e+00 -3.676443e-01 1.014714e+01
    endloop
  endfacet
  facet normal 4.677710e-01 -3.246494e-02 8.832533e-01
    outer loop
      vertex   5.035250e+00 -3.030329e-01 1.017088e+01
      vertex   5.030990e+00 -3.644143e-01 1.017088e+01
      vertex   5.075581e+00 -3.676443e-01 1.014714e+01
    endloop
  endfacet
  facet normal 4.677710e-01 -3.246494e-02 8.832533e-01
    outer loop
      vertex   5.035250e+00 -3.030329e-01 1.017088e+01
      vertex   5.075581e+00 -3.676443e-01 1.014714e+01
      vertex   5.079879e+00 -3.057188e-01 1.014714e+01
    endloop
  endfacet
  facet normal 4.681334e-01 -2.650566e-02 8.832602e-01
    outer loop
      vertex   5.038712e+00 -2.418932e-01 1.017088e+01
      vertex   5.035250e+00 -3.030329e-01 1.017088e+01
      vertex   5.079879e+00 -3.057188e-01 1.014714e+01
    endloop
  endfacet
  facet normal 4.681334e-01 -2.650566e-02 8.832602e-01
    outer loop
      vertex   5.038712e+00 -2.418932e-01 1.017088e+01
      vertex   5.079879e+00 -3.057188e-01 1.014714e+01
      vertex   5.083371e+00 -2.440372e-01 1.014714e+01
    endloop
  endfacet
  facet normal 4.846692e-01 -2.128391e-02 8.744385e-01
    outer loop
      vertex   5.219672e+00 -1.874093e-01 1.007459e+01
      vertex   5.261261e+00 -2.525771e-01 1.004995e+01
      vertex   5.264053e+00 -1.890027e-01 1.004995e+01
    endloop
  endfacet
  facet normal 4.684212e-01 -2.057039e-02 8.832658e-01
    outer loop
      vertex   5.041385e+00 -1.810080e-01 1.017088e+01
      vertex   5.038712e+00 -2.418932e-01 1.017088e+01
      vertex   5.083371e+00 -2.440372e-01 1.014714e+01
    endloop
  endfacet
  facet normal 4.684212e-01 -2.057039e-02 8.832658e-01
    outer loop
      vertex   5.041385e+00 -1.810080e-01 1.017088e+01
      vertex   5.083371e+00 -2.440372e-01 1.014714e+01
      vertex   5.086069e+00 -1.826123e-01 1.014714e+01
    endloop
  endfacet
  facet normal 4.848912e-01 -1.516890e-02 8.744429e-01
    outer loop
      vertex   5.219672e+00 -1.874093e-01 1.007459e+01
      vertex   5.264053e+00 -1.890027e-01 1.004995e+01
      vertex   5.221636e+00 -1.246470e-01 1.007459e+01
    endloop
  endfacet
  facet normal 4.848912e-01 -1.516890e-02 8.744429e-01
    outer loop
      vertex   5.221636e+00 -1.246470e-01 1.007459e+01
      vertex   5.264053e+00 -1.890027e-01 1.004995e+01
      vertex   5.266033e+00 -1.257068e-01 1.004995e+01
    endloop
  endfacet
  facet normal 4.850381e-01 -9.081266e-03 8.744458e-01
    outer loop
      vertex   5.221636e+00 -1.246470e-01 1.007459e+01
      vertex   5.266033e+00 -1.257068e-01 1.004995e+01
      vertex   5.222806e+00 -6.217328e-02 1.007459e+01
    endloop
  endfacet
  facet normal 4.850381e-01 -9.081266e-03 8.744458e-01
    outer loop
      vertex   5.222806e+00 -6.217328e-02 1.007459e+01
      vertex   5.266033e+00 -1.257068e-01 1.004995e+01
      vertex   5.267212e+00 -6.270191e-02 1.004995e+01
    endloop
  endfacet
  facet normal 4.686356e-01 -1.466037e-02 8.832699e-01
    outer loop
      vertex   5.043282e+00 -1.203895e-01 1.017088e+01
      vertex   5.041385e+00 -1.810080e-01 1.017088e+01
      vertex   5.086069e+00 -1.826123e-01 1.014714e+01
    endloop
  endfacet
  facet normal 4.686356e-01 -1.466037e-02 8.832699e-01
    outer loop
      vertex   5.043282e+00 -1.203895e-01 1.017088e+01
      vertex   5.086069e+00 -1.826123e-01 1.014714e+01
      vertex   5.087982e+00 -1.214565e-01 1.014714e+01
    endloop
  endfacet
  facet normal 4.809856e-01 -9.005392e-03 8.766822e-01
    outer loop
      vertex   5.178320e+00 -6.164372e-02 1.009900e+01
      vertex   5.177161e+00 -1.235853e-01 1.009900e+01
      vertex   5.221636e+00 -1.246470e-01 1.007459e+01
    endloop
  endfacet
  facet normal 4.808399e-01 -1.504216e-02 8.766794e-01
    outer loop
      vertex   5.221636e+00 -1.246470e-01 1.007459e+01
      vertex   5.177161e+00 -1.235853e-01 1.009900e+01
      vertex   5.219672e+00 -1.874093e-01 1.007459e+01
    endloop
  endfacet
  facet normal 4.809856e-01 -9.005392e-03 8.766822e-01
    outer loop
      vertex   5.178320e+00 -6.164372e-02 1.009900e+01
      vertex   5.221636e+00 -1.246470e-01 1.007459e+01
      vertex   5.222806e+00 -6.217328e-02 1.007459e+01
    endloop
  endfacet
  facet normal 4.687775e-01 -8.776823e-03 8.832727e-01
    outer loop
      vertex   5.044411e+00 -6.004964e-02 1.017088e+01
      vertex   5.043282e+00 -1.203895e-01 1.017088e+01
      vertex   5.087982e+00 -1.214565e-01 1.014714e+01
    endloop
  endfacet
  facet normal 4.687775e-01 -8.776823e-03 8.832727e-01
    outer loop
      vertex   5.044411e+00 -6.004964e-02 1.017088e+01
      vertex   5.087982e+00 -1.214565e-01 1.014714e+01
      vertex   5.089122e+00 -6.058188e-02 1.014714e+01
    endloop
  endfacet
  facet normal 7.847311e-33 1.000000e+00 0.000000e+00
    outer loop
      vertex   5.000000e+00 0.000000e+00 1.019439e+01
      vertex   5.089723e+00 -7.040842e-34 1.014703e+01
      vertex   5.000000e+00 0.000000e+00 1.000000e+01
    endloop
  endfacet
  facet normal 1.285221e-33 1.000000e+00 4.004556e-33
    outer loop
      vertex   5.000000e+00 0.000000e+00 1.000000e+01
      vertex   5.089723e+00 -7.040842e-34 1.014703e+01
      vertex   5.178998e+00 -6.258526e-34 1.009884e+01
    endloop
  endfacet
  facet normal -4.551360e-34 1.000000e+00 7.156393e-33
    outer loop
      vertex   5.000000e+00 0.000000e+00 1.000000e+01
      vertex   5.178998e+00 -6.258526e-34 1.009884e+01
      vertex   5.267819e+00 -2.346947e-34 1.004983e+01
    endloop
  endfacet
  facet normal 0.000000e+00 1.000000e+00 4.710094e-33
    outer loop
      vertex   5.267819e+00 -2.346947e-34 1.004983e+01
      vertex   5.356183e+00 0.000000e+00 1.000000e+01
      vertex   5.000000e+00 0.000000e+00 1.000000e+01
    endloop
  endfacet
  facet normal -0.000000e+00 0.000000e+00 -1.000000e+00
    outer loop
      vertex   5.356183e+00 0.000000e+00 1.000000e+01
      vertex   5.355795e+00 -6.294945e-02 1.000000e+01
      vertex   5.000000e+00 0.000000e+00 1.000000e+01
    endloop
  endfacet
  facet normal 0.000000e+00 0.000000e+00 -1.000000e+00
    outer loop
      vertex   5.000000e+00 0.000000e+00 1.000000e+01
      vertex   5.355795e+00 -6.294945e-02 1.000000e+01
      vertex   5.354634e+00 -1.258707e-01 1.000000e+01
    endloop
  endfacet
  facet normal 0.000000e+00 0.000000e+00 -1.000000e+00
    outer loop
      vertex   5.000000e+00 0.000000e+00 1.000000e+01
      vertex   5.354634e+00 -1.258707e-01 1.000000e+01
      vertex   5.352700e+00 -1.887569e-01 1.000000e+01
    endloop
  endfacet
  facet normal -0.000000e+00 0.000000e+00 -1.000000e+00
    outer loop
      vertex   5.352700e+00 -1.887569e-01 1.000000e+01
      vertex   5.349993e+00 -2.516013e-01 1.000000e+01
      vertex   5.000000e+00 0.000000e+00 1.000000e+01
    endloop
  endfacet
  facet normal 0.000000e+00 0.000000e+00 -1.000000e+00
    outer loop
      vertex   5.000000e+00 0.000000e+00 1.000000e+01
      vertex   5.349993e+00 -2.516013e-01 1.000000e+01
      vertex   5.346515e+00 -3.143971e-01 1.000000e+01
    endloop
  endfacet
  facet normal 0.000000e+00 0.000000e+00 -1.000000e+00
    outer loop
      vertex   5.000000e+00 0.000000e+00 1.000000e+01
      vertex   5.346515e+00 -3.143971e-01 1.000000e+01
      vertex   5.342267e+00 -3.771375e-01 1.000000e+01
    endloop
  endfacet
  facet normal -0.000000e+00 0.000000e+00 -1.000000e+00
    outer loop
      vertex   5.342267e+00 -3.771375e-01 1.000000e+01
      vertex   5.337248e+00 -4.398157e-01 1.000000e+01
      vertex   5.000000e+00 0.000000e+00 1.000000e+01
    endloop
  endfacet
  facet normal 0.000000e+00 0.000000e+00 -1.000000e+00
    outer loop
      vertex   5.000000e+00 0.000000e+00 1.000000e+01
      vertex   5.337248e+00 -4.398157e-01 1.000000e+01
      vertex   5.331460e+00 -5.024249e-01 1.000000e+01
    endloop
  endfacet
  facet normal 0.000000e+00 0.000000e+00 -1.000000e+00
    outer loop
      vertex   5.000000e+00 0.000000e+00 1.000000e+01
      vertex   5.331460e+00 -5.024249e-01 1.000000e+01
      vertex   5.324904e+00 -5.649583e-01 1.000000e+01
    endloop
  endfacet
  facet normal -0.000000e+00 0.000000e+00 -1.000000e+00
    outer loop
      vertex   5.324904e+00 -5.649583e-01 1.000000e+01
      vertex   5.317580e+00 -6.274092e-01 1.000000e+01
      vertex   5.000000e+00 0.000000e+00 1.000000e+01
    endloop
  endfacet
  facet normal 0.000000e+00 0.000000e+00 -1.000000e+00
    outer loop
      vertex   5.000000e+00 0.000000e+00 1.000000e+01
      vertex   5.317580e+00 -6.274092e-01 1.000000e+01
      vertex   5.309489e+00 -6.897707e-01 1.000000e+01
    endloop
  endfacet
  facet normal 0.000000e+00 0.000000e+00 -1.000000e+00
    outer loop
      vertex   5.000000e+00 0.000000e+00 1.000000e+01
      vertex   5.309489e+00 -6.897707e-01 1.000000e+01
      vertex   5.000000e+00 -1.000000e+00 1.000000e+01
    endloop
  endfacet
  facet normal 0.000000e+00 0.000000e+00 -1.000000e+00
    outer loop
      vertex   5.000000e+00 -1.000000e+00 1.000000e+01
      vertex   5.309489e+00 -6.897707e-01 1.000000e+01
      vertex   5.300633e+00 -7.520361e-01 1.000000e+01
    endloop
  endfacet
  facet normal 0.000000e+00 0.000000e+00 -1.000000e+00
    outer loop
      vertex   5.000000e+00 -1.000000e+00 1.000000e+01
      vertex   5.300633e+00 -7.520361e-01 1.000000e+01
      vertex   5.291011e+00 -8.141985e-01 1.000000e+01
    endloop
  endfacet
  facet normal 0.000000e+00 0.000000e+00 -1.000000e+00
    outer loop
      vertex   5.291011e+00 -8.141985e-01 1.000000e+01
      vertex   5.280625e+00 -8.762511e-01 1.000000e+01
      vertex   5.000000e+00 -1.000000e+00 1.000000e+01
    endloop
  endfacet
  facet normal 0.000000e+00 0.000000e+00 -1.000000e+00
    outer loop
      vertex   5.000000e+00 -1.000000e+00 1.000000e+01
      vertex   5.280625e+00 -8.762511e-01 1.000000e+01
      vertex   5.269475e+00 -9.381872e-01 1.000000e+01
    endloop
  endfacet
  facet normal 0.000000e+00 0.000000e+00 -1.000000e+00
    outer loop
      vertex   5.000000e+00 -1.000000e+00 1.000000e+01
      vertex   5.269475e+00 -9.381872e-01 1.000000e+01
      vertex   5.257563e+00 -1.000000e+00 1.000000e+01
    endloop
  endfacet
  facet normal 0.000000e+00 -1.000000e+00 0.000000e+00
    outer loop
      vertex   5.257563e+00 -1.000000e+00 1.000000e+01
      vertex   5.193528e+00 -1.000000e+00 1.003555e+01
      vertex   5.000000e+00 -1.000000e+00 1.000000e+01
    endloop
  endfacet
  facet normal 0.000000e+00 -1.000000e+00 0.000000e+00
    outer loop
      vertex   5.000000e+00 -1.000000e+00 1.000000e+01
      vertex   5.193528e+00 -1.000000e+00 1.003555e+01
      vertex   5.129254e+00 -1.000000e+00 1.007066e+01
    endloop
  endfacet
  facet normal 0.000000e+00 -1.000000e+00 0.000000e+00
    outer loop
      vertex   5.000000e+00 -1.000000e+00 1.000000e+01
      vertex   5.129254e+00 -1.000000e+00 1.007066e+01
      vertex   5.064744e+00 -1.000000e+00 1.010535e+01
    endloop
  endfacet
  facet normal -0.000000e+00 -1.000000e+00 0.000000e+00
    outer loop
      vertex   5.064744e+00 -1.000000e+00 1.010535e+01
      vertex   5.000000e+00 -1.000000e+00 1.013961e+01
      vertex   5.000000e+00 -1.000000e+00 1.000000e+01
    endloop
  endfacet
  facet normal -1.000000e+00 0.000000e+00 0.000000e+00
    outer loop
      vertex   5.000000e+00 -1.000000e+00 1.013961e+01
      vertex   5.000000e+00 -9.377393e-01 1.014623e+01
      vertex   5.000000e+00 -1.000000e+00 1.000000e+01
    endloop
  endfacet
  facet normal -1.000000e+00 0.000000e+00 0.000000e+00
    outer loop
      vertex   5.000000e+00 -1.000000e+00 1.000000e+01
      vertex   5.000000e+00 -9.377393e-01 1.014623e+01
      vertex   5.000000e+00 -8.754376e-01 1.015243e+01
    endloop
  endfacet
  facet normal -1.000000e+00 0.000000e+00 0.000000e+00
    outer loop
      vertex   5.000000e+00 -1.000000e+00 1.000000e+01
      vertex   5.000000e+00 -8.754376e-01 1.015243e+01
      vertex   5.000000e+00 -8.130968e-01 1.015820e+01
    endloop
  endfacet
  facet normal -1.000000e+00 0.000000e+00 -0.000000e+00
    outer loop
      vertex   5.000000e+00 -8.130968e-01 1.015820e+01
      vertex   5.000000e+00 -7.507188e-01 1.016355e+01
      vertex   5.000000e+00 -1.000000e+00 1.000000e+01
    endloop
  endfacet
  facet normal -1.000000e+00 0.000000e+00 0.000000e+00
    outer loop
      vertex   5.000000e+00 -1.000000e+00 1.000000e+01
      vertex   5.000000e+00 -7.507188e-01 1.016355e+01
      vertex   5.000000e+00 0.000000e+00 1.000000e+01
    endloop
  endfacet
  facet normal -1.000000e+00 0.000000e+00 0.000000e+00
    outer loop
      vertex   5.000000e+00 0.000000e+00 1.000000e+01
      vertex   5.000000e+00 -7.507188e-01 1.016355e+01
      vertex   5.000000e+00 -6.883057e-01 1.016847e+01
    endloop
  endfacet
  facet normal -1.000000e+00 -1.099133e-14 -4.490649e-14
    outer loop
      vertex   5.000000e+00 0.000000e+00 1.000000e+01
      vertex   5.000000e+00 -6.883057e-01 1.016847e+01
      vertex   5.000000e+00 -6.258593e-01 1.017296e+01
    endloop
  endfacet
  facet normal -1.000000e+00 2.705494e-16 -4.156082e-15
    outer loop
      vertex   5.000000e+00 -6.258593e-01 1.017296e+01
      vertex   5.000000e+00 -5.633817e-01 1.017703e+01
      vertex   5.000000e+00 0.000000e+00 1.000000e+01
    endloop
  endfacet
  facet normal -1.000000e+00 2.464839e-16 -4.232668e-15
    outer loop
      vertex   5.000000e+00 0.000000e+00 1.000000e+01
      vertex   5.000000e+00 -5.633817e-01 1.017703e+01
      vertex   5.000000e+00 -5.008747e-01 1.018067e+01
    endloop
  endfacet
  facet normal -1.000000e+00 1.265345e-14 3.016317e-14
    outer loop
      vertex   5.000000e+00 0.000000e+00 1.000000e+01
      vertex   5.000000e+00 -5.008747e-01 1.018067e+01
      vertex   5.000000e+00 -4.383405e-01 1.018388e+01
    endloop
  endfacet
  facet normal -1.000000e+00 -1.283519e-14 -3.059640e-14
    outer loop
      vertex   5.000000e+00 -4.383405e-01 1.018388e+01
      vertex   5.000000e+00 -3.757808e-01 1.018667e+01
      vertex   5.000000e+00 0.000000e+00 1.000000e+01
    endloop
  endfacet
  facet normal -1.000000e+00 1.665851e-16 -4.422692e-15
    outer loop
      vertex   5.000000e+00 0.000000e+00 1.000000e+01
      vertex   5.000000e+00 -3.757808e-01 1.018667e+01
      vertex   5.000000e+00 -3.131977e-01 1.018903e+01
    endloop
  endfacet
  facet normal -1.000000e+00 -1.336018e-14 -2.683521e-14
    outer loop
      vertex   5.000000e+00 0.000000e+00 1.000000e+01
      vertex   5.000000e+00 -3.131977e-01 1.018903e+01
      vertex   5.000000e+00 -2.505931e-01 1.019096e+01
    endloop
  endfacet
  facet normal -1.000000e+00 1.396638e-14 9.025791e-15
    outer loop
      vertex   5.000000e+00 -2.505931e-01 1.019096e+01
      vertex   5.000000e+00 -1.879691e-01 1.019246e+01
      vertex   5.000000e+00 0.000000e+00 1.000000e+01
    endloop
  endfacet
  facet normal -1.000000e+00 -1.386786e-14 -1.815949e-14
    outer loop
      vertex   5.000000e+00 0.000000e+00 1.000000e+01
      vertex   5.000000e+00 -1.879691e-01 1.019246e+01
      vertex   5.000000e+00 -1.253275e-01 1.019353e+01
    endloop
  endfacet
  facet normal -1.000000e+00 9.365786e-17 -9.118131e-15
    outer loop
      vertex   5.000000e+00 0.000000e+00 1.000000e+01
      vertex   5.000000e+00 -1.253275e-01 1.019353e+01
      vertex   5.000000e+00 -6.267026e-02 1.019417e+01
    endloop
  endfacet
  facet normal -1.000000e+00 2.834449e-14 0.000000e+00
    outer loop
      vertex   5.000000e+00 -6.267026e-02 1.019417e+01
      vertex   5.000000e+00 0.000000e+00 1.019439e+01
      vertex   5.000000e+00 0.000000e+00 1.000000e+01
    endloop
  endfacet
endsolid
