solid ASCII
  facet normal 9.369687e-02 -4.915770e-01 8.657788e-01
    outer loop
      vertex   1.000000e+00 -5.071769e+00 1.004057e+01
      vertex   1.000000e+00 -5.143223e+00 1.000000e+01
      vertex   1.022720e+00 -5.067405e+00 1.004059e+01
    endloop
  endfacet
  facet normal 9.487904e-02 -4.917958e-01 8.655258e-01
    outer loop
      vertex   1.022720e+00 -5.067405e+00 1.004059e+01
      vertex   1.000000e+00 -5.143223e+00 1.000000e+01
      vertex   1.074324e+00 -5.128885e+00 1.000000e+01
    endloop
  endfacet
  facet normal 9.637435e-02 -4.908034e-01 8.659238e-01
    outer loop
      vertex   1.022720e+00 -5.067405e+00 1.004059e+01
      vertex   1.074324e+00 -5.128885e+00 1.000000e+01
      vertex   1.058878e+00 -5.060305e+00 1.004059e+01
    endloop
  endfacet
  facet normal 9.971734e-02 -4.900717e-01 8.659597e-01
    outer loop
      vertex   1.058878e+00 -5.060305e+00 1.004059e+01
      vertex   1.074324e+00 -5.128885e+00 1.000000e+01
      vertex   1.095061e+00 -5.052943e+00 1.004059e+01
    endloop
  endfacet
  facet normal 9.857187e-02 -4.844422e-01 8.692522e-01
    outer loop
      vertex   1.058878e+00 -5.060305e+00 1.004059e+01
      vertex   1.095061e+00 -5.052943e+00 1.004059e+01
      vertex   1.073702e+00 -5.000000e+00 1.007252e+01
    endloop
  endfacet
  facet normal 1.017954e-01 -4.833008e-01 8.695160e-01
    outer loop
      vertex   1.073702e+00 -5.000000e+00 1.007252e+01
      vertex   1.095061e+00 -5.052943e+00 1.004059e+01
      vertex   1.131265e+00 -5.045317e+00 1.004059e+01
    endloop
  endfacet
  facet normal 1.020794e-01 -4.830247e-01 8.696361e-01
    outer loop
      vertex   1.073702e+00 -5.000000e+00 1.007252e+01
      vertex   1.131265e+00 -5.045317e+00 1.004059e+01
      vertex   1.147341e+00 -5.000000e+00 1.006387e+01
    endloop
  endfacet
  facet normal 1.072125e-01 -4.841938e-01 8.683673e-01
    outer loop
      vertex   1.147341e+00 -5.000000e+00 1.006387e+01
      vertex   1.131265e+00 -5.045317e+00 1.004059e+01
      vertex   1.203726e+00 -5.029272e+00 1.004059e+01
    endloop
  endfacet
  facet normal 1.089235e-01 -4.817911e-01 8.694901e-01
    outer loop
      vertex   1.147341e+00 -5.000000e+00 1.006387e+01
      vertex   1.203726e+00 -5.029272e+00 1.004059e+01
      vertex   1.220913e+00 -5.000000e+00 1.005466e+01
    endloop
  endfacet
  facet normal 1.141938e-01 -4.839763e-01 8.675982e-01
    outer loop
      vertex   1.220913e+00 -5.000000e+00 1.005466e+01
      vertex   1.203726e+00 -5.029272e+00 1.004059e+01
      vertex   1.276240e+00 -5.012163e+00 1.004059e+01
    endloop
  endfacet
  facet normal 1.158704e-01 -4.791725e-01 8.700390e-01
    outer loop
      vertex   1.220913e+00 -5.000000e+00 1.005466e+01
      vertex   1.276240e+00 -5.012163e+00 1.004059e+01
      vertex   1.294415e+00 -5.000000e+00 1.004487e+01
    endloop
  endfacet
  facet normal 1.207701e-01 -4.851011e-01 8.660782e-01
    outer loop
      vertex   1.294415e+00 -5.000000e+00 1.004487e+01
      vertex   1.276240e+00 -5.012163e+00 1.004059e+01
      vertex   1.295896e+00 -5.079737e+00 1.000000e+01
    endloop
  endfacet
  facet normal 1.217787e-01 -4.850264e-01 8.659788e-01
    outer loop
      vertex   1.294415e+00 -5.000000e+00 1.004487e+01
      vertex   1.295896e+00 -5.079737e+00 1.000000e+01
      vertex   1.369250e+00 -5.061319e+00 1.000000e+01
    endloop
  endfacet
  facet normal 1.016708e-01 -4.903880e-01 8.655534e-01
    outer loop
      vertex   1.074324e+00 -5.128885e+00 1.000000e+01
      vertex   1.148422e+00 -5.113522e+00 1.000000e+01
      vertex   1.095061e+00 -5.052943e+00 1.004059e+01
    endloop
  endfacet
  facet normal 1.030813e-01 -4.894061e-01 8.659422e-01
    outer loop
      vertex   1.095061e+00 -5.052943e+00 1.004059e+01
      vertex   1.148422e+00 -5.113522e+00 1.000000e+01
      vertex   1.131265e+00 -5.045317e+00 1.004059e+01
    endloop
  endfacet
  facet normal 1.080972e-01 -4.881892e-01 8.660175e-01
    outer loop
      vertex   1.131265e+00 -5.045317e+00 1.004059e+01
      vertex   1.148422e+00 -5.113522e+00 1.000000e+01
      vertex   1.203726e+00 -5.029272e+00 1.004059e+01
    endloop
  endfacet
  facet normal 1.083102e-01 -4.882890e-01 8.659346e-01
    outer loop
      vertex   1.203726e+00 -5.029272e+00 1.004059e+01
      vertex   1.148422e+00 -5.113522e+00 1.000000e+01
      vertex   1.222283e+00 -5.097139e+00 1.000000e+01
    endloop
  endfacet
  facet normal 1.148093e-01 -4.865849e-01 8.660565e-01
    outer loop
      vertex   1.203726e+00 -5.029272e+00 1.004059e+01
      vertex   1.222283e+00 -5.097139e+00 1.000000e+01
      vertex   1.276240e+00 -5.012163e+00 1.004059e+01
    endloop
  endfacet
  facet normal 1.150528e-01 -4.866947e-01 8.659626e-01
    outer loop
      vertex   1.276240e+00 -5.012163e+00 1.004059e+01
      vertex   1.222283e+00 -5.097139e+00 1.000000e+01
      vertex   1.295896e+00 -5.079737e+00 1.000000e+01
    endloop
  endfacet
  facet normal 1.222126e-01 -4.846190e-01 8.661458e-01
    outer loop
      vertex   1.294415e+00 -5.000000e+00 1.004487e+01
      vertex   1.369250e+00 -5.061319e+00 1.000000e+01
      vertex   1.367844e+00 -5.000000e+00 1.003451e+01
    endloop
  endfacet
  facet normal 1.287057e-01 -4.841031e-01 8.654935e-01
    outer loop
      vertex   1.367844e+00 -5.000000e+00 1.003451e+01
      vertex   1.369250e+00 -5.061319e+00 1.000000e+01
      vertex   1.442334e+00 -5.041889e+00 1.000000e+01
    endloop
  endfacet
  facet normal 1.290173e-01 -4.836976e-01 8.656739e-01
    outer loop
      vertex   1.367844e+00 -5.000000e+00 1.003451e+01
      vertex   1.442334e+00 -5.041889e+00 1.000000e+01
      vertex   1.441197e+00 -5.000000e+00 1.002357e+01
    endloop
  endfacet
  facet normal 1.356461e-01 -4.831266e-01 8.649791e-01
    outer loop
      vertex   1.441197e+00 -5.000000e+00 1.002357e+01
      vertex   1.442334e+00 -5.041889e+00 1.000000e+01
      vertex   1.515137e+00 -5.021448e+00 1.000000e+01
    endloop
  endfacet
  facet normal 1.358255e-01 -4.827243e-01 8.651755e-01
    outer loop
      vertex   1.441197e+00 -5.000000e+00 1.002357e+01
      vertex   1.515137e+00 -5.021448e+00 1.000000e+01
      vertex   1.514469e+00 -5.000000e+00 1.001207e+01
    endloop
  endfacet
  facet normal 1.426012e-01 -4.820966e-01 8.644349e-01
    outer loop
      vertex   1.514469e+00 -5.000000e+00 1.001207e+01
      vertex   1.515137e+00 -5.021448e+00 1.000000e+01
      vertex   1.587647e+00 -5.000000e+00 1.000000e+01
    endloop
  endfacet
  facet normal 9.525610e-02 -4.839638e-01 8.698881e-01
    outer loop
      vertex   1.073702e+00 -5.000000e+00 1.007252e+01
      vertex   1.000000e+00 -5.000000e+00 1.008059e+01
      vertex   1.058878e+00 -5.060305e+00 1.004059e+01
    endloop
  endfacet
  facet normal 9.506071e-02 -4.841135e-01 8.698262e-01
    outer loop
      vertex   1.058878e+00 -5.060305e+00 1.004059e+01
      vertex   1.000000e+00 -5.000000e+00 1.008059e+01
      vertex   1.022720e+00 -5.067405e+00 1.004059e+01
    endloop
  endfacet
  facet normal 9.241326e-02 -4.849114e-01 8.696670e-01
    outer loop
      vertex   1.000000e+00 -5.000000e+00 1.008059e+01
      vertex   1.000000e+00 -5.071769e+00 1.004057e+01
      vertex   1.022720e+00 -5.067405e+00 1.004059e+01
    endloop
  endfacet
  facet normal 2.249899e-11 1.000000e+00 0.000000e+00
    outer loop
      vertex   1.000000e+00 -5.000000e+00 1.008059e+01
      vertex   1.073702e+00 -5.000000e+00 1.007252e+01
      vertex   1.000000e+00 -5.000000e+00 1.000000e+01
    endloop
  endfacet
  facet normal 5.392767e-11 1.000000e+00 -3.194231e-11
    outer loop
      vertex   1.000000e+00 -5.000000e+00 1.000000e+01
      vertex   1.073702e+00 -5.000000e+00 1.007252e+01
      vertex   1.147341e+00 -5.000000e+00 1.006387e+01
    endloop
  endfacet
  facet normal 6.961963e-11 1.000000e+00 -6.814001e-11
    outer loop
      vertex   1.000000e+00 -5.000000e+00 1.000000e+01
      vertex   1.147341e+00 -5.000000e+00 1.006387e+01
      vertex   1.220913e+00 -5.000000e+00 1.005466e+01
    endloop
  endfacet
  facet normal 7.299410e-11 1.000000e+00 -8.177897e-11
    outer loop
      vertex   1.220913e+00 -5.000000e+00 1.005466e+01
      vertex   1.294415e+00 -5.000000e+00 1.004487e+01
      vertex   1.000000e+00 -5.000000e+00 1.000000e+01
    endloop
  endfacet
  facet normal 6.795290e-11 1.000000e+00 -4.869962e-11
    outer loop
      vertex   1.000000e+00 -5.000000e+00 1.000000e+01
      vertex   1.294415e+00 -5.000000e+00 1.004487e+01
      vertex   1.367844e+00 -5.000000e+00 1.003451e+01
    endloop
  endfacet
  facet normal 5.855376e-11 1.000000e+00 5.149435e-11
    outer loop
      vertex   1.000000e+00 -5.000000e+00 1.000000e+01
      vertex   1.367844e+00 -5.000000e+00 1.003451e+01
      vertex   1.441197e+00 -5.000000e+00 1.002357e+01
    endloop
  endfacet
  facet normal 3.988338e-11 1.000000e+00 4.009033e-10
    outer loop
      vertex   1.441197e+00 -5.000000e+00 1.002357e+01
      vertex   1.514469e+00 -5.000000e+00 1.001207e+01
      vertex   1.000000e+00 -5.000000e+00 1.000000e+01
    endloop
  endfacet
  facet normal -0.000000e+00 1.000000e+00 2.100639e-09
    outer loop
      vertex   1.000000e+00 -5.000000e+00 1.000000e+01
      vertex   1.514469e+00 -5.000000e+00 1.001207e+01
      vertex   1.587647e+00 -5.000000e+00 1.000000e+01
    endloop
  endfacet
  facet normal -0.000000e+00 0.000000e+00 -1.000000e+00
    outer loop
      vertex   1.587647e+00 -5.000000e+00 1.000000e+01
      vertex   1.515137e+00 -5.021448e+00 1.000000e+01
      vertex   1.000000e+00 -5.000000e+00 1.000000e+01
    endloop
  endfacet
  facet normal 0.000000e+00 0.000000e+00 -1.000000e+00
    outer loop
      vertex   1.000000e+00 -5.000000e+00 1.000000e+01
      vertex   1.515137e+00 -5.021448e+00 1.000000e+01
      vertex   1.442334e+00 -5.041889e+00 1.000000e+01
    endloop
  endfacet
  facet normal 0.000000e+00 0.000000e+00 -1.000000e+00
    outer loop
      vertex   1.000000e+00 -5.000000e+00 1.000000e+01
      vertex   1.442334e+00 -5.041889e+00 1.000000e+01
      vertex   1.369250e+00 -5.061319e+00 1.000000e+01
    endloop
  endfacet
  facet normal -0.000000e+00 0.000000e+00 -1.000000e+00
    outer loop
      vertex   1.369250e+00 -5.061319e+00 1.000000e+01
      vertex   1.295896e+00 -5.079737e+00 1.000000e+01
      vertex   1.000000e+00 -5.000000e+00 1.000000e+01
    endloop
  endfacet
  facet normal 0.000000e+00 0.000000e+00 -1.000000e+00
    outer loop
      vertex   1.000000e+00 -5.000000e+00 1.000000e+01
      vertex   1.295896e+00 -5.079737e+00 1.000000e+01
      vertex   1.222283e+00 -5.097139e+00 1.000000e+01
    endloop
  endfacet
  facet normal 0.000000e+00 0.000000e+00 -1.000000e+00
    outer loop
      vertex   1.000000e+00 -5.000000e+00 1.000000e+01
      vertex   1.222283e+00 -5.097139e+00 1.000000e+01
      vertex   1.148422e+00 -5.113522e+00 1.000000e+01
    endloop
  endfacet
  facet normal -0.000000e+00 0.000000e+00 -1.000000e+00
    outer loop
      vertex   1.148422e+00 -5.113522e+00 1.000000e+01
      vertex   1.074324e+00 -5.128885e+00 1.000000e+01
      vertex   1.000000e+00 -5.000000e+00 1.000000e+01
    endloop
  endfacet
  facet normal 0.000000e+00 0.000000e+00 -1.000000e+00
    outer loop
      vertex   1.000000e+00 -5.000000e+00 1.000000e+01
      vertex   1.074324e+00 -5.128885e+00 1.000000e+01
      vertex   1.000000e+00 -5.143223e+00 1.000000e+01
    endloop
  endfacet
  facet normal -1.000000e+00 0.000000e+00 0.000000e+00
    outer loop
      vertex   1.000000e+00 -5.143223e+00 1.000000e+01
      vertex   1.000000e+00 -5.071769e+00 1.004057e+01
      vertex   1.000000e+00 -5.000000e+00 1.000000e+01
    endloop
  endfacet
  facet normal -1.000000e+00 0.000000e+00 0.000000e+00
    outer loop
      vertex   1.000000e+00 -5.000000e+00 1.000000e+01
      vertex   1.000000e+00 -5.071769e+00 1.004057e+01
      vertex   1.000000e+00 -5.000000e+00 1.008059e+01
    endloop
  endfacet
endsolid
