solid ASCII
  facet normal -9.161692e-02 8.462721e-01 -5.248142e-01
    outer loop
      vertex   -1.000000e+00 9.040685e+00 -6.198447e+00
      vertex   -1.000000e+00 9.000000e+00 -6.264053e+00
      vertex   -1.048264e+00 9.035490e+00 -6.198399e+00
    endloop
  endfacet
  facet normal -9.212657e-02 8.460566e-01 -5.250723e-01
    outer loop
      vertex   -1.048264e+00 9.035490e+00 -6.198399e+00
      vertex   -1.000000e+00 9.000000e+00 -6.264053e+00
      vertex   -1.063663e+00 9.000000e+00 -6.252883e+00
    endloop
  endfacet
  facet normal -9.657470e-02 8.462584e-01 -5.239466e-01
    outer loop
      vertex   -1.048264e+00 9.035490e+00 -6.198399e+00
      vertex   -1.063663e+00 9.000000e+00 -6.252883e+00
      vertex   -1.109508e+00 9.028501e+00 -6.198399e+00
    endloop
  endfacet
  facet normal -9.792397e-02 8.456098e-01 -5.247427e-01
    outer loop
      vertex   -1.109508e+00 9.028501e+00 -6.198399e+00
      vertex   -1.063663e+00 9.000000e+00 -6.252883e+00
      vertex   -1.127203e+00 9.000000e+00 -6.241025e+00
    endloop
  endfacet
  facet normal -1.021137e-01 8.460214e-01 -5.232786e-01
    outer loop
      vertex   -1.109508e+00 9.028501e+00 -6.198399e+00
      vertex   -1.127203e+00 9.000000e+00 -6.241025e+00
      vertex   -1.170844e+00 9.021098e+00 -6.198399e+00
    endloop
  endfacet
  facet normal -1.037501e-01 8.450746e-01 -5.244853e-01
    outer loop
      vertex   -1.170844e+00 9.021098e+00 -6.198399e+00
      vertex   -1.127203e+00 9.000000e+00 -6.241025e+00
      vertex   -1.190616e+00 9.000000e+00 -6.228482e+00
    endloop
  endfacet
  facet normal -1.076795e-01 8.458469e-01 -5.224444e-01
    outer loop
      vertex   -1.170844e+00 9.021098e+00 -6.198399e+00
      vertex   -1.190616e+00 9.000000e+00 -6.228482e+00
      vertex   -1.232268e+00 9.013278e+00 -6.198399e+00
    endloop
  endfacet
  facet normal -1.096508e-01 8.443201e-01 -5.245000e-01
    outer loop
      vertex   -1.232268e+00 9.013278e+00 -6.198399e+00
      vertex   -1.190616e+00 9.000000e+00 -6.228482e+00
      vertex   -1.253895e+00 9.000000e+00 -6.215253e+00
    endloop
  endfacet
  facet normal -1.133018e-01 8.459450e-01 -5.210948e-01
    outer loop
      vertex   -1.232268e+00 9.013278e+00 -6.198399e+00
      vertex   -1.253895e+00 9.000000e+00 -6.215253e+00
      vertex   -1.293775e+00 9.005040e+00 -6.198399e+00
    endloop
  endfacet
  facet normal -1.159816e-01 8.423196e-01 -5.263516e-01
    outer loop
      vertex   -1.293775e+00 9.005040e+00 -6.198399e+00
      vertex   -1.253895e+00 9.000000e+00 -6.215253e+00
      vertex   -1.317036e+00 9.000000e+00 -6.201340e+00
    endloop
  endfacet
  facet normal -1.177744e-01 8.464592e-01 -5.192648e-01
    outer loop
      vertex   -1.293775e+00 9.005040e+00 -6.198399e+00
      vertex   -1.317036e+00 9.000000e+00 -6.201340e+00
      vertex   -1.299469e+00 9.044673e+00 -6.132502e+00
    endloop
  endfacet
  facet normal -1.190090e-01 8.464739e-01 -5.189593e-01
    outer loop
      vertex   -1.299469e+00 9.044673e+00 -6.132502e+00
      vertex   -1.317036e+00 9.000000e+00 -6.201340e+00
      vertex   -1.361328e+00 9.035976e+00 -6.132502e+00
    endloop
  endfacet
  facet normal -1.194638e-01 8.497086e-01 -5.135403e-01
    outer loop
      vertex   -1.299469e+00 9.044673e+00 -6.132502e+00
      vertex   -1.361328e+00 9.035976e+00 -6.132502e+00
      vertex   -1.367225e+00 9.075117e+00 -6.066368e+00
    endloop
  endfacet
  facet normal -1.250258e-01 8.488982e-01 -5.135566e-01
    outer loop
      vertex   -1.367225e+00 9.075117e+00 -6.066368e+00
      vertex   -1.361328e+00 9.035976e+00 -6.132502e+00
      vertex   -1.429428e+00 9.065956e+00 -6.066368e+00
    endloop
  endfacet
  facet normal -1.255128e-01 8.522048e-01 -5.079306e-01
    outer loop
      vertex   -1.367225e+00 9.075117e+00 -6.066368e+00
      vertex   -1.429428e+00 9.065956e+00 -6.066368e+00
      vertex   -1.376908e+00 9.113247e+00 -6.000000e+00
    endloop
  endfacet
  facet normal -1.258845e-01 8.522894e-01 -5.076966e-01
    outer loop
      vertex   -1.376908e+00 9.113247e+00 -6.000000e+00
      vertex   -1.429428e+00 9.065956e+00 -6.066368e+00
      vertex   -1.439526e+00 9.103998e+00 -6.000000e+00
    endloop
  endfacet
  facet normal -1.311033e-01 8.513498e-01 -5.079521e-01
    outer loop
      vertex   -1.439526e+00 9.103998e+00 -6.000000e+00
      vertex   -1.429428e+00 9.065956e+00 -6.066368e+00
      vertex   -1.491703e+00 9.056366e+00 -6.066368e+00
    endloop
  endfacet
  facet normal -1.314837e-01 8.514337e-01 -5.077132e-01
    outer loop
      vertex   -1.439526e+00 9.103998e+00 -6.000000e+00
      vertex   -1.491703e+00 9.056366e+00 -6.066368e+00
      vertex   -1.502081e+00 9.094338e+00 -6.000000e+00
    endloop
  endfacet
  facet normal -1.367010e-01 8.504579e-01 -5.079707e-01
    outer loop
      vertex   -1.502081e+00 9.094338e+00 -6.000000e+00
      vertex   -1.491703e+00 9.056366e+00 -6.066368e+00
      vertex   -1.554046e+00 9.046345e+00 -6.066368e+00
    endloop
  endfacet
  facet normal -1.370775e-01 8.505385e-01 -5.077342e-01
    outer loop
      vertex   -1.502081e+00 9.094338e+00 -6.000000e+00
      vertex   -1.554046e+00 9.046345e+00 -6.066368e+00
      vertex   -1.564570e+00 9.084267e+00 -6.000000e+00
    endloop
  endfacet
  facet normal -1.423056e-01 8.495287e-01 -5.079863e-01
    outer loop
      vertex   -1.564570e+00 9.084267e+00 -6.000000e+00
      vertex   -1.554046e+00 9.046345e+00 -6.066368e+00
      vertex   -1.616453e+00 9.035891e+00 -6.066368e+00
    endloop
  endfacet
  facet normal -1.426655e-01 8.496038e-01 -5.077597e-01
    outer loop
      vertex   -1.564570e+00 9.084267e+00 -6.000000e+00
      vertex   -1.616453e+00 9.035891e+00 -6.066368e+00
      vertex   -1.626993e+00 9.073785e+00 -6.000000e+00
    endloop
  endfacet
  facet normal -1.479167e-01 8.485622e-01 -5.079989e-01
    outer loop
      vertex   -1.626993e+00 9.073785e+00 -6.000000e+00
      vertex   -1.616453e+00 9.035891e+00 -6.066368e+00
      vertex   -1.678920e+00 9.025002e+00 -6.066368e+00
    endloop
  endfacet
  facet normal -1.482476e-01 8.486297e-01 -5.077896e-01
    outer loop
      vertex   -1.626993e+00 9.073785e+00 -6.000000e+00
      vertex   -1.678920e+00 9.025002e+00 -6.066368e+00
      vertex   -1.689347e+00 9.062892e+00 -6.000000e+00
    endloop
  endfacet
  facet normal -1.535342e-01 8.475581e-01 -5.080084e-01
    outer loop
      vertex   -1.689347e+00 9.062892e+00 -6.000000e+00
      vertex   -1.678920e+00 9.025002e+00 -6.066368e+00
      vertex   -1.741441e+00 9.013676e+00 -6.066368e+00
    endloop
  endfacet
  facet normal -1.538236e-01 8.476160e-01 -5.078241e-01
    outer loop
      vertex   -1.689347e+00 9.062892e+00 -6.000000e+00
      vertex   -1.741441e+00 9.013676e+00 -6.066368e+00
      vertex   -1.751629e+00 9.051590e+00 -6.000000e+00
    endloop
  endfacet
  facet normal -1.591576e-01 8.465164e-01 -5.080147e-01
    outer loop
      vertex   -1.751629e+00 9.051590e+00 -6.000000e+00
      vertex   -1.741441e+00 9.013676e+00 -6.066368e+00
      vertex   -1.804014e+00 9.001912e+00 -6.066368e+00
    endloop
  endfacet
  facet normal -1.593933e-01 8.465628e-01 -5.078634e-01
    outer loop
      vertex   -1.751629e+00 9.051590e+00 -6.000000e+00
      vertex   -1.804014e+00 9.001912e+00 -6.066368e+00
      vertex   -1.813837e+00 9.039877e+00 -6.000000e+00
    endloop
  endfacet
  facet normal -1.623042e-01 8.459584e-01 -5.079485e-01
    outer loop
      vertex   -1.813837e+00 9.039877e+00 -6.000000e+00
      vertex   -1.804014e+00 9.001912e+00 -6.066368e+00
      vertex   -1.816198e+00 9.000000e+00 -6.065658e+00
    endloop
  endfacet
  facet normal -1.647775e-01 8.456471e-01 -5.076705e-01
    outer loop
      vertex   -1.813837e+00 9.039877e+00 -6.000000e+00
      vertex   -1.816198e+00 9.000000e+00 -6.065658e+00
      vertex   -1.877689e+00 9.000000e+00 -6.045699e+00
    endloop
  endfacet
  facet normal -1.203758e-01 8.459189e-01 -5.195487e-01
    outer loop
      vertex   -1.317036e+00 9.000000e+00 -6.201340e+00
      vertex   -1.380033e+00 9.000000e+00 -6.186744e+00
      vertex   -1.361328e+00 9.035976e+00 -6.132502e+00
    endloop
  endfacet
  facet normal -1.246166e-01 8.461200e-01 -5.182196e-01
    outer loop
      vertex   -1.361328e+00 9.035976e+00 -6.132502e+00
      vertex   -1.380033e+00 9.000000e+00 -6.186744e+00
      vertex   -1.423262e+00 9.026854e+00 -6.132502e+00
    endloop
  endfacet
  facet normal -1.250258e-01 8.488982e-01 -5.135566e-01
    outer loop
      vertex   -1.361328e+00 9.035976e+00 -6.132502e+00
      vertex   -1.423262e+00 9.026854e+00 -6.132502e+00
      vertex   -1.429428e+00 9.065956e+00 -6.066368e+00
    endloop
  endfacet
  facet normal -1.305949e-01 8.480490e-01 -5.135737e-01
    outer loop
      vertex   -1.429428e+00 9.065956e+00 -6.066368e+00
      vertex   -1.423262e+00 9.026854e+00 -6.132502e+00
      vertex   -1.491703e+00 9.056366e+00 -6.066368e+00
    endloop
  endfacet
  facet normal -1.261857e-01 8.453533e-01 -5.190906e-01
    outer loop
      vertex   -1.380033e+00 9.000000e+00 -6.186744e+00
      vertex   -1.442882e+00 9.000000e+00 -6.171466e+00
      vertex   -1.423262e+00 9.026854e+00 -6.132502e+00
    endloop
  endfacet
  facet normal -1.302489e-01 8.458016e-01 -5.173537e-01
    outer loop
      vertex   -1.423262e+00 9.026854e+00 -6.132502e+00
      vertex   -1.442882e+00 9.000000e+00 -6.171466e+00
      vertex   -1.485269e+00 9.017305e+00 -6.132502e+00
    endloop
  endfacet
  facet normal -1.305949e-01 8.480490e-01 -5.135737e-01
    outer loop
      vertex   -1.423262e+00 9.026854e+00 -6.132502e+00
      vertex   -1.485269e+00 9.017305e+00 -6.132502e+00
      vertex   -1.491703e+00 9.056366e+00 -6.066368e+00
    endloop
  endfacet
  facet normal -1.361710e-01 8.471607e-01 -5.135915e-01
    outer loop
      vertex   -1.491703e+00 9.056366e+00 -6.066368e+00
      vertex   -1.485269e+00 9.017305e+00 -6.132502e+00
      vertex   -1.554046e+00 9.046345e+00 -6.066368e+00
    endloop
  endfacet
  facet normal -1.320583e-01 8.446325e-01 -5.188029e-01
    outer loop
      vertex   -1.442882e+00 9.000000e+00 -6.171466e+00
      vertex   -1.505576e+00 9.000000e+00 -6.155507e+00
      vertex   -1.485269e+00 9.017305e+00 -6.132502e+00
    endloop
  endfacet
  facet normal -1.359272e-01 8.456443e-01 -5.161488e-01
    outer loop
      vertex   -1.485269e+00 9.017305e+00 -6.132502e+00
      vertex   -1.505576e+00 9.000000e+00 -6.155507e+00
      vertex   -1.547343e+00 9.007328e+00 -6.132502e+00
    endloop
  endfacet
  facet normal -1.361710e-01 8.471607e-01 -5.135915e-01
    outer loop
      vertex   -1.485269e+00 9.017305e+00 -6.132502e+00
      vertex   -1.547343e+00 9.007328e+00 -6.132502e+00
      vertex   -1.554046e+00 9.046345e+00 -6.066368e+00
    endloop
  endfacet
  facet normal -1.417535e-01 8.462332e-01 -5.136101e-01
    outer loop
      vertex   -1.554046e+00 9.046345e+00 -6.066368e+00
      vertex   -1.547343e+00 9.007328e+00 -6.132502e+00
      vertex   -1.616453e+00 9.035891e+00 -6.066368e+00
    endloop
  endfacet
  facet normal -1.382297e-01 8.431869e-01 -5.195464e-01
    outer loop
      vertex   -1.505576e+00 9.000000e+00 -6.155507e+00
      vertex   -1.568104e+00 9.000000e+00 -6.138871e+00
      vertex   -1.547343e+00 9.007328e+00 -6.132502e+00
    endloop
  endfacet
  facet normal -1.420773e-01 8.473080e-01 -5.117453e-01
    outer loop
      vertex   -1.547343e+00 9.007328e+00 -6.132502e+00
      vertex   -1.568104e+00 9.000000e+00 -6.138871e+00
      vertex   -1.630437e+00 9.000000e+00 -6.121565e+00
    endloop
  endfacet
  facet normal -1.422505e-01 8.459173e-01 -5.139930e-01
    outer loop
      vertex   -1.547343e+00 9.007328e+00 -6.132502e+00
      vertex   -1.630437e+00 9.000000e+00 -6.121565e+00
      vertex   -1.616453e+00 9.035891e+00 -6.066368e+00
    endloop
  endfacet
  facet normal -1.474443e-01 8.458521e-01 -5.126348e-01
    outer loop
      vertex   -1.616453e+00 9.035891e+00 -6.066368e+00
      vertex   -1.630437e+00 9.000000e+00 -6.121565e+00
      vertex   -1.678920e+00 9.025002e+00 -6.066368e+00
    endloop
  endfacet
  facet normal -1.484762e-01 8.452792e-01 -5.132816e-01
    outer loop
      vertex   -1.630437e+00 9.000000e+00 -6.121565e+00
      vertex   -1.692567e+00 9.000000e+00 -6.103593e+00
      vertex   -1.678920e+00 9.025002e+00 -6.066368e+00
    endloop
  endfacet
  facet normal -1.531477e-01 8.454247e-01 -5.116667e-01
    outer loop
      vertex   -1.678920e+00 9.025002e+00 -6.066368e+00
      vertex   -1.692567e+00 9.000000e+00 -6.103593e+00
      vertex   -1.741441e+00 9.013676e+00 -6.066368e+00
    endloop
  endfacet
  facet normal -1.543707e-01 8.444465e-01 -5.129130e-01
    outer loop
      vertex   -1.692567e+00 9.000000e+00 -6.103593e+00
      vertex   -1.754489e+00 9.000000e+00 -6.084957e+00
      vertex   -1.741441e+00 9.013676e+00 -6.066368e+00
    endloop
  endfacet
  facet normal -1.589099e-01 8.451990e-01 -5.102806e-01
    outer loop
      vertex   -1.741441e+00 9.013676e+00 -6.066368e+00
      vertex   -1.754489e+00 9.000000e+00 -6.084957e+00
      vertex   -1.804014e+00 9.001912e+00 -6.066368e+00
    endloop
  endfacet
  facet normal -1.619469e-01 8.400100e-01 -5.178382e-01
    outer loop
      vertex   -1.754489e+00 9.000000e+00 -6.084957e+00
      vertex   -1.816198e+00 9.000000e+00 -6.065658e+00
      vertex   -1.804014e+00 9.001912e+00 -6.066368e+00
    endloop
  endfacet
  facet normal -1.650100e-01 8.457454e-01 -5.074313e-01
    outer loop
      vertex   -1.813837e+00 9.039877e+00 -6.000000e+00
      vertex   -1.877689e+00 9.000000e+00 -6.045699e+00
      vertex   -1.875970e+00 9.027754e+00 -6.000000e+00
    endloop
  endfacet
  facet normal -1.705301e-01 8.450337e-01 -5.067914e-01
    outer loop
      vertex   -1.875970e+00 9.027754e+00 -6.000000e+00
      vertex   -1.877689e+00 9.000000e+00 -6.045699e+00
      vertex   -1.938958e+00 9.000000e+00 -6.025083e+00
    endloop
  endfacet
  facet normal -1.706763e-01 8.451483e-01 -5.065510e-01
    outer loop
      vertex   -1.875970e+00 9.027754e+00 -6.000000e+00
      vertex   -1.938958e+00 9.000000e+00 -6.025083e+00
      vertex   -1.938025e+00 9.015222e+00 -6.000000e+00
    endloop
  endfacet
  facet normal -1.762918e-01 8.443945e-01 -5.058845e-01
    outer loop
      vertex   -1.938025e+00 9.015222e+00 -6.000000e+00
      vertex   -1.938958e+00 9.000000e+00 -6.025083e+00
      vertex   -2.000000e+00 9.000000e+00 -6.003811e+00
    endloop
  endfacet
  facet normal -1.763561e-01 8.445750e-01 -5.055606e-01
    outer loop
      vertex   -1.938025e+00 9.015222e+00 -6.000000e+00
      vertex   -2.000000e+00 9.000000e+00 -6.003811e+00
      vertex   -2.000000e+00 9.002281e+00 -6.000000e+00
    endloop
  endfacet
  facet normal -1.202800e-01 8.531056e-01 -5.076846e-01
    outer loop
      vertex   -1.376908e+00 9.113247e+00 -6.000000e+00
      vertex   -1.314229e+00 9.122084e+00 -6.000000e+00
      vertex   -1.367225e+00 9.075117e+00 -6.066368e+00
    endloop
  endfacet
  facet normal -1.199298e-01 8.530231e-01 -5.079059e-01
    outer loop
      vertex   -1.367225e+00 9.075117e+00 -6.066368e+00
      vertex   -1.314229e+00 9.122084e+00 -6.000000e+00
      vertex   -1.305098e+00 9.083851e+00 -6.066368e+00
    endloop
  endfacet
  facet normal -1.194638e-01 8.497086e-01 -5.135403e-01
    outer loop
      vertex   -1.367225e+00 9.075117e+00 -6.066368e+00
      vertex   -1.305098e+00 9.083851e+00 -6.066368e+00
      vertex   -1.299469e+00 9.044673e+00 -6.132502e+00
    endloop
  endfacet
  facet normal -1.139093e-01 8.504804e-01 -5.135248e-01
    outer loop
      vertex   -1.299469e+00 9.044673e+00 -6.132502e+00
      vertex   -1.305098e+00 9.083851e+00 -6.066368e+00
      vertex   -1.237691e+00 9.052947e+00 -6.132502e+00
    endloop
  endfacet
  facet normal -1.134509e-01 8.470579e-01 -5.192513e-01
    outer loop
      vertex   -1.299469e+00 9.044673e+00 -6.132502e+00
      vertex   -1.237691e+00 9.052947e+00 -6.132502e+00
      vertex   -1.232268e+00 9.013278e+00 -6.198399e+00
    endloop
  endfacet
  facet normal -1.079267e-01 8.477885e-01 -5.192365e-01
    outer loop
      vertex   -1.232268e+00 9.013278e+00 -6.198399e+00
      vertex   -1.237691e+00 9.052947e+00 -6.132502e+00
      vertex   -1.170844e+00 9.021098e+00 -6.198399e+00
    endloop
  endfacet
  facet normal -1.146704e-01 8.538821e-01 -5.076771e-01
    outer loop
      vertex   -1.314229e+00 9.122084e+00 -6.000000e+00
      vertex   -1.251492e+00 9.130509e+00 -6.000000e+00
      vertex   -1.305098e+00 9.083851e+00 -6.066368e+00
    endloop
  endfacet
  facet normal -1.143546e-01 8.538050e-01 -5.078780e-01
    outer loop
      vertex   -1.305098e+00 9.083851e+00 -6.066368e+00
      vertex   -1.251492e+00 9.130509e+00 -6.000000e+00
      vertex   -1.243053e+00 9.092161e+00 -6.066368e+00
    endloop
  endfacet
  facet normal -1.139093e-01 8.504804e-01 -5.135248e-01
    outer loop
      vertex   -1.305098e+00 9.083851e+00 -6.066368e+00
      vertex   -1.243053e+00 9.092161e+00 -6.066368e+00
      vertex   -1.237691e+00 9.052947e+00 -6.132502e+00
    endloop
  endfacet
  facet normal -1.083627e-01 8.512138e-01 -5.135100e-01
    outer loop
      vertex   -1.237691e+00 9.052947e+00 -6.132502e+00
      vertex   -1.243053e+00 9.092161e+00 -6.066368e+00
      vertex   -1.175997e+00 9.060801e+00 -6.132502e+00
    endloop
  endfacet
  facet normal -1.079267e-01 8.477885e-01 -5.192365e-01
    outer loop
      vertex   -1.237691e+00 9.052947e+00 -6.132502e+00
      vertex   -1.175997e+00 9.060801e+00 -6.132502e+00
      vertex   -1.170844e+00 9.021098e+00 -6.198399e+00
    endloop
  endfacet
  facet normal -1.024106e-01 8.484811e-01 -5.192224e-01
    outer loop
      vertex   -1.170844e+00 9.021098e+00 -6.198399e+00
      vertex   -1.175997e+00 9.060801e+00 -6.132502e+00
      vertex   -1.109508e+00 9.028501e+00 -6.198399e+00
    endloop
  endfacet
  facet normal -1.090559e-01 8.546189e-01 -5.076745e-01
    outer loop
      vertex   -1.251492e+00 9.130509e+00 -6.000000e+00
      vertex   -1.188699e+00 9.138522e+00 -6.000000e+00
      vertex   -1.243053e+00 9.092161e+00 -6.066368e+00
    endloop
  endfacet
  facet normal -1.087875e-01 8.545508e-01 -5.078467e-01
    outer loop
      vertex   -1.243053e+00 9.092161e+00 -6.066368e+00
      vertex   -1.188699e+00 9.138522e+00 -6.000000e+00
      vertex   -1.181091e+00 9.100049e+00 -6.066368e+00
    endloop
  endfacet
  facet normal -1.083627e-01 8.512138e-01 -5.135100e-01
    outer loop
      vertex   -1.243053e+00 9.092161e+00 -6.066368e+00
      vertex   -1.181091e+00 9.100049e+00 -6.066368e+00
      vertex   -1.175997e+00 9.060801e+00 -6.132502e+00
    endloop
  endfacet
  facet normal -1.028244e-01 8.519090e-01 -5.134960e-01
    outer loop
      vertex   -1.175997e+00 9.060801e+00 -6.132502e+00
      vertex   -1.181091e+00 9.100049e+00 -6.066368e+00
      vertex   -1.114392e+00 9.068237e+00 -6.132502e+00
    endloop
  endfacet
  facet normal -1.024106e-01 8.484811e-01 -5.192224e-01
    outer loop
      vertex   -1.175997e+00 9.060801e+00 -6.132502e+00
      vertex   -1.114392e+00 9.068237e+00 -6.132502e+00
      vertex   -1.109508e+00 9.028501e+00 -6.198399e+00
    endloop
  endfacet
  facet normal -9.690308e-02 8.491359e-01 -5.192091e-01
    outer loop
      vertex   -1.109508e+00 9.028501e+00 -6.198399e+00
      vertex   -1.114392e+00 9.068237e+00 -6.132502e+00
      vertex   -1.048264e+00 9.035490e+00 -6.198399e+00
    endloop
  endfacet
  facet normal -1.034367e-01 8.553158e-01 -5.076768e-01
    outer loop
      vertex   -1.188699e+00 9.138522e+00 -6.000000e+00
      vertex   -1.125851e+00 9.146123e+00 -6.000000e+00
      vertex   -1.181091e+00 9.100049e+00 -6.066368e+00
    endloop
  endfacet
  facet normal -1.032289e-01 8.552608e-01 -5.078117e-01
    outer loop
      vertex   -1.181091e+00 9.100049e+00 -6.066368e+00
      vertex   -1.125851e+00 9.146123e+00 -6.000000e+00
      vertex   -1.119219e+00 9.107517e+00 -6.066368e+00
    endloop
  endfacet
  facet normal -1.028244e-01 8.519090e-01 -5.134960e-01
    outer loop
      vertex   -1.181091e+00 9.100049e+00 -6.066368e+00
      vertex   -1.119219e+00 9.107517e+00 -6.066368e+00
      vertex   -1.114392e+00 9.068237e+00 -6.132502e+00
    endloop
  endfacet
  facet normal -9.729455e-02 8.525663e-01 -5.134828e-01
    outer loop
      vertex   -1.114392e+00 9.068237e+00 -6.132502e+00
      vertex   -1.119219e+00 9.107517e+00 -6.066368e+00
      vertex   -1.052878e+00 9.075256e+00 -6.132502e+00
    endloop
  endfacet
  facet normal -9.690308e-02 8.491359e-01 -5.192091e-01
    outer loop
      vertex   -1.114392e+00 9.068237e+00 -6.132502e+00
      vertex   -1.052878e+00 9.075256e+00 -6.132502e+00
      vertex   -1.048264e+00 9.035490e+00 -6.198399e+00
    endloop
  endfacet
  facet normal -9.197923e-02 8.496897e-01 -5.191986e-01
    outer loop
      vertex   -1.048264e+00 9.035490e+00 -6.198399e+00
      vertex   -1.052878e+00 9.075256e+00 -6.132502e+00
      vertex   -1.000000e+00 9.040685e+00 -6.198447e+00
    endloop
  endfacet
  facet normal -9.781308e-02 8.559726e-01 -5.076845e-01
    outer loop
      vertex   -1.125851e+00 9.146123e+00 -6.000000e+00
      vertex   -1.062950e+00 9.153310e+00 -6.000000e+00
      vertex   -1.119219e+00 9.107517e+00 -6.066368e+00
    endloop
  endfacet
  facet normal -9.767906e-02 8.559356e-01 -5.077726e-01
    outer loop
      vertex   -1.119219e+00 9.107517e+00 -6.066368e+00
      vertex   -1.062950e+00 9.153310e+00 -6.000000e+00
      vertex   -1.057439e+00 9.114568e+00 -6.066368e+00
    endloop
  endfacet
  facet normal -9.729455e-02 8.525663e-01 -5.134828e-01
    outer loop
      vertex   -1.119219e+00 9.107517e+00 -6.066368e+00
      vertex   -1.057439e+00 9.114568e+00 -6.066368e+00
      vertex   -1.052878e+00 9.075256e+00 -6.132502e+00
    endloop
  endfacet
  facet normal -9.215234e-02 8.531441e-01 -5.134716e-01
    outer loop
      vertex   -1.052878e+00 9.075256e+00 -6.132502e+00
      vertex   -1.057439e+00 9.114568e+00 -6.066368e+00
      vertex   -1.000000e+00 9.080929e+00 -6.132568e+00
    endloop
  endfacet
  facet normal -9.179762e-02 8.497720e-01 -5.190961e-01
    outer loop
      vertex   -1.052878e+00 9.075256e+00 -6.132502e+00
      vertex   -1.000000e+00 9.080929e+00 -6.132568e+00
      vertex   -1.000000e+00 9.040685e+00 -6.198447e+00
    endloop
  endfacet
  facet normal -9.219095e-02 8.566432e-01 -5.076054e-01
    outer loop
      vertex   -1.000000e+00 9.160085e+00 -6.000000e+00
      vertex   -1.000000e+00 9.120729e+00 -6.066418e+00
      vertex   -1.062950e+00 9.153310e+00 -6.000000e+00
    endloop
  endfacet
  facet normal -9.232733e-02 8.565725e-01 -5.077000e-01
    outer loop
      vertex   -1.062950e+00 9.153310e+00 -6.000000e+00
      vertex   -1.000000e+00 9.120729e+00 -6.066418e+00
      vertex   -1.057439e+00 9.114568e+00 -6.066368e+00
    endloop
  endfacet
  facet normal -9.197381e-02 8.532302e-01 -5.133605e-01
    outer loop
      vertex   -1.000000e+00 9.120729e+00 -6.066418e+00
      vertex   -1.000000e+00 9.080929e+00 -6.132568e+00
      vertex   -1.057439e+00 9.114568e+00 -6.066368e+00
    endloop
  endfacet
  facet normal -1.134509e-01 8.470579e-01 -5.192513e-01
    outer loop
      vertex   -1.293775e+00 9.005040e+00 -6.198399e+00
      vertex   -1.299469e+00 9.044673e+00 -6.132502e+00
      vertex   -1.232268e+00 9.013278e+00 -6.198399e+00
    endloop
  endfacet
  facet normal -1.000000e+00 -0.000000e+00 0.000000e+00
    outer loop
      vertex   -2.000000e+00 9.002281e+00 -6.000000e+00
      vertex   -2.000000e+00 9.000000e+00 -6.003811e+00
      vertex   -2.000000e+00 9.000000e+00 -6.000000e+00
    endloop
  endfacet
  facet normal -1.065086e-11 -1.000000e+00 0.000000e+00
    outer loop
      vertex   -2.000000e+00 9.000000e+00 -6.003811e+00
      vertex   -1.938958e+00 9.000000e+00 -6.025083e+00
      vertex   -2.000000e+00 9.000000e+00 -6.000000e+00
    endloop
  endfacet
  facet normal 0.000000e+00 -1.000000e+00 2.591981e-11
    outer loop
      vertex   -2.000000e+00 9.000000e+00 -6.000000e+00
      vertex   -1.938958e+00 9.000000e+00 -6.025083e+00
      vertex   -1.000000e+00 9.000000e+00 -6.000000e+00
    endloop
  endfacet
  facet normal -1.397107e-12 -1.000000e+00 7.821918e-11
    outer loop
      vertex   -1.000000e+00 9.000000e+00 -6.000000e+00
      vertex   -1.938958e+00 9.000000e+00 -6.025083e+00
      vertex   -1.877689e+00 9.000000e+00 -6.045699e+00
    endloop
  endfacet
  facet normal -3.029607e-12 -1.000000e+00 1.095725e-10
    outer loop
      vertex   -1.000000e+00 9.000000e+00 -6.000000e+00
      vertex   -1.877689e+00 9.000000e+00 -6.045699e+00
      vertex   -1.816198e+00 9.000000e+00 -6.065658e+00
    endloop
  endfacet
  facet normal -4.286070e-12 -1.000000e+00 1.251916e-10
    outer loop
      vertex   -1.816198e+00 9.000000e+00 -6.065658e+00
      vertex   -1.754489e+00 9.000000e+00 -6.084957e+00
      vertex   -1.000000e+00 9.000000e+00 -6.000000e+00
    endloop
  endfacet
  facet normal -4.334131e-12 -1.000000e+00 1.256185e-10
    outer loop
      vertex   -1.000000e+00 9.000000e+00 -6.000000e+00
      vertex   -1.754489e+00 9.000000e+00 -6.084957e+00
      vertex   -1.692567e+00 9.000000e+00 -6.103593e+00
    endloop
  endfacet
  facet normal -2.341001e-12 -1.000000e+00 1.122935e-10
    outer loop
      vertex   -1.000000e+00 9.000000e+00 -6.000000e+00
      vertex   -1.692567e+00 9.000000e+00 -6.103593e+00
      vertex   -1.630437e+00 9.000000e+00 -6.121565e+00
    endloop
  endfacet
  facet normal 2.542956e-12 -1.000000e+00 8.696533e-11
    outer loop
      vertex   -1.630437e+00 9.000000e+00 -6.121565e+00
      vertex   -1.568104e+00 9.000000e+00 -6.138871e+00
      vertex   -1.000000e+00 9.000000e+00 -6.000000e+00
    endloop
  endfacet
  facet normal 1.100335e-11 -1.000000e+00 5.235488e-11
    outer loop
      vertex   -1.000000e+00 9.000000e+00 -6.000000e+00
      vertex   -1.568104e+00 9.000000e+00 -6.138871e+00
      vertex   -1.505576e+00 9.000000e+00 -6.155507e+00
    endloop
  endfacet
  facet normal 2.025892e-11 -1.000000e+00 2.226373e-11
    outer loop
      vertex   -1.000000e+00 9.000000e+00 -6.000000e+00
      vertex   -1.505576e+00 9.000000e+00 -6.155507e+00
      vertex   -1.442882e+00 9.000000e+00 -6.171466e+00
    endloop
  endfacet
  facet normal 2.780662e-11 -1.000000e+00 2.768647e-12
    outer loop
      vertex   -1.442882e+00 9.000000e+00 -6.171466e+00
      vertex   -1.380033e+00 9.000000e+00 -6.186744e+00
      vertex   -1.000000e+00 9.000000e+00 -6.000000e+00
    endloop
  endfacet
  facet normal 3.324117e-11 -1.000000e+00 -8.290959e-12
    outer loop
      vertex   -1.000000e+00 9.000000e+00 -6.000000e+00
      vertex   -1.380033e+00 9.000000e+00 -6.186744e+00
      vertex   -1.317036e+00 9.000000e+00 -6.201340e+00
    endloop
  endfacet
  facet normal 3.590417e-11 -1.000000e+00 -1.248421e-11
    outer loop
      vertex   -1.000000e+00 9.000000e+00 -6.000000e+00
      vertex   -1.317036e+00 9.000000e+00 -6.201340e+00
      vertex   -1.253895e+00 9.000000e+00 -6.215253e+00
    endloop
  endfacet
  facet normal 3.534144e-11 -1.000000e+00 -1.182045e-11
    outer loop
      vertex   -1.253895e+00 9.000000e+00 -6.215253e+00
      vertex   -1.190616e+00 9.000000e+00 -6.228482e+00
      vertex   -1.000000e+00 9.000000e+00 -6.000000e+00
    endloop
  endfacet
  facet normal 3.079483e-11 -1.000000e+00 -8.027347e-12
    outer loop
      vertex   -1.000000e+00 9.000000e+00 -6.000000e+00
      vertex   -1.190616e+00 9.000000e+00 -6.228482e+00
      vertex   -1.127203e+00 9.000000e+00 -6.241025e+00
    endloop
  endfacet
  facet normal 2.201166e-11 -1.000000e+00 -3.391946e-12
    outer loop
      vertex   -1.000000e+00 9.000000e+00 -6.000000e+00
      vertex   -1.127203e+00 9.000000e+00 -6.241025e+00
      vertex   -1.063663e+00 9.000000e+00 -6.252883e+00
    endloop
  endfacet
  facet normal 8.538152e-12 -1.000000e+00 0.000000e+00
    outer loop
      vertex   -1.063663e+00 9.000000e+00 -6.252883e+00
      vertex   -1.000000e+00 9.000000e+00 -6.264053e+00
      vertex   -1.000000e+00 9.000000e+00 -6.000000e+00
    endloop
  endfacet
  facet normal 0.000000e+00 0.000000e+00 1.000000e+00
    outer loop
      vertex   -1.000000e+00 9.160085e+00 -6.000000e+00
      vertex   -1.062950e+00 9.153310e+00 -6.000000e+00
      vertex   -1.000000e+00 9.000000e+00 -6.000000e+00
    endloop
  endfacet
  facet normal 0.000000e+00 0.000000e+00 1.000000e+00
    outer loop
      vertex   -1.000000e+00 9.000000e+00 -6.000000e+00
      vertex   -1.062950e+00 9.153310e+00 -6.000000e+00
      vertex   -1.125851e+00 9.146123e+00 -6.000000e+00
    endloop
  endfacet
  facet normal 0.000000e+00 0.000000e+00 1.000000e+00
    outer loop
      vertex   -1.000000e+00 9.000000e+00 -6.000000e+00
      vertex   -1.125851e+00 9.146123e+00 -6.000000e+00
      vertex   -1.188699e+00 9.138522e+00 -6.000000e+00
    endloop
  endfacet
  facet normal 0.000000e+00 0.000000e+00 1.000000e+00
    outer loop
      vertex   -1.188699e+00 9.138522e+00 -6.000000e+00
      vertex   -1.251492e+00 9.130509e+00 -6.000000e+00
      vertex   -1.000000e+00 9.000000e+00 -6.000000e+00
    endloop
  endfacet
  facet normal 0.000000e+00 0.000000e+00 1.000000e+00
    outer loop
      vertex   -1.000000e+00 9.000000e+00 -6.000000e+00
      vertex   -1.251492e+00 9.130509e+00 -6.000000e+00
      vertex   -1.314229e+00 9.122084e+00 -6.000000e+00
    endloop
  endfacet
  facet normal 0.000000e+00 0.000000e+00 1.000000e+00
    outer loop
      vertex   -1.000000e+00 9.000000e+00 -6.000000e+00
      vertex   -1.314229e+00 9.122084e+00 -6.000000e+00
      vertex   -1.376908e+00 9.113247e+00 -6.000000e+00
    endloop
  endfacet
  facet normal 0.000000e+00 0.000000e+00 1.000000e+00
    outer loop
      vertex   -1.376908e+00 9.113247e+00 -6.000000e+00
      vertex   -1.439526e+00 9.103998e+00 -6.000000e+00
      vertex   -1.000000e+00 9.000000e+00 -6.000000e+00
    endloop
  endfacet
  facet normal 0.000000e+00 0.000000e+00 1.000000e+00
    outer loop
      vertex   -1.000000e+00 9.000000e+00 -6.000000e+00
      vertex   -1.439526e+00 9.103998e+00 -6.000000e+00
      vertex   -1.502081e+00 9.094338e+00 -6.000000e+00
    endloop
  endfacet
  facet normal 0.000000e+00 0.000000e+00 1.000000e+00
    outer loop
      vertex   -1.000000e+00 9.000000e+00 -6.000000e+00
      vertex   -1.502081e+00 9.094338e+00 -6.000000e+00
      vertex   -1.564570e+00 9.084267e+00 -6.000000e+00
    endloop
  endfacet
  facet normal 0.000000e+00 0.000000e+00 1.000000e+00
    outer loop
      vertex   -1.564570e+00 9.084267e+00 -6.000000e+00
      vertex   -1.626993e+00 9.073785e+00 -6.000000e+00
      vertex   -1.000000e+00 9.000000e+00 -6.000000e+00
    endloop
  endfacet
  facet normal 0.000000e+00 0.000000e+00 1.000000e+00
    outer loop
      vertex   -1.000000e+00 9.000000e+00 -6.000000e+00
      vertex   -1.626993e+00 9.073785e+00 -6.000000e+00
      vertex   -1.689347e+00 9.062892e+00 -6.000000e+00
    endloop
  endfacet
  facet normal 0.000000e+00 0.000000e+00 1.000000e+00
    outer loop
      vertex   -1.000000e+00 9.000000e+00 -6.000000e+00
      vertex   -1.689347e+00 9.062892e+00 -6.000000e+00
      vertex   -1.751629e+00 9.051590e+00 -6.000000e+00
    endloop
  endfacet
  facet normal 0.000000e+00 0.000000e+00 1.000000e+00
    outer loop
      vertex   -1.751629e+00 9.051590e+00 -6.000000e+00
      vertex   -1.813837e+00 9.039877e+00 -6.000000e+00
      vertex   -1.000000e+00 9.000000e+00 -6.000000e+00
    endloop
  endfacet
  facet normal 0.000000e+00 0.000000e+00 1.000000e+00
    outer loop
      vertex   -1.000000e+00 9.000000e+00 -6.000000e+00
      vertex   -1.813837e+00 9.039877e+00 -6.000000e+00
      vertex   -1.875970e+00 9.027754e+00 -6.000000e+00
    endloop
  endfacet
  facet normal 0.000000e+00 0.000000e+00 1.000000e+00
    outer loop
      vertex   -1.000000e+00 9.000000e+00 -6.000000e+00
      vertex   -1.875970e+00 9.027754e+00 -6.000000e+00
      vertex   -1.938025e+00 9.015222e+00 -6.000000e+00
    endloop
  endfacet
  facet normal -0.000000e+00 0.000000e+00 1.000000e+00
    outer loop
      vertex   -2.000000e+00 9.002281e+00 -6.000000e+00
      vertex   -2.000000e+00 9.000000e+00 -6.000000e+00
      vertex   -1.938025e+00 9.015222e+00 -6.000000e+00
    endloop
  endfacet
  facet normal 0.000000e+00 0.000000e+00 1.000000e+00
    outer loop
      vertex   -1.938025e+00 9.015222e+00 -6.000000e+00
      vertex   -2.000000e+00 9.000000e+00 -6.000000e+00
      vertex   -1.000000e+00 9.000000e+00 -6.000000e+00
    endloop
  endfacet
  facet normal 1.000000e+00 -5.457617e-15 0.000000e+00
    outer loop
      vertex   -1.000000e+00 9.000000e+00 -6.264053e+00
      vertex   -1.000000e+00 9.040685e+00 -6.198447e+00
      vertex   -1.000000e+00 9.000000e+00 -6.000000e+00
    endloop
  endfacet
  facet normal 1.000000e+00 2.759677e-15 1.684694e-15
    outer loop
      vertex   -1.000000e+00 9.000000e+00 -6.000000e+00
      vertex   -1.000000e+00 9.040685e+00 -6.198447e+00
      vertex   -1.000000e+00 9.080929e+00 -6.132568e+00
    endloop
  endfacet
  facet normal 1.000000e+00 -2.769235e-15 -1.690528e-15
    outer loop
      vertex   -1.000000e+00 9.000000e+00 -6.000000e+00
      vertex   -1.000000e+00 9.080929e+00 -6.132568e+00
      vertex   -1.000000e+00 9.120729e+00 -6.066418e+00
    endloop
  endfacet
  facet normal 1.000000e+00 0.000000e+00 3.343132e-15
    outer loop
      vertex   -1.000000e+00 9.120729e+00 -6.066418e+00
      vertex   -1.000000e+00 9.160085e+00 -6.000000e+00
      vertex   -1.000000e+00 9.000000e+00 -6.000000e+00
    endloop
  endfacet
endsolid
