solid ASCII
  facet normal 4.407952e-01 -8.331880e-01 -3.339122e-01
    outer loop
      vertex   4.943395e+00 -8.945000e+00 -3.923756e+00
      vertex   4.885638e+00 -8.945000e+00 -4.000000e+00
      vertex   4.955974e+00 -8.938498e+00 -3.923375e+00
    endloop
  endfacet
  facet normal 4.411641e-01 -8.328453e-01 -3.342798e-01
    outer loop
      vertex   4.955974e+00 -8.938498e+00 -3.923375e+00
      vertex   4.885638e+00 -8.945000e+00 -4.000000e+00
      vertex   5.000000e+00 -8.884422e+00 -4.000000e+00
    endloop
  endfacet
  facet normal 4.426308e-01 -8.325018e-01 -3.331947e-01
    outer loop
      vertex   4.955974e+00 -8.938498e+00 -3.923375e+00
      vertex   5.000000e+00 -8.884422e+00 -4.000000e+00
      vertex   4.984623e+00 -8.923266e+00 -3.923375e+00
    endloop
  endfacet
  facet normal 4.447334e-01 -8.317100e-01 -3.323713e-01
    outer loop
      vertex   4.984623e+00 -8.923266e+00 -3.923375e+00
      vertex   5.000000e+00 -8.884422e+00 -4.000000e+00
      vertex   5.000000e+00 -8.915012e+00 -3.923452e+00
    endloop
  endfacet
  facet normal 4.458694e-01 -8.337636e-01 -3.256360e-01
    outer loop
      vertex   4.984623e+00 -8.923266e+00 -3.923375e+00
      vertex   5.000000e+00 -8.915012e+00 -3.923452e+00
      vertex   5.000000e+00 -8.945000e+00 -3.846671e+00
    endloop
  endfacet
  facet normal 4.438831e-01 -8.348571e-01 -3.255477e-01
    outer loop
      vertex   4.984623e+00 -8.923266e+00 -3.923375e+00
      vertex   5.000000e+00 -8.945000e+00 -3.846671e+00
      vertex   4.955974e+00 -8.938498e+00 -3.923375e+00
    endloop
  endfacet
  facet normal 4.420626e-01 -8.361851e-01 -3.246154e-01
    outer loop
      vertex   4.955974e+00 -8.938498e+00 -3.923375e+00
      vertex   5.000000e+00 -8.945000e+00 -3.846671e+00
      vertex   4.943395e+00 -8.945000e+00 -3.923756e+00
    endloop
  endfacet
  facet normal -2.429988e-26 -1.000000e+00 2.329845e-14
    outer loop
      vertex   4.885638e+00 -8.945000e+00 -4.000000e+00
      vertex   4.943395e+00 -8.945000e+00 -3.923756e+00
      vertex   4.000000e+00 -8.945000e+00 -4.000000e+00
    endloop
  endfacet
  facet normal 1.882941e-15 -1.000000e+00 0.000000e+00
    outer loop
      vertex   4.000000e+00 -8.945000e+00 -4.000000e+00
      vertex   4.943395e+00 -8.945000e+00 -3.923756e+00
      vertex   4.000000e+00 -8.945000e+00 -3.000000e+00
    endloop
  endfacet
  facet normal -1.203080e-14 -1.000000e+00 -1.420954e-14
    outer loop
      vertex   4.000000e+00 -8.945000e+00 -3.000000e+00
      vertex   4.943395e+00 -8.945000e+00 -3.923756e+00
      vertex   5.000000e+00 -8.945000e+00 -3.846671e+00
    endloop
  endfacet
  facet normal 0.000000e+00 -1.000000e+00 0.000000e+00
    outer loop
      vertex   4.000000e+00 -8.945000e+00 -3.000000e+00
      vertex   5.000000e+00 -8.945000e+00 -3.846671e+00
      vertex   5.000000e+00 -8.945000e+00 -3.000000e+00
    endloop
  endfacet
  facet normal -8.077063e-12 0.000000e+00 -1.000000e+00
    outer loop
      vertex   5.000000e+00 -8.884422e+00 -4.000000e+00
      vertex   4.885638e+00 -8.945000e+00 -4.000000e+00
      vertex   5.000000e+00 -8.000000e+00 -4.000000e+00
    endloop
  endfacet
  facet normal -0.000000e+00 -9.774662e-13 -1.000000e+00
    outer loop
      vertex   5.000000e+00 -8.000000e+00 -4.000000e+00
      vertex   4.885638e+00 -8.945000e+00 -4.000000e+00
      vertex   4.000000e+00 -8.000000e+00 -4.000000e+00
    endloop
  endfacet
  facet normal 1.042983e-12 0.000000e+00 -1.000000e+00
    outer loop
      vertex   4.000000e+00 -8.000000e+00 -4.000000e+00
      vertex   4.885638e+00 -8.945000e+00 -4.000000e+00
      vertex   4.000000e+00 -8.945000e+00 -4.000000e+00
    endloop
  endfacet
  facet normal -1.000000e+00 0.000000e+00 0.000000e+00
    outer loop
      vertex   4.000000e+00 -8.945000e+00 -4.000000e+00
      vertex   4.000000e+00 -8.945000e+00 -3.000000e+00
      vertex   4.000000e+00 -8.000000e+00 -4.000000e+00
    endloop
  endfacet
  facet normal -1.000000e+00 0.000000e+00 0.000000e+00
    outer loop
      vertex   4.000000e+00 -8.000000e+00 -4.000000e+00
      vertex   4.000000e+00 -8.945000e+00 -3.000000e+00
      vertex   4.000000e+00 -8.000000e+00 -3.000000e+00
    endloop
  endfacet
  facet normal 0.000000e+00 0.000000e+00 1.000000e+00
    outer loop
      vertex   4.000000e+00 -8.945000e+00 -3.000000e+00
      vertex   5.000000e+00 -8.945000e+00 -3.000000e+00
      vertex   4.000000e+00 -8.000000e+00 -3.000000e+00
    endloop
  endfacet
  facet normal -0.000000e+00 0.000000e+00 1.000000e+00
    outer loop
      vertex   4.000000e+00 -8.000000e+00 -3.000000e+00
      vertex   5.000000e+00 -8.945000e+00 -3.000000e+00
      vertex   5.000000e+00 -8.000000e+00 -3.000000e+00
    endloop
  endfacet
  facet normal 0.000000e+00 1.000000e+00 0.000000e+00
    outer loop
      vertex   5.000000e+00 -8.000000e+00 -3.000000e+00
      vertex   5.000000e+00 -8.000000e+00 -4.000000e+00
      vertex   4.000000e+00 -8.000000e+00 -3.000000e+00
    endloop
  endfacet
  facet normal 0.000000e+00 1.000000e+00 0.000000e+00
    outer loop
      vertex   4.000000e+00 -8.000000e+00 -3.000000e+00
      vertex   5.000000e+00 -8.000000e+00 -4.000000e+00
      vertex   4.000000e+00 -8.000000e+00 -4.000000e+00
    endloop
  endfacet
  facet normal 1.000000e+00 -4.775416e-15 2.572461e-11
    outer loop
      vertex   5.000000e+00 -8.915012e+00 -3.923452e+00
      vertex   5.000000e+00 -8.000000e+00 -4.000000e+00
      vertex   5.000000e+00 -8.945000e+00 -3.846671e+00
    endloop
  endfacet
  facet normal 1.000000e+00 -4.178668e-12 0.000000e+00
    outer loop
      vertex   5.000000e+00 -8.945000e+00 -3.846671e+00
      vertex   5.000000e+00 -8.000000e+00 -4.000000e+00
      vertex   5.000000e+00 -8.000000e+00 -3.000000e+00
    endloop
  endfacet
  facet normal 1.000000e+00 0.000000e+00 -4.663962e-12
    outer loop
      vertex   5.000000e+00 -8.945000e+00 -3.846671e+00
      vertex   5.000000e+00 -8.000000e+00 -3.000000e+00
      vertex   5.000000e+00 -8.945000e+00 -3.000000e+00
    endloop
  endfacet
  facet normal 1.000000e+00 0.000000e+00 2.578169e-11
    outer loop
      vertex   5.000000e+00 -8.915012e+00 -3.923452e+00
      vertex   5.000000e+00 -8.884422e+00 -4.000000e+00
      vertex   5.000000e+00 -8.000000e+00 -4.000000e+00
    endloop
  endfacet
endsolid
