solid ASCII
  facet normal -1.360559e-01 -5.764789e-01 -8.057052e-01
    outer loop
      vertex   -1.033962e+00 -1.015137e+01 -6.000000e+00
      vertex   -1.026451e+00 -1.014331e+01 -6.007036e+00
      vertex   -1.000000e+00 -1.015938e+01 -6.000000e+00
    endloop
  endfacet
  facet normal -1.341183e-01 -5.741575e-01 -8.076852e-01
    outer loop
      vertex   -1.000000e+00 -1.015938e+01 -6.000000e+00
      vertex   -1.026451e+00 -1.014331e+01 -6.007036e+00
      vertex   -1.019438e+00 -1.013512e+01 -6.014020e+00
    endloop
  endfacet
  facet normal -1.307937e-01 -5.724915e-01 -8.094112e-01
    outer loop
      vertex   -1.000000e+00 -1.015938e+01 -6.000000e+00
      vertex   -1.019438e+00 -1.013512e+01 -6.014020e+00
      vertex   -1.000000e+00 -1.012026e+01 -6.027672e+00
    endloop
  endfacet
  facet normal -1.363106e-01 -5.676000e-01 -8.119419e-01
    outer loop
      vertex   -1.000000e+00 -1.012026e+01 -6.027672e+00
      vertex   -1.019438e+00 -1.013512e+01 -6.014020e+00
      vertex   -1.005400e+00 -1.011873e+01 -6.027833e+00
    endloop
  endfacet
  facet normal -1.334054e-01 -5.580788e-01 -8.189939e-01
    outer loop
      vertex   -1.000000e+00 -1.012026e+01 -6.027672e+00
      vertex   -1.005400e+00 -1.011873e+01 -6.027833e+00
      vertex   -1.023314e+00 -1.009448e+01 -6.041439e+00
    endloop
  endfacet
  facet normal -1.373643e-01 -5.599272e-01 -8.170756e-01
    outer loop
      vertex   -1.023314e+00 -1.009448e+01 -6.041439e+00
      vertex   -1.005400e+00 -1.011873e+01 -6.027833e+00
      vertex   -1.037821e+00 -1.011078e+01 -6.027833e+00
    endloop
  endfacet
  facet normal -1.419348e-01 -5.569208e-01 -8.183481e-01
    outer loop
      vertex   -1.023314e+00 -1.009448e+01 -6.041439e+00
      vertex   -1.037821e+00 -1.011078e+01 -6.027833e+00
      vertex   -1.055142e+00 -1.008637e+01 -6.041439e+00
    endloop
  endfacet
  facet normal -1.419348e-01 -5.569208e-01 -8.183481e-01
    outer loop
      vertex   -1.055142e+00 -1.008637e+01 -6.041439e+00
      vertex   -1.037821e+00 -1.011078e+01 -6.027833e+00
      vertex   -1.070100e+00 -1.010255e+01 -6.027833e+00
    endloop
  endfacet
  facet normal -1.465060e-01 -5.537985e-01 -8.196604e-01
    outer loop
      vertex   -1.055142e+00 -1.008637e+01 -6.041439e+00
      vertex   -1.070100e+00 -1.010255e+01 -6.027833e+00
      vertex   -1.086818e+00 -1.007799e+01 -6.041439e+00
    endloop
  endfacet
  facet normal -1.465060e-01 -5.537985e-01 -8.196604e-01
    outer loop
      vertex   -1.086818e+00 -1.007799e+01 -6.041439e+00
      vertex   -1.070100e+00 -1.010255e+01 -6.027833e+00
      vertex   -1.102225e+00 -1.009405e+01 -6.027833e+00
    endloop
  endfacet
  facet normal -1.510768e-01 -5.505589e-01 -8.210120e-01
    outer loop
      vertex   -1.086818e+00 -1.007799e+01 -6.041439e+00
      vertex   -1.102225e+00 -1.009405e+01 -6.027833e+00
      vertex   -1.118332e+00 -1.006934e+01 -6.041439e+00
    endloop
  endfacet
  facet normal -1.510768e-01 -5.505589e-01 -8.210120e-01
    outer loop
      vertex   -1.118332e+00 -1.006934e+01 -6.041439e+00
      vertex   -1.102225e+00 -1.009405e+01 -6.027833e+00
      vertex   -1.134185e+00 -1.008528e+01 -6.027833e+00
    endloop
  endfacet
  facet normal -1.556460e-01 -5.472009e-01 -8.224023e-01
    outer loop
      vertex   -1.118332e+00 -1.006934e+01 -6.041439e+00
      vertex   -1.134185e+00 -1.008528e+01 -6.027833e+00
      vertex   -1.149670e+00 -1.006043e+01 -6.041439e+00
    endloop
  endfacet
  facet normal -1.556460e-01 -5.472009e-01 -8.224023e-01
    outer loop
      vertex   -1.149670e+00 -1.006043e+01 -6.041439e+00
      vertex   -1.134185e+00 -1.008528e+01 -6.027833e+00
      vertex   -1.165968e+00 -1.007624e+01 -6.027833e+00
    endloop
  endfacet
  facet normal -1.602122e-01 -5.437234e-01 -8.238306e-01
    outer loop
      vertex   -1.149670e+00 -1.006043e+01 -6.041439e+00
      vertex   -1.165968e+00 -1.007624e+01 -6.027833e+00
      vertex   -1.180821e+00 -1.005125e+01 -6.041439e+00
    endloop
  endfacet
  facet normal -1.602122e-01 -5.437234e-01 -8.238306e-01
    outer loop
      vertex   -1.180821e+00 -1.005125e+01 -6.041439e+00
      vertex   -1.165968e+00 -1.007624e+01 -6.027833e+00
      vertex   -1.197561e+00 -1.006693e+01 -6.027833e+00
    endloop
  endfacet
  facet normal -1.647743e-01 -5.401254e-01 -8.252963e-01
    outer loop
      vertex   -1.180821e+00 -1.005125e+01 -6.041439e+00
      vertex   -1.197561e+00 -1.006693e+01 -6.027833e+00
      vertex   -1.211774e+00 -1.004181e+01 -6.041439e+00
    endloop
  endfacet
  facet normal -1.647743e-01 -5.401254e-01 -8.252963e-01
    outer loop
      vertex   -1.211774e+00 -1.004181e+01 -6.041439e+00
      vertex   -1.197561e+00 -1.006693e+01 -6.027833e+00
      vertex   -1.228952e+00 -1.005736e+01 -6.027833e+00
    endloop
  endfacet
  facet normal -1.693309e-01 -5.364058e-01 -8.267986e-01
    outer loop
      vertex   -1.211774e+00 -1.004181e+01 -6.041439e+00
      vertex   -1.228952e+00 -1.005736e+01 -6.027833e+00
      vertex   -1.242517e+00 -1.003210e+01 -6.041439e+00
    endloop
  endfacet
  facet normal -1.693309e-01 -5.364058e-01 -8.267986e-01
    outer loop
      vertex   -1.242517e+00 -1.003210e+01 -6.041439e+00
      vertex   -1.228952e+00 -1.005736e+01 -6.027833e+00
      vertex   -1.260131e+00 -1.004751e+01 -6.027833e+00
    endloop
  endfacet
  facet normal -1.738806e-01 -5.325635e-01 -8.283367e-01
    outer loop
      vertex   -1.242517e+00 -1.003210e+01 -6.041439e+00
      vertex   -1.260131e+00 -1.004751e+01 -6.027833e+00
      vertex   -1.273038e+00 -1.002214e+01 -6.041439e+00
    endloop
  endfacet
  facet normal -1.738806e-01 -5.325635e-01 -8.283367e-01
    outer loop
      vertex   -1.273038e+00 -1.002214e+01 -6.041439e+00
      vertex   -1.260131e+00 -1.004751e+01 -6.027833e+00
      vertex   -1.291084e+00 -1.003741e+01 -6.027833e+00
    endloop
  endfacet
  facet normal -1.784221e-01 -5.285977e-01 -8.299096e-01
    outer loop
      vertex   -1.273038e+00 -1.002214e+01 -6.041439e+00
      vertex   -1.291084e+00 -1.003741e+01 -6.027833e+00
      vertex   -1.303325e+00 -1.001191e+01 -6.041439e+00
    endloop
  endfacet
  facet normal -1.784221e-01 -5.285977e-01 -8.299096e-01
    outer loop
      vertex   -1.303325e+00 -1.001191e+01 -6.041439e+00
      vertex   -1.291084e+00 -1.003741e+01 -6.027833e+00
      vertex   -1.321801e+00 -1.002704e+01 -6.027833e+00
    endloop
  endfacet
  facet normal -1.829537e-01 -5.245074e-01 -8.315166e-01
    outer loop
      vertex   -1.303325e+00 -1.001191e+01 -6.041439e+00
      vertex   -1.321801e+00 -1.002704e+01 -6.027833e+00
      vertex   -1.333368e+00 -1.000144e+01 -6.041439e+00
    endloop
  endfacet
  facet normal -1.829537e-01 -5.245074e-01 -8.315166e-01
    outer loop
      vertex   -1.333368e+00 -1.000144e+01 -6.041439e+00
      vertex   -1.321801e+00 -1.002704e+01 -6.027833e+00
      vertex   -1.352270e+00 -1.001641e+01 -6.027833e+00
    endloop
  endfacet
  facet normal -1.874742e-01 -5.202919e-01 -8.331565e-01
    outer loop
      vertex   -1.333368e+00 -1.000144e+01 -6.041439e+00
      vertex   -1.352270e+00 -1.001641e+01 -6.027833e+00
      vertex   -1.382479e+00 -1.000553e+01 -6.027833e+00
    endloop
  endfacet
  facet normal -1.895895e-01 -5.261625e-01 -8.289806e-01
    outer loop
      vertex   -1.382479e+00 -1.000553e+01 -6.027833e+00
      vertex   -1.352270e+00 -1.001641e+01 -6.027833e+00
      vertex   -1.371151e+00 -1.003137e+01 -6.014020e+00
    endloop
  endfacet
  facet normal -1.895895e-01 -5.261625e-01 -8.289806e-01
    outer loop
      vertex   -1.382479e+00 -1.000553e+01 -6.027833e+00
      vertex   -1.371151e+00 -1.003137e+01 -6.014020e+00
      vertex   -1.401781e+00 -1.002033e+01 -6.014020e+00
    endloop
  endfacet
  facet normal -1.911627e-01 -5.305287e-01 -8.258306e-01
    outer loop
      vertex   -1.401781e+00 -1.002033e+01 -6.014020e+00
      vertex   -1.371151e+00 -1.003137e+01 -6.014020e+00
      vertex   -1.380583e+00 -1.003884e+01 -6.007036e+00
    endloop
  endfacet
  facet normal -1.911627e-01 -5.305287e-01 -8.258306e-01
    outer loop
      vertex   -1.401781e+00 -1.002033e+01 -6.014020e+00
      vertex   -1.380583e+00 -1.003884e+01 -6.007036e+00
      vertex   -1.411424e+00 -1.002773e+01 -6.007036e+00
    endloop
  endfacet
  facet normal -1.921105e-01 -5.331591e-01 -8.239144e-01
    outer loop
      vertex   -1.411424e+00 -1.002773e+01 -6.007036e+00
      vertex   -1.380583e+00 -1.003884e+01 -6.007036e+00
      vertex   -1.390999e+00 -1.004596e+01 -6.000000e+00
    endloop
  endfacet
  facet normal -1.923785e-01 -5.333799e-01 -8.237089e-01
    outer loop
      vertex   -1.411424e+00 -1.002773e+01 -6.007036e+00
      vertex   -1.390999e+00 -1.004596e+01 -6.000000e+00
      vertex   -1.421821e+00 -1.003485e+01 -6.000000e+00
    endloop
  endfacet
  facet normal -1.406702e-01 -5.734026e-01 -8.071068e-01
    outer loop
      vertex   -1.026451e+00 -1.014331e+01 -6.007036e+00
      vertex   -1.033962e+00 -1.015137e+01 -6.000000e+00
      vertex   -1.059550e+00 -1.013519e+01 -6.007036e+00
    endloop
  endfacet
  facet normal -1.408181e-01 -5.735727e-01 -8.069601e-01
    outer loop
      vertex   -1.059550e+00 -1.013519e+01 -6.007036e+00
      vertex   -1.033962e+00 -1.015137e+01 -6.000000e+00
      vertex   -1.067690e+00 -1.014309e+01 -6.000000e+00
    endloop
  endfacet
  facet normal -1.453391e-01 -5.702786e-01 -8.084917e-01
    outer loop
      vertex   -1.059550e+00 -1.013519e+01 -6.007036e+00
      vertex   -1.067690e+00 -1.014309e+01 -6.000000e+00
      vertex   -1.092505e+00 -1.012679e+01 -6.007036e+00
    endloop
  endfacet
  facet normal -1.455674e-01 -5.705315e-01 -8.082722e-01
    outer loop
      vertex   -1.092505e+00 -1.012679e+01 -6.007036e+00
      vertex   -1.067690e+00 -1.014309e+01 -6.000000e+00
      vertex   -1.101180e+00 -1.013454e+01 -6.000000e+00
    endloop
  endfacet
  facet normal -1.500109e-01 -5.670470e-01 -8.099101e-01
    outer loop
      vertex   -1.092505e+00 -1.012679e+01 -6.007036e+00
      vertex   -1.101180e+00 -1.013454e+01 -6.000000e+00
      vertex   -1.125303e+00 -1.011811e+01 -6.007036e+00
    endloop
  endfacet
  facet normal -1.503043e-01 -5.673604e-01 -8.096362e-01
    outer loop
      vertex   -1.125303e+00 -1.011811e+01 -6.007036e+00
      vertex   -1.101180e+00 -1.013454e+01 -6.000000e+00
      vertex   -1.134425e+00 -1.012573e+01 -6.000000e+00
    endloop
  endfacet
  facet normal -1.546853e-01 -5.637091e-01 -8.113597e-01
    outer loop
      vertex   -1.125303e+00 -1.011811e+01 -6.007036e+00
      vertex   -1.134425e+00 -1.012573e+01 -6.000000e+00
      vertex   -1.157932e+00 -1.010916e+01 -6.007036e+00
    endloop
  endfacet
  facet normal -1.550290e-01 -5.640639e-01 -8.110474e-01
    outer loop
      vertex   -1.157932e+00 -1.010916e+01 -6.007036e+00
      vertex   -1.134425e+00 -1.012573e+01 -6.000000e+00
      vertex   -1.167422e+00 -1.011667e+01 -6.000000e+00
    endloop
  endfacet
  facet normal -1.593621e-01 -5.602657e-01 -8.128383e-01
    outer loop
      vertex   -1.157932e+00 -1.010916e+01 -6.007036e+00
      vertex   -1.167422e+00 -1.011667e+01 -6.000000e+00
      vertex   -1.190380e+00 -1.009993e+01 -6.007036e+00
    endloop
  endfacet
  facet normal -1.597419e-01 -5.606453e-01 -8.125019e-01
    outer loop
      vertex   -1.190380e+00 -1.009993e+01 -6.007036e+00
      vertex   -1.167422e+00 -1.011667e+01 -6.000000e+00
      vertex   -1.200165e+00 -1.010734e+01 -6.000000e+00
    endloop
  endfacet
  facet normal -1.640410e-01 -5.567173e-01 -8.143442e-01
    outer loop
      vertex   -1.190380e+00 -1.009993e+01 -6.007036e+00
      vertex   -1.200165e+00 -1.010734e+01 -6.000000e+00
      vertex   -1.222635e+00 -1.009042e+01 -6.007036e+00
    endloop
  endfacet
  facet normal -1.644430e-01 -5.571068e-01 -8.139966e-01
    outer loop
      vertex   -1.222635e+00 -1.009042e+01 -6.007036e+00
      vertex   -1.200165e+00 -1.010734e+01 -6.000000e+00
      vertex   -1.232648e+00 -1.009775e+01 -6.000000e+00
    endloop
  endfacet
  facet normal -1.687213e-01 -5.530635e-01 -8.158761e-01
    outer loop
      vertex   -1.222635e+00 -1.009042e+01 -6.007036e+00
      vertex   -1.232648e+00 -1.009775e+01 -6.000000e+00
      vertex   -1.254683e+00 -1.008065e+01 -6.007036e+00
    endloop
  endfacet
  facet normal -1.691322e-01 -5.534501e-01 -8.155289e-01
    outer loop
      vertex   -1.254683e+00 -1.008065e+01 -6.007036e+00
      vertex   -1.232648e+00 -1.009775e+01 -6.000000e+00
      vertex   -1.264867e+00 -1.008790e+01 -6.000000e+00
    endloop
  endfacet
  facet normal -1.734024e-01 -5.493035e-01 -8.174333e-01
    outer loop
      vertex   -1.254683e+00 -1.008065e+01 -6.007036e+00
      vertex   -1.264867e+00 -1.008790e+01 -6.000000e+00
      vertex   -1.286515e+00 -1.007060e+01 -6.007036e+00
    endloop
  endfacet
  facet normal -1.738092e-01 -5.496756e-01 -8.170968e-01
    outer loop
      vertex   -1.286515e+00 -1.007060e+01 -6.007036e+00
      vertex   -1.264867e+00 -1.008790e+01 -6.000000e+00
      vertex   -1.296817e+00 -1.007780e+01 -6.000000e+00
    endloop
  endfacet
  facet normal -1.780834e-01 -5.454357e-01 -8.190154e-01
    outer loop
      vertex   -1.286515e+00 -1.007060e+01 -6.007036e+00
      vertex   -1.296817e+00 -1.007780e+01 -6.000000e+00
      vertex   -1.318116e+00 -1.006028e+01 -6.007036e+00
    endloop
  endfacet
  facet normal -1.784735e-01 -5.457830e-01 -8.186991e-01
    outer loop
      vertex   -1.318116e+00 -1.006028e+01 -6.007036e+00
      vertex   -1.296817e+00 -1.007780e+01 -6.000000e+00
      vertex   -1.328492e+00 -1.006744e+01 -6.000000e+00
    endloop
  endfacet
  facet normal -1.827629e-01 -5.414579e-01 -8.206224e-01
    outer loop
      vertex   -1.318116e+00 -1.006028e+01 -6.007036e+00
      vertex   -1.328492e+00 -1.006744e+01 -6.000000e+00
      vertex   -1.349477e+00 -1.004969e+01 -6.007036e+00
    endloop
  endfacet
  facet normal -1.831240e-01 -5.417710e-01 -8.203352e-01
    outer loop
      vertex   -1.349477e+00 -1.004969e+01 -6.007036e+00
      vertex   -1.328492e+00 -1.006744e+01 -6.000000e+00
      vertex   -1.359888e+00 -1.005683e+01 -6.000000e+00
    endloop
  endfacet
  facet normal -1.874393e-01 -5.373669e-01 -8.222550e-01
    outer loop
      vertex   -1.349477e+00 -1.004969e+01 -6.007036e+00
      vertex   -1.359888e+00 -1.005683e+01 -6.000000e+00
      vertex   -1.380583e+00 -1.003884e+01 -6.007036e+00
    endloop
  endfacet
  facet normal -1.877595e-01 -5.376377e-01 -8.220049e-01
    outer loop
      vertex   -1.380583e+00 -1.003884e+01 -6.007036e+00
      vertex   -1.359888e+00 -1.005683e+01 -6.000000e+00
      vertex   -1.390999e+00 -1.004596e+01 -6.000000e+00
    endloop
  endfacet
  facet normal -1.967742e-01 -5.288296e-01 -8.256023e-01
    outer loop
      vertex   -1.411424e+00 -1.002773e+01 -6.007036e+00
      vertex   -1.421821e+00 -1.003485e+01 -6.000000e+00
      vertex   -1.441988e+00 -1.001636e+01 -6.007036e+00
    endloop
  endfacet
  facet normal -1.969786e-01 -5.289939e-01 -8.254483e-01
    outer loop
      vertex   -1.441988e+00 -1.001636e+01 -6.007036e+00
      vertex   -1.421821e+00 -1.003485e+01 -6.000000e+00
      vertex   -1.452348e+00 -1.002348e+01 -6.000000e+00
    endloop
  endfacet
  facet normal -2.014347e-01 -5.243652e-01 -8.273241e-01
    outer loop
      vertex   -1.441988e+00 -1.001636e+01 -6.007036e+00
      vertex   -1.452348e+00 -1.002348e+01 -6.000000e+00
      vertex   -1.472364e+00 -1.000469e+01 -6.007036e+00
    endloop
  endfacet
  facet normal -2.015498e-01 -5.244559e-01 -8.272386e-01
    outer loop
      vertex   -1.472364e+00 -1.000469e+01 -6.007036e+00
      vertex   -1.452348e+00 -1.002348e+01 -6.000000e+00
      vertex   -1.482575e+00 -1.001186e+01 -6.000000e+00
    endloop
  endfacet
  facet normal -2.060960e-01 -5.197796e-01 -8.290679e-01
    outer loop
      vertex   -1.472364e+00 -1.000469e+01 -6.007036e+00
      vertex   -1.482575e+00 -1.001186e+01 -6.000000e+00
      vertex   -1.512497e+00 -1.000000e+01 -6.000000e+00
    endloop
  endfacet
  facet normal -2.060067e-01 -5.088692e-01 -8.358309e-01
    outer loop
      vertex   -1.512497e+00 -1.000000e+01 -6.000000e+00
      vertex   -1.448992e+00 -1.000000e+01 -6.015652e+00
      vertex   -1.472364e+00 -1.000469e+01 -6.007036e+00
    endloop
  endfacet
  facet normal -2.006803e-01 -5.224014e-01 -8.287486e-01
    outer loop
      vertex   -1.472364e+00 -1.000469e+01 -6.007036e+00
      vertex   -1.448992e+00 -1.000000e+01 -6.015652e+00
      vertex   -1.441988e+00 -1.001636e+01 -6.007036e+00
    endloop
  endfacet
  facet normal -1.997927e-01 -5.222009e-01 -8.290893e-01
    outer loop
      vertex   -1.441988e+00 -1.001636e+01 -6.007036e+00
      vertex   -1.448992e+00 -1.000000e+01 -6.015652e+00
      vertex   -1.432137e+00 -1.000904e+01 -6.014020e+00
    endloop
  endfacet
  facet normal -1.961519e-01 -5.162404e-01 -8.336788e-01
    outer loop
      vertex   -1.432137e+00 -1.000904e+01 -6.014020e+00
      vertex   -1.448992e+00 -1.000000e+01 -6.015652e+00
      vertex   -1.385314e+00 -1.000000e+01 -6.030634e+00
    endloop
  endfacet
  facet normal -1.940929e-01 -5.216236e-01 -8.308049e-01
    outer loop
      vertex   -1.432137e+00 -1.000904e+01 -6.014020e+00
      vertex   -1.385314e+00 -1.000000e+01 -6.030634e+00
      vertex   -1.401781e+00 -1.002033e+01 -6.014020e+00
    endloop
  endfacet
  facet normal -1.948760e-01 -5.211053e-01 -8.309468e-01
    outer loop
      vertex   -1.401781e+00 -1.002033e+01 -6.014020e+00
      vertex   -1.385314e+00 -1.000000e+01 -6.030634e+00
      vertex   -1.382479e+00 -1.000553e+01 -6.027833e+00
    endloop
  endfacet
  facet normal -1.877924e-01 -5.189715e-01 -8.339080e-01
    outer loop
      vertex   -1.382479e+00 -1.000553e+01 -6.027833e+00
      vertex   -1.385314e+00 -1.000000e+01 -6.030634e+00
      vertex   -1.333368e+00 -1.000144e+01 -6.041439e+00
    endloop
  endfacet
  facet normal -1.899853e-01 -4.955141e-01 -8.475679e-01
    outer loop
      vertex   -1.333368e+00 -1.000144e+01 -6.041439e+00
      vertex   -1.385314e+00 -1.000000e+01 -6.030634e+00
      vertex   -1.321469e+00 -1.000000e+01 -6.044946e+00
    endloop
  endfacet
  facet normal -1.823376e-01 -5.227411e-01 -8.327633e-01
    outer loop
      vertex   -1.333368e+00 -1.000144e+01 -6.041439e+00
      vertex   -1.321469e+00 -1.000000e+01 -6.044946e+00
      vertex   -1.303325e+00 -1.001191e+01 -6.041439e+00
    endloop
  endfacet
  facet normal -1.782884e-01 -5.177481e-01 -8.367497e-01
    outer loop
      vertex   -1.303325e+00 -1.001191e+01 -6.041439e+00
      vertex   -1.321469e+00 -1.000000e+01 -6.044946e+00
      vertex   -1.257461e+00 -1.000000e+01 -6.058584e+00
    endloop
  endfacet
  facet normal -1.762604e-01 -5.221934e-01 -8.344138e-01
    outer loop
      vertex   -1.303325e+00 -1.001191e+01 -6.041439e+00
      vertex   -1.257461e+00 -1.000000e+01 -6.058584e+00
      vertex   -1.273038e+00 -1.002214e+01 -6.041439e+00
    endloop
  endfacet
  facet normal -1.781296e-01 -5.211001e-01 -8.347003e-01
    outer loop
      vertex   -1.273038e+00 -1.002214e+01 -6.041439e+00
      vertex   -1.257461e+00 -1.000000e+01 -6.058584e+00
      vertex   -1.254971e+00 -1.000685e+01 -6.054838e+00
    endloop
  endfacet
  facet normal -1.719228e-01 -5.265670e-01 -8.325682e-01
    outer loop
      vertex   -1.273038e+00 -1.002214e+01 -6.041439e+00
      vertex   -1.254971e+00 -1.000685e+01 -6.054838e+00
      vertex   -1.242517e+00 -1.003210e+01 -6.041439e+00
    endloop
  endfacet
  facet normal -1.719228e-01 -5.265670e-01 -8.325682e-01
    outer loop
      vertex   -1.242517e+00 -1.003210e+01 -6.041439e+00
      vertex   -1.254971e+00 -1.000685e+01 -6.054838e+00
      vertex   -1.224883e+00 -1.001668e+01 -6.054838e+00
    endloop
  endfacet
  facet normal -1.674312e-01 -5.303880e-01 -8.310568e-01
    outer loop
      vertex   -1.242517e+00 -1.003210e+01 -6.041439e+00
      vertex   -1.224883e+00 -1.001668e+01 -6.054838e+00
      vertex   -1.211774e+00 -1.004181e+01 -6.041439e+00
    endloop
  endfacet
  facet normal -1.674312e-01 -5.303880e-01 -8.310568e-01
    outer loop
      vertex   -1.211774e+00 -1.004181e+01 -6.041439e+00
      vertex   -1.224883e+00 -1.001668e+01 -6.054838e+00
      vertex   -1.194577e+00 -1.002624e+01 -6.054838e+00
    endloop
  endfacet
  facet normal -1.629324e-01 -5.340875e-01 -8.295804e-01
    outer loop
      vertex   -1.211774e+00 -1.004181e+01 -6.041439e+00
      vertex   -1.194577e+00 -1.002624e+01 -6.054838e+00
      vertex   -1.180821e+00 -1.005125e+01 -6.041439e+00
    endloop
  endfacet
  facet normal -1.629324e-01 -5.340875e-01 -8.295804e-01
    outer loop
      vertex   -1.180821e+00 -1.005125e+01 -6.041439e+00
      vertex   -1.194577e+00 -1.002624e+01 -6.054838e+00
      vertex   -1.164063e+00 -1.003555e+01 -6.054838e+00
    endloop
  endfacet
  facet normal -1.584275e-01 -5.376665e-01 -8.281397e-01
    outer loop
      vertex   -1.180821e+00 -1.005125e+01 -6.041439e+00
      vertex   -1.164063e+00 -1.003555e+01 -6.054838e+00
      vertex   -1.149670e+00 -1.006043e+01 -6.041439e+00
    endloop
  endfacet
  facet normal -1.584275e-01 -5.376665e-01 -8.281397e-01
    outer loop
      vertex   -1.149670e+00 -1.006043e+01 -6.041439e+00
      vertex   -1.164063e+00 -1.003555e+01 -6.054838e+00
      vertex   -1.133354e+00 -1.004460e+01 -6.054838e+00
    endloop
  endfacet
  facet normal -1.539180e-01 -5.411260e-01 -8.267357e-01
    outer loop
      vertex   -1.149670e+00 -1.006043e+01 -6.041439e+00
      vertex   -1.133354e+00 -1.004460e+01 -6.054838e+00
      vertex   -1.118332e+00 -1.006934e+01 -6.041439e+00
    endloop
  endfacet
  facet normal -1.539180e-01 -5.411260e-01 -8.267357e-01
    outer loop
      vertex   -1.118332e+00 -1.006934e+01 -6.041439e+00
      vertex   -1.133354e+00 -1.004460e+01 -6.054838e+00
      vertex   -1.102461e+00 -1.005339e+01 -6.054838e+00
    endloop
  endfacet
  facet normal -1.494052e-01 -5.444670e-01 -8.253689e-01
    outer loop
      vertex   -1.118332e+00 -1.006934e+01 -6.041439e+00
      vertex   -1.102461e+00 -1.005339e+01 -6.054838e+00
      vertex   -1.086818e+00 -1.007799e+01 -6.041439e+00
    endloop
  endfacet
  facet normal -1.494052e-01 -5.444670e-01 -8.253689e-01
    outer loop
      vertex   -1.086818e+00 -1.007799e+01 -6.041439e+00
      vertex   -1.102461e+00 -1.005339e+01 -6.054838e+00
      vertex   -1.071395e+00 -1.006191e+01 -6.054838e+00
    endloop
  endfacet
  facet normal -1.448902e-01 -5.476906e-01 -8.240399e-01
    outer loop
      vertex   -1.086818e+00 -1.007799e+01 -6.041439e+00
      vertex   -1.071395e+00 -1.006191e+01 -6.054838e+00
      vertex   -1.055142e+00 -1.008637e+01 -6.041439e+00
    endloop
  endfacet
  facet normal -1.448902e-01 -5.476906e-01 -8.240399e-01
    outer loop
      vertex   -1.055142e+00 -1.008637e+01 -6.041439e+00
      vertex   -1.071395e+00 -1.006191e+01 -6.054838e+00
      vertex   -1.040168e+00 -1.007017e+01 -6.054838e+00
    endloop
  endfacet
  facet normal -1.403743e-01 -5.507979e-01 -8.227495e-01
    outer loop
      vertex   -1.055142e+00 -1.008637e+01 -6.041439e+00
      vertex   -1.040168e+00 -1.007017e+01 -6.054838e+00
      vertex   -1.023314e+00 -1.009448e+01 -6.041439e+00
    endloop
  endfacet
  facet normal -1.403743e-01 -5.507979e-01 -8.227495e-01
    outer loop
      vertex   -1.023314e+00 -1.009448e+01 -6.041439e+00
      vertex   -1.040168e+00 -1.007017e+01 -6.054838e+00
      vertex   -1.008792e+00 -1.007817e+01 -6.054838e+00
    endloop
  endfacet
  facet normal -1.375973e-01 -5.526403e-01 -8.219828e-01
    outer loop
      vertex   -1.023314e+00 -1.009448e+01 -6.041439e+00
      vertex   -1.008792e+00 -1.007817e+01 -6.054838e+00
      vertex   -1.000000e+00 -1.008065e+01 -6.054639e+00
    endloop
  endfacet
  facet normal -1.346666e-01 -5.428254e-01 -8.289786e-01
    outer loop
      vertex   -1.000000e+00 -1.008065e+01 -6.054639e+00
      vertex   -1.008792e+00 -1.007817e+01 -6.054838e+00
      vertex   -1.025179e+00 -1.005396e+01 -6.068029e+00
    endloop
  endfacet
  facet normal -1.344430e-01 -5.426803e-01 -8.291099e-01
    outer loop
      vertex   -1.000000e+00 -1.008065e+01 -6.054639e+00
      vertex   -1.025179e+00 -1.005396e+01 -6.068029e+00
      vertex   -1.000000e+00 -1.004057e+01 -6.080878e+00
    endloop
  endfacet
  facet normal -1.387351e-01 -5.372936e-01 -8.319063e-01
    outer loop
      vertex   -1.000000e+00 -1.004057e+01 -6.080878e+00
      vertex   -1.025179e+00 -1.005396e+01 -6.068029e+00
      vertex   -1.010175e+00 -1.003773e+01 -6.081013e+00
    endloop
  endfacet
  facet normal -1.358799e-01 -5.273792e-01 -8.386942e-01
    outer loop
      vertex   -1.000000e+00 -1.004057e+01 -6.080878e+00
      vertex   -1.010175e+00 -1.003773e+01 -6.081013e+00
      vertex   -1.025033e+00 -1.001358e+01 -6.093791e+00
    endloop
  endfacet
  facet normal -1.399426e-01 -5.289883e-01 -8.370110e-01
    outer loop
      vertex   -1.025033e+00 -1.001358e+01 -6.093791e+00
      vertex   -1.010175e+00 -1.003773e+01 -6.081013e+00
      vertex   -1.040501e+00 -1.002971e+01 -6.081013e+00
    endloop
  endfacet
  facet normal -1.442877e-01 -5.258179e-01 -8.382700e-01
    outer loop
      vertex   -1.025033e+00 -1.001358e+01 -6.093791e+00
      vertex   -1.040501e+00 -1.002971e+01 -6.081013e+00
      vertex   -1.054755e+00 -1.000542e+01 -6.093791e+00
    endloop
  endfacet
  facet normal -1.442877e-01 -5.258179e-01 -8.382700e-01
    outer loop
      vertex   -1.054755e+00 -1.000542e+01 -6.093791e+00
      vertex   -1.040501e+00 -1.002971e+01 -6.081013e+00
      vertex   -1.070672e+00 -1.002143e+01 -6.081013e+00
    endloop
  endfacet
  facet normal -1.482631e-01 -5.228109e-01 -8.394562e-01
    outer loop
      vertex   -1.054755e+00 -1.000542e+01 -6.093791e+00
      vertex   -1.070672e+00 -1.002143e+01 -6.081013e+00
      vertex   -1.064548e+00 -1.000000e+01 -6.095440e+00
    endloop
  endfacet
  facet normal -1.486750e-01 -5.226934e-01 -8.394566e-01
    outer loop
      vertex   -1.064548e+00 -1.000000e+01 -6.095440e+00
      vertex   -1.070672e+00 -1.002143e+01 -6.081013e+00
      vertex   -1.100674e+00 -1.001289e+01 -6.081013e+00
    endloop
  endfacet
  facet normal -1.516875e-01 -5.173490e-01 -8.422238e-01
    outer loop
      vertex   -1.064548e+00 -1.000000e+01 -6.095440e+00
      vertex   -1.100674e+00 -1.001289e+01 -6.081013e+00
      vertex   -1.128982e+00 -1.000000e+01 -6.083835e+00
    endloop
  endfacet
  facet normal -1.533983e-01 -5.205987e-01 -8.399083e-01
    outer loop
      vertex   -1.128982e+00 -1.000000e+01 -6.083835e+00
      vertex   -1.100674e+00 -1.001289e+01 -6.081013e+00
      vertex   -1.130498e+00 -1.000411e+01 -6.081013e+00
    endloop
  endfacet
  facet normal -1.662751e-01 -5.160782e-01 -8.402475e-01
    outer loop
      vertex   -1.128982e+00 -1.000000e+01 -6.083835e+00
      vertex   -1.130498e+00 -1.000411e+01 -6.081013e+00
      vertex   -1.147289e+00 -1.001984e+01 -6.068029e+00
    endloop
  endfacet
  facet normal -1.548046e-01 -5.253711e-01 -8.366725e-01
    outer loop
      vertex   -1.147289e+00 -1.001984e+01 -6.068029e+00
      vertex   -1.130498e+00 -1.000411e+01 -6.081013e+00
      vertex   -1.117022e+00 -1.002875e+01 -6.068029e+00
    endloop
  endfacet
  facet normal -1.566250e-01 -5.315490e-01 -8.324207e-01
    outer loop
      vertex   -1.147289e+00 -1.001984e+01 -6.068029e+00
      vertex   -1.117022e+00 -1.002875e+01 -6.068029e+00
      vertex   -1.133354e+00 -1.004460e+01 -6.054838e+00
    endloop
  endfacet
  facet normal -1.521726e-01 -5.349897e-01 -8.310412e-01
    outer loop
      vertex   -1.133354e+00 -1.004460e+01 -6.054838e+00
      vertex   -1.117022e+00 -1.002875e+01 -6.068029e+00
      vertex   -1.102461e+00 -1.005339e+01 -6.054838e+00
    endloop
  endfacet
  facet normal -1.701900e-01 -5.196222e-01 -8.372742e-01
    outer loop
      vertex   -1.254971e+00 -1.000685e+01 -6.054838e+00
      vertex   -1.257461e+00 -1.000000e+01 -6.058584e+00
      vertex   -1.207232e+00 -1.000123e+01 -6.068029e+00
    endloop
  endfacet
  facet normal -1.728440e-01 -4.881050e-01 -8.554990e-01
    outer loop
      vertex   -1.207232e+00 -1.000123e+01 -6.068029e+00
      vertex   -1.257461e+00 -1.000000e+01 -6.058584e+00
      vertex   -1.193296e+00 -1.000000e+01 -6.071548e+00
    endloop
  endfacet
  facet normal -1.649814e-01 -5.226273e-01 -8.364460e-01
    outer loop
      vertex   -1.207232e+00 -1.000123e+01 -6.068029e+00
      vertex   -1.193296e+00 -1.000000e+01 -6.071548e+00
      vertex   -1.177363e+00 -1.001066e+01 -6.068029e+00
    endloop
  endfacet
  facet normal -1.605842e-01 -5.174062e-01 -8.405377e-01
    outer loop
      vertex   -1.177363e+00 -1.001066e+01 -6.068029e+00
      vertex   -1.193296e+00 -1.000000e+01 -6.071548e+00
      vertex   -1.128982e+00 -1.000000e+01 -6.083835e+00
    endloop
  endfacet
  facet normal -1.590331e-01 -5.213059e-01 -8.384203e-01
    outer loop
      vertex   -1.177363e+00 -1.001066e+01 -6.068029e+00
      vertex   -1.128982e+00 -1.000000e+01 -6.083835e+00
      vertex   -1.147289e+00 -1.001984e+01 -6.068029e+00
    endloop
  endfacet
  facet normal -1.430000e-01 -5.150419e-01 -8.451526e-01
    outer loop
      vertex   -1.064548e+00 -1.000000e+01 -6.095440e+00
      vertex   -1.000000e+00 -1.000000e+01 -6.106361e+00
      vertex   -1.054755e+00 -1.000542e+01 -6.093791e+00
    endloop
  endfacet
  facet normal -1.422377e-01 -5.183471e-01 -8.432584e-01
    outer loop
      vertex   -1.054755e+00 -1.000542e+01 -6.093791e+00
      vertex   -1.000000e+00 -1.000000e+01 -6.106361e+00
      vertex   -1.025033e+00 -1.001358e+01 -6.093791e+00
    endloop
  endfacet
  facet normal -1.353719e-01 -5.270471e-01 -8.389850e-01
    outer loop
      vertex   -1.000000e+00 -1.000000e+01 -6.106361e+00
      vertex   -1.000000e+00 -1.004057e+01 -6.080878e+00
      vertex   -1.025033e+00 -1.001358e+01 -6.093791e+00
    endloop
  endfacet
  facet normal -1.329728e-01 -5.578195e-01 -8.192409e-01
    outer loop
      vertex   -1.000000e+00 -1.008065e+01 -6.054639e+00
      vertex   -1.000000e+00 -1.012026e+01 -6.027672e+00
      vertex   -1.023314e+00 -1.009448e+01 -6.041439e+00
    endloop
  endfacet
  facet normal -1.388540e-01 -5.659995e-01 -8.126279e-01
    outer loop
      vertex   -1.037821e+00 -1.011078e+01 -6.027833e+00
      vertex   -1.005400e+00 -1.011873e+01 -6.027833e+00
      vertex   -1.019438e+00 -1.013512e+01 -6.014020e+00
    endloop
  endfacet
  facet normal -1.399607e-01 -5.705106e-01 -8.092766e-01
    outer loop
      vertex   -1.019438e+00 -1.013512e+01 -6.014020e+00
      vertex   -1.026451e+00 -1.014331e+01 -6.007036e+00
      vertex   -1.052311e+00 -1.012705e+01 -6.014020e+00
    endloop
  endfacet
  facet normal -1.399607e-01 -5.705106e-01 -8.092766e-01
    outer loop
      vertex   -1.052311e+00 -1.012705e+01 -6.014020e+00
      vertex   -1.026451e+00 -1.014331e+01 -6.007036e+00
      vertex   -1.059550e+00 -1.013519e+01 -6.007036e+00
    endloop
  endfacet
  facet normal -1.446262e-01 -5.674812e-01 -8.105852e-01
    outer loop
      vertex   -1.052311e+00 -1.012705e+01 -6.014020e+00
      vertex   -1.059550e+00 -1.013519e+01 -6.007036e+00
      vertex   -1.085041e+00 -1.011871e+01 -6.014020e+00
    endloop
  endfacet
  facet normal -1.446262e-01 -5.674812e-01 -8.105852e-01
    outer loop
      vertex   -1.085041e+00 -1.011871e+01 -6.014020e+00
      vertex   -1.059550e+00 -1.013519e+01 -6.007036e+00
      vertex   -1.092505e+00 -1.012679e+01 -6.007036e+00
    endloop
  endfacet
  facet normal -1.492932e-01 -5.643343e-01 -8.119349e-01
    outer loop
      vertex   -1.085041e+00 -1.011871e+01 -6.014020e+00
      vertex   -1.092505e+00 -1.012679e+01 -6.007036e+00
      vertex   -1.117615e+00 -1.011010e+01 -6.014020e+00
    endloop
  endfacet
  facet normal -1.492932e-01 -5.643343e-01 -8.119349e-01
    outer loop
      vertex   -1.117615e+00 -1.011010e+01 -6.014020e+00
      vertex   -1.092505e+00 -1.012679e+01 -6.007036e+00
      vertex   -1.125303e+00 -1.011811e+01 -6.007036e+00
    endloop
  endfacet
  facet normal -1.539608e-01 -5.610686e-01 -8.133253e-01
    outer loop
      vertex   -1.117615e+00 -1.011010e+01 -6.014020e+00
      vertex   -1.125303e+00 -1.011811e+01 -6.007036e+00
      vertex   -1.150021e+00 -1.010120e+01 -6.014020e+00
    endloop
  endfacet
  facet normal -1.539608e-01 -5.610686e-01 -8.133253e-01
    outer loop
      vertex   -1.150021e+00 -1.010120e+01 -6.014020e+00
      vertex   -1.125303e+00 -1.011811e+01 -6.007036e+00
      vertex   -1.157932e+00 -1.010916e+01 -6.007036e+00
    endloop
  endfacet
  facet normal -1.586275e-01 -5.576830e-01 -8.147558e-01
    outer loop
      vertex   -1.150021e+00 -1.010120e+01 -6.014020e+00
      vertex   -1.157932e+00 -1.010916e+01 -6.007036e+00
      vertex   -1.182247e+00 -1.009204e+01 -6.014020e+00
    endloop
  endfacet
  facet normal -1.586275e-01 -5.576830e-01 -8.147558e-01
    outer loop
      vertex   -1.182247e+00 -1.009204e+01 -6.014020e+00
      vertex   -1.157932e+00 -1.010916e+01 -6.007036e+00
      vertex   -1.190380e+00 -1.009993e+01 -6.007036e+00
    endloop
  endfacet
  facet normal -1.632922e-01 -5.541762e-01 -8.162257e-01
    outer loop
      vertex   -1.182247e+00 -1.009204e+01 -6.014020e+00
      vertex   -1.190380e+00 -1.009993e+01 -6.007036e+00
      vertex   -1.214281e+00 -1.008260e+01 -6.014020e+00
    endloop
  endfacet
  facet normal -1.632922e-01 -5.541762e-01 -8.162257e-01
    outer loop
      vertex   -1.214281e+00 -1.008260e+01 -6.014020e+00
      vertex   -1.190380e+00 -1.009993e+01 -6.007036e+00
      vertex   -1.222635e+00 -1.009042e+01 -6.007036e+00
    endloop
  endfacet
  facet normal -1.679536e-01 -5.505470e-01 -8.177344e-01
    outer loop
      vertex   -1.214281e+00 -1.008260e+01 -6.014020e+00
      vertex   -1.222635e+00 -1.009042e+01 -6.007036e+00
      vertex   -1.246111e+00 -1.007289e+01 -6.014020e+00
    endloop
  endfacet
  facet normal -1.679536e-01 -5.505470e-01 -8.177344e-01
    outer loop
      vertex   -1.246111e+00 -1.007289e+01 -6.014020e+00
      vertex   -1.222635e+00 -1.009042e+01 -6.007036e+00
      vertex   -1.254683e+00 -1.008065e+01 -6.007036e+00
    endloop
  endfacet
  facet normal -1.726104e-01 -5.467944e-01 -8.192811e-01
    outer loop
      vertex   -1.246111e+00 -1.007289e+01 -6.014020e+00
      vertex   -1.254683e+00 -1.008065e+01 -6.007036e+00
      vertex   -1.277725e+00 -1.006291e+01 -6.014020e+00
    endloop
  endfacet
  facet normal -1.726104e-01 -5.467944e-01 -8.192811e-01
    outer loop
      vertex   -1.277725e+00 -1.006291e+01 -6.014020e+00
      vertex   -1.254683e+00 -1.008065e+01 -6.007036e+00
      vertex   -1.286515e+00 -1.007060e+01 -6.007036e+00
    endloop
  endfacet
  facet normal -1.772611e-01 -5.429173e-01 -8.208650e-01
    outer loop
      vertex   -1.277725e+00 -1.006291e+01 -6.014020e+00
      vertex   -1.286515e+00 -1.007060e+01 -6.007036e+00
      vertex   -1.309111e+00 -1.005266e+01 -6.014020e+00
    endloop
  endfacet
  facet normal -1.772611e-01 -5.429173e-01 -8.208650e-01
    outer loop
      vertex   -1.309111e+00 -1.005266e+01 -6.014020e+00
      vertex   -1.286515e+00 -1.007060e+01 -6.007036e+00
      vertex   -1.318116e+00 -1.006028e+01 -6.007036e+00
    endloop
  endfacet
  facet normal -1.819044e-01 -5.389146e-01 -8.224851e-01
    outer loop
      vertex   -1.309111e+00 -1.005266e+01 -6.014020e+00
      vertex   -1.318116e+00 -1.006028e+01 -6.007036e+00
      vertex   -1.340257e+00 -1.004215e+01 -6.014020e+00
    endloop
  endfacet
  facet normal -1.819044e-01 -5.389146e-01 -8.224851e-01
    outer loop
      vertex   -1.340257e+00 -1.004215e+01 -6.014020e+00
      vertex   -1.318116e+00 -1.006028e+01 -6.007036e+00
      vertex   -1.349477e+00 -1.004969e+01 -6.007036e+00
    endloop
  endfacet
  facet normal -1.865388e-01 -5.347854e-01 -8.241407e-01
    outer loop
      vertex   -1.340257e+00 -1.004215e+01 -6.014020e+00
      vertex   -1.349477e+00 -1.004969e+01 -6.007036e+00
      vertex   -1.371151e+00 -1.003137e+01 -6.014020e+00
    endloop
  endfacet
  facet normal -1.865388e-01 -5.347854e-01 -8.241407e-01
    outer loop
      vertex   -1.371151e+00 -1.003137e+01 -6.014020e+00
      vertex   -1.349477e+00 -1.004969e+01 -6.007036e+00
      vertex   -1.380583e+00 -1.003884e+01 -6.007036e+00
    endloop
  endfacet
  facet normal -1.434789e-01 -5.629797e-01 -8.139211e-01
    outer loop
      vertex   -1.070100e+00 -1.010255e+01 -6.027833e+00
      vertex   -1.037821e+00 -1.011078e+01 -6.027833e+00
      vertex   -1.052311e+00 -1.012705e+01 -6.014020e+00
    endloop
  endfacet
  facet normal -1.388540e-01 -5.659995e-01 -8.126279e-01
    outer loop
      vertex   -1.052311e+00 -1.012705e+01 -6.014020e+00
      vertex   -1.037821e+00 -1.011078e+01 -6.027833e+00
      vertex   -1.019438e+00 -1.013512e+01 -6.014020e+00
    endloop
  endfacet
  facet normal -1.434789e-01 -5.629797e-01 -8.139211e-01
    outer loop
      vertex   -1.070100e+00 -1.010255e+01 -6.027833e+00
      vertex   -1.052311e+00 -1.012705e+01 -6.014020e+00
      vertex   -1.085041e+00 -1.011871e+01 -6.014020e+00
    endloop
  endfacet
  facet normal -1.387975e-01 -5.446109e-01 -8.271240e-01
    outer loop
      vertex   -1.025179e+00 -1.005396e+01 -6.068029e+00
      vertex   -1.008792e+00 -1.007817e+01 -6.054838e+00
      vertex   -1.040168e+00 -1.007017e+01 -6.054838e+00
    endloop
  endfacet
  facet normal -1.481051e-01 -5.598430e-01 -8.152550e-01
    outer loop
      vertex   -1.102225e+00 -1.009405e+01 -6.027833e+00
      vertex   -1.070100e+00 -1.010255e+01 -6.027833e+00
      vertex   -1.085041e+00 -1.011871e+01 -6.014020e+00
    endloop
  endfacet
  facet normal -1.481051e-01 -5.598430e-01 -8.152550e-01
    outer loop
      vertex   -1.102225e+00 -1.009405e+01 -6.027833e+00
      vertex   -1.085041e+00 -1.011871e+01 -6.014020e+00
      vertex   -1.117615e+00 -1.011010e+01 -6.014020e+00
    endloop
  endfacet
  facet normal -1.416084e-01 -5.352854e-01 -8.327164e-01
    outer loop
      vertex   -1.040501e+00 -1.002971e+01 -6.081013e+00
      vertex   -1.010175e+00 -1.003773e+01 -6.081013e+00
      vertex   -1.025179e+00 -1.005396e+01 -6.068029e+00
    endloop
  endfacet
  facet normal -1.432577e-01 -5.415196e-01 -8.283923e-01
    outer loop
      vertex   -1.025179e+00 -1.005396e+01 -6.068029e+00
      vertex   -1.040168e+00 -1.007017e+01 -6.054838e+00
      vertex   -1.055956e+00 -1.004582e+01 -6.068029e+00
    endloop
  endfacet
  facet normal -1.432577e-01 -5.415196e-01 -8.283923e-01
    outer loop
      vertex   -1.055956e+00 -1.004582e+01 -6.068029e+00
      vertex   -1.040168e+00 -1.007017e+01 -6.054838e+00
      vertex   -1.071395e+00 -1.006191e+01 -6.054838e+00
    endloop
  endfacet
  facet normal -1.477164e-01 -5.383128e-01 -8.296982e-01
    outer loop
      vertex   -1.055956e+00 -1.004582e+01 -6.068029e+00
      vertex   -1.071395e+00 -1.006191e+01 -6.054838e+00
      vertex   -1.086574e+00 -1.003741e+01 -6.068029e+00
    endloop
  endfacet
  facet normal -1.477164e-01 -5.383128e-01 -8.296982e-01
    outer loop
      vertex   -1.086574e+00 -1.003741e+01 -6.068029e+00
      vertex   -1.071395e+00 -1.006191e+01 -6.054838e+00
      vertex   -1.102461e+00 -1.005339e+01 -6.054838e+00
    endloop
  endfacet
  facet normal -1.521726e-01 -5.349897e-01 -8.310412e-01
    outer loop
      vertex   -1.086574e+00 -1.003741e+01 -6.068029e+00
      vertex   -1.102461e+00 -1.005339e+01 -6.054838e+00
      vertex   -1.117022e+00 -1.002875e+01 -6.068029e+00
    endloop
  endfacet
  facet normal -1.527313e-01 -5.565882e-01 -8.166288e-01
    outer loop
      vertex   -1.134185e+00 -1.008528e+01 -6.027833e+00
      vertex   -1.102225e+00 -1.009405e+01 -6.027833e+00
      vertex   -1.117615e+00 -1.011010e+01 -6.014020e+00
    endloop
  endfacet
  facet normal -1.527313e-01 -5.565882e-01 -8.166288e-01
    outer loop
      vertex   -1.134185e+00 -1.008528e+01 -6.027833e+00
      vertex   -1.117615e+00 -1.011010e+01 -6.014020e+00
      vertex   -1.150021e+00 -1.010120e+01 -6.014020e+00
    endloop
  endfacet
  facet normal -1.460106e-01 -5.320964e-01 -8.339990e-01
    outer loop
      vertex   -1.070672e+00 -1.002143e+01 -6.081013e+00
      vertex   -1.040501e+00 -1.002971e+01 -6.081013e+00
      vertex   -1.055956e+00 -1.004582e+01 -6.068029e+00
    endloop
  endfacet
  facet normal -1.416084e-01 -5.352854e-01 -8.327164e-01
    outer loop
      vertex   -1.055956e+00 -1.004582e+01 -6.068029e+00
      vertex   -1.040501e+00 -1.002971e+01 -6.081013e+00
      vertex   -1.025179e+00 -1.005396e+01 -6.068029e+00
    endloop
  endfacet
  facet normal -1.460106e-01 -5.320964e-01 -8.339990e-01
    outer loop
      vertex   -1.070672e+00 -1.002143e+01 -6.081013e+00
      vertex   -1.055956e+00 -1.004582e+01 -6.068029e+00
      vertex   -1.086574e+00 -1.003741e+01 -6.068029e+00
    endloop
  endfacet
  facet normal -1.573564e-01 -5.532141e-01 -8.180422e-01
    outer loop
      vertex   -1.165968e+00 -1.007624e+01 -6.027833e+00
      vertex   -1.134185e+00 -1.008528e+01 -6.027833e+00
      vertex   -1.150021e+00 -1.010120e+01 -6.014020e+00
    endloop
  endfacet
  facet normal -1.573564e-01 -5.532141e-01 -8.180422e-01
    outer loop
      vertex   -1.165968e+00 -1.007624e+01 -6.027833e+00
      vertex   -1.150021e+00 -1.010120e+01 -6.014020e+00
      vertex   -1.182247e+00 -1.009204e+01 -6.014020e+00
    endloop
  endfacet
  facet normal -1.504097e-01 -5.287919e-01 -8.353179e-01
    outer loop
      vertex   -1.100674e+00 -1.001289e+01 -6.081013e+00
      vertex   -1.070672e+00 -1.002143e+01 -6.081013e+00
      vertex   -1.086574e+00 -1.003741e+01 -6.068029e+00
    endloop
  endfacet
  facet normal -1.504097e-01 -5.287919e-01 -8.353179e-01
    outer loop
      vertex   -1.100674e+00 -1.001289e+01 -6.081013e+00
      vertex   -1.086574e+00 -1.003741e+01 -6.068029e+00
      vertex   -1.117022e+00 -1.002875e+01 -6.068029e+00
    endloop
  endfacet
  facet normal -1.619790e-01 -5.497196e-01 -8.194945e-01
    outer loop
      vertex   -1.197561e+00 -1.006693e+01 -6.027833e+00
      vertex   -1.165968e+00 -1.007624e+01 -6.027833e+00
      vertex   -1.182247e+00 -1.009204e+01 -6.014020e+00
    endloop
  endfacet
  facet normal -1.619790e-01 -5.497196e-01 -8.194945e-01
    outer loop
      vertex   -1.197561e+00 -1.006693e+01 -6.027833e+00
      vertex   -1.182247e+00 -1.009204e+01 -6.014020e+00
      vertex   -1.214281e+00 -1.008260e+01 -6.014020e+00
    endloop
  endfacet
  facet normal -1.566250e-01 -5.315490e-01 -8.324207e-01
    outer loop
      vertex   -1.147289e+00 -1.001984e+01 -6.068029e+00
      vertex   -1.133354e+00 -1.004460e+01 -6.054838e+00
      vertex   -1.164063e+00 -1.003555e+01 -6.054838e+00
    endloop
  endfacet
  facet normal -1.548046e-01 -5.253711e-01 -8.366725e-01
    outer loop
      vertex   -1.130498e+00 -1.000411e+01 -6.081013e+00
      vertex   -1.100674e+00 -1.001289e+01 -6.081013e+00
      vertex   -1.117022e+00 -1.002875e+01 -6.068029e+00
    endloop
  endfacet
  facet normal -1.665980e-01 -5.461034e-01 -8.209848e-01
    outer loop
      vertex   -1.228952e+00 -1.005736e+01 -6.027833e+00
      vertex   -1.197561e+00 -1.006693e+01 -6.027833e+00
      vertex   -1.214281e+00 -1.008260e+01 -6.014020e+00
    endloop
  endfacet
  facet normal -1.665980e-01 -5.461034e-01 -8.209848e-01
    outer loop
      vertex   -1.228952e+00 -1.005736e+01 -6.027833e+00
      vertex   -1.214281e+00 -1.008260e+01 -6.014020e+00
      vertex   -1.246111e+00 -1.007289e+01 -6.014020e+00
    endloop
  endfacet
  facet normal -1.610722e-01 -5.279899e-01 -8.338359e-01
    outer loop
      vertex   -1.177363e+00 -1.001066e+01 -6.068029e+00
      vertex   -1.147289e+00 -1.001984e+01 -6.068029e+00
      vertex   -1.164063e+00 -1.003555e+01 -6.054838e+00
    endloop
  endfacet
  facet normal -1.610722e-01 -5.279899e-01 -8.338359e-01
    outer loop
      vertex   -1.177363e+00 -1.001066e+01 -6.068029e+00
      vertex   -1.164063e+00 -1.003555e+01 -6.054838e+00
      vertex   -1.194577e+00 -1.002624e+01 -6.054838e+00
    endloop
  endfacet
  facet normal -1.712120e-01 -5.423646e-01 -8.225126e-01
    outer loop
      vertex   -1.260131e+00 -1.004751e+01 -6.027833e+00
      vertex   -1.228952e+00 -1.005736e+01 -6.027833e+00
      vertex   -1.246111e+00 -1.007289e+01 -6.014020e+00
    endloop
  endfacet
  facet normal -1.712120e-01 -5.423646e-01 -8.225126e-01
    outer loop
      vertex   -1.260131e+00 -1.004751e+01 -6.027833e+00
      vertex   -1.246111e+00 -1.007289e+01 -6.014020e+00
      vertex   -1.277725e+00 -1.006291e+01 -6.014020e+00
    endloop
  endfacet
  facet normal -1.655130e-01 -5.243114e-01 -8.352862e-01
    outer loop
      vertex   -1.207232e+00 -1.000123e+01 -6.068029e+00
      vertex   -1.177363e+00 -1.001066e+01 -6.068029e+00
      vertex   -1.194577e+00 -1.002624e+01 -6.054838e+00
    endloop
  endfacet
  facet normal -1.655130e-01 -5.243114e-01 -8.352862e-01
    outer loop
      vertex   -1.207232e+00 -1.000123e+01 -6.068029e+00
      vertex   -1.194577e+00 -1.002624e+01 -6.054838e+00
      vertex   -1.224883e+00 -1.001668e+01 -6.054838e+00
    endloop
  endfacet
  facet normal -1.758196e-01 -5.385021e-01 -8.240770e-01
    outer loop
      vertex   -1.291084e+00 -1.003741e+01 -6.027833e+00
      vertex   -1.260131e+00 -1.004751e+01 -6.027833e+00
      vertex   -1.277725e+00 -1.006291e+01 -6.014020e+00
    endloop
  endfacet
  facet normal -1.758196e-01 -5.385021e-01 -8.240770e-01
    outer loop
      vertex   -1.291084e+00 -1.003741e+01 -6.027833e+00
      vertex   -1.277725e+00 -1.006291e+01 -6.014020e+00
      vertex   -1.309111e+00 -1.005266e+01 -6.014020e+00
    endloop
  endfacet
  facet normal -1.699460e-01 -5.205126e-01 -8.367706e-01
    outer loop
      vertex   -1.254971e+00 -1.000685e+01 -6.054838e+00
      vertex   -1.207232e+00 -1.000123e+01 -6.068029e+00
      vertex   -1.224883e+00 -1.001668e+01 -6.054838e+00
    endloop
  endfacet
  facet normal -1.804193e-01 -5.345149e-01 -8.256771e-01
    outer loop
      vertex   -1.321801e+00 -1.002704e+01 -6.027833e+00
      vertex   -1.291084e+00 -1.003741e+01 -6.027833e+00
      vertex   -1.309111e+00 -1.005266e+01 -6.014020e+00
    endloop
  endfacet
  facet normal -1.804193e-01 -5.345149e-01 -8.256771e-01
    outer loop
      vertex   -1.321801e+00 -1.002704e+01 -6.027833e+00
      vertex   -1.309111e+00 -1.005266e+01 -6.014020e+00
      vertex   -1.340257e+00 -1.004215e+01 -6.014020e+00
    endloop
  endfacet
  facet normal -1.850098e-01 -5.304020e-01 -8.273120e-01
    outer loop
      vertex   -1.352270e+00 -1.001641e+01 -6.027833e+00
      vertex   -1.321801e+00 -1.002704e+01 -6.027833e+00
      vertex   -1.340257e+00 -1.004215e+01 -6.014020e+00
    endloop
  endfacet
  facet normal -1.850098e-01 -5.304020e-01 -8.273120e-01
    outer loop
      vertex   -1.352270e+00 -1.001641e+01 -6.027833e+00
      vertex   -1.340257e+00 -1.004215e+01 -6.014020e+00
      vertex   -1.371151e+00 -1.003137e+01 -6.014020e+00
    endloop
  endfacet
  facet normal -1.957747e-01 -5.261436e-01 -8.275537e-01
    outer loop
      vertex   -1.432137e+00 -1.000904e+01 -6.014020e+00
      vertex   -1.401781e+00 -1.002033e+01 -6.014020e+00
      vertex   -1.411424e+00 -1.002773e+01 -6.007036e+00
    endloop
  endfacet
  facet normal -1.957747e-01 -5.261436e-01 -8.275537e-01
    outer loop
      vertex   -1.441988e+00 -1.001636e+01 -6.007036e+00
      vertex   -1.432137e+00 -1.000904e+01 -6.014020e+00
      vertex   -1.411424e+00 -1.002773e+01 -6.007036e+00
    endloop
  endfacet
  facet normal 2.752011e-14 1.000000e+00 -0.000000e+00
    outer loop
      vertex   -1.000000e+00 -1.000000e+01 -6.106361e+00
      vertex   -1.064548e+00 -1.000000e+01 -6.095440e+00
      vertex   -1.000000e+00 -1.000000e+01 -6.000000e+00
    endloop
  endfacet
  facet normal 2.988168e-15 1.000000e+00 1.659139e-14
    outer loop
      vertex   -1.000000e+00 -1.000000e+01 -6.000000e+00
      vertex   -1.064548e+00 -1.000000e+01 -6.095440e+00
      vertex   -1.128982e+00 -1.000000e+01 -6.083835e+00
    endloop
  endfacet
  facet normal 3.128521e-15 1.000000e+00 1.637546e-14
    outer loop
      vertex   -1.000000e+00 -1.000000e+01 -6.000000e+00
      vertex   -1.128982e+00 -1.000000e+01 -6.083835e+00
      vertex   -1.193296e+00 -1.000000e+01 -6.071548e+00
    endloop
  endfacet
  facet normal 3.244934e-15 1.000000e+00 1.606095e-14
    outer loop
      vertex   -1.193296e+00 -1.000000e+01 -6.071548e+00
      vertex   -1.257461e+00 -1.000000e+01 -6.058584e+00
      vertex   -1.000000e+00 -1.000000e+01 -6.000000e+00
    endloop
  endfacet
  facet normal 3.336451e-15 1.000000e+00 1.565876e-14
    outer loop
      vertex   -1.000000e+00 -1.000000e+01 -6.000000e+00
      vertex   -1.257461e+00 -1.000000e+01 -6.058584e+00
      vertex   -1.321469e+00 -1.000000e+01 -6.044946e+00
    endloop
  endfacet
  facet normal -7.284647e-15 1.000000e+00 9.162525e-14
    outer loop
      vertex   -1.000000e+00 -1.000000e+01 -6.000000e+00
      vertex   -1.321469e+00 -1.000000e+01 -6.044946e+00
      vertex   -1.385314e+00 -1.000000e+01 -6.030634e+00
    endloop
  endfacet
  facet normal 0.000000e+00 1.000000e+00 -0.000000e+00
    outer loop
      vertex   -1.385314e+00 -1.000000e+01 -6.030634e+00
      vertex   -1.448992e+00 -1.000000e+01 -6.015652e+00
      vertex   -1.000000e+00 -1.000000e+01 -6.000000e+00
    endloop
  endfacet
  facet normal 0.000000e+00 1.000000e+00 0.000000e+00
    outer loop
      vertex   -1.000000e+00 -1.000000e+01 -6.000000e+00
      vertex   -1.448992e+00 -1.000000e+01 -6.015652e+00
      vertex   -1.512497e+00 -1.000000e+01 -6.000000e+00
    endloop
  endfacet
  facet normal -0.000000e+00 0.000000e+00 1.000000e+00
    outer loop
      vertex   -1.512497e+00 -1.000000e+01 -6.000000e+00
      vertex   -1.482575e+00 -1.001186e+01 -6.000000e+00
      vertex   -1.000000e+00 -1.000000e+01 -6.000000e+00
    endloop
  endfacet
  facet normal 0.000000e+00 0.000000e+00 1.000000e+00
    outer loop
      vertex   -1.000000e+00 -1.000000e+01 -6.000000e+00
      vertex   -1.482575e+00 -1.001186e+01 -6.000000e+00
      vertex   -1.452348e+00 -1.002348e+01 -6.000000e+00
    endloop
  endfacet
  facet normal 0.000000e+00 0.000000e+00 1.000000e+00
    outer loop
      vertex   -1.000000e+00 -1.000000e+01 -6.000000e+00
      vertex   -1.452348e+00 -1.002348e+01 -6.000000e+00
      vertex   -1.421821e+00 -1.003485e+01 -6.000000e+00
    endloop
  endfacet
  facet normal -0.000000e+00 0.000000e+00 1.000000e+00
    outer loop
      vertex   -1.421821e+00 -1.003485e+01 -6.000000e+00
      vertex   -1.390999e+00 -1.004596e+01 -6.000000e+00
      vertex   -1.000000e+00 -1.000000e+01 -6.000000e+00
    endloop
  endfacet
  facet normal 0.000000e+00 0.000000e+00 1.000000e+00
    outer loop
      vertex   -1.000000e+00 -1.000000e+01 -6.000000e+00
      vertex   -1.390999e+00 -1.004596e+01 -6.000000e+00
      vertex   -1.359888e+00 -1.005683e+01 -6.000000e+00
    endloop
  endfacet
  facet normal 0.000000e+00 0.000000e+00 1.000000e+00
    outer loop
      vertex   -1.000000e+00 -1.000000e+01 -6.000000e+00
      vertex   -1.359888e+00 -1.005683e+01 -6.000000e+00
      vertex   -1.328492e+00 -1.006744e+01 -6.000000e+00
    endloop
  endfacet
  facet normal -0.000000e+00 0.000000e+00 1.000000e+00
    outer loop
      vertex   -1.328492e+00 -1.006744e+01 -6.000000e+00
      vertex   -1.296817e+00 -1.007780e+01 -6.000000e+00
      vertex   -1.000000e+00 -1.000000e+01 -6.000000e+00
    endloop
  endfacet
  facet normal 0.000000e+00 0.000000e+00 1.000000e+00
    outer loop
      vertex   -1.000000e+00 -1.000000e+01 -6.000000e+00
      vertex   -1.296817e+00 -1.007780e+01 -6.000000e+00
      vertex   -1.264867e+00 -1.008790e+01 -6.000000e+00
    endloop
  endfacet
  facet normal 0.000000e+00 0.000000e+00 1.000000e+00
    outer loop
      vertex   -1.000000e+00 -1.000000e+01 -6.000000e+00
      vertex   -1.264867e+00 -1.008790e+01 -6.000000e+00
      vertex   -1.232648e+00 -1.009775e+01 -6.000000e+00
    endloop
  endfacet
  facet normal -0.000000e+00 0.000000e+00 1.000000e+00
    outer loop
      vertex   -1.232648e+00 -1.009775e+01 -6.000000e+00
      vertex   -1.200165e+00 -1.010734e+01 -6.000000e+00
      vertex   -1.000000e+00 -1.000000e+01 -6.000000e+00
    endloop
  endfacet
  facet normal 0.000000e+00 0.000000e+00 1.000000e+00
    outer loop
      vertex   -1.000000e+00 -1.000000e+01 -6.000000e+00
      vertex   -1.200165e+00 -1.010734e+01 -6.000000e+00
      vertex   -1.167422e+00 -1.011667e+01 -6.000000e+00
    endloop
  endfacet
  facet normal 0.000000e+00 0.000000e+00 1.000000e+00
    outer loop
      vertex   -1.000000e+00 -1.000000e+01 -6.000000e+00
      vertex   -1.167422e+00 -1.011667e+01 -6.000000e+00
      vertex   -1.134425e+00 -1.012573e+01 -6.000000e+00
    endloop
  endfacet
  facet normal -0.000000e+00 0.000000e+00 1.000000e+00
    outer loop
      vertex   -1.134425e+00 -1.012573e+01 -6.000000e+00
      vertex   -1.101180e+00 -1.013454e+01 -6.000000e+00
      vertex   -1.000000e+00 -1.000000e+01 -6.000000e+00
    endloop
  endfacet
  facet normal 0.000000e+00 0.000000e+00 1.000000e+00
    outer loop
      vertex   -1.000000e+00 -1.000000e+01 -6.000000e+00
      vertex   -1.101180e+00 -1.013454e+01 -6.000000e+00
      vertex   -1.067690e+00 -1.014309e+01 -6.000000e+00
    endloop
  endfacet
  facet normal 0.000000e+00 0.000000e+00 1.000000e+00
    outer loop
      vertex   -1.000000e+00 -1.000000e+01 -6.000000e+00
      vertex   -1.067690e+00 -1.014309e+01 -6.000000e+00
      vertex   -1.033962e+00 -1.015137e+01 -6.000000e+00
    endloop
  endfacet
  facet normal -0.000000e+00 0.000000e+00 1.000000e+00
    outer loop
      vertex   -1.033962e+00 -1.015137e+01 -6.000000e+00
      vertex   -1.000000e+00 -1.015938e+01 -6.000000e+00
      vertex   -1.000000e+00 -1.000000e+01 -6.000000e+00
    endloop
  endfacet
  facet normal 1.000000e+00 -0.000000e+00 8.024238e-15
    outer loop
      vertex   -1.000000e+00 -1.015938e+01 -6.000000e+00
      vertex   -1.000000e+00 -1.012026e+01 -6.027672e+00
      vertex   -1.000000e+00 -1.000000e+01 -6.000000e+00
    endloop
  endfacet
  facet normal 1.000000e+00 4.212128e-15 -1.028134e-14
    outer loop
      vertex   -1.000000e+00 -1.000000e+01 -6.000000e+00
      vertex   -1.000000e+00 -1.012026e+01 -6.027672e+00
      vertex   -1.000000e+00 -1.008065e+01 -6.054639e+00
    endloop
  endfacet
  facet normal 1.000000e+00 -4.170056e-15 2.091594e-15
    outer loop
      vertex   -1.000000e+00 -1.000000e+01 -6.000000e+00
      vertex   -1.000000e+00 -1.008065e+01 -6.054639e+00
      vertex   -1.000000e+00 -1.004057e+01 -6.080878e+00
    endloop
  endfacet
  facet normal 1.000000e+00 -0.000000e+00 0.000000e+00
    outer loop
      vertex   -1.000000e+00 -1.004057e+01 -6.080878e+00
      vertex   -1.000000e+00 -1.000000e+01 -6.106361e+00
      vertex   -1.000000e+00 -1.000000e+01 -6.000000e+00
    endloop
  endfacet
endsolid
