solid ASCII
  facet normal -7.430415e-01 -5.245089e-01 4.156678e-01
    outer loop
      vertex   -5.411806e+00 -1.000000e+01 3.000000e+00
      vertex   -5.389413e+00 -1.003172e+01 3.000000e+00
      vertex   -5.388423e+00 -1.000000e+01 3.041799e+00
    endloop
  endfacet
  facet normal -7.427295e-01 -5.247884e-01 4.158726e-01
    outer loop
      vertex   -5.388423e+00 -1.000000e+01 3.041799e+00
      vertex   -5.389413e+00 -1.003172e+01 3.000000e+00
      vertex   -5.370541e+00 -1.002571e+01 3.041294e+00
    endloop
  endfacet
  facet normal -7.404413e-01 -5.233127e-01 4.217706e-01
    outer loop
      vertex   -5.388423e+00 -1.000000e+01 3.041799e+00
      vertex   -5.370541e+00 -1.002571e+01 3.041294e+00
      vertex   -5.364721e+00 -1.000000e+01 3.083410e+00
    endloop
  endfacet
  facet normal -7.399098e-01 -5.238561e-01 4.220288e-01
    outer loop
      vertex   -5.364721e+00 -1.000000e+01 3.083410e+00
      vertex   -5.370541e+00 -1.002571e+01 3.041294e+00
      vertex   -5.349979e+00 -1.002157e+01 3.082476e+00
    endloop
  endfacet
  facet normal -7.375803e-01 -5.225115e-01 4.277347e-01
    outer loop
      vertex   -5.364721e+00 -1.000000e+01 3.083410e+00
      vertex   -5.349979e+00 -1.002157e+01 3.082476e+00
      vertex   -5.340700e+00 -1.000000e+01 3.124832e+00
    endloop
  endfacet
  facet normal -7.371773e-01 -5.229638e-01 4.278767e-01
    outer loop
      vertex   -5.340700e+00 -1.000000e+01 3.124832e+00
      vertex   -5.349979e+00 -1.002157e+01 3.082476e+00
      vertex   -5.329119e+00 -1.001738e+01 3.123542e+00
    endloop
  endfacet
  facet normal -7.346162e-01 -5.216960e-01 4.337884e-01
    outer loop
      vertex   -5.340700e+00 -1.000000e+01 3.124832e+00
      vertex   -5.329119e+00 -1.001738e+01 3.123542e+00
      vertex   -5.307962e+00 -1.001312e+01 3.164489e+00
    endloop
  endfacet
  facet normal -7.292697e-01 -5.306414e-01 4.319554e-01
    outer loop
      vertex   -5.307962e+00 -1.001312e+01 3.164489e+00
      vertex   -5.329119e+00 -1.001738e+01 3.123542e+00
      vertex   -5.286701e+00 -1.004234e+01 3.164489e+00
    endloop
  endfacet
  facet normal -7.269378e-01 -5.289446e-01 4.379258e-01
    outer loop
      vertex   -5.307962e+00 -1.001312e+01 3.164489e+00
      vertex   -5.286701e+00 -1.004234e+01 3.164489e+00
      vertex   -5.265343e+00 -1.003790e+01 3.205312e+00
    endloop
  endfacet
  facet normal -7.200180e-01 -5.402600e-01 4.355379e-01
    outer loop
      vertex   -5.265343e+00 -1.003790e+01 3.205312e+00
      vertex   -5.286701e+00 -1.004234e+01 3.164489e+00
      vertex   -5.243465e+00 -1.006706e+01 3.205312e+00
    endloop
  endfacet
  facet normal -7.176961e-01 -5.385177e-01 4.414873e-01
    outer loop
      vertex   -5.265343e+00 -1.003790e+01 3.205312e+00
      vertex   -5.243465e+00 -1.006706e+01 3.205312e+00
      vertex   -5.221894e+00 -1.006244e+01 3.246009e+00
    endloop
  endfacet
  facet normal -7.107336e-01 -5.496245e-01 4.390566e-01
    outer loop
      vertex   -5.221894e+00 -1.006244e+01 3.246009e+00
      vertex   -5.243465e+00 -1.006706e+01 3.205312e+00
      vertex   -5.199529e+00 -1.009136e+01 3.246009e+00
    endloop
  endfacet
  facet normal -7.084215e-01 -5.478365e-01 4.449878e-01
    outer loop
      vertex   -5.221894e+00 -1.006244e+01 3.246009e+00
      vertex   -5.199529e+00 -1.009136e+01 3.246009e+00
      vertex   -5.177759e+00 -1.008656e+01 3.286576e+00
    endloop
  endfacet
  facet normal -7.014369e-01 -5.587102e-01 4.425260e-01
    outer loop
      vertex   -5.177759e+00 -1.008656e+01 3.286576e+00
      vertex   -5.199529e+00 -1.009136e+01 3.246009e+00
      vertex   -5.154871e+00 -1.011529e+01 3.286576e+00
    endloop
  endfacet
  facet normal -6.991361e-01 -5.568775e-01 4.484375e-01
    outer loop
      vertex   -5.177759e+00 -1.008656e+01 3.286576e+00
      vertex   -5.154871e+00 -1.011529e+01 3.286576e+00
      vertex   -5.132909e+00 -1.011031e+01 3.327009e+00
    endloop
  endfacet
  facet normal -6.921284e-01 -5.675310e-01 4.459448e-01
    outer loop
      vertex   -5.132909e+00 -1.011031e+01 3.327009e+00
      vertex   -5.154871e+00 -1.011529e+01 3.286576e+00
      vertex   -5.109506e+00 -1.013885e+01 3.327009e+00
    endloop
  endfacet
  facet normal -6.898395e-01 -5.656541e-01 4.518373e-01
    outer loop
      vertex   -5.132909e+00 -1.011031e+01 3.327009e+00
      vertex   -5.109506e+00 -1.013885e+01 3.327009e+00
      vertex   -5.087356e+00 -1.013367e+01 3.367304e+00
    endloop
  endfacet
  facet normal -6.828145e-01 -5.760898e-01 4.493161e-01
    outer loop
      vertex   -5.087356e+00 -1.013367e+01 3.367304e+00
      vertex   -5.109506e+00 -1.013885e+01 3.327009e+00
      vertex   -5.063445e+00 -1.016202e+01 3.367304e+00
    endloop
  endfacet
  facet normal -6.805379e-01 -5.741691e-01 4.551900e-01
    outer loop
      vertex   -5.087356e+00 -1.013367e+01 3.367304e+00
      vertex   -5.063445e+00 -1.016202e+01 3.367304e+00
      vertex   -5.041115e+00 -1.015665e+01 3.407458e+00
    endloop
  endfacet
  facet normal -6.735008e-01 -5.843897e-01 4.526427e-01
    outer loop
      vertex   -5.041115e+00 -1.015665e+01 3.407458e+00
      vertex   -5.063445e+00 -1.016202e+01 3.367304e+00
      vertex   -5.016702e+00 -1.018478e+01 3.407458e+00
    endloop
  endfacet
  facet normal -6.712712e-01 -5.824551e-01 4.584115e-01
    outer loop
      vertex   -5.041115e+00 -1.015665e+01 3.407458e+00
      vertex   -5.016702e+00 -1.018478e+01 3.407458e+00
      vertex   -5.000000e+00 -1.016406e+01 3.458243e+00
    endloop
  endfacet
  facet normal -6.676638e-01 -5.862907e-01 4.587900e-01
    outer loop
      vertex   -5.000000e+00 -1.016406e+01 3.458243e+00
      vertex   -5.016702e+00 -1.018478e+01 3.407458e+00
      vertex   -5.000000e+00 -1.019468e+01 3.419122e+00
    endloop
  endfacet
  facet normal -6.663996e-01 -5.944201e-01 4.500847e-01
    outer loop
      vertex   -5.000000e+00 -1.019468e+01 3.419122e+00
      vertex   -5.016702e+00 -1.018478e+01 3.407458e+00
      vertex   -5.038924e+00 -1.019028e+01 3.367304e+00
    endloop
  endfacet
  facet normal -6.664063e-01 -5.944081e-01 4.500907e-01
    outer loop
      vertex   -5.000000e+00 -1.019468e+01 3.419122e+00
      vertex   -5.038924e+00 -1.019028e+01 3.367304e+00
      vertex   -5.013794e+00 -1.021845e+01 3.367304e+00
    endloop
  endfacet
  facet normal -6.685868e-01 -5.963530e-01 4.442463e-01
    outer loop
      vertex   -5.013794e+00 -1.021845e+01 3.367304e+00
      vertex   -5.038924e+00 -1.019028e+01 3.367304e+00
      vertex   -5.060862e+00 -1.019570e+01 3.327009e+00
    endloop
  endfacet
  facet normal -6.685868e-01 -5.963530e-01 4.442463e-01
    outer loop
      vertex   -5.013794e+00 -1.021845e+01 3.367304e+00
      vertex   -5.060862e+00 -1.019570e+01 3.327009e+00
      vertex   -5.035623e+00 -1.022399e+01 3.327009e+00
    endloop
  endfacet
  facet normal -6.707310e-01 -5.982655e-01 4.384043e-01
    outer loop
      vertex   -5.035623e+00 -1.022399e+01 3.327009e+00
      vertex   -5.060862e+00 -1.019570e+01 3.327009e+00
      vertex   -5.082517e+00 -1.020105e+01 3.286576e+00
    endloop
  endfacet
  facet normal -6.707310e-01 -5.982655e-01 4.384043e-01
    outer loop
      vertex   -5.035623e+00 -1.022399e+01 3.327009e+00
      vertex   -5.082517e+00 -1.020105e+01 3.286576e+00
      vertex   -5.057169e+00 -1.022947e+01 3.286576e+00
    endloop
  endfacet
  facet normal -6.728402e-01 -6.001468e-01 4.325620e-01
    outer loop
      vertex   -5.057169e+00 -1.022947e+01 3.286576e+00
      vertex   -5.082517e+00 -1.020105e+01 3.286576e+00
      vertex   -5.103886e+00 -1.020633e+01 3.246009e+00
    endloop
  endfacet
  facet normal -6.728402e-01 -6.001468e-01 4.325620e-01
    outer loop
      vertex   -5.057169e+00 -1.022947e+01 3.286576e+00
      vertex   -5.103886e+00 -1.020633e+01 3.246009e+00
      vertex   -5.078432e+00 -1.023487e+01 3.246009e+00
    endloop
  endfacet
  facet normal -6.749146e-01 -6.019971e-01 4.267197e-01
    outer loop
      vertex   -5.078432e+00 -1.023487e+01 3.246009e+00
      vertex   -5.103886e+00 -1.020633e+01 3.246009e+00
      vertex   -5.124969e+00 -1.021154e+01 3.205312e+00
    endloop
  endfacet
  facet normal -6.749146e-01 -6.019971e-01 4.267197e-01
    outer loop
      vertex   -5.078432e+00 -1.023487e+01 3.246009e+00
      vertex   -5.124969e+00 -1.021154e+01 3.205312e+00
      vertex   -5.099410e+00 -1.024020e+01 3.205312e+00
    endloop
  endfacet
  facet normal -6.769545e-01 -6.038166e-01 4.208778e-01
    outer loop
      vertex   -5.099410e+00 -1.024020e+01 3.205312e+00
      vertex   -5.124969e+00 -1.021154e+01 3.205312e+00
      vertex   -5.145766e+00 -1.021668e+01 3.164489e+00
    endloop
  endfacet
  facet normal -6.769545e-01 -6.038166e-01 4.208778e-01
    outer loop
      vertex   -5.099410e+00 -1.024020e+01 3.205312e+00
      vertex   -5.145766e+00 -1.021668e+01 3.164489e+00
      vertex   -5.120103e+00 -1.024545e+01 3.164489e+00
    endloop
  endfacet
  facet normal -6.789600e-01 -6.056054e-01 4.150366e-01
    outer loop
      vertex   -5.120103e+00 -1.024545e+01 3.164489e+00
      vertex   -5.145766e+00 -1.021668e+01 3.164489e+00
      vertex   -5.166275e+00 -1.022175e+01 3.123542e+00
    endloop
  endfacet
  facet normal -6.789600e-01 -6.056054e-01 4.150366e-01
    outer loop
      vertex   -5.120103e+00 -1.024545e+01 3.164489e+00
      vertex   -5.166275e+00 -1.022175e+01 3.123542e+00
      vertex   -5.140510e+00 -1.025063e+01 3.123542e+00
    endloop
  endfacet
  facet normal -6.809313e-01 -6.073638e-01 4.091965e-01
    outer loop
      vertex   -5.140510e+00 -1.025063e+01 3.123542e+00
      vertex   -5.166275e+00 -1.022175e+01 3.123542e+00
      vertex   -5.186496e+00 -1.022675e+01 3.082476e+00
    endloop
  endfacet
  facet normal -6.809313e-01 -6.073638e-01 4.091965e-01
    outer loop
      vertex   -5.140510e+00 -1.025063e+01 3.123542e+00
      vertex   -5.186496e+00 -1.022675e+01 3.082476e+00
      vertex   -5.160630e+00 -1.025574e+01 3.082476e+00
    endloop
  endfacet
  facet normal -6.828687e-01 -6.090918e-01 4.033578e-01
    outer loop
      vertex   -5.160630e+00 -1.025574e+01 3.082476e+00
      vertex   -5.186496e+00 -1.022675e+01 3.082476e+00
      vertex   -5.206428e+00 -1.023167e+01 3.041294e+00
    endloop
  endfacet
  facet normal -6.828687e-01 -6.090918e-01 4.033578e-01
    outer loop
      vertex   -5.160630e+00 -1.025574e+01 3.082476e+00
      vertex   -5.206428e+00 -1.023167e+01 3.041294e+00
      vertex   -5.180463e+00 -1.026078e+01 3.041294e+00
    endloop
  endfacet
  facet normal -6.844540e-01 -6.105058e-01 3.985039e-01
    outer loop
      vertex   -5.180463e+00 -1.026078e+01 3.041294e+00
      vertex   -5.206428e+00 -1.023167e+01 3.041294e+00
      vertex   -5.219318e+00 -1.024417e+01 3.000000e+00
    endloop
  endfacet
  facet normal -6.831236e-01 -6.136166e-01 3.960011e-01
    outer loop
      vertex   -5.180463e+00 -1.026078e+01 3.041294e+00
      vertex   -5.219318e+00 -1.024417e+01 3.000000e+00
      vertex   -5.193252e+00 -1.027319e+01 3.000000e+00
    endloop
  endfacet
  facet normal -7.359252e-01 -5.354917e-01 4.143219e-01
    outer loop
      vertex   -5.370541e+00 -1.002571e+01 3.041294e+00
      vertex   -5.389413e+00 -1.003172e+01 3.000000e+00
      vertex   -5.348998e+00 -1.005531e+01 3.041294e+00
    endloop
  endfacet
  facet normal -7.355829e-01 -5.367945e-01 4.132426e-01
    outer loop
      vertex   -5.348998e+00 -1.005531e+01 3.041294e+00
      vertex   -5.389413e+00 -1.003172e+01 3.000000e+00
      vertex   -5.366513e+00 -1.006310e+01 3.000000e+00
    endloop
  endfacet
  facet normal -7.287381e-01 -5.468158e-01 4.122296e-01
    outer loop
      vertex   -5.348998e+00 -1.005531e+01 3.041294e+00
      vertex   -5.366513e+00 -1.006310e+01 3.000000e+00
      vertex   -5.326806e+00 -1.008489e+01 3.041294e+00
    endloop
  endfacet
  facet normal -7.281599e-01 -5.487809e-01 4.106369e-01
    outer loop
      vertex   -5.326806e+00 -1.008489e+01 3.041294e+00
      vertex   -5.366513e+00 -1.006310e+01 3.000000e+00
      vertex   -5.343122e+00 -1.009414e+01 3.000000e+00
    endloop
  endfacet
  facet normal -7.214929e-01 -5.579449e-01 4.100555e-01
    outer loop
      vertex   -5.326806e+00 -1.008489e+01 3.041294e+00
      vertex   -5.343122e+00 -1.009414e+01 3.000000e+00
      vertex   -5.303992e+00 -1.011439e+01 3.041294e+00
    endloop
  endfacet
  facet normal -7.206947e-01 -5.604132e-01 4.080885e-01
    outer loop
      vertex   -5.303992e+00 -1.011439e+01 3.041294e+00
      vertex   -5.343122e+00 -1.009414e+01 3.000000e+00
      vertex   -5.319258e+00 -1.012483e+01 3.000000e+00
    endloop
  endfacet
  facet normal -7.141912e-01 -5.688693e-01 4.078219e-01
    outer loop
      vertex   -5.303992e+00 -1.011439e+01 3.041294e+00
      vertex   -5.319258e+00 -1.012483e+01 3.000000e+00
      vertex   -5.280547e+00 -1.014383e+01 3.041294e+00
    endloop
  endfacet
  facet normal -7.132000e-01 -5.717016e-01 4.055897e-01
    outer loop
      vertex   -5.280547e+00 -1.014383e+01 3.041294e+00
      vertex   -5.319258e+00 -1.012483e+01 3.000000e+00
      vertex   -5.294935e+00 -1.015517e+01 3.000000e+00
    endloop
  endfacet
  facet normal -7.068341e-01 -5.795893e-01 4.055389e-01
    outer loop
      vertex   -5.280547e+00 -1.014383e+01 3.041294e+00
      vertex   -5.294935e+00 -1.015517e+01 3.000000e+00
      vertex   -5.256471e+00 -1.017319e+01 3.041294e+00
    endloop
  endfacet
  facet normal -7.056881e-01 -5.826555e-01 4.031338e-01
    outer loop
      vertex   -5.256471e+00 -1.017319e+01 3.041294e+00
      vertex   -5.294935e+00 -1.015517e+01 3.000000e+00
      vertex   -5.270169e+00 -1.018517e+01 3.000000e+00
    endloop
  endfacet
  facet normal -6.994243e-01 -5.901035e-01 4.032165e-01
    outer loop
      vertex   -5.256471e+00 -1.017319e+01 3.041294e+00
      vertex   -5.270169e+00 -1.018517e+01 3.000000e+00
      vertex   -5.231764e+00 -1.020247e+01 3.041294e+00
    endloop
  endfacet
  facet normal -6.981714e-01 -5.932787e-01 4.007208e-01
    outer loop
      vertex   -5.231764e+00 -1.020247e+01 3.041294e+00
      vertex   -5.270169e+00 -1.018517e+01 3.000000e+00
      vertex   -5.244961e+00 -1.021483e+01 3.000000e+00
    endloop
  endfacet
  facet normal -6.919624e-01 -6.004086e-01 4.008710e-01
    outer loop
      vertex   -5.231764e+00 -1.020247e+01 3.041294e+00
      vertex   -5.244961e+00 -1.021483e+01 3.000000e+00
      vertex   -5.206428e+00 -1.023167e+01 3.041294e+00
    endloop
  endfacet
  facet normal -6.906476e-01 -6.035954e-01 3.983447e-01
    outer loop
      vertex   -5.206428e+00 -1.023167e+01 3.041294e+00
      vertex   -5.244961e+00 -1.021483e+01 3.000000e+00
      vertex   -5.219318e+00 -1.024417e+01 3.000000e+00
    endloop
  endfacet
  facet normal -6.769056e-01 -6.203975e-01 3.961133e-01
    outer loop
      vertex   -5.180463e+00 -1.026078e+01 3.041294e+00
      vertex   -5.193252e+00 -1.027319e+01 3.000000e+00
      vertex   -5.153869e+00 -1.028980e+01 3.041294e+00
    endloop
  endfacet
  facet normal -6.756076e-01 -6.233486e-01 3.936888e-01
    outer loop
      vertex   -5.153869e+00 -1.028980e+01 3.041294e+00
      vertex   -5.193252e+00 -1.027319e+01 3.000000e+00
      vertex   -5.166777e+00 -1.030189e+01 3.000000e+00
    endloop
  endfacet
  facet normal -6.693234e-01 -6.300863e-01 3.936972e-01
    outer loop
      vertex   -5.153869e+00 -1.028980e+01 3.041294e+00
      vertex   -5.166777e+00 -1.030189e+01 3.000000e+00
      vertex   -5.126649e+00 -1.031871e+01 3.041294e+00
    endloop
  endfacet
  facet normal -6.681062e-01 -6.327973e-01 3.914098e-01
    outer loop
      vertex   -5.126649e+00 -1.031871e+01 3.041294e+00
      vertex   -5.166777e+00 -1.030189e+01 3.000000e+00
      vertex   -5.139904e+00 -1.033026e+01 3.000000e+00
    endloop
  endfacet
  facet normal -6.617133e-01 -6.395752e-01 3.912532e-01
    outer loop
      vertex   -5.126649e+00 -1.031871e+01 3.041294e+00
      vertex   -5.139904e+00 -1.033026e+01 3.000000e+00
      vertex   -5.098804e+00 -1.034752e+01 3.041294e+00
    endloop
  endfacet
  facet normal -6.606245e-01 -6.419676e-01 3.891694e-01
    outer loop
      vertex   -5.098804e+00 -1.034752e+01 3.041294e+00
      vertex   -5.139904e+00 -1.033026e+01 3.000000e+00
      vertex   -5.112646e+00 -1.035831e+01 3.000000e+00
    endloop
  endfacet
  facet normal -6.540813e-01 -6.488672e-01 3.887788e-01
    outer loop
      vertex   -5.098804e+00 -1.034752e+01 3.041294e+00
      vertex   -5.112646e+00 -1.035831e+01 3.000000e+00
      vertex   -5.070335e+00 -1.037622e+01 3.041294e+00
    endloop
  endfacet
  facet normal -6.531664e-01 -6.508636e-01 3.869757e-01
    outer loop
      vertex   -5.070335e+00 -1.037622e+01 3.041294e+00
      vertex   -5.112646e+00 -1.035831e+01 3.000000e+00
      vertex   -5.085014e+00 -1.038604e+01 3.000000e+00
    endloop
  endfacet
  facet normal -6.464327e-01 -6.579660e-01 3.862713e-01
    outer loop
      vertex   -5.070335e+00 -1.037622e+01 3.041294e+00
      vertex   -5.085014e+00 -1.038604e+01 3.000000e+00
      vertex   -5.041245e+00 -1.040480e+01 3.041294e+00
    endloop
  endfacet
  facet normal -6.457345e-01 -6.594888e-01 3.848395e-01
    outer loop
      vertex   -5.041245e+00 -1.040480e+01 3.041294e+00
      vertex   -5.085014e+00 -1.038604e+01 3.000000e+00
      vertex   -5.057021e+00 -1.041345e+01 3.000000e+00
    endloop
  endfacet
  facet normal -6.387730e-01 -6.668752e-01 3.837271e-01
    outer loop
      vertex   -5.041245e+00 -1.040480e+01 3.041294e+00
      vertex   -5.057021e+00 -1.041345e+01 3.000000e+00
      vertex   -5.011535e+00 -1.043326e+01 3.041294e+00
    endloop
  endfacet
  facet normal -6.383306e-01 -6.678457e-01 3.827742e-01
    outer loop
      vertex   -5.011535e+00 -1.043326e+01 3.041294e+00
      vertex   -5.057021e+00 -1.041345e+01 3.000000e+00
      vertex   -5.028679e+00 -1.044054e+01 3.000000e+00
    endloop
  endfacet
  facet normal -6.332976e-01 -6.732645e-01 3.816401e-01
    outer loop
      vertex   -5.011535e+00 -1.043326e+01 3.041294e+00
      vertex   -5.028679e+00 -1.044054e+01 3.000000e+00
      vertex   -5.000000e+00 -1.044263e+01 3.043902e+00
    endloop
  endfacet
  facet normal -6.311506e-01 -6.761453e-01 3.801004e-01
    outer loop
      vertex   -5.000000e+00 -1.044263e+01 3.043902e+00
      vertex   -5.028679e+00 -1.044054e+01 3.000000e+00
      vertex   -5.000000e+00 -1.046731e+01 3.000000e+00
    endloop
  endfacet
  facet normal -6.323527e-01 -6.701650e-01 3.885988e-01
    outer loop
      vertex   -5.000000e+00 -1.044263e+01 3.043902e+00
      vertex   -5.000000e+00 -1.041739e+01 3.087434e+00
      vertex   -5.011535e+00 -1.043326e+01 3.041294e+00
    endloop
  endfacet
  facet normal -6.374578e-01 -6.655021e-01 3.882711e-01
    outer loop
      vertex   -5.011535e+00 -1.043326e+01 3.041294e+00
      vertex   -5.000000e+00 -1.041739e+01 3.087434e+00
      vertex   -5.041245e+00 -1.040480e+01 3.041294e+00
    endloop
  endfacet
  facet normal -6.307120e-01 -6.659184e-01 3.984408e-01
    outer loop
      vertex   -5.000000e+00 -1.039158e+01 3.130568e+00
      vertex   -5.002366e+00 -1.039354e+01 3.123542e+00
      vertex   -5.000000e+00 -1.041739e+01 3.087434e+00
    endloop
  endfacet
  facet normal -6.372594e-01 -6.616187e-01 3.951724e-01
    outer loop
      vertex   -5.000000e+00 -1.041739e+01 3.087434e+00
      vertex   -5.002366e+00 -1.039354e+01 3.123542e+00
      vertex   -5.021945e+00 -1.039921e+01 3.082476e+00
    endloop
  endfacet
  facet normal -6.381365e-01 -6.643055e-01 3.892043e-01
    outer loop
      vertex   -5.000000e+00 -1.041739e+01 3.087434e+00
      vertex   -5.021945e+00 -1.039921e+01 3.082476e+00
      vertex   -5.041245e+00 -1.040480e+01 3.041294e+00
    endloop
  endfacet
  facet normal -6.449380e-01 -6.564447e-01 3.913250e-01
    outer loop
      vertex   -5.041245e+00 -1.040480e+01 3.041294e+00
      vertex   -5.021945e+00 -1.039921e+01 3.082476e+00
      vertex   -5.070335e+00 -1.037622e+01 3.041294e+00
    endloop
  endfacet
  facet normal -6.425864e-01 -6.540511e-01 3.991238e-01
    outer loop
      vertex   -5.002366e+00 -1.039354e+01 3.123542e+00
      vertex   -5.000000e+00 -1.039158e+01 3.130568e+00
      vertex   -5.031232e+00 -1.036518e+01 3.123542e+00
    endloop
  endfacet
  facet normal -6.419791e-01 -6.523257e-01 4.029070e-01
    outer loop
      vertex   -5.031232e+00 -1.036518e+01 3.123542e+00
      vertex   -5.000000e+00 -1.039158e+01 3.130568e+00
      vertex   -5.000000e+00 -1.036520e+01 3.173277e+00
    endloop
  endfacet
  facet normal -6.421489e-01 -6.520925e-01 4.030137e-01
    outer loop
      vertex   -5.031232e+00 -1.036518e+01 3.123542e+00
      vertex   -5.000000e+00 -1.036520e+01 3.173277e+00
      vertex   -5.011259e+00 -1.035954e+01 3.164489e+00
    endloop
  endfacet
  facet normal -6.446622e-01 -6.445146e-01 4.111101e-01
    outer loop
      vertex   -5.011259e+00 -1.035954e+01 3.164489e+00
      vertex   -5.000000e+00 -1.036520e+01 3.173277e+00
      vertex   -5.000000e+00 -1.033824e+01 3.215535e+00
    endloop
  endfacet
  facet normal -6.472947e-01 -6.421347e-01 4.106977e-01
    outer loop
      vertex   -5.011259e+00 -1.035954e+01 3.164489e+00
      vertex   -5.000000e+00 -1.033824e+01 3.215535e+00
      vertex   -5.039396e+00 -1.033118e+01 3.164489e+00
    endloop
  endfacet
  facet normal -6.477855e-01 -6.413251e-01 4.111886e-01
    outer loop
      vertex   -5.039396e+00 -1.033118e+01 3.164489e+00
      vertex   -5.000000e+00 -1.033824e+01 3.215535e+00
      vertex   -5.019029e+00 -1.032558e+01 3.205312e+00
    endloop
  endfacet
  facet normal -6.546938e-01 -6.327904e-01 4.134639e-01
    outer loop
      vertex   -5.039396e+00 -1.033118e+01 3.164489e+00
      vertex   -5.019029e+00 -1.032558e+01 3.205312e+00
      vertex   -5.066917e+00 -1.030271e+01 3.164489e+00
    endloop
  endfacet
  facet normal -6.546938e-01 -6.327904e-01 4.134639e-01
    outer loop
      vertex   -5.066917e+00 -1.030271e+01 3.164489e+00
      vertex   -5.019029e+00 -1.032558e+01 3.205312e+00
      vertex   -5.046439e+00 -1.029722e+01 3.205312e+00
    endloop
  endfacet
  facet normal -6.621541e-01 -6.233374e-01 4.159356e-01
    outer loop
      vertex   -5.066917e+00 -1.030271e+01 3.164489e+00
      vertex   -5.046439e+00 -1.029722e+01 3.205312e+00
      vertex   -5.093820e+00 -1.027413e+01 3.164489e+00
    endloop
  endfacet
  facet normal -6.621541e-01 -6.233374e-01 4.159356e-01
    outer loop
      vertex   -5.093820e+00 -1.027413e+01 3.164489e+00
      vertex   -5.046439e+00 -1.029722e+01 3.205312e+00
      vertex   -5.073233e+00 -1.026876e+01 3.205312e+00
    endloop
  endfacet
  facet normal -6.695761e-01 -6.136799e-01 4.184076e-01
    outer loop
      vertex   -5.093820e+00 -1.027413e+01 3.164489e+00
      vertex   -5.073233e+00 -1.026876e+01 3.205312e+00
      vertex   -5.120103e+00 -1.024545e+01 3.164489e+00
    endloop
  endfacet
  facet normal -6.695761e-01 -6.136799e-01 4.184076e-01
    outer loop
      vertex   -5.120103e+00 -1.024545e+01 3.164489e+00
      vertex   -5.073233e+00 -1.026876e+01 3.205312e+00
      vertex   -5.099410e+00 -1.024020e+01 3.205312e+00
    endloop
  endfacet
  facet normal -6.482722e-01 -6.357592e-01 4.189909e-01
    outer loop
      vertex   -5.000000e+00 -1.033824e+01 3.215535e+00
      vertex   -5.000000e+00 -1.031071e+01 3.257315e+00
      vertex   -5.019029e+00 -1.032558e+01 3.205312e+00
    endloop
  endfacet
  facet normal -6.527835e-01 -6.309441e-01 4.192650e-01
    outer loop
      vertex   -5.019029e+00 -1.032558e+01 3.205312e+00
      vertex   -5.000000e+00 -1.031071e+01 3.257315e+00
      vertex   -5.046439e+00 -1.029722e+01 3.205312e+00
    endloop
  endfacet
  facet normal -6.467331e-01 -6.303401e-01 4.294272e-01
    outer loop
      vertex   -5.000000e+00 -1.028259e+01 3.298589e+00
      vertex   -5.004637e+00 -1.028602e+01 3.286576e+00
      vertex   -5.000000e+00 -1.031071e+01 3.257315e+00
    endloop
  endfacet
  facet normal -6.525554e-01 -6.269157e-01 4.256150e-01
    outer loop
      vertex   -5.000000e+00 -1.031071e+01 3.257315e+00
      vertex   -5.004637e+00 -1.028602e+01 3.286576e+00
      vertex   -5.025679e+00 -1.029166e+01 3.246009e+00
    endloop
  endfacet
  facet normal -6.527646e-01 -6.309814e-01 4.192385e-01
    outer loop
      vertex   -5.000000e+00 -1.031071e+01 3.257315e+00
      vertex   -5.025679e+00 -1.029166e+01 3.246009e+00
      vertex   -5.046439e+00 -1.029722e+01 3.205312e+00
    endloop
  endfacet
  facet normal -6.602053e-01 -6.215027e-01 4.217385e-01
    outer loop
      vertex   -5.046439e+00 -1.029722e+01 3.205312e+00
      vertex   -5.025679e+00 -1.029166e+01 3.246009e+00
      vertex   -5.073233e+00 -1.026876e+01 3.205312e+00
    endloop
  endfacet
  facet normal -6.573024e-01 -6.187700e-01 4.302060e-01
    outer loop
      vertex   -5.004637e+00 -1.028602e+01 3.286576e+00
      vertex   -5.000000e+00 -1.028259e+01 3.298589e+00
      vertex   -5.031209e+00 -1.025779e+01 3.286576e+00
    endloop
  endfacet
  facet normal -6.569252e-01 -6.163267e-01 4.342703e-01
    outer loop
      vertex   -5.031209e+00 -1.025779e+01 3.286576e+00
      vertex   -5.000000e+00 -1.028259e+01 3.298589e+00
      vertex   -5.000000e+00 -1.025388e+01 3.339331e+00
    endloop
  endfacet
  facet normal -6.520586e-01 -6.231263e-01 4.318949e-01
    outer loop
      vertex   -5.031209e+00 -1.025779e+01 3.286576e+00
      vertex   -5.000000e+00 -1.025388e+01 3.339331e+00
      vertex   -5.009773e+00 -1.025220e+01 3.327009e+00
    endloop
  endfacet
  facet normal -6.614194e-01 -6.062041e-01 4.416344e-01
    outer loop
      vertex   -5.009773e+00 -1.025220e+01 3.327009e+00
      vertex   -5.000000e+00 -1.025388e+01 3.339331e+00
      vertex   -5.035623e+00 -1.022399e+01 3.327009e+00
    endloop
  endfacet
  facet normal -6.634915e-01 -6.081032e-01 4.358779e-01
    outer loop
      vertex   -5.009773e+00 -1.025220e+01 3.327009e+00
      vertex   -5.035623e+00 -1.022399e+01 3.327009e+00
      vertex   -5.057169e+00 -1.022947e+01 3.286576e+00
    endloop
  endfacet
  facet normal -6.613809e-01 -6.060437e-01 4.419121e-01
    outer loop
      vertex   -5.000000e+00 -1.025388e+01 3.339331e+00
      vertex   -5.000000e+00 -1.022458e+01 3.379514e+00
      vertex   -5.035623e+00 -1.022399e+01 3.327009e+00
    endloop
  endfacet
  facet normal -6.607502e-01 -6.070510e-01 4.414729e-01
    outer loop
      vertex   -5.035623e+00 -1.022399e+01 3.327009e+00
      vertex   -5.000000e+00 -1.022458e+01 3.379514e+00
      vertex   -5.013794e+00 -1.021845e+01 3.367304e+00
    endloop
  endfacet
  facet normal -6.641206e-01 -5.966454e-01 4.505087e-01
    outer loop
      vertex   -5.000000e+00 -1.022458e+01 3.379514e+00
      vertex   -5.000000e+00 -1.019468e+01 3.419122e+00
      vertex   -5.013794e+00 -1.021845e+01 3.367304e+00
    endloop
  endfacet
  facet normal -6.714067e-01 -5.821809e-01 4.585613e-01
    outer loop
      vertex   -5.041115e+00 -1.015665e+01 3.407458e+00
      vertex   -5.000000e+00 -1.016406e+01 3.458243e+00
      vertex   -5.018502e+00 -1.015121e+01 3.447468e+00
    endloop
  endfacet
  facet normal -6.715326e-01 -5.752934e-01 4.669920e-01
    outer loop
      vertex   -5.018502e+00 -1.015121e+01 3.447468e+00
      vertex   -5.000000e+00 -1.016406e+01 3.458243e+00
      vertex   -5.000000e+00 -1.013272e+01 3.496856e+00
    endloop
  endfacet
  facet normal -6.759403e-01 -5.702901e-01 4.667697e-01
    outer loop
      vertex   -5.018502e+00 -1.015121e+01 3.447468e+00
      vertex   -5.000000e+00 -1.013272e+01 3.496856e+00
      vertex   -5.042201e+00 -1.012312e+01 3.447468e+00
    endloop
  endfacet
  facet normal -6.761423e-01 -5.698370e-01 4.670304e-01
    outer loop
      vertex   -5.042201e+00 -1.012312e+01 3.447468e+00
      vertex   -5.000000e+00 -1.013272e+01 3.496856e+00
      vertex   -5.019198e+00 -1.011775e+01 3.487329e+00
    endloop
  endfacet
  facet normal -6.827515e-01 -5.598421e-01 4.694967e-01
    outer loop
      vertex   -5.042201e+00 -1.012312e+01 3.447468e+00
      vertex   -5.019198e+00 -1.011775e+01 3.487329e+00
      vertex   -5.065296e+00 -1.009496e+01 3.447468e+00
    endloop
  endfacet
  facet normal -6.827515e-01 -5.598421e-01 4.694967e-01
    outer loop
      vertex   -5.065296e+00 -1.009496e+01 3.447468e+00
      vertex   -5.019198e+00 -1.011775e+01 3.487329e+00
      vertex   -5.042187e+00 -1.008971e+01 3.487329e+00
    endloop
  endfacet
  facet normal -6.895602e-01 -5.492501e-01 4.720499e-01
    outer loop
      vertex   -5.065296e+00 -1.009496e+01 3.447468e+00
      vertex   -5.042187e+00 -1.008971e+01 3.487329e+00
      vertex   -5.087786e+00 -1.006672e+01 3.447468e+00
    endloop
  endfacet
  facet normal -6.895602e-01 -5.492501e-01 4.720499e-01
    outer loop
      vertex   -5.087786e+00 -1.006672e+01 3.447468e+00
      vertex   -5.042187e+00 -1.008971e+01 3.487329e+00
      vertex   -5.064574e+00 -1.006161e+01 3.487329e+00
    endloop
  endfacet
  facet normal -6.962961e-01 -5.384597e-01 4.745870e-01
    outer loop
      vertex   -5.087786e+00 -1.006672e+01 3.447468e+00
      vertex   -5.064574e+00 -1.006161e+01 3.487329e+00
      vertex   -5.109670e+00 -1.003842e+01 3.447468e+00
    endloop
  endfacet
  facet normal -6.962961e-01 -5.384597e-01 4.745870e-01
    outer loop
      vertex   -5.109670e+00 -1.003842e+01 3.447468e+00
      vertex   -5.064574e+00 -1.006161e+01 3.487329e+00
      vertex   -5.086359e+00 -1.003344e+01 3.487329e+00
    endloop
  endfacet
  facet normal -7.029680e-01 -5.274480e-01 4.771107e-01
    outer loop
      vertex   -5.109670e+00 -1.003842e+01 3.447468e+00
      vertex   -5.086359e+00 -1.003344e+01 3.487329e+00
      vertex   -5.131038e+00 -1.000995e+01 3.447468e+00
    endloop
  endfacet
  facet normal -7.029685e-01 -5.274453e-01 4.771129e-01
    outer loop
      vertex   -5.131038e+00 -1.000995e+01 3.447468e+00
      vertex   -5.086359e+00 -1.003344e+01 3.487329e+00
      vertex   -5.107638e+00 -1.000508e+01 3.487329e+00
    endloop
  endfacet
  facet normal -7.071469e-01 -5.203727e-01 4.787018e-01
    outer loop
      vertex   -5.131038e+00 -1.000995e+01 3.447468e+00
      vertex   -5.107638e+00 -1.000508e+01 3.487329e+00
      vertex   -5.137214e+00 -1.000000e+01 3.449156e+00
    endloop
  endfacet
  facet normal -7.072892e-01 -5.200368e-01 4.788567e-01
    outer loop
      vertex   -5.137214e+00 -1.000000e+01 3.449156e+00
      vertex   -5.107638e+00 -1.000508e+01 3.487329e+00
      vertex   -5.110382e+00 -1.000000e+01 3.488788e+00
    endloop
  endfacet
  facet normal -7.037803e-01 -5.197166e-01 4.843428e-01
    outer loop
      vertex   -5.110382e+00 -1.000000e+01 3.488788e+00
      vertex   -5.107638e+00 -1.000508e+01 3.487329e+00
      vertex   -5.083949e+00 -1.000015e+01 3.527039e+00
    endloop
  endfacet
  facet normal -7.150275e-01 -4.964580e-01 4.922043e-01
    outer loop
      vertex   -5.110382e+00 -1.000000e+01 3.488788e+00
      vertex   -5.083949e+00 -1.000015e+01 3.527039e+00
      vertex   -5.083243e+00 -1.000000e+01 3.528213e+00
    endloop
  endfacet
  facet normal -6.990253e-01 -5.244836e-01 4.860870e-01
    outer loop
      vertex   -5.083243e+00 -1.000000e+01 3.528213e+00
      vertex   -5.083949e+00 -1.000015e+01 3.527039e+00
      vertex   -5.062761e+00 -1.002839e+01 3.527039e+00
    endloop
  endfacet
  facet normal -6.979192e-01 -5.237823e-01 4.884270e-01
    outer loop
      vertex   -5.083243e+00 -1.000000e+01 3.528213e+00
      vertex   -5.062761e+00 -1.002839e+01 3.527039e+00
      vertex   -5.055799e+00 -1.000000e+01 3.567428e+00
    endloop
  endfacet
  facet normal -6.972342e-01 -5.243996e-01 4.887428e-01
    outer loop
      vertex   -5.055799e+00 -1.000000e+01 3.567428e+00
      vertex   -5.062761e+00 -1.002839e+01 3.527039e+00
      vertex   -5.038878e+00 -1.002328e+01 3.566593e+00
    endloop
  endfacet
  facet normal -6.946525e-01 -5.227181e-01 4.941900e-01
    outer loop
      vertex   -5.055799e+00 -1.000000e+01 3.567428e+00
      vertex   -5.038878e+00 -1.002328e+01 3.566593e+00
      vertex   -5.028051e+00 -1.000000e+01 3.606432e+00
    endloop
  endfacet
  facet normal -6.939687e-01 -5.234160e-01 4.944119e-01
    outer loop
      vertex   -5.028051e+00 -1.000000e+01 3.606432e+00
      vertex   -5.038878e+00 -1.002328e+01 3.566593e+00
      vertex   -5.014712e+00 -1.001810e+01 3.605989e+00
    endloop
  endfacet
  facet normal -6.913518e-01 -5.216232e-01 4.999420e-01
    outer loop
      vertex   -5.028051e+00 -1.000000e+01 3.606432e+00
      vertex   -5.014712e+00 -1.001810e+01 3.605989e+00
      vertex   -5.000000e+00 -1.000000e+01 3.645222e+00
    endloop
  endfacet
  facet normal -6.868590e-01 -5.268395e-01 5.006644e-01
    outer loop
      vertex   -5.000000e+00 -1.000000e+01 3.645222e+00
      vertex   -5.014712e+00 -1.001810e+01 3.605989e+00
      vertex   -5.000000e+00 -1.003428e+01 3.609147e+00
    endloop
  endfacet
  facet normal -6.895479e-01 -5.308437e-01 4.926751e-01
    outer loop
      vertex   -5.000000e+00 -1.003428e+01 3.609147e+00
      vertex   -5.014712e+00 -1.001810e+01 3.605989e+00
      vertex   -5.038878e+00 -1.002328e+01 3.566593e+00
    endloop
  endfacet
  facet normal -6.888798e-01 -5.327246e-01 4.915782e-01
    outer loop
      vertex   -5.000000e+00 -1.003428e+01 3.609147e+00
      vertex   -5.038878e+00 -1.002328e+01 3.566593e+00
      vertex   -5.017297e+00 -1.005118e+01 3.566593e+00
    endloop
  endfacet
  facet normal -6.911795e-01 -5.345029e-01 4.863924e-01
    outer loop
      vertex   -5.017297e+00 -1.005118e+01 3.566593e+00
      vertex   -5.038878e+00 -1.002328e+01 3.566593e+00
      vertex   -5.062761e+00 -1.002839e+01 3.527039e+00
    endloop
  endfacet
  facet normal -6.911795e-01 -5.345029e-01 4.863924e-01
    outer loop
      vertex   -5.017297e+00 -1.005118e+01 3.566593e+00
      vertex   -5.062761e+00 -1.002839e+01 3.527039e+00
      vertex   -5.041077e+00 -1.005643e+01 3.527039e+00
    endloop
  endfacet
  facet normal -6.937570e-01 -5.364962e-01 4.804926e-01
    outer loop
      vertex   -5.041077e+00 -1.005643e+01 3.527039e+00
      vertex   -5.062761e+00 -1.002839e+01 3.527039e+00
      vertex   -5.086359e+00 -1.003344e+01 3.487329e+00
    endloop
  endfacet
  facet normal -6.937570e-01 -5.364962e-01 4.804926e-01
    outer loop
      vertex   -5.041077e+00 -1.005643e+01 3.527039e+00
      vertex   -5.086359e+00 -1.003344e+01 3.487329e+00
      vertex   -5.064574e+00 -1.006161e+01 3.487329e+00
    endloop
  endfacet
  facet normal -6.754974e-01 -5.637955e-01 4.752241e-01
    outer loop
      vertex   -5.000000e+00 -1.013272e+01 3.496856e+00
      vertex   -5.000000e+00 -1.010064e+01 3.534913e+00
      vertex   -5.019198e+00 -1.011775e+01 3.487329e+00
    endloop
  endfacet
  facet normal -6.804271e-01 -5.579361e-01 4.751065e-01
    outer loop
      vertex   -5.019198e+00 -1.011775e+01 3.487329e+00
      vertex   -5.000000e+00 -1.010064e+01 3.534913e+00
      vertex   -5.042187e+00 -1.008971e+01 3.487329e+00
    endloop
  endfacet
  facet normal -6.807194e-01 -5.572178e-01 4.755307e-01
    outer loop
      vertex   -5.042187e+00 -1.008971e+01 3.487329e+00
      vertex   -5.000000e+00 -1.010064e+01 3.534913e+00
      vertex   -5.018794e+00 -1.008440e+01 3.527039e+00
    endloop
  endfacet
  facet normal -6.794424e-01 -5.518557e-01 4.835424e-01
    outer loop
      vertex   -5.018794e+00 -1.008440e+01 3.527039e+00
      vertex   -5.000000e+00 -1.010064e+01 3.534913e+00
      vertex   -5.000000e+00 -1.006783e+01 3.572360e+00
    endloop
  endfacet
  facet normal -6.847398e-01 -5.454106e-01 4.833826e-01
    outer loop
      vertex   -5.018794e+00 -1.008440e+01 3.527039e+00
      vertex   -5.000000e+00 -1.006783e+01 3.572360e+00
      vertex   -5.041077e+00 -1.005643e+01 3.527039e+00
    endloop
  endfacet
  facet normal -6.851805e-01 -5.442405e-01 4.840765e-01
    outer loop
      vertex   -5.041077e+00 -1.005643e+01 3.527039e+00
      vertex   -5.000000e+00 -1.006783e+01 3.572360e+00
      vertex   -5.017297e+00 -1.005118e+01 3.566593e+00
    endloop
  endfacet
  facet normal -6.832733e-01 -5.395157e-01 4.919963e-01
    outer loop
      vertex   -5.000000e+00 -1.006783e+01 3.572360e+00
      vertex   -5.000000e+00 -1.003428e+01 3.609147e+00
      vertex   -5.017297e+00 -1.005118e+01 3.566593e+00
    endloop
  endfacet
  facet normal -7.103037e-01 -5.213529e-01 4.729268e-01
    outer loop
      vertex   -5.137214e+00 -1.000000e+01 3.449156e+00
      vertex   -5.163739e+00 -1.000000e+01 3.409317e+00
      vertex   -5.131038e+00 -1.000995e+01 3.447468e+00
    endloop
  endfacet
  facet normal -7.103500e-01 -5.212232e-01 4.730003e-01
    outer loop
      vertex   -5.131038e+00 -1.000995e+01 3.447468e+00
      vertex   -5.163739e+00 -1.000000e+01 3.409317e+00
      vertex   -5.154151e+00 -1.001475e+01 3.407458e+00
    endloop
  endfacet
  facet normal -7.055192e-01 -5.293623e-01 4.711881e-01
    outer loop
      vertex   -5.131038e+00 -1.000995e+01 3.447468e+00
      vertex   -5.154151e+00 -1.001475e+01 3.407458e+00
      vertex   -5.109670e+00 -1.003842e+01 3.447468e+00
    endloop
  endfacet
  facet normal -7.055187e-01 -5.293649e-01 4.711859e-01
    outer loop
      vertex   -5.109670e+00 -1.003842e+01 3.447468e+00
      vertex   -5.154151e+00 -1.001475e+01 3.407458e+00
      vertex   -5.132694e+00 -1.004335e+01 3.407458e+00
    endloop
  endfacet
  facet normal -6.987971e-01 -5.403938e-01 4.686761e-01
    outer loop
      vertex   -5.109670e+00 -1.003842e+01 3.447468e+00
      vertex   -5.132694e+00 -1.004335e+01 3.407458e+00
      vertex   -5.087786e+00 -1.006672e+01 3.447468e+00
    endloop
  endfacet
  facet normal -6.987971e-01 -5.403938e-01 4.686761e-01
    outer loop
      vertex   -5.087786e+00 -1.006672e+01 3.447468e+00
      vertex   -5.132694e+00 -1.004335e+01 3.407458e+00
      vertex   -5.110711e+00 -1.007178e+01 3.407458e+00
    endloop
  endfacet
  facet normal -6.920104e-01 -5.512017e-01 4.661527e-01
    outer loop
      vertex   -5.087786e+00 -1.006672e+01 3.447468e+00
      vertex   -5.110711e+00 -1.007178e+01 3.407458e+00
      vertex   -5.065296e+00 -1.009496e+01 3.447468e+00
    endloop
  endfacet
  facet normal -6.920104e-01 -5.512017e-01 4.661527e-01
    outer loop
      vertex   -5.065296e+00 -1.009496e+01 3.447468e+00
      vertex   -5.110711e+00 -1.007178e+01 3.407458e+00
      vertex   -5.088120e+00 -1.010014e+01 3.407458e+00
    endloop
  endfacet
  facet normal -6.851512e-01 -5.618098e-01 4.636136e-01
    outer loop
      vertex   -5.065296e+00 -1.009496e+01 3.447468e+00
      vertex   -5.088120e+00 -1.010014e+01 3.407458e+00
      vertex   -5.042201e+00 -1.012312e+01 3.447468e+00
    endloop
  endfacet
  facet normal -6.851512e-01 -5.618098e-01 4.636136e-01
    outer loop
      vertex   -5.042201e+00 -1.012312e+01 3.447468e+00
      vertex   -5.088120e+00 -1.010014e+01 3.407458e+00
      vertex   -5.064921e+00 -1.012843e+01 3.407458e+00
    endloop
  endfacet
  facet normal -6.782250e-01 -5.722177e-01 4.610615e-01
    outer loop
      vertex   -5.042201e+00 -1.012312e+01 3.447468e+00
      vertex   -5.064921e+00 -1.012843e+01 3.407458e+00
      vertex   -5.018502e+00 -1.015121e+01 3.447468e+00
    endloop
  endfacet
  facet normal -6.782250e-01 -5.722177e-01 4.610615e-01
    outer loop
      vertex   -5.018502e+00 -1.015121e+01 3.447468e+00
      vertex   -5.064921e+00 -1.012843e+01 3.407458e+00
      vertex   -5.041115e+00 -1.015665e+01 3.407458e+00
    endloop
  endfacet
  facet normal -7.133818e-01 -5.224441e-01 4.670529e-01
    outer loop
      vertex   -5.163739e+00 -1.000000e+01 3.409317e+00
      vertex   -5.189955e+00 -1.000000e+01 3.369275e+00
      vertex   -5.154151e+00 -1.001475e+01 3.407458e+00
    endloop
  endfacet
  facet normal -7.134806e-01 -5.221116e-01 4.672740e-01
    outer loop
      vertex   -5.154151e+00 -1.001475e+01 3.407458e+00
      vertex   -5.189955e+00 -1.000000e+01 3.369275e+00
      vertex   -5.176973e+00 -1.001950e+01 3.367304e+00
    endloop
  endfacet
  facet normal -7.080313e-01 -5.312502e-01 4.652578e-01
    outer loop
      vertex   -5.154151e+00 -1.001475e+01 3.407458e+00
      vertex   -5.176973e+00 -1.001950e+01 3.367304e+00
      vertex   -5.132694e+00 -1.004335e+01 3.407458e+00
    endloop
  endfacet
  facet normal -7.080307e-01 -5.312529e-01 4.652556e-01
    outer loop
      vertex   -5.132694e+00 -1.004335e+01 3.407458e+00
      vertex   -5.176973e+00 -1.001950e+01 3.367304e+00
      vertex   -5.155429e+00 -1.004822e+01 3.367304e+00
    endloop
  endfacet
  facet normal -7.012599e-01 -5.422983e-01 4.627602e-01
    outer loop
      vertex   -5.132694e+00 -1.004335e+01 3.407458e+00
      vertex   -5.155429e+00 -1.004822e+01 3.367304e+00
      vertex   -5.110711e+00 -1.007178e+01 3.407458e+00
    endloop
  endfacet
  facet normal -7.012599e-01 -5.422983e-01 4.627602e-01
    outer loop
      vertex   -5.110711e+00 -1.007178e+01 3.407458e+00
      vertex   -5.155429e+00 -1.004822e+01 3.367304e+00
      vertex   -5.133349e+00 -1.007677e+01 3.367304e+00
    endloop
  endfacet
  facet normal -6.944230e-01 -5.531234e-01 4.602513e-01
    outer loop
      vertex   -5.110711e+00 -1.007178e+01 3.407458e+00
      vertex   -5.133349e+00 -1.007677e+01 3.367304e+00
      vertex   -5.088120e+00 -1.010014e+01 3.407458e+00
    endloop
  endfacet
  facet normal -6.944230e-01 -5.531234e-01 4.602513e-01
    outer loop
      vertex   -5.088120e+00 -1.010014e+01 3.407458e+00
      vertex   -5.133349e+00 -1.007677e+01 3.367304e+00
      vertex   -5.110658e+00 -1.010526e+01 3.367304e+00
    endloop
  endfacet
  facet normal -6.875138e-01 -5.637471e-01 4.577270e-01
    outer loop
      vertex   -5.088120e+00 -1.010014e+01 3.407458e+00
      vertex   -5.110658e+00 -1.010526e+01 3.367304e+00
      vertex   -5.064921e+00 -1.012843e+01 3.407458e+00
    endloop
  endfacet
  facet normal -6.875138e-01 -5.637471e-01 4.577270e-01
    outer loop
      vertex   -5.064921e+00 -1.012843e+01 3.407458e+00
      vertex   -5.110658e+00 -1.010526e+01 3.367304e+00
      vertex   -5.087356e+00 -1.013367e+01 3.367304e+00
    endloop
  endfacet
  facet normal -6.805379e-01 -5.741691e-01 4.551900e-01
    outer loop
      vertex   -5.064921e+00 -1.012843e+01 3.407458e+00
      vertex   -5.087356e+00 -1.013367e+01 3.367304e+00
      vertex   -5.041115e+00 -1.015665e+01 3.407458e+00
    endloop
  endfacet
  facet normal -7.163175e-01 -5.234108e-01 4.614438e-01
    outer loop
      vertex   -5.176973e+00 -1.001950e+01 3.367304e+00
      vertex   -5.189955e+00 -1.000000e+01 3.369275e+00
      vertex   -5.199504e+00 -1.002419e+01 3.327009e+00
    endloop
  endfacet
  facet normal -7.166573e-01 -5.230565e-01 4.613178e-01
    outer loop
      vertex   -5.199504e+00 -1.002419e+01 3.327009e+00
      vertex   -5.189955e+00 -1.000000e+01 3.369275e+00
      vertex   -5.215861e+00 -1.000000e+01 3.329030e+00
    endloop
  endfacet
  facet normal -7.193024e-01 -5.243732e-01 4.556719e-01
    outer loop
      vertex   -5.199504e+00 -1.002419e+01 3.327009e+00
      vertex   -5.215861e+00 -1.000000e+01 3.329030e+00
      vertex   -5.221743e+00 -1.002882e+01 3.286576e+00
    endloop
  endfacet
  facet normal -7.197282e-01 -5.239733e-01 4.554594e-01
    outer loop
      vertex   -5.221743e+00 -1.002882e+01 3.286576e+00
      vertex   -5.215861e+00 -1.000000e+01 3.329030e+00
      vertex   -5.241456e+00 -1.000000e+01 3.288584e+00
    endloop
  endfacet
  facet normal -7.221985e-01 -5.252830e-01 4.500078e-01
    outer loop
      vertex   -5.221743e+00 -1.002882e+01 3.286576e+00
      vertex   -5.241456e+00 -1.000000e+01 3.288584e+00
      vertex   -5.264758e+00 -1.000444e+01 3.246009e+00
    endloop
  endfacet
  facet normal -7.252554e-01 -5.200757e-01 4.511384e-01
    outer loop
      vertex   -5.264758e+00 -1.000444e+01 3.246009e+00
      vertex   -5.241456e+00 -1.000000e+01 3.288584e+00
      vertex   -5.266738e+00 -1.000000e+01 3.247940e+00
    endloop
  endfacet
  facet normal -7.290644e-01 -5.194192e-01 4.457228e-01
    outer loop
      vertex   -5.264758e+00 -1.000444e+01 3.246009e+00
      vertex   -5.266738e+00 -1.000000e+01 3.247940e+00
      vertex   -5.291707e+00 -1.000000e+01 3.207098e+00
    endloop
  endfacet
  facet normal -7.286601e-01 -5.203133e-01 4.453409e-01
    outer loop
      vertex   -5.264758e+00 -1.000444e+01 3.246009e+00
      vertex   -5.291707e+00 -1.000000e+01 3.207098e+00
      vertex   -5.286508e+00 -1.000881e+01 3.205312e+00
    endloop
  endfacet
  facet normal -7.316968e-01 -5.209401e-01 4.395921e-01
    outer loop
      vertex   -5.286508e+00 -1.000881e+01 3.205312e+00
      vertex   -5.291707e+00 -1.000000e+01 3.207098e+00
      vertex   -5.316361e+00 -1.000000e+01 3.166062e+00
    endloop
  endfacet
  facet normal -7.316879e-01 -5.209626e-01 4.395803e-01
    outer loop
      vertex   -5.286508e+00 -1.000881e+01 3.205312e+00
      vertex   -5.316361e+00 -1.000000e+01 3.166062e+00
      vertex   -5.307962e+00 -1.001312e+01 3.164489e+00
    endloop
  endfacet
  facet normal -7.344968e-01 -5.220406e-01 4.335758e-01
    outer loop
      vertex   -5.307962e+00 -1.001312e+01 3.164489e+00
      vertex   -5.316361e+00 -1.000000e+01 3.166062e+00
      vertex   -5.340700e+00 -1.000000e+01 3.124832e+00
    endloop
  endfacet
  facet normal -7.338184e-01 -5.339562e-01 4.200016e-01
    outer loop
      vertex   -5.349979e+00 -1.002157e+01 3.082476e+00
      vertex   -5.370541e+00 -1.002571e+01 3.041294e+00
      vertex   -5.328529e+00 -1.005105e+01 3.082476e+00
    endloop
  endfacet
  facet normal -7.338179e-01 -5.339583e-01 4.199997e-01
    outer loop
      vertex   -5.328529e+00 -1.005105e+01 3.082476e+00
      vertex   -5.370541e+00 -1.002571e+01 3.041294e+00
      vertex   -5.348998e+00 -1.005531e+01 3.041294e+00
    endloop
  endfacet
  facet normal -7.267564e-01 -5.453256e-01 4.176663e-01
    outer loop
      vertex   -5.328529e+00 -1.005105e+01 3.082476e+00
      vertex   -5.348998e+00 -1.005531e+01 3.041294e+00
      vertex   -5.306414e+00 -1.008053e+01 3.082476e+00
    endloop
  endfacet
  facet normal -7.267557e-01 -5.453283e-01 4.176639e-01
    outer loop
      vertex   -5.306414e+00 -1.008053e+01 3.082476e+00
      vertex   -5.348998e+00 -1.005531e+01 3.041294e+00
      vertex   -5.326806e+00 -1.008489e+01 3.041294e+00
    endloop
  endfacet
  facet normal -7.196103e-01 -5.564890e-01 4.153083e-01
    outer loop
      vertex   -5.306414e+00 -1.008053e+01 3.082476e+00
      vertex   -5.326806e+00 -1.008489e+01 3.041294e+00
      vertex   -5.283687e+00 -1.010991e+01 3.082476e+00
    endloop
  endfacet
  facet normal -7.196103e-01 -5.564890e-01 4.153083e-01
    outer loop
      vertex   -5.283687e+00 -1.010991e+01 3.082476e+00
      vertex   -5.326806e+00 -1.008489e+01 3.041294e+00
      vertex   -5.303992e+00 -1.011439e+01 3.041294e+00
    endloop
  endfacet
  facet normal -7.123902e-01 -5.674348e-01 4.129382e-01
    outer loop
      vertex   -5.283687e+00 -1.010991e+01 3.082476e+00
      vertex   -5.303992e+00 -1.011439e+01 3.041294e+00
      vertex   -5.260331e+00 -1.013924e+01 3.082476e+00
    endloop
  endfacet
  facet normal -7.123902e-01 -5.674348e-01 4.129382e-01
    outer loop
      vertex   -5.260331e+00 -1.013924e+01 3.082476e+00
      vertex   -5.303992e+00 -1.011439e+01 3.041294e+00
      vertex   -5.280547e+00 -1.014383e+01 3.041294e+00
    endloop
  endfacet
  facet normal -7.051002e-01 -5.781676e-01 4.105557e-01
    outer loop
      vertex   -5.260331e+00 -1.013924e+01 3.082476e+00
      vertex   -5.280547e+00 -1.014383e+01 3.041294e+00
      vertex   -5.236347e+00 -1.016849e+01 3.082476e+00
    endloop
  endfacet
  facet normal -7.051002e-01 -5.781676e-01 4.105557e-01
    outer loop
      vertex   -5.236347e+00 -1.016849e+01 3.082476e+00
      vertex   -5.280547e+00 -1.014383e+01 3.041294e+00
      vertex   -5.256471e+00 -1.017319e+01 3.041294e+00
    endloop
  endfacet
  facet normal -6.977461e-01 -5.886876e-01 4.081633e-01
    outer loop
      vertex   -5.236347e+00 -1.016849e+01 3.082476e+00
      vertex   -5.256471e+00 -1.017319e+01 3.041294e+00
      vertex   -5.211735e+00 -1.019766e+01 3.082476e+00
    endloop
  endfacet
  facet normal -6.977461e-01 -5.886876e-01 4.081633e-01
    outer loop
      vertex   -5.211735e+00 -1.019766e+01 3.082476e+00
      vertex   -5.256471e+00 -1.017319e+01 3.041294e+00
      vertex   -5.231764e+00 -1.020247e+01 3.041294e+00
    endloop
  endfacet
  facet normal -6.903337e-01 -5.989955e-01 4.057632e-01
    outer loop
      vertex   -5.211735e+00 -1.019766e+01 3.082476e+00
      vertex   -5.231764e+00 -1.020247e+01 3.041294e+00
      vertex   -5.186496e+00 -1.022675e+01 3.082476e+00
    endloop
  endfacet
  facet normal -6.903337e-01 -5.989955e-01 4.057632e-01
    outer loop
      vertex   -5.186496e+00 -1.022675e+01 3.082476e+00
      vertex   -5.231764e+00 -1.020247e+01 3.041294e+00
      vertex   -5.206428e+00 -1.023167e+01 3.041294e+00
    endloop
  endfacet
  facet normal -7.315630e-01 -5.323126e-01 4.259799e-01
    outer loop
      vertex   -5.329119e+00 -1.001738e+01 3.123542e+00
      vertex   -5.349979e+00 -1.002157e+01 3.082476e+00
      vertex   -5.307763e+00 -1.004673e+01 3.123542e+00
    endloop
  endfacet
  facet normal -7.315625e-01 -5.323147e-01 4.259780e-01
    outer loop
      vertex   -5.307763e+00 -1.004673e+01 3.123542e+00
      vertex   -5.349979e+00 -1.002157e+01 3.082476e+00
      vertex   -5.328529e+00 -1.005105e+01 3.082476e+00
    endloop
  endfacet
  facet normal -7.245477e-01 -5.436652e-01 4.236258e-01
    outer loop
      vertex   -5.307763e+00 -1.004673e+01 3.123542e+00
      vertex   -5.328529e+00 -1.005105e+01 3.082476e+00
      vertex   -5.285725e+00 -1.007610e+01 3.123542e+00
    endloop
  endfacet
  facet normal -7.245470e-01 -5.436679e-01 4.236235e-01
    outer loop
      vertex   -5.285725e+00 -1.007610e+01 3.123542e+00
      vertex   -5.328529e+00 -1.005105e+01 3.082476e+00
      vertex   -5.306414e+00 -1.008053e+01 3.082476e+00
    endloop
  endfacet
  facet normal -7.174465e-01 -5.548157e-01 4.212482e-01
    outer loop
      vertex   -5.285725e+00 -1.007610e+01 3.123542e+00
      vertex   -5.306414e+00 -1.008053e+01 3.082476e+00
      vertex   -5.263087e+00 -1.010537e+01 3.123542e+00
    endloop
  endfacet
  facet normal -7.174465e-01 -5.548157e-01 4.212482e-01
    outer loop
      vertex   -5.263087e+00 -1.010537e+01 3.123542e+00
      vertex   -5.306414e+00 -1.008053e+01 3.082476e+00
      vertex   -5.283687e+00 -1.010991e+01 3.082476e+00
    endloop
  endfacet
  facet normal -7.102724e-01 -5.657479e-01 4.188585e-01
    outer loop
      vertex   -5.263087e+00 -1.010537e+01 3.123542e+00
      vertex   -5.283687e+00 -1.010991e+01 3.082476e+00
      vertex   -5.239823e+00 -1.013458e+01 3.123542e+00
    endloop
  endfacet
  facet normal -7.102724e-01 -5.657479e-01 4.188585e-01
    outer loop
      vertex   -5.239823e+00 -1.013458e+01 3.123542e+00
      vertex   -5.283687e+00 -1.010991e+01 3.082476e+00
      vertex   -5.260331e+00 -1.013924e+01 3.082476e+00
    endloop
  endfacet
  facet normal -7.030280e-01 -5.764685e-01 4.164561e-01
    outer loop
      vertex   -5.239823e+00 -1.013458e+01 3.123542e+00
      vertex   -5.260331e+00 -1.013924e+01 3.082476e+00
      vertex   -5.215932e+00 -1.016372e+01 3.123542e+00
    endloop
  endfacet
  facet normal -7.030280e-01 -5.764685e-01 4.164561e-01
    outer loop
      vertex   -5.215932e+00 -1.016372e+01 3.123542e+00
      vertex   -5.260331e+00 -1.013924e+01 3.082476e+00
      vertex   -5.236347e+00 -1.016849e+01 3.082476e+00
    endloop
  endfacet
  facet normal -6.957193e-01 -5.869776e-01 4.140434e-01
    outer loop
      vertex   -5.215932e+00 -1.016372e+01 3.123542e+00
      vertex   -5.236347e+00 -1.016849e+01 3.082476e+00
      vertex   -5.191416e+00 -1.019277e+01 3.123542e+00
    endloop
  endfacet
  facet normal -6.957193e-01 -5.869776e-01 4.140434e-01
    outer loop
      vertex   -5.191416e+00 -1.019277e+01 3.123542e+00
      vertex   -5.236347e+00 -1.016849e+01 3.082476e+00
      vertex   -5.211735e+00 -1.019766e+01 3.082476e+00
    endloop
  endfacet
  facet normal -6.883519e-01 -5.972758e-01 4.116228e-01
    outer loop
      vertex   -5.191416e+00 -1.019277e+01 3.123542e+00
      vertex   -5.211735e+00 -1.019766e+01 3.082476e+00
      vertex   -5.166275e+00 -1.022175e+01 3.123542e+00
    endloop
  endfacet
  facet normal -6.883519e-01 -5.972758e-01 4.116228e-01
    outer loop
      vertex   -5.166275e+00 -1.022175e+01 3.123542e+00
      vertex   -5.211735e+00 -1.019766e+01 3.082476e+00
      vertex   -5.186496e+00 -1.022675e+01 3.082476e+00
    endloop
  endfacet
  facet normal -7.269383e-01 -5.289425e-01 4.379276e-01
    outer loop
      vertex   -5.307962e+00 -1.001312e+01 3.164489e+00
      vertex   -5.265343e+00 -1.003790e+01 3.205312e+00
      vertex   -5.286508e+00 -1.000881e+01 3.205312e+00
    endloop
  endfacet
  facet normal -7.245682e-01 -5.272179e-01 4.438944e-01
    outer loop
      vertex   -5.286508e+00 -1.000881e+01 3.205312e+00
      vertex   -5.265343e+00 -1.003790e+01 3.205312e+00
      vertex   -5.243690e+00 -1.003339e+01 3.246009e+00
    endloop
  endfacet
  facet normal -7.245687e-01 -5.272158e-01 4.438961e-01
    outer loop
      vertex   -5.286508e+00 -1.000881e+01 3.205312e+00
      vertex   -5.243690e+00 -1.003339e+01 3.246009e+00
      vertex   -5.264758e+00 -1.000444e+01 3.246009e+00
    endloop
  endfacet
  facet normal -7.221602e-01 -5.254633e-01 4.498588e-01
    outer loop
      vertex   -5.264758e+00 -1.000444e+01 3.246009e+00
      vertex   -5.243690e+00 -1.003339e+01 3.246009e+00
      vertex   -5.221743e+00 -1.002882e+01 3.286576e+00
    endloop
  endfacet
  facet normal -7.292692e-01 -5.306435e-01 4.319535e-01
    outer loop
      vertex   -5.329119e+00 -1.001738e+01 3.123542e+00
      vertex   -5.307763e+00 -1.004673e+01 3.123542e+00
      vertex   -5.286701e+00 -1.004234e+01 3.164489e+00
    endloop
  endfacet
  facet normal -7.223016e-01 -5.419766e-01 4.295831e-01
    outer loop
      vertex   -5.286701e+00 -1.004234e+01 3.164489e+00
      vertex   -5.307763e+00 -1.004673e+01 3.123542e+00
      vertex   -5.264742e+00 -1.007161e+01 3.164489e+00
    endloop
  endfacet
  facet normal -7.200174e-01 -5.402627e-01 4.355356e-01
    outer loop
      vertex   -5.286701e+00 -1.004234e+01 3.164489e+00
      vertex   -5.264742e+00 -1.007161e+01 3.164489e+00
      vertex   -5.243465e+00 -1.006706e+01 3.205312e+00
    endloop
  endfacet
  facet normal -7.130083e-01 -5.513836e-01 4.331227e-01
    outer loop
      vertex   -5.243465e+00 -1.006706e+01 3.205312e+00
      vertex   -5.264742e+00 -1.007161e+01 3.164489e+00
      vertex   -5.221007e+00 -1.009610e+01 3.205312e+00
    endloop
  endfacet
  facet normal -7.107336e-01 -5.496245e-01 4.390566e-01
    outer loop
      vertex   -5.243465e+00 -1.006706e+01 3.205312e+00
      vertex   -5.221007e+00 -1.009610e+01 3.205312e+00
      vertex   -5.199529e+00 -1.009136e+01 3.246009e+00
    endloop
  endfacet
  facet normal -7.037007e-01 -5.605134e-01 4.366120e-01
    outer loop
      vertex   -5.199529e+00 -1.009136e+01 3.246009e+00
      vertex   -5.221007e+00 -1.009610e+01 3.205312e+00
      vertex   -5.176545e+00 -1.012022e+01 3.246009e+00
    endloop
  endfacet
  facet normal -7.014369e-01 -5.587102e-01 4.425260e-01
    outer loop
      vertex   -5.199529e+00 -1.009136e+01 3.246009e+00
      vertex   -5.176545e+00 -1.012022e+01 3.246009e+00
      vertex   -5.154871e+00 -1.011529e+01 3.286576e+00
    endloop
  endfacet
  facet normal -6.943808e-01 -5.693779e-01 4.400501e-01
    outer loop
      vertex   -5.154871e+00 -1.011529e+01 3.286576e+00
      vertex   -5.176545e+00 -1.012022e+01 3.246009e+00
      vertex   -5.131368e+00 -1.014396e+01 3.286576e+00
    endloop
  endfacet
  facet normal -6.921284e-01 -5.675310e-01 4.459448e-01
    outer loop
      vertex   -5.154871e+00 -1.011529e+01 3.286576e+00
      vertex   -5.131368e+00 -1.014396e+01 3.286576e+00
      vertex   -5.109506e+00 -1.013885e+01 3.327009e+00
    endloop
  endfacet
  facet normal -6.850548e-01 -5.779800e-01 4.434401e-01
    outer loop
      vertex   -5.109506e+00 -1.013885e+01 3.327009e+00
      vertex   -5.131368e+00 -1.014396e+01 3.286576e+00
      vertex   -5.085490e+00 -1.016731e+01 3.327009e+00
    endloop
  endfacet
  facet normal -6.828145e-01 -5.760898e-01 4.493161e-01
    outer loop
      vertex   -5.109506e+00 -1.013885e+01 3.327009e+00
      vertex   -5.085490e+00 -1.016731e+01 3.327009e+00
      vertex   -5.063445e+00 -1.016202e+01 3.367304e+00
    endloop
  endfacet
  facet normal -6.757285e-01 -5.863226e-01 4.467849e-01
    outer loop
      vertex   -5.063445e+00 -1.016202e+01 3.367304e+00
      vertex   -5.085490e+00 -1.016731e+01 3.327009e+00
      vertex   -5.038924e+00 -1.019028e+01 3.367304e+00
    endloop
  endfacet
  facet normal -6.735008e-01 -5.843897e-01 4.526427e-01
    outer loop
      vertex   -5.063445e+00 -1.016202e+01 3.367304e+00
      vertex   -5.038924e+00 -1.019028e+01 3.367304e+00
      vertex   -5.016702e+00 -1.018478e+01 3.407458e+00
    endloop
  endfacet
  facet normal -7.223010e-01 -5.419793e-01 4.295808e-01
    outer loop
      vertex   -5.264742e+00 -1.007161e+01 3.164489e+00
      vertex   -5.307763e+00 -1.004673e+01 3.123542e+00
      vertex   -5.285725e+00 -1.007610e+01 3.123542e+00
    endloop
  endfacet
  facet normal -7.176967e-01 -5.385150e-01 4.414896e-01
    outer loop
      vertex   -5.265343e+00 -1.003790e+01 3.205312e+00
      vertex   -5.221894e+00 -1.006244e+01 3.246009e+00
      vertex   -5.243690e+00 -1.003339e+01 3.246009e+00
    endloop
  endfacet
  facet normal -7.153369e-01 -5.367444e-01 4.474356e-01
    outer loop
      vertex   -5.243690e+00 -1.003339e+01 3.246009e+00
      vertex   -5.221894e+00 -1.006244e+01 3.246009e+00
      vertex   -5.200030e+00 -1.005776e+01 3.286576e+00
    endloop
  endfacet
  facet normal -7.153375e-01 -5.367417e-01 4.474378e-01
    outer loop
      vertex   -5.243690e+00 -1.003339e+01 3.246009e+00
      vertex   -5.200030e+00 -1.005776e+01 3.286576e+00
      vertex   -5.221743e+00 -1.002882e+01 3.286576e+00
    endloop
  endfacet
  facet normal -7.129397e-01 -5.349425e-01 4.533800e-01
    outer loop
      vertex   -5.221743e+00 -1.002882e+01 3.286576e+00
      vertex   -5.200030e+00 -1.005776e+01 3.286576e+00
      vertex   -5.177875e+00 -1.005302e+01 3.327009e+00
    endloop
  endfacet
  facet normal -7.129403e-01 -5.349399e-01 4.533822e-01
    outer loop
      vertex   -5.221743e+00 -1.002882e+01 3.286576e+00
      vertex   -5.177875e+00 -1.005302e+01 3.327009e+00
      vertex   -5.199504e+00 -1.002419e+01 3.327009e+00
    endloop
  endfacet
  facet normal -7.105044e-01 -5.331121e-01 4.593201e-01
    outer loop
      vertex   -5.199504e+00 -1.002419e+01 3.327009e+00
      vertex   -5.177875e+00 -1.005302e+01 3.327009e+00
      vertex   -5.155429e+00 -1.004822e+01 3.367304e+00
    endloop
  endfacet
  facet normal -7.105050e-01 -5.331094e-01 4.593224e-01
    outer loop
      vertex   -5.199504e+00 -1.002419e+01 3.327009e+00
      vertex   -5.155429e+00 -1.004822e+01 3.367304e+00
      vertex   -5.176973e+00 -1.001950e+01 3.367304e+00
    endloop
  endfacet
  facet normal -7.003791e-01 -5.254994e-01 4.830316e-01
    outer loop
      vertex   -5.062761e+00 -1.002839e+01 3.527039e+00
      vertex   -5.083949e+00 -1.000015e+01 3.527039e+00
      vertex   -5.107638e+00 -1.000508e+01 3.487329e+00
    endloop
  endfacet
  facet normal -7.003786e-01 -5.255021e-01 4.830294e-01
    outer loop
      vertex   -5.062761e+00 -1.002839e+01 3.527039e+00
      vertex   -5.107638e+00 -1.000508e+01 3.487329e+00
      vertex   -5.086359e+00 -1.003344e+01 3.487329e+00
    endloop
  endfacet
  facet normal -7.152459e-01 -5.531140e-01 4.271864e-01
    outer loop
      vertex   -5.264742e+00 -1.007161e+01 3.164489e+00
      vertex   -5.285725e+00 -1.007610e+01 3.123542e+00
      vertex   -5.242194e+00 -1.010077e+01 3.164489e+00
    endloop
  endfacet
  facet normal -7.152459e-01 -5.531140e-01 4.271864e-01
    outer loop
      vertex   -5.242194e+00 -1.010077e+01 3.164489e+00
      vertex   -5.285725e+00 -1.007610e+01 3.123542e+00
      vertex   -5.263087e+00 -1.010537e+01 3.123542e+00
    endloop
  endfacet
  facet normal -7.081183e-01 -5.640321e-01 4.247778e-01
    outer loop
      vertex   -5.242194e+00 -1.010077e+01 3.164489e+00
      vertex   -5.263087e+00 -1.010537e+01 3.123542e+00
      vertex   -5.219021e+00 -1.012986e+01 3.164489e+00
    endloop
  endfacet
  facet normal -7.081183e-01 -5.640321e-01 4.247778e-01
    outer loop
      vertex   -5.219021e+00 -1.012986e+01 3.164489e+00
      vertex   -5.263087e+00 -1.010537e+01 3.123542e+00
      vertex   -5.239823e+00 -1.013458e+01 3.123542e+00
    endloop
  endfacet
  facet normal -7.009202e-01 -5.747401e-01 4.223561e-01
    outer loop
      vertex   -5.219021e+00 -1.012986e+01 3.164489e+00
      vertex   -5.239823e+00 -1.013458e+01 3.123542e+00
      vertex   -5.195226e+00 -1.015888e+01 3.164489e+00
    endloop
  endfacet
  facet normal -7.009202e-01 -5.747401e-01 4.223561e-01
    outer loop
      vertex   -5.195226e+00 -1.015888e+01 3.164489e+00
      vertex   -5.239823e+00 -1.013458e+01 3.123542e+00
      vertex   -5.215932e+00 -1.016372e+01 3.123542e+00
    endloop
  endfacet
  facet normal -6.936574e-01 -5.852380e-01 4.199237e-01
    outer loop
      vertex   -5.195226e+00 -1.015888e+01 3.164489e+00
      vertex   -5.215932e+00 -1.016372e+01 3.123542e+00
      vertex   -5.170807e+00 -1.018782e+01 3.164489e+00
    endloop
  endfacet
  facet normal -6.936574e-01 -5.852380e-01 4.199237e-01
    outer loop
      vertex   -5.170807e+00 -1.018782e+01 3.164489e+00
      vertex   -5.215932e+00 -1.016372e+01 3.123542e+00
      vertex   -5.191416e+00 -1.019277e+01 3.123542e+00
    endloop
  endfacet
  facet normal -6.863355e-01 -5.955262e-01 4.174831e-01
    outer loop
      vertex   -5.170807e+00 -1.018782e+01 3.164489e+00
      vertex   -5.191416e+00 -1.019277e+01 3.123542e+00
      vertex   -5.145766e+00 -1.021668e+01 3.164489e+00
    endloop
  endfacet
  facet normal -6.863355e-01 -5.955262e-01 4.174831e-01
    outer loop
      vertex   -5.145766e+00 -1.021668e+01 3.164489e+00
      vertex   -5.191416e+00 -1.019277e+01 3.123542e+00
      vertex   -5.166275e+00 -1.022175e+01 3.123542e+00
    endloop
  endfacet
  facet normal -7.084215e-01 -5.478365e-01 4.449878e-01
    outer loop
      vertex   -5.221894e+00 -1.006244e+01 3.246009e+00
      vertex   -5.177759e+00 -1.008656e+01 3.286576e+00
      vertex   -5.200030e+00 -1.005776e+01 3.286576e+00
    endloop
  endfacet
  facet normal -7.060720e-01 -5.460196e-01 4.509157e-01
    outer loop
      vertex   -5.200030e+00 -1.005776e+01 3.286576e+00
      vertex   -5.177759e+00 -1.008656e+01 3.286576e+00
      vertex   -5.155699e+00 -1.008170e+01 3.327009e+00
    endloop
  endfacet
  facet normal -7.060720e-01 -5.460196e-01 4.509157e-01
    outer loop
      vertex   -5.200030e+00 -1.005776e+01 3.286576e+00
      vertex   -5.155699e+00 -1.008170e+01 3.327009e+00
      vertex   -5.177875e+00 -1.005302e+01 3.327009e+00
    endloop
  endfacet
  facet normal -7.036848e-01 -5.441736e-01 4.568400e-01
    outer loop
      vertex   -5.177875e+00 -1.005302e+01 3.327009e+00
      vertex   -5.155699e+00 -1.008170e+01 3.327009e+00
      vertex   -5.133349e+00 -1.007677e+01 3.367304e+00
    endloop
  endfacet
  facet normal -7.036848e-01 -5.441736e-01 4.568400e-01
    outer loop
      vertex   -5.177875e+00 -1.005302e+01 3.327009e+00
      vertex   -5.133349e+00 -1.007677e+01 3.367304e+00
      vertex   -5.155429e+00 -1.004822e+01 3.367304e+00
    endloop
  endfacet
  facet normal -7.130083e-01 -5.513836e-01 4.331227e-01
    outer loop
      vertex   -5.264742e+00 -1.007161e+01 3.164489e+00
      vertex   -5.242194e+00 -1.010077e+01 3.164489e+00
      vertex   -5.221007e+00 -1.009610e+01 3.205312e+00
    endloop
  endfacet
  facet normal -7.059278e-01 -5.622873e-01 4.306958e-01
    outer loop
      vertex   -5.221007e+00 -1.009610e+01 3.205312e+00
      vertex   -5.242194e+00 -1.010077e+01 3.164489e+00
      vertex   -5.197929e+00 -1.012507e+01 3.205312e+00
    endloop
  endfacet
  facet normal -7.037007e-01 -5.605134e-01 4.366120e-01
    outer loop
      vertex   -5.221007e+00 -1.009610e+01 3.205312e+00
      vertex   -5.197929e+00 -1.012507e+01 3.205312e+00
      vertex   -5.176545e+00 -1.012022e+01 3.246009e+00
    endloop
  endfacet
  facet normal -6.965968e-01 -5.711950e-01 4.341535e-01
    outer loop
      vertex   -5.176545e+00 -1.012022e+01 3.246009e+00
      vertex   -5.197929e+00 -1.012507e+01 3.205312e+00
      vertex   -5.152943e+00 -1.014900e+01 3.246009e+00
    endloop
  endfacet
  facet normal -6.943808e-01 -5.693779e-01 4.400501e-01
    outer loop
      vertex   -5.176545e+00 -1.012022e+01 3.246009e+00
      vertex   -5.152943e+00 -1.014900e+01 3.246009e+00
      vertex   -5.131368e+00 -1.014396e+01 3.286576e+00
    endloop
  endfacet
  facet normal -6.872590e-01 -5.798397e-01 4.375625e-01
    outer loop
      vertex   -5.131368e+00 -1.014396e+01 3.286576e+00
      vertex   -5.152943e+00 -1.014900e+01 3.246009e+00
      vertex   -5.107250e+00 -1.017254e+01 3.286576e+00
    endloop
  endfacet
  facet normal -6.850548e-01 -5.779800e-01 4.434401e-01
    outer loop
      vertex   -5.131368e+00 -1.014396e+01 3.286576e+00
      vertex   -5.107250e+00 -1.017254e+01 3.286576e+00
      vertex   -5.085490e+00 -1.016731e+01 3.327009e+00
    endloop
  endfacet
  facet normal -6.779205e-01 -5.882246e-01 4.409258e-01
    outer loop
      vertex   -5.085490e+00 -1.016731e+01 3.327009e+00
      vertex   -5.107250e+00 -1.017254e+01 3.286576e+00
      vertex   -5.060862e+00 -1.019570e+01 3.327009e+00
    endloop
  endfacet
  facet normal -6.757285e-01 -5.863226e-01 4.467849e-01
    outer loop
      vertex   -5.085490e+00 -1.016731e+01 3.327009e+00
      vertex   -5.060862e+00 -1.019570e+01 3.327009e+00
      vertex   -5.038924e+00 -1.019028e+01 3.367304e+00
    endloop
  endfacet
  facet normal -7.059278e-01 -5.622873e-01 4.306958e-01
    outer loop
      vertex   -5.197929e+00 -1.012507e+01 3.205312e+00
      vertex   -5.242194e+00 -1.010077e+01 3.164489e+00
      vertex   -5.219021e+00 -1.012986e+01 3.164489e+00
    endloop
  endfacet
  facet normal -6.967981e-01 -5.550153e-01 4.543461e-01
    outer loop
      vertex   -5.110658e+00 -1.010526e+01 3.367304e+00
      vertex   -5.133349e+00 -1.007677e+01 3.367304e+00
      vertex   -5.155699e+00 -1.008170e+01 3.327009e+00
    endloop
  endfacet
  facet normal -6.967981e-01 -5.550153e-01 4.543461e-01
    outer loop
      vertex   -5.110658e+00 -1.010526e+01 3.367304e+00
      vertex   -5.155699e+00 -1.008170e+01 3.327009e+00
      vertex   -5.132909e+00 -1.011031e+01 3.327009e+00
    endloop
  endfacet
  facet normal -6.991361e-01 -5.568775e-01 4.484375e-01
    outer loop
      vertex   -5.132909e+00 -1.011031e+01 3.327009e+00
      vertex   -5.155699e+00 -1.008170e+01 3.327009e+00
      vertex   -5.177759e+00 -1.008656e+01 3.286576e+00
    endloop
  endfacet
  facet normal -6.870722e-01 -5.472684e-01 4.779425e-01
    outer loop
      vertex   -5.018794e+00 -1.008440e+01 3.527039e+00
      vertex   -5.041077e+00 -1.005643e+01 3.527039e+00
      vertex   -5.064574e+00 -1.006161e+01 3.487329e+00
    endloop
  endfacet
  facet normal -6.870722e-01 -5.472684e-01 4.779425e-01
    outer loop
      vertex   -5.018794e+00 -1.008440e+01 3.527039e+00
      vertex   -5.064574e+00 -1.006161e+01 3.487329e+00
      vertex   -5.042187e+00 -1.008971e+01 3.487329e+00
    endloop
  endfacet
  facet normal -6.987765e-01 -5.729823e-01 4.282554e-01
    outer loop
      vertex   -5.197929e+00 -1.012507e+01 3.205312e+00
      vertex   -5.219021e+00 -1.012986e+01 3.164489e+00
      vertex   -5.174229e+00 -1.015397e+01 3.205312e+00
    endloop
  endfacet
  facet normal -6.987765e-01 -5.729823e-01 4.282554e-01
    outer loop
      vertex   -5.174229e+00 -1.015397e+01 3.205312e+00
      vertex   -5.219021e+00 -1.012986e+01 3.164489e+00
      vertex   -5.195226e+00 -1.015888e+01 3.164489e+00
    endloop
  endfacet
  facet normal -6.915601e-01 -5.834686e-01 4.258040e-01
    outer loop
      vertex   -5.174229e+00 -1.015397e+01 3.205312e+00
      vertex   -5.195226e+00 -1.015888e+01 3.164489e+00
      vertex   -5.149909e+00 -1.018280e+01 3.205312e+00
    endloop
  endfacet
  facet normal -6.915601e-01 -5.834686e-01 4.258040e-01
    outer loop
      vertex   -5.149909e+00 -1.018280e+01 3.205312e+00
      vertex   -5.195226e+00 -1.015888e+01 3.164489e+00
      vertex   -5.170807e+00 -1.018782e+01 3.164489e+00
    endloop
  endfacet
  facet normal -6.842843e-01 -5.937465e-01 4.233440e-01
    outer loop
      vertex   -5.149909e+00 -1.018280e+01 3.205312e+00
      vertex   -5.170807e+00 -1.018782e+01 3.164489e+00
      vertex   -5.124969e+00 -1.021154e+01 3.205312e+00
    endloop
  endfacet
  facet normal -6.842843e-01 -5.937465e-01 4.233440e-01
    outer loop
      vertex   -5.124969e+00 -1.021154e+01 3.205312e+00
      vertex   -5.170807e+00 -1.018782e+01 3.164489e+00
      vertex   -5.145766e+00 -1.021668e+01 3.164489e+00
    endloop
  endfacet
  facet normal -6.898395e-01 -5.656541e-01 4.518373e-01
    outer loop
      vertex   -5.087356e+00 -1.013367e+01 3.367304e+00
      vertex   -5.110658e+00 -1.010526e+01 3.367304e+00
      vertex   -5.132909e+00 -1.011031e+01 3.327009e+00
    endloop
  endfacet
  facet normal -6.965968e-01 -5.711950e-01 4.341535e-01
    outer loop
      vertex   -5.197929e+00 -1.012507e+01 3.205312e+00
      vertex   -5.174229e+00 -1.015397e+01 3.205312e+00
      vertex   -5.152943e+00 -1.014900e+01 3.246009e+00
    endloop
  endfacet
  facet normal -6.894274e-01 -5.816692e-01 4.316837e-01
    outer loop
      vertex   -5.152943e+00 -1.014900e+01 3.246009e+00
      vertex   -5.174229e+00 -1.015397e+01 3.205312e+00
      vertex   -5.128723e+00 -1.017771e+01 3.246009e+00
    endloop
  endfacet
  facet normal -6.872590e-01 -5.798397e-01 4.375625e-01
    outer loop
      vertex   -5.152943e+00 -1.014900e+01 3.246009e+00
      vertex   -5.128723e+00 -1.017771e+01 3.246009e+00
      vertex   -5.107250e+00 -1.017254e+01 3.286576e+00
    endloop
  endfacet
  facet normal -6.800770e-01 -5.900958e-01 4.350657e-01
    outer loop
      vertex   -5.107250e+00 -1.017254e+01 3.286576e+00
      vertex   -5.128723e+00 -1.017771e+01 3.246009e+00
      vertex   -5.082517e+00 -1.020105e+01 3.286576e+00
    endloop
  endfacet
  facet normal -6.779205e-01 -5.882246e-01 4.409258e-01
    outer loop
      vertex   -5.107250e+00 -1.017254e+01 3.286576e+00
      vertex   -5.082517e+00 -1.020105e+01 3.286576e+00
      vertex   -5.060862e+00 -1.019570e+01 3.327009e+00
    endloop
  endfacet
  facet normal -6.894274e-01 -5.816692e-01 4.316837e-01
    outer loop
      vertex   -5.128723e+00 -1.017771e+01 3.246009e+00
      vertex   -5.174229e+00 -1.015397e+01 3.205312e+00
      vertex   -5.149909e+00 -1.018280e+01 3.205312e+00
    endloop
  endfacet
  facet normal -6.821982e-01 -5.919364e-01 4.292049e-01
    outer loop
      vertex   -5.124969e+00 -1.021154e+01 3.205312e+00
      vertex   -5.103886e+00 -1.020633e+01 3.246009e+00
      vertex   -5.149909e+00 -1.018280e+01 3.205312e+00
    endloop
  endfacet
  facet normal -6.821982e-01 -5.919364e-01 4.292049e-01
    outer loop
      vertex   -5.149909e+00 -1.018280e+01 3.205312e+00
      vertex   -5.103886e+00 -1.020633e+01 3.246009e+00
      vertex   -5.128723e+00 -1.017771e+01 3.246009e+00
    endloop
  endfacet
  facet normal -6.800770e-01 -5.900958e-01 4.350657e-01
    outer loop
      vertex   -5.103886e+00 -1.020633e+01 3.246009e+00
      vertex   -5.082517e+00 -1.020105e+01 3.286576e+00
      vertex   -5.128723e+00 -1.017771e+01 3.246009e+00
    endloop
  endfacet
  facet normal -6.753564e-01 -6.189777e-01 4.009493e-01
    outer loop
      vertex   -5.160630e+00 -1.025574e+01 3.082476e+00
      vertex   -5.180463e+00 -1.026078e+01 3.041294e+00
      vertex   -5.134139e+00 -1.028465e+01 3.082476e+00
    endloop
  endfacet
  facet normal -6.753564e-01 -6.189777e-01 4.009493e-01
    outer loop
      vertex   -5.134139e+00 -1.028465e+01 3.082476e+00
      vertex   -5.180463e+00 -1.026078e+01 3.041294e+00
      vertex   -5.153869e+00 -1.028980e+01 3.041294e+00
    endloop
  endfacet
  facet normal -6.678022e-01 -6.286544e-01 3.985397e-01
    outer loop
      vertex   -5.134139e+00 -1.028465e+01 3.082476e+00
      vertex   -5.153869e+00 -1.028980e+01 3.041294e+00
      vertex   -5.107023e+00 -1.031345e+01 3.082476e+00
    endloop
  endfacet
  facet normal -6.678022e-01 -6.286544e-01 3.985397e-01
    outer loop
      vertex   -5.107023e+00 -1.031345e+01 3.082476e+00
      vertex   -5.153869e+00 -1.028980e+01 3.041294e+00
      vertex   -5.126649e+00 -1.031871e+01 3.041294e+00
    endloop
  endfacet
  facet normal -6.602112e-01 -6.381233e-01 3.961312e-01
    outer loop
      vertex   -5.107023e+00 -1.031345e+01 3.082476e+00
      vertex   -5.126649e+00 -1.031871e+01 3.041294e+00
      vertex   -5.079284e+00 -1.034215e+01 3.082476e+00
    endloop
  endfacet
  facet normal -6.602112e-01 -6.381233e-01 3.961312e-01
    outer loop
      vertex   -5.079284e+00 -1.034215e+01 3.082476e+00
      vertex   -5.126649e+00 -1.031871e+01 3.041294e+00
      vertex   -5.098804e+00 -1.034752e+01 3.041294e+00
    endloop
  endfacet
  facet normal -6.525882e-01 -6.473861e-01 3.937257e-01
    outer loop
      vertex   -5.079284e+00 -1.034215e+01 3.082476e+00
      vertex   -5.098804e+00 -1.034752e+01 3.041294e+00
      vertex   -5.050924e+00 -1.037074e+01 3.082476e+00
    endloop
  endfacet
  facet normal -6.525882e-01 -6.473861e-01 3.937257e-01
    outer loop
      vertex   -5.050924e+00 -1.037074e+01 3.082476e+00
      vertex   -5.098804e+00 -1.034752e+01 3.041294e+00
      vertex   -5.070335e+00 -1.037622e+01 3.041294e+00
    endloop
  endfacet
  facet normal -6.449380e-01 -6.564447e-01 3.913250e-01
    outer loop
      vertex   -5.050924e+00 -1.037074e+01 3.082476e+00
      vertex   -5.070335e+00 -1.037622e+01 3.041294e+00
      vertex   -5.021945e+00 -1.039921e+01 3.082476e+00
    endloop
  endfacet
  facet normal -6.715364e-01 -6.154766e-01 4.125863e-01
    outer loop
      vertex   -5.093820e+00 -1.027413e+01 3.164489e+00
      vertex   -5.120103e+00 -1.024545e+01 3.164489e+00
      vertex   -5.140510e+00 -1.025063e+01 3.123542e+00
    endloop
  endfacet
  facet normal -6.734631e-01 -6.172424e-01 4.067668e-01
    outer loop
      vertex   -5.140510e+00 -1.025063e+01 3.123542e+00
      vertex   -5.160630e+00 -1.025574e+01 3.082476e+00
      vertex   -5.114122e+00 -1.027943e+01 3.123542e+00
    endloop
  endfacet
  facet normal -6.734631e-01 -6.172424e-01 4.067668e-01
    outer loop
      vertex   -5.114122e+00 -1.027943e+01 3.123542e+00
      vertex   -5.160630e+00 -1.025574e+01 3.082476e+00
      vertex   -5.134139e+00 -1.028465e+01 3.082476e+00
    endloop
  endfacet
  facet normal -6.659524e-01 -6.269130e-01 4.043358e-01
    outer loop
      vertex   -5.114122e+00 -1.027943e+01 3.123542e+00
      vertex   -5.134139e+00 -1.028465e+01 3.082476e+00
      vertex   -5.087112e+00 -1.030812e+01 3.123542e+00
    endloop
  endfacet
  facet normal -6.659524e-01 -6.269130e-01 4.043358e-01
    outer loop
      vertex   -5.087112e+00 -1.030812e+01 3.123542e+00
      vertex   -5.134139e+00 -1.028465e+01 3.082476e+00
      vertex   -5.107023e+00 -1.031345e+01 3.082476e+00
    endloop
  endfacet
  facet normal -6.584043e-01 -6.363769e-01 4.019057e-01
    outer loop
      vertex   -5.087112e+00 -1.030812e+01 3.123542e+00
      vertex   -5.107023e+00 -1.031345e+01 3.082476e+00
      vertex   -5.059481e+00 -1.033670e+01 3.123542e+00
    endloop
  endfacet
  facet normal -6.584043e-01 -6.363769e-01 4.019057e-01
    outer loop
      vertex   -5.059481e+00 -1.033670e+01 3.123542e+00
      vertex   -5.107023e+00 -1.031345e+01 3.082476e+00
      vertex   -5.079284e+00 -1.034215e+01 3.082476e+00
    endloop
  endfacet
  facet normal -6.508238e-01 -6.456357e-01 3.994783e-01
    outer loop
      vertex   -5.059481e+00 -1.033670e+01 3.123542e+00
      vertex   -5.079284e+00 -1.034215e+01 3.082476e+00
      vertex   -5.031232e+00 -1.036518e+01 3.123542e+00
    endloop
  endfacet
  facet normal -6.508238e-01 -6.456357e-01 3.994783e-01
    outer loop
      vertex   -5.031232e+00 -1.036518e+01 3.123542e+00
      vertex   -5.079284e+00 -1.034215e+01 3.082476e+00
      vertex   -5.050924e+00 -1.037074e+01 3.082476e+00
    endloop
  endfacet
  facet normal -6.432154e-01 -6.546913e-01 3.970556e-01
    outer loop
      vertex   -5.031232e+00 -1.036518e+01 3.123542e+00
      vertex   -5.050924e+00 -1.037074e+01 3.082476e+00
      vertex   -5.002366e+00 -1.039354e+01 3.123542e+00
    endloop
  endfacet
  facet normal -6.432154e-01 -6.546913e-01 3.970556e-01
    outer loop
      vertex   -5.002366e+00 -1.039354e+01 3.123542e+00
      vertex   -5.050924e+00 -1.037074e+01 3.082476e+00
      vertex   -5.021945e+00 -1.039921e+01 3.082476e+00
    endloop
  endfacet
  facet normal -6.675819e-01 -6.118522e-01 4.242301e-01
    outer loop
      vertex   -5.078432e+00 -1.023487e+01 3.246009e+00
      vertex   -5.099410e+00 -1.024020e+01 3.205312e+00
      vertex   -5.052363e+00 -1.026331e+01 3.246009e+00
    endloop
  endfacet
  facet normal -6.675819e-01 -6.118522e-01 4.242301e-01
    outer loop
      vertex   -5.052363e+00 -1.026331e+01 3.246009e+00
      vertex   -5.099410e+00 -1.024020e+01 3.205312e+00
      vertex   -5.073233e+00 -1.026876e+01 3.205312e+00
    endloop
  endfacet
  facet normal -6.602053e-01 -6.215027e-01 4.217385e-01
    outer loop
      vertex   -5.052363e+00 -1.026331e+01 3.246009e+00
      vertex   -5.073233e+00 -1.026876e+01 3.205312e+00
      vertex   -5.025679e+00 -1.029166e+01 3.246009e+00
    endloop
  endfacet
  facet normal -6.655538e-01 -6.099934e-01 4.300537e-01
    outer loop
      vertex   -5.057169e+00 -1.022947e+01 3.286576e+00
      vertex   -5.078432e+00 -1.023487e+01 3.246009e+00
      vertex   -5.031209e+00 -1.025779e+01 3.286576e+00
    endloop
  endfacet
  facet normal -6.655538e-01 -6.099934e-01 4.300537e-01
    outer loop
      vertex   -5.031209e+00 -1.025779e+01 3.286576e+00
      vertex   -5.078432e+00 -1.023487e+01 3.246009e+00
      vertex   -5.052363e+00 -1.026331e+01 3.246009e+00
    endloop
  endfacet
  facet normal -6.582229e-01 -6.196366e-01 4.275431e-01
    outer loop
      vertex   -5.031209e+00 -1.025779e+01 3.286576e+00
      vertex   -5.052363e+00 -1.026331e+01 3.246009e+00
      vertex   -5.004637e+00 -1.028602e+01 3.286576e+00
    endloop
  endfacet
  facet normal -6.582229e-01 -6.196366e-01 4.275431e-01
    outer loop
      vertex   -5.004637e+00 -1.028602e+01 3.286576e+00
      vertex   -5.052363e+00 -1.026331e+01 3.246009e+00
      vertex   -5.025679e+00 -1.029166e+01 3.246009e+00
    endloop
  endfacet
  facet normal -6.634915e-01 -6.081032e-01 4.358779e-01
    outer loop
      vertex   -5.031209e+00 -1.025779e+01 3.286576e+00
      vertex   -5.009773e+00 -1.025220e+01 3.327009e+00
      vertex   -5.057169e+00 -1.022947e+01 3.286576e+00
    endloop
  endfacet
  facet normal -6.640698e-01 -6.251407e-01 4.101346e-01
    outer loop
      vertex   -5.066917e+00 -1.030271e+01 3.164489e+00
      vertex   -5.093820e+00 -1.027413e+01 3.164489e+00
      vertex   -5.114122e+00 -1.027943e+01 3.123542e+00
    endloop
  endfacet
  facet normal -6.715364e-01 -6.154766e-01 4.125863e-01
    outer loop
      vertex   -5.114122e+00 -1.027943e+01 3.123542e+00
      vertex   -5.093820e+00 -1.027413e+01 3.164489e+00
      vertex   -5.140510e+00 -1.025063e+01 3.123542e+00
    endloop
  endfacet
  facet normal -6.640698e-01 -6.251407e-01 4.101346e-01
    outer loop
      vertex   -5.066917e+00 -1.030271e+01 3.164489e+00
      vertex   -5.114122e+00 -1.027943e+01 3.123542e+00
      vertex   -5.087112e+00 -1.030812e+01 3.123542e+00
    endloop
  endfacet
  facet normal -6.565653e-01 -6.345993e-01 4.076833e-01
    outer loop
      vertex   -5.039396e+00 -1.033118e+01 3.164489e+00
      vertex   -5.066917e+00 -1.030271e+01 3.164489e+00
      vertex   -5.087112e+00 -1.030812e+01 3.123542e+00
    endloop
  endfacet
  facet normal -6.565653e-01 -6.345993e-01 4.076833e-01
    outer loop
      vertex   -5.039396e+00 -1.033118e+01 3.164489e+00
      vertex   -5.087112e+00 -1.030812e+01 3.123542e+00
      vertex   -5.059481e+00 -1.033670e+01 3.123542e+00
    endloop
  endfacet
  facet normal -6.490277e-01 -6.438540e-01 4.052347e-01
    outer loop
      vertex   -5.011259e+00 -1.035954e+01 3.164489e+00
      vertex   -5.039396e+00 -1.033118e+01 3.164489e+00
      vertex   -5.059481e+00 -1.033670e+01 3.123542e+00
    endloop
  endfacet
  facet normal -6.490277e-01 -6.438540e-01 4.052347e-01
    outer loop
      vertex   -5.011259e+00 -1.035954e+01 3.164489e+00
      vertex   -5.059481e+00 -1.033670e+01 3.123542e+00
      vertex   -5.031232e+00 -1.036518e+01 3.123542e+00
    endloop
  endfacet
  facet normal 1.000000e+00 0.000000e+00 0.000000e+00
    outer loop
      vertex   -5.000000e+00 -1.000000e+01 3.645222e+00
      vertex   -5.000000e+00 -1.003428e+01 3.609147e+00
      vertex   -5.000000e+00 -1.000000e+01 3.000000e+00
    endloop
  endfacet
  facet normal 1.000000e+00 0.000000e+00 0.000000e+00
    outer loop
      vertex   -5.000000e+00 -1.000000e+01 3.000000e+00
      vertex   -5.000000e+00 -1.003428e+01 3.609147e+00
      vertex   -5.000000e+00 -1.006783e+01 3.572360e+00
    endloop
  endfacet
  facet normal 1.000000e+00 0.000000e+00 0.000000e+00
    outer loop
      vertex   -5.000000e+00 -1.000000e+01 3.000000e+00
      vertex   -5.000000e+00 -1.006783e+01 3.572360e+00
      vertex   -5.000000e+00 -1.010064e+01 3.534913e+00
    endloop
  endfacet
  facet normal 1.000000e+00 0.000000e+00 0.000000e+00
    outer loop
      vertex   -5.000000e+00 -1.010064e+01 3.534913e+00
      vertex   -5.000000e+00 -1.013272e+01 3.496856e+00
      vertex   -5.000000e+00 -1.000000e+01 3.000000e+00
    endloop
  endfacet
  facet normal 1.000000e+00 -2.132015e-14 -5.695001e-15
    outer loop
      vertex   -5.000000e+00 -1.000000e+01 3.000000e+00
      vertex   -5.000000e+00 -1.013272e+01 3.496856e+00
      vertex   -5.000000e+00 -1.016406e+01 3.458243e+00
    endloop
  endfacet
  facet normal 1.000000e+00 1.820639e-14 8.456639e-15
    outer loop
      vertex   -5.000000e+00 -1.000000e+01 3.000000e+00
      vertex   -5.000000e+00 -1.016406e+01 3.458243e+00
      vertex   -5.000000e+00 -1.019468e+01 3.419122e+00
    endloop
  endfacet
  facet normal 1.000000e+00 -1.838699e-14 -8.540527e-15
    outer loop
      vertex   -5.000000e+00 -1.019468e+01 3.419122e+00
      vertex   -5.000000e+00 -1.022458e+01 3.379514e+00
      vertex   -5.000000e+00 -1.000000e+01 3.000000e+00
    endloop
  endfacet
  facet normal 1.000000e+00 -1.771693e-15 1.291875e-15
    outer loop
      vertex   -5.000000e+00 -1.000000e+01 3.000000e+00
      vertex   -5.000000e+00 -1.022458e+01 3.379514e+00
      vertex   -5.000000e+00 -1.025388e+01 3.339331e+00
    endloop
  endfacet
  facet normal 1.000000e+00 -1.801650e-15 1.269462e-15
    outer loop
      vertex   -5.000000e+00 -1.000000e+01 3.000000e+00
      vertex   -5.000000e+00 -1.025388e+01 3.339331e+00
      vertex   -5.000000e+00 -1.028259e+01 3.298589e+00
    endloop
  endfacet
  facet normal 1.000000e+00 -1.827493e-15 1.245003e-15
    outer loop
      vertex   -5.000000e+00 -1.028259e+01 3.298589e+00
      vertex   -5.000000e+00 -1.031071e+01 3.257315e+00
      vertex   -5.000000e+00 -1.000000e+01 3.000000e+00
    endloop
  endfacet
  facet normal 1.000000e+00 -1.849251e-15 1.218731e-15
    outer loop
      vertex   -5.000000e+00 -1.000000e+01 3.000000e+00
      vertex   -5.000000e+00 -1.031071e+01 3.257315e+00
      vertex   -5.000000e+00 -1.033824e+01 3.215535e+00
    endloop
  endfacet
  facet normal 1.000000e+00 7.655538e-15 1.613480e-14
    outer loop
      vertex   -5.000000e+00 -1.000000e+01 3.000000e+00
      vertex   -5.000000e+00 -1.033824e+01 3.215535e+00
      vertex   -5.000000e+00 -1.036520e+01 3.173277e+00
    endloop
  endfacet
  facet normal 1.000000e+00 0.000000e+00 0.000000e+00
    outer loop
      vertex   -5.000000e+00 -1.036520e+01 3.173277e+00
      vertex   -5.000000e+00 -1.039158e+01 3.130568e+00
      vertex   -5.000000e+00 -1.000000e+01 3.000000e+00
    endloop
  endfacet
  facet normal 1.000000e+00 0.000000e+00 0.000000e+00
    outer loop
      vertex   -5.000000e+00 -1.000000e+01 3.000000e+00
      vertex   -5.000000e+00 -1.039158e+01 3.130568e+00
      vertex   -5.000000e+00 -1.041739e+01 3.087434e+00
    endloop
  endfacet
  facet normal 1.000000e+00 0.000000e+00 0.000000e+00
    outer loop
      vertex   -5.000000e+00 -1.000000e+01 3.000000e+00
      vertex   -5.000000e+00 -1.041739e+01 3.087434e+00
      vertex   -5.000000e+00 -1.044263e+01 3.043902e+00
    endloop
  endfacet
  facet normal 1.000000e+00 0.000000e+00 0.000000e+00
    outer loop
      vertex   -5.000000e+00 -1.044263e+01 3.043902e+00
      vertex   -5.000000e+00 -1.046731e+01 3.000000e+00
      vertex   -5.000000e+00 -1.000000e+01 3.000000e+00
    endloop
  endfacet
  facet normal 0.000000e+00 0.000000e+00 -1.000000e+00
    outer loop
      vertex   -5.000000e+00 -1.046731e+01 3.000000e+00
      vertex   -5.028679e+00 -1.044054e+01 3.000000e+00
      vertex   -5.000000e+00 -1.000000e+01 3.000000e+00
    endloop
  endfacet
  facet normal 0.000000e+00 0.000000e+00 -1.000000e+00
    outer loop
      vertex   -5.000000e+00 -1.000000e+01 3.000000e+00
      vertex   -5.028679e+00 -1.044054e+01 3.000000e+00
      vertex   -5.057021e+00 -1.041345e+01 3.000000e+00
    endloop
  endfacet
  facet normal 0.000000e+00 0.000000e+00 -1.000000e+00
    outer loop
      vertex   -5.000000e+00 -1.000000e+01 3.000000e+00
      vertex   -5.057021e+00 -1.041345e+01 3.000000e+00
      vertex   -5.085014e+00 -1.038604e+01 3.000000e+00
    endloop
  endfacet
  facet normal 0.000000e+00 0.000000e+00 -1.000000e+00
    outer loop
      vertex   -5.085014e+00 -1.038604e+01 3.000000e+00
      vertex   -5.112646e+00 -1.035831e+01 3.000000e+00
      vertex   -5.000000e+00 -1.000000e+01 3.000000e+00
    endloop
  endfacet
  facet normal 2.461894e-14 -7.739700e-15 -1.000000e+00
    outer loop
      vertex   -5.000000e+00 -1.000000e+01 3.000000e+00
      vertex   -5.112646e+00 -1.035831e+01 3.000000e+00
      vertex   -5.139904e+00 -1.033026e+01 3.000000e+00
    endloop
  endfacet
  facet normal 1.961915e-15 1.858229e-15 -1.000000e+00
    outer loop
      vertex   -5.000000e+00 -1.000000e+01 3.000000e+00
      vertex   -5.139904e+00 -1.033026e+01 3.000000e+00
      vertex   -5.166777e+00 -1.030189e+01 3.000000e+00
    endloop
  endfacet
  facet normal 1.994503e-15 1.840226e-15 -1.000000e+00
    outer loop
      vertex   -5.166777e+00 -1.030189e+01 3.000000e+00
      vertex   -5.193252e+00 -1.027319e+01 3.000000e+00
      vertex   -5.000000e+00 -1.000000e+01 3.000000e+00
    endloop
  endfacet
  facet normal 2.024809e-15 1.818787e-15 -1.000000e+00
    outer loop
      vertex   -5.000000e+00 -1.000000e+01 3.000000e+00
      vertex   -5.193252e+00 -1.027319e+01 3.000000e+00
      vertex   -5.219318e+00 -1.024417e+01 3.000000e+00
    endloop
  endfacet
  facet normal 2.052569e-15 1.793854e-15 -1.000000e+00
    outer loop
      vertex   -5.000000e+00 -1.000000e+01 3.000000e+00
      vertex   -5.219318e+00 -1.024417e+01 3.000000e+00
      vertex   -5.244961e+00 -1.021483e+01 3.000000e+00
    endloop
  endfacet
  facet normal -2.048996e-14 2.749763e-14 -1.000000e+00
    outer loop
      vertex   -5.244961e+00 -1.021483e+01 3.000000e+00
      vertex   -5.270169e+00 -1.018517e+01 3.000000e+00
      vertex   -5.000000e+00 -1.000000e+01 3.000000e+00
    endloop
  endfacet
  facet normal 1.839089e-14 -2.923160e-14 -1.000000e+00
    outer loop
      vertex   -5.000000e+00 -1.000000e+01 3.000000e+00
      vertex   -5.270169e+00 -1.018517e+01 3.000000e+00
      vertex   -5.294935e+00 -1.015517e+01 3.000000e+00
    endloop
  endfacet
  facet normal 2.118132e-15 1.697896e-15 -1.000000e+00
    outer loop
      vertex   -5.000000e+00 -1.000000e+01 3.000000e+00
      vertex   -5.294935e+00 -1.015517e+01 3.000000e+00
      vertex   -5.319258e+00 -1.012483e+01 3.000000e+00
    endloop
  endfacet
  facet normal 2.133374e-15 1.658915e-15 -1.000000e+00
    outer loop
      vertex   -5.319258e+00 -1.012483e+01 3.000000e+00
      vertex   -5.343122e+00 -1.009414e+01 3.000000e+00
      vertex   -5.000000e+00 -1.000000e+01 3.000000e+00
    endloop
  endfacet
  facet normal 2.144989e-15 1.616580e-15 -1.000000e+00
    outer loop
      vertex   -5.000000e+00 -1.000000e+01 3.000000e+00
      vertex   -5.343122e+00 -1.009414e+01 3.000000e+00
      vertex   -5.366513e+00 -1.006310e+01 3.000000e+00
    endloop
  endfacet
  facet normal -2.176329e-15 2.671531e-14 -1.000000e+00
    outer loop
      vertex   -5.000000e+00 -1.000000e+01 3.000000e+00
      vertex   -5.366513e+00 -1.006310e+01 3.000000e+00
      vertex   -5.389413e+00 -1.003172e+01 3.000000e+00
    endloop
  endfacet
  facet normal 0.000000e+00 0.000000e+00 -1.000000e+00
    outer loop
      vertex   -5.389413e+00 -1.003172e+01 3.000000e+00
      vertex   -5.411806e+00 -1.000000e+01 3.000000e+00
      vertex   -5.000000e+00 -1.000000e+01 3.000000e+00
    endloop
  endfacet
  facet normal 0.000000e+00 1.000000e+00 0.000000e+00
    outer loop
      vertex   -5.411806e+00 -1.000000e+01 3.000000e+00
      vertex   -5.388423e+00 -1.000000e+01 3.041799e+00
      vertex   -5.000000e+00 -1.000000e+01 3.000000e+00
    endloop
  endfacet
  facet normal 0.000000e+00 1.000000e+00 0.000000e+00
    outer loop
      vertex   -5.000000e+00 -1.000000e+01 3.000000e+00
      vertex   -5.388423e+00 -1.000000e+01 3.041799e+00
      vertex   -5.364721e+00 -1.000000e+01 3.083410e+00
    endloop
  endfacet
  facet normal 0.000000e+00 1.000000e+00 0.000000e+00
    outer loop
      vertex   -5.000000e+00 -1.000000e+01 3.000000e+00
      vertex   -5.364721e+00 -1.000000e+01 3.083410e+00
      vertex   -5.340700e+00 -1.000000e+01 3.124832e+00
    endloop
  endfacet
  facet normal -0.000000e+00 1.000000e+00 0.000000e+00
    outer loop
      vertex   -5.340700e+00 -1.000000e+01 3.124832e+00
      vertex   -5.316361e+00 -1.000000e+01 3.166062e+00
      vertex   -5.000000e+00 -1.000000e+01 3.000000e+00
    endloop
  endfacet
  facet normal 0.000000e+00 1.000000e+00 0.000000e+00
    outer loop
      vertex   -5.000000e+00 -1.000000e+01 3.000000e+00
      vertex   -5.316361e+00 -1.000000e+01 3.166062e+00
      vertex   -5.291707e+00 -1.000000e+01 3.207098e+00
    endloop
  endfacet
  facet normal 0.000000e+00 1.000000e+00 0.000000e+00
    outer loop
      vertex   -5.000000e+00 -1.000000e+01 3.000000e+00
      vertex   -5.291707e+00 -1.000000e+01 3.207098e+00
      vertex   -5.266738e+00 -1.000000e+01 3.247940e+00
    endloop
  endfacet
  facet normal -0.000000e+00 1.000000e+00 0.000000e+00
    outer loop
      vertex   -5.266738e+00 -1.000000e+01 3.247940e+00
      vertex   -5.241456e+00 -1.000000e+01 3.288584e+00
      vertex   -5.000000e+00 -1.000000e+01 3.000000e+00
    endloop
  endfacet
  facet normal 0.000000e+00 1.000000e+00 0.000000e+00
    outer loop
      vertex   -5.000000e+00 -1.000000e+01 3.000000e+00
      vertex   -5.241456e+00 -1.000000e+01 3.288584e+00
      vertex   -5.215861e+00 -1.000000e+01 3.329030e+00
    endloop
  endfacet
  facet normal 0.000000e+00 1.000000e+00 0.000000e+00
    outer loop
      vertex   -5.000000e+00 -1.000000e+01 3.000000e+00
      vertex   -5.215861e+00 -1.000000e+01 3.329030e+00
      vertex   -5.189955e+00 -1.000000e+01 3.369275e+00
    endloop
  endfacet
  facet normal -0.000000e+00 1.000000e+00 0.000000e+00
    outer loop
      vertex   -5.189955e+00 -1.000000e+01 3.369275e+00
      vertex   -5.163739e+00 -1.000000e+01 3.409317e+00
      vertex   -5.000000e+00 -1.000000e+01 3.000000e+00
    endloop
  endfacet
  facet normal 0.000000e+00 1.000000e+00 0.000000e+00
    outer loop
      vertex   -5.000000e+00 -1.000000e+01 3.000000e+00
      vertex   -5.163739e+00 -1.000000e+01 3.409317e+00
      vertex   -5.137214e+00 -1.000000e+01 3.449156e+00
    endloop
  endfacet
  facet normal 0.000000e+00 1.000000e+00 0.000000e+00
    outer loop
      vertex   -5.000000e+00 -1.000000e+01 3.000000e+00
      vertex   -5.137214e+00 -1.000000e+01 3.449156e+00
      vertex   -5.110382e+00 -1.000000e+01 3.488788e+00
    endloop
  endfacet
  facet normal -0.000000e+00 1.000000e+00 0.000000e+00
    outer loop
      vertex   -5.110382e+00 -1.000000e+01 3.488788e+00
      vertex   -5.083243e+00 -1.000000e+01 3.528213e+00
      vertex   -5.000000e+00 -1.000000e+01 3.000000e+00
    endloop
  endfacet
  facet normal 0.000000e+00 1.000000e+00 0.000000e+00
    outer loop
      vertex   -5.000000e+00 -1.000000e+01 3.000000e+00
      vertex   -5.083243e+00 -1.000000e+01 3.528213e+00
      vertex   -5.055799e+00 -1.000000e+01 3.567428e+00
    endloop
  endfacet
  facet normal 0.000000e+00 1.000000e+00 0.000000e+00
    outer loop
      vertex   -5.000000e+00 -1.000000e+01 3.000000e+00
      vertex   -5.055799e+00 -1.000000e+01 3.567428e+00
      vertex   -5.028051e+00 -1.000000e+01 3.606432e+00
    endloop
  endfacet
  facet normal -0.000000e+00 1.000000e+00 0.000000e+00
    outer loop
      vertex   -5.028051e+00 -1.000000e+01 3.606432e+00
      vertex   -5.000000e+00 -1.000000e+01 3.645222e+00
      vertex   -5.000000e+00 -1.000000e+01 3.000000e+00
    endloop
  endfacet
endsolid
