solid ASCII
  facet normal -6.458143e-01 -5.264863e-01 5.529341e-01
    outer loop
      vertex   -4.720979e+00 -1.000000e+01 4.000000e+00
      vertex   -4.685129e+00 -1.004398e+01 4.000000e+00
      vertex   -4.679468e+00 -1.000000e+01 4.048484e+00
    endloop
  endfacet
  facet normal -6.447194e-01 -5.272419e-01 5.534915e-01
    outer loop
      vertex   -4.679468e+00 -1.000000e+01 4.048484e+00
      vertex   -4.685129e+00 -1.004398e+01 4.000000e+00
      vertex   -4.652176e+00 -1.003414e+01 4.047758e+00
    endloop
  endfacet
  facet normal -6.410290e-01 -5.244384e-01 5.603983e-01
    outer loop
      vertex   -4.679468e+00 -1.000000e+01 4.048484e+00
      vertex   -4.652176e+00 -1.003414e+01 4.047758e+00
      vertex   -4.637466e+00 -1.000000e+01 4.096529e+00
    endloop
  endfacet
  facet normal -6.398783e-01 -5.254538e-01 5.607620e-01
    outer loop
      vertex   -4.637466e+00 -1.000000e+01 4.096529e+00
      vertex   -4.652176e+00 -1.003414e+01 4.047758e+00
      vertex   -4.617314e+00 -1.002597e+01 4.095186e+00
    endloop
  endfacet
  facet normal -6.359752e-01 -5.227821e-01 5.676570e-01
    outer loop
      vertex   -4.637466e+00 -1.000000e+01 4.096529e+00
      vertex   -4.617314e+00 -1.002597e+01 4.095186e+00
      vertex   -4.594978e+00 -1.000000e+01 4.144131e+00
    endloop
  endfacet
  facet normal -6.351695e-01 -5.236564e-01 5.677533e-01
    outer loop
      vertex   -4.594978e+00 -1.000000e+01 4.144131e+00
      vertex   -4.617314e+00 -1.002597e+01 4.095186e+00
      vertex   -4.582030e+00 -1.001771e+01 4.142279e+00
    endloop
  endfacet
  facet normal -6.307704e-01 -5.211866e-01 5.748855e-01
    outer loop
      vertex   -4.594978e+00 -1.000000e+01 4.144131e+00
      vertex   -4.582030e+00 -1.001771e+01 4.142279e+00
      vertex   -4.546328e+00 -1.000936e+01 4.189029e+00
    endloop
  endfacet
  facet normal -6.242326e-01 -5.322559e-01 5.718718e-01
    outer loop
      vertex   -4.546328e+00 -1.000936e+01 4.189029e+00
      vertex   -4.582030e+00 -1.001771e+01 4.142279e+00
      vertex   -4.511576e+00 -1.005011e+01 4.189029e+00
    endloop
  endfacet
  facet normal -6.203127e-01 -5.289136e-01 5.791913e-01
    outer loop
      vertex   -4.546328e+00 -1.000936e+01 4.189029e+00
      vertex   -4.511576e+00 -1.005011e+01 4.189029e+00
      vertex   -4.475736e+00 -1.004133e+01 4.235429e+00
    endloop
  endfacet
  facet normal -6.107822e-01 -5.445720e-01 5.747925e-01
    outer loop
      vertex   -4.475736e+00 -1.004133e+01 4.235429e+00
      vertex   -4.511576e+00 -1.005011e+01 4.189029e+00
      vertex   -4.439859e+00 -1.008157e+01 4.235429e+00
    endloop
  endfacet
  facet normal -6.069182e-01 -5.411270e-01 5.820926e-01
    outer loop
      vertex   -4.475736e+00 -1.004133e+01 4.235429e+00
      vertex   -4.439859e+00 -1.008157e+01 4.235429e+00
      vertex   -4.403904e+00 -1.007237e+01 4.281474e+00
    endloop
  endfacet
  facet normal -5.973536e-01 -5.563085e-01 5.776587e-01
    outer loop
      vertex   -4.403904e+00 -1.007237e+01 4.281474e+00
      vertex   -4.439859e+00 -1.008157e+01 4.235429e+00
      vertex   -4.366931e+00 -1.011207e+01 4.281474e+00
    endloop
  endfacet
  facet normal -5.935463e-01 -5.527628e-01 5.849412e-01
    outer loop
      vertex   -4.403904e+00 -1.007237e+01 4.281474e+00
      vertex   -4.366931e+00 -1.011207e+01 4.281474e+00
      vertex   -4.330883e+00 -1.010244e+01 4.327156e+00
    endloop
  endfacet
  facet normal -5.839625e-01 -5.674760e-01 5.804815e-01
    outer loop
      vertex   -4.330883e+00 -1.010244e+01 4.327156e+00
      vertex   -4.366931e+00 -1.011207e+01 4.281474e+00
      vertex   -4.292846e+00 -1.014158e+01 4.327156e+00
    endloop
  endfacet
  facet normal -5.802121e-01 -5.638315e-01 5.877482e-01
    outer loop
      vertex   -4.330883e+00 -1.010244e+01 4.327156e+00
      vertex   -4.292846e+00 -1.014158e+01 4.327156e+00
      vertex   -4.256727e+00 -1.013151e+01 4.372470e+00
    endloop
  endfacet
  facet normal -5.706231e-01 -5.780858e-01 5.832719e-01
    outer loop
      vertex   -4.256727e+00 -1.013151e+01 4.372470e+00
      vertex   -4.292846e+00 -1.014158e+01 4.327156e+00
      vertex   -4.217658e+00 -1.017008e+01 4.372470e+00
    endloop
  endfacet
  facet normal -5.669298e-01 -5.743443e-01 5.905246e-01
    outer loop
      vertex   -4.256727e+00 -1.013151e+01 4.372470e+00
      vertex   -4.217658e+00 -1.017008e+01 4.372470e+00
      vertex   -4.181492e+00 -1.015957e+01 4.417409e+00
    endloop
  endfacet
  facet normal -5.573481e-01 -5.881495e-01 5.860404e-01
    outer loop
      vertex   -4.181492e+00 -1.015957e+01 4.417409e+00
      vertex   -4.217658e+00 -1.017008e+01 4.372470e+00
      vertex   -4.141425e+00 -1.019754e+01 4.417409e+00
    endloop
  endfacet
  facet normal -5.537119e-01 -5.843124e-01 5.932809e-01
    outer loop
      vertex   -4.181492e+00 -1.015957e+01 4.417409e+00
      vertex   -4.141425e+00 -1.019754e+01 4.417409e+00
      vertex   -4.105233e+00 -1.018659e+01 4.461967e+00
    endloop
  endfacet
  facet normal -5.441490e-01 -5.976787e-01 5.887971e-01
    outer loop
      vertex   -4.105233e+00 -1.018659e+01 4.461967e+00
      vertex   -4.141425e+00 -1.019754e+01 4.417409e+00
      vertex   -4.064204e+00 -1.022395e+01 4.461967e+00
    endloop
  endfacet
  facet normal -5.405698e-01 -5.937474e-01 5.960271e-01
    outer loop
      vertex   -4.105233e+00 -1.018659e+01 4.461967e+00
      vertex   -4.064204e+00 -1.022395e+01 4.461967e+00
      vertex   -4.028012e+00 -1.021256e+01 4.506137e+00
    endloop
  endfacet
  facet normal -5.313153e-01 -6.063119e-01 5.916839e-01
    outer loop
      vertex   -4.028012e+00 -1.021256e+01 4.506137e+00
      vertex   -4.064204e+00 -1.022395e+01 4.461967e+00
      vertex   -4.000000e+00 -1.022438e+01 4.519180e+00
    endloop
  endfacet
  facet normal -5.316937e-01 -5.947184e-01 6.030023e-01
    outer loop
      vertex   -4.028012e+00 -1.021256e+01 4.506137e+00
      vertex   -4.000000e+00 -1.022438e+01 4.519180e+00
      vertex   -4.000000e+00 -1.018136e+01 4.561605e+00
    endloop
  endfacet
  facet normal -6.354579e-01 -5.418272e-01 5.501060e-01
    outer loop
      vertex   -4.652176e+00 -1.003414e+01 4.047758e+00
      vertex   -4.685129e+00 -1.004398e+01 4.000000e+00
      vertex   -4.616614e+00 -1.007584e+01 4.047758e+00
    endloop
  endfacet
  facet normal -6.353055e-01 -5.430619e-01 5.490635e-01
    outer loop
      vertex   -4.616614e+00 -1.007584e+01 4.047758e+00
      vertex   -4.685129e+00 -1.004398e+01 4.000000e+00
      vertex   -4.648259e+00 -1.008711e+01 4.000000e+00
    endloop
  endfacet
  facet normal -6.253722e-01 -5.575804e-01 5.459063e-01
    outer loop
      vertex   -4.616614e+00 -1.007584e+01 4.047758e+00
      vertex   -4.648259e+00 -1.008711e+01 4.000000e+00
      vertex   -4.579607e+00 -1.011735e+01 4.047758e+00
    endloop
  endfacet
  facet normal -6.251234e-01 -5.592247e-01 5.445076e-01
    outer loop
      vertex   -4.579607e+00 -1.011735e+01 4.047758e+00
      vertex   -4.648259e+00 -1.008711e+01 4.000000e+00
      vertex   -4.610358e+00 -1.012948e+01 4.000000e+00
    endloop
  endfacet
  facet normal -6.151858e-01 -5.729154e-01 5.415851e-01
    outer loop
      vertex   -4.579607e+00 -1.011735e+01 4.047758e+00
      vertex   -4.610358e+00 -1.012948e+01 4.000000e+00
      vertex   -4.541160e+00 -1.015863e+01 4.047758e+00
    endloop
  endfacet
  facet normal -6.148635e-01 -5.747655e-01 5.399885e-01
    outer loop
      vertex   -4.541160e+00 -1.015863e+01 4.047758e+00
      vertex   -4.610358e+00 -1.012948e+01 4.000000e+00
      vertex   -4.571150e+00 -1.017142e+01 4.000000e+00
    endloop
  endfacet
  facet normal -6.048842e-01 -5.878070e-01 5.372132e-01
    outer loop
      vertex   -4.541160e+00 -1.015863e+01 4.047758e+00
      vertex   -4.571150e+00 -1.017142e+01 4.000000e+00
      vertex   -4.501276e+00 -1.019968e+01 4.047758e+00
    endloop
  endfacet
  facet normal -6.045004e-01 -5.897714e-01 5.354895e-01
    outer loop
      vertex   -4.501276e+00 -1.019968e+01 4.047758e+00
      vertex   -4.571150e+00 -1.017142e+01 4.000000e+00
      vertex   -4.530610e+00 -1.021297e+01 4.000000e+00
    endloop
  endfacet
  facet normal -5.944789e-01 -6.022536e-01 5.328090e-01
    outer loop
      vertex   -4.501276e+00 -1.019968e+01 4.047758e+00
      vertex   -4.530610e+00 -1.021297e+01 4.000000e+00
      vertex   -4.459962e+00 -1.024046e+01 4.047758e+00
    endloop
  endfacet
  facet normal -5.940471e-01 -6.042605e-01 5.310153e-01
    outer loop
      vertex   -4.459962e+00 -1.024046e+01 4.047758e+00
      vertex   -4.530610e+00 -1.021297e+01 4.000000e+00
      vertex   -4.488749e+00 -1.025413e+01 4.000000e+00
    endloop
  endfacet
  facet normal -5.839841e-01 -6.162576e-01 5.283835e-01
    outer loop
      vertex   -4.459962e+00 -1.024046e+01 4.047758e+00
      vertex   -4.488749e+00 -1.025413e+01 4.000000e+00
      vertex   -4.417227e+00 -1.028095e+01 4.047758e+00
    endloop
  endfacet
  facet normal -5.835200e-01 -6.182442e-01 5.265724e-01
    outer loop
      vertex   -4.417227e+00 -1.028095e+01 4.047758e+00
      vertex   -4.488749e+00 -1.025413e+01 4.000000e+00
      vertex   -4.445578e+00 -1.029487e+01 4.000000e+00
    endloop
  endfacet
  facet normal -5.734138e-01 -6.298223e-01 5.239470e-01
    outer loop
      vertex   -4.417227e+00 -1.028095e+01 4.047758e+00
      vertex   -4.445578e+00 -1.029487e+01 4.000000e+00
      vertex   -4.373080e+00 -1.032115e+01 4.047758e+00
    endloop
  endfacet
  facet normal -5.729341e-01 -6.317343e-01 5.221669e-01
    outer loop
      vertex   -4.373080e+00 -1.032115e+01 4.047758e+00
      vertex   -4.445578e+00 -1.029487e+01 4.000000e+00
      vertex   -4.401110e+00 -1.033520e+01 4.000000e+00
    endloop
  endfacet
  facet normal -5.627811e-01 -6.429525e-01 5.195089e-01
    outer loop
      vertex   -4.373080e+00 -1.032115e+01 4.047758e+00
      vertex   -4.401110e+00 -1.033520e+01 4.000000e+00
      vertex   -4.327530e+00 -1.036102e+01 4.047758e+00
    endloop
  endfacet
  facet normal -5.623032e-01 -6.447428e-01 5.178048e-01
    outer loop
      vertex   -4.327530e+00 -1.036102e+01 4.047758e+00
      vertex   -4.401110e+00 -1.033520e+01 4.000000e+00
      vertex   -4.355355e+00 -1.037510e+01 4.000000e+00
    endloop
  endfacet
  facet normal -5.520988e-01 -6.556535e-01 5.150780e-01
    outer loop
      vertex   -4.327530e+00 -1.036102e+01 4.047758e+00
      vertex   -4.355355e+00 -1.037510e+01 4.000000e+00
      vertex   -4.280591e+00 -1.040054e+01 4.047758e+00
    endloop
  endfacet
  facet normal -5.516397e-01 -6.572822e-01 5.134917e-01
    outer loop
      vertex   -4.280591e+00 -1.040054e+01 4.047758e+00
      vertex   -4.355355e+00 -1.037510e+01 4.000000e+00
      vertex   -4.308325e+00 -1.041458e+01 4.000000e+00
    endloop
  endfacet
  facet normal -5.413790e-01 -6.679317e-01 5.106624e-01
    outer loop
      vertex   -4.280591e+00 -1.040054e+01 4.047758e+00
      vertex   -4.308325e+00 -1.041458e+01 4.000000e+00
      vertex   -4.232275e+00 -1.043970e+01 4.047758e+00
    endloop
  endfacet
  facet normal -5.409549e-01 -6.693651e-01 5.092328e-01
    outer loop
      vertex   -4.232275e+00 -1.043970e+01 4.047758e+00
      vertex   -4.308325e+00 -1.041458e+01 4.000000e+00
      vertex   -4.260031e+00 -1.045360e+01 4.000000e+00
    endloop
  endfacet
  facet normal -5.306330e-01 -6.797940e-01 5.062695e-01
    outer loop
      vertex   -4.232275e+00 -1.043970e+01 4.047758e+00
      vertex   -4.260031e+00 -1.045360e+01 4.000000e+00
      vertex   -4.182598e+00 -1.047848e+01 4.047758e+00
    endloop
  endfacet
  facet normal -5.302592e-01 -6.810044e-01 5.050328e-01
    outer loop
      vertex   -4.182598e+00 -1.047848e+01 4.047758e+00
      vertex   -4.260031e+00 -1.045360e+01 4.000000e+00
      vertex   -4.210485e+00 -1.049218e+01 4.000000e+00
    endloop
  endfacet
  facet normal -5.198715e-01 -6.912479e-01 5.019063e-01
    outer loop
      vertex   -4.182598e+00 -1.047848e+01 4.047758e+00
      vertex   -4.210485e+00 -1.049218e+01 4.000000e+00
      vertex   -4.131574e+00 -1.051685e+01 4.047758e+00
    endloop
  endfacet
  facet normal -5.195618e-01 -6.922131e-01 5.008959e-01
    outer loop
      vertex   -4.131574e+00 -1.051685e+01 4.047758e+00
      vertex   -4.210485e+00 -1.049218e+01 4.000000e+00
      vertex   -4.159697e+00 -1.053030e+01 4.000000e+00
    endloop
  endfacet
  facet normal -5.091045e-01 -7.023017e-01 4.975791e-01
    outer loop
      vertex   -4.131574e+00 -1.051685e+01 4.047758e+00
      vertex   -4.159697e+00 -1.053030e+01 4.000000e+00
      vertex   -4.079222e+00 -1.055481e+01 4.047758e+00
    endloop
  endfacet
  facet normal -5.088711e-01 -7.030040e-01 4.968255e-01
    outer loop
      vertex   -4.079222e+00 -1.055481e+01 4.047758e+00
      vertex   -4.159697e+00 -1.053030e+01 4.000000e+00
      vertex   -4.107680e+00 -1.056796e+01 4.000000e+00
    endloop
  endfacet
  facet normal -4.983413e-01 -7.129636e-01 4.932939e-01
    outer loop
      vertex   -4.079222e+00 -1.055481e+01 4.047758e+00
      vertex   -4.107680e+00 -1.056796e+01 4.000000e+00
      vertex   -4.025560e+00 -1.059231e+01 4.047758e+00
    endloop
  endfacet
  facet normal -4.981950e-01 -7.133903e-01 4.928246e-01
    outer loop
      vertex   -4.025560e+00 -1.059231e+01 4.047758e+00
      vertex   -4.107680e+00 -1.056796e+01 4.000000e+00
      vertex   -4.054443e+00 -1.060513e+01 4.000000e+00
    endloop
  endfacet
  facet normal -4.903032e-01 -7.207472e-01 4.900269e-01
    outer loop
      vertex   -4.025560e+00 -1.059231e+01 4.047758e+00
      vertex   -4.054443e+00 -1.060513e+01 4.000000e+00
      vertex   -4.000000e+00 -1.060773e+01 4.050653e+00
    endloop
  endfacet
  facet normal -4.880103e-01 -7.240826e-01 4.873914e-01
    outer loop
      vertex   -4.000000e+00 -1.060773e+01 4.050653e+00
      vertex   -4.054443e+00 -1.060513e+01 4.000000e+00
      vertex   -4.000000e+00 -1.064183e+01 4.000000e+00
    endloop
  endfacet
  facet normal -4.885229e-01 -7.162331e-01 4.983528e-01
    outer loop
      vertex   -4.000000e+00 -1.060773e+01 4.050653e+00
      vertex   -4.000000e+00 -1.057289e+01 4.100729e+00
      vertex   -4.025560e+00 -1.059231e+01 4.047758e+00
    endloop
  endfacet
  facet normal -4.962229e-01 -7.099328e-01 4.997581e-01
    outer loop
      vertex   -4.025560e+00 -1.059231e+01 4.047758e+00
      vertex   -4.000000e+00 -1.057289e+01 4.100729e+00
      vertex   -4.079222e+00 -1.055481e+01 4.047758e+00
    endloop
  endfacet
  facet normal -4.965095e-01 -7.092710e-01 5.004127e-01
    outer loop
      vertex   -4.079222e+00 -1.055481e+01 4.047758e+00
      vertex   -4.000000e+00 -1.057289e+01 4.100729e+00
      vertex   -4.048654e+00 -1.054274e+01 4.095186e+00
    endloop
  endfacet
  facet normal -4.948671e-01 -7.052983e-01 5.076031e-01
    outer loop
      vertex   -4.048654e+00 -1.054274e+01 4.095186e+00
      vertex   -4.000000e+00 -1.057289e+01 4.100729e+00
      vertex   -4.000000e+00 -1.053729e+01 4.150189e+00
    endloop
  endfacet
  facet normal -4.957297e-01 -7.042191e-01 5.082593e-01
    outer loop
      vertex   -4.048654e+00 -1.054274e+01 4.095186e+00
      vertex   -4.000000e+00 -1.053729e+01 4.150189e+00
      vertex   -4.017715e+00 -1.053053e+01 4.142279e+00
    endloop
  endfacet
  facet normal -4.970561e-01 -6.958642e-01 5.183707e-01
    outer loop
      vertex   -4.017715e+00 -1.053053e+01 4.142279e+00
      vertex   -4.000000e+00 -1.053729e+01 4.150189e+00
      vertex   -4.000000e+00 -1.050094e+01 4.198991e+00
    endloop
  endfacet
  facet normal -5.019871e-01 -6.924832e-01 5.181467e-01
    outer loop
      vertex   -4.017715e+00 -1.053053e+01 4.142279e+00
      vertex   -4.000000e+00 -1.050094e+01 4.198991e+00
      vertex   -4.069278e+00 -1.049315e+01 4.142279e+00
    endloop
  endfacet
  facet normal -5.027676e-01 -6.910544e-01 5.192963e-01
    outer loop
      vertex   -4.069278e+00 -1.049315e+01 4.142279e+00
      vertex   -4.000000e+00 -1.050094e+01 4.198991e+00
      vertex   -4.037571e+00 -1.048109e+01 4.189029e+00
    endloop
  endfacet
  facet normal -5.122461e-01 -6.811087e-01 5.231585e-01
    outer loop
      vertex   -4.069278e+00 -1.049315e+01 4.142279e+00
      vertex   -4.037571e+00 -1.048109e+01 4.189029e+00
      vertex   -4.119532e+00 -1.045536e+01 4.142279e+00
    endloop
  endfacet
  facet normal -5.122461e-01 -6.811087e-01 5.231585e-01
    outer loop
      vertex   -4.119532e+00 -1.045536e+01 4.142279e+00
      vertex   -4.037571e+00 -1.048109e+01 4.189029e+00
      vertex   -4.087434e+00 -1.044359e+01 4.189029e+00
    endloop
  endfacet
  facet normal -5.227467e-01 -6.696909e-01 5.274940e-01
    outer loop
      vertex   -4.119532e+00 -1.045536e+01 4.142279e+00
      vertex   -4.087434e+00 -1.044359e+01 4.189029e+00
      vertex   -4.168461e+00 -1.041717e+01 4.142279e+00
    endloop
  endfacet
  facet normal -5.227467e-01 -6.696909e-01 5.274940e-01
    outer loop
      vertex   -4.168461e+00 -1.041717e+01 4.142279e+00
      vertex   -4.087434e+00 -1.044359e+01 4.189029e+00
      vertex   -4.135981e+00 -1.040570e+01 4.189029e+00
    endloop
  endfacet
  facet normal -5.332214e-01 -6.578671e-01 5.318701e-01
    outer loop
      vertex   -4.168461e+00 -1.041717e+01 4.142279e+00
      vertex   -4.135981e+00 -1.040570e+01 4.189029e+00
      vertex   -4.216048e+00 -1.037860e+01 4.142279e+00
    endloop
  endfacet
  facet normal -5.332214e-01 -6.578671e-01 5.318701e-01
    outer loop
      vertex   -4.216048e+00 -1.037860e+01 4.142279e+00
      vertex   -4.135981e+00 -1.040570e+01 4.189029e+00
      vertex   -4.183198e+00 -1.036743e+01 4.189029e+00
    endloop
  endfacet
  facet normal -5.436587e-01 -6.456303e-01 5.362804e-01
    outer loop
      vertex   -4.216048e+00 -1.037860e+01 4.142279e+00
      vertex   -4.183198e+00 -1.036743e+01 4.189029e+00
      vertex   -4.262279e+00 -1.033967e+01 4.142279e+00
    endloop
  endfacet
  facet normal -5.436587e-01 -6.456303e-01 5.362804e-01
    outer loop
      vertex   -4.262279e+00 -1.033967e+01 4.142279e+00
      vertex   -4.183198e+00 -1.036743e+01 4.189029e+00
      vertex   -4.229069e+00 -1.032880e+01 4.189029e+00
    endloop
  endfacet
  facet normal -5.540468e-01 -6.329740e-01 5.407181e-01
    outer loop
      vertex   -4.262279e+00 -1.033967e+01 4.142279e+00
      vertex   -4.229069e+00 -1.032880e+01 4.189029e+00
      vertex   -4.307142e+00 -1.030040e+01 4.142279e+00
    endloop
  endfacet
  facet normal -5.540468e-01 -6.329740e-01 5.407181e-01
    outer loop
      vertex   -4.307142e+00 -1.030040e+01 4.142279e+00
      vertex   -4.229069e+00 -1.032880e+01 4.189029e+00
      vertex   -4.273582e+00 -1.028984e+01 4.189029e+00
    endloop
  endfacet
  facet normal -5.643731e-01 -6.198923e-01 5.451757e-01
    outer loop
      vertex   -4.307142e+00 -1.030040e+01 4.142279e+00
      vertex   -4.273582e+00 -1.028984e+01 4.189029e+00
      vertex   -4.350624e+00 -1.026081e+01 4.142279e+00
    endloop
  endfacet
  facet normal -5.643731e-01 -6.198923e-01 5.451757e-01
    outer loop
      vertex   -4.350624e+00 -1.026081e+01 4.142279e+00
      vertex   -4.273582e+00 -1.028984e+01 4.189029e+00
      vertex   -4.316725e+00 -1.025056e+01 4.189029e+00
    endloop
  endfacet
  facet normal -5.746240e-01 -6.063802e-01 5.496456e-01
    outer loop
      vertex   -4.350624e+00 -1.026081e+01 4.142279e+00
      vertex   -4.316725e+00 -1.025056e+01 4.189029e+00
      vertex   -4.392714e+00 -1.022092e+01 4.142279e+00
    endloop
  endfacet
  facet normal -5.746240e-01 -6.063802e-01 5.496456e-01
    outer loop
      vertex   -4.392714e+00 -1.022092e+01 4.142279e+00
      vertex   -4.316725e+00 -1.025056e+01 4.189029e+00
      vertex   -4.358488e+00 -1.021098e+01 4.189029e+00
    endloop
  endfacet
  facet normal -5.847856e-01 -5.924336e-01 5.541193e-01
    outer loop
      vertex   -4.392714e+00 -1.022092e+01 4.142279e+00
      vertex   -4.358488e+00 -1.021098e+01 4.189029e+00
      vertex   -4.433405e+00 -1.018076e+01 4.142279e+00
    endloop
  endfacet
  facet normal -5.847856e-01 -5.924336e-01 5.541193e-01
    outer loop
      vertex   -4.433405e+00 -1.018076e+01 4.142279e+00
      vertex   -4.358488e+00 -1.021098e+01 4.189029e+00
      vertex   -4.398861e+00 -1.017113e+01 4.189029e+00
    endloop
  endfacet
  facet normal -5.948430e-01 -5.780494e-01 5.585882e-01
    outer loop
      vertex   -4.433405e+00 -1.018076e+01 4.142279e+00
      vertex   -4.398861e+00 -1.017113e+01 4.189029e+00
      vertex   -4.472687e+00 -1.014033e+01 4.142279e+00
    endloop
  endfacet
  facet normal -5.948430e-01 -5.780494e-01 5.585882e-01
    outer loop
      vertex   -4.472687e+00 -1.014033e+01 4.142279e+00
      vertex   -4.398861e+00 -1.017113e+01 4.189029e+00
      vertex   -4.437838e+00 -1.013102e+01 4.189029e+00
    endloop
  endfacet
  facet normal -6.047808e-01 -5.632253e-01 5.630430e-01
    outer loop
      vertex   -4.472687e+00 -1.014033e+01 4.142279e+00
      vertex   -4.437838e+00 -1.013102e+01 4.189029e+00
      vertex   -4.510556e+00 -1.009967e+01 4.142279e+00
    endloop
  endfacet
  facet normal -6.047808e-01 -5.632253e-01 5.630430e-01
    outer loop
      vertex   -4.510556e+00 -1.009967e+01 4.142279e+00
      vertex   -4.437838e+00 -1.013102e+01 4.189029e+00
      vertex   -4.475411e+00 -1.009068e+01 4.189029e+00
    endloop
  endfacet
  facet normal -6.145829e-01 -5.479607e-01 5.674742e-01
    outer loop
      vertex   -4.510556e+00 -1.009967e+01 4.142279e+00
      vertex   -4.475411e+00 -1.009068e+01 4.189029e+00
      vertex   -4.547004e+00 -1.005879e+01 4.142279e+00
    endloop
  endfacet
  facet normal -6.145829e-01 -5.479607e-01 5.674742e-01
    outer loop
      vertex   -4.547004e+00 -1.005879e+01 4.142279e+00
      vertex   -4.475411e+00 -1.009068e+01 4.189029e+00
      vertex   -4.511576e+00 -1.005011e+01 4.189029e+00
    endloop
  endfacet
  facet normal -6.242326e-01 -5.322559e-01 5.718718e-01
    outer loop
      vertex   -4.547004e+00 -1.005879e+01 4.142279e+00
      vertex   -4.511576e+00 -1.005011e+01 4.189029e+00
      vertex   -4.582030e+00 -1.001771e+01 4.142279e+00
    endloop
  endfacet
  facet normal -5.019815e-01 -6.855599e-01 5.272781e-01
    outer loop
      vertex   -4.037571e+00 -1.048109e+01 4.189029e+00
      vertex   -4.000000e+00 -1.050094e+01 4.198991e+00
      vertex   -4.005497e+00 -1.046889e+01 4.235429e+00
    endloop
  endfacet
  facet normal -4.930019e-01 -6.888128e-01 5.314941e-01
    outer loop
      vertex   -4.005497e+00 -1.046889e+01 4.235429e+00
      vertex   -4.000000e+00 -1.050094e+01 4.198991e+00
      vertex   -4.000000e+00 -1.046382e+01 4.247094e+00
    endloop
  endfacet
  facet normal -5.084701e-01 -6.760880e-01 5.332571e-01
    outer loop
      vertex   -4.005497e+00 -1.046889e+01 4.235429e+00
      vertex   -4.000000e+00 -1.046382e+01 4.247094e+00
      vertex   -4.054964e+00 -1.043169e+01 4.235429e+00
    endloop
  endfacet
  facet normal -5.076091e-01 -6.728303e-01 5.381751e-01
    outer loop
      vertex   -4.054964e+00 -1.043169e+01 4.235429e+00
      vertex   -4.000000e+00 -1.046382e+01 4.247094e+00
      vertex   -4.000000e+00 -1.042594e+01 4.294458e+00
    endloop
  endfacet
  facet normal -5.070840e-01 -6.735600e-01 5.377571e-01
    outer loop
      vertex   -4.054964e+00 -1.043169e+01 4.235429e+00
      vertex   -4.000000e+00 -1.042594e+01 4.294458e+00
      vertex   -4.022126e+00 -1.041965e+01 4.281474e+00
    endloop
  endfacet
  facet normal -5.104130e-01 -6.617462e-01 5.491544e-01
    outer loop
      vertex   -4.022126e+00 -1.041965e+01 4.281474e+00
      vertex   -4.000000e+00 -1.042594e+01 4.294458e+00
      vertex   -4.000000e+00 -1.038728e+01 4.341040e+00
    endloop
  endfacet
  facet normal -5.142862e-01 -6.588521e-01 5.490206e-01
    outer loop
      vertex   -4.022126e+00 -1.041965e+01 4.281474e+00
      vertex   -4.000000e+00 -1.038728e+01 4.341040e+00
      vertex   -4.069898e+00 -1.038236e+01 4.281474e+00
    endloop
  endfacet
  facet normal -5.145851e-01 -6.582872e-01 5.494180e-01
    outer loop
      vertex   -4.069898e+00 -1.038236e+01 4.281474e+00
      vertex   -4.000000e+00 -1.038728e+01 4.341040e+00
      vertex   -4.036302e+00 -1.037049e+01 4.327156e+00
    endloop
  endfacet
  facet normal -5.243561e-01 -6.469296e-01 5.536540e-01
    outer loop
      vertex   -4.069898e+00 -1.038236e+01 4.281474e+00
      vertex   -4.036302e+00 -1.037049e+01 4.327156e+00
      vertex   -4.116360e+00 -1.034470e+01 4.281474e+00
    endloop
  endfacet
  facet normal -5.243561e-01 -6.469296e-01 5.536540e-01
    outer loop
      vertex   -4.116360e+00 -1.034470e+01 4.281474e+00
      vertex   -4.036302e+00 -1.037049e+01 4.327156e+00
      vertex   -4.082380e+00 -1.033314e+01 4.327156e+00
    endloop
  endfacet
  facet normal -5.344732e-01 -6.347220e-01 5.580918e-01
    outer loop
      vertex   -4.116360e+00 -1.034470e+01 4.281474e+00
      vertex   -4.082380e+00 -1.033314e+01 4.327156e+00
      vertex   -4.161498e+00 -1.030669e+01 4.281474e+00
    endloop
  endfacet
  facet normal -5.344732e-01 -6.347220e-01 5.580918e-01
    outer loop
      vertex   -4.161498e+00 -1.030669e+01 4.281474e+00
      vertex   -4.082380e+00 -1.033314e+01 4.327156e+00
      vertex   -4.127146e+00 -1.029545e+01 4.327156e+00
    endloop
  endfacet
  facet normal -5.445343e-01 -6.221063e-01 5.625533e-01
    outer loop
      vertex   -4.161498e+00 -1.030669e+01 4.281474e+00
      vertex   -4.127146e+00 -1.029545e+01 4.327156e+00
      vertex   -4.205300e+00 -1.026835e+01 4.281474e+00
    endloop
  endfacet
  facet normal -5.445343e-01 -6.221063e-01 5.625533e-01
    outer loop
      vertex   -4.205300e+00 -1.026835e+01 4.281474e+00
      vertex   -4.127146e+00 -1.029545e+01 4.327156e+00
      vertex   -4.170586e+00 -1.025742e+01 4.327156e+00
    endloop
  endfacet
  facet normal -5.545270e-01 -6.090776e-01 5.670312e-01
    outer loop
      vertex   -4.205300e+00 -1.026835e+01 4.281474e+00
      vertex   -4.170586e+00 -1.025742e+01 4.327156e+00
      vertex   -4.247754e+00 -1.022970e+01 4.281474e+00
    endloop
  endfacet
  facet normal -5.545270e-01 -6.090776e-01 5.670312e-01
    outer loop
      vertex   -4.247754e+00 -1.022970e+01 4.281474e+00
      vertex   -4.170586e+00 -1.025742e+01 4.327156e+00
      vertex   -4.212689e+00 -1.021909e+01 4.327156e+00
    endloop
  endfacet
  facet normal -5.644384e-01 -5.956317e-01 5.715175e-01
    outer loop
      vertex   -4.247754e+00 -1.022970e+01 4.281474e+00
      vertex   -4.212689e+00 -1.021909e+01 4.327156e+00
      vertex   -4.288849e+00 -1.019075e+01 4.281474e+00
    endloop
  endfacet
  facet normal -5.644384e-01 -5.956317e-01 5.715175e-01
    outer loop
      vertex   -4.288849e+00 -1.019075e+01 4.281474e+00
      vertex   -4.212689e+00 -1.021909e+01 4.327156e+00
      vertex   -4.253446e+00 -1.018047e+01 4.327156e+00
    endloop
  endfacet
  facet normal -5.742550e-01 -5.817653e-01 5.760038e-01
    outer loop
      vertex   -4.288849e+00 -1.019075e+01 4.281474e+00
      vertex   -4.253446e+00 -1.018047e+01 4.327156e+00
      vertex   -4.328578e+00 -1.015154e+01 4.281474e+00
    endloop
  endfacet
  facet normal -5.742550e-01 -5.817653e-01 5.760038e-01
    outer loop
      vertex   -4.328578e+00 -1.015154e+01 4.281474e+00
      vertex   -4.253446e+00 -1.018047e+01 4.327156e+00
      vertex   -4.292846e+00 -1.014158e+01 4.327156e+00
    endloop
  endfacet
  facet normal -5.839625e-01 -5.674760e-01 5.804815e-01
    outer loop
      vertex   -4.328578e+00 -1.015154e+01 4.281474e+00
      vertex   -4.292846e+00 -1.014158e+01 4.327156e+00
      vertex   -4.366931e+00 -1.011207e+01 4.281474e+00
    endloop
  endfacet
  facet normal -5.145308e-01 -6.511126e-01 5.579520e-01
    outer loop
      vertex   -4.036302e+00 -1.037049e+01 4.327156e+00
      vertex   -4.000000e+00 -1.038728e+01 4.341040e+00
      vertex   -4.002341e+00 -1.035850e+01 4.372470e+00
    endloop
  endfacet
  facet normal -4.816289e-01 -6.638817e-01 5.720968e-01
    outer loop
      vertex   -4.002341e+00 -1.035850e+01 4.372470e+00
      vertex   -4.000000e+00 -1.038728e+01 4.341040e+00
      vertex   -4.000000e+00 -1.034785e+01 4.386801e+00
    endloop
  endfacet
  facet normal -5.206301e-01 -6.423325e-01 5.624528e-01
    outer loop
      vertex   -4.002341e+00 -1.035850e+01 4.372470e+00
      vertex   -4.000000e+00 -1.034785e+01 4.386801e+00
      vertex   -4.048032e+00 -1.032146e+01 4.372470e+00
    endloop
  endfacet
  facet normal -5.197959e-01 -6.373133e-01 5.688971e-01
    outer loop
      vertex   -4.048032e+00 -1.032146e+01 4.372470e+00
      vertex   -4.000000e+00 -1.034785e+01 4.386801e+00
      vertex   -4.013320e+00 -1.030966e+01 4.417409e+00
    endloop
  endfacet
  facet normal -5.280655e-01 -6.271123e-01 5.726055e-01
    outer loop
      vertex   -4.048032e+00 -1.032146e+01 4.372470e+00
      vertex   -4.013320e+00 -1.030966e+01 4.417409e+00
      vertex   -4.092421e+00 -1.028409e+01 4.372470e+00
    endloop
  endfacet
  facet normal -5.280655e-01 -6.271123e-01 5.726055e-01
    outer loop
      vertex   -4.092421e+00 -1.028409e+01 4.372470e+00
      vertex   -4.013320e+00 -1.030966e+01 4.417409e+00
      vertex   -4.057328e+00 -1.027260e+01 4.417409e+00
    endloop
  endfacet
  facet normal -5.379030e-01 -6.145303e-01 5.770727e-01
    outer loop
      vertex   -4.092421e+00 -1.028409e+01 4.372470e+00
      vertex   -4.057328e+00 -1.027260e+01 4.417409e+00
      vertex   -4.135496e+00 -1.024638e+01 4.372470e+00
    endloop
  endfacet
  facet normal -5.379030e-01 -6.145303e-01 5.770727e-01
    outer loop
      vertex   -4.135496e+00 -1.024638e+01 4.372470e+00
      vertex   -4.057328e+00 -1.027260e+01 4.417409e+00
      vertex   -4.100034e+00 -1.023522e+01 4.417409e+00
    endloop
  endfacet
  facet normal -5.476680e-01 -6.015439e-01 5.815536e-01
    outer loop
      vertex   -4.135496e+00 -1.024638e+01 4.372470e+00
      vertex   -4.100034e+00 -1.023522e+01 4.417409e+00
      vertex   -4.177245e+00 -1.020837e+01 4.372470e+00
    endloop
  endfacet
  facet normal -5.476680e-01 -6.015439e-01 5.815536e-01
    outer loop
      vertex   -4.177245e+00 -1.020837e+01 4.372470e+00
      vertex   -4.100034e+00 -1.023522e+01 4.417409e+00
      vertex   -4.141425e+00 -1.019754e+01 4.417409e+00
    endloop
  endfacet
  facet normal -5.573481e-01 -5.881495e-01 5.860404e-01
    outer loop
      vertex   -4.177245e+00 -1.020837e+01 4.372470e+00
      vertex   -4.141425e+00 -1.019754e+01 4.417409e+00
      vertex   -4.217658e+00 -1.017008e+01 4.372470e+00
    endloop
  endfacet
  facet normal -5.158927e-01 -6.380936e-01 5.715692e-01
    outer loop
      vertex   -4.000000e+00 -1.034785e+01 4.386801e+00
      vertex   -4.000000e+00 -1.030761e+01 4.431719e+00
      vertex   -4.013320e+00 -1.030966e+01 4.417409e+00
    endloop
  endfacet
  facet normal -5.254280e-01 -6.239802e-01 5.784238e-01
    outer loop
      vertex   -4.013320e+00 -1.030966e+01 4.417409e+00
      vertex   -4.000000e+00 -1.030761e+01 4.431719e+00
      vertex   -4.057328e+00 -1.027260e+01 4.417409e+00
    endloop
  endfacet
  facet normal -5.250253e-01 -6.225368e-01 5.803416e-01
    outer loop
      vertex   -4.000000e+00 -1.030761e+01 4.431719e+00
      vertex   -4.000000e+00 -1.026646e+01 4.475862e+00
      vertex   -4.057328e+00 -1.027260e+01 4.417409e+00
    endloop
  endfacet
  facet normal -5.239506e-01 -6.242537e-01 5.794680e-01
    outer loop
      vertex   -4.057328e+00 -1.027260e+01 4.417409e+00
      vertex   -4.000000e+00 -1.026646e+01 4.475862e+00
      vertex   -4.021872e+00 -1.026100e+01 4.461967e+00
    endloop
  endfacet
  facet normal -5.344992e-01 -6.106417e-01 5.843177e-01
    outer loop
      vertex   -4.057328e+00 -1.027260e+01 4.417409e+00
      vertex   -4.021872e+00 -1.026100e+01 4.461967e+00
      vertex   -4.100034e+00 -1.023522e+01 4.417409e+00
    endloop
  endfacet
  facet normal -5.344992e-01 -6.106417e-01 5.843177e-01
    outer loop
      vertex   -4.100034e+00 -1.023522e+01 4.417409e+00
      vertex   -4.021872e+00 -1.026100e+01 4.461967e+00
      vertex   -4.064204e+00 -1.022395e+01 4.461967e+00
    endloop
  endfacet
  facet normal -5.441490e-01 -5.976787e-01 5.887971e-01
    outer loop
      vertex   -4.100034e+00 -1.023522e+01 4.417409e+00
      vertex   -4.064204e+00 -1.022395e+01 4.461967e+00
      vertex   -4.141425e+00 -1.019754e+01 4.417409e+00
    endloop
  endfacet
  facet normal -5.279891e-01 -6.091295e-01 5.917675e-01
    outer loop
      vertex   -4.000000e+00 -1.026646e+01 4.475862e+00
      vertex   -4.000000e+00 -1.022438e+01 4.519180e+00
      vertex   -4.021872e+00 -1.026100e+01 4.461967e+00
    endloop
  endfacet
  facet normal -5.310940e-01 -6.067513e-01 5.914322e-01
    outer loop
      vertex   -4.021872e+00 -1.026100e+01 4.461967e+00
      vertex   -4.000000e+00 -1.022438e+01 4.519180e+00
      vertex   -4.064204e+00 -1.022395e+01 4.461967e+00
    endloop
  endfacet
  facet normal -5.360169e-01 -5.793316e-01 6.140528e-01
    outer loop
      vertex   -4.000000e+00 -1.013742e+01 4.603066e+00
      vertex   -4.031756e+00 -1.016437e+01 4.549915e+00
      vertex   -4.000000e+00 -1.018136e+01 4.561605e+00
    endloop
  endfacet
  facet normal -5.373631e-01 -5.891403e-01 6.034522e-01
    outer loop
      vertex   -4.000000e+00 -1.018136e+01 4.561605e+00
      vertex   -4.031756e+00 -1.016437e+01 4.549915e+00
      vertex   -4.068676e+00 -1.017554e+01 4.506137e+00
    endloop
  endfacet
  facet normal -5.370565e-01 -5.898885e-01 6.029941e-01
    outer loop
      vertex   -4.000000e+00 -1.018136e+01 4.561605e+00
      vertex   -4.068676e+00 -1.017554e+01 4.506137e+00
      vertex   -4.028012e+00 -1.021256e+01 4.506137e+00
    endloop
  endfacet
  facet normal -5.405698e-01 -5.937474e-01 5.960271e-01
    outer loop
      vertex   -4.028012e+00 -1.021256e+01 4.506137e+00
      vertex   -4.068676e+00 -1.017554e+01 4.506137e+00
      vertex   -4.105233e+00 -1.018659e+01 4.461967e+00
    endloop
  endfacet
  facet normal -5.404429e-01 -5.631646e-01 6.251137e-01
    outer loop
      vertex   -4.000000e+00 -1.009254e+01 4.643495e+00
      vertex   -4.033124e+00 -1.011648e+01 4.593294e+00
      vertex   -4.000000e+00 -1.013742e+01 4.603066e+00
    endloop
  endfacet
  facet normal -5.429060e-01 -5.717169e-01 6.151364e-01
    outer loop
      vertex   -4.000000e+00 -1.013742e+01 4.603066e+00
      vertex   -4.033124e+00 -1.011648e+01 4.593294e+00
      vertex   -4.070761e+00 -1.012741e+01 4.549915e+00
    endloop
  endfacet
  facet normal -5.426107e-01 -5.725977e-01 6.145774e-01
    outer loop
      vertex   -4.000000e+00 -1.013742e+01 4.603066e+00
      vertex   -4.070761e+00 -1.012741e+01 4.549915e+00
      vertex   -4.031756e+00 -1.016437e+01 4.549915e+00
    endloop
  endfacet
  facet normal -5.462560e-01 -5.764445e-01 6.077138e-01
    outer loop
      vertex   -4.031756e+00 -1.016437e+01 4.549915e+00
      vertex   -4.070761e+00 -1.012741e+01 4.549915e+00
      vertex   -4.108038e+00 -1.013824e+01 4.506137e+00
    endloop
  endfacet
  facet normal -5.462560e-01 -5.764445e-01 6.077138e-01
    outer loop
      vertex   -4.031756e+00 -1.016437e+01 4.549915e+00
      vertex   -4.108038e+00 -1.013824e+01 4.506137e+00
      vertex   -4.068676e+00 -1.017554e+01 4.506137e+00
    endloop
  endfacet
  facet normal -5.500147e-01 -5.804108e-01 6.005058e-01
    outer loop
      vertex   -4.068676e+00 -1.017554e+01 4.506137e+00
      vertex   -4.108038e+00 -1.013824e+01 4.506137e+00
      vertex   -4.144950e+00 -1.014896e+01 4.461967e+00
    endloop
  endfacet
  facet normal -5.500147e-01 -5.804108e-01 6.005058e-01
    outer loop
      vertex   -4.068676e+00 -1.017554e+01 4.506137e+00
      vertex   -4.144950e+00 -1.014896e+01 4.461967e+00
      vertex   -4.105233e+00 -1.018659e+01 4.461967e+00
    endloop
  endfacet
  facet normal -5.537119e-01 -5.843124e-01 5.932809e-01
    outer loop
      vertex   -4.105233e+00 -1.018659e+01 4.461967e+00
      vertex   -4.144950e+00 -1.014896e+01 4.461967e+00
      vertex   -4.181492e+00 -1.015957e+01 4.417409e+00
    endloop
  endfacet
  facet normal -5.447341e-01 -5.462849e-01 6.362685e-01
    outer loop
      vertex   -4.000000e+00 -1.004673e+01 4.682823e+00
      vertex   -4.032138e+00 -1.006891e+01 4.636268e+00
      vertex   -4.000000e+00 -1.009254e+01 4.643495e+00
    endloop
  endfacet
  facet normal -5.481189e-01 -5.537814e-01 6.268108e-01
    outer loop
      vertex   -4.000000e+00 -1.009254e+01 4.643495e+00
      vertex   -4.032138e+00 -1.006891e+01 4.636268e+00
      vertex   -4.070483e+00 -1.007960e+01 4.593294e+00
    endloop
  endfacet
  facet normal -5.477948e-01 -5.549590e-01 6.260522e-01
    outer loop
      vertex   -4.000000e+00 -1.009254e+01 4.643495e+00
      vertex   -4.070483e+00 -1.007960e+01 4.593294e+00
      vertex   -4.033124e+00 -1.011648e+01 4.593294e+00
    endloop
  endfacet
  facet normal -5.515375e-01 -5.587507e-01 6.193578e-01
    outer loop
      vertex   -4.033124e+00 -1.011648e+01 4.593294e+00
      vertex   -4.070483e+00 -1.007960e+01 4.593294e+00
      vertex   -4.108470e+00 -1.009019e+01 4.549915e+00
    endloop
  endfacet
  facet normal -5.515375e-01 -5.587507e-01 6.193578e-01
    outer loop
      vertex   -4.033124e+00 -1.011648e+01 4.593294e+00
      vertex   -4.108470e+00 -1.009019e+01 4.549915e+00
      vertex   -4.070761e+00 -1.012741e+01 4.549915e+00
    endloop
  endfacet
  facet normal -5.554790e-01 -5.627437e-01 6.121786e-01
    outer loop
      vertex   -4.070761e+00 -1.012741e+01 4.549915e+00
      vertex   -4.108470e+00 -1.009019e+01 4.549915e+00
      vertex   -4.146092e+00 -1.010067e+01 4.506137e+00
    endloop
  endfacet
  facet normal -5.554790e-01 -5.627437e-01 6.121786e-01
    outer loop
      vertex   -4.070761e+00 -1.012741e+01 4.549915e+00
      vertex   -4.146092e+00 -1.010067e+01 4.506137e+00
      vertex   -4.108038e+00 -1.013824e+01 4.506137e+00
    endloop
  endfacet
  facet normal -5.593580e-01 -5.666735e-01 6.049792e-01
    outer loop
      vertex   -4.108038e+00 -1.013824e+01 4.506137e+00
      vertex   -4.146092e+00 -1.010067e+01 4.506137e+00
      vertex   -4.183345e+00 -1.011106e+01 4.461967e+00
    endloop
  endfacet
  facet normal -5.593580e-01 -5.666735e-01 6.049792e-01
    outer loop
      vertex   -4.108038e+00 -1.013824e+01 4.506137e+00
      vertex   -4.183345e+00 -1.011106e+01 4.461967e+00
      vertex   -4.144950e+00 -1.014896e+01 4.461967e+00
    endloop
  endfacet
  facet normal -5.631749e-01 -5.705402e-01 5.977607e-01
    outer loop
      vertex   -4.144950e+00 -1.014896e+01 4.461967e+00
      vertex   -4.183345e+00 -1.011106e+01 4.461967e+00
      vertex   -4.220225e+00 -1.012134e+01 4.417409e+00
    endloop
  endfacet
  facet normal -5.631749e-01 -5.705402e-01 5.977607e-01
    outer loop
      vertex   -4.144950e+00 -1.014896e+01 4.461967e+00
      vertex   -4.220225e+00 -1.012134e+01 4.417409e+00
      vertex   -4.181492e+00 -1.015957e+01 4.417409e+00
    endloop
  endfacet
  facet normal -5.669298e-01 -5.743443e-01 5.905246e-01
    outer loop
      vertex   -4.181492e+00 -1.015957e+01 4.417409e+00
      vertex   -4.220225e+00 -1.012134e+01 4.417409e+00
      vertex   -4.256727e+00 -1.013151e+01 4.372470e+00
    endloop
  endfacet
  facet normal -5.486876e-01 -5.287394e-01 6.475929e-01
    outer loop
      vertex   -4.000000e+00 -1.000000e+01 4.720979e+00
      vertex   -4.028824e+00 -1.002171e+01 4.678832e+00
      vertex   -4.000000e+00 -1.004673e+01 4.682823e+00
    endloop
  endfacet
  facet normal -5.530527e-01 -5.352190e-01 6.384930e-01
    outer loop
      vertex   -4.000000e+00 -1.004673e+01 4.682823e+00
      vertex   -4.028824e+00 -1.002171e+01 4.678832e+00
      vertex   -4.067865e+00 -1.003214e+01 4.636268e+00
    endloop
  endfacet
  facet normal -5.526403e-01 -5.370381e-01 6.373216e-01
    outer loop
      vertex   -4.000000e+00 -1.004673e+01 4.682823e+00
      vertex   -4.067865e+00 -1.003214e+01 4.636268e+00
      vertex   -4.032138e+00 -1.006891e+01 4.636268e+00
    endloop
  endfacet
  facet normal -5.563947e-01 -5.406865e-01 6.309382e-01
    outer loop
      vertex   -4.032138e+00 -1.006891e+01 4.636268e+00
      vertex   -4.067865e+00 -1.003214e+01 4.636268e+00
      vertex   -4.106550e+00 -1.004248e+01 4.593294e+00
    endloop
  endfacet
  facet normal -5.563947e-01 -5.406865e-01 6.309382e-01
    outer loop
      vertex   -4.032138e+00 -1.006891e+01 4.636268e+00
      vertex   -4.106550e+00 -1.004248e+01 4.593294e+00
      vertex   -4.070483e+00 -1.007960e+01 4.593294e+00
    endloop
  endfacet
  facet normal -5.605219e-01 -5.446972e-01 6.237950e-01
    outer loop
      vertex   -4.070483e+00 -1.007960e+01 4.593294e+00
      vertex   -4.106550e+00 -1.004248e+01 4.593294e+00
      vertex   -4.144873e+00 -1.005273e+01 4.549915e+00
    endloop
  endfacet
  facet normal -5.605219e-01 -5.446972e-01 6.237950e-01
    outer loop
      vertex   -4.070483e+00 -1.007960e+01 4.593294e+00
      vertex   -4.144873e+00 -1.005273e+01 4.549915e+00
      vertex   -4.108470e+00 -1.009019e+01 4.549915e+00
    endloop
  endfacet
  facet normal -5.645858e-01 -5.486464e-01 6.166280e-01
    outer loop
      vertex   -4.108470e+00 -1.009019e+01 4.549915e+00
      vertex   -4.144873e+00 -1.005273e+01 4.549915e+00
      vertex   -4.182829e+00 -1.006287e+01 4.506137e+00
    endloop
  endfacet
  facet normal -5.645858e-01 -5.486464e-01 6.166280e-01
    outer loop
      vertex   -4.108470e+00 -1.009019e+01 4.549915e+00
      vertex   -4.182829e+00 -1.006287e+01 4.506137e+00
      vertex   -4.146092e+00 -1.010067e+01 4.506137e+00
    endloop
  endfacet
  facet normal -5.685866e-01 -5.525342e-01 6.094385e-01
    outer loop
      vertex   -4.146092e+00 -1.010067e+01 4.506137e+00
      vertex   -4.182829e+00 -1.006287e+01 4.506137e+00
      vertex   -4.220412e+00 -1.007291e+01 4.461967e+00
    endloop
  endfacet
  facet normal -5.685866e-01 -5.525342e-01 6.094385e-01
    outer loop
      vertex   -4.146092e+00 -1.010067e+01 4.506137e+00
      vertex   -4.220412e+00 -1.007291e+01 4.461967e+00
      vertex   -4.183345e+00 -1.011106e+01 4.461967e+00
    endloop
  endfacet
  facet normal -5.725244e-01 -5.563608e-01 6.022279e-01
    outer loop
      vertex   -4.183345e+00 -1.011106e+01 4.461967e+00
      vertex   -4.220412e+00 -1.007291e+01 4.461967e+00
      vertex   -4.257619e+00 -1.008286e+01 4.417409e+00
    endloop
  endfacet
  facet normal -5.725244e-01 -5.563608e-01 6.022279e-01
    outer loop
      vertex   -4.183345e+00 -1.011106e+01 4.461967e+00
      vertex   -4.257619e+00 -1.008286e+01 4.417409e+00
      vertex   -4.220225e+00 -1.012134e+01 4.417409e+00
    endloop
  endfacet
  facet normal -5.763995e-01 -5.601265e-01 5.949974e-01
    outer loop
      vertex   -4.220225e+00 -1.012134e+01 4.417409e+00
      vertex   -4.257619e+00 -1.008286e+01 4.417409e+00
      vertex   -4.294444e+00 -1.009270e+01 4.372470e+00
    endloop
  endfacet
  facet normal -5.763995e-01 -5.601265e-01 5.949974e-01
    outer loop
      vertex   -4.220225e+00 -1.012134e+01 4.417409e+00
      vertex   -4.294444e+00 -1.009270e+01 4.372470e+00
      vertex   -4.256727e+00 -1.013151e+01 4.372470e+00
    endloop
  endfacet
  facet normal -5.802121e-01 -5.638315e-01 5.877482e-01
    outer loop
      vertex   -4.256727e+00 -1.013151e+01 4.372470e+00
      vertex   -4.294444e+00 -1.009270e+01 4.372470e+00
      vertex   -4.330883e+00 -1.010244e+01 4.327156e+00
    endloop
  endfacet
  facet normal -5.549223e-01 -5.215175e-01 6.481364e-01
    outer loop
      vertex   -4.000000e+00 -1.000000e+01 4.720979e+00
      vertex   -4.048484e+00 -1.000000e+01 4.679468e+00
      vertex   -4.028824e+00 -1.002171e+01 4.678832e+00
    endloop
  endfacet
  facet normal -5.591190e-01 -5.251258e-01 6.415830e-01
    outer loop
      vertex   -4.028824e+00 -1.002171e+01 4.678832e+00
      vertex   -4.048484e+00 -1.000000e+01 4.679468e+00
      vertex   -4.067865e+00 -1.003214e+01 4.636268e+00
    endloop
  endfacet
  facet normal -5.606417e-01 -5.238374e-01 6.413074e-01
    outer loop
      vertex   -4.048484e+00 -1.000000e+01 4.679468e+00
      vertex   -4.096529e+00 -1.000000e+01 4.637466e+00
      vertex   -4.067865e+00 -1.003214e+01 4.636268e+00
    endloop
  endfacet
  facet normal -5.646141e-01 -5.271474e-01 6.350800e-01
    outer loop
      vertex   -4.067865e+00 -1.003214e+01 4.636268e+00
      vertex   -4.096529e+00 -1.000000e+01 4.637466e+00
      vertex   -4.106550e+00 -1.004248e+01 4.593294e+00
    endloop
  endfacet
  facet normal -5.654688e-01 -5.266145e-01 6.347615e-01
    outer loop
      vertex   -4.106550e+00 -1.004248e+01 4.593294e+00
      vertex   -4.096529e+00 -1.000000e+01 4.637466e+00
      vertex   -4.141318e+00 -1.000515e+01 4.593294e+00
    endloop
  endfacet
  facet normal -5.690765e-01 -5.192898e-01 6.375656e-01
    outer loop
      vertex   -4.141318e+00 -1.000515e+01 4.593294e+00
      vertex   -4.096529e+00 -1.000000e+01 4.637466e+00
      vertex   -4.144131e+00 -1.000000e+01 4.594978e+00
    endloop
  endfacet
  facet normal -5.751288e-01 -5.204886e-01 6.311248e-01
    outer loop
      vertex   -4.141318e+00 -1.000515e+01 4.593294e+00
      vertex   -4.144131e+00 -1.000000e+01 4.594978e+00
      vertex   -4.191286e+00 -1.000000e+01 4.552007e+00
    endloop
  endfacet
  facet normal -5.807803e-01 -5.224695e-01 6.242755e-01
    outer loop
      vertex   -4.237990e+00 -1.000000e+01 4.508557e+00
      vertex   -4.218243e+00 -1.002484e+01 4.506137e+00
      vertex   -4.191286e+00 -1.000000e+01 4.552007e+00
    endloop
  endfacet
  facet normal -5.800371e-01 -5.232872e-01 6.242816e-01
    outer loop
      vertex   -4.191286e+00 -1.000000e+01 4.552007e+00
      vertex   -4.218243e+00 -1.002484e+01 4.506137e+00
      vertex   -4.179966e+00 -1.001504e+01 4.549915e+00
    endloop
  endfacet
  facet normal -5.751146e-01 -5.205315e-01 6.311023e-01
    outer loop
      vertex   -4.191286e+00 -1.000000e+01 4.552007e+00
      vertex   -4.179966e+00 -1.001504e+01 4.549915e+00
      vertex   -4.141318e+00 -1.000515e+01 4.593294e+00
    endloop
  endfacet
  facet normal -5.693756e-01 -5.302529e-01 6.282064e-01
    outer loop
      vertex   -4.141318e+00 -1.000515e+01 4.593294e+00
      vertex   -4.179966e+00 -1.001504e+01 4.549915e+00
      vertex   -4.106550e+00 -1.004248e+01 4.593294e+00
    endloop
  endfacet
  facet normal -5.852636e-01 -5.253840e-01 6.176068e-01
    outer loop
      vertex   -4.218243e+00 -1.002484e+01 4.506137e+00
      vertex   -4.237990e+00 -1.000000e+01 4.508557e+00
      vertex   -4.256145e+00 -1.003454e+01 4.461967e+00
    endloop
  endfacet
  facet normal -5.863317e-01 -5.244858e-01 6.173570e-01
    outer loop
      vertex   -4.256145e+00 -1.003454e+01 4.461967e+00
      vertex   -4.237990e+00 -1.000000e+01 4.508557e+00
      vertex   -4.284241e+00 -1.000000e+01 4.464630e+00
    endloop
  endfacet
  facet normal -5.907645e-01 -5.275603e-01 6.104732e-01
    outer loop
      vertex   -4.256145e+00 -1.003454e+01 4.461967e+00
      vertex   -4.284241e+00 -1.000000e+01 4.464630e+00
      vertex   -4.328362e+00 -1.000524e+01 4.417409e+00
    endloop
  endfacet
  facet normal -5.944203e-01 -5.203683e-01 6.130916e-01
    outer loop
      vertex   -4.328362e+00 -1.000524e+01 4.417409e+00
      vertex   -4.284241e+00 -1.000000e+01 4.464630e+00
      vertex   -4.330034e+00 -1.000000e+01 4.420232e+00
    endloop
  endfacet
  facet normal -6.011190e-01 -5.194087e-01 6.073472e-01
    outer loop
      vertex   -4.328362e+00 -1.000524e+01 4.417409e+00
      vertex   -4.330034e+00 -1.000000e+01 4.420232e+00
      vertex   -4.375365e+00 -1.000000e+01 4.375365e+00
    endloop
  endfacet
  facet normal -6.006431e-01 -5.207784e-01 6.066446e-01
    outer loop
      vertex   -4.328362e+00 -1.000524e+01 4.417409e+00
      vertex   -4.375365e+00 -1.000000e+01 4.375365e+00
      vertex   -4.365800e+00 -1.001441e+01 4.372470e+00
    endloop
  endfacet
  facet normal -6.058598e-01 -5.228359e-01 5.996469e-01
    outer loop
      vertex   -4.365800e+00 -1.001441e+01 4.372470e+00
      vertex   -4.375365e+00 -1.000000e+01 4.375365e+00
      vertex   -4.420232e+00 -1.000000e+01 4.330034e+00
    endloop
  endfacet
  facet normal -6.059836e-01 -5.223024e-01 5.999868e-01
    outer loop
      vertex   -4.365800e+00 -1.001441e+01 4.372470e+00
      vertex   -4.420232e+00 -1.000000e+01 4.330034e+00
      vertex   -4.402844e+00 -1.002348e+01 4.327156e+00
    endloop
  endfacet
  facet normal -6.106232e-01 -5.248810e-01 5.929918e-01
    outer loop
      vertex   -4.402844e+00 -1.002348e+01 4.327156e+00
      vertex   -4.420232e+00 -1.000000e+01 4.330034e+00
      vertex   -4.439491e+00 -1.003246e+01 4.281474e+00
    endloop
  endfacet
  facet normal -6.029909e-01 -5.376254e-01 5.893733e-01
    outer loop
      vertex   -4.402844e+00 -1.002348e+01 4.327156e+00
      vertex   -4.439491e+00 -1.003246e+01 4.281474e+00
      vertex   -4.367551e+00 -1.006306e+01 4.327156e+00
    endloop
  endfacet
  facet normal -6.029909e-01 -5.376254e-01 5.893733e-01
    outer loop
      vertex   -4.367551e+00 -1.006306e+01 4.327156e+00
      vertex   -4.439491e+00 -1.003246e+01 4.281474e+00
      vertex   -4.403904e+00 -1.007237e+01 4.281474e+00
    endloop
  endfacet
  facet normal -5.935463e-01 -5.527628e-01 5.849412e-01
    outer loop
      vertex   -4.367551e+00 -1.006306e+01 4.327156e+00
      vertex   -4.403904e+00 -1.007237e+01 4.281474e+00
      vertex   -4.330883e+00 -1.010244e+01 4.327156e+00
    endloop
  endfacet
  facet normal -6.114358e-01 -5.241342e-01 5.928149e-01
    outer loop
      vertex   -4.420232e+00 -1.000000e+01 4.330034e+00
      vertex   -4.464630e+00 -1.000000e+01 4.284241e+00
      vertex   -4.439491e+00 -1.003246e+01 4.281474e+00
    endloop
  endfacet
  facet normal -6.155814e-01 -5.267765e-01 5.861450e-01
    outer loop
      vertex   -4.439491e+00 -1.003246e+01 4.281474e+00
      vertex   -4.464630e+00 -1.000000e+01 4.284241e+00
      vertex   -4.475736e+00 -1.004133e+01 4.235429e+00
    endloop
  endfacet
  facet normal -6.069182e-01 -5.411270e-01 5.820926e-01
    outer loop
      vertex   -4.439491e+00 -1.003246e+01 4.281474e+00
      vertex   -4.475736e+00 -1.004133e+01 4.235429e+00
      vertex   -4.403904e+00 -1.007237e+01 4.281474e+00
    endloop
  endfacet
  facet normal -6.166982e-01 -5.259580e-01 5.857060e-01
    outer loop
      vertex   -4.464630e+00 -1.000000e+01 4.284241e+00
      vertex   -4.508557e+00 -1.000000e+01 4.237990e+00
      vertex   -4.475736e+00 -1.004133e+01 4.235429e+00
    endloop
  endfacet
  facet normal -6.174759e-01 -5.264947e-01 5.844030e-01
    outer loop
      vertex   -4.475736e+00 -1.004133e+01 4.235429e+00
      vertex   -4.508557e+00 -1.000000e+01 4.237990e+00
      vertex   -4.510213e+00 -1.000090e+01 4.235429e+00
    endloop
  endfacet
  facet normal -6.203127e-01 -5.289136e-01 5.791913e-01
    outer loop
      vertex   -4.475736e+00 -1.004133e+01 4.235429e+00
      vertex   -4.510213e+00 -1.000090e+01 4.235429e+00
      vertex   -4.546328e+00 -1.000936e+01 4.189029e+00
    endloop
  endfacet
  facet normal -6.255226e-01 -5.200296e-01 5.816276e-01
    outer loop
      vertex   -4.546328e+00 -1.000936e+01 4.189029e+00
      vertex   -4.510213e+00 -1.000090e+01 4.235429e+00
      vertex   -4.552007e+00 -1.000000e+01 4.191286e+00
    endloop
  endfacet
  facet normal -6.306735e-01 -5.214889e-01 5.747176e-01
    outer loop
      vertex   -4.546328e+00 -1.000936e+01 4.189029e+00
      vertex   -4.552007e+00 -1.000000e+01 4.191286e+00
      vertex   -4.594978e+00 -1.000000e+01 4.144131e+00
    endloop
  endfacet
  facet normal -6.303822e-01 -5.086072e-01 5.864615e-01
    outer loop
      vertex   -4.508557e+00 -1.000000e+01 4.237990e+00
      vertex   -4.552007e+00 -1.000000e+01 4.191286e+00
      vertex   -4.510213e+00 -1.000090e+01 4.235429e+00
    endloop
  endfacet
  facet normal -6.280886e-01 -5.355437e-01 5.645331e-01
    outer loop
      vertex   -4.547004e+00 -1.005879e+01 4.142279e+00
      vertex   -4.582030e+00 -1.001771e+01 4.142279e+00
      vertex   -4.617314e+00 -1.002597e+01 4.095186e+00
    endloop
  endfacet
  facet normal -6.318810e-01 -5.387773e-01 5.571763e-01
    outer loop
      vertex   -4.617314e+00 -1.002597e+01 4.095186e+00
      vertex   -4.652176e+00 -1.003414e+01 4.047758e+00
      vertex   -4.582019e+00 -1.006737e+01 4.095186e+00
    endloop
  endfacet
  facet normal -6.318810e-01 -5.387773e-01 5.571763e-01
    outer loop
      vertex   -4.582019e+00 -1.006737e+01 4.095186e+00
      vertex   -4.652176e+00 -1.003414e+01 4.047758e+00
      vertex   -4.616614e+00 -1.007584e+01 4.047758e+00
    endloop
  endfacet
  facet normal -6.219955e-01 -5.545698e-01 5.527873e-01
    outer loop
      vertex   -4.582019e+00 -1.006737e+01 4.095186e+00
      vertex   -4.616614e+00 -1.007584e+01 4.047758e+00
      vertex   -4.545289e+00 -1.010856e+01 4.095186e+00
    endloop
  endfacet
  facet normal -6.219955e-01 -5.545698e-01 5.527873e-01
    outer loop
      vertex   -4.545289e+00 -1.010856e+01 4.095186e+00
      vertex   -4.616614e+00 -1.007584e+01 4.047758e+00
      vertex   -4.579607e+00 -1.011735e+01 4.047758e+00
    endloop
  endfacet
  facet normal -6.119597e-01 -5.699110e-01 5.483673e-01
    outer loop
      vertex   -4.545289e+00 -1.010856e+01 4.095186e+00
      vertex   -4.579607e+00 -1.011735e+01 4.047758e+00
      vertex   -4.507129e+00 -1.014954e+01 4.095186e+00
    endloop
  endfacet
  facet normal -6.119597e-01 -5.699110e-01 5.483673e-01
    outer loop
      vertex   -4.507129e+00 -1.014954e+01 4.095186e+00
      vertex   -4.579607e+00 -1.011735e+01 4.047758e+00
      vertex   -4.541160e+00 -1.015863e+01 4.047758e+00
    endloop
  endfacet
  facet normal -6.017908e-01 -5.848009e-01 5.439262e-01
    outer loop
      vertex   -4.507129e+00 -1.014954e+01 4.095186e+00
      vertex   -4.541160e+00 -1.015863e+01 4.047758e+00
      vertex   -4.467544e+00 -1.019027e+01 4.095186e+00
    endloop
  endfacet
  facet normal -6.017908e-01 -5.848009e-01 5.439262e-01
    outer loop
      vertex   -4.467544e+00 -1.019027e+01 4.095186e+00
      vertex   -4.541160e+00 -1.015863e+01 4.047758e+00
      vertex   -4.501276e+00 -1.019968e+01 4.047758e+00
    endloop
  endfacet
  facet normal -5.915052e-01 -5.992410e-01 5.394737e-01
    outer loop
      vertex   -4.467544e+00 -1.019027e+01 4.095186e+00
      vertex   -4.501276e+00 -1.019968e+01 4.047758e+00
      vertex   -4.426541e+00 -1.023075e+01 4.095186e+00
    endloop
  endfacet
  facet normal -5.915052e-01 -5.992410e-01 5.394737e-01
    outer loop
      vertex   -4.426541e+00 -1.023075e+01 4.095186e+00
      vertex   -4.501276e+00 -1.019968e+01 4.047758e+00
      vertex   -4.459962e+00 -1.024046e+01 4.047758e+00
    endloop
  endfacet
  facet normal -5.811188e-01 -6.132339e-01 5.350188e-01
    outer loop
      vertex   -4.426541e+00 -1.023075e+01 4.095186e+00
      vertex   -4.459962e+00 -1.024046e+01 4.047758e+00
      vertex   -4.384126e+00 -1.027094e+01 4.095186e+00
    endloop
  endfacet
  facet normal -5.811188e-01 -6.132339e-01 5.350188e-01
    outer loop
      vertex   -4.384126e+00 -1.027094e+01 4.095186e+00
      vertex   -4.459962e+00 -1.024046e+01 4.047758e+00
      vertex   -4.417227e+00 -1.028095e+01 4.047758e+00
    endloop
  endfacet
  facet normal -5.706469e-01 -6.267833e-01 5.305702e-01
    outer loop
      vertex   -4.384126e+00 -1.027094e+01 4.095186e+00
      vertex   -4.417227e+00 -1.028095e+01 4.047758e+00
      vertex   -4.340309e+00 -1.031083e+01 4.095186e+00
    endloop
  endfacet
  facet normal -5.706469e-01 -6.267833e-01 5.305702e-01
    outer loop
      vertex   -4.340309e+00 -1.031083e+01 4.095186e+00
      vertex   -4.417227e+00 -1.028095e+01 4.047758e+00
      vertex   -4.373080e+00 -1.032115e+01 4.047758e+00
    endloop
  endfacet
  facet normal -5.601039e-01 -6.398940e-01 5.261362e-01
    outer loop
      vertex   -4.340309e+00 -1.031083e+01 4.095186e+00
      vertex   -4.373080e+00 -1.032115e+01 4.047758e+00
      vertex   -4.295101e+00 -1.035041e+01 4.095186e+00
    endloop
  endfacet
  facet normal -5.601039e-01 -6.398940e-01 5.261362e-01
    outer loop
      vertex   -4.295101e+00 -1.035041e+01 4.095186e+00
      vertex   -4.373080e+00 -1.032115e+01 4.047758e+00
      vertex   -4.327530e+00 -1.036102e+01 4.047758e+00
    endloop
  endfacet
  facet normal -5.495035e-01 -6.525714e-01 5.217245e-01
    outer loop
      vertex   -4.295101e+00 -1.035041e+01 4.095186e+00
      vertex   -4.327530e+00 -1.036102e+01 4.047758e+00
      vertex   -4.248514e+00 -1.038963e+01 4.095186e+00
    endloop
  endfacet
  facet normal -5.495035e-01 -6.525714e-01 5.217245e-01
    outer loop
      vertex   -4.248514e+00 -1.038963e+01 4.095186e+00
      vertex   -4.327530e+00 -1.036102e+01 4.047758e+00
      vertex   -4.280591e+00 -1.040054e+01 4.047758e+00
    endloop
  endfacet
  facet normal -5.388586e-01 -6.648221e-01 5.173423e-01
    outer loop
      vertex   -4.248514e+00 -1.038963e+01 4.095186e+00
      vertex   -4.280591e+00 -1.040054e+01 4.047758e+00
      vertex   -4.200560e+00 -1.042850e+01 4.095186e+00
    endloop
  endfacet
  facet normal -5.388586e-01 -6.648221e-01 5.173423e-01
    outer loop
      vertex   -4.200560e+00 -1.042850e+01 4.095186e+00
      vertex   -4.280591e+00 -1.040054e+01 4.047758e+00
      vertex   -4.232275e+00 -1.043970e+01 4.047758e+00
    endloop
  endfacet
  facet normal -5.281812e-01 -6.766530e-01 5.129964e-01
    outer loop
      vertex   -4.200560e+00 -1.042850e+01 4.095186e+00
      vertex   -4.232275e+00 -1.043970e+01 4.047758e+00
      vertex   -4.151254e+00 -1.046699e+01 4.095186e+00
    endloop
  endfacet
  facet normal -5.281812e-01 -6.766530e-01 5.129964e-01
    outer loop
      vertex   -4.151254e+00 -1.046699e+01 4.095186e+00
      vertex   -4.232275e+00 -1.043970e+01 4.047758e+00
      vertex   -4.182598e+00 -1.047848e+01 4.047758e+00
    endloop
  endfacet
  facet normal -5.174829e-01 -6.880719e-01 5.086930e-01
    outer loop
      vertex   -4.151254e+00 -1.046699e+01 4.095186e+00
      vertex   -4.182598e+00 -1.047848e+01 4.047758e+00
      vertex   -4.100613e+00 -1.050508e+01 4.095186e+00
    endloop
  endfacet
  facet normal -5.174829e-01 -6.880719e-01 5.086930e-01
    outer loop
      vertex   -4.100613e+00 -1.050508e+01 4.095186e+00
      vertex   -4.182598e+00 -1.047848e+01 4.047758e+00
      vertex   -4.131574e+00 -1.051685e+01 4.047758e+00
    endloop
  endfacet
  facet normal -5.067741e-01 -6.990868e-01 5.044380e-01
    outer loop
      vertex   -4.100613e+00 -1.050508e+01 4.095186e+00
      vertex   -4.131574e+00 -1.051685e+01 4.047758e+00
      vertex   -4.048654e+00 -1.054274e+01 4.095186e+00
    endloop
  endfacet
  facet normal -5.067741e-01 -6.990868e-01 5.044380e-01
    outer loop
      vertex   -4.048654e+00 -1.054274e+01 4.095186e+00
      vertex   -4.131574e+00 -1.051685e+01 4.047758e+00
      vertex   -4.079222e+00 -1.055481e+01 4.047758e+00
    endloop
  endfacet
  facet normal -6.183206e-01 -5.512933e-01 5.601388e-01
    outer loop
      vertex   -4.510556e+00 -1.009967e+01 4.142279e+00
      vertex   -4.547004e+00 -1.005879e+01 4.142279e+00
      vertex   -4.582019e+00 -1.006737e+01 4.095186e+00
    endloop
  endfacet
  facet normal -6.280886e-01 -5.355437e-01 5.645331e-01
    outer loop
      vertex   -4.582019e+00 -1.006737e+01 4.095186e+00
      vertex   -4.547004e+00 -1.005879e+01 4.142279e+00
      vertex   -4.617314e+00 -1.002597e+01 4.095186e+00
    endloop
  endfacet
  facet normal -6.183206e-01 -5.512933e-01 5.601388e-01
    outer loop
      vertex   -4.510556e+00 -1.009967e+01 4.142279e+00
      vertex   -4.582019e+00 -1.006737e+01 4.095186e+00
      vertex   -4.545289e+00 -1.010856e+01 4.095186e+00
    endloop
  endfacet
  facet normal -6.107822e-01 -5.445720e-01 5.747925e-01
    outer loop
      vertex   -4.439859e+00 -1.008157e+01 4.235429e+00
      vertex   -4.511576e+00 -1.005011e+01 4.189029e+00
      vertex   -4.475411e+00 -1.009068e+01 4.189029e+00
    endloop
  endfacet
  facet normal -5.989999e-01 -5.340670e-01 5.966335e-01
    outer loop
      vertex   -4.365800e+00 -1.001441e+01 4.372470e+00
      vertex   -4.402844e+00 -1.002348e+01 4.327156e+00
      vertex   -4.330803e+00 -1.005366e+01 4.372470e+00
    endloop
  endfacet
  facet normal -5.989999e-01 -5.340670e-01 5.966335e-01
    outer loop
      vertex   -4.330803e+00 -1.005366e+01 4.372470e+00
      vertex   -4.402844e+00 -1.002348e+01 4.327156e+00
      vertex   -4.367551e+00 -1.006306e+01 4.327156e+00
    endloop
  endfacet
  facet normal -5.896761e-01 -5.491585e-01 5.922052e-01
    outer loop
      vertex   -4.330803e+00 -1.005366e+01 4.372470e+00
      vertex   -4.367551e+00 -1.006306e+01 4.327156e+00
      vertex   -4.294444e+00 -1.009270e+01 4.372470e+00
    endloop
  endfacet
  facet normal -5.896761e-01 -5.491585e-01 5.922052e-01
    outer loop
      vertex   -4.294444e+00 -1.009270e+01 4.372470e+00
      vertex   -4.367551e+00 -1.006306e+01 4.327156e+00
      vertex   -4.330883e+00 -1.010244e+01 4.327156e+00
    endloop
  endfacet
  facet normal -5.949452e-01 -5.304518e-01 6.038718e-01
    outer loop
      vertex   -4.328362e+00 -1.000524e+01 4.417409e+00
      vertex   -4.365800e+00 -1.001441e+01 4.372470e+00
      vertex   -4.293666e+00 -1.004415e+01 4.417409e+00
    endloop
  endfacet
  facet normal -5.949452e-01 -5.304518e-01 6.038718e-01
    outer loop
      vertex   -4.293666e+00 -1.004415e+01 4.417409e+00
      vertex   -4.365800e+00 -1.001441e+01 4.372470e+00
      vertex   -4.330803e+00 -1.005366e+01 4.372470e+00
    endloop
  endfacet
  facet normal -5.857429e-01 -5.454956e-01 5.994496e-01
    outer loop
      vertex   -4.293666e+00 -1.004415e+01 4.417409e+00
      vertex   -4.330803e+00 -1.005366e+01 4.372470e+00
      vertex   -4.257619e+00 -1.008286e+01 4.417409e+00
    endloop
  endfacet
  facet normal -5.857429e-01 -5.454956e-01 5.994496e-01
    outer loop
      vertex   -4.257619e+00 -1.008286e+01 4.417409e+00
      vertex   -4.330803e+00 -1.005366e+01 4.372470e+00
      vertex   -4.294444e+00 -1.009270e+01 4.372470e+00
    endloop
  endfacet
  facet normal -6.084012e-01 -5.665970e-01 5.557121e-01
    outer loop
      vertex   -4.472687e+00 -1.014033e+01 4.142279e+00
      vertex   -4.510556e+00 -1.009967e+01 4.142279e+00
      vertex   -4.545289e+00 -1.010856e+01 4.095186e+00
    endloop
  endfacet
  facet normal -6.084012e-01 -5.665970e-01 5.557121e-01
    outer loop
      vertex   -4.472687e+00 -1.014033e+01 4.142279e+00
      vertex   -4.545289e+00 -1.010856e+01 4.095186e+00
      vertex   -4.507129e+00 -1.014954e+01 4.095186e+00
    endloop
  endfacet
  facet normal -6.010984e-01 -5.597959e-01 5.703589e-01
    outer loop
      vertex   -4.439859e+00 -1.008157e+01 4.235429e+00
      vertex   -4.475411e+00 -1.009068e+01 4.189029e+00
      vertex   -4.402584e+00 -1.012160e+01 4.235429e+00
    endloop
  endfacet
  facet normal -6.010984e-01 -5.597959e-01 5.703589e-01
    outer loop
      vertex   -4.402584e+00 -1.012160e+01 4.235429e+00
      vertex   -4.475411e+00 -1.009068e+01 4.189029e+00
      vertex   -4.437838e+00 -1.013102e+01 4.189029e+00
    endloop
  endfacet
  facet normal -5.912777e-01 -5.745847e-01 5.659003e-01
    outer loop
      vertex   -4.402584e+00 -1.012160e+01 4.235429e+00
      vertex   -4.437838e+00 -1.013102e+01 4.189029e+00
      vertex   -4.363917e+00 -1.016139e+01 4.235429e+00
    endloop
  endfacet
  facet normal -5.912777e-01 -5.745847e-01 5.659003e-01
    outer loop
      vertex   -4.363917e+00 -1.016139e+01 4.235429e+00
      vertex   -4.437838e+00 -1.013102e+01 4.189029e+00
      vertex   -4.398861e+00 -1.017113e+01 4.189029e+00
    endloop
  endfacet
  facet normal -5.813359e-01 -5.889388e-01 5.614264e-01
    outer loop
      vertex   -4.363917e+00 -1.016139e+01 4.235429e+00
      vertex   -4.398861e+00 -1.017113e+01 4.189029e+00
      vertex   -4.323865e+00 -1.020092e+01 4.235429e+00
    endloop
  endfacet
  facet normal -5.813359e-01 -5.889388e-01 5.614264e-01
    outer loop
      vertex   -4.323865e+00 -1.020092e+01 4.235429e+00
      vertex   -4.398861e+00 -1.017113e+01 4.189029e+00
      vertex   -4.358488e+00 -1.021098e+01 4.189029e+00
    endloop
  endfacet
  facet normal -5.712883e-01 -6.028602e-01 5.569464e-01
    outer loop
      vertex   -4.323865e+00 -1.020092e+01 4.235429e+00
      vertex   -4.358488e+00 -1.021098e+01 4.189029e+00
      vertex   -4.282434e+00 -1.024019e+01 4.235429e+00
    endloop
  endfacet
  facet normal -5.712883e-01 -6.028602e-01 5.569464e-01
    outer loop
      vertex   -4.282434e+00 -1.024019e+01 4.235429e+00
      vertex   -4.358488e+00 -1.021098e+01 4.189029e+00
      vertex   -4.316725e+00 -1.025056e+01 4.189029e+00
    endloop
  endfacet
  facet normal -5.611495e-01 -6.163516e-01 5.524690e-01
    outer loop
      vertex   -4.282434e+00 -1.024019e+01 4.235429e+00
      vertex   -4.316725e+00 -1.025056e+01 4.189029e+00
      vertex   -4.239633e+00 -1.027915e+01 4.235429e+00
    endloop
  endfacet
  facet normal -5.611495e-01 -6.163516e-01 5.524690e-01
    outer loop
      vertex   -4.239633e+00 -1.027915e+01 4.235429e+00
      vertex   -4.316725e+00 -1.025056e+01 4.189029e+00
      vertex   -4.273582e+00 -1.028984e+01 4.189029e+00
    endloop
  endfacet
  facet normal -5.509333e-01 -6.294169e-01 5.480025e-01
    outer loop
      vertex   -4.239633e+00 -1.027915e+01 4.235429e+00
      vertex   -4.273582e+00 -1.028984e+01 4.189029e+00
      vertex   -4.195474e+00 -1.031781e+01 4.235429e+00
    endloop
  endfacet
  facet normal -5.509333e-01 -6.294169e-01 5.480025e-01
    outer loop
      vertex   -4.195474e+00 -1.031781e+01 4.235429e+00
      vertex   -4.273582e+00 -1.028984e+01 4.189029e+00
      vertex   -4.229069e+00 -1.032880e+01 4.189029e+00
    endloop
  endfacet
  facet normal -5.406531e-01 -6.420610e-01 5.435549e-01
    outer loop
      vertex   -4.195474e+00 -1.031781e+01 4.235429e+00
      vertex   -4.229069e+00 -1.032880e+01 4.189029e+00
      vertex   -4.149967e+00 -1.035613e+01 4.235429e+00
    endloop
  endfacet
  facet normal -5.406531e-01 -6.420610e-01 5.435549e-01
    outer loop
      vertex   -4.149967e+00 -1.035613e+01 4.235429e+00
      vertex   -4.229069e+00 -1.032880e+01 4.189029e+00
      vertex   -4.183198e+00 -1.036743e+01 4.189029e+00
    endloop
  endfacet
  facet normal -5.303214e-01 -6.542892e-01 5.391335e-01
    outer loop
      vertex   -4.149967e+00 -1.035613e+01 4.235429e+00
      vertex   -4.183198e+00 -1.036743e+01 4.189029e+00
      vertex   -4.103126e+00 -1.039409e+01 4.235429e+00
    endloop
  endfacet
  facet normal -5.303214e-01 -6.542892e-01 5.391335e-01
    outer loop
      vertex   -4.103126e+00 -1.039409e+01 4.235429e+00
      vertex   -4.183198e+00 -1.036743e+01 4.189029e+00
      vertex   -4.135981e+00 -1.040570e+01 4.189029e+00
    endloop
  endfacet
  facet normal -5.199499e-01 -6.661079e-01 5.347451e-01
    outer loop
      vertex   -4.103126e+00 -1.039409e+01 4.235429e+00
      vertex   -4.135981e+00 -1.040570e+01 4.189029e+00
      vertex   -4.054964e+00 -1.043169e+01 4.235429e+00
    endloop
  endfacet
  facet normal -5.199499e-01 -6.661079e-01 5.347451e-01
    outer loop
      vertex   -4.054964e+00 -1.043169e+01 4.235429e+00
      vertex   -4.135981e+00 -1.040570e+01 4.189029e+00
      vertex   -4.087434e+00 -1.044359e+01 4.189029e+00
    endloop
  endfacet
  facet normal -5.095499e-01 -6.775238e-01 5.303964e-01
    outer loop
      vertex   -4.054964e+00 -1.043169e+01 4.235429e+00
      vertex   -4.087434e+00 -1.044359e+01 4.189029e+00
      vertex   -4.005497e+00 -1.046889e+01 4.235429e+00
    endloop
  endfacet
  facet normal -5.095499e-01 -6.775238e-01 5.303964e-01
    outer loop
      vertex   -4.005497e+00 -1.046889e+01 4.235429e+00
      vertex   -4.087434e+00 -1.044359e+01 4.189029e+00
      vertex   -4.037571e+00 -1.048109e+01 4.189029e+00
    endloop
  endfacet
  facet normal -5.908264e-01 -5.267795e-01 6.110871e-01
    outer loop
      vertex   -4.328362e+00 -1.000524e+01 4.417409e+00
      vertex   -4.293666e+00 -1.004415e+01 4.417409e+00
      vertex   -4.256145e+00 -1.003454e+01 4.461967e+00
    endloop
  endfacet
  facet normal -5.817464e-01 -5.417737e-01 6.066732e-01
    outer loop
      vertex   -4.256145e+00 -1.003454e+01 4.461967e+00
      vertex   -4.293666e+00 -1.004415e+01 4.417409e+00
      vertex   -4.220412e+00 -1.007291e+01 4.461967e+00
    endloop
  endfacet
  facet normal -5.776865e-01 -5.379927e-01 6.138747e-01
    outer loop
      vertex   -4.256145e+00 -1.003454e+01 4.461967e+00
      vertex   -4.220412e+00 -1.007291e+01 4.461967e+00
      vertex   -4.182829e+00 -1.006287e+01 4.506137e+00
    endloop
  endfacet
  facet normal -5.817464e-01 -5.417737e-01 6.066732e-01
    outer loop
      vertex   -4.220412e+00 -1.007291e+01 4.461967e+00
      vertex   -4.293666e+00 -1.004415e+01 4.417409e+00
      vertex   -4.257619e+00 -1.008286e+01 4.417409e+00
    endloop
  endfacet
  facet normal -5.776865e-01 -5.379927e-01 6.138747e-01
    outer loop
      vertex   -4.256145e+00 -1.003454e+01 4.461967e+00
      vertex   -4.182829e+00 -1.006287e+01 4.506137e+00
      vertex   -4.218243e+00 -1.002484e+01 4.506137e+00
    endloop
  endfacet
  facet normal -5.735629e-01 -5.341525e-01 6.210529e-01
    outer loop
      vertex   -4.218243e+00 -1.002484e+01 4.506137e+00
      vertex   -4.182829e+00 -1.006287e+01 4.506137e+00
      vertex   -4.144873e+00 -1.005273e+01 4.549915e+00
    endloop
  endfacet
  facet normal -5.735629e-01 -5.341525e-01 6.210529e-01
    outer loop
      vertex   -4.218243e+00 -1.002484e+01 4.506137e+00
      vertex   -4.144873e+00 -1.005273e+01 4.549915e+00
      vertex   -4.179966e+00 -1.001504e+01 4.549915e+00
    endloop
  endfacet
  facet normal -5.693756e-01 -5.302529e-01 6.282064e-01
    outer loop
      vertex   -4.179966e+00 -1.001504e+01 4.549915e+00
      vertex   -4.144873e+00 -1.005273e+01 4.549915e+00
      vertex   -4.106550e+00 -1.004248e+01 4.593294e+00
    endloop
  endfacet
  facet normal -5.983473e-01 -5.814547e-01 5.512631e-01
    outer loop
      vertex   -4.433405e+00 -1.018076e+01 4.142279e+00
      vertex   -4.472687e+00 -1.014033e+01 4.142279e+00
      vertex   -4.507129e+00 -1.014954e+01 4.095186e+00
    endloop
  endfacet
  facet normal -5.983473e-01 -5.814547e-01 5.512631e-01
    outer loop
      vertex   -4.433405e+00 -1.018076e+01 4.142279e+00
      vertex   -4.507129e+00 -1.014954e+01 4.095186e+00
      vertex   -4.467544e+00 -1.019027e+01 4.095186e+00
    endloop
  endfacet
  facet normal -5.876509e-01 -5.710603e-01 5.731985e-01
    outer loop
      vertex   -4.328578e+00 -1.015154e+01 4.281474e+00
      vertex   -4.366931e+00 -1.011207e+01 4.281474e+00
      vertex   -4.402584e+00 -1.012160e+01 4.235429e+00
    endloop
  endfacet
  facet normal -5.973536e-01 -5.563085e-01 5.776587e-01
    outer loop
      vertex   -4.402584e+00 -1.012160e+01 4.235429e+00
      vertex   -4.366931e+00 -1.011207e+01 4.281474e+00
      vertex   -4.439859e+00 -1.008157e+01 4.235429e+00
    endloop
  endfacet
  facet normal -5.876509e-01 -5.710603e-01 5.731985e-01
    outer loop
      vertex   -4.328578e+00 -1.015154e+01 4.281474e+00
      vertex   -4.402584e+00 -1.012160e+01 4.235429e+00
      vertex   -4.363917e+00 -1.016139e+01 4.235429e+00
    endloop
  endfacet
  facet normal -5.881752e-01 -5.958676e-01 5.468013e-01
    outer loop
      vertex   -4.392714e+00 -1.022092e+01 4.142279e+00
      vertex   -4.433405e+00 -1.018076e+01 4.142279e+00
      vertex   -4.467544e+00 -1.019027e+01 4.095186e+00
    endloop
  endfacet
  facet normal -5.881752e-01 -5.958676e-01 5.468013e-01
    outer loop
      vertex   -4.392714e+00 -1.022092e+01 4.142279e+00
      vertex   -4.467544e+00 -1.019027e+01 4.095186e+00
      vertex   -4.426541e+00 -1.023075e+01 4.095186e+00
    endloop
  endfacet
  facet normal -5.778258e-01 -5.853828e-01 5.687216e-01
    outer loop
      vertex   -4.288849e+00 -1.019075e+01 4.281474e+00
      vertex   -4.328578e+00 -1.015154e+01 4.281474e+00
      vertex   -4.363917e+00 -1.016139e+01 4.235429e+00
    endloop
  endfacet
  facet normal -5.778258e-01 -5.853828e-01 5.687216e-01
    outer loop
      vertex   -4.288849e+00 -1.019075e+01 4.281474e+00
      vertex   -4.363917e+00 -1.016139e+01 4.235429e+00
      vertex   -4.323865e+00 -1.020092e+01 4.235429e+00
    endloop
  endfacet
  facet normal -5.706231e-01 -5.780858e-01 5.832719e-01
    outer loop
      vertex   -4.217658e+00 -1.017008e+01 4.372470e+00
      vertex   -4.292846e+00 -1.014158e+01 4.327156e+00
      vertex   -4.253446e+00 -1.018047e+01 4.327156e+00
    endloop
  endfacet
  facet normal -5.779007e-01 -6.098380e-01 5.423360e-01
    outer loop
      vertex   -4.350624e+00 -1.026081e+01 4.142279e+00
      vertex   -4.392714e+00 -1.022092e+01 4.142279e+00
      vertex   -4.426541e+00 -1.023075e+01 4.095186e+00
    endloop
  endfacet
  facet normal -5.779007e-01 -6.098380e-01 5.423360e-01
    outer loop
      vertex   -4.350624e+00 -1.026081e+01 4.142279e+00
      vertex   -4.426541e+00 -1.023075e+01 4.095186e+00
      vertex   -4.384126e+00 -1.027094e+01 4.095186e+00
    endloop
  endfacet
  facet normal -5.678932e-01 -5.992774e-01 5.642374e-01
    outer loop
      vertex   -4.247754e+00 -1.022970e+01 4.281474e+00
      vertex   -4.288849e+00 -1.019075e+01 4.281474e+00
      vertex   -4.323865e+00 -1.020092e+01 4.235429e+00
    endloop
  endfacet
  facet normal -5.678932e-01 -5.992774e-01 5.642374e-01
    outer loop
      vertex   -4.247754e+00 -1.022970e+01 4.281474e+00
      vertex   -4.323865e+00 -1.020092e+01 4.235429e+00
      vertex   -4.282434e+00 -1.024019e+01 4.235429e+00
    endloop
  endfacet
  facet normal -5.609234e-01 -5.919225e-01 5.787855e-01
    outer loop
      vertex   -4.177245e+00 -1.020837e+01 4.372470e+00
      vertex   -4.217658e+00 -1.017008e+01 4.372470e+00
      vertex   -4.253446e+00 -1.018047e+01 4.327156e+00
    endloop
  endfacet
  facet normal -5.609234e-01 -5.919225e-01 5.787855e-01
    outer loop
      vertex   -4.177245e+00 -1.020837e+01 4.372470e+00
      vertex   -4.253446e+00 -1.018047e+01 4.327156e+00
      vertex   -4.212689e+00 -1.021909e+01 4.327156e+00
    endloop
  endfacet
  facet normal -5.675387e-01 -6.233694e-01 5.378758e-01
    outer loop
      vertex   -4.307142e+00 -1.030040e+01 4.142279e+00
      vertex   -4.350624e+00 -1.026081e+01 4.142279e+00
      vertex   -4.384126e+00 -1.027094e+01 4.095186e+00
    endloop
  endfacet
  facet normal -5.675387e-01 -6.233694e-01 5.378758e-01
    outer loop
      vertex   -4.307142e+00 -1.030040e+01 4.142279e+00
      vertex   -4.384126e+00 -1.027094e+01 4.095186e+00
      vertex   -4.340309e+00 -1.031083e+01 4.095186e+00
    endloop
  endfacet
  facet normal -5.578676e-01 -6.127468e-01 5.597545e-01
    outer loop
      vertex   -4.205300e+00 -1.026835e+01 4.281474e+00
      vertex   -4.247754e+00 -1.022970e+01 4.281474e+00
      vertex   -4.282434e+00 -1.024019e+01 4.235429e+00
    endloop
  endfacet
  facet normal -5.578676e-01 -6.127468e-01 5.597545e-01
    outer loop
      vertex   -4.205300e+00 -1.026835e+01 4.281474e+00
      vertex   -4.282434e+00 -1.024019e+01 4.235429e+00
      vertex   -4.239633e+00 -1.027915e+01 4.235429e+00
    endloop
  endfacet
  facet normal -5.511272e-01 -6.053434e-01 5.742979e-01
    outer loop
      vertex   -4.135496e+00 -1.024638e+01 4.372470e+00
      vertex   -4.177245e+00 -1.020837e+01 4.372470e+00
      vertex   -4.212689e+00 -1.021909e+01 4.327156e+00
    endloop
  endfacet
  facet normal -5.511272e-01 -6.053434e-01 5.742979e-01
    outer loop
      vertex   -4.135496e+00 -1.024638e+01 4.372470e+00
      vertex   -4.212689e+00 -1.021909e+01 4.327156e+00
      vertex   -4.170586e+00 -1.025742e+01 4.327156e+00
    endloop
  endfacet
  facet normal -5.571035e-01 -6.364661e-01 5.334290e-01
    outer loop
      vertex   -4.262279e+00 -1.033967e+01 4.142279e+00
      vertex   -4.307142e+00 -1.030040e+01 4.142279e+00
      vertex   -4.340309e+00 -1.031083e+01 4.095186e+00
    endloop
  endfacet
  facet normal -5.571035e-01 -6.364661e-01 5.334290e-01
    outer loop
      vertex   -4.262279e+00 -1.033967e+01 4.142279e+00
      vertex   -4.340309e+00 -1.031083e+01 4.095186e+00
      vertex   -4.295101e+00 -1.035041e+01 4.095186e+00
    endloop
  endfacet
  facet normal -5.477626e-01 -6.257945e-01 5.552813e-01
    outer loop
      vertex   -4.161498e+00 -1.030669e+01 4.281474e+00
      vertex   -4.205300e+00 -1.026835e+01 4.281474e+00
      vertex   -4.239633e+00 -1.027915e+01 4.235429e+00
    endloop
  endfacet
  facet normal -5.477626e-01 -6.257945e-01 5.552813e-01
    outer loop
      vertex   -4.161498e+00 -1.030669e+01 4.281474e+00
      vertex   -4.239633e+00 -1.027915e+01 4.235429e+00
      vertex   -4.195474e+00 -1.031781e+01 4.235429e+00
    endloop
  endfacet
  facet normal -5.412478e-01 -6.183517e-01 5.698175e-01
    outer loop
      vertex   -4.092421e+00 -1.028409e+01 4.372470e+00
      vertex   -4.135496e+00 -1.024638e+01 4.372470e+00
      vertex   -4.170586e+00 -1.025742e+01 4.327156e+00
    endloop
  endfacet
  facet normal -5.412478e-01 -6.183517e-01 5.698175e-01
    outer loop
      vertex   -4.092421e+00 -1.028409e+01 4.372470e+00
      vertex   -4.170586e+00 -1.025742e+01 4.327156e+00
      vertex   -4.127146e+00 -1.029545e+01 4.327156e+00
    endloop
  endfacet
  facet normal -5.466087e-01 -6.491336e-01 5.290033e-01
    outer loop
      vertex   -4.216048e+00 -1.037860e+01 4.142279e+00
      vertex   -4.262279e+00 -1.033967e+01 4.142279e+00
      vertex   -4.295101e+00 -1.035041e+01 4.095186e+00
    endloop
  endfacet
  facet normal -5.466087e-01 -6.491336e-01 5.290033e-01
    outer loop
      vertex   -4.216048e+00 -1.037860e+01 4.142279e+00
      vertex   -4.295101e+00 -1.035041e+01 4.095186e+00
      vertex   -4.248514e+00 -1.038963e+01 4.095186e+00
    endloop
  endfacet
  facet normal -5.375914e-01 -6.384250e-01 5.508257e-01
    outer loop
      vertex   -4.116360e+00 -1.034470e+01 4.281474e+00
      vertex   -4.161498e+00 -1.030669e+01 4.281474e+00
      vertex   -4.195474e+00 -1.031781e+01 4.235429e+00
    endloop
  endfacet
  facet normal -5.375914e-01 -6.384250e-01 5.508257e-01
    outer loop
      vertex   -4.116360e+00 -1.034470e+01 4.281474e+00
      vertex   -4.195474e+00 -1.031781e+01 4.235429e+00
      vertex   -4.149967e+00 -1.035613e+01 4.235429e+00
    endloop
  endfacet
  facet normal -5.312980e-01 -6.309512e-01 5.653521e-01
    outer loop
      vertex   -4.048032e+00 -1.032146e+01 4.372470e+00
      vertex   -4.092421e+00 -1.028409e+01 4.372470e+00
      vertex   -4.127146e+00 -1.029545e+01 4.327156e+00
    endloop
  endfacet
  facet normal -5.312980e-01 -6.309512e-01 5.653521e-01
    outer loop
      vertex   -4.048032e+00 -1.032146e+01 4.372470e+00
      vertex   -4.127146e+00 -1.029545e+01 4.327156e+00
      vertex   -4.082380e+00 -1.033314e+01 4.327156e+00
    endloop
  endfacet
  facet normal -5.360669e-01 -6.613779e-01 5.246061e-01
    outer loop
      vertex   -4.168461e+00 -1.041717e+01 4.142279e+00
      vertex   -4.216048e+00 -1.037860e+01 4.142279e+00
      vertex   -4.248514e+00 -1.038963e+01 4.095186e+00
    endloop
  endfacet
  facet normal -5.360669e-01 -6.613779e-01 5.246061e-01
    outer loop
      vertex   -4.168461e+00 -1.041717e+01 4.142279e+00
      vertex   -4.248514e+00 -1.038963e+01 4.095186e+00
      vertex   -4.200560e+00 -1.042850e+01 4.095186e+00
    endloop
  endfacet
  facet normal -5.273664e-01 -6.506436e-01 5.463951e-01
    outer loop
      vertex   -4.069898e+00 -1.038236e+01 4.281474e+00
      vertex   -4.116360e+00 -1.034470e+01 4.281474e+00
      vertex   -4.149967e+00 -1.035613e+01 4.235429e+00
    endloop
  endfacet
  facet normal -5.273664e-01 -6.506436e-01 5.463951e-01
    outer loop
      vertex   -4.069898e+00 -1.038236e+01 4.281474e+00
      vertex   -4.149967e+00 -1.035613e+01 4.235429e+00
      vertex   -4.103126e+00 -1.039409e+01 4.235429e+00
    endloop
  endfacet
  facet normal -5.212900e-01 -6.431466e-01 5.609092e-01
    outer loop
      vertex   -4.002341e+00 -1.035850e+01 4.372470e+00
      vertex   -4.048032e+00 -1.032146e+01 4.372470e+00
      vertex   -4.082380e+00 -1.033314e+01 4.327156e+00
    endloop
  endfacet
  facet normal -5.212900e-01 -6.431466e-01 5.609092e-01
    outer loop
      vertex   -4.002341e+00 -1.035850e+01 4.372470e+00
      vertex   -4.082380e+00 -1.033314e+01 4.327156e+00
      vertex   -4.036302e+00 -1.037049e+01 4.327156e+00
    endloop
  endfacet
  facet normal -5.254903e-01 -6.732057e-01 5.202442e-01
    outer loop
      vertex   -4.119532e+00 -1.045536e+01 4.142279e+00
      vertex   -4.168461e+00 -1.041717e+01 4.142279e+00
      vertex   -4.200560e+00 -1.042850e+01 4.095186e+00
    endloop
  endfacet
  facet normal -5.254903e-01 -6.732057e-01 5.202442e-01
    outer loop
      vertex   -4.119532e+00 -1.045536e+01 4.142279e+00
      vertex   -4.200560e+00 -1.042850e+01 4.095186e+00
      vertex   -4.151254e+00 -1.046699e+01 4.095186e+00
    endloop
  endfacet
  facet normal -5.170994e-01 -6.624561e-01 5.419965e-01
    outer loop
      vertex   -4.022126e+00 -1.041965e+01 4.281474e+00
      vertex   -4.069898e+00 -1.038236e+01 4.281474e+00
      vertex   -4.103126e+00 -1.039409e+01 4.235429e+00
    endloop
  endfacet
  facet normal -5.170994e-01 -6.624561e-01 5.419965e-01
    outer loop
      vertex   -4.022126e+00 -1.041965e+01 4.281474e+00
      vertex   -4.103126e+00 -1.039409e+01 4.235429e+00
      vertex   -4.054964e+00 -1.043169e+01 4.235429e+00
    endloop
  endfacet
  facet normal -5.148902e-01 -6.846245e-01 5.159238e-01
    outer loop
      vertex   -4.069278e+00 -1.049315e+01 4.142279e+00
      vertex   -4.119532e+00 -1.045536e+01 4.142279e+00
      vertex   -4.151254e+00 -1.046699e+01 4.095186e+00
    endloop
  endfacet
  facet normal -5.148902e-01 -6.846245e-01 5.159238e-01
    outer loop
      vertex   -4.069278e+00 -1.049315e+01 4.142279e+00
      vertex   -4.151254e+00 -1.046699e+01 4.095186e+00
      vertex   -4.100613e+00 -1.050508e+01 4.095186e+00
    endloop
  endfacet
  facet normal -5.042770e-01 -6.956422e-01 5.116509e-01
    outer loop
      vertex   -4.017715e+00 -1.053053e+01 4.142279e+00
      vertex   -4.069278e+00 -1.049315e+01 4.142279e+00
      vertex   -4.100613e+00 -1.050508e+01 4.095186e+00
    endloop
  endfacet
  facet normal -5.042770e-01 -6.956422e-01 5.116509e-01
    outer loop
      vertex   -4.017715e+00 -1.053053e+01 4.142279e+00
      vertex   -4.100613e+00 -1.050508e+01 4.095186e+00
      vertex   -4.048654e+00 -1.054274e+01 4.095186e+00
    endloop
  endfacet
  facet normal 1.000000e+00 0.000000e+00 0.000000e+00
    outer loop
      vertex   -4.000000e+00 -1.000000e+01 4.720979e+00
      vertex   -4.000000e+00 -1.004673e+01 4.682823e+00
      vertex   -4.000000e+00 -1.000000e+01 4.000000e+00
    endloop
  endfacet
  facet normal 1.000000e+00 0.000000e+00 0.000000e+00
    outer loop
      vertex   -4.000000e+00 -1.000000e+01 4.000000e+00
      vertex   -4.000000e+00 -1.004673e+01 4.682823e+00
      vertex   -4.000000e+00 -1.009254e+01 4.643495e+00
    endloop
  endfacet
  facet normal 1.000000e+00 0.000000e+00 0.000000e+00
    outer loop
      vertex   -4.000000e+00 -1.000000e+01 4.000000e+00
      vertex   -4.000000e+00 -1.009254e+01 4.643495e+00
      vertex   -4.000000e+00 -1.013742e+01 4.603066e+00
    endloop
  endfacet
  facet normal 1.000000e+00 0.000000e+00 0.000000e+00
    outer loop
      vertex   -4.000000e+00 -1.013742e+01 4.603066e+00
      vertex   -4.000000e+00 -1.018136e+01 4.561605e+00
      vertex   -4.000000e+00 -1.000000e+01 4.000000e+00
    endloop
  endfacet
  facet normal 1.000000e+00 0.000000e+00 0.000000e+00
    outer loop
      vertex   -4.000000e+00 -1.000000e+01 4.000000e+00
      vertex   -4.000000e+00 -1.018136e+01 4.561605e+00
      vertex   -4.000000e+00 -1.022438e+01 4.519180e+00
    endloop
  endfacet
  facet normal 1.000000e+00 0.000000e+00 0.000000e+00
    outer loop
      vertex   -4.000000e+00 -1.000000e+01 4.000000e+00
      vertex   -4.000000e+00 -1.022438e+01 4.519180e+00
      vertex   -4.000000e+00 -1.026646e+01 4.475862e+00
    endloop
  endfacet
  facet normal 1.000000e+00 0.000000e+00 0.000000e+00
    outer loop
      vertex   -4.000000e+00 -1.026646e+01 4.475862e+00
      vertex   -4.000000e+00 -1.030761e+01 4.431719e+00
      vertex   -4.000000e+00 -1.000000e+01 4.000000e+00
    endloop
  endfacet
  facet normal 1.000000e+00 0.000000e+00 0.000000e+00
    outer loop
      vertex   -4.000000e+00 -1.000000e+01 4.000000e+00
      vertex   -4.000000e+00 -1.030761e+01 4.431719e+00
      vertex   -4.000000e+00 -1.034785e+01 4.386801e+00
    endloop
  endfacet
  facet normal 1.000000e+00 0.000000e+00 0.000000e+00
    outer loop
      vertex   -4.000000e+00 -1.000000e+01 4.000000e+00
      vertex   -4.000000e+00 -1.034785e+01 4.386801e+00
      vertex   -4.000000e+00 -1.038728e+01 4.341040e+00
    endloop
  endfacet
  facet normal 1.000000e+00 0.000000e+00 0.000000e+00
    outer loop
      vertex   -4.000000e+00 -1.038728e+01 4.341040e+00
      vertex   -4.000000e+00 -1.042594e+01 4.294458e+00
      vertex   -4.000000e+00 -1.000000e+01 4.000000e+00
    endloop
  endfacet
  facet normal 1.000000e+00 0.000000e+00 0.000000e+00
    outer loop
      vertex   -4.000000e+00 -1.000000e+01 4.000000e+00
      vertex   -4.000000e+00 -1.042594e+01 4.294458e+00
      vertex   -4.000000e+00 -1.046382e+01 4.247094e+00
    endloop
  endfacet
  facet normal 1.000000e+00 0.000000e+00 0.000000e+00
    outer loop
      vertex   -4.000000e+00 -1.000000e+01 4.000000e+00
      vertex   -4.000000e+00 -1.046382e+01 4.247094e+00
      vertex   -4.000000e+00 -1.050094e+01 4.198991e+00
    endloop
  endfacet
  facet normal 1.000000e+00 0.000000e+00 0.000000e+00
    outer loop
      vertex   -4.000000e+00 -1.050094e+01 4.198991e+00
      vertex   -4.000000e+00 -1.053729e+01 4.150189e+00
      vertex   -4.000000e+00 -1.000000e+01 4.000000e+00
    endloop
  endfacet
  facet normal 1.000000e+00 0.000000e+00 0.000000e+00
    outer loop
      vertex   -4.000000e+00 -1.000000e+01 4.000000e+00
      vertex   -4.000000e+00 -1.053729e+01 4.150189e+00
      vertex   -4.000000e+00 -1.057289e+01 4.100729e+00
    endloop
  endfacet
  facet normal 1.000000e+00 2.778593e-15 1.580301e-14
    outer loop
      vertex   -4.000000e+00 -1.000000e+01 4.000000e+00
      vertex   -4.000000e+00 -1.057289e+01 4.100729e+00
      vertex   -4.000000e+00 -1.060773e+01 4.050653e+00
    endloop
  endfacet
  facet normal 1.000000e+00 0.000000e+00 -1.753470e-14
    outer loop
      vertex   -4.000000e+00 -1.060773e+01 4.050653e+00
      vertex   -4.000000e+00 -1.064183e+01 4.000000e+00
      vertex   -4.000000e+00 -1.000000e+01 4.000000e+00
    endloop
  endfacet
  facet normal 0.000000e+00 0.000000e+00 -1.000000e+00
    outer loop
      vertex   -4.000000e+00 -1.064183e+01 4.000000e+00
      vertex   -4.054443e+00 -1.060513e+01 4.000000e+00
      vertex   -4.000000e+00 -1.000000e+01 4.000000e+00
    endloop
  endfacet
  facet normal 0.000000e+00 0.000000e+00 -1.000000e+00
    outer loop
      vertex   -4.000000e+00 -1.000000e+01 4.000000e+00
      vertex   -4.054443e+00 -1.060513e+01 4.000000e+00
      vertex   -4.107680e+00 -1.056796e+01 4.000000e+00
    endloop
  endfacet
  facet normal 0.000000e+00 0.000000e+00 -1.000000e+00
    outer loop
      vertex   -4.000000e+00 -1.000000e+01 4.000000e+00
      vertex   -4.107680e+00 -1.056796e+01 4.000000e+00
      vertex   -4.159697e+00 -1.053030e+01 4.000000e+00
    endloop
  endfacet
  facet normal 0.000000e+00 0.000000e+00 -1.000000e+00
    outer loop
      vertex   -4.159697e+00 -1.053030e+01 4.000000e+00
      vertex   -4.210485e+00 -1.049218e+01 4.000000e+00
      vertex   -4.000000e+00 -1.000000e+01 4.000000e+00
    endloop
  endfacet
  facet normal 0.000000e+00 0.000000e+00 -1.000000e+00
    outer loop
      vertex   -4.000000e+00 -1.000000e+01 4.000000e+00
      vertex   -4.210485e+00 -1.049218e+01 4.000000e+00
      vertex   -4.260031e+00 -1.045360e+01 4.000000e+00
    endloop
  endfacet
  facet normal 0.000000e+00 0.000000e+00 -1.000000e+00
    outer loop
      vertex   -4.000000e+00 -1.000000e+01 4.000000e+00
      vertex   -4.260031e+00 -1.045360e+01 4.000000e+00
      vertex   -4.308325e+00 -1.041458e+01 4.000000e+00
    endloop
  endfacet
  facet normal 0.000000e+00 0.000000e+00 -1.000000e+00
    outer loop
      vertex   -4.308325e+00 -1.041458e+01 4.000000e+00
      vertex   -4.355355e+00 -1.037510e+01 4.000000e+00
      vertex   -4.000000e+00 -1.000000e+01 4.000000e+00
    endloop
  endfacet
  facet normal 0.000000e+00 0.000000e+00 -1.000000e+00
    outer loop
      vertex   -4.000000e+00 -1.000000e+01 4.000000e+00
      vertex   -4.355355e+00 -1.037510e+01 4.000000e+00
      vertex   -4.401110e+00 -1.033520e+01 4.000000e+00
    endloop
  endfacet
  facet normal 0.000000e+00 0.000000e+00 -1.000000e+00
    outer loop
      vertex   -4.000000e+00 -1.000000e+01 4.000000e+00
      vertex   -4.401110e+00 -1.033520e+01 4.000000e+00
      vertex   -4.445578e+00 -1.029487e+01 4.000000e+00
    endloop
  endfacet
  facet normal 0.000000e+00 0.000000e+00 -1.000000e+00
    outer loop
      vertex   -4.445578e+00 -1.029487e+01 4.000000e+00
      vertex   -4.488749e+00 -1.025413e+01 4.000000e+00
      vertex   -4.000000e+00 -1.000000e+01 4.000000e+00
    endloop
  endfacet
  facet normal -7.339732e-15 1.411620e-14 -1.000000e+00
    outer loop
      vertex   -4.000000e+00 -1.000000e+01 4.000000e+00
      vertex   -4.488749e+00 -1.025413e+01 4.000000e+00
      vertex   -4.530610e+00 -1.021297e+01 4.000000e+00
    endloop
  endfacet
  facet normal 4.962169e-15 -1.653341e-14 -1.000000e+00
    outer loop
      vertex   -4.000000e+00 -1.000000e+01 4.000000e+00
      vertex   -4.530610e+00 -1.021297e+01 4.000000e+00
      vertex   -4.571150e+00 -1.017142e+01 4.000000e+00
    endloop
  endfacet
  facet normal -9.925971e-15 3.307227e-14 -1.000000e+00
    outer loop
      vertex   -4.571150e+00 -1.017142e+01 4.000000e+00
      vertex   -4.610358e+00 -1.012948e+01 4.000000e+00
      vertex   -4.000000e+00 -1.000000e+01 4.000000e+00
    endloop
  endfacet
  facet normal 5.029437e-15 -3.742887e-14 -1.000000e+00
    outer loop
      vertex   -4.000000e+00 -1.000000e+01 4.000000e+00
      vertex   -4.610358e+00 -1.012948e+01 4.000000e+00
      vertex   -4.648259e+00 -1.008711e+01 4.000000e+00
    endloop
  endfacet
  facet normal 0.000000e+00 0.000000e+00 -1.000000e+00
    outer loop
      vertex   -4.000000e+00 -1.000000e+01 4.000000e+00
      vertex   -4.648259e+00 -1.008711e+01 4.000000e+00
      vertex   -4.685129e+00 -1.004398e+01 4.000000e+00
    endloop
  endfacet
  facet normal 0.000000e+00 0.000000e+00 -1.000000e+00
    outer loop
      vertex   -4.685129e+00 -1.004398e+01 4.000000e+00
      vertex   -4.720979e+00 -1.000000e+01 4.000000e+00
      vertex   -4.000000e+00 -1.000000e+01 4.000000e+00
    endloop
  endfacet
  facet normal 0.000000e+00 1.000000e+00 0.000000e+00
    outer loop
      vertex   -4.720979e+00 -1.000000e+01 4.000000e+00
      vertex   -4.679468e+00 -1.000000e+01 4.048484e+00
      vertex   -4.000000e+00 -1.000000e+01 4.000000e+00
    endloop
  endfacet
  facet normal 0.000000e+00 1.000000e+00 0.000000e+00
    outer loop
      vertex   -4.000000e+00 -1.000000e+01 4.000000e+00
      vertex   -4.679468e+00 -1.000000e+01 4.048484e+00
      vertex   -4.637466e+00 -1.000000e+01 4.096529e+00
    endloop
  endfacet
  facet normal 0.000000e+00 1.000000e+00 0.000000e+00
    outer loop
      vertex   -4.000000e+00 -1.000000e+01 4.000000e+00
      vertex   -4.637466e+00 -1.000000e+01 4.096529e+00
      vertex   -4.594978e+00 -1.000000e+01 4.144131e+00
    endloop
  endfacet
  facet normal -0.000000e+00 1.000000e+00 0.000000e+00
    outer loop
      vertex   -4.594978e+00 -1.000000e+01 4.144131e+00
      vertex   -4.552007e+00 -1.000000e+01 4.191286e+00
      vertex   -4.000000e+00 -1.000000e+01 4.000000e+00
    endloop
  endfacet
  facet normal 0.000000e+00 1.000000e+00 0.000000e+00
    outer loop
      vertex   -4.000000e+00 -1.000000e+01 4.000000e+00
      vertex   -4.552007e+00 -1.000000e+01 4.191286e+00
      vertex   -4.508557e+00 -1.000000e+01 4.237990e+00
    endloop
  endfacet
  facet normal 0.000000e+00 1.000000e+00 0.000000e+00
    outer loop
      vertex   -4.000000e+00 -1.000000e+01 4.000000e+00
      vertex   -4.508557e+00 -1.000000e+01 4.237990e+00
      vertex   -4.464630e+00 -1.000000e+01 4.284241e+00
    endloop
  endfacet
  facet normal -0.000000e+00 1.000000e+00 0.000000e+00
    outer loop
      vertex   -4.464630e+00 -1.000000e+01 4.284241e+00
      vertex   -4.420232e+00 -1.000000e+01 4.330034e+00
      vertex   -4.000000e+00 -1.000000e+01 4.000000e+00
    endloop
  endfacet
  facet normal 0.000000e+00 1.000000e+00 0.000000e+00
    outer loop
      vertex   -4.000000e+00 -1.000000e+01 4.000000e+00
      vertex   -4.420232e+00 -1.000000e+01 4.330034e+00
      vertex   -4.375365e+00 -1.000000e+01 4.375365e+00
    endloop
  endfacet
  facet normal 0.000000e+00 1.000000e+00 0.000000e+00
    outer loop
      vertex   -4.000000e+00 -1.000000e+01 4.000000e+00
      vertex   -4.375365e+00 -1.000000e+01 4.375365e+00
      vertex   -4.330034e+00 -1.000000e+01 4.420232e+00
    endloop
  endfacet
  facet normal -0.000000e+00 1.000000e+00 0.000000e+00
    outer loop
      vertex   -4.330034e+00 -1.000000e+01 4.420232e+00
      vertex   -4.284241e+00 -1.000000e+01 4.464630e+00
      vertex   -4.000000e+00 -1.000000e+01 4.000000e+00
    endloop
  endfacet
  facet normal 0.000000e+00 1.000000e+00 0.000000e+00
    outer loop
      vertex   -4.000000e+00 -1.000000e+01 4.000000e+00
      vertex   -4.284241e+00 -1.000000e+01 4.464630e+00
      vertex   -4.237990e+00 -1.000000e+01 4.508557e+00
    endloop
  endfacet
  facet normal 0.000000e+00 1.000000e+00 0.000000e+00
    outer loop
      vertex   -4.000000e+00 -1.000000e+01 4.000000e+00
      vertex   -4.237990e+00 -1.000000e+01 4.508557e+00
      vertex   -4.191286e+00 -1.000000e+01 4.552007e+00
    endloop
  endfacet
  facet normal -0.000000e+00 1.000000e+00 0.000000e+00
    outer loop
      vertex   -4.191286e+00 -1.000000e+01 4.552007e+00
      vertex   -4.144131e+00 -1.000000e+01 4.594978e+00
      vertex   -4.000000e+00 -1.000000e+01 4.000000e+00
    endloop
  endfacet
  facet normal 0.000000e+00 1.000000e+00 0.000000e+00
    outer loop
      vertex   -4.000000e+00 -1.000000e+01 4.000000e+00
      vertex   -4.144131e+00 -1.000000e+01 4.594978e+00
      vertex   -4.096529e+00 -1.000000e+01 4.637466e+00
    endloop
  endfacet
  facet normal 0.000000e+00 1.000000e+00 0.000000e+00
    outer loop
      vertex   -4.000000e+00 -1.000000e+01 4.000000e+00
      vertex   -4.096529e+00 -1.000000e+01 4.637466e+00
      vertex   -4.048484e+00 -1.000000e+01 4.679468e+00
    endloop
  endfacet
  facet normal -0.000000e+00 1.000000e+00 0.000000e+00
    outer loop
      vertex   -4.048484e+00 -1.000000e+01 4.679468e+00
      vertex   -4.000000e+00 -1.000000e+01 4.720979e+00
      vertex   -4.000000e+00 -1.000000e+01 4.000000e+00
    endloop
  endfacet
endsolid
