solid ASCII
  facet normal 4.500457e-01 -6.679012e-02 -8.905043e-01
    outer loop
      vertex   2.000000e+00 -7.000000e+00 -4.029229e+00
      vertex   2.057835e+00 -7.000000e+00 -4.000000e+00
      vertex   2.025803e+00 -7.019495e+00 -4.014727e+00
    endloop
  endfacet
  facet normal 4.531768e-01 -7.353815e-02 -8.883822e-01
    outer loop
      vertex   2.025803e+00 -7.019495e+00 -4.014727e+00
      vertex   2.057835e+00 -7.000000e+00 -4.000000e+00
      vertex   2.054296e+00 -7.021809e+00 -4.000000e+00
    endloop
  endfacet
  facet normal 4.509052e-01 -9.553366e-02 -8.874445e-01
    outer loop
      vertex   2.025803e+00 -7.019495e+00 -4.014727e+00
      vertex   2.054296e+00 -7.021809e+00 -4.000000e+00
      vertex   2.021482e+00 -7.039888e+00 -4.014727e+00
    endloop
  endfacet
  facet normal 4.517972e-01 -9.771587e-02 -8.867530e-01
    outer loop
      vertex   2.021482e+00 -7.039888e+00 -4.014727e+00
      vertex   2.054296e+00 -7.021809e+00 -4.000000e+00
      vertex   2.049601e+00 -7.043519e+00 -4.000000e+00
    endloop
  endfacet
  facet normal 4.486605e-01 -1.182975e-01 -8.858383e-01
    outer loop
      vertex   2.021482e+00 -7.039888e+00 -4.014727e+00
      vertex   2.049601e+00 -7.043519e+00 -4.000000e+00
      vertex   2.016074e+00 -7.060398e+00 -4.014727e+00
    endloop
  endfacet
  facet normal 4.498665e-01 -1.216199e-01 -8.847761e-01
    outer loop
      vertex   2.016074e+00 -7.060398e+00 -4.014727e+00
      vertex   2.049601e+00 -7.043519e+00 -4.000000e+00
      vertex   2.043772e+00 -7.065080e+00 -4.000000e+00
    endloop
  endfacet
  facet normal 4.460744e-01 -1.410304e-01 -8.838145e-01
    outer loop
      vertex   2.016074e+00 -7.060398e+00 -4.014727e+00
      vertex   2.043772e+00 -7.065080e+00 -4.000000e+00
      vertex   2.009558e+00 -7.081007e+00 -4.014727e+00
    endloop
  endfacet
  facet normal 4.473823e-01 -1.450542e-01 -8.825012e-01
    outer loop
      vertex   2.009558e+00 -7.081007e+00 -4.014727e+00
      vertex   2.043772e+00 -7.065080e+00 -4.000000e+00
      vertex   2.036896e+00 -7.086287e+00 -4.000000e+00
    endloop
  endfacet
  facet normal 4.431677e-01 -1.637060e-01 -8.813642e-01
    outer loop
      vertex   2.009558e+00 -7.081007e+00 -4.014727e+00
      vertex   2.036896e+00 -7.086287e+00 -4.000000e+00
      vertex   2.001914e+00 -7.101701e+00 -4.014727e+00
    endloop
  endfacet
  facet normal 4.444109e-01 -1.678762e-01 -8.799526e-01
    outer loop
      vertex   2.001914e+00 -7.101701e+00 -4.014727e+00
      vertex   2.036896e+00 -7.086287e+00 -4.000000e+00
      vertex   2.029030e+00 -7.107111e+00 -4.000000e+00
    endloop
  endfacet
  facet normal 4.420238e-01 -1.778046e-01 -8.792045e-01
    outer loop
      vertex   2.001914e+00 -7.101701e+00 -4.014727e+00
      vertex   2.029030e+00 -7.107111e+00 -4.000000e+00
      vertex   2.000000e+00 -7.104874e+00 -4.015047e+00
    endloop
  endfacet
  facet normal 4.404407e-01 -1.885805e-01 -8.777525e-01
    outer loop
      vertex   2.000000e+00 -7.104874e+00 -4.015047e+00
      vertex   2.029030e+00 -7.107111e+00 -4.000000e+00
      vertex   2.000000e+00 -7.125722e+00 -4.010568e+00
    endloop
  endfacet
  facet normal 4.411642e-01 -1.901019e-01 -8.770606e-01
    outer loop
      vertex   2.000000e+00 -7.125722e+00 -4.010568e+00
      vertex   2.029030e+00 -7.107111e+00 -4.000000e+00
      vertex   2.020224e+00 -7.127545e+00 -4.000000e+00
    endloop
  endfacet
  facet normal 4.376917e-01 -2.109907e-01 -8.740188e-01
    outer loop
      vertex   2.000000e+00 -7.125722e+00 -4.010568e+00
      vertex   2.020224e+00 -7.127545e+00 -4.000000e+00
      vertex   2.000000e+00 -7.146523e+00 -4.005547e+00
    endloop
  endfacet
  facet normal 4.385874e-01 -2.121593e-01 -8.732866e-01
    outer loop
      vertex   2.000000e+00 -7.146523e+00 -4.005547e+00
      vertex   2.020224e+00 -7.127545e+00 -4.000000e+00
      vertex   2.010531e+00 -7.147584e+00 -4.000000e+00
    endloop
  endfacet
  facet normal 4.346888e-01 -2.331008e-01 -8.698906e-01
    outer loop
      vertex   2.000000e+00 -7.146523e+00 -4.005547e+00
      vertex   2.010531e+00 -7.147584e+00 -4.000000e+00
      vertex   2.000000e+00 -7.167222e+00 -4.000000e+00
    endloop
  endfacet
  facet normal 4.263974e-01 -1.673973e-01 -8.889113e-01
    outer loop
      vertex   2.000000e+00 -7.104874e+00 -4.015047e+00
      vertex   2.000000e+00 -7.083980e+00 -4.018982e+00
      vertex   2.001914e+00 -7.101701e+00 -4.014727e+00
    endloop
  endfacet
  facet normal 4.432779e-01 -1.637467e-01 -8.813011e-01
    outer loop
      vertex   2.001914e+00 -7.101701e+00 -4.014727e+00
      vertex   2.000000e+00 -7.083980e+00 -4.018982e+00
      vertex   2.009558e+00 -7.081007e+00 -4.014727e+00
    endloop
  endfacet
  facet normal 4.394047e-01 -1.434877e-01 -8.867552e-01
    outer loop
      vertex   2.000000e+00 -7.083980e+00 -4.018982e+00
      vertex   2.000000e+00 -7.063044e+00 -4.022370e+00
      vertex   2.009558e+00 -7.081007e+00 -4.014727e+00
    endloop
  endfacet
  facet normal 4.439126e-01 -1.403469e-01 -8.850109e-01
    outer loop
      vertex   2.009558e+00 -7.081007e+00 -4.014727e+00
      vertex   2.000000e+00 -7.063044e+00 -4.022370e+00
      vertex   2.016074e+00 -7.060398e+00 -4.014727e+00
    endloop
  endfacet
  facet normal 4.423747e-01 -1.202638e-01 -8.887301e-01
    outer loop
      vertex   2.000000e+00 -7.063044e+00 -4.022370e+00
      vertex   2.000000e+00 -7.042067e+00 -4.025208e+00
      vertex   2.016074e+00 -7.060398e+00 -4.014727e+00
    endloop
  endfacet
  facet normal 4.450717e-01 -1.173512e-01 -8.877724e-01
    outer loop
      vertex   2.016074e+00 -7.060398e+00 -4.014727e+00
      vertex   2.000000e+00 -7.042067e+00 -4.025208e+00
      vertex   2.021482e+00 -7.039888e+00 -4.014727e+00
    endloop
  endfacet
  facet normal 4.443718e-01 -9.692709e-02 -8.905834e-01
    outer loop
      vertex   2.000000e+00 -7.042067e+00 -4.025208e+00
      vertex   2.000000e+00 -7.021052e+00 -4.027495e+00
      vertex   2.021482e+00 -7.039888e+00 -4.014727e+00
    endloop
  endfacet
  facet normal 4.461179e-01 -9.451935e-02 -8.899691e-01
    outer loop
      vertex   2.021482e+00 -7.039888e+00 -4.014727e+00
      vertex   2.000000e+00 -7.021052e+00 -4.027495e+00
      vertex   2.025803e+00 -7.019495e+00 -4.014727e+00
    endloop
  endfacet
  facet normal 4.458865e-01 -7.345984e-02 -8.920700e-01
    outer loop
      vertex   2.000000e+00 -7.021052e+00 -4.027495e+00
      vertex   2.000000e+00 -7.000000e+00 -4.029229e+00
      vertex   2.025803e+00 -7.019495e+00 -4.014727e+00
    endloop
  endfacet
  facet normal -1.000000e+00 1.054753e-14 0.000000e+00
    outer loop
      vertex   2.000000e+00 -7.000000e+00 -4.029229e+00
      vertex   2.000000e+00 -7.021052e+00 -4.027495e+00
      vertex   2.000000e+00 -7.000000e+00 -4.000000e+00
    endloop
  endfacet
  facet normal -1.000000e+00 5.932970e-14 -3.735000e-14
    outer loop
      vertex   2.000000e+00 -7.000000e+00 -4.000000e+00
      vertex   2.000000e+00 -7.021052e+00 -4.027495e+00
      vertex   2.000000e+00 -7.042067e+00 -4.025208e+00
    endloop
  endfacet
  facet normal -1.000000e+00 4.998252e-14 -2.175147e-14
    outer loop
      vertex   2.000000e+00 -7.000000e+00 -4.000000e+00
      vertex   2.000000e+00 -7.042067e+00 -4.025208e+00
      vertex   2.000000e+00 -7.063044e+00 -4.022370e+00
    endloop
  endfacet
  facet normal -1.000000e+00 7.150940e-14 -8.242077e-14
    outer loop
      vertex   2.000000e+00 -7.063044e+00 -4.022370e+00
      vertex   2.000000e+00 -7.083980e+00 -4.018982e+00
      vertex   2.000000e+00 -7.000000e+00 -4.000000e+00
    endloop
  endfacet
  facet normal -1.000000e+00 6.461527e-14 -5.191934e-14
    outer loop
      vertex   2.000000e+00 -7.000000e+00 -4.000000e+00
      vertex   2.000000e+00 -7.083980e+00 -4.018982e+00
      vertex   2.000000e+00 -7.104874e+00 -4.015047e+00
    endloop
  endfacet
  facet normal -1.000000e+00 5.986345e-14 -1.880090e-14
    outer loop
      vertex   2.000000e+00 -7.000000e+00 -4.000000e+00
      vertex   2.000000e+00 -7.104874e+00 -4.015047e+00
      vertex   2.000000e+00 -7.125722e+00 -4.010568e+00
    endloop
  endfacet
  facet normal -1.000000e+00 4.598696e-14 1.462797e-13
    outer loop
      vertex   2.000000e+00 -7.125722e+00 -4.010568e+00
      vertex   2.000000e+00 -7.146523e+00 -4.005547e+00
      vertex   2.000000e+00 -7.000000e+00 -4.000000e+00
    endloop
  endfacet
  facet normal -1.000000e+00 0.000000e+00 1.361109e-12
    outer loop
      vertex   2.000000e+00 -7.000000e+00 -4.000000e+00
      vertex   2.000000e+00 -7.146523e+00 -4.005547e+00
      vertex   2.000000e+00 -7.167222e+00 -4.000000e+00
    endloop
  endfacet
  facet normal 0.000000e+00 0.000000e+00 1.000000e+00
    outer loop
      vertex   2.000000e+00 -7.167222e+00 -4.000000e+00
      vertex   2.010531e+00 -7.147584e+00 -4.000000e+00
      vertex   2.000000e+00 -7.000000e+00 -4.000000e+00
    endloop
  endfacet
  facet normal 0.000000e+00 0.000000e+00 1.000000e+00
    outer loop
      vertex   2.000000e+00 -7.000000e+00 -4.000000e+00
      vertex   2.010531e+00 -7.147584e+00 -4.000000e+00
      vertex   2.020224e+00 -7.127545e+00 -4.000000e+00
    endloop
  endfacet
  facet normal 1.474698e-13 2.338367e-14 1.000000e+00
    outer loop
      vertex   2.000000e+00 -7.000000e+00 -4.000000e+00
      vertex   2.020224e+00 -7.127545e+00 -4.000000e+00
      vertex   2.029030e+00 -7.107111e+00 -4.000000e+00
    endloop
  endfacet
  facet normal -1.059223e-13 -4.529183e-14 1.000000e+00
    outer loop
      vertex   2.029030e+00 -7.107111e+00 -4.000000e+00
      vertex   2.036896e+00 -7.086287e+00 -4.000000e+00
      vertex   2.000000e+00 -7.000000e+00 -4.000000e+00
    endloop
  endfacet
  facet normal 0.000000e+00 0.000000e+00 1.000000e+00
    outer loop
      vertex   2.000000e+00 -7.000000e+00 -4.000000e+00
      vertex   2.036896e+00 -7.086287e+00 -4.000000e+00
      vertex   2.043772e+00 -7.065080e+00 -4.000000e+00
    endloop
  endfacet
  facet normal 0.000000e+00 0.000000e+00 1.000000e+00
    outer loop
      vertex   2.000000e+00 -7.000000e+00 -4.000000e+00
      vertex   2.043772e+00 -7.065080e+00 -4.000000e+00
      vertex   2.049601e+00 -7.043519e+00 -4.000000e+00
    endloop
  endfacet
  facet normal 0.000000e+00 -0.000000e+00 1.000000e+00
    outer loop
      vertex   2.049601e+00 -7.043519e+00 -4.000000e+00
      vertex   2.054296e+00 -7.021809e+00 -4.000000e+00
      vertex   2.000000e+00 -7.000000e+00 -4.000000e+00
    endloop
  endfacet
  facet normal -0.000000e+00 0.000000e+00 1.000000e+00
    outer loop
      vertex   2.000000e+00 -7.000000e+00 -4.000000e+00
      vertex   2.054296e+00 -7.021809e+00 -4.000000e+00
      vertex   2.057835e+00 -7.000000e+00 -4.000000e+00
    endloop
  endfacet
  facet normal 0.000000e+00 1.000000e+00 0.000000e+00
    outer loop
      vertex   2.057835e+00 -7.000000e+00 -4.000000e+00
      vertex   2.000000e+00 -7.000000e+00 -4.029229e+00
      vertex   2.000000e+00 -7.000000e+00 -4.000000e+00
    endloop
  endfacet
endsolid
