solid ASCII
  facet normal 1.828184e-01 7.093974e-01 -6.806855e-01
    outer loop
      vertex   1.000000e+00 -6.107178e+00 -3.961868e+00
      vertex   1.000000e+00 -6.143766e+00 -4.000000e+00
      vertex   9.868031e-01 -6.122118e+00 -3.980982e+00
    endloop
  endfacet
  facet normal 1.676877e-01 7.063490e-01 -6.877150e-01
    outer loop
      vertex   9.868031e-01 -6.122118e+00 -3.980982e+00
      vertex   1.000000e+00 -6.143766e+00 -4.000000e+00
      vertex   9.423525e-01 -6.130081e+00 -4.000000e+00
    endloop
  endfacet
  facet normal 1.650514e-01 7.110322e-01 -6.835139e-01
    outer loop
      vertex   9.868031e-01 -6.122118e+00 -3.980982e+00
      vertex   9.423525e-01 -6.130081e+00 -4.000000e+00
      vertex   9.557072e-01 -6.114899e+00 -3.980982e+00
    endloop
  endfacet
  facet normal 1.590715e-01 7.140825e-01 -6.817496e-01
    outer loop
      vertex   9.557072e-01 -6.114899e+00 -3.980982e+00
      vertex   9.423525e-01 -6.130081e+00 -4.000000e+00
      vertex   9.244267e-01 -6.107931e+00 -3.980982e+00
    endloop
  endfacet
  facet normal 1.607680e-01 7.216984e-01 -6.732793e-01
    outer loop
      vertex   9.557072e-01 -6.114899e+00 -3.980982e+00
      vertex   9.244267e-01 -6.107931e+00 -3.980982e+00
      vertex   9.404491e-01 -6.093423e+00 -3.961605e+00
    endloop
  endfacet
  facet normal 1.548706e-01 7.251291e-01 -6.709716e-01
    outer loop
      vertex   9.404491e-01 -6.093423e+00 -3.961605e+00
      vertex   9.244267e-01 -6.107931e+00 -3.980982e+00
      vertex   8.929683e-01 -6.101212e+00 -3.980982e+00
    endloop
  endfacet
  facet normal 1.548700e-01 7.251302e-01 -6.709705e-01
    outer loop
      vertex   9.404491e-01 -6.093423e+00 -3.961605e+00
      vertex   8.929683e-01 -6.101212e+00 -3.980982e+00
      vertex   9.084369e-01 -6.086586e+00 -3.961605e+00
    endloop
  endfacet
  facet normal 1.490029e-01 7.283993e-01 -6.687545e-01
    outer loop
      vertex   9.084369e-01 -6.086586e+00 -3.961605e+00
      vertex   8.929683e-01 -6.101212e+00 -3.980982e+00
      vertex   8.613716e-01 -6.094749e+00 -3.980982e+00
    endloop
  endfacet
  facet normal 1.490023e-01 7.284004e-01 -6.687535e-01
    outer loop
      vertex   9.084369e-01 -6.086586e+00 -3.961605e+00
      vertex   8.613716e-01 -6.094749e+00 -3.980982e+00
      vertex   8.763011e-01 -6.080012e+00 -3.961605e+00
    endloop
  endfacet
  facet normal 1.431661e-01 7.315148e-01 -6.666255e-01
    outer loop
      vertex   8.763011e-01 -6.080012e+00 -3.961605e+00
      vertex   8.613716e-01 -6.094749e+00 -3.980982e+00
      vertex   8.440058e-01 -6.073691e+00 -3.961605e+00
    endloop
  endfacet
  facet normal 1.442086e-01 7.368415e-01 -6.605062e-01
    outer loop
      vertex   8.763011e-01 -6.080012e+00 -3.961605e+00
      vertex   8.440058e-01 -6.073691e+00 -3.961605e+00
      vertex   8.511762e-01 -6.066289e+00 -3.951781e+00
    endloop
  endfacet
  facet normal 1.354496e-01 7.412424e-01 -6.574291e-01
    outer loop
      vertex   8.511762e-01 -6.066289e+00 -3.951781e+00
      vertex   8.440058e-01 -6.073691e+00 -3.961605e+00
      vertex   7.856660e-01 -6.054318e+00 -3.951781e+00
    endloop
  endfacet
  facet normal 1.360861e-01 7.447254e-01 -6.533488e-01
    outer loop
      vertex   8.511762e-01 -6.066289e+00 -3.951781e+00
      vertex   7.856660e-01 -6.054318e+00 -3.951781e+00
      vertex   7.922724e-01 -6.046829e+00 -3.941868e+00
    endloop
  endfacet
  facet normal 1.244405e-01 7.500281e-01 -6.495940e-01
    outer loop
      vertex   7.922724e-01 -6.046829e+00 -3.941868e+00
      vertex   7.856660e-01 -6.054318e+00 -3.951781e+00
      vertex   7.258128e-01 -6.035802e+00 -3.941868e+00
    endloop
  endfacet
  facet normal 1.250083e-01 7.534505e-01 -6.455116e-01
    outer loop
      vertex   7.922724e-01 -6.046829e+00 -3.941868e+00
      vertex   7.258128e-01 -6.035802e+00 -3.941868e+00
      vertex   7.318538e-01 -6.028235e+00 -3.931866e+00
    endloop
  endfacet
  facet normal 1.134371e-01 7.581805e-01 -6.421016e-01
    outer loop
      vertex   7.318538e-01 -6.028235e+00 -3.931866e+00
      vertex   7.258128e-01 -6.035802e+00 -3.941868e+00
      vertex   6.645590e-01 -6.018166e+00 -3.931866e+00
    endloop
  endfacet
  facet normal 1.139402e-01 7.615430e-01 -6.380203e-01
    outer loop
      vertex   7.318538e-01 -6.028235e+00 -3.931866e+00
      vertex   6.645590e-01 -6.018166e+00 -3.931866e+00
      vertex   6.700340e-01 -6.010531e+00 -3.921774e+00
    endloop
  endfacet
  facet normal 1.024495e-01 7.657279e-01 -6.349527e-01
    outer loop
      vertex   6.700340e-01 -6.010531e+00 -3.921774e+00
      vertex   6.645590e-01 -6.018166e+00 -3.931866e+00
      vertex   6.020185e-01 -6.001431e+00 -3.921774e+00
    endloop
  endfacet
  facet normal 1.017916e-01 7.608101e-01 -6.409418e-01
    outer loop
      vertex   6.700340e-01 -6.010531e+00 -3.921774e+00
      vertex   6.020185e-01 -6.001431e+00 -3.921774e+00
      vertex   6.290960e-01 -6.000000e+00 -3.915776e+00
    endloop
  endfacet
  facet normal 9.228761e-02 7.907243e-01 -6.051761e-01
    outer loop
      vertex   6.290960e-01 -6.000000e+00 -3.915776e+00
      vertex   6.020185e-01 -6.001431e+00 -3.921774e+00
      vertex   5.666452e-01 -6.000000e+00 -3.925299e+00
    endloop
  endfacet
  facet normal 9.415570e-02 7.684274e-01 -6.329724e-01
    outer loop
      vertex   5.666452e-01 -6.000000e+00 -3.925299e+00
      vertex   6.020185e-01 -6.001431e+00 -3.921774e+00
      vertex   5.970994e-01 -6.009141e+00 -3.931866e+00
    endloop
  endfacet
  facet normal 9.016111e-02 7.615033e-01 -6.418596e-01
    outer loop
      vertex   5.666452e-01 -6.000000e+00 -3.925299e+00
      vertex   5.970994e-01 -6.009141e+00 -3.931866e+00
      vertex   5.295888e-01 -6.001148e+00 -3.931866e+00
    endloop
  endfacet
  facet normal 9.070187e-02 7.660706e-01 -6.363246e-01
    outer loop
      vertex   5.295888e-01 -6.001148e+00 -3.931866e+00
      vertex   5.970994e-01 -6.009141e+00 -3.931866e+00
      vertex   5.921707e-01 -6.016866e+00 -3.941868e+00
    endloop
  endfacet
  facet normal 9.070187e-02 7.660706e-01 -6.363246e-01
    outer loop
      vertex   5.295888e-01 -6.001148e+00 -3.931866e+00
      vertex   5.921707e-01 -6.016866e+00 -3.941868e+00
      vertex   5.252174e-01 -6.008938e+00 -3.941868e+00
    endloop
  endfacet
  facet normal 9.030144e-02 7.626886e-01 -6.404310e-01
    outer loop
      vertex   5.252174e-01 -6.008938e+00 -3.941868e+00
      vertex   5.921707e-01 -6.016866e+00 -3.941868e+00
      vertex   5.872329e-01 -6.024605e+00 -3.951781e+00
    endloop
  endfacet
  facet normal 9.030144e-02 7.626886e-01 -6.404310e-01
    outer loop
      vertex   5.252174e-01 -6.008938e+00 -3.941868e+00
      vertex   5.872329e-01 -6.024605e+00 -3.951781e+00
      vertex   5.208379e-01 -6.016744e+00 -3.951781e+00
    endloop
  endfacet
  facet normal 8.989554e-02 7.592603e-01 -6.445484e-01
    outer loop
      vertex   5.208379e-01 -6.016744e+00 -3.951781e+00
      vertex   5.872329e-01 -6.024605e+00 -3.951781e+00
      vertex   5.822859e-01 -6.032358e+00 -3.961605e+00
    endloop
  endfacet
  facet normal 8.989554e-02 7.592603e-01 -6.445484e-01
    outer loop
      vertex   5.208379e-01 -6.016744e+00 -3.951781e+00
      vertex   5.822859e-01 -6.032358e+00 -3.961605e+00
      vertex   5.164503e-01 -6.024564e+00 -3.961605e+00
    endloop
  endfacet
  facet normal 8.927638e-02 7.540309e-01 -6.507436e-01
    outer loop
      vertex   5.164503e-01 -6.024564e+00 -3.961605e+00
      vertex   5.822859e-01 -6.032358e+00 -3.961605e+00
      vertex   5.723656e-01 -6.047907e+00 -3.980982e+00
    endloop
  endfacet
  facet normal 8.927638e-02 7.540309e-01 -6.507436e-01
    outer loop
      vertex   5.164503e-01 -6.024564e+00 -3.961605e+00
      vertex   5.723656e-01 -6.047907e+00 -3.980982e+00
      vertex   5.076515e-01 -6.040245e+00 -3.980982e+00
    endloop
  endfacet
  facet normal 8.863574e-02 7.486200e-01 -6.570478e-01
    outer loop
      vertex   5.076515e-01 -6.040245e+00 -3.980982e+00
      vertex   5.723656e-01 -6.047907e+00 -3.980982e+00
      vertex   5.140485e-01 -6.057694e+00 -4.000000e+00
    endloop
  endfacet
  facet normal 7.998552e-02 7.477431e-01 -6.591529e-01
    outer loop
      vertex   5.076515e-01 -6.040245e+00 -3.980982e+00
      vertex   5.140485e-01 -6.057694e+00 -4.000000e+00
      vertex   4.505139e-01 -6.050898e+00 -4.000000e+00
    endloop
  endfacet
  facet normal 1.566247e-01 7.132951e-01 -6.831389e-01
    outer loop
      vertex   9.423525e-01 -6.130081e+00 -4.000000e+00
      vertex   8.837097e-01 -6.117204e+00 -4.000000e+00
      vertex   9.244267e-01 -6.107931e+00 -3.980982e+00
    endloop
  endfacet
  facet normal 1.534024e-01 7.182550e-01 -6.786585e-01
    outer loop
      vertex   9.244267e-01 -6.107931e+00 -3.980982e+00
      vertex   8.837097e-01 -6.117204e+00 -4.000000e+00
      vertex   8.929683e-01 -6.101212e+00 -3.980982e+00
    endloop
  endfacet
  facet normal 1.473864e-01 7.204968e-01 -6.776147e-01
    outer loop
      vertex   8.929683e-01 -6.101212e+00 -3.980982e+00
      vertex   8.837097e-01 -6.117204e+00 -4.000000e+00
      vertex   8.613716e-01 -6.094749e+00 -3.980982e+00
    endloop
  endfacet
  facet normal 1.455946e-01 7.197308e-01 -6.788149e-01
    outer loop
      vertex   8.613716e-01 -6.094749e+00 -3.980982e+00
      vertex   8.837097e-01 -6.117204e+00 -4.000000e+00
      vertex   8.241131e-01 -6.105148e+00 -4.000000e+00
    endloop
  endfacet
  facet normal 1.418465e-01 7.247724e-01 -6.742288e-01
    outer loop
      vertex   8.613716e-01 -6.094749e+00 -3.980982e+00
      vertex   8.241131e-01 -6.105148e+00 -4.000000e+00
      vertex   8.296265e-01 -6.088536e+00 -3.980982e+00
    endloop
  endfacet
  facet normal 1.347600e-01 7.265716e-01 -6.737459e-01
    outer loop
      vertex   8.296265e-01 -6.088536e+00 -3.980982e+00
      vertex   8.241131e-01 -6.105148e+00 -4.000000e+00
      vertex   7.636042e-01 -6.093925e+00 -4.000000e+00
    endloop
  endfacet
  facet normal 1.334241e-01 7.301581e-01 -6.701248e-01
    outer loop
      vertex   8.296265e-01 -6.088536e+00 -3.980982e+00
      vertex   7.636042e-01 -6.093925e+00 -4.000000e+00
      vertex   7.657748e-01 -6.076868e+00 -3.980982e+00
    endloop
  endfacet
  facet normal 1.237039e-01 7.316544e-01 -6.703575e-01
    outer loop
      vertex   7.657748e-01 -6.076868e+00 -3.980982e+00
      vertex   7.636042e-01 -6.093925e+00 -4.000000e+00
      vertex   7.022246e-01 -6.083548e+00 -4.000000e+00
    endloop
  endfacet
  facet normal 1.220569e-01 7.356616e-01 -6.662613e-01
    outer loop
      vertex   7.657748e-01 -6.076868e+00 -3.980982e+00
      vertex   7.022246e-01 -6.083548e+00 -4.000000e+00
      vertex   7.015380e-01 -6.066210e+00 -3.980982e+00
    endloop
  endfacet
  facet normal 1.126864e-01 7.363122e-01 -6.671927e-01
    outer loop
      vertex   7.015380e-01 -6.066210e+00 -3.980982e+00
      vertex   7.022246e-01 -6.083548e+00 -4.000000e+00
      vertex   6.400180e-01 -6.074028e+00 -4.000000e+00
    endloop
  endfacet
  facet normal 1.107973e-01 7.405373e-01 -6.628185e-01
    outer loop
      vertex   7.015380e-01 -6.066210e+00 -3.980982e+00
      vertex   6.400180e-01 -6.074028e+00 -4.000000e+00
      vertex   6.370308e-01 -6.056559e+00 -3.980982e+00
    endloop
  endfacet
  facet normal 1.017235e-01 7.405510e-01 -6.642563e-01
    outer loop
      vertex   6.370308e-01 -6.056559e+00 -3.980982e+00
      vertex   6.400180e-01 -6.074028e+00 -4.000000e+00
      vertex   5.772325e-01 -6.065403e+00 -4.000000e+00
    endloop
  endfacet
  facet normal 9.965571e-02 7.448463e-01 -6.597520e-01
    outer loop
      vertex   6.370308e-01 -6.056559e+00 -3.980982e+00
      vertex   5.772325e-01 -6.065403e+00 -4.000000e+00
      vertex   5.723656e-01 -6.047907e+00 -3.980982e+00
    endloop
  endfacet
  facet normal 9.082422e-02 7.443642e-01 -6.615686e-01
    outer loop
      vertex   5.723656e-01 -6.047907e+00 -3.980982e+00
      vertex   5.772325e-01 -6.065403e+00 -4.000000e+00
      vertex   5.140485e-01 -6.057694e+00 -4.000000e+00
    endloop
  endfacet
  facet normal 7.773813e-02 7.518700e-01 -6.547124e-01
    outer loop
      vertex   5.076515e-01 -6.040245e+00 -3.980982e+00
      vertex   4.505139e-01 -6.050898e+00 -4.000000e+00
      vertex   4.429946e-01 -6.033560e+00 -3.980982e+00
    endloop
  endfacet
  facet normal 6.920136e-02 7.506941e-01 -6.570156e-01
    outer loop
      vertex   4.429946e-01 -6.033560e+00 -3.980982e+00
      vertex   4.505139e-01 -6.050898e+00 -4.000000e+00
      vertex   3.866769e-01 -6.045013e+00 -4.000000e+00
    endloop
  endfacet
  facet normal 6.696391e-02 7.546098e-01 -6.527479e-01
    outer loop
      vertex   4.429946e-01 -6.033560e+00 -3.980982e+00
      vertex   3.866769e-01 -6.045013e+00 -4.000000e+00
      vertex   3.784968e-01 -6.027836e+00 -3.980982e+00
    endloop
  endfacet
  facet normal 5.846607e-02 7.532284e-01 -6.551555e-01
    outer loop
      vertex   3.784968e-01 -6.027836e+00 -3.980982e+00
      vertex   3.866769e-01 -6.045013e+00 -4.000000e+00
      vertex   3.225857e-01 -6.040038e+00 -4.000000e+00
    endloop
  endfacet
  facet normal 5.631418e-02 7.568530e-01 -6.511545e-01
    outer loop
      vertex   3.784968e-01 -6.027836e+00 -3.980982e+00
      vertex   3.225857e-01 -6.040038e+00 -4.000000e+00
      vertex   3.142560e-01 -6.023057e+00 -3.980982e+00
    endloop
  endfacet
  facet normal 4.777385e-02 7.553621e-01 -6.535639e-01
    outer loop
      vertex   3.142560e-01 -6.023057e+00 -3.980982e+00
      vertex   3.225857e-01 -6.040038e+00 -4.000000e+00
      vertex   2.582884e-01 -6.035971e+00 -4.000000e+00
    endloop
  endfacet
  facet normal 4.578994e-02 7.586115e-01 -6.499322e-01
    outer loop
      vertex   3.142560e-01 -6.023057e+00 -3.980982e+00
      vertex   2.582884e-01 -6.035971e+00 -4.000000e+00
      vertex   2.503654e-01 -6.019200e+00 -3.980982e+00
    endloop
  endfacet
  facet normal 3.711844e-02 7.571156e-01 -6.522256e-01
    outer loop
      vertex   2.503654e-01 -6.019200e+00 -3.980982e+00
      vertex   2.582884e-01 -6.035971e+00 -4.000000e+00
      vertex   1.938330e-01 -6.032811e+00 -4.000000e+00
    endloop
  endfacet
  facet normal 3.539216e-02 7.598941e-01 -6.490826e-01
    outer loop
      vertex   2.503654e-01 -6.019200e+00 -3.980982e+00
      vertex   1.938330e-01 -6.032811e+00 -4.000000e+00
      vertex   1.869137e-01 -6.016245e+00 -3.980982e+00
    endloop
  endfacet
  facet normal 2.649278e-02 7.585138e-01 -6.511182e-01
    outer loop
      vertex   1.869137e-01 -6.016245e+00 -3.980982e+00
      vertex   1.938330e-01 -6.032811e+00 -4.000000e+00
      vertex   1.292678e-01 -6.030556e+00 -4.000000e+00
    endloop
  endfacet
  facet normal 2.513758e-02 7.606798e-01 -6.486403e-01
    outer loop
      vertex   1.869137e-01 -6.016245e+00 -3.980982e+00
      vertex   1.292678e-01 -6.030556e+00 -4.000000e+00
      vertex   1.241879e-01 -6.014172e+00 -3.980982e+00
    endloop
  endfacet
  facet normal 1.588906e-02 7.596079e-01 -6.501872e-01
    outer loop
      vertex   1.241879e-01 -6.014172e+00 -3.980982e+00
      vertex   1.292678e-01 -6.030556e+00 -4.000000e+00
      vertex   6.464072e-02 -6.029205e+00 -4.000000e+00
    endloop
  endfacet
  facet normal 1.499699e-02 7.610428e-01 -6.485282e-01
    outer loop
      vertex   1.241879e-01 -6.014172e+00 -3.980982e+00
      vertex   6.464072e-02 -6.029205e+00 -4.000000e+00
      vertex   6.165529e-02 -6.012940e+00 -3.980982e+00
    endloop
  endfacet
  facet normal 5.296184e-03 7.603665e-01 -6.494726e-01
    outer loop
      vertex   6.165529e-02 -6.012940e+00 -3.980982e+00
      vertex   6.464072e-02 -6.029205e+00 -4.000000e+00
      vertex   0.000000e+00 -6.028754e+00 -4.000000e+00
    endloop
  endfacet
  facet normal 3.260286e-03 7.636597e-01 -6.456108e-01
    outer loop
      vertex   6.165529e-02 -6.012940e+00 -3.980982e+00
      vertex   0.000000e+00 -6.028754e+00 -4.000000e+00
      vertex   0.000000e+00 -6.000000e+00 -3.965988e+00
    endloop
  endfacet
  facet normal 5.103993e-03 7.673470e-01 -6.412117e-01
    outer loop
      vertex   0.000000e+00 -6.000000e+00 -3.965988e+00
      vertex   6.313398e-02 -6.000000e+00 -3.965485e+00
      vertex   6.165529e-02 -6.012940e+00 -3.980982e+00
    endloop
  endfacet
  facet normal 1.511042e-02 7.667992e-01 -6.417091e-01
    outer loop
      vertex   6.165529e-02 -6.012940e+00 -3.980982e+00
      vertex   6.313398e-02 -6.000000e+00 -3.965485e+00
      vertex   1.241879e-01 -6.014172e+00 -3.980982e+00
    endloop
  endfacet
  facet normal 1.531617e-02 7.671811e-01 -6.412477e-01
    outer loop
      vertex   6.313398e-02 -6.000000e+00 -3.965485e+00
      vertex   1.262611e-01 -6.000000e+00 -3.963978e+00
      vertex   1.241879e-01 -6.014172e+00 -3.980982e+00
    endloop
  endfacet
  facet normal 2.532738e-02 7.664231e-01 -6.418365e-01
    outer loop
      vertex   1.241879e-01 -6.014172e+00 -3.980982e+00
      vertex   1.262611e-01 -6.000000e+00 -3.963978e+00
      vertex   1.869137e-01 -6.016245e+00 -3.980982e+00
    endloop
  endfacet
  facet normal 2.554386e-02 7.667783e-01 -6.414036e-01
    outer loop
      vertex   1.262611e-01 -6.000000e+00 -3.963978e+00
      vertex   1.893693e-01 -6.000000e+00 -3.961464e+00
      vertex   1.869137e-01 -6.016245e+00 -3.980982e+00
    endloop
  endfacet
  facet normal 2.917794e-02 7.664763e-01 -6.416095e-01
    outer loop
      vertex   1.869137e-01 -6.016245e+00 -3.980982e+00
      vertex   1.893693e-01 -6.000000e+00 -3.961464e+00
      vertex   1.901533e-01 -6.000147e+00 -3.961605e+00
    endloop
  endfacet
  facet normal 3.566623e-02 7.657785e-01 -6.421146e-01
    outer loop
      vertex   1.869137e-01 -6.016245e+00 -3.980982e+00
      vertex   1.901533e-01 -6.000147e+00 -3.961605e+00
      vertex   2.503654e-01 -6.019200e+00 -3.980982e+00
    endloop
  endfacet
  facet normal 3.566623e-02 7.657785e-01 -6.421146e-01
    outer loop
      vertex   2.503654e-01 -6.019200e+00 -3.980982e+00
      vertex   1.901533e-01 -6.000147e+00 -3.961605e+00
      vertex   2.547048e-01 -6.003154e+00 -3.961605e+00
    endloop
  endfacet
  facet normal 4.613254e-02 7.642874e-01 -6.432236e-01
    outer loop
      vertex   2.503654e-01 -6.019200e+00 -3.980982e+00
      vertex   2.547048e-01 -6.003154e+00 -3.961605e+00
      vertex   3.142560e-01 -6.023057e+00 -3.980982e+00
    endloop
  endfacet
  facet normal 4.613254e-02 7.642874e-01 -6.432236e-01
    outer loop
      vertex   3.142560e-01 -6.023057e+00 -3.980982e+00
      vertex   2.547048e-01 -6.003154e+00 -3.961605e+00
      vertex   3.197027e-01 -6.007077e+00 -3.961605e+00
    endloop
  endfacet
  facet normal 5.672580e-02 7.623851e-01 -6.446326e-01
    outer loop
      vertex   3.142560e-01 -6.023057e+00 -3.980982e+00
      vertex   3.197027e-01 -6.007077e+00 -3.961605e+00
      vertex   3.784968e-01 -6.027836e+00 -3.980982e+00
    endloop
  endfacet
  facet normal 5.672580e-02 7.623851e-01 -6.446326e-01
    outer loop
      vertex   3.784968e-01 -6.027836e+00 -3.980982e+00
      vertex   3.197027e-01 -6.007077e+00 -3.961605e+00
      vertex   3.850570e-01 -6.011940e+00 -3.961605e+00
    endloop
  endfacet
  facet normal 6.744705e-02 7.600542e-01 -6.463501e-01
    outer loop
      vertex   3.784968e-01 -6.027836e+00 -3.980982e+00
      vertex   3.850570e-01 -6.011940e+00 -3.961605e+00
      vertex   4.429946e-01 -6.033560e+00 -3.980982e+00
    endloop
  endfacet
  facet normal 6.744705e-02 7.600542e-01 -6.463501e-01
    outer loop
      vertex   4.429946e-01 -6.033560e+00 -3.980982e+00
      vertex   3.850570e-01 -6.011940e+00 -3.961605e+00
      vertex   4.506727e-01 -6.017763e+00 -3.961605e+00
    endloop
  endfacet
  facet normal 7.829709e-02 7.572761e-01 -6.483845e-01
    outer loop
      vertex   4.429946e-01 -6.033560e+00 -3.980982e+00
      vertex   4.506727e-01 -6.017763e+00 -3.961605e+00
      vertex   5.076515e-01 -6.040245e+00 -3.980982e+00
    endloop
  endfacet
  facet normal 7.829709e-02 7.572761e-01 -6.483845e-01
    outer loop
      vertex   5.076515e-01 -6.040245e+00 -3.980982e+00
      vertex   4.506727e-01 -6.017763e+00 -3.961605e+00
      vertex   5.164503e-01 -6.024564e+00 -3.961605e+00
    endloop
  endfacet
  facet normal 3.483894e-02 7.802659e-01 -6.244769e-01
    outer loop
      vertex   1.893693e-01 -6.000000e+00 -3.961464e+00
      vertex   2.524465e-01 -6.000000e+00 -3.957945e+00
      vertex   1.901533e-01 -6.000147e+00 -3.961605e+00
    endloop
  endfacet
  facet normal 3.576108e-02 7.678151e-01 -6.396726e-01
    outer loop
      vertex   1.901533e-01 -6.000147e+00 -3.961605e+00
      vertex   2.524465e-01 -6.000000e+00 -3.957945e+00
      vertex   2.547048e-01 -6.003154e+00 -3.961605e+00
    endloop
  endfacet
  facet normal 4.564548e-02 7.704599e-01 -6.358522e-01
    outer loop
      vertex   2.524465e-01 -6.000000e+00 -3.957945e+00
      vertex   3.154809e-01 -6.000000e+00 -3.953420e+00
      vertex   2.547048e-01 -6.003154e+00 -3.961605e+00
    endloop
  endfacet
  facet normal 4.631474e-02 7.673059e-01 -6.396066e-01
    outer loop
      vertex   2.547048e-01 -6.003154e+00 -3.961605e+00
      vertex   3.154809e-01 -6.000000e+00 -3.953420e+00
      vertex   3.197027e-01 -6.007077e+00 -3.961605e+00
    endloop
  endfacet
  facet normal 5.589265e-02 7.693231e-01 -6.364102e-01
    outer loop
      vertex   3.154809e-01 -6.000000e+00 -3.953420e+00
      vertex   3.784507e-01 -6.000000e+00 -3.947890e+00
      vertex   3.197027e-01 -6.007077e+00 -3.961605e+00
    endloop
  endfacet
  facet normal 5.702735e-02 7.664379e-01 -6.397819e-01
    outer loop
      vertex   3.197027e-01 -6.007077e+00 -3.961605e+00
      vertex   3.784507e-01 -6.000000e+00 -3.947890e+00
      vertex   3.850570e-01 -6.011940e+00 -3.961605e+00
    endloop
  endfacet
  facet normal 5.990906e-02 7.669812e-01 -6.388668e-01
    outer loop
      vertex   3.850570e-01 -6.011940e+00 -3.961605e+00
      vertex   3.784507e-01 -6.000000e+00 -3.947890e+00
      vertex   3.883283e-01 -6.004013e+00 -3.951781e+00
    endloop
  endfacet
  facet normal 6.555266e-02 7.731161e-01 -6.308679e-01
    outer loop
      vertex   3.883283e-01 -6.004013e+00 -3.951781e+00
      vertex   3.784507e-01 -6.000000e+00 -3.947890e+00
      vertex   4.413107e-01 -6.000000e+00 -3.941358e+00
    endloop
  endfacet
  facet normal 6.792241e-02 7.654110e-01 -6.399473e-01
    outer loop
      vertex   3.883283e-01 -6.004013e+00 -3.951781e+00
      vertex   4.413107e-01 -6.000000e+00 -3.941358e+00
      vertex   4.545014e-01 -6.009885e+00 -3.951781e+00
    endloop
  endfacet
  facet normal 7.215092e-02 7.676850e-01 -6.367526e-01
    outer loop
      vertex   4.545014e-01 -6.009885e+00 -3.951781e+00
      vertex   4.413107e-01 -6.000000e+00 -3.941358e+00
      vertex   4.583232e-01 -6.002022e+00 -3.941868e+00
    endloop
  endfacet
  facet normal 7.918947e-02 7.659071e-01 -6.380559e-01
    outer loop
      vertex   4.545014e-01 -6.009885e+00 -3.951781e+00
      vertex   4.583232e-01 -6.002022e+00 -3.941868e+00
      vertex   5.208379e-01 -6.016744e+00 -3.951781e+00
    endloop
  endfacet
  facet normal 7.918947e-02 7.659071e-01 -6.380559e-01
    outer loop
      vertex   5.208379e-01 -6.016744e+00 -3.951781e+00
      vertex   4.583232e-01 -6.002022e+00 -3.941868e+00
      vertex   5.252174e-01 -6.008938e+00 -3.941868e+00
    endloop
  endfacet
  facet normal 7.433690e-02 7.816633e-01 -6.192548e-01
    outer loop
      vertex   4.413107e-01 -6.000000e+00 -3.941358e+00
      vertex   5.040462e-01 -6.000000e+00 -3.933827e+00
      vertex   4.583232e-01 -6.002022e+00 -3.941868e+00
    endloop
  endfacet
  facet normal 7.894565e-02 7.635489e-01 -6.409061e-01
    outer loop
      vertex   4.583232e-01 -6.002022e+00 -3.941868e+00
      vertex   5.040462e-01 -6.000000e+00 -3.933827e+00
      vertex   5.252174e-01 -6.008938e+00 -3.941868e+00
    endloop
  endfacet
  facet normal 8.325782e-02 7.682217e-01 -6.347468e-01
    outer loop
      vertex   5.252174e-01 -6.008938e+00 -3.941868e+00
      vertex   5.040462e-01 -6.000000e+00 -3.933827e+00
      vertex   5.295888e-01 -6.001148e+00 -3.931866e+00
    endloop
  endfacet
  facet normal 8.186873e-02 7.950937e-01 -6.009356e-01
    outer loop
      vertex   5.295888e-01 -6.001148e+00 -3.931866e+00
      vertex   5.040462e-01 -6.000000e+00 -3.933827e+00
      vertex   5.666452e-01 -6.000000e+00 -3.925299e+00
    endloop
  endfacet
  facet normal 1.050926e-01 7.682465e-01 -6.314688e-01
    outer loop
      vertex   6.700340e-01 -6.010531e+00 -3.921774e+00
      vertex   6.290960e-01 -6.000000e+00 -3.915776e+00
      vertex   6.754982e-01 -6.002910e+00 -3.911593e+00
    endloop
  endfacet
  facet normal 1.046344e-01 7.778047e-01 -6.197350e-01
    outer loop
      vertex   6.754982e-01 -6.002910e+00 -3.911593e+00
      vertex   6.290960e-01 -6.000000e+00 -3.915776e+00
      vertex   6.913866e-01 -6.000000e+00 -3.905259e+00
    endloop
  endfacet
  facet normal 1.141158e-01 7.627170e-01 -6.365849e-01
    outer loop
      vertex   6.754982e-01 -6.002910e+00 -3.911593e+00
      vertex   6.913866e-01 -6.000000e+00 -3.905259e+00
      vertex   7.439007e-01 -6.013144e+00 -3.911593e+00
    endloop
  endfacet
  facet normal 1.165239e-01 7.686603e-01 -6.289543e-01
    outer loop
      vertex   7.439007e-01 -6.013144e+00 -3.911593e+00
      vertex   6.913866e-01 -6.000000e+00 -3.905259e+00
      vertex   7.535051e-01 -6.000000e+00 -3.893750e+00
    endloop
  endfacet
  facet normal 6.949026e-02 7.849561e-01 -6.156420e-01
    outer loop
      vertex   7.439007e-01 -6.013144e+00 -3.911593e+00
      vertex   7.535051e-01 -6.000000e+00 -3.893750e+00
      vertex   7.499063e-01 -6.005621e+00 -3.901324e+00
    endloop
  endfacet
  facet normal 1.270053e-01 7.666466e-01 -6.293827e-01
    outer loop
      vertex   7.499063e-01 -6.005621e+00 -3.901324e+00
      vertex   7.535051e-01 -6.000000e+00 -3.893750e+00
      vertex   8.154397e-01 -6.000000e+00 -3.881252e+00
    endloop
  endfacet
  facet normal 1.271444e-01 7.663247e-01 -6.297466e-01
    outer loop
      vertex   7.499063e-01 -6.005621e+00 -3.901324e+00
      vertex   8.154397e-01 -6.000000e+00 -3.881252e+00
      vertex   8.185720e-01 -6.017014e+00 -3.901324e+00
    endloop
  endfacet
  facet normal 1.281162e-01 7.663028e-01 -6.295763e-01
    outer loop
      vertex   8.185720e-01 -6.017014e+00 -3.901324e+00
      vertex   8.154397e-01 -6.000000e+00 -3.881252e+00
      vertex   8.251142e-01 -6.009597e+00 -3.890965e+00
    endloop
  endfacet
  facet normal 1.391465e-01 7.614734e-01 -6.330849e-01
    outer loop
      vertex   8.185720e-01 -6.017014e+00 -3.901324e+00
      vertex   8.251142e-01 -6.009597e+00 -3.890965e+00
      vertex   8.868260e-01 -6.029486e+00 -3.901324e+00
    endloop
  endfacet
  facet normal 1.391465e-01 7.614734e-01 -6.330849e-01
    outer loop
      vertex   8.868260e-01 -6.029486e+00 -3.901324e+00
      vertex   8.251142e-01 -6.009597e+00 -3.890965e+00
      vertex   8.939137e-01 -6.022169e+00 -3.890965e+00
    endloop
  endfacet
  facet normal 1.481830e-01 7.571489e-01 -6.362133e-01
    outer loop
      vertex   8.868260e-01 -6.029486e+00 -3.901324e+00
      vertex   8.939137e-01 -6.022169e+00 -3.890965e+00
      vertex   9.207598e-01 -6.036127e+00 -3.901324e+00
    endloop
  endfacet
  facet normal 1.481830e-01 7.571489e-01 -6.362133e-01
    outer loop
      vertex   9.207598e-01 -6.036127e+00 -3.901324e+00
      vertex   8.939137e-01 -6.022169e+00 -3.890965e+00
      vertex   9.281187e-01 -6.028863e+00 -3.890965e+00
    endloop
  endfacet
  facet normal 1.542561e-01 7.540987e-01 -6.383887e-01
    outer loop
      vertex   9.207598e-01 -6.036127e+00 -3.901324e+00
      vertex   9.281187e-01 -6.028863e+00 -3.890965e+00
      vertex   9.621234e-01 -6.035819e+00 -3.890965e+00
    endloop
  endfacet
  facet normal 1.549192e-01 7.573405e-01 -6.343780e-01
    outer loop
      vertex   9.621234e-01 -6.035819e+00 -3.890965e+00
      vertex   9.281187e-01 -6.028863e+00 -3.890965e+00
      vertex   9.697315e-01 -6.028625e+00 -3.880518e+00
    endloop
  endfacet
  facet normal 1.606960e-01 7.543367e-01 -6.365163e-01
    outer loop
      vertex   9.621234e-01 -6.035819e+00 -3.890965e+00
      vertex   9.697315e-01 -6.028625e+00 -3.880518e+00
      vertex   1.000000e+00 -6.035307e+00 -3.880795e+00
    endloop
  endfacet
  facet normal 1.614347e-01 7.575178e-01 -6.325391e-01
    outer loop
      vertex   1.000000e+00 -6.035307e+00 -3.880795e+00
      vertex   9.697315e-01 -6.028625e+00 -3.880518e+00
      vertex   9.773236e-01 -6.021445e+00 -3.869982e+00
    endloop
  endfacet
  facet normal 1.642333e-01 7.595896e-01 -6.293259e-01
    outer loop
      vertex   1.000000e+00 -6.035307e+00 -3.880795e+00
      vertex   9.773236e-01 -6.021445e+00 -3.869982e+00
      vertex   9.848992e-01 -6.014281e+00 -3.859358e+00
    endloop
  endfacet
  facet normal 1.562193e-01 7.637008e-01 -6.263837e-01
    outer loop
      vertex   9.848992e-01 -6.014281e+00 -3.859358e+00
      vertex   9.773236e-01 -6.021445e+00 -3.869982e+00
      vertex   9.427905e-01 -6.014381e+00 -3.869982e+00
    endloop
  endfacet
  facet normal 1.562191e-01 7.637017e-01 -6.263827e-01
    outer loop
      vertex   9.848992e-01 -6.014281e+00 -3.859358e+00
      vertex   9.427905e-01 -6.014381e+00 -3.869982e+00
      vertex   9.501028e-01 -6.007163e+00 -3.859358e+00
    endloop
  endfacet
  facet normal 1.500568e-01 7.667233e-01 -6.241941e-01
    outer loop
      vertex   9.501028e-01 -6.007163e+00 -3.859358e+00
      vertex   9.427905e-01 -6.014381e+00 -3.869982e+00
      vertex   9.150876e-01 -6.000310e+00 -3.859358e+00
    endloop
  endfacet
  facet normal 1.500830e-01 7.668572e-01 -6.240233e-01
    outer loop
      vertex   9.501028e-01 -6.007163e+00 -3.859358e+00
      vertex   9.150876e-01 -6.000310e+00 -3.859358e+00
      vertex   9.387094e-01 -6.000000e+00 -3.853295e+00
    endloop
  endfacet
  facet normal 1.218445e-01 8.466111e-01 -5.180767e-01
    outer loop
      vertex   9.387094e-01 -6.000000e+00 -3.853295e+00
      vertex   9.150876e-01 -6.000310e+00 -3.859358e+00
      vertex   8.771784e-01 -6.000000e+00 -3.867767e+00
    endloop
  endfacet
  facet normal 1.443156e-01 7.694163e-01 -6.222312e-01
    outer loop
      vertex   8.771784e-01 -6.000000e+00 -3.867767e+00
      vertex   9.150876e-01 -6.000310e+00 -3.859358e+00
      vertex   9.080448e-01 -6.007581e+00 -3.869982e+00
    endloop
  endfacet
  facet normal 1.433147e-01 7.664684e-01 -6.260887e-01
    outer loop
      vertex   8.771784e-01 -6.000000e+00 -3.867767e+00
      vertex   9.080448e-01 -6.007581e+00 -3.869982e+00
      vertex   9.009867e-01 -6.014867e+00 -3.880518e+00
    endloop
  endfacet
  facet normal 1.494403e-01 7.635735e-01 -6.281903e-01
    outer loop
      vertex   9.009867e-01 -6.014867e+00 -3.880518e+00
      vertex   9.080448e-01 -6.007581e+00 -3.869982e+00
      vertex   9.354623e-01 -6.021615e+00 -3.880518e+00
    endloop
  endfacet
  facet normal 1.488158e-01 7.603822e-01 -6.321968e-01
    outer loop
      vertex   9.009867e-01 -6.014867e+00 -3.880518e+00
      vertex   9.354623e-01 -6.021615e+00 -3.880518e+00
      vertex   9.281187e-01 -6.028863e+00 -3.890965e+00
    endloop
  endfacet
  facet normal 1.549189e-01 7.573414e-01 -6.343770e-01
    outer loop
      vertex   9.281187e-01 -6.028863e+00 -3.890965e+00
      vertex   9.354623e-01 -6.021615e+00 -3.880518e+00
      vertex   9.697315e-01 -6.028625e+00 -3.880518e+00
    endloop
  endfacet
  facet normal 1.324779e-01 7.678598e-01 -6.267703e-01
    outer loop
      vertex   8.251142e-01 -6.009597e+00 -3.890965e+00
      vertex   8.154397e-01 -6.000000e+00 -3.881252e+00
      vertex   8.316428e-01 -6.002196e+00 -3.880518e+00
    endloop
  endfacet
  facet normal 1.334515e-01 7.803340e-01 -6.109579e-01
    outer loop
      vertex   8.316428e-01 -6.002196e+00 -3.880518e+00
      vertex   8.154397e-01 -6.000000e+00 -3.881252e+00
      vertex   8.771784e-01 -6.000000e+00 -3.867767e+00
    endloop
  endfacet
  facet normal 1.395906e-01 7.639037e-01 -6.300520e-01
    outer loop
      vertex   8.316428e-01 -6.002196e+00 -3.880518e+00
      vertex   8.771784e-01 -6.000000e+00 -3.867767e+00
      vertex   9.009867e-01 -6.014867e+00 -3.880518e+00
    endloop
  endfacet
  facet normal 1.557214e-01 7.706629e-01 -6.179235e-01
    outer loop
      vertex   9.501028e-01 -6.007163e+00 -3.859358e+00
      vertex   9.387094e-01 -6.000000e+00 -3.853295e+00
      vertex   9.924581e-01 -6.007132e+00 -3.848646e+00
    endloop
  endfacet
  facet normal 1.557242e-01 7.707770e-01 -6.177805e-01
    outer loop
      vertex   9.924581e-01 -6.007132e+00 -3.848646e+00
      vertex   9.387094e-01 -6.000000e+00 -3.853295e+00
      vertex   1.000000e+00 -6.000000e+00 -3.837846e+00
    endloop
  endfacet
  facet normal 1.760157e-01 7.604270e-01 -6.251154e-01
    outer loop
      vertex   9.924581e-01 -6.007132e+00 -3.848646e+00
      vertex   1.000000e+00 -6.000000e+00 -3.837846e+00
      vertex   1.000000e+00 -6.035307e+00 -3.880795e+00
    endloop
  endfacet
  facet normal 1.609380e-01 7.535568e-01 -6.373784e-01
    outer loop
      vertex   9.621234e-01 -6.035819e+00 -3.890965e+00
      vertex   1.000000e+00 -6.035307e+00 -3.880795e+00
      vertex   9.960599e-01 -6.043067e+00 -3.890965e+00
    endloop
  endfacet
  facet normal 1.936148e-01 7.423195e-01 -6.414632e-01
    outer loop
      vertex   9.960599e-01 -6.043067e+00 -3.890965e+00
      vertex   1.000000e+00 -6.035307e+00 -3.880795e+00
      vertex   1.000000e+00 -6.071035e+00 -3.922141e+00
    endloop
  endfacet
  facet normal 1.730297e-01 7.439097e-01 -6.454913e-01
    outer loop
      vertex   9.960599e-01 -6.043067e+00 -3.890965e+00
      vertex   1.000000e+00 -6.071035e+00 -3.922141e+00
      vertex   9.881623e-01 -6.050218e+00 -3.901324e+00
    endloop
  endfacet
  facet normal 1.677011e-01 7.431534e-01 -6.477649e-01
    outer loop
      vertex   9.881623e-01 -6.050218e+00 -3.901324e+00
      vertex   1.000000e+00 -6.071035e+00 -3.922141e+00
      vertex   9.802486e-01 -6.057384e+00 -3.911593e+00
    endloop
  endfacet
  facet normal 1.596661e-01 7.475974e-01 -6.446742e-01
    outer loop
      vertex   9.881623e-01 -6.050218e+00 -3.901324e+00
      vertex   9.802486e-01 -6.057384e+00 -3.911593e+00
      vertex   9.468596e-01 -6.050253e+00 -3.911593e+00
    endloop
  endfacet
  facet normal 1.589537e-01 7.442617e-01 -6.486974e-01
    outer loop
      vertex   9.468596e-01 -6.050253e+00 -3.911593e+00
      vertex   9.802486e-01 -6.057384e+00 -3.911593e+00
      vertex   9.392046e-01 -6.057492e+00 -3.921774e+00
    endloop
  endfacet
  facet normal 1.529046e-01 7.474852e-01 -6.464410e-01
    outer loop
      vertex   9.468596e-01 -6.050253e+00 -3.911593e+00
      vertex   9.392046e-01 -6.057492e+00 -3.921774e+00
      vertex   9.059973e-01 -6.050699e+00 -3.921774e+00
    endloop
  endfacet
  facet normal 1.522152e-01 7.441153e-01 -6.504790e-01
    outer loop
      vertex   9.059973e-01 -6.050699e+00 -3.921774e+00
      vertex   9.392046e-01 -6.057492e+00 -3.921774e+00
      vertex   8.985943e-01 -6.058007e+00 -3.931866e+00
    endloop
  endfacet
  facet normal 1.462344e-01 7.471926e-01 -6.483199e-01
    outer loop
      vertex   9.059973e-01 -6.050699e+00 -3.921774e+00
      vertex   8.985943e-01 -6.058007e+00 -3.931866e+00
      vertex   8.726076e-01 -6.044164e+00 -3.921774e+00
    endloop
  endfacet
  facet normal 1.462344e-01 7.471926e-01 -6.483199e-01
    outer loop
      vertex   8.726076e-01 -6.044164e+00 -3.921774e+00
      vertex   8.985943e-01 -6.058007e+00 -3.931866e+00
      vertex   8.654774e-01 -6.051525e+00 -3.931866e+00
    endloop
  endfacet
  facet normal 1.373344e-01 7.515565e-01 -6.452147e-01
    outer loop
      vertex   8.726076e-01 -6.044164e+00 -3.921774e+00
      vertex   8.654774e-01 -6.051525e+00 -3.931866e+00
      vertex   8.054479e-01 -6.031892e+00 -3.921774e+00
    endloop
  endfacet
  facet normal 1.373344e-01 7.515565e-01 -6.452147e-01
    outer loop
      vertex   8.054479e-01 -6.031892e+00 -3.921774e+00
      vertex   8.654774e-01 -6.051525e+00 -3.931866e+00
      vertex   7.988664e-01 -6.039353e+00 -3.931866e+00
    endloop
  endfacet
  facet normal 1.255687e-01 7.568280e-01 -6.414390e-01
    outer loop
      vertex   8.054479e-01 -6.031892e+00 -3.921774e+00
      vertex   7.988664e-01 -6.039353e+00 -3.931866e+00
      vertex   7.378831e-01 -6.020682e+00 -3.921774e+00
    endloop
  endfacet
  facet normal 1.255687e-01 7.568280e-01 -6.414390e-01
    outer loop
      vertex   7.378831e-01 -6.020682e+00 -3.921774e+00
      vertex   7.988664e-01 -6.039353e+00 -3.931866e+00
      vertex   7.318538e-01 -6.028235e+00 -3.931866e+00
    endloop
  endfacet
  facet normal 1.139402e-01 7.615430e-01 -6.380203e-01
    outer loop
      vertex   7.378831e-01 -6.020682e+00 -3.921774e+00
      vertex   7.318538e-01 -6.028235e+00 -3.931866e+00
      vertex   6.700340e-01 -6.010531e+00 -3.921774e+00
    endloop
  endfacet
  facet normal 2.066611e-01 7.237205e-01 -6.584222e-01
    outer loop
      vertex   1.000000e+00 -6.107178e+00 -3.961868e+00
      vertex   9.970064e-01 -6.079028e+00 -3.931866e+00
      vertex   1.000000e+00 -6.071035e+00 -3.922141e+00
    endloop
  endfacet
  facet normal 1.641112e-01 7.367063e-01 -6.559964e-01
    outer loop
      vertex   1.000000e+00 -6.071035e+00 -3.922141e+00
      vertex   9.970064e-01 -6.079028e+00 -3.931866e+00
      vertex   9.643742e-01 -6.071759e+00 -3.931866e+00
    endloop
  endfacet
  facet normal 1.637860e-01 7.377679e-01 -6.548837e-01
    outer loop
      vertex   1.000000e+00 -6.071035e+00 -3.922141e+00
      vertex   9.643742e-01 -6.071759e+00 -3.931866e+00
      vertex   9.723192e-01 -6.064564e+00 -3.921774e+00
    endloop
  endfacet
  facet normal 1.582326e-01 7.408811e-01 -6.527309e-01
    outer loop
      vertex   9.723192e-01 -6.064564e+00 -3.921774e+00
      vertex   9.643742e-01 -6.071759e+00 -3.931866e+00
      vertex   9.315346e-01 -6.064745e+00 -3.931866e+00
    endloop
  endfacet
  facet normal 1.582324e-01 7.408820e-01 -6.527300e-01
    outer loop
      vertex   9.723192e-01 -6.064564e+00 -3.921774e+00
      vertex   9.315346e-01 -6.064745e+00 -3.931866e+00
      vertex   9.392046e-01 -6.057492e+00 -3.921774e+00
    endloop
  endfacet
  facet normal 1.522155e-01 7.441144e-01 -6.504800e-01
    outer loop
      vertex   9.392046e-01 -6.057492e+00 -3.921774e+00
      vertex   9.315346e-01 -6.064745e+00 -3.931866e+00
      vertex   8.985943e-01 -6.058007e+00 -3.931866e+00
    endloop
  endfacet
  facet normal 1.568568e-01 7.668194e-01 -6.224017e-01
    outer loop
      vertex   9.848992e-01 -6.014281e+00 -3.859358e+00
      vertex   9.501028e-01 -6.007163e+00 -3.859358e+00
      vertex   9.924581e-01 -6.007132e+00 -3.848646e+00
    endloop
  endfacet
  facet normal 1.662846e-01 7.183542e-01 -6.755121e-01
    outer loop
      vertex   9.557072e-01 -6.114899e+00 -3.980982e+00
      vertex   9.722717e-01 -6.100512e+00 -3.961605e+00
      vertex   1.000000e+00 -6.107178e+00 -3.961868e+00
    endloop
  endfacet
  facet normal 1.676203e-01 7.236716e-01 -6.694795e-01
    outer loop
      vertex   1.000000e+00 -6.107178e+00 -3.961868e+00
      vertex   9.722717e-01 -6.100512e+00 -3.961605e+00
      vertex   9.805318e-01 -6.093337e+00 -3.951781e+00
    endloop
  endfacet
  facet normal 1.707547e-01 7.258104e-01 -6.663648e-01
    outer loop
      vertex   1.000000e+00 -6.107178e+00 -3.961868e+00
      vertex   9.805318e-01 -6.093337e+00 -3.951781e+00
      vertex   9.887768e-01 -6.086176e+00 -3.941868e+00
    endloop
  endfacet
  facet normal 1.627464e-01 7.305796e-01 -6.631494e-01
    outer loop
      vertex   9.887768e-01 -6.086176e+00 -3.941868e+00
      vertex   9.805318e-01 -6.093337e+00 -3.951781e+00
      vertex   9.564140e-01 -6.078967e+00 -3.941868e+00
    endloop
  endfacet
  facet normal 1.635206e-01 7.340548e-01 -6.591089e-01
    outer loop
      vertex   9.887768e-01 -6.086176e+00 -3.941868e+00
      vertex   9.564140e-01 -6.078967e+00 -3.941868e+00
      vertex   9.643742e-01 -6.071759e+00 -3.931866e+00
    endloop
  endfacet
  facet normal 1.575020e-01 7.374580e-01 -6.567716e-01
    outer loop
      vertex   9.643742e-01 -6.071759e+00 -3.931866e+00
      vertex   9.564140e-01 -6.078967e+00 -3.941868e+00
      vertex   9.238498e-01 -6.072012e+00 -3.941868e+00
    endloop
  endfacet
  facet normal 1.575017e-01 7.374589e-01 -6.567706e-01
    outer loop
      vertex   9.643742e-01 -6.071759e+00 -3.931866e+00
      vertex   9.238498e-01 -6.072012e+00 -3.941868e+00
      vertex   9.315346e-01 -6.064745e+00 -3.931866e+00
    endloop
  endfacet
  facet normal 1.515174e-01 7.406999e-01 -6.545274e-01
    outer loop
      vertex   9.315346e-01 -6.064745e+00 -3.931866e+00
      vertex   9.238498e-01 -6.072012e+00 -3.941868e+00
      vertex   8.911771e-01 -6.065328e+00 -3.941868e+00
    endloop
  endfacet
  facet normal 1.515172e-01 7.407008e-01 -6.545265e-01
    outer loop
      vertex   9.315346e-01 -6.064745e+00 -3.931866e+00
      vertex   8.911771e-01 -6.065328e+00 -3.941868e+00
      vertex   8.985943e-01 -6.058007e+00 -3.931866e+00
    endloop
  endfacet
  facet normal 1.455678e-01 7.437867e-01 -6.523736e-01
    outer loop
      vertex   8.985943e-01 -6.058007e+00 -3.931866e+00
      vertex   8.911771e-01 -6.065328e+00 -3.941868e+00
      vertex   8.654774e-01 -6.051525e+00 -3.931866e+00
    endloop
  endfacet
  facet normal 1.607680e-01 7.216984e-01 -6.732793e-01
    outer loop
      vertex   9.557072e-01 -6.114899e+00 -3.980982e+00
      vertex   9.404491e-01 -6.093423e+00 -3.961605e+00
      vertex   9.722717e-01 -6.100512e+00 -3.961605e+00
    endloop
  endfacet
  facet normal 1.619624e-01 7.270602e-01 -6.671968e-01
    outer loop
      vertex   9.722717e-01 -6.100512e+00 -3.961605e+00
      vertex   9.404491e-01 -6.093423e+00 -3.961605e+00
      vertex   9.484389e-01 -6.086188e+00 -3.951781e+00
    endloop
  endfacet
  facet normal 1.619624e-01 7.270602e-01 -6.671968e-01
    outer loop
      vertex   9.722717e-01 -6.100512e+00 -3.961605e+00
      vertex   9.484389e-01 -6.086188e+00 -3.951781e+00
      vertex   9.805318e-01 -6.093337e+00 -3.951781e+00
    endloop
  endfacet
  facet normal 1.627464e-01 7.305796e-01 -6.631494e-01
    outer loop
      vertex   9.805318e-01 -6.093337e+00 -3.951781e+00
      vertex   9.484389e-01 -6.086188e+00 -3.951781e+00
      vertex   9.564140e-01 -6.078967e+00 -3.941868e+00
    endloop
  endfacet
  facet normal 1.761372e-01 7.265655e-01 -6.641373e-01
    outer loop
      vertex   9.970064e-01 -6.079028e+00 -3.931866e+00
      vertex   1.000000e+00 -6.107178e+00 -3.961868e+00
      vertex   9.887768e-01 -6.086176e+00 -3.941868e+00
    endloop
  endfacet
  facet normal 1.635206e-01 7.340548e-01 -6.591089e-01
    outer loop
      vertex   9.643742e-01 -6.071759e+00 -3.931866e+00
      vertex   9.970064e-01 -6.079028e+00 -3.931866e+00
      vertex   9.887768e-01 -6.086176e+00 -3.941868e+00
    endloop
  endfacet
  facet normal 1.666164e-01 7.177743e-01 -6.760466e-01
    outer loop
      vertex   1.000000e+00 -6.107178e+00 -3.961868e+00
      vertex   9.868031e-01 -6.122118e+00 -3.980982e+00
      vertex   9.557072e-01 -6.114899e+00 -3.980982e+00
    endloop
  endfacet
  facet normal 1.560124e-01 7.304795e-01 -6.648757e-01
    outer loop
      vertex   9.484389e-01 -6.086188e+00 -3.951781e+00
      vertex   9.404491e-01 -6.093423e+00 -3.961605e+00
      vertex   9.084369e-01 -6.086586e+00 -3.961605e+00
    endloop
  endfacet
  facet normal 1.567619e-01 7.339909e-01 -6.608199e-01
    outer loop
      vertex   9.564140e-01 -6.078967e+00 -3.941868e+00
      vertex   9.484389e-01 -6.086188e+00 -3.951781e+00
      vertex   9.161505e-01 -6.079292e+00 -3.951781e+00
    endloop
  endfacet
  facet normal 1.560122e-01 7.304805e-01 -6.648748e-01
    outer loop
      vertex   9.161505e-01 -6.079292e+00 -3.951781e+00
      vertex   9.484389e-01 -6.086188e+00 -3.951781e+00
      vertex   9.084369e-01 -6.086586e+00 -3.961605e+00
    endloop
  endfacet
  facet normal 1.500942e-01 7.337380e-01 -6.626465e-01
    outer loop
      vertex   9.161505e-01 -6.079292e+00 -3.951781e+00
      vertex   9.084369e-01 -6.086586e+00 -3.961605e+00
      vertex   8.763011e-01 -6.080012e+00 -3.961605e+00
    endloop
  endfacet
  facet normal 1.567617e-01 7.339919e-01 -6.608190e-01
    outer loop
      vertex   9.564140e-01 -6.078967e+00 -3.941868e+00
      vertex   9.161505e-01 -6.079292e+00 -3.951781e+00
      vertex   9.238498e-01 -6.072012e+00 -3.941868e+00
    endloop
  endfacet
  facet normal 1.508104e-01 7.372412e-01 -6.585830e-01
    outer loop
      vertex   9.238498e-01 -6.072012e+00 -3.941868e+00
      vertex   9.161505e-01 -6.079292e+00 -3.951781e+00
      vertex   8.837459e-01 -6.072663e+00 -3.951781e+00
    endloop
  endfacet
  facet normal 1.508101e-01 7.372421e-01 -6.585821e-01
    outer loop
      vertex   9.238498e-01 -6.072012e+00 -3.941868e+00
      vertex   8.837459e-01 -6.072663e+00 -3.951781e+00
      vertex   8.911771e-01 -6.065328e+00 -3.941868e+00
    endloop
  endfacet
  facet normal 1.448926e-01 7.403365e-01 -6.564358e-01
    outer loop
      vertex   8.911771e-01 -6.065328e+00 -3.941868e+00
      vertex   8.837459e-01 -6.072663e+00 -3.951781e+00
      vertex   8.583335e-01 -6.058900e+00 -3.941868e+00
    endloop
  endfacet
  facet normal 1.455678e-01 7.437867e-01 -6.523736e-01
    outer loop
      vertex   8.911771e-01 -6.065328e+00 -3.941868e+00
      vertex   8.583335e-01 -6.058900e+00 -3.941868e+00
      vertex   8.654774e-01 -6.051525e+00 -3.931866e+00
    endloop
  endfacet
  facet normal 1.367143e-01 7.481633e-01 -6.492772e-01
    outer loop
      vertex   8.654774e-01 -6.051525e+00 -3.931866e+00
      vertex   8.583335e-01 -6.058900e+00 -3.941868e+00
      vertex   7.988664e-01 -6.039353e+00 -3.931866e+00
    endloop
  endfacet
  facet normal 1.500939e-01 7.337389e-01 -6.626455e-01
    outer loop
      vertex   8.837459e-01 -6.072663e+00 -3.951781e+00
      vertex   9.161505e-01 -6.079292e+00 -3.951781e+00
      vertex   8.763011e-01 -6.080012e+00 -3.961605e+00
    endloop
  endfacet
  facet normal 1.589540e-01 7.442607e-01 -6.486984e-01
    outer loop
      vertex   9.723192e-01 -6.064564e+00 -3.921774e+00
      vertex   9.392046e-01 -6.057492e+00 -3.921774e+00
      vertex   9.802486e-01 -6.057384e+00 -3.911593e+00
    endloop
  endfacet
  facet normal 1.603692e-01 7.508915e-01 -6.406588e-01
    outer loop
      vertex   9.960599e-01 -6.043067e+00 -3.890965e+00
      vertex   9.881623e-01 -6.050218e+00 -3.901324e+00
      vertex   9.544993e-01 -6.043029e+00 -3.901324e+00
    endloop
  endfacet
  facet normal 1.596659e-01 7.475983e-01 -6.446732e-01
    outer loop
      vertex   9.544993e-01 -6.043029e+00 -3.901324e+00
      vertex   9.881623e-01 -6.050218e+00 -3.901324e+00
      vertex   9.468596e-01 -6.050253e+00 -3.911593e+00
    endloop
  endfacet
  facet normal 1.535848e-01 7.508129e-01 -6.424108e-01
    outer loop
      vertex   9.544993e-01 -6.043029e+00 -3.901324e+00
      vertex   9.468596e-01 -6.050253e+00 -3.911593e+00
      vertex   9.133859e-01 -6.043406e+00 -3.911593e+00
    endloop
  endfacet
  facet normal 1.529043e-01 7.474861e-01 -6.464400e-01
    outer loop
      vertex   9.133859e-01 -6.043406e+00 -3.911593e+00
      vertex   9.468596e-01 -6.050253e+00 -3.911593e+00
      vertex   9.059973e-01 -6.050699e+00 -3.921774e+00
    endloop
  endfacet
  facet normal 1.468924e-01 7.505546e-01 -6.442751e-01
    outer loop
      vertex   9.133859e-01 -6.043406e+00 -3.911593e+00
      vertex   9.059973e-01 -6.050699e+00 -3.921774e+00
      vertex   8.797239e-01 -6.036818e+00 -3.911593e+00
    endloop
  endfacet
  facet normal 1.468924e-01 7.505546e-01 -6.442751e-01
    outer loop
      vertex   8.797239e-01 -6.036818e+00 -3.911593e+00
      vertex   9.059973e-01 -6.050699e+00 -3.921774e+00
      vertex   8.726076e-01 -6.044164e+00 -3.921774e+00
    endloop
  endfacet
  facet normal 1.379463e-01 7.549056e-01 -6.411617e-01
    outer loop
      vertex   8.797239e-01 -6.036818e+00 -3.911593e+00
      vertex   8.726076e-01 -6.044164e+00 -3.921774e+00
      vertex   8.120165e-01 -6.024446e+00 -3.911593e+00
    endloop
  endfacet
  facet normal 1.379463e-01 7.549056e-01 -6.411617e-01
    outer loop
      vertex   8.120165e-01 -6.024446e+00 -3.911593e+00
      vertex   8.726076e-01 -6.044164e+00 -3.921774e+00
      vertex   8.054479e-01 -6.031892e+00 -3.921774e+00
    endloop
  endfacet
  facet normal 1.261217e-01 7.601609e-01 -6.373764e-01
    outer loop
      vertex   8.120165e-01 -6.024446e+00 -3.911593e+00
      vertex   8.054479e-01 -6.031892e+00 -3.921774e+00
      vertex   7.439007e-01 -6.013144e+00 -3.911593e+00
    endloop
  endfacet
  facet normal 1.261217e-01 7.601609e-01 -6.373764e-01
    outer loop
      vertex   7.439007e-01 -6.013144e+00 -3.911593e+00
      vertex   8.054479e-01 -6.031892e+00 -3.921774e+00
      vertex   7.378831e-01 -6.020682e+00 -3.921774e+00
    endloop
  endfacet
  facet normal 1.144366e-01 7.648609e-01 -6.339496e-01
    outer loop
      vertex   7.439007e-01 -6.013144e+00 -3.911593e+00
      vertex   7.378831e-01 -6.020682e+00 -3.921774e+00
      vertex   6.754982e-01 -6.002910e+00 -3.911593e+00
    endloop
  endfacet
  facet normal 1.144366e-01 7.648609e-01 -6.339496e-01
    outer loop
      vertex   6.754982e-01 -6.002910e+00 -3.911593e+00
      vertex   7.378831e-01 -6.020682e+00 -3.921774e+00
      vertex   6.700340e-01 -6.010531e+00 -3.921774e+00
    endloop
  endfacet
  facet normal 1.542563e-01 7.540978e-01 -6.383897e-01
    outer loop
      vertex   9.207598e-01 -6.036127e+00 -3.901324e+00
      vertex   9.621234e-01 -6.035819e+00 -3.890965e+00
      vertex   9.544993e-01 -6.043029e+00 -3.901324e+00
    endloop
  endfacet
  facet normal 1.603690e-01 7.508924e-01 -6.406577e-01
    outer loop
      vertex   9.544993e-01 -6.043029e+00 -3.901324e+00
      vertex   9.621234e-01 -6.035819e+00 -3.890965e+00
      vertex   9.960599e-01 -6.043067e+00 -3.890965e+00
    endloop
  endfacet
  facet normal 1.535846e-01 7.508138e-01 -6.424098e-01
    outer loop
      vertex   9.207598e-01 -6.036127e+00 -3.901324e+00
      vertex   9.544993e-01 -6.043029e+00 -3.901324e+00
      vertex   9.133859e-01 -6.043406e+00 -3.911593e+00
    endloop
  endfacet
  facet normal 1.690903e-01 7.605630e-01 -6.268591e-01
    outer loop
      vertex   9.924581e-01 -6.007132e+00 -3.848646e+00
      vertex   1.000000e+00 -6.035307e+00 -3.880795e+00
      vertex   9.848992e-01 -6.014281e+00 -3.859358e+00
    endloop
  endfacet
  facet normal 1.555732e-01 7.605422e-01 -6.303749e-01
    outer loop
      vertex   9.427905e-01 -6.014381e+00 -3.869982e+00
      vertex   9.773236e-01 -6.021445e+00 -3.869982e+00
      vertex   9.354623e-01 -6.021615e+00 -3.880518e+00
    endloop
  endfacet
  facet normal 1.555735e-01 7.605413e-01 -6.303759e-01
    outer loop
      vertex   9.354623e-01 -6.021615e+00 -3.880518e+00
      vertex   9.773236e-01 -6.021445e+00 -3.869982e+00
      vertex   9.697315e-01 -6.028625e+00 -3.880518e+00
    endloop
  endfacet
  facet normal 1.646201e-01 7.411096e-01 -6.508892e-01
    outer loop
      vertex   1.000000e+00 -6.071035e+00 -3.922141e+00
      vertex   9.723192e-01 -6.064564e+00 -3.921774e+00
      vertex   9.802486e-01 -6.057384e+00 -3.911593e+00
    endloop
  endfacet
  facet normal 1.431661e-01 7.315148e-01 -6.666255e-01
    outer loop
      vertex   8.613716e-01 -6.094749e+00 -3.980982e+00
      vertex   8.296265e-01 -6.088536e+00 -3.980982e+00
      vertex   8.440058e-01 -6.073691e+00 -3.961605e+00
    endloop
  endfacet
  facet normal 1.344795e-01 7.359332e-01 -6.635643e-01
    outer loop
      vertex   8.440058e-01 -6.073691e+00 -3.961605e+00
      vertex   8.296265e-01 -6.088536e+00 -3.980982e+00
      vertex   7.790474e-01 -6.061821e+00 -3.961605e+00
    endloop
  endfacet
  facet normal 1.354496e-01 7.412424e-01 -6.574291e-01
    outer loop
      vertex   8.440058e-01 -6.073691e+00 -3.961605e+00
      vertex   7.790474e-01 -6.061821e+00 -3.961605e+00
      vertex   7.856660e-01 -6.054318e+00 -3.951781e+00
    endloop
  endfacet
  facet normal 1.238651e-01 7.465603e-01 -6.536858e-01
    outer loop
      vertex   7.856660e-01 -6.054318e+00 -3.951781e+00
      vertex   7.790474e-01 -6.061821e+00 -3.961605e+00
      vertex   7.197606e-01 -6.043384e+00 -3.951781e+00
    endloop
  endfacet
  facet normal 1.244405e-01 7.500281e-01 -6.495940e-01
    outer loop
      vertex   7.856660e-01 -6.054318e+00 -3.951781e+00
      vertex   7.197606e-01 -6.043384e+00 -3.951781e+00
      vertex   7.258128e-01 -6.035802e+00 -3.941868e+00
    endloop
  endfacet
  facet normal 1.129272e-01 7.547726e-01 -6.461933e-01
    outer loop
      vertex   7.258128e-01 -6.035802e+00 -3.941868e+00
      vertex   7.197606e-01 -6.043384e+00 -3.951781e+00
      vertex   6.590736e-01 -6.025817e+00 -3.941868e+00
    endloop
  endfacet
  facet normal 1.134371e-01 7.581805e-01 -6.421016e-01
    outer loop
      vertex   7.258128e-01 -6.035802e+00 -3.941868e+00
      vertex   6.590736e-01 -6.025817e+00 -3.941868e+00
      vertex   6.645590e-01 -6.018166e+00 -3.931866e+00
    endloop
  endfacet
  facet normal 1.020015e-01 7.623790e-01 -6.390414e-01
    outer loop
      vertex   6.645590e-01 -6.018166e+00 -3.931866e+00
      vertex   6.590736e-01 -6.025817e+00 -3.941868e+00
      vertex   5.970994e-01 -6.009141e+00 -3.931866e+00
    endloop
  endfacet
  facet normal 1.024495e-01 7.657279e-01 -6.349527e-01
    outer loop
      vertex   6.645590e-01 -6.018166e+00 -3.931866e+00
      vertex   5.970994e-01 -6.009141e+00 -3.931866e+00
      vertex   6.020185e-01 -6.001431e+00 -3.921774e+00
    endloop
  endfacet
  facet normal 1.442086e-01 7.368415e-01 -6.605062e-01
    outer loop
      vertex   8.837459e-01 -6.072663e+00 -3.951781e+00
      vertex   8.763011e-01 -6.080012e+00 -3.961605e+00
      vertex   8.511762e-01 -6.066289e+00 -3.951781e+00
    endloop
  endfacet
  facet normal 1.448926e-01 7.403365e-01 -6.564358e-01
    outer loop
      vertex   8.837459e-01 -6.072663e+00 -3.951781e+00
      vertex   8.511762e-01 -6.066289e+00 -3.951781e+00
      vertex   8.583335e-01 -6.058900e+00 -3.941868e+00
    endloop
  endfacet
  facet normal 1.360861e-01 7.447254e-01 -6.533488e-01
    outer loop
      vertex   8.583335e-01 -6.058900e+00 -3.941868e+00
      vertex   8.511762e-01 -6.066289e+00 -3.951781e+00
      vertex   7.922724e-01 -6.046829e+00 -3.941868e+00
    endloop
  endfacet
  facet normal 1.367143e-01 7.481633e-01 -6.492772e-01
    outer loop
      vertex   8.583335e-01 -6.058900e+00 -3.941868e+00
      vertex   7.922724e-01 -6.046829e+00 -3.941868e+00
      vertex   7.988664e-01 -6.039353e+00 -3.931866e+00
    endloop
  endfacet
  facet normal 1.250083e-01 7.534505e-01 -6.455116e-01
    outer loop
      vertex   7.988664e-01 -6.039353e+00 -3.931866e+00
      vertex   7.922724e-01 -6.046829e+00 -3.941868e+00
      vertex   7.318538e-01 -6.028235e+00 -3.931866e+00
    endloop
  endfacet
  facet normal 1.475419e-01 7.538732e-01 -6.402395e-01
    outer loop
      vertex   9.207598e-01 -6.036127e+00 -3.901324e+00
      vertex   9.133859e-01 -6.043406e+00 -3.911593e+00
      vertex   8.868260e-01 -6.029486e+00 -3.901324e+00
    endloop
  endfacet
  facet normal 1.475419e-01 7.538732e-01 -6.402395e-01
    outer loop
      vertex   8.868260e-01 -6.029486e+00 -3.901324e+00
      vertex   9.133859e-01 -6.043406e+00 -3.911593e+00
      vertex   8.797239e-01 -6.036818e+00 -3.911593e+00
    endloop
  endfacet
  facet normal 1.385504e-01 7.582111e-01 -6.371183e-01
    outer loop
      vertex   8.868260e-01 -6.029486e+00 -3.901324e+00
      vertex   8.797239e-01 -6.036818e+00 -3.911593e+00
      vertex   8.185720e-01 -6.017014e+00 -3.901324e+00
    endloop
  endfacet
  facet normal 1.385504e-01 7.582111e-01 -6.371183e-01
    outer loop
      vertex   8.185720e-01 -6.017014e+00 -3.901324e+00
      vertex   8.797239e-01 -6.036818e+00 -3.911593e+00
      vertex   8.120165e-01 -6.024446e+00 -3.911593e+00
    endloop
  endfacet
  facet normal 1.266674e-01 7.634500e-01 -6.333242e-01
    outer loop
      vertex   8.185720e-01 -6.017014e+00 -3.901324e+00
      vertex   8.120165e-01 -6.024446e+00 -3.911593e+00
      vertex   7.499063e-01 -6.005621e+00 -3.901324e+00
    endloop
  endfacet
  facet normal 1.266674e-01 7.634500e-01 -6.333242e-01
    outer loop
      vertex   7.499063e-01 -6.005621e+00 -3.901324e+00
      vertex   8.120165e-01 -6.024446e+00 -3.911593e+00
      vertex   7.439007e-01 -6.013144e+00 -3.911593e+00
    endloop
  endfacet
  facet normal 1.397348e-01 7.646930e-01 -6.290618e-01
    outer loop
      vertex   8.316428e-01 -6.002196e+00 -3.880518e+00
      vertex   9.009867e-01 -6.014867e+00 -3.880518e+00
      vertex   8.939137e-01 -6.022169e+00 -3.890965e+00
    endloop
  endfacet
  facet normal 1.488158e-01 7.603822e-01 -6.321968e-01
    outer loop
      vertex   8.939137e-01 -6.022169e+00 -3.890965e+00
      vertex   9.009867e-01 -6.014867e+00 -3.880518e+00
      vertex   9.281187e-01 -6.028863e+00 -3.890965e+00
    endloop
  endfacet
  facet normal 1.397348e-01 7.646930e-01 -6.290618e-01
    outer loop
      vertex   8.316428e-01 -6.002196e+00 -3.880518e+00
      vertex   8.939137e-01 -6.022169e+00 -3.890965e+00
      vertex   8.251142e-01 -6.009597e+00 -3.890965e+00
    endloop
  endfacet
  facet normal 1.494403e-01 7.635735e-01 -6.281903e-01
    outer loop
      vertex   9.427905e-01 -6.014381e+00 -3.869982e+00
      vertex   9.354623e-01 -6.021615e+00 -3.880518e+00
      vertex   9.080448e-01 -6.007581e+00 -3.869982e+00
    endloop
  endfacet
  facet normal 1.500568e-01 7.667233e-01 -6.241941e-01
    outer loop
      vertex   9.080448e-01 -6.007581e+00 -3.869982e+00
      vertex   9.150876e-01 -6.000310e+00 -3.859358e+00
      vertex   9.427905e-01 -6.014381e+00 -3.869982e+00
    endloop
  endfacet
  facet normal 1.344795e-01 7.359332e-01 -6.635643e-01
    outer loop
      vertex   8.296265e-01 -6.088536e+00 -3.980982e+00
      vertex   7.657748e-01 -6.076868e+00 -3.980982e+00
      vertex   7.790474e-01 -6.061821e+00 -3.961605e+00
    endloop
  endfacet
  facet normal 1.229879e-01 7.412731e-01 -6.598395e-01
    outer loop
      vertex   7.790474e-01 -6.061821e+00 -3.961605e+00
      vertex   7.657748e-01 -6.076868e+00 -3.980982e+00
      vertex   7.136972e-01 -6.050979e+00 -3.961605e+00
    endloop
  endfacet
  facet normal 1.238651e-01 7.465603e-01 -6.536858e-01
    outer loop
      vertex   7.790474e-01 -6.061821e+00 -3.961605e+00
      vertex   7.136972e-01 -6.050979e+00 -3.961605e+00
      vertex   7.197606e-01 -6.043384e+00 -3.951781e+00
    endloop
  endfacet
  facet normal 1.124105e-01 7.513190e-01 -6.502950e-01
    outer loop
      vertex   7.197606e-01 -6.043384e+00 -3.951781e+00
      vertex   7.136972e-01 -6.050979e+00 -3.961605e+00
      vertex   6.535778e-01 -6.033481e+00 -3.951781e+00
    endloop
  endfacet
  facet normal 1.129272e-01 7.547726e-01 -6.461933e-01
    outer loop
      vertex   7.197606e-01 -6.043384e+00 -3.951781e+00
      vertex   6.535778e-01 -6.033481e+00 -3.951781e+00
      vertex   6.590736e-01 -6.025817e+00 -3.941868e+00
    endloop
  endfacet
  facet normal 1.015473e-01 7.589847e-01 -6.431410e-01
    outer loop
      vertex   6.590736e-01 -6.025817e+00 -3.941868e+00
      vertex   6.535778e-01 -6.033481e+00 -3.951781e+00
      vertex   5.921707e-01 -6.016866e+00 -3.941868e+00
    endloop
  endfacet
  facet normal 1.020015e-01 7.623790e-01 -6.390414e-01
    outer loop
      vertex   6.590736e-01 -6.025817e+00 -3.941868e+00
      vertex   5.921707e-01 -6.016866e+00 -3.941868e+00
      vertex   5.970994e-01 -6.009141e+00 -3.931866e+00
    endloop
  endfacet
  facet normal 1.229879e-01 7.412731e-01 -6.598395e-01
    outer loop
      vertex   7.657748e-01 -6.076868e+00 -3.980982e+00
      vertex   7.015380e-01 -6.066210e+00 -3.980982e+00
      vertex   7.136972e-01 -6.050979e+00 -3.961605e+00
    endloop
  endfacet
  facet normal 1.116225e-01 7.460526e-01 -6.564647e-01
    outer loop
      vertex   7.136972e-01 -6.050979e+00 -3.961605e+00
      vertex   7.015380e-01 -6.066210e+00 -3.980982e+00
      vertex   6.480720e-01 -6.041160e+00 -3.961605e+00
    endloop
  endfacet
  facet normal 1.124105e-01 7.513190e-01 -6.502950e-01
    outer loop
      vertex   7.136972e-01 -6.050979e+00 -3.961605e+00
      vertex   6.480720e-01 -6.041160e+00 -3.961605e+00
      vertex   6.535778e-01 -6.033481e+00 -3.951781e+00
    endloop
  endfacet
  facet normal 1.010870e-01 7.555443e-01 -6.472513e-01
    outer loop
      vertex   6.535778e-01 -6.033481e+00 -3.951781e+00
      vertex   6.480720e-01 -6.041160e+00 -3.961605e+00
      vertex   5.872329e-01 -6.024605e+00 -3.951781e+00
    endloop
  endfacet
  facet normal 1.015473e-01 7.589847e-01 -6.431410e-01
    outer loop
      vertex   6.535778e-01 -6.033481e+00 -3.951781e+00
      vertex   5.872329e-01 -6.024605e+00 -3.951781e+00
      vertex   5.921707e-01 -6.016866e+00 -3.941868e+00
    endloop
  endfacet
  facet normal 1.116225e-01 7.460526e-01 -6.564647e-01
    outer loop
      vertex   7.015380e-01 -6.066210e+00 -3.980982e+00
      vertex   6.370308e-01 -6.056559e+00 -3.980982e+00
      vertex   6.480720e-01 -6.041160e+00 -3.961605e+00
    endloop
  endfacet
  facet normal 1.003850e-01 7.502972e-01 -6.534347e-01
    outer loop
      vertex   6.480720e-01 -6.041160e+00 -3.961605e+00
      vertex   6.370308e-01 -6.056559e+00 -3.980982e+00
      vertex   5.822859e-01 -6.032358e+00 -3.961605e+00
    endloop
  endfacet
  facet normal 1.010870e-01 7.555443e-01 -6.472513e-01
    outer loop
      vertex   6.480720e-01 -6.041160e+00 -3.961605e+00
      vertex   5.822859e-01 -6.032358e+00 -3.961605e+00
      vertex   5.872329e-01 -6.024605e+00 -3.951781e+00
    endloop
  endfacet
  facet normal 1.003850e-01 7.502972e-01 -6.534347e-01
    outer loop
      vertex   5.723656e-01 -6.047907e+00 -3.980982e+00
      vertex   5.822859e-01 -6.032358e+00 -3.961605e+00
      vertex   6.370308e-01 -6.056559e+00 -3.980982e+00
    endloop
  endfacet
  facet normal 7.883613e-02 7.624897e-01 -6.421794e-01
    outer loop
      vertex   4.545014e-01 -6.009885e+00 -3.951781e+00
      vertex   5.208379e-01 -6.016744e+00 -3.951781e+00
      vertex   5.164503e-01 -6.024564e+00 -3.961605e+00
    endloop
  endfacet
  facet normal 7.883613e-02 7.624897e-01 -6.421794e-01
    outer loop
      vertex   4.545014e-01 -6.009885e+00 -3.951781e+00
      vertex   5.164503e-01 -6.024564e+00 -3.961605e+00
      vertex   4.506727e-01 -6.017763e+00 -3.961605e+00
    endloop
  endfacet
  facet normal 6.790846e-02 7.652538e-01 -6.401368e-01
    outer loop
      vertex   3.883283e-01 -6.004013e+00 -3.951781e+00
      vertex   4.545014e-01 -6.009885e+00 -3.951781e+00
      vertex   4.506727e-01 -6.017763e+00 -3.961605e+00
    endloop
  endfacet
  facet normal 6.790846e-02 7.652538e-01 -6.401368e-01
    outer loop
      vertex   3.883283e-01 -6.004013e+00 -3.951781e+00
      vertex   4.506727e-01 -6.017763e+00 -3.961605e+00
      vertex   3.850570e-01 -6.011940e+00 -3.961605e+00
    endloop
  endfacet
  facet normal -1.000000e+00 0.000000e+00 0.000000e+00
    outer loop
      vertex   0.000000e+00 -6.028754e+00 -4.000000e+00
      vertex   0.000000e+00 -7.000000e+00 -4.000000e+00
      vertex   0.000000e+00 -6.000000e+00 -3.965988e+00
    endloop
  endfacet
  facet normal -1.000000e+00 -0.000000e+00 0.000000e+00
    outer loop
      vertex   0.000000e+00 -6.000000e+00 -3.965988e+00
      vertex   0.000000e+00 -7.000000e+00 -4.000000e+00
      vertex   0.000000e+00 -7.000000e+00 -3.000000e+00
    endloop
  endfacet
  facet normal -1.000000e+00 0.000000e+00 0.000000e+00
    outer loop
      vertex   0.000000e+00 -6.000000e+00 -3.965988e+00
      vertex   0.000000e+00 -7.000000e+00 -3.000000e+00
      vertex   0.000000e+00 -6.000000e+00 -3.000000e+00
    endloop
  endfacet
  facet normal 0.000000e+00 0.000000e+00 -1.000000e+00
    outer loop
      vertex   0.000000e+00 -6.028754e+00 -4.000000e+00
      vertex   6.464072e-02 -6.029205e+00 -4.000000e+00
      vertex   0.000000e+00 -7.000000e+00 -4.000000e+00
    endloop
  endfacet
  facet normal 0.000000e+00 0.000000e+00 -1.000000e+00
    outer loop
      vertex   0.000000e+00 -7.000000e+00 -4.000000e+00
      vertex   6.464072e-02 -6.029205e+00 -4.000000e+00
      vertex   1.292678e-01 -6.030556e+00 -4.000000e+00
    endloop
  endfacet
  facet normal 6.846259e-15 -9.128954e-16 -1.000000e+00
    outer loop
      vertex   0.000000e+00 -7.000000e+00 -4.000000e+00
      vertex   1.292678e-01 -6.030556e+00 -4.000000e+00
      vertex   1.938330e-01 -6.032811e+00 -4.000000e+00
    endloop
  endfacet
  facet normal -6.800544e-15 1.822043e-15 -1.000000e+00
    outer loop
      vertex   1.938330e-01 -6.032811e+00 -4.000000e+00
      vertex   2.582884e-01 -6.035971e+00 -4.000000e+00
      vertex   0.000000e+00 -7.000000e+00 -4.000000e+00
    endloop
  endfacet
  facet normal 1.358343e-14 -3.639356e-15 -1.000000e+00
    outer loop
      vertex   0.000000e+00 -7.000000e+00 -4.000000e+00
      vertex   2.582884e-01 -6.035971e+00 -4.000000e+00
      vertex   3.225857e-01 -6.040038e+00 -4.000000e+00
    endloop
  endfacet
  facet normal 6.999075e-17 9.017028e-16 -1.000000e+00
    outer loop
      vertex   0.000000e+00 -7.000000e+00 -4.000000e+00
      vertex   3.225857e-01 -6.040038e+00 -4.000000e+00
      vertex   3.866769e-01 -6.045013e+00 -4.000000e+00
    endloop
  endfacet
  facet normal -2.674257e-14 1.175818e-14 -1.000000e+00
    outer loop
      vertex   3.866769e-01 -6.045013e+00 -4.000000e+00
      vertex   4.505139e-01 -6.050898e+00 -4.000000e+00
      vertex   0.000000e+00 -7.000000e+00 -4.000000e+00
    endloop
  endfacet
  facet normal 1.986064e-14 -1.036313e-14 -1.000000e+00
    outer loop
      vertex   0.000000e+00 -7.000000e+00 -4.000000e+00
      vertex   4.505139e-01 -6.050898e+00 -4.000000e+00
      vertex   5.140485e-01 -6.057694e+00 -4.000000e+00
    endloop
  endfacet
  facet normal 5.391482e-17 4.418674e-16 -1.000000e+00
    outer loop
      vertex   0.000000e+00 -7.000000e+00 -4.000000e+00
      vertex   5.140485e-01 -6.057694e+00 -4.000000e+00
      vertex   5.772325e-01 -6.065403e+00 -4.000000e+00
    endloop
  endfacet
  facet normal 0.000000e+00 4.751666e-16 -1.000000e+00
    outer loop
      vertex   0.000000e+00 -7.000000e+00 -4.000000e+00
      vertex   5.772325e-01 -6.065403e+00 -4.000000e+00
      vertex   1.000000e+00 -7.000000e+00 -4.000000e+00
    endloop
  endfacet
  facet normal 6.959410e-17 5.066477e-16 -1.000000e+00
    outer loop
      vertex   1.000000e+00 -7.000000e+00 -4.000000e+00
      vertex   5.772325e-01 -6.065403e+00 -4.000000e+00
      vertex   6.400180e-01 -6.074028e+00 -4.000000e+00
    endloop
  endfacet
  facet normal 1.525914e-14 6.411752e-15 -1.000000e+00
    outer loop
      vertex   1.000000e+00 -7.000000e+00 -4.000000e+00
      vertex   6.400180e-01 -6.074028e+00 -4.000000e+00
      vertex   7.022246e-01 -6.083548e+00 -4.000000e+00
    endloop
  endfacet
  facet normal -2.270701e-14 -5.924282e-15 -1.000000e+00
    outer loop
      vertex   7.022246e-01 -6.083548e+00 -4.000000e+00
      vertex   7.636042e-01 -6.093925e+00 -4.000000e+00
      vertex   1.000000e+00 -7.000000e+00 -4.000000e+00
    endloop
  endfacet
  facet normal 0.000000e+00 0.000000e+00 -1.000000e+00
    outer loop
      vertex   1.000000e+00 -7.000000e+00 -4.000000e+00
      vertex   7.636042e-01 -6.093925e+00 -4.000000e+00
      vertex   8.241131e-01 -6.105148e+00 -4.000000e+00
    endloop
  endfacet
  facet normal 0.000000e+00 0.000000e+00 -1.000000e+00
    outer loop
      vertex   1.000000e+00 -7.000000e+00 -4.000000e+00
      vertex   8.241131e-01 -6.105148e+00 -4.000000e+00
      vertex   8.837097e-01 -6.117204e+00 -4.000000e+00
    endloop
  endfacet
  facet normal -1.559670e-14 -2.054547e-15 -1.000000e+00
    outer loop
      vertex   8.837097e-01 -6.117204e+00 -4.000000e+00
      vertex   9.423525e-01 -6.130081e+00 -4.000000e+00
      vertex   1.000000e+00 -7.000000e+00 -4.000000e+00
    endloop
  endfacet
  facet normal 1.540705e-14 0.000000e+00 -1.000000e+00
    outer loop
      vertex   1.000000e+00 -7.000000e+00 -4.000000e+00
      vertex   9.423525e-01 -6.130081e+00 -4.000000e+00
      vertex   1.000000e+00 -6.143766e+00 -4.000000e+00
    endloop
  endfacet
  facet normal 0.000000e+00 0.000000e+00 1.000000e+00
    outer loop
      vertex   1.000000e+00 -6.000000e+00 -3.000000e+00
      vertex   0.000000e+00 -6.000000e+00 -3.000000e+00
      vertex   1.000000e+00 -7.000000e+00 -3.000000e+00
    endloop
  endfacet
  facet normal 0.000000e+00 0.000000e+00 1.000000e+00
    outer loop
      vertex   1.000000e+00 -7.000000e+00 -3.000000e+00
      vertex   0.000000e+00 -6.000000e+00 -3.000000e+00
      vertex   0.000000e+00 -7.000000e+00 -3.000000e+00
    endloop
  endfacet
  facet normal 0.000000e+00 -1.000000e+00 0.000000e+00
    outer loop
      vertex   0.000000e+00 -7.000000e+00 -3.000000e+00
      vertex   0.000000e+00 -7.000000e+00 -4.000000e+00
      vertex   1.000000e+00 -7.000000e+00 -3.000000e+00
    endloop
  endfacet
  facet normal 0.000000e+00 -1.000000e+00 -0.000000e+00
    outer loop
      vertex   1.000000e+00 -7.000000e+00 -3.000000e+00
      vertex   0.000000e+00 -7.000000e+00 -4.000000e+00
      vertex   1.000000e+00 -7.000000e+00 -4.000000e+00
    endloop
  endfacet
  facet normal 0.000000e+00 1.000000e+00 -0.000000e+00
    outer loop
      vertex   1.000000e+00 -6.000000e+00 -3.837846e+00
      vertex   9.387094e-01 -6.000000e+00 -3.853295e+00
      vertex   1.000000e+00 -6.000000e+00 -3.000000e+00
    endloop
  endfacet
  facet normal 0.000000e+00 1.000000e+00 0.000000e+00
    outer loop
      vertex   1.000000e+00 -6.000000e+00 -3.000000e+00
      vertex   9.387094e-01 -6.000000e+00 -3.853295e+00
      vertex   8.771784e-01 -6.000000e+00 -3.867767e+00
    endloop
  endfacet
  facet normal 0.000000e+00 1.000000e+00 0.000000e+00
    outer loop
      vertex   1.000000e+00 -6.000000e+00 -3.000000e+00
      vertex   8.771784e-01 -6.000000e+00 -3.867767e+00
      vertex   8.154397e-01 -6.000000e+00 -3.881252e+00
    endloop
  endfacet
  facet normal 0.000000e+00 1.000000e+00 -0.000000e+00
    outer loop
      vertex   8.154397e-01 -6.000000e+00 -3.881252e+00
      vertex   7.535051e-01 -6.000000e+00 -3.893750e+00
      vertex   1.000000e+00 -6.000000e+00 -3.000000e+00
    endloop
  endfacet
  facet normal 0.000000e+00 1.000000e+00 0.000000e+00
    outer loop
      vertex   1.000000e+00 -6.000000e+00 -3.000000e+00
      vertex   7.535051e-01 -6.000000e+00 -3.893750e+00
      vertex   6.913866e-01 -6.000000e+00 -3.905259e+00
    endloop
  endfacet
  facet normal 3.025893e-14 1.000000e+00 -1.031563e-14
    outer loop
      vertex   1.000000e+00 -6.000000e+00 -3.000000e+00
      vertex   6.913866e-01 -6.000000e+00 -3.905259e+00
      vertex   6.290960e-01 -6.000000e+00 -3.915776e+00
    endloop
  endfacet
  facet normal -3.152757e-16 1.000000e+00 2.067421e-15
    outer loop
      vertex   6.290960e-01 -6.000000e+00 -3.915776e+00
      vertex   5.666452e-01 -6.000000e+00 -3.925299e+00
      vertex   1.000000e+00 -6.000000e+00 -3.000000e+00
    endloop
  endfacet
  facet normal 0.000000e+00 1.000000e+00 1.919765e-15
    outer loop
      vertex   1.000000e+00 -6.000000e+00 -3.000000e+00
      vertex   5.666452e-01 -6.000000e+00 -3.925299e+00
      vertex   0.000000e+00 -6.000000e+00 -3.000000e+00
    endloop
  endfacet
  facet normal -2.414001e-16 1.000000e+00 1.771933e-15
    outer loop
      vertex   0.000000e+00 -6.000000e+00 -3.000000e+00
      vertex   5.666452e-01 -6.000000e+00 -3.925299e+00
      vertex   5.040462e-01 -6.000000e+00 -3.933827e+00
    endloop
  endfacet
  facet normal -2.144534e-16 1.000000e+00 1.786478e-15
    outer loop
      vertex   0.000000e+00 -6.000000e+00 -3.000000e+00
      vertex   5.040462e-01 -6.000000e+00 -3.933827e+00
      vertex   4.413107e-01 -6.000000e+00 -3.941358e+00
    endloop
  endfacet
  facet normal -1.869694e-16 1.000000e+00 1.799363e-15
    outer loop
      vertex   4.413107e-01 -6.000000e+00 -3.941358e+00
      vertex   3.784507e-01 -6.000000e+00 -3.947890e+00
      vertex   0.000000e+00 -6.000000e+00 -3.000000e+00
    endloop
  endfacet
  facet normal -1.590092e-16 1.000000e+00 1.810526e-15
    outer loop
      vertex   0.000000e+00 -6.000000e+00 -3.000000e+00
      vertex   3.784507e-01 -6.000000e+00 -3.947890e+00
      vertex   3.154809e-01 -6.000000e+00 -3.953420e+00
    endloop
  endfacet
  facet normal -1.306447e-16 1.000000e+00 1.819912e-15
    outer loop
      vertex   0.000000e+00 -6.000000e+00 -3.000000e+00
      vertex   3.154809e-01 -6.000000e+00 -3.953420e+00
      vertex   2.524465e-01 -6.000000e+00 -3.957945e+00
    endloop
  endfacet
  facet normal -1.397874e-14 1.000000e+00 -1.829464e-15
    outer loop
      vertex   2.524465e-01 -6.000000e+00 -3.957945e+00
      vertex   1.893693e-01 -6.000000e+00 -3.961464e+00
      vertex   0.000000e+00 -6.000000e+00 -3.000000e+00
    endloop
  endfacet
  facet normal -1.400087e-14 1.000000e+00 -1.833823e-15
    outer loop
      vertex   0.000000e+00 -6.000000e+00 -3.000000e+00
      vertex   1.893693e-01 -6.000000e+00 -3.961464e+00
      vertex   1.262611e-01 -6.000000e+00 -3.963978e+00
    endloop
  endfacet
  facet normal 0.000000e+00 1.000000e+00 0.000000e+00
    outer loop
      vertex   0.000000e+00 -6.000000e+00 -3.000000e+00
      vertex   1.262611e-01 -6.000000e+00 -3.963978e+00
      vertex   6.313398e-02 -6.000000e+00 -3.965485e+00
    endloop
  endfacet
  facet normal 0.000000e+00 1.000000e+00 0.000000e+00
    outer loop
      vertex   6.313398e-02 -6.000000e+00 -3.965485e+00
      vertex   0.000000e+00 -6.000000e+00 -3.965988e+00
      vertex   0.000000e+00 -6.000000e+00 -3.000000e+00
    endloop
  endfacet
  facet normal 1.000000e+00 0.000000e+00 -0.000000e+00
    outer loop
      vertex   1.000000e+00 -6.143766e+00 -4.000000e+00
      vertex   1.000000e+00 -6.107178e+00 -3.961868e+00
      vertex   1.000000e+00 -7.000000e+00 -4.000000e+00
    endloop
  endfacet
  facet normal 1.000000e+00 0.000000e+00 0.000000e+00
    outer loop
      vertex   1.000000e+00 -7.000000e+00 -4.000000e+00
      vertex   1.000000e+00 -6.107178e+00 -3.961868e+00
      vertex   1.000000e+00 -7.000000e+00 -3.000000e+00
    endloop
  endfacet
  facet normal 1.000000e+00 0.000000e+00 0.000000e+00
    outer loop
      vertex   1.000000e+00 -7.000000e+00 -3.000000e+00
      vertex   1.000000e+00 -6.107178e+00 -3.961868e+00
      vertex   1.000000e+00 -6.071035e+00 -3.922141e+00
    endloop
  endfacet
  facet normal 1.000000e+00 0.000000e+00 0.000000e+00
    outer loop
      vertex   1.000000e+00 -7.000000e+00 -3.000000e+00
      vertex   1.000000e+00 -6.071035e+00 -3.922141e+00
      vertex   1.000000e+00 -6.035307e+00 -3.880795e+00
    endloop
  endfacet
  facet normal 1.000000e+00 0.000000e+00 -0.000000e+00
    outer loop
      vertex   1.000000e+00 -6.035307e+00 -3.880795e+00
      vertex   1.000000e+00 -6.000000e+00 -3.837846e+00
      vertex   1.000000e+00 -7.000000e+00 -3.000000e+00
    endloop
  endfacet
  facet normal 1.000000e+00 -0.000000e+00 0.000000e+00
    outer loop
      vertex   1.000000e+00 -7.000000e+00 -3.000000e+00
      vertex   1.000000e+00 -6.000000e+00 -3.837846e+00
      vertex   1.000000e+00 -6.000000e+00 -3.000000e+00
    endloop
  endfacet
endsolid
