solid ASCII
  facet normal -2.837843e-01 8.557020e-01 4.327130e-01
    outer loop
      vertex   -2.000000e+00 -5.776336e+00 3.055448e+00
      vertex   -2.000000e+00 -5.748297e+00 3.000000e+00
      vertex   -2.025446e+00 -5.771012e+00 3.028232e+00
    endloop
  endfacet
  facet normal -2.871193e-01 8.559884e-01 4.299375e-01
    outer loop
      vertex   -2.025446e+00 -5.771012e+00 3.028232e+00
      vertex   -2.000000e+00 -5.748297e+00 3.000000e+00
      vertex   -2.040964e+00 -5.762037e+00 3.000000e+00
    endloop
  endfacet
  facet normal -2.949250e-01 8.518285e-01 4.329058e-01
    outer loop
      vertex   -2.025446e+00 -5.771012e+00 3.028232e+00
      vertex   -2.040964e+00 -5.762037e+00 3.000000e+00
      vertex   -2.065627e+00 -5.784924e+00 3.028232e+00
    endloop
  endfacet
  facet normal -2.949129e-01 8.518277e-01 4.329156e-01
    outer loop
      vertex   -2.065627e+00 -5.784924e+00 3.028232e+00
      vertex   -2.040964e+00 -5.762037e+00 3.000000e+00
      vertex   -2.081445e+00 -5.776052e+00 3.000000e+00
    endloop
  endfacet
  facet normal -3.027973e-01 8.474924e-01 4.359707e-01
    outer loop
      vertex   -2.065627e+00 -5.784924e+00 3.028232e+00
      vertex   -2.081445e+00 -5.776052e+00 3.000000e+00
      vertex   -2.105322e+00 -5.799106e+00 3.028232e+00
    endloop
  endfacet
  facet normal -3.027781e-01 8.474913e-01 4.359861e-01
    outer loop
      vertex   -2.105322e+00 -5.799106e+00 3.028232e+00
      vertex   -2.081445e+00 -5.776052e+00 3.000000e+00
      vertex   -2.121436e+00 -5.790339e+00 3.000000e+00
    endloop
  endfacet
  facet normal -3.107390e-01 8.429758e-01 4.391277e-01
    outer loop
      vertex   -2.105322e+00 -5.799106e+00 3.028232e+00
      vertex   -2.121436e+00 -5.790339e+00 3.000000e+00
      vertex   -2.144523e+00 -5.813556e+00 3.028232e+00
    endloop
  endfacet
  facet normal -3.107165e-01 8.429749e-01 4.391453e-01
    outer loop
      vertex   -2.144523e+00 -5.813556e+00 3.028232e+00
      vertex   -2.121436e+00 -5.790339e+00 3.000000e+00
      vertex   -2.160930e+00 -5.804897e+00 3.000000e+00
    endloop
  endfacet
  facet normal -3.187344e-01 8.382844e-01 4.423660e-01
    outer loop
      vertex   -2.144523e+00 -5.813556e+00 3.028232e+00
      vertex   -2.160930e+00 -5.804897e+00 3.000000e+00
      vertex   -2.199921e+00 -5.819722e+00 3.000000e+00
    endloop
  endfacet
  facet normal -3.187481e-01 8.382624e-01 4.423978e-01
    outer loop
      vertex   -2.144523e+00 -5.813556e+00 3.028232e+00
      vertex   -2.199921e+00 -5.819722e+00 3.000000e+00
      vertex   -2.183225e+00 -5.828273e+00 3.028232e+00
    endloop
  endfacet
  facet normal -3.268241e-01 8.333901e-01 4.456983e-01
    outer loop
      vertex   -2.183225e+00 -5.828273e+00 3.028232e+00
      vertex   -2.199921e+00 -5.819722e+00 3.000000e+00
      vertex   -2.238403e+00 -5.834813e+00 3.000000e+00
    endloop
  endfacet
  facet normal -3.268358e-01 8.333708e-01 4.457257e-01
    outer loop
      vertex   -2.183225e+00 -5.828273e+00 3.028232e+00
      vertex   -2.238403e+00 -5.834813e+00 3.000000e+00
      vertex   -2.221420e+00 -5.843252e+00 3.028232e+00
    endloop
  endfacet
  facet normal -3.349914e-01 8.282972e-01 4.491152e-01
    outer loop
      vertex   -2.221420e+00 -5.843252e+00 3.028232e+00
      vertex   -2.238403e+00 -5.834813e+00 3.000000e+00
      vertex   -2.276370e+00 -5.850168e+00 3.000000e+00
    endloop
  endfacet
  facet normal -3.349999e-01 8.282830e-01 4.491351e-01
    outer loop
      vertex   -2.221420e+00 -5.843252e+00 3.028232e+00
      vertex   -2.276370e+00 -5.850168e+00 3.000000e+00
      vertex   -2.259103e+00 -5.858493e+00 3.028232e+00
    endloop
  endfacet
  facet normal -3.432375e-01 8.229990e-01 4.526153e-01
    outer loop
      vertex   -2.259103e+00 -5.858493e+00 3.028232e+00
      vertex   -2.276370e+00 -5.850168e+00 3.000000e+00
      vertex   -2.313815e+00 -5.865785e+00 3.000000e+00
    endloop
  endfacet
  facet normal -3.432712e-01 8.229408e-01 4.526956e-01
    outer loop
      vertex   -2.259103e+00 -5.858493e+00 3.028232e+00
      vertex   -2.313815e+00 -5.865785e+00 3.000000e+00
      vertex   -2.296620e+00 -5.874143e+00 3.028232e+00
    endloop
  endfacet
  facet normal -3.515740e-01 8.175126e-01 4.561456e-01
    outer loop
      vertex   -2.296620e+00 -5.874143e+00 3.028232e+00
      vertex   -2.313815e+00 -5.865785e+00 3.000000e+00
      vertex   -2.350731e+00 -5.881661e+00 3.000000e+00
    endloop
  endfacet
  facet normal -3.516399e-01 8.173965e-01 4.563028e-01
    outer loop
      vertex   -2.296620e+00 -5.874143e+00 3.028232e+00
      vertex   -2.350731e+00 -5.881661e+00 3.000000e+00
      vertex   -2.333339e+00 -5.889939e+00 3.028232e+00
    endloop
  endfacet
  facet normal -3.599833e-01 8.117867e-01 4.597981e-01
    outer loop
      vertex   -2.333339e+00 -5.889939e+00 3.028232e+00
      vertex   -2.350731e+00 -5.881661e+00 3.000000e+00
      vertex   -2.387113e+00 -5.897794e+00 3.000000e+00
    endloop
  endfacet
  facet normal -3.600583e-01 8.116513e-01 4.599785e-01
    outer loop
      vertex   -2.333339e+00 -5.889939e+00 3.028232e+00
      vertex   -2.387113e+00 -5.897794e+00 3.000000e+00
      vertex   -2.369509e+00 -5.905984e+00 3.028232e+00
    endloop
  endfacet
  facet normal -3.684730e-01 8.058297e-01 4.635366e-01
    outer loop
      vertex   -2.369509e+00 -5.905984e+00 3.028232e+00
      vertex   -2.387113e+00 -5.897794e+00 3.000000e+00
      vertex   -2.422954e+00 -5.914183e+00 3.000000e+00
    endloop
  endfacet
  facet normal -3.685547e-01 8.056779e-01 4.637354e-01
    outer loop
      vertex   -2.369509e+00 -5.905984e+00 3.028232e+00
      vertex   -2.422954e+00 -5.914183e+00 3.000000e+00
      vertex   -2.405120e+00 -5.922274e+00 3.028232e+00
    endloop
  endfacet
  facet normal -3.770424e-01 7.996312e-01 4.673639e-01
    outer loop
      vertex   -2.405120e+00 -5.922274e+00 3.028232e+00
      vertex   -2.422954e+00 -5.914183e+00 3.000000e+00
      vertex   -2.458247e+00 -5.930824e+00 3.000000e+00
    endloop
  endfacet
  facet normal -3.771281e-01 7.994675e-01 4.675747e-01
    outer loop
      vertex   -2.405120e+00 -5.922274e+00 3.028232e+00
      vertex   -2.458247e+00 -5.930824e+00 3.000000e+00
      vertex   -2.440158e+00 -5.938803e+00 3.028232e+00
    endloop
  endfacet
  facet normal -3.856905e-01 7.931798e-01 4.712841e-01
    outer loop
      vertex   -2.440158e+00 -5.938803e+00 3.028232e+00
      vertex   -2.458247e+00 -5.930824e+00 3.000000e+00
      vertex   -2.492986e+00 -5.947717e+00 3.000000e+00
    endloop
  endfacet
  facet normal -3.857766e-01 7.930104e-01 4.714987e-01
    outer loop
      vertex   -2.440158e+00 -5.938803e+00 3.028232e+00
      vertex   -2.492986e+00 -5.947717e+00 3.000000e+00
      vertex   -2.474611e+00 -5.955563e+00 3.028232e+00
    endloop
  endfacet
  facet normal -3.944154e-01 7.864633e-01 4.753019e-01
    outer loop
      vertex   -2.474611e+00 -5.955563e+00 3.028232e+00
      vertex   -2.492986e+00 -5.947717e+00 3.000000e+00
      vertex   -2.527166e+00 -5.964858e+00 3.000000e+00
    endloop
  endfacet
  facet normal -3.944978e-01 7.862960e-01 4.755104e-01
    outer loop
      vertex   -2.474611e+00 -5.955563e+00 3.028232e+00
      vertex   -2.527166e+00 -5.964858e+00 3.000000e+00
      vertex   -2.508467e+00 -5.972549e+00 3.028232e+00
    endloop
  endfacet
  facet normal -4.032145e-01 7.794686e-01 4.794234e-01
    outer loop
      vertex   -2.508467e+00 -5.972549e+00 3.028232e+00
      vertex   -2.527166e+00 -5.964858e+00 3.000000e+00
      vertex   -2.560778e+00 -5.982245e+00 3.000000e+00
    endloop
  endfacet
  facet normal -4.032885e-01 7.793131e-01 4.796139e-01
    outer loop
      vertex   -2.508467e+00 -5.972549e+00 3.028232e+00
      vertex   -2.560778e+00 -5.982245e+00 3.000000e+00
      vertex   -2.541717e+00 -5.989756e+00 3.028232e+00
    endloop
  endfacet
  facet normal -4.104842e-01 7.734906e-01 4.829234e-01
    outer loop
      vertex   -2.541717e+00 -5.989756e+00 3.028232e+00
      vertex   -2.560778e+00 -5.982245e+00 3.000000e+00
      vertex   -2.559346e+00 -6.000000e+00 3.029655e+00
    endloop
  endfacet
  facet normal -4.083754e-01 7.707201e-01 4.891014e-01
    outer loop
      vertex   -2.541717e+00 -5.989756e+00 3.028232e+00
      vertex   -2.559346e+00 -6.000000e+00 3.029655e+00
      vertex   -2.524305e+00 -6.000000e+00 3.058912e+00
    endloop
  endfacet
  facet normal -4.124170e-01 7.726994e-01 4.825431e-01
    outer loop
      vertex   -2.560778e+00 -5.982245e+00 3.000000e+00
      vertex   -2.594043e+00 -6.000000e+00 3.000000e+00
      vertex   -2.559346e+00 -6.000000e+00 3.029655e+00
    endloop
  endfacet
  facet normal -4.087066e-01 7.704767e-01 4.892081e-01
    outer loop
      vertex   -2.541717e+00 -5.989756e+00 3.028232e+00
      vertex   -2.524305e+00 -6.000000e+00 3.058912e+00
      vertex   -2.522085e+00 -5.997134e+00 3.056253e+00
    endloop
  endfacet
  facet normal -4.029200e-01 7.704564e-01 4.940167e-01
    outer loop
      vertex   -2.522085e+00 -5.997134e+00 3.056253e+00
      vertex   -2.524305e+00 -6.000000e+00 3.058912e+00
      vertex   -2.488926e+00 -6.000000e+00 3.087768e+00
    endloop
  endfacet
  facet normal -4.002573e-01 7.734557e-01 4.914879e-01
    outer loop
      vertex   -2.522085e+00 -5.997134e+00 3.056253e+00
      vertex   -2.488926e+00 -6.000000e+00 3.087768e+00
      vertex   -2.489093e+00 -5.980060e+00 3.056253e+00
    endloop
  endfacet
  facet normal -3.992206e-01 7.738403e-01 4.917257e-01
    outer loop
      vertex   -2.489093e+00 -5.980060e+00 3.056253e+00
      vertex   -2.488926e+00 -6.000000e+00 3.087768e+00
      vertex   -2.469537e+00 -5.987641e+00 3.084060e+00
    endloop
  endfacet
  facet normal -3.914259e-01 7.801733e-01 4.879706e-01
    outer loop
      vertex   -2.489093e+00 -5.980060e+00 3.056253e+00
      vertex   -2.469537e+00 -5.987641e+00 3.084060e+00
      vertex   -2.455497e+00 -5.963205e+00 3.056253e+00
    endloop
  endfacet
  facet normal -3.914259e-01 7.801733e-01 4.879706e-01
    outer loop
      vertex   -2.455497e+00 -5.963205e+00 3.056253e+00
      vertex   -2.469537e+00 -5.987641e+00 3.084060e+00
      vertex   -2.436206e+00 -5.970919e+00 3.084060e+00
    endloop
  endfacet
  facet normal -3.828297e-01 7.869527e-01 4.838873e-01
    outer loop
      vertex   -2.455497e+00 -5.963205e+00 3.056253e+00
      vertex   -2.436206e+00 -5.970919e+00 3.084060e+00
      vertex   -2.421311e+00 -5.946574e+00 3.056253e+00
    endloop
  endfacet
  facet normal -3.828297e-01 7.869527e-01 4.838873e-01
    outer loop
      vertex   -2.421311e+00 -5.946574e+00 3.056253e+00
      vertex   -2.436206e+00 -5.970919e+00 3.084060e+00
      vertex   -2.402288e+00 -5.954418e+00 3.084060e+00
    endloop
  endfacet
  facet normal -3.743011e-01 7.934745e-01 4.798926e-01
    outer loop
      vertex   -2.421311e+00 -5.946574e+00 3.056253e+00
      vertex   -2.402288e+00 -5.954418e+00 3.084060e+00
      vertex   -2.386544e+00 -5.930174e+00 3.056253e+00
    endloop
  endfacet
  facet normal -3.743011e-01 7.934745e-01 4.798926e-01
    outer loop
      vertex   -2.386544e+00 -5.930174e+00 3.056253e+00
      vertex   -2.402288e+00 -5.954418e+00 3.084060e+00
      vertex   -2.367794e+00 -5.938147e+00 3.084060e+00
    endloop
  endfacet
  facet normal -3.658418e-01 7.997474e-01 4.759873e-01
    outer loop
      vertex   -2.386544e+00 -5.930174e+00 3.056253e+00
      vertex   -2.367794e+00 -5.938147e+00 3.084060e+00
      vertex   -2.351208e+00 -5.914010e+00 3.056253e+00
    endloop
  endfacet
  facet normal -3.658418e-01 7.997474e-01 4.759873e-01
    outer loop
      vertex   -2.351208e+00 -5.914010e+00 3.056253e+00
      vertex   -2.367794e+00 -5.938147e+00 3.084060e+00
      vertex   -2.332736e+00 -5.922110e+00 3.084060e+00
    endloop
  endfacet
  facet normal -3.574535e-01 8.057795e-01 4.721720e-01
    outer loop
      vertex   -2.351208e+00 -5.914010e+00 3.056253e+00
      vertex   -2.332736e+00 -5.922110e+00 3.084060e+00
      vertex   -2.315317e+00 -5.898088e+00 3.056253e+00
    endloop
  endfacet
  facet normal -3.574535e-01 8.057795e-01 4.721720e-01
    outer loop
      vertex   -2.315317e+00 -5.898088e+00 3.056253e+00
      vertex   -2.332736e+00 -5.922110e+00 3.084060e+00
      vertex   -2.297126e+00 -5.906313e+00 3.084060e+00
    endloop
  endfacet
  facet normal -3.491372e-01 8.115789e-01 4.684473e-01
    outer loop
      vertex   -2.315317e+00 -5.898088e+00 3.056253e+00
      vertex   -2.297126e+00 -5.906313e+00 3.084060e+00
      vertex   -2.278882e+00 -5.882414e+00 3.056253e+00
    endloop
  endfacet
  facet normal -3.491372e-01 8.115789e-01 4.684473e-01
    outer loop
      vertex   -2.278882e+00 -5.882414e+00 3.056253e+00
      vertex   -2.297126e+00 -5.906313e+00 3.084060e+00
      vertex   -2.260978e+00 -5.890762e+00 3.084060e+00
    endloop
  endfacet
  facet normal -3.408693e-01 8.171700e-01 4.648024e-01
    outer loop
      vertex   -2.278882e+00 -5.882414e+00 3.056253e+00
      vertex   -2.260978e+00 -5.890762e+00 3.084060e+00
      vertex   -2.224080e+00 -5.875371e+00 3.084060e+00
    endloop
  endfacet
  facet normal -3.396083e-01 8.141469e-01 4.709893e-01
    outer loop
      vertex   -2.224080e+00 -5.875371e+00 3.084060e+00
      vertex   -2.260978e+00 -5.890762e+00 3.084060e+00
      vertex   -2.206325e+00 -5.883926e+00 3.111651e+00
    endloop
  endfacet
  facet normal -3.314750e-01 8.195347e-01 4.674261e-01
    outer loop
      vertex   -2.224080e+00 -5.875371e+00 3.084060e+00
      vertex   -2.206325e+00 -5.883926e+00 3.111651e+00
      vertex   -2.169510e+00 -5.869035e+00 3.111651e+00
    endloop
  endfacet
  facet normal -3.302363e-01 8.164721e-01 4.736214e-01
    outer loop
      vertex   -2.169510e+00 -5.869035e+00 3.111651e+00
      vertex   -2.206325e+00 -5.883926e+00 3.111651e+00
      vertex   -2.151890e+00 -5.877786e+00 3.139021e+00
    endloop
  endfacet
  facet normal -3.222537e-01 8.216572e-01 4.701404e-01
    outer loop
      vertex   -2.169510e+00 -5.869035e+00 3.111651e+00
      vertex   -2.151890e+00 -5.877786e+00 3.139021e+00
      vertex   -2.114869e+00 -5.863266e+00 3.139021e+00
    endloop
  endfacet
  facet normal -3.210358e-01 8.185520e-01 4.763492e-01
    outer loop
      vertex   -2.114869e+00 -5.863266e+00 3.139021e+00
      vertex   -2.151890e+00 -5.877786e+00 3.139021e+00
      vertex   -2.097395e+00 -5.872211e+00 3.166169e+00
    endloop
  endfacet
  facet normal -3.131659e-01 8.235649e-01 4.729354e-01
    outer loop
      vertex   -2.114869e+00 -5.863266e+00 3.139021e+00
      vertex   -2.097395e+00 -5.872211e+00 3.166169e+00
      vertex   -2.060184e+00 -5.858062e+00 3.166169e+00
    endloop
  endfacet
  facet normal -3.119684e-01 8.204156e-01 4.791597e-01
    outer loop
      vertex   -2.060184e+00 -5.858062e+00 3.166169e+00
      vertex   -2.097395e+00 -5.872211e+00 3.166169e+00
      vertex   -2.042866e+00 -5.867200e+00 3.193091e+00
    endloop
  endfacet
  facet normal -3.042078e-01 8.252633e-01 4.758131e-01
    outer loop
      vertex   -2.060184e+00 -5.858062e+00 3.166169e+00
      vertex   -2.042866e+00 -5.867200e+00 3.193091e+00
      vertex   -2.022490e+00 -5.844167e+00 3.166169e+00
    endloop
  endfacet
  facet normal -3.042073e-01 8.252633e-01 4.758134e-01
    outer loop
      vertex   -2.022490e+00 -5.844167e+00 3.166169e+00
      vertex   -2.042866e+00 -5.867200e+00 3.193091e+00
      vertex   -2.005482e+00 -5.853420e+00 3.193091e+00
    endloop
  endfacet
  facet normal -2.977158e-01 8.292009e-01 4.730657e-01
    outer loop
      vertex   -2.022490e+00 -5.844167e+00 3.166169e+00
      vertex   -2.005482e+00 -5.853420e+00 3.193091e+00
      vertex   -2.000000e+00 -5.835063e+00 3.164366e+00
    endloop
  endfacet
  facet normal -2.756734e-01 8.330014e-01 4.797007e-01
    outer loop
      vertex   -2.000000e+00 -5.835063e+00 3.164366e+00
      vertex   -2.005482e+00 -5.853420e+00 3.193091e+00
      vertex   -2.000000e+00 -5.865773e+00 3.217694e+00
    endloop
  endfacet
  facet normal -3.032849e-01 8.227608e-01 4.807109e-01
    outer loop
      vertex   -2.000000e+00 -5.865773e+00 3.217694e+00
      vertex   -2.005482e+00 -5.853420e+00 3.193091e+00
      vertex   -2.042866e+00 -5.867200e+00 3.193091e+00
    endloop
  endfacet
  facet normal -3.043330e-01 8.212521e-01 4.826245e-01
    outer loop
      vertex   -2.000000e+00 -5.865773e+00 3.217694e+00
      vertex   -2.042866e+00 -5.867200e+00 3.193091e+00
      vertex   -2.025403e+00 -5.876416e+00 3.219785e+00
    endloop
  endfacet
  facet normal -3.107448e-01 8.171943e-01 4.854185e-01
    outer loop
      vertex   -2.025403e+00 -5.876416e+00 3.219785e+00
      vertex   -2.042866e+00 -5.867200e+00 3.193091e+00
      vertex   -2.079771e+00 -5.881233e+00 3.193091e+00
    endloop
  endfacet
  facet normal -3.107455e-01 8.171930e-01 4.854203e-01
    outer loop
      vertex   -2.025403e+00 -5.876416e+00 3.219785e+00
      vertex   -2.079771e+00 -5.881233e+00 3.193091e+00
      vertex   -2.061997e+00 -5.890331e+00 3.219785e+00
    endloop
  endfacet
  facet normal -3.185215e-01 8.121264e-01 4.888709e-01
    outer loop
      vertex   -2.061997e+00 -5.890331e+00 3.219785e+00
      vertex   -2.079771e+00 -5.881233e+00 3.193091e+00
      vertex   -2.116187e+00 -5.895516e+00 3.193091e+00
    endloop
  endfacet
  facet normal -3.185232e-01 8.121233e-01 4.888749e-01
    outer loop
      vertex   -2.061997e+00 -5.890331e+00 3.219785e+00
      vertex   -2.116187e+00 -5.895516e+00 3.193091e+00
      vertex   -2.098108e+00 -5.904494e+00 3.219785e+00
    endloop
  endfacet
  facet normal -3.263607e-01 8.068575e-01 4.924121e-01
    outer loop
      vertex   -2.098108e+00 -5.904494e+00 3.219785e+00
      vertex   -2.116187e+00 -5.895516e+00 3.193091e+00
      vertex   -2.152111e+00 -5.910047e+00 3.193091e+00
    endloop
  endfacet
  facet normal -3.263631e-01 8.068529e-01 4.924181e-01
    outer loop
      vertex   -2.098108e+00 -5.904494e+00 3.219785e+00
      vertex   -2.152111e+00 -5.910047e+00 3.193091e+00
      vertex   -2.133729e+00 -5.918902e+00 3.219785e+00
    endloop
  endfacet
  facet normal -3.342863e-01 8.013638e-01 4.960532e-01
    outer loop
      vertex   -2.133729e+00 -5.918902e+00 3.219785e+00
      vertex   -2.152111e+00 -5.910047e+00 3.193091e+00
      vertex   -2.187742e+00 -5.924910e+00 3.193091e+00
    endloop
  endfacet
  facet normal -3.342878e-01 8.013610e-01 4.960567e-01
    outer loop
      vertex   -2.133729e+00 -5.918902e+00 3.219785e+00
      vertex   -2.187742e+00 -5.924910e+00 3.193091e+00
      vertex   -2.169037e+00 -5.933631e+00 3.219785e+00
    endloop
  endfacet
  facet normal -3.422826e-01 7.956452e-01 4.997912e-01
    outer loop
      vertex   -2.169037e+00 -5.933631e+00 3.219785e+00
      vertex   -2.187742e+00 -5.924910e+00 3.193091e+00
      vertex   -2.203716e+00 -5.948550e+00 3.219785e+00
    endloop
  endfacet
  facet normal -3.408212e-01 7.922481e-01 5.061461e-01
    outer loop
      vertex   -2.169037e+00 -5.933631e+00 3.219785e+00
      vertex   -2.203716e+00 -5.948550e+00 3.219785e+00
      vertex   -2.184556e+00 -5.957213e+00 3.246247e+00
    endloop
  endfacet
  facet normal -3.488083e-01 7.862914e-01 5.099790e-01
    outer loop
      vertex   -2.184556e+00 -5.957213e+00 3.246247e+00
      vertex   -2.203716e+00 -5.948550e+00 3.219785e+00
      vertex   -2.218421e+00 -5.972236e+00 3.246247e+00
    endloop
  endfacet
  facet normal -3.472573e-01 7.827952e-01 5.163759e-01
    outer loop
      vertex   -2.184556e+00 -5.957213e+00 3.246247e+00
      vertex   -2.218421e+00 -5.972236e+00 3.246247e+00
      vertex   -2.198807e+00 -5.980836e+00 3.272474e+00
    endloop
  endfacet
  facet normal -3.552444e-01 7.765809e-01 5.203110e-01
    outer loop
      vertex   -2.198807e+00 -5.980836e+00 3.272474e+00
      vertex   -2.218421e+00 -5.972236e+00 3.246247e+00
      vertex   -2.231852e+00 -5.995953e+00 3.272474e+00
    endloop
  endfacet
  facet normal -3.536845e-01 7.731709e-01 5.264162e-01
    outer loop
      vertex   -2.198807e+00 -5.980836e+00 3.272474e+00
      vertex   -2.231852e+00 -5.995953e+00 3.272474e+00
      vertex   -2.194087e+00 -6.000000e+00 3.303792e+00
    endloop
  endfacet
  facet normal -3.547399e-01 7.719284e-01 5.275283e-01
    outer loop
      vertex   -2.194087e+00 -6.000000e+00 3.303792e+00
      vertex   -2.231852e+00 -5.995953e+00 3.272474e+00
      vertex   -2.232058e+00 -6.000000e+00 3.278259e+00
    endloop
  endfacet
  facet normal -3.623627e-01 7.696545e-01 5.256665e-01
    outer loop
      vertex   -2.232058e+00 -6.000000e+00 3.278259e+00
      vertex   -2.231852e+00 -5.995953e+00 3.272474e+00
      vertex   -2.269717e+00 -6.000000e+00 3.252299e+00
    endloop
  endfacet
  facet normal -3.613575e-01 7.716881e-01 5.233719e-01
    outer loop
      vertex   -2.269717e+00 -6.000000e+00 3.252299e+00
      vertex   -2.231852e+00 -5.995953e+00 3.272474e+00
      vertex   -2.251761e+00 -5.987487e+00 3.246247e+00
    endloop
  endfacet
  facet normal -3.647417e-01 7.738505e-01 5.178020e-01
    outer loop
      vertex   -2.269717e+00 -6.000000e+00 3.252299e+00
      vertex   -2.251761e+00 -5.987487e+00 3.246247e+00
      vertex   -2.271510e+00 -5.979089e+00 3.219785e+00
    endloop
  endfacet
  facet normal -3.568555e-01 7.801028e-01 5.139005e-01
    outer loop
      vertex   -2.271510e+00 -5.979089e+00 3.219785e+00
      vertex   -2.251761e+00 -5.987487e+00 3.246247e+00
      vertex   -2.237878e+00 -5.963704e+00 3.219785e+00
    endloop
  endfacet
  facet normal -3.584332e-01 7.835518e-01 5.075157e-01
    outer loop
      vertex   -2.271510e+00 -5.979089e+00 3.219785e+00
      vertex   -2.237878e+00 -5.963704e+00 3.219785e+00
      vertex   -2.257175e+00 -5.955242e+00 3.193091e+00
    endloop
  endfacet
  facet normal -3.503269e-01 7.897146e-01 5.036089e-01
    outer loop
      vertex   -2.257175e+00 -5.955242e+00 3.193091e+00
      vertex   -2.237878e+00 -5.963704e+00 3.219785e+00
      vertex   -2.222719e+00 -5.939957e+00 3.193091e+00
    endloop
  endfacet
  facet normal -3.518136e-01 7.930660e-01 4.972660e-01
    outer loop
      vertex   -2.257175e+00 -5.955242e+00 3.193091e+00
      vertex   -2.222719e+00 -5.939957e+00 3.193091e+00
      vertex   -2.241564e+00 -5.931436e+00 3.166169e+00
    endloop
  endfacet
  facet normal -3.437132e-01 7.989705e-01 4.934647e-01
    outer loop
      vertex   -2.241564e+00 -5.931436e+00 3.166169e+00
      vertex   -2.222719e+00 -5.939957e+00 3.193091e+00
      vertex   -2.206290e+00 -5.916261e+00 3.166169e+00
    endloop
  endfacet
  facet normal -3.451133e-01 8.022252e-01 4.871668e-01
    outer loop
      vertex   -2.241564e+00 -5.931436e+00 3.166169e+00
      vertex   -2.206290e+00 -5.916261e+00 3.166169e+00
      vertex   -2.224680e+00 -5.907687e+00 3.139021e+00
    endloop
  endfacet
  facet normal -3.370066e-01 8.078912e-01 4.834649e-01
    outer loop
      vertex   -2.224680e+00 -5.907687e+00 3.139021e+00
      vertex   -2.206290e+00 -5.916261e+00 3.166169e+00
      vertex   -2.170339e+00 -5.901265e+00 3.166169e+00
    endloop
  endfacet
  facet normal -3.370052e-01 8.078939e-01 4.834613e-01
    outer loop
      vertex   -2.224680e+00 -5.907687e+00 3.139021e+00
      vertex   -2.170339e+00 -5.901265e+00 3.166169e+00
      vertex   -2.188411e+00 -5.892557e+00 3.139021e+00
    endloop
  endfacet
  facet normal -3.289752e-01 8.133324e-01 4.798601e-01
    outer loop
      vertex   -2.188411e+00 -5.892557e+00 3.139021e+00
      vertex   -2.170339e+00 -5.901265e+00 3.166169e+00
      vertex   -2.134115e+00 -5.886613e+00 3.166169e+00
    endloop
  endfacet
  facet normal -3.289727e-01 8.133370e-01 4.798540e-01
    outer loop
      vertex   -2.188411e+00 -5.892557e+00 3.139021e+00
      vertex   -2.134115e+00 -5.886613e+00 3.166169e+00
      vertex   -2.151890e+00 -5.877786e+00 3.139021e+00
    endloop
  endfacet
  facet normal -3.210375e-01 8.185490e-01 4.763533e-01
    outer loop
      vertex   -2.151890e+00 -5.877786e+00 3.139021e+00
      vertex   -2.134115e+00 -5.886613e+00 3.166169e+00
      vertex   -2.097395e+00 -5.872211e+00 3.166169e+00
    endloop
  endfacet
  facet normal -3.965053e-01 7.713855e-01 4.977428e-01
    outer loop
      vertex   -2.488926e+00 -6.000000e+00 3.087768e+00
      vertex   -2.453211e+00 -6.000000e+00 3.116219e+00
      vertex   -2.469537e+00 -5.987641e+00 3.084060e+00
    endloop
  endfacet
  facet normal -3.973660e-01 7.708045e-01 4.979565e-01
    outer loop
      vertex   -2.469537e+00 -5.987641e+00 3.084060e+00
      vertex   -2.453211e+00 -6.000000e+00 3.116219e+00
      vertex   -2.449802e+00 -5.995292e+00 3.111651e+00
    endloop
  endfacet
  facet normal -3.898301e-01 7.769926e-01 4.942822e-01
    outer loop
      vertex   -2.469537e+00 -5.987641e+00 3.084060e+00
      vertex   -2.449802e+00 -5.995292e+00 3.111651e+00
      vertex   -2.436206e+00 -5.970919e+00 3.084060e+00
    endloop
  endfacet
  facet normal -3.898301e-01 7.769926e-01 4.942822e-01
    outer loop
      vertex   -2.436206e+00 -5.970919e+00 3.084060e+00
      vertex   -2.449802e+00 -5.995292e+00 3.111651e+00
      vertex   -2.416738e+00 -5.978703e+00 3.111651e+00
    endloop
  endfacet
  facet normal -3.812948e-01 7.837975e-01 4.901794e-01
    outer loop
      vertex   -2.436206e+00 -5.970919e+00 3.084060e+00
      vertex   -2.416738e+00 -5.978703e+00 3.111651e+00
      vertex   -2.402288e+00 -5.954418e+00 3.084060e+00
    endloop
  endfacet
  facet normal -3.812948e-01 7.837975e-01 4.901794e-01
    outer loop
      vertex   -2.402288e+00 -5.954418e+00 3.084060e+00
      vertex   -2.416738e+00 -5.978703e+00 3.111651e+00
      vertex   -2.383090e+00 -5.962334e+00 3.111651e+00
    endloop
  endfacet
  facet normal -3.728249e-01 7.903452e-01 4.861647e-01
    outer loop
      vertex   -2.402288e+00 -5.954418e+00 3.084060e+00
      vertex   -2.383090e+00 -5.962334e+00 3.111651e+00
      vertex   -2.367794e+00 -5.938147e+00 3.084060e+00
    endloop
  endfacet
  facet normal -3.728249e-01 7.903452e-01 4.861647e-01
    outer loop
      vertex   -2.367794e+00 -5.938147e+00 3.084060e+00
      vertex   -2.383090e+00 -5.962334e+00 3.111651e+00
      vertex   -2.348872e+00 -5.946193e+00 3.111651e+00
    endloop
  endfacet
  facet normal -3.644222e-01 7.966442e-01 4.822391e-01
    outer loop
      vertex   -2.367794e+00 -5.938147e+00 3.084060e+00
      vertex   -2.348872e+00 -5.946193e+00 3.111651e+00
      vertex   -2.332736e+00 -5.922110e+00 3.084060e+00
    endloop
  endfacet
  facet normal -3.644222e-01 7.966442e-01 4.822391e-01
    outer loop
      vertex   -2.332736e+00 -5.922110e+00 3.084060e+00
      vertex   -2.348872e+00 -5.946193e+00 3.111651e+00
      vertex   -2.314094e+00 -5.930284e+00 3.111651e+00
    endloop
  endfacet
  facet normal -3.560885e-01 8.027025e-01 4.784033e-01
    outer loop
      vertex   -2.332736e+00 -5.922110e+00 3.084060e+00
      vertex   -2.314094e+00 -5.930284e+00 3.111651e+00
      vertex   -2.297126e+00 -5.906313e+00 3.084060e+00
    endloop
  endfacet
  facet normal -3.560885e-01 8.027025e-01 4.784033e-01
    outer loop
      vertex   -2.297126e+00 -5.906313e+00 3.084060e+00
      vertex   -2.314094e+00 -5.930284e+00 3.111651e+00
      vertex   -2.278769e+00 -5.914613e+00 3.111651e+00
    endloop
  endfacet
  facet normal -3.478248e-01 8.085282e-01 4.746578e-01
    outer loop
      vertex   -2.297126e+00 -5.906313e+00 3.084060e+00
      vertex   -2.278769e+00 -5.914613e+00 3.111651e+00
      vertex   -2.260978e+00 -5.890762e+00 3.084060e+00
    endloop
  endfacet
  facet normal -3.478248e-01 8.085282e-01 4.746578e-01
    outer loop
      vertex   -2.260978e+00 -5.890762e+00 3.084060e+00
      vertex   -2.278769e+00 -5.914613e+00 3.111651e+00
      vertex   -2.242910e+00 -5.899186e+00 3.111651e+00
    endloop
  endfacet
  facet normal -3.396098e-01 8.141442e-01 4.709930e-01
    outer loop
      vertex   -2.260978e+00 -5.890762e+00 3.084060e+00
      vertex   -2.242910e+00 -5.899186e+00 3.111651e+00
      vertex   -2.206325e+00 -5.883926e+00 3.111651e+00
    endloop
  endfacet
  facet normal -3.383209e-01 8.110544e-01 4.772103e-01
    outer loop
      vertex   -2.206325e+00 -5.883926e+00 3.111651e+00
      vertex   -2.242910e+00 -5.899186e+00 3.111651e+00
      vertex   -2.188411e+00 -5.892557e+00 3.139021e+00
    endloop
  endfacet
  facet normal -3.302389e-01 8.164675e-01 4.736275e-01
    outer loop
      vertex   -2.206325e+00 -5.883926e+00 3.111651e+00
      vertex   -2.188411e+00 -5.892557e+00 3.139021e+00
      vertex   -2.151890e+00 -5.877786e+00 3.139021e+00
    endloop
  endfacet
  facet normal -3.911041e-01 7.709065e-01 5.027333e-01
    outer loop
      vertex   -2.453211e+00 -6.000000e+00 3.116219e+00
      vertex   -2.417163e+00 -6.000000e+00 3.144262e+00
      vertex   -2.449802e+00 -5.995292e+00 3.111651e+00
    endloop
  endfacet
  facet normal -3.882748e-01 7.738926e-01 5.003327e-01
    outer loop
      vertex   -2.449802e+00 -5.995292e+00 3.111651e+00
      vertex   -2.417163e+00 -6.000000e+00 3.144262e+00
      vertex   -2.416738e+00 -5.978703e+00 3.111651e+00
    endloop
  endfacet
  facet normal -3.853187e-01 7.708648e-01 5.072445e-01
    outer loop
      vertex   -2.380786e+00 -6.000000e+00 3.171895e+00
      vertex   -2.377280e+00 -5.994479e+00 3.166169e+00
      vertex   -2.417163e+00 -6.000000e+00 3.144262e+00
    endloop
  endfacet
  facet normal -3.848489e-01 7.718193e-01 5.061485e-01
    outer loop
      vertex   -2.417163e+00 -6.000000e+00 3.144262e+00
      vertex   -2.377280e+00 -5.994479e+00 3.166169e+00
      vertex   -2.397095e+00 -5.986557e+00 3.139021e+00
    endloop
  endfacet
  facet normal -3.878318e-01 7.740462e-01 5.004388e-01
    outer loop
      vertex   -2.417163e+00 -6.000000e+00 3.144262e+00
      vertex   -2.397095e+00 -5.986557e+00 3.139021e+00
      vertex   -2.416738e+00 -5.978703e+00 3.111651e+00
    endloop
  endfacet
  facet normal -3.797275e-01 7.805757e-01 4.964963e-01
    outer loop
      vertex   -2.416738e+00 -5.978703e+00 3.111651e+00
      vertex   -2.397095e+00 -5.986557e+00 3.139021e+00
      vertex   -2.383090e+00 -5.962334e+00 3.111651e+00
    endloop
  endfacet
  facet normal -3.792040e-01 7.712056e-01 5.113181e-01
    outer loop
      vertex   -2.380786e+00 -6.000000e+00 3.171895e+00
      vertex   -2.344084e+00 -6.000000e+00 3.199114e+00
      vertex   -2.377280e+00 -5.994479e+00 3.166169e+00
    endloop
  endfacet
  facet normal -3.765243e-01 7.739911e-01 5.090848e-01
    outer loop
      vertex   -2.377280e+00 -5.994479e+00 3.166169e+00
      vertex   -2.344084e+00 -6.000000e+00 3.199114e+00
      vertex   -2.344182e+00 -5.978378e+00 3.166169e+00
    endloop
  endfacet
  facet normal -3.781273e-01 7.772862e-01 5.028379e-01
    outer loop
      vertex   -2.377280e+00 -5.994479e+00 3.166169e+00
      vertex   -2.344182e+00 -5.978378e+00 3.166169e+00
      vertex   -2.363721e+00 -5.970321e+00 3.139021e+00
    endloop
  endfacet
  facet normal -3.697776e-01 7.838853e-01 4.987868e-01
    outer loop
      vertex   -2.363721e+00 -5.970321e+00 3.139021e+00
      vertex   -2.344182e+00 -5.978378e+00 3.166169e+00
      vertex   -2.329781e+00 -5.954311e+00 3.139021e+00
    endloop
  endfacet
  facet normal -3.713172e-01 7.871492e-01 4.924629e-01
    outer loop
      vertex   -2.363721e+00 -5.970321e+00 3.139021e+00
      vertex   -2.329781e+00 -5.954311e+00 3.139021e+00
      vertex   -2.348872e+00 -5.946193e+00 3.111651e+00
    endloop
  endfacet
  facet normal -3.629722e-01 7.934742e-01 4.885181e-01
    outer loop
      vertex   -2.348872e+00 -5.946193e+00 3.111651e+00
      vertex   -2.329781e+00 -5.954311e+00 3.139021e+00
      vertex   -2.314094e+00 -5.930284e+00 3.111651e+00
    endloop
  endfacet
  facet normal -3.737447e-01 7.705605e-01 5.162862e-01
    outer loop
      vertex   -2.307060e+00 -6.000000e+00 3.225916e+00
      vertex   -2.304601e+00 -5.994699e+00 3.219785e+00
      vertex   -2.344084e+00 -6.000000e+00 3.199114e+00
    endloop
  endfacet
  facet normal -3.731188e-01 7.718907e-01 5.147495e-01
    outer loop
      vertex   -2.344084e+00 -6.000000e+00 3.199114e+00
      vertex   -2.304601e+00 -5.994699e+00 3.219785e+00
      vertex   -2.324474e+00 -5.986505e+00 3.193091e+00
    endloop
  endfacet
  facet normal -3.763355e-01 7.740554e-01 5.091265e-01
    outer loop
      vertex   -2.344084e+00 -6.000000e+00 3.199114e+00
      vertex   -2.324474e+00 -5.986505e+00 3.193091e+00
      vertex   -2.344182e+00 -5.978378e+00 3.166169e+00
    endloop
  endfacet
  facet normal -3.682054e-01 7.805525e-01 5.051362e-01
    outer loop
      vertex   -2.344182e+00 -5.978378e+00 3.166169e+00
      vertex   -2.324474e+00 -5.986505e+00 3.193091e+00
      vertex   -2.310522e+00 -5.962500e+00 3.166169e+00
    endloop
  endfacet
  facet normal -3.697776e-01 7.838853e-01 4.987868e-01
    outer loop
      vertex   -2.344182e+00 -5.978378e+00 3.166169e+00
      vertex   -2.310522e+00 -5.962500e+00 3.166169e+00
      vertex   -2.329781e+00 -5.954311e+00 3.139021e+00
    endloop
  endfacet
  facet normal -3.614910e-01 7.902363e-01 4.948241e-01
    outer loop
      vertex   -2.329781e+00 -5.954311e+00 3.139021e+00
      vertex   -2.310522e+00 -5.962500e+00 3.166169e+00
      vertex   -2.295286e+00 -5.938531e+00 3.139021e+00
    endloop
  endfacet
  facet normal -3.629722e-01 7.934742e-01 4.885181e-01
    outer loop
      vertex   -2.329781e+00 -5.954311e+00 3.139021e+00
      vertex   -2.295286e+00 -5.938531e+00 3.139021e+00
      vertex   -2.314094e+00 -5.930284e+00 3.111651e+00
    endloop
  endfacet
  facet normal -3.546939e-01 7.995587e-01 4.846629e-01
    outer loop
      vertex   -2.314094e+00 -5.930284e+00 3.111651e+00
      vertex   -2.295286e+00 -5.938531e+00 3.139021e+00
      vertex   -2.278769e+00 -5.914613e+00 3.111651e+00
    endloop
  endfacet
  facet normal -3.671540e-01 7.714406e-01 5.196897e-01
    outer loop
      vertex   -2.307060e+00 -6.000000e+00 3.225916e+00
      vertex   -2.269717e+00 -6.000000e+00 3.252299e+00
      vertex   -2.304601e+00 -5.994699e+00 3.219785e+00
    endloop
  endfacet
  facet normal -3.650005e-01 7.737585e-01 5.177571e-01
    outer loop
      vertex   -2.304601e+00 -5.994699e+00 3.219785e+00
      vertex   -2.269717e+00 -6.000000e+00 3.252299e+00
      vertex   -2.271510e+00 -5.979089e+00 3.219785e+00
    endloop
  endfacet
  facet normal -3.666001e-01 7.771494e-01 5.115108e-01
    outer loop
      vertex   -2.304601e+00 -5.994699e+00 3.219785e+00
      vertex   -2.271510e+00 -5.979089e+00 3.219785e+00
      vertex   -2.291098e+00 -5.970760e+00 3.193091e+00
    endloop
  endfacet
  facet normal -3.584332e-01 7.835518e-01 5.075157e-01
    outer loop
      vertex   -2.291098e+00 -5.970760e+00 3.193091e+00
      vertex   -2.271510e+00 -5.979089e+00 3.219785e+00
      vertex   -2.257175e+00 -5.955242e+00 3.193091e+00
    endloop
  endfacet
  facet normal -3.599782e-01 7.869293e-01 5.011567e-01
    outer loop
      vertex   -2.291098e+00 -5.970760e+00 3.193091e+00
      vertex   -2.257175e+00 -5.955242e+00 3.193091e+00
      vertex   -2.276312e+00 -5.946851e+00 3.166169e+00
    endloop
  endfacet
  facet normal -3.518136e-01 7.930660e-01 4.972660e-01
    outer loop
      vertex   -2.276312e+00 -5.946851e+00 3.166169e+00
      vertex   -2.257175e+00 -5.955242e+00 3.193091e+00
      vertex   -2.241564e+00 -5.931436e+00 3.166169e+00
    endloop
  endfacet
  facet normal -3.532691e-01 7.963470e-01 4.909505e-01
    outer loop
      vertex   -2.276312e+00 -5.946851e+00 3.166169e+00
      vertex   -2.241564e+00 -5.931436e+00 3.166169e+00
      vertex   -2.260248e+00 -5.922988e+00 3.139021e+00
    endloop
  endfacet
  facet normal -3.451133e-01 8.022252e-01 4.871668e-01
    outer loop
      vertex   -2.260248e+00 -5.922988e+00 3.139021e+00
      vertex   -2.241564e+00 -5.931436e+00 3.166169e+00
      vertex   -2.224680e+00 -5.907687e+00 3.139021e+00
    endloop
  endfacet
  facet normal -3.464837e-01 8.054107e-01 4.808977e-01
    outer loop
      vertex   -2.260248e+00 -5.922988e+00 3.139021e+00
      vertex   -2.224680e+00 -5.907687e+00 3.139021e+00
      vertex   -2.242910e+00 -5.899186e+00 3.111651e+00
    endloop
  endfacet
  facet normal -3.383224e-01 8.110517e-01 4.772138e-01
    outer loop
      vertex   -2.242910e+00 -5.899186e+00 3.111651e+00
      vertex   -2.224680e+00 -5.907687e+00 3.139021e+00
      vertex   -2.188411e+00 -5.892557e+00 3.139021e+00
    endloop
  endfacet
  facet normal -3.524152e-01 7.661913e-01 5.373587e-01
    outer loop
      vertex   -2.155816e+00 -6.000000e+00 3.328891e+00
      vertex   -2.159118e+00 -5.998240e+00 3.324216e+00
      vertex   -2.194087e+00 -6.000000e+00 3.303792e+00
    endloop
  endfacet
  facet normal -3.495484e-01 7.712156e-01 5.320174e-01
    outer loop
      vertex   -2.194087e+00 -6.000000e+00 3.303792e+00
      vertex   -2.159118e+00 -5.998240e+00 3.324216e+00
      vertex   -2.179039e+00 -5.989505e+00 3.298465e+00
    endloop
  endfacet
  facet normal -3.530495e-01 7.734217e-01 5.264740e-01
    outer loop
      vertex   -2.194087e+00 -6.000000e+00 3.303792e+00
      vertex   -2.179039e+00 -5.989505e+00 3.298465e+00
      vertex   -2.198807e+00 -5.980836e+00 3.272474e+00
    endloop
  endfacet
  facet normal -3.456734e-01 7.792246e-01 5.227991e-01
    outer loop
      vertex   -2.198807e+00 -5.980836e+00 3.272474e+00
      vertex   -2.179039e+00 -5.989505e+00 3.298465e+00
      vertex   -2.165242e+00 -5.965947e+00 3.272474e+00
    endloop
  endfacet
  facet normal -3.472573e-01 7.827952e-01 5.163759e-01
    outer loop
      vertex   -2.198807e+00 -5.980836e+00 3.272474e+00
      vertex   -2.165242e+00 -5.965947e+00 3.272474e+00
      vertex   -2.184556e+00 -5.957213e+00 3.246247e+00
    endloop
  endfacet
  facet normal -3.393283e-01 7.887778e-01 5.125289e-01
    outer loop
      vertex   -2.184556e+00 -5.957213e+00 3.246247e+00
      vertex   -2.165242e+00 -5.965947e+00 3.272474e+00
      vertex   -2.150179e+00 -5.942424e+00 3.246247e+00
    endloop
  endfacet
  facet normal -3.408212e-01 7.922481e-01 5.061461e-01
    outer loop
      vertex   -2.184556e+00 -5.957213e+00 3.246247e+00
      vertex   -2.150179e+00 -5.942424e+00 3.246247e+00
      vertex   -2.169037e+00 -5.933631e+00 3.219785e+00
    endloop
  endfacet
  facet normal -3.328836e-01 7.979887e-01 5.023969e-01
    outer loop
      vertex   -2.169037e+00 -5.933631e+00 3.219785e+00
      vertex   -2.150179e+00 -5.942424e+00 3.246247e+00
      vertex   -2.115195e+00 -5.927831e+00 3.246247e+00
    endloop
  endfacet
  facet normal -3.328821e-01 7.979915e-01 5.023934e-01
    outer loop
      vertex   -2.169037e+00 -5.933631e+00 3.219785e+00
      vertex   -2.115195e+00 -5.927831e+00 3.246247e+00
      vertex   -2.133729e+00 -5.918902e+00 3.219785e+00
    endloop
  endfacet
  facet normal -3.250137e-01 8.035058e-01 4.987430e-01
    outer loop
      vertex   -2.133729e+00 -5.918902e+00 3.219785e+00
      vertex   -2.115195e+00 -5.927831e+00 3.246247e+00
      vertex   -2.079880e+00 -5.913546e+00 3.246247e+00
    endloop
  endfacet
  facet normal -3.250112e-01 8.035105e-01 4.987370e-01
    outer loop
      vertex   -2.133729e+00 -5.918902e+00 3.219785e+00
      vertex   -2.079880e+00 -5.913546e+00 3.246247e+00
      vertex   -2.098108e+00 -5.904494e+00 3.219785e+00
    endloop
  endfacet
  facet normal -3.172239e-01 8.088032e-01 4.951832e-01
    outer loop
      vertex   -2.098108e+00 -5.904494e+00 3.219785e+00
      vertex   -2.079880e+00 -5.913546e+00 3.246247e+00
      vertex   -2.044078e+00 -5.899504e+00 3.246247e+00
    endloop
  endfacet
  facet normal -3.172222e-01 8.088063e-01 4.951792e-01
    outer loop
      vertex   -2.098108e+00 -5.904494e+00 3.219785e+00
      vertex   -2.044078e+00 -5.899504e+00 3.246247e+00
      vertex   -2.061997e+00 -5.890331e+00 3.219785e+00
    endloop
  endfacet
  facet normal -3.094946e-01 8.138997e-01 4.917116e-01
    outer loop
      vertex   -2.061997e+00 -5.890331e+00 3.219785e+00
      vertex   -2.044078e+00 -5.899504e+00 3.246247e+00
      vertex   -2.007795e+00 -5.885707e+00 3.246247e+00
    endloop
  endfacet
  facet normal -3.094938e-01 8.139011e-01 4.917098e-01
    outer loop
      vertex   -2.061997e+00 -5.890331e+00 3.219785e+00
      vertex   -2.007795e+00 -5.885707e+00 3.246247e+00
      vertex   -2.025403e+00 -5.876416e+00 3.219785e+00
    endloop
  endfacet
  facet normal -3.026025e-01 8.183099e-01 4.886724e-01
    outer loop
      vertex   -2.025403e+00 -5.876416e+00 3.219785e+00
      vertex   -2.007795e+00 -5.885707e+00 3.246247e+00
      vertex   -2.000000e+00 -5.865773e+00 3.217694e+00
    endloop
  endfacet
  facet normal -3.430096e-01 7.732199e-01 5.333623e-01
    outer loop
      vertex   -2.159118e+00 -5.998240e+00 3.324216e+00
      vertex   -2.155816e+00 -6.000000e+00 3.328891e+00
      vertex   -2.126159e+00 -5.983619e+00 3.324216e+00
    endloop
  endfacet
  facet normal -3.422215e-01 7.723121e-01 5.351807e-01
    outer loop
      vertex   -2.126159e+00 -5.983619e+00 3.324216e+00
      vertex   -2.155816e+00 -6.000000e+00 3.328891e+00
      vertex   -2.117268e+00 -6.000000e+00 3.353541e+00
    endloop
  endfacet
  facet normal -3.412369e-01 7.727752e-01 5.351409e-01
    outer loop
      vertex   -2.126159e+00 -5.983619e+00 3.324216e+00
      vertex   -2.117268e+00 -6.000000e+00 3.353541e+00
      vertex   -2.106394e+00 -5.992556e+00 3.349725e+00
    endloop
  endfacet
  facet normal -3.373584e-01 7.702321e-01 5.412317e-01
    outer loop
      vertex   -2.106394e+00 -5.992556e+00 3.349725e+00
      vertex   -2.117268e+00 -6.000000e+00 3.353541e+00
      vertex   -2.078446e+00 -6.000000e+00 3.377739e+00
    endloop
  endfacet
  facet normal -3.330984e-01 7.742963e-01 5.380619e-01
    outer loop
      vertex   -2.106394e+00 -5.992556e+00 3.349725e+00
      vertex   -2.078446e+00 -6.000000e+00 3.377739e+00
      vertex   -2.073247e+00 -5.978296e+00 3.349725e+00
    endloop
  endfacet
  facet normal -3.327333e-01 7.743678e-01 5.381850e-01
    outer loop
      vertex   -2.073247e+00 -5.978296e+00 3.349725e+00
      vertex   -2.078446e+00 -6.000000e+00 3.377739e+00
      vertex   -2.053650e+00 -5.987434e+00 3.374989e+00
    endloop
  endfacet
  facet normal -3.253921e-01 7.800001e-01 5.345276e-01
    outer loop
      vertex   -2.073247e+00 -5.978296e+00 3.349725e+00
      vertex   -2.053650e+00 -5.987434e+00 3.374989e+00
      vertex   -2.020320e+00 -5.973530e+00 3.374989e+00
    endloop
  endfacet
  facet normal -3.237943e-01 7.761701e-01 5.410335e-01
    outer loop
      vertex   -2.020320e+00 -5.973530e+00 3.374989e+00
      vertex   -2.053650e+00 -5.987434e+00 3.374989e+00
      vertex   -2.000919e+00 -5.982874e+00 3.400005e+00
    endloop
  endfacet
  facet normal -3.212067e-01 7.781302e-01 5.397589e-01
    outer loop
      vertex   -2.020320e+00 -5.973530e+00 3.374989e+00
      vertex   -2.000919e+00 -5.982874e+00 3.400005e+00
      vertex   -2.000000e+00 -5.982135e+00 3.399487e+00
    endloop
  endfacet
  facet normal -3.144059e-01 7.752950e-01 5.477834e-01
    outer loop
      vertex   -2.000000e+00 -5.982135e+00 3.399487e+00
      vertex   -2.000919e+00 -5.982874e+00 3.400005e+00
      vertex   -2.000000e+00 -6.000000e+00 3.424772e+00
    endloop
  endfacet
  facet normal -3.224459e-01 7.729319e-01 5.464476e-01
    outer loop
      vertex   -2.000000e+00 -6.000000e+00 3.424772e+00
      vertex   -2.000919e+00 -5.982874e+00 3.400005e+00
      vertex   -2.033911e+00 -5.996637e+00 3.400005e+00
    endloop
  endfacet
  facet normal -3.255563e-01 7.689777e-01 5.501694e-01
    outer loop
      vertex   -2.000000e+00 -6.000000e+00 3.424772e+00
      vertex   -2.033911e+00 -5.996637e+00 3.400005e+00
      vertex   -2.039356e+00 -6.000000e+00 3.401483e+00
    endloop
  endfacet
  facet normal -3.291692e-01 7.720034e-01 5.437448e-01
    outer loop
      vertex   -2.039356e+00 -6.000000e+00 3.401483e+00
      vertex   -2.033911e+00 -5.996637e+00 3.400005e+00
      vertex   -2.053650e+00 -5.987434e+00 3.374989e+00
    endloop
  endfacet
  facet normal -3.304797e-01 7.712100e-01 5.440756e-01
    outer loop
      vertex   -2.039356e+00 -6.000000e+00 3.401483e+00
      vertex   -2.053650e+00 -5.987434e+00 3.374989e+00
      vertex   -2.078446e+00 -6.000000e+00 3.377739e+00
    endloop
  endfacet
  facet normal -3.175487e-01 7.810234e-01 5.377410e-01
    outer loop
      vertex   -2.000000e+00 -5.982135e+00 3.399487e+00
      vertex   -2.000000e+00 -5.964583e+00 3.373994e+00
      vertex   -2.020320e+00 -5.973530e+00 3.374989e+00
    endloop
  endfacet
  facet normal -3.193746e-01 7.844863e-01 5.315837e-01
    outer loop
      vertex   -2.020320e+00 -5.973530e+00 3.374989e+00
      vertex   -2.000000e+00 -5.964583e+00 3.373994e+00
      vertex   -2.039583e+00 -5.964252e+00 3.349725e+00
    endloop
  endfacet
  facet normal -3.253908e-01 7.800030e-01 5.345243e-01
    outer loop
      vertex   -2.020320e+00 -5.973530e+00 3.374989e+00
      vertex   -2.039583e+00 -5.964252e+00 3.349725e+00
      vertex   -2.073247e+00 -5.978296e+00 3.349725e+00
    endloop
  endfacet
  facet normal -3.269551e-01 7.837527e-01 5.280455e-01
    outer loop
      vertex   -2.073247e+00 -5.978296e+00 3.349725e+00
      vertex   -2.039583e+00 -5.964252e+00 3.349725e+00
      vertex   -2.092701e+00 -5.969225e+00 3.324216e+00
    endloop
  endfacet
  facet normal -3.346549e-01 7.779143e-01 5.318415e-01
    outer loop
      vertex   -2.073247e+00 -5.978296e+00 3.349725e+00
      vertex   -2.092701e+00 -5.969225e+00 3.324216e+00
      vertex   -2.106394e+00 -5.992556e+00 3.349725e+00
    endloop
  endfacet
  facet normal -3.346549e-01 7.779143e-01 5.318415e-01
    outer loop
      vertex   -2.106394e+00 -5.992556e+00 3.349725e+00
      vertex   -2.092701e+00 -5.969225e+00 3.324216e+00
      vertex   -2.126159e+00 -5.983619e+00 3.324216e+00
    endloop
  endfacet
  facet normal -3.181047e-01 7.863831e-01 5.295384e-01
    outer loop
      vertex   -2.039583e+00 -5.964252e+00 3.349725e+00
      vertex   -2.000000e+00 -5.964583e+00 3.373994e+00
      vertex   -2.005514e+00 -5.950471e+00 3.349725e+00
    endloop
  endfacet
  facet normal -3.118316e-01 7.888755e-01 5.295625e-01
    outer loop
      vertex   -2.005514e+00 -5.950471e+00 3.349725e+00
      vertex   -2.000000e+00 -5.964583e+00 3.373994e+00
      vertex   -2.000000e+00 -5.947343e+00 3.348311e+00
    endloop
  endfacet
  facet normal -3.154782e-01 7.921184e-01 5.225150e-01
    outer loop
      vertex   -2.005514e+00 -5.950471e+00 3.349725e+00
      vertex   -2.000000e+00 -5.947343e+00 3.348311e+00
      vertex   -2.024319e+00 -5.941134e+00 3.324216e+00
    endloop
  endfacet
  facet normal -3.126944e-01 7.946400e-01 5.203551e-01
    outer loop
      vertex   -2.024319e+00 -5.941134e+00 3.324216e+00
      vertex   -2.000000e+00 -5.947343e+00 3.348311e+00
      vertex   -2.000000e+00 -5.930413e+00 3.322458e+00
    endloop
  endfacet
  facet normal -3.143713e-01 7.975444e-01 5.148724e-01
    outer loop
      vertex   -2.024319e+00 -5.941134e+00 3.324216e+00
      vertex   -2.000000e+00 -5.930413e+00 3.322458e+00
      vertex   -2.042983e+00 -5.931867e+00 3.298465e+00
    endloop
  endfacet
  facet normal -3.134165e-01 7.990812e-01 5.130686e-01
    outer loop
      vertex   -2.042983e+00 -5.931867e+00 3.298465e+00
      vertex   -2.000000e+00 -5.930413e+00 3.322458e+00
      vertex   -2.007806e+00 -5.918070e+00 3.298465e+00
    endloop
  endfacet
  facet normal -3.145383e-01 8.019414e-01 5.078933e-01
    outer loop
      vertex   -2.042983e+00 -5.931867e+00 3.298465e+00
      vertex   -2.007806e+00 -5.918070e+00 3.298465e+00
      vertex   -2.061504e+00 -5.922670e+00 3.272474e+00
    endloop
  endfacet
  facet normal -3.145367e-01 8.019446e-01 5.078894e-01
    outer loop
      vertex   -2.061504e+00 -5.922670e+00 3.272474e+00
      vertex   -2.007806e+00 -5.918070e+00 3.298465e+00
      vertex   -2.026013e+00 -5.908750e+00 3.272474e+00
    endloop
  endfacet
  facet normal -3.158958e-01 8.054097e-01 5.015227e-01
    outer loop
      vertex   -2.061504e+00 -5.922670e+00 3.272474e+00
      vertex   -2.026013e+00 -5.908750e+00 3.272474e+00
      vertex   -2.079880e+00 -5.913546e+00 3.246247e+00
    endloop
  endfacet
  facet normal -3.158942e-01 8.054128e-01 5.015187e-01
    outer loop
      vertex   -2.079880e+00 -5.913546e+00 3.246247e+00
      vertex   -2.026013e+00 -5.908750e+00 3.272474e+00
      vertex   -2.044078e+00 -5.899504e+00 3.246247e+00
    endloop
  endfacet
  facet normal -3.071582e-01 8.018868e-01 5.124758e-01
    outer loop
      vertex   -2.000000e+00 -5.930413e+00 3.322458e+00
      vertex   -2.000000e+00 -5.913793e+00 3.296452e+00
      vertex   -2.007806e+00 -5.918070e+00 3.298465e+00
    endloop
  endfacet
  facet normal -3.103980e-01 8.047492e-01 5.059958e-01
    outer loop
      vertex   -2.007806e+00 -5.918070e+00 3.298465e+00
      vertex   -2.000000e+00 -5.913793e+00 3.296452e+00
      vertex   -2.026013e+00 -5.908750e+00 3.272474e+00
    endloop
  endfacet
  facet normal -3.078027e-01 8.071872e-01 5.036928e-01
    outer loop
      vertex   -2.000000e+00 -5.913793e+00 3.296452e+00
      vertex   -2.000000e+00 -5.897482e+00 3.270313e+00
      vertex   -2.026013e+00 -5.908750e+00 3.272474e+00
    endloop
  endfacet
  facet normal -3.093533e-01 8.097807e-01 4.985536e-01
    outer loop
      vertex   -2.026013e+00 -5.908750e+00 3.272474e+00
      vertex   -2.000000e+00 -5.897482e+00 3.270313e+00
      vertex   -2.044078e+00 -5.899504e+00 3.246247e+00
    endloop
  endfacet
  facet normal -3.084647e-01 8.111915e-01 4.968076e-01
    outer loop
      vertex   -2.044078e+00 -5.899504e+00 3.246247e+00
      vertex   -2.000000e+00 -5.897482e+00 3.270313e+00
      vertex   -2.007795e+00 -5.885707e+00 3.246247e+00
    endloop
  endfacet
  facet normal -2.870707e-01 8.204561e-01 4.944109e-01
    outer loop
      vertex   -2.007795e+00 -5.885707e+00 3.246247e+00
      vertex   -2.000000e+00 -5.897482e+00 3.270313e+00
      vertex   -2.000000e+00 -5.865773e+00 3.217694e+00
    endloop
  endfacet
  facet normal -1.436216e-01 8.667875e-01 4.775481e-01
    outer loop
      vertex   -2.000000e+00 -5.805254e+00 3.110260e+00
      vertex   -2.000871e+00 -5.821244e+00 3.139021e+00
      vertex   -2.000000e+00 -5.835063e+00 3.164366e+00
    endloop
  endfacet
  facet normal -2.978872e-01 8.337744e-01 4.648477e-01
    outer loop
      vertex   -2.000000e+00 -5.835063e+00 3.164366e+00
      vertex   -2.000871e+00 -5.821244e+00 3.139021e+00
      vertex   -2.039353e+00 -5.834993e+00 3.139021e+00
    endloop
  endfacet
  facet normal -2.993308e-01 8.320057e-01 4.670842e-01
    outer loop
      vertex   -2.000000e+00 -5.835063e+00 3.164366e+00
      vertex   -2.039353e+00 -5.834993e+00 3.139021e+00
      vertex   -2.022490e+00 -5.844167e+00 3.166169e+00
    endloop
  endfacet
  facet normal -3.053593e-01 8.283874e-01 4.696062e-01
    outer loop
      vertex   -2.022490e+00 -5.844167e+00 3.166169e+00
      vertex   -2.039353e+00 -5.834993e+00 3.139021e+00
      vertex   -2.060184e+00 -5.858062e+00 3.166169e+00
    endloop
  endfacet
  facet normal -2.898780e-01 8.464767e-01 4.465960e-01
    outer loop
      vertex   -2.000000e+00 -5.776336e+00 3.055448e+00
      vertex   -2.033543e+00 -5.802918e+00 3.084060e+00
      vertex   -2.000000e+00 -5.805254e+00 3.110260e+00
    endloop
  endfacet
  facet normal -2.943409e-01 8.420999e-01 4.519195e-01
    outer loop
      vertex   -2.000000e+00 -5.805254e+00 3.110260e+00
      vertex   -2.033543e+00 -5.802918e+00 3.084060e+00
      vertex   -2.017280e+00 -5.812040e+00 3.111651e+00
    endloop
  endfacet
  facet normal -2.928198e-01 8.394360e-01 4.578250e-01
    outer loop
      vertex   -2.000000e+00 -5.805254e+00 3.110260e+00
      vertex   -2.017280e+00 -5.812040e+00 3.111651e+00
      vertex   -2.000871e+00 -5.821244e+00 3.139021e+00
    endloop
  endfacet
  facet normal -2.987008e-01 8.360515e-01 4.602126e-01
    outer loop
      vertex   -2.000871e+00 -5.821244e+00 3.139021e+00
      vertex   -2.017280e+00 -5.812040e+00 3.111651e+00
      vertex   -2.039353e+00 -5.834993e+00 3.139021e+00
    endloop
  endfacet
  facet normal -2.860301e-01 8.457519e-01 4.504337e-01
    outer loop
      vertex   -2.033543e+00 -5.802918e+00 3.084060e+00
      vertex   -2.000000e+00 -5.776336e+00 3.055448e+00
      vertex   -2.009780e+00 -5.780072e+00 3.056253e+00
    endloop
  endfacet
  facet normal -2.893548e-01 8.515886e-01 4.371164e-01
    outer loop
      vertex   -2.009780e+00 -5.780072e+00 3.056253e+00
      vertex   -2.000000e+00 -5.776336e+00 3.055448e+00
      vertex   -2.025446e+00 -5.771012e+00 3.028232e+00
    endloop
  endfacet
  facet normal -2.939730e-01 8.490907e-01 4.388906e-01
    outer loop
      vertex   -2.009780e+00 -5.780072e+00 3.056253e+00
      vertex   -2.025446e+00 -5.771012e+00 3.028232e+00
      vertex   -2.049660e+00 -5.793879e+00 3.056253e+00
    endloop
  endfacet
  facet normal -2.939771e-01 8.490910e-01 4.388872e-01
    outer loop
      vertex   -2.049660e+00 -5.793879e+00 3.056253e+00
      vertex   -2.025446e+00 -5.771012e+00 3.028232e+00
      vertex   -2.065627e+00 -5.784924e+00 3.028232e+00
    endloop
  endfacet
  facet normal -3.018108e-01 8.447376e-01 4.419599e-01
    outer loop
      vertex   -2.049660e+00 -5.793879e+00 3.056253e+00
      vertex   -2.065627e+00 -5.784924e+00 3.028232e+00
      vertex   -2.089056e+00 -5.807955e+00 3.056253e+00
    endloop
  endfacet
  facet normal -3.018131e-01 8.447378e-01 4.419581e-01
    outer loop
      vertex   -2.089056e+00 -5.807955e+00 3.056253e+00
      vertex   -2.065627e+00 -5.784924e+00 3.028232e+00
      vertex   -2.105322e+00 -5.799106e+00 3.028232e+00
    endloop
  endfacet
  facet normal -3.097178e-01 8.402064e-01 4.451158e-01
    outer loop
      vertex   -2.089056e+00 -5.807955e+00 3.056253e+00
      vertex   -2.105322e+00 -5.799106e+00 3.028232e+00
      vertex   -2.127962e+00 -5.822296e+00 3.056253e+00
    endloop
  endfacet
  facet normal -3.097182e-01 8.402064e-01 4.451155e-01
    outer loop
      vertex   -2.127962e+00 -5.822296e+00 3.056253e+00
      vertex   -2.105322e+00 -5.799106e+00 3.028232e+00
      vertex   -2.144523e+00 -5.813556e+00 3.028232e+00
    endloop
  endfacet
  facet normal -3.176942e-01 8.354907e-01 4.483589e-01
    outer loop
      vertex   -2.127962e+00 -5.822296e+00 3.056253e+00
      vertex   -2.144523e+00 -5.813556e+00 3.028232e+00
      vertex   -2.183225e+00 -5.828273e+00 3.028232e+00
    endloop
  endfacet
  facet normal -2.930021e-01 8.462864e-01 4.449148e-01
    outer loop
      vertex   -2.033543e+00 -5.802918e+00 3.084060e+00
      vertex   -2.009780e+00 -5.780072e+00 3.056253e+00
      vertex   -2.049660e+00 -5.793879e+00 3.056253e+00
    endloop
  endfacet
  facet normal -3.007975e-01 8.419076e-01 4.480094e-01
    outer loop
      vertex   -2.033543e+00 -5.802918e+00 3.084060e+00
      vertex   -2.049660e+00 -5.793879e+00 3.056253e+00
      vertex   -2.072638e+00 -5.816886e+00 3.084060e+00
    endloop
  endfacet
  facet normal -3.007998e-01 8.419077e-01 4.480077e-01
    outer loop
      vertex   -2.072638e+00 -5.816886e+00 3.084060e+00
      vertex   -2.049660e+00 -5.793879e+00 3.056253e+00
      vertex   -2.089056e+00 -5.807955e+00 3.056253e+00
    endloop
  endfacet
  facet normal -3.086646e-01 8.373505e-01 4.511876e-01
    outer loop
      vertex   -2.072638e+00 -5.816886e+00 3.084060e+00
      vertex   -2.089056e+00 -5.807955e+00 3.056253e+00
      vertex   -2.111245e+00 -5.831117e+00 3.084060e+00
    endloop
  endfacet
  facet normal -3.086650e-01 8.373506e-01 4.511872e-01
    outer loop
      vertex   -2.111245e+00 -5.831117e+00 3.084060e+00
      vertex   -2.089056e+00 -5.807955e+00 3.056253e+00
      vertex   -2.127962e+00 -5.822296e+00 3.056253e+00
    endloop
  endfacet
  facet normal -3.165996e-01 8.326087e-01 4.544529e-01
    outer loop
      vertex   -2.111245e+00 -5.831117e+00 3.084060e+00
      vertex   -2.127962e+00 -5.822296e+00 3.056253e+00
      vertex   -2.166371e+00 -5.836901e+00 3.056253e+00
    endloop
  endfacet
  facet normal -3.176950e-01 8.354894e-01 4.483607e-01
    outer loop
      vertex   -2.166371e+00 -5.836901e+00 3.056253e+00
      vertex   -2.127962e+00 -5.822296e+00 3.056253e+00
      vertex   -2.183225e+00 -5.828273e+00 3.028232e+00
    endloop
  endfacet
  facet normal -3.257424e-01 8.305828e-01 4.516903e-01
    outer loop
      vertex   -2.166371e+00 -5.836901e+00 3.056253e+00
      vertex   -2.183225e+00 -5.828273e+00 3.028232e+00
      vertex   -2.221420e+00 -5.843252e+00 3.028232e+00
    endloop
  endfacet
  facet normal -2.997610e-01 8.390127e-01 4.540937e-01
    outer loop
      vertex   -2.017280e+00 -5.812040e+00 3.111651e+00
      vertex   -2.033543e+00 -5.802918e+00 3.084060e+00
      vertex   -2.056070e+00 -5.825899e+00 3.111651e+00
    endloop
  endfacet
  facet normal -2.997632e-01 8.390128e-01 4.540920e-01
    outer loop
      vertex   -2.056070e+00 -5.825899e+00 3.111651e+00
      vertex   -2.033543e+00 -5.802918e+00 3.084060e+00
      vertex   -2.072638e+00 -5.816886e+00 3.084060e+00
    endloop
  endfacet
  facet normal -3.075875e-01 8.344296e-01 4.572932e-01
    outer loop
      vertex   -2.056070e+00 -5.825899e+00 3.111651e+00
      vertex   -2.072638e+00 -5.816886e+00 3.084060e+00
      vertex   -2.094376e+00 -5.840019e+00 3.111651e+00
    endloop
  endfacet
  facet normal -3.075879e-01 8.344297e-01 4.572929e-01
    outer loop
      vertex   -2.094376e+00 -5.840019e+00 3.111651e+00
      vertex   -2.072638e+00 -5.816886e+00 3.084060e+00
      vertex   -2.111245e+00 -5.831117e+00 3.084060e+00
    endloop
  endfacet
  facet normal -3.154803e-01 8.296615e-01 4.605801e-01
    outer loop
      vertex   -2.094376e+00 -5.840019e+00 3.111651e+00
      vertex   -2.111245e+00 -5.831117e+00 3.084060e+00
      vertex   -2.149359e+00 -5.845610e+00 3.084060e+00
    endloop
  endfacet
  facet normal -3.166004e-01 8.326074e-01 4.544548e-01
    outer loop
      vertex   -2.149359e+00 -5.845610e+00 3.084060e+00
      vertex   -2.111245e+00 -5.831117e+00 3.084060e+00
      vertex   -2.166371e+00 -5.836901e+00 3.056253e+00
    endloop
  endfacet
  facet normal -3.246047e-01 8.276744e-01 4.578066e-01
    outer loop
      vertex   -2.149359e+00 -5.845610e+00 3.084060e+00
      vertex   -2.166371e+00 -5.836901e+00 3.056253e+00
      vertex   -2.204277e+00 -5.851768e+00 3.056253e+00
    endloop
  endfacet
  facet normal -3.257442e-01 8.305798e-01 4.516945e-01
    outer loop
      vertex   -2.204277e+00 -5.851768e+00 3.056253e+00
      vertex   -2.166371e+00 -5.836901e+00 3.056253e+00
      vertex   -2.221420e+00 -5.843252e+00 3.028232e+00
    endloop
  endfacet
  facet normal -3.338641e-01 8.254748e-01 4.551110e-01
    outer loop
      vertex   -2.204277e+00 -5.851768e+00 3.056253e+00
      vertex   -2.221420e+00 -5.843252e+00 3.028232e+00
      vertex   -2.259103e+00 -5.858493e+00 3.028232e+00
    endloop
  endfacet
  facet normal -2.987031e-01 8.360517e-01 4.602109e-01
    outer loop
      vertex   -2.017280e+00 -5.812040e+00 3.111651e+00
      vertex   -2.056070e+00 -5.825899e+00 3.111651e+00
      vertex   -2.039353e+00 -5.834993e+00 3.139021e+00
    endloop
  endfacet
  facet normal -3.064859e-01 8.314424e-01 4.634328e-01
    outer loop
      vertex   -2.039353e+00 -5.834993e+00 3.139021e+00
      vertex   -2.056070e+00 -5.825899e+00 3.111651e+00
      vertex   -2.077355e+00 -5.849001e+00 3.139021e+00
    endloop
  endfacet
  facet normal -3.053598e-01 8.283874e-01 4.696059e-01
    outer loop
      vertex   -2.039353e+00 -5.834993e+00 3.139021e+00
      vertex   -2.077355e+00 -5.849001e+00 3.139021e+00
      vertex   -2.060184e+00 -5.858062e+00 3.166169e+00
    endloop
  endfacet
  facet normal -3.131652e-01 8.235663e-01 4.729336e-01
    outer loop
      vertex   -2.060184e+00 -5.858062e+00 3.166169e+00
      vertex   -2.077355e+00 -5.849001e+00 3.139021e+00
      vertex   -2.114869e+00 -5.863266e+00 3.139021e+00
    endloop
  endfacet
  facet normal -3.064863e-01 8.314424e-01 4.634325e-01
    outer loop
      vertex   -2.077355e+00 -5.849001e+00 3.139021e+00
      vertex   -2.056070e+00 -5.825899e+00 3.111651e+00
      vertex   -2.094376e+00 -5.840019e+00 3.111651e+00
    endloop
  endfacet
  facet normal -3.143356e-01 8.266478e-01 4.667403e-01
    outer loop
      vertex   -2.077355e+00 -5.849001e+00 3.139021e+00
      vertex   -2.094376e+00 -5.840019e+00 3.111651e+00
      vertex   -2.132191e+00 -5.854399e+00 3.111651e+00
    endloop
  endfacet
  facet normal -3.154811e-01 8.296601e-01 4.605820e-01
    outer loop
      vertex   -2.132191e+00 -5.854399e+00 3.111651e+00
      vertex   -2.094376e+00 -5.840019e+00 3.111651e+00
      vertex   -2.149359e+00 -5.845610e+00 3.084060e+00
    endloop
  endfacet
  facet normal -3.234414e-01 8.247006e-01 4.639553e-01
    outer loop
      vertex   -2.132191e+00 -5.854399e+00 3.111651e+00
      vertex   -2.149359e+00 -5.845610e+00 3.084060e+00
      vertex   -2.186973e+00 -5.860362e+00 3.084060e+00
    endloop
  endfacet
  facet normal -3.246065e-01 8.276714e-01 4.578108e-01
    outer loop
      vertex   -2.186973e+00 -5.860362e+00 3.084060e+00
      vertex   -2.149359e+00 -5.845610e+00 3.084060e+00
      vertex   -2.204277e+00 -5.851768e+00 3.056253e+00
    endloop
  endfacet
  facet normal -3.326815e-01 8.225398e-01 4.612497e-01
    outer loop
      vertex   -2.186973e+00 -5.860362e+00 3.084060e+00
      vertex   -2.204277e+00 -5.851768e+00 3.056253e+00
      vertex   -2.241673e+00 -5.866893e+00 3.056253e+00
    endloop
  endfacet
  facet normal -3.338668e-01 8.254703e-01 4.551173e-01
    outer loop
      vertex   -2.241673e+00 -5.866893e+00 3.056253e+00
      vertex   -2.204277e+00 -5.851768e+00 3.056253e+00
      vertex   -2.259103e+00 -5.858493e+00 3.028232e+00
    endloop
  endfacet
  facet normal -3.421000e-01 8.201330e-01 4.586387e-01
    outer loop
      vertex   -2.241673e+00 -5.866893e+00 3.056253e+00
      vertex   -2.259103e+00 -5.858493e+00 3.028232e+00
      vertex   -2.296620e+00 -5.874143e+00 3.028232e+00
    endloop
  endfacet
  facet normal -3.119692e-01 8.204142e-01 4.791615e-01
    outer loop
      vertex   -2.079771e+00 -5.881233e+00 3.193091e+00
      vertex   -2.042866e+00 -5.867200e+00 3.193091e+00
      vertex   -2.097395e+00 -5.872211e+00 3.166169e+00
    endloop
  endfacet
  facet normal -3.222519e-01 8.216603e-01 4.701362e-01
    outer loop
      vertex   -2.169510e+00 -5.869035e+00 3.111651e+00
      vertex   -2.114869e+00 -5.863266e+00 3.139021e+00
      vertex   -2.132191e+00 -5.854399e+00 3.111651e+00
    endloop
  endfacet
  facet normal -3.143364e-01 8.266464e-01 4.667422e-01
    outer loop
      vertex   -2.132191e+00 -5.854399e+00 3.111651e+00
      vertex   -2.114869e+00 -5.863266e+00 3.139021e+00
      vertex   -2.077355e+00 -5.849001e+00 3.139021e+00
    endloop
  endfacet
  facet normal -3.234432e-01 8.246976e-01 4.639595e-01
    outer loop
      vertex   -2.169510e+00 -5.869035e+00 3.111651e+00
      vertex   -2.132191e+00 -5.854399e+00 3.111651e+00
      vertex   -2.186973e+00 -5.860362e+00 3.084060e+00
    endloop
  endfacet
  facet normal -3.197942e-01 8.153714e-01 4.825982e-01
    outer loop
      vertex   -2.116187e+00 -5.895516e+00 3.193091e+00
      vertex   -2.079771e+00 -5.881233e+00 3.193091e+00
      vertex   -2.134115e+00 -5.886613e+00 3.166169e+00
    endloop
  endfacet
  facet normal -3.197925e-01 8.153745e-01 4.825942e-01
    outer loop
      vertex   -2.134115e+00 -5.886613e+00 3.166169e+00
      vertex   -2.079771e+00 -5.881233e+00 3.193091e+00
      vertex   -2.097395e+00 -5.872211e+00 3.166169e+00
    endloop
  endfacet
  facet normal -3.314724e-01 8.195393e-01 4.674199e-01
    outer loop
      vertex   -2.224080e+00 -5.875371e+00 3.084060e+00
      vertex   -2.169510e+00 -5.869035e+00 3.111651e+00
      vertex   -2.186973e+00 -5.860362e+00 3.084060e+00
    endloop
  endfacet
  facet normal -3.326841e-01 8.225352e-01 4.612560e-01
    outer loop
      vertex   -2.224080e+00 -5.875371e+00 3.084060e+00
      vertex   -2.186973e+00 -5.860362e+00 3.084060e+00
      vertex   -2.241673e+00 -5.866893e+00 3.056253e+00
    endloop
  endfacet
  facet normal -3.276835e-01 8.101279e-01 4.861237e-01
    outer loop
      vertex   -2.152111e+00 -5.910047e+00 3.193091e+00
      vertex   -2.116187e+00 -5.895516e+00 3.193091e+00
      vertex   -2.170339e+00 -5.901265e+00 3.166169e+00
    endloop
  endfacet
  facet normal -3.276810e-01 8.101326e-01 4.861177e-01
    outer loop
      vertex   -2.170339e+00 -5.901265e+00 3.166169e+00
      vertex   -2.116187e+00 -5.895516e+00 3.193091e+00
      vertex   -2.134115e+00 -5.886613e+00 3.166169e+00
    endloop
  endfacet
  facet normal -3.236320e-01 8.000901e-01 5.050922e-01
    outer loop
      vertex   -2.079880e+00 -5.913546e+00 3.246247e+00
      vertex   -2.115195e+00 -5.927831e+00 3.246247e+00
      vertex   -2.061504e+00 -5.922670e+00 3.272474e+00
    endloop
  endfacet
  facet normal -3.236345e-01 8.000854e-01 5.050981e-01
    outer loop
      vertex   -2.061504e+00 -5.922670e+00 3.272474e+00
      vertex   -2.115195e+00 -5.927831e+00 3.246247e+00
      vertex   -2.096512e+00 -5.936831e+00 3.272474e+00
    endloop
  endfacet
  facet normal -3.222226e-01 7.965950e-01 5.114773e-01
    outer loop
      vertex   -2.061504e+00 -5.922670e+00 3.272474e+00
      vertex   -2.096512e+00 -5.936831e+00 3.272474e+00
      vertex   -2.042983e+00 -5.931867e+00 3.298465e+00
    endloop
  endfacet
  facet normal -3.222250e-01 7.965902e-01 5.114832e-01
    outer loop
      vertex   -2.042983e+00 -5.931867e+00 3.298465e+00
      vertex   -2.096512e+00 -5.936831e+00 3.272474e+00
      vertex   -2.077680e+00 -5.945902e+00 3.298465e+00
    endloop
  endfacet
  facet normal -3.207823e-01 7.930237e-01 5.178921e-01
    outer loop
      vertex   -2.042983e+00 -5.931867e+00 3.298465e+00
      vertex   -2.077680e+00 -5.945902e+00 3.298465e+00
      vertex   -2.024319e+00 -5.941134e+00 3.324216e+00
    endloop
  endfacet
  facet normal -3.207847e-01 7.930189e-01 5.178979e-01
    outer loop
      vertex   -2.024319e+00 -5.941134e+00 3.324216e+00
      vertex   -2.077680e+00 -5.945902e+00 3.298465e+00
      vertex   -2.058703e+00 -5.955043e+00 3.324216e+00
    endloop
  endfacet
  facet normal -3.193106e-01 7.893747e-01 5.243360e-01
    outer loop
      vertex   -2.024319e+00 -5.941134e+00 3.324216e+00
      vertex   -2.058703e+00 -5.955043e+00 3.324216e+00
      vertex   -2.005514e+00 -5.950471e+00 3.349725e+00
    endloop
  endfacet
  facet normal -3.193129e-01 7.893700e-01 5.243418e-01
    outer loop
      vertex   -2.005514e+00 -5.950471e+00 3.349725e+00
      vertex   -2.058703e+00 -5.955043e+00 3.324216e+00
      vertex   -2.039583e+00 -5.964252e+00 3.349725e+00
    endloop
  endfacet
  facet normal -3.408678e-01 8.171727e-01 4.647988e-01
    outer loop
      vertex   -2.278882e+00 -5.882414e+00 3.056253e+00
      vertex   -2.224080e+00 -5.875371e+00 3.084060e+00
      vertex   -2.241673e+00 -5.866893e+00 3.056253e+00
    endloop
  endfacet
  facet normal -3.421015e-01 8.201303e-01 4.586424e-01
    outer loop
      vertex   -2.278882e+00 -5.882414e+00 3.056253e+00
      vertex   -2.241673e+00 -5.866893e+00 3.056253e+00
      vertex   -2.296620e+00 -5.874143e+00 3.028232e+00
    endloop
  endfacet
  facet normal -3.356619e-01 8.046614e-01 4.897459e-01
    outer loop
      vertex   -2.187742e+00 -5.924910e+00 3.193091e+00
      vertex   -2.152111e+00 -5.910047e+00 3.193091e+00
      vertex   -2.206290e+00 -5.916261e+00 3.166169e+00
    endloop
  endfacet
  facet normal -3.356605e-01 8.046642e-01 4.897424e-01
    outer loop
      vertex   -2.206290e+00 -5.916261e+00 3.166169e+00
      vertex   -2.152111e+00 -5.910047e+00 3.193091e+00
      vertex   -2.170339e+00 -5.901265e+00 3.166169e+00
    endloop
  endfacet
  facet normal -3.314474e-01 7.945459e-01 5.087627e-01
    outer loop
      vertex   -2.115195e+00 -5.927831e+00 3.246247e+00
      vertex   -2.150179e+00 -5.942424e+00 3.246247e+00
      vertex   -2.096512e+00 -5.936831e+00 3.272474e+00
    endloop
  endfacet
  facet normal -3.314488e-01 7.945431e-01 5.087662e-01
    outer loop
      vertex   -2.096512e+00 -5.936831e+00 3.272474e+00
      vertex   -2.150179e+00 -5.942424e+00 3.246247e+00
      vertex   -2.131169e+00 -5.951288e+00 3.272474e+00
    endloop
  endfacet
  facet normal -3.299814e-01 7.910256e-01 5.151609e-01
    outer loop
      vertex   -2.096512e+00 -5.936831e+00 3.272474e+00
      vertex   -2.131169e+00 -5.951288e+00 3.272474e+00
      vertex   -2.077680e+00 -5.945902e+00 3.298465e+00
    endloop
  endfacet
  facet normal -3.299828e-01 7.910228e-01 5.151643e-01
    outer loop
      vertex   -2.077680e+00 -5.945902e+00 3.298465e+00
      vertex   -2.131169e+00 -5.951288e+00 3.272474e+00
      vertex   -2.112009e+00 -5.960222e+00 3.298465e+00
    endloop
  endfacet
  facet normal -3.284837e-01 7.874293e-01 5.215875e-01
    outer loop
      vertex   -2.077680e+00 -5.945902e+00 3.298465e+00
      vertex   -2.112009e+00 -5.960222e+00 3.298465e+00
      vertex   -2.058703e+00 -5.955043e+00 3.324216e+00
    endloop
  endfacet
  facet normal -3.284851e-01 7.874265e-01 5.215909e-01
    outer loop
      vertex   -2.058703e+00 -5.955043e+00 3.324216e+00
      vertex   -2.112009e+00 -5.960222e+00 3.298465e+00
      vertex   -2.092701e+00 -5.969225e+00 3.324216e+00
    endloop
  endfacet
  facet normal -3.269537e-01 7.837556e-01 5.280421e-01
    outer loop
      vertex   -2.058703e+00 -5.955043e+00 3.324216e+00
      vertex   -2.092701e+00 -5.969225e+00 3.324216e+00
      vertex   -2.039583e+00 -5.964252e+00 3.349725e+00
    endloop
  endfacet
  facet normal -3.237956e-01 7.761672e-01 5.410368e-01
    outer loop
      vertex   -2.033911e+00 -5.996637e+00 3.400005e+00
      vertex   -2.000919e+00 -5.982874e+00 3.400005e+00
      vertex   -2.053650e+00 -5.987434e+00 3.374989e+00
    endloop
  endfacet
  facet normal -3.504215e-01 8.145641e-01 4.622663e-01
    outer loop
      vertex   -2.315317e+00 -5.898088e+00 3.056253e+00
      vertex   -2.278882e+00 -5.882414e+00 3.056253e+00
      vertex   -2.296620e+00 -5.874143e+00 3.028232e+00
    endloop
  endfacet
  facet normal -3.464837e-01 8.054107e-01 4.808977e-01
    outer loop
      vertex   -2.260248e+00 -5.922988e+00 3.139021e+00
      vertex   -2.242910e+00 -5.899186e+00 3.111651e+00
      vertex   -2.278769e+00 -5.914613e+00 3.111651e+00
    endloop
  endfacet
  facet normal -3.422826e-01 7.956452e-01 4.997912e-01
    outer loop
      vertex   -2.203716e+00 -5.948550e+00 3.219785e+00
      vertex   -2.187742e+00 -5.924910e+00 3.193091e+00
      vertex   -2.222719e+00 -5.939957e+00 3.193091e+00
    endloop
  endfacet
  facet normal -3.437132e-01 7.989705e-01 4.934647e-01
    outer loop
      vertex   -2.222719e+00 -5.939957e+00 3.193091e+00
      vertex   -2.187742e+00 -5.924910e+00 3.193091e+00
      vertex   -2.206290e+00 -5.916261e+00 3.166169e+00
    endloop
  endfacet
  facet normal -3.393283e-01 7.887778e-01 5.125289e-01
    outer loop
      vertex   -2.150179e+00 -5.942424e+00 3.246247e+00
      vertex   -2.165242e+00 -5.965947e+00 3.272474e+00
      vertex   -2.131169e+00 -5.951288e+00 3.272474e+00
    endloop
  endfacet
  facet normal -3.378033e-01 7.852330e-01 5.189394e-01
    outer loop
      vertex   -2.131169e+00 -5.951288e+00 3.272474e+00
      vertex   -2.165242e+00 -5.965947e+00 3.272474e+00
      vertex   -2.145776e+00 -5.974749e+00 3.298465e+00
    endloop
  endfacet
  facet normal -3.378033e-01 7.852330e-01 5.189394e-01
    outer loop
      vertex   -2.131169e+00 -5.951288e+00 3.272474e+00
      vertex   -2.145776e+00 -5.974749e+00 3.298465e+00
      vertex   -2.112009e+00 -5.960222e+00 3.298465e+00
    endloop
  endfacet
  facet normal -3.362457e-01 7.816123e-01 5.253771e-01
    outer loop
      vertex   -2.112009e+00 -5.960222e+00 3.298465e+00
      vertex   -2.145776e+00 -5.974749e+00 3.298465e+00
      vertex   -2.126159e+00 -5.983619e+00 3.324216e+00
    endloop
  endfacet
  facet normal -3.362457e-01 7.816123e-01 5.253771e-01
    outer loop
      vertex   -2.112009e+00 -5.960222e+00 3.298465e+00
      vertex   -2.126159e+00 -5.983619e+00 3.324216e+00
      vertex   -2.092701e+00 -5.969225e+00 3.324216e+00
    endloop
  endfacet
  facet normal -3.587894e-01 8.087910e-01 4.659692e-01
    outer loop
      vertex   -2.351208e+00 -5.914010e+00 3.056253e+00
      vertex   -2.315317e+00 -5.898088e+00 3.056253e+00
      vertex   -2.333339e+00 -5.889939e+00 3.028232e+00
    endloop
  endfacet
  facet normal -3.504215e-01 8.145641e-01 4.622663e-01
    outer loop
      vertex   -2.333339e+00 -5.889939e+00 3.028232e+00
      vertex   -2.315317e+00 -5.898088e+00 3.056253e+00
      vertex   -2.296620e+00 -5.874143e+00 3.028232e+00
    endloop
  endfacet
  facet normal -3.532691e-01 7.963470e-01 4.909505e-01
    outer loop
      vertex   -2.276312e+00 -5.946851e+00 3.166169e+00
      vertex   -2.260248e+00 -5.922988e+00 3.139021e+00
      vertex   -2.295286e+00 -5.938531e+00 3.139021e+00
    endloop
  endfacet
  facet normal -3.546939e-01 7.995587e-01 4.846629e-01
    outer loop
      vertex   -2.295286e+00 -5.938531e+00 3.139021e+00
      vertex   -2.260248e+00 -5.922988e+00 3.139021e+00
      vertex   -2.278769e+00 -5.914613e+00 3.111651e+00
    endloop
  endfacet
  facet normal -3.488083e-01 7.862914e-01 5.099790e-01
    outer loop
      vertex   -2.218421e+00 -5.972236e+00 3.246247e+00
      vertex   -2.203716e+00 -5.948550e+00 3.219785e+00
      vertex   -2.237878e+00 -5.963704e+00 3.219785e+00
    endloop
  endfacet
  facet normal -3.503269e-01 7.897146e-01 5.036089e-01
    outer loop
      vertex   -2.237878e+00 -5.963704e+00 3.219785e+00
      vertex   -2.203716e+00 -5.948550e+00 3.219785e+00
      vertex   -2.222719e+00 -5.939957e+00 3.193091e+00
    endloop
  endfacet
  facet normal -3.440559e-01 7.755784e-01 5.292483e-01
    outer loop
      vertex   -2.159118e+00 -5.998240e+00 3.324216e+00
      vertex   -2.126159e+00 -5.983619e+00 3.324216e+00
      vertex   -2.145776e+00 -5.974749e+00 3.298465e+00
    endloop
  endfacet
  facet normal -3.440559e-01 7.755784e-01 5.292483e-01
    outer loop
      vertex   -2.159118e+00 -5.998240e+00 3.324216e+00
      vertex   -2.145776e+00 -5.974749e+00 3.298465e+00
      vertex   -2.179039e+00 -5.989505e+00 3.298465e+00
    endloop
  endfacet
  facet normal -3.456734e-01 7.792246e-01 5.227991e-01
    outer loop
      vertex   -2.179039e+00 -5.989505e+00 3.298465e+00
      vertex   -2.145776e+00 -5.974749e+00 3.298465e+00
      vertex   -2.165242e+00 -5.965947e+00 3.272474e+00
    endloop
  endfacet
  facet normal -3.672314e-01 8.027851e-01 4.697629e-01
    outer loop
      vertex   -2.386544e+00 -5.930174e+00 3.056253e+00
      vertex   -2.351208e+00 -5.914010e+00 3.056253e+00
      vertex   -2.369509e+00 -5.905984e+00 3.028232e+00
    endloop
  endfacet
  facet normal -3.587894e-01 8.087910e-01 4.659692e-01
    outer loop
      vertex   -2.369509e+00 -5.905984e+00 3.028232e+00
      vertex   -2.351208e+00 -5.914010e+00 3.056253e+00
      vertex   -2.333339e+00 -5.889939e+00 3.028232e+00
    endloop
  endfacet
  facet normal -3.599782e-01 7.869293e-01 5.011567e-01
    outer loop
      vertex   -2.291098e+00 -5.970760e+00 3.193091e+00
      vertex   -2.276312e+00 -5.946851e+00 3.166169e+00
      vertex   -2.310522e+00 -5.962500e+00 3.166169e+00
    endloop
  endfacet
  facet normal -3.614910e-01 7.902363e-01 4.948241e-01
    outer loop
      vertex   -2.310522e+00 -5.962500e+00 3.166169e+00
      vertex   -2.276312e+00 -5.946851e+00 3.166169e+00
      vertex   -2.295286e+00 -5.938531e+00 3.139021e+00
    endloop
  endfacet
  facet normal -3.552444e-01 7.765809e-01 5.203110e-01
    outer loop
      vertex   -2.231852e+00 -5.995953e+00 3.272474e+00
      vertex   -2.218421e+00 -5.972236e+00 3.246247e+00
      vertex   -2.251761e+00 -5.987487e+00 3.246247e+00
    endloop
  endfacet
  facet normal -3.568555e-01 7.801028e-01 5.139005e-01
    outer loop
      vertex   -2.251761e+00 -5.987487e+00 3.246247e+00
      vertex   -2.218421e+00 -5.972236e+00 3.246247e+00
      vertex   -2.237878e+00 -5.963704e+00 3.219785e+00
    endloop
  endfacet
  facet normal -3.757463e-01 7.965383e-01 4.736469e-01
    outer loop
      vertex   -2.421311e+00 -5.946574e+00 3.056253e+00
      vertex   -2.386544e+00 -5.930174e+00 3.056253e+00
      vertex   -2.405120e+00 -5.922274e+00 3.028232e+00
    endloop
  endfacet
  facet normal -3.672314e-01 8.027851e-01 4.697629e-01
    outer loop
      vertex   -2.405120e+00 -5.922274e+00 3.028232e+00
      vertex   -2.386544e+00 -5.930174e+00 3.056253e+00
      vertex   -2.369509e+00 -5.905984e+00 3.028232e+00
    endloop
  endfacet
  facet normal -3.713172e-01 7.871492e-01 4.924629e-01
    outer loop
      vertex   -2.363721e+00 -5.970321e+00 3.139021e+00
      vertex   -2.348872e+00 -5.946193e+00 3.111651e+00
      vertex   -2.383090e+00 -5.962334e+00 3.111651e+00
    endloop
  endfacet
  facet normal -3.666001e-01 7.771494e-01 5.115108e-01
    outer loop
      vertex   -2.304601e+00 -5.994699e+00 3.219785e+00
      vertex   -2.291098e+00 -5.970760e+00 3.193091e+00
      vertex   -2.324474e+00 -5.986505e+00 3.193091e+00
    endloop
  endfacet
  facet normal -3.682054e-01 7.805525e-01 5.051362e-01
    outer loop
      vertex   -2.324474e+00 -5.986505e+00 3.193091e+00
      vertex   -2.291098e+00 -5.970760e+00 3.193091e+00
      vertex   -2.310522e+00 -5.962500e+00 3.166169e+00
    endloop
  endfacet
  facet normal -3.843328e-01 7.900424e-01 4.776205e-01
    outer loop
      vertex   -2.455497e+00 -5.963205e+00 3.056253e+00
      vertex   -2.421311e+00 -5.946574e+00 3.056253e+00
      vertex   -2.440158e+00 -5.938803e+00 3.028232e+00
    endloop
  endfacet
  facet normal -3.757463e-01 7.965383e-01 4.736469e-01
    outer loop
      vertex   -2.440158e+00 -5.938803e+00 3.028232e+00
      vertex   -2.421311e+00 -5.946574e+00 3.056253e+00
      vertex   -2.405120e+00 -5.922274e+00 3.028232e+00
    endloop
  endfacet
  facet normal -3.781273e-01 7.772862e-01 5.028379e-01
    outer loop
      vertex   -2.377280e+00 -5.994479e+00 3.166169e+00
      vertex   -2.363721e+00 -5.970321e+00 3.139021e+00
      vertex   -2.397095e+00 -5.986557e+00 3.139021e+00
    endloop
  endfacet
  facet normal -3.797275e-01 7.805757e-01 4.964963e-01
    outer loop
      vertex   -2.397095e+00 -5.986557e+00 3.139021e+00
      vertex   -2.363721e+00 -5.970321e+00 3.139021e+00
      vertex   -2.383090e+00 -5.962334e+00 3.111651e+00
    endloop
  endfacet
  facet normal -3.929890e-01 7.832887e-01 4.816830e-01
    outer loop
      vertex   -2.489093e+00 -5.980060e+00 3.056253e+00
      vertex   -2.455497e+00 -5.963205e+00 3.056253e+00
      vertex   -2.474611e+00 -5.955563e+00 3.028232e+00
    endloop
  endfacet
  facet normal -3.843328e-01 7.900424e-01 4.776205e-01
    outer loop
      vertex   -2.474611e+00 -5.955563e+00 3.028232e+00
      vertex   -2.455497e+00 -5.963205e+00 3.056253e+00
      vertex   -2.440158e+00 -5.938803e+00 3.028232e+00
    endloop
  endfacet
  facet normal -4.017129e-01 7.762685e-01 4.858333e-01
    outer loop
      vertex   -2.522085e+00 -5.997134e+00 3.056253e+00
      vertex   -2.489093e+00 -5.980060e+00 3.056253e+00
      vertex   -2.508467e+00 -5.972549e+00 3.028232e+00
    endloop
  endfacet
  facet normal -3.929890e-01 7.832887e-01 4.816830e-01
    outer loop
      vertex   -2.508467e+00 -5.972549e+00 3.028232e+00
      vertex   -2.489093e+00 -5.980060e+00 3.056253e+00
      vertex   -2.474611e+00 -5.955563e+00 3.028232e+00
    endloop
  endfacet
  facet normal -4.017129e-01 7.762685e-01 4.858333e-01
    outer loop
      vertex   -2.541717e+00 -5.989756e+00 3.028232e+00
      vertex   -2.522085e+00 -5.997134e+00 3.056253e+00
      vertex   -2.508467e+00 -5.972549e+00 3.028232e+00
    endloop
  endfacet
  facet normal 0.000000e+00 -1.000000e+00 -0.000000e+00
    outer loop
      vertex   -2.000000e+00 -6.000000e+00 3.424772e+00
      vertex   -2.039356e+00 -6.000000e+00 3.401483e+00
      vertex   -2.000000e+00 -6.000000e+00 3.000000e+00
    endloop
  endfacet
  facet normal 0.000000e+00 -1.000000e+00 0.000000e+00
    outer loop
      vertex   -2.000000e+00 -6.000000e+00 3.000000e+00
      vertex   -2.039356e+00 -6.000000e+00 3.401483e+00
      vertex   -2.078446e+00 -6.000000e+00 3.377739e+00
    endloop
  endfacet
  facet normal -4.051280e-14 -1.000000e+00 -8.413425e-15
    outer loop
      vertex   -2.000000e+00 -6.000000e+00 3.000000e+00
      vertex   -2.078446e+00 -6.000000e+00 3.377739e+00
      vertex   -2.117268e+00 -6.000000e+00 3.353541e+00
    endloop
  endfacet
  facet normal -2.650683e-15 -1.000000e+00 4.145252e-15
    outer loop
      vertex   -2.117268e+00 -6.000000e+00 3.353541e+00
      vertex   -2.155816e+00 -6.000000e+00 3.328891e+00
      vertex   -2.000000e+00 -6.000000e+00 3.000000e+00
    endloop
  endfacet
  facet normal -2.702481e-15 -1.000000e+00 4.120712e-15
    outer loop
      vertex   -2.000000e+00 -6.000000e+00 3.000000e+00
      vertex   -2.155816e+00 -6.000000e+00 3.328891e+00
      vertex   -2.194087e+00 -6.000000e+00 3.303792e+00
    endloop
  endfacet
  facet normal -2.750409e-15 -1.000000e+00 4.090092e-15
    outer loop
      vertex   -2.000000e+00 -6.000000e+00 3.000000e+00
      vertex   -2.194087e+00 -6.000000e+00 3.303792e+00
      vertex   -2.232058e+00 -6.000000e+00 3.278259e+00
    endloop
  endfacet
  facet normal -2.794256e-15 -1.000000e+00 4.053525e-15
    outer loop
      vertex   -2.232058e+00 -6.000000e+00 3.278259e+00
      vertex   -2.269717e+00 -6.000000e+00 3.252299e+00
      vertex   -2.000000e+00 -6.000000e+00 3.000000e+00
    endloop
  endfacet
  facet normal -2.833855e-15 -1.000000e+00 4.011192e-15
    outer loop
      vertex   -2.000000e+00 -6.000000e+00 3.000000e+00
      vertex   -2.269717e+00 -6.000000e+00 3.252299e+00
      vertex   -2.307060e+00 -6.000000e+00 3.225916e+00
    endloop
  endfacet
  facet normal -2.869082e-15 -1.000000e+00 3.963313e-15
    outer loop
      vertex   -2.000000e+00 -6.000000e+00 3.000000e+00
      vertex   -2.307060e+00 -6.000000e+00 3.225916e+00
      vertex   -2.344084e+00 -6.000000e+00 3.199114e+00
    endloop
  endfacet
  facet normal -2.899847e-15 -1.000000e+00 3.910149e-15
    outer loop
      vertex   -2.344084e+00 -6.000000e+00 3.199114e+00
      vertex   -2.380786e+00 -6.000000e+00 3.171895e+00
      vertex   -2.000000e+00 -6.000000e+00 3.000000e+00
    endloop
  endfacet
  facet normal 2.437743e-14 -1.000000e+00 6.433553e-14
    outer loop
      vertex   -2.000000e+00 -6.000000e+00 3.000000e+00
      vertex   -2.380786e+00 -6.000000e+00 3.171895e+00
      vertex   -2.417163e+00 -6.000000e+00 3.144262e+00
    endloop
  endfacet
  facet normal -6.108243e-15 -1.000000e+00 -2.381991e-14
    outer loop
      vertex   -2.000000e+00 -6.000000e+00 3.000000e+00
      vertex   -2.417163e+00 -6.000000e+00 3.144262e+00
      vertex   -2.453211e+00 -6.000000e+00 3.116219e+00
    endloop
  endfacet
  facet normal 0.000000e+00 -1.000000e+00 -0.000000e+00
    outer loop
      vertex   -2.453211e+00 -6.000000e+00 3.116219e+00
      vertex   -2.488926e+00 -6.000000e+00 3.087768e+00
      vertex   -2.000000e+00 -6.000000e+00 3.000000e+00
    endloop
  endfacet
  facet normal 0.000000e+00 -1.000000e+00 0.000000e+00
    outer loop
      vertex   -2.000000e+00 -6.000000e+00 3.000000e+00
      vertex   -2.488926e+00 -6.000000e+00 3.087768e+00
      vertex   -2.524305e+00 -6.000000e+00 3.058912e+00
    endloop
  endfacet
  facet normal 0.000000e+00 -1.000000e+00 0.000000e+00
    outer loop
      vertex   -2.000000e+00 -6.000000e+00 3.000000e+00
      vertex   -2.524305e+00 -6.000000e+00 3.058912e+00
      vertex   -2.559346e+00 -6.000000e+00 3.029655e+00
    endloop
  endfacet
  facet normal 0.000000e+00 -1.000000e+00 -0.000000e+00
    outer loop
      vertex   -2.559346e+00 -6.000000e+00 3.029655e+00
      vertex   -2.594043e+00 -6.000000e+00 3.000000e+00
      vertex   -2.000000e+00 -6.000000e+00 3.000000e+00
    endloop
  endfacet
  facet normal 0.000000e+00 -5.002464e-14 -1.000000e+00
    outer loop
      vertex   -2.594043e+00 -6.000000e+00 3.000000e+00
      vertex   -2.560778e+00 -5.982245e+00 3.000000e+00
      vertex   -2.000000e+00 -6.000000e+00 3.000000e+00
    endloop
  endfacet
  facet normal 3.016489e-15 4.524985e-14 -1.000000e+00
    outer loop
      vertex   -2.000000e+00 -6.000000e+00 3.000000e+00
      vertex   -2.560778e+00 -5.982245e+00 3.000000e+00
      vertex   -2.527166e+00 -5.964858e+00 3.000000e+00
    endloop
  endfacet
  facet normal 0.000000e+00 0.000000e+00 -1.000000e+00
    outer loop
      vertex   -2.000000e+00 -6.000000e+00 3.000000e+00
      vertex   -2.527166e+00 -5.964858e+00 3.000000e+00
      vertex   -2.492986e+00 -5.947717e+00 3.000000e+00
    endloop
  endfacet
  facet normal 0.000000e+00 0.000000e+00 -1.000000e+00
    outer loop
      vertex   -2.492986e+00 -5.947717e+00 3.000000e+00
      vertex   -2.458247e+00 -5.930824e+00 3.000000e+00
      vertex   -2.000000e+00 -6.000000e+00 3.000000e+00
    endloop
  endfacet
  facet normal 0.000000e+00 0.000000e+00 -1.000000e+00
    outer loop
      vertex   -2.000000e+00 -6.000000e+00 3.000000e+00
      vertex   -2.458247e+00 -5.930824e+00 3.000000e+00
      vertex   -2.422954e+00 -5.914183e+00 3.000000e+00
    endloop
  endfacet
  facet normal 0.000000e+00 0.000000e+00 -1.000000e+00
    outer loop
      vertex   -2.000000e+00 -6.000000e+00 3.000000e+00
      vertex   -2.422954e+00 -5.914183e+00 3.000000e+00
      vertex   -2.387113e+00 -5.897794e+00 3.000000e+00
    endloop
  endfacet
  facet normal -9.110633e-15 -3.450731e-14 -1.000000e+00
    outer loop
      vertex   -2.387113e+00 -5.897794e+00 3.000000e+00
      vertex   -2.350731e+00 -5.881661e+00 3.000000e+00
      vertex   -2.000000e+00 -6.000000e+00 3.000000e+00
    endloop
  endfacet
  facet normal 1.728511e-14 4.372395e-14 -1.000000e+00
    outer loop
      vertex   -2.000000e+00 -6.000000e+00 3.000000e+00
      vertex   -2.350731e+00 -5.881661e+00 3.000000e+00
      vertex   -2.313815e+00 -5.865785e+00 3.000000e+00
    endloop
  endfacet
  facet normal -6.703220e-15 -1.236434e-14 -1.000000e+00
    outer loop
      vertex   -2.000000e+00 -6.000000e+00 3.000000e+00
      vertex   -2.313815e+00 -5.865785e+00 3.000000e+00
      vertex   -2.276370e+00 -5.850168e+00 3.000000e+00
    endloop
  endfacet
  facet normal 0.000000e+00 0.000000e+00 -1.000000e+00
    outer loop
      vertex   -2.276370e+00 -5.850168e+00 3.000000e+00
      vertex   -2.238403e+00 -5.834813e+00 3.000000e+00
      vertex   -2.000000e+00 -6.000000e+00 3.000000e+00
    endloop
  endfacet
  facet normal 0.000000e+00 0.000000e+00 -1.000000e+00
    outer loop
      vertex   -2.000000e+00 -6.000000e+00 3.000000e+00
      vertex   -2.238403e+00 -5.834813e+00 3.000000e+00
      vertex   -2.199921e+00 -5.819722e+00 3.000000e+00
    endloop
  endfacet
  facet normal 0.000000e+00 0.000000e+00 -1.000000e+00
    outer loop
      vertex   -2.000000e+00 -6.000000e+00 3.000000e+00
      vertex   -2.199921e+00 -5.819722e+00 3.000000e+00
      vertex   -2.160930e+00 -5.804897e+00 3.000000e+00
    endloop
  endfacet
  facet normal 0.000000e+00 0.000000e+00 -1.000000e+00
    outer loop
      vertex   -2.160930e+00 -5.804897e+00 3.000000e+00
      vertex   -2.121436e+00 -5.790339e+00 3.000000e+00
      vertex   -2.000000e+00 -6.000000e+00 3.000000e+00
    endloop
  endfacet
  facet normal 0.000000e+00 0.000000e+00 -1.000000e+00
    outer loop
      vertex   -2.000000e+00 -6.000000e+00 3.000000e+00
      vertex   -2.121436e+00 -5.790339e+00 3.000000e+00
      vertex   -2.081445e+00 -5.776052e+00 3.000000e+00
    endloop
  endfacet
  facet normal 0.000000e+00 0.000000e+00 -1.000000e+00
    outer loop
      vertex   -2.000000e+00 -6.000000e+00 3.000000e+00
      vertex   -2.081445e+00 -5.776052e+00 3.000000e+00
      vertex   -2.040964e+00 -5.762037e+00 3.000000e+00
    endloop
  endfacet
  facet normal 0.000000e+00 0.000000e+00 -1.000000e+00
    outer loop
      vertex   -2.040964e+00 -5.762037e+00 3.000000e+00
      vertex   -2.000000e+00 -5.748297e+00 3.000000e+00
      vertex   -2.000000e+00 -6.000000e+00 3.000000e+00
    endloop
  endfacet
  facet normal 1.000000e+00 0.000000e+00 8.009051e-15
    outer loop
      vertex   -2.000000e+00 -5.748297e+00 3.000000e+00
      vertex   -2.000000e+00 -5.776336e+00 3.055448e+00
      vertex   -2.000000e+00 -6.000000e+00 3.000000e+00
    endloop
  endfacet
  facet normal 1.000000e+00 -2.038628e-17 8.091284e-15
    outer loop
      vertex   -2.000000e+00 -6.000000e+00 3.000000e+00
      vertex   -2.000000e+00 -5.776336e+00 3.055448e+00
      vertex   -2.000000e+00 -5.805254e+00 3.110260e+00
    endloop
  endfacet
  facet normal 1.000000e+00 -6.585878e-17 8.171598e-15
    outer loop
      vertex   -2.000000e+00 -6.000000e+00 3.000000e+00
      vertex   -2.000000e+00 -5.805254e+00 3.110260e+00
      vertex   -2.000000e+00 -5.835063e+00 3.164366e+00
    endloop
  endfacet
  facet normal 1.000000e+00 5.132198e-15 2.955480e-15
    outer loop
      vertex   -2.000000e+00 -5.835063e+00 3.164366e+00
      vertex   -2.000000e+00 -5.865773e+00 3.217694e+00
      vertex   -2.000000e+00 -6.000000e+00 3.000000e+00
    endloop
  endfacet
  facet normal 1.000000e+00 1.194205e-14 -1.243378e-15
    outer loop
      vertex   -2.000000e+00 -6.000000e+00 3.000000e+00
      vertex   -2.000000e+00 -5.865773e+00 3.217694e+00
      vertex   -2.000000e+00 -5.897482e+00 3.270313e+00
    endloop
  endfacet
  facet normal 1.000000e+00 3.275041e-15 2.043658e-15
    outer loop
      vertex   -2.000000e+00 -6.000000e+00 3.000000e+00
      vertex   -2.000000e+00 -5.897482e+00 3.270313e+00
      vertex   -2.000000e+00 -5.913793e+00 3.296452e+00
    endloop
  endfacet
  facet normal 1.000000e+00 3.221938e-15 2.059100e-15
    outer loop
      vertex   -2.000000e+00 -5.913793e+00 3.296452e+00
      vertex   -2.000000e+00 -5.930413e+00 3.322458e+00
      vertex   -2.000000e+00 -6.000000e+00 3.000000e+00
    endloop
  endfacet
  facet normal 1.000000e+00 3.163676e-15 2.071674e-15
    outer loop
      vertex   -2.000000e+00 -6.000000e+00 3.000000e+00
      vertex   -2.000000e+00 -5.930413e+00 3.322458e+00
      vertex   -2.000000e+00 -5.947343e+00 3.348311e+00
    endloop
  endfacet
  facet normal 1.000000e+00 4.514758e-14 -4.275409e-15
    outer loop
      vertex   -2.000000e+00 -6.000000e+00 3.000000e+00
      vertex   -2.000000e+00 -5.947343e+00 3.348311e+00
      vertex   -2.000000e+00 -5.964583e+00 3.373994e+00
    endloop
  endfacet
  facet normal 1.000000e+00 0.000000e+00 0.000000e+00
    outer loop
      vertex   -2.000000e+00 -5.964583e+00 3.373994e+00
      vertex   -2.000000e+00 -5.982135e+00 3.399487e+00
      vertex   -2.000000e+00 -6.000000e+00 3.000000e+00
    endloop
  endfacet
  facet normal 1.000000e+00 0.000000e+00 0.000000e+00
    outer loop
      vertex   -2.000000e+00 -6.000000e+00 3.000000e+00
      vertex   -2.000000e+00 -5.982135e+00 3.399487e+00
      vertex   -2.000000e+00 -6.000000e+00 3.424772e+00
    endloop
  endfacet
endsolid
