solid ASCII
  facet normal 3.551127e-01 -8.368187e-01 4.166886e-01
    outer loop
      vertex   -4.000000e+00 8.957180e+00 -4.912416e+00
      vertex   -4.000000e+00 8.913568e+00 -5.000000e+00
      vertex   -3.964328e+00 8.972357e+00 -4.912338e+00
    endloop
  endfacet
  facet normal 3.533644e-01 -8.371076e-01 4.175937e-01
    outer loop
      vertex   -3.964328e+00 8.972357e+00 -4.912338e+00
      vertex   -4.000000e+00 8.913568e+00 -5.000000e+00
      vertex   -3.896242e+00 8.957367e+00 -5.000000e+00
    endloop
  endfacet
  facet normal 3.512599e-01 -8.386726e-01 4.162268e-01
    outer loop
      vertex   -3.964328e+00 8.972357e+00 -4.912338e+00
      vertex   -3.896242e+00 8.957367e+00 -5.000000e+00
      vertex   -3.912163e+00 8.994205e+00 -4.912338e+00
    endloop
  endfacet
  facet normal 3.485074e-01 -8.398274e-01 4.162122e-01
    outer loop
      vertex   -3.912163e+00 8.994205e+00 -4.912338e+00
      vertex   -3.896242e+00 8.957367e+00 -5.000000e+00
      vertex   -3.896963e+00 9.000000e+00 -4.913371e+00
    endloop
  endfacet
  facet normal 3.492306e-01 -8.429791e-01 4.091750e-01
    outer loop
      vertex   -3.912163e+00 8.994205e+00 -4.912338e+00
      vertex   -3.896963e+00 9.000000e+00 -4.913371e+00
      vertex   -3.948723e+00 9.000000e+00 -4.869194e+00
    endloop
  endfacet
  facet normal 3.434385e-01 -8.396449e-01 4.207689e-01
    outer loop
      vertex   -3.792011e+00 9.000000e+00 -5.000000e+00
      vertex   -3.844725e+00 9.000000e+00 -4.956974e+00
      vertex   -3.896242e+00 8.957367e+00 -5.000000e+00
    endloop
  endfacet
  facet normal 3.475378e-01 -8.401535e-01 4.163646e-01
    outer loop
      vertex   -3.896242e+00 8.957367e+00 -5.000000e+00
      vertex   -3.844725e+00 9.000000e+00 -4.956974e+00
      vertex   -3.896963e+00 9.000000e+00 -4.913371e+00
    endloop
  endfacet
  facet normal 3.521211e-01 -8.407287e-01 4.113222e-01
    outer loop
      vertex   -3.912163e+00 8.994205e+00 -4.912338e+00
      vertex   -3.948723e+00 9.000000e+00 -4.869194e+00
      vertex   -3.964328e+00 8.972357e+00 -4.912338e+00
    endloop
  endfacet
  facet normal 3.569202e-01 -8.398318e-01 4.090117e-01
    outer loop
      vertex   -3.964328e+00 8.972357e+00 -4.912338e+00
      vertex   -3.948723e+00 9.000000e+00 -4.869194e+00
      vertex   -4.000000e+00 9.000000e+00 -4.824448e+00
    endloop
  endfacet
  facet normal 3.565067e-01 -8.400549e-01 4.089141e-01
    outer loop
      vertex   -3.964328e+00 8.972357e+00 -4.912338e+00
      vertex   -4.000000e+00 9.000000e+00 -4.824448e+00
      vertex   -4.000000e+00 8.957180e+00 -4.912416e+00
    endloop
  endfacet
  facet normal 0.000000e+00 1.000000e+00 0.000000e+00
    outer loop
      vertex   -4.000000e+00 9.000000e+00 -4.824448e+00
      vertex   -3.948723e+00 9.000000e+00 -4.869194e+00
      vertex   -4.000000e+00 9.000000e+00 -5.000000e+00
    endloop
  endfacet
  facet normal 0.000000e+00 1.000000e+00 0.000000e+00
    outer loop
      vertex   -4.000000e+00 9.000000e+00 -5.000000e+00
      vertex   -3.948723e+00 9.000000e+00 -4.869194e+00
      vertex   -3.896963e+00 9.000000e+00 -4.913371e+00
    endloop
  endfacet
  facet normal 0.000000e+00 1.000000e+00 0.000000e+00
    outer loop
      vertex   -4.000000e+00 9.000000e+00 -5.000000e+00
      vertex   -3.896963e+00 9.000000e+00 -4.913371e+00
      vertex   -3.844725e+00 9.000000e+00 -4.956974e+00
    endloop
  endfacet
  facet normal 0.000000e+00 1.000000e+00 0.000000e+00
    outer loop
      vertex   -3.844725e+00 9.000000e+00 -4.956974e+00
      vertex   -3.792011e+00 9.000000e+00 -5.000000e+00
      vertex   -4.000000e+00 9.000000e+00 -5.000000e+00
    endloop
  endfacet
  facet normal -0.000000e+00 0.000000e+00 -1.000000e+00
    outer loop
      vertex   -3.792011e+00 9.000000e+00 -5.000000e+00
      vertex   -3.896242e+00 8.957367e+00 -5.000000e+00
      vertex   -4.000000e+00 9.000000e+00 -5.000000e+00
    endloop
  endfacet
  facet normal 0.000000e+00 0.000000e+00 -1.000000e+00
    outer loop
      vertex   -4.000000e+00 9.000000e+00 -5.000000e+00
      vertex   -3.896242e+00 8.957367e+00 -5.000000e+00
      vertex   -4.000000e+00 8.913568e+00 -5.000000e+00
    endloop
  endfacet
  facet normal -1.000000e+00 0.000000e+00 0.000000e+00
    outer loop
      vertex   -4.000000e+00 8.913568e+00 -5.000000e+00
      vertex   -4.000000e+00 8.957180e+00 -4.912416e+00
      vertex   -4.000000e+00 9.000000e+00 -5.000000e+00
    endloop
  endfacet
  facet normal -1.000000e+00 0.000000e+00 0.000000e+00
    outer loop
      vertex   -4.000000e+00 9.000000e+00 -5.000000e+00
      vertex   -4.000000e+00 8.957180e+00 -4.912416e+00
      vertex   -4.000000e+00 9.000000e+00 -4.824448e+00
    endloop
  endfacet
endsolid
