solid ASCII
  facet normal 2.736104e-01 -5.786447e-01 7.683148e-01
    outer loop
      vertex   3.000000e+00 -6.072568e+00 9.054304e+00
      vertex   3.000000e+00 -6.144673e+00 9.000000e+00
      vertex   3.007803e+00 -6.068927e+00 9.054268e+00
    endloop
  endfacet
  facet normal 2.740727e-01 -5.785990e-01 7.681845e-01
    outer loop
      vertex   3.007803e+00 -6.068927e+00 9.054268e+00
      vertex   3.000000e+00 -6.144673e+00 9.000000e+00
      vertex   3.073679e+00 -6.109772e+00 9.000000e+00
    endloop
  endfacet
  facet normal 2.754363e-01 -5.771749e-01 7.687678e-01
    outer loop
      vertex   3.007803e+00 -6.068927e+00 9.054268e+00
      vertex   3.073679e+00 -6.109772e+00 9.000000e+00
      vertex   3.044251e+00 -6.051534e+00 9.054268e+00
    endloop
  endfacet
  facet normal 2.787525e-01 -5.755327e-01 7.688037e-01
    outer loop
      vertex   3.044251e+00 -6.051534e+00 9.054268e+00
      vertex   3.073679e+00 -6.109772e+00 9.000000e+00
      vertex   3.080447e+00 -6.034002e+00 9.054268e+00
    endloop
  endfacet
  facet normal 2.766436e-01 -5.711785e-01 7.728023e-01
    outer loop
      vertex   3.044251e+00 -6.051534e+00 9.054268e+00
      vertex   3.080447e+00 -6.034002e+00 9.054268e+00
      vertex   3.073396e+00 -6.000000e+00 9.081923e+00
    endloop
  endfacet
  facet normal 2.801928e-01 -5.700688e-01 7.723429e-01
    outer loop
      vertex   3.073396e+00 -6.000000e+00 9.081923e+00
      vertex   3.080447e+00 -6.034002e+00 9.054268e+00
      vertex   3.116718e+00 -6.016175e+00 9.054268e+00
    endloop
  endfacet
  facet normal 2.822735e-01 -5.670268e-01 7.738231e-01
    outer loop
      vertex   3.073396e+00 -6.000000e+00 9.081923e+00
      vertex   3.116718e+00 -6.016175e+00 9.054268e+00
      vertex   3.146559e+00 -6.000000e+00 9.055235e+00
    endloop
  endfacet
  facet normal 2.852622e-01 -5.722446e-01 7.688703e-01
    outer loop
      vertex   3.146559e+00 -6.000000e+00 9.055235e+00
      vertex   3.116718e+00 -6.016175e+00 9.054268e+00
      vertex   3.146939e+00 -6.074025e+00 9.000000e+00
    endloop
  endfacet
  facet normal 2.873081e-01 -5.718723e-01 7.683854e-01
    outer loop
      vertex   3.146559e+00 -6.000000e+00 9.055235e+00
      vertex   3.146939e+00 -6.074025e+00 9.000000e+00
      vertex   3.219773e+00 -6.037433e+00 9.000000e+00
    endloop
  endfacet
  facet normal 2.807273e-01 -5.753124e-01 7.682499e-01
    outer loop
      vertex   3.073679e+00 -6.109772e+00 9.000000e+00
      vertex   3.146939e+00 -6.074025e+00 9.000000e+00
      vertex   3.080447e+00 -6.034002e+00 9.054268e+00
    endloop
  endfacet
  facet normal 2.820653e-01 -5.738786e-01 7.688319e-01
    outer loop
      vertex   3.080447e+00 -6.034002e+00 9.054268e+00
      vertex   3.146939e+00 -6.074025e+00 9.000000e+00
      vertex   3.116718e+00 -6.016175e+00 9.054268e+00
    endloop
  endfacet
  facet normal 2.946836e-01 -5.699660e-01 7.670074e-01
    outer loop
      vertex   3.292174e+00 -6.000000e+00 9.000000e+00
      vertex   3.219486e+00 -6.000000e+00 9.027927e+00
      vertex   3.219773e+00 -6.037433e+00 9.000000e+00
    endloop
  endfacet
  facet normal 2.878307e-01 -5.712474e-01 7.686546e-01
    outer loop
      vertex   3.219773e+00 -6.037433e+00 9.000000e+00
      vertex   3.219486e+00 -6.000000e+00 9.027927e+00
      vertex   3.146559e+00 -6.000000e+00 9.055235e+00
    endloop
  endfacet
  facet normal 2.748196e-01 -5.706897e-01 7.738136e-01
    outer loop
      vertex   3.073396e+00 -6.000000e+00 9.081923e+00
      vertex   3.000000e+00 -6.000000e+00 9.107990e+00
      vertex   3.044251e+00 -6.051534e+00 9.054268e+00
    endloop
  endfacet
  facet normal 2.729578e-01 -5.719812e-01 7.735189e-01
    outer loop
      vertex   3.044251e+00 -6.051534e+00 9.054268e+00
      vertex   3.000000e+00 -6.000000e+00 9.107990e+00
      vertex   3.007803e+00 -6.068927e+00 9.054268e+00
    endloop
  endfacet
  facet normal 2.707770e-01 -5.725167e-01 7.738892e-01
    outer loop
      vertex   3.000000e+00 -6.000000e+00 9.107990e+00
      vertex   3.000000e+00 -6.072568e+00 9.054304e+00
      vertex   3.007803e+00 -6.068927e+00 9.054268e+00
    endloop
  endfacet
  facet normal 0.000000e+00 1.000000e+00 0.000000e+00
    outer loop
      vertex   3.000000e+00 -6.000000e+00 9.107990e+00
      vertex   3.073396e+00 -6.000000e+00 9.081923e+00
      vertex   3.000000e+00 -6.000000e+00 9.000000e+00
    endloop
  endfacet
  facet normal 0.000000e+00 1.000000e+00 0.000000e+00
    outer loop
      vertex   3.000000e+00 -6.000000e+00 9.000000e+00
      vertex   3.073396e+00 -6.000000e+00 9.081923e+00
      vertex   3.146559e+00 -6.000000e+00 9.055235e+00
    endloop
  endfacet
  facet normal 0.000000e+00 1.000000e+00 0.000000e+00
    outer loop
      vertex   3.000000e+00 -6.000000e+00 9.000000e+00
      vertex   3.146559e+00 -6.000000e+00 9.055235e+00
      vertex   3.219486e+00 -6.000000e+00 9.027927e+00
    endloop
  endfacet
  facet normal 0.000000e+00 1.000000e+00 0.000000e+00
    outer loop
      vertex   3.219486e+00 -6.000000e+00 9.027927e+00
      vertex   3.292174e+00 -6.000000e+00 9.000000e+00
      vertex   3.000000e+00 -6.000000e+00 9.000000e+00
    endloop
  endfacet
  facet normal -0.000000e+00 0.000000e+00 -1.000000e+00
    outer loop
      vertex   3.292174e+00 -6.000000e+00 9.000000e+00
      vertex   3.219773e+00 -6.037433e+00 9.000000e+00
      vertex   3.000000e+00 -6.000000e+00 9.000000e+00
    endloop
  endfacet
  facet normal 0.000000e+00 0.000000e+00 -1.000000e+00
    outer loop
      vertex   3.000000e+00 -6.000000e+00 9.000000e+00
      vertex   3.219773e+00 -6.037433e+00 9.000000e+00
      vertex   3.146939e+00 -6.074025e+00 9.000000e+00
    endloop
  endfacet
  facet normal 0.000000e+00 0.000000e+00 -1.000000e+00
    outer loop
      vertex   3.000000e+00 -6.000000e+00 9.000000e+00
      vertex   3.146939e+00 -6.074025e+00 9.000000e+00
      vertex   3.073679e+00 -6.109772e+00 9.000000e+00
    endloop
  endfacet
  facet normal -0.000000e+00 0.000000e+00 -1.000000e+00
    outer loop
      vertex   3.073679e+00 -6.109772e+00 9.000000e+00
      vertex   3.000000e+00 -6.144673e+00 9.000000e+00
      vertex   3.000000e+00 -6.000000e+00 9.000000e+00
    endloop
  endfacet
  facet normal -1.000000e+00 0.000000e+00 0.000000e+00
    outer loop
      vertex   3.000000e+00 -6.144673e+00 9.000000e+00
      vertex   3.000000e+00 -6.072568e+00 9.054304e+00
      vertex   3.000000e+00 -6.000000e+00 9.000000e+00
    endloop
  endfacet
  facet normal -1.000000e+00 0.000000e+00 0.000000e+00
    outer loop
      vertex   3.000000e+00 -6.000000e+00 9.000000e+00
      vertex   3.000000e+00 -6.072568e+00 9.054304e+00
      vertex   3.000000e+00 -6.000000e+00 9.107990e+00
    endloop
  endfacet
endsolid
