solid ASCII
  facet normal 8.116313e-01 -2.856717e-01 -5.095550e-01
    outer loop
      vertex   9.021941e+00 -3.000000e+00 -6.000000e+00
      vertex   9.000000e+00 -3.062337e+00 -6.000000e+00
      vertex   9.000000e+00 -3.000000e+00 -6.034948e+00
    endloop
  endfacet
  facet normal -1.000000e+00 0.000000e+00 0.000000e+00
    outer loop
      vertex   9.000000e+00 -3.000000e+00 -6.034948e+00
      vertex   9.000000e+00 -3.062337e+00 -6.000000e+00
      vertex   9.000000e+00 -3.000000e+00 -6.000000e+00
    endloop
  endfacet
  facet normal 0.000000e+00 0.000000e+00 1.000000e+00
    outer loop
      vertex   9.000000e+00 -3.062337e+00 -6.000000e+00
      vertex   9.021941e+00 -3.000000e+00 -6.000000e+00
      vertex   9.000000e+00 -3.000000e+00 -6.000000e+00
    endloop
  endfacet
  facet normal 0.000000e+00 1.000000e+00 0.000000e+00
    outer loop
      vertex   9.021941e+00 -3.000000e+00 -6.000000e+00
      vertex   9.000000e+00 -3.000000e+00 -6.034948e+00
      vertex   9.000000e+00 -3.000000e+00 -6.000000e+00
    endloop
  endfacet
endsolid
