solid ASCII
  facet normal -3.530650e-01 9.203677e-01 1.681318e-01
    outer loop
      vertex   -4.000000e+00 1.001258e+01 2.000000e+00
      vertex   -4.032788e+00 1.000000e+01 2.000000e+00
      vertex   -4.000000e+00 1.000000e+01 2.068852e+00
    endloop
  endfacet
  facet normal 0.000000e+00 -1.000000e+00 -0.000000e+00
    outer loop
      vertex   -4.000000e+00 1.000000e+01 2.068852e+00
      vertex   -4.032788e+00 1.000000e+01 2.000000e+00
      vertex   -4.000000e+00 1.000000e+01 2.000000e+00
    endloop
  endfacet
  facet normal 0.000000e+00 0.000000e+00 -1.000000e+00
    outer loop
      vertex   -4.032788e+00 1.000000e+01 2.000000e+00
      vertex   -4.000000e+00 1.001258e+01 2.000000e+00
      vertex   -4.000000e+00 1.000000e+01 2.000000e+00
    endloop
  endfacet
  facet normal 1.000000e+00 0.000000e+00 0.000000e+00
    outer loop
      vertex   -4.000000e+00 1.001258e+01 2.000000e+00
      vertex   -4.000000e+00 1.000000e+01 2.068852e+00
      vertex   -4.000000e+00 1.000000e+01 2.000000e+00
    endloop
  endfacet
endsolid
