solid ASCII
  facet normal -1.978395e-03 -2.876199e-01 9.577426e-01
    outer loop
      vertex   0.000000e+00 3.000000e+00 -1.097749e+01
      vertex   0.000000e+00 2.925044e+00 -1.100000e+01
      vertex   6.150078e-02 2.981996e+00 -1.098277e+01
    endloop
  endfacet
  facet normal -2.978392e-03 -2.866291e-01 9.580370e-01
    outer loop
      vertex   6.150078e-02 2.981996e+00 -1.098277e+01
      vertex   0.000000e+00 2.925044e+00 -1.100000e+01
      vertex   6.362206e-02 2.924383e+00 -1.100000e+01
    endloop
  endfacet
  facet normal -8.501172e-03 -2.868066e-01 9.579508e-01
    outer loop
      vertex   6.150078e-02 2.981996e+00 -1.098277e+01
      vertex   6.362206e-02 2.924383e+00 -1.100000e+01
      vertex   1.234791e-01 2.980159e+00 -1.098277e+01
    endloop
  endfacet
  facet normal -8.930549e-03 -2.863837e-01 9.580734e-01
    outer loop
      vertex   1.234791e-01 2.980159e+00 -1.098277e+01
      vertex   6.362206e-02 2.924383e+00 -1.100000e+01
      vertex   1.272227e-01 2.922399e+00 -1.100000e+01
    endloop
  endfacet
  facet normal -1.422386e-02 -2.866812e-01 9.579204e-01
    outer loop
      vertex   1.234791e-01 2.980159e+00 -1.098277e+01
      vertex   1.272227e-01 2.922399e+00 -1.100000e+01
      vertex   1.859018e-01 2.977062e+00 -1.098277e+01
    endloop
  endfacet
  facet normal -1.487640e-02 -2.860382e-01 9.581027e-01
    outer loop
      vertex   1.859018e-01 2.977062e+00 -1.098277e+01
      vertex   1.272227e-01 2.922399e+00 -1.100000e+01
      vertex   1.907804e-01 2.919094e+00 -1.100000e+01
    endloop
  endfacet
  facet normal -1.998852e-02 -2.864079e-01 9.578993e-01
    outer loop
      vertex   1.859018e-01 2.977062e+00 -1.098277e+01
      vertex   1.907804e-01 2.919094e+00 -1.100000e+01
      vertex   2.487338e-01 2.972677e+00 -1.098277e+01
    endloop
  endfacet
  facet normal -2.081535e-02 -2.855868e-01 9.581268e-01
    outer loop
      vertex   2.487338e-01 2.972677e+00 -1.098277e+01
      vertex   1.907804e-01 2.919094e+00 -1.100000e+01
      vertex   2.542732e-01 2.914466e+00 -1.100000e+01
    endloop
  endfacet
  facet normal -2.579083e-02 -2.859889e-01 9.578858e-01
    outer loop
      vertex   2.487338e-01 2.972677e+00 -1.098277e+01
      vertex   2.542732e-01 2.914466e+00 -1.100000e+01
      vertex   3.119384e-01 2.966977e+00 -1.098277e+01
    endloop
  endfacet
  facet normal -2.674645e-02 -2.850252e-01 9.581468e-01
    outer loop
      vertex   3.119384e-01 2.966977e+00 -1.098277e+01
      vertex   2.542732e-01 2.914466e+00 -1.100000e+01
      vertex   3.176797e-01 2.908516e+00 -1.100000e+01
    endloop
  endfacet
  facet normal -3.013146e-02 -2.853036e-01 9.579634e-01
    outer loop
      vertex   3.119384e-01 2.966977e+00 -1.098277e+01
      vertex   3.176797e-01 2.908516e+00 -1.100000e+01
      vertex   3.436684e-01 2.963626e+00 -1.098277e+01
    endloop
  endfacet
  facet normal -3.265042e-02 -2.841931e-01 9.582110e-01
    outer loop
      vertex   3.436684e-01 2.963626e+00 -1.098277e+01
      vertex   3.176797e-01 2.908516e+00 -1.100000e+01
      vertex   3.809781e-01 2.901244e+00 -1.100000e+01
    endloop
  endfacet
  facet normal -3.298315e-02 -2.843741e-01 9.581459e-01
    outer loop
      vertex   3.436684e-01 2.963626e+00 -1.098277e+01
      vertex   3.809781e-01 2.901244e+00 -1.100000e+01
      vertex   3.754771e-01 2.959937e+00 -1.098277e+01
    endloop
  endfacet
  facet normal -3.598013e-02 -2.846033e-01 9.579699e-01
    outer loop
      vertex   3.754771e-01 2.959937e+00 -1.098277e+01
      vertex   3.809781e-01 2.901244e+00 -1.100000e+01
      vertex   4.073594e-01 2.955906e+00 -1.098277e+01
    endloop
  endfacet
  facet normal -3.657005e-02 -2.892696e-01 9.565489e-01
    outer loop
      vertex   3.754771e-01 2.959937e+00 -1.098277e+01
      vertex   4.073594e-01 2.955906e+00 -1.098277e+01
      vertex   3.754828e-01 3.000000e+00 -1.097065e+01
    endloop
  endfacet
  facet normal -3.773647e-02 -2.900366e-01 9.562713e-01
    outer loop
      vertex   3.754828e-01 3.000000e+00 -1.097065e+01
      vertex   4.073594e-01 2.955906e+00 -1.098277e+01
      vertex   4.380384e-01 3.000000e+00 -1.096819e+01
    endloop
  endfacet
  facet normal -3.955296e-02 -2.888656e-01 9.565522e-01
    outer loop
      vertex   4.380384e-01 3.000000e+00 -1.096819e+01
      vertex   4.073594e-01 2.955906e+00 -1.098277e+01
      vertex   4.393101e-01 2.951531e+00 -1.098277e+01
    endloop
  endfacet
  facet normal -4.261224e-02 -2.889030e-01 9.564096e-01
    outer loop
      vertex   4.380384e-01 3.000000e+00 -1.096819e+01
      vertex   4.393101e-01 2.951531e+00 -1.098277e+01
      vertex   4.713239e-01 2.946809e+00 -1.098277e+01
    endloop
  endfacet
  facet normal -4.185498e-02 -2.837689e-01 9.579788e-01
    outer loop
      vertex   4.713239e-01 2.946809e+00 -1.098277e+01
      vertex   4.393101e-01 2.951531e+00 -1.098277e+01
      vertex   4.441467e-01 2.892649e+00 -1.100000e+01
    endloop
  endfacet
  facet normal -4.446187e-02 -2.825391e-01 9.582248e-01
    outer loop
      vertex   4.713239e-01 2.946809e+00 -1.098277e+01
      vertex   4.441467e-01 2.892649e+00 -1.100000e+01
      vertex   5.071614e-01 2.882733e+00 -1.100000e+01
    endloop
  endfacet
  facet normal -3.856302e-02 -2.834343e-01 9.582160e-01
    outer loop
      vertex   3.809781e-01 2.901244e+00 -1.100000e+01
      vertex   4.441467e-01 2.892649e+00 -1.100000e+01
      vertex   4.073594e-01 2.955906e+00 -1.098277e+01
    endloop
  endfacet
  facet normal -3.882847e-02 -2.835745e-01 9.581638e-01
    outer loop
      vertex   4.073594e-01 2.955906e+00 -1.098277e+01
      vertex   4.441467e-01 2.892649e+00 -1.100000e+01
      vertex   4.393101e-01 2.951531e+00 -1.098277e+01
    endloop
  endfacet
  facet normal -5.034156e-02 -2.815084e-01 9.582373e-01
    outer loop
      vertex   5.699350e-01 2.871507e+00 -1.100000e+01
      vertex   5.355194e-01 2.936313e+00 -1.098277e+01
      vertex   5.071614e-01 2.882733e+00 -1.100000e+01
    endloop
  endfacet
  facet normal -4.775219e-02 -2.827993e-01 9.579897e-01
    outer loop
      vertex   5.071614e-01 2.882733e+00 -1.100000e+01
      vertex   5.355194e-01 2.936313e+00 -1.098277e+01
      vertex   5.033955e-01 2.941738e+00 -1.098277e+01
    endloop
  endfacet
  facet normal -4.469957e-02 -2.826595e-01 9.581782e-01
    outer loop
      vertex   5.071614e-01 2.882733e+00 -1.100000e+01
      vertex   5.033955e-01 2.941738e+00 -1.098277e+01
      vertex   4.713239e-01 2.946809e+00 -1.098277e+01
    endloop
  endfacet
  facet normal -4.560337e-02 -2.883747e-01 9.564311e-01
    outer loop
      vertex   4.713239e-01 2.946809e+00 -1.098277e+01
      vertex   5.033955e-01 2.941738e+00 -1.098277e+01
      vertex   5.005825e-01 3.000000e+00 -1.096534e+01
    endloop
  endfacet
  facet normal -4.354706e-02 -2.894325e-01 9.562073e-01
    outer loop
      vertex   4.713239e-01 2.946809e+00 -1.098277e+01
      vertex   5.005825e-01 3.000000e+00 -1.096534e+01
      vertex   4.380384e-01 3.000000e+00 -1.096819e+01
    endloop
  endfacet
  facet normal -5.619491e-02 -2.803421e-01 9.582538e-01
    outer loop
      vertex   6.324164e-01 2.858983e+00 -1.100000e+01
      vertex   5.999019e-01 2.924397e+00 -1.098277e+01
      vertex   5.699350e-01 2.871507e+00 -1.100000e+01
    endloop
  endfacet
  facet normal -5.366765e-02 -2.816923e-01 9.580027e-01
    outer loop
      vertex   5.699350e-01 2.871507e+00 -1.100000e+01
      vertex   5.999019e-01 2.924397e+00 -1.098277e+01
      vertex   5.676901e-01 2.930534e+00 -1.098277e+01
    endloop
  endfacet
  facet normal -5.059409e-02 -2.816296e-01 9.581884e-01
    outer loop
      vertex   5.699350e-01 2.871507e+00 -1.100000e+01
      vertex   5.676901e-01 2.930534e+00 -1.098277e+01
      vertex   5.355194e-01 2.936313e+00 -1.098277e+01
    endloop
  endfacet
  facet normal -5.165365e-02 -2.875276e-01 9.563785e-01
    outer loop
      vertex   5.355194e-01 2.936313e+00 -1.098277e+01
      vertex   5.676901e-01 2.930534e+00 -1.098277e+01
      vertex   5.786437e-01 2.987079e+00 -1.096518e+01
    endloop
  endfacet
  facet normal -5.165365e-02 -2.875276e-01 9.563785e-01
    outer loop
      vertex   5.355194e-01 2.936313e+00 -1.098277e+01
      vertex   5.786437e-01 2.987079e+00 -1.096518e+01
      vertex   5.458522e-01 2.992969e+00 -1.096518e+01
    endloop
  endfacet
  facet normal -5.201808e-02 -2.895561e-01 9.557465e-01
    outer loop
      vertex   5.458522e-01 2.992969e+00 -1.096518e+01
      vertex   5.786437e-01 2.987079e+00 -1.096518e+01
      vertex   5.631102e-01 3.000000e+00 -1.096211e+01
    endloop
  endfacet
  facet normal -4.973565e-02 -2.945458e-01 9.543423e-01
    outer loop
      vertex   5.458522e-01 2.992969e+00 -1.096518e+01
      vertex   5.631102e-01 3.000000e+00 -1.096211e+01
      vertex   5.131085e-01 2.998498e+00 -1.096518e+01
    endloop
  endfacet
  facet normal -4.903748e-02 -3.087017e-01 9.498940e-01
    outer loop
      vertex   5.131085e-01 2.998498e+00 -1.096518e+01
      vertex   5.631102e-01 3.000000e+00 -1.096211e+01
      vertex   5.005825e-01 3.000000e+00 -1.096534e+01
    endloop
  endfacet
  facet normal -4.668679e-02 -2.884084e-01 9.563686e-01
    outer loop
      vertex   5.131085e-01 2.998498e+00 -1.096518e+01
      vertex   5.005825e-01 3.000000e+00 -1.096534e+01
      vertex   5.033955e-01 2.941738e+00 -1.098277e+01
    endloop
  endfacet
  facet normal -6.201802e-02 -2.790413e-01 9.582743e-01
    outer loop
      vertex   6.945846e-01 2.845166e+00 -1.100000e+01
      vertex   6.644260e-01 2.911041e+00 -1.098277e+01
      vertex   6.324164e-01 2.858983e+00 -1.100000e+01
    endloop
  endfacet
  facet normal -5.959699e-02 -2.804452e-01 9.580181e-01
    outer loop
      vertex   6.324164e-01 2.858983e+00 -1.100000e+01
      vertex   6.644260e-01 2.911041e+00 -1.098277e+01
      vertex   6.321492e-01 2.917900e+00 -1.098277e+01
    endloop
  endfacet
  facet normal -5.650924e-02 -2.804827e-01 9.581942e-01
    outer loop
      vertex   6.324164e-01 2.858983e+00 -1.100000e+01
      vertex   6.321492e-01 2.917900e+00 -1.098277e+01
      vertex   5.999019e-01 2.924397e+00 -1.098277e+01
    endloop
  endfacet
  facet normal -5.768709e-02 -2.863289e-01 9.563932e-01
    outer loop
      vertex   5.999019e-01 2.924397e+00 -1.098277e+01
      vertex   6.321492e-01 2.917900e+00 -1.098277e+01
      vertex   6.443465e-01 2.974201e+00 -1.096518e+01
    endloop
  endfacet
  facet normal -5.768709e-02 -2.863289e-01 9.563932e-01
    outer loop
      vertex   5.999019e-01 2.924397e+00 -1.098277e+01
      vertex   6.443465e-01 2.974201e+00 -1.096518e+01
      vertex   6.114770e-01 2.980823e+00 -1.096518e+01
    endloop
  endfacet
  facet normal -5.834593e-02 -2.895990e-01 9.553681e-01
    outer loop
      vertex   6.114770e-01 2.980823e+00 -1.096518e+01
      vertex   6.443465e-01 2.974201e+00 -1.096518e+01
      vertex   6.256126e-01 3.000000e+00 -1.095850e+01
    endloop
  endfacet
  facet normal -5.554035e-02 -2.915217e-01 9.549505e-01
    outer loop
      vertex   6.114770e-01 2.980823e+00 -1.096518e+01
      vertex   6.256126e-01 3.000000e+00 -1.095850e+01
      vertex   5.786437e-01 2.987079e+00 -1.096518e+01
    endloop
  endfacet
  facet normal -5.508657e-02 -2.929576e-01 9.545372e-01
    outer loop
      vertex   5.786437e-01 2.987079e+00 -1.096518e+01
      vertex   6.256126e-01 3.000000e+00 -1.095850e+01
      vertex   5.631102e-01 3.000000e+00 -1.096211e+01
    endloop
  endfacet
  facet normal -6.780898e-02 -2.776089e-01 9.582981e-01
    outer loop
      vertex   7.564190e-01 2.830062e+00 -1.100000e+01
      vertex   7.290447e-01 2.896228e+00 -1.098277e+01
      vertex   6.945846e-01 2.845166e+00 -1.100000e+01
    endloop
  endfacet
  facet normal -6.553547e-02 -2.790549e-01 9.580363e-01
    outer loop
      vertex   6.945846e-01 2.845166e+00 -1.100000e+01
      vertex   7.290447e-01 2.896228e+00 -1.098277e+01
      vertex   6.967265e-01 2.903817e+00 -1.098277e+01
    endloop
  endfacet
  facet normal -6.244167e-02 -2.792148e-01 9.581963e-01
    outer loop
      vertex   6.945846e-01 2.845166e+00 -1.100000e+01
      vertex   6.967265e-01 2.903817e+00 -1.098277e+01
      vertex   6.644260e-01 2.911041e+00 -1.098277e+01
    endloop
  endfacet
  facet normal -6.373299e-02 -2.849892e-01 9.564096e-01
    outer loop
      vertex   6.644260e-01 2.911041e+00 -1.098277e+01
      vertex   6.967265e-01 2.903817e+00 -1.098277e+01
      vertex   7.101699e-01 2.959847e+00 -1.096518e+01
    endloop
  endfacet
  facet normal -6.373299e-02 -2.849892e-01 9.564096e-01
    outer loop
      vertex   6.644260e-01 2.911041e+00 -1.098277e+01
      vertex   7.101699e-01 2.959847e+00 -1.096518e+01
      vertex   6.772461e-01 2.967209e+00 -1.096518e+01
    endloop
  endfacet
  facet normal -6.466939e-02 -2.891763e-01 9.550890e-01
    outer loop
      vertex   6.772461e-01 2.967209e+00 -1.096518e+01
      vertex   7.101699e-01 2.959847e+00 -1.096518e+01
      vertex   6.880879e-01 3.000000e+00 -1.095452e+01
    endloop
  endfacet
  facet normal -6.165759e-02 -2.901417e-01 9.549954e-01
    outer loop
      vertex   6.772461e-01 2.967209e+00 -1.096518e+01
      vertex   6.880879e-01 3.000000e+00 -1.095452e+01
      vertex   6.443465e-01 2.974201e+00 -1.096518e+01
    endloop
  endfacet
  facet normal -6.090932e-02 -2.912862e-01 9.546949e-01
    outer loop
      vertex   6.443465e-01 2.974201e+00 -1.096518e+01
      vertex   6.880879e-01 3.000000e+00 -1.095452e+01
      vertex   6.256126e-01 3.000000e+00 -1.095850e+01
    endloop
  endfacet
  facet normal -7.356628e-02 -2.760484e-01 9.583242e-01
    outer loop
      vertex   8.178986e-01 2.813678e+00 -1.100000e+01
      vertex   7.937098e-01 2.879941e+00 -1.098277e+01
      vertex   7.564190e-01 2.830062e+00 -1.100000e+01
    endloop
  endfacet
  facet normal -7.147791e-02 -2.775177e-01 9.580579e-01
    outer loop
      vertex   7.564190e-01 2.830062e+00 -1.100000e+01
      vertex   7.937098e-01 2.879941e+00 -1.098277e+01
      vertex   7.613746e-01 2.888269e+00 -1.098277e+01
    endloop
  endfacet
  facet normal -6.838755e-02 -2.778215e-01 9.581954e-01
    outer loop
      vertex   7.564190e-01 2.830062e+00 -1.100000e+01
      vertex   7.613746e-01 2.888269e+00 -1.098277e+01
      vertex   7.290447e-01 2.896228e+00 -1.098277e+01
    endloop
  endfacet
  facet normal -6.978697e-02 -2.835066e-01 9.564276e-01
    outer loop
      vertex   7.290447e-01 2.896228e+00 -1.098277e+01
      vertex   7.613746e-01 2.888269e+00 -1.098277e+01
      vertex   7.760653e-01 2.943999e+00 -1.096518e+01
    endloop
  endfacet
  facet normal -6.978697e-02 -2.835066e-01 9.564276e-01
    outer loop
      vertex   7.290447e-01 2.896228e+00 -1.098277e+01
      vertex   7.760653e-01 2.943999e+00 -1.096518e+01
      vertex   7.431117e-01 2.952110e+00 -1.096518e+01
    endloop
  endfacet
  facet normal -7.103842e-02 -2.885905e-01 9.548136e-01
    outer loop
      vertex   7.431117e-01 2.952110e+00 -1.096518e+01
      vertex   7.760653e-01 2.943999e+00 -1.096518e+01
      vertex   7.505344e-01 3.000000e+00 -1.095015e+01
    endloop
  endfacet
  facet normal -6.789481e-02 -2.891011e-01 9.548879e-01
    outer loop
      vertex   7.431117e-01 2.952110e+00 -1.096518e+01
      vertex   7.505344e-01 3.000000e+00 -1.095015e+01
      vertex   7.101699e-01 2.959847e+00 -1.096518e+01
    endloop
  endfacet
  facet normal -6.672294e-02 -2.901868e-01 9.546411e-01
    outer loop
      vertex   7.101699e-01 2.959847e+00 -1.096518e+01
      vertex   7.505344e-01 3.000000e+00 -1.095015e+01
      vertex   6.880879e-01 3.000000e+00 -1.095452e+01
    endloop
  endfacet
  facet normal -7.928880e-02 -2.743638e-01 9.583516e-01
    outer loop
      vertex   8.790025e-01 2.796019e+00 -1.100000e+01
      vertex   8.583718e-01 2.862167e+00 -1.098277e+01
      vertex   8.178986e-01 2.813678e+00 -1.100000e+01
    endloop
  endfacet
  facet normal -7.741868e-02 -2.758296e-01 9.580837e-01
    outer loop
      vertex   8.178986e-01 2.813678e+00 -1.100000e+01
      vertex   8.583718e-01 2.862167e+00 -1.098277e+01
      vertex   8.260444e-01 2.871241e+00 -1.098277e+01
    endloop
  endfacet
  facet normal -7.434252e-02 -2.762975e-01 9.581925e-01
    outer loop
      vertex   8.178986e-01 2.813678e+00 -1.100000e+01
      vertex   8.260444e-01 2.871241e+00 -1.098277e+01
      vertex   7.937098e-01 2.879941e+00 -1.098277e+01
    endloop
  endfacet
  facet normal -7.584450e-02 -2.818797e-01 9.564473e-01
    outer loop
      vertex   7.937098e-01 2.879941e+00 -1.098277e+01
      vertex   8.260444e-01 2.871241e+00 -1.098277e+01
      vertex   8.419829e-01 2.926642e+00 -1.096518e+01
    endloop
  endfacet
  facet normal -7.584450e-02 -2.818797e-01 9.564473e-01
    outer loop
      vertex   7.937098e-01 2.879941e+00 -1.098277e+01
      vertex   8.419829e-01 2.926642e+00 -1.096518e+01
      vertex   8.090245e-01 2.935510e+00 -1.096518e+01
    endloop
  endfacet
  facet normal -7.728115e-02 -2.872191e-01 9.547423e-01
    outer loop
      vertex   8.090245e-01 2.935510e+00 -1.096518e+01
      vertex   8.419829e-01 2.926642e+00 -1.096518e+01
      vertex   8.579182e-01 2.982031e+00 -1.094723e+01
    endloop
  endfacet
  facet normal -7.728115e-02 -2.872191e-01 9.547423e-01
    outer loop
      vertex   8.090245e-01 2.935510e+00 -1.096518e+01
      vertex   8.579182e-01 2.982031e+00 -1.094723e+01
      vertex   8.243360e-01 2.991067e+00 -1.094723e+01
    endloop
  endfacet
  facet normal -7.931433e-02 -2.947755e-01 9.522692e-01
    outer loop
      vertex   8.243360e-01 2.991067e+00 -1.094723e+01
      vertex   8.579182e-01 2.982031e+00 -1.094723e+01
      vertex   8.129504e-01 3.000000e+00 -1.094541e+01
    endloop
  endfacet
  facet normal -7.375260e-02 -2.881874e-01 9.547296e-01
    outer loop
      vertex   8.243360e-01 2.991067e+00 -1.094723e+01
      vertex   8.129504e-01 3.000000e+00 -1.094541e+01
      vertex   8.090245e-01 2.935510e+00 -1.096518e+01
    endloop
  endfacet
  facet normal -7.421677e-02 -2.881515e-01 9.547045e-01
    outer loop
      vertex   8.090245e-01 2.935510e+00 -1.096518e+01
      vertex   8.129504e-01 3.000000e+00 -1.094541e+01
      vertex   7.760653e-01 2.943999e+00 -1.096518e+01
    endloop
  endfacet
  facet normal -7.281558e-02 -2.827112e-01 9.564373e-01
    outer loop
      vertex   8.090245e-01 2.935510e+00 -1.096518e+01
      vertex   7.760653e-01 2.943999e+00 -1.096518e+01
      vertex   7.613746e-01 2.888269e+00 -1.098277e+01
    endloop
  endfacet
  facet normal -8.497586e-02 -2.725597e-01 9.583790e-01
    outer loop
      vertex   9.397099e-01 2.777093e+00 -1.100000e+01
      vertex   9.229799e-01 2.842895e+00 -1.098277e+01
      vertex   8.790025e-01 2.796019e+00 -1.100000e+01
    endloop
  endfacet
  facet normal -8.335162e-02 -2.739864e-01 9.581148e-01
    outer loop
      vertex   8.790025e-01 2.796019e+00 -1.100000e+01
      vertex   9.229799e-01 2.842895e+00 -1.098277e+01
      vertex   8.906858e-01 2.852719e+00 -1.098277e+01
    endloop
  endfacet
  facet normal -8.030165e-02 -2.746374e-01 9.581889e-01
    outer loop
      vertex   8.790025e-01 2.796019e+00 -1.100000e+01
      vertex   8.906858e-01 2.852719e+00 -1.098277e+01
      vertex   8.583718e-01 2.862167e+00 -1.098277e+01
    endloop
  endfacet
  facet normal -8.190095e-02 -2.801071e-01 9.564686e-01
    outer loop
      vertex   8.583718e-01 2.862167e+00 -1.098277e+01
      vertex   8.906858e-01 2.852719e+00 -1.098277e+01
      vertex   9.078716e-01 2.907762e+00 -1.096518e+01
    endloop
  endfacet
  facet normal -8.190095e-02 -2.801071e-01 9.564686e-01
    outer loop
      vertex   8.583718e-01 2.862167e+00 -1.098277e+01
      vertex   9.078716e-01 2.907762e+00 -1.096518e+01
      vertex   8.749341e-01 2.917393e+00 -1.096518e+01
    endloop
  endfacet
  facet normal -8.345240e-02 -2.854131e-01 9.547644e-01
    outer loop
      vertex   8.749341e-01 2.917393e+00 -1.096518e+01
      vertex   9.078716e-01 2.907762e+00 -1.096518e+01
      vertex   9.250539e-01 2.962794e+00 -1.094723e+01
    endloop
  endfacet
  facet normal -8.345240e-02 -2.854131e-01 9.547644e-01
    outer loop
      vertex   8.749341e-01 2.917393e+00 -1.096518e+01
      vertex   9.250539e-01 2.962794e+00 -1.094723e+01
      vertex   8.914930e-01 2.972607e+00 -1.094723e+01
    endloop
  endfacet
  facet normal -8.476616e-02 -2.899063e-01 9.532938e-01
    outer loop
      vertex   8.914930e-01 2.972607e+00 -1.094723e+01
      vertex   9.250539e-01 2.962794e+00 -1.094723e+01
      vertex   9.376848e-01 3.000000e+00 -1.093479e+01
    endloop
  endfacet
  facet normal -8.405900e-02 -2.909788e-01 9.530296e-01
    outer loop
      vertex   8.914930e-01 2.972607e+00 -1.094723e+01
      vertex   9.376848e-01 3.000000e+00 -1.093479e+01
      vertex   8.753344e-01 3.000000e+00 -1.094029e+01
    endloop
  endfacet
  facet normal -9.062720e-02 -2.706404e-01 9.584052e-01
    outer loop
      vertex   1.000000e+00 2.756904e+00 -1.100000e+01
      vertex   9.874825e-01 2.822113e+00 -1.098277e+01
      vertex   9.397099e-01 2.777093e+00 -1.100000e+01
    endloop
  endfacet
  facet normal -8.927009e-02 -2.719837e-01 9.581523e-01
    outer loop
      vertex   9.397099e-01 2.777093e+00 -1.100000e+01
      vertex   9.874825e-01 2.822113e+00 -1.098277e+01
      vertex   9.552477e-01 2.832693e+00 -1.098277e+01
    endloop
  endfacet
  facet normal -8.625942e-02 -2.728354e-01 9.581859e-01
    outer loop
      vertex   9.397099e-01 2.777093e+00 -1.100000e+01
      vertex   9.552477e-01 2.832693e+00 -1.098277e+01
      vertex   9.229799e-01 2.842895e+00 -1.098277e+01
    endloop
  endfacet
  facet normal -8.795157e-02 -2.781877e-01 9.564916e-01
    outer loop
      vertex   9.229799e-01 2.842895e+00 -1.098277e+01
      vertex   9.552477e-01 2.832693e+00 -1.098277e+01
      vertex   9.736792e-01 2.887350e+00 -1.096518e+01
    endloop
  endfacet
  facet normal -8.795157e-02 -2.781877e-01 9.564916e-01
    outer loop
      vertex   9.229799e-01 2.842895e+00 -1.098277e+01
      vertex   9.736792e-01 2.887350e+00 -1.096518e+01
      vertex   9.407889e-01 2.897748e+00 -1.096518e+01
    endloop
  endfacet
  facet normal -8.961772e-02 -2.834576e-01 9.547882e-01
    outer loop
      vertex   9.407889e-01 2.897748e+00 -1.096518e+01
      vertex   9.736792e-01 2.887350e+00 -1.096518e+01
      vertex   9.921070e-01 2.941995e+00 -1.094723e+01
    endloop
  endfacet
  facet normal -8.961772e-02 -2.834576e-01 9.547882e-01
    outer loop
      vertex   9.407889e-01 2.897748e+00 -1.096518e+01
      vertex   9.921070e-01 2.941995e+00 -1.094723e+01
      vertex   9.585941e-01 2.952591e+00 -1.094723e+01
    endloop
  endfacet
  facet normal -9.122275e-02 -2.885343e-01 9.531140e-01
    outer loop
      vertex   9.585941e-01 2.952591e+00 -1.094723e+01
      vertex   9.921070e-01 2.941995e+00 -1.094723e+01
      vertex   1.000000e+00 3.000000e+00 -1.092891e+01
    endloop
  endfacet
  facet normal -8.987438e-02 -2.896327e-01 9.529090e-01
    outer loop
      vertex   9.585941e-01 2.952591e+00 -1.094723e+01
      vertex   1.000000e+00 3.000000e+00 -1.092891e+01
      vertex   9.376848e-01 3.000000e+00 -1.093479e+01
    endloop
  endfacet
  facet normal -9.112528e-02 -2.707177e-01 9.583361e-01
    outer loop
      vertex   1.000000e+00 2.756904e+00 -1.100000e+01
      vertex   1.000000e+00 2.817841e+00 -1.098279e+01
      vertex   9.874825e-01 2.822113e+00 -1.098277e+01
    endloop
  endfacet
  facet normal -9.311241e-02 -2.765337e-01 9.564827e-01
    outer loop
      vertex   9.874825e-01 2.822113e+00 -1.098277e+01
      vertex   1.000000e+00 2.817841e+00 -1.098279e+01
      vertex   1.000000e+00 2.878671e+00 -1.096520e+01
    endloop
  endfacet
  facet normal -9.092870e-02 -2.770370e-01 9.565472e-01
    outer loop
      vertex   9.874825e-01 2.822113e+00 -1.098277e+01
      vertex   1.000000e+00 2.878671e+00 -1.096520e+01
      vertex   9.552477e-01 2.832693e+00 -1.098277e+01
    endloop
  endfacet
  facet normal -9.066582e-02 -2.772760e-01 9.565029e-01
    outer loop
      vertex   9.552477e-01 2.832693e+00 -1.098277e+01
      vertex   1.000000e+00 2.878671e+00 -1.096520e+01
      vertex   9.736792e-01 2.887350e+00 -1.096518e+01
    endloop
  endfacet
  facet normal -9.235877e-02 -2.824061e-01 9.548385e-01
    outer loop
      vertex   1.000000e+00 2.878671e+00 -1.096520e+01
      vertex   1.000000e+00 2.939391e+00 -1.094724e+01
      vertex   9.736792e-01 2.887350e+00 -1.096518e+01
    endloop
  endfacet
  facet normal -9.150225e-02 -2.828250e-01 9.547970e-01
    outer loop
      vertex   9.736792e-01 2.887350e+00 -1.096518e+01
      vertex   1.000000e+00 2.939391e+00 -1.094724e+01
      vertex   9.921070e-01 2.941995e+00 -1.094723e+01
    endloop
  endfacet
  facet normal -9.328610e-02 -2.882204e-01 9.530093e-01
    outer loop
      vertex   1.000000e+00 2.939391e+00 -1.094724e+01
      vertex   1.000000e+00 3.000000e+00 -1.092891e+01
      vertex   9.921070e-01 2.941995e+00 -1.094723e+01
    endloop
  endfacet
  facet normal -8.125585e-02 -2.895008e-01 9.537226e-01
    outer loop
      vertex   8.914930e-01 2.972607e+00 -1.094723e+01
      vertex   8.753344e-01 3.000000e+00 -1.094029e+01
      vertex   8.579182e-01 2.982031e+00 -1.094723e+01
    endloop
  endfacet
  facet normal -7.824787e-02 -2.921959e-01 9.531520e-01
    outer loop
      vertex   8.579182e-01 2.982031e+00 -1.094723e+01
      vertex   8.753344e-01 3.000000e+00 -1.094029e+01
      vertex   8.129504e-01 3.000000e+00 -1.094541e+01
    endloop
  endfacet
  facet normal -7.253489e-02 -2.891936e-01 9.545186e-01
    outer loop
      vertex   8.129504e-01 3.000000e+00 -1.094541e+01
      vertex   7.505344e-01 3.000000e+00 -1.095015e+01
      vertex   7.760653e-01 2.943999e+00 -1.096518e+01
    endloop
  endfacet
  facet normal -3.355456e-02 -2.893006e-01 9.566500e-01
    outer loop
      vertex   3.754771e-01 2.959937e+00 -1.098277e+01
      vertex   3.754828e-01 3.000000e+00 -1.097065e+01
      vertex   3.436684e-01 2.963626e+00 -1.098277e+01
    endloop
  endfacet
  facet normal -3.192716e-02 -2.906103e-01 9.563087e-01
    outer loop
      vertex   3.436684e-01 2.963626e+00 -1.098277e+01
      vertex   3.754828e-01 3.000000e+00 -1.097065e+01
      vertex   3.129174e-01 3.000000e+00 -1.097274e+01
    endloop
  endfacet
  facet normal -3.058228e-02 -2.895723e-01 9.566675e-01
    outer loop
      vertex   3.436684e-01 2.963626e+00 -1.098277e+01
      vertex   3.129174e-01 3.000000e+00 -1.097274e+01
      vertex   3.119384e-01 2.966977e+00 -1.098277e+01
    endloop
  endfacet
  facet normal -2.612820e-02 -2.897299e-01 9.567517e-01
    outer loop
      vertex   3.119384e-01 2.966977e+00 -1.098277e+01
      vertex   3.129174e-01 3.000000e+00 -1.097274e+01
      vertex   2.487338e-01 2.972677e+00 -1.098277e+01
    endloop
  endfacet
  facet normal -2.613099e-02 -2.897240e-01 9.567535e-01
    outer loop
      vertex   3.129174e-01 3.000000e+00 -1.097274e+01
      vertex   2.503439e-01 3.000000e+00 -1.097445e+01
      vertex   2.487338e-01 2.972677e+00 -1.098277e+01
    endloop
  endfacet
  facet normal -2.032273e-02 -2.900766e-01 9.567876e-01
    outer loop
      vertex   2.487338e-01 2.972677e+00 -1.098277e+01
      vertex   2.503439e-01 3.000000e+00 -1.097445e+01
      vertex   1.877637e-01 3.000000e+00 -1.097578e+01
    endloop
  endfacet
  facet normal -2.023140e-02 -2.898879e-01 9.568467e-01
    outer loop
      vertex   2.487338e-01 2.972677e+00 -1.098277e+01
      vertex   1.877637e-01 3.000000e+00 -1.097578e+01
      vertex   1.859018e-01 2.977062e+00 -1.098277e+01
    endloop
  endfacet
  facet normal -1.451550e-02 -2.903416e-01 9.568130e-01
    outer loop
      vertex   1.859018e-01 2.977062e+00 -1.098277e+01
      vertex   1.877637e-01 3.000000e+00 -1.097578e+01
      vertex   1.251786e-01 3.000000e+00 -1.097673e+01
    endloop
  endfacet
  facet normal -1.439026e-02 -2.900350e-01 9.569078e-01
    outer loop
      vertex   1.859018e-01 2.977062e+00 -1.098277e+01
      vertex   1.251786e-01 3.000000e+00 -1.097673e+01
      vertex   1.234791e-01 2.980159e+00 -1.098277e+01
    endloop
  endfacet
  facet normal -8.709059e-03 -2.904996e-01 9.568355e-01
    outer loop
      vertex   1.234791e-01 2.980159e+00 -1.098277e+01
      vertex   1.251786e-01 3.000000e+00 -1.097673e+01
      vertex   6.259014e-02 3.000000e+00 -1.097730e+01
    endloop
  endfacet
  facet normal -8.601625e-03 -2.901956e-01 9.569287e-01
    outer loop
      vertex   1.234791e-01 2.980159e+00 -1.098277e+01
      vertex   6.259014e-02 3.000000e+00 -1.097730e+01
      vertex   6.150078e-02 2.981996e+00 -1.098277e+01
    endloop
  endfacet
  facet normal -2.903033e-03 -2.905209e-01 9.568643e-01
    outer loop
      vertex   6.150078e-02 2.981996e+00 -1.098277e+01
      vertex   6.259014e-02 3.000000e+00 -1.097730e+01
      vertex   0.000000e+00 3.000000e+00 -1.097749e+01
    endloop
  endfacet
  facet normal -4.864295e-02 -2.880746e-01 9.563717e-01
    outer loop
      vertex   5.131085e-01 2.998498e+00 -1.096518e+01
      vertex   5.033955e-01 2.941738e+00 -1.098277e+01
      vertex   5.458522e-01 2.992969e+00 -1.096518e+01
    endloop
  endfacet
  facet normal -4.864295e-02 -2.880746e-01 9.563717e-01
    outer loop
      vertex   5.458522e-01 2.992969e+00 -1.096518e+01
      vertex   5.033955e-01 2.941738e+00 -1.098277e+01
      vertex   5.355194e-01 2.936313e+00 -1.098277e+01
    endloop
  endfacet
  facet normal -5.466854e-02 -2.869458e-01 9.563856e-01
    outer loop
      vertex   5.786437e-01 2.987079e+00 -1.096518e+01
      vertex   5.676901e-01 2.930534e+00 -1.098277e+01
      vertex   6.114770e-01 2.980823e+00 -1.096518e+01
    endloop
  endfacet
  facet normal -5.466854e-02 -2.869458e-01 9.563856e-01
    outer loop
      vertex   6.114770e-01 2.980823e+00 -1.096518e+01
      vertex   5.676901e-01 2.930534e+00 -1.098277e+01
      vertex   5.999019e-01 2.924397e+00 -1.098277e+01
    endloop
  endfacet
  facet normal -6.070876e-02 -2.856768e-01 9.564012e-01
    outer loop
      vertex   6.443465e-01 2.974201e+00 -1.096518e+01
      vertex   6.321492e-01 2.917900e+00 -1.098277e+01
      vertex   6.772461e-01 2.967209e+00 -1.096518e+01
    endloop
  endfacet
  facet normal -6.070876e-02 -2.856768e-01 9.564012e-01
    outer loop
      vertex   6.772461e-01 2.967209e+00 -1.096518e+01
      vertex   6.321492e-01 2.917900e+00 -1.098277e+01
      vertex   6.644260e-01 2.911041e+00 -1.098277e+01
    endloop
  endfacet
  facet normal -6.675925e-02 -2.842658e-01 9.564184e-01
    outer loop
      vertex   7.101699e-01 2.959847e+00 -1.096518e+01
      vertex   6.967265e-01 2.903817e+00 -1.098277e+01
      vertex   7.431117e-01 2.952110e+00 -1.096518e+01
    endloop
  endfacet
  facet normal -6.675925e-02 -2.842658e-01 9.564184e-01
    outer loop
      vertex   7.431117e-01 2.952110e+00 -1.096518e+01
      vertex   6.967265e-01 2.903817e+00 -1.098277e+01
      vertex   7.290447e-01 2.896228e+00 -1.098277e+01
    endloop
  endfacet
  facet normal -7.281558e-02 -2.827112e-01 9.564373e-01
    outer loop
      vertex   7.937098e-01 2.879941e+00 -1.098277e+01
      vertex   8.090245e-01 2.935510e+00 -1.096518e+01
      vertex   7.613746e-01 2.888269e+00 -1.098277e+01
    endloop
  endfacet
  facet normal -7.887315e-02 -2.810117e-01 9.564578e-01
    outer loop
      vertex   8.419829e-01 2.926642e+00 -1.096518e+01
      vertex   8.260444e-01 2.871241e+00 -1.098277e+01
      vertex   8.749341e-01 2.917393e+00 -1.096518e+01
    endloop
  endfacet
  facet normal -7.887315e-02 -2.810117e-01 9.564578e-01
    outer loop
      vertex   8.749341e-01 2.917393e+00 -1.096518e+01
      vertex   8.260444e-01 2.871241e+00 -1.098277e+01
      vertex   8.583718e-01 2.862167e+00 -1.098277e+01
    endloop
  endfacet
  facet normal -8.036721e-02 -2.863347e-01 9.547531e-01
    outer loop
      vertex   8.579182e-01 2.982031e+00 -1.094723e+01
      vertex   8.419829e-01 2.926642e+00 -1.096518e+01
      vertex   8.914930e-01 2.972607e+00 -1.094723e+01
    endloop
  endfacet
  facet normal -8.036721e-02 -2.863347e-01 9.547531e-01
    outer loop
      vertex   8.914930e-01 2.972607e+00 -1.094723e+01
      vertex   8.419829e-01 2.926642e+00 -1.096518e+01
      vertex   8.749341e-01 2.917393e+00 -1.096518e+01
    endloop
  endfacet
  facet normal -8.787705e-02 -2.888620e-01 9.533291e-01
    outer loop
      vertex   9.585941e-01 2.952591e+00 -1.094723e+01
      vertex   9.376848e-01 3.000000e+00 -1.093479e+01
      vertex   9.250539e-01 2.962794e+00 -1.094723e+01
    endloop
  endfacet
  facet normal -8.492729e-02 -2.791658e-01 9.564799e-01
    outer loop
      vertex   9.078716e-01 2.907762e+00 -1.096518e+01
      vertex   8.906858e-01 2.852719e+00 -1.098277e+01
      vertex   9.407889e-01 2.897748e+00 -1.096518e+01
    endloop
  endfacet
  facet normal -8.492729e-02 -2.791658e-01 9.564799e-01
    outer loop
      vertex   9.407889e-01 2.897748e+00 -1.096518e+01
      vertex   8.906858e-01 2.852719e+00 -1.098277e+01
      vertex   9.229799e-01 2.842895e+00 -1.098277e+01
    endloop
  endfacet
  facet normal -8.653610e-02 -2.844541e-01 9.547761e-01
    outer loop
      vertex   9.250539e-01 2.962794e+00 -1.094723e+01
      vertex   9.078716e-01 2.907762e+00 -1.096518e+01
      vertex   9.585941e-01 2.952591e+00 -1.094723e+01
    endloop
  endfacet
  facet normal -8.653610e-02 -2.844541e-01 9.547761e-01
    outer loop
      vertex   9.585941e-01 2.952591e+00 -1.094723e+01
      vertex   9.078716e-01 2.907762e+00 -1.096518e+01
      vertex   9.407889e-01 2.897748e+00 -1.096518e+01
    endloop
  endfacet
  facet normal 1.000000e+00 0.000000e+00 0.000000e+00
    outer loop
      vertex   1.000000e+00 3.000000e+00 -1.092891e+01
      vertex   1.000000e+00 2.939391e+00 -1.094724e+01
      vertex   1.000000e+00 3.000000e+00 -1.100000e+01
    endloop
  endfacet
  facet normal 1.000000e+00 0.000000e+00 0.000000e+00
    outer loop
      vertex   1.000000e+00 3.000000e+00 -1.100000e+01
      vertex   1.000000e+00 2.939391e+00 -1.094724e+01
      vertex   1.000000e+00 2.878671e+00 -1.096520e+01
    endloop
  endfacet
  facet normal 1.000000e+00 0.000000e+00 0.000000e+00
    outer loop
      vertex   1.000000e+00 3.000000e+00 -1.100000e+01
      vertex   1.000000e+00 2.878671e+00 -1.096520e+01
      vertex   1.000000e+00 2.817841e+00 -1.098279e+01
    endloop
  endfacet
  facet normal 1.000000e+00 0.000000e+00 0.000000e+00
    outer loop
      vertex   1.000000e+00 2.817841e+00 -1.098279e+01
      vertex   1.000000e+00 2.756904e+00 -1.100000e+01
      vertex   1.000000e+00 3.000000e+00 -1.100000e+01
    endloop
  endfacet
  facet normal 0.000000e+00 0.000000e+00 -1.000000e+00
    outer loop
      vertex   1.000000e+00 2.756904e+00 -1.100000e+01
      vertex   9.397099e-01 2.777093e+00 -1.100000e+01
      vertex   1.000000e+00 3.000000e+00 -1.100000e+01
    endloop
  endfacet
  facet normal 0.000000e+00 0.000000e+00 -1.000000e+00
    outer loop
      vertex   1.000000e+00 3.000000e+00 -1.100000e+01
      vertex   9.397099e-01 2.777093e+00 -1.100000e+01
      vertex   8.790025e-01 2.796019e+00 -1.100000e+01
    endloop
  endfacet
  facet normal 0.000000e+00 0.000000e+00 -1.000000e+00
    outer loop
      vertex   1.000000e+00 3.000000e+00 -1.100000e+01
      vertex   8.790025e-01 2.796019e+00 -1.100000e+01
      vertex   8.178986e-01 2.813678e+00 -1.100000e+01
    endloop
  endfacet
  facet normal 0.000000e+00 0.000000e+00 -1.000000e+00
    outer loop
      vertex   8.178986e-01 2.813678e+00 -1.100000e+01
      vertex   7.564190e-01 2.830062e+00 -1.100000e+01
      vertex   1.000000e+00 3.000000e+00 -1.100000e+01
    endloop
  endfacet
  facet normal 0.000000e+00 0.000000e+00 -1.000000e+00
    outer loop
      vertex   1.000000e+00 3.000000e+00 -1.100000e+01
      vertex   7.564190e-01 2.830062e+00 -1.100000e+01
      vertex   6.945846e-01 2.845166e+00 -1.100000e+01
    endloop
  endfacet
  facet normal 0.000000e+00 0.000000e+00 -1.000000e+00
    outer loop
      vertex   1.000000e+00 3.000000e+00 -1.100000e+01
      vertex   6.945846e-01 2.845166e+00 -1.100000e+01
      vertex   6.324164e-01 2.858983e+00 -1.100000e+01
    endloop
  endfacet
  facet normal 0.000000e+00 0.000000e+00 -1.000000e+00
    outer loop
      vertex   6.324164e-01 2.858983e+00 -1.100000e+01
      vertex   5.699350e-01 2.871507e+00 -1.100000e+01
      vertex   1.000000e+00 3.000000e+00 -1.100000e+01
    endloop
  endfacet
  facet normal 0.000000e+00 0.000000e+00 -1.000000e+00
    outer loop
      vertex   1.000000e+00 3.000000e+00 -1.100000e+01
      vertex   5.699350e-01 2.871507e+00 -1.100000e+01
      vertex   5.071614e-01 2.882733e+00 -1.100000e+01
    endloop
  endfacet
  facet normal 0.000000e+00 0.000000e+00 -1.000000e+00
    outer loop
      vertex   1.000000e+00 3.000000e+00 -1.100000e+01
      vertex   5.071614e-01 2.882733e+00 -1.100000e+01
      vertex   4.441467e-01 2.892649e+00 -1.100000e+01
    endloop
  endfacet
  facet normal 0.000000e+00 0.000000e+00 -1.000000e+00
    outer loop
      vertex   4.441467e-01 2.892649e+00 -1.100000e+01
      vertex   3.809781e-01 2.901244e+00 -1.100000e+01
      vertex   1.000000e+00 3.000000e+00 -1.100000e+01
    endloop
  endfacet
  facet normal 0.000000e+00 0.000000e+00 -1.000000e+00
    outer loop
      vertex   1.000000e+00 3.000000e+00 -1.100000e+01
      vertex   3.809781e-01 2.901244e+00 -1.100000e+01
      vertex   3.176797e-01 2.908516e+00 -1.100000e+01
    endloop
  endfacet
  facet normal -0.000000e+00 0.000000e+00 -1.000000e+00
    outer loop
      vertex   1.000000e+00 3.000000e+00 -1.100000e+01
      vertex   3.176797e-01 2.908516e+00 -1.100000e+01
      vertex   0.000000e+00 3.000000e+00 -1.100000e+01
    endloop
  endfacet
  facet normal 0.000000e+00 0.000000e+00 -1.000000e+00
    outer loop
      vertex   0.000000e+00 3.000000e+00 -1.100000e+01
      vertex   3.176797e-01 2.908516e+00 -1.100000e+01
      vertex   2.542732e-01 2.914466e+00 -1.100000e+01
    endloop
  endfacet
  facet normal 0.000000e+00 0.000000e+00 -1.000000e+00
    outer loop
      vertex   0.000000e+00 3.000000e+00 -1.100000e+01
      vertex   2.542732e-01 2.914466e+00 -1.100000e+01
      vertex   1.907804e-01 2.919094e+00 -1.100000e+01
    endloop
  endfacet
  facet normal 0.000000e+00 0.000000e+00 -1.000000e+00
    outer loop
      vertex   1.907804e-01 2.919094e+00 -1.100000e+01
      vertex   1.272227e-01 2.922399e+00 -1.100000e+01
      vertex   0.000000e+00 3.000000e+00 -1.100000e+01
    endloop
  endfacet
  facet normal 0.000000e+00 0.000000e+00 -1.000000e+00
    outer loop
      vertex   0.000000e+00 3.000000e+00 -1.100000e+01
      vertex   1.272227e-01 2.922399e+00 -1.100000e+01
      vertex   6.362206e-02 2.924383e+00 -1.100000e+01
    endloop
  endfacet
  facet normal 0.000000e+00 0.000000e+00 -1.000000e+00
    outer loop
      vertex   0.000000e+00 3.000000e+00 -1.100000e+01
      vertex   6.362206e-02 2.924383e+00 -1.100000e+01
      vertex   0.000000e+00 2.925044e+00 -1.100000e+01
    endloop
  endfacet
  facet normal -1.000000e+00 0.000000e+00 0.000000e+00
    outer loop
      vertex   0.000000e+00 2.925044e+00 -1.100000e+01
      vertex   0.000000e+00 3.000000e+00 -1.097749e+01
      vertex   0.000000e+00 3.000000e+00 -1.100000e+01
    endloop
  endfacet
  facet normal -0.000000e+00 1.000000e+00 0.000000e+00
    outer loop
      vertex   0.000000e+00 3.000000e+00 -1.097749e+01
      vertex   6.259014e-02 3.000000e+00 -1.097730e+01
      vertex   0.000000e+00 3.000000e+00 -1.100000e+01
    endloop
  endfacet
  facet normal -7.278041e-15 1.000000e+00 2.006758e-14
    outer loop
      vertex   0.000000e+00 3.000000e+00 -1.100000e+01
      vertex   6.259014e-02 3.000000e+00 -1.097730e+01
      vertex   1.251786e-01 3.000000e+00 -1.097673e+01
    endloop
  endfacet
  facet normal 2.349419e-14 1.000000e+00 -1.454709e-13
    outer loop
      vertex   0.000000e+00 3.000000e+00 -1.100000e+01
      vertex   1.251786e-01 3.000000e+00 -1.097673e+01
      vertex   1.877637e-01 3.000000e+00 -1.097578e+01
    endloop
  endfacet
  facet normal -9.325059e-16 1.000000e+00 4.390207e-14
    outer loop
      vertex   1.877637e-01 3.000000e+00 -1.097578e+01
      vertex   2.503439e-01 3.000000e+00 -1.097445e+01
      vertex   0.000000e+00 3.000000e+00 -1.100000e+01
    endloop
  endfacet
  facet normal -3.036801e-14 1.000000e+00 3.323355e-13
    outer loop
      vertex   0.000000e+00 3.000000e+00 -1.100000e+01
      vertex   2.503439e-01 3.000000e+00 -1.097445e+01
      vertex   3.129174e-01 3.000000e+00 -1.097274e+01
    endloop
  endfacet
  facet normal 0.000000e+00 1.000000e+00 -1.629245e-14
    outer loop
      vertex   0.000000e+00 3.000000e+00 -1.100000e+01
      vertex   3.129174e-01 3.000000e+00 -1.097274e+01
      vertex   1.000000e+00 3.000000e+00 -1.100000e+01
    endloop
  endfacet
  facet normal -3.558967e-15 1.000000e+00 -1.060041e-13
    outer loop
      vertex   1.000000e+00 3.000000e+00 -1.100000e+01
      vertex   3.129174e-01 3.000000e+00 -1.097274e+01
      vertex   3.754828e-01 3.000000e+00 -1.097065e+01
    endloop
  endfacet
  facet normal -7.068121e-15 1.000000e+00 -1.806826e-13
    outer loop
      vertex   1.000000e+00 3.000000e+00 -1.100000e+01
      vertex   3.754828e-01 3.000000e+00 -1.097065e+01
      vertex   4.380384e-01 3.000000e+00 -1.096819e+01
    endloop
  endfacet
  facet normal 1.409191e-15 1.000000e+00 -3.094306e-14
    outer loop
      vertex   4.380384e-01 3.000000e+00 -1.096819e+01
      vertex   5.005825e-01 3.000000e+00 -1.096534e+01
      vertex   1.000000e+00 3.000000e+00 -1.100000e+01
    endloop
  endfacet
  facet normal 1.517128e-15 1.000000e+00 -2.938794e-14
    outer loop
      vertex   1.000000e+00 3.000000e+00 -1.100000e+01
      vertex   5.005825e-01 3.000000e+00 -1.096534e+01
      vertex   5.631102e-01 3.000000e+00 -1.096211e+01
    endloop
  endfacet
  facet normal 1.624523e-15 1.000000e+00 -2.814965e-14
    outer loop
      vertex   1.000000e+00 3.000000e+00 -1.100000e+01
      vertex   5.631102e-01 3.000000e+00 -1.096211e+01
      vertex   6.256126e-01 3.000000e+00 -1.095850e+01
    endloop
  endfacet
  facet normal 1.075628e-14 1.000000e+00 5.423529e-14
    outer loop
      vertex   6.256126e-01 3.000000e+00 -1.095850e+01
      vertex   6.880879e-01 3.000000e+00 -1.095452e+01
      vertex   1.000000e+00 3.000000e+00 -1.100000e+01
    endloop
  endfacet
  facet normal 5.729963e-15 1.000000e+00 1.976667e-14
    outer loop
      vertex   1.000000e+00 3.000000e+00 -1.100000e+01
      vertex   6.880879e-01 3.000000e+00 -1.095452e+01
      vertex   7.505344e-01 3.000000e+00 -1.095015e+01
    endloop
  endfacet
  facet normal 4.904653e-16 1.000000e+00 -6.454249e-15
    outer loop
      vertex   1.000000e+00 3.000000e+00 -1.100000e+01
      vertex   7.505344e-01 3.000000e+00 -1.095015e+01
      vertex   8.129504e-01 3.000000e+00 -1.094541e+01
    endloop
  endfacet
  facet normal -5.034665e-15 1.000000e+00 -2.538524e-14
    outer loop
      vertex   8.129504e-01 3.000000e+00 -1.094541e+01
      vertex   8.753344e-01 3.000000e+00 -1.094029e+01
      vertex   1.000000e+00 3.000000e+00 -1.100000e+01
    endloop
  endfacet
  facet normal 7.122789e-15 1.000000e+00 -3.550150e-18
    outer loop
      vertex   1.000000e+00 3.000000e+00 -1.100000e+01
      vertex   8.753344e-01 3.000000e+00 -1.094029e+01
      vertex   9.376848e-01 3.000000e+00 -1.093479e+01
    endloop
  endfacet
  facet normal 7.126504e-15 1.000000e+00 -0.000000e+00
    outer loop
      vertex   1.000000e+00 3.000000e+00 -1.100000e+01
      vertex   9.376848e-01 3.000000e+00 -1.093479e+01
      vertex   1.000000e+00 3.000000e+00 -1.092891e+01
    endloop
  endfacet
endsolid
