solid ASCII
  facet normal -7.197445e-01 4.724108e-01 -5.087199e-01
    outer loop
      vertex   7.958104e+00 -5.000000e+00 5.940109e+00
      vertex   7.915773e+00 -5.000000e+00 6.000000e+00
      vertex   7.967047e+00 -4.986442e+00 5.940047e+00
    endloop
  endfacet
  facet normal -7.199717e-01 4.716756e-01 -5.090804e-01
    outer loop
      vertex   7.967047e+00 -4.986442e+00 5.940047e+00
      vertex   7.915773e+00 -5.000000e+00 6.000000e+00
      vertex   7.958161e+00 -4.935299e+00 6.000000e+00
    endloop
  endfacet
  facet normal -7.206802e-01 4.710530e-01 -5.086542e-01
    outer loop
      vertex   7.967047e+00 -4.986442e+00 5.940047e+00
      vertex   7.958161e+00 -4.935299e+00 6.000000e+00
      vertex   7.977671e+00 -4.970188e+00 5.940047e+00
    endloop
  endfacet
  facet normal -7.218760e-01 4.696691e-01 -5.082381e-01
    outer loop
      vertex   7.977671e+00 -4.970188e+00 5.940047e+00
      vertex   7.958161e+00 -4.935299e+00 6.000000e+00
      vertex   7.988251e+00 -4.953926e+00 5.940047e+00
    endloop
  endfacet
  facet normal -7.245630e-01 4.714173e-01 -5.027665e-01
    outer loop
      vertex   7.977671e+00 -4.970188e+00 5.940047e+00
      vertex   7.988251e+00 -4.953926e+00 5.940047e+00
      vertex   8.000000e+00 -5.000000e+00 5.879914e+00
    endloop
  endfacet
  facet normal -7.260431e-01 4.699928e-01 -5.019643e-01
    outer loop
      vertex   8.000000e+00 -5.000000e+00 5.879914e+00
      vertex   7.988251e+00 -4.953926e+00 5.940047e+00
      vertex   8.000000e+00 -4.935470e+00 5.940334e+00
    endloop
  endfacet
  facet normal -7.228920e-01 4.680846e-01 -5.082557e-01
    outer loop
      vertex   8.000000e+00 -4.935470e+00 5.940334e+00
      vertex   7.988251e+00 -4.953926e+00 5.940047e+00
      vertex   7.958161e+00 -4.935299e+00 6.000000e+00
    endloop
  endfacet
  facet normal -7.239593e-01 4.656233e-01 -5.089970e-01
    outer loop
      vertex   8.000000e+00 -4.935470e+00 5.940334e+00
      vertex   7.958161e+00 -4.935299e+00 6.000000e+00
      vertex   8.000000e+00 -4.870246e+00 6.000000e+00
    endloop
  endfacet
  facet normal -7.234285e-01 4.728494e-01 -5.030553e-01
    outer loop
      vertex   7.977671e+00 -4.970188e+00 5.940047e+00
      vertex   8.000000e+00 -5.000000e+00 5.879914e+00
      vertex   7.967047e+00 -4.986442e+00 5.940047e+00
    endloop
  endfacet
  facet normal -7.225740e-01 4.743033e-01 -5.029148e-01
    outer loop
      vertex   7.967047e+00 -4.986442e+00 5.940047e+00
      vertex   8.000000e+00 -5.000000e+00 5.879914e+00
      vertex   7.958104e+00 -5.000000e+00 5.940109e+00
    endloop
  endfacet
  facet normal 1.000000e+00 0.000000e+00 0.000000e+00
    outer loop
      vertex   8.000000e+00 -5.000000e+00 5.879914e+00
      vertex   8.000000e+00 -4.935470e+00 5.940334e+00
      vertex   8.000000e+00 -5.000000e+00 6.000000e+00
    endloop
  endfacet
  facet normal 1.000000e+00 -0.000000e+00 0.000000e+00
    outer loop
      vertex   8.000000e+00 -5.000000e+00 6.000000e+00
      vertex   8.000000e+00 -4.935470e+00 5.940334e+00
      vertex   8.000000e+00 -4.870246e+00 6.000000e+00
    endloop
  endfacet
  facet normal 0.000000e+00 0.000000e+00 1.000000e+00
    outer loop
      vertex   8.000000e+00 -4.870246e+00 6.000000e+00
      vertex   7.958161e+00 -4.935299e+00 6.000000e+00
      vertex   8.000000e+00 -5.000000e+00 6.000000e+00
    endloop
  endfacet
  facet normal 0.000000e+00 0.000000e+00 1.000000e+00
    outer loop
      vertex   8.000000e+00 -5.000000e+00 6.000000e+00
      vertex   7.958161e+00 -4.935299e+00 6.000000e+00
      vertex   7.915773e+00 -5.000000e+00 6.000000e+00
    endloop
  endfacet
  facet normal 0.000000e+00 -1.000000e+00 0.000000e+00
    outer loop
      vertex   7.915773e+00 -5.000000e+00 6.000000e+00
      vertex   7.958104e+00 -5.000000e+00 5.940109e+00
      vertex   8.000000e+00 -5.000000e+00 6.000000e+00
    endloop
  endfacet
  facet normal 0.000000e+00 -1.000000e+00 -0.000000e+00
    outer loop
      vertex   8.000000e+00 -5.000000e+00 6.000000e+00
      vertex   7.958104e+00 -5.000000e+00 5.940109e+00
      vertex   8.000000e+00 -5.000000e+00 5.879914e+00
    endloop
  endfacet
endsolid
