solid ASCII
  facet normal 3.140972e-01 -3.797959e-01 -8.701138e-01
    outer loop
      vertex   -3.342382e+00 4.000000e+00 1.004087e+01
      vertex   -3.455594e+00 4.000000e+00 1.000000e+01
      vertex   -3.378309e+00 4.018310e+00 1.001991e+01
    endloop
  endfacet
  facet normal 3.148781e-01 -3.867237e-01 -8.667736e-01
    outer loop
      vertex   -3.378309e+00 4.018310e+00 1.001991e+01
      vertex   -3.455594e+00 4.000000e+00 1.000000e+01
      vertex   -3.400641e+00 4.044744e+00 1.000000e+01
    endloop
  endfacet
  facet normal 3.097881e-01 -3.909704e-01 -8.667027e-01
    outer loop
      vertex   -3.378309e+00 4.018310e+00 1.001991e+01
      vertex   -3.400641e+00 4.044744e+00 1.000000e+01
      vertex   -3.345101e+00 4.088751e+00 1.000000e+01
    endloop
  endfacet
  facet normal 3.097751e-01 -3.909661e-01 -8.667092e-01
    outer loop
      vertex   -3.378309e+00 4.018310e+00 1.001991e+01
      vertex   -3.345101e+00 4.088751e+00 1.000000e+01
      vertex   -3.323136e+00 4.062025e+00 1.001991e+01
    endloop
  endfacet
  facet normal 3.046378e-01 -3.951361e-01 -8.666391e-01
    outer loop
      vertex   -3.323136e+00 4.062025e+00 1.001991e+01
      vertex   -3.345101e+00 4.088751e+00 1.000000e+01
      vertex   -3.288984e+00 4.132016e+00 1.000000e+01
    endloop
  endfacet
  facet normal 3.046258e-01 -3.951320e-01 -8.666451e-01
    outer loop
      vertex   -3.323136e+00 4.062025e+00 1.001991e+01
      vertex   -3.288984e+00 4.132016e+00 1.000000e+01
      vertex   -3.267391e+00 4.105002e+00 1.001991e+01
    endloop
  endfacet
  facet normal 2.994355e-01 -3.992298e-01 -8.665760e-01
    outer loop
      vertex   -3.267391e+00 4.105002e+00 1.001991e+01
      vertex   -3.288984e+00 4.132016e+00 1.000000e+01
      vertex   -3.232296e+00 4.174534e+00 1.000000e+01
    endloop
  endfacet
  facet normal 2.994250e-01 -3.992260e-01 -8.665814e-01
    outer loop
      vertex   -3.267391e+00 4.105002e+00 1.001991e+01
      vertex   -3.232296e+00 4.174534e+00 1.000000e+01
      vertex   -3.211081e+00 4.147235e+00 1.001991e+01
    endloop
  endfacet
  facet normal 2.941822e-01 -4.032508e-01 -8.665135e-01
    outer loop
      vertex   -3.211081e+00 4.147235e+00 1.001991e+01
      vertex   -3.232296e+00 4.174534e+00 1.000000e+01
      vertex   -3.175045e+00 4.216300e+00 1.000000e+01
    endloop
  endfacet
  facet normal 2.941732e-01 -4.032475e-01 -8.665181e-01
    outer loop
      vertex   -3.211081e+00 4.147235e+00 1.001991e+01
      vertex   -3.175045e+00 4.216300e+00 1.000000e+01
      vertex   -3.154214e+00 4.188720e+00 1.001991e+01
    endloop
  endfacet
  facet normal 2.888783e-01 -4.071988e-01 -8.664516e-01
    outer loop
      vertex   -3.154214e+00 4.188720e+00 1.001991e+01
      vertex   -3.175045e+00 4.216300e+00 1.000000e+01
      vertex   -3.117240e+00 4.257308e+00 1.000000e+01
    endloop
  endfacet
  facet normal 2.888697e-01 -4.071955e-01 -8.664561e-01
    outer loop
      vertex   -3.154214e+00 4.188720e+00 1.001991e+01
      vertex   -3.117240e+00 4.257308e+00 1.000000e+01
      vertex   -3.096781e+00 4.229464e+00 1.001991e+01
    endloop
  endfacet
  facet normal 2.835257e-01 -4.110746e-01 -8.663895e-01
    outer loop
      vertex   -3.096781e+00 4.229464e+00 1.001991e+01
      vertex   -3.117240e+00 4.257308e+00 1.000000e+01
      vertex   -3.058889e+00 4.297554e+00 1.000000e+01
    endloop
  endfacet
  facet normal 2.835156e-01 -4.110705e-01 -8.663948e-01
    outer loop
      vertex   -3.096781e+00 4.229464e+00 1.001991e+01
      vertex   -3.058889e+00 4.297554e+00 1.000000e+01
      vertex   -3.038802e+00 4.269452e+00 1.001991e+01
    endloop
  endfacet
  facet normal 2.781244e-01 -4.148769e-01 -8.663279e-01
    outer loop
      vertex   -3.038802e+00 4.269452e+00 1.001991e+01
      vertex   -3.058889e+00 4.297554e+00 1.000000e+01
      vertex   -3.000000e+00 4.337032e+00 1.000000e+01
    endloop
  endfacet
  facet normal 2.763195e-01 -4.141176e-01 -8.672682e-01
    outer loop
      vertex   -3.038802e+00 4.269452e+00 1.001991e+01
      vertex   -3.000000e+00 4.337032e+00 1.000000e+01
      vertex   -3.000000e+00 4.253316e+00 1.003997e+01
    endloop
  endfacet
  facet normal 2.781147e-01 -4.109565e-01 -8.681975e-01
    outer loop
      vertex   -3.038802e+00 4.269452e+00 1.001991e+01
      vertex   -3.000000e+00 4.253316e+00 1.003997e+01
      vertex   -3.018685e+00 4.241309e+00 1.003967e+01
    endloop
  endfacet
  facet normal 2.751828e-01 -4.063156e-01 -8.713105e-01
    outer loop
      vertex   -3.018685e+00 4.241309e+00 1.003967e+01
      vertex   -3.000000e+00 4.253316e+00 1.003997e+01
      vertex   -3.000000e+00 4.169236e+00 1.007918e+01
    endloop
  endfacet
  facet normal 2.784039e-01 -4.052034e-01 -8.708051e-01
    outer loop
      vertex   -3.018685e+00 4.241309e+00 1.003967e+01
      vertex   -3.000000e+00 4.169236e+00 1.007918e+01
      vertex   -3.055775e+00 4.173652e+00 1.005930e+01
    endloop
  endfacet
  facet normal 2.790125e-01 -4.024296e-01 -8.718959e-01
    outer loop
      vertex   -3.055775e+00 4.173652e+00 1.005930e+01
      vertex   -3.000000e+00 4.169236e+00 1.007918e+01
      vertex   -3.035229e+00 4.145686e+00 1.007878e+01
    endloop
  endfacet
  facet normal 2.832740e-01 -3.993333e-01 -8.719454e-01
    outer loop
      vertex   -3.055775e+00 4.173652e+00 1.005930e+01
      vertex   -3.035229e+00 4.145686e+00 1.007878e+01
      vertex   -3.091543e+00 4.105739e+00 1.007878e+01
    endloop
  endfacet
  facet normal 2.814102e-01 -3.967060e-01 -8.737463e-01
    outer loop
      vertex   -3.091543e+00 4.105739e+00 1.007878e+01
      vertex   -3.035229e+00 4.145686e+00 1.007878e+01
      vertex   -3.070595e+00 4.078000e+00 1.009812e+01
    endloop
  endfacet
  facet normal 2.865672e-01 -3.928558e-01 -8.738098e-01
    outer loop
      vertex   -3.091543e+00 4.105739e+00 1.007878e+01
      vertex   -3.070595e+00 4.078000e+00 1.009812e+01
      vertex   -3.125923e+00 4.037641e+00 1.009812e+01
    endloop
  endfacet
  facet normal 2.846657e-01 -3.902490e-01 -8.755976e-01
    outer loop
      vertex   -3.125923e+00 4.037641e+00 1.009812e+01
      vertex   -3.070595e+00 4.078000e+00 1.009812e+01
      vertex   -3.104561e+00 4.010146e+00 1.011732e+01
    endloop
  endfacet
  facet normal 2.880005e-01 -3.876903e-01 -8.756437e-01
    outer loop
      vertex   -3.125923e+00 4.037641e+00 1.009812e+01
      vertex   -3.104561e+00 4.010146e+00 1.011732e+01
      vertex   -3.114574e+00 4.000000e+00 1.011852e+01
    endloop
  endfacet
  facet normal 2.825154e-01 -3.827444e-01 -8.795975e-01
    outer loop
      vertex   -3.114574e+00 4.000000e+00 1.011852e+01
      vertex   -3.104561e+00 4.010146e+00 1.011732e+01
      vertex   -3.028616e+00 4.022407e+00 1.013638e+01
    endloop
  endfacet
  facet normal 2.824159e-01 -3.821215e-01 -8.799002e-01
    outer loop
      vertex   -3.114574e+00 4.000000e+00 1.011852e+01
      vertex   -3.028616e+00 4.022407e+00 1.013638e+01
      vertex   -3.000000e+00 4.000000e+00 1.015529e+01
    endloop
  endfacet
  facet normal 2.751535e-01 -3.903055e-01 -8.786081e-01
    outer loop
      vertex   -3.000000e+00 4.000000e+00 1.015529e+01
      vertex   -3.028616e+00 4.022407e+00 1.013638e+01
      vertex   -3.000000e+00 4.084796e+00 1.011762e+01
    endloop
  endfacet
  facet normal 2.779580e-01 -3.912058e-01 -8.773240e-01
    outer loop
      vertex   -3.000000e+00 4.084796e+00 1.011762e+01
      vertex   -3.028616e+00 4.022407e+00 1.013638e+01
      vertex   -3.049619e+00 4.050222e+00 1.011732e+01
    endloop
  endfacet
  facet normal 2.798038e-01 -3.938705e-01 -8.755432e-01
    outer loop
      vertex   -3.000000e+00 4.084796e+00 1.011762e+01
      vertex   -3.049619e+00 4.050222e+00 1.011732e+01
      vertex   -3.070595e+00 4.078000e+00 1.009812e+01
    endloop
  endfacet
  facet normal 2.846571e-01 -3.902459e-01 -8.756017e-01
    outer loop
      vertex   -3.070595e+00 4.078000e+00 1.009812e+01
      vertex   -3.049619e+00 4.050222e+00 1.011732e+01
      vertex   -3.104561e+00 4.010146e+00 1.011732e+01
    endloop
  endfacet
  facet normal 2.772311e-01 -3.997338e-01 -8.737024e-01
    outer loop
      vertex   -3.035229e+00 4.145686e+00 1.007878e+01
      vertex   -3.000000e+00 4.169236e+00 1.007918e+01
      vertex   -3.014655e+00 4.117681e+00 1.009812e+01
    endloop
  endfacet
  facet normal 2.709662e-01 -3.988260e-01 -8.760794e-01
    outer loop
      vertex   -3.014655e+00 4.117681e+00 1.009812e+01
      vertex   -3.000000e+00 4.169236e+00 1.007918e+01
      vertex   -3.000000e+00 4.084796e+00 1.011762e+01
    endloop
  endfacet
  facet normal 2.797893e-01 -3.944295e-01 -8.752961e-01
    outer loop
      vertex   -3.014655e+00 4.117681e+00 1.009812e+01
      vertex   -3.000000e+00 4.084796e+00 1.011762e+01
      vertex   -3.070595e+00 4.078000e+00 1.009812e+01
    endloop
  endfacet
  facet normal 2.924077e-01 -3.859794e-01 -8.749387e-01
    outer loop
      vertex   -3.114574e+00 4.000000e+00 1.011852e+01
      vertex   -3.228705e+00 4.000000e+00 1.008038e+01
      vertex   -3.125923e+00 4.037641e+00 1.009812e+01
    endloop
  endfacet
  facet normal 2.912063e-01 -3.816077e-01 -8.772539e-01
    outer loop
      vertex   -3.125923e+00 4.037641e+00 1.009812e+01
      vertex   -3.228705e+00 4.000000e+00 1.008038e+01
      vertex   -3.202429e+00 4.023721e+00 1.007878e+01
    endloop
  endfacet
  facet normal 2.916843e-01 -3.889355e-01 -8.738704e-01
    outer loop
      vertex   -3.125923e+00 4.037641e+00 1.009812e+01
      vertex   -3.202429e+00 4.023721e+00 1.007878e+01
      vertex   -3.147256e+00 4.065098e+00 1.007878e+01
    endloop
  endfacet
  facet normal 2.936211e-01 -3.915181e-01 -8.720667e-01
    outer loop
      vertex   -3.147256e+00 4.065098e+00 1.007878e+01
      vertex   -3.202429e+00 4.023721e+00 1.007878e+01
      vertex   -3.168560e+00 4.092517e+00 1.005930e+01
    endloop
  endfacet
  facet normal 2.884825e-01 -3.954642e-01 -8.720011e-01
    outer loop
      vertex   -3.147256e+00 4.065098e+00 1.007878e+01
      vertex   -3.168560e+00 4.092517e+00 1.005930e+01
      vertex   -3.112462e+00 4.133439e+00 1.005930e+01
    endloop
  endfacet
  facet normal 2.903771e-01 -3.980614e-01 -8.701887e-01
    outer loop
      vertex   -3.112462e+00 4.133439e+00 1.005930e+01
      vertex   -3.168560e+00 4.092517e+00 1.005930e+01
      vertex   -3.133353e+00 4.161100e+00 1.003967e+01
    endloop
  endfacet
  facet normal 2.851511e-01 -4.019622e-01 -8.701237e-01
    outer loop
      vertex   -3.112462e+00 4.133439e+00 1.005930e+01
      vertex   -3.133353e+00 4.161100e+00 1.003967e+01
      vertex   -3.076292e+00 4.201578e+00 1.003967e+01
    endloop
  endfacet
  facet normal 2.870079e-01 -4.045797e-01 -8.682982e-01
    outer loop
      vertex   -3.076292e+00 4.201578e+00 1.003967e+01
      vertex   -3.133353e+00 4.161100e+00 1.003967e+01
      vertex   -3.096781e+00 4.229464e+00 1.001991e+01
    endloop
  endfacet
  facet normal 2.816977e-01 -4.084347e-01 -8.682324e-01
    outer loop
      vertex   -3.076292e+00 4.201578e+00 1.003967e+01
      vertex   -3.096781e+00 4.229464e+00 1.001991e+01
      vertex   -3.038802e+00 4.269452e+00 1.001991e+01
    endloop
  endfacet
  facet normal 3.050344e-01 -3.696118e-01 -8.776908e-01
    outer loop
      vertex   -3.342382e+00 4.000000e+00 1.004087e+01
      vertex   -3.279113e+00 4.008454e+00 1.005930e+01
      vertex   -3.228705e+00 4.000000e+00 1.008038e+01
    endloop
  endfacet
  facet normal 2.993384e-01 -3.882961e-01 -8.715633e-01
    outer loop
      vertex   -3.228705e+00 4.000000e+00 1.008038e+01
      vertex   -3.279113e+00 4.008454e+00 1.005930e+01
      vertex   -3.224113e+00 4.050854e+00 1.005930e+01
    endloop
  endfacet
  facet normal 2.976240e-01 -3.883708e-01 -8.721170e-01
    outer loop
      vertex   -3.228705e+00 4.000000e+00 1.008038e+01
      vertex   -3.224113e+00 4.050854e+00 1.005930e+01
      vertex   -3.202429e+00 4.023721e+00 1.007878e+01
    endloop
  endfacet
  facet normal 2.936314e-01 -3.915217e-01 -8.720615e-01
    outer loop
      vertex   -3.202429e+00 4.023721e+00 1.007878e+01
      vertex   -3.224113e+00 4.050854e+00 1.005930e+01
      vertex   -3.168560e+00 4.092517e+00 1.005930e+01
    endloop
  endfacet
  facet normal 2.827478e-01 -3.876284e-01 -8.773813e-01
    outer loop
      vertex   -3.049619e+00 4.050222e+00 1.011732e+01
      vertex   -3.028616e+00 4.022407e+00 1.013638e+01
      vertex   -3.104561e+00 4.010146e+00 1.011732e+01
    endloop
  endfacet
  facet normal 3.082367e-01 -3.890245e-01 -8.681302e-01
    outer loop
      vertex   -3.342382e+00 4.000000e+00 1.004087e+01
      vertex   -3.378309e+00 4.018310e+00 1.001991e+01
      vertex   -3.323136e+00 4.062025e+00 1.001991e+01
    endloop
  endfacet
  facet normal 3.051513e-01 -3.864456e-01 -8.703692e-01
    outer loop
      vertex   -3.279113e+00 4.008454e+00 1.005930e+01
      vertex   -3.342382e+00 4.000000e+00 1.004087e+01
      vertex   -3.301140e+00 4.035259e+00 1.003967e+01
    endloop
  endfacet
  facet normal 3.072726e-01 -3.888649e-01 -8.685434e-01
    outer loop
      vertex   -3.301140e+00 4.035259e+00 1.003967e+01
      vertex   -3.342382e+00 4.000000e+00 1.004087e+01
      vertex   -3.323136e+00 4.062025e+00 1.001991e+01
    endloop
  endfacet
  facet normal 3.026723e-01 -3.925981e-01 -8.684792e-01
    outer loop
      vertex   -3.301140e+00 4.035259e+00 1.003967e+01
      vertex   -3.323136e+00 4.062025e+00 1.001991e+01
      vertex   -3.267391e+00 4.105002e+00 1.001991e+01
    endloop
  endfacet
  facet normal 3.007033e-01 -3.900553e-01 -8.703071e-01
    outer loop
      vertex   -3.279113e+00 4.008454e+00 1.005930e+01
      vertex   -3.301140e+00 4.035259e+00 1.003967e+01
      vertex   -3.245767e+00 4.077947e+00 1.003967e+01
    endloop
  endfacet
  facet normal 3.026605e-01 -3.925941e-01 -8.684852e-01
    outer loop
      vertex   -3.245767e+00 4.077947e+00 1.003967e+01
      vertex   -3.301140e+00 4.035259e+00 1.003967e+01
      vertex   -3.267391e+00 4.105002e+00 1.001991e+01
    endloop
  endfacet
  facet normal 2.975044e-01 -3.966652e-01 -8.684169e-01
    outer loop
      vertex   -3.245767e+00 4.077947e+00 1.003967e+01
      vertex   -3.267391e+00 4.105002e+00 1.001991e+01
      vertex   -3.211081e+00 4.147235e+00 1.001991e+01
    endloop
  endfacet
  facet normal 3.006915e-01 -3.900513e-01 -8.703129e-01
    outer loop
      vertex   -3.279113e+00 4.008454e+00 1.005930e+01
      vertex   -3.245767e+00 4.077947e+00 1.003967e+01
      vertex   -3.224113e+00 4.050854e+00 1.005930e+01
    endloop
  endfacet
  facet normal 2.955696e-01 -3.940959e-01 -8.702454e-01
    outer loop
      vertex   -3.224113e+00 4.050854e+00 1.005930e+01
      vertex   -3.245767e+00 4.077947e+00 1.003967e+01
      vertex   -3.189835e+00 4.119896e+00 1.003967e+01
    endloop
  endfacet
  facet normal 2.955592e-01 -3.940922e-01 -8.702506e-01
    outer loop
      vertex   -3.224113e+00 4.050854e+00 1.005930e+01
      vertex   -3.189835e+00 4.119896e+00 1.003967e+01
      vertex   -3.168560e+00 4.092517e+00 1.005930e+01
    endloop
  endfacet
  facet normal 2.903859e-01 -3.980646e-01 -8.701842e-01
    outer loop
      vertex   -3.168560e+00 4.092517e+00 1.005930e+01
      vertex   -3.189835e+00 4.119896e+00 1.003967e+01
      vertex   -3.133353e+00 4.161100e+00 1.003967e+01
    endloop
  endfacet
  facet normal 2.974938e-01 -3.966615e-01 -8.684222e-01
    outer loop
      vertex   -3.189835e+00 4.119896e+00 1.003967e+01
      vertex   -3.245767e+00 4.077947e+00 1.003967e+01
      vertex   -3.211081e+00 4.147235e+00 1.001991e+01
    endloop
  endfacet
  facet normal 2.865758e-01 -3.928590e-01 -8.738056e-01
    outer loop
      vertex   -3.091543e+00 4.105739e+00 1.007878e+01
      vertex   -3.125923e+00 4.037641e+00 1.009812e+01
      vertex   -3.147256e+00 4.065098e+00 1.007878e+01
    endloop
  endfacet
  facet normal 2.922769e-01 -4.006569e-01 -8.683595e-01
    outer loop
      vertex   -3.133353e+00 4.161100e+00 1.003967e+01
      vertex   -3.189835e+00 4.119896e+00 1.003967e+01
      vertex   -3.154214e+00 4.188720e+00 1.001991e+01
    endloop
  endfacet
  facet normal 2.922857e-01 -4.006601e-01 -8.683551e-01
    outer loop
      vertex   -3.154214e+00 4.188720e+00 1.001991e+01
      vertex   -3.189835e+00 4.119896e+00 1.003967e+01
      vertex   -3.211081e+00 4.147235e+00 1.001991e+01
    endloop
  endfacet
  facet normal 2.884738e-01 -3.954610e-01 -8.720054e-01
    outer loop
      vertex   -3.091543e+00 4.105739e+00 1.007878e+01
      vertex   -3.147256e+00 4.065098e+00 1.007878e+01
      vertex   -3.112462e+00 4.133439e+00 1.005930e+01
    endloop
  endfacet
  facet normal 2.870164e-01 -4.045830e-01 -8.682938e-01
    outer loop
      vertex   -3.096781e+00 4.229464e+00 1.001991e+01
      vertex   -3.133353e+00 4.161100e+00 1.003967e+01
      vertex   -3.154214e+00 4.188720e+00 1.001991e+01
    endloop
  endfacet
  facet normal 2.832823e-01 -3.993365e-01 -8.719412e-01
    outer loop
      vertex   -3.055775e+00 4.173652e+00 1.005930e+01
      vertex   -3.091543e+00 4.105739e+00 1.007878e+01
      vertex   -3.112462e+00 4.133439e+00 1.005930e+01
    endloop
  endfacet
  facet normal 2.851426e-01 -4.019590e-01 -8.701280e-01
    outer loop
      vertex   -3.055775e+00 4.173652e+00 1.005930e+01
      vertex   -3.112462e+00 4.133439e+00 1.005930e+01
      vertex   -3.076292e+00 4.201578e+00 1.003967e+01
    endloop
  endfacet
  facet normal 2.814019e-01 -3.967029e-01 -8.737504e-01
    outer loop
      vertex   -3.014655e+00 4.117681e+00 1.009812e+01
      vertex   -3.070595e+00 4.078000e+00 1.009812e+01
      vertex   -3.035229e+00 4.145686e+00 1.007878e+01
    endloop
  endfacet
  facet normal 2.798663e-01 -4.057898e-01 -8.700629e-01
    outer loop
      vertex   -3.018685e+00 4.241309e+00 1.003967e+01
      vertex   -3.055775e+00 4.173652e+00 1.005930e+01
      vertex   -3.076292e+00 4.201578e+00 1.003967e+01
    endloop
  endfacet
  facet normal 2.816877e-01 -4.084307e-01 -8.682375e-01
    outer loop
      vertex   -3.018685e+00 4.241309e+00 1.003967e+01
      vertex   -3.076292e+00 4.201578e+00 1.003967e+01
      vertex   -3.038802e+00 4.269452e+00 1.001991e+01
    endloop
  endfacet
  facet normal -2.748564e-01 4.310702e-01 8.594373e-01
    outer loop
      vertex   -3.000000e+00 4.548125e+00 1.000000e+01
      vertex   -3.048143e+00 4.517429e+00 1.000000e+01
      vertex   -3.000000e+00 4.480460e+00 1.003394e+01
    endloop
  endfacet
  facet normal -2.759636e-01 4.298594e-01 8.596889e-01
    outer loop
      vertex   -3.000000e+00 4.480460e+00 1.003394e+01
      vertex   -3.048143e+00 4.517429e+00 1.000000e+01
      vertex   -3.016440e+00 4.470788e+00 1.003350e+01
    endloop
  endfacet
  facet normal -2.731586e-01 4.249399e-01 8.630240e-01
    outer loop
      vertex   -3.000000e+00 4.480460e+00 1.003394e+01
      vertex   -3.016440e+00 4.470788e+00 1.003350e+01
      vertex   -3.000000e+00 4.412548e+00 1.006738e+01
    endloop
  endfacet
  facet normal -2.763590e-01 4.237765e-01 8.625771e-01
    outer loop
      vertex   -3.000000e+00 4.412548e+00 1.006738e+01
      vertex   -3.016440e+00 4.470788e+00 1.003350e+01
      vertex   -3.063774e+00 4.439920e+00 1.003350e+01
    endloop
  endfacet
  facet normal -2.767826e-01 4.230578e-01 8.627940e-01
    outer loop
      vertex   -3.000000e+00 4.412548e+00 1.006738e+01
      vertex   -3.063774e+00 4.439920e+00 1.003350e+01
      vertex   -3.031514e+00 4.393475e+00 1.006662e+01
    endloop
  endfacet
  facet normal -2.804322e-01 4.205550e-01 8.628391e-01
    outer loop
      vertex   -3.031514e+00 4.393475e+00 1.006662e+01
      vertex   -3.063774e+00 4.439920e+00 1.003350e+01
      vertex   -3.077729e+00 4.362658e+00 1.006662e+01
    endloop
  endfacet
  facet normal -2.775428e-01 4.162219e-01 8.658691e-01
    outer loop
      vertex   -3.031514e+00 4.393475e+00 1.006662e+01
      vertex   -3.077729e+00 4.362658e+00 1.006662e+01
      vertex   -3.045046e+00 4.316330e+00 1.009937e+01
    endloop
  endfacet
  facet normal -2.817507e-01 4.132867e-01 8.659161e-01
    outer loop
      vertex   -3.045046e+00 4.316330e+00 1.009937e+01
      vertex   -3.077729e+00 4.362658e+00 1.006662e+01
      vertex   -3.090626e+00 4.285257e+00 1.009937e+01
    endloop
  endfacet
  facet normal -2.788046e-01 4.089653e-01 8.689162e-01
    outer loop
      vertex   -3.045046e+00 4.316330e+00 1.009937e+01
      vertex   -3.090626e+00 4.285257e+00 1.009937e+01
      vertex   -3.057374e+00 4.239152e+00 1.013174e+01
    endloop
  endfacet
  facet normal -2.829487e-01 4.060092e-01 8.689629e-01
    outer loop
      vertex   -3.057374e+00 4.239152e+00 1.013174e+01
      vertex   -3.090626e+00 4.285257e+00 1.009937e+01
      vertex   -3.102171e+00 4.207933e+00 1.013174e+01
    endloop
  endfacet
  facet normal -2.799495e-01 4.017056e-01 8.719294e-01
    outer loop
      vertex   -3.057374e+00 4.239152e+00 1.013174e+01
      vertex   -3.102171e+00 4.207933e+00 1.013174e+01
      vertex   -3.068353e+00 4.162063e+00 1.016373e+01
    endloop
  endfacet
  facet normal -2.840234e-01 3.987343e-01 8.719757e-01
    outer loop
      vertex   -3.068353e+00 4.162063e+00 1.016373e+01
      vertex   -3.102171e+00 4.207933e+00 1.013174e+01
      vertex   -3.112378e+00 4.130704e+00 1.016373e+01
    endloop
  endfacet
  facet normal -2.809711e-01 3.944493e-01 8.749086e-01
    outer loop
      vertex   -3.068353e+00 4.162063e+00 1.016373e+01
      vertex   -3.112378e+00 4.130704e+00 1.016373e+01
      vertex   -3.077999e+00 4.085076e+00 1.019534e+01
    endloop
  endfacet
  facet normal -2.849747e-01 3.914643e-01 8.749543e-01
    outer loop
      vertex   -3.077999e+00 4.085076e+00 1.019534e+01
      vertex   -3.112378e+00 4.130704e+00 1.016373e+01
      vertex   -3.121234e+00 4.053602e+00 1.019534e+01
    endloop
  endfacet
  facet normal -2.818696e-01 3.871989e-01 8.778534e-01
    outer loop
      vertex   -3.077999e+00 4.085076e+00 1.019534e+01
      vertex   -3.121234e+00 4.053602e+00 1.019534e+01
      vertex   -3.086295e+00 4.008226e+00 1.022657e+01
    endloop
  endfacet
  facet normal -2.851402e-01 3.847075e-01 8.778925e-01
    outer loop
      vertex   -3.086295e+00 4.008226e+00 1.022657e+01
      vertex   -3.121234e+00 4.053602e+00 1.019534e+01
      vertex   -3.092107e+00 4.000000e+00 1.022829e+01
    endloop
  endfacet
  facet normal -2.788422e-01 3.810144e-01 8.815186e-01
    outer loop
      vertex   -3.086295e+00 4.008226e+00 1.022657e+01
      vertex   -3.092107e+00 4.000000e+00 1.022829e+01
      vertex   -3.000000e+00 4.000000e+00 1.025742e+01
    endloop
  endfacet
  facet normal -2.789979e-01 4.278230e-01 8.597253e-01
    outer loop
      vertex   -3.016440e+00 4.470788e+00 1.003350e+01
      vertex   -3.048143e+00 4.517429e+00 1.000000e+01
      vertex   -3.063774e+00 4.439920e+00 1.003350e+01
    endloop
  endfacet
  facet normal -2.790191e-01 4.278241e-01 8.597179e-01
    outer loop
      vertex   -3.063774e+00 4.439920e+00 1.003350e+01
      vertex   -3.048143e+00 4.517429e+00 1.000000e+01
      vertex   -3.095957e+00 4.486246e+00 1.000000e+01
    endloop
  endfacet
  facet normal -2.833224e-01 4.248746e-01 8.597732e-01
    outer loop
      vertex   -3.063774e+00 4.439920e+00 1.003350e+01
      vertex   -3.095957e+00 4.486246e+00 1.000000e+01
      vertex   -3.110332e+00 4.408873e+00 1.003350e+01
    endloop
  endfacet
  facet normal -2.833726e-01 4.248764e-01 8.597558e-01
    outer loop
      vertex   -3.110332e+00 4.408873e+00 1.003350e+01
      vertex   -3.095957e+00 4.486246e+00 1.000000e+01
      vertex   -3.143437e+00 4.454578e+00 1.000000e+01
    endloop
  endfacet
  facet normal -2.876017e-01 4.218693e-01 8.598323e-01
    outer loop
      vertex   -3.110332e+00 4.408873e+00 1.003350e+01
      vertex   -3.143437e+00 4.454578e+00 1.000000e+01
      vertex   -3.156889e+00 4.377133e+00 1.003350e+01
    endloop
  endfacet
  facet normal -2.876889e-01 4.218713e-01 8.598021e-01
    outer loop
      vertex   -3.156889e+00 4.377133e+00 1.003350e+01
      vertex   -3.143437e+00 4.454578e+00 1.000000e+01
      vertex   -3.190581e+00 4.422429e+00 1.000000e+01
    endloop
  endfacet
  facet normal -2.918753e-01 4.188179e-01 8.598839e-01
    outer loop
      vertex   -3.156889e+00 4.377133e+00 1.003350e+01
      vertex   -3.190581e+00 4.422429e+00 1.000000e+01
      vertex   -3.203148e+00 4.344896e+00 1.003350e+01
    endloop
  endfacet
  facet normal -2.919742e-01 4.188191e-01 8.598498e-01
    outer loop
      vertex   -3.203148e+00 4.344896e+00 1.003350e+01
      vertex   -3.190581e+00 4.422429e+00 1.000000e+01
      vertex   -3.237384e+00 4.389801e+00 1.000000e+01
    endloop
  endfacet
  facet normal -2.961227e-01 4.157199e-01 8.599351e-01
    outer loop
      vertex   -3.203148e+00 4.344896e+00 1.003350e+01
      vertex   -3.237384e+00 4.389801e+00 1.000000e+01
      vertex   -3.249102e+00 4.312162e+00 1.003350e+01
    endloop
  endfacet
  facet normal -2.962281e-01 4.157201e-01 8.598987e-01
    outer loop
      vertex   -3.249102e+00 4.312162e+00 1.003350e+01
      vertex   -3.237384e+00 4.389801e+00 1.000000e+01
      vertex   -3.283842e+00 4.356696e+00 1.000000e+01
    endloop
  endfacet
  facet normal -3.003431e-01 4.125756e-01 8.599857e-01
    outer loop
      vertex   -3.249102e+00 4.312162e+00 1.003350e+01
      vertex   -3.283842e+00 4.356696e+00 1.000000e+01
      vertex   -3.294741e+00 4.278938e+00 1.003350e+01
    endloop
  endfacet
  facet normal -3.004504e-01 4.125746e-01 8.599487e-01
    outer loop
      vertex   -3.294741e+00 4.278938e+00 1.003350e+01
      vertex   -3.283842e+00 4.356696e+00 1.000000e+01
      vertex   -3.329952e+00 4.323118e+00 1.000000e+01
    endloop
  endfacet
  facet normal -3.045355e-01 4.093851e-01 8.600360e-01
    outer loop
      vertex   -3.294741e+00 4.278938e+00 1.003350e+01
      vertex   -3.329952e+00 4.323118e+00 1.000000e+01
      vertex   -3.340057e+00 4.245228e+00 1.003350e+01
    endloop
  endfacet
  facet normal -3.046408e-01 4.093831e-01 8.599997e-01
    outer loop
      vertex   -3.340057e+00 4.245228e+00 1.003350e+01
      vertex   -3.329952e+00 4.323118e+00 1.000000e+01
      vertex   -3.375709e+00 4.289068e+00 1.000000e+01
    endloop
  endfacet
  facet normal -3.086991e-01 4.061488e-01 8.600861e-01
    outer loop
      vertex   -3.340057e+00 4.245228e+00 1.003350e+01
      vertex   -3.375709e+00 4.289068e+00 1.000000e+01
      vertex   -3.385043e+00 4.211036e+00 1.003350e+01
    endloop
  endfacet
  facet normal -3.087990e-01 4.061459e-01 8.600515e-01
    outer loop
      vertex   -3.385043e+00 4.211036e+00 1.003350e+01
      vertex   -3.375709e+00 4.289068e+00 1.000000e+01
      vertex   -3.421110e+00 4.254549e+00 1.000000e+01
    endloop
  endfacet
  facet normal -3.128333e-01 4.028669e-01 8.601358e-01
    outer loop
      vertex   -3.385043e+00 4.211036e+00 1.003350e+01
      vertex   -3.421110e+00 4.254549e+00 1.000000e+01
      vertex   -3.429690e+00 4.176367e+00 1.003350e+01
    endloop
  endfacet
  facet normal -3.129248e-01 4.028634e-01 8.601042e-01
    outer loop
      vertex   -3.429690e+00 4.176367e+00 1.003350e+01
      vertex   -3.421110e+00 4.254549e+00 1.000000e+01
      vertex   -3.466151e+00 4.219563e+00 1.000000e+01
    endloop
  endfacet
  facet normal -3.169371e-01 3.995397e-01 8.601854e-01
    outer loop
      vertex   -3.429690e+00 4.176367e+00 1.003350e+01
      vertex   -3.466151e+00 4.219563e+00 1.000000e+01
      vertex   -3.473991e+00 4.141225e+00 1.003350e+01
    endloop
  endfacet
  facet normal -3.170177e-01 3.995358e-01 8.601575e-01
    outer loop
      vertex   -3.473991e+00 4.141225e+00 1.003350e+01
      vertex   -3.466151e+00 4.219563e+00 1.000000e+01
      vertex   -3.510827e+00 4.184114e+00 1.000000e+01
    endloop
  endfacet
  facet normal -3.210232e-01 3.961562e-01 8.602351e-01
    outer loop
      vertex   -3.473991e+00 4.141225e+00 1.003350e+01
      vertex   -3.510827e+00 4.184114e+00 1.000000e+01
      vertex   -3.518229e+00 4.105377e+00 1.003350e+01
    endloop
  endfacet
  facet normal -3.210695e-01 3.961537e-01 8.602190e-01
    outer loop
      vertex   -3.518229e+00 4.105377e+00 1.003350e+01
      vertex   -3.510827e+00 4.184114e+00 1.000000e+01
      vertex   -3.555136e+00 4.148204e+00 1.000000e+01
    endloop
  endfacet
  facet normal -3.250811e-01 3.927418e-01 8.602768e-01
    outer loop
      vertex   -3.518229e+00 4.105377e+00 1.003350e+01
      vertex   -3.555136e+00 4.148204e+00 1.000000e+01
      vertex   -3.561712e+00 4.069385e+00 1.003350e+01
    endloop
  endfacet
  facet normal -3.250987e-01 3.927407e-01 8.602707e-01
    outer loop
      vertex   -3.561712e+00 4.069385e+00 1.003350e+01
      vertex   -3.555136e+00 4.148204e+00 1.000000e+01
      vertex   -3.599072e+00 4.111835e+00 1.000000e+01
    endloop
  endfacet
  facet normal -3.290770e-01 3.892851e-01 8.603286e-01
    outer loop
      vertex   -3.561712e+00 4.069385e+00 1.003350e+01
      vertex   -3.599072e+00 4.111835e+00 1.000000e+01
      vertex   -3.604825e+00 4.032940e+00 1.003350e+01
    endloop
  endfacet
  facet normal -3.290945e-01 3.892838e-01 8.603226e-01
    outer loop
      vertex   -3.604825e+00 4.032940e+00 1.003350e+01
      vertex   -3.599072e+00 4.111835e+00 1.000000e+01
      vertex   -3.642632e+00 4.075009e+00 1.000000e+01
    endloop
  endfacet
  facet normal -3.328823e-01 3.859245e-01 8.603788e-01
    outer loop
      vertex   -3.604825e+00 4.032940e+00 1.003350e+01
      vertex   -3.642632e+00 4.075009e+00 1.000000e+01
      vertex   -3.638642e+00 4.000000e+00 1.003519e+01
    endloop
  endfacet
  facet normal -3.331359e-01 3.858753e-01 8.603027e-01
    outer loop
      vertex   -3.638642e+00 4.000000e+00 1.003519e+01
      vertex   -3.642632e+00 4.075009e+00 1.000000e+01
      vertex   -3.685813e+00 4.037730e+00 1.000000e+01
    endloop
  endfacet
  facet normal -3.366551e-01 3.818662e-01 8.607215e-01
    outer loop
      vertex   -3.638642e+00 4.000000e+00 1.003519e+01
      vertex   -3.685813e+00 4.037730e+00 1.000000e+01
      vertex   -3.728610e+00 4.000000e+00 1.000000e+01
    endloop
  endfacet
  facet normal -3.285156e-01 3.816258e-01 8.639671e-01
    outer loop
      vertex   -3.638642e+00 4.000000e+00 1.003519e+01
      vertex   -3.548336e+00 4.000000e+00 1.006953e+01
      vertex   -3.604825e+00 4.032940e+00 1.003350e+01
    endloop
  endfacet
  facet normal -3.258417e-01 3.854579e-01 8.632783e-01
    outer loop
      vertex   -3.604825e+00 4.032940e+00 1.003350e+01
      vertex   -3.548336e+00 4.000000e+00 1.006953e+01
      vertex   -3.561712e+00 4.069385e+00 1.003350e+01
    endloop
  endfacet
  facet normal -3.254051e-01 3.855956e-01 8.633815e-01
    outer loop
      vertex   -3.561712e+00 4.069385e+00 1.003350e+01
      vertex   -3.548336e+00 4.000000e+00 1.006953e+01
      vertex   -3.524261e+00 4.026826e+00 1.006662e+01
    endloop
  endfacet
  facet normal -3.203307e-01 3.814459e-01 8.671143e-01
    outer loop
      vertex   -3.524261e+00 4.026826e+00 1.006662e+01
      vertex   -3.548336e+00 4.000000e+00 1.006953e+01
      vertex   -3.457698e+00 4.000000e+00 1.010301e+01
    endloop
  endfacet
  facet normal -3.185145e-01 3.848306e-01 8.662874e-01
    outer loop
      vertex   -3.524261e+00 4.026826e+00 1.006662e+01
      vertex   -3.457698e+00 4.000000e+00 1.010301e+01
      vertex   -3.481232e+00 4.062440e+00 1.006662e+01
    endloop
  endfacet
  facet normal -3.180887e-01 3.850305e-01 8.663551e-01
    outer loop
      vertex   -3.481232e+00 4.062440e+00 1.006662e+01
      vertex   -3.457698e+00 4.000000e+00 1.010301e+01
      vertex   -3.444147e+00 4.019396e+00 1.009937e+01
    endloop
  endfacet
  facet normal -3.144834e-01 3.880970e-01 8.663030e-01
    outer loop
      vertex   -3.481232e+00 4.062440e+00 1.006662e+01
      vertex   -3.444147e+00 4.019396e+00 1.009937e+01
      vertex   -3.437575e+00 4.097816e+00 1.006662e+01
    endloop
  endfacet
  facet normal -3.144748e-01 3.880975e-01 8.663059e-01
    outer loop
      vertex   -3.437575e+00 4.097816e+00 1.006662e+01
      vertex   -3.444147e+00 4.019396e+00 1.009937e+01
      vertex   -3.401071e+00 4.054300e+00 1.009937e+01
    endloop
  endfacet
  facet normal -3.104854e-01 3.914066e-01 8.662561e-01
    outer loop
      vertex   -3.437575e+00 4.097816e+00 1.006662e+01
      vertex   -3.401071e+00 4.054300e+00 1.009937e+01
      vertex   -3.393739e+00 4.132589e+00 1.006662e+01
    endloop
  endfacet
  facet normal -3.104854e-01 3.914066e-01 8.662561e-01
    outer loop
      vertex   -3.393739e+00 4.132589e+00 1.006662e+01
      vertex   -3.401071e+00 4.054300e+00 1.009937e+01
      vertex   -3.357700e+00 4.088704e+00 1.009937e+01
    endloop
  endfacet
  facet normal -3.064676e-01 3.946691e-01 8.662066e-01
    outer loop
      vertex   -3.393739e+00 4.132589e+00 1.006662e+01
      vertex   -3.357700e+00 4.088704e+00 1.009937e+01
      vertex   -3.349560e+00 4.166895e+00 1.006662e+01
    endloop
  endfacet
  facet normal -3.064676e-01 3.946691e-01 8.662066e-01
    outer loop
      vertex   -3.349560e+00 4.166895e+00 1.006662e+01
      vertex   -3.357700e+00 4.088704e+00 1.009937e+01
      vertex   -3.313990e+00 4.122646e+00 1.009937e+01
    endloop
  endfacet
  facet normal -3.024195e-01 3.978868e-01 8.661574e-01
    outer loop
      vertex   -3.349560e+00 4.166895e+00 1.006662e+01
      vertex   -3.313990e+00 4.122646e+00 1.009937e+01
      vertex   -3.305046e+00 4.200728e+00 1.006662e+01
    endloop
  endfacet
  facet normal -3.024195e-01 3.978868e-01 8.661574e-01
    outer loop
      vertex   -3.305046e+00 4.200728e+00 1.006662e+01
      vertex   -3.313990e+00 4.122646e+00 1.009937e+01
      vertex   -3.269949e+00 4.156120e+00 1.009937e+01
    endloop
  endfacet
  facet normal -2.983418e-01 4.010591e-01 8.661084e-01
    outer loop
      vertex   -3.305046e+00 4.200728e+00 1.006662e+01
      vertex   -3.269949e+00 4.156120e+00 1.009937e+01
      vertex   -3.260205e+00 4.234085e+00 1.006662e+01
    endloop
  endfacet
  facet normal -2.983418e-01 4.010591e-01 8.661084e-01
    outer loop
      vertex   -3.260205e+00 4.234085e+00 1.006662e+01
      vertex   -3.269949e+00 4.156120e+00 1.009937e+01
      vertex   -3.225584e+00 4.189123e+00 1.009937e+01
    endloop
  endfacet
  facet normal -2.942354e-01 4.041856e-01 8.660598e-01
    outer loop
      vertex   -3.260205e+00 4.234085e+00 1.006662e+01
      vertex   -3.225584e+00 4.189123e+00 1.009937e+01
      vertex   -3.215044e+00 4.266961e+00 1.006662e+01
    endloop
  endfacet
  facet normal -2.942354e-01 4.041856e-01 8.660598e-01
    outer loop
      vertex   -3.215044e+00 4.266961e+00 1.006662e+01
      vertex   -3.225584e+00 4.189123e+00 1.009937e+01
      vertex   -3.180903e+00 4.221649e+00 1.009937e+01
    endloop
  endfacet
  facet normal -2.901008e-01 4.072660e-01 8.660115e-01
    outer loop
      vertex   -3.215044e+00 4.266961e+00 1.006662e+01
      vertex   -3.180903e+00 4.221649e+00 1.009937e+01
      vertex   -3.169570e+00 4.299352e+00 1.006662e+01
    endloop
  endfacet
  facet normal -2.901007e-01 4.072660e-01 8.660115e-01
    outer loop
      vertex   -3.169570e+00 4.299352e+00 1.006662e+01
      vertex   -3.180903e+00 4.221649e+00 1.009937e+01
      vertex   -3.135911e+00 4.253697e+00 1.009937e+01
    endloop
  endfacet
  facet normal -2.859390e-01 4.102998e-01 8.659636e-01
    outer loop
      vertex   -3.169570e+00 4.299352e+00 1.006662e+01
      vertex   -3.135911e+00 4.253697e+00 1.009937e+01
      vertex   -3.123798e+00 4.331251e+00 1.006662e+01
    endloop
  endfacet
  facet normal -2.859389e-01 4.102998e-01 8.659636e-01
    outer loop
      vertex   -3.123798e+00 4.331251e+00 1.006662e+01
      vertex   -3.135911e+00 4.253697e+00 1.009937e+01
      vertex   -3.090626e+00 4.285257e+00 1.009937e+01
    endloop
  endfacet
  facet normal -2.817507e-01 4.132867e-01 8.659161e-01
    outer loop
      vertex   -3.123798e+00 4.331251e+00 1.006662e+01
      vertex   -3.090626e+00 4.285257e+00 1.009937e+01
      vertex   -3.077729e+00 4.362658e+00 1.006662e+01
    endloop
  endfacet
  facet normal -3.120735e-01 3.815286e-01 8.700839e-01
    outer loop
      vertex   -3.457698e+00 4.000000e+00 1.010301e+01
      vertex   -3.366739e+00 4.000000e+00 1.013564e+01
      vertex   -3.444147e+00 4.019396e+00 1.009937e+01
    endloop
  endfacet
  facet normal -3.111224e-01 3.839604e-01 8.693545e-01
    outer loop
      vertex   -3.444147e+00 4.019396e+00 1.009937e+01
      vertex   -3.366739e+00 4.000000e+00 1.013564e+01
      vertex   -3.401071e+00 4.054300e+00 1.009937e+01
    endloop
  endfacet
  facet normal -3.109127e-01 3.241318e-01 8.934606e-01
    outer loop
      vertex   -3.275483e+00 4.000000e+00 1.016739e+01
      vertex   -3.285367e+00 4.000623e+00 1.016373e+01
      vertex   -3.366739e+00 4.000000e+00 1.013564e+01
    endloop
  endfacet
  facet normal -3.040669e-01 3.828682e-01 8.723275e-01
    outer loop
      vertex   -3.366739e+00 4.000000e+00 1.013564e+01
      vertex   -3.285367e+00 4.000623e+00 1.016373e+01
      vertex   -3.364480e+00 4.010681e+00 1.013174e+01
    endloop
  endfacet
  facet normal -3.119173e-01 3.834253e-01 8.693058e-01
    outer loop
      vertex   -3.366739e+00 4.000000e+00 1.013564e+01
      vertex   -3.364480e+00 4.010681e+00 1.013174e+01
      vertex   -3.401071e+00 4.054300e+00 1.009937e+01
    endloop
  endfacet
  facet normal -3.072364e-01 3.873108e-01 8.692503e-01
    outer loop
      vertex   -3.401071e+00 4.054300e+00 1.009937e+01
      vertex   -3.364480e+00 4.010681e+00 1.013174e+01
      vertex   -3.357700e+00 4.088704e+00 1.009937e+01
    endloop
  endfacet
  facet normal -2.993730e-01 3.855327e-01 8.727774e-01
    outer loop
      vertex   -3.285367e+00 4.000623e+00 1.016373e+01
      vertex   -3.275483e+00 4.000000e+00 1.016739e+01
      vertex   -3.242598e+00 4.033833e+00 1.016373e+01
    endloop
  endfacet
  facet normal -2.954235e-01 3.820072e-01 8.756686e-01
    outer loop
      vertex   -3.242598e+00 4.033833e+00 1.016373e+01
      vertex   -3.275483e+00 4.000000e+00 1.016739e+01
      vertex   -3.183937e+00 4.000000e+00 1.019828e+01
    endloop
  endfacet
  facet normal -2.929966e-01 3.854893e-01 8.749577e-01
    outer loop
      vertex   -3.242598e+00 4.033833e+00 1.016373e+01
      vertex   -3.183937e+00 4.000000e+00 1.019828e+01
      vertex   -3.199506e+00 4.066586e+00 1.016373e+01
    endloop
  endfacet
  facet normal -2.925416e-01 3.856401e-01 8.750435e-01
    outer loop
      vertex   -3.199506e+00 4.066586e+00 1.016373e+01
      vertex   -3.183937e+00 4.000000e+00 1.019828e+01
      vertex   -3.164164e+00 4.021667e+00 1.019534e+01
    endloop
  endfacet
  facet normal -2.889509e-01 3.884349e-01 8.750004e-01
    outer loop
      vertex   -3.199506e+00 4.066586e+00 1.016373e+01
      vertex   -3.164164e+00 4.021667e+00 1.019534e+01
      vertex   -3.156096e+00 4.098878e+00 1.016373e+01
    endloop
  endfacet
  facet normal -2.889509e-01 3.884349e-01 8.750004e-01
    outer loop
      vertex   -3.156096e+00 4.098878e+00 1.016373e+01
      vertex   -3.164164e+00 4.021667e+00 1.019534e+01
      vertex   -3.121234e+00 4.053602e+00 1.019534e+01
    endloop
  endfacet
  facet normal -2.849747e-01 3.914643e-01 8.749543e-01
    outer loop
      vertex   -3.156096e+00 4.098878e+00 1.016373e+01
      vertex   -3.121234e+00 4.053602e+00 1.019534e+01
      vertex   -3.112378e+00 4.130704e+00 1.016373e+01
    endloop
  endfacet
  facet normal -2.871830e-01 3.812505e-01 8.787343e-01
    outer loop
      vertex   -3.183937e+00 4.000000e+00 1.019828e+01
      vertex   -3.092107e+00 4.000000e+00 1.022829e+01
      vertex   -3.164164e+00 4.021667e+00 1.019534e+01
    endloop
  endfacet
  facet normal -2.858632e-01 3.842841e-01 8.778428e-01
    outer loop
      vertex   -3.164164e+00 4.021667e+00 1.019534e+01
      vertex   -3.092107e+00 4.000000e+00 1.022829e+01
      vertex   -3.121234e+00 4.053602e+00 1.019534e+01
    endloop
  endfacet
  facet normal -2.784942e-01 3.825622e-01 8.809581e-01
    outer loop
      vertex   -3.086295e+00 4.008226e+00 1.022657e+01
      vertex   -3.000000e+00 4.000000e+00 1.025742e+01
      vertex   -3.043544e+00 4.039348e+00 1.022657e+01
    endloop
  endfacet
  facet normal -2.750411e-01 3.860434e-01 8.805242e-01
    outer loop
      vertex   -3.043544e+00 4.039348e+00 1.022657e+01
      vertex   -3.000000e+00 4.000000e+00 1.025742e+01
      vertex   -3.000000e+00 4.069350e+00 1.022702e+01
    endloop
  endfacet
  facet normal -2.763547e-01 3.879686e-01 8.792659e-01
    outer loop
      vertex   -3.043544e+00 4.039348e+00 1.022657e+01
      vertex   -3.000000e+00 4.069350e+00 1.022702e+01
      vertex   -3.000491e+00 4.070015e+00 1.022657e+01
    endloop
  endfacet
  facet normal -2.691157e-01 3.932405e-01 8.791693e-01
    outer loop
      vertex   -3.000491e+00 4.070015e+00 1.022657e+01
      vertex   -3.000000e+00 4.069350e+00 1.022702e+01
      vertex   -3.000000e+00 4.138466e+00 1.019610e+01
    endloop
  endfacet
  facet normal -2.744778e-01 3.926568e-01 8.777714e-01
    outer loop
      vertex   -3.000491e+00 4.070015e+00 1.022657e+01
      vertex   -3.000000e+00 4.138466e+00 1.019610e+01
      vertex   -3.034459e+00 4.116090e+00 1.019534e+01
    endloop
  endfacet
  facet normal -2.773113e-01 3.971196e-01 8.748682e-01
    outer loop
      vertex   -3.034459e+00 4.116090e+00 1.019534e+01
      vertex   -3.000000e+00 4.138466e+00 1.019610e+01
      vertex   -3.068353e+00 4.162063e+00 1.016373e+01
    endloop
  endfacet
  facet normal -2.809710e-01 3.944493e-01 8.749086e-01
    outer loop
      vertex   -3.034459e+00 4.116090e+00 1.019534e+01
      vertex   -3.068353e+00 4.162063e+00 1.016373e+01
      vertex   -3.077999e+00 4.085076e+00 1.019534e+01
    endloop
  endfacet
  facet normal -2.770818e-01 3.975907e-01 8.747270e-01
    outer loop
      vertex   -3.068353e+00 4.162063e+00 1.016373e+01
      vertex   -3.000000e+00 4.138466e+00 1.019610e+01
      vertex   -3.024046e+00 4.192941e+00 1.016373e+01
    endloop
  endfacet
  facet normal -2.738667e-01 3.991811e-01 8.750151e-01
    outer loop
      vertex   -3.024046e+00 4.192941e+00 1.016373e+01
      vertex   -3.000000e+00 4.138466e+00 1.019610e+01
      vertex   -3.000000e+00 4.207346e+00 1.016468e+01
    endloop
  endfacet
  facet normal -2.766613e-01 4.040528e-01 8.718944e-01
    outer loop
      vertex   -3.024046e+00 4.192941e+00 1.016373e+01
      vertex   -3.000000e+00 4.207346e+00 1.016468e+01
      vertex   -3.057374e+00 4.239152e+00 1.013174e+01
    endloop
  endfacet
  facet normal -2.760529e-01 4.049289e-01 8.716808e-01
    outer loop
      vertex   -3.057374e+00 4.239152e+00 1.013174e+01
      vertex   -3.000000e+00 4.207346e+00 1.016468e+01
      vertex   -3.012285e+00 4.269891e+00 1.013174e+01
    endloop
  endfacet
  facet normal -2.788046e-01 4.089653e-01 8.689162e-01
    outer loop
      vertex   -3.057374e+00 4.239152e+00 1.013174e+01
      vertex   -3.012285e+00 4.269891e+00 1.013174e+01
      vertex   -3.045046e+00 4.316330e+00 1.009937e+01
    endloop
  endfacet
  facet normal -2.758137e-01 4.110537e-01 8.688853e-01
    outer loop
      vertex   -3.045046e+00 4.316330e+00 1.009937e+01
      vertex   -3.012285e+00 4.269891e+00 1.013174e+01
      vertex   -3.000000e+00 4.275988e+00 1.013275e+01
    endloop
  endfacet
  facet normal -2.749142e-01 4.119448e-01 8.687483e-01
    outer loop
      vertex   -3.045046e+00 4.316330e+00 1.009937e+01
      vertex   -3.000000e+00 4.275988e+00 1.013275e+01
      vertex   -3.000000e+00 4.344389e+00 1.010032e+01
    endloop
  endfacet
  facet normal -2.734240e-01 4.056942e-01 8.721534e-01
    outer loop
      vertex   -3.000000e+00 4.207346e+00 1.016468e+01
      vertex   -3.000000e+00 4.275988e+00 1.013275e+01
      vertex   -3.012285e+00 4.269891e+00 1.013174e+01
    endloop
  endfacet
  facet normal -2.775175e-01 4.162211e-01 8.658776e-01
    outer loop
      vertex   -3.045046e+00 4.316330e+00 1.009937e+01
      vertex   -3.000000e+00 4.344389e+00 1.010032e+01
      vertex   -3.031514e+00 4.393475e+00 1.006662e+01
    endloop
  endfacet
  facet normal -2.740693e-01 4.184511e-01 8.659011e-01
    outer loop
      vertex   -3.031514e+00 4.393475e+00 1.006662e+01
      vertex   -3.000000e+00 4.344389e+00 1.010032e+01
      vertex   -3.000000e+00 4.412548e+00 1.006738e+01
    endloop
  endfacet
  facet normal -2.818696e-01 3.871989e-01 8.778534e-01
    outer loop
      vertex   -3.077999e+00 4.085076e+00 1.019534e+01
      vertex   -3.086295e+00 4.008226e+00 1.022657e+01
      vertex   -3.043544e+00 4.039348e+00 1.022657e+01
    endloop
  endfacet
  facet normal -2.804422e-01 4.205554e-01 8.628357e-01
    outer loop
      vertex   -3.077729e+00 4.362658e+00 1.006662e+01
      vertex   -3.063774e+00 4.439920e+00 1.003350e+01
      vertex   -3.110332e+00 4.408873e+00 1.003350e+01
    endloop
  endfacet
  facet normal -2.846875e-01 4.175946e-01 8.628834e-01
    outer loop
      vertex   -3.123798e+00 4.331251e+00 1.006662e+01
      vertex   -3.077729e+00 4.362658e+00 1.006662e+01
      vertex   -3.110332e+00 4.408873e+00 1.003350e+01
    endloop
  endfacet
  facet normal -2.889198e-01 4.145771e-01 8.629317e-01
    outer loop
      vertex   -3.169570e+00 4.299352e+00 1.006662e+01
      vertex   -3.123798e+00 4.331251e+00 1.006662e+01
      vertex   -3.156889e+00 4.377133e+00 1.003350e+01
    endloop
  endfacet
  facet normal -2.846875e-01 4.175946e-01 8.628834e-01
    outer loop
      vertex   -3.156889e+00 4.377133e+00 1.003350e+01
      vertex   -3.123798e+00 4.331251e+00 1.006662e+01
      vertex   -3.110332e+00 4.408873e+00 1.003350e+01
    endloop
  endfacet
  facet normal -2.829488e-01 4.060092e-01 8.689629e-01
    outer loop
      vertex   -3.102171e+00 4.207933e+00 1.013174e+01
      vertex   -3.090626e+00 4.285257e+00 1.009937e+01
      vertex   -3.135911e+00 4.253697e+00 1.009937e+01
    endloop
  endfacet
  facet normal -2.799494e-01 4.017056e-01 8.719295e-01
    outer loop
      vertex   -3.068353e+00 4.162063e+00 1.016373e+01
      vertex   -3.024046e+00 4.192941e+00 1.016373e+01
      vertex   -3.057374e+00 4.239152e+00 1.013174e+01
    endloop
  endfacet
  facet normal -2.931253e-01 4.115121e-01 8.629805e-01
    outer loop
      vertex   -3.215044e+00 4.266961e+00 1.006662e+01
      vertex   -3.169570e+00 4.299352e+00 1.006662e+01
      vertex   -3.203148e+00 4.344896e+00 1.003350e+01
    endloop
  endfacet
  facet normal -2.889199e-01 4.145771e-01 8.629317e-01
    outer loop
      vertex   -3.203148e+00 4.344896e+00 1.003350e+01
      vertex   -3.169570e+00 4.299352e+00 1.006662e+01
      vertex   -3.156889e+00 4.377133e+00 1.003350e+01
    endloop
  endfacet
  facet normal -2.870667e-01 4.030067e-01 8.690100e-01
    outer loop
      vertex   -3.102171e+00 4.207933e+00 1.013174e+01
      vertex   -3.135911e+00 4.253697e+00 1.009937e+01
      vertex   -3.146680e+00 4.176229e+00 1.013174e+01
    endloop
  endfacet
  facet normal -2.870667e-01 4.030067e-01 8.690100e-01
    outer loop
      vertex   -3.146680e+00 4.176229e+00 1.013174e+01
      vertex   -3.135911e+00 4.253697e+00 1.009937e+01
      vertex   -3.180903e+00 4.221649e+00 1.009937e+01
    endloop
  endfacet
  facet normal -2.911578e-01 3.999579e-01 8.690574e-01
    outer loop
      vertex   -3.146680e+00 4.176229e+00 1.013174e+01
      vertex   -3.180903e+00 4.221649e+00 1.009937e+01
      vertex   -3.190880e+00 4.144053e+00 1.013174e+01
    endloop
  endfacet
  facet normal -2.911578e-01 3.999579e-01 8.690574e-01
    outer loop
      vertex   -3.190880e+00 4.144053e+00 1.013174e+01
      vertex   -3.180903e+00 4.221649e+00 1.009937e+01
      vertex   -3.225584e+00 4.189123e+00 1.009937e+01
    endloop
  endfacet
  facet normal -2.952209e-01 3.968637e-01 8.691052e-01
    outer loop
      vertex   -3.190880e+00 4.144053e+00 1.013174e+01
      vertex   -3.225584e+00 4.189123e+00 1.009937e+01
      vertex   -3.234768e+00 4.111405e+00 1.013174e+01
    endloop
  endfacet
  facet normal -2.952209e-01 3.968637e-01 8.691052e-01
    outer loop
      vertex   -3.234768e+00 4.111405e+00 1.013174e+01
      vertex   -3.225584e+00 4.189123e+00 1.009937e+01
      vertex   -3.269949e+00 4.156120e+00 1.009937e+01
    endloop
  endfacet
  facet normal -2.992556e-01 3.937241e-01 8.691533e-01
    outer loop
      vertex   -3.234768e+00 4.111405e+00 1.013174e+01
      vertex   -3.269949e+00 4.156120e+00 1.009937e+01
      vertex   -3.278336e+00 4.078291e+00 1.013174e+01
    endloop
  endfacet
  facet normal -2.992556e-01 3.937241e-01 8.691533e-01
    outer loop
      vertex   -3.278336e+00 4.078291e+00 1.013174e+01
      vertex   -3.269949e+00 4.156120e+00 1.009937e+01
      vertex   -3.313990e+00 4.122646e+00 1.009937e+01
    endloop
  endfacet
  facet normal -3.032610e-01 3.905397e-01 8.692017e-01
    outer loop
      vertex   -3.278336e+00 4.078291e+00 1.013174e+01
      vertex   -3.313990e+00 4.122646e+00 1.009937e+01
      vertex   -3.321575e+00 4.044714e+00 1.013174e+01
    endloop
  endfacet
  facet normal -3.032610e-01 3.905397e-01 8.692017e-01
    outer loop
      vertex   -3.321575e+00 4.044714e+00 1.013174e+01
      vertex   -3.313990e+00 4.122646e+00 1.009937e+01
      vertex   -3.357700e+00 4.088704e+00 1.009937e+01
    endloop
  endfacet
  facet normal -3.072364e-01 3.873108e-01 8.692503e-01
    outer loop
      vertex   -3.321575e+00 4.044714e+00 1.013174e+01
      vertex   -3.357700e+00 4.088704e+00 1.009937e+01
      vertex   -3.364480e+00 4.010681e+00 1.013174e+01
    endloop
  endfacet
  facet normal -2.779097e-01 3.901518e-01 8.778085e-01
    outer loop
      vertex   -3.043544e+00 4.039348e+00 1.022657e+01
      vertex   -3.000491e+00 4.070015e+00 1.022657e+01
      vertex   -3.034459e+00 4.116090e+00 1.019534e+01
    endloop
  endfacet
  facet normal -2.779098e-01 3.901518e-01 8.778085e-01
    outer loop
      vertex   -3.043544e+00 4.039348e+00 1.022657e+01
      vertex   -3.034459e+00 4.116090e+00 1.019534e+01
      vertex   -3.077999e+00 4.085076e+00 1.019534e+01
    endloop
  endfacet
  facet normal -2.973034e-01 4.084000e-01 8.630296e-01
    outer loop
      vertex   -3.260205e+00 4.234085e+00 1.006662e+01
      vertex   -3.215044e+00 4.266961e+00 1.006662e+01
      vertex   -3.249102e+00 4.312162e+00 1.003350e+01
    endloop
  endfacet
  facet normal -2.931254e-01 4.115121e-01 8.629805e-01
    outer loop
      vertex   -3.249102e+00 4.312162e+00 1.003350e+01
      vertex   -3.215044e+00 4.266961e+00 1.006662e+01
      vertex   -3.203148e+00 4.344896e+00 1.003350e+01
    endloop
  endfacet
  facet normal -2.880708e-01 3.957174e-01 8.720223e-01
    outer loop
      vertex   -3.156096e+00 4.098878e+00 1.016373e+01
      vertex   -3.112378e+00 4.130704e+00 1.016373e+01
      vertex   -3.146680e+00 4.176229e+00 1.013174e+01
    endloop
  endfacet
  facet normal -2.840234e-01 3.987343e-01 8.719757e-01
    outer loop
      vertex   -3.146680e+00 4.176229e+00 1.013174e+01
      vertex   -3.112378e+00 4.130704e+00 1.016373e+01
      vertex   -3.102171e+00 4.207933e+00 1.013174e+01
    endloop
  endfacet
  facet normal -2.880708e-01 3.957174e-01 8.720223e-01
    outer loop
      vertex   -3.156096e+00 4.098878e+00 1.016373e+01
      vertex   -3.146680e+00 4.176229e+00 1.013174e+01
      vertex   -3.190880e+00 4.144053e+00 1.013174e+01
    endloop
  endfacet
  facet normal -3.014530e-01 4.052414e-01 8.630791e-01
    outer loop
      vertex   -3.305046e+00 4.200728e+00 1.006662e+01
      vertex   -3.260205e+00 4.234085e+00 1.006662e+01
      vertex   -3.294741e+00 4.278938e+00 1.003350e+01
    endloop
  endfacet
  facet normal -2.973034e-01 4.084000e-01 8.630296e-01
    outer loop
      vertex   -3.294741e+00 4.278938e+00 1.003350e+01
      vertex   -3.260205e+00 4.234085e+00 1.006662e+01
      vertex   -3.249102e+00 4.312162e+00 1.003350e+01
    endloop
  endfacet
  facet normal -2.920906e-01 3.926555e-01 8.720692e-01
    outer loop
      vertex   -3.199506e+00 4.066586e+00 1.016373e+01
      vertex   -3.156096e+00 4.098878e+00 1.016373e+01
      vertex   -3.190880e+00 4.144053e+00 1.013174e+01
    endloop
  endfacet
  facet normal -2.920906e-01 3.926555e-01 8.720692e-01
    outer loop
      vertex   -3.199506e+00 4.066586e+00 1.016373e+01
      vertex   -3.190880e+00 4.144053e+00 1.013174e+01
      vertex   -3.234768e+00 4.111405e+00 1.013174e+01
    endloop
  endfacet
  facet normal -3.055736e-01 4.020365e-01 8.631289e-01
    outer loop
      vertex   -3.349560e+00 4.166895e+00 1.006662e+01
      vertex   -3.305046e+00 4.200728e+00 1.006662e+01
      vertex   -3.340057e+00 4.245228e+00 1.003350e+01
    endloop
  endfacet
  facet normal -3.014530e-01 4.052414e-01 8.630791e-01
    outer loop
      vertex   -3.340057e+00 4.245228e+00 1.003350e+01
      vertex   -3.305046e+00 4.200728e+00 1.006662e+01
      vertex   -3.294741e+00 4.278938e+00 1.003350e+01
    endloop
  endfacet
  facet normal -2.960821e-01 3.895488e-01 8.721165e-01
    outer loop
      vertex   -3.242598e+00 4.033833e+00 1.016373e+01
      vertex   -3.199506e+00 4.066586e+00 1.016373e+01
      vertex   -3.234768e+00 4.111405e+00 1.013174e+01
    endloop
  endfacet
  facet normal -2.960821e-01 3.895488e-01 8.721165e-01
    outer loop
      vertex   -3.242598e+00 4.033833e+00 1.016373e+01
      vertex   -3.234768e+00 4.111405e+00 1.013174e+01
      vertex   -3.278336e+00 4.078291e+00 1.013174e+01
    endloop
  endfacet
  facet normal -3.096643e-01 3.987858e-01 8.631790e-01
    outer loop
      vertex   -3.393739e+00 4.132589e+00 1.006662e+01
      vertex   -3.349560e+00 4.166895e+00 1.006662e+01
      vertex   -3.385043e+00 4.211036e+00 1.003350e+01
    endloop
  endfacet
  facet normal -3.055736e-01 4.020365e-01 8.631289e-01
    outer loop
      vertex   -3.385043e+00 4.211036e+00 1.003350e+01
      vertex   -3.349560e+00 4.166895e+00 1.006662e+01
      vertex   -3.340057e+00 4.245228e+00 1.003350e+01
    endloop
  endfacet
  facet normal -3.000447e-01 3.863977e-01 8.721640e-01
    outer loop
      vertex   -3.285367e+00 4.000623e+00 1.016373e+01
      vertex   -3.242598e+00 4.033833e+00 1.016373e+01
      vertex   -3.278336e+00 4.078291e+00 1.013174e+01
    endloop
  endfacet
  facet normal -3.000447e-01 3.863977e-01 8.721640e-01
    outer loop
      vertex   -3.285367e+00 4.000623e+00 1.016373e+01
      vertex   -3.278336e+00 4.078291e+00 1.013174e+01
      vertex   -3.321575e+00 4.044714e+00 1.013174e+01
    endloop
  endfacet
  facet normal -3.137244e-01 3.954897e-01 8.632293e-01
    outer loop
      vertex   -3.437575e+00 4.097816e+00 1.006662e+01
      vertex   -3.393739e+00 4.132589e+00 1.006662e+01
      vertex   -3.429690e+00 4.176367e+00 1.003350e+01
    endloop
  endfacet
  facet normal -3.096643e-01 3.987858e-01 8.631790e-01
    outer loop
      vertex   -3.429690e+00 4.176367e+00 1.003350e+01
      vertex   -3.393739e+00 4.132589e+00 1.006662e+01
      vertex   -3.385043e+00 4.211036e+00 1.003350e+01
    endloop
  endfacet
  facet normal -3.039776e-01 3.832026e-01 8.722118e-01
    outer loop
      vertex   -3.364480e+00 4.010681e+00 1.013174e+01
      vertex   -3.285367e+00 4.000623e+00 1.016373e+01
      vertex   -3.321575e+00 4.044714e+00 1.013174e+01
    endloop
  endfacet
  facet normal -3.177612e-01 3.921420e-01 8.632801e-01
    outer loop
      vertex   -3.481232e+00 4.062440e+00 1.006662e+01
      vertex   -3.437575e+00 4.097816e+00 1.006662e+01
      vertex   -3.473991e+00 4.141225e+00 1.003350e+01
    endloop
  endfacet
  facet normal -3.137244e-01 3.954897e-01 8.632293e-01
    outer loop
      vertex   -3.473991e+00 4.141225e+00 1.003350e+01
      vertex   -3.437575e+00 4.097816e+00 1.006662e+01
      vertex   -3.429690e+00 4.176367e+00 1.003350e+01
    endloop
  endfacet
  facet normal -3.217579e-01 3.887493e-01 8.633341e-01
    outer loop
      vertex   -3.524261e+00 4.026826e+00 1.006662e+01
      vertex   -3.481232e+00 4.062440e+00 1.006662e+01
      vertex   -3.518229e+00 4.105377e+00 1.003350e+01
    endloop
  endfacet
  facet normal -3.177700e-01 3.921415e-01 8.632770e-01
    outer loop
      vertex   -3.518229e+00 4.105377e+00 1.003350e+01
      vertex   -3.481232e+00 4.062440e+00 1.006662e+01
      vertex   -3.473991e+00 4.141225e+00 1.003350e+01
    endloop
  endfacet
  facet normal -3.217754e-01 3.887481e-01 8.633281e-01
    outer loop
      vertex   -3.524261e+00 4.026826e+00 1.006662e+01
      vertex   -3.518229e+00 4.105377e+00 1.003350e+01
      vertex   -3.561712e+00 4.069385e+00 1.003350e+01
    endloop
  endfacet
  facet normal 1.000000e+00 0.000000e+00 -0.000000e+00
    outer loop
      vertex   -3.000000e+00 4.084796e+00 1.011762e+01
      vertex   -3.000000e+00 4.138466e+00 1.019610e+01
      vertex   -3.000000e+00 4.000000e+00 1.015529e+01
    endloop
  endfacet
  facet normal 1.000000e+00 -2.552167e-15 8.659087e-15
    outer loop
      vertex   -3.000000e+00 4.000000e+00 1.015529e+01
      vertex   -3.000000e+00 4.138466e+00 1.019610e+01
      vertex   -3.000000e+00 4.069350e+00 1.022702e+01
    endloop
  endfacet
  facet normal 1.000000e+00 6.403620e-15 -0.000000e+00
    outer loop
      vertex   -3.000000e+00 4.000000e+00 1.015529e+01
      vertex   -3.000000e+00 4.069350e+00 1.022702e+01
      vertex   -3.000000e+00 4.000000e+00 1.025742e+01
    endloop
  endfacet
  facet normal 1.000000e+00 0.000000e+00 0.000000e+00
    outer loop
      vertex   -3.000000e+00 4.138466e+00 1.019610e+01
      vertex   -3.000000e+00 4.084796e+00 1.011762e+01
      vertex   -3.000000e+00 4.207346e+00 1.016468e+01
    endloop
  endfacet
  facet normal 1.000000e+00 0.000000e+00 0.000000e+00
    outer loop
      vertex   -3.000000e+00 4.207346e+00 1.016468e+01
      vertex   -3.000000e+00 4.084796e+00 1.011762e+01
      vertex   -3.000000e+00 4.169236e+00 1.007918e+01
    endloop
  endfacet
  facet normal 1.000000e+00 0.000000e+00 0.000000e+00
    outer loop
      vertex   -3.000000e+00 4.207346e+00 1.016468e+01
      vertex   -3.000000e+00 4.169236e+00 1.007918e+01
      vertex   -3.000000e+00 4.275988e+00 1.013275e+01
    endloop
  endfacet
  facet normal 1.000000e+00 0.000000e+00 0.000000e+00
    outer loop
      vertex   -3.000000e+00 4.275988e+00 1.013275e+01
      vertex   -3.000000e+00 4.169236e+00 1.007918e+01
      vertex   -3.000000e+00 4.344389e+00 1.010032e+01
    endloop
  endfacet
  facet normal 1.000000e+00 0.000000e+00 0.000000e+00
    outer loop
      vertex   -3.000000e+00 4.344389e+00 1.010032e+01
      vertex   -3.000000e+00 4.169236e+00 1.007918e+01
      vertex   -3.000000e+00 4.253316e+00 1.003997e+01
    endloop
  endfacet
  facet normal 1.000000e+00 0.000000e+00 0.000000e+00
    outer loop
      vertex   -3.000000e+00 4.344389e+00 1.010032e+01
      vertex   -3.000000e+00 4.253316e+00 1.003997e+01
      vertex   -3.000000e+00 4.412548e+00 1.006738e+01
    endloop
  endfacet
  facet normal 1.000000e+00 0.000000e+00 0.000000e+00
    outer loop
      vertex   -3.000000e+00 4.412548e+00 1.006738e+01
      vertex   -3.000000e+00 4.253316e+00 1.003997e+01
      vertex   -3.000000e+00 4.337032e+00 1.000000e+01
    endloop
  endfacet
  facet normal 1.000000e+00 0.000000e+00 0.000000e+00
    outer loop
      vertex   -3.000000e+00 4.412548e+00 1.006738e+01
      vertex   -3.000000e+00 4.337032e+00 1.000000e+01
      vertex   -3.000000e+00 4.480460e+00 1.003394e+01
    endloop
  endfacet
  facet normal 1.000000e+00 0.000000e+00 0.000000e+00
    outer loop
      vertex   -3.000000e+00 4.480460e+00 1.003394e+01
      vertex   -3.000000e+00 4.337032e+00 1.000000e+01
      vertex   -3.000000e+00 4.548125e+00 1.000000e+01
    endloop
  endfacet
  facet normal 0.000000e+00 0.000000e+00 -1.000000e+00
    outer loop
      vertex   -3.058889e+00 4.297554e+00 1.000000e+01
      vertex   -3.190581e+00 4.422429e+00 1.000000e+01
      vertex   -3.000000e+00 4.337032e+00 1.000000e+01
    endloop
  endfacet
  facet normal 0.000000e+00 0.000000e+00 -1.000000e+00
    outer loop
      vertex   -3.000000e+00 4.337032e+00 1.000000e+01
      vertex   -3.190581e+00 4.422429e+00 1.000000e+01
      vertex   -3.143437e+00 4.454578e+00 1.000000e+01
    endloop
  endfacet
  facet normal 0.000000e+00 0.000000e+00 -1.000000e+00
    outer loop
      vertex   -3.000000e+00 4.337032e+00 1.000000e+01
      vertex   -3.143437e+00 4.454578e+00 1.000000e+01
      vertex   -3.095957e+00 4.486246e+00 1.000000e+01
    endloop
  endfacet
  facet normal 0.000000e+00 -0.000000e+00 -1.000000e+00
    outer loop
      vertex   -3.190581e+00 4.422429e+00 1.000000e+01
      vertex   -3.058889e+00 4.297554e+00 1.000000e+01
      vertex   -3.237384e+00 4.389801e+00 1.000000e+01
    endloop
  endfacet
  facet normal 0.000000e+00 0.000000e+00 -1.000000e+00
    outer loop
      vertex   -3.237384e+00 4.389801e+00 1.000000e+01
      vertex   -3.058889e+00 4.297554e+00 1.000000e+01
      vertex   -3.117240e+00 4.257308e+00 1.000000e+01
    endloop
  endfacet
  facet normal 0.000000e+00 -0.000000e+00 -1.000000e+00
    outer loop
      vertex   -3.237384e+00 4.389801e+00 1.000000e+01
      vertex   -3.117240e+00 4.257308e+00 1.000000e+01
      vertex   -3.283842e+00 4.356696e+00 1.000000e+01
    endloop
  endfacet
  facet normal 0.000000e+00 0.000000e+00 -1.000000e+00
    outer loop
      vertex   -3.283842e+00 4.356696e+00 1.000000e+01
      vertex   -3.117240e+00 4.257308e+00 1.000000e+01
      vertex   -3.175045e+00 4.216300e+00 1.000000e+01
    endloop
  endfacet
  facet normal 0.000000e+00 -0.000000e+00 -1.000000e+00
    outer loop
      vertex   -3.283842e+00 4.356696e+00 1.000000e+01
      vertex   -3.175045e+00 4.216300e+00 1.000000e+01
      vertex   -3.329952e+00 4.323118e+00 1.000000e+01
    endloop
  endfacet
  facet normal 0.000000e+00 0.000000e+00 -1.000000e+00
    outer loop
      vertex   -3.329952e+00 4.323118e+00 1.000000e+01
      vertex   -3.175045e+00 4.216300e+00 1.000000e+01
      vertex   -3.232296e+00 4.174534e+00 1.000000e+01
    endloop
  endfacet
  facet normal 0.000000e+00 -0.000000e+00 -1.000000e+00
    outer loop
      vertex   -3.329952e+00 4.323118e+00 1.000000e+01
      vertex   -3.232296e+00 4.174534e+00 1.000000e+01
      vertex   -3.375709e+00 4.289068e+00 1.000000e+01
    endloop
  endfacet
  facet normal 0.000000e+00 -0.000000e+00 -1.000000e+00
    outer loop
      vertex   -3.375709e+00 4.289068e+00 1.000000e+01
      vertex   -3.232296e+00 4.174534e+00 1.000000e+01
      vertex   -3.421110e+00 4.254549e+00 1.000000e+01
    endloop
  endfacet
  facet normal 0.000000e+00 0.000000e+00 -1.000000e+00
    outer loop
      vertex   -3.421110e+00 4.254549e+00 1.000000e+01
      vertex   -3.232296e+00 4.174534e+00 1.000000e+01
      vertex   -3.288984e+00 4.132016e+00 1.000000e+01
    endloop
  endfacet
  facet normal 0.000000e+00 -0.000000e+00 -1.000000e+00
    outer loop
      vertex   -3.421110e+00 4.254549e+00 1.000000e+01
      vertex   -3.288984e+00 4.132016e+00 1.000000e+01
      vertex   -3.466151e+00 4.219563e+00 1.000000e+01
    endloop
  endfacet
  facet normal 0.000000e+00 0.000000e+00 -1.000000e+00
    outer loop
      vertex   -3.466151e+00 4.219563e+00 1.000000e+01
      vertex   -3.288984e+00 4.132016e+00 1.000000e+01
      vertex   -3.345101e+00 4.088751e+00 1.000000e+01
    endloop
  endfacet
  facet normal 0.000000e+00 -0.000000e+00 -1.000000e+00
    outer loop
      vertex   -3.466151e+00 4.219563e+00 1.000000e+01
      vertex   -3.345101e+00 4.088751e+00 1.000000e+01
      vertex   -3.510827e+00 4.184114e+00 1.000000e+01
    endloop
  endfacet
  facet normal 0.000000e+00 0.000000e+00 -1.000000e+00
    outer loop
      vertex   -3.510827e+00 4.184114e+00 1.000000e+01
      vertex   -3.345101e+00 4.088751e+00 1.000000e+01
      vertex   -3.400641e+00 4.044744e+00 1.000000e+01
    endloop
  endfacet
  facet normal 0.000000e+00 -0.000000e+00 -1.000000e+00
    outer loop
      vertex   -3.510827e+00 4.184114e+00 1.000000e+01
      vertex   -3.400641e+00 4.044744e+00 1.000000e+01
      vertex   -3.555136e+00 4.148204e+00 1.000000e+01
    endloop
  endfacet
  facet normal 0.000000e+00 -0.000000e+00 -1.000000e+00
    outer loop
      vertex   -3.555136e+00 4.148204e+00 1.000000e+01
      vertex   -3.400641e+00 4.044744e+00 1.000000e+01
      vertex   -3.599072e+00 4.111835e+00 1.000000e+01
    endloop
  endfacet
  facet normal 0.000000e+00 0.000000e+00 -1.000000e+00
    outer loop
      vertex   -3.599072e+00 4.111835e+00 1.000000e+01
      vertex   -3.400641e+00 4.044744e+00 1.000000e+01
      vertex   -3.455594e+00 4.000000e+00 1.000000e+01
    endloop
  endfacet
  facet normal 0.000000e+00 -0.000000e+00 -1.000000e+00
    outer loop
      vertex   -3.599072e+00 4.111835e+00 1.000000e+01
      vertex   -3.455594e+00 4.000000e+00 1.000000e+01
      vertex   -3.642632e+00 4.075009e+00 1.000000e+01
    endloop
  endfacet
  facet normal 0.000000e+00 -0.000000e+00 -1.000000e+00
    outer loop
      vertex   -3.642632e+00 4.075009e+00 1.000000e+01
      vertex   -3.455594e+00 4.000000e+00 1.000000e+01
      vertex   -3.685813e+00 4.037730e+00 1.000000e+01
    endloop
  endfacet
  facet normal 0.000000e+00 -0.000000e+00 -1.000000e+00
    outer loop
      vertex   -3.685813e+00 4.037730e+00 1.000000e+01
      vertex   -3.455594e+00 4.000000e+00 1.000000e+01
      vertex   -3.728610e+00 4.000000e+00 1.000000e+01
    endloop
  endfacet
  facet normal 0.000000e+00 0.000000e+00 -1.000000e+00
    outer loop
      vertex   -3.095957e+00 4.486246e+00 1.000000e+01
      vertex   -3.048143e+00 4.517429e+00 1.000000e+01
      vertex   -3.000000e+00 4.337032e+00 1.000000e+01
    endloop
  endfacet
  facet normal 0.000000e+00 0.000000e+00 -1.000000e+00
    outer loop
      vertex   -3.000000e+00 4.337032e+00 1.000000e+01
      vertex   -3.048143e+00 4.517429e+00 1.000000e+01
      vertex   -3.000000e+00 4.548125e+00 1.000000e+01
    endloop
  endfacet
  facet normal -0.000000e+00 -1.000000e+00 0.000000e+00
    outer loop
      vertex   -3.342382e+00 4.000000e+00 1.004087e+01
      vertex   -3.548336e+00 4.000000e+00 1.006953e+01
      vertex   -3.455594e+00 4.000000e+00 1.000000e+01
    endloop
  endfacet
  facet normal 3.262734e-15 -1.000000e+00 4.352165e-15
    outer loop
      vertex   -3.455594e+00 4.000000e+00 1.000000e+01
      vertex   -3.548336e+00 4.000000e+00 1.006953e+01
      vertex   -3.638642e+00 4.000000e+00 1.003519e+01
    endloop
  endfacet
  facet normal -0.000000e+00 -1.000000e+00 -1.262000e-14
    outer loop
      vertex   -3.455594e+00 4.000000e+00 1.000000e+01
      vertex   -3.638642e+00 4.000000e+00 1.003519e+01
      vertex   -3.728610e+00 4.000000e+00 1.000000e+01
    endloop
  endfacet
  facet normal 0.000000e+00 -1.000000e+00 0.000000e+00
    outer loop
      vertex   -3.548336e+00 4.000000e+00 1.006953e+01
      vertex   -3.342382e+00 4.000000e+00 1.004087e+01
      vertex   -3.457698e+00 4.000000e+00 1.010301e+01
    endloop
  endfacet
  facet normal 0.000000e+00 -1.000000e+00 0.000000e+00
    outer loop
      vertex   -3.457698e+00 4.000000e+00 1.010301e+01
      vertex   -3.342382e+00 4.000000e+00 1.004087e+01
      vertex   -3.228705e+00 4.000000e+00 1.008038e+01
    endloop
  endfacet
  facet normal 0.000000e+00 -1.000000e+00 0.000000e+00
    outer loop
      vertex   -3.457698e+00 4.000000e+00 1.010301e+01
      vertex   -3.228705e+00 4.000000e+00 1.008038e+01
      vertex   -3.366739e+00 4.000000e+00 1.013564e+01
    endloop
  endfacet
  facet normal 0.000000e+00 -1.000000e+00 0.000000e+00
    outer loop
      vertex   -3.366739e+00 4.000000e+00 1.013564e+01
      vertex   -3.228705e+00 4.000000e+00 1.008038e+01
      vertex   -3.275483e+00 4.000000e+00 1.016739e+01
    endloop
  endfacet
  facet normal 0.000000e+00 -1.000000e+00 0.000000e+00
    outer loop
      vertex   -3.275483e+00 4.000000e+00 1.016739e+01
      vertex   -3.228705e+00 4.000000e+00 1.008038e+01
      vertex   -3.114574e+00 4.000000e+00 1.011852e+01
    endloop
  endfacet
  facet normal 9.192978e-15 -1.000000e+00 3.026677e-14
    outer loop
      vertex   -3.275483e+00 4.000000e+00 1.016739e+01
      vertex   -3.114574e+00 4.000000e+00 1.011852e+01
      vertex   -3.183937e+00 4.000000e+00 1.019828e+01
    endloop
  endfacet
  facet normal -5.588516e-15 -1.000000e+00 1.741168e-14
    outer loop
      vertex   -3.183937e+00 4.000000e+00 1.019828e+01
      vertex   -3.114574e+00 4.000000e+00 1.011852e+01
      vertex   -3.000000e+00 4.000000e+00 1.015529e+01
    endloop
  endfacet
  facet normal -1.369605e-14 -1.000000e+00 -1.728209e-14
    outer loop
      vertex   -3.183937e+00 4.000000e+00 1.019828e+01
      vertex   -3.000000e+00 4.000000e+00 1.015529e+01
      vertex   -3.092107e+00 4.000000e+00 1.022829e+01
    endloop
  endfacet
  facet normal 0.000000e+00 -1.000000e+00 0.000000e+00
    outer loop
      vertex   -3.092107e+00 4.000000e+00 1.022829e+01
      vertex   -3.000000e+00 4.000000e+00 1.015529e+01
      vertex   -3.000000e+00 4.000000e+00 1.025742e+01
    endloop
  endfacet
endsolid
