solid ASCII
  facet normal -8.119982e-01 -4.735603e-01 -3.411739e-01
    outer loop
      vertex   9.000000e+00 5.043078e+00 4.000000e+00
      vertex   9.025123e+00 5.000000e+00 4.000000e+00
      vertex   9.000000e+00 5.000000e+00 4.059793e+00
    endloop
  endfacet
  facet normal 8.147595e-01 4.701434e-01 3.393114e-01
    outer loop
      vertex   9.135467e+00 5.000000e+00 4.000000e+00
      vertex   9.102163e+00 5.057716e+00 4.000000e+00
      vertex   9.102568e+00 5.000000e+00 4.078998e+00
    endloop
  endfacet
  facet normal 8.142792e-01 4.706867e-01 3.397107e-01
    outer loop
      vertex   9.102568e+00 5.000000e+00 4.078998e+00
      vertex   9.102163e+00 5.057716e+00 4.000000e+00
      vertex   9.077317e+00 5.043881e+00 4.078724e+00
    endloop
  endfacet
  facet normal 8.122328e-01 4.695491e-01 3.461235e-01
    outer loop
      vertex   9.102568e+00 5.000000e+00 4.078998e+00
      vertex   9.077317e+00 5.043881e+00 4.078724e+00
      vertex   9.069023e+00 5.000000e+00 4.157717e+00
    endloop
  endfacet
  facet normal 8.118051e-01 4.700971e-01 3.463830e-01
    outer loop
      vertex   9.069023e+00 5.000000e+00 4.157717e+00
      vertex   9.077317e+00 5.043881e+00 4.078724e+00
      vertex   9.051947e+00 5.029755e+00 4.157354e+00
    endloop
  endfacet
  facet normal 8.096535e-01 4.689421e-01 3.529229e-01
    outer loop
      vertex   9.069023e+00 5.000000e+00 4.157717e+00
      vertex   9.051947e+00 5.029755e+00 4.157354e+00
      vertex   9.034833e+00 5.000000e+00 4.236153e+00
    endloop
  endfacet
  facet normal 8.092774e-01 4.694952e-01 3.530501e-01
    outer loop
      vertex   9.034833e+00 5.000000e+00 4.236153e+00
      vertex   9.051947e+00 5.029755e+00 4.157354e+00
      vertex   9.026053e+00 5.015338e+00 4.235882e+00
    endloop
  endfacet
  facet normal 8.070217e-01 4.683216e-01 3.597095e-01
    outer loop
      vertex   9.034833e+00 5.000000e+00 4.236153e+00
      vertex   9.026053e+00 5.015338e+00 4.235882e+00
      vertex   9.000000e+00 5.000000e+00 4.314302e+00
    endloop
  endfacet
  facet normal 8.075370e-01 4.674342e-01 3.597071e-01
    outer loop
      vertex   9.000000e+00 5.000000e+00 4.314302e+00
      vertex   9.026053e+00 5.015338e+00 4.235882e+00
      vertex   9.000000e+00 5.029671e+00 4.275746e+00
    endloop
  endfacet
  facet normal 8.062291e-01 4.714336e-01 3.574144e-01
    outer loop
      vertex   9.000000e+00 5.029671e+00 4.275746e+00
      vertex   9.026053e+00 5.015338e+00 4.235882e+00
      vertex   9.000000e+00 5.059063e+00 4.236977e+00
    endloop
  endfacet
  facet normal 8.076132e-01 4.723681e-01 3.530288e-01
    outer loop
      vertex   9.000000e+00 5.059063e+00 4.236977e+00
      vertex   9.026053e+00 5.015338e+00 4.235882e+00
      vertex   9.051947e+00 5.029755e+00 4.157354e+00
    endloop
  endfacet
  facet normal 8.074140e-01 4.729710e-01 3.526770e-01
    outer loop
      vertex   9.000000e+00 5.059063e+00 4.236977e+00
      vertex   9.051947e+00 5.029755e+00 4.157354e+00
      vertex   9.018478e+00 5.086892e+00 4.157354e+00
    endloop
  endfacet
  facet normal 8.094495e-01 4.741633e-01 3.463535e-01
    outer loop
      vertex   9.018478e+00 5.086892e+00 4.157354e+00
      vertex   9.051947e+00 5.029755e+00 4.157354e+00
      vertex   9.077317e+00 5.043881e+00 4.078724e+00
    endloop
  endfacet
  facet normal 8.094485e-01 4.741668e-01 3.463509e-01
    outer loop
      vertex   9.018478e+00 5.086892e+00 4.157354e+00
      vertex   9.077317e+00 5.043881e+00 4.078724e+00
      vertex   9.043741e+00 5.101198e+00 4.078724e+00
    endloop
  endfacet
  facet normal 8.115512e-01 4.753985e-01 3.396778e-01
    outer loop
      vertex   9.043741e+00 5.101198e+00 4.078724e+00
      vertex   9.077317e+00 5.043881e+00 4.078724e+00
      vertex   9.102163e+00 5.057716e+00 4.000000e+00
    endloop
  endfacet
  facet normal 8.115502e-01 4.754019e-01 3.396752e-01
    outer loop
      vertex   9.043741e+00 5.101198e+00 4.078724e+00
      vertex   9.102163e+00 5.057716e+00 4.000000e+00
      vertex   9.068483e+00 5.115211e+00 4.000000e+00
    endloop
  endfacet
  facet normal 8.084350e-01 4.807052e-01 3.396401e-01
    outer loop
      vertex   9.043741e+00 5.101198e+00 4.078724e+00
      vertex   9.068483e+00 5.115211e+00 4.000000e+00
      vertex   9.009791e+00 5.158294e+00 4.078724e+00
    endloop
  endfacet
  facet normal 8.084335e-01 4.807107e-01 3.396359e-01
    outer loop
      vertex   9.009791e+00 5.158294e+00 4.078724e+00
      vertex   9.068483e+00 5.115211e+00 4.000000e+00
      vertex   9.034428e+00 5.172482e+00 4.000000e+00
    endloop
  endfacet
  facet normal 8.067461e-01 4.835489e-01 3.396193e-01
    outer loop
      vertex   9.009791e+00 5.158294e+00 4.078724e+00
      vertex   9.034428e+00 5.172482e+00 4.000000e+00
      vertex   9.000000e+00 5.201823e+00 4.040007e+00
    endloop
  endfacet
  facet normal 8.061099e-01 4.864958e-01 3.369105e-01
    outer loop
      vertex   9.000000e+00 5.201823e+00 4.040007e+00
      vertex   9.034428e+00 5.172482e+00 4.000000e+00
      vertex   9.000000e+00 5.229529e+00 4.000000e+00
    endloop
  endfacet
  facet normal 8.060996e-01 4.840866e-01 3.403873e-01
    outer loop
      vertex   9.000000e+00 5.201823e+00 4.040007e+00
      vertex   9.000000e+00 5.173834e+00 4.079811e+00
      vertex   9.009791e+00 5.158294e+00 4.078724e+00
    endloop
  endfacet
  facet normal 8.048682e-01 4.830009e-01 3.448148e-01
    outer loop
      vertex   9.009791e+00 5.158294e+00 4.078724e+00
      vertex   9.000000e+00 5.173834e+00 4.079811e+00
      vertex   9.000000e+00 5.145563e+00 4.119413e+00
    endloop
  endfacet
  facet normal 8.069683e-01 4.798330e-01 3.443290e-01
    outer loop
      vertex   9.009791e+00 5.158294e+00 4.078724e+00
      vertex   9.000000e+00 5.145563e+00 4.119413e+00
      vertex   9.043741e+00 5.101198e+00 4.078724e+00
    endloop
  endfacet
  facet normal 8.071248e-01 4.780307e-01 3.464624e-01
    outer loop
      vertex   9.043741e+00 5.101198e+00 4.078724e+00
      vertex   9.000000e+00 5.145563e+00 4.119413e+00
      vertex   9.000000e+00 5.117010e+00 4.158808e+00
    endloop
  endfacet
  facet normal 8.069897e-01 4.783593e-01 3.463237e-01
    outer loop
      vertex   9.043741e+00 5.101198e+00 4.078724e+00
      vertex   9.000000e+00 5.117010e+00 4.158808e+00
      vertex   9.018478e+00 5.086892e+00 4.157354e+00
    endloop
  endfacet
  facet normal 8.055618e-01 4.772505e-01 3.511440e-01
    outer loop
      vertex   9.018478e+00 5.086892e+00 4.157354e+00
      vertex   9.000000e+00 5.117010e+00 4.158808e+00
      vertex   9.000000e+00 5.088176e+00 4.197997e+00
    endloop
  endfacet
  facet normal 8.081158e-01 4.719229e-01 3.524735e-01
    outer loop
      vertex   9.018478e+00 5.086892e+00 4.157354e+00
      vertex   9.000000e+00 5.088176e+00 4.197997e+00
      vertex   9.000000e+00 5.059063e+00 4.236977e+00
    endloop
  endfacet
  facet normal 0.000000e+00 -1.000000e+00 0.000000e+00
    outer loop
      vertex   9.025123e+00 5.000000e+00 4.000000e+00
      vertex   9.069023e+00 5.000000e+00 4.157717e+00
      vertex   9.000000e+00 5.000000e+00 4.059793e+00
    endloop
  endfacet
  facet normal 0.000000e+00 -1.000000e+00 0.000000e+00
    outer loop
      vertex   9.000000e+00 5.000000e+00 4.059793e+00
      vertex   9.069023e+00 5.000000e+00 4.157717e+00
      vertex   9.034833e+00 5.000000e+00 4.236153e+00
    endloop
  endfacet
  facet normal 0.000000e+00 -1.000000e+00 0.000000e+00
    outer loop
      vertex   9.000000e+00 5.000000e+00 4.059793e+00
      vertex   9.034833e+00 5.000000e+00 4.236153e+00
      vertex   9.000000e+00 5.000000e+00 4.314302e+00
    endloop
  endfacet
  facet normal 0.000000e+00 -1.000000e+00 0.000000e+00
    outer loop
      vertex   9.135467e+00 5.000000e+00 4.000000e+00
      vertex   9.102568e+00 5.000000e+00 4.078998e+00
      vertex   9.025123e+00 5.000000e+00 4.000000e+00
    endloop
  endfacet
  facet normal 0.000000e+00 -1.000000e+00 0.000000e+00
    outer loop
      vertex   9.025123e+00 5.000000e+00 4.000000e+00
      vertex   9.102568e+00 5.000000e+00 4.078998e+00
      vertex   9.069023e+00 5.000000e+00 4.157717e+00
    endloop
  endfacet
  facet normal 0.000000e+00 0.000000e+00 -1.000000e+00
    outer loop
      vertex   9.000000e+00 5.043078e+00 4.000000e+00
      vertex   9.068483e+00 5.115211e+00 4.000000e+00
      vertex   9.025123e+00 5.000000e+00 4.000000e+00
    endloop
  endfacet
  facet normal 0.000000e+00 0.000000e+00 -1.000000e+00
    outer loop
      vertex   9.025123e+00 5.000000e+00 4.000000e+00
      vertex   9.068483e+00 5.115211e+00 4.000000e+00
      vertex   9.102163e+00 5.057716e+00 4.000000e+00
    endloop
  endfacet
  facet normal 0.000000e+00 0.000000e+00 -1.000000e+00
    outer loop
      vertex   9.025123e+00 5.000000e+00 4.000000e+00
      vertex   9.102163e+00 5.057716e+00 4.000000e+00
      vertex   9.135467e+00 5.000000e+00 4.000000e+00
    endloop
  endfacet
  facet normal 0.000000e+00 0.000000e+00 -1.000000e+00
    outer loop
      vertex   9.000000e+00 5.229529e+00 4.000000e+00
      vertex   9.034428e+00 5.172482e+00 4.000000e+00
      vertex   9.000000e+00 5.043078e+00 4.000000e+00
    endloop
  endfacet
  facet normal 0.000000e+00 0.000000e+00 -1.000000e+00
    outer loop
      vertex   9.000000e+00 5.043078e+00 4.000000e+00
      vertex   9.034428e+00 5.172482e+00 4.000000e+00
      vertex   9.068483e+00 5.115211e+00 4.000000e+00
    endloop
  endfacet
  facet normal -1.000000e+00 0.000000e+00 0.000000e+00
    outer loop
      vertex   9.000000e+00 5.000000e+00 4.059793e+00
      vertex   9.000000e+00 5.117010e+00 4.158808e+00
      vertex   9.000000e+00 5.043078e+00 4.000000e+00
    endloop
  endfacet
  facet normal -1.000000e+00 0.000000e+00 0.000000e+00
    outer loop
      vertex   9.000000e+00 5.043078e+00 4.000000e+00
      vertex   9.000000e+00 5.117010e+00 4.158808e+00
      vertex   9.000000e+00 5.145563e+00 4.119413e+00
    endloop
  endfacet
  facet normal -1.000000e+00 0.000000e+00 0.000000e+00
    outer loop
      vertex   9.000000e+00 5.043078e+00 4.000000e+00
      vertex   9.000000e+00 5.145563e+00 4.119413e+00
      vertex   9.000000e+00 5.173834e+00 4.079811e+00
    endloop
  endfacet
  facet normal -1.000000e+00 -5.986942e-14 -0.000000e+00
    outer loop
      vertex   9.000000e+00 5.000000e+00 4.314302e+00
      vertex   9.000000e+00 5.029671e+00 4.275746e+00
      vertex   9.000000e+00 5.000000e+00 4.059793e+00
    endloop
  endfacet
  facet normal -1.000000e+00 4.197858e-14 -1.399329e-14
    outer loop
      vertex   9.000000e+00 5.000000e+00 4.059793e+00
      vertex   9.000000e+00 5.029671e+00 4.275746e+00
      vertex   9.000000e+00 5.059063e+00 4.236977e+00
    endloop
  endfacet
  facet normal -1.000000e+00 0.000000e+00 0.000000e+00
    outer loop
      vertex   9.000000e+00 5.000000e+00 4.059793e+00
      vertex   9.000000e+00 5.059063e+00 4.236977e+00
      vertex   9.000000e+00 5.088176e+00 4.197997e+00
    endloop
  endfacet
  facet normal -1.000000e+00 0.000000e+00 -0.000000e+00
    outer loop
      vertex   9.000000e+00 5.088176e+00 4.197997e+00
      vertex   9.000000e+00 5.117010e+00 4.158808e+00
      vertex   9.000000e+00 5.000000e+00 4.059793e+00
    endloop
  endfacet
  facet normal -1.000000e+00 0.000000e+00 -0.000000e+00
    outer loop
      vertex   9.000000e+00 5.173834e+00 4.079811e+00
      vertex   9.000000e+00 5.201823e+00 4.040007e+00
      vertex   9.000000e+00 5.043078e+00 4.000000e+00
    endloop
  endfacet
  facet normal -1.000000e+00 0.000000e+00 0.000000e+00
    outer loop
      vertex   9.000000e+00 5.043078e+00 4.000000e+00
      vertex   9.000000e+00 5.201823e+00 4.040007e+00
      vertex   9.000000e+00 5.229529e+00 4.000000e+00
    endloop
  endfacet
endsolid
