solid ASCII
  facet normal -1.249410e-01 5.059579e-02 9.908733e-01
    outer loop
      vertex   4.000000e+00 1.001569e+01 1.327006e+00
      vertex   4.000000e+00 1.006450e+01 1.324513e+00
      vertex   3.980625e+00 1.002340e+01 1.324169e+00
    endloop
  endfacet
  facet normal -1.433003e-01 5.927394e-02 9.879026e-01
    outer loop
      vertex   3.980625e+00 1.002340e+01 1.324169e+00
      vertex   4.000000e+00 1.006450e+01 1.324513e+00
      vertex   4.000000e+00 1.011318e+01 1.321593e+00
    endloop
  endfacet
  facet normal -1.486478e-01 6.040327e-02 9.870437e-01
    outer loop
      vertex   3.980625e+00 1.002340e+01 1.324169e+00
      vertex   4.000000e+00 1.011318e+01 1.321593e+00
      vertex   3.961348e+00 1.003109e+01 1.320795e+00
    endloop
  endfacet
  facet normal -1.659649e-01 6.858890e-02 9.837435e-01
    outer loop
      vertex   3.961348e+00 1.003109e+01 1.320795e+00
      vertex   4.000000e+00 1.011318e+01 1.321593e+00
      vertex   3.981871e+00 1.012043e+01 1.318028e+00
    endloop
  endfacet
  facet normal -1.722520e-01 6.999652e-02 9.825628e-01
    outer loop
      vertex   3.961348e+00 1.003109e+01 1.320795e+00
      vertex   3.981871e+00 1.012043e+01 1.318028e+00
      vertex   3.942179e+00 1.003876e+01 1.316888e+00
    endloop
  endfacet
  facet normal -1.880803e-01 7.773760e-02 9.790723e-01
    outer loop
      vertex   3.942179e+00 1.003876e+01 1.316888e+00
      vertex   3.981871e+00 1.012043e+01 1.318028e+00
      vertex   3.963841e+00 1.012767e+01 1.313990e+00
    endloop
  endfacet
  facet normal -1.956696e-01 7.953351e-02 9.774394e-01
    outer loop
      vertex   3.942179e+00 1.003876e+01 1.316888e+00
      vertex   3.963841e+00 1.012767e+01 1.313990e+00
      vertex   3.923126e+00 1.004641e+01 1.312452e+00
    endloop
  endfacet
  facet normal -2.100344e-01 8.679954e-02 9.738333e-01
    outer loop
      vertex   3.923126e+00 1.004641e+01 1.312452e+00
      vertex   3.963841e+00 1.012767e+01 1.313990e+00
      vertex   3.945917e+00 1.013488e+01 1.309482e+00
    endloop
  endfacet
  facet normal -2.188844e-01 8.900727e-02 9.716827e-01
    outer loop
      vertex   3.923126e+00 1.004641e+01 1.312452e+00
      vertex   3.945917e+00 1.013488e+01 1.309482e+00
      vertex   3.904197e+00 1.005403e+01 1.307489e+00
    endloop
  endfacet
  facet normal -2.318141e-01 9.576965e-02 9.680343e-01
    outer loop
      vertex   3.904197e+00 1.005403e+01 1.307489e+00
      vertex   3.945917e+00 1.013488e+01 1.309482e+00
      vertex   3.928106e+00 1.014206e+01 1.304506e+00
    endloop
  endfacet
  facet normal -2.418809e-01 9.841119e-02 9.653025e-01
    outer loop
      vertex   3.904197e+00 1.005403e+01 1.307489e+00
      vertex   3.928106e+00 1.014206e+01 1.304506e+00
      vertex   3.885398e+00 1.006163e+01 1.302005e+00
    endloop
  endfacet
  facet normal -2.534064e-01 1.046431e-01 9.616834e-01
    outer loop
      vertex   3.885398e+00 1.006163e+01 1.302005e+00
      vertex   3.928106e+00 1.014206e+01 1.304506e+00
      vertex   3.910413e+00 1.014922e+01 1.299065e+00
    endloop
  endfacet
  facet normal -2.646445e-01 1.077390e-01 9.583087e-01
    outer loop
      vertex   3.885398e+00 1.006163e+01 1.302005e+00
      vertex   3.910413e+00 1.014922e+01 1.299065e+00
      vertex   3.866739e+00 1.006919e+01 1.296002e+00
    endloop
  endfacet
  facet normal -2.747995e-01 1.134152e-01 9.547891e-01
    outer loop
      vertex   3.866739e+00 1.006919e+01 1.296002e+00
      vertex   3.910413e+00 1.014922e+01 1.299065e+00
      vertex   3.892846e+00 1.015635e+01 1.293162e+00
    endloop
  endfacet
  facet normal -2.871610e-01 1.169849e-01 9.507119e-01
    outer loop
      vertex   3.866739e+00 1.006919e+01 1.296002e+00
      vertex   3.892846e+00 1.015635e+01 1.293162e+00
      vertex   3.848225e+00 1.007671e+01 1.289484e+00
    endloop
  endfacet
  facet normal -2.959815e-01 1.220816e-01 9.473600e-01
    outer loop
      vertex   3.848225e+00 1.007671e+01 1.289484e+00
      vertex   3.892846e+00 1.015635e+01 1.293162e+00
      vertex   3.875411e+00 1.016345e+01 1.286800e+00
    endloop
  endfacet
  facet normal -3.094173e-01 1.261431e-01 9.425226e-01
    outer loop
      vertex   3.848225e+00 1.007671e+01 1.289484e+00
      vertex   3.875411e+00 1.016345e+01 1.286800e+00
      vertex   3.829865e+00 1.008420e+01 1.282455e+00
    endloop
  endfacet
  facet normal -3.169359e-01 1.306349e-01 9.394073e-01
    outer loop
      vertex   3.829865e+00 1.008420e+01 1.282455e+00
      vertex   3.875411e+00 1.016345e+01 1.286800e+00
      vertex   3.858120e+00 1.017051e+01 1.279985e+00
    endloop
  endfacet
  facet normal -3.313916e-01 1.352054e-01 9.337554e-01
    outer loop
      vertex   3.829865e+00 1.008420e+01 1.282455e+00
      vertex   3.858120e+00 1.017051e+01 1.279985e+00
      vertex   3.811675e+00 1.009164e+01 1.274922e+00
    endloop
  endfacet
  facet normal -3.376268e-01 1.390570e-01 9.309518e-01
    outer loop
      vertex   3.811675e+00 1.009164e+01 1.274922e+00
      vertex   3.858120e+00 1.017051e+01 1.279985e+00
      vertex   3.841008e+00 1.017751e+01 1.272732e+00
    endloop
  endfacet
  facet normal -3.530411e-01 1.441559e-01 9.244355e-01
    outer loop
      vertex   3.811675e+00 1.009164e+01 1.274922e+00
      vertex   3.841008e+00 1.017751e+01 1.272732e+00
      vertex   3.793695e+00 1.009901e+01 1.266905e+00
    endloop
  endfacet
  facet normal -3.580372e-01 1.473473e-01 9.220077e-01
    outer loop
      vertex   3.793695e+00 1.009901e+01 1.266905e+00
      vertex   3.841008e+00 1.017751e+01 1.272732e+00
      vertex   3.824083e+00 1.018446e+01 1.265050e+00
    endloop
  endfacet
  facet normal -3.743520e-01 1.529881e-01 9.145793e-01
    outer loop
      vertex   3.793695e+00 1.009901e+01 1.266905e+00
      vertex   3.824083e+00 1.018446e+01 1.265050e+00
      vertex   3.775933e+00 1.010632e+01 1.258412e+00
    endloop
  endfacet
  facet normal -3.781561e-01 1.555013e-01 9.125883e-01
    outer loop
      vertex   3.775933e+00 1.010632e+01 1.258412e+00
      vertex   3.824083e+00 1.018446e+01 1.265050e+00
      vertex   3.807351e+00 1.019135e+01 1.256942e+00
    endloop
  endfacet
  facet normal -3.953125e-01 1.616957e-01 9.042027e-01
    outer loop
      vertex   3.775933e+00 1.010632e+01 1.258412e+00
      vertex   3.807351e+00 1.019135e+01 1.256942e+00
      vertex   3.758395e+00 1.011356e+01 1.249449e+00
    endloop
  endfacet
  facet normal -3.979741e-01 1.635149e-01 9.027068e-01
    outer loop
      vertex   3.758395e+00 1.011356e+01 1.249449e+00
      vertex   3.807351e+00 1.019135e+01 1.256942e+00
      vertex   3.790817e+00 1.019818e+01 1.248415e+00
    endloop
  endfacet
  facet normal -4.159122e-01 1.702732e-01 8.933219e-01
    outer loop
      vertex   3.758395e+00 1.011356e+01 1.249449e+00
      vertex   3.790817e+00 1.019818e+01 1.248415e+00
      vertex   3.741086e+00 1.012073e+01 1.240024e+00
    endloop
  endfacet
  facet normal -4.174829e-01 1.713842e-01 8.923763e-01
    outer loop
      vertex   3.741086e+00 1.012073e+01 1.240024e+00
      vertex   3.790817e+00 1.019818e+01 1.248415e+00
      vertex   3.774484e+00 1.020495e+01 1.239475e+00
    endloop
  endfacet
  facet normal -4.361418e-01 1.787159e-01 8.819529e-01
    outer loop
      vertex   3.741086e+00 1.012073e+01 1.240024e+00
      vertex   3.774484e+00 1.020495e+01 1.239475e+00
      vertex   3.724012e+00 1.012783e+01 1.230143e+00
    endloop
  endfacet
  facet normal -4.366747e-01 1.791062e-01 8.816100e-01
    outer loop
      vertex   3.724012e+00 1.012783e+01 1.230143e+00
      vertex   3.774484e+00 1.020495e+01 1.239475e+00
      vertex   3.758358e+00 1.021165e+01 1.230126e+00
    endloop
  endfacet
  facet normal -4.554870e-01 1.868122e-01 8.704210e-01
    outer loop
      vertex   3.724012e+00 1.012783e+01 1.230143e+00
      vertex   3.758358e+00 1.021165e+01 1.230126e+00
      vertex   3.742445e+00 1.021829e+01 1.220374e+00
    endloop
  endfacet
  facet normal -4.560457e-01 1.868926e-01 8.701112e-01
    outer loop
      vertex   3.724012e+00 1.012783e+01 1.230143e+00
      vertex   3.742445e+00 1.021829e+01 1.220374e+00
      vertex   3.707179e+00 1.013485e+01 1.219812e+00
    endloop
  endfacet
  facet normal -4.739063e-01 1.945175e-01 8.588223e-01
    outer loop
      vertex   3.707179e+00 1.013485e+01 1.219812e+00
      vertex   3.742445e+00 1.021829e+01 1.220374e+00
      vertex   3.726747e+00 1.022485e+01 1.210225e+00
    endloop
  endfacet
  facet normal -4.756240e-01 1.947833e-01 8.578119e-01
    outer loop
      vertex   3.707179e+00 1.013485e+01 1.219812e+00
      vertex   3.726747e+00 1.022485e+01 1.210225e+00
      vertex   3.690591e+00 1.014179e+01 1.209039e+00
    endloop
  endfacet
  facet normal -4.919915e-01 2.020647e-01 8.468260e-01
    outer loop
      vertex   3.690591e+00 1.014179e+01 1.209039e+00
      vertex   3.726747e+00 1.022485e+01 1.210225e+00
      vertex   3.711272e+00 1.023135e+01 1.199685e+00
    endloop
  endfacet
  facet normal -4.948096e-01 2.025321e-01 8.450706e-01
    outer loop
      vertex   3.690591e+00 1.014179e+01 1.209039e+00
      vertex   3.711272e+00 1.023135e+01 1.199685e+00
      vertex   3.674255e+00 1.014865e+01 1.197831e+00
    endloop
  endfacet
  facet normal -5.097380e-01 2.094523e-01 8.344441e-01
    outer loop
      vertex   3.674255e+00 1.014865e+01 1.197831e+00
      vertex   3.711272e+00 1.023135e+01 1.199685e+00
      vertex   3.696022e+00 1.023777e+01 1.188758e+00
    endloop
  endfacet
  facet normal -5.135970e-01 2.101361e-01 8.319020e-01
    outer loop
      vertex   3.674255e+00 1.014865e+01 1.197831e+00
      vertex   3.696022e+00 1.023777e+01 1.188758e+00
      vertex   3.658176e+00 1.015542e+01 1.186193e+00
    endloop
  endfacet
  facet normal -5.271416e-01 2.166795e-01 8.216883e-01
    outer loop
      vertex   3.658176e+00 1.015542e+01 1.186193e+00
      vertex   3.696022e+00 1.023777e+01 1.188758e+00
      vertex   3.681004e+00 1.024411e+01 1.177451e+00
    endloop
  endfacet
  facet normal -5.319817e-01 2.175934e-01 8.183206e-01
    outer loop
      vertex   3.658176e+00 1.015542e+01 1.186193e+00
      vertex   3.681004e+00 1.024411e+01 1.177451e+00
      vertex   3.642360e+00 1.016211e+01 1.174132e+00
    endloop
  endfacet
  facet normal -5.441988e-01 2.237455e-01 8.085701e-01
    outer loop
      vertex   3.642360e+00 1.016211e+01 1.174132e+00
      vertex   3.681004e+00 1.024411e+01 1.177451e+00
      vertex   3.666222e+00 1.025037e+01 1.165768e+00
    endloop
  endfacet
  facet normal -5.499599e-01 2.249021e-01 8.043402e-01
    outer loop
      vertex   3.642360e+00 1.016211e+01 1.174132e+00
      vertex   3.666222e+00 1.025037e+01 1.165768e+00
      vertex   3.626811e+00 1.016871e+01 1.161656e+00
    endloop
  endfacet
  facet normal -5.609065e-01 2.306498e-01 7.951004e-01
    outer loop
      vertex   3.626811e+00 1.016871e+01 1.161656e+00
      vertex   3.666222e+00 1.025037e+01 1.165768e+00
      vertex   3.651680e+00 1.025656e+01 1.153715e+00
    endloop
  endfacet
  facet normal -5.675285e-01 2.320610e-01 7.899741e-01
    outer loop
      vertex   3.626811e+00 1.016871e+01 1.161656e+00
      vertex   3.651680e+00 1.025656e+01 1.153715e+00
      vertex   3.611536e+00 1.017521e+01 1.148771e+00
    endloop
  endfacet
  facet normal -5.772605e-01 2.373915e-01 7.812910e-01
    outer loop
      vertex   3.611536e+00 1.017521e+01 1.148771e+00
      vertex   3.651680e+00 1.025656e+01 1.153715e+00
      vertex   3.637385e+00 1.026266e+01 1.141300e+00
    endloop
  endfacet
  facet normal -5.846848e-01 2.390687e-01 7.752353e-01
    outer loop
      vertex   3.611536e+00 1.017521e+01 1.148771e+00
      vertex   3.637385e+00 1.026266e+01 1.141300e+00
      vertex   3.596540e+00 1.018162e+01 1.135484e+00
    endloop
  endfacet
  facet normal -5.932385e-01 2.439589e-01 7.671715e-01
    outer loop
      vertex   3.596540e+00 1.018162e+01 1.135484e+00
      vertex   3.637385e+00 1.026266e+01 1.141300e+00
      vertex   3.623363e+00 1.026866e+01 1.128547e+00
    endloop
  endfacet
  facet normal -6.014281e-01 2.459220e-01 7.601360e-01
    outer loop
      vertex   3.596540e+00 1.018162e+01 1.135484e+00
      vertex   3.623363e+00 1.026866e+01 1.128547e+00
      vertex   3.581828e+00 1.018794e+01 1.121801e+00
    endloop
  endfacet
  facet normal -6.088357e-01 2.503498e-01 7.527577e-01
    outer loop
      vertex   3.581828e+00 1.018794e+01 1.121801e+00
      vertex   3.623363e+00 1.026866e+01 1.128547e+00
      vertex   3.609624e+00 1.027457e+01 1.115470e+00
    endloop
  endfacet
  facet normal -6.177409e-01 2.526182e-01 7.447014e-01
    outer loop
      vertex   3.581828e+00 1.018794e+01 1.121801e+00
      vertex   3.609624e+00 1.027457e+01 1.115470e+00
      vertex   3.567423e+00 1.019415e+01 1.107746e+00
    endloop
  endfacet
  facet normal -6.240492e-01 2.565658e-01 7.380627e-01
    outer loop
      vertex   3.567423e+00 1.019415e+01 1.107746e+00
      vertex   3.609624e+00 1.027457e+01 1.115470e+00
      vertex   3.596169e+00 1.028038e+01 1.102075e+00
    endloop
  endfacet
  facet normal -6.336086e-01 2.591538e-01 7.289578e-01
    outer loop
      vertex   3.567423e+00 1.019415e+01 1.107746e+00
      vertex   3.596169e+00 1.028038e+01 1.102075e+00
      vertex   3.553341e+00 1.020024e+01 1.093340e+00
    endloop
  endfacet
  facet normal -6.388766e-01 2.626077e-01 7.231002e-01
    outer loop
      vertex   3.553341e+00 1.020024e+01 1.093340e+00
      vertex   3.596169e+00 1.028038e+01 1.102075e+00
      vertex   3.583002e+00 1.028608e+01 1.088370e+00
    endloop
  endfacet
  facet normal -6.490280e-01 2.655261e-01 7.129225e-01
    outer loop
      vertex   3.553341e+00 1.020024e+01 1.093340e+00
      vertex   3.583002e+00 1.028608e+01 1.088370e+00
      vertex   3.539586e+00 1.020621e+01 1.078592e+00
    endloop
  endfacet
  facet normal -6.533169e-01 2.684745e-01 7.078831e-01
    outer loop
      vertex   3.539586e+00 1.020621e+01 1.078592e+00
      vertex   3.583002e+00 1.028608e+01 1.088370e+00
      vertex   3.570125e+00 1.029168e+01 1.074362e+00
    endloop
  endfacet
  facet normal -6.639985e-01 2.717334e-01 6.966111e-01
    outer loop
      vertex   3.539586e+00 1.020621e+01 1.078592e+00
      vertex   3.570125e+00 1.029168e+01 1.074362e+00
      vertex   3.526161e+00 1.021207e+01 1.063509e+00
    endloop
  endfacet
  facet normal -6.673696e-01 2.741659e-01 6.924239e-01
    outer loop
      vertex   3.526161e+00 1.021207e+01 1.063509e+00
      vertex   3.570125e+00 1.029168e+01 1.074362e+00
      vertex   3.557540e+00 1.029718e+01 1.060056e+00
    endloop
  endfacet
  facet normal -6.785201e-01 2.777748e-01 6.800380e-01
    outer loop
      vertex   3.526161e+00 1.021207e+01 1.063509e+00
      vertex   3.557540e+00 1.029718e+01 1.060056e+00
      vertex   3.513067e+00 1.021781e+01 1.048101e+00
    endloop
  endfacet
  facet normal -6.810350e-01 2.796817e-01 6.767344e-01
    outer loop
      vertex   3.513067e+00 1.021781e+01 1.048101e+00
      vertex   3.557540e+00 1.029718e+01 1.060056e+00
      vertex   3.545250e+00 1.030257e+01 1.045460e+00
    endloop
  endfacet
  facet normal -6.925936e-01 2.836496e-01 6.632172e-01
    outer loop
      vertex   3.513067e+00 1.021781e+01 1.048101e+00
      vertex   3.545250e+00 1.030257e+01 1.045460e+00
      vertex   3.500309e+00 1.022343e+01 1.032374e+00
    endloop
  endfacet
  facet normal -6.943138e-01 2.850219e-01 6.608259e-01
    outer loop
      vertex   3.500309e+00 1.022343e+01 1.032374e+00
      vertex   3.545250e+00 1.030257e+01 1.045460e+00
      vertex   3.533258e+00 1.030785e+01 1.030581e+00
    endloop
  endfacet
  facet normal -7.062204e-01 2.893575e-01 6.461617e-01
    outer loop
      vertex   3.500309e+00 1.022343e+01 1.032374e+00
      vertex   3.533258e+00 1.030785e+01 1.030581e+00
      vertex   3.487889e+00 1.022893e+01 1.016338e+00
    endloop
  endfacet
  facet normal -7.072071e-01 2.901869e-01 6.447090e-01
    outer loop
      vertex   3.487889e+00 1.022893e+01 1.016338e+00
      vertex   3.533258e+00 1.030785e+01 1.030581e+00
      vertex   3.521565e+00 1.031303e+01 1.015426e+00
    endloop
  endfacet
  facet normal -7.194024e-01 2.948987e-01 6.288839e-01
    outer loop
      vertex   3.487889e+00 1.022893e+01 1.016338e+00
      vertex   3.521565e+00 1.031303e+01 1.015426e+00
      vertex   3.475809e+00 1.023430e+01 1.000000e+00
    endloop
  endfacet
  facet normal -7.197165e-01 2.951772e-01 6.283937e-01
    outer loop
      vertex   3.475809e+00 1.023430e+01 1.000000e+00
      vertex   3.521565e+00 1.031303e+01 1.015426e+00
      vertex   3.510173e+00 1.031809e+01 1.000000e+00
    endloop
  endfacet
  facet normal 3.513433e-01 9.302428e-01 1.058594e-01
    outer loop
      vertex   4.000000e+00 1.011318e+01 1.321593e+00
      vertex   4.000000e+00 1.012232e+01 1.241282e+00
      vertex   3.981871e+00 1.012043e+01 1.318028e+00
    endloop
  endfacet
  facet normal 3.498263e-01 9.308533e-01 1.055160e-01
    outer loop
      vertex   3.981871e+00 1.012043e+01 1.318028e+00
      vertex   4.000000e+00 1.012232e+01 1.241282e+00
      vertex   3.963841e+00 1.012767e+01 1.313990e+00
    endloop
  endfacet
  facet normal 3.487359e-01 9.313276e-01 1.049389e-01
    outer loop
      vertex   3.963841e+00 1.012767e+01 1.313990e+00
      vertex   4.000000e+00 1.012232e+01 1.241282e+00
      vertex   3.940823e+00 1.014451e+01 1.240981e+00
    endloop
  endfacet
  facet normal 3.483287e-01 9.314620e-01 1.050983e-01
    outer loop
      vertex   3.963841e+00 1.012767e+01 1.313990e+00
      vertex   3.940823e+00 1.014451e+01 1.240981e+00
      vertex   3.945917e+00 1.013488e+01 1.309482e+00
    endloop
  endfacet
  facet normal 3.466563e-01 9.320621e-01 1.053071e-01
    outer loop
      vertex   3.945917e+00 1.013488e+01 1.309482e+00
      vertex   3.940823e+00 1.014451e+01 1.240981e+00
      vertex   3.928106e+00 1.014206e+01 1.304506e+00
    endloop
  endfacet
  facet normal 3.451056e-01 9.326698e-01 1.050201e-01
    outer loop
      vertex   3.928106e+00 1.014206e+01 1.304506e+00
      vertex   3.940823e+00 1.014451e+01 1.240981e+00
      vertex   3.910413e+00 1.014922e+01 1.299065e+00
    endloop
  endfacet
  facet normal 3.437102e-01 9.332723e-01 1.042406e-01
    outer loop
      vertex   3.910413e+00 1.014922e+01 1.299065e+00
      vertex   3.940823e+00 1.014451e+01 1.240981e+00
      vertex   3.892846e+00 1.015635e+01 1.293162e+00
    endloop
  endfacet
  facet normal 3.434139e-01 9.334154e-01 1.039357e-01
    outer loop
      vertex   3.892846e+00 1.015635e+01 1.293162e+00
      vertex   3.940823e+00 1.014451e+01 1.240981e+00
      vertex   3.878427e+00 1.016747e+01 1.240981e+00
    endloop
  endfacet
  facet normal 3.419829e-01 9.338853e-01 1.044312e-01
    outer loop
      vertex   3.892846e+00 1.015635e+01 1.293162e+00
      vertex   3.878427e+00 1.016747e+01 1.240981e+00
      vertex   3.875411e+00 1.016345e+01 1.286800e+00
    endloop
  endfacet
  facet normal 3.403138e-01 9.345011e-01 1.043754e-01
    outer loop
      vertex   3.875411e+00 1.016345e+01 1.286800e+00
      vertex   3.878427e+00 1.016747e+01 1.240981e+00
      vertex   3.858120e+00 1.017051e+01 1.279985e+00
    endloop
  endfacet
  facet normal 3.389144e-01 9.350957e-01 1.036004e-01
    outer loop
      vertex   3.858120e+00 1.017051e+01 1.279985e+00
      vertex   3.878427e+00 1.016747e+01 1.240981e+00
      vertex   3.841008e+00 1.017751e+01 1.272732e+00
    endloop
  endfacet
  facet normal 3.379580e-01 9.355828e-01 1.023192e-01
    outer loop
      vertex   3.841008e+00 1.017751e+01 1.272732e+00
      vertex   3.878427e+00 1.016747e+01 1.240981e+00
      vertex   3.815974e+00 1.019003e+01 1.240981e+00
    endloop
  endfacet
  facet normal 3.376102e-01 9.356744e-01 1.026296e-01
    outer loop
      vertex   3.841008e+00 1.017751e+01 1.272732e+00
      vertex   3.815974e+00 1.019003e+01 1.240981e+00
      vertex   3.824083e+00 1.018446e+01 1.265050e+00
    endloop
  endfacet
  facet normal 3.354727e-01 9.363465e-01 1.035052e-01
    outer loop
      vertex   3.824083e+00 1.018446e+01 1.265050e+00
      vertex   3.815974e+00 1.019003e+01 1.240981e+00
      vertex   3.807351e+00 1.019135e+01 1.256942e+00
    endloop
  endfacet
  facet normal 3.340737e-01 9.369351e-01 1.027006e-01
    outer loop
      vertex   3.807351e+00 1.019135e+01 1.256942e+00
      vertex   3.815974e+00 1.019003e+01 1.240981e+00
      vertex   3.790817e+00 1.019818e+01 1.248415e+00
    endloop
  endfacet
  facet normal 3.332447e-01 9.376123e-01 9.915223e-02
    outer loop
      vertex   3.790817e+00 1.019818e+01 1.248415e+00
      vertex   3.815974e+00 1.019003e+01 1.240981e+00
      vertex   3.818786e+00 1.019754e+01 1.160509e+00
    endloop
  endfacet
  facet normal 3.339754e-01 9.373274e-01 9.938679e-02
    outer loop
      vertex   3.790817e+00 1.019818e+01 1.248415e+00
      vertex   3.818786e+00 1.019754e+01 1.160509e+00
      vertex   3.774484e+00 1.020495e+01 1.239475e+00
    endloop
  endfacet
  facet normal 3.325682e-01 9.379168e-01 9.854199e-02
    outer loop
      vertex   3.774484e+00 1.020495e+01 1.239475e+00
      vertex   3.818786e+00 1.019754e+01 1.160509e+00
      vertex   3.756232e+00 1.021972e+01 1.160509e+00
    endloop
  endfacet
  facet normal 3.327000e-01 9.378741e-01 9.850352e-02
    outer loop
      vertex   3.774484e+00 1.020495e+01 1.239475e+00
      vertex   3.756232e+00 1.021972e+01 1.160509e+00
      vertex   3.758358e+00 1.021165e+01 1.230126e+00
    endloop
  endfacet
  facet normal 3.308530e-01 9.385135e-01 9.863402e-02
    outer loop
      vertex   3.758358e+00 1.021165e+01 1.230126e+00
      vertex   3.756232e+00 1.021972e+01 1.160509e+00
      vertex   3.742445e+00 1.021829e+01 1.220374e+00
    endloop
  endfacet
  facet normal 3.292458e-01 9.391159e-01 9.827826e-02
    outer loop
      vertex   3.742445e+00 1.021829e+01 1.220374e+00
      vertex   3.756232e+00 1.021972e+01 1.160509e+00
      vertex   3.726747e+00 1.022485e+01 1.210225e+00
    endloop
  endfacet
  facet normal 3.279195e-01 9.396676e-01 9.743472e-02
    outer loop
      vertex   3.726747e+00 1.022485e+01 1.210225e+00
      vertex   3.756232e+00 1.021972e+01 1.160509e+00
      vertex   3.711272e+00 1.023135e+01 1.199685e+00
    endloop
  endfacet
  facet normal 3.271146e-01 9.400552e-01 9.639593e-02
    outer loop
      vertex   3.711272e+00 1.023135e+01 1.199685e+00
      vertex   3.756232e+00 1.021972e+01 1.160509e+00
      vertex   3.693627e+00 1.024150e+01 1.160509e+00
    endloop
  endfacet
  facet normal 3.265120e-01 9.402321e-01 9.671321e-02
    outer loop
      vertex   3.711272e+00 1.023135e+01 1.199685e+00
      vertex   3.693627e+00 1.024150e+01 1.160509e+00
      vertex   3.696022e+00 1.023777e+01 1.188758e+00
    endloop
  endfacet
  facet normal 3.244042e-01 9.409335e-01 9.698471e-02
    outer loop
      vertex   3.696022e+00 1.023777e+01 1.188758e+00
      vertex   3.693627e+00 1.024150e+01 1.160509e+00
      vertex   3.681004e+00 1.024411e+01 1.177451e+00
    endloop
  endfacet
  facet normal 3.231540e-01 9.414675e-01 9.597105e-02
    outer loop
      vertex   3.681004e+00 1.024411e+01 1.177451e+00
      vertex   3.693627e+00 1.024150e+01 1.160509e+00
      vertex   3.666222e+00 1.025037e+01 1.165768e+00
    endloop
  endfacet
  facet normal 3.226544e-01 9.419869e-01 9.249170e-02
    outer loop
      vertex   3.666222e+00 1.025037e+01 1.165768e+00
      vertex   3.693627e+00 1.024150e+01 1.160509e+00
      vertex   3.696159e+00 1.024852e+01 1.080180e+00
    endloop
  endfacet
  facet normal 3.235405e-01 9.416518e-01 9.280890e-02
    outer loop
      vertex   3.666222e+00 1.025037e+01 1.165768e+00
      vertex   3.696159e+00 1.024852e+01 1.080180e+00
      vertex   3.651680e+00 1.025656e+01 1.153715e+00
    endloop
  endfacet
  facet normal 3.222360e-01 9.421820e-01 9.196191e-02
    outer loop
      vertex   3.651680e+00 1.025656e+01 1.153715e+00
      vertex   3.696159e+00 1.024852e+01 1.080180e+00
      vertex   3.637385e+00 1.026266e+01 1.141300e+00
    endloop
  endfacet
  facet normal 3.217391e-01 9.424033e-01 9.143294e-02
    outer loop
      vertex   3.637385e+00 1.026266e+01 1.141300e+00
      vertex   3.696159e+00 1.024852e+01 1.080180e+00
      vertex   3.633464e+00 1.026993e+01 1.080180e+00
    endloop
  endfacet
  facet normal 3.205561e-01 9.427945e-01 9.155536e-02
    outer loop
      vertex   3.637385e+00 1.026266e+01 1.141300e+00
      vertex   3.633464e+00 1.026993e+01 1.080180e+00
      vertex   3.623363e+00 1.026866e+01 1.128547e+00
    endloop
  endfacet
  facet normal 3.187861e-01 9.434286e-01 9.120227e-02
    outer loop
      vertex   3.623363e+00 1.026866e+01 1.128547e+00
      vertex   3.633464e+00 1.026993e+01 1.080180e+00
      vertex   3.609624e+00 1.027457e+01 1.115470e+00
    endloop
  endfacet
  facet normal 3.174965e-01 9.439538e-01 9.026192e-02
    outer loop
      vertex   3.609624e+00 1.027457e+01 1.115470e+00
      vertex   3.633464e+00 1.026993e+01 1.080180e+00
      vertex   3.596169e+00 1.028038e+01 1.102075e+00
    endloop
  endfacet
  facet normal 3.167272e-01 9.443545e-01 8.876035e-02
    outer loop
      vertex   3.596169e+00 1.028038e+01 1.102075e+00
      vertex   3.633464e+00 1.026993e+01 1.080180e+00
      vertex   3.583002e+00 1.028608e+01 1.088370e+00
    endloop
  endfacet
  facet normal 3.163891e-01 9.447287e-01 8.593944e-02
    outer loop
      vertex   3.583002e+00 1.028608e+01 1.088370e+00
      vertex   3.633464e+00 1.026993e+01 1.080180e+00
      vertex   3.633371e+00 1.027725e+01 1.000000e+00
    endloop
  endfacet
  facet normal 3.162087e-01 9.447991e-01 8.582958e-02
    outer loop
      vertex   3.583002e+00 1.028608e+01 1.088370e+00
      vertex   3.633371e+00 1.027725e+01 1.000000e+00
      vertex   3.571832e+00 1.029785e+01 1.000000e+00
    endloop
  endfacet
  facet normal 3.489640e-01 9.318595e-01 9.930795e-02
    outer loop
      vertex   4.000000e+00 1.012232e+01 1.241282e+00
      vertex   4.000000e+00 1.013088e+01 1.160910e+00
      vertex   3.940823e+00 1.014451e+01 1.240981e+00
    endloop
  endfacet
  facet normal 3.488030e-01 9.319337e-01 9.917637e-02
    outer loop
      vertex   3.940823e+00 1.014451e+01 1.240981e+00
      vertex   4.000000e+00 1.013088e+01 1.160910e+00
      vertex   3.943727e+00 1.015199e+01 1.160509e+00
    endloop
  endfacet
  facet normal 3.435819e-01 9.338721e-01 9.916802e-02
    outer loop
      vertex   3.940823e+00 1.014451e+01 1.240981e+00
      vertex   3.943727e+00 1.015199e+01 1.160509e+00
      vertex   3.878427e+00 1.016747e+01 1.240981e+00
    endloop
  endfacet
  facet normal 3.435819e-01 9.338721e-01 9.916802e-02
    outer loop
      vertex   3.878427e+00 1.016747e+01 1.240981e+00
      vertex   3.943727e+00 1.015199e+01 1.160509e+00
      vertex   3.881286e+00 1.017496e+01 1.160509e+00
    endloop
  endfacet
  facet normal 3.380667e-01 9.358837e-01 9.915943e-02
    outer loop
      vertex   3.878427e+00 1.016747e+01 1.240981e+00
      vertex   3.881286e+00 1.017496e+01 1.160509e+00
      vertex   3.815974e+00 1.019003e+01 1.240981e+00
    endloop
  endfacet
  facet normal 3.380667e-01 9.358837e-01 9.915943e-02
    outer loop
      vertex   3.815974e+00 1.019003e+01 1.240981e+00
      vertex   3.881286e+00 1.017496e+01 1.160509e+00
      vertex   3.818786e+00 1.019754e+01 1.160509e+00
    endloop
  endfacet
  facet normal 3.490647e-01 9.325073e-01 9.264909e-02
    outer loop
      vertex   4.000000e+00 1.013088e+01 1.160910e+00
      vertex   4.000000e+00 1.013887e+01 1.080482e+00
      vertex   3.943727e+00 1.015199e+01 1.160509e+00
    endloop
  endfacet
  facet normal 3.489104e-01 9.325770e-01 9.252917e-02
    outer loop
      vertex   3.943727e+00 1.015199e+01 1.160509e+00
      vertex   4.000000e+00 1.013887e+01 1.080482e+00
      vertex   3.946431e+00 1.015895e+01 1.080180e+00
    endloop
  endfacet
  facet normal 3.438029e-01 9.344728e-01 9.252151e-02
    outer loop
      vertex   3.943727e+00 1.015199e+01 1.160509e+00
      vertex   3.946431e+00 1.015895e+01 1.080180e+00
      vertex   3.881286e+00 1.017496e+01 1.160509e+00
    endloop
  endfacet
  facet normal 3.438029e-01 9.344728e-01 9.252151e-02
    outer loop
      vertex   3.881286e+00 1.017496e+01 1.160509e+00
      vertex   3.946431e+00 1.015895e+01 1.080180e+00
      vertex   3.883946e+00 1.018194e+01 1.080180e+00
    endloop
  endfacet
  facet normal 3.382841e-01 9.364855e-01 9.251349e-02
    outer loop
      vertex   3.881286e+00 1.017496e+01 1.160509e+00
      vertex   3.883946e+00 1.018194e+01 1.080180e+00
      vertex   3.818786e+00 1.019754e+01 1.160509e+00
    endloop
  endfacet
  facet normal 3.382841e-01 9.364855e-01 9.251349e-02
    outer loop
      vertex   3.818786e+00 1.019754e+01 1.160509e+00
      vertex   3.883946e+00 1.018194e+01 1.080180e+00
      vertex   3.821404e+00 1.020453e+01 1.080180e+00
    endloop
  endfacet
  facet normal 3.327617e-01 9.384628e-01 9.250559e-02
    outer loop
      vertex   3.818786e+00 1.019754e+01 1.160509e+00
      vertex   3.821404e+00 1.020453e+01 1.080180e+00
      vertex   3.756232e+00 1.021972e+01 1.160509e+00
    endloop
  endfacet
  facet normal 3.327617e-01 9.384628e-01 9.250559e-02
    outer loop
      vertex   3.756232e+00 1.021972e+01 1.160509e+00
      vertex   3.821404e+00 1.020453e+01 1.080180e+00
      vertex   3.758807e+00 1.022672e+01 1.080180e+00
    endloop
  endfacet
  facet normal 3.272361e-01 9.404045e-01 9.249782e-02
    outer loop
      vertex   3.756232e+00 1.021972e+01 1.160509e+00
      vertex   3.758807e+00 1.022672e+01 1.080180e+00
      vertex   3.693627e+00 1.024150e+01 1.160509e+00
    endloop
  endfacet
  facet normal 3.272361e-01 9.404045e-01 9.249782e-02
    outer loop
      vertex   3.693627e+00 1.024150e+01 1.160509e+00
      vertex   3.758807e+00 1.022672e+01 1.080180e+00
      vertex   3.696159e+00 1.024852e+01 1.080180e+00
    endloop
  endfacet
  facet normal 3.491485e-01 9.331138e-01 8.598834e-02
    outer loop
      vertex   4.000000e+00 1.013887e+01 1.080482e+00
      vertex   4.000000e+00 1.014629e+01 1.000000e+00
      vertex   3.946431e+00 1.015895e+01 1.080180e+00
    endloop
  endfacet
  facet normal 3.486031e-01 9.333547e-01 8.558595e-02
    outer loop
      vertex   3.946431e+00 1.015895e+01 1.080180e+00
      vertex   4.000000e+00 1.014629e+01 1.000000e+00
      vertex   3.939213e+00 1.016899e+01 1.000000e+00
    endloop
  endfacet
  facet normal 3.439985e-01 9.350045e-01 8.620717e-02
    outer loop
      vertex   3.946431e+00 1.015895e+01 1.080180e+00
      vertex   3.939213e+00 1.016899e+01 1.000000e+00
      vertex   3.883946e+00 1.018194e+01 1.080180e+00
    endloop
  endfacet
  facet normal 3.432286e-01 9.353411e-01 8.562211e-02
    outer loop
      vertex   3.883946e+00 1.018194e+01 1.080180e+00
      vertex   3.939213e+00 1.016899e+01 1.000000e+00
      vertex   3.878297e+00 1.019135e+01 1.000000e+00
    endloop
  endfacet
  facet normal 3.384779e-01 9.370220e-01 8.615415e-02
    outer loop
      vertex   3.883946e+00 1.018194e+01 1.080180e+00
      vertex   3.878297e+00 1.019135e+01 1.000000e+00
      vertex   3.821404e+00 1.020453e+01 1.080180e+00
    endloop
  endfacet
  facet normal 3.378441e-01 9.372960e-01 8.565936e-02
    outer loop
      vertex   3.821404e+00 1.020453e+01 1.080180e+00
      vertex   3.878297e+00 1.019135e+01 1.000000e+00
      vertex   3.817253e+00 1.021335e+01 1.000000e+00
    endloop
  endfacet
  facet normal 3.329537e-01 9.390040e-01 8.610048e-02
    outer loop
      vertex   3.821404e+00 1.020453e+01 1.080180e+00
      vertex   3.817253e+00 1.021335e+01 1.000000e+00
      vertex   3.758807e+00 1.022672e+01 1.080180e+00
    endloop
  endfacet
  facet normal 3.324497e-01 9.392194e-01 8.569721e-02
    outer loop
      vertex   3.758807e+00 1.022672e+01 1.080180e+00
      vertex   3.817253e+00 1.021335e+01 1.000000e+00
      vertex   3.756083e+00 1.023500e+01 1.000000e+00
    endloop
  endfacet
  facet normal 3.274262e-01 9.409506e-01 8.604663e-02
    outer loop
      vertex   3.758807e+00 1.022672e+01 1.080180e+00
      vertex   3.756083e+00 1.023500e+01 1.000000e+00
      vertex   3.696159e+00 1.024852e+01 1.080180e+00
    endloop
  endfacet
  facet normal 3.270457e-01 9.411113e-01 8.573520e-02
    outer loop
      vertex   3.696159e+00 1.024852e+01 1.080180e+00
      vertex   3.756083e+00 1.023500e+01 1.000000e+00
      vertex   3.694789e+00 1.025630e+01 1.000000e+00
    endloop
  endfacet
  facet normal 3.218957e-01 9.428618e-01 8.599308e-02
    outer loop
      vertex   3.696159e+00 1.024852e+01 1.080180e+00
      vertex   3.694789e+00 1.025630e+01 1.000000e+00
      vertex   3.633464e+00 1.026993e+01 1.080180e+00
    endloop
  endfacet
  facet normal 3.216322e-01 9.429718e-01 8.577285e-02
    outer loop
      vertex   3.633464e+00 1.026993e+01 1.080180e+00
      vertex   3.694789e+00 1.025630e+01 1.000000e+00
      vertex   3.633371e+00 1.027725e+01 1.000000e+00
    endloop
  endfacet
  facet normal 3.108954e-01 9.469589e-01 8.132027e-02
    outer loop
      vertex   3.510173e+00 1.031809e+01 1.000000e+00
      vertex   3.521565e+00 1.031303e+01 1.015426e+00
      vertex   3.571832e+00 1.029785e+01 1.000000e+00
    endloop
  endfacet
  facet normal 3.113270e-01 9.466703e-01 8.301063e-02
    outer loop
      vertex   3.571832e+00 1.029785e+01 1.000000e+00
      vertex   3.521565e+00 1.031303e+01 1.015426e+00
      vertex   3.533258e+00 1.030785e+01 1.030581e+00
    endloop
  endfacet
  facet normal 3.122461e-01 9.462530e-01 8.430650e-02
    outer loop
      vertex   3.571832e+00 1.029785e+01 1.000000e+00
      vertex   3.533258e+00 1.030785e+01 1.030581e+00
      vertex   3.545250e+00 1.030257e+01 1.045460e+00
    endloop
  endfacet
  facet normal 3.136342e-01 9.457161e-01 8.517394e-02
    outer loop
      vertex   3.545250e+00 1.030257e+01 1.045460e+00
      vertex   3.557540e+00 1.029718e+01 1.060056e+00
      vertex   3.571832e+00 1.029785e+01 1.000000e+00
    endloop
  endfacet
  facet normal 3.154505e-01 9.450735e-01 8.559898e-02
    outer loop
      vertex   3.571832e+00 1.029785e+01 1.000000e+00
      vertex   3.557540e+00 1.029718e+01 1.060056e+00
      vertex   3.570125e+00 1.029168e+01 1.074362e+00
    endloop
  endfacet
  facet normal 3.176348e-01 9.443425e-01 8.558852e-02
    outer loop
      vertex   3.571832e+00 1.029785e+01 1.000000e+00
      vertex   3.570125e+00 1.029168e+01 1.074362e+00
      vertex   3.583002e+00 1.028608e+01 1.088370e+00
    endloop
  endfacet
  facet normal -3.512080e-01 -9.323159e-01 -8.625540e-02
    outer loop
      vertex   3.934989e+00 1.007422e+01 1.000000e+00
      vertex   4.000000e+00 1.004973e+01 1.000000e+00
      vertex   3.942442e+00 1.006387e+01 1.081525e+00
    endloop
  endfacet
  facet normal -3.517741e-01 -9.320613e-01 -8.669923e-02
    outer loop
      vertex   3.942442e+00 1.006387e+01 1.081525e+00
      vertex   4.000000e+00 1.004973e+01 1.000000e+00
      vertex   4.000000e+00 1.004212e+01 1.081840e+00
    endloop
  endfacet
  facet normal -3.515281e-01 -9.315072e-01 -9.339321e-02
    outer loop
      vertex   3.942442e+00 1.006387e+01 1.081525e+00
      vertex   4.000000e+00 1.004212e+01 1.081840e+00
      vertex   3.939647e+00 1.005674e+01 1.163205e+00
    endloop
  endfacet
  facet normal -3.516869e-01 -9.314341e-01 -9.352414e-02
    outer loop
      vertex   3.939647e+00 1.005674e+01 1.163205e+00
      vertex   4.000000e+00 1.004212e+01 1.081840e+00
      vertex   4.000000e+00 1.003391e+01 1.163623e+00
    endloop
  endfacet
  facet normal -3.514165e-01 -9.308414e-01 -1.002033e-01
    outer loop
      vertex   3.939647e+00 1.005674e+01 1.163205e+00
      vertex   4.000000e+00 1.003391e+01 1.163623e+00
      vertex   3.936641e+00 1.004906e+01 1.245034e+00
    endloop
  endfacet
  facet normal -3.515824e-01 -9.307633e-01 -1.003471e-01
    outer loop
      vertex   3.936641e+00 1.004906e+01 1.245034e+00
      vertex   4.000000e+00 1.003391e+01 1.163623e+00
      vertex   4.000000e+00 1.002510e+01 1.245346e+00
    endloop
  endfacet
  facet normal -3.513457e-01 -9.302126e-01 -1.061168e-01
    outer loop
      vertex   3.936641e+00 1.004906e+01 1.245034e+00
      vertex   4.000000e+00 1.002510e+01 1.245346e+00
      vertex   3.961348e+00 1.003109e+01 1.320795e+00
    endloop
  endfacet
  facet normal -3.523670e-01 -9.297622e-01 -1.066758e-01
    outer loop
      vertex   3.961348e+00 1.003109e+01 1.320795e+00
      vertex   4.000000e+00 1.002510e+01 1.245346e+00
      vertex   3.980625e+00 1.002340e+01 1.324169e+00
    endloop
  endfacet
  facet normal -3.539839e-01 -9.291037e-01 -1.070590e-01
    outer loop
      vertex   3.980625e+00 1.002340e+01 1.324169e+00
      vertex   4.000000e+00 1.002510e+01 1.245346e+00
      vertex   4.000000e+00 1.001569e+01 1.327006e+00
    endloop
  endfacet
  facet normal -3.507401e-01 -9.304131e-01 -1.063619e-01
    outer loop
      vertex   3.961348e+00 1.003109e+01 1.320795e+00
      vertex   3.942179e+00 1.003876e+01 1.316888e+00
      vertex   3.936641e+00 1.004906e+01 1.245034e+00
    endloop
  endfacet
  facet normal -3.489819e-01 -9.310481e-01 -1.065884e-01
    outer loop
      vertex   3.936641e+00 1.004906e+01 1.245034e+00
      vertex   3.942179e+00 1.003876e+01 1.316888e+00
      vertex   3.923126e+00 1.004641e+01 1.312452e+00
    endloop
  endfacet
  facet normal -3.473356e-01 -9.316983e-01 -1.062840e-01
    outer loop
      vertex   3.936641e+00 1.004906e+01 1.245034e+00
      vertex   3.923126e+00 1.004641e+01 1.312452e+00
      vertex   3.904197e+00 1.005403e+01 1.307489e+00
    endloop
  endfacet
  facet normal -3.458381e-01 -9.323494e-01 -1.054542e-01
    outer loop
      vertex   3.904197e+00 1.005403e+01 1.307489e+00
      vertex   3.885398e+00 1.006163e+01 1.302005e+00
      vertex   3.936641e+00 1.004906e+01 1.245034e+00
    endloop
  endfacet
  facet normal -3.455988e-01 -9.324653e-01 -1.052134e-01
    outer loop
      vertex   3.936641e+00 1.004906e+01 1.245034e+00
      vertex   3.885398e+00 1.006163e+01 1.302005e+00
      vertex   3.869935e+00 1.007379e+01 1.245034e+00
    endloop
  endfacet
  facet normal -3.457789e-01 -9.329513e-01 -1.001941e-01
    outer loop
      vertex   3.936641e+00 1.004906e+01 1.245034e+00
      vertex   3.869935e+00 1.007379e+01 1.245034e+00
      vertex   3.872891e+00 1.008148e+01 1.163205e+00
    endloop
  endfacet
  facet normal -3.398344e-01 -9.351340e-01 -1.001846e-01
    outer loop
      vertex   3.872891e+00 1.008148e+01 1.163205e+00
      vertex   3.869935e+00 1.007379e+01 1.245034e+00
      vertex   3.806065e+00 1.010576e+01 1.163205e+00
    endloop
  endfacet
  facet normal -3.400606e-01 -9.357563e-01 -9.337588e-02
    outer loop
      vertex   3.872891e+00 1.008148e+01 1.163205e+00
      vertex   3.806065e+00 1.010576e+01 1.163205e+00
      vertex   3.808765e+00 1.011293e+01 1.081525e+00
    endloop
  endfacet
  facet normal -3.341079e-01 -9.378990e-01 -9.336717e-02
    outer loop
      vertex   3.808765e+00 1.011293e+01 1.081525e+00
      vertex   3.806065e+00 1.010576e+01 1.163205e+00
      vertex   3.741828e+00 1.013678e+01 1.081525e+00
    endloop
  endfacet
  facet normal -3.343066e-01 -9.384568e-01 -8.682130e-02
    outer loop
      vertex   3.808765e+00 1.011293e+01 1.081525e+00
      vertex   3.741828e+00 1.013678e+01 1.081525e+00
      vertex   3.804517e+00 1.012199e+01 1.000000e+00
    endloop
  endfacet
  facet normal -3.337870e-01 -9.386824e-01 -8.638087e-02
    outer loop
      vertex   3.804517e+00 1.012199e+01 1.000000e+00
      vertex   3.741828e+00 1.013678e+01 1.081525e+00
      vertex   3.739060e+00 1.014526e+01 1.000000e+00
    endloop
  endfacet
  facet normal -3.283479e-01 -9.405637e-01 -8.676139e-02
    outer loop
      vertex   3.739060e+00 1.014526e+01 1.000000e+00
      vertex   3.741828e+00 1.013678e+01 1.081525e+00
      vertex   3.674832e+00 1.016017e+01 1.081525e+00
    endloop
  endfacet
  facet normal -3.279572e-01 -9.407312e-01 -8.642293e-02
    outer loop
      vertex   3.739060e+00 1.014526e+01 1.000000e+00
      vertex   3.674832e+00 1.016017e+01 1.081525e+00
      vertex   3.673459e+00 1.016813e+01 1.000000e+00
    endloop
  endfacet
  facet normal -3.223858e-01 -9.426294e-01 -8.670226e-02
    outer loop
      vertex   3.673459e+00 1.016813e+01 1.000000e+00
      vertex   3.674832e+00 1.016017e+01 1.081525e+00
      vertex   3.607780e+00 1.018310e+01 1.081525e+00
    endloop
  endfacet
  facet normal -3.221162e-01 -9.427434e-01 -8.646417e-02
    outer loop
      vertex   3.673459e+00 1.016813e+01 1.000000e+00
      vertex   3.607780e+00 1.018310e+01 1.081525e+00
      vertex   3.607715e+00 1.019060e+01 1.000000e+00
    endloop
  endfacet
  facet normal -3.164922e-01 -9.446300e-01 -8.664219e-02
    outer loop
      vertex   3.607715e+00 1.019060e+01 1.000000e+00
      vertex   3.607780e+00 1.018310e+01 1.081525e+00
      vertex   3.539586e+00 1.020621e+01 1.078592e+00
    endloop
  endfacet
  facet normal -3.162664e-01 -9.447253e-01 -8.642752e-02
    outer loop
      vertex   3.607715e+00 1.019060e+01 1.000000e+00
      vertex   3.539586e+00 1.020621e+01 1.078592e+00
      vertex   3.541831e+00 1.021265e+01 1.000000e+00
    endloop
  endfacet
  facet normal -3.153294e-01 -9.450385e-01 -8.642641e-02
    outer loop
      vertex   3.541831e+00 1.021265e+01 1.000000e+00
      vertex   3.539586e+00 1.020621e+01 1.078592e+00
      vertex   3.526161e+00 1.021207e+01 1.063509e+00
    endloop
  endfacet
  facet normal -3.134144e-01 -9.457179e-01 -8.596008e-02
    outer loop
      vertex   3.541831e+00 1.021265e+01 1.000000e+00
      vertex   3.526161e+00 1.021207e+01 1.063509e+00
      vertex   3.513067e+00 1.021781e+01 1.048101e+00
    endloop
  endfacet
  facet normal -3.439967e-01 -9.329956e-01 -1.057614e-01
    outer loop
      vertex   3.885398e+00 1.006163e+01 1.302005e+00
      vertex   3.866739e+00 1.006919e+01 1.296002e+00
      vertex   3.869935e+00 1.007379e+01 1.245034e+00
    endloop
  endfacet
  facet normal -3.422371e-01 -9.336483e-01 -1.057100e-01
    outer loop
      vertex   3.869935e+00 1.007379e+01 1.245034e+00
      vertex   3.866739e+00 1.006919e+01 1.296002e+00
      vertex   3.848225e+00 1.007671e+01 1.289484e+00
    endloop
  endfacet
  facet normal -3.407236e-01 -9.342898e-01 -1.049285e-01
    outer loop
      vertex   3.869935e+00 1.007379e+01 1.245034e+00
      vertex   3.848225e+00 1.007671e+01 1.289484e+00
      vertex   3.829865e+00 1.008420e+01 1.282455e+00
    endloop
  endfacet
  facet normal -3.397112e-01 -9.347950e-01 -1.037039e-01
    outer loop
      vertex   3.869935e+00 1.007379e+01 1.245034e+00
      vertex   3.829865e+00 1.008420e+01 1.282455e+00
      vertex   3.803161e+00 1.009805e+01 1.245034e+00
    endloop
  endfacet
  facet normal -3.392476e-01 -9.349214e-01 -1.040815e-01
    outer loop
      vertex   3.803161e+00 1.009805e+01 1.245034e+00
      vertex   3.829865e+00 1.008420e+01 1.282455e+00
      vertex   3.811675e+00 1.009164e+01 1.274922e+00
    endloop
  endfacet
  facet normal -3.370974e-01 -9.356139e-01 -1.048428e-01
    outer loop
      vertex   3.803161e+00 1.009805e+01 1.245034e+00
      vertex   3.811675e+00 1.009164e+01 1.274922e+00
      vertex   3.793695e+00 1.009901e+01 1.266905e+00
    endloop
  endfacet
  facet normal -3.355365e-01 -9.362533e-01 -1.041392e-01
    outer loop
      vertex   3.793695e+00 1.009901e+01 1.266905e+00
      vertex   3.775933e+00 1.010632e+01 1.258412e+00
      vertex   3.803161e+00 1.009805e+01 1.245034e+00
    endloop
  endfacet
  facet normal -3.346619e-01 -9.367993e-01 -1.020215e-01
    outer loop
      vertex   3.803161e+00 1.009805e+01 1.245034e+00
      vertex   3.775933e+00 1.010632e+01 1.258412e+00
      vertex   3.758395e+00 1.011356e+01 1.249449e+00
    endloop
  endfacet
  facet normal -3.344805e-01 -9.372191e-01 -9.870752e-02
    outer loop
      vertex   3.803161e+00 1.009805e+01 1.245034e+00
      vertex   3.758395e+00 1.011356e+01 1.249449e+00
      vertex   3.741086e+00 1.012073e+01 1.240024e+00
    endloop
  endfacet
  facet normal -3.320051e-01 -9.379725e-01 -9.990090e-02
    outer loop
      vertex   3.724012e+00 1.012783e+01 1.230143e+00
      vertex   3.739175e+00 1.012959e+01 1.163205e+00
      vertex   3.741086e+00 1.012073e+01 1.240024e+00
    endloop
  endfacet
  facet normal -3.338991e-01 -9.373131e-01 -9.977775e-02
    outer loop
      vertex   3.741086e+00 1.012073e+01 1.240024e+00
      vertex   3.739175e+00 1.012959e+01 1.163205e+00
      vertex   3.806065e+00 1.010576e+01 1.163205e+00
    endloop
  endfacet
  facet normal -3.343253e-01 -9.371186e-01 -1.001761e-01
    outer loop
      vertex   3.741086e+00 1.012073e+01 1.240024e+00
      vertex   3.806065e+00 1.010576e+01 1.163205e+00
      vertex   3.803161e+00 1.009805e+01 1.245034e+00
    endloop
  endfacet
  facet normal -3.398344e-01 -9.351340e-01 -1.001846e-01
    outer loop
      vertex   3.803161e+00 1.009805e+01 1.245034e+00
      vertex   3.806065e+00 1.010576e+01 1.163205e+00
      vertex   3.869935e+00 1.007379e+01 1.245034e+00
    endloop
  endfacet
  facet normal -3.303052e-01 -9.386116e-01 -9.953265e-02
    outer loop
      vertex   3.724012e+00 1.012783e+01 1.230143e+00
      vertex   3.707179e+00 1.013485e+01 1.219812e+00
      vertex   3.739175e+00 1.012959e+01 1.163205e+00
    endloop
  endfacet
  facet normal -3.288761e-01 -9.392043e-01 -9.866983e-02
    outer loop
      vertex   3.739175e+00 1.012959e+01 1.163205e+00
      vertex   3.707179e+00 1.013485e+01 1.219812e+00
      vertex   3.690591e+00 1.014179e+01 1.209039e+00
    endloop
  endfacet
  facet normal -3.280156e-01 -9.396118e-01 -9.764926e-02
    outer loop
      vertex   3.739175e+00 1.012959e+01 1.163205e+00
      vertex   3.690591e+00 1.014179e+01 1.209039e+00
      vertex   3.672226e+00 1.015296e+01 1.163205e+00
    endloop
  endfacet
  facet normal -3.273450e-01 -9.398126e-01 -9.796691e-02
    outer loop
      vertex   3.672226e+00 1.015296e+01 1.163205e+00
      vertex   3.690591e+00 1.014179e+01 1.209039e+00
      vertex   3.674255e+00 1.014865e+01 1.197831e+00
    endloop
  endfacet
  facet normal -3.251844e-01 -9.405397e-01 -9.818415e-02
    outer loop
      vertex   3.672226e+00 1.015296e+01 1.163205e+00
      vertex   3.674255e+00 1.014865e+01 1.197831e+00
      vertex   3.658176e+00 1.015542e+01 1.186193e+00
    endloop
  endfacet
  facet normal -3.237567e-01 -9.411293e-01 -9.724852e-02
    outer loop
      vertex   3.658176e+00 1.015542e+01 1.186193e+00
      vertex   3.642360e+00 1.016211e+01 1.174132e+00
      vertex   3.672226e+00 1.015296e+01 1.163205e+00
    endloop
  endfacet
  facet normal -3.231394e-01 -9.415498e-01 -9.520938e-02
    outer loop
      vertex   3.672226e+00 1.015296e+01 1.163205e+00
      vertex   3.642360e+00 1.016211e+01 1.174132e+00
      vertex   3.626811e+00 1.016871e+01 1.161656e+00
    endloop
  endfacet
  facet normal -3.232536e-01 -9.416966e-01 -9.335197e-02
    outer loop
      vertex   3.672226e+00 1.015296e+01 1.163205e+00
      vertex   3.626811e+00 1.016871e+01 1.161656e+00
      vertex   3.674832e+00 1.016017e+01 1.081525e+00
    endloop
  endfacet
  facet normal -3.227186e-01 -9.419141e-01 -9.300813e-02
    outer loop
      vertex   3.674832e+00 1.016017e+01 1.081525e+00
      vertex   3.626811e+00 1.016871e+01 1.161656e+00
      vertex   3.611536e+00 1.017521e+01 1.148771e+00
    endloop
  endfacet
  facet normal -3.222174e-01 -9.421370e-01 -9.248650e-02
    outer loop
      vertex   3.674832e+00 1.016017e+01 1.081525e+00
      vertex   3.611536e+00 1.017521e+01 1.148771e+00
      vertex   3.607780e+00 1.018310e+01 1.081525e+00
    endloop
  endfacet
  facet normal -3.209224e-01 -9.425669e-01 -9.260924e-02
    outer loop
      vertex   3.607780e+00 1.018310e+01 1.081525e+00
      vertex   3.611536e+00 1.017521e+01 1.148771e+00
      vertex   3.596540e+00 1.018162e+01 1.135484e+00
    endloop
  endfacet
  facet normal -3.190512e-01 -9.432383e-01 -9.223781e-02
    outer loop
      vertex   3.607780e+00 1.018310e+01 1.081525e+00
      vertex   3.596540e+00 1.018162e+01 1.135484e+00
      vertex   3.581828e+00 1.018794e+01 1.121801e+00
    endloop
  endfacet
  facet normal -3.176524e-01 -9.438045e-01 -9.126847e-02
    outer loop
      vertex   3.581828e+00 1.018794e+01 1.121801e+00
      vertex   3.567423e+00 1.019415e+01 1.107746e+00
      vertex   3.607780e+00 1.018310e+01 1.081525e+00
    endloop
  endfacet
  facet normal -3.167720e-01 -9.442482e-01 -8.972649e-02
    outer loop
      vertex   3.607780e+00 1.018310e+01 1.081525e+00
      vertex   3.567423e+00 1.019415e+01 1.107746e+00
      vertex   3.553341e+00 1.020024e+01 1.093340e+00
    endloop
  endfacet
  facet normal -3.164235e-01 -9.445581e-01 -8.767102e-02
    outer loop
      vertex   3.607780e+00 1.018310e+01 1.081525e+00
      vertex   3.553341e+00 1.020024e+01 1.093340e+00
      vertex   3.539586e+00 1.020621e+01 1.078592e+00
    endloop
  endfacet
  facet normal -3.119497e-01 -9.462866e-01 -8.502320e-02
    outer loop
      vertex   3.513067e+00 1.021781e+01 1.048101e+00
      vertex   3.500309e+00 1.022343e+01 1.032374e+00
      vertex   3.541831e+00 1.021265e+01 1.000000e+00
    endloop
  endfacet
  facet normal -3.109802e-01 -9.467296e-01 -8.363223e-02
    outer loop
      vertex   3.541831e+00 1.021265e+01 1.000000e+00
      vertex   3.500309e+00 1.022343e+01 1.032374e+00
      vertex   3.487889e+00 1.022893e+01 1.016338e+00
    endloop
  endfacet
  facet normal -3.105257e-01 -9.470366e-01 -8.182581e-02
    outer loop
      vertex   3.541831e+00 1.021265e+01 1.000000e+00
      vertex   3.487889e+00 1.022893e+01 1.016338e+00
      vertex   3.475809e+00 1.023430e+01 1.000000e+00
    endloop
  endfacet
  facet normal -3.396056e-01 -9.365969e-01 -8.633855e-02
    outer loop
      vertex   3.804517e+00 1.012199e+01 1.000000e+00
      vertex   3.869827e+00 1.009831e+01 1.000000e+00
      vertex   3.808765e+00 1.011293e+01 1.081525e+00
    endloop
  endfacet
  facet normal -3.402613e-01 -9.363086e-01 -8.688140e-02
    outer loop
      vertex   3.808765e+00 1.011293e+01 1.081525e+00
      vertex   3.869827e+00 1.009831e+01 1.000000e+00
      vertex   3.875638e+00 1.008863e+01 1.081525e+00
    endloop
  endfacet
  facet normal -3.400606e-01 -9.357563e-01 -9.337588e-02
    outer loop
      vertex   3.808765e+00 1.011293e+01 1.081525e+00
      vertex   3.875638e+00 1.008863e+01 1.081525e+00
      vertex   3.872891e+00 1.008148e+01 1.163205e+00
    endloop
  endfacet
  facet normal -3.460090e-01 -9.335722e-01 -9.338473e-02
    outer loop
      vertex   3.872891e+00 1.008148e+01 1.163205e+00
      vertex   3.875638e+00 1.008863e+01 1.081525e+00
      vertex   3.939647e+00 1.005674e+01 1.163205e+00
    endloop
  endfacet
  facet normal -3.457789e-01 -9.329513e-01 -1.001941e-01
    outer loop
      vertex   3.872891e+00 1.008148e+01 1.163205e+00
      vertex   3.939647e+00 1.005674e+01 1.163205e+00
      vertex   3.936641e+00 1.004906e+01 1.245034e+00
    endloop
  endfacet
  facet normal -3.454126e-01 -9.344747e-01 -8.629653e-02
    outer loop
      vertex   3.869827e+00 1.009831e+01 1.000000e+00
      vertex   3.934989e+00 1.007422e+01 1.000000e+00
      vertex   3.875638e+00 1.008863e+01 1.081525e+00
    endloop
  endfacet
  facet normal -3.462117e-01 -9.341192e-01 -8.694113e-02
    outer loop
      vertex   3.875638e+00 1.008863e+01 1.081525e+00
      vertex   3.934989e+00 1.007422e+01 1.000000e+00
      vertex   3.942442e+00 1.006387e+01 1.081525e+00
    endloop
  endfacet
  facet normal -3.460090e-01 -9.335722e-01 -9.338473e-02
    outer loop
      vertex   3.875638e+00 1.008863e+01 1.081525e+00
      vertex   3.942442e+00 1.006387e+01 1.081525e+00
      vertex   3.939647e+00 1.005674e+01 1.163205e+00
    endloop
  endfacet
  facet normal -3.281513e-01 -9.400005e-01 -9.335861e-02
    outer loop
      vertex   3.674832e+00 1.016017e+01 1.081525e+00
      vertex   3.741828e+00 1.013678e+01 1.081525e+00
      vertex   3.739175e+00 1.012959e+01 1.163205e+00
    endloop
  endfacet
  facet normal -3.341079e-01 -9.378990e-01 -9.336717e-02
    outer loop
      vertex   3.739175e+00 1.012959e+01 1.163205e+00
      vertex   3.741828e+00 1.013678e+01 1.081525e+00
      vertex   3.806065e+00 1.010576e+01 1.163205e+00
    endloop
  endfacet
  facet normal -3.281513e-01 -9.400005e-01 -9.335861e-02
    outer loop
      vertex   3.672226e+00 1.015296e+01 1.163205e+00
      vertex   3.674832e+00 1.016017e+01 1.081525e+00
      vertex   3.739175e+00 1.012959e+01 1.163205e+00
    endloop
  endfacet
  facet normal 1.912666e-13 0.000000e+00 -1.000000e+00
    outer loop
      vertex   4.000000e+00 1.004973e+01 1.000000e+00
      vertex   3.934989e+00 1.007422e+01 1.000000e+00
      vertex   4.000000e+00 1.014629e+01 1.000000e+00
    endloop
  endfacet
  facet normal 4.285976e-13 -2.140863e-13 -1.000000e+00
    outer loop
      vertex   4.000000e+00 1.014629e+01 1.000000e+00
      vertex   3.934989e+00 1.007422e+01 1.000000e+00
      vertex   3.869827e+00 1.009831e+01 1.000000e+00
    endloop
  endfacet
  facet normal 4.517817e-13 -2.769811e-13 -1.000000e+00
    outer loop
      vertex   4.000000e+00 1.014629e+01 1.000000e+00
      vertex   3.869827e+00 1.009831e+01 1.000000e+00
      vertex   3.939213e+00 1.016899e+01 1.000000e+00
    endloop
  endfacet
  facet normal 5.760910e-13 -3.990019e-13 -1.000000e+00
    outer loop
      vertex   3.939213e+00 1.016899e+01 1.000000e+00
      vertex   3.869827e+00 1.009831e+01 1.000000e+00
      vertex   3.804517e+00 1.012199e+01 1.000000e+00
    endloop
  endfacet
  facet normal 9.363986e-13 -1.431461e-12 -1.000000e+00
    outer loop
      vertex   3.939213e+00 1.016899e+01 1.000000e+00
      vertex   3.804517e+00 1.012199e+01 1.000000e+00
      vertex   3.878297e+00 1.019135e+01 1.000000e+00
    endloop
  endfacet
  facet normal 4.882178e-13 -9.547156e-13 -1.000000e+00
    outer loop
      vertex   3.878297e+00 1.019135e+01 1.000000e+00
      vertex   3.804517e+00 1.012199e+01 1.000000e+00
      vertex   3.739060e+00 1.014526e+01 1.000000e+00
    endloop
  endfacet
  facet normal 1.076182e-12 -2.731173e-12 -1.000000e+00
    outer loop
      vertex   3.878297e+00 1.019135e+01 1.000000e+00
      vertex   3.739060e+00 1.014526e+01 1.000000e+00
      vertex   3.817253e+00 1.021335e+01 1.000000e+00
    endloop
  endfacet
  facet normal 2.090616e-13 -1.735345e-12 -1.000000e+00
    outer loop
      vertex   3.817253e+00 1.021335e+01 1.000000e+00
      vertex   3.739060e+00 1.014526e+01 1.000000e+00
      vertex   3.673459e+00 1.016813e+01 1.000000e+00
    endloop
  endfacet
  facet normal 9.343075e-13 -4.041683e-12 -1.000000e+00
    outer loop
      vertex   3.817253e+00 1.021335e+01 1.000000e+00
      vertex   3.673459e+00 1.016813e+01 1.000000e+00
      vertex   3.756083e+00 1.023500e+01 1.000000e+00
    endloop
  endfacet
  facet normal -1.925726e-13 -2.649298e-12 -1.000000e+00
    outer loop
      vertex   3.756083e+00 1.023500e+01 1.000000e+00
      vertex   3.673459e+00 1.016813e+01 1.000000e+00
      vertex   3.607715e+00 1.019060e+01 1.000000e+00
    endloop
  endfacet
  facet normal 5.575849e-13 -5.155701e-12 -1.000000e+00
    outer loop
      vertex   3.756083e+00 1.023500e+01 1.000000e+00
      vertex   3.607715e+00 1.019060e+01 1.000000e+00
      vertex   3.694789e+00 1.025630e+01 1.000000e+00
    endloop
  endfacet
  facet normal 3.742380e-13 -4.912732e-12 -1.000000e+00
    outer loop
      vertex   3.694789e+00 1.025630e+01 1.000000e+00
      vertex   3.607715e+00 1.019060e+01 1.000000e+00
      vertex   3.633371e+00 1.027725e+01 1.000000e+00
    endloop
  endfacet
  facet normal -1.002635e-12 -4.505083e-12 -1.000000e+00
    outer loop
      vertex   3.633371e+00 1.027725e+01 1.000000e+00
      vertex   3.607715e+00 1.019060e+01 1.000000e+00
      vertex   3.541831e+00 1.021265e+01 1.000000e+00
    endloop
  endfacet
  facet normal -3.675162e-13 -5.405078e-12 -1.000000e+00
    outer loop
      vertex   3.633371e+00 1.027725e+01 1.000000e+00
      vertex   3.541831e+00 1.021265e+01 1.000000e+00
      vertex   3.571832e+00 1.029785e+01 1.000000e+00
    endloop
  endfacet
  facet normal -1.459536e-12 -5.020530e-12 -1.000000e+00
    outer loop
      vertex   3.571832e+00 1.029785e+01 1.000000e+00
      vertex   3.541831e+00 1.021265e+01 1.000000e+00
      vertex   3.475809e+00 1.023430e+01 1.000000e+00
    endloop
  endfacet
  facet normal -1.221029e-12 -5.380929e-12 -1.000000e+00
    outer loop
      vertex   3.571832e+00 1.029785e+01 1.000000e+00
      vertex   3.475809e+00 1.023430e+01 1.000000e+00
      vertex   3.510173e+00 1.031809e+01 1.000000e+00
    endloop
  endfacet
  facet normal 1.000000e+00 -7.078855e-09 -1.552284e-10
    outer loop
      vertex   4.000000e+00 1.001569e+01 1.327006e+00
      vertex   4.000000e+00 1.002510e+01 1.245346e+00
      vertex   4.000000e+00 1.006450e+01 1.324513e+00
    endloop
  endfacet
  facet normal 1.000000e+00 -8.472484e-09 5.384691e-10
    outer loop
      vertex   4.000000e+00 1.006450e+01 1.324513e+00
      vertex   4.000000e+00 1.002510e+01 1.245346e+00
      vertex   4.000000e+00 1.003391e+01 1.163623e+00
    endloop
  endfacet
  facet normal 1.000000e+00 3.694050e-08 -8.097479e-09
    outer loop
      vertex   4.000000e+00 1.006450e+01 1.324513e+00
      vertex   4.000000e+00 1.003391e+01 1.163623e+00
      vertex   4.000000e+00 1.012232e+01 1.241282e+00
    endloop
  endfacet
  facet normal 1.000000e+00 1.583523e-08 1.593024e-08
    outer loop
      vertex   4.000000e+00 1.012232e+01 1.241282e+00
      vertex   4.000000e+00 1.003391e+01 1.163623e+00
      vertex   4.000000e+00 1.013088e+01 1.160910e+00
    endloop
  endfacet
  facet normal 1.000000e+00 1.547365e-08 3.004501e-09
    outer loop
      vertex   4.000000e+00 1.013088e+01 1.160910e+00
      vertex   4.000000e+00 1.003391e+01 1.163623e+00
      vertex   4.000000e+00 1.004212e+01 1.081840e+00
    endloop
  endfacet
  facet normal 1.000000e+00 5.026943e-09 1.473206e-08
    outer loop
      vertex   4.000000e+00 1.013088e+01 1.160910e+00
      vertex   4.000000e+00 1.004212e+01 1.081840e+00
      vertex   4.000000e+00 1.013887e+01 1.080482e+00
    endloop
  endfacet
  facet normal 1.000000e+00 4.835758e-09 1.108843e-09
    outer loop
      vertex   4.000000e+00 1.013887e+01 1.080482e+00
      vertex   4.000000e+00 1.004212e+01 1.081840e+00
      vertex   4.000000e+00 1.004973e+01 1.000000e+00
    endloop
  endfacet
  facet normal 1.000000e+00 0.000000e+00 6.465030e-09
    outer loop
      vertex   4.000000e+00 1.013887e+01 1.080482e+00
      vertex   4.000000e+00 1.004973e+01 1.000000e+00
      vertex   4.000000e+00 1.014629e+01 1.000000e+00
    endloop
  endfacet
  facet normal 1.000000e+00 6.927271e-08 1.436191e-08
    outer loop
      vertex   4.000000e+00 1.012232e+01 1.241282e+00
      vertex   4.000000e+00 1.011318e+01 1.321593e+00
      vertex   4.000000e+00 1.006450e+01 1.324513e+00
    endloop
  endfacet
endsolid
