solid ASCII
  facet normal -1.771218e-01 -9.812221e-01 7.636181e-02
    outer loop
      vertex   2.000000e+00 1.084382e+01 -8.752274e-01
      vertex   2.000000e+00 1.083411e+01 -1.000000e+00
      vertex   2.119096e+00 1.081754e+01 -9.366703e-01
    endloop
  endfacet
  facet normal -1.787567e-01 -9.806696e-01 7.958082e-02
    outer loop
      vertex   2.119096e+00 1.081754e+01 -9.366703e-01
      vertex   2.000000e+00 1.083411e+01 -1.000000e+00
      vertex   2.126048e+00 1.081113e+01 -1.000000e+00
    endloop
  endfacet
  facet normal -1.890121e-01 -9.788504e-01 7.827102e-02
    outer loop
      vertex   2.119096e+00 1.081754e+01 -9.366703e-01
      vertex   2.126048e+00 1.081113e+01 -1.000000e+00
      vertex   2.244820e+00 1.079326e+01 -9.366703e-01
    endloop
  endfacet
  facet normal -1.896839e-01 -9.786134e-01 7.959777e-02
    outer loop
      vertex   2.244820e+00 1.079326e+01 -9.366703e-01
      vertex   2.126048e+00 1.081113e+01 -1.000000e+00
      vertex   2.251821e+00 1.078675e+01 -1.000000e+00
    endloop
  endfacet
  facet normal -1.999275e-01 -9.766798e-01 7.826671e-02
    outer loop
      vertex   2.244820e+00 1.079326e+01 -9.366703e-01
      vertex   2.251821e+00 1.078675e+01 -1.000000e+00
      vertex   2.370658e+00 1.076750e+01 -9.366703e-01
    endloop
  endfacet
  facet normal -2.005902e-01 -9.764374e-01 7.958404e-02
    outer loop
      vertex   2.370658e+00 1.076750e+01 -9.366703e-01
      vertex   2.251821e+00 1.078675e+01 -1.000000e+00
      vertex   2.377307e+00 1.076097e+01 -1.000000e+00
    endloop
  endfacet
  facet normal -2.108608e-01 -9.743756e-01 7.829327e-02
    outer loop
      vertex   2.370658e+00 1.076750e+01 -9.366703e-01
      vertex   2.377307e+00 1.076097e+01 -1.000000e+00
      vertex   2.496732e+00 1.074022e+01 -9.366703e-01
    endloop
  endfacet
  facet normal -2.114751e-01 -9.741425e-01 7.952818e-02
    outer loop
      vertex   2.496732e+00 1.074022e+01 -9.366703e-01
      vertex   2.377307e+00 1.076097e+01 -1.000000e+00
      vertex   2.502493e+00 1.073380e+01 -1.000000e+00
    endloop
  endfacet
  facet normal -2.218078e-01 -9.719364e-01 7.836453e-02
    outer loop
      vertex   2.496732e+00 1.074022e+01 -9.366703e-01
      vertex   2.502493e+00 1.073380e+01 -1.000000e+00
      vertex   2.622824e+00 1.071144e+01 -9.366703e-01
    endloop
  endfacet
  facet normal -2.223376e-01 -9.717276e-01 7.944476e-02
    outer loop
      vertex   2.622824e+00 1.071144e+01 -9.366703e-01
      vertex   2.502493e+00 1.073380e+01 -1.000000e+00
      vertex   2.627368e+00 1.070523e+01 -1.000000e+00
    endloop
  endfacet
  facet normal -2.327613e-01 -9.693634e-01 7.846467e-02
    outer loop
      vertex   2.622824e+00 1.071144e+01 -9.366703e-01
      vertex   2.627368e+00 1.070523e+01 -1.000000e+00
      vertex   2.748978e+00 1.068115e+01 -9.366703e-01
    endloop
  endfacet
  facet normal -2.331768e-01 -9.691934e-01 7.932709e-02
    outer loop
      vertex   2.748978e+00 1.068115e+01 -9.366703e-01
      vertex   2.627368e+00 1.070523e+01 -1.000000e+00
      vertex   2.751919e+00 1.067526e+01 -1.000000e+00
    endloop
  endfacet
  facet normal -2.437220e-01 -9.666548e-01 7.860115e-02
    outer loop
      vertex   2.748978e+00 1.068115e+01 -9.366703e-01
      vertex   2.751919e+00 1.067526e+01 -1.000000e+00
      vertex   2.875167e+00 1.064934e+01 -9.366703e-01
    endloop
  endfacet
  facet normal -2.439919e-01 -9.665400e-01 7.917343e-02
    outer loop
      vertex   2.875167e+00 1.064934e+01 -9.366703e-01
      vertex   2.751919e+00 1.067526e+01 -1.000000e+00
      vertex   2.876134e+00 1.064390e+01 -1.000000e+00
    endloop
  endfacet
  facet normal -2.547865e-01 -9.637836e-01 7.877226e-02
    outer loop
      vertex   2.875167e+00 1.064934e+01 -9.366703e-01
      vertex   2.876134e+00 1.064390e+01 -1.000000e+00
      vertex   3.000000e+00 1.061116e+01 -1.000000e+00
    endloop
  endfacet
  facet normal -2.558699e-01 -9.636740e-01 7.657084e-02
    outer loop
      vertex   3.000000e+00 1.061116e+01 -1.000000e+00
      vertex   3.000000e+00 1.062107e+01 -8.752370e-01
      vertex   2.875167e+00 1.064934e+01 -9.366703e-01
    endloop
  endfacet
  facet normal -2.546371e-01 -9.642153e-01 7.381676e-02
    outer loop
      vertex   2.875167e+00 1.064934e+01 -9.366703e-01
      vertex   3.000000e+00 1.062107e+01 -8.752370e-01
      vertex   2.876387e+00 1.065385e+01 -8.734396e-01
    endloop
  endfacet
  facet normal -2.438116e-01 -9.670100e-01 7.380762e-02
    outer loop
      vertex   2.875167e+00 1.064934e+01 -9.366703e-01
      vertex   2.876387e+00 1.065385e+01 -8.734396e-01
      vertex   2.748978e+00 1.068115e+01 -9.366703e-01
    endloop
  endfacet
  facet normal -2.438116e-01 -9.670100e-01 7.380762e-02
    outer loop
      vertex   2.748978e+00 1.068115e+01 -9.366703e-01
      vertex   2.876387e+00 1.065385e+01 -8.734396e-01
      vertex   2.750144e+00 1.068568e+01 -8.734396e-01
    endloop
  endfacet
  facet normal -2.328445e-01 -9.697098e-01 7.379882e-02
    outer loop
      vertex   2.748978e+00 1.068115e+01 -9.366703e-01
      vertex   2.750144e+00 1.068568e+01 -8.734396e-01
      vertex   2.622824e+00 1.071144e+01 -9.366703e-01
    endloop
  endfacet
  facet normal -2.328445e-01 -9.697098e-01 7.379882e-02
    outer loop
      vertex   2.622824e+00 1.071144e+01 -9.366703e-01
      vertex   2.750144e+00 1.068568e+01 -8.734396e-01
      vertex   2.623937e+00 1.071599e+01 -8.734396e-01
    endloop
  endfacet
  facet normal -2.218855e-01 -9.722766e-01 7.379043e-02
    outer loop
      vertex   2.622824e+00 1.071144e+01 -9.366703e-01
      vertex   2.623937e+00 1.071599e+01 -8.734396e-01
      vertex   2.496732e+00 1.074022e+01 -9.366703e-01
    endloop
  endfacet
  facet normal -2.218855e-01 -9.722766e-01 7.379043e-02
    outer loop
      vertex   2.496732e+00 1.074022e+01 -9.366703e-01
      vertex   2.623937e+00 1.071599e+01 -8.734396e-01
      vertex   2.497791e+00 1.074478e+01 -8.734396e-01
    endloop
  endfacet
  facet normal -2.109336e-01 -9.747118e-01 7.378246e-02
    outer loop
      vertex   2.496732e+00 1.074022e+01 -9.366703e-01
      vertex   2.497791e+00 1.074478e+01 -8.734396e-01
      vertex   2.370658e+00 1.076750e+01 -9.366703e-01
    endloop
  endfacet
  facet normal -2.109306e-01 -9.747130e-01 7.377606e-02
    outer loop
      vertex   2.370658e+00 1.076750e+01 -9.366703e-01
      vertex   2.497791e+00 1.074478e+01 -8.734396e-01
      vertex   2.371593e+00 1.077209e+01 -8.734396e-01
    endloop
  endfacet
  facet normal -1.999960e-01 -9.770148e-01 7.378126e-02
    outer loop
      vertex   2.370658e+00 1.076750e+01 -9.366703e-01
      vertex   2.371593e+00 1.077209e+01 -8.734396e-01
      vertex   2.244820e+00 1.079326e+01 -9.366703e-01
    endloop
  endfacet
  facet normal -1.999922e-01 -9.770162e-01 7.377308e-02
    outer loop
      vertex   2.244820e+00 1.079326e+01 -9.366703e-01
      vertex   2.371593e+00 1.077209e+01 -8.734396e-01
      vertex   2.245752e+00 1.079784e+01 -8.734396e-01
    endloop
  endfacet
  facet normal -1.890772e-01 -9.791874e-01 7.376955e-02
    outer loop
      vertex   2.244820e+00 1.079326e+01 -9.366703e-01
      vertex   2.245752e+00 1.079784e+01 -8.734396e-01
      vertex   2.119096e+00 1.081754e+01 -9.366703e-01
    endloop
  endfacet
  facet normal -1.890765e-01 -9.791876e-01 7.376810e-02
    outer loop
      vertex   2.119096e+00 1.081754e+01 -9.366703e-01
      vertex   2.245752e+00 1.079784e+01 -8.734396e-01
      vertex   2.119999e+00 1.082213e+01 -8.734396e-01
    endloop
  endfacet
  facet normal -1.784543e-01 -9.811796e-01 7.376095e-02
    outer loop
      vertex   2.119096e+00 1.081754e+01 -9.366703e-01
      vertex   2.119999e+00 1.082213e+01 -8.734396e-01
      vertex   2.000000e+00 1.084382e+01 -8.752274e-01
    endloop
  endfacet
  facet normal -1.784453e-01 -9.815549e-01 6.860899e-02
    outer loop
      vertex   2.000000e+00 1.084382e+01 -8.752274e-01
      vertex   2.119999e+00 1.082213e+01 -8.734396e-01
      vertex   2.120838e+00 1.082639e+01 -8.103105e-01
    endloop
  endfacet
  facet normal -1.772022e-01 -9.819462e-01 6.618993e-02
    outer loop
      vertex   2.000000e+00 1.084382e+01 -8.752274e-01
      vertex   2.120838e+00 1.082639e+01 -8.103105e-01
      vertex   2.000000e+00 1.085223e+01 -7.503674e-01
    endloop
  endfacet
  facet normal -1.785400e-01 -9.818837e-01 6.346614e-02
    outer loop
      vertex   2.000000e+00 1.085223e+01 -7.503674e-01
      vertex   2.120838e+00 1.082639e+01 -8.103105e-01
      vertex   2.121613e+00 1.083032e+01 -7.472856e-01
    endloop
  endfacet
  facet normal -1.784696e-01 -9.822148e-01 5.833229e-02
    outer loop
      vertex   2.000000e+00 1.085223e+01 -7.503674e-01
      vertex   2.121613e+00 1.083032e+01 -7.472856e-01
      vertex   2.122323e+00 1.083393e+01 -6.843673e-01
    endloop
  endfacet
  facet normal -1.892680e-01 -9.801909e-01 5.833826e-02
    outer loop
      vertex   2.122323e+00 1.083393e+01 -6.843673e-01
      vertex   2.121613e+00 1.083032e+01 -7.472856e-01
      vertex   2.248141e+00 1.080963e+01 -6.843673e-01
    endloop
  endfacet
  facet normal -1.893223e-01 -9.804720e-01 5.321483e-02
    outer loop
      vertex   2.122323e+00 1.083393e+01 -6.843673e-01
      vertex   2.248141e+00 1.080963e+01 -6.843673e-01
      vertex   2.248802e+00 1.081291e+01 -6.215583e-01
    endloop
  endfacet
  facet normal -2.002386e-01 -9.783008e-01 5.321635e-02
    outer loop
      vertex   2.248802e+00 1.081291e+01 -6.215583e-01
      vertex   2.248141e+00 1.080963e+01 -6.843673e-01
      vertex   2.374614e+00 1.078716e+01 -6.215583e-01
    endloop
  endfacet
  facet normal -2.002906e-01 -9.785547e-01 4.810870e-02
    outer loop
      vertex   2.248802e+00 1.081291e+01 -6.215583e-01
      vertex   2.374614e+00 1.078716e+01 -6.215583e-01
      vertex   2.375192e+00 1.079013e+01 -5.588609e-01
    endloop
  endfacet
  facet normal -2.112467e-01 -9.762485e-01 4.810068e-02
    outer loop
      vertex   2.375192e+00 1.079013e+01 -5.588609e-01
      vertex   2.374614e+00 1.078716e+01 -6.215583e-01
      vertex   2.501958e+00 1.076270e+01 -5.588609e-01
    endloop
  endfacet
  facet normal -2.112959e-01 -9.764758e-01 4.300037e-02
    outer loop
      vertex   2.375192e+00 1.079013e+01 -5.588609e-01
      vertex   2.501958e+00 1.076270e+01 -5.588609e-01
      vertex   2.502567e+00 1.076532e+01 -4.962776e-01
    endloop
  endfacet
  facet normal -2.222862e-01 -9.740326e-01 4.300505e-02
    outer loop
      vertex   2.502567e+00 1.076532e+01 -4.962776e-01
      vertex   2.501958e+00 1.076270e+01 -5.588609e-01
      vertex   2.628954e+00 1.073648e+01 -4.962776e-01
    endloop
  endfacet
  facet normal -2.223321e-01 -9.742338e-01 3.790744e-02
    outer loop
      vertex   2.502567e+00 1.076532e+01 -4.962776e-01
      vertex   2.628954e+00 1.073648e+01 -4.962776e-01
      vertex   2.629517e+00 1.073878e+01 -4.338108e-01
    endloop
  endfacet
  facet normal -2.333133e-01 -9.716623e-01 3.791176e-02
    outer loop
      vertex   2.629517e+00 1.073878e+01 -4.338108e-01
      vertex   2.628954e+00 1.073648e+01 -4.962776e-01
      vertex   2.755993e+00 1.070841e+01 -4.338108e-01
    endloop
  endfacet
  facet normal -2.333553e-01 -9.718374e-01 3.282349e-02
    outer loop
      vertex   2.629517e+00 1.073878e+01 -4.338108e-01
      vertex   2.755993e+00 1.070841e+01 -4.338108e-01
      vertex   2.756504e+00 1.071039e+01 -3.714629e-01
    endloop
  endfacet
  facet normal -2.443467e-01 -9.691321e-01 3.282742e-02
    outer loop
      vertex   2.756504e+00 1.071039e+01 -3.714629e-01
      vertex   2.755993e+00 1.070841e+01 -4.338108e-01
      vertex   2.883039e+00 1.067849e+01 -3.714629e-01
    endloop
  endfacet
  facet normal -2.443843e-01 -9.692814e-01 2.774860e-02
    outer loop
      vertex   2.756504e+00 1.071039e+01 -3.714629e-01
      vertex   2.883039e+00 1.067849e+01 -3.714629e-01
      vertex   2.883489e+00 1.068016e+01 -3.092361e-01
    endloop
  endfacet
  facet normal -2.550523e-01 -9.665289e-01 2.775203e-02
    outer loop
      vertex   2.883489e+00 1.068016e+01 -3.092361e-01
      vertex   2.883039e+00 1.067849e+01 -3.714629e-01
      vertex   3.000000e+00 1.064751e+01 -3.753913e-01
    endloop
  endfacet
  facet normal -2.562388e-01 -9.662761e-01 2.553768e-02
    outer loop
      vertex   2.883489e+00 1.068016e+01 -3.092361e-01
      vertex   3.000000e+00 1.064751e+01 -3.753913e-01
      vertex   3.000000e+00 1.065082e+01 -2.502897e-01
    endloop
  endfacet
  facet normal -2.548015e-01 -9.645527e-01 6.866107e-02
    outer loop
      vertex   2.876387e+00 1.065385e+01 -8.734396e-01
      vertex   3.000000e+00 1.062107e+01 -8.752370e-01
      vertex   2.877520e+00 1.065805e+01 -8.103105e-01
    endloop
  endfacet
  facet normal -2.559706e-01 -9.644034e-01 6.637071e-02
    outer loop
      vertex   2.877520e+00 1.065805e+01 -8.103105e-01
      vertex   3.000000e+00 1.062107e+01 -8.752370e-01
      vertex   3.000000e+00 1.062966e+01 -7.503830e-01
    endloop
  endfacet
  facet normal -2.546957e-01 -9.649332e-01 6.351427e-02
    outer loop
      vertex   2.877520e+00 1.065805e+01 -8.103105e-01
      vertex   3.000000e+00 1.062966e+01 -7.503830e-01
      vertex   2.878565e+00 1.066192e+01 -7.472856e-01
    endloop
  endfacet
  facet normal -2.548987e-01 -9.652040e-01 5.837674e-02
    outer loop
      vertex   2.878565e+00 1.066192e+01 -7.472856e-01
      vertex   3.000000e+00 1.062966e+01 -7.503830e-01
      vertex   2.879524e+00 1.066547e+01 -6.843673e-01
    endloop
  endfacet
  facet normal -2.440616e-01 -9.680015e-01 5.836949e-02
    outer loop
      vertex   2.878565e+00 1.066192e+01 -7.472856e-01
      vertex   2.879524e+00 1.066547e+01 -6.843673e-01
      vertex   2.752226e+00 1.069377e+01 -7.472856e-01
    endloop
  endfacet
  facet normal -2.440616e-01 -9.680015e-01 5.836949e-02
    outer loop
      vertex   2.752226e+00 1.069377e+01 -7.472856e-01
      vertex   2.879524e+00 1.066547e+01 -6.843673e-01
      vertex   2.753143e+00 1.069734e+01 -6.843673e-01
    endloop
  endfacet
  facet normal -2.330832e-01 -9.707039e-01 5.836252e-02
    outer loop
      vertex   2.752226e+00 1.069377e+01 -7.472856e-01
      vertex   2.753143e+00 1.069734e+01 -6.843673e-01
      vertex   2.625923e+00 1.072410e+01 -7.472856e-01
    endloop
  endfacet
  facet normal -2.330832e-01 -9.707039e-01 5.836252e-02
    outer loop
      vertex   2.625923e+00 1.072410e+01 -7.472856e-01
      vertex   2.753143e+00 1.069734e+01 -6.843673e-01
      vertex   2.626798e+00 1.072767e+01 -6.843673e-01
    endloop
  endfacet
  facet normal -2.221129e-01 -9.732731e-01 5.835587e-02
    outer loop
      vertex   2.625923e+00 1.072410e+01 -7.472856e-01
      vertex   2.626798e+00 1.072767e+01 -6.843673e-01
      vertex   2.499683e+00 1.075291e+01 -7.472856e-01
    endloop
  endfacet
  facet normal -2.221129e-01 -9.732731e-01 5.835587e-02
    outer loop
      vertex   2.499683e+00 1.075291e+01 -7.472856e-01
      vertex   2.626798e+00 1.072767e+01 -6.843673e-01
      vertex   2.500516e+00 1.075649e+01 -6.843673e-01
    endloop
  endfacet
  facet normal -2.111404e-01 -9.757126e-01 5.834954e-02
    outer loop
      vertex   2.499683e+00 1.075291e+01 -7.472856e-01
      vertex   2.500516e+00 1.075649e+01 -6.843673e-01
      vertex   2.373246e+00 1.078027e+01 -7.472856e-01
    endloop
  endfacet
  facet normal -2.111374e-01 -9.757136e-01 5.834307e-02
    outer loop
      vertex   2.373246e+00 1.078027e+01 -7.472856e-01
      vertex   2.500516e+00 1.075649e+01 -6.843673e-01
      vertex   2.373966e+00 1.078388e+01 -6.843673e-01
    endloop
  endfacet
  facet normal -2.001890e-01 -9.780182e-01 5.834997e-02
    outer loop
      vertex   2.373246e+00 1.078027e+01 -7.472856e-01
      vertex   2.373966e+00 1.078388e+01 -6.843673e-01
      vertex   2.247412e+00 1.080603e+01 -7.472856e-01
    endloop
  endfacet
  facet normal -2.001852e-01 -9.780195e-01 5.834173e-02
    outer loop
      vertex   2.247412e+00 1.080603e+01 -7.472856e-01
      vertex   2.373966e+00 1.078388e+01 -6.843673e-01
      vertex   2.248141e+00 1.080963e+01 -6.843673e-01
    endloop
  endfacet
  facet normal -1.892687e-01 -9.801907e-01 5.833971e-02
    outer loop
      vertex   2.247412e+00 1.080603e+01 -7.472856e-01
      vertex   2.248141e+00 1.080963e+01 -6.843673e-01
      vertex   2.121613e+00 1.083032e+01 -7.472856e-01
    endloop
  endfacet
  facet normal -2.560574e-01 -9.650284e-01 5.616688e-02
    outer loop
      vertex   3.000000e+00 1.062966e+01 -7.503830e-01
      vertex   3.000000e+00 1.063694e+01 -6.254496e-01
      vertex   2.879524e+00 1.066547e+01 -6.843673e-01
    endloop
  endfacet
  facet normal -2.547512e-01 -9.655394e-01 5.324839e-02
    outer loop
      vertex   2.879524e+00 1.066547e+01 -6.843673e-01
      vertex   3.000000e+00 1.063694e+01 -6.254496e-01
      vertex   2.880397e+00 1.066871e+01 -6.215583e-01
    endloop
  endfacet
  facet normal -2.441317e-01 -9.682794e-01 5.324185e-02
    outer loop
      vertex   2.879524e+00 1.066547e+01 -6.843673e-01
      vertex   2.880397e+00 1.066871e+01 -6.215583e-01
      vertex   2.753143e+00 1.069734e+01 -6.843673e-01
    endloop
  endfacet
  facet normal -2.441317e-01 -9.682794e-01 5.324185e-02
    outer loop
      vertex   2.753143e+00 1.069734e+01 -6.843673e-01
      vertex   2.880397e+00 1.066871e+01 -6.215583e-01
      vertex   2.753978e+00 1.070058e+01 -6.215583e-01
    endloop
  endfacet
  facet normal -2.331501e-01 -9.709825e-01 5.323549e-02
    outer loop
      vertex   2.753143e+00 1.069734e+01 -6.843673e-01
      vertex   2.753978e+00 1.070058e+01 -6.215583e-01
      vertex   2.626798e+00 1.072767e+01 -6.843673e-01
    endloop
  endfacet
  facet normal -2.331501e-01 -9.709825e-01 5.323549e-02
    outer loop
      vertex   2.626798e+00 1.072767e+01 -6.843673e-01
      vertex   2.753978e+00 1.070058e+01 -6.215583e-01
      vertex   2.627595e+00 1.073093e+01 -6.215583e-01
    endloop
  endfacet
  facet normal -2.221766e-01 -9.735524e-01 5.322942e-02
    outer loop
      vertex   2.626798e+00 1.072767e+01 -6.843673e-01
      vertex   2.627595e+00 1.073093e+01 -6.215583e-01
      vertex   2.500516e+00 1.075649e+01 -6.843673e-01
    endloop
  endfacet
  facet normal -2.221766e-01 -9.735524e-01 5.322942e-02
    outer loop
      vertex   2.500516e+00 1.075649e+01 -6.843673e-01
      vertex   2.627595e+00 1.073093e+01 -6.215583e-01
      vertex   2.501274e+00 1.075976e+01 -6.215583e-01
    endloop
  endfacet
  facet normal -2.111979e-01 -9.759932e-01 5.322364e-02
    outer loop
      vertex   2.500516e+00 1.075649e+01 -6.843673e-01
      vertex   2.501274e+00 1.075976e+01 -6.215583e-01
      vertex   2.373966e+00 1.078388e+01 -6.843673e-01
    endloop
  endfacet
  facet normal -2.111949e-01 -9.759942e-01 5.321715e-02
    outer loop
      vertex   2.373966e+00 1.078388e+01 -6.843673e-01
      vertex   2.501274e+00 1.075976e+01 -6.215583e-01
      vertex   2.374614e+00 1.078716e+01 -6.215583e-01
    endloop
  endfacet
  facet normal -2.002425e-01 -9.782996e-01 5.322461e-02
    outer loop
      vertex   2.373966e+00 1.078388e+01 -6.843673e-01
      vertex   2.374614e+00 1.078716e+01 -6.215583e-01
      vertex   2.248141e+00 1.080963e+01 -6.843673e-01
    endloop
  endfacet
  facet normal -2.549736e-01 -9.657495e-01 4.812963e-02
    outer loop
      vertex   2.880397e+00 1.066871e+01 -6.215583e-01
      vertex   3.000000e+00 1.063694e+01 -6.254496e-01
      vertex   2.881185e+00 1.067162e+01 -5.588609e-01
    endloop
  endfacet
  facet normal -2.561310e-01 -9.655489e-01 4.595979e-02
    outer loop
      vertex   2.881185e+00 1.067162e+01 -5.588609e-01
      vertex   3.000000e+00 1.063694e+01 -6.254496e-01
      vertex   3.000000e+00 1.064289e+01 -5.004485e-01
    endloop
  endfacet
  facet normal -2.548036e-01 -9.660354e-01 4.302038e-02
    outer loop
      vertex   2.881185e+00 1.067162e+01 -5.588609e-01
      vertex   3.000000e+00 1.064289e+01 -5.004485e-01
      vertex   2.881887e+00 1.067422e+01 -4.962776e-01
    endloop
  endfacet
  facet normal -2.550249e-01 -9.661906e-01 3.792099e-02
    outer loop
      vertex   2.881887e+00 1.067422e+01 -4.962776e-01
      vertex   3.000000e+00 1.064289e+01 -5.004485e-01
      vertex   2.882505e+00 1.067651e+01 -4.338108e-01
    endloop
  endfacet
  facet normal -2.443026e-01 -9.689575e-01 3.791630e-02
    outer loop
      vertex   2.881887e+00 1.067422e+01 -4.962776e-01
      vertex   2.882505e+00 1.067651e+01 -4.338108e-01
      vertex   2.755403e+00 1.070612e+01 -4.962776e-01
    endloop
  endfacet
  facet normal -2.443026e-01 -9.689575e-01 3.791630e-02
    outer loop
      vertex   2.755403e+00 1.070612e+01 -4.962776e-01
      vertex   2.882505e+00 1.067651e+01 -4.338108e-01
      vertex   2.755993e+00 1.070841e+01 -4.338108e-01
    endloop
  endfacet
  facet normal -2.333133e-01 -9.716623e-01 3.791176e-02
    outer loop
      vertex   2.755403e+00 1.070612e+01 -4.962776e-01
      vertex   2.755993e+00 1.070841e+01 -4.338108e-01
      vertex   2.628954e+00 1.073648e+01 -4.962776e-01
    endloop
  endfacet
  facet normal -2.561916e-01 -9.659647e-01 3.574990e-02
    outer loop
      vertex   3.000000e+00 1.064289e+01 -5.004485e-01
      vertex   3.000000e+00 1.064751e+01 -3.753913e-01
      vertex   2.882505e+00 1.067651e+01 -4.338108e-01
    endloop
  endfacet
  facet normal -2.548534e-01 -9.664222e-01 3.283144e-02
    outer loop
      vertex   2.882505e+00 1.067651e+01 -4.338108e-01
      vertex   3.000000e+00 1.064751e+01 -3.753913e-01
      vertex   2.883039e+00 1.067849e+01 -3.714629e-01
    endloop
  endfacet
  facet normal -2.443467e-01 -9.691321e-01 3.282742e-02
    outer loop
      vertex   2.882505e+00 1.067651e+01 -4.338108e-01
      vertex   2.883039e+00 1.067849e+01 -3.714629e-01
      vertex   2.755993e+00 1.070841e+01 -4.338108e-01
    endloop
  endfacet
  facet normal -2.562718e-01 -9.664833e-01 1.532358e-02
    outer loop
      vertex   3.000000e+00 1.065280e+01 -1.251554e-01
      vertex   2.884141e+00 1.068257e+01 -1.851554e-01
      vertex   3.000000e+00 1.065082e+01 -2.502897e-01
    endloop
  endfacet
  facet normal -2.550560e-01 -9.667657e-01 1.762390e-02
    outer loop
      vertex   3.000000e+00 1.065082e+01 -2.502897e-01
      vertex   2.884141e+00 1.068257e+01 -1.851554e-01
      vertex   2.883856e+00 1.068152e+01 -2.471329e-01
    endloop
  endfacet
  facet normal -2.549014e-01 -9.667010e-01 2.268277e-02
    outer loop
      vertex   3.000000e+00 1.065082e+01 -2.502897e-01
      vertex   2.883856e+00 1.068152e+01 -2.471329e-01
      vertex   2.883489e+00 1.068016e+01 -3.092361e-01
    endloop
  endfacet
  facet normal -2.444155e-01 -9.694053e-01 2.267999e-02
    outer loop
      vertex   2.883489e+00 1.068016e+01 -3.092361e-01
      vertex   2.883856e+00 1.068152e+01 -2.471329e-01
      vertex   2.756934e+00 1.071207e+01 -3.092361e-01
    endloop
  endfacet
  facet normal -2.443843e-01 -9.692814e-01 2.774860e-02
    outer loop
      vertex   2.883489e+00 1.068016e+01 -3.092361e-01
      vertex   2.756934e+00 1.071207e+01 -3.092361e-01
      vertex   2.756504e+00 1.071039e+01 -3.714629e-01
    endloop
  endfacet
  facet normal -2.333913e-01 -9.719870e-01 2.774528e-02
    outer loop
      vertex   2.756504e+00 1.071039e+01 -3.714629e-01
      vertex   2.756934e+00 1.071207e+01 -3.092361e-01
      vertex   2.630004e+00 1.074077e+01 -3.714629e-01
    endloop
  endfacet
  facet normal -2.333553e-01 -9.718374e-01 3.282349e-02
    outer loop
      vertex   2.756504e+00 1.071039e+01 -3.714629e-01
      vertex   2.630004e+00 1.074077e+01 -3.714629e-01
      vertex   2.629517e+00 1.073878e+01 -4.338108e-01
    endloop
  endfacet
  facet normal -2.223722e-01 -9.744093e-01 3.281974e-02
    outer loop
      vertex   2.629517e+00 1.073878e+01 -4.338108e-01
      vertex   2.630004e+00 1.074077e+01 -3.714629e-01
      vertex   2.503104e+00 1.076763e+01 -4.338108e-01
    endloop
  endfacet
  facet normal -2.223321e-01 -9.742338e-01 3.790744e-02
    outer loop
      vertex   2.629517e+00 1.073878e+01 -4.338108e-01
      vertex   2.503104e+00 1.076763e+01 -4.338108e-01
      vertex   2.502567e+00 1.076532e+01 -4.962776e-01
    endloop
  endfacet
  facet normal -2.113365e-01 -9.766782e-01 3.790331e-02
    outer loop
      vertex   2.502567e+00 1.076532e+01 -4.962776e-01
      vertex   2.503104e+00 1.076763e+01 -4.338108e-01
      vertex   2.375700e+00 1.079277e+01 -4.962776e-01
    endloop
  endfacet
  facet normal -2.112929e-01 -9.764768e-01 4.299384e-02
    outer loop
      vertex   2.502567e+00 1.076532e+01 -4.962776e-01
      vertex   2.375700e+00 1.079277e+01 -4.962776e-01
      vertex   2.375192e+00 1.079013e+01 -5.588609e-01
    endloop
  endfacet
  facet normal -2.003333e-01 -9.787836e-01 4.300242e-02
    outer loop
      vertex   2.375192e+00 1.079013e+01 -5.588609e-01
      vertex   2.375700e+00 1.079277e+01 -4.962776e-01
      vertex   2.249397e+00 1.081587e+01 -5.588609e-01
    endloop
  endfacet
  facet normal -2.002867e-01 -9.785559e-01 4.810042e-02
    outer loop
      vertex   2.375192e+00 1.079013e+01 -5.588609e-01
      vertex   2.249397e+00 1.081587e+01 -5.588609e-01
      vertex   2.248802e+00 1.081291e+01 -6.215583e-01
    endloop
  endfacet
  facet normal -1.893708e-01 -9.807269e-01 4.809941e-02
    outer loop
      vertex   2.248802e+00 1.081291e+01 -6.215583e-01
      vertex   2.249397e+00 1.081587e+01 -5.588609e-01
      vertex   2.122971e+00 1.083721e+01 -6.215583e-01
    endloop
  endfacet
  facet normal -1.893216e-01 -9.804722e-01 5.321337e-02
    outer loop
      vertex   2.248802e+00 1.081291e+01 -6.215583e-01
      vertex   2.122971e+00 1.083721e+01 -6.215583e-01
      vertex   2.122323e+00 1.083393e+01 -6.843673e-01
    endloop
  endfacet
  facet normal -1.786057e-01 -9.824810e-01 5.320793e-02
    outer loop
      vertex   2.122323e+00 1.083393e+01 -6.843673e-01
      vertex   2.122971e+00 1.083721e+01 -6.215583e-01
      vertex   2.000000e+00 1.085936e+01 -6.254313e-01
    endloop
  endfacet
  facet normal -1.772715e-01 -9.825667e-01 5.601417e-02
    outer loop
      vertex   2.122323e+00 1.083393e+01 -6.843673e-01
      vertex   2.000000e+00 1.085936e+01 -6.254313e-01
      vertex   2.000000e+00 1.085223e+01 -7.503674e-01
    endloop
  endfacet
  facet normal -2.562893e-01 -9.665866e-01 5.108062e-03
    outer loop
      vertex   3.000000e+00 1.065347e+01 0.000000e+00
      vertex   2.884465e+00 1.068377e+01 -6.158679e-02
      vertex   3.000000e+00 1.065280e+01 -1.251554e-01
    endloop
  endfacet
  facet normal -2.550370e-01 -9.669019e-01 7.537763e-03
    outer loop
      vertex   3.000000e+00 1.065280e+01 -1.251554e-01
      vertex   2.884465e+00 1.068377e+01 -6.158679e-02
      vertex   2.884344e+00 1.068332e+01 -1.233060e-01
    endloop
  endfacet
  facet normal -2.549487e-01 -9.668728e-01 1.257551e-02
    outer loop
      vertex   3.000000e+00 1.065280e+01 -1.251554e-01
      vertex   2.884344e+00 1.068332e+01 -1.233060e-01
      vertex   2.884141e+00 1.068257e+01 -1.851554e-01
    endloop
  endfacet
  facet normal -2.444591e-01 -9.695781e-01 1.257397e-02
    outer loop
      vertex   2.884141e+00 1.068257e+01 -1.851554e-01
      vertex   2.884344e+00 1.068332e+01 -1.233060e-01
      vertex   2.757558e+00 1.071449e+01 -1.851554e-01
    endloop
  endfacet
  facet normal -2.444405e-01 -9.695042e-01 1.762173e-02
    outer loop
      vertex   2.884141e+00 1.068257e+01 -1.851554e-01
      vertex   2.757558e+00 1.071449e+01 -1.851554e-01
      vertex   2.757285e+00 1.071343e+01 -2.471329e-01
    endloop
  endfacet
  facet normal -2.334449e-01 -9.722104e-01 1.761962e-02
    outer loop
      vertex   2.757285e+00 1.071343e+01 -2.471329e-01
      vertex   2.757558e+00 1.071449e+01 -1.851554e-01
      vertex   2.630750e+00 1.074381e+01 -2.471329e-01
    endloop
  endfacet
  facet normal -2.334211e-01 -9.721113e-01 2.267728e-02
    outer loop
      vertex   2.757285e+00 1.071343e+01 -2.471329e-01
      vertex   2.630750e+00 1.074381e+01 -2.471329e-01
      vertex   2.630415e+00 1.074245e+01 -3.092361e-01
    endloop
  endfacet
  facet normal -2.224348e-01 -9.746839e-01 2.267469e-02
    outer loop
      vertex   2.630415e+00 1.074245e+01 -3.092361e-01
      vertex   2.630750e+00 1.074381e+01 -2.471329e-01
      vertex   2.503959e+00 1.077131e+01 -3.092361e-01
    endloop
  endfacet
  facet normal -2.224064e-01 -9.745593e-01 2.774211e-02
    outer loop
      vertex   2.630415e+00 1.074245e+01 -3.092361e-01
      vertex   2.503959e+00 1.077131e+01 -3.092361e-01
      vertex   2.503568e+00 1.076962e+01 -3.714629e-01
    endloop
  endfacet
  facet normal -2.114009e-01 -9.770057e-01 2.773908e-02
    outer loop
      vertex   2.503568e+00 1.076962e+01 -3.714629e-01
      vertex   2.503959e+00 1.077131e+01 -3.092361e-01
      vertex   2.376507e+00 1.079712e+01 -3.714629e-01
    endloop
  endfacet
  facet normal -2.113684e-01 -9.768556e-01 3.280959e-02
    outer loop
      vertex   2.503568e+00 1.076962e+01 -3.714629e-01
      vertex   2.376507e+00 1.079712e+01 -3.714629e-01
      vertex   2.376139e+00 1.079510e+01 -4.338108e-01
    endloop
  endfacet
  facet normal -2.004028e-01 -9.791637e-01 3.281929e-02
    outer loop
      vertex   2.376139e+00 1.079510e+01 -4.338108e-01
      vertex   2.376507e+00 1.079712e+01 -3.714629e-01
      vertex   2.250387e+00 1.082084e+01 -4.338108e-01
    endloop
  endfacet
  facet normal -2.003668e-01 -9.789877e-01 3.789758e-02
    outer loop
      vertex   2.376139e+00 1.079510e+01 -4.338108e-01
      vertex   2.250387e+00 1.082084e+01 -4.338108e-01
      vertex   2.249925e+00 1.081852e+01 -4.962776e-01
    endloop
  endfacet
  facet normal -1.894526e-01 -9.811582e-01 3.789757e-02
    outer loop
      vertex   2.249925e+00 1.081852e+01 -4.962776e-01
      vertex   2.250387e+00 1.082084e+01 -4.338108e-01
      vertex   2.124077e+00 1.084282e+01 -4.962776e-01
    endloop
  endfacet
  facet normal -1.894135e-01 -9.809558e-01 4.299214e-02
    outer loop
      vertex   2.249925e+00 1.081852e+01 -4.962776e-01
      vertex   2.124077e+00 1.084282e+01 -4.962776e-01
      vertex   2.123555e+00 1.084017e+01 -5.588609e-01
    endloop
  endfacet
  facet normal -1.786529e-01 -9.829726e-01 4.298757e-02
    outer loop
      vertex   2.123555e+00 1.084017e+01 -5.588609e-01
      vertex   2.124077e+00 1.084282e+01 -4.962776e-01
      vertex   2.000000e+00 1.086518e+01 -5.004302e-01
    endloop
  endfacet
  facet normal -1.773288e-01 -9.830837e-01 4.583503e-02
    outer loop
      vertex   2.123555e+00 1.084017e+01 -5.588609e-01
      vertex   2.000000e+00 1.086518e+01 -5.004302e-01
      vertex   2.000000e+00 1.085936e+01 -6.254313e-01
    endloop
  endfacet
  facet normal -2.546338e-01 -9.670359e-01 1.781341e-03
    outer loop
      vertex   3.000000e+00 1.065347e+01 0.000000e+00
      vertex   2.876125e+00 1.068608e+01 0.000000e+00
      vertex   2.884465e+00 1.068377e+01 -6.158679e-02
    endloop
  endfacet
  facet normal -2.444771e-01 -9.696496e-01 3.254788e-03
    outer loop
      vertex   2.884465e+00 1.068377e+01 -6.158679e-02
      vertex   2.876125e+00 1.068608e+01 0.000000e+00
      vertex   2.757867e+00 1.071569e+01 -6.158679e-02
    endloop
  endfacet
  facet normal -2.444715e-01 -9.696272e-01 7.536837e-03
    outer loop
      vertex   2.884465e+00 1.068377e+01 -6.158679e-02
      vertex   2.757867e+00 1.071569e+01 -6.158679e-02
      vertex   2.757752e+00 1.071524e+01 -1.233060e-01
    endloop
  endfacet
  facet normal -2.334745e-01 -9.723337e-01 7.535933e-03
    outer loop
      vertex   2.757752e+00 1.071524e+01 -1.233060e-01
      vertex   2.757867e+00 1.071569e+01 -6.158679e-02
      vertex   2.631195e+00 1.074563e+01 -1.233060e-01
    endloop
  endfacet
  facet normal -2.334627e-01 -9.722845e-01 1.257246e-02
    outer loop
      vertex   2.757752e+00 1.071524e+01 -1.233060e-01
      vertex   2.631195e+00 1.074563e+01 -1.233060e-01
      vertex   2.631010e+00 1.074488e+01 -1.851554e-01
    endloop
  endfacet
  facet normal -2.224744e-01 -9.748575e-01 1.257103e-02
    outer loop
      vertex   2.631010e+00 1.074488e+01 -1.851554e-01
      vertex   2.631195e+00 1.074563e+01 -1.233060e-01
      vertex   2.504525e+00 1.077374e+01 -1.851554e-01
    endloop
  endfacet
  facet normal -2.224575e-01 -9.747832e-01 1.761761e-02
    outer loop
      vertex   2.631010e+00 1.074488e+01 -1.851554e-01
      vertex   2.504525e+00 1.077374e+01 -1.851554e-01
      vertex   2.504278e+00 1.077268e+01 -2.471329e-01
    endloop
  endfacet
  facet normal -2.114433e-01 -9.772315e-01 1.761569e-02
    outer loop
      vertex   2.504278e+00 1.077268e+01 -2.471329e-01
      vertex   2.504525e+00 1.077374e+01 -1.851554e-01
      vertex   2.377039e+00 1.080021e+01 -2.471329e-01
    endloop
  endfacet
  facet normal -2.114218e-01 -9.771321e-01 2.266559e-02
    outer loop
      vertex   2.504278e+00 1.077268e+01 -2.471329e-01
      vertex   2.377039e+00 1.080021e+01 -2.471329e-01
      vertex   2.376807e+00 1.079882e+01 -3.092361e-01
    endloop
  endfacet
  facet normal -2.004513e-01 -9.794412e-01 2.267640e-02
    outer loop
      vertex   2.376807e+00 1.079882e+01 -3.092361e-01
      vertex   2.377039e+00 1.080021e+01 -2.471329e-01
      vertex   2.251115e+00 1.082454e+01 -3.092361e-01
    endloop
  endfacet
  facet normal -2.004257e-01 -9.793163e-01 2.773439e-02
    outer loop
      vertex   2.376807e+00 1.079882e+01 -3.092361e-01
      vertex   2.251115e+00 1.082454e+01 -3.092361e-01
      vertex   2.250783e+00 1.082285e+01 -3.714629e-01
    endloop
  endfacet
  facet normal -1.895145e-01 -9.814861e-01 2.773539e-02
    outer loop
      vertex   2.250783e+00 1.082285e+01 -3.714629e-01
      vertex   2.251115e+00 1.082454e+01 -3.092361e-01
      vertex   2.124934e+00 1.084715e+01 -3.714629e-01
    endloop
  endfacet
  facet normal -1.894853e-01 -9.813352e-01 3.280998e-02
    outer loop
      vertex   2.250783e+00 1.082285e+01 -3.714629e-01
      vertex   2.124934e+00 1.084715e+01 -3.714629e-01
      vertex   2.124537e+00 1.084514e+01 -4.338108e-01
    endloop
  endfacet
  facet normal -1.786822e-01 -9.833598e-01 3.280629e-02
    outer loop
      vertex   2.124537e+00 1.084514e+01 -4.338108e-01
      vertex   2.124934e+00 1.084715e+01 -3.714629e-01
      vertex   2.000000e+00 1.086972e+01 -3.753754e-01
    endloop
  endfacet
  facet normal -1.773737e-01 -9.834976e-01 3.565300e-02
    outer loop
      vertex   2.124537e+00 1.084514e+01 -4.338108e-01
      vertex   2.000000e+00 1.086972e+01 -3.753754e-01
      vertex   2.000000e+00 1.086518e+01 -5.004302e-01
    endloop
  endfacet
  facet normal -2.438529e-01 -9.698102e-01 1.978993e-03
    outer loop
      vertex   2.876125e+00 1.068608e+01 0.000000e+00
      vertex   2.751904e+00 1.071732e+01 0.000000e+00
      vertex   2.757867e+00 1.071569e+01 -6.158679e-02
    endloop
  endfacet
  facet normal -2.334801e-01 -9.723568e-01 3.050587e-03
    outer loop
      vertex   2.757867e+00 1.071569e+01 -6.158679e-02
      vertex   2.751904e+00 1.071732e+01 0.000000e+00
      vertex   2.631306e+00 1.074608e+01 -6.158679e-02
    endloop
  endfacet
  facet normal -2.334745e-01 -9.723337e-01 7.535933e-03
    outer loop
      vertex   2.757867e+00 1.071569e+01 -6.158679e-02
      vertex   2.631306e+00 1.074608e+01 -6.158679e-02
      vertex   2.631195e+00 1.074563e+01 -1.233060e-01
    endloop
  endfacet
  facet normal -2.224857e-01 -9.749068e-01 7.535072e-03
    outer loop
      vertex   2.631195e+00 1.074563e+01 -1.233060e-01
      vertex   2.631306e+00 1.074608e+01 -6.158679e-02
      vertex   2.504701e+00 1.077450e+01 -1.233060e-01
    endloop
  endfacet
  facet normal -2.224744e-01 -9.748575e-01 1.257103e-02
    outer loop
      vertex   2.631195e+00 1.074563e+01 -1.233060e-01
      vertex   2.504701e+00 1.077450e+01 -1.233060e-01
      vertex   2.504525e+00 1.077374e+01 -1.851554e-01
    endloop
  endfacet
  facet normal -2.114563e-01 -9.773066e-01 1.256965e-02
    outer loop
      vertex   2.504525e+00 1.077374e+01 -1.851554e-01
      vertex   2.504701e+00 1.077450e+01 -1.233060e-01
      vertex   2.377202e+00 1.080129e+01 -1.851554e-01
    endloop
  endfacet
  facet normal -2.114402e-01 -9.772323e-01 1.760905e-02
    outer loop
      vertex   2.504525e+00 1.077374e+01 -1.851554e-01
      vertex   2.377202e+00 1.080129e+01 -1.851554e-01
      vertex   2.377039e+00 1.080021e+01 -2.471329e-01
    endloop
  endfacet
  facet normal -2.004678e-01 -9.795418e-01 1.762041e-02
    outer loop
      vertex   2.377039e+00 1.080021e+01 -2.471329e-01
      vertex   2.377202e+00 1.080129e+01 -1.851554e-01
      vertex   2.251381e+00 1.082592e+01 -2.471329e-01
    endloop
  endfacet
  facet normal -2.004474e-01 -9.794422e-01 2.266803e-02
    outer loop
      vertex   2.377039e+00 1.080021e+01 -2.471329e-01
      vertex   2.251381e+00 1.082592e+01 -2.471329e-01
      vertex   2.251115e+00 1.082454e+01 -3.092361e-01
    endloop
  endfacet
  facet normal -1.895380e-01 -9.816117e-01 2.266953e-02
    outer loop
      vertex   2.251115e+00 1.082454e+01 -3.092361e-01
      vertex   2.251381e+00 1.082592e+01 -2.471329e-01
      vertex   2.125270e+00 1.084884e+01 -3.092361e-01
    endloop
  endfacet
  facet normal -1.895138e-01 -9.814863e-01 2.773391e-02
    outer loop
      vertex   2.251115e+00 1.082454e+01 -3.092361e-01
      vertex   2.125270e+00 1.084884e+01 -3.092361e-01
      vertex   2.124934e+00 1.084715e+01 -3.714629e-01
    endloop
  endfacet
  facet normal -1.785556e-01 -9.835390e-01 2.773061e-02
    outer loop
      vertex   2.124934e+00 1.084715e+01 -3.714629e-01
      vertex   2.125270e+00 1.084884e+01 -3.092361e-01
      vertex   2.000000e+00 1.086972e+01 -3.753754e-01
    endloop
  endfacet
  facet normal -2.330464e-01 -9.724632e-01 2.151688e-03
    outer loop
      vertex   2.751904e+00 1.071732e+01 0.000000e+00
      vertex   2.627350e+00 1.074717e+01 0.000000e+00
      vertex   2.631306e+00 1.074608e+01 -6.158679e-02
    endloop
  endfacet
  facet normal -2.224911e-01 -9.749305e-01 2.873135e-03
    outer loop
      vertex   2.631306e+00 1.074608e+01 -6.158679e-02
      vertex   2.627350e+00 1.074717e+01 0.000000e+00
      vertex   2.504806e+00 1.077495e+01 -6.158679e-02
    endloop
  endfacet
  facet normal -2.224857e-01 -9.749068e-01 7.535072e-03
    outer loop
      vertex   2.631306e+00 1.074608e+01 -6.158679e-02
      vertex   2.504806e+00 1.077495e+01 -6.158679e-02
      vertex   2.504701e+00 1.077450e+01 -1.233060e-01
    endloop
  endfacet
  facet normal -2.114639e-01 -9.773568e-01 7.534249e-03
    outer loop
      vertex   2.504701e+00 1.077450e+01 -1.233060e-01
      vertex   2.504806e+00 1.077495e+01 -6.158679e-02
      vertex   2.377298e+00 1.080206e+01 -1.233060e-01
    endloop
  endfacet
  facet normal -2.114532e-01 -9.773074e-01 1.256300e-02
    outer loop
      vertex   2.504701e+00 1.077450e+01 -1.233060e-01
      vertex   2.377298e+00 1.080206e+01 -1.233060e-01
      vertex   2.377202e+00 1.080129e+01 -1.851554e-01
    endloop
  endfacet
  facet normal -2.004791e-01 -9.796173e-01 1.257491e-02
    outer loop
      vertex   2.377202e+00 1.080129e+01 -1.851554e-01
      vertex   2.377298e+00 1.080206e+01 -1.233060e-01
      vertex   2.251583e+00 1.082700e+01 -1.851554e-01
    endloop
  endfacet
  facet normal -2.004638e-01 -9.795428e-01 1.761202e-02
    outer loop
      vertex   2.377202e+00 1.080129e+01 -1.851554e-01
      vertex   2.251583e+00 1.082700e+01 -1.851554e-01
      vertex   2.251381e+00 1.082592e+01 -2.471329e-01
    endloop
  endfacet
  facet normal -1.895566e-01 -9.817118e-01 1.761402e-02
    outer loop
      vertex   2.251381e+00 1.082592e+01 -2.471329e-01
      vertex   2.251583e+00 1.082700e+01 -1.851554e-01
      vertex   2.125545e+00 1.085022e+01 -2.471329e-01
    endloop
  endfacet
  facet normal -1.895373e-01 -9.816118e-01 2.266805e-02
    outer loop
      vertex   2.251381e+00 1.082592e+01 -2.471329e-01
      vertex   2.125545e+00 1.085022e+01 -2.471329e-01
      vertex   2.125270e+00 1.084884e+01 -3.092361e-01
    endloop
  endfacet
  facet normal -1.786939e-01 -9.836436e-01 2.266526e-02
    outer loop
      vertex   2.125270e+00 1.084884e+01 -3.092361e-01
      vertex   2.125545e+00 1.085022e+01 -2.471329e-01
      vertex   2.000000e+00 1.087296e+01 -2.502779e-01
    endloop
  endfacet
  facet normal -1.774062e-01 -9.838081e-01 2.546854e-02
    outer loop
      vertex   2.125270e+00 1.084884e+01 -3.092361e-01
      vertex   2.000000e+00 1.087296e+01 -2.502779e-01
      vertex   2.000000e+00 1.086972e+01 -3.753754e-01
    endloop
  endfacet
  facet normal -2.222152e-01 -9.749949e-01 2.295073e-03
    outer loop
      vertex   2.627350e+00 1.074717e+01 0.000000e+00
      vertex   2.502474e+00 1.077563e+01 0.000000e+00
      vertex   2.504806e+00 1.077495e+01 -6.158679e-02
    endloop
  endfacet
  facet normal -2.114660e-01 -9.773815e-01 2.728384e-03
    outer loop
      vertex   2.504806e+00 1.077495e+01 -6.158679e-02
      vertex   2.502474e+00 1.077563e+01 0.000000e+00
      vertex   2.377327e+00 1.080253e+01 -6.158679e-02
    endloop
  endfacet
  facet normal -2.114608e-01 -9.773575e-01 7.527574e-03
    outer loop
      vertex   2.504806e+00 1.077495e+01 -6.158679e-02
      vertex   2.377327e+00 1.080253e+01 -6.158679e-02
      vertex   2.377298e+00 1.080206e+01 -1.233060e-01
    endloop
  endfacet
  facet normal -2.004852e-01 -9.796677e-01 7.540033e-03
    outer loop
      vertex   2.377298e+00 1.080206e+01 -1.233060e-01
      vertex   2.377327e+00 1.080253e+01 -6.158679e-02
      vertex   2.251721e+00 1.082776e+01 -1.233060e-01
    endloop
  endfacet
  facet normal -2.004751e-01 -9.796182e-01 1.256650e-02
    outer loop
      vertex   2.377298e+00 1.080206e+01 -1.233060e-01
      vertex   2.251721e+00 1.082776e+01 -1.233060e-01
      vertex   2.251583e+00 1.082700e+01 -1.851554e-01
    endloop
  endfacet
  facet normal -1.895703e-01 -9.817867e-01 1.256900e-02
    outer loop
      vertex   2.251583e+00 1.082700e+01 -1.851554e-01
      vertex   2.251721e+00 1.082776e+01 -1.233060e-01
      vertex   2.125759e+00 1.085129e+01 -1.851554e-01
    endloop
  endfacet
  facet normal -1.895559e-01 -9.817120e-01 1.761254e-02
    outer loop
      vertex   2.251583e+00 1.082700e+01 -1.851554e-01
      vertex   2.125759e+00 1.085129e+01 -1.851554e-01
      vertex   2.125545e+00 1.085022e+01 -2.471329e-01
    endloop
  endfacet
  facet normal -1.785894e-01 -9.837661e-01 1.761016e-02
    outer loop
      vertex   2.125545e+00 1.085022e+01 -2.471329e-01
      vertex   2.125759e+00 1.085129e+01 -1.851554e-01
      vertex   2.000000e+00 1.087296e+01 -2.502779e-01
    endloop
  endfacet
  facet normal -2.113602e-01 -9.774050e-01 2.503024e-03
    outer loop
      vertex   2.502474e+00 1.077563e+01 0.000000e+00
      vertex   2.377289e+00 1.080270e+01 0.000000e+00
      vertex   2.377327e+00 1.080253e+01 -6.158679e-02
    endloop
  endfacet
  facet normal -2.004863e-01 -9.796933e-01 2.515906e-03
    outer loop
      vertex   2.377327e+00 1.080253e+01 -6.158679e-02
      vertex   2.377289e+00 1.080270e+01 0.000000e+00
      vertex   2.251795e+00 1.082822e+01 -6.158679e-02
    endloop
  endfacet
  facet normal -2.004813e-01 -9.796686e-01 7.531610e-03
    outer loop
      vertex   2.377327e+00 1.080253e+01 -6.158679e-02
      vertex   2.251795e+00 1.082822e+01 -6.158679e-02
      vertex   2.251721e+00 1.082776e+01 -1.233060e-01
    endloop
  endfacet
  facet normal -1.895792e-01 -9.818365e-01 7.534607e-03
    outer loop
      vertex   2.251721e+00 1.082776e+01 -1.233060e-01
      vertex   2.251795e+00 1.082822e+01 -6.158679e-02
      vertex   2.125912e+00 1.085205e+01 -1.233060e-01
    endloop
  endfacet
  facet normal -1.895696e-01 -9.817869e-01 1.256751e-02
    outer loop
      vertex   2.251721e+00 1.082776e+01 -1.233060e-01
      vertex   2.125912e+00 1.085205e+01 -1.233060e-01
      vertex   2.125759e+00 1.085129e+01 -1.851554e-01
    endloop
  endfacet
  facet normal -1.786874e-01 -9.838257e-01 1.256562e-02
    outer loop
      vertex   2.125759e+00 1.085129e+01 -1.851554e-01
      vertex   2.125912e+00 1.085205e+01 -1.233060e-01
      vertex   2.000000e+00 1.087490e+01 -1.251491e-01
    endloop
  endfacet
  facet normal -1.774268e-01 -9.840153e-01 1.528213e-02
    outer loop
      vertex   2.125759e+00 1.085129e+01 -1.851554e-01
      vertex   2.000000e+00 1.087490e+01 -1.251491e-01
      vertex   2.000000e+00 1.087296e+01 -2.502779e-01
    endloop
  endfacet
  facet normal -2.004824e-01 -9.796941e-01 2.507468e-03
    outer loop
      vertex   2.377289e+00 1.080270e+01 0.000000e+00
      vertex   2.251807e+00 1.082838e+01 0.000000e+00
      vertex   2.251795e+00 1.082822e+01 -6.158679e-02
    endloop
  endfacet
  facet normal -1.895833e-01 -9.818614e-01 2.510959e-03
    outer loop
      vertex   2.251795e+00 1.082822e+01 -6.158679e-02
      vertex   2.251807e+00 1.082838e+01 0.000000e+00
      vertex   2.126006e+00 1.085251e+01 -6.158679e-02
    endloop
  endfacet
  facet normal -1.895785e-01 -9.818367e-01 7.533116e-03
    outer loop
      vertex   2.251795e+00 1.082822e+01 -6.158679e-02
      vertex   2.126006e+00 1.085251e+01 -6.158679e-02
      vertex   2.125912e+00 1.085205e+01 -1.233060e-01
    endloop
  endfacet
  facet normal -1.786251e-01 -9.838884e-01 7.531672e-03
    outer loop
      vertex   2.125912e+00 1.085205e+01 -1.233060e-01
      vertex   2.126006e+00 1.085251e+01 -6.158679e-02
      vertex   2.000000e+00 1.087490e+01 -1.251491e-01
    endloop
  endfacet
  facet normal -1.895826e-01 -9.818616e-01 2.509475e-03
    outer loop
      vertex   2.251807e+00 1.082838e+01 0.000000e+00
      vertex   2.126040e+00 1.085266e+01 0.000000e+00
      vertex   2.126006e+00 1.085251e+01 -6.158679e-02
    endloop
  endfacet
  facet normal -1.786617e-01 -9.839074e-01 2.508497e-03
    outer loop
      vertex   2.126006e+00 1.085251e+01 -6.158679e-02
      vertex   2.126040e+00 1.085266e+01 0.000000e+00
      vertex   2.000000e+00 1.087555e+01 0.000000e+00
    endloop
  endfacet
  facet normal -1.774366e-01 -9.841191e-01 5.094250e-03
    outer loop
      vertex   2.126006e+00 1.085251e+01 -6.158679e-02
      vertex   2.000000e+00 1.087555e+01 0.000000e+00
      vertex   2.000000e+00 1.087490e+01 -1.251491e-01
    endloop
  endfacet
  facet normal -1.892093e-01 -9.798832e-01 6.347244e-02
    outer loop
      vertex   2.247412e+00 1.080603e+01 -7.472856e-01
      vertex   2.121613e+00 1.083032e+01 -7.472856e-01
      vertex   2.120838e+00 1.082639e+01 -8.103105e-01
    endloop
  endfacet
  facet normal -1.891455e-01 -9.795488e-01 6.861578e-02
    outer loop
      vertex   2.120838e+00 1.082639e+01 -8.103105e-01
      vertex   2.119999e+00 1.082213e+01 -8.734396e-01
      vertex   2.246616e+00 1.080210e+01 -8.103105e-01
    endloop
  endfacet
  facet normal -1.891462e-01 -9.795486e-01 6.861723e-02
    outer loop
      vertex   2.246616e+00 1.080210e+01 -8.103105e-01
      vertex   2.119999e+00 1.082213e+01 -8.734396e-01
      vertex   2.245752e+00 1.079784e+01 -8.734396e-01
    endloop
  endfacet
  facet normal -2.000620e-01 -9.773773e-01 6.862026e-02
    outer loop
      vertex   2.246616e+00 1.080210e+01 -8.103105e-01
      vertex   2.245752e+00 1.079784e+01 -8.734396e-01
      vertex   2.372455e+00 1.077634e+01 -8.103105e-01
    endloop
  endfacet
  facet normal -2.000658e-01 -9.773760e-01 6.862845e-02
    outer loop
      vertex   2.372455e+00 1.077634e+01 -8.103105e-01
      vertex   2.245752e+00 1.079784e+01 -8.734396e-01
      vertex   2.371593e+00 1.077209e+01 -8.734396e-01
    endloop
  endfacet
  facet normal -2.110053e-01 -9.750732e-01 6.862269e-02
    outer loop
      vertex   2.372455e+00 1.077634e+01 -8.103105e-01
      vertex   2.371593e+00 1.077209e+01 -8.734396e-01
      vertex   2.498775e+00 1.074901e+01 -8.103105e-01
    endloop
  endfacet
  facet normal -2.110083e-01 -9.750721e-01 6.862911e-02
    outer loop
      vertex   2.498775e+00 1.074901e+01 -8.103105e-01
      vertex   2.371593e+00 1.077209e+01 -8.734396e-01
      vertex   2.497791e+00 1.074478e+01 -8.734396e-01
    endloop
  endfacet
  facet normal -2.219673e-01 -9.726354e-01 6.863654e-02
    outer loop
      vertex   2.498775e+00 1.074901e+01 -8.103105e-01
      vertex   2.497791e+00 1.074478e+01 -8.734396e-01
      vertex   2.624970e+00 1.072021e+01 -8.103105e-01
    endloop
  endfacet
  facet normal -2.219673e-01 -9.726354e-01 6.863654e-02
    outer loop
      vertex   2.624970e+00 1.072021e+01 -8.103105e-01
      vertex   2.497791e+00 1.074478e+01 -8.734396e-01
      vertex   2.623937e+00 1.071599e+01 -8.734396e-01
    endloop
  endfacet
  facet normal -2.329304e-01 -9.700677e-01 6.864435e-02
    outer loop
      vertex   2.624970e+00 1.072021e+01 -8.103105e-01
      vertex   2.623937e+00 1.071599e+01 -8.734396e-01
      vertex   2.751227e+00 1.068989e+01 -8.103105e-01
    endloop
  endfacet
  facet normal -2.329304e-01 -9.700677e-01 6.864435e-02
    outer loop
      vertex   2.751227e+00 1.068989e+01 -8.103105e-01
      vertex   2.623937e+00 1.071599e+01 -8.734396e-01
      vertex   2.750144e+00 1.068568e+01 -8.734396e-01
    endloop
  endfacet
  facet normal -2.439016e-01 -9.673670e-01 6.865253e-02
    outer loop
      vertex   2.751227e+00 1.068989e+01 -8.103105e-01
      vertex   2.750144e+00 1.068568e+01 -8.734396e-01
      vertex   2.877520e+00 1.065805e+01 -8.103105e-01
    endloop
  endfacet
  facet normal -2.439016e-01 -9.673670e-01 6.865253e-02
    outer loop
      vertex   2.877520e+00 1.065805e+01 -8.103105e-01
      vertex   2.750144e+00 1.068568e+01 -8.734396e-01
      vertex   2.876387e+00 1.065385e+01 -8.734396e-01
    endloop
  endfacet
  facet normal -1.784957e-01 -9.827646e-01 4.809284e-02
    outer loop
      vertex   2.123555e+00 1.084017e+01 -5.588609e-01
      vertex   2.000000e+00 1.085936e+01 -6.254313e-01
      vertex   2.122971e+00 1.083721e+01 -6.215583e-01
    endloop
  endfacet
  facet normal -1.785243e-01 -9.832056e-01 3.789189e-02
    outer loop
      vertex   2.124537e+00 1.084514e+01 -4.338108e-01
      vertex   2.000000e+00 1.086518e+01 -5.004302e-01
      vertex   2.124077e+00 1.084282e+01 -4.962776e-01
    endloop
  endfacet
  facet normal -1.894142e-01 -9.809556e-01 4.299361e-02
    outer loop
      vertex   2.249925e+00 1.081852e+01 -4.962776e-01
      vertex   2.123555e+00 1.084017e+01 -5.588609e-01
      vertex   2.249397e+00 1.081587e+01 -5.588609e-01
    endloop
  endfacet
  facet normal -1.893701e-01 -9.807271e-01 4.809795e-02
    outer loop
      vertex   2.249397e+00 1.081587e+01 -5.588609e-01
      vertex   2.123555e+00 1.084017e+01 -5.588609e-01
      vertex   2.122971e+00 1.083721e+01 -6.215583e-01
    endloop
  endfacet
  facet normal -1.894860e-01 -9.813350e-01 3.281145e-02
    outer loop
      vertex   2.250783e+00 1.082285e+01 -3.714629e-01
      vertex   2.124537e+00 1.084514e+01 -4.338108e-01
      vertex   2.250387e+00 1.082084e+01 -4.338108e-01
    endloop
  endfacet
  facet normal -1.894519e-01 -9.811584e-01 3.789610e-02
    outer loop
      vertex   2.250387e+00 1.082084e+01 -4.338108e-01
      vertex   2.124537e+00 1.084514e+01 -4.338108e-01
      vertex   2.124077e+00 1.084282e+01 -4.962776e-01
    endloop
  endfacet
  facet normal -2.001263e-01 -9.777117e-01 6.347642e-02
    outer loop
      vertex   2.373246e+00 1.078027e+01 -7.472856e-01
      vertex   2.247412e+00 1.080603e+01 -7.472856e-01
      vertex   2.246616e+00 1.080210e+01 -8.103105e-01
    endloop
  endfacet
  facet normal -1.892100e-01 -9.798830e-01 6.347389e-02
    outer loop
      vertex   2.246616e+00 1.080210e+01 -8.103105e-01
      vertex   2.247412e+00 1.080603e+01 -7.472856e-01
      vertex   2.120838e+00 1.082639e+01 -8.103105e-01
    endloop
  endfacet
  facet normal -2.001302e-01 -9.777104e-01 6.348464e-02
    outer loop
      vertex   2.373246e+00 1.078027e+01 -7.472856e-01
      vertex   2.246616e+00 1.080210e+01 -8.103105e-01
      vertex   2.372455e+00 1.077634e+01 -8.103105e-01
    endloop
  endfacet
  facet normal -2.003707e-01 -9.789866e-01 3.790590e-02
    outer loop
      vertex   2.376139e+00 1.079510e+01 -4.338108e-01
      vertex   2.249925e+00 1.081852e+01 -4.962776e-01
      vertex   2.375700e+00 1.079277e+01 -4.962776e-01
    endloop
  endfacet
  facet normal -2.003294e-01 -9.787848e-01 4.299412e-02
    outer loop
      vertex   2.375700e+00 1.079277e+01 -4.962776e-01
      vertex   2.249925e+00 1.081852e+01 -4.962776e-01
      vertex   2.249397e+00 1.081587e+01 -5.588609e-01
    endloop
  endfacet
  facet normal -2.004297e-01 -9.793152e-01 2.774274e-02
    outer loop
      vertex   2.376807e+00 1.079882e+01 -3.092361e-01
      vertex   2.250783e+00 1.082285e+01 -3.714629e-01
      vertex   2.376507e+00 1.079712e+01 -3.714629e-01
    endloop
  endfacet
  facet normal -2.003989e-01 -9.791648e-01 3.281095e-02
    outer loop
      vertex   2.376507e+00 1.079712e+01 -3.714629e-01
      vertex   2.250783e+00 1.082285e+01 -3.714629e-01
      vertex   2.250387e+00 1.082084e+01 -4.338108e-01
    endloop
  endfacet
  facet normal -2.110742e-01 -9.754067e-01 6.347831e-02
    outer loop
      vertex   2.499683e+00 1.075291e+01 -7.472856e-01
      vertex   2.373246e+00 1.078027e+01 -7.472856e-01
      vertex   2.372455e+00 1.077634e+01 -8.103105e-01
    endloop
  endfacet
  facet normal -2.110772e-01 -9.754056e-01 6.348475e-02
    outer loop
      vertex   2.499683e+00 1.075291e+01 -7.472856e-01
      vertex   2.372455e+00 1.077634e+01 -8.103105e-01
      vertex   2.498775e+00 1.074901e+01 -8.103105e-01
    endloop
  endfacet
  facet normal -2.112497e-01 -9.762475e-01 4.810720e-02
    outer loop
      vertex   2.501958e+00 1.076270e+01 -5.588609e-01
      vertex   2.374614e+00 1.078716e+01 -6.215583e-01
      vertex   2.501274e+00 1.075976e+01 -6.215583e-01
    endloop
  endfacet
  facet normal -2.113714e-01 -9.768548e-01 3.281617e-02
    outer loop
      vertex   2.503568e+00 1.076962e+01 -3.714629e-01
      vertex   2.376139e+00 1.079510e+01 -4.338108e-01
      vertex   2.503104e+00 1.076763e+01 -4.338108e-01
    endloop
  endfacet
  facet normal -2.113334e-01 -9.766791e-01 3.789676e-02
    outer loop
      vertex   2.503104e+00 1.076763e+01 -4.338108e-01
      vertex   2.376139e+00 1.079510e+01 -4.338108e-01
      vertex   2.375700e+00 1.079277e+01 -4.962776e-01
    endloop
  endfacet
  facet normal -2.114248e-01 -9.771313e-01 2.267221e-02
    outer loop
      vertex   2.504278e+00 1.077268e+01 -2.471329e-01
      vertex   2.376807e+00 1.079882e+01 -3.092361e-01
      vertex   2.503959e+00 1.077131e+01 -3.092361e-01
    endloop
  endfacet
  facet normal -2.113978e-01 -9.770066e-01 2.773249e-02
    outer loop
      vertex   2.503959e+00 1.077131e+01 -3.092361e-01
      vertex   2.376807e+00 1.079882e+01 -3.092361e-01
      vertex   2.376507e+00 1.079712e+01 -3.714629e-01
    endloop
  endfacet
  facet normal -2.220431e-01 -9.729675e-01 6.349163e-02
    outer loop
      vertex   2.625923e+00 1.072410e+01 -7.472856e-01
      vertex   2.499683e+00 1.075291e+01 -7.472856e-01
      vertex   2.498775e+00 1.074901e+01 -8.103105e-01
    endloop
  endfacet
  facet normal -2.220431e-01 -9.729675e-01 6.349163e-02
    outer loop
      vertex   2.625923e+00 1.072410e+01 -7.472856e-01
      vertex   2.498775e+00 1.074901e+01 -8.103105e-01
      vertex   2.624970e+00 1.072021e+01 -8.103105e-01
    endloop
  endfacet
  facet normal -2.222344e-01 -9.738055e-01 4.811243e-02
    outer loop
      vertex   2.501958e+00 1.076270e+01 -5.588609e-01
      vertex   2.501274e+00 1.075976e+01 -6.215583e-01
      vertex   2.628313e+00 1.073386e+01 -5.588609e-01
    endloop
  endfacet
  facet normal -2.222344e-01 -9.738055e-01 4.811243e-02
    outer loop
      vertex   2.628313e+00 1.073386e+01 -5.588609e-01
      vertex   2.501274e+00 1.075976e+01 -6.215583e-01
      vertex   2.627595e+00 1.073093e+01 -6.215583e-01
    endloop
  endfacet
  facet normal -2.332107e-01 -9.712350e-01 4.811791e-02
    outer loop
      vertex   2.628313e+00 1.073386e+01 -5.588609e-01
      vertex   2.627595e+00 1.073093e+01 -6.215583e-01
      vertex   2.754731e+00 1.070351e+01 -5.588609e-01
    endloop
  endfacet
  facet normal -2.332107e-01 -9.712350e-01 4.811791e-02
    outer loop
      vertex   2.754731e+00 1.070351e+01 -5.588609e-01
      vertex   2.627595e+00 1.073093e+01 -6.215583e-01
      vertex   2.753978e+00 1.070058e+01 -6.215583e-01
    endloop
  endfacet
  facet normal -2.441952e-01 -9.685313e-01 4.812367e-02
    outer loop
      vertex   2.754731e+00 1.070351e+01 -5.588609e-01
      vertex   2.753978e+00 1.070058e+01 -6.215583e-01
      vertex   2.881185e+00 1.067162e+01 -5.588609e-01
    endloop
  endfacet
  facet normal -2.441952e-01 -9.685313e-01 4.812367e-02
    outer loop
      vertex   2.881185e+00 1.067162e+01 -5.588609e-01
      vertex   2.753978e+00 1.070058e+01 -6.215583e-01
      vertex   2.880397e+00 1.066871e+01 -6.215583e-01
    endloop
  endfacet
  facet normal -2.224064e-01 -9.745593e-01 2.774211e-02
    outer loop
      vertex   2.630415e+00 1.074245e+01 -3.092361e-01
      vertex   2.503568e+00 1.076962e+01 -3.714629e-01
      vertex   2.630004e+00 1.074077e+01 -3.714629e-01
    endloop
  endfacet
  facet normal -2.223722e-01 -9.744093e-01 3.281974e-02
    outer loop
      vertex   2.630004e+00 1.074077e+01 -3.714629e-01
      vertex   2.503568e+00 1.076962e+01 -3.714629e-01
      vertex   2.503104e+00 1.076763e+01 -4.338108e-01
    endloop
  endfacet
  facet normal -2.224575e-01 -9.747832e-01 1.761761e-02
    outer loop
      vertex   2.631010e+00 1.074488e+01 -1.851554e-01
      vertex   2.504278e+00 1.077268e+01 -2.471329e-01
      vertex   2.630750e+00 1.074381e+01 -2.471329e-01
    endloop
  endfacet
  facet normal -2.224348e-01 -9.746839e-01 2.267469e-02
    outer loop
      vertex   2.630750e+00 1.074381e+01 -2.471329e-01
      vertex   2.504278e+00 1.077268e+01 -2.471329e-01
      vertex   2.503959e+00 1.077131e+01 -3.092361e-01
    endloop
  endfacet
  facet normal -2.330100e-01 -9.703990e-01 6.349886e-02
    outer loop
      vertex   2.752226e+00 1.069377e+01 -7.472856e-01
      vertex   2.625923e+00 1.072410e+01 -7.472856e-01
      vertex   2.624970e+00 1.072021e+01 -8.103105e-01
    endloop
  endfacet
  facet normal -2.330100e-01 -9.703990e-01 6.349886e-02
    outer loop
      vertex   2.752226e+00 1.069377e+01 -7.472856e-01
      vertex   2.624970e+00 1.072021e+01 -8.103105e-01
      vertex   2.751227e+00 1.068989e+01 -8.103105e-01
    endloop
  endfacet
  facet normal -2.332651e-01 -9.714615e-01 4.300996e-02
    outer loop
      vertex   2.755403e+00 1.070612e+01 -4.962776e-01
      vertex   2.628954e+00 1.073648e+01 -4.962776e-01
      vertex   2.628313e+00 1.073386e+01 -5.588609e-01
    endloop
  endfacet
  facet normal -2.222862e-01 -9.740326e-01 4.300505e-02
    outer loop
      vertex   2.628313e+00 1.073386e+01 -5.588609e-01
      vertex   2.628954e+00 1.073648e+01 -4.962776e-01
      vertex   2.501958e+00 1.076270e+01 -5.588609e-01
    endloop
  endfacet
  facet normal -2.332651e-01 -9.714615e-01 4.300996e-02
    outer loop
      vertex   2.755403e+00 1.070612e+01 -4.962776e-01
      vertex   2.628313e+00 1.073386e+01 -5.588609e-01
      vertex   2.754731e+00 1.070351e+01 -5.588609e-01
    endloop
  endfacet
  facet normal -2.334211e-01 -9.721113e-01 2.267728e-02
    outer loop
      vertex   2.757285e+00 1.071343e+01 -2.471329e-01
      vertex   2.630415e+00 1.074245e+01 -3.092361e-01
      vertex   2.756934e+00 1.071207e+01 -3.092361e-01
    endloop
  endfacet
  facet normal -2.333913e-01 -9.719870e-01 2.774528e-02
    outer loop
      vertex   2.756934e+00 1.071207e+01 -3.092361e-01
      vertex   2.630415e+00 1.074245e+01 -3.092361e-01
      vertex   2.630004e+00 1.074077e+01 -3.714629e-01
    endloop
  endfacet
  facet normal -2.334627e-01 -9.722845e-01 1.257246e-02
    outer loop
      vertex   2.757752e+00 1.071524e+01 -1.233060e-01
      vertex   2.631010e+00 1.074488e+01 -1.851554e-01
      vertex   2.757558e+00 1.071449e+01 -1.851554e-01
    endloop
  endfacet
  facet normal -2.334449e-01 -9.722104e-01 1.761962e-02
    outer loop
      vertex   2.757558e+00 1.071449e+01 -1.851554e-01
      vertex   2.631010e+00 1.074488e+01 -1.851554e-01
      vertex   2.630750e+00 1.074381e+01 -2.471329e-01
    endloop
  endfacet
  facet normal -2.439849e-01 -9.676974e-01 6.350644e-02
    outer loop
      vertex   2.878565e+00 1.066192e+01 -7.472856e-01
      vertex   2.752226e+00 1.069377e+01 -7.472856e-01
      vertex   2.751227e+00 1.068989e+01 -8.103105e-01
    endloop
  endfacet
  facet normal -2.439849e-01 -9.676974e-01 6.350644e-02
    outer loop
      vertex   2.878565e+00 1.066192e+01 -7.472856e-01
      vertex   2.751227e+00 1.068989e+01 -8.103105e-01
      vertex   2.877520e+00 1.065805e+01 -8.103105e-01
    endloop
  endfacet
  facet normal -2.442521e-01 -9.687572e-01 4.301510e-02
    outer loop
      vertex   2.881887e+00 1.067422e+01 -4.962776e-01
      vertex   2.755403e+00 1.070612e+01 -4.962776e-01
      vertex   2.754731e+00 1.070351e+01 -5.588609e-01
    endloop
  endfacet
  facet normal -2.442521e-01 -9.687572e-01 4.301510e-02
    outer loop
      vertex   2.881887e+00 1.067422e+01 -4.962776e-01
      vertex   2.754731e+00 1.070351e+01 -5.588609e-01
      vertex   2.881185e+00 1.067162e+01 -5.588609e-01
    endloop
  endfacet
  facet normal -2.444405e-01 -9.695042e-01 1.762173e-02
    outer loop
      vertex   2.884141e+00 1.068257e+01 -1.851554e-01
      vertex   2.757285e+00 1.071343e+01 -2.471329e-01
      vertex   2.883856e+00 1.068152e+01 -2.471329e-01
    endloop
  endfacet
  facet normal -2.444155e-01 -9.694053e-01 2.267999e-02
    outer loop
      vertex   2.883856e+00 1.068152e+01 -2.471329e-01
      vertex   2.757285e+00 1.071343e+01 -2.471329e-01
      vertex   2.756934e+00 1.071207e+01 -3.092361e-01
    endloop
  endfacet
  facet normal -2.444715e-01 -9.696272e-01 7.536837e-03
    outer loop
      vertex   2.884465e+00 1.068377e+01 -6.158679e-02
      vertex   2.757752e+00 1.071524e+01 -1.233060e-01
      vertex   2.884344e+00 1.068332e+01 -1.233060e-01
    endloop
  endfacet
  facet normal -2.444591e-01 -9.695781e-01 1.257397e-02
    outer loop
      vertex   2.884344e+00 1.068332e+01 -1.233060e-01
      vertex   2.757752e+00 1.071524e+01 -1.233060e-01
      vertex   2.757558e+00 1.071449e+01 -1.851554e-01
    endloop
  endfacet
  facet normal 1.000000e+00 -0.000000e+00 0.000000e+00
    outer loop
      vertex   3.000000e+00 1.065347e+01 0.000000e+00
      vertex   3.000000e+00 1.065280e+01 -1.251554e-01
      vertex   3.000000e+00 1.100000e+01 0.000000e+00
    endloop
  endfacet
  facet normal 1.000000e+00 0.000000e+00 0.000000e+00
    outer loop
      vertex   3.000000e+00 1.100000e+01 0.000000e+00
      vertex   3.000000e+00 1.065280e+01 -1.251554e-01
      vertex   3.000000e+00 1.065082e+01 -2.502897e-01
    endloop
  endfacet
  facet normal 1.000000e+00 5.187251e-15 -7.236751e-15
    outer loop
      vertex   3.000000e+00 1.100000e+01 0.000000e+00
      vertex   3.000000e+00 1.065082e+01 -2.502897e-01
      vertex   3.000000e+00 1.064751e+01 -3.753913e-01
    endloop
  endfacet
  facet normal 1.000000e+00 -2.623143e-15 9.708128e-17
    outer loop
      vertex   3.000000e+00 1.064751e+01 -3.753913e-01
      vertex   3.000000e+00 1.064289e+01 -5.004485e-01
      vertex   3.000000e+00 1.100000e+01 0.000000e+00
    endloop
  endfacet
  facet normal 1.000000e+00 -2.487096e-15 0.000000e+00
    outer loop
      vertex   3.000000e+00 1.100000e+01 0.000000e+00
      vertex   3.000000e+00 1.064289e+01 -5.004485e-01
      vertex   3.000000e+00 1.100000e+01 -1.000000e+00
    endloop
  endfacet
  facet normal 1.000000e+00 6.987043e-15 6.772782e-15
    outer loop
      vertex   3.000000e+00 1.100000e+01 -1.000000e+00
      vertex   3.000000e+00 1.064289e+01 -5.004485e-01
      vertex   3.000000e+00 1.063694e+01 -6.254496e-01
    endloop
  endfacet
  facet normal 1.000000e+00 0.000000e+00 0.000000e+00
    outer loop
      vertex   3.000000e+00 1.100000e+01 -1.000000e+00
      vertex   3.000000e+00 1.063694e+01 -6.254496e-01
      vertex   3.000000e+00 1.062966e+01 -7.503830e-01
    endloop
  endfacet
  facet normal 1.000000e+00 4.582300e-15 6.798379e-15
    outer loop
      vertex   3.000000e+00 1.062966e+01 -7.503830e-01
      vertex   3.000000e+00 1.062107e+01 -8.752370e-01
      vertex   3.000000e+00 1.100000e+01 -1.000000e+00
    endloop
  endfacet
  facet normal 1.000000e+00 0.000000e+00 -7.118926e-15
    outer loop
      vertex   3.000000e+00 1.100000e+01 -1.000000e+00
      vertex   3.000000e+00 1.062107e+01 -8.752370e-01
      vertex   3.000000e+00 1.061116e+01 -1.000000e+00
    endloop
  endfacet
  facet normal 0.000000e+00 0.000000e+00 -1.000000e+00
    outer loop
      vertex   3.000000e+00 1.061116e+01 -1.000000e+00
      vertex   2.876134e+00 1.064390e+01 -1.000000e+00
      vertex   3.000000e+00 1.100000e+01 -1.000000e+00
    endloop
  endfacet
  facet normal 0.000000e+00 0.000000e+00 -1.000000e+00
    outer loop
      vertex   3.000000e+00 1.100000e+01 -1.000000e+00
      vertex   2.876134e+00 1.064390e+01 -1.000000e+00
      vertex   2.751919e+00 1.067526e+01 -1.000000e+00
    endloop
  endfacet
  facet normal 0.000000e+00 0.000000e+00 -1.000000e+00
    outer loop
      vertex   3.000000e+00 1.100000e+01 -1.000000e+00
      vertex   2.751919e+00 1.067526e+01 -1.000000e+00
      vertex   2.627368e+00 1.070523e+01 -1.000000e+00
    endloop
  endfacet
  facet normal 0.000000e+00 0.000000e+00 -1.000000e+00
    outer loop
      vertex   2.627368e+00 1.070523e+01 -1.000000e+00
      vertex   2.502493e+00 1.073380e+01 -1.000000e+00
      vertex   3.000000e+00 1.100000e+01 -1.000000e+00
    endloop
  endfacet
  facet normal 0.000000e+00 0.000000e+00 -1.000000e+00
    outer loop
      vertex   3.000000e+00 1.100000e+01 -1.000000e+00
      vertex   2.502493e+00 1.073380e+01 -1.000000e+00
      vertex   2.377307e+00 1.076097e+01 -1.000000e+00
    endloop
  endfacet
  facet normal 0.000000e+00 0.000000e+00 -1.000000e+00
    outer loop
      vertex   3.000000e+00 1.100000e+01 -1.000000e+00
      vertex   2.377307e+00 1.076097e+01 -1.000000e+00
      vertex   2.251821e+00 1.078675e+01 -1.000000e+00
    endloop
  endfacet
  facet normal -0.000000e+00 0.000000e+00 -1.000000e+00
    outer loop
      vertex   3.000000e+00 1.100000e+01 -1.000000e+00
      vertex   2.251821e+00 1.078675e+01 -1.000000e+00
      vertex   2.000000e+00 1.100000e+01 -1.000000e+00
    endloop
  endfacet
  facet normal 2.289480e-15 2.703619e-15 -1.000000e+00
    outer loop
      vertex   2.000000e+00 1.100000e+01 -1.000000e+00
      vertex   2.251821e+00 1.078675e+01 -1.000000e+00
      vertex   2.126048e+00 1.081113e+01 -1.000000e+00
    endloop
  endfacet
  facet normal -1.761590e-15 -0.000000e+00 -1.000000e+00
    outer loop
      vertex   2.000000e+00 1.100000e+01 -1.000000e+00
      vertex   2.126048e+00 1.081113e+01 -1.000000e+00
      vertex   2.000000e+00 1.083411e+01 -1.000000e+00
    endloop
  endfacet
  facet normal -0.000000e+00 0.000000e+00 1.000000e+00
    outer loop
      vertex   2.000000e+00 1.087555e+01 0.000000e+00
      vertex   2.126040e+00 1.085266e+01 0.000000e+00
      vertex   2.000000e+00 1.100000e+01 0.000000e+00
    endloop
  endfacet
  facet normal 0.000000e+00 0.000000e+00 1.000000e+00
    outer loop
      vertex   2.000000e+00 1.100000e+01 0.000000e+00
      vertex   2.126040e+00 1.085266e+01 0.000000e+00
      vertex   2.251807e+00 1.082838e+01 0.000000e+00
    endloop
  endfacet
  facet normal -0.000000e+00 0.000000e+00 1.000000e+00
    outer loop
      vertex   2.000000e+00 1.100000e+01 0.000000e+00
      vertex   2.251807e+00 1.082838e+01 0.000000e+00
      vertex   3.000000e+00 1.100000e+01 0.000000e+00
    endloop
  endfacet
  facet normal 0.000000e+00 0.000000e+00 1.000000e+00
    outer loop
      vertex   3.000000e+00 1.100000e+01 0.000000e+00
      vertex   2.251807e+00 1.082838e+01 0.000000e+00
      vertex   2.377289e+00 1.080270e+01 0.000000e+00
    endloop
  endfacet
  facet normal 0.000000e+00 0.000000e+00 1.000000e+00
    outer loop
      vertex   3.000000e+00 1.100000e+01 0.000000e+00
      vertex   2.377289e+00 1.080270e+01 0.000000e+00
      vertex   2.502474e+00 1.077563e+01 0.000000e+00
    endloop
  endfacet
  facet normal -0.000000e+00 0.000000e+00 1.000000e+00
    outer loop
      vertex   2.502474e+00 1.077563e+01 0.000000e+00
      vertex   2.627350e+00 1.074717e+01 0.000000e+00
      vertex   3.000000e+00 1.100000e+01 0.000000e+00
    endloop
  endfacet
  facet normal 0.000000e+00 0.000000e+00 1.000000e+00
    outer loop
      vertex   3.000000e+00 1.100000e+01 0.000000e+00
      vertex   2.627350e+00 1.074717e+01 0.000000e+00
      vertex   2.751904e+00 1.071732e+01 0.000000e+00
    endloop
  endfacet
  facet normal 0.000000e+00 0.000000e+00 1.000000e+00
    outer loop
      vertex   3.000000e+00 1.100000e+01 0.000000e+00
      vertex   2.751904e+00 1.071732e+01 0.000000e+00
      vertex   2.876125e+00 1.068608e+01 0.000000e+00
    endloop
  endfacet
  facet normal -0.000000e+00 0.000000e+00 1.000000e+00
    outer loop
      vertex   2.876125e+00 1.068608e+01 0.000000e+00
      vertex   3.000000e+00 1.065347e+01 0.000000e+00
      vertex   3.000000e+00 1.100000e+01 0.000000e+00
    endloop
  endfacet
  facet normal -1.000000e+00 0.000000e+00 0.000000e+00
    outer loop
      vertex   2.000000e+00 1.083411e+01 -1.000000e+00
      vertex   2.000000e+00 1.084382e+01 -8.752274e-01
      vertex   2.000000e+00 1.100000e+01 -1.000000e+00
    endloop
  endfacet
  facet normal -1.000000e+00 0.000000e+00 0.000000e+00
    outer loop
      vertex   2.000000e+00 1.100000e+01 -1.000000e+00
      vertex   2.000000e+00 1.084382e+01 -8.752274e-01
      vertex   2.000000e+00 1.085223e+01 -7.503674e-01
    endloop
  endfacet
  facet normal -1.000000e+00 0.000000e+00 0.000000e+00
    outer loop
      vertex   2.000000e+00 1.100000e+01 -1.000000e+00
      vertex   2.000000e+00 1.085223e+01 -7.503674e-01
      vertex   2.000000e+00 1.085936e+01 -6.254313e-01
    endloop
  endfacet
  facet normal -1.000000e+00 0.000000e+00 0.000000e+00
    outer loop
      vertex   2.000000e+00 1.085936e+01 -6.254313e-01
      vertex   2.000000e+00 1.086518e+01 -5.004302e-01
      vertex   2.000000e+00 1.100000e+01 -1.000000e+00
    endloop
  endfacet
  facet normal -1.000000e+00 0.000000e+00 0.000000e+00
    outer loop
      vertex   2.000000e+00 1.100000e+01 -1.000000e+00
      vertex   2.000000e+00 1.086518e+01 -5.004302e-01
      vertex   2.000000e+00 1.086972e+01 -3.753754e-01
    endloop
  endfacet
  facet normal -1.000000e+00 0.000000e+00 0.000000e+00
    outer loop
      vertex   2.000000e+00 1.100000e+01 -1.000000e+00
      vertex   2.000000e+00 1.086972e+01 -3.753754e-01
      vertex   2.000000e+00 1.100000e+01 0.000000e+00
    endloop
  endfacet
  facet normal -1.000000e+00 0.000000e+00 0.000000e+00
    outer loop
      vertex   2.000000e+00 1.100000e+01 0.000000e+00
      vertex   2.000000e+00 1.086972e+01 -3.753754e-01
      vertex   2.000000e+00 1.087296e+01 -2.502779e-01
    endloop
  endfacet
  facet normal -1.000000e+00 0.000000e+00 0.000000e+00
    outer loop
      vertex   2.000000e+00 1.100000e+01 0.000000e+00
      vertex   2.000000e+00 1.087296e+01 -2.502779e-01
      vertex   2.000000e+00 1.087490e+01 -1.251491e-01
    endloop
  endfacet
  facet normal -1.000000e+00 0.000000e+00 0.000000e+00
    outer loop
      vertex   2.000000e+00 1.087490e+01 -1.251491e-01
      vertex   2.000000e+00 1.087555e+01 0.000000e+00
      vertex   2.000000e+00 1.100000e+01 0.000000e+00
    endloop
  endfacet
  facet normal 0.000000e+00 1.000000e+00 0.000000e+00
    outer loop
      vertex   3.000000e+00 1.100000e+01 0.000000e+00
      vertex   3.000000e+00 1.100000e+01 -1.000000e+00
      vertex   2.000000e+00 1.100000e+01 0.000000e+00
    endloop
  endfacet
  facet normal 0.000000e+00 1.000000e+00 0.000000e+00
    outer loop
      vertex   2.000000e+00 1.100000e+01 0.000000e+00
      vertex   3.000000e+00 1.100000e+01 -1.000000e+00
      vertex   2.000000e+00 1.100000e+01 -1.000000e+00
    endloop
  endfacet
endsolid
