solid ASCII
  facet normal -3.370271e-01 -9.091719e-01 2.445796e-01
    outer loop
      vertex   3.827085e+00 1.000000e+01 -3.000000e+00
      vertex   3.913675e+00 9.967901e+00 -3.000000e+00
      vertex   3.871736e+00 1.000000e+01 -2.938471e+00
    endloop
  endfacet
  facet normal -3.376798e-01 -9.090643e-01 2.440786e-01
    outer loop
      vertex   3.871736e+00 1.000000e+01 -2.938471e+00
      vertex   3.913675e+00 9.967901e+00 -3.000000e+00
      vertex   3.876028e+00 9.998682e+00 -2.937443e+00
    endloop
  endfacet
  facet normal -3.365958e-01 -9.114761e-01 2.364628e-01
    outer loop
      vertex   3.871736e+00 1.000000e+01 -2.938471e+00
      vertex   3.876028e+00 9.998682e+00 -2.937443e+00
      vertex   3.915444e+00 1.000000e+01 -2.876255e+00
    endloop
  endfacet
  facet normal -3.394661e-01 -9.099374e-01 2.382786e-01
    outer loop
      vertex   3.915444e+00 1.000000e+01 -2.876255e+00
      vertex   3.876028e+00 9.998682e+00 -2.937443e+00
      vertex   3.919375e+00 9.982511e+00 -2.937443e+00
    endloop
  endfacet
  facet normal -3.413165e-01 -9.093221e-01 2.379838e-01
    outer loop
      vertex   3.915444e+00 1.000000e+01 -2.876255e+00
      vertex   3.919375e+00 9.982511e+00 -2.937443e+00
      vertex   3.924946e+00 9.996791e+00 -2.874890e+00
    endloop
  endfacet
  facet normal -3.432817e-01 -9.085806e-01 2.379895e-01
    outer loop
      vertex   3.924946e+00 9.996791e+00 -2.874890e+00
      vertex   3.919375e+00 9.982511e+00 -2.937443e+00
      vertex   3.968277e+00 9.980419e+00 -2.874890e+00
    endloop
  endfacet
  facet normal -3.436910e-01 -9.096638e-01 2.332130e-01
    outer loop
      vertex   3.924946e+00 9.996791e+00 -2.874890e+00
      vertex   3.968277e+00 9.980419e+00 -2.874890e+00
      vertex   3.958201e+00 1.000000e+01 -2.813363e+00
    endloop
  endfacet
  facet normal -3.450941e-01 -9.092269e-01 2.328442e-01
    outer loop
      vertex   3.958201e+00 1.000000e+01 -2.813363e+00
      vertex   3.968277e+00 9.980419e+00 -2.874890e+00
      vertex   3.973811e+00 9.994336e+00 -2.812343e+00
    endloop
  endfacet
  facet normal -3.452285e-01 -9.106405e-01 2.270487e-01
    outer loop
      vertex   3.958201e+00 1.000000e+01 -2.813363e+00
      vertex   3.973811e+00 9.994336e+00 -2.812343e+00
      vertex   4.000000e+00 1.000000e+01 -2.749807e+00
    endloop
  endfacet
  facet normal -3.472048e-01 -9.097032e-01 2.277915e-01
    outer loop
      vertex   4.000000e+00 1.000000e+01 -2.749807e+00
      vertex   3.973811e+00 9.994336e+00 -2.812343e+00
      vertex   4.000000e+00 9.984304e+00 -2.812490e+00
    endloop
  endfacet
  facet normal -3.467518e-01 -9.085945e-01 2.328501e-01
    outer loop
      vertex   4.000000e+00 9.984304e+00 -2.812490e+00
      vertex   3.973811e+00 9.994336e+00 -2.812343e+00
      vertex   3.968277e+00 9.980419e+00 -2.874890e+00
    endloop
  endfacet
  facet normal -3.470127e-01 -9.084630e-01 2.329745e-01
    outer loop
      vertex   4.000000e+00 9.984304e+00 -2.812490e+00
      vertex   3.968277e+00 9.980419e+00 -2.874890e+00
      vertex   4.000000e+00 9.968252e+00 -2.875084e+00
    endloop
  endfacet
  facet normal -3.465495e-01 -9.073357e-01 2.380030e-01
    outer loop
      vertex   4.000000e+00 9.968252e+00 -2.875084e+00
      vertex   3.968277e+00 9.980419e+00 -2.874890e+00
      vertex   3.962613e+00 9.966174e+00 -2.937443e+00
    endloop
  endfacet
  facet normal -3.468096e-01 -9.071966e-01 2.381544e-01
    outer loop
      vertex   4.000000e+00 9.968252e+00 -2.875084e+00
      vertex   3.962613e+00 9.966174e+00 -2.937443e+00
      vertex   4.000000e+00 9.951843e+00 -2.937588e+00
    endloop
  endfacet
  facet normal -3.463302e-01 -9.059984e-01 2.433563e-01
    outer loop
      vertex   4.000000e+00 9.951843e+00 -2.937588e+00
      vertex   3.962613e+00 9.966174e+00 -2.937443e+00
      vertex   4.000000e+00 9.935079e+00 -3.000000e+00
    endloop
  endfacet
  facet normal -3.446008e-01 -9.063345e-01 2.445569e-01
    outer loop
      vertex   4.000000e+00 9.935079e+00 -3.000000e+00
      vertex   3.962613e+00 9.966174e+00 -2.937443e+00
      vertex   3.913675e+00 9.967901e+00 -3.000000e+00
    endloop
  endfacet
  facet normal -3.428316e-01 -9.073850e-01 2.431438e-01
    outer loop
      vertex   3.913675e+00 9.967901e+00 -3.000000e+00
      vertex   3.962613e+00 9.966174e+00 -2.937443e+00
      vertex   3.919375e+00 9.982511e+00 -2.937443e+00
    endloop
  endfacet
  facet normal -3.390454e-01 -9.088098e-01 2.431316e-01
    outer loop
      vertex   3.913675e+00 9.967901e+00 -3.000000e+00
      vertex   3.919375e+00 9.982511e+00 -2.937443e+00
      vertex   3.876028e+00 9.998682e+00 -2.937443e+00
    endloop
  endfacet
  facet normal -3.410080e-01 -9.110250e-01 2.318339e-01
    outer loop
      vertex   3.958201e+00 1.000000e+01 -2.813363e+00
      vertex   3.915444e+00 1.000000e+01 -2.876255e+00
      vertex   3.924946e+00 9.996791e+00 -2.874890e+00
    endloop
  endfacet
  facet normal -3.432830e-01 -9.085798e-01 2.379906e-01
    outer loop
      vertex   3.962613e+00 9.966174e+00 -2.937443e+00
      vertex   3.968277e+00 9.980419e+00 -2.874890e+00
      vertex   3.919375e+00 9.982511e+00 -2.937443e+00
    endloop
  endfacet
  facet normal 1.000000e+00 0.000000e+00 0.000000e+00
    outer loop
      vertex   4.000000e+00 1.000000e+01 -2.749807e+00
      vertex   4.000000e+00 9.984304e+00 -2.812490e+00
      vertex   4.000000e+00 1.000000e+01 -3.000000e+00
    endloop
  endfacet
  facet normal 1.000000e+00 2.085723e-14 1.745900e-15
    outer loop
      vertex   4.000000e+00 1.000000e+01 -3.000000e+00
      vertex   4.000000e+00 9.984304e+00 -2.812490e+00
      vertex   4.000000e+00 9.968252e+00 -2.875084e+00
    endloop
  endfacet
  facet normal 1.000000e+00 -6.870622e-15 -5.301321e-15
    outer loop
      vertex   4.000000e+00 1.000000e+01 -3.000000e+00
      vertex   4.000000e+00 9.968252e+00 -2.875084e+00
      vertex   4.000000e+00 9.951843e+00 -2.937588e+00
    endloop
  endfacet
  facet normal 1.000000e+00 0.000000e+00 0.000000e+00
    outer loop
      vertex   4.000000e+00 9.951843e+00 -2.937588e+00
      vertex   4.000000e+00 9.935079e+00 -3.000000e+00
      vertex   4.000000e+00 1.000000e+01 -3.000000e+00
    endloop
  endfacet
  facet normal 5.144368e-15 0.000000e+00 -1.000000e+00
    outer loop
      vertex   4.000000e+00 9.935079e+00 -3.000000e+00
      vertex   3.913675e+00 9.967901e+00 -3.000000e+00
      vertex   4.000000e+00 1.000000e+01 -3.000000e+00
    endloop
  endfacet
  facet normal 0.000000e+00 1.383512e-14 -1.000000e+00
    outer loop
      vertex   4.000000e+00 1.000000e+01 -3.000000e+00
      vertex   3.913675e+00 9.967901e+00 -3.000000e+00
      vertex   3.827085e+00 1.000000e+01 -3.000000e+00
    endloop
  endfacet
  facet normal 0.000000e+00 1.000000e+00 0.000000e+00
    outer loop
      vertex   3.827085e+00 1.000000e+01 -3.000000e+00
      vertex   3.871736e+00 1.000000e+01 -2.938471e+00
      vertex   4.000000e+00 1.000000e+01 -3.000000e+00
    endloop
  endfacet
  facet normal 0.000000e+00 1.000000e+00 0.000000e+00
    outer loop
      vertex   4.000000e+00 1.000000e+01 -3.000000e+00
      vertex   3.871736e+00 1.000000e+01 -2.938471e+00
      vertex   3.915444e+00 1.000000e+01 -2.876255e+00
    endloop
  endfacet
  facet normal 0.000000e+00 1.000000e+00 0.000000e+00
    outer loop
      vertex   4.000000e+00 1.000000e+01 -3.000000e+00
      vertex   3.915444e+00 1.000000e+01 -2.876255e+00
      vertex   3.958201e+00 1.000000e+01 -2.813363e+00
    endloop
  endfacet
  facet normal -0.000000e+00 1.000000e+00 0.000000e+00
    outer loop
      vertex   3.958201e+00 1.000000e+01 -2.813363e+00
      vertex   4.000000e+00 1.000000e+01 -2.749807e+00
      vertex   4.000000e+00 1.000000e+01 -3.000000e+00
    endloop
  endfacet
endsolid
