solid ASCII
  facet normal -5.667043e-01 -8.195358e-01 -8.489582e-02
    outer loop
      vertex   6.474528e+00 9.000000e+00 1.063389e+00
      vertex   6.484024e+00 9.000000e+00 1.000000e+00
      vertex   6.520673e+00 8.968243e+00 1.061920e+00
    endloop
  endfacet
  facet normal -5.682506e-01 -8.186075e-01 -8.350457e-02
    outer loop
      vertex   6.520673e+00 8.968243e+00 1.061920e+00
      vertex   6.484024e+00 9.000000e+00 1.000000e+00
      vertex   6.549682e+00 8.954422e+00 1.000000e+00
    endloop
  endfacet
  facet normal -5.728903e-01 -8.150580e-01 -8.647053e-02
    outer loop
      vertex   6.520673e+00 8.968243e+00 1.061920e+00
      vertex   6.549682e+00 8.954422e+00 1.000000e+00
      vertex   6.614841e+00 8.902054e+00 1.061920e+00
    endloop
  endfacet
  facet normal -5.739840e-01 -8.144622e-01 -8.481575e-02
    outer loop
      vertex   6.614841e+00 8.902054e+00 1.061920e+00
      vertex   6.549682e+00 8.954422e+00 1.000000e+00
      vertex   6.615013e+00 8.908381e+00 1.000000e+00
    endloop
  endfacet
  facet normal -5.797739e-01 -8.103926e-01 -8.441600e-02
    outer loop
      vertex   6.614841e+00 8.902054e+00 1.061920e+00
      vertex   6.615013e+00 8.908381e+00 1.000000e+00
      vertex   6.680016e+00 8.861876e+00 1.000000e+00
    endloop
  endfacet
  facet normal -5.811906e-01 -8.091331e-01 -8.672443e-02
    outer loop
      vertex   6.614841e+00 8.902054e+00 1.061920e+00
      vertex   6.680016e+00 8.861876e+00 1.000000e+00
      vertex   6.708379e+00 8.834866e+00 1.061920e+00
    endloop
  endfacet
  facet normal -5.855634e-01 -8.063154e-01 -8.349232e-02
    outer loop
      vertex   6.708379e+00 8.834866e+00 1.061920e+00
      vertex   6.680016e+00 8.861876e+00 1.000000e+00
      vertex   6.744687e+00 8.814911e+00 1.000000e+00
    endloop
  endfacet
  facet normal -5.894488e-01 -8.031291e-01 -8.679741e-02
    outer loop
      vertex   6.708379e+00 8.834866e+00 1.061920e+00
      vertex   6.744687e+00 8.814911e+00 1.000000e+00
      vertex   6.801271e+00 8.766690e+00 1.061920e+00
    endloop
  endfacet
  facet normal -5.912383e-01 -8.020747e-01 -8.434092e-02
    outer loop
      vertex   6.801271e+00 8.766690e+00 1.061920e+00
      vertex   6.744687e+00 8.814911e+00 1.000000e+00
      vertex   6.809023e+00 8.767486e+00 1.000000e+00
    endloop
  endfacet
  facet normal -5.968948e-01 -7.978048e-01 -8.499418e-02
    outer loop
      vertex   6.801271e+00 8.766690e+00 1.061920e+00
      vertex   6.809023e+00 8.767486e+00 1.000000e+00
      vertex   6.873023e+00 8.719604e+00 1.000000e+00
    endloop
  endfacet
  facet normal -5.976754e-01 -7.970622e-01 -8.646345e-02
    outer loop
      vertex   6.801271e+00 8.766690e+00 1.061920e+00
      vertex   6.873023e+00 8.719604e+00 1.000000e+00
      vertex   6.893500e+00 8.697532e+00 1.061920e+00
    endloop
  endfacet
  facet normal -6.026281e-01 -7.936309e-01 -8.360245e-02
    outer loop
      vertex   6.893500e+00 8.697532e+00 1.061920e+00
      vertex   6.873023e+00 8.719604e+00 1.000000e+00
      vertex   6.936682e+00 8.671265e+00 1.000000e+00
    endloop
  endfacet
  facet normal -6.058026e-01 -7.908442e-01 -8.699848e-02
    outer loop
      vertex   6.893500e+00 8.697532e+00 1.061920e+00
      vertex   6.936682e+00 8.671265e+00 1.000000e+00
      vertex   6.985051e+00 8.627402e+00 1.061920e+00
    endloop
  endfacet
  facet normal -6.082431e-01 -7.892942e-01 -8.399414e-02
    outer loop
      vertex   6.985051e+00 8.627402e+00 1.061920e+00
      vertex   6.936682e+00 8.671265e+00 1.000000e+00
      vertex   7.000000e+00 8.622471e+00 1.000000e+00
    endloop
  endfacet
  facet normal -6.173538e-01 -7.818842e-01 -8.678370e-02
    outer loop
      vertex   6.985051e+00 8.627402e+00 1.061920e+00
      vertex   7.000000e+00 8.622471e+00 1.000000e+00
      vertex   7.000000e+00 8.608503e+00 1.125851e+00
    endloop
  endfacet
  facet normal -6.148667e-01 -7.826048e-01 -9.730706e-02
    outer loop
      vertex   7.000000e+00 8.592880e+00 1.251496e+00
      vertex   6.977826e+00 8.618442e+00 1.186025e+00
      vertex   7.000000e+00 8.608503e+00 1.125851e+00
    endloop
  endfacet
  facet normal -6.100827e-01 -7.866367e-01 -9.487814e-02
    outer loop
      vertex   7.000000e+00 8.608503e+00 1.125851e+00
      vertex   6.977826e+00 8.618442e+00 1.186025e+00
      vertex   6.981542e+00 8.623050e+00 1.123929e+00
    endloop
  endfacet
  facet normal -6.107051e-01 -7.867524e-01 -8.977746e-02
    outer loop
      vertex   7.000000e+00 8.608503e+00 1.125851e+00
      vertex   6.981542e+00 8.623050e+00 1.123929e+00
      vertex   6.985051e+00 8.627402e+00 1.061920e+00
    endloop
  endfacet
  facet normal -6.056544e-01 -7.906484e-01 -8.976506e-02
    outer loop
      vertex   6.985051e+00 8.627402e+00 1.061920e+00
      vertex   6.981542e+00 8.623050e+00 1.123929e+00
      vertex   6.890044e+00 8.693139e+00 1.123929e+00
    endloop
  endfacet
  facet normal -6.056535e-01 -7.906495e-01 -8.976251e-02
    outer loop
      vertex   6.985051e+00 8.627402e+00 1.061920e+00
      vertex   6.890044e+00 8.693139e+00 1.123929e+00
      vertex   6.893500e+00 8.697532e+00 1.061920e+00
    endloop
  endfacet
  facet normal -5.975029e-01 -7.968287e-01 -8.974599e-02
    outer loop
      vertex   6.893500e+00 8.697532e+00 1.061920e+00
      vertex   6.890044e+00 8.693139e+00 1.123929e+00
      vertex   6.797867e+00 8.762259e+00 1.123929e+00
    endloop
  endfacet
  facet normal -5.975015e-01 -7.968302e-01 -8.974217e-02
    outer loop
      vertex   6.893500e+00 8.697532e+00 1.061920e+00
      vertex   6.797867e+00 8.762259e+00 1.123929e+00
      vertex   6.801271e+00 8.766690e+00 1.061920e+00
    endloop
  endfacet
  facet normal -5.892972e-01 -8.029184e-01 -8.972684e-02
    outer loop
      vertex   6.801271e+00 8.766690e+00 1.061920e+00
      vertex   6.797867e+00 8.762259e+00 1.123929e+00
      vertex   6.705025e+00 8.830399e+00 1.123929e+00
    endloop
  endfacet
  facet normal -5.892954e-01 -8.029202e-01 -8.972223e-02
    outer loop
      vertex   6.801271e+00 8.766690e+00 1.061920e+00
      vertex   6.705025e+00 8.830399e+00 1.123929e+00
      vertex   6.708379e+00 8.834866e+00 1.061920e+00
    endloop
  endfacet
  facet normal -5.810387e-01 -8.089170e-01 -8.970758e-02
    outer loop
      vertex   6.708379e+00 8.834866e+00 1.061920e+00
      vertex   6.705025e+00 8.830399e+00 1.123929e+00
      vertex   6.611534e+00 8.897553e+00 1.123929e+00
    endloop
  endfacet
  facet normal -5.810368e-01 -8.089188e-01 -8.970273e-02
    outer loop
      vertex   6.708379e+00 8.834866e+00 1.061920e+00
      vertex   6.611534e+00 8.897553e+00 1.123929e+00
      vertex   6.614841e+00 8.902054e+00 1.061920e+00
    endloop
  endfacet
  facet normal -5.727287e-01 -8.148238e-01 -8.968816e-02
    outer loop
      vertex   6.614841e+00 8.902054e+00 1.061920e+00
      vertex   6.611534e+00 8.897553e+00 1.123929e+00
      vertex   6.517409e+00 8.963712e+00 1.123929e+00
    endloop
  endfacet
  facet normal -5.727269e-01 -8.148255e-01 -8.968374e-02
    outer loop
      vertex   6.614841e+00 8.902054e+00 1.061920e+00
      vertex   6.517409e+00 8.963712e+00 1.123929e+00
      vertex   6.520673e+00 8.968243e+00 1.061920e+00
    endloop
  endfacet
  facet normal -5.665701e-01 -8.191197e-01 -8.967344e-02
    outer loop
      vertex   6.520673e+00 8.968243e+00 1.061920e+00
      vertex   6.517409e+00 8.963712e+00 1.123929e+00
      vertex   6.474528e+00 9.000000e+00 1.063389e+00
    endloop
  endfacet
  facet normal -6.133394e-01 -7.824330e-01 -1.077658e-01
    outer loop
      vertex   7.000000e+00 8.575606e+00 1.376915e+00
      vertex   6.969769e+00 8.608456e+00 1.310468e+00
      vertex   7.000000e+00 8.592880e+00 1.251496e+00
    endloop
  endfacet
  facet normal -6.097693e-01 -7.855790e-01 -1.051047e-01
    outer loop
      vertex   7.000000e+00 8.592880e+00 1.251496e+00
      vertex   6.969769e+00 8.608456e+00 1.310468e+00
      vertex   6.973902e+00 8.613578e+00 1.248206e+00
    endloop
  endfacet
  facet normal -6.104961e-01 -7.856823e-01 -9.998895e-02
    outer loop
      vertex   7.000000e+00 8.592880e+00 1.251496e+00
      vertex   6.973902e+00 8.613578e+00 1.248206e+00
      vertex   6.977826e+00 8.618442e+00 1.186025e+00
    endloop
  endfacet
  facet normal -6.050650e-01 -7.898744e-01 -9.997414e-02
    outer loop
      vertex   6.977826e+00 8.618442e+00 1.186025e+00
      vertex   6.973902e+00 8.613578e+00 1.248206e+00
      vertex   6.882519e+00 8.683580e+00 1.248206e+00
    endloop
  endfacet
  facet normal -6.050640e-01 -7.898754e-01 -9.997160e-02
    outer loop
      vertex   6.977826e+00 8.618442e+00 1.186025e+00
      vertex   6.882519e+00 8.683580e+00 1.248206e+00
      vertex   6.886384e+00 8.688489e+00 1.186025e+00
    endloop
  endfacet
  facet normal -5.969228e-01 -7.960481e-01 -9.995285e-02
    outer loop
      vertex   6.886384e+00 8.688489e+00 1.186025e+00
      vertex   6.882519e+00 8.683580e+00 1.248206e+00
      vertex   6.790453e+00 8.752616e+00 1.248206e+00
    endloop
  endfacet
  facet normal -5.969214e-01 -7.960497e-01 -9.994906e-02
    outer loop
      vertex   6.886384e+00 8.688489e+00 1.186025e+00
      vertex   6.790453e+00 8.752616e+00 1.248206e+00
      vertex   6.794261e+00 8.757568e+00 1.186025e+00
    endloop
  endfacet
  facet normal -5.887261e-01 -8.021317e-01 -9.993151e-02
    outer loop
      vertex   6.794261e+00 8.757568e+00 1.186025e+00
      vertex   6.790453e+00 8.752616e+00 1.248206e+00
      vertex   6.697719e+00 8.820679e+00 1.248206e+00
    endloop
  endfacet
  facet normal -5.887243e-01 -8.021336e-01 -9.992692e-02
    outer loop
      vertex   6.794261e+00 8.757568e+00 1.186025e+00
      vertex   6.697719e+00 8.820679e+00 1.248206e+00
      vertex   6.701472e+00 8.825670e+00 1.186025e+00
    endloop
  endfacet
  facet normal -5.804761e-01 -8.081247e-01 -9.991006e-02
    outer loop
      vertex   6.701472e+00 8.825670e+00 1.186025e+00
      vertex   6.697719e+00 8.820679e+00 1.248206e+00
      vertex   6.604330e+00 8.887760e+00 1.248206e+00
    endloop
  endfacet
  facet normal -5.804742e-01 -8.081266e-01 -9.990525e-02
    outer loop
      vertex   6.701472e+00 8.825670e+00 1.186025e+00
      vertex   6.604330e+00 8.887760e+00 1.248206e+00
      vertex   6.608030e+00 8.892789e+00 1.186025e+00
    endloop
  endfacet
  facet normal -5.721741e-01 -8.140265e-01 -9.988848e-02
    outer loop
      vertex   6.608030e+00 8.892789e+00 1.186025e+00
      vertex   6.604330e+00 8.887760e+00 1.248206e+00
      vertex   6.510301e+00 8.953852e+00 1.248206e+00
    endloop
  endfacet
  facet normal -5.721724e-01 -8.140282e-01 -9.988409e-02
    outer loop
      vertex   6.608030e+00 8.892789e+00 1.186025e+00
      vertex   6.510301e+00 8.953852e+00 1.248206e+00
      vertex   6.513952e+00 8.958916e+00 1.186025e+00
    endloop
  endfacet
  facet normal -5.654577e-01 -8.187084e-01 -9.987093e-02
    outer loop
      vertex   6.513952e+00 8.958916e+00 1.186025e+00
      vertex   6.510301e+00 8.953852e+00 1.248206e+00
      vertex   6.453789e+00 9.000000e+00 1.189867e+00
    endloop
  endfacet
  facet normal -5.655109e-01 -8.192037e-01 -9.540784e-02
    outer loop
      vertex   6.513952e+00 8.958916e+00 1.186025e+00
      vertex   6.453789e+00 9.000000e+00 1.189867e+00
      vertex   6.464449e+00 9.000000e+00 1.126679e+00
    endloop
  endfacet
  facet normal -6.122432e-01 -7.817857e-01 -1.181919e-01
    outer loop
      vertex   7.000000e+00 8.556682e+00 1.502091e+00
      vertex   6.960872e+00 8.597433e+00 1.435228e+00
      vertex   7.000000e+00 8.575606e+00 1.376915e+00
    endloop
  endfacet
  facet normal -6.094678e-01 -7.843729e-01 -1.153612e-01
    outer loop
      vertex   7.000000e+00 8.575606e+00 1.376915e+00
      vertex   6.960872e+00 8.597433e+00 1.435228e+00
      vertex   6.965426e+00 8.603074e+00 1.372810e+00
    endloop
  endfacet
  facet normal -6.102067e-01 -7.845361e-01 -1.102308e-01
    outer loop
      vertex   7.000000e+00 8.575606e+00 1.376915e+00
      vertex   6.965426e+00 8.603074e+00 1.372810e+00
      vertex   6.969769e+00 8.608456e+00 1.310468e+00
    endloop
  endfacet
  facet normal -6.044091e-01 -7.890137e-01 -1.102135e-01
    outer loop
      vertex   6.969769e+00 8.608456e+00 1.310468e+00
      vertex   6.965426e+00 8.603074e+00 1.372810e+00
      vertex   6.874169e+00 8.672980e+00 1.372810e+00
    endloop
  endfacet
  facet normal -6.044082e-01 -7.890148e-01 -1.102109e-01
    outer loop
      vertex   6.969769e+00 8.608456e+00 1.310468e+00
      vertex   6.874169e+00 8.672980e+00 1.372810e+00
      vertex   6.878447e+00 8.678411e+00 1.310468e+00
    endloop
  endfacet
  facet normal -5.962772e-01 -7.951803e-01 -1.101900e-01
    outer loop
      vertex   6.878447e+00 8.678411e+00 1.310468e+00
      vertex   6.874169e+00 8.672980e+00 1.372810e+00
      vertex   6.782226e+00 8.741925e+00 1.372810e+00
    endloop
  endfacet
  facet normal -5.962758e-01 -7.951818e-01 -1.101862e-01
    outer loop
      vertex   6.878447e+00 8.678411e+00 1.310468e+00
      vertex   6.782226e+00 8.741925e+00 1.372810e+00
      vertex   6.786442e+00 8.747402e+00 1.310468e+00
    endloop
  endfacet
  facet normal -5.880904e-01 -8.012572e-01 -1.101664e-01
    outer loop
      vertex   6.786442e+00 8.747402e+00 1.310468e+00
      vertex   6.782226e+00 8.741925e+00 1.372810e+00
      vertex   6.689610e+00 8.809901e+00 1.372810e+00
    endloop
  endfacet
  facet normal -5.880887e-01 -8.012591e-01 -1.101619e-01
    outer loop
      vertex   6.786442e+00 8.747402e+00 1.310468e+00
      vertex   6.689610e+00 8.809901e+00 1.372810e+00
      vertex   6.693765e+00 8.815423e+00 1.310468e+00
    endloop
  endfacet
  facet normal -5.798498e-01 -8.072439e-01 -1.101428e-01
    outer loop
      vertex   6.693765e+00 8.815423e+00 1.310468e+00
      vertex   6.689610e+00 8.809901e+00 1.372810e+00
      vertex   6.596334e+00 8.876902e+00 1.372810e+00
    endloop
  endfacet
  facet normal -5.798480e-01 -8.072459e-01 -1.101380e-01
    outer loop
      vertex   6.693765e+00 8.815423e+00 1.310468e+00
      vertex   6.596334e+00 8.876902e+00 1.372810e+00
      vertex   6.600431e+00 8.882465e+00 1.310468e+00
    endloop
  endfacet
  facet normal -5.715568e-01 -8.131400e-01 -1.101191e-01
    outer loop
      vertex   6.600431e+00 8.882465e+00 1.310468e+00
      vertex   6.596334e+00 8.876902e+00 1.372810e+00
      vertex   6.502413e+00 8.942920e+00 1.372810e+00
    endloop
  endfacet
  facet normal -5.715551e-01 -8.131417e-01 -1.101147e-01
    outer loop
      vertex   6.600431e+00 8.882465e+00 1.310468e+00
      vertex   6.502413e+00 8.942920e+00 1.372810e+00
      vertex   6.506455e+00 8.948521e+00 1.310468e+00
    endloop
  endfacet
  facet normal -5.641742e-01 -8.182823e-01 -1.100980e-01
    outer loop
      vertex   6.506455e+00 8.948521e+00 1.310468e+00
      vertex   6.502413e+00 8.942920e+00 1.372810e+00
      vertex   6.430725e+00 9.000000e+00 1.315917e+00
    endloop
  endfacet
  facet normal -5.642246e-01 -8.187978e-01 -1.059277e-01
    outer loop
      vertex   6.506455e+00 8.948521e+00 1.310468e+00
      vertex   6.430725e+00 9.000000e+00 1.315917e+00
      vertex   6.442547e+00 9.000000e+00 1.252947e+00
    endloop
  endfacet
  facet normal -6.113680e-01 -7.808276e-01 -1.285979e-01
    outer loop
      vertex   7.000000e+00 8.536109e+00 1.627006e+00
      vertex   6.951128e+00 8.585363e+00 1.560284e+00
      vertex   7.000000e+00 8.556682e+00 1.502091e+00
    endloop
  endfacet
  facet normal -6.091506e-01 -7.830380e-01 -1.256463e-01
    outer loop
      vertex   7.000000e+00 8.556682e+00 1.502091e+00
      vertex   6.951128e+00 8.585363e+00 1.560284e+00
      vertex   6.956107e+00 8.591529e+00 1.497720e+00
    endloop
  endfacet
  facet normal -6.098640e-01 -7.832913e-01 -1.205018e-01
    outer loop
      vertex   7.000000e+00 8.556682e+00 1.502091e+00
      vertex   6.956107e+00 8.591529e+00 1.497720e+00
      vertex   6.960872e+00 8.597433e+00 1.435228e+00
    endloop
  endfacet
  facet normal -6.036862e-01 -7.880654e-01 -1.204817e-01
    outer loop
      vertex   6.960872e+00 8.597433e+00 1.435228e+00
      vertex   6.956107e+00 8.591529e+00 1.497720e+00
      vertex   6.864986e+00 8.661330e+00 1.497720e+00
    endloop
  endfacet
  facet normal -6.036853e-01 -7.880665e-01 -1.204792e-01
    outer loop
      vertex   6.960872e+00 8.597433e+00 1.435228e+00
      vertex   6.864986e+00 8.661330e+00 1.497720e+00
      vertex   6.869682e+00 8.667287e+00 1.435228e+00
    endloop
  endfacet
  facet normal -5.955655e-01 -7.942242e-01 -1.204560e-01
    outer loop
      vertex   6.869682e+00 8.667287e+00 1.435228e+00
      vertex   6.864986e+00 8.661330e+00 1.497720e+00
      vertex   6.773177e+00 8.730175e+00 1.497720e+00
    endloop
  endfacet
  facet normal -5.955641e-01 -7.942258e-01 -1.204522e-01
    outer loop
      vertex   6.869682e+00 8.667287e+00 1.435228e+00
      vertex   6.773177e+00 8.730175e+00 1.497720e+00
      vertex   6.777805e+00 8.736183e+00 1.435228e+00
    endloop
  endfacet
  facet normal -5.873895e-01 -8.002938e-01 -1.204303e-01
    outer loop
      vertex   6.777805e+00 8.736183e+00 1.435228e+00
      vertex   6.773177e+00 8.730175e+00 1.497720e+00
      vertex   6.680691e+00 8.798057e+00 1.497720e+00
    endloop
  endfacet
  facet normal -5.873878e-01 -8.002957e-01 -1.204257e-01
    outer loop
      vertex   6.777805e+00 8.736183e+00 1.435228e+00
      vertex   6.680691e+00 8.798057e+00 1.497720e+00
      vertex   6.685252e+00 8.804113e+00 1.435228e+00
    endloop
  endfacet
  facet normal -5.791593e-01 -8.062737e-01 -1.204045e-01
    outer loop
      vertex   6.685252e+00 8.804113e+00 1.435228e+00
      vertex   6.680691e+00 8.798057e+00 1.497720e+00
      vertex   6.587540e+00 8.864969e+00 1.497720e+00
    endloop
  endfacet
  facet normal -5.791576e-01 -8.062757e-01 -1.203997e-01
    outer loop
      vertex   6.685252e+00 8.804113e+00 1.435228e+00
      vertex   6.587540e+00 8.864969e+00 1.497720e+00
      vertex   6.592038e+00 8.871070e+00 1.435228e+00
    endloop
  endfacet
  facet normal -5.708762e-01 -8.121634e-01 -1.203786e-01
    outer loop
      vertex   6.592038e+00 8.871070e+00 1.435228e+00
      vertex   6.587540e+00 8.864969e+00 1.497720e+00
      vertex   6.493737e+00 8.930904e+00 1.497720e+00
    endloop
  endfacet
  facet normal -5.708745e-01 -8.121652e-01 -1.203743e-01
    outer loop
      vertex   6.592038e+00 8.871070e+00 1.435228e+00
      vertex   6.493737e+00 8.930904e+00 1.497720e+00
      vertex   6.498174e+00 8.937048e+00 1.435228e+00
    endloop
  endfacet
  facet normal -5.627404e-01 -8.178254e-01 -1.203532e-01
    outer loop
      vertex   6.498174e+00 8.937048e+00 1.435228e+00
      vertex   6.493737e+00 8.930904e+00 1.497720e+00
      vertex   6.405344e+00 9.000000e+00 1.441503e+00
    endloop
  endfacet
  facet normal -5.628216e-01 -8.183339e-01 -1.164541e-01
    outer loop
      vertex   6.498174e+00 8.937048e+00 1.435228e+00
      vertex   6.405344e+00 9.000000e+00 1.441503e+00
      vertex   6.418324e+00 9.000000e+00 1.378770e+00
    endloop
  endfacet
  facet normal -6.106134e-01 -7.796365e-01 -1.389899e-01
    outer loop
      vertex   7.000000e+00 8.513890e+00 1.751641e+00
      vertex   6.940530e+00 8.572238e+00 1.685615e+00
      vertex   7.000000e+00 8.536109e+00 1.627006e+00
    endloop
  endfacet
  facet normal -6.088072e-01 -7.815812e-01 -1.359583e-01
    outer loop
      vertex   7.000000e+00 8.536109e+00 1.627006e+00
      vertex   6.940530e+00 8.572238e+00 1.685615e+00
      vertex   6.945936e+00 8.578933e+00 1.622917e+00
    endloop
  endfacet
  facet normal -6.094795e-01 -7.819374e-01 -1.308004e-01
    outer loop
      vertex   7.000000e+00 8.536109e+00 1.627006e+00
      vertex   6.945936e+00 8.578933e+00 1.622917e+00
      vertex   6.951128e+00 8.585363e+00 1.560284e+00
    endloop
  endfacet
  facet normal -6.028955e-01 -7.870288e-01 -1.307774e-01
    outer loop
      vertex   6.951128e+00 8.585363e+00 1.560284e+00
      vertex   6.945936e+00 8.578933e+00 1.622917e+00
      vertex   6.854964e+00 8.648621e+00 1.622917e+00
    endloop
  endfacet
  facet normal -6.028946e-01 -7.870298e-01 -1.307749e-01
    outer loop
      vertex   6.951128e+00 8.585363e+00 1.560284e+00
      vertex   6.854964e+00 8.648621e+00 1.622917e+00
      vertex   6.860081e+00 8.655109e+00 1.560284e+00
    endloop
  endfacet
  facet normal -5.947869e-01 -7.931791e-01 -1.307495e-01
    outer loop
      vertex   6.860081e+00 8.655109e+00 1.560284e+00
      vertex   6.854964e+00 8.648621e+00 1.622917e+00
      vertex   6.763300e+00 8.717358e+00 1.622917e+00
    endloop
  endfacet
  facet normal -5.947856e-01 -7.931807e-01 -1.307458e-01
    outer loop
      vertex   6.860081e+00 8.655109e+00 1.560284e+00
      vertex   6.763300e+00 8.717358e+00 1.622917e+00
      vertex   6.768343e+00 8.723901e+00 1.560284e+00
    endloop
  endfacet
  facet normal -5.866227e-01 -7.992407e-01 -1.307216e-01
    outer loop
      vertex   6.768343e+00 8.723901e+00 1.560284e+00
      vertex   6.763300e+00 8.717358e+00 1.622917e+00
      vertex   6.670955e+00 8.785137e+00 1.622917e+00
    endloop
  endfacet
  facet normal -5.866210e-01 -7.992426e-01 -1.307171e-01
    outer loop
      vertex   6.768343e+00 8.723901e+00 1.560284e+00
      vertex   6.670955e+00 8.785137e+00 1.622917e+00
      vertex   6.675926e+00 8.791732e+00 1.560284e+00
    endloop
  endfacet
  facet normal -5.784039e-01 -8.052131e-01 -1.306937e-01
    outer loop
      vertex   6.675926e+00 8.791732e+00 1.560284e+00
      vertex   6.670955e+00 8.785137e+00 1.622917e+00
      vertex   6.577940e+00 8.851952e+00 1.622917e+00
    endloop
  endfacet
  facet normal -5.784022e-01 -8.052151e-01 -1.306890e-01
    outer loop
      vertex   6.675926e+00 8.791732e+00 1.560284e+00
      vertex   6.577940e+00 8.851952e+00 1.622917e+00
      vertex   6.582841e+00 8.858596e+00 1.560284e+00
    endloop
  endfacet
  facet normal -5.701316e-01 -8.110958e-01 -1.306656e-01
    outer loop
      vertex   6.582841e+00 8.858596e+00 1.560284e+00
      vertex   6.577940e+00 8.851952e+00 1.622917e+00
      vertex   6.484267e+00 8.917796e+00 1.622917e+00
    endloop
  endfacet
  facet normal -5.701300e-01 -8.110977e-01 -1.306613e-01
    outer loop
      vertex   6.582841e+00 8.858596e+00 1.560284e+00
      vertex   6.484267e+00 8.917796e+00 1.622917e+00
      vertex   6.489102e+00 8.924487e+00 1.560284e+00
    endloop
  endfacet
  facet normal -5.618040e-01 -8.168905e-01 -1.306375e-01
    outer loop
      vertex   6.489102e+00 8.924487e+00 1.560284e+00
      vertex   6.484267e+00 8.917796e+00 1.622917e+00
      vertex   6.389883e+00 8.982707e+00 1.622917e+00
    endloop
  endfacet
  facet normal -5.618024e-01 -8.168923e-01 -1.306333e-01
    outer loop
      vertex   6.489102e+00 8.924487e+00 1.560284e+00
      vertex   6.389883e+00 8.982707e+00 1.622917e+00
      vertex   6.394644e+00 8.989449e+00 1.560284e+00
    endloop
  endfacet
  facet normal -5.575012e-01 -8.198354e-01 -1.306231e-01
    outer loop
      vertex   6.394644e+00 8.989449e+00 1.560284e+00
      vertex   6.389883e+00 8.982707e+00 1.622917e+00
      vertex   6.377650e+00 9.000000e+00 1.566593e+00
    endloop
  endfacet
  facet normal -5.565950e-01 -8.211852e-01 -1.259246e-01
    outer loop
      vertex   6.394644e+00 8.989449e+00 1.560284e+00
      vertex   6.377650e+00 9.000000e+00 1.566593e+00
      vertex   6.391785e+00 9.000000e+00 1.504113e+00
    endloop
  endfacet
  facet normal -6.099255e-01 -7.782539e-01 -1.493712e-01
    outer loop
      vertex   7.000000e+00 8.490025e+00 1.875979e+00
      vertex   6.929069e+00 8.558048e+00 1.811199e+00
      vertex   7.000000e+00 8.513890e+00 1.751641e+00
    endloop
  endfacet
  facet normal -6.084331e-01 -7.800043e-01 -1.462960e-01
    outer loop
      vertex   7.000000e+00 8.513890e+00 1.751641e+00
      vertex   6.929069e+00 8.558048e+00 1.811199e+00
      vertex   6.934908e+00 8.565276e+00 1.748377e+00
    endloop
  endfacet
  facet normal -6.090589e-01 -7.804684e-01 -1.411254e-01
    outer loop
      vertex   7.000000e+00 8.513890e+00 1.751641e+00
      vertex   6.934908e+00 8.565276e+00 1.748377e+00
      vertex   6.940530e+00 8.572238e+00 1.685615e+00
    endloop
  endfacet
  facet normal -6.020365e-01 -7.859028e-01 -1.410991e-01
    outer loop
      vertex   6.940530e+00 8.572238e+00 1.685615e+00
      vertex   6.934908e+00 8.565276e+00 1.748377e+00
      vertex   6.844094e+00 8.634843e+00 1.748377e+00
    endloop
  endfacet
  facet normal -6.020356e-01 -7.859039e-01 -1.410966e-01
    outer loop
      vertex   6.940530e+00 8.572238e+00 1.685615e+00
      vertex   6.844094e+00 8.634843e+00 1.748377e+00
      vertex   6.849636e+00 8.641866e+00 1.685615e+00
    endloop
  endfacet
  facet normal -5.939409e-01 -7.920440e-01 -1.410690e-01
    outer loop
      vertex   6.849636e+00 8.641866e+00 1.685615e+00
      vertex   6.844094e+00 8.634843e+00 1.748377e+00
      vertex   6.752587e+00 8.703464e+00 1.748377e+00
    endloop
  endfacet
  facet normal -5.939396e-01 -7.920457e-01 -1.410654e-01
    outer loop
      vertex   6.849636e+00 8.641866e+00 1.685615e+00
      vertex   6.752587e+00 8.703464e+00 1.748377e+00
      vertex   6.758048e+00 8.710546e+00 1.685615e+00
    endloop
  endfacet
  facet normal -5.857894e-01 -7.980970e-01 -1.410390e-01
    outer loop
      vertex   6.758048e+00 8.710546e+00 1.685615e+00
      vertex   6.752587e+00 8.703464e+00 1.748377e+00
      vertex   6.660394e+00 8.771131e+00 1.748377e+00
    endloop
  endfacet
  facet normal -5.857878e-01 -7.980989e-01 -1.410345e-01
    outer loop
      vertex   6.758048e+00 8.710546e+00 1.685615e+00
      vertex   6.660394e+00 8.771131e+00 1.748377e+00
      vertex   6.665778e+00 8.778270e+00 1.685615e+00
    endloop
  endfacet
  facet normal -5.775830e-01 -8.040612e-01 -1.410089e-01
    outer loop
      vertex   6.665778e+00 8.778270e+00 1.685615e+00
      vertex   6.660394e+00 8.771131e+00 1.748377e+00
      vertex   6.567527e+00 8.837841e+00 1.748377e+00
    endloop
  endfacet
  facet normal -5.775812e-01 -8.040633e-01 -1.410042e-01
    outer loop
      vertex   6.665778e+00 8.778270e+00 1.685615e+00
      vertex   6.567527e+00 8.837841e+00 1.748377e+00
      vertex   6.572836e+00 8.845033e+00 1.685615e+00
    endloop
  endfacet
  facet normal -5.693224e-01 -8.099364e-01 -1.409788e-01
    outer loop
      vertex   6.572836e+00 8.845033e+00 1.685615e+00
      vertex   6.567527e+00 8.837841e+00 1.748377e+00
      vertex   6.473995e+00 8.903586e+00 1.748377e+00
    endloop
  endfacet
  facet normal -5.693208e-01 -8.099382e-01 -1.409745e-01
    outer loop
      vertex   6.572836e+00 8.845033e+00 1.685615e+00
      vertex   6.473995e+00 8.903586e+00 1.748377e+00
      vertex   6.479232e+00 8.910830e+00 1.685615e+00
    endloop
  endfacet
  facet normal -5.610070e-01 -8.157234e-01 -1.409485e-01
    outer loop
      vertex   6.479232e+00 8.910830e+00 1.685615e+00
      vertex   6.473995e+00 8.903586e+00 1.748377e+00
      vertex   6.379767e+00 8.968391e+00 1.748377e+00
    endloop
  endfacet
  facet normal -5.610054e-01 -8.157252e-01 -1.409444e-01
    outer loop
      vertex   6.479232e+00 8.910830e+00 1.685615e+00
      vertex   6.379767e+00 8.968391e+00 1.748377e+00
      vertex   6.384924e+00 8.975689e+00 1.685615e+00
    endloop
  endfacet
  facet normal -5.554460e-01 -8.195235e-01 -1.409292e-01
    outer loop
      vertex   6.384924e+00 8.975689e+00 1.685615e+00
      vertex   6.379767e+00 8.968391e+00 1.748377e+00
      vertex   6.347649e+00 9.000000e+00 1.691152e+00
    endloop
  endfacet
  facet normal -5.553278e-01 -8.203577e-01 -1.364705e-01
    outer loop
      vertex   6.384924e+00 8.975689e+00 1.685615e+00
      vertex   6.347649e+00 9.000000e+00 1.691152e+00
      vertex   6.362937e+00 9.000000e+00 1.628941e+00
    endloop
  endfacet
  facet normal -6.092725e-01 -7.767039e-01 -1.597436e-01
    outer loop
      vertex   7.000000e+00 8.464518e+00 2.000000e+00
      vertex   6.916740e+00 8.542785e+00 1.937013e+00
      vertex   7.000000e+00 8.490025e+00 1.875979e+00
    endloop
  endfacet
  facet normal -6.080264e-01 -7.783073e-01 -1.566578e-01
    outer loop
      vertex   7.000000e+00 8.490025e+00 1.875979e+00
      vertex   6.916740e+00 8.542785e+00 1.937013e+00
      vertex   6.923013e+00 8.550551e+00 1.874079e+00
    endloop
  endfacet
  facet normal -6.086051e-01 -7.788807e-01 -1.514751e-01
    outer loop
      vertex   7.000000e+00 8.490025e+00 1.875979e+00
      vertex   6.923013e+00 8.550551e+00 1.874079e+00
      vertex   6.929069e+00 8.558048e+00 1.811199e+00
    endloop
  endfacet
  facet normal -6.011083e-01 -7.846866e-01 -1.514454e-01
    outer loop
      vertex   6.929069e+00 8.558048e+00 1.811199e+00
      vertex   6.923013e+00 8.550551e+00 1.874079e+00
      vertex   6.832371e+00 8.619988e+00 1.874079e+00
    endloop
  endfacet
  facet normal -6.011074e-01 -7.846878e-01 -1.514429e-01
    outer loop
      vertex   6.929069e+00 8.558048e+00 1.811199e+00
      vertex   6.832371e+00 8.619988e+00 1.874079e+00
      vertex   6.838340e+00 8.627551e+00 1.811199e+00
    endloop
  endfacet
  facet normal -5.930267e-01 -7.908181e-01 -1.514132e-01
    outer loop
      vertex   6.838340e+00 8.627551e+00 1.811199e+00
      vertex   6.832371e+00 8.619988e+00 1.874079e+00
      vertex   6.741031e+00 8.688483e+00 1.874079e+00
    endloop
  endfacet
  facet normal -5.930254e-01 -7.908198e-01 -1.514095e-01
    outer loop
      vertex   6.838340e+00 8.627551e+00 1.811199e+00
      vertex   6.741031e+00 8.688483e+00 1.874079e+00
      vertex   6.746914e+00 8.696109e+00 1.811199e+00
    endloop
  endfacet
  facet normal -5.848890e-01 -7.968618e-01 -1.513810e-01
    outer loop
      vertex   6.746914e+00 8.696109e+00 1.811199e+00
      vertex   6.741031e+00 8.688483e+00 1.874079e+00
      vertex   6.649002e+00 8.756031e+00 1.874079e+00
    endloop
  endfacet
  facet normal -5.848874e-01 -7.968638e-01 -1.513766e-01
    outer loop
      vertex   6.746914e+00 8.696109e+00 1.811199e+00
      vertex   6.649002e+00 8.756031e+00 1.874079e+00
      vertex   6.654802e+00 8.763718e+00 1.811199e+00
    endloop
  endfacet
  facet normal -5.766958e-01 -8.028172e-01 -1.513488e-01
    outer loop
      vertex   6.654802e+00 8.763718e+00 1.811199e+00
      vertex   6.649002e+00 8.756031e+00 1.874079e+00
      vertex   6.556294e+00 8.822627e+00 1.874079e+00
    endloop
  endfacet
  facet normal -5.766941e-01 -8.028193e-01 -1.513442e-01
    outer loop
      vertex   6.654802e+00 8.763718e+00 1.811199e+00
      vertex   6.556294e+00 8.822627e+00 1.874079e+00
      vertex   6.562013e+00 8.830372e+00 1.811199e+00
    endloop
  endfacet
  facet normal -5.684481e-01 -8.086842e-01 -1.513165e-01
    outer loop
      vertex   6.562013e+00 8.830372e+00 1.811199e+00
      vertex   6.556294e+00 8.822627e+00 1.874079e+00
      vertex   6.462915e+00 8.888265e+00 1.874079e+00
    endloop
  endfacet
  facet normal -5.684465e-01 -8.086861e-01 -1.513123e-01
    outer loop
      vertex   6.562013e+00 8.830372e+00 1.811199e+00
      vertex   6.462915e+00 8.888265e+00 1.874079e+00
      vertex   6.468557e+00 8.896065e+00 1.811199e+00
    endloop
  endfacet
  facet normal -5.601457e-01 -8.144630e-01 -1.512842e-01
    outer loop
      vertex   6.468557e+00 8.896065e+00 1.811199e+00
      vertex   6.462915e+00 8.888265e+00 1.874079e+00
      vertex   6.368854e+00 8.952956e+00 1.874079e+00
    endloop
  endfacet
  facet normal -5.601441e-01 -8.144648e-01 -1.512801e-01
    outer loop
      vertex   6.468557e+00 8.896065e+00 1.811199e+00
      vertex   6.368854e+00 8.952956e+00 1.874079e+00
      vertex   6.374410e+00 8.960814e+00 1.811199e+00
    endloop
  endfacet
  facet normal -5.534923e-01 -8.190035e-01 -1.512596e-01
    outer loop
      vertex   6.374410e+00 8.960814e+00 1.811199e+00
      vertex   6.368854e+00 8.952956e+00 1.874079e+00
      vertex   6.315348e+00 9.000000e+00 1.815145e+00
    endloop
  endfacet
  facet normal -5.536522e-01 -8.196768e-01 -1.469668e-01
    outer loop
      vertex   6.374410e+00 8.960814e+00 1.811199e+00
      vertex   6.315348e+00 9.000000e+00 1.815145e+00
      vertex   6.331786e+00 9.000000e+00 1.753221e+00
    endloop
  endfacet
  facet normal -6.081198e-01 -7.771714e-01 -1.618482e-01
    outer loop
      vertex   7.000000e+00 8.464518e+00 2.000000e+00
      vertex   6.910247e+00 8.534748e+00 2.000000e+00
      vertex   6.916740e+00 8.542785e+00 1.937013e+00
    endloop
  endfacet
  facet normal -6.001105e-01 -7.833795e-01 -1.618147e-01
    outer loop
      vertex   6.916740e+00 8.542785e+00 1.937013e+00
      vertex   6.910247e+00 8.534748e+00 2.000000e+00
      vertex   6.819786e+00 8.604046e+00 2.000000e+00
    endloop
  endfacet
  facet normal -6.001096e-01 -7.833807e-01 -1.618122e-01
    outer loop
      vertex   6.916740e+00 8.542785e+00 1.937013e+00
      vertex   6.819786e+00 8.604046e+00 2.000000e+00
      vertex   6.826186e+00 8.612153e+00 1.937013e+00
    endloop
  endfacet
  facet normal -5.920439e-01 -7.895006e-01 -1.617803e-01
    outer loop
      vertex   6.826186e+00 8.612153e+00 1.937013e+00
      vertex   6.819786e+00 8.604046e+00 2.000000e+00
      vertex   6.728625e+00 8.672407e+00 2.000000e+00
    endloop
  endfacet
  facet normal -5.920426e-01 -7.895023e-01 -1.617766e-01
    outer loop
      vertex   6.826186e+00 8.612153e+00 1.937013e+00
      vertex   6.728625e+00 8.672407e+00 2.000000e+00
      vertex   6.734934e+00 8.680582e+00 1.937013e+00
    endloop
  endfacet
  facet normal -5.839208e-01 -7.955343e-01 -1.617459e-01
    outer loop
      vertex   6.734934e+00 8.680582e+00 1.937013e+00
      vertex   6.728625e+00 8.672407e+00 2.000000e+00
      vertex   6.636772e+00 8.739827e+00 2.000000e+00
    endloop
  endfacet
  facet normal -5.839192e-01 -7.955363e-01 -1.617415e-01
    outer loop
      vertex   6.734934e+00 8.680582e+00 1.937013e+00
      vertex   6.636772e+00 8.739827e+00 2.000000e+00
      vertex   6.642992e+00 8.748067e+00 1.937013e+00
    endloop
  endfacet
  facet normal -5.757418e-01 -8.014803e-01 -1.617116e-01
    outer loop
      vertex   6.642992e+00 8.748067e+00 1.937013e+00
      vertex   6.636772e+00 8.739827e+00 2.000000e+00
      vertex   6.544235e+00 8.806301e+00 2.000000e+00
    endloop
  endfacet
  facet normal -5.757402e-01 -8.014824e-01 -1.617070e-01
    outer loop
      vertex   6.642992e+00 8.748067e+00 1.937013e+00
      vertex   6.544235e+00 8.806301e+00 2.000000e+00
      vertex   6.550368e+00 8.814603e+00 1.937013e+00
    endloop
  endfacet
  facet normal -5.675078e-01 -8.073384e-01 -1.616773e-01
    outer loop
      vertex   6.550368e+00 8.814603e+00 1.937013e+00
      vertex   6.544235e+00 8.806301e+00 2.000000e+00
      vertex   6.451021e+00 8.871824e+00 2.000000e+00
    endloop
  endfacet
  facet normal -5.675063e-01 -8.073403e-01 -1.616732e-01
    outer loop
      vertex   6.550368e+00 8.814603e+00 1.937013e+00
      vertex   6.451021e+00 8.871824e+00 2.000000e+00
      vertex   6.457070e+00 8.880185e+00 1.937013e+00
    endloop
  endfacet
  facet normal -5.592195e-01 -8.131083e-01 -1.616429e-01
    outer loop
      vertex   6.457070e+00 8.880185e+00 1.937013e+00
      vertex   6.451021e+00 8.871824e+00 2.000000e+00
      vertex   6.357139e+00 8.936392e+00 2.000000e+00
    endloop
  endfacet
  facet normal -5.592180e-01 -8.131101e-01 -1.616389e-01
    outer loop
      vertex   6.457070e+00 8.880185e+00 1.937013e+00
      vertex   6.357139e+00 8.936392e+00 2.000000e+00
      vertex   6.363097e+00 8.944815e+00 1.937013e+00
    endloop
  endfacet
  facet normal -5.514564e-01 -8.183993e-01 -1.616120e-01
    outer loop
      vertex   6.363097e+00 8.944815e+00 1.937013e+00
      vertex   6.357139e+00 8.936392e+00 2.000000e+00
      vertex   6.280753e+00 9.000000e+00 1.938539e+00
    endloop
  endfacet
  facet normal -5.517771e-01 -8.189926e-01 -1.574585e-01
    outer loop
      vertex   6.363097e+00 8.944815e+00 1.937013e+00
      vertex   6.280753e+00 9.000000e+00 1.938539e+00
      vertex   6.298337e+00 9.000000e+00 1.876919e+00
    endloop
  endfacet
  facet normal -5.507770e-01 -8.186401e-01 -1.627056e-01
    outer loop
      vertex   6.357139e+00 8.936392e+00 2.000000e+00
      vertex   6.262596e+00 9.000000e+00 2.000000e+00
      vertex   6.280753e+00 9.000000e+00 1.938539e+00
    endloop
  endfacet
  facet normal -5.524877e-01 -8.187100e-01 -1.564332e-01
    outer loop
      vertex   6.363097e+00 8.944815e+00 1.937013e+00
      vertex   6.298337e+00 9.000000e+00 1.876919e+00
      vertex   6.368854e+00 8.952956e+00 1.874079e+00
    endloop
  endfacet
  facet normal -5.527363e-01 -8.193375e-01 -1.522125e-01
    outer loop
      vertex   6.368854e+00 8.952956e+00 1.874079e+00
      vertex   6.298337e+00 9.000000e+00 1.876919e+00
      vertex   6.315348e+00 9.000000e+00 1.815145e+00
    endloop
  endfacet
  facet normal -5.544751e-01 -8.192769e-01 -1.460915e-01
    outer loop
      vertex   6.374410e+00 8.960814e+00 1.811199e+00
      vertex   6.331786e+00 9.000000e+00 1.753221e+00
      vertex   6.379767e+00 8.968391e+00 1.748377e+00
    endloop
  endfacet
  facet normal -5.545195e-01 -8.200143e-01 -1.417203e-01
    outer loop
      vertex   6.379767e+00 8.968391e+00 1.748377e+00
      vertex   6.331786e+00 9.000000e+00 1.753221e+00
      vertex   6.347649e+00 9.000000e+00 1.691152e+00
    endloop
  endfacet
  facet normal -5.564288e-01 -8.197272e-01 -1.357729e-01
    outer loop
      vertex   6.384924e+00 8.975689e+00 1.685615e+00
      vertex   6.362937e+00 9.000000e+00 1.628941e+00
      vertex   6.389883e+00 8.982707e+00 1.622917e+00
    endloop
  endfacet
  facet normal -5.560502e-01 -8.207263e-01 -1.312118e-01
    outer loop
      vertex   6.389883e+00 8.982707e+00 1.622917e+00
      vertex   6.362937e+00 9.000000e+00 1.628941e+00
      vertex   6.377650e+00 9.000000e+00 1.566593e+00
    endloop
  endfacet
  facet normal -5.591498e-01 -8.195157e-01 -1.254810e-01
    outer loop
      vertex   6.394644e+00 8.989449e+00 1.560284e+00
      vertex   6.391785e+00 9.000000e+00 1.504113e+00
      vertex   6.399209e+00 8.995914e+00 1.497720e+00
    endloop
  endfacet
  facet normal -5.563115e-01 -8.221946e-01 -1.204721e-01
    outer loop
      vertex   6.399209e+00 8.995914e+00 1.497720e+00
      vertex   6.391785e+00 9.000000e+00 1.504113e+00
      vertex   6.405344e+00 9.000000e+00 1.441503e+00
    endloop
  endfacet
  facet normal -5.625041e-01 -8.179166e-01 -1.208369e-01
    outer loop
      vertex   6.399209e+00 8.995914e+00 1.497720e+00
      vertex   6.405344e+00 9.000000e+00 1.441503e+00
      vertex   6.493737e+00 8.930904e+00 1.497720e+00
    endloop
  endfacet
  facet normal -5.634753e-01 -8.180583e-01 -1.152222e-01
    outer loop
      vertex   6.498174e+00 8.937048e+00 1.435228e+00
      vertex   6.418324e+00 9.000000e+00 1.378770e+00
      vertex   6.502413e+00 8.942920e+00 1.372810e+00
    endloop
  endfacet
  facet normal -5.635386e-01 -8.185725e-01 -1.111901e-01
    outer loop
      vertex   6.502413e+00 8.942920e+00 1.372810e+00
      vertex   6.418324e+00 9.000000e+00 1.378770e+00
      vertex   6.430725e+00 9.000000e+00 1.315917e+00
    endloop
  endfacet
  facet normal -5.648356e-01 -8.184985e-01 -1.049809e-01
    outer loop
      vertex   6.506455e+00 8.948521e+00 1.310468e+00
      vertex   6.442547e+00 9.000000e+00 1.252947e+00
      vertex   6.510301e+00 8.953852e+00 1.248206e+00
    endloop
  endfacet
  facet normal -5.648813e-01 -8.190087e-01 -1.006669e-01
    outer loop
      vertex   6.510301e+00 8.953852e+00 1.248206e+00
      vertex   6.442547e+00 9.000000e+00 1.252947e+00
      vertex   6.453789e+00 9.000000e+00 1.189867e+00
    endloop
  endfacet
  facet normal -5.660373e-01 -8.189143e-01 -9.476840e-02
    outer loop
      vertex   6.513952e+00 8.958916e+00 1.186025e+00
      vertex   6.464449e+00 9.000000e+00 1.126679e+00
      vertex   6.517409e+00 8.963712e+00 1.123929e+00
    endloop
  endfacet
  facet normal -5.661170e-01 -8.193805e-01 -9.015072e-02
    outer loop
      vertex   6.517409e+00 8.963712e+00 1.123929e+00
      vertex   6.464449e+00 9.000000e+00 1.126679e+00
      vertex   6.474528e+00 9.000000e+00 1.063389e+00
    endloop
  endfacet
  facet normal -6.006181e-01 -7.840445e-01 -1.566273e-01
    outer loop
      vertex   6.923013e+00 8.550551e+00 1.874079e+00
      vertex   6.916740e+00 8.542785e+00 1.937013e+00
      vertex   6.826186e+00 8.612153e+00 1.937013e+00
    endloop
  endfacet
  facet normal -5.724592e-01 -8.144363e-01 -9.478445e-02
    outer loop
      vertex   6.608030e+00 8.892789e+00 1.186025e+00
      vertex   6.513952e+00 8.958916e+00 1.186025e+00
      vertex   6.611534e+00 8.897553e+00 1.123929e+00
    endloop
  endfacet
  facet normal -5.724574e-01 -8.144380e-01 -9.478005e-02
    outer loop
      vertex   6.611534e+00 8.897553e+00 1.123929e+00
      vertex   6.513952e+00 8.958916e+00 1.186025e+00
      vertex   6.517409e+00 8.963712e+00 1.123929e+00
    endloop
  endfacet
  facet normal -5.718733e-01 -8.135944e-01 -1.050001e-01
    outer loop
      vertex   6.600431e+00 8.882465e+00 1.310468e+00
      vertex   6.506455e+00 8.948521e+00 1.310468e+00
      vertex   6.604330e+00 8.887760e+00 1.248206e+00
    endloop
  endfacet
  facet normal -5.718716e-01 -8.135962e-01 -1.049957e-01
    outer loop
      vertex   6.604330e+00 8.887760e+00 1.248206e+00
      vertex   6.506455e+00 8.948521e+00 1.310468e+00
      vertex   6.510301e+00 8.953852e+00 1.248206e+00
    endloop
  endfacet
  facet normal -5.712244e-01 -8.126630e-01 -1.152453e-01
    outer loop
      vertex   6.592038e+00 8.871070e+00 1.435228e+00
      vertex   6.498174e+00 8.937048e+00 1.435228e+00
      vertex   6.596334e+00 8.876902e+00 1.372810e+00
    endloop
  endfacet
  facet normal -5.712228e-01 -8.126648e-01 -1.152410e-01
    outer loop
      vertex   6.596334e+00 8.876902e+00 1.372810e+00
      vertex   6.498174e+00 8.937048e+00 1.435228e+00
      vertex   6.502413e+00 8.942920e+00 1.372810e+00
    endloop
  endfacet
  facet normal -5.621770e-01 -8.174411e-01 -1.254875e-01
    outer loop
      vertex   6.399209e+00 8.995914e+00 1.497720e+00
      vertex   6.493737e+00 8.930904e+00 1.497720e+00
      vertex   6.394644e+00 8.989449e+00 1.560284e+00
    endloop
  endfacet
  facet normal -5.621786e-01 -8.174393e-01 -1.254917e-01
    outer loop
      vertex   6.394644e+00 8.989449e+00 1.560284e+00
      vertex   6.493737e+00 8.930904e+00 1.497720e+00
      vertex   6.489102e+00 8.924487e+00 1.560284e+00
    endloop
  endfacet
  facet normal -5.614119e-01 -8.163204e-01 -1.357857e-01
    outer loop
      vertex   6.384924e+00 8.975689e+00 1.685615e+00
      vertex   6.389883e+00 8.982707e+00 1.622917e+00
      vertex   6.484267e+00 8.917796e+00 1.622917e+00
    endloop
  endfacet
  facet normal -5.705119e-01 -8.116410e-01 -1.255188e-01
    outer loop
      vertex   6.582841e+00 8.858596e+00 1.560284e+00
      vertex   6.489102e+00 8.924487e+00 1.560284e+00
      vertex   6.587540e+00 8.864969e+00 1.497720e+00
    endloop
  endfacet
  facet normal -5.705103e-01 -8.116429e-01 -1.255145e-01
    outer loop
      vertex   6.587540e+00 8.864969e+00 1.497720e+00
      vertex   6.489102e+00 8.924487e+00 1.560284e+00
      vertex   6.493737e+00 8.930904e+00 1.497720e+00
    endloop
  endfacet
  facet normal -5.614135e-01 -8.163186e-01 -1.357898e-01
    outer loop
      vertex   6.384924e+00 8.975689e+00 1.685615e+00
      vertex   6.484267e+00 8.917796e+00 1.622917e+00
      vertex   6.479232e+00 8.910830e+00 1.685615e+00
    endloop
  endfacet
  facet normal -5.697335e-01 -8.105295e-01 -1.358148e-01
    outer loop
      vertex   6.479232e+00 8.910830e+00 1.685615e+00
      vertex   6.484267e+00 8.917796e+00 1.622917e+00
      vertex   6.577940e+00 8.851952e+00 1.622917e+00
    endloop
  endfacet
  facet normal -5.697351e-01 -8.105276e-01 -1.358190e-01
    outer loop
      vertex   6.479232e+00 8.910830e+00 1.685615e+00
      vertex   6.577940e+00 8.851952e+00 1.622917e+00
      vertex   6.572836e+00 8.845033e+00 1.685615e+00
    endloop
  endfacet
  facet normal -5.779999e-01 -8.046506e-01 -1.358434e-01
    outer loop
      vertex   6.572836e+00 8.845033e+00 1.685615e+00
      vertex   6.577940e+00 8.851952e+00 1.622917e+00
      vertex   6.670955e+00 8.785137e+00 1.622917e+00
    endloop
  endfacet
  facet normal -5.780017e-01 -8.046486e-01 -1.358481e-01
    outer loop
      vertex   6.572836e+00 8.845033e+00 1.685615e+00
      vertex   6.670955e+00 8.785137e+00 1.622917e+00
      vertex   6.665778e+00 8.778270e+00 1.685615e+00
    endloop
  endfacet
  facet normal -5.862128e-01 -7.986822e-01 -1.358727e-01
    outer loop
      vertex   6.665778e+00 8.778270e+00 1.685615e+00
      vertex   6.670955e+00 8.785137e+00 1.622917e+00
      vertex   6.763300e+00 8.717358e+00 1.622917e+00
    endloop
  endfacet
  facet normal -5.862144e-01 -7.986802e-01 -1.358771e-01
    outer loop
      vertex   6.665778e+00 8.778270e+00 1.685615e+00
      vertex   6.763300e+00 8.717358e+00 1.622917e+00
      vertex   6.758048e+00 8.710546e+00 1.685615e+00
    endloop
  endfacet
  facet normal -5.943710e-01 -7.926245e-01 -1.359024e-01
    outer loop
      vertex   6.758048e+00 8.710546e+00 1.685615e+00
      vertex   6.763300e+00 8.717358e+00 1.622917e+00
      vertex   6.854964e+00 8.648621e+00 1.622917e+00
    endloop
  endfacet
  facet normal -5.943724e-01 -7.926229e-01 -1.359061e-01
    outer loop
      vertex   6.758048e+00 8.710546e+00 1.685615e+00
      vertex   6.854964e+00 8.648621e+00 1.622917e+00
      vertex   6.849636e+00 8.641866e+00 1.685615e+00
    endloop
  endfacet
  facet normal -6.024737e-01 -7.864781e-01 -1.359326e-01
    outer loop
      vertex   6.849636e+00 8.641866e+00 1.685615e+00
      vertex   6.854964e+00 8.648621e+00 1.622917e+00
      vertex   6.945936e+00 8.578933e+00 1.622917e+00
    endloop
  endfacet
  facet normal -6.024746e-01 -7.864770e-01 -1.359350e-01
    outer loop
      vertex   6.849636e+00 8.641866e+00 1.685615e+00
      vertex   6.945936e+00 8.578933e+00 1.622917e+00
      vertex   6.940530e+00 8.572238e+00 1.685615e+00
    endloop
  endfacet
  facet normal -5.605828e-01 -8.151067e-01 -1.461093e-01
    outer loop
      vertex   6.374410e+00 8.960814e+00 1.811199e+00
      vertex   6.379767e+00 8.968391e+00 1.748377e+00
      vertex   6.473995e+00 8.903586e+00 1.748377e+00
    endloop
  endfacet
  facet normal -5.605844e-01 -8.151049e-01 -1.461134e-01
    outer loop
      vertex   6.374410e+00 8.960814e+00 1.811199e+00
      vertex   6.473995e+00 8.903586e+00 1.748377e+00
      vertex   6.468557e+00 8.896065e+00 1.811199e+00
    endloop
  endfacet
  facet normal -5.688919e-01 -8.093238e-01 -1.461404e-01
    outer loop
      vertex   6.468557e+00 8.896065e+00 1.811199e+00
      vertex   6.473995e+00 8.903586e+00 1.748377e+00
      vertex   6.567527e+00 8.837841e+00 1.748377e+00
    endloop
  endfacet
  facet normal -5.688934e-01 -8.093219e-01 -1.461447e-01
    outer loop
      vertex   6.468557e+00 8.896065e+00 1.811199e+00
      vertex   6.567527e+00 8.837841e+00 1.748377e+00
      vertex   6.562013e+00 8.830372e+00 1.811199e+00
    endloop
  endfacet
  facet normal -5.771460e-01 -8.034529e-01 -1.461712e-01
    outer loop
      vertex   6.562013e+00 8.830372e+00 1.811199e+00
      vertex   6.567527e+00 8.837841e+00 1.748377e+00
      vertex   6.660394e+00 8.771131e+00 1.748377e+00
    endloop
  endfacet
  facet normal -5.771477e-01 -8.034508e-01 -1.461759e-01
    outer loop
      vertex   6.562013e+00 8.830372e+00 1.811199e+00
      vertex   6.660394e+00 8.771131e+00 1.748377e+00
      vertex   6.654802e+00 8.763718e+00 1.811199e+00
    endloop
  endfacet
  facet normal -5.853460e-01 -7.974929e-01 -1.462026e-01
    outer loop
      vertex   6.654802e+00 8.763718e+00 1.811199e+00
      vertex   6.660394e+00 8.771131e+00 1.748377e+00
      vertex   6.752587e+00 8.703464e+00 1.748377e+00
    endloop
  endfacet
  facet normal -5.853476e-01 -7.974909e-01 -1.462070e-01
    outer loop
      vertex   6.654802e+00 8.763718e+00 1.811199e+00
      vertex   6.752587e+00 8.703464e+00 1.748377e+00
      vertex   6.746914e+00 8.696109e+00 1.811199e+00
    endloop
  endfacet
  facet normal -5.934911e-01 -7.914442e-01 -1.462345e-01
    outer loop
      vertex   6.746914e+00 8.696109e+00 1.811199e+00
      vertex   6.752587e+00 8.703464e+00 1.748377e+00
      vertex   6.844094e+00 8.634843e+00 1.748377e+00
    endloop
  endfacet
  facet normal -5.934924e-01 -7.914425e-01 -1.462381e-01
    outer loop
      vertex   6.746914e+00 8.696109e+00 1.811199e+00
      vertex   6.844094e+00 8.634843e+00 1.748377e+00
      vertex   6.838340e+00 8.627551e+00 1.811199e+00
    endloop
  endfacet
  facet normal -6.015802e-01 -7.853071e-01 -1.462668e-01
    outer loop
      vertex   6.838340e+00 8.627551e+00 1.811199e+00
      vertex   6.844094e+00 8.634843e+00 1.748377e+00
      vertex   6.934908e+00 8.565276e+00 1.748377e+00
    endloop
  endfacet
  facet normal -6.015811e-01 -7.853060e-01 -1.462692e-01
    outer loop
      vertex   6.838340e+00 8.627551e+00 1.811199e+00
      vertex   6.934908e+00 8.565276e+00 1.748377e+00
      vertex   6.929069e+00 8.558048e+00 1.811199e+00
    endloop
  endfacet
  facet normal -5.596892e-01 -8.137993e-01 -1.564567e-01
    outer loop
      vertex   6.363097e+00 8.944815e+00 1.937013e+00
      vertex   6.368854e+00 8.952956e+00 1.874079e+00
      vertex   6.462915e+00 8.888265e+00 1.874079e+00
    endloop
  endfacet
  facet normal -5.596908e-01 -8.137974e-01 -1.564608e-01
    outer loop
      vertex   6.363097e+00 8.944815e+00 1.937013e+00
      vertex   6.462915e+00 8.888265e+00 1.874079e+00
      vertex   6.457070e+00 8.880185e+00 1.937013e+00
    endloop
  endfacet
  facet normal -5.679847e-01 -8.080249e-01 -1.564900e-01
    outer loop
      vertex   6.457070e+00 8.880185e+00 1.937013e+00
      vertex   6.462915e+00 8.888265e+00 1.874079e+00
      vertex   6.556294e+00 8.822627e+00 1.874079e+00
    endloop
  endfacet
  facet normal -5.679862e-01 -8.080230e-01 -1.564942e-01
    outer loop
      vertex   6.457070e+00 8.880185e+00 1.937013e+00
      vertex   6.556294e+00 8.822627e+00 1.874079e+00
      vertex   6.550368e+00 8.814603e+00 1.937013e+00
    endloop
  endfacet
  facet normal -5.762255e-01 -8.021625e-01 -1.565229e-01
    outer loop
      vertex   6.550368e+00 8.814603e+00 1.937013e+00
      vertex   6.556294e+00 8.822627e+00 1.874079e+00
      vertex   6.649002e+00 8.756031e+00 1.874079e+00
    endloop
  endfacet
  facet normal -5.762272e-01 -8.021604e-01 -1.565275e-01
    outer loop
      vertex   6.550368e+00 8.814603e+00 1.937013e+00
      vertex   6.649002e+00 8.756031e+00 1.874079e+00
      vertex   6.642992e+00 8.748067e+00 1.937013e+00
    endloop
  endfacet
  facet normal -5.844118e-01 -7.962116e-01 -1.565564e-01
    outer loop
      vertex   6.642992e+00 8.748067e+00 1.937013e+00
      vertex   6.649002e+00 8.756031e+00 1.874079e+00
      vertex   6.741031e+00 8.688483e+00 1.874079e+00
    endloop
  endfacet
  facet normal -5.844134e-01 -7.962096e-01 -1.565608e-01
    outer loop
      vertex   6.642992e+00 8.748067e+00 1.937013e+00
      vertex   6.741031e+00 8.688483e+00 1.874079e+00
      vertex   6.734934e+00 8.680582e+00 1.937013e+00
    endloop
  endfacet
  facet normal -5.925426e-01 -7.901726e-01 -1.565904e-01
    outer loop
      vertex   6.734934e+00 8.680582e+00 1.937013e+00
      vertex   6.741031e+00 8.688483e+00 1.874079e+00
      vertex   6.832371e+00 8.619988e+00 1.874079e+00
    endloop
  endfacet
  facet normal -5.925439e-01 -7.901709e-01 -1.565940e-01
    outer loop
      vertex   6.734934e+00 8.680582e+00 1.937013e+00
      vertex   6.832371e+00 8.619988e+00 1.874079e+00
      vertex   6.826186e+00 8.612153e+00 1.937013e+00
    endloop
  endfacet
  facet normal -6.006173e-01 -7.840456e-01 -1.566248e-01
    outer loop
      vertex   6.826186e+00 8.612153e+00 1.937013e+00
      vertex   6.832371e+00 8.619988e+00 1.874079e+00
      vertex   6.923013e+00 8.550551e+00 1.874079e+00
    endloop
  endfacet
  facet normal -5.807653e-01 -8.085318e-01 -9.480495e-02
    outer loop
      vertex   6.701472e+00 8.825670e+00 1.186025e+00
      vertex   6.608030e+00 8.892789e+00 1.186025e+00
      vertex   6.705025e+00 8.830399e+00 1.123929e+00
    endloop
  endfacet
  facet normal -5.807634e-01 -8.085337e-01 -9.480012e-02
    outer loop
      vertex   6.705025e+00 8.830399e+00 1.123929e+00
      vertex   6.608030e+00 8.892789e+00 1.186025e+00
      vertex   6.611534e+00 8.897553e+00 1.123929e+00
    endloop
  endfacet
  facet normal -5.801709e-01 -8.076954e-01 -1.050227e-01
    outer loop
      vertex   6.693765e+00 8.815423e+00 1.310468e+00
      vertex   6.600431e+00 8.882465e+00 1.310468e+00
      vertex   6.697719e+00 8.820679e+00 1.248206e+00
    endloop
  endfacet
  facet normal -5.801691e-01 -8.076974e-01 -1.050179e-01
    outer loop
      vertex   6.697719e+00 8.820679e+00 1.248206e+00
      vertex   6.600431e+00 8.882465e+00 1.310468e+00
      vertex   6.604330e+00 8.887760e+00 1.248206e+00
    endloop
  endfacet
  facet normal -5.795127e-01 -8.067700e-01 -1.152701e-01
    outer loop
      vertex   6.685252e+00 8.804113e+00 1.435228e+00
      vertex   6.592038e+00 8.871070e+00 1.435228e+00
      vertex   6.689610e+00 8.809901e+00 1.372810e+00
    endloop
  endfacet
  facet normal -5.795109e-01 -8.067720e-01 -1.152654e-01
    outer loop
      vertex   6.689610e+00 8.809901e+00 1.372810e+00
      vertex   6.592038e+00 8.871070e+00 1.435228e+00
      vertex   6.596334e+00 8.876902e+00 1.372810e+00
    endloop
  endfacet
  facet normal -5.787898e-01 -8.057547e-01 -1.255457e-01
    outer loop
      vertex   6.675926e+00 8.791732e+00 1.560284e+00
      vertex   6.582841e+00 8.858596e+00 1.560284e+00
      vertex   6.680691e+00 8.798057e+00 1.497720e+00
    endloop
  endfacet
  facet normal -5.787880e-01 -8.057567e-01 -1.255410e-01
    outer loop
      vertex   6.680691e+00 8.798057e+00 1.497720e+00
      vertex   6.582841e+00 8.858596e+00 1.560284e+00
      vertex   6.587540e+00 8.864969e+00 1.497720e+00
    endloop
  endfacet
  facet normal -5.890197e-01 -8.025360e-01 -9.482531e-02
    outer loop
      vertex   6.794261e+00 8.757568e+00 1.186025e+00
      vertex   6.701472e+00 8.825670e+00 1.186025e+00
      vertex   6.797867e+00 8.762259e+00 1.123929e+00
    endloop
  endfacet
  facet normal -5.890179e-01 -8.025378e-01 -9.482071e-02
    outer loop
      vertex   6.797867e+00 8.762259e+00 1.123929e+00
      vertex   6.701472e+00 8.825670e+00 1.186025e+00
      vertex   6.705025e+00 8.830399e+00 1.123929e+00
    endloop
  endfacet
  facet normal -5.884163e-01 -8.017055e-01 -1.050453e-01
    outer loop
      vertex   6.786442e+00 8.747402e+00 1.310468e+00
      vertex   6.693765e+00 8.815423e+00 1.310468e+00
      vertex   6.790453e+00 8.752616e+00 1.248206e+00
    endloop
  endfacet
  facet normal -5.884146e-01 -8.017074e-01 -1.050407e-01
    outer loop
      vertex   6.790453e+00 8.752616e+00 1.248206e+00
      vertex   6.693765e+00 8.815423e+00 1.310468e+00
      vertex   6.697719e+00 8.820679e+00 1.248206e+00
    endloop
  endfacet
  facet normal -5.877481e-01 -8.007866e-01 -1.152948e-01
    outer loop
      vertex   6.777805e+00 8.736183e+00 1.435228e+00
      vertex   6.685252e+00 8.804113e+00 1.435228e+00
      vertex   6.782226e+00 8.741925e+00 1.372810e+00
    endloop
  endfacet
  facet normal -5.877464e-01 -8.007885e-01 -1.152903e-01
    outer loop
      vertex   6.782226e+00 8.741925e+00 1.372810e+00
      vertex   6.685252e+00 8.804113e+00 1.435228e+00
      vertex   6.689610e+00 8.809901e+00 1.372810e+00
    endloop
  endfacet
  facet normal -5.870144e-01 -7.997785e-01 -1.255726e-01
    outer loop
      vertex   6.768343e+00 8.723901e+00 1.560284e+00
      vertex   6.675926e+00 8.791732e+00 1.560284e+00
      vertex   6.773177e+00 8.730175e+00 1.497720e+00
    endloop
  endfacet
  facet normal -5.870127e-01 -7.997804e-01 -1.255681e-01
    outer loop
      vertex   6.773177e+00 8.730175e+00 1.497720e+00
      vertex   6.675926e+00 8.791732e+00 1.560284e+00
      vertex   6.680691e+00 8.798057e+00 1.497720e+00
    endloop
  endfacet
  facet normal -5.972210e-01 -7.964492e-01 -9.484556e-02
    outer loop
      vertex   6.886384e+00 8.688489e+00 1.186025e+00
      vertex   6.794261e+00 8.757568e+00 1.186025e+00
      vertex   6.890044e+00 8.693139e+00 1.123929e+00
    endloop
  endfacet
  facet normal -5.972196e-01 -7.964508e-01 -9.484175e-02
    outer loop
      vertex   6.890044e+00 8.693139e+00 1.123929e+00
      vertex   6.794261e+00 8.757568e+00 1.186025e+00
      vertex   6.797867e+00 8.762259e+00 1.123929e+00
    endloop
  endfacet
  facet normal -5.966082e-01 -7.956252e-01 -1.050677e-01
    outer loop
      vertex   6.878447e+00 8.678411e+00 1.310468e+00
      vertex   6.786442e+00 8.747402e+00 1.310468e+00
      vertex   6.882519e+00 8.683580e+00 1.248206e+00
    endloop
  endfacet
  facet normal -5.966068e-01 -7.956267e-01 -1.050639e-01
    outer loop
      vertex   6.882519e+00 8.683580e+00 1.248206e+00
      vertex   6.786442e+00 8.747402e+00 1.310468e+00
      vertex   6.790453e+00 8.752616e+00 1.248206e+00
    endloop
  endfacet
  facet normal -5.959296e-01 -7.947133e-01 -1.153195e-01
    outer loop
      vertex   6.869682e+00 8.667287e+00 1.435228e+00
      vertex   6.777805e+00 8.736183e+00 1.435228e+00
      vertex   6.874169e+00 8.672980e+00 1.372810e+00
    endloop
  endfacet
  facet normal -5.959283e-01 -7.947149e-01 -1.153157e-01
    outer loop
      vertex   6.874169e+00 8.672980e+00 1.372810e+00
      vertex   6.777805e+00 8.736183e+00 1.435228e+00
      vertex   6.782226e+00 8.741925e+00 1.372810e+00
    endloop
  endfacet
  facet normal -5.951846e-01 -7.937129e-01 -1.255994e-01
    outer loop
      vertex   6.860081e+00 8.655109e+00 1.560284e+00
      vertex   6.768343e+00 8.723901e+00 1.560284e+00
      vertex   6.864986e+00 8.661330e+00 1.497720e+00
    endloop
  endfacet
  facet normal -5.951832e-01 -7.937145e-01 -1.255957e-01
    outer loop
      vertex   6.864986e+00 8.661330e+00 1.497720e+00
      vertex   6.768343e+00 8.723901e+00 1.560284e+00
      vertex   6.773177e+00 8.730175e+00 1.497720e+00
    endloop
  endfacet
  facet normal -6.053680e-01 -7.902722e-01 -9.486574e-02
    outer loop
      vertex   6.977826e+00 8.618442e+00 1.186025e+00
      vertex   6.886384e+00 8.688489e+00 1.186025e+00
      vertex   6.981542e+00 8.623050e+00 1.123929e+00
    endloop
  endfacet
  facet normal -6.053670e-01 -7.902732e-01 -9.486319e-02
    outer loop
      vertex   6.981542e+00 8.623050e+00 1.123929e+00
      vertex   6.886384e+00 8.688489e+00 1.186025e+00
      vertex   6.890044e+00 8.693139e+00 1.123929e+00
    endloop
  endfacet
  facet normal -6.047454e-01 -7.894549e-01 -1.050901e-01
    outer loop
      vertex   6.969769e+00 8.608456e+00 1.310468e+00
      vertex   6.878447e+00 8.678411e+00 1.310468e+00
      vertex   6.973902e+00 8.613578e+00 1.248206e+00
    endloop
  endfacet
  facet normal -6.047445e-01 -7.894560e-01 -1.050876e-01
    outer loop
      vertex   6.973902e+00 8.613578e+00 1.248206e+00
      vertex   6.878447e+00 8.678411e+00 1.310468e+00
      vertex   6.882519e+00 8.683580e+00 1.248206e+00
    endloop
  endfacet
  facet normal -6.040561e-01 -7.885506e-01 -1.153440e-01
    outer loop
      vertex   6.960872e+00 8.597433e+00 1.435228e+00
      vertex   6.869682e+00 8.667287e+00 1.435228e+00
      vertex   6.965426e+00 8.603074e+00 1.372810e+00
    endloop
  endfacet
  facet normal -6.040552e-01 -7.885516e-01 -1.153415e-01
    outer loop
      vertex   6.965426e+00 8.603074e+00 1.372810e+00
      vertex   6.869682e+00 8.667287e+00 1.435228e+00
      vertex   6.874169e+00 8.672980e+00 1.372810e+00
    endloop
  endfacet
  facet normal -6.032994e-01 -7.875582e-01 -1.256262e-01
    outer loop
      vertex   6.951128e+00 8.585363e+00 1.560284e+00
      vertex   6.860081e+00 8.655109e+00 1.560284e+00
      vertex   6.956107e+00 8.591529e+00 1.497720e+00
    endloop
  endfacet
  facet normal -6.032985e-01 -7.875593e-01 -1.256237e-01
    outer loop
      vertex   6.956107e+00 8.591529e+00 1.497720e+00
      vertex   6.860081e+00 8.655109e+00 1.560284e+00
      vertex   6.864986e+00 8.661330e+00 1.497720e+00
    endloop
  endfacet
  facet normal 6.058211e-01 7.794897e-01 1.593006e-01
    outer loop
      vertex   6.973832e+00 9.000000e+00 2.000000e+00
      vertex   7.000000e+00 8.979662e+00 2.000000e+00
      vertex   7.000000e+00 9.000000e+00 1.900483e+00
    endloop
  endfacet
  facet normal 0.000000e+00 0.000000e+00 -1.000000e+00
    outer loop
      vertex   7.000000e+00 8.622471e+00 1.000000e+00
      vertex   6.936682e+00 8.671265e+00 1.000000e+00
      vertex   7.000000e+00 9.000000e+00 1.000000e+00
    endloop
  endfacet
  facet normal 3.042941e-15 -5.860998e-16 -1.000000e+00
    outer loop
      vertex   7.000000e+00 9.000000e+00 1.000000e+00
      vertex   6.936682e+00 8.671265e+00 1.000000e+00
      vertex   6.873023e+00 8.719604e+00 1.000000e+00
    endloop
  endfacet
  facet normal 4.425377e-16 5.914923e-16 -1.000000e+00
    outer loop
      vertex   7.000000e+00 9.000000e+00 1.000000e+00
      vertex   6.873023e+00 8.719604e+00 1.000000e+00
      vertex   6.809023e+00 8.767486e+00 1.000000e+00
    endloop
  endfacet
  facet normal -1.711266e-15 2.360535e-15 -1.000000e+00
    outer loop
      vertex   6.809023e+00 8.767486e+00 1.000000e+00
      vertex   6.744687e+00 8.814911e+00 1.000000e+00
      vertex   7.000000e+00 9.000000e+00 1.000000e+00
    endloop
  endfacet
  facet normal 0.000000e+00 0.000000e+00 -1.000000e+00
    outer loop
      vertex   7.000000e+00 9.000000e+00 1.000000e+00
      vertex   6.744687e+00 8.814911e+00 1.000000e+00
      vertex   6.680016e+00 8.861876e+00 1.000000e+00
    endloop
  endfacet
  facet normal 0.000000e+00 0.000000e+00 -1.000000e+00
    outer loop
      vertex   7.000000e+00 9.000000e+00 1.000000e+00
      vertex   6.680016e+00 8.861876e+00 1.000000e+00
      vertex   6.615013e+00 8.908381e+00 1.000000e+00
    endloop
  endfacet
  facet normal 0.000000e+00 0.000000e+00 -1.000000e+00
    outer loop
      vertex   6.615013e+00 8.908381e+00 1.000000e+00
      vertex   6.549682e+00 8.954422e+00 1.000000e+00
      vertex   7.000000e+00 9.000000e+00 1.000000e+00
    endloop
  endfacet
  facet normal -0.000000e+00 0.000000e+00 -1.000000e+00
    outer loop
      vertex   7.000000e+00 9.000000e+00 1.000000e+00
      vertex   6.549682e+00 8.954422e+00 1.000000e+00
      vertex   6.484024e+00 9.000000e+00 1.000000e+00
    endloop
  endfacet
  facet normal 1.000000e+00 -0.000000e+00 0.000000e+00
    outer loop
      vertex   7.000000e+00 8.464518e+00 2.000000e+00
      vertex   7.000000e+00 8.490025e+00 1.875979e+00
      vertex   7.000000e+00 8.979662e+00 2.000000e+00
    endloop
  endfacet
  facet normal 1.000000e+00 0.000000e+00 0.000000e+00
    outer loop
      vertex   7.000000e+00 8.979662e+00 2.000000e+00
      vertex   7.000000e+00 8.490025e+00 1.875979e+00
      vertex   7.000000e+00 8.513890e+00 1.751641e+00
    endloop
  endfacet
  facet normal 1.000000e+00 0.000000e+00 0.000000e+00
    outer loop
      vertex   7.000000e+00 8.979662e+00 2.000000e+00
      vertex   7.000000e+00 8.513890e+00 1.751641e+00
      vertex   7.000000e+00 8.536109e+00 1.627006e+00
    endloop
  endfacet
  facet normal 1.000000e+00 0.000000e+00 0.000000e+00
    outer loop
      vertex   7.000000e+00 8.979662e+00 2.000000e+00
      vertex   7.000000e+00 8.536109e+00 1.627006e+00
      vertex   7.000000e+00 9.000000e+00 1.900483e+00
    endloop
  endfacet
  facet normal 1.000000e+00 3.820747e-15 -6.481017e-15
    outer loop
      vertex   7.000000e+00 9.000000e+00 1.900483e+00
      vertex   7.000000e+00 8.536109e+00 1.627006e+00
      vertex   7.000000e+00 8.556682e+00 1.502091e+00
    endloop
  endfacet
  facet normal 1.000000e+00 -1.299121e-14 1.222681e-14
    outer loop
      vertex   7.000000e+00 9.000000e+00 1.900483e+00
      vertex   7.000000e+00 8.556682e+00 1.502091e+00
      vertex   7.000000e+00 8.575606e+00 1.376915e+00
    endloop
  endfacet
  facet normal 1.000000e+00 2.092816e-15 0.000000e+00
    outer loop
      vertex   7.000000e+00 9.000000e+00 1.900483e+00
      vertex   7.000000e+00 8.575606e+00 1.376915e+00
      vertex   7.000000e+00 9.000000e+00 1.000000e+00
    endloop
  endfacet
  facet normal 1.000000e+00 -4.781475e-15 -7.740227e-15
    outer loop
      vertex   7.000000e+00 9.000000e+00 1.000000e+00
      vertex   7.000000e+00 8.575606e+00 1.376915e+00
      vertex   7.000000e+00 8.592880e+00 1.251496e+00
    endloop
  endfacet
  facet normal 1.000000e+00 0.000000e+00 0.000000e+00
    outer loop
      vertex   7.000000e+00 9.000000e+00 1.000000e+00
      vertex   7.000000e+00 8.592880e+00 1.251496e+00
      vertex   7.000000e+00 8.608503e+00 1.125851e+00
    endloop
  endfacet
  facet normal 1.000000e+00 0.000000e+00 0.000000e+00
    outer loop
      vertex   7.000000e+00 8.608503e+00 1.125851e+00
      vertex   7.000000e+00 8.622471e+00 1.000000e+00
      vertex   7.000000e+00 9.000000e+00 1.000000e+00
    endloop
  endfacet
  facet normal -0.000000e+00 0.000000e+00 1.000000e+00
    outer loop
      vertex   6.262596e+00 9.000000e+00 2.000000e+00
      vertex   6.357139e+00 8.936392e+00 2.000000e+00
      vertex   6.973832e+00 9.000000e+00 2.000000e+00
    endloop
  endfacet
  facet normal 0.000000e+00 0.000000e+00 1.000000e+00
    outer loop
      vertex   6.973832e+00 9.000000e+00 2.000000e+00
      vertex   6.357139e+00 8.936392e+00 2.000000e+00
      vertex   6.451021e+00 8.871824e+00 2.000000e+00
    endloop
  endfacet
  facet normal 0.000000e+00 0.000000e+00 1.000000e+00
    outer loop
      vertex   6.973832e+00 9.000000e+00 2.000000e+00
      vertex   6.451021e+00 8.871824e+00 2.000000e+00
      vertex   6.544235e+00 8.806301e+00 2.000000e+00
    endloop
  endfacet
  facet normal -0.000000e+00 0.000000e+00 1.000000e+00
    outer loop
      vertex   6.544235e+00 8.806301e+00 2.000000e+00
      vertex   6.636772e+00 8.739827e+00 2.000000e+00
      vertex   6.973832e+00 9.000000e+00 2.000000e+00
    endloop
  endfacet
  facet normal 0.000000e+00 0.000000e+00 1.000000e+00
    outer loop
      vertex   6.973832e+00 9.000000e+00 2.000000e+00
      vertex   6.636772e+00 8.739827e+00 2.000000e+00
      vertex   7.000000e+00 8.979662e+00 2.000000e+00
    endloop
  endfacet
  facet normal 0.000000e+00 0.000000e+00 1.000000e+00
    outer loop
      vertex   7.000000e+00 8.979662e+00 2.000000e+00
      vertex   6.636772e+00 8.739827e+00 2.000000e+00
      vertex   6.728625e+00 8.672407e+00 2.000000e+00
    endloop
  endfacet
  facet normal 0.000000e+00 0.000000e+00 1.000000e+00
    outer loop
      vertex   7.000000e+00 8.979662e+00 2.000000e+00
      vertex   6.728625e+00 8.672407e+00 2.000000e+00
      vertex   6.819786e+00 8.604046e+00 2.000000e+00
    endloop
  endfacet
  facet normal -0.000000e+00 0.000000e+00 1.000000e+00
    outer loop
      vertex   6.819786e+00 8.604046e+00 2.000000e+00
      vertex   6.910247e+00 8.534748e+00 2.000000e+00
      vertex   7.000000e+00 8.979662e+00 2.000000e+00
    endloop
  endfacet
  facet normal 0.000000e+00 0.000000e+00 1.000000e+00
    outer loop
      vertex   7.000000e+00 8.979662e+00 2.000000e+00
      vertex   6.910247e+00 8.534748e+00 2.000000e+00
      vertex   7.000000e+00 8.464518e+00 2.000000e+00
    endloop
  endfacet
  facet normal 0.000000e+00 1.000000e+00 -0.000000e+00
    outer loop
      vertex   6.484024e+00 9.000000e+00 1.000000e+00
      vertex   6.474528e+00 9.000000e+00 1.063389e+00
      vertex   7.000000e+00 9.000000e+00 1.000000e+00
    endloop
  endfacet
  facet normal 0.000000e+00 1.000000e+00 0.000000e+00
    outer loop
      vertex   7.000000e+00 9.000000e+00 1.000000e+00
      vertex   6.474528e+00 9.000000e+00 1.063389e+00
      vertex   6.464449e+00 9.000000e+00 1.126679e+00
    endloop
  endfacet
  facet normal 0.000000e+00 1.000000e+00 0.000000e+00
    outer loop
      vertex   7.000000e+00 9.000000e+00 1.000000e+00
      vertex   6.464449e+00 9.000000e+00 1.126679e+00
      vertex   6.453789e+00 9.000000e+00 1.189867e+00
    endloop
  endfacet
  facet normal -0.000000e+00 1.000000e+00 -0.000000e+00
    outer loop
      vertex   6.453789e+00 9.000000e+00 1.189867e+00
      vertex   6.442547e+00 9.000000e+00 1.252947e+00
      vertex   7.000000e+00 9.000000e+00 1.000000e+00
    endloop
  endfacet
  facet normal 0.000000e+00 1.000000e+00 0.000000e+00
    outer loop
      vertex   7.000000e+00 9.000000e+00 1.000000e+00
      vertex   6.442547e+00 9.000000e+00 1.252947e+00
      vertex   6.430725e+00 9.000000e+00 1.315917e+00
    endloop
  endfacet
  facet normal 0.000000e+00 1.000000e+00 -0.000000e+00
    outer loop
      vertex   7.000000e+00 9.000000e+00 1.000000e+00
      vertex   6.430725e+00 9.000000e+00 1.315917e+00
      vertex   7.000000e+00 9.000000e+00 1.900483e+00
    endloop
  endfacet
  facet normal 0.000000e+00 1.000000e+00 0.000000e+00
    outer loop
      vertex   7.000000e+00 9.000000e+00 1.900483e+00
      vertex   6.430725e+00 9.000000e+00 1.315917e+00
      vertex   6.418324e+00 9.000000e+00 1.378770e+00
    endloop
  endfacet
  facet normal 0.000000e+00 1.000000e+00 0.000000e+00
    outer loop
      vertex   7.000000e+00 9.000000e+00 1.900483e+00
      vertex   6.418324e+00 9.000000e+00 1.378770e+00
      vertex   6.405344e+00 9.000000e+00 1.441503e+00
    endloop
  endfacet
  facet normal 0.000000e+00 1.000000e+00 -0.000000e+00
    outer loop
      vertex   6.405344e+00 9.000000e+00 1.441503e+00
      vertex   6.391785e+00 9.000000e+00 1.504113e+00
      vertex   7.000000e+00 9.000000e+00 1.900483e+00
    endloop
  endfacet
  facet normal 0.000000e+00 1.000000e+00 0.000000e+00
    outer loop
      vertex   7.000000e+00 9.000000e+00 1.900483e+00
      vertex   6.391785e+00 9.000000e+00 1.504113e+00
      vertex   6.377650e+00 9.000000e+00 1.566593e+00
    endloop
  endfacet
  facet normal 0.000000e+00 1.000000e+00 0.000000e+00
    outer loop
      vertex   7.000000e+00 9.000000e+00 1.900483e+00
      vertex   6.377650e+00 9.000000e+00 1.566593e+00
      vertex   6.362937e+00 9.000000e+00 1.628941e+00
    endloop
  endfacet
  facet normal 0.000000e+00 1.000000e+00 0.000000e+00
    outer loop
      vertex   7.000000e+00 9.000000e+00 1.900483e+00
      vertex   6.362937e+00 9.000000e+00 1.628941e+00
      vertex   6.973832e+00 9.000000e+00 2.000000e+00
    endloop
  endfacet
  facet normal 0.000000e+00 1.000000e+00 0.000000e+00
    outer loop
      vertex   6.973832e+00 9.000000e+00 2.000000e+00
      vertex   6.362937e+00 9.000000e+00 1.628941e+00
      vertex   6.347649e+00 9.000000e+00 1.691152e+00
    endloop
  endfacet
  facet normal 0.000000e+00 1.000000e+00 0.000000e+00
    outer loop
      vertex   6.973832e+00 9.000000e+00 2.000000e+00
      vertex   6.347649e+00 9.000000e+00 1.691152e+00
      vertex   6.331786e+00 9.000000e+00 1.753221e+00
    endloop
  endfacet
  facet normal 0.000000e+00 1.000000e+00 -0.000000e+00
    outer loop
      vertex   6.331786e+00 9.000000e+00 1.753221e+00
      vertex   6.315348e+00 9.000000e+00 1.815145e+00
      vertex   6.973832e+00 9.000000e+00 2.000000e+00
    endloop
  endfacet
  facet normal 0.000000e+00 1.000000e+00 0.000000e+00
    outer loop
      vertex   6.973832e+00 9.000000e+00 2.000000e+00
      vertex   6.315348e+00 9.000000e+00 1.815145e+00
      vertex   6.298337e+00 9.000000e+00 1.876919e+00
    endloop
  endfacet
  facet normal 0.000000e+00 1.000000e+00 0.000000e+00
    outer loop
      vertex   6.973832e+00 9.000000e+00 2.000000e+00
      vertex   6.298337e+00 9.000000e+00 1.876919e+00
      vertex   6.280753e+00 9.000000e+00 1.938539e+00
    endloop
  endfacet
  facet normal 0.000000e+00 1.000000e+00 -0.000000e+00
    outer loop
      vertex   6.280753e+00 9.000000e+00 1.938539e+00
      vertex   6.262596e+00 9.000000e+00 2.000000e+00
      vertex   6.973832e+00 9.000000e+00 2.000000e+00
    endloop
  endfacet
endsolid
