solid ASCII
  facet normal -2.602559e-01 7.027936e-01 6.620785e-01
    outer loop
      vertex   -3.000000e+00 8.006987e+00 8.000000e+00
      vertex   -3.000000e+00 8.000000e+00 8.007417e+00
      vertex   -2.938649e+00 8.029707e+00 8.000000e+00
    endloop
  endfacet
  facet normal -2.602441e-01 7.027752e-01 6.621027e-01
    outer loop
      vertex   -2.938649e+00 8.029707e+00 8.000000e+00
      vertex   -3.000000e+00 8.000000e+00 8.007417e+00
      vertex   -2.938812e+00 8.000000e+00 8.031467e+00
    endloop
  endfacet
  facet normal -2.551336e-01 7.037530e-01 6.630524e-01
    outer loop
      vertex   -2.938649e+00 8.029707e+00 8.000000e+00
      vertex   -2.938812e+00 8.000000e+00 8.031467e+00
      vertex   -2.875741e+00 8.012778e+00 8.042174e+00
    endloop
  endfacet
  facet normal -2.551013e-01 7.022441e-01 6.646628e-01
    outer loop
      vertex   -2.875741e+00 8.012778e+00 8.042174e+00
      vertex   -2.938812e+00 8.000000e+00 8.031467e+00
      vertex   -2.877432e+00 8.000000e+00 8.055025e+00
    endloop
  endfacet
  facet normal -2.494701e-01 7.029240e-01 6.660800e-01
    outer loop
      vertex   -2.875741e+00 8.012778e+00 8.042174e+00
      vertex   -2.877432e+00 8.000000e+00 8.055025e+00
      vertex   -2.818937e+00 8.032938e+00 8.042174e+00
    endloop
  endfacet
  facet normal -2.495001e-01 7.029587e-01 6.660321e-01
    outer loop
      vertex   -2.818937e+00 8.032938e+00 8.042174e+00
      vertex   -2.877432e+00 8.000000e+00 8.055025e+00
      vertex   -2.815863e+00 8.000000e+00 8.078089e+00
    endloop
  endfacet
  facet normal -2.444319e-01 7.041306e-01 6.666732e-01
    outer loop
      vertex   -2.818937e+00 8.032938e+00 8.042174e+00
      vertex   -2.815863e+00 8.000000e+00 8.078089e+00
      vertex   -2.749899e+00 8.017144e+00 8.084167e+00
    endloop
  endfacet
  facet normal -2.442111e-01 7.027280e-01 6.682322e-01
    outer loop
      vertex   -2.749899e+00 8.017144e+00 8.084167e+00
      vertex   -2.815863e+00 8.000000e+00 8.078089e+00
      vertex   -2.754107e+00 8.000000e+00 8.100659e+00
    endloop
  endfacet
  facet normal -2.387315e-01 7.030053e-01 6.699185e-01
    outer loop
      vertex   -2.749899e+00 8.017144e+00 8.084167e+00
      vertex   -2.754107e+00 8.000000e+00 8.100659e+00
      vertex   -2.692167e+00 8.000000e+00 8.122731e+00
    endloop
  endfacet
  facet normal -2.416332e-01 6.764379e-01 6.957336e-01
    outer loop
      vertex   -2.630045e+00 8.000000e+00 8.144307e+00
      vertex   -2.681256e+00 8.000558e+00 8.125978e+00
      vertex   -2.692167e+00 8.000000e+00 8.122731e+00
    endloop
  endfacet
  facet normal -2.354220e-01 7.039112e-01 6.701384e-01
    outer loop
      vertex   -2.692167e+00 8.000000e+00 8.122731e+00
      vertex   -2.681256e+00 8.000558e+00 8.125978e+00
      vertex   -2.693252e+00 8.036351e+00 8.084167e+00
    endloop
  endfacet
  facet normal -2.384723e-01 7.033268e-01 6.696733e-01
    outer loop
      vertex   -2.692167e+00 8.000000e+00 8.122731e+00
      vertex   -2.693252e+00 8.036351e+00 8.084167e+00
      vertex   -2.749899e+00 8.017144e+00 8.084167e+00
    endloop
  endfacet
  facet normal -2.393652e-01 7.059602e-01 6.665767e-01
    outer loop
      vertex   -2.749899e+00 8.017144e+00 8.084167e+00
      vertex   -2.693252e+00 8.036351e+00 8.084167e+00
      vertex   -2.705184e+00 8.071956e+00 8.042174e+00
    endloop
  endfacet
  facet normal -2.393652e-01 7.059602e-01 6.665767e-01
    outer loop
      vertex   -2.749899e+00 8.017144e+00 8.084167e+00
      vertex   -2.705184e+00 8.071956e+00 8.042174e+00
      vertex   -2.762083e+00 8.052664e+00 8.042174e+00
    endloop
  endfacet
  facet normal -2.402475e-01 7.085624e-01 6.634911e-01
    outer loop
      vertex   -2.762083e+00 8.052664e+00 8.042174e+00
      vertex   -2.705184e+00 8.071956e+00 8.042174e+00
      vertex   -2.753609e+00 8.095028e+00 8.000000e+00
    endloop
  endfacet
  facet normal -2.439514e-01 7.082690e-01 6.624521e-01
    outer loop
      vertex   -2.762083e+00 8.052664e+00 8.042174e+00
      vertex   -2.753609e+00 8.095028e+00 8.000000e+00
      vertex   -2.815451e+00 8.073728e+00 8.000000e+00
    endloop
  endfacet
  facet normal -2.328471e-01 7.029987e-01 6.719934e-01
    outer loop
      vertex   -2.681256e+00 8.000558e+00 8.125978e+00
      vertex   -2.630045e+00 8.000000e+00 8.144307e+00
      vertex   -2.624821e+00 8.019251e+00 8.125978e+00
    endloop
  endfacet
  facet normal -2.278648e-01 7.031350e-01 6.735568e-01
    outer loop
      vertex   -2.624821e+00 8.019251e+00 8.125978e+00
      vertex   -2.630045e+00 8.000000e+00 8.144307e+00
      vertex   -2.567746e+00 8.000000e+00 8.165383e+00
    endloop
  endfacet
  facet normal -2.275359e-01 7.035183e-01 6.732677e-01
    outer loop
      vertex   -2.624821e+00 8.019251e+00 8.125978e+00
      vertex   -2.567746e+00 8.000000e+00 8.165383e+00
      vertex   -2.568351e+00 8.037515e+00 8.125978e+00
    endloop
  endfacet
  facet normal -2.247989e-01 7.039996e-01 6.736839e-01
    outer loop
      vertex   -2.568351e+00 8.037515e+00 8.125978e+00
      vertex   -2.567746e+00 8.000000e+00 8.165383e+00
      vertex   -2.556800e+00 8.001368e+00 8.167605e+00
    endloop
  endfacet
  facet normal -2.224726e-01 7.047403e-01 6.736817e-01
    outer loop
      vertex   -2.568351e+00 8.037515e+00 8.125978e+00
      vertex   -2.556800e+00 8.001368e+00 8.167605e+00
      vertex   -2.511850e+00 8.055351e+00 8.125978e+00
    endloop
  endfacet
  facet normal -2.224726e-01 7.047403e-01 6.736817e-01
    outer loop
      vertex   -2.511850e+00 8.055351e+00 8.125978e+00
      vertex   -2.556800e+00 8.001368e+00 8.167605e+00
      vertex   -2.500554e+00 8.019124e+00 8.167605e+00
    endloop
  endfacet
  facet normal -2.175229e-01 7.062838e-01 6.736817e-01
    outer loop
      vertex   -2.511850e+00 8.055351e+00 8.125978e+00
      vertex   -2.500554e+00 8.019124e+00 8.167605e+00
      vertex   -2.455323e+00 8.072760e+00 8.125978e+00
    endloop
  endfacet
  facet normal -2.175229e-01 7.062838e-01 6.736817e-01
    outer loop
      vertex   -2.455323e+00 8.072760e+00 8.125978e+00
      vertex   -2.500554e+00 8.019124e+00 8.167605e+00
      vertex   -2.444281e+00 8.036455e+00 8.167605e+00
    endloop
  endfacet
  facet normal -2.125711e-01 7.077899e-01 6.736817e-01
    outer loop
      vertex   -2.455323e+00 8.072760e+00 8.125978e+00
      vertex   -2.444281e+00 8.036455e+00 8.167605e+00
      vertex   -2.398775e+00 8.089743e+00 8.125978e+00
    endloop
  endfacet
  facet normal -2.125711e-01 7.077899e-01 6.736817e-01
    outer loop
      vertex   -2.398775e+00 8.089743e+00 8.125978e+00
      vertex   -2.444281e+00 8.036455e+00 8.167605e+00
      vertex   -2.387987e+00 8.053362e+00 8.167605e+00
    endloop
  endfacet
  facet normal -2.076176e-01 7.092587e-01 6.736817e-01
    outer loop
      vertex   -2.398775e+00 8.089743e+00 8.125978e+00
      vertex   -2.387987e+00 8.053362e+00 8.167605e+00
      vertex   -2.342210e+00 8.106301e+00 8.125978e+00
    endloop
  endfacet
  facet normal -2.076176e-01 7.092587e-01 6.736817e-01
    outer loop
      vertex   -2.342210e+00 8.106301e+00 8.125978e+00
      vertex   -2.387987e+00 8.053362e+00 8.167605e+00
      vertex   -2.331676e+00 8.069845e+00 8.167605e+00
    endloop
  endfacet
  facet normal -2.026700e-01 7.106883e-01 6.736817e-01
    outer loop
      vertex   -2.342210e+00 8.106301e+00 8.125978e+00
      vertex   -2.331676e+00 8.069845e+00 8.167605e+00
      vertex   -2.285794e+00 8.122389e+00 8.125978e+00
    endloop
  endfacet
  facet normal -2.026674e-01 7.106874e-01 6.736834e-01
    outer loop
      vertex   -2.285794e+00 8.122389e+00 8.125978e+00
      vertex   -2.331676e+00 8.069845e+00 8.167605e+00
      vertex   -2.275466e+00 8.085875e+00 8.167605e+00
    endloop
  endfacet
  facet normal -1.977148e-01 7.120844e-01 6.736800e-01
    outer loop
      vertex   -2.285794e+00 8.122389e+00 8.125978e+00
      vertex   -2.275466e+00 8.085875e+00 8.167605e+00
      vertex   -2.229047e+00 8.138146e+00 8.125978e+00
    endloop
  endfacet
  facet normal -1.977122e-01 7.120835e-01 6.736817e-01
    outer loop
      vertex   -2.229047e+00 8.138146e+00 8.125978e+00
      vertex   -2.275466e+00 8.085875e+00 8.167605e+00
      vertex   -2.219022e+00 8.101547e+00 8.167605e+00
    endloop
  endfacet
  facet normal -1.927511e-01 7.134423e-01 6.736817e-01
    outer loop
      vertex   -2.229047e+00 8.138146e+00 8.125978e+00
      vertex   -2.219022e+00 8.101547e+00 8.167605e+00
      vertex   -2.172458e+00 8.153434e+00 8.125978e+00
    endloop
  endfacet
  facet normal -1.927511e-01 7.134423e-01 6.736817e-01
    outer loop
      vertex   -2.172458e+00 8.153434e+00 8.125978e+00
      vertex   -2.219022e+00 8.101547e+00 8.167605e+00
      vertex   -2.162688e+00 8.116767e+00 8.167605e+00
    endloop
  endfacet
  facet normal -1.877948e-01 7.147629e-01 6.736817e-01
    outer loop
      vertex   -2.172458e+00 8.153434e+00 8.125978e+00
      vertex   -2.162688e+00 8.116767e+00 8.167605e+00
      vertex   -2.115870e+00 8.168302e+00 8.125978e+00
    endloop
  endfacet
  facet normal -1.877948e-01 7.147629e-01 6.736817e-01
    outer loop
      vertex   -2.115870e+00 8.168302e+00 8.125978e+00
      vertex   -2.162688e+00 8.116767e+00 8.167605e+00
      vertex   -2.106354e+00 8.131568e+00 8.167605e+00
    endloop
  endfacet
  facet normal -1.828388e-01 7.160467e-01 6.736817e-01
    outer loop
      vertex   -2.115870e+00 8.168302e+00 8.125978e+00
      vertex   -2.106354e+00 8.131568e+00 8.167605e+00
      vertex   -2.059287e+00 8.182750e+00 8.125978e+00
    endloop
  endfacet
  facet normal -1.828388e-01 7.160467e-01 6.736817e-01
    outer loop
      vertex   -2.059287e+00 8.182750e+00 8.125978e+00
      vertex   -2.106354e+00 8.131568e+00 8.167605e+00
      vertex   -2.050026e+00 8.145951e+00 8.167605e+00
    endloop
  endfacet
  facet normal -1.781566e-01 7.172256e-01 6.736822e-01
    outer loop
      vertex   -2.059287e+00 8.182750e+00 8.125978e+00
      vertex   -2.050026e+00 8.145951e+00 8.167605e+00
      vertex   -2.000000e+00 8.158315e+00 8.167671e+00
    endloop
  endfacet
  facet normal -1.773849e-01 7.140844e-01 6.772135e-01
    outer loop
      vertex   -2.000000e+00 8.158315e+00 8.167671e+00
      vertex   -2.050026e+00 8.145951e+00 8.167605e+00
      vertex   -2.040717e+00 8.108961e+00 8.209047e+00
    endloop
  endfacet
  facet normal -1.741344e-01 7.130348e-01 6.791602e-01
    outer loop
      vertex   -2.000000e+00 8.158315e+00 8.167671e+00
      vertex   -2.040717e+00 8.108961e+00 8.209047e+00
      vertex   -2.000000e+00 8.079565e+00 8.250350e+00
    endloop
  endfacet
  facet normal -1.773925e-01 7.107296e-01 6.807315e-01
    outer loop
      vertex   -2.000000e+00 8.079565e+00 8.250350e+00
      vertex   -2.040717e+00 8.108961e+00 8.209047e+00
      vertex   -2.031361e+00 8.071782e+00 8.250303e+00
    endloop
  endfacet
  facet normal -1.766097e-01 7.075541e-01 6.842341e-01
    outer loop
      vertex   -2.000000e+00 8.079565e+00 8.250350e+00
      vertex   -2.031361e+00 8.071782e+00 8.250303e+00
      vertex   -2.021957e+00 8.034416e+00 8.291370e+00
    endloop
  endfacet
  facet normal -1.804247e-01 7.065923e-01 6.842326e-01
    outer loop
      vertex   -2.021957e+00 8.034416e+00 8.291370e+00
      vertex   -2.031361e+00 8.071782e+00 8.250303e+00
      vertex   -2.077514e+00 8.020230e+00 8.291370e+00
    endloop
  endfacet
  facet normal -1.798667e-01 7.044069e-01 6.866286e-01
    outer loop
      vertex   -2.021957e+00 8.034416e+00 8.291370e+00
      vertex   -2.077514e+00 8.020230e+00 8.291370e+00
      vertex   -2.063648e+00 8.000000e+00 8.315755e+00
    endloop
  endfacet
  facet normal -1.840696e-01 7.025170e-01 6.874505e-01
    outer loop
      vertex   -2.063648e+00 8.000000e+00 8.315755e+00
      vertex   -2.077514e+00 8.020230e+00 8.291370e+00
      vertex   -2.127163e+00 8.000000e+00 8.298749e+00
    endloop
  endfacet
  facet normal -1.849939e-01 7.041023e-01 6.855780e-01
    outer loop
      vertex   -2.127163e+00 8.000000e+00 8.298749e+00
      vertex   -2.077514e+00 8.020230e+00 8.291370e+00
      vertex   -2.133076e+00 8.005631e+00 8.291370e+00
    endloop
  endfacet
  facet normal -1.899935e-01 7.010956e-01 6.872899e-01
    outer loop
      vertex   -2.127163e+00 8.000000e+00 8.298749e+00
      vertex   -2.133076e+00 8.005631e+00 8.291370e+00
      vertex   -2.190541e+00 8.000000e+00 8.281229e+00
    endloop
  endfacet
  facet normal -1.897528e-01 7.041439e-01 6.842333e-01
    outer loop
      vertex   -2.190541e+00 8.000000e+00 8.281229e+00
      vertex   -2.133076e+00 8.005631e+00 8.291370e+00
      vertex   -2.142997e+00 8.042864e+00 8.250303e+00
    endloop
  endfacet
  facet normal -1.903186e-01 7.044389e-01 6.837723e-01
    outer loop
      vertex   -2.190541e+00 8.000000e+00 8.281229e+00
      vertex   -2.142997e+00 8.042864e+00 8.250303e+00
      vertex   -2.198818e+00 8.027783e+00 8.250303e+00
    endloop
  endfacet
  facet normal -1.910591e-01 7.071797e-01 6.807300e-01
    outer loop
      vertex   -2.198818e+00 8.027783e+00 8.250303e+00
      vertex   -2.142997e+00 8.042864e+00 8.250303e+00
      vertex   -2.152867e+00 8.079909e+00 8.209047e+00
    endloop
  endfacet
  facet normal -1.910591e-01 7.071797e-01 6.807300e-01
    outer loop
      vertex   -2.198818e+00 8.027783e+00 8.250303e+00
      vertex   -2.152867e+00 8.079909e+00 8.209047e+00
      vertex   -2.208946e+00 8.064759e+00 8.209047e+00
    endloop
  endfacet
  facet normal -1.919074e-01 7.103197e-01 6.772130e-01
    outer loop
      vertex   -2.208946e+00 8.064759e+00 8.209047e+00
      vertex   -2.152867e+00 8.079909e+00 8.209047e+00
      vertex   -2.162688e+00 8.116767e+00 8.167605e+00
    endloop
  endfacet
  facet normal -1.919074e-01 7.103197e-01 6.772130e-01
    outer loop
      vertex   -2.208946e+00 8.064759e+00 8.209047e+00
      vertex   -2.162688e+00 8.116767e+00 8.167605e+00
      vertex   -2.219022e+00 8.101547e+00 8.167605e+00
    endloop
  endfacet
  facet normal -2.257118e-01 6.923522e-01 6.853486e-01
    outer loop
      vertex   -2.567746e+00 8.000000e+00 8.165383e+00
      vertex   -2.505270e+00 8.000000e+00 8.185958e+00
      vertex   -2.556800e+00 8.001368e+00 8.167605e+00
    endloop
  endfacet
  facet normal -2.219492e-01 7.030822e-01 6.755842e-01
    outer loop
      vertex   -2.556800e+00 8.001368e+00 8.167605e+00
      vertex   -2.505270e+00 8.000000e+00 8.185958e+00
      vertex   -2.500554e+00 8.019124e+00 8.167605e+00
    endloop
  endfacet
  facet normal -2.169371e-01 7.032447e-01 6.770415e-01
    outer loop
      vertex   -2.505270e+00 8.000000e+00 8.185958e+00
      vertex   -2.442623e+00 8.000000e+00 8.206032e+00
      vertex   -2.500554e+00 8.019124e+00 8.167605e+00
    endloop
  endfacet
  facet normal -2.166808e-01 7.035495e-01 6.768068e-01
    outer loop
      vertex   -2.500554e+00 8.019124e+00 8.167605e+00
      vertex   -2.442623e+00 8.000000e+00 8.206032e+00
      vertex   -2.444281e+00 8.036455e+00 8.167605e+00
    endloop
  endfacet
  facet normal -2.118517e-01 7.044228e-01 6.774270e-01
    outer loop
      vertex   -2.444281e+00 8.036455e+00 8.167605e+00
      vertex   -2.442623e+00 8.000000e+00 8.206032e+00
      vertex   -2.377143e+00 8.016793e+00 8.209047e+00
    endloop
  endfacet
  facet normal -2.115501e-01 7.029570e-01 6.790419e-01
    outer loop
      vertex   -2.377143e+00 8.016793e+00 8.209047e+00
      vertex   -2.442623e+00 8.000000e+00 8.206032e+00
      vertex   -2.379823e+00 8.000000e+00 8.225597e+00
    endloop
  endfacet
  facet normal -2.058904e-01 7.033580e-01 6.803651e-01
    outer loop
      vertex   -2.377143e+00 8.016793e+00 8.209047e+00
      vertex   -2.379823e+00 8.000000e+00 8.225597e+00
      vertex   -2.321088e+00 8.033201e+00 8.209047e+00
    endloop
  endfacet
  facet normal -2.059330e-01 7.034036e-01 6.803051e-01
    outer loop
      vertex   -2.321088e+00 8.033201e+00 8.209047e+00
      vertex   -2.379823e+00 8.000000e+00 8.225597e+00
      vertex   -2.316873e+00 8.000000e+00 8.244652e+00
    endloop
  endfacet
  facet normal -2.008622e-01 7.044793e-01 6.807079e-01
    outer loop
      vertex   -2.321088e+00 8.033201e+00 8.209047e+00
      vertex   -2.316873e+00 8.000000e+00 8.244652e+00
      vertex   -2.254652e+00 8.012280e+00 8.250303e+00
    endloop
  endfacet
  facet normal -2.006681e-01 7.025572e-01 6.827486e-01
    outer loop
      vertex   -2.254652e+00 8.012280e+00 8.250303e+00
      vertex   -2.316873e+00 8.000000e+00 8.244652e+00
      vertex   -2.253778e+00 8.000000e+00 8.263196e+00
    endloop
  endfacet
  facet normal -1.953302e-01 7.035206e-01 6.833044e-01
    outer loop
      vertex   -2.254652e+00 8.012280e+00 8.250303e+00
      vertex   -2.253778e+00 8.000000e+00 8.263196e+00
      vertex   -2.198818e+00 8.027783e+00 8.250303e+00
    endloop
  endfacet
  facet normal -1.949977e-01 7.031053e-01 6.838266e-01
    outer loop
      vertex   -2.198818e+00 8.027783e+00 8.250303e+00
      vertex   -2.253778e+00 8.000000e+00 8.263196e+00
      vertex   -2.190541e+00 8.000000e+00 8.281229e+00
    endloop
  endfacet
  facet normal -1.782718e-01 7.034579e-01 6.880161e-01
    outer loop
      vertex   -2.063648e+00 8.000000e+00 8.315755e+00
      vertex   -2.000000e+00 8.000000e+00 8.332247e+00
      vertex   -2.021957e+00 8.034416e+00 8.291370e+00
    endloop
  endfacet
  facet normal -1.705049e-01 7.067466e-01 6.866130e-01
    outer loop
      vertex   -2.021957e+00 8.034416e+00 8.291370e+00
      vertex   -2.000000e+00 8.000000e+00 8.332247e+00
      vertex   -2.000000e+00 8.079565e+00 8.250350e+00
    endloop
  endfacet
  facet normal -1.759579e-01 7.194660e-01 6.718687e-01
    outer loop
      vertex   -2.000000e+00 8.158315e+00 8.167671e+00
      vertex   -2.000000e+00 8.236246e+00 8.084219e+00
      vertex   -2.059287e+00 8.182750e+00 8.125978e+00
    endloop
  endfacet
  facet normal -1.781500e-01 7.205423e-01 6.701353e-01
    outer loop
      vertex   -2.059287e+00 8.182750e+00 8.125978e+00
      vertex   -2.000000e+00 8.236246e+00 8.084219e+00
      vertex   -2.068500e+00 8.219358e+00 8.084167e+00
    endloop
  endfacet
  facet normal -1.836346e-01 7.191632e-01 6.701363e-01
    outer loop
      vertex   -2.059287e+00 8.182750e+00 8.125978e+00
      vertex   -2.068500e+00 8.219358e+00 8.084167e+00
      vertex   -2.115870e+00 8.168302e+00 8.125978e+00
    endloop
  endfacet
  facet normal -1.836346e-01 7.191632e-01 6.701363e-01
    outer loop
      vertex   -2.115870e+00 8.168302e+00 8.125978e+00
      vertex   -2.068500e+00 8.219358e+00 8.084167e+00
      vertex   -2.125336e+00 8.204846e+00 8.084167e+00
    endloop
  endfacet
  facet normal -1.886122e-01 7.178738e-01 6.701362e-01
    outer loop
      vertex   -2.115870e+00 8.168302e+00 8.125978e+00
      vertex   -2.125336e+00 8.204846e+00 8.084167e+00
      vertex   -2.172458e+00 8.153434e+00 8.125978e+00
    endloop
  endfacet
  facet normal -1.886122e-01 7.178738e-01 6.701362e-01
    outer loop
      vertex   -2.172458e+00 8.153434e+00 8.125978e+00
      vertex   -2.125336e+00 8.204846e+00 8.084167e+00
      vertex   -2.182177e+00 8.189911e+00 8.084167e+00
    endloop
  endfacet
  facet normal -1.935900e-01 7.165475e-01 6.701362e-01
    outer loop
      vertex   -2.172458e+00 8.153434e+00 8.125978e+00
      vertex   -2.182177e+00 8.189911e+00 8.084167e+00
      vertex   -2.229047e+00 8.138146e+00 8.125978e+00
    endloop
  endfacet
  facet normal -1.935900e-01 7.165475e-01 6.701362e-01
    outer loop
      vertex   -2.229047e+00 8.138146e+00 8.125978e+00
      vertex   -2.182177e+00 8.189911e+00 8.084167e+00
      vertex   -2.239019e+00 8.174554e+00 8.084167e+00
    endloop
  endfacet
  facet normal -1.985749e-01 7.151821e-01 6.701362e-01
    outer loop
      vertex   -2.229047e+00 8.138146e+00 8.125978e+00
      vertex   -2.239019e+00 8.174554e+00 8.084167e+00
      vertex   -2.285794e+00 8.122389e+00 8.125978e+00
    endloop
  endfacet
  facet normal -1.985774e-01 7.151830e-01 6.701345e-01
    outer loop
      vertex   -2.285794e+00 8.122389e+00 8.125978e+00
      vertex   -2.239019e+00 8.174554e+00 8.084167e+00
      vertex   -2.296070e+00 8.158714e+00 8.084167e+00
    endloop
  endfacet
  facet normal -2.035516e-01 7.137800e-01 6.701380e-01
    outer loop
      vertex   -2.285794e+00 8.122389e+00 8.125978e+00
      vertex   -2.296070e+00 8.158714e+00 8.084167e+00
      vertex   -2.342210e+00 8.106301e+00 8.125978e+00
    endloop
  endfacet
  facet normal -2.035542e-01 7.137808e-01 6.701362e-01
    outer loop
      vertex   -2.342210e+00 8.106301e+00 8.125978e+00
      vertex   -2.296070e+00 8.158714e+00 8.084167e+00
      vertex   -2.352688e+00 8.142567e+00 8.084167e+00
    endloop
  endfacet
  facet normal -2.085213e-01 7.123457e-01 6.701362e-01
    outer loop
      vertex   -2.342210e+00 8.106301e+00 8.125978e+00
      vertex   -2.352688e+00 8.142567e+00 8.084167e+00
      vertex   -2.398775e+00 8.089743e+00 8.125978e+00
    endloop
  endfacet
  facet normal -2.085213e-01 7.123457e-01 6.701362e-01
    outer loop
      vertex   -2.398775e+00 8.089743e+00 8.125978e+00
      vertex   -2.352688e+00 8.142567e+00 8.084167e+00
      vertex   -2.409507e+00 8.125935e+00 8.084167e+00
    endloop
  endfacet
  facet normal -2.134963e-01 7.108704e-01 6.701362e-01
    outer loop
      vertex   -2.398775e+00 8.089743e+00 8.125978e+00
      vertex   -2.409507e+00 8.125935e+00 8.084167e+00
      vertex   -2.455323e+00 8.072760e+00 8.125978e+00
    endloop
  endfacet
  facet normal -2.134963e-01 7.108704e-01 6.701362e-01
    outer loop
      vertex   -2.455323e+00 8.072760e+00 8.125978e+00
      vertex   -2.409507e+00 8.125935e+00 8.084167e+00
      vertex   -2.466308e+00 8.108876e+00 8.084167e+00
    endloop
  endfacet
  facet normal -2.184697e-01 7.093578e-01 6.701362e-01
    outer loop
      vertex   -2.455323e+00 8.072760e+00 8.125978e+00
      vertex   -2.466308e+00 8.108876e+00 8.084167e+00
      vertex   -2.511850e+00 8.055351e+00 8.125978e+00
    endloop
  endfacet
  facet normal -2.184697e-01 7.093578e-01 6.701362e-01
    outer loop
      vertex   -2.511850e+00 8.055351e+00 8.125978e+00
      vertex   -2.466308e+00 8.108876e+00 8.084167e+00
      vertex   -2.523087e+00 8.091389e+00 8.084167e+00
    endloop
  endfacet
  facet normal -2.234409e-01 7.078076e-01 6.701362e-01
    outer loop
      vertex   -2.511850e+00 8.055351e+00 8.125978e+00
      vertex   -2.523087e+00 8.091389e+00 8.084167e+00
      vertex   -2.568351e+00 8.037515e+00 8.125978e+00
    endloop
  endfacet
  facet normal -2.234409e-01 7.078076e-01 6.701362e-01
    outer loop
      vertex   -2.568351e+00 8.037515e+00 8.125978e+00
      vertex   -2.523087e+00 8.091389e+00 8.084167e+00
      vertex   -2.579841e+00 8.073473e+00 8.084167e+00
    endloop
  endfacet
  facet normal -2.284097e-01 7.062199e-01 6.701362e-01
    outer loop
      vertex   -2.568351e+00 8.037515e+00 8.125978e+00
      vertex   -2.579841e+00 8.073473e+00 8.084167e+00
      vertex   -2.624821e+00 8.019251e+00 8.125978e+00
    endloop
  endfacet
  facet normal -2.284097e-01 7.062199e-01 6.701362e-01
    outer loop
      vertex   -2.624821e+00 8.019251e+00 8.125978e+00
      vertex   -2.579841e+00 8.073473e+00 8.084167e+00
      vertex   -2.636564e+00 8.055127e+00 8.084167e+00
    endloop
  endfacet
  facet normal -2.333756e-01 7.045944e-01 6.701362e-01
    outer loop
      vertex   -2.624821e+00 8.019251e+00 8.125978e+00
      vertex   -2.636564e+00 8.055127e+00 8.084167e+00
      vertex   -2.681256e+00 8.000558e+00 8.125978e+00
    endloop
  endfacet
  facet normal -2.333756e-01 7.045944e-01 6.701362e-01
    outer loop
      vertex   -2.681256e+00 8.000558e+00 8.125978e+00
      vertex   -2.636564e+00 8.055127e+00 8.084167e+00
      vertex   -2.693252e+00 8.036351e+00 8.084167e+00
    endloop
  endfacet
  facet normal -1.789131e-01 7.236483e-01 6.665758e-01
    outer loop
      vertex   -2.068500e+00 8.219358e+00 8.084167e+00
      vertex   -2.000000e+00 8.236246e+00 8.084219e+00
      vertex   -2.077664e+00 8.255774e+00 8.042174e+00
    endloop
  endfacet
  facet normal -1.772721e-01 7.258823e-01 6.645822e-01
    outer loop
      vertex   -2.077664e+00 8.255774e+00 8.042174e+00
      vertex   -2.000000e+00 8.236246e+00 8.084219e+00
      vertex   -2.000000e+00 8.313353e+00 8.000000e+00
    endloop
  endfacet
  facet normal -1.776266e-01 7.261093e-01 6.642395e-01
    outer loop
      vertex   -2.077664e+00 8.255774e+00 8.042174e+00
      vertex   -2.000000e+00 8.313353e+00 8.000000e+00
      vertex   -2.063552e+00 8.297807e+00 8.000000e+00
    endloop
  endfacet
  facet normal -1.835707e-01 7.262865e-01 6.624271e-01
    outer loop
      vertex   -2.063552e+00 8.297807e+00 8.000000e+00
      vertex   -2.126977e+00 8.281776e+00 8.000000e+00
      vertex   -2.077664e+00 8.255774e+00 8.042174e+00
    endloop
  endfacet
  facet normal -1.851191e-01 7.249769e-01 6.634301e-01
    outer loop
      vertex   -2.077664e+00 8.255774e+00 8.042174e+00
      vertex   -2.126977e+00 8.281776e+00 8.000000e+00
      vertex   -2.134752e+00 8.241197e+00 8.042174e+00
    endloop
  endfacet
  facet normal -1.844259e-01 7.222621e-01 6.665768e-01
    outer loop
      vertex   -2.077664e+00 8.255774e+00 8.042174e+00
      vertex   -2.134752e+00 8.241197e+00 8.042174e+00
      vertex   -2.125336e+00 8.204846e+00 8.084167e+00
    endloop
  endfacet
  facet normal -1.894249e-01 7.209672e-01 6.665768e-01
    outer loop
      vertex   -2.125336e+00 8.204846e+00 8.084167e+00
      vertex   -2.134752e+00 8.241197e+00 8.042174e+00
      vertex   -2.182177e+00 8.189911e+00 8.084167e+00
    endloop
  endfacet
  facet normal -1.891026e-01 7.247872e-01 6.625132e-01
    outer loop
      vertex   -2.126977e+00 8.281776e+00 8.000000e+00
      vertex   -2.190272e+00 8.265262e+00 8.000000e+00
      vertex   -2.134752e+00 8.241197e+00 8.042174e+00
    endloop
  endfacet
  facet normal -1.901607e-01 7.237677e-01 6.633244e-01
    outer loop
      vertex   -2.134752e+00 8.241197e+00 8.042174e+00
      vertex   -2.190272e+00 8.265262e+00 8.000000e+00
      vertex   -2.191845e+00 8.226196e+00 8.042174e+00
    endloop
  endfacet
  facet normal -1.894249e-01 7.209672e-01 6.665768e-01
    outer loop
      vertex   -2.134752e+00 8.241197e+00 8.042174e+00
      vertex   -2.191845e+00 8.226196e+00 8.042174e+00
      vertex   -2.182177e+00 8.189911e+00 8.084167e+00
    endloop
  endfacet
  facet normal -1.944242e-01 7.196351e-01 6.665767e-01
    outer loop
      vertex   -2.182177e+00 8.189911e+00 8.084167e+00
      vertex   -2.191845e+00 8.226196e+00 8.042174e+00
      vertex   -2.239019e+00 8.174554e+00 8.084167e+00
    endloop
  endfacet
  facet normal -1.946121e-01 7.232097e-01 6.626415e-01
    outer loop
      vertex   -2.190272e+00 8.265262e+00 8.000000e+00
      vertex   -2.253433e+00 8.248265e+00 8.000000e+00
      vertex   -2.191845e+00 8.226196e+00 8.042174e+00
    endloop
  endfacet
  facet normal -1.952134e-01 7.225561e-01 6.631775e-01
    outer loop
      vertex   -2.191845e+00 8.226196e+00 8.042174e+00
      vertex   -2.253433e+00 8.248265e+00 8.000000e+00
      vertex   -2.248939e+00 8.210771e+00 8.042174e+00
    endloop
  endfacet
  facet normal -1.944242e-01 7.196351e-01 6.665767e-01
    outer loop
      vertex   -2.191845e+00 8.226196e+00 8.042174e+00
      vertex   -2.248939e+00 8.210771e+00 8.042174e+00
      vertex   -2.239019e+00 8.174554e+00 8.084167e+00
    endloop
  endfacet
  facet normal -1.994327e-01 7.182632e-01 6.665767e-01
    outer loop
      vertex   -2.239019e+00 8.174554e+00 8.084167e+00
      vertex   -2.248939e+00 8.210771e+00 8.042174e+00
      vertex   -2.296070e+00 8.158714e+00 8.084167e+00
    endloop
  endfacet
  facet normal -2.000987e-01 7.215566e-01 6.628096e-01
    outer loop
      vertex   -2.253433e+00 8.248265e+00 8.000000e+00
      vertex   -2.316459e+00 8.230787e+00 8.000000e+00
      vertex   -2.248939e+00 8.210771e+00 8.042174e+00
    endloop
  endfacet
  facet normal -2.002861e-01 7.213285e-01 6.630013e-01
    outer loop
      vertex   -2.248939e+00 8.210771e+00 8.042174e+00
      vertex   -2.316459e+00 8.230787e+00 8.000000e+00
      vertex   -2.306291e+00 8.194847e+00 8.042174e+00
    endloop
  endfacet
  facet normal -1.994353e-01 7.182641e-01 6.665750e-01
    outer loop
      vertex   -2.248939e+00 8.210771e+00 8.042174e+00
      vertex   -2.306291e+00 8.194847e+00 8.042174e+00
      vertex   -2.296070e+00 8.158714e+00 8.084167e+00
    endloop
  endfacet
  facet normal -2.044309e-01 7.168550e-01 6.665785e-01
    outer loop
      vertex   -2.296070e+00 8.158714e+00 8.084167e+00
      vertex   -2.306291e+00 8.194847e+00 8.042174e+00
      vertex   -2.352688e+00 8.142567e+00 8.084167e+00
    endloop
  endfacet
  facet normal -2.053052e-01 7.199127e-01 6.630049e-01
    outer loop
      vertex   -2.306291e+00 8.194847e+00 8.042174e+00
      vertex   -2.316459e+00 8.230787e+00 8.000000e+00
      vertex   -2.363112e+00 8.178643e+00 8.042174e+00
    endloop
  endfacet
  facet normal -2.056161e-01 7.200193e-01 6.627928e-01
    outer loop
      vertex   -2.363112e+00 8.178643e+00 8.042174e+00
      vertex   -2.316459e+00 8.230787e+00 8.000000e+00
      vertex   -2.379347e+00 8.212828e+00 8.000000e+00
    endloop
  endfacet
  facet normal -2.102658e-01 7.183054e-01 6.631935e-01
    outer loop
      vertex   -2.363112e+00 8.178643e+00 8.042174e+00
      vertex   -2.379347e+00 8.212828e+00 8.000000e+00
      vertex   -2.420182e+00 8.161937e+00 8.042174e+00
    endloop
  endfacet
  facet normal -2.111562e-01 7.185583e-01 6.626365e-01
    outer loop
      vertex   -2.420182e+00 8.161937e+00 8.042174e+00
      vertex   -2.379347e+00 8.212828e+00 8.000000e+00
      vertex   -2.442093e+00 8.194390e+00 8.000000e+00
    endloop
  endfacet
  facet normal -2.152472e-01 7.167002e-01 6.633321e-01
    outer loop
      vertex   -2.420182e+00 8.161937e+00 8.042174e+00
      vertex   -2.442093e+00 8.194390e+00 8.000000e+00
      vertex   -2.477235e+00 8.144802e+00 8.042174e+00
    endloop
  endfacet
  facet normal -2.166758e-01 7.170214e-01 6.625193e-01
    outer loop
      vertex   -2.477235e+00 8.144802e+00 8.042174e+00
      vertex   -2.442093e+00 8.194390e+00 8.000000e+00
      vertex   -2.504695e+00 8.175472e+00 8.000000e+00
    endloop
  endfacet
  facet normal -2.202351e-01 7.150901e-01 6.634324e-01
    outer loop
      vertex   -2.477235e+00 8.144802e+00 8.042174e+00
      vertex   -2.504695e+00 8.175472e+00 8.000000e+00
      vertex   -2.534266e+00 8.127237e+00 8.042174e+00
    endloop
  endfacet
  facet normal -2.221745e-01 7.154108e-01 6.624394e-01
    outer loop
      vertex   -2.534266e+00 8.127237e+00 8.042174e+00
      vertex   -2.504695e+00 8.175472e+00 8.000000e+00
      vertex   -2.567151e+00 8.156076e+00 8.000000e+00
    endloop
  endfacet
  facet normal -2.252294e-01 7.134732e-01 6.634965e-01
    outer loop
      vertex   -2.534266e+00 8.127237e+00 8.042174e+00
      vertex   -2.567151e+00 8.156076e+00 8.000000e+00
      vertex   -2.591271e+00 8.109242e+00 8.042174e+00
    endloop
  endfacet
  facet normal -2.276517e-01 7.137284e-01 6.623945e-01
    outer loop
      vertex   -2.591271e+00 8.109242e+00 8.042174e+00
      vertex   -2.567151e+00 8.156076e+00 8.000000e+00
      vertex   -2.629457e+00 8.136203e+00 8.000000e+00
    endloop
  endfacet
  facet normal -2.302298e-01 7.118475e-01 6.635264e-01
    outer loop
      vertex   -2.591271e+00 8.109242e+00 8.042174e+00
      vertex   -2.629457e+00 8.136203e+00 8.000000e+00
      vertex   -2.648245e+00 8.090815e+00 8.042174e+00
    endloop
  endfacet
  facet normal -2.331072e-01 7.119761e-01 6.623829e-01
    outer loop
      vertex   -2.648245e+00 8.090815e+00 8.042174e+00
      vertex   -2.629457e+00 8.136203e+00 8.000000e+00
      vertex   -2.691611e+00 8.115853e+00 8.000000e+00
    endloop
  endfacet
  facet normal -2.352360e-01 7.102112e-01 6.635240e-01
    outer loop
      vertex   -2.648245e+00 8.090815e+00 8.042174e+00
      vertex   -2.691611e+00 8.115853e+00 8.000000e+00
      vertex   -2.705184e+00 8.071956e+00 8.042174e+00
    endloop
  endfacet
  facet normal -2.385406e-01 7.101557e-01 6.624027e-01
    outer loop
      vertex   -2.705184e+00 8.071956e+00 8.042174e+00
      vertex   -2.691611e+00 8.115853e+00 8.000000e+00
      vertex   -2.753609e+00 8.095028e+00 8.000000e+00
    endloop
  endfacet
  facet normal -2.452641e-01 7.068996e-01 6.634293e-01
    outer loop
      vertex   -2.762083e+00 8.052664e+00 8.042174e+00
      vertex   -2.815451e+00 8.073728e+00 8.000000e+00
      vertex   -2.818937e+00 8.032938e+00 8.042174e+00
    endloop
  endfacet
  facet normal -2.493395e-01 7.063176e-01 6.625295e-01
    outer loop
      vertex   -2.818937e+00 8.032938e+00 8.042174e+00
      vertex   -2.815451e+00 8.073728e+00 8.000000e+00
      vertex   -2.877131e+00 8.051954e+00 8.000000e+00
    endloop
  endfacet
  facet normal -2.502854e-01 7.052212e-01 6.633403e-01
    outer loop
      vertex   -2.818937e+00 8.032938e+00 8.042174e+00
      vertex   -2.877131e+00 8.051954e+00 8.000000e+00
      vertex   -2.875741e+00 8.012778e+00 8.042174e+00
    endloop
  endfacet
  facet normal -2.547045e-01 7.043032e-01 6.626331e-01
    outer loop
      vertex   -2.875741e+00 8.012778e+00 8.042174e+00
      vertex   -2.877131e+00 8.051954e+00 8.000000e+00
      vertex   -2.938649e+00 8.029707e+00 8.000000e+00
    endloop
  endfacet
  facet normal -2.443455e-01 7.042520e-01 6.665767e-01
    outer loop
      vertex   -2.749899e+00 8.017144e+00 8.084167e+00
      vertex   -2.762083e+00 8.052664e+00 8.042174e+00
      vertex   -2.818937e+00 8.032938e+00 8.042174e+00
    endloop
  endfacet
  facet normal -2.343812e-01 7.076305e-01 6.665767e-01
    outer loop
      vertex   -2.648245e+00 8.090815e+00 8.042174e+00
      vertex   -2.705184e+00 8.071956e+00 8.042174e+00
      vertex   -2.693252e+00 8.036351e+00 8.084167e+00
    endloop
  endfacet
  facet normal -2.343812e-01 7.076305e-01 6.665767e-01
    outer loop
      vertex   -2.648245e+00 8.090815e+00 8.042174e+00
      vertex   -2.693252e+00 8.036351e+00 8.084167e+00
      vertex   -2.636564e+00 8.055127e+00 8.084167e+00
    endloop
  endfacet
  facet normal -2.293939e-01 7.092630e-01 6.665767e-01
    outer loop
      vertex   -2.591271e+00 8.109242e+00 8.042174e+00
      vertex   -2.648245e+00 8.090815e+00 8.042174e+00
      vertex   -2.636564e+00 8.055127e+00 8.084167e+00
    endloop
  endfacet
  facet normal -2.293939e-01 7.092630e-01 6.665767e-01
    outer loop
      vertex   -2.591271e+00 8.109242e+00 8.042174e+00
      vertex   -2.636564e+00 8.055127e+00 8.084167e+00
      vertex   -2.579841e+00 8.073473e+00 8.084167e+00
    endloop
  endfacet
  facet normal -2.244037e-01 7.108576e-01 6.665767e-01
    outer loop
      vertex   -2.534266e+00 8.127237e+00 8.042174e+00
      vertex   -2.591271e+00 8.109242e+00 8.042174e+00
      vertex   -2.579841e+00 8.073473e+00 8.084167e+00
    endloop
  endfacet
  facet normal -2.244037e-01 7.108576e-01 6.665767e-01
    outer loop
      vertex   -2.534266e+00 8.127237e+00 8.042174e+00
      vertex   -2.579841e+00 8.073473e+00 8.084167e+00
      vertex   -2.523087e+00 8.091389e+00 8.084167e+00
    endloop
  endfacet
  facet normal -2.194110e-01 7.124144e-01 6.665767e-01
    outer loop
      vertex   -2.477235e+00 8.144802e+00 8.042174e+00
      vertex   -2.534266e+00 8.127237e+00 8.042174e+00
      vertex   -2.523087e+00 8.091389e+00 8.084167e+00
    endloop
  endfacet
  facet normal -2.194110e-01 7.124144e-01 6.665767e-01
    outer loop
      vertex   -2.477235e+00 8.144802e+00 8.042174e+00
      vertex   -2.523087e+00 8.091389e+00 8.084167e+00
      vertex   -2.466308e+00 8.108876e+00 8.084167e+00
    endloop
  endfacet
  facet normal -2.144163e-01 7.139336e-01 6.665767e-01
    outer loop
      vertex   -2.420182e+00 8.161937e+00 8.042174e+00
      vertex   -2.477235e+00 8.144802e+00 8.042174e+00
      vertex   -2.466308e+00 8.108876e+00 8.084167e+00
    endloop
  endfacet
  facet normal -2.144163e-01 7.139336e-01 6.665767e-01
    outer loop
      vertex   -2.420182e+00 8.161937e+00 8.042174e+00
      vertex   -2.466308e+00 8.108876e+00 8.084167e+00
      vertex   -2.409507e+00 8.125935e+00 8.084167e+00
    endloop
  endfacet
  facet normal -2.067089e-01 7.061544e-01 6.772130e-01
    outer loop
      vertex   -2.331676e+00 8.069845e+00 8.167605e+00
      vertex   -2.387987e+00 8.053362e+00 8.167605e+00
      vertex   -2.377143e+00 8.016793e+00 8.209047e+00
    endloop
  endfacet
  facet normal -2.116407e-01 7.046920e-01 6.772130e-01
    outer loop
      vertex   -2.377143e+00 8.016793e+00 8.209047e+00
      vertex   -2.387987e+00 8.053362e+00 8.167605e+00
      vertex   -2.444281e+00 8.036455e+00 8.167605e+00
    endloop
  endfacet
  facet normal -2.094198e-01 7.154151e-01 6.665767e-01
    outer loop
      vertex   -2.363112e+00 8.178643e+00 8.042174e+00
      vertex   -2.420182e+00 8.161937e+00 8.042174e+00
      vertex   -2.409507e+00 8.125935e+00 8.084167e+00
    endloop
  endfacet
  facet normal -2.094198e-01 7.154151e-01 6.665767e-01
    outer loop
      vertex   -2.363112e+00 8.178643e+00 8.042174e+00
      vertex   -2.409507e+00 8.125935e+00 8.084167e+00
      vertex   -2.352688e+00 8.142567e+00 8.084167e+00
    endloop
  endfacet
  facet normal -2.017808e-01 7.075783e-01 6.772130e-01
    outer loop
      vertex   -2.275466e+00 8.085875e+00 8.167605e+00
      vertex   -2.331676e+00 8.069845e+00 8.167605e+00
      vertex   -2.321088e+00 8.033201e+00 8.209047e+00
    endloop
  endfacet
  facet normal -2.067089e-01 7.061544e-01 6.772130e-01
    outer loop
      vertex   -2.321088e+00 8.033201e+00 8.209047e+00
      vertex   -2.331676e+00 8.069845e+00 8.167605e+00
      vertex   -2.377143e+00 8.016793e+00 8.209047e+00
    endloop
  endfacet
  facet normal -2.044335e-01 7.168559e-01 6.665768e-01
    outer loop
      vertex   -2.306291e+00 8.194847e+00 8.042174e+00
      vertex   -2.363112e+00 8.178643e+00 8.042174e+00
      vertex   -2.352688e+00 8.142567e+00 8.084167e+00
    endloop
  endfacet
  facet normal -2.017783e-01 7.075774e-01 6.772147e-01
    outer loop
      vertex   -2.275466e+00 8.085875e+00 8.167605e+00
      vertex   -2.321088e+00 8.033201e+00 8.209047e+00
      vertex   -2.265085e+00 8.049171e+00 8.209047e+00
    endloop
  endfacet
  facet normal -2.008863e-01 7.044495e-01 6.807316e-01
    outer loop
      vertex   -2.265085e+00 8.049171e+00 8.209047e+00
      vertex   -2.321088e+00 8.033201e+00 8.209047e+00
      vertex   -2.254652e+00 8.012280e+00 8.250303e+00
    endloop
  endfacet
  facet normal -1.959750e-01 7.058348e-01 6.807283e-01
    outer loop
      vertex   -2.265085e+00 8.049171e+00 8.209047e+00
      vertex   -2.254652e+00 8.012280e+00 8.250303e+00
      vertex   -2.208946e+00 8.064759e+00 8.209047e+00
    endloop
  endfacet
  facet normal -1.959724e-01 7.058339e-01 6.807300e-01
    outer loop
      vertex   -2.208946e+00 8.064759e+00 8.209047e+00
      vertex   -2.254652e+00 8.012280e+00 8.250303e+00
      vertex   -2.198818e+00 8.027783e+00 8.250303e+00
    endloop
  endfacet
  facet normal -1.968473e-01 7.089683e-01 6.772113e-01
    outer loop
      vertex   -2.219022e+00 8.101547e+00 8.167605e+00
      vertex   -2.275466e+00 8.085875e+00 8.167605e+00
      vertex   -2.265085e+00 8.049171e+00 8.209047e+00
    endloop
  endfacet
  facet normal -1.968447e-01 7.089674e-01 6.772130e-01
    outer loop
      vertex   -2.219022e+00 8.101547e+00 8.167605e+00
      vertex   -2.265085e+00 8.049171e+00 8.209047e+00
      vertex   -2.208946e+00 8.064759e+00 8.209047e+00
    endloop
  endfacet
  facet normal -1.853153e-01 7.053255e-01 6.842325e-01
    outer loop
      vertex   -2.142997e+00 8.042864e+00 8.250303e+00
      vertex   -2.133076e+00 8.005631e+00 8.291370e+00
      vertex   -2.087176e+00 8.057530e+00 8.250303e+00
    endloop
  endfacet
  facet normal -1.853153e-01 7.053255e-01 6.842325e-01
    outer loop
      vertex   -2.087176e+00 8.057530e+00 8.250303e+00
      vertex   -2.133076e+00 8.005631e+00 8.291370e+00
      vertex   -2.077514e+00 8.020230e+00 8.291370e+00
    endloop
  endfacet
  facet normal -1.804247e-01 7.065923e-01 6.842326e-01
    outer loop
      vertex   -2.087176e+00 8.057530e+00 8.250303e+00
      vertex   -2.077514e+00 8.020230e+00 8.291370e+00
      vertex   -2.031361e+00 8.071782e+00 8.250303e+00
    endloop
  endfacet
  facet normal -1.869729e-01 7.116345e-01 6.772130e-01
    outer loop
      vertex   -2.106354e+00 8.131568e+00 8.167605e+00
      vertex   -2.162688e+00 8.116767e+00 8.167605e+00
      vertex   -2.152867e+00 8.079909e+00 8.209047e+00
    endloop
  endfacet
  facet normal -1.861463e-01 7.084887e-01 6.807300e-01
    outer loop
      vertex   -2.152867e+00 8.079909e+00 8.209047e+00
      vertex   -2.142997e+00 8.042864e+00 8.250303e+00
      vertex   -2.096790e+00 8.094643e+00 8.209047e+00
    endloop
  endfacet
  facet normal -1.861463e-01 7.084887e-01 6.807300e-01
    outer loop
      vertex   -2.096790e+00 8.094643e+00 8.209047e+00
      vertex   -2.142997e+00 8.042864e+00 8.250303e+00
      vertex   -2.087176e+00 8.057530e+00 8.250303e+00
    endloop
  endfacet
  facet normal -1.812339e-01 7.097612e-01 6.807300e-01
    outer loop
      vertex   -2.096790e+00 8.094643e+00 8.209047e+00
      vertex   -2.087176e+00 8.057530e+00 8.250303e+00
      vertex   -2.040717e+00 8.108961e+00 8.209047e+00
    endloop
  endfacet
  facet normal -1.812339e-01 7.097612e-01 6.807300e-01
    outer loop
      vertex   -2.040717e+00 8.108961e+00 8.209047e+00
      vertex   -2.087176e+00 8.057530e+00 8.250303e+00
      vertex   -2.031361e+00 8.071782e+00 8.250303e+00
    endloop
  endfacet
  facet normal -1.820386e-01 7.129127e-01 6.772130e-01
    outer loop
      vertex   -2.050026e+00 8.145951e+00 8.167605e+00
      vertex   -2.106354e+00 8.131568e+00 8.167605e+00
      vertex   -2.096790e+00 8.094643e+00 8.209047e+00
    endloop
  endfacet
  facet normal -1.869729e-01 7.116345e-01 6.772130e-01
    outer loop
      vertex   -2.096790e+00 8.094643e+00 8.209047e+00
      vertex   -2.106354e+00 8.131568e+00 8.167605e+00
      vertex   -2.152867e+00 8.079909e+00 8.209047e+00
    endloop
  endfacet
  facet normal -1.820386e-01 7.129127e-01 6.772130e-01
    outer loop
      vertex   -2.050026e+00 8.145951e+00 8.167605e+00
      vertex   -2.096790e+00 8.094643e+00 8.209047e+00
      vertex   -2.040717e+00 8.108961e+00 8.209047e+00
    endloop
  endfacet
  facet normal -1.844259e-01 7.222621e-01 6.665768e-01
    outer loop
      vertex   -2.077664e+00 8.255774e+00 8.042174e+00
      vertex   -2.125336e+00 8.204846e+00 8.084167e+00
      vertex   -2.068500e+00 8.219358e+00 8.084167e+00
    endloop
  endfacet
  facet normal 1.000000e+00 0.000000e+00 0.000000e+00
    outer loop
      vertex   -2.000000e+00 8.313353e+00 8.000000e+00
      vertex   -2.000000e+00 8.236246e+00 8.084219e+00
      vertex   -2.000000e+00 8.000000e+00 8.000000e+00
    endloop
  endfacet
  facet normal 1.000000e+00 0.000000e+00 0.000000e+00
    outer loop
      vertex   -2.000000e+00 8.000000e+00 8.000000e+00
      vertex   -2.000000e+00 8.236246e+00 8.084219e+00
      vertex   -2.000000e+00 8.158315e+00 8.167671e+00
    endloop
  endfacet
  facet normal 1.000000e+00 -2.831930e-15 2.673901e-15
    outer loop
      vertex   -2.000000e+00 8.000000e+00 8.000000e+00
      vertex   -2.000000e+00 8.158315e+00 8.167671e+00
      vertex   -2.000000e+00 8.079565e+00 8.250350e+00
    endloop
  endfacet
  facet normal 1.000000e+00 5.581496e-15 0.000000e+00
    outer loop
      vertex   -2.000000e+00 8.079565e+00 8.250350e+00
      vertex   -2.000000e+00 8.000000e+00 8.332247e+00
      vertex   -2.000000e+00 8.000000e+00 8.000000e+00
    endloop
  endfacet
  facet normal -2.790888e-14 -1.000000e+00 -0.000000e+00
    outer loop
      vertex   -2.000000e+00 8.000000e+00 8.332247e+00
      vertex   -2.063648e+00 8.000000e+00 8.315755e+00
      vertex   -2.000000e+00 8.000000e+00 8.000000e+00
    endloop
  endfacet
  facet normal 2.510635e-14 -1.000000e+00 1.068656e-14
    outer loop
      vertex   -2.000000e+00 8.000000e+00 8.000000e+00
      vertex   -2.063648e+00 8.000000e+00 8.315755e+00
      vertex   -2.127163e+00 8.000000e+00 8.298749e+00
    endloop
  endfacet
  facet normal -2.507739e-14 -1.000000e+00 -1.067423e-14
    outer loop
      vertex   -2.000000e+00 8.000000e+00 8.000000e+00
      vertex   -2.127163e+00 8.000000e+00 8.298749e+00
      vertex   -2.190541e+00 8.000000e+00 8.281229e+00
    endloop
  endfacet
  facet normal -2.505134e-14 -1.000000e+00 -1.065658e-14
    outer loop
      vertex   -2.190541e+00 8.000000e+00 8.281229e+00
      vertex   -2.253778e+00 8.000000e+00 8.263196e+00
      vertex   -2.000000e+00 8.000000e+00 8.000000e+00
    endloop
  endfacet
  facet normal -2.502816e-14 -1.000000e+00 -1.063423e-14
    outer loop
      vertex   -2.000000e+00 8.000000e+00 8.000000e+00
      vertex   -2.253778e+00 8.000000e+00 8.263196e+00
      vertex   -2.316873e+00 8.000000e+00 8.244652e+00
    endloop
  endfacet
  facet normal -2.500778e-14 -1.000000e+00 -1.060783e-14
    outer loop
      vertex   -2.000000e+00 8.000000e+00 8.000000e+00
      vertex   -2.316873e+00 8.000000e+00 8.244652e+00
      vertex   -2.379823e+00 8.000000e+00 8.225597e+00
    endloop
  endfacet
  facet normal 1.211739e-14 -1.000000e+00 5.189742e-14
    outer loop
      vertex   -2.379823e+00 8.000000e+00 8.225597e+00
      vertex   -2.442623e+00 8.000000e+00 8.206032e+00
      vertex   -2.000000e+00 8.000000e+00 8.000000e+00
    endloop
  endfacet
  facet normal -4.908737e-15 -1.000000e+00 1.531973e-14
    outer loop
      vertex   -2.000000e+00 8.000000e+00 8.000000e+00
      vertex   -2.442623e+00 8.000000e+00 8.206032e+00
      vertex   -2.505270e+00 8.000000e+00 8.185958e+00
    endloop
  endfacet
  facet normal -4.980850e-15 -1.000000e+00 1.512379e-14
    outer loop
      vertex   -2.000000e+00 8.000000e+00 8.000000e+00
      vertex   -2.505270e+00 8.000000e+00 8.185958e+00
      vertex   -2.567746e+00 8.000000e+00 8.165383e+00
    endloop
  endfacet
  facet normal -1.823572e-14 -1.000000e+00 -3.037911e-14
    outer loop
      vertex   -2.567746e+00 8.000000e+00 8.165383e+00
      vertex   -2.630045e+00 8.000000e+00 8.144307e+00
      vertex   -2.000000e+00 8.000000e+00 8.000000e+00
    endloop
  endfacet
  facet normal 4.567769e-15 -1.000000e+00 6.918134e-14
    outer loop
      vertex   -2.000000e+00 8.000000e+00 8.000000e+00
      vertex   -2.630045e+00 8.000000e+00 8.144307e+00
      vertex   -2.692167e+00 8.000000e+00 8.122731e+00
    endloop
  endfacet
  facet normal 4.387505e-15 -1.000000e+00 6.816471e-14
    outer loop
      vertex   -2.000000e+00 8.000000e+00 8.000000e+00
      vertex   -2.692167e+00 8.000000e+00 8.122731e+00
      vertex   -2.754107e+00 8.000000e+00 8.100659e+00
    endloop
  endfacet
  facet normal -3.450785e-15 -1.000000e+00 9.442346e-15
    outer loop
      vertex   -2.754107e+00 8.000000e+00 8.100659e+00
      vertex   -2.815863e+00 8.000000e+00 8.078089e+00
      vertex   -2.000000e+00 8.000000e+00 8.000000e+00
    endloop
  endfacet
  facet normal 8.274547e-15 -1.000000e+00 1.319466e-13
    outer loop
      vertex   -2.000000e+00 8.000000e+00 8.000000e+00
      vertex   -2.815863e+00 8.000000e+00 8.078089e+00
      vertex   -2.877432e+00 8.000000e+00 8.055025e+00
    endloop
  endfacet
  facet normal 0.000000e+00 -1.000000e+00 0.000000e+00
    outer loop
      vertex   -2.000000e+00 8.000000e+00 8.000000e+00
      vertex   -2.877432e+00 8.000000e+00 8.055025e+00
      vertex   -2.938812e+00 8.000000e+00 8.031467e+00
    endloop
  endfacet
  facet normal 0.000000e+00 -1.000000e+00 0.000000e+00
    outer loop
      vertex   -3.000000e+00 8.000000e+00 8.007417e+00
      vertex   -3.000000e+00 8.000000e+00 8.000000e+00
      vertex   -2.938812e+00 8.000000e+00 8.031467e+00
    endloop
  endfacet
  facet normal 0.000000e+00 -1.000000e+00 -0.000000e+00
    outer loop
      vertex   -2.938812e+00 8.000000e+00 8.031467e+00
      vertex   -3.000000e+00 8.000000e+00 8.000000e+00
      vertex   -2.000000e+00 8.000000e+00 8.000000e+00
    endloop
  endfacet
  facet normal 0.000000e+00 0.000000e+00 -1.000000e+00
    outer loop
      vertex   -3.000000e+00 8.006987e+00 8.000000e+00
      vertex   -2.938649e+00 8.029707e+00 8.000000e+00
      vertex   -3.000000e+00 8.000000e+00 8.000000e+00
    endloop
  endfacet
  facet normal 0.000000e+00 0.000000e+00 -1.000000e+00
    outer loop
      vertex   -3.000000e+00 8.000000e+00 8.000000e+00
      vertex   -2.938649e+00 8.029707e+00 8.000000e+00
      vertex   -2.000000e+00 8.000000e+00 8.000000e+00
    endloop
  endfacet
  facet normal 0.000000e+00 0.000000e+00 -1.000000e+00
    outer loop
      vertex   -2.000000e+00 8.000000e+00 8.000000e+00
      vertex   -2.938649e+00 8.029707e+00 8.000000e+00
      vertex   -2.877131e+00 8.051954e+00 8.000000e+00
    endloop
  endfacet
  facet normal 0.000000e+00 0.000000e+00 -1.000000e+00
    outer loop
      vertex   -2.000000e+00 8.000000e+00 8.000000e+00
      vertex   -2.877131e+00 8.051954e+00 8.000000e+00
      vertex   -2.815451e+00 8.073728e+00 8.000000e+00
    endloop
  endfacet
  facet normal 0.000000e+00 0.000000e+00 -1.000000e+00
    outer loop
      vertex   -2.815451e+00 8.073728e+00 8.000000e+00
      vertex   -2.753609e+00 8.095028e+00 8.000000e+00
      vertex   -2.000000e+00 8.000000e+00 8.000000e+00
    endloop
  endfacet
  facet normal 0.000000e+00 0.000000e+00 -1.000000e+00
    outer loop
      vertex   -2.000000e+00 8.000000e+00 8.000000e+00
      vertex   -2.753609e+00 8.095028e+00 8.000000e+00
      vertex   -2.691611e+00 8.115853e+00 8.000000e+00
    endloop
  endfacet
  facet normal 0.000000e+00 0.000000e+00 -1.000000e+00
    outer loop
      vertex   -2.000000e+00 8.000000e+00 8.000000e+00
      vertex   -2.691611e+00 8.115853e+00 8.000000e+00
      vertex   -2.629457e+00 8.136203e+00 8.000000e+00
    endloop
  endfacet
  facet normal 0.000000e+00 0.000000e+00 -1.000000e+00
    outer loop
      vertex   -2.629457e+00 8.136203e+00 8.000000e+00
      vertex   -2.567151e+00 8.156076e+00 8.000000e+00
      vertex   -2.000000e+00 8.000000e+00 8.000000e+00
    endloop
  endfacet
  facet normal 0.000000e+00 0.000000e+00 -1.000000e+00
    outer loop
      vertex   -2.000000e+00 8.000000e+00 8.000000e+00
      vertex   -2.567151e+00 8.156076e+00 8.000000e+00
      vertex   -2.504695e+00 8.175472e+00 8.000000e+00
    endloop
  endfacet
  facet normal 0.000000e+00 0.000000e+00 -1.000000e+00
    outer loop
      vertex   -2.000000e+00 8.000000e+00 8.000000e+00
      vertex   -2.504695e+00 8.175472e+00 8.000000e+00
      vertex   -2.442093e+00 8.194390e+00 8.000000e+00
    endloop
  endfacet
  facet normal 0.000000e+00 0.000000e+00 -1.000000e+00
    outer loop
      vertex   -2.442093e+00 8.194390e+00 8.000000e+00
      vertex   -2.379347e+00 8.212828e+00 8.000000e+00
      vertex   -2.000000e+00 8.000000e+00 8.000000e+00
    endloop
  endfacet
  facet normal 0.000000e+00 0.000000e+00 -1.000000e+00
    outer loop
      vertex   -2.000000e+00 8.000000e+00 8.000000e+00
      vertex   -2.379347e+00 8.212828e+00 8.000000e+00
      vertex   -2.316459e+00 8.230787e+00 8.000000e+00
    endloop
  endfacet
  facet normal 0.000000e+00 0.000000e+00 -1.000000e+00
    outer loop
      vertex   -2.000000e+00 8.000000e+00 8.000000e+00
      vertex   -2.316459e+00 8.230787e+00 8.000000e+00
      vertex   -2.253433e+00 8.248265e+00 8.000000e+00
    endloop
  endfacet
  facet normal 0.000000e+00 0.000000e+00 -1.000000e+00
    outer loop
      vertex   -2.253433e+00 8.248265e+00 8.000000e+00
      vertex   -2.190272e+00 8.265262e+00 8.000000e+00
      vertex   -2.000000e+00 8.000000e+00 8.000000e+00
    endloop
  endfacet
  facet normal 0.000000e+00 0.000000e+00 -1.000000e+00
    outer loop
      vertex   -2.000000e+00 8.000000e+00 8.000000e+00
      vertex   -2.190272e+00 8.265262e+00 8.000000e+00
      vertex   -2.126977e+00 8.281776e+00 8.000000e+00
    endloop
  endfacet
  facet normal 0.000000e+00 0.000000e+00 -1.000000e+00
    outer loop
      vertex   -2.000000e+00 8.000000e+00 8.000000e+00
      vertex   -2.126977e+00 8.281776e+00 8.000000e+00
      vertex   -2.063552e+00 8.297807e+00 8.000000e+00
    endloop
  endfacet
  facet normal 0.000000e+00 0.000000e+00 -1.000000e+00
    outer loop
      vertex   -2.063552e+00 8.297807e+00 8.000000e+00
      vertex   -2.000000e+00 8.313353e+00 8.000000e+00
      vertex   -2.000000e+00 8.000000e+00 8.000000e+00
    endloop
  endfacet
  facet normal -1.000000e+00 0.000000e+00 0.000000e+00
    outer loop
      vertex   -3.000000e+00 8.000000e+00 8.007417e+00
      vertex   -3.000000e+00 8.006987e+00 8.000000e+00
      vertex   -3.000000e+00 8.000000e+00 8.000000e+00
    endloop
  endfacet
endsolid
