solid ASCII
  facet normal 7.993420e-01 4.355495e-01 4.139431e-01
    outer loop
      vertex   9.160133e+00 5.000000e+00 5.099163e+00
      vertex   9.211485e+00 5.000000e+00 5.000000e+00
      vertex   9.157496e+00 5.052120e+00 5.049416e+00
    endloop
  endfacet
  facet normal 7.993340e-01 4.391688e-01 4.101170e-01
    outer loop
      vertex   9.157496e+00 5.052120e+00 5.049416e+00
      vertex   9.211485e+00 5.000000e+00 5.000000e+00
      vertex   9.160032e+00 5.093650e+00 5.000000e+00
    endloop
  endfacet
  facet normal 7.959555e-01 4.426848e-01 4.128984e-01
    outer loop
      vertex   9.157496e+00 5.052120e+00 5.049416e+00
      vertex   9.160032e+00 5.093650e+00 5.000000e+00
      vertex   9.122678e+00 5.114722e+00 5.049416e+00
    endloop
  endfacet
  facet normal 7.948305e-01 4.473033e-01 4.100784e-01
    outer loop
      vertex   9.122678e+00 5.114722e+00 5.049416e+00
      vertex   9.160032e+00 5.093650e+00 5.000000e+00
      vertex   9.107631e+00 5.186764e+00 5.000000e+00
    endloop
  endfacet
  facet normal 7.933040e-01 4.482785e-01 4.119650e-01
    outer loop
      vertex   9.122678e+00 5.114722e+00 5.049416e+00
      vertex   9.107631e+00 5.186764e+00 5.000000e+00
      vertex   9.088155e+00 5.175816e+00 5.049416e+00
    endloop
  endfacet
  facet normal 7.902582e-01 4.536381e-01 4.119519e-01
    outer loop
      vertex   9.088155e+00 5.175816e+00 5.049416e+00
      vertex   9.107631e+00 5.186764e+00 5.000000e+00
      vertex   9.052640e+00 5.237686e+00 5.049416e+00
    endloop
  endfacet
  facet normal 7.886443e-01 4.527116e-01 4.160437e-01
    outer loop
      vertex   9.088155e+00 5.175816e+00 5.049416e+00
      vertex   9.052640e+00 5.237686e+00 5.049416e+00
      vertex   9.068474e+00 5.164751e+00 5.098765e+00
    endloop
  endfacet
  facet normal 7.886390e-01 4.527149e-01 4.160501e-01
    outer loop
      vertex   9.068474e+00 5.164751e+00 5.098765e+00
      vertex   9.052640e+00 5.237686e+00 5.049416e+00
      vertex   9.033097e+00 5.226378e+00 5.098765e+00
    endloop
  endfacet
  facet normal 7.870101e-01 4.517798e-01 4.201310e-01
    outer loop
      vertex   9.068474e+00 5.164751e+00 5.098765e+00
      vertex   9.033097e+00 5.226378e+00 5.098765e+00
      vertex   9.048586e+00 5.153568e+00 5.148046e+00
    endloop
  endfacet
  facet normal 7.870048e-01 4.517830e-01 4.201375e-01
    outer loop
      vertex   9.048586e+00 5.153568e+00 5.148046e+00
      vertex   9.033097e+00 5.226378e+00 5.098765e+00
      vertex   9.013348e+00 5.214952e+00 5.148046e+00
    endloop
  endfacet
  facet normal 7.855464e-01 4.509458e-01 4.237509e-01
    outer loop
      vertex   9.048586e+00 5.153568e+00 5.148046e+00
      vertex   9.013348e+00 5.214952e+00 5.148046e+00
      vertex   9.000000e+00 5.189286e+00 5.200102e+00
    endloop
  endfacet
  facet normal 7.832556e-01 4.540381e-01 4.246881e-01
    outer loop
      vertex   9.000000e+00 5.189286e+00 5.200102e+00
      vertex   9.013348e+00 5.214952e+00 5.148046e+00
      vertex   9.000000e+00 5.235487e+00 5.150709e+00
    endloop
  endfacet
  facet normal 7.847869e-01 4.556234e-01 4.201391e-01
    outer loop
      vertex   9.000000e+00 5.235487e+00 5.150709e+00
      vertex   9.013348e+00 5.214952e+00 5.148046e+00
      vertex   9.033097e+00 5.226378e+00 5.098765e+00
    endloop
  endfacet
  facet normal 7.843085e-01 4.569386e-01 4.196036e-01
    outer loop
      vertex   9.000000e+00 5.235487e+00 5.150709e+00
      vertex   9.033097e+00 5.226378e+00 5.098765e+00
      vertex   9.000000e+00 5.281234e+00 5.100892e+00
    endloop
  endfacet
  facet normal 7.856485e-01 4.578848e-01 4.160504e-01
    outer loop
      vertex   9.000000e+00 5.281234e+00 5.100892e+00
      vertex   9.033097e+00 5.226378e+00 5.098765e+00
      vertex   9.052640e+00 5.237686e+00 5.049416e+00
    endloop
  endfacet
  facet normal 7.856289e-01 4.581088e-01 4.158408e-01
    outer loop
      vertex   9.000000e+00 5.281234e+00 5.100892e+00
      vertex   9.052640e+00 5.237686e+00 5.049416e+00
      vertex   9.016951e+00 5.298891e+00 5.049416e+00
    endloop
  endfacet
  facet normal 7.867940e-01 4.587882e-01 4.128784e-01
    outer loop
      vertex   9.016951e+00 5.298891e+00 5.049416e+00
      vertex   9.052640e+00 5.237686e+00 5.049416e+00
      vertex   9.054286e+00 5.279335e+00 5.000000e+00
    endloop
  endfacet
  facet normal 7.855378e-01 4.634091e-01 4.101005e-01
    outer loop
      vertex   9.016951e+00 5.298891e+00 5.049416e+00
      vertex   9.054286e+00 5.279335e+00 5.000000e+00
      vertex   9.000000e+00 5.371356e+00 5.000000e+00
    endloop
  endfacet
  facet normal 7.902152e-01 4.553743e-01 4.101149e-01
    outer loop
      vertex   9.107631e+00 5.186764e+00 5.000000e+00
      vertex   9.054286e+00 5.279335e+00 5.000000e+00
      vertex   9.052640e+00 5.237686e+00 5.049416e+00
    endloop
  endfacet
  facet normal 7.854823e-01 4.634427e-01 4.101689e-01
    outer loop
      vertex   9.000000e+00 5.371356e+00 5.000000e+00
      vertex   9.000000e+00 5.326524e+00 5.050654e+00
      vertex   9.016951e+00 5.298891e+00 5.049416e+00
    endloop
  endfacet
  facet normal 7.832257e-01 4.617831e-01 4.163099e-01
    outer loop
      vertex   9.016951e+00 5.298891e+00 5.049416e+00
      vertex   9.000000e+00 5.326524e+00 5.050654e+00
      vertex   9.000000e+00 5.281234e+00 5.100892e+00
    endloop
  endfacet
  facet normal 7.856237e-01 4.503736e-01 4.242157e-01
    outer loop
      vertex   9.048586e+00 5.153568e+00 5.148046e+00
      vertex   9.000000e+00 5.189286e+00 5.200102e+00
      vertex   9.028492e+00 5.142266e+00 5.197257e+00
    endloop
  endfacet
  facet normal 7.841834e-01 4.492698e-01 4.280338e-01
    outer loop
      vertex   9.028492e+00 5.142266e+00 5.197257e+00
      vertex   9.000000e+00 5.189286e+00 5.200102e+00
      vertex   9.000000e+00 5.142635e+00 5.249068e+00
    endloop
  endfacet
  facet normal 7.846502e-01 4.482018e-01 4.282981e-01
    outer loop
      vertex   9.028492e+00 5.142266e+00 5.197257e+00
      vertex   9.000000e+00 5.142635e+00 5.249068e+00
      vertex   9.008192e+00 5.130847e+00 5.246397e+00
    endloop
  endfacet
  facet normal 7.832444e-01 4.461657e-01 4.329716e-01
    outer loop
      vertex   9.008192e+00 5.130847e+00 5.246397e+00
      vertex   9.000000e+00 5.142635e+00 5.249068e+00
      vertex   9.000000e+00 5.095535e+00 5.297604e+00
    endloop
  endfacet
  facet normal 7.853143e-01 4.437885e-01 4.316634e-01
    outer loop
      vertex   9.008192e+00 5.130847e+00 5.246397e+00
      vertex   9.000000e+00 5.095535e+00 5.297604e+00
      vertex   9.042657e+00 5.069858e+00 5.246397e+00
    endloop
  endfacet
  facet normal 7.855251e-01 4.427229e-01 4.323734e-01
    outer loop
      vertex   9.042657e+00 5.069858e+00 5.246397e+00
      vertex   9.000000e+00 5.095535e+00 5.297604e+00
      vertex   9.022135e+00 5.058352e+00 5.295463e+00
    endloop
  endfacet
  facet normal 7.879373e-01 4.384163e-01 4.323724e-01
    outer loop
      vertex   9.042657e+00 5.069858e+00 5.246397e+00
      vertex   9.022135e+00 5.058352e+00 5.295463e+00
      vertex   9.054387e+00 5.000000e+00 5.295855e+00
    endloop
  endfacet
  facet normal 7.862082e-01 4.374880e-01 4.364411e-01
    outer loop
      vertex   9.054387e+00 5.000000e+00 5.295855e+00
      vertex   9.022135e+00 5.058352e+00 5.295463e+00
      vertex   9.001406e+00 5.046730e+00 5.344454e+00
    endloop
  endfacet
  facet normal 7.862348e-01 4.353600e-01 4.385163e-01
    outer loop
      vertex   9.054387e+00 5.000000e+00 5.295855e+00
      vertex   9.001406e+00 5.046730e+00 5.344454e+00
      vertex   9.000000e+00 5.000000e+00 5.393368e+00
    endloop
  endfacet
  facet normal 7.838720e-01 4.375609e-01 4.405510e-01
    outer loop
      vertex   9.000000e+00 5.000000e+00 5.393368e+00
      vertex   9.001406e+00 5.046730e+00 5.344454e+00
      vertex   9.000000e+00 5.047989e+00 5.345705e+00
    endloop
  endfacet
  facet normal 7.838782e-01 4.416482e-01 4.364422e-01
    outer loop
      vertex   9.000000e+00 5.047989e+00 5.345705e+00
      vertex   9.001406e+00 5.046730e+00 5.344454e+00
      vertex   9.022135e+00 5.058352e+00 5.295463e+00
    endloop
  endfacet
  facet normal 7.839359e-01 4.415424e-01 4.364457e-01
    outer loop
      vertex   9.000000e+00 5.047989e+00 5.345705e+00
      vertex   9.022135e+00 5.058352e+00 5.295463e+00
      vertex   9.000000e+00 5.095535e+00 5.297604e+00
    endloop
  endfacet
  facet normal 7.880953e-01 4.383131e-01 4.321891e-01
    outer loop
      vertex   9.042657e+00 5.069858e+00 5.246397e+00
      vertex   9.054387e+00 5.000000e+00 5.295855e+00
      vertex   9.077169e+00 5.007805e+00 5.246397e+00
    endloop
  endfacet
  facet normal 7.962413e-01 4.221107e-01 4.333847e-01
    outer loop
      vertex   9.077169e+00 5.007805e+00 5.246397e+00
      vertex   9.054387e+00 5.000000e+00 5.295855e+00
      vertex   9.107766e+00 5.000000e+00 5.197784e+00
    endloop
  endfacet
  facet normal 7.916391e-01 4.357364e-01 4.283005e-01
    outer loop
      vertex   9.077169e+00 5.007805e+00 5.246397e+00
      vertex   9.107766e+00 5.000000e+00 5.197784e+00
      vertex   9.097562e+00 5.019056e+00 5.197257e+00
    endloop
  endfacet
  facet normal 7.933813e-01 4.365566e-01 4.242221e-01
    outer loop
      vertex   9.097562e+00 5.019056e+00 5.197257e+00
      vertex   9.107766e+00 5.000000e+00 5.197784e+00
      vertex   9.117748e+00 5.030192e+00 5.148046e+00
    endloop
  endfacet
  facet normal 7.913953e-01 4.401485e-01 4.242203e-01
    outer loop
      vertex   9.097562e+00 5.019056e+00 5.197257e+00
      vertex   9.117748e+00 5.030192e+00 5.148046e+00
      vertex   9.062973e+00 5.081248e+00 5.197257e+00
    endloop
  endfacet
  facet normal 7.913953e-01 4.401485e-01 4.242203e-01
    outer loop
      vertex   9.062973e+00 5.081248e+00 5.197257e+00
      vertex   9.117748e+00 5.030192e+00 5.148046e+00
      vertex   9.083082e+00 5.092522e+00 5.148046e+00
    endloop
  endfacet
  facet normal 7.883878e-01 4.455129e-01 4.242204e-01
    outer loop
      vertex   9.062973e+00 5.081248e+00 5.197257e+00
      vertex   9.083082e+00 5.092522e+00 5.148046e+00
      vertex   9.048586e+00 5.153568e+00 5.148046e+00
    endloop
  endfacet
  facet normal 7.900407e-01 4.464470e-01 4.201439e-01
    outer loop
      vertex   9.048586e+00 5.153568e+00 5.148046e+00
      vertex   9.083082e+00 5.092522e+00 5.148046e+00
      vertex   9.068474e+00 5.164751e+00 5.098765e+00
    endloop
  endfacet
  facet normal 7.960500e-01 4.331636e-01 4.226981e-01
    outer loop
      vertex   9.107766e+00 5.000000e+00 5.197784e+00
      vertex   9.160133e+00 5.000000e+00 5.099163e+00
      vertex   9.117748e+00 5.030192e+00 5.148046e+00
    endloop
  endfacet
  facet normal 7.955356e-01 4.365853e-01 4.201386e-01
    outer loop
      vertex   9.117748e+00 5.030192e+00 5.148046e+00
      vertex   9.160133e+00 5.000000e+00 5.099163e+00
      vertex   9.137726e+00 5.041213e+00 5.098765e+00
    endloop
  endfacet
  facet normal 7.930570e-01 4.410727e-01 4.201374e-01
    outer loop
      vertex   9.117748e+00 5.030192e+00 5.148046e+00
      vertex   9.137726e+00 5.041213e+00 5.098765e+00
      vertex   9.083082e+00 5.092522e+00 5.148046e+00
    endloop
  endfacet
  facet normal 7.930570e-01 4.410727e-01 4.201374e-01
    outer loop
      vertex   9.083082e+00 5.092522e+00 5.148046e+00
      vertex   9.137726e+00 5.041213e+00 5.098765e+00
      vertex   9.102984e+00 5.103680e+00 5.098765e+00
    endloop
  endfacet
  facet normal 7.900459e-01 4.464437e-01 4.201375e-01
    outer loop
      vertex   9.083082e+00 5.092522e+00 5.148046e+00
      vertex   9.102984e+00 5.103680e+00 5.098765e+00
      vertex   9.068474e+00 5.164751e+00 5.098765e+00
    endloop
  endfacet
  facet normal 7.916811e-01 4.473677e-01 4.160566e-01
    outer loop
      vertex   9.068474e+00 5.164751e+00 5.098765e+00
      vertex   9.102984e+00 5.103680e+00 5.098765e+00
      vertex   9.088155e+00 5.175816e+00 5.049416e+00
    endloop
  endfacet
  facet normal 7.972050e-01 4.374535e-01 4.160512e-01
    outer loop
      vertex   9.137726e+00 5.041213e+00 5.098765e+00
      vertex   9.160133e+00 5.000000e+00 5.099163e+00
      vertex   9.157496e+00 5.052120e+00 5.049416e+00
    endloop
  endfacet
  facet normal 7.947010e-01 4.419871e-01 4.160501e-01
    outer loop
      vertex   9.102984e+00 5.103680e+00 5.098765e+00
      vertex   9.137726e+00 5.041213e+00 5.098765e+00
      vertex   9.157496e+00 5.052120e+00 5.049416e+00
    endloop
  endfacet
  facet normal 7.897158e-01 4.392144e-01 4.282986e-01
    outer loop
      vertex   9.042657e+00 5.069858e+00 5.246397e+00
      vertex   9.077169e+00 5.007805e+00 5.246397e+00
      vertex   9.097562e+00 5.019056e+00 5.197257e+00
    endloop
  endfacet
  facet normal 7.897158e-01 4.392144e-01 4.282986e-01
    outer loop
      vertex   9.042657e+00 5.069858e+00 5.246397e+00
      vertex   9.097562e+00 5.019056e+00 5.197257e+00
      vertex   9.062973e+00 5.081248e+00 5.197257e+00
    endloop
  endfacet
  facet normal 7.916864e-01 4.473644e-01 4.160502e-01
    outer loop
      vertex   9.088155e+00 5.175816e+00 5.049416e+00
      vertex   9.102984e+00 5.103680e+00 5.098765e+00
      vertex   9.122678e+00 5.114722e+00 5.049416e+00
    endloop
  endfacet
  facet normal 7.947010e-01 4.419871e-01 4.160501e-01
    outer loop
      vertex   9.122678e+00 5.114722e+00 5.049416e+00
      vertex   9.102984e+00 5.103680e+00 5.098765e+00
      vertex   9.157496e+00 5.052120e+00 5.049416e+00
    endloop
  endfacet
  facet normal 7.883826e-01 4.455162e-01 4.242267e-01
    outer loop
      vertex   9.048586e+00 5.153568e+00 5.148046e+00
      vertex   9.028492e+00 5.142266e+00 5.197257e+00
      vertex   9.062973e+00 5.081248e+00 5.197257e+00
    endloop
  endfacet
  facet normal 7.867120e-01 4.445722e-01 4.282987e-01
    outer loop
      vertex   9.062973e+00 5.081248e+00 5.197257e+00
      vertex   9.028492e+00 5.142266e+00 5.197257e+00
      vertex   9.042657e+00 5.069858e+00 5.246397e+00
    endloop
  endfacet
  facet normal 7.867068e-01 4.445754e-01 4.283049e-01
    outer loop
      vertex   9.042657e+00 5.069858e+00 5.246397e+00
      vertex   9.028492e+00 5.142266e+00 5.197257e+00
      vertex   9.008192e+00 5.130847e+00 5.246397e+00
    endloop
  endfacet
  facet normal -1.000000e+00 0.000000e+00 0.000000e+00
    outer loop
      vertex   9.000000e+00 5.000000e+00 5.393368e+00
      vertex   9.000000e+00 5.047989e+00 5.345705e+00
      vertex   9.000000e+00 5.000000e+00 5.000000e+00
    endloop
  endfacet
  facet normal -1.000000e+00 0.000000e+00 0.000000e+00
    outer loop
      vertex   9.000000e+00 5.000000e+00 5.000000e+00
      vertex   9.000000e+00 5.047989e+00 5.345705e+00
      vertex   9.000000e+00 5.095535e+00 5.297604e+00
    endloop
  endfacet
  facet normal -1.000000e+00 0.000000e+00 0.000000e+00
    outer loop
      vertex   9.000000e+00 5.000000e+00 5.000000e+00
      vertex   9.000000e+00 5.095535e+00 5.297604e+00
      vertex   9.000000e+00 5.142635e+00 5.249068e+00
    endloop
  endfacet
  facet normal -1.000000e+00 2.378209e-14 -1.361937e-14
    outer loop
      vertex   9.000000e+00 5.142635e+00 5.249068e+00
      vertex   9.000000e+00 5.189286e+00 5.200102e+00
      vertex   9.000000e+00 5.000000e+00 5.000000e+00
    endloop
  endfacet
  facet normal -1.000000e+00 -1.439759e-14 2.249660e-14
    outer loop
      vertex   9.000000e+00 5.000000e+00 5.000000e+00
      vertex   9.000000e+00 5.189286e+00 5.200102e+00
      vertex   9.000000e+00 5.235487e+00 5.150709e+00
    endloop
  endfacet
  facet normal -1.000000e+00 0.000000e+00 0.000000e+00
    outer loop
      vertex   9.000000e+00 5.000000e+00 5.000000e+00
      vertex   9.000000e+00 5.235487e+00 5.150709e+00
      vertex   9.000000e+00 5.281234e+00 5.100892e+00
    endloop
  endfacet
  facet normal -1.000000e+00 0.000000e+00 -0.000000e+00
    outer loop
      vertex   9.000000e+00 5.281234e+00 5.100892e+00
      vertex   9.000000e+00 5.326524e+00 5.050654e+00
      vertex   9.000000e+00 5.000000e+00 5.000000e+00
    endloop
  endfacet
  facet normal -1.000000e+00 0.000000e+00 0.000000e+00
    outer loop
      vertex   9.000000e+00 5.000000e+00 5.000000e+00
      vertex   9.000000e+00 5.326524e+00 5.050654e+00
      vertex   9.000000e+00 5.371356e+00 5.000000e+00
    endloop
  endfacet
  facet normal 0.000000e+00 0.000000e+00 -1.000000e+00
    outer loop
      vertex   9.000000e+00 5.371356e+00 5.000000e+00
      vertex   9.054286e+00 5.279335e+00 5.000000e+00
      vertex   9.000000e+00 5.000000e+00 5.000000e+00
    endloop
  endfacet
  facet normal 0.000000e+00 0.000000e+00 -1.000000e+00
    outer loop
      vertex   9.000000e+00 5.000000e+00 5.000000e+00
      vertex   9.054286e+00 5.279335e+00 5.000000e+00
      vertex   9.107631e+00 5.186764e+00 5.000000e+00
    endloop
  endfacet
  facet normal 0.000000e+00 0.000000e+00 -1.000000e+00
    outer loop
      vertex   9.000000e+00 5.000000e+00 5.000000e+00
      vertex   9.107631e+00 5.186764e+00 5.000000e+00
      vertex   9.160032e+00 5.093650e+00 5.000000e+00
    endloop
  endfacet
  facet normal 0.000000e+00 -0.000000e+00 -1.000000e+00
    outer loop
      vertex   9.160032e+00 5.093650e+00 5.000000e+00
      vertex   9.211485e+00 5.000000e+00 5.000000e+00
      vertex   9.000000e+00 5.000000e+00 5.000000e+00
    endloop
  endfacet
  facet normal 0.000000e+00 -1.000000e+00 0.000000e+00
    outer loop
      vertex   9.211485e+00 5.000000e+00 5.000000e+00
      vertex   9.160133e+00 5.000000e+00 5.099163e+00
      vertex   9.000000e+00 5.000000e+00 5.000000e+00
    endloop
  endfacet
  facet normal 0.000000e+00 -1.000000e+00 0.000000e+00
    outer loop
      vertex   9.000000e+00 5.000000e+00 5.000000e+00
      vertex   9.160133e+00 5.000000e+00 5.099163e+00
      vertex   9.107766e+00 5.000000e+00 5.197784e+00
    endloop
  endfacet
  facet normal 0.000000e+00 -1.000000e+00 0.000000e+00
    outer loop
      vertex   9.000000e+00 5.000000e+00 5.000000e+00
      vertex   9.107766e+00 5.000000e+00 5.197784e+00
      vertex   9.054387e+00 5.000000e+00 5.295855e+00
    endloop
  endfacet
  facet normal -0.000000e+00 -1.000000e+00 0.000000e+00
    outer loop
      vertex   9.054387e+00 5.000000e+00 5.295855e+00
      vertex   9.000000e+00 5.000000e+00 5.393368e+00
      vertex   9.000000e+00 5.000000e+00 5.000000e+00
    endloop
  endfacet
endsolid
