solid ASCII
  facet normal -2.157011e-01 7.874827e-01 -5.773596e-01
    outer loop
      vertex   -2.498493e+00 9.000000e+00 -7.000000e+00
      vertex   -2.436572e+00 9.016961e+00 -7.000000e+00
      vertex   -2.436855e+00 9.000000e+00 -7.023028e+00
    endloop
  endfacet
  facet normal -2.101441e-01 7.884251e-01 -5.781222e-01
    outer loop
      vertex   -2.436855e+00 9.000000e+00 -7.023028e+00
      vertex   -2.436572e+00 9.016961e+00 -7.000000e+00
      vertex   -2.374535e+00 9.033496e+00 -7.000000e+00
    endloop
  endfacet
  facet normal -2.099870e-01 7.882945e-01 -5.783574e-01
    outer loop
      vertex   -2.436855e+00 9.000000e+00 -7.023028e+00
      vertex   -2.374535e+00 9.033496e+00 -7.000000e+00
      vertex   -2.375018e+00 9.000000e+00 -7.045479e+00
    endloop
  endfacet
  facet normal -2.045496e-01 7.891946e-01 -5.790780e-01
    outer loop
      vertex   -2.375018e+00 9.000000e+00 -7.045479e+00
      vertex   -2.374535e+00 9.033496e+00 -7.000000e+00
      vertex   -2.312384e+00 9.049605e+00 -7.000000e+00
    endloop
  endfacet
  facet normal -2.042804e-01 7.890822e-01 -5.793262e-01
    outer loop
      vertex   -2.375018e+00 9.000000e+00 -7.045479e+00
      vertex   -2.312384e+00 9.049605e+00 -7.000000e+00
      vertex   -2.312984e+00 9.000000e+00 -7.067353e+00
    endloop
  endfacet
  facet normal -1.989586e-01 7.899417e-01 -5.800066e-01
    outer loop
      vertex   -2.312984e+00 9.000000e+00 -7.067353e+00
      vertex   -2.312384e+00 9.049605e+00 -7.000000e+00
      vertex   -2.250122e+00 9.065286e+00 -7.000000e+00
    endloop
  endfacet
  facet normal -1.985810e-01 7.898460e-01 -5.802663e-01
    outer loop
      vertex   -2.312984e+00 9.000000e+00 -7.067353e+00
      vertex   -2.250122e+00 9.065286e+00 -7.000000e+00
      vertex   -2.250757e+00 9.000000e+00 -7.088649e+00
    endloop
  endfacet
  facet normal -1.954387e-01 7.903437e-01 -5.806553e-01
    outer loop
      vertex   -2.250757e+00 9.000000e+00 -7.088649e+00
      vertex   -2.250122e+00 9.065286e+00 -7.000000e+00
      vertex   -2.195415e+00 9.016915e+00 -7.084253e+00
    endloop
  endfacet
  facet normal -1.941832e-01 7.873853e-01 -5.850789e-01
    outer loop
      vertex   -2.250757e+00 9.000000e+00 -7.088649e+00
      vertex   -2.195415e+00 9.016915e+00 -7.084253e+00
      vertex   -2.188342e+00 9.000000e+00 -7.109364e+00
    endloop
  endfacet
  facet normal -1.888865e-01 7.889816e-01 -5.846622e-01
    outer loop
      vertex   -2.188342e+00 9.000000e+00 -7.109364e+00
      vertex   -2.195415e+00 9.016915e+00 -7.084253e+00
      vertex   -2.125963e+00 9.033542e+00 -7.084253e+00
    endloop
  endfacet
  facet normal -1.883033e-01 7.885118e-01 -5.854835e-01
    outer loop
      vertex   -2.188342e+00 9.000000e+00 -7.109364e+00
      vertex   -2.125963e+00 9.033542e+00 -7.084253e+00
      vertex   -2.125741e+00 9.000000e+00 -7.129498e+00
    endloop
  endfacet
  facet normal -1.841224e-01 7.891582e-01 -5.859422e-01
    outer loop
      vertex   -2.125741e+00 9.000000e+00 -7.129498e+00
      vertex   -2.125963e+00 9.033542e+00 -7.084253e+00
      vertex   -2.091247e+00 9.041642e+00 -7.084253e+00
    endloop
  endfacet
  facet normal -1.827187e-01 7.888797e-01 -5.867561e-01
    outer loop
      vertex   -2.125741e+00 9.000000e+00 -7.129498e+00
      vertex   -2.091247e+00 9.041642e+00 -7.084253e+00
      vertex   -2.062959e+00 9.000000e+00 -7.149048e+00
    endloop
  endfacet
  facet normal -1.810135e-01 7.895201e-01 -5.864232e-01
    outer loop
      vertex   -2.062959e+00 9.000000e+00 -7.149048e+00
      vertex   -2.091247e+00 9.041642e+00 -7.084253e+00
      vertex   -2.056538e+00 9.049599e+00 -7.084253e+00
    endloop
  endfacet
  facet normal -1.778981e-01 7.898252e-01 -5.869655e-01
    outer loop
      vertex   -2.062959e+00 9.000000e+00 -7.149048e+00
      vertex   -2.056538e+00 9.049599e+00 -7.084253e+00
      vertex   -2.021837e+00 9.057415e+00 -7.084253e+00
    endloop
  endfacet
  facet normal -1.789404e-01 7.944530e-01 -5.803661e-01
    outer loop
      vertex   -2.021837e+00 9.057415e+00 -7.084253e+00
      vertex   -2.056538e+00 9.049599e+00 -7.084253e+00
      vertex   -2.062687e+00 9.109763e+00 -7.000000e+00
    endloop
  endfacet
  facet normal -1.771723e-01 7.951560e-01 -5.799456e-01
    outer loop
      vertex   -2.021837e+00 9.057415e+00 -7.084253e+00
      vertex   -2.062687e+00 9.109763e+00 -7.000000e+00
      vertex   -2.000000e+00 9.123731e+00 -7.000000e+00
    endloop
  endfacet
  facet normal -1.935294e-01 7.913141e-01 -5.799727e-01
    outer loop
      vertex   -2.250122e+00 9.065286e+00 -7.000000e+00
      vertex   -2.187750e+00 9.080540e+00 -7.000000e+00
      vertex   -2.195415e+00 9.016915e+00 -7.084253e+00
    endloop
  endfacet
  facet normal -1.895524e-01 7.917628e-01 -5.806734e-01
    outer loop
      vertex   -2.195415e+00 9.016915e+00 -7.084253e+00
      vertex   -2.187750e+00 9.080540e+00 -7.000000e+00
      vertex   -2.125963e+00 9.033542e+00 -7.084253e+00
    endloop
  endfacet
  facet normal -1.880733e-01 7.925772e-01 -5.800430e-01
    outer loop
      vertex   -2.187750e+00 9.080540e+00 -7.000000e+00
      vertex   -2.125271e+00 9.095366e+00 -7.000000e+00
      vertex   -2.125963e+00 9.033542e+00 -7.084253e+00
    endloop
  endfacet
  facet normal -1.850262e-01 7.930317e-01 -5.804016e-01
    outer loop
      vertex   -2.125963e+00 9.033542e+00 -7.084253e+00
      vertex   -2.125271e+00 9.095366e+00 -7.000000e+00
      vertex   -2.091247e+00 9.041642e+00 -7.084253e+00
    endloop
  endfacet
  facet normal -1.826294e-01 7.938931e-01 -5.799829e-01
    outer loop
      vertex   -2.125271e+00 9.095366e+00 -7.000000e+00
      vertex   -2.062687e+00 9.109763e+00 -7.000000e+00
      vertex   -2.091247e+00 9.041642e+00 -7.084253e+00
    endloop
  endfacet
  facet normal -1.820146e-01 7.938862e-01 -5.801857e-01
    outer loop
      vertex   -2.091247e+00 9.041642e+00 -7.084253e+00
      vertex   -2.062687e+00 9.109763e+00 -7.000000e+00
      vertex   -2.056538e+00 9.049599e+00 -7.084253e+00
    endloop
  endfacet
  facet normal -1.764881e-01 7.951705e-01 -5.801344e-01
    outer loop
      vertex   -2.000000e+00 9.123731e+00 -7.000000e+00
      vertex   -2.000000e+00 9.062240e+00 -7.084284e+00
      vertex   -2.021837e+00 9.057415e+00 -7.084253e+00
    endloop
  endfacet
  facet normal -1.753828e-01 7.901216e-01 -5.873234e-01
    outer loop
      vertex   -2.021837e+00 9.057415e+00 -7.084253e+00
      vertex   -2.000000e+00 9.062240e+00 -7.084284e+00
      vertex   -2.000000e+00 9.000000e+00 -7.168014e+00
    endloop
  endfacet
  facet normal -1.769617e-01 7.896856e-01 -5.874361e-01
    outer loop
      vertex   -2.021837e+00 9.057415e+00 -7.084253e+00
      vertex   -2.000000e+00 9.000000e+00 -7.168014e+00
      vertex   -2.062959e+00 9.000000e+00 -7.149048e+00
    endloop
  endfacet
  facet normal 1.000000e+00 0.000000e+00 0.000000e+00
    outer loop
      vertex   -2.000000e+00 9.000000e+00 -7.168014e+00
      vertex   -2.000000e+00 9.062240e+00 -7.084284e+00
      vertex   -2.000000e+00 9.000000e+00 -7.000000e+00
    endloop
  endfacet
  facet normal 1.000000e+00 -0.000000e+00 0.000000e+00
    outer loop
      vertex   -2.000000e+00 9.000000e+00 -7.000000e+00
      vertex   -2.000000e+00 9.062240e+00 -7.084284e+00
      vertex   -2.000000e+00 9.123731e+00 -7.000000e+00
    endloop
  endfacet
  facet normal 0.000000e+00 0.000000e+00 1.000000e+00
    outer loop
      vertex   -2.000000e+00 9.123731e+00 -7.000000e+00
      vertex   -2.062687e+00 9.109763e+00 -7.000000e+00
      vertex   -2.000000e+00 9.000000e+00 -7.000000e+00
    endloop
  endfacet
  facet normal 2.508751e-14 1.432774e-14 1.000000e+00
    outer loop
      vertex   -2.000000e+00 9.000000e+00 -7.000000e+00
      vertex   -2.062687e+00 9.109763e+00 -7.000000e+00
      vertex   -2.125271e+00 9.095366e+00 -7.000000e+00
    endloop
  endfacet
  facet normal -1.830539e-14 -4.267225e-14 1.000000e+00
    outer loop
      vertex   -2.000000e+00 9.000000e+00 -7.000000e+00
      vertex   -2.125271e+00 9.095366e+00 -7.000000e+00
      vertex   -2.187750e+00 9.080540e+00 -7.000000e+00
    endloop
  endfacet
  facet normal 0.000000e+00 0.000000e+00 1.000000e+00
    outer loop
      vertex   -2.187750e+00 9.080540e+00 -7.000000e+00
      vertex   -2.250122e+00 9.065286e+00 -7.000000e+00
      vertex   -2.000000e+00 9.000000e+00 -7.000000e+00
    endloop
  endfacet
  facet normal 0.000000e+00 0.000000e+00 1.000000e+00
    outer loop
      vertex   -2.000000e+00 9.000000e+00 -7.000000e+00
      vertex   -2.250122e+00 9.065286e+00 -7.000000e+00
      vertex   -2.312384e+00 9.049605e+00 -7.000000e+00
    endloop
  endfacet
  facet normal 0.000000e+00 0.000000e+00 1.000000e+00
    outer loop
      vertex   -2.000000e+00 9.000000e+00 -7.000000e+00
      vertex   -2.312384e+00 9.049605e+00 -7.000000e+00
      vertex   -2.374535e+00 9.033496e+00 -7.000000e+00
    endloop
  endfacet
  facet normal 0.000000e+00 0.000000e+00 1.000000e+00
    outer loop
      vertex   -2.374535e+00 9.033496e+00 -7.000000e+00
      vertex   -2.436572e+00 9.016961e+00 -7.000000e+00
      vertex   -2.000000e+00 9.000000e+00 -7.000000e+00
    endloop
  endfacet
  facet normal 0.000000e+00 0.000000e+00 1.000000e+00
    outer loop
      vertex   -2.000000e+00 9.000000e+00 -7.000000e+00
      vertex   -2.436572e+00 9.016961e+00 -7.000000e+00
      vertex   -2.498493e+00 9.000000e+00 -7.000000e+00
    endloop
  endfacet
  facet normal 0.000000e+00 -1.000000e+00 0.000000e+00
    outer loop
      vertex   -2.498493e+00 9.000000e+00 -7.000000e+00
      vertex   -2.436855e+00 9.000000e+00 -7.023028e+00
      vertex   -2.000000e+00 9.000000e+00 -7.000000e+00
    endloop
  endfacet
  facet normal 0.000000e+00 -1.000000e+00 0.000000e+00
    outer loop
      vertex   -2.000000e+00 9.000000e+00 -7.000000e+00
      vertex   -2.436855e+00 9.000000e+00 -7.023028e+00
      vertex   -2.375018e+00 9.000000e+00 -7.045479e+00
    endloop
  endfacet
  facet normal 7.327986e-15 -1.000000e+00 -6.042600e-14
    outer loop
      vertex   -2.000000e+00 9.000000e+00 -7.000000e+00
      vertex   -2.375018e+00 9.000000e+00 -7.045479e+00
      vertex   -2.312984e+00 9.000000e+00 -7.067353e+00
    endloop
  endfacet
  facet normal -1.450511e-14 -1.000000e+00 4.103000e-14
    outer loop
      vertex   -2.312984e+00 9.000000e+00 -7.067353e+00
      vertex   -2.250757e+00 9.000000e+00 -7.088649e+00
      vertex   -2.000000e+00 9.000000e+00 -7.000000e+00
    endloop
  endfacet
  facet normal 1.467920e-14 -1.000000e+00 -4.152242e-14
    outer loop
      vertex   -2.000000e+00 9.000000e+00 -7.000000e+00
      vertex   -2.250757e+00 9.000000e+00 -7.088649e+00
      vertex   -2.188342e+00 9.000000e+00 -7.109364e+00
    endloop
  endfacet
  facet normal -2.162328e-14 -1.000000e+00 2.099603e-14
    outer loop
      vertex   -2.000000e+00 9.000000e+00 -7.000000e+00
      vertex   -2.188342e+00 9.000000e+00 -7.109364e+00
      vertex   -2.125741e+00 9.000000e+00 -7.129498e+00
    endloop
  endfacet
  facet normal 0.000000e+00 -1.000000e+00 0.000000e+00
    outer loop
      vertex   -2.125741e+00 9.000000e+00 -7.129498e+00
      vertex   -2.062959e+00 9.000000e+00 -7.149048e+00
      vertex   -2.000000e+00 9.000000e+00 -7.000000e+00
    endloop
  endfacet
  facet normal 0.000000e+00 -1.000000e+00 -0.000000e+00
    outer loop
      vertex   -2.000000e+00 9.000000e+00 -7.000000e+00
      vertex   -2.062959e+00 9.000000e+00 -7.149048e+00
      vertex   -2.000000e+00 9.000000e+00 -7.168014e+00
    endloop
  endfacet
endsolid
