solid ASCII
  facet normal -1.543399e-01 5.255519e-01 -8.366447e-01
    outer loop
      vertex   -1.788393e+00 6.000000e+00 -1.000000e+01
      vertex   -1.739859e+00 6.014253e+00 -1.000000e+01
      vertex   -1.690408e+00 6.000000e+00 -1.001808e+01
    endloop
  endfacet
  facet normal -1.514369e-01 5.315129e-01 -8.334032e-01
    outer loop
      vertex   -1.690408e+00 6.000000e+00 -1.001808e+01
      vertex   -1.739859e+00 6.014253e+00 -1.000000e+01
      vertex   -1.691215e+00 6.028112e+00 -1.000000e+01
    endloop
  endfacet
  facet normal -1.480934e-01 5.318549e-01 -8.337858e-01
    outer loop
      vertex   -1.690408e+00 6.000000e+00 -1.001808e+01
      vertex   -1.691215e+00 6.028112e+00 -1.000000e+01
      vertex   -1.652327e+00 6.015901e+00 -1.001470e+01
    endloop
  endfacet
  facet normal -1.473134e-01 5.333530e-01 -8.329666e-01
    outer loop
      vertex   -1.652327e+00 6.015901e+00 -1.001470e+01
      vertex   -1.691215e+00 6.028112e+00 -1.000000e+01
      vertex   -1.642464e+00 6.041578e+00 -1.000000e+01
    endloop
  endfacet
  facet normal -1.431908e-01 5.324947e-01 -8.342337e-01
    outer loop
      vertex   -1.652327e+00 6.015901e+00 -1.001470e+01
      vertex   -1.642464e+00 6.041578e+00 -1.000000e+01
      vertex   -1.587760e+00 6.033263e+00 -1.001470e+01
    endloop
  endfacet
  facet normal -1.427971e-01 5.337668e-01 -8.334879e-01
    outer loop
      vertex   -1.587760e+00 6.033263e+00 -1.001470e+01
      vertex   -1.642464e+00 6.041578e+00 -1.000000e+01
      vertex   -1.593608e+00 6.054648e+00 -1.000000e+01
    endloop
  endfacet
  facet normal -1.384882e-01 5.349314e-01 -8.334683e-01
    outer loop
      vertex   -1.587760e+00 6.033263e+00 -1.001470e+01
      vertex   -1.593608e+00 6.054648e+00 -1.000000e+01
      vertex   -1.544648e+00 6.067323e+00 -1.000000e+01
    endloop
  endfacet
  facet normal -1.374434e-01 5.339539e-01 -8.342677e-01
    outer loop
      vertex   -1.587760e+00 6.033263e+00 -1.001470e+01
      vertex   -1.544648e+00 6.067323e+00 -1.000000e+01
      vertex   -1.522566e+00 6.050045e+00 -1.001470e+01
    endloop
  endfacet
  facet normal -1.343515e-01 5.367867e-01 -8.329524e-01
    outer loop
      vertex   -1.522566e+00 6.050045e+00 -1.001470e+01
      vertex   -1.544648e+00 6.067323e+00 -1.000000e+01
      vertex   -1.495588e+00 6.079602e+00 -1.000000e+01
    endloop
  endfacet
  facet normal -1.315512e-01 5.350181e-01 -8.345357e-01
    outer loop
      vertex   -1.522566e+00 6.050045e+00 -1.001470e+01
      vertex   -1.495588e+00 6.079602e+00 -1.000000e+01
      vertex   -1.456613e+00 6.066261e+00 -1.001470e+01
    endloop
  endfacet
  facet normal -1.300032e-01 5.378213e-01 -8.329750e-01
    outer loop
      vertex   -1.456613e+00 6.066261e+00 -1.001470e+01
      vertex   -1.495588e+00 6.079602e+00 -1.000000e+01
      vertex   -1.446431e+00 6.091485e+00 -1.000000e+01
    endloop
  endfacet
  facet normal -1.258340e-01 5.368688e-01 -8.342288e-01
    outer loop
      vertex   -1.456613e+00 6.066261e+00 -1.001470e+01
      vertex   -1.446431e+00 6.091485e+00 -1.000000e+01
      vertex   -1.390691e+00 6.081713e+00 -1.001470e+01
    endloop
  endfacet
  facet normal -1.254567e-01 5.380052e-01 -8.335532e-01
    outer loop
      vertex   -1.390691e+00 6.081713e+00 -1.001470e+01
      vertex   -1.446431e+00 6.091485e+00 -1.000000e+01
      vertex   -1.397177e+00 6.102970e+00 -1.000000e+01
    endloop
  endfacet
  facet normal -1.211551e-01 5.392166e-01 -8.334068e-01
    outer loop
      vertex   -1.390691e+00 6.081713e+00 -1.001470e+01
      vertex   -1.397177e+00 6.102970e+00 -1.000000e+01
      vertex   -1.347831e+00 6.114057e+00 -1.000000e+01
    endloop
  endfacet
  facet normal -1.199807e-01 5.380732e-01 -8.343152e-01
    outer loop
      vertex   -1.390691e+00 6.081713e+00 -1.001470e+01
      vertex   -1.347831e+00 6.114057e+00 -1.000000e+01
      vertex   -1.324810e+00 6.096403e+00 -1.001470e+01
    endloop
  endfacet
  facet normal -1.169465e-01 5.408777e-01 -8.329314e-01
    outer loop
      vertex   -1.324810e+00 6.096403e+00 -1.001470e+01
      vertex   -1.347831e+00 6.114057e+00 -1.000000e+01
      vertex   -1.298394e+00 6.124747e+00 -1.000000e+01
    endloop
  endfacet
  facet normal -1.140993e-01 5.390444e-01 -8.345133e-01
    outer loop
      vertex   -1.324810e+00 6.096403e+00 -1.001470e+01
      vertex   -1.298394e+00 6.124747e+00 -1.000000e+01
      vertex   -1.258984e+00 6.110336e+00 -1.001470e+01
    endloop
  endfacet
  facet normal -1.125546e-01 5.417165e-01 -8.329914e-01
    outer loop
      vertex   -1.258984e+00 6.110336e+00 -1.001470e+01
      vertex   -1.298394e+00 6.124747e+00 -1.000000e+01
      vertex   -1.248868e+00 6.135037e+00 -1.000000e+01
    endloop
  endfacet
  facet normal -1.083847e-01 5.407218e-01 -8.341898e-01
    outer loop
      vertex   -1.258984e+00 6.110336e+00 -1.001470e+01
      vertex   -1.248868e+00 6.135037e+00 -1.000000e+01
      vertex   -1.193224e+00 6.123517e+00 -1.001470e+01
    endloop
  endfacet
  facet normal -1.080050e-01 5.417597e-01 -8.335655e-01
    outer loop
      vertex   -1.193224e+00 6.123517e+00 -1.001470e+01
      vertex   -1.248868e+00 6.135037e+00 -1.000000e+01
      vertex   -1.199257e+00 6.144927e+00 -1.000000e+01
    endloop
  endfacet
  facet normal -1.036716e-01 5.428648e-01 -8.333967e-01
    outer loop
      vertex   -1.193224e+00 6.123517e+00 -1.001470e+01
      vertex   -1.199257e+00 6.144927e+00 -1.000000e+01
      vertex   -1.149562e+00 6.154418e+00 -1.000000e+01
    endloop
  endfacet
  facet normal -1.025461e-01 5.417008e-01 -8.342929e-01
    outer loop
      vertex   -1.193224e+00 6.123517e+00 -1.001470e+01
      vertex   -1.149562e+00 6.154418e+00 -1.000000e+01
      vertex   -1.127543e+00 6.135951e+00 -1.001470e+01
    endloop
  endfacet
  facet normal -9.940559e-02 5.443664e-01 -8.329368e-01
    outer loop
      vertex   -1.127543e+00 6.135951e+00 -1.001470e+01
      vertex   -1.149562e+00 6.154418e+00 -1.000000e+01
      vertex   -1.099786e+00 6.163507e+00 -1.000000e+01
    endloop
  endfacet
  facet normal -9.840269e-02 5.436642e-01 -8.335144e-01
    outer loop
      vertex   -1.127543e+00 6.135951e+00 -1.001470e+01
      vertex   -1.099786e+00 6.163507e+00 -1.000000e+01
      vertex   -1.094735e+00 6.141889e+00 -1.001470e+01
    endloop
  endfacet
  facet normal -9.551710e-02 5.442893e-01 -8.334421e-01
    outer loop
      vertex   -1.094735e+00 6.141889e+00 -1.001470e+01
      vertex   -1.099786e+00 6.163507e+00 -1.000000e+01
      vertex   -1.061950e+00 6.147643e+00 -1.001470e+01
    endloop
  endfacet
  facet normal -9.517431e-02 5.423359e-01 -8.347536e-01
    outer loop
      vertex   -1.094735e+00 6.141889e+00 -1.001470e+01
      vertex   -1.061950e+00 6.147643e+00 -1.001470e+01
      vertex   -1.058172e+00 6.125771e+00 -1.002934e+01
    endloop
  endfacet
  facet normal -9.228189e-02 5.428355e-01 -8.347536e-01
    outer loop
      vertex   -1.058172e+00 6.125771e+00 -1.002934e+01
      vertex   -1.061950e+00 6.147643e+00 -1.001470e+01
      vertex   -1.025530e+00 6.131320e+00 -1.002934e+01
    endloop
  endfacet
  facet normal -9.195854e-02 5.409335e-01 -8.360231e-01
    outer loop
      vertex   -1.058172e+00 6.125771e+00 -1.002934e+01
      vertex   -1.025530e+00 6.131320e+00 -1.002934e+01
      vertex   -1.021864e+00 6.109402e+00 -1.004392e+01
    endloop
  endfacet
  facet normal -8.643615e-02 5.418530e-01 -8.360168e-01
    outer loop
      vertex   -1.021864e+00 6.109402e+00 -1.004392e+01
      vertex   -1.025530e+00 6.131320e+00 -1.002934e+01
      vertex   -1.000000e+00 6.090513e+00 -1.005843e+01
    endloop
  endfacet
  facet normal -8.939569e-02 5.394037e-01 -8.372885e-01
    outer loop
      vertex   -1.021864e+00 6.109402e+00 -1.004392e+01
      vertex   -1.000000e+00 6.090513e+00 -1.005843e+01
      vertex   -1.018193e+00 6.087457e+00 -1.005845e+01
    endloop
  endfacet
  facet normal -8.891219e-02 5.365414e-01 -8.391770e-01
    outer loop
      vertex   -1.018193e+00 6.087457e+00 -1.005845e+01
      vertex   -1.000000e+00 6.090513e+00 -1.005843e+01
      vertex   -1.010839e+00 6.043491e+00 -1.008734e+01
    endloop
  endfacet
  facet normal -9.114824e-02 5.361670e-01 -8.391764e-01
    outer loop
      vertex   -1.018193e+00 6.087457e+00 -1.005845e+01
      vertex   -1.010839e+00 6.043491e+00 -1.008734e+01
      vertex   -1.050602e+00 6.081948e+00 -1.005845e+01
    endloop
  endfacet
  facet normal -9.114824e-02 5.361670e-01 -8.391764e-01
    outer loop
      vertex   -1.050602e+00 6.081948e+00 -1.005845e+01
      vertex   -1.010839e+00 6.043491e+00 -1.008734e+01
      vertex   -1.043014e+00 6.038021e+00 -1.008734e+01
    endloop
  endfacet
  facet normal -9.400513e-02 5.356735e-01 -8.391764e-01
    outer loop
      vertex   -1.050602e+00 6.081948e+00 -1.005845e+01
      vertex   -1.043014e+00 6.038021e+00 -1.008734e+01
      vertex   -1.083036e+00 6.076256e+00 -1.005845e+01
    endloop
  endfacet
  facet normal -9.400513e-02 5.356735e-01 -8.391764e-01
    outer loop
      vertex   -1.083036e+00 6.076256e+00 -1.005845e+01
      vertex   -1.043014e+00 6.038021e+00 -1.008734e+01
      vertex   -1.075214e+00 6.032370e+00 -1.008734e+01
    endloop
  endfacet
  facet normal -9.686415e-02 5.351639e-01 -8.391763e-01
    outer loop
      vertex   -1.083036e+00 6.076256e+00 -1.005845e+01
      vertex   -1.075214e+00 6.032370e+00 -1.008734e+01
      vertex   -1.115494e+00 6.070381e+00 -1.005845e+01
    endloop
  endfacet
  facet normal -9.686415e-02 5.351639e-01 -8.391763e-01
    outer loop
      vertex   -1.115494e+00 6.070381e+00 -1.005845e+01
      vertex   -1.075214e+00 6.032370e+00 -1.008734e+01
      vertex   -1.107437e+00 6.026538e+00 -1.008734e+01
    endloop
  endfacet
  facet normal -1.011590e-01 5.343729e-01 -8.391737e-01
    outer loop
      vertex   -1.115494e+00 6.070381e+00 -1.005845e+01
      vertex   -1.107437e+00 6.026538e+00 -1.008734e+01
      vertex   -1.180473e+00 6.058080e+00 -1.005845e+01
    endloop
  endfacet
  facet normal -1.011590e-01 5.343729e-01 -8.391737e-01
    outer loop
      vertex   -1.180473e+00 6.058080e+00 -1.005845e+01
      vertex   -1.107437e+00 6.026538e+00 -1.008734e+01
      vertex   -1.171947e+00 6.014326e+00 -1.008734e+01
    endloop
  endfacet
  facet normal -1.068883e-01 5.332565e-01 -8.391736e-01
    outer loop
      vertex   -1.180473e+00 6.058080e+00 -1.005845e+01
      vertex   -1.171947e+00 6.014326e+00 -1.008734e+01
      vertex   -1.245530e+00 6.045040e+00 -1.005845e+01
    endloop
  endfacet
  facet normal -1.068883e-01 5.332565e-01 -8.391736e-01
    outer loop
      vertex   -1.245530e+00 6.045040e+00 -1.005845e+01
      vertex   -1.171947e+00 6.014326e+00 -1.008734e+01
      vertex   -1.236535e+00 6.001380e+00 -1.008734e+01
    endloop
  endfacet
  facet normal -1.119424e-01 5.322161e-01 -8.391751e-01
    outer loop
      vertex   -1.245530e+00 6.045040e+00 -1.005845e+01
      vertex   -1.236535e+00 6.001380e+00 -1.008734e+01
      vertex   -1.296709e+00 6.000000e+00 -1.008019e+01
    endloop
  endfacet
  facet normal -1.146740e-01 4.729669e-01 -8.735858e-01
    outer loop
      vertex   -1.296709e+00 6.000000e+00 -1.008019e+01
      vertex   -1.236535e+00 6.001380e+00 -1.008734e+01
      vertex   -1.197927e+00 6.000000e+00 -1.009316e+01
    endloop
  endfacet
  facet normal -1.071558e-01 5.345911e-01 -8.382899e-01
    outer loop
      vertex   -1.197927e+00 6.000000e+00 -1.009316e+01
      vertex   -1.236535e+00 6.001380e+00 -1.008734e+01
      vertex   -1.171947e+00 6.014326e+00 -1.008734e+01
    endloop
  endfacet
  facet normal -1.018435e-01 5.271353e-01 -8.436565e-01
    outer loop
      vertex   -1.197927e+00 6.000000e+00 -1.009316e+01
      vertex   -1.171947e+00 6.014326e+00 -1.008734e+01
      vertex   -1.099022e+00 6.000000e+00 -1.010510e+01
    endloop
  endfacet
  facet normal -1.005245e-01 5.310214e-01 -8.413745e-01
    outer loop
      vertex   -1.099022e+00 6.000000e+00 -1.010510e+01
      vertex   -1.171947e+00 6.014326e+00 -1.008734e+01
      vertex   -1.107437e+00 6.026538e+00 -1.008734e+01
    endloop
  endfacet
  facet normal -9.632556e-02 5.321883e-01 -8.411284e-01
    outer loop
      vertex   -1.099022e+00 6.000000e+00 -1.010510e+01
      vertex   -1.107437e+00 6.026538e+00 -1.008734e+01
      vertex   -1.075214e+00 6.032370e+00 -1.008734e+01
    endloop
  endfacet
  facet normal -9.499372e-02 5.451012e-01 -8.329711e-01
    outer loop
      vertex   -1.099786e+00 6.163507e+00 -1.000000e+01
      vertex   -1.049931e+00 6.172195e+00 -1.000000e+01
      vertex   -1.061950e+00 6.147643e+00 -1.001470e+01
    endloop
  endfacet
  facet normal -9.254050e-02 5.443567e-01 -8.337338e-01
    outer loop
      vertex   -1.061950e+00 6.147643e+00 -1.001470e+01
      vertex   -1.049931e+00 6.172195e+00 -1.000000e+01
      vertex   -1.029191e+00 6.153212e+00 -1.001470e+01
    endloop
  endfacet
  facet normal -9.228189e-02 5.428355e-01 -8.347536e-01
    outer loop
      vertex   -1.061950e+00 6.147643e+00 -1.001470e+01
      vertex   -1.029191e+00 6.153212e+00 -1.001470e+01
      vertex   -1.025530e+00 6.131320e+00 -1.002934e+01
    endloop
  endfacet
  facet normal -8.757122e-02 5.436210e-01 -8.347500e-01
    outer loop
      vertex   -1.025530e+00 6.131320e+00 -1.002934e+01
      vertex   -1.029191e+00 6.153212e+00 -1.001470e+01
      vertex   -1.000000e+00 6.180481e+00 -1.000000e+01
    endloop
  endfacet
  facet normal -8.471019e-02 5.426775e-01 -8.356586e-01
    outer loop
      vertex   -1.025530e+00 6.131320e+00 -1.002934e+01
      vertex   -1.000000e+00 6.180481e+00 -1.000000e+01
      vertex   -1.000000e+00 6.090513e+00 -1.005843e+01
    endloop
  endfacet
  facet normal -9.058934e-02 5.458820e-01 -8.329504e-01
    outer loop
      vertex   -1.049931e+00 6.172195e+00 -1.000000e+01
      vertex   -1.000000e+00 6.180481e+00 -1.000000e+01
      vertex   -1.029191e+00 6.153212e+00 -1.001470e+01
    endloop
  endfacet
  facet normal -7.746384e-02 5.351465e-01 -8.412001e-01
    outer loop
      vertex   -1.000000e+00 6.090513e+00 -1.005843e+01
      vertex   -1.000000e+00 6.000000e+00 -1.011601e+01
      vertex   -1.010839e+00 6.043491e+00 -1.008734e+01
    endloop
  endfacet
  facet normal -9.048309e-02 5.322543e-01 -8.417352e-01
    outer loop
      vertex   -1.010839e+00 6.043491e+00 -1.008734e+01
      vertex   -1.000000e+00 6.000000e+00 -1.011601e+01
      vertex   -1.043014e+00 6.038021e+00 -1.008734e+01
    endloop
  endfacet
  facet normal -9.285803e-02 5.303014e-01 -8.427086e-01
    outer loop
      vertex   -1.000000e+00 6.000000e+00 -1.011601e+01
      vertex   -1.099022e+00 6.000000e+00 -1.010510e+01
      vertex   -1.043014e+00 6.038021e+00 -1.008734e+01
    endloop
  endfacet
  facet normal -9.311118e-02 5.305795e-01 -8.425056e-01
    outer loop
      vertex   -1.043014e+00 6.038021e+00 -1.008734e+01
      vertex   -1.099022e+00 6.000000e+00 -1.010510e+01
      vertex   -1.075214e+00 6.032370e+00 -1.008734e+01
    endloop
  endfacet
  facet normal -1.192238e-01 5.285127e-01 -8.405118e-01
    outer loop
      vertex   -1.395360e+00 6.000000e+00 -1.006620e+01
      vertex   -1.375830e+00 6.016722e+00 -1.005845e+01
      vertex   -1.296709e+00 6.000000e+00 -1.008019e+01
    endloop
  endfacet
  facet normal -1.183656e-01 5.308304e-01 -8.391714e-01
    outer loop
      vertex   -1.296709e+00 6.000000e+00 -1.008019e+01
      vertex   -1.375830e+00 6.016722e+00 -1.005845e+01
      vertex   -1.310653e+00 6.031256e+00 -1.005845e+01
    endloop
  endfacet
  facet normal -1.128034e-01 5.329224e-01 -8.386114e-01
    outer loop
      vertex   -1.296709e+00 6.000000e+00 -1.008019e+01
      vertex   -1.310653e+00 6.031256e+00 -1.005845e+01
      vertex   -1.245530e+00 6.045040e+00 -1.005845e+01
    endloop
  endfacet
  facet normal -1.132251e-01 5.349146e-01 -8.372852e-01
    outer loop
      vertex   -1.245530e+00 6.045040e+00 -1.005845e+01
      vertex   -1.310653e+00 6.031256e+00 -1.005845e+01
      vertex   -1.315378e+00 6.052997e+00 -1.004392e+01
    endloop
  endfacet
  facet normal -1.132251e-01 5.349146e-01 -8.372852e-01
    outer loop
      vertex   -1.245530e+00 6.045040e+00 -1.005845e+01
      vertex   -1.315378e+00 6.052997e+00 -1.004392e+01
      vertex   -1.250020e+00 6.066832e+00 -1.004392e+01
    endloop
  endfacet
  facet normal -1.136252e-01 5.368047e-01 -8.360203e-01
    outer loop
      vertex   -1.250020e+00 6.066832e+00 -1.004392e+01
      vertex   -1.315378e+00 6.052997e+00 -1.004392e+01
      vertex   -1.320097e+00 6.074713e+00 -1.002934e+01
    endloop
  endfacet
  facet normal -1.136252e-01 5.368047e-01 -8.360203e-01
    outer loop
      vertex   -1.250020e+00 6.066832e+00 -1.004392e+01
      vertex   -1.320097e+00 6.074713e+00 -1.002934e+01
      vertex   -1.254505e+00 6.088597e+00 -1.002934e+01
    endloop
  endfacet
  facet normal -1.140247e-01 5.386923e-01 -8.347509e-01
    outer loop
      vertex   -1.254505e+00 6.088597e+00 -1.002934e+01
      vertex   -1.320097e+00 6.074713e+00 -1.002934e+01
      vertex   -1.324810e+00 6.096403e+00 -1.001470e+01
    endloop
  endfacet
  facet normal -1.140247e-01 5.386923e-01 -8.347509e-01
    outer loop
      vertex   -1.254505e+00 6.088597e+00 -1.002934e+01
      vertex   -1.324810e+00 6.096403e+00 -1.001470e+01
      vertex   -1.258984e+00 6.110336e+00 -1.001470e+01
    endloop
  endfacet
  facet normal -1.250344e-01 5.334570e-01 -8.365346e-01
    outer loop
      vertex   -1.375830e+00 6.016722e+00 -1.005845e+01
      vertex   -1.395360e+00 6.000000e+00 -1.006620e+01
      vertex   -1.441048e+00 6.001436e+00 -1.005845e+01
    endloop
  endfacet
  facet normal -1.328096e-01 4.727314e-01 -8.711410e-01
    outer loop
      vertex   -1.441048e+00 6.001436e+00 -1.005845e+01
      vertex   -1.395360e+00 6.000000e+00 -1.006620e+01
      vertex   -1.493872e+00 6.000000e+00 -1.005118e+01
    endloop
  endfacet
  facet normal -1.297362e-01 5.311489e-01 -8.372869e-01
    outer loop
      vertex   -1.441048e+00 6.001436e+00 -1.005845e+01
      vertex   -1.493872e+00 6.000000e+00 -1.005118e+01
      vertex   -1.446243e+00 6.023071e+00 -1.004392e+01
    endloop
  endfacet
  facet normal -1.312073e-01 5.336193e-01 -8.354850e-01
    outer loop
      vertex   -1.446243e+00 6.023071e+00 -1.004392e+01
      vertex   -1.493872e+00 6.000000e+00 -1.005118e+01
      vertex   -1.511726e+00 6.006969e+00 -1.004392e+01
    endloop
  endfacet
  facet normal -1.310128e-01 5.328281e-01 -8.360203e-01
    outer loop
      vertex   -1.446243e+00 6.023071e+00 -1.004392e+01
      vertex   -1.511726e+00 6.006969e+00 -1.004392e+01
      vertex   -1.517149e+00 6.028520e+00 -1.002934e+01
    endloop
  endfacet
  facet normal -1.367710e-01 5.313790e-01 -8.360203e-01
    outer loop
      vertex   -1.517149e+00 6.028520e+00 -1.002934e+01
      vertex   -1.511726e+00 6.006969e+00 -1.004392e+01
      vertex   -1.581908e+00 6.011852e+00 -1.002934e+01
    endloop
  endfacet
  facet normal -1.372519e-01 5.332475e-01 -8.347509e-01
    outer loop
      vertex   -1.517149e+00 6.028520e+00 -1.002934e+01
      vertex   -1.581908e+00 6.011852e+00 -1.002934e+01
      vertex   -1.522566e+00 6.050045e+00 -1.001470e+01
    endloop
  endfacet
  facet normal -1.372659e-01 5.332641e-01 -8.347379e-01
    outer loop
      vertex   -1.522566e+00 6.050045e+00 -1.001470e+01
      vertex   -1.581908e+00 6.011852e+00 -1.002934e+01
      vertex   -1.587760e+00 6.033263e+00 -1.001470e+01
    endloop
  endfacet
  facet normal -1.371093e-01 5.239000e-01 -8.406723e-01
    outer loop
      vertex   -1.493872e+00 6.000000e+00 -1.005118e+01
      vertex   -1.592232e+00 6.000000e+00 -1.003514e+01
      vertex   -1.511726e+00 6.006969e+00 -1.004392e+01
    endloop
  endfacet
  facet normal -1.372028e-01 5.291611e-01 -8.373553e-01
    outer loop
      vertex   -1.511726e+00 6.006969e+00 -1.004392e+01
      vertex   -1.592232e+00 6.000000e+00 -1.003514e+01
      vertex   -1.581908e+00 6.011852e+00 -1.002934e+01
    endloop
  endfacet
  facet normal -1.428300e-01 5.325489e-01 -8.342609e-01
    outer loop
      vertex   -1.581908e+00 6.011852e+00 -1.002934e+01
      vertex   -1.592232e+00 6.000000e+00 -1.003514e+01
      vertex   -1.652327e+00 6.015901e+00 -1.001470e+01
    endloop
  endfacet
  facet normal -1.455455e-01 5.265605e-01 -8.375862e-01
    outer loop
      vertex   -1.652327e+00 6.015901e+00 -1.001470e+01
      vertex   -1.592232e+00 6.000000e+00 -1.003514e+01
      vertex   -1.690408e+00 6.000000e+00 -1.001808e+01
    endloop
  endfacet
  facet normal -1.429823e-01 5.317193e-01 -8.347638e-01
    outer loop
      vertex   -1.587760e+00 6.033263e+00 -1.001470e+01
      vertex   -1.581908e+00 6.011852e+00 -1.002934e+01
      vertex   -1.652327e+00 6.015901e+00 -1.001470e+01
    endloop
  endfacet
  facet normal -1.314734e-01 5.347016e-01 -8.347508e-01
    outer loop
      vertex   -1.517149e+00 6.028520e+00 -1.002934e+01
      vertex   -1.522566e+00 6.050045e+00 -1.001470e+01
      vertex   -1.451431e+00 6.044679e+00 -1.002934e+01
    endloop
  endfacet
  facet normal -1.314734e-01 5.347016e-01 -8.347508e-01
    outer loop
      vertex   -1.451431e+00 6.044679e+00 -1.002934e+01
      vertex   -1.522566e+00 6.050045e+00 -1.001470e+01
      vertex   -1.456613e+00 6.066261e+00 -1.001470e+01
    endloop
  endfacet
  facet normal -1.256536e-01 5.360991e-01 -8.347508e-01
    outer loop
      vertex   -1.451431e+00 6.044679e+00 -1.002934e+01
      vertex   -1.456613e+00 6.066261e+00 -1.001470e+01
      vertex   -1.385743e+00 6.060075e+00 -1.002934e+01
    endloop
  endfacet
  facet normal -1.256536e-01 5.360991e-01 -8.347508e-01
    outer loop
      vertex   -1.385743e+00 6.060075e+00 -1.002934e+01
      vertex   -1.456613e+00 6.066261e+00 -1.001470e+01
      vertex   -1.390691e+00 6.081713e+00 -1.001470e+01
    endloop
  endfacet
  facet normal -1.198371e-01 5.374292e-01 -8.347508e-01
    outer loop
      vertex   -1.385743e+00 6.060075e+00 -1.002934e+01
      vertex   -1.390691e+00 6.081713e+00 -1.001470e+01
      vertex   -1.320097e+00 6.074713e+00 -1.002934e+01
    endloop
  endfacet
  facet normal -1.198371e-01 5.374292e-01 -8.347508e-01
    outer loop
      vertex   -1.320097e+00 6.074713e+00 -1.002934e+01
      vertex   -1.390691e+00 6.081713e+00 -1.001470e+01
      vertex   -1.324810e+00 6.096403e+00 -1.001470e+01
    endloop
  endfacet
  facet normal -1.310128e-01 5.328281e-01 -8.360203e-01
    outer loop
      vertex   -1.517149e+00 6.028520e+00 -1.002934e+01
      vertex   -1.451431e+00 6.044679e+00 -1.002934e+01
      vertex   -1.446243e+00 6.023071e+00 -1.004392e+01
    endloop
  endfacet
  facet normal -1.252134e-01 5.342207e-01 -8.360203e-01
    outer loop
      vertex   -1.446243e+00 6.023071e+00 -1.004392e+01
      vertex   -1.451431e+00 6.044679e+00 -1.002934e+01
      vertex   -1.380789e+00 6.038412e+00 -1.004392e+01
    endloop
  endfacet
  facet normal -1.247725e-01 5.323396e-01 -8.372851e-01
    outer loop
      vertex   -1.446243e+00 6.023071e+00 -1.004392e+01
      vertex   -1.380789e+00 6.038412e+00 -1.004392e+01
      vertex   -1.375830e+00 6.016722e+00 -1.005845e+01
    endloop
  endfacet
  facet normal -1.189967e-01 5.336604e-01 -8.372851e-01
    outer loop
      vertex   -1.375830e+00 6.016722e+00 -1.005845e+01
      vertex   -1.380789e+00 6.038412e+00 -1.004392e+01
      vertex   -1.310653e+00 6.031256e+00 -1.005845e+01
    endloop
  endfacet
  facet normal -1.252134e-01 5.342207e-01 -8.360203e-01
    outer loop
      vertex   -1.380789e+00 6.038412e+00 -1.004392e+01
      vertex   -1.451431e+00 6.044679e+00 -1.002934e+01
      vertex   -1.385743e+00 6.060075e+00 -1.002934e+01
    endloop
  endfacet
  facet normal -1.247725e-01 5.323396e-01 -8.372851e-01
    outer loop
      vertex   -1.375830e+00 6.016722e+00 -1.005845e+01
      vertex   -1.441048e+00 6.001436e+00 -1.005845e+01
      vertex   -1.446243e+00 6.023071e+00 -1.004392e+01
    endloop
  endfacet
  facet normal -1.194172e-01 5.355461e-01 -8.360203e-01
    outer loop
      vertex   -1.320097e+00 6.074713e+00 -1.002934e+01
      vertex   -1.315378e+00 6.052997e+00 -1.004392e+01
      vertex   -1.385743e+00 6.060075e+00 -1.002934e+01
    endloop
  endfacet
  facet normal -1.194172e-01 5.355461e-01 -8.360203e-01
    outer loop
      vertex   -1.385743e+00 6.060075e+00 -1.002934e+01
      vertex   -1.315378e+00 6.052997e+00 -1.004392e+01
      vertex   -1.380789e+00 6.038412e+00 -1.004392e+01
    endloop
  endfacet
  facet normal -1.189967e-01 5.336604e-01 -8.372851e-01
    outer loop
      vertex   -1.315378e+00 6.052997e+00 -1.004392e+01
      vertex   -1.310653e+00 6.031256e+00 -1.005845e+01
      vertex   -1.380789e+00 6.038412e+00 -1.004392e+01
    endloop
  endfacet
  facet normal -1.082177e-01 5.398888e-01 -8.347509e-01
    outer loop
      vertex   -1.254505e+00 6.088597e+00 -1.002934e+01
      vertex   -1.258984e+00 6.110336e+00 -1.001470e+01
      vertex   -1.188979e+00 6.101731e+00 -1.002934e+01
    endloop
  endfacet
  facet normal -1.082177e-01 5.398888e-01 -8.347509e-01
    outer loop
      vertex   -1.188979e+00 6.101731e+00 -1.002934e+01
      vertex   -1.258984e+00 6.110336e+00 -1.001470e+01
      vertex   -1.193224e+00 6.123517e+00 -1.001470e+01
    endloop
  endfacet
  facet normal -1.024171e-01 5.410191e-01 -8.347509e-01
    outer loop
      vertex   -1.188979e+00 6.101731e+00 -1.002934e+01
      vertex   -1.193224e+00 6.123517e+00 -1.001470e+01
      vertex   -1.123531e+00 6.114121e+00 -1.002934e+01
    endloop
  endfacet
  facet normal -1.024171e-01 5.410191e-01 -8.347509e-01
    outer loop
      vertex   -1.123531e+00 6.114121e+00 -1.002934e+01
      vertex   -1.193224e+00 6.123517e+00 -1.001470e+01
      vertex   -1.127543e+00 6.135951e+00 -1.001470e+01
    endloop
  endfacet
  facet normal -9.806889e-02 5.418199e-01 -8.347536e-01
    outer loop
      vertex   -1.123531e+00 6.114121e+00 -1.002934e+01
      vertex   -1.127543e+00 6.135951e+00 -1.001470e+01
      vertex   -1.090840e+00 6.120038e+00 -1.002934e+01
    endloop
  endfacet
  facet normal -9.806889e-02 5.418199e-01 -8.347536e-01
    outer loop
      vertex   -1.090840e+00 6.120038e+00 -1.002934e+01
      vertex   -1.127543e+00 6.135951e+00 -1.001470e+01
      vertex   -1.094735e+00 6.141889e+00 -1.001470e+01
    endloop
  endfacet
  facet normal -9.517431e-02 5.423359e-01 -8.347536e-01
    outer loop
      vertex   -1.090840e+00 6.120038e+00 -1.002934e+01
      vertex   -1.094735e+00 6.141889e+00 -1.001470e+01
      vertex   -1.058172e+00 6.125771e+00 -1.002934e+01
    endloop
  endfacet
  facet normal -1.074588e-01 5.361027e-01 -8.372852e-01
    outer loop
      vertex   -1.180473e+00 6.058080e+00 -1.005845e+01
      vertex   -1.245530e+00 6.045040e+00 -1.005845e+01
      vertex   -1.250020e+00 6.066832e+00 -1.004392e+01
    endloop
  endfacet
  facet normal -1.078385e-01 5.379971e-01 -8.360203e-01
    outer loop
      vertex   -1.250020e+00 6.066832e+00 -1.004392e+01
      vertex   -1.254505e+00 6.088597e+00 -1.002934e+01
      vertex   -1.184729e+00 6.079919e+00 -1.004392e+01
    endloop
  endfacet
  facet normal -1.078385e-01 5.379971e-01 -8.360203e-01
    outer loop
      vertex   -1.184729e+00 6.079919e+00 -1.004392e+01
      vertex   -1.254505e+00 6.088597e+00 -1.002934e+01
      vertex   -1.188979e+00 6.101731e+00 -1.002934e+01
    endloop
  endfacet
  facet normal -1.020582e-01 5.391234e-01 -8.360204e-01
    outer loop
      vertex   -1.184729e+00 6.079919e+00 -1.004392e+01
      vertex   -1.188979e+00 6.101731e+00 -1.002934e+01
      vertex   -1.119515e+00 6.092264e+00 -1.004392e+01
    endloop
  endfacet
  facet normal -1.020582e-01 5.391234e-01 -8.360204e-01
    outer loop
      vertex   -1.119515e+00 6.092264e+00 -1.004392e+01
      vertex   -1.188979e+00 6.101731e+00 -1.002934e+01
      vertex   -1.123531e+00 6.114121e+00 -1.002934e+01
    endloop
  endfacet
  facet normal -9.772526e-02 5.399215e-01 -8.360231e-01
    outer loop
      vertex   -1.119515e+00 6.092264e+00 -1.004392e+01
      vertex   -1.123531e+00 6.114121e+00 -1.002934e+01
      vertex   -1.086940e+00 6.098160e+00 -1.004392e+01
    endloop
  endfacet
  facet normal -9.772526e-02 5.399215e-01 -8.360231e-01
    outer loop
      vertex   -1.086940e+00 6.098160e+00 -1.004392e+01
      vertex   -1.123531e+00 6.114121e+00 -1.002934e+01
      vertex   -1.090840e+00 6.120038e+00 -1.002934e+01
    endloop
  endfacet
  facet normal -9.484082e-02 5.404356e-01 -8.360231e-01
    outer loop
      vertex   -1.086940e+00 6.098160e+00 -1.004392e+01
      vertex   -1.090840e+00 6.120038e+00 -1.002934e+01
      vertex   -1.054390e+00 6.103872e+00 -1.004392e+01
    endloop
  endfacet
  facet normal -9.484082e-02 5.404356e-01 -8.360231e-01
    outer loop
      vertex   -1.054390e+00 6.103872e+00 -1.004392e+01
      vertex   -1.090840e+00 6.120038e+00 -1.002934e+01
      vertex   -1.058172e+00 6.125771e+00 -1.002934e+01
    endloop
  endfacet
  facet normal -9.195854e-02 5.409335e-01 -8.360231e-01
    outer loop
      vertex   -1.054390e+00 6.103872e+00 -1.004392e+01
      vertex   -1.058172e+00 6.125771e+00 -1.002934e+01
      vertex   -1.021864e+00 6.109402e+00 -1.004392e+01
    endloop
  endfacet
  facet normal -1.016989e-01 5.372251e-01 -8.372852e-01
    outer loop
      vertex   -1.115494e+00 6.070381e+00 -1.005845e+01
      vertex   -1.180473e+00 6.058080e+00 -1.005845e+01
      vertex   -1.184729e+00 6.079919e+00 -1.004392e+01
    endloop
  endfacet
  facet normal -1.074588e-01 5.361027e-01 -8.372852e-01
    outer loop
      vertex   -1.184729e+00 6.079919e+00 -1.004392e+01
      vertex   -1.180473e+00 6.058080e+00 -1.005845e+01
      vertex   -1.250020e+00 6.066832e+00 -1.004392e+01
    endloop
  endfacet
  facet normal -1.016989e-01 5.372251e-01 -8.372852e-01
    outer loop
      vertex   -1.115494e+00 6.070381e+00 -1.005845e+01
      vertex   -1.184729e+00 6.079919e+00 -1.004392e+01
      vertex   -1.119515e+00 6.092264e+00 -1.004392e+01
    endloop
  endfacet
  facet normal -9.738116e-02 5.380203e-01 -8.372879e-01
    outer loop
      vertex   -1.083036e+00 6.076256e+00 -1.005845e+01
      vertex   -1.115494e+00 6.070381e+00 -1.005845e+01
      vertex   -1.119515e+00 6.092264e+00 -1.004392e+01
    endloop
  endfacet
  facet normal -9.738116e-02 5.380203e-01 -8.372879e-01
    outer loop
      vertex   -1.083036e+00 6.076256e+00 -1.005845e+01
      vertex   -1.119515e+00 6.092264e+00 -1.004392e+01
      vertex   -1.086940e+00 6.098160e+00 -1.004392e+01
    endloop
  endfacet
  facet normal -9.450688e-02 5.385326e-01 -8.372879e-01
    outer loop
      vertex   -1.050602e+00 6.081948e+00 -1.005845e+01
      vertex   -1.083036e+00 6.076256e+00 -1.005845e+01
      vertex   -1.086940e+00 6.098160e+00 -1.004392e+01
    endloop
  endfacet
  facet normal -9.450688e-02 5.385326e-01 -8.372879e-01
    outer loop
      vertex   -1.050602e+00 6.081948e+00 -1.005845e+01
      vertex   -1.086940e+00 6.098160e+00 -1.004392e+01
      vertex   -1.054390e+00 6.103872e+00 -1.004392e+01
    endloop
  endfacet
  facet normal -9.163475e-02 5.390288e-01 -8.372879e-01
    outer loop
      vertex   -1.050602e+00 6.081948e+00 -1.005845e+01
      vertex   -1.054390e+00 6.103872e+00 -1.004392e+01
      vertex   -1.018193e+00 6.087457e+00 -1.005845e+01
    endloop
  endfacet
  facet normal -9.163475e-02 5.390288e-01 -8.372879e-01
    outer loop
      vertex   -1.018193e+00 6.087457e+00 -1.005845e+01
      vertex   -1.054390e+00 6.103872e+00 -1.004392e+01
      vertex   -1.021864e+00 6.109402e+00 -1.004392e+01
    endloop
  endfacet
  facet normal 1.000000e+00 -2.453170e-15 0.000000e+00
    outer loop
      vertex   -1.000000e+00 6.000000e+00 -1.011601e+01
      vertex   -1.000000e+00 6.090513e+00 -1.005843e+01
      vertex   -1.000000e+00 6.000000e+00 -1.000000e+01
    endloop
  endfacet
  facet normal 1.000000e+00 -0.000000e+00 3.800494e-15
    outer loop
      vertex   -1.000000e+00 6.000000e+00 -1.000000e+01
      vertex   -1.000000e+00 6.090513e+00 -1.005843e+01
      vertex   -1.000000e+00 6.180481e+00 -1.000000e+01
    endloop
  endfacet
  facet normal 0.000000e+00 0.000000e+00 1.000000e+00
    outer loop
      vertex   -1.000000e+00 6.180481e+00 -1.000000e+01
      vertex   -1.049931e+00 6.172195e+00 -1.000000e+01
      vertex   -1.000000e+00 6.000000e+00 -1.000000e+01
    endloop
  endfacet
  facet normal 0.000000e+00 0.000000e+00 1.000000e+00
    outer loop
      vertex   -1.000000e+00 6.000000e+00 -1.000000e+01
      vertex   -1.049931e+00 6.172195e+00 -1.000000e+01
      vertex   -1.099786e+00 6.163507e+00 -1.000000e+01
    endloop
  endfacet
  facet normal 0.000000e+00 0.000000e+00 1.000000e+00
    outer loop
      vertex   -1.000000e+00 6.000000e+00 -1.000000e+01
      vertex   -1.099786e+00 6.163507e+00 -1.000000e+01
      vertex   -1.149562e+00 6.154418e+00 -1.000000e+01
    endloop
  endfacet
  facet normal 0.000000e+00 0.000000e+00 1.000000e+00
    outer loop
      vertex   -1.149562e+00 6.154418e+00 -1.000000e+01
      vertex   -1.199257e+00 6.144927e+00 -1.000000e+01
      vertex   -1.000000e+00 6.000000e+00 -1.000000e+01
    endloop
  endfacet
  facet normal 0.000000e+00 0.000000e+00 1.000000e+00
    outer loop
      vertex   -1.000000e+00 6.000000e+00 -1.000000e+01
      vertex   -1.199257e+00 6.144927e+00 -1.000000e+01
      vertex   -1.248868e+00 6.135037e+00 -1.000000e+01
    endloop
  endfacet
  facet normal 0.000000e+00 0.000000e+00 1.000000e+00
    outer loop
      vertex   -1.000000e+00 6.000000e+00 -1.000000e+01
      vertex   -1.248868e+00 6.135037e+00 -1.000000e+01
      vertex   -1.298394e+00 6.124747e+00 -1.000000e+01
    endloop
  endfacet
  facet normal 0.000000e+00 0.000000e+00 1.000000e+00
    outer loop
      vertex   -1.298394e+00 6.124747e+00 -1.000000e+01
      vertex   -1.347831e+00 6.114057e+00 -1.000000e+01
      vertex   -1.000000e+00 6.000000e+00 -1.000000e+01
    endloop
  endfacet
  facet normal 0.000000e+00 0.000000e+00 1.000000e+00
    outer loop
      vertex   -1.000000e+00 6.000000e+00 -1.000000e+01
      vertex   -1.347831e+00 6.114057e+00 -1.000000e+01
      vertex   -1.397177e+00 6.102970e+00 -1.000000e+01
    endloop
  endfacet
  facet normal 0.000000e+00 0.000000e+00 1.000000e+00
    outer loop
      vertex   -1.000000e+00 6.000000e+00 -1.000000e+01
      vertex   -1.397177e+00 6.102970e+00 -1.000000e+01
      vertex   -1.446431e+00 6.091485e+00 -1.000000e+01
    endloop
  endfacet
  facet normal 0.000000e+00 0.000000e+00 1.000000e+00
    outer loop
      vertex   -1.446431e+00 6.091485e+00 -1.000000e+01
      vertex   -1.495588e+00 6.079602e+00 -1.000000e+01
      vertex   -1.000000e+00 6.000000e+00 -1.000000e+01
    endloop
  endfacet
  facet normal 0.000000e+00 0.000000e+00 1.000000e+00
    outer loop
      vertex   -1.000000e+00 6.000000e+00 -1.000000e+01
      vertex   -1.495588e+00 6.079602e+00 -1.000000e+01
      vertex   -1.544648e+00 6.067323e+00 -1.000000e+01
    endloop
  endfacet
  facet normal 0.000000e+00 0.000000e+00 1.000000e+00
    outer loop
      vertex   -1.000000e+00 6.000000e+00 -1.000000e+01
      vertex   -1.544648e+00 6.067323e+00 -1.000000e+01
      vertex   -1.593608e+00 6.054648e+00 -1.000000e+01
    endloop
  endfacet
  facet normal 0.000000e+00 0.000000e+00 1.000000e+00
    outer loop
      vertex   -1.593608e+00 6.054648e+00 -1.000000e+01
      vertex   -1.642464e+00 6.041578e+00 -1.000000e+01
      vertex   -1.000000e+00 6.000000e+00 -1.000000e+01
    endloop
  endfacet
  facet normal 0.000000e+00 0.000000e+00 1.000000e+00
    outer loop
      vertex   -1.000000e+00 6.000000e+00 -1.000000e+01
      vertex   -1.642464e+00 6.041578e+00 -1.000000e+01
      vertex   -1.691215e+00 6.028112e+00 -1.000000e+01
    endloop
  endfacet
  facet normal 0.000000e+00 0.000000e+00 1.000000e+00
    outer loop
      vertex   -1.000000e+00 6.000000e+00 -1.000000e+01
      vertex   -1.691215e+00 6.028112e+00 -1.000000e+01
      vertex   -1.739859e+00 6.014253e+00 -1.000000e+01
    endloop
  endfacet
  facet normal 0.000000e+00 0.000000e+00 1.000000e+00
    outer loop
      vertex   -1.739859e+00 6.014253e+00 -1.000000e+01
      vertex   -1.788393e+00 6.000000e+00 -1.000000e+01
      vertex   -1.000000e+00 6.000000e+00 -1.000000e+01
    endloop
  endfacet
  facet normal 0.000000e+00 -1.000000e+00 -4.913683e-14
    outer loop
      vertex   -1.788393e+00 6.000000e+00 -1.000000e+01
      vertex   -1.690408e+00 6.000000e+00 -1.001808e+01
      vertex   -1.000000e+00 6.000000e+00 -1.000000e+01
    endloop
  endfacet
  facet normal 6.656176e-17 -1.000000e+00 -5.167919e-14
    outer loop
      vertex   -1.000000e+00 6.000000e+00 -1.000000e+01
      vertex   -1.690408e+00 6.000000e+00 -1.001808e+01
      vertex   -1.592232e+00 6.000000e+00 -1.003514e+01
    endloop
  endfacet
  facet normal -2.199382e-15 -1.000000e+00 -1.348529e-14
    outer loop
      vertex   -1.000000e+00 6.000000e+00 -1.000000e+01
      vertex   -1.592232e+00 6.000000e+00 -1.003514e+01
      vertex   -1.493872e+00 6.000000e+00 -1.005118e+01
    endloop
  endfacet
  facet normal -2.141320e-15 -1.000000e+00 -1.404560e-14
    outer loop
      vertex   -1.493872e+00 6.000000e+00 -1.005118e+01
      vertex   -1.395360e+00 6.000000e+00 -1.006620e+01
      vertex   -1.000000e+00 6.000000e+00 -1.000000e+01
    endloop
  endfacet
  facet normal -6.934693e-15 -1.000000e+00 1.458307e-14
    outer loop
      vertex   -1.000000e+00 6.000000e+00 -1.000000e+01
      vertex   -1.395360e+00 6.000000e+00 -1.006620e+01
      vertex   -1.296709e+00 6.000000e+00 -1.008019e+01
    endloop
  endfacet
  facet normal 5.073264e-15 -1.000000e+00 -2.984760e-14
    outer loop
      vertex   -1.000000e+00 6.000000e+00 -1.000000e+01
      vertex   -1.296709e+00 6.000000e+00 -1.008019e+01
      vertex   -1.197927e+00 6.000000e+00 -1.009316e+01
    endloop
  endfacet
  facet normal -1.612597e-14 -1.000000e+00 1.519392e-14
    outer loop
      vertex   -1.197927e+00 6.000000e+00 -1.009316e+01
      vertex   -1.099022e+00 6.000000e+00 -1.010510e+01
      vertex   -1.000000e+00 6.000000e+00 -1.000000e+01
    endloop
  endfacet
  facet normal 0.000000e+00 -1.000000e+00 -0.000000e+00
    outer loop
      vertex   -1.000000e+00 6.000000e+00 -1.000000e+01
      vertex   -1.099022e+00 6.000000e+00 -1.010510e+01
      vertex   -1.000000e+00 6.000000e+00 -1.011601e+01
    endloop
  endfacet
endsolid
