solid ASCII
  facet normal -1.787024e-01 -9.803719e-01 -8.328443e-02
    outer loop
      vertex   2.126048e+00 1.081113e+01 1.000000e+00
      vertex   2.128343e+00 1.080808e+01 1.030949e+00
      vertex   2.000000e+00 1.083411e+01 1.000000e+00
    endloop
  endfacet
  facet normal -1.782020e-01 -9.802905e-01 -8.529135e-02
    outer loop
      vertex   2.000000e+00 1.083411e+01 1.000000e+00
      vertex   2.128343e+00 1.080808e+01 1.030949e+00
      vertex   2.127831e+00 1.080548e+01 1.061920e+00
    endloop
  endfacet
  facet normal -1.775897e-01 -9.802908e-01 -8.655554e-02
    outer loop
      vertex   2.000000e+00 1.083411e+01 1.000000e+00
      vertex   2.127831e+00 1.080548e+01 1.061920e+00
      vertex   2.000000e+00 1.082302e+01 1.125534e+00
    endloop
  endfacet
  facet normal -1.781880e-01 -9.800698e-01 -8.781877e-02
    outer loop
      vertex   2.000000e+00 1.082302e+01 1.125534e+00
      vertex   2.127831e+00 1.080548e+01 1.061920e+00
      vertex   2.127303e+00 1.080280e+01 1.092913e+00
    endloop
  endfacet
  facet normal -1.787826e-01 -9.797315e-01 -9.034898e-02
    outer loop
      vertex   2.000000e+00 1.082302e+01 1.125534e+00
      vertex   2.127303e+00 1.080280e+01 1.092913e+00
      vertex   2.126759e+00 1.080004e+01 1.123929e+00
    endloop
  endfacet
  facet normal -1.898919e-01 -9.776383e-01 -9.035739e-02
    outer loop
      vertex   2.126759e+00 1.080004e+01 1.123929e+00
      vertex   2.127303e+00 1.080280e+01 1.092913e+00
      vertex   2.255644e+00 1.077501e+01 1.123929e+00
    endloop
  endfacet
  facet normal -1.898248e-01 -9.772927e-01 -9.415645e-02
    outer loop
      vertex   2.126759e+00 1.080004e+01 1.123929e+00
      vertex   2.255644e+00 1.077501e+01 1.123929e+00
      vertex   2.254441e+00 1.076926e+01 1.186025e+00
    endloop
  endfacet
  facet normal -2.010166e-01 -9.750514e-01 -9.416584e-02
    outer loop
      vertex   2.254441e+00 1.076926e+01 1.186025e+00
      vertex   2.255644e+00 1.077501e+01 1.123929e+00
      vertex   2.383402e+00 1.074267e+01 1.186025e+00
    endloop
  endfacet
  facet normal -2.009171e-01 -9.745688e-01 -9.923734e-02
    outer loop
      vertex   2.254441e+00 1.076926e+01 1.186025e+00
      vertex   2.383402e+00 1.074267e+01 1.186025e+00
      vertex   2.382058e+00 1.073662e+01 1.248206e+00
    endloop
  endfacet
  facet normal -2.121180e-01 -9.721912e-01 -9.924781e-02
    outer loop
      vertex   2.382058e+00 1.073662e+01 1.248206e+00
      vertex   2.383402e+00 1.074267e+01 1.186025e+00
      vertex   2.511063e+00 1.070847e+01 1.248206e+00
    endloop
  endfacet
  facet normal -2.120072e-01 -9.716834e-01 -1.043275e-01
    outer loop
      vertex   2.382058e+00 1.073662e+01 1.248206e+00
      vertex   2.511063e+00 1.070847e+01 1.248206e+00
      vertex   2.509572e+00 1.070211e+01 1.310468e+00
    endloop
  endfacet
  facet normal -2.232149e-01 -9.691690e-01 -1.043391e-01
    outer loop
      vertex   2.509572e+00 1.070211e+01 1.310468e+00
      vertex   2.511063e+00 1.070847e+01 1.248206e+00
      vertex   2.638588e+00 1.067239e+01 1.310468e+00
    endloop
  endfacet
  facet normal -2.230921e-01 -9.686360e-01 -1.094267e-01
    outer loop
      vertex   2.509572e+00 1.070211e+01 1.310468e+00
      vertex   2.638588e+00 1.067239e+01 1.310468e+00
      vertex   2.636941e+00 1.066573e+01 1.372810e+00
    endloop
  endfacet
  facet normal -2.343039e-01 -9.659838e-01 -1.094395e-01
    outer loop
      vertex   2.636941e+00 1.066573e+01 1.372810e+00
      vertex   2.638588e+00 1.067239e+01 1.310468e+00
      vertex   2.765937e+00 1.063444e+01 1.372810e+00
    endloop
  endfacet
  facet normal -2.341685e-01 -9.654257e-01 -1.145350e-01
    outer loop
      vertex   2.636941e+00 1.066573e+01 1.372810e+00
      vertex   2.765937e+00 1.063444e+01 1.372810e+00
      vertex   2.764125e+00 1.062748e+01 1.435228e+00
    endloop
  endfacet
  facet normal -2.453817e-01 -9.626351e-01 -1.145491e-01
    outer loop
      vertex   2.764125e+00 1.062748e+01 1.435228e+00
      vertex   2.765937e+00 1.063444e+01 1.372810e+00
      vertex   2.893068e+00 1.059461e+01 1.435228e+00
    endloop
  endfacet
  facet normal -2.452331e-01 -9.620520e-01 -1.196523e-01
    outer loop
      vertex   2.764125e+00 1.062748e+01 1.435228e+00
      vertex   2.893068e+00 1.059461e+01 1.435228e+00
      vertex   2.891083e+00 1.058734e+01 1.497720e+00
    endloop
  endfacet
  facet normal -2.556673e-01 -9.593300e-01 -1.196671e-01
    outer loop
      vertex   2.891083e+00 1.058734e+01 1.497720e+00
      vertex   2.893068e+00 1.059461e+01 1.435228e+00
      vertex   3.000000e+00 1.055786e+01 1.501369e+00
    endloop
  endfacet
  facet normal -2.553431e-01 -9.587650e-01 -1.247778e-01
    outer loop
      vertex   2.891083e+00 1.058734e+01 1.497720e+00
      vertex   3.000000e+00 1.055786e+01 1.501369e+00
      vertex   2.889011e+00 1.057975e+01 1.560284e+00
    endloop
  endfacet
  facet normal -2.567730e-01 -9.579901e-01 -1.277596e-01
    outer loop
      vertex   2.889011e+00 1.057975e+01 1.560284e+00
      vertex   3.000000e+00 1.055786e+01 1.501369e+00
      vertex   3.000000e+00 1.054120e+01 1.626314e+00
    endloop
  endfacet
  facet normal -2.555188e-01 -9.580382e-01 -1.298957e-01
    outer loop
      vertex   2.889011e+00 1.057975e+01 1.560284e+00
      vertex   3.000000e+00 1.054120e+01 1.626314e+00
      vertex   2.886849e+00 1.057184e+01 1.622917e+00
    endloop
  endfacet
  facet normal -2.551964e-01 -9.574155e-01 -1.350198e-01
    outer loop
      vertex   2.886849e+00 1.057184e+01 1.622917e+00
      vertex   3.000000e+00 1.054120e+01 1.626314e+00
      vertex   2.884599e+00 1.056359e+01 1.685615e+00
    endloop
  endfacet
  facet normal -2.447463e-01 -9.601424e-01 -1.350032e-01
    outer loop
      vertex   2.886849e+00 1.057184e+01 1.622917e+00
      vertex   2.884599e+00 1.056359e+01 1.685615e+00
      vertex   2.758184e+00 1.060463e+01 1.622917e+00
    endloop
  endfacet
  facet normal -2.447463e-01 -9.601424e-01 -1.350032e-01
    outer loop
      vertex   2.758184e+00 1.060463e+01 1.622917e+00
      vertex   2.884599e+00 1.056359e+01 1.685615e+00
      vertex   2.756033e+00 1.059637e+01 1.685615e+00
    endloop
  endfacet
  facet normal -2.335623e-01 -9.629264e-01 -1.349867e-01
    outer loop
      vertex   2.758184e+00 1.060463e+01 1.622917e+00
      vertex   2.756033e+00 1.059637e+01 1.685615e+00
      vertex   2.629549e+00 1.063584e+01 1.622917e+00
    endloop
  endfacet
  facet normal -2.335623e-01 -9.629264e-01 -1.349867e-01
    outer loop
      vertex   2.629549e+00 1.063584e+01 1.622917e+00
      vertex   2.756033e+00 1.059637e+01 1.685615e+00
      vertex   2.627499e+00 1.062754e+01 1.685615e+00
    endloop
  endfacet
  facet normal -2.223862e-01 -9.655709e-01 -1.349710e-01
    outer loop
      vertex   2.629549e+00 1.063584e+01 1.622917e+00
      vertex   2.627499e+00 1.062754e+01 1.685615e+00
      vertex   2.500975e+00 1.066545e+01 1.622917e+00
    endloop
  endfacet
  facet normal -2.223862e-01 -9.655709e-01 -1.349710e-01
    outer loop
      vertex   2.500975e+00 1.066545e+01 1.622917e+00
      vertex   2.627499e+00 1.062754e+01 1.685615e+00
      vertex   2.499025e+00 1.065713e+01 1.685615e+00
    endloop
  endfacet
  facet normal -2.112203e-01 -9.680769e-01 -1.349561e-01
    outer loop
      vertex   2.500975e+00 1.066545e+01 1.622917e+00
      vertex   2.499025e+00 1.065713e+01 1.685615e+00
      vertex   2.372489e+00 1.069348e+01 1.622917e+00
    endloop
  endfacet
  facet normal -2.112203e-01 -9.680769e-01 -1.349561e-01
    outer loop
      vertex   2.372489e+00 1.069348e+01 1.622917e+00
      vertex   2.499025e+00 1.065713e+01 1.685615e+00
      vertex   2.370639e+00 1.068514e+01 1.685615e+00
    endloop
  endfacet
  facet normal -2.000670e-01 -9.704452e-01 -1.349420e-01
    outer loop
      vertex   2.372489e+00 1.069348e+01 1.622917e+00
      vertex   2.370639e+00 1.068514e+01 1.685615e+00
      vertex   2.244118e+00 1.071995e+01 1.622917e+00
    endloop
  endfacet
  facet normal -2.000670e-01 -9.704452e-01 -1.349420e-01
    outer loop
      vertex   2.244118e+00 1.071995e+01 1.622917e+00
      vertex   2.370639e+00 1.068514e+01 1.685615e+00
      vertex   2.242369e+00 1.071159e+01 1.685615e+00
    endloop
  endfacet
  facet normal -1.889283e-01 -9.726769e-01 -1.349287e-01
    outer loop
      vertex   2.244118e+00 1.071995e+01 1.622917e+00
      vertex   2.242369e+00 1.071159e+01 1.685615e+00
      vertex   2.115892e+00 1.074485e+01 1.622917e+00
    endloop
  endfacet
  facet normal -1.889283e-01 -9.726769e-01 -1.349287e-01
    outer loop
      vertex   2.115892e+00 1.074485e+01 1.622917e+00
      vertex   2.242369e+00 1.071159e+01 1.685615e+00
      vertex   2.114242e+00 1.073648e+01 1.685615e+00
    endloop
  endfacet
  facet normal -1.784062e-01 -9.746633e-01 -1.349172e-01
    outer loop
      vertex   2.115892e+00 1.074485e+01 1.622917e+00
      vertex   2.114242e+00 1.073648e+01 1.685615e+00
      vertex   2.000000e+00 1.076560e+01 1.626259e+00
    endloop
  endfacet
  facet normal -1.769640e-01 -9.745461e-01 -1.376356e-01
    outer loop
      vertex   2.000000e+00 1.076560e+01 1.626259e+00
      vertex   2.114242e+00 1.073648e+01 1.685615e+00
      vertex   2.000000e+00 1.074798e+01 1.751030e+00
    endloop
  endfacet
  facet normal -1.782844e-01 -9.739622e-01 -1.400442e-01
    outer loop
      vertex   2.000000e+00 1.074798e+01 1.751030e+00
      vertex   2.114242e+00 1.073648e+01 1.685615e+00
      vertex   2.112527e+00 1.072777e+01 1.748377e+00
    endloop
  endfacet
  facet normal -1.782708e-01 -9.732127e-01 -1.451776e-01
    outer loop
      vertex   2.000000e+00 1.074798e+01 1.751030e+00
      vertex   2.112527e+00 1.072777e+01 1.748377e+00
      vertex   2.110746e+00 1.071872e+01 1.811199e+00
    endloop
  endfacet
  facet normal -1.886515e-01 -9.712521e-01 -1.451896e-01
    outer loop
      vertex   2.110746e+00 1.071872e+01 1.811199e+00
      vertex   2.112527e+00 1.072777e+01 1.748377e+00
      vertex   2.238660e+00 1.069387e+01 1.811199e+00
    endloop
  endfacet
  facet normal -1.885051e-01 -9.704983e-01 -1.503293e-01
    outer loop
      vertex   2.110746e+00 1.071872e+01 1.811199e+00
      vertex   2.238660e+00 1.069387e+01 1.811199e+00
      vertex   2.236701e+00 1.068452e+01 1.874079e+00
    endloop
  endfacet
  facet normal -1.996188e-01 -9.682711e-01 -1.503441e-01
    outer loop
      vertex   2.236701e+00 1.068452e+01 1.874079e+00
      vertex   2.238660e+00 1.069387e+01 1.811199e+00
      vertex   2.364647e+00 1.065814e+01 1.874079e+00
    endloop
  endfacet
  facet normal -1.994580e-01 -9.674913e-01 -1.554902e-01
    outer loop
      vertex   2.236701e+00 1.068452e+01 1.874079e+00
      vertex   2.364647e+00 1.065814e+01 1.874079e+00
      vertex   2.362501e+00 1.064847e+01 1.937013e+00
    endloop
  endfacet
  facet normal -2.105773e-01 -9.651295e-01 -1.555063e-01
    outer loop
      vertex   2.362501e+00 1.064847e+01 1.937013e+00
      vertex   2.364647e+00 1.065814e+01 1.874079e+00
      vertex   2.490447e+00 1.062055e+01 1.937013e+00
    endloop
  endfacet
  facet normal -2.104475e-01 -9.645346e-01 -1.593266e-01
    outer loop
      vertex   2.362501e+00 1.064847e+01 1.937013e+00
      vertex   2.490447e+00 1.062055e+01 1.937013e+00
      vertex   2.377362e+00 1.063482e+01 2.000000e+00
    endloop
  endfacet
  facet normal -2.117327e-01 -9.638428e-01 -1.617909e-01
    outer loop
      vertex   2.377362e+00 1.063482e+01 2.000000e+00
      vertex   2.490447e+00 1.062055e+01 1.937013e+00
      vertex   2.502553e+00 1.060732e+01 2.000000e+00
    endloop
  endfacet
  facet normal -2.215661e-01 -9.620100e-01 -1.595157e-01
    outer loop
      vertex   2.502553e+00 1.060732e+01 2.000000e+00
      vertex   2.490447e+00 1.062055e+01 1.937013e+00
      vertex   2.618480e+00 1.059106e+01 1.937013e+00
    endloop
  endfacet
  facet normal -2.226144e-01 -9.614204e-01 -1.615974e-01
    outer loop
      vertex   2.502553e+00 1.060732e+01 2.000000e+00
      vertex   2.618480e+00 1.059106e+01 1.937013e+00
      vertex   2.627425e+00 1.057840e+01 2.000000e+00
    endloop
  endfacet
  facet normal -2.326926e-01 -9.593408e-01 -1.597482e-01
    outer loop
      vertex   2.627425e+00 1.057840e+01 2.000000e+00
      vertex   2.618480e+00 1.059106e+01 1.937013e+00
      vertex   2.746573e+00 1.055999e+01 1.937013e+00
    endloop
  endfacet
  facet normal -2.334738e-01 -9.588810e-01 -1.613604e-01
    outer loop
      vertex   2.627425e+00 1.057840e+01 2.000000e+00
      vertex   2.746573e+00 1.055999e+01 1.937013e+00
      vertex   2.751965e+00 1.054808e+01 2.000000e+00
    endloop
  endfacet
  facet normal -2.438243e-01 -9.565252e-01 -1.600287e-01
    outer loop
      vertex   2.751965e+00 1.054808e+01 2.000000e+00
      vertex   2.746573e+00 1.055999e+01 1.937013e+00
      vertex   2.874697e+00 1.052733e+01 1.937013e+00
    endloop
  endfacet
  facet normal -2.443105e-01 -9.562255e-01 -1.610749e-01
    outer loop
      vertex   2.751965e+00 1.054808e+01 2.000000e+00
      vertex   2.874697e+00 1.052733e+01 1.937013e+00
      vertex   2.876161e+00 1.051635e+01 2.000000e+00
    endloop
  endfacet
  facet normal -2.551401e-01 -9.535152e-01 -1.603504e-01
    outer loop
      vertex   2.876161e+00 1.051635e+01 2.000000e+00
      vertex   2.874697e+00 1.052733e+01 1.937013e+00
      vertex   3.000000e+00 1.048321e+01 2.000000e+00
    endloop
  endfacet
  facet normal -2.561292e-01 -9.535723e-01 -1.584228e-01
    outer loop
      vertex   3.000000e+00 1.048321e+01 2.000000e+00
      vertex   2.874697e+00 1.052733e+01 1.937013e+00
      vertex   3.000000e+00 1.050387e+01 1.875641e+00
    endloop
  endfacet
  facet normal -2.548866e-01 -9.543730e-01 -1.555797e-01
    outer loop
      vertex   3.000000e+00 1.050387e+01 1.875641e+00
      vertex   2.874697e+00 1.052733e+01 1.937013e+00
      vertex   2.877308e+00 1.053689e+01 1.874079e+00
    endloop
  endfacet
  facet normal -2.551549e-01 -9.551264e-01 -1.504309e-01
    outer loop
      vertex   3.000000e+00 1.050387e+01 1.875641e+00
      vertex   2.877308e+00 1.053689e+01 1.874079e+00
      vertex   2.879828e+00 1.054613e+01 1.811199e+00
    endloop
  endfacet
  facet normal -2.441975e-01 -9.579895e-01 -1.504119e-01
    outer loop
      vertex   2.879828e+00 1.054613e+01 1.811199e+00
      vertex   2.877308e+00 1.053689e+01 1.874079e+00
      vertex   2.751476e+00 1.057884e+01 1.811199e+00
    endloop
  endfacet
  facet normal -2.443874e-01 -9.587343e-01 -1.452695e-01
    outer loop
      vertex   2.879828e+00 1.054613e+01 1.811199e+00
      vertex   2.751476e+00 1.057884e+01 1.811199e+00
      vertex   2.753797e+00 1.058777e+01 1.748377e+00
    endloop
  endfacet
  facet normal -2.332199e-01 -9.615146e-01 -1.452519e-01
    outer loop
      vertex   2.753797e+00 1.058777e+01 1.748377e+00
      vertex   2.751476e+00 1.057884e+01 1.811199e+00
      vertex   2.625368e+00 1.061892e+01 1.748377e+00
    endloop
  endfacet
  facet normal -2.333944e-01 -9.622341e-01 -1.401162e-01
    outer loop
      vertex   2.753797e+00 1.058777e+01 1.748377e+00
      vertex   2.625368e+00 1.061892e+01 1.748377e+00
      vertex   2.627499e+00 1.062754e+01 1.685615e+00
    endloop
  endfacet
  facet normal -2.222264e-01 -9.648769e-01 -1.400999e-01
    outer loop
      vertex   2.627499e+00 1.062754e+01 1.685615e+00
      vertex   2.625368e+00 1.061892e+01 1.748377e+00
      vertex   2.499025e+00 1.065713e+01 1.685615e+00
    endloop
  endfacet
  facet normal -1.896424e-01 -9.783997e-01 -8.227884e-02
    outer loop
      vertex   2.126048e+00 1.081113e+01 1.000000e+00
      vertex   2.251821e+00 1.078675e+01 1.000000e+00
      vertex   2.128343e+00 1.080808e+01 1.030949e+00
    endloop
  endfacet
  facet normal -1.900005e-01 -9.781971e-01 -8.384700e-02
    outer loop
      vertex   2.128343e+00 1.080808e+01 1.030949e+00
      vertex   2.251821e+00 1.078675e+01 1.000000e+00
      vertex   2.257324e+00 1.078303e+01 1.030949e+00
    endloop
  endfacet
  facet normal -1.899769e-01 -9.780760e-01 -8.530011e-02
    outer loop
      vertex   2.128343e+00 1.080808e+01 1.030949e+00
      vertex   2.257324e+00 1.078303e+01 1.030949e+00
      vertex   2.256781e+00 1.078044e+01 1.061920e+00
    endloop
  endfacet
  facet normal -2.011777e-01 -9.758330e-01 -8.530864e-02
    outer loop
      vertex   2.256781e+00 1.078044e+01 1.061920e+00
      vertex   2.257324e+00 1.078303e+01 1.030949e+00
      vertex   2.385876e+00 1.075382e+01 1.061920e+00
    endloop
  endfacet
  facet normal -2.011333e-01 -9.756178e-01 -8.783653e-02
    outer loop
      vertex   2.256781e+00 1.078044e+01 1.061920e+00
      vertex   2.385876e+00 1.075382e+01 1.061920e+00
      vertex   2.385284e+00 1.075115e+01 1.092913e+00
    endloop
  endfacet
  facet normal -2.123464e-01 -9.732380e-01 -8.784582e-02
    outer loop
      vertex   2.385284e+00 1.075115e+01 1.092913e+00
      vertex   2.385876e+00 1.075382e+01 1.061920e+00
      vertex   2.514463e+00 1.072297e+01 1.092913e+00
    endloop
  endfacet
  facet normal -2.122982e-01 -9.730168e-01 -9.037596e-02
    outer loop
      vertex   2.385284e+00 1.075115e+01 1.092913e+00
      vertex   2.514463e+00 1.072297e+01 1.092913e+00
      vertex   2.513820e+00 1.072023e+01 1.123929e+00
    endloop
  endfacet
  facet normal -2.235212e-01 -9.704992e-01 -9.038604e-02
    outer loop
      vertex   2.513820e+00 1.072023e+01 1.123929e+00
      vertex   2.514463e+00 1.072297e+01 1.092913e+00
      vertex   2.643055e+00 1.069046e+01 1.123929e+00
    endloop
  endfacet
  facet normal -2.234422e-01 -9.701559e-01 -9.418629e-02
    outer loop
      vertex   2.513820e+00 1.072023e+01 1.123929e+00
      vertex   2.643055e+00 1.069046e+01 1.123929e+00
      vertex   2.641645e+00 1.068476e+01 1.186025e+00
    endloop
  endfacet
  facet normal -2.346716e-01 -9.674999e-01 -9.419734e-02
    outer loop
      vertex   2.641645e+00 1.068476e+01 1.186025e+00
      vertex   2.643055e+00 1.069046e+01 1.123929e+00
      vertex   2.770871e+00 1.065341e+01 1.186025e+00
    endloop
  endfacet
  facet normal -2.345554e-01 -9.670208e-01 -9.927050e-02
    outer loop
      vertex   2.641645e+00 1.068476e+01 1.186025e+00
      vertex   2.770871e+00 1.065341e+01 1.186025e+00
      vertex   2.769309e+00 1.064741e+01 1.248206e+00
    endloop
  endfacet
  facet normal -2.457872e-01 -9.642259e-01 -9.928271e-02
    outer loop
      vertex   2.769309e+00 1.064741e+01 1.248206e+00
      vertex   2.770871e+00 1.065341e+01 1.186025e+00
      vertex   2.898494e+00 1.061448e+01 1.248206e+00
    endloop
  endfacet
  facet normal -2.456588e-01 -9.637219e-01 -1.043641e-01
    outer loop
      vertex   2.769309e+00 1.064741e+01 1.248206e+00
      vertex   2.898494e+00 1.061448e+01 1.248206e+00
      vertex   2.896773e+00 1.060818e+01 1.310468e+00
    endloop
  endfacet
  facet normal -2.556259e-01 -9.611248e-01 -1.043767e-01
    outer loop
      vertex   2.896773e+00 1.060818e+01 1.310468e+00
      vertex   2.898494e+00 1.061448e+01 1.248206e+00
      vertex   3.000000e+00 1.058718e+01 1.250979e+00
    endloop
  endfacet
  facet normal -2.571488e-01 -9.603991e-01 -1.072753e-01
    outer loop
      vertex   2.896773e+00 1.060818e+01 1.310468e+00
      vertex   3.000000e+00 1.058718e+01 1.250979e+00
      vertex   3.000000e+00 1.057319e+01 1.376254e+00
    endloop
  endfacet
  facet normal -2.005551e-01 -9.762666e-01 -8.173790e-02
    outer loop
      vertex   2.251821e+00 1.078675e+01 1.000000e+00
      vertex   2.377307e+00 1.076097e+01 1.000000e+00
      vertex   2.257324e+00 1.078303e+01 1.030949e+00
    endloop
  endfacet
  facet normal -2.011922e-01 -9.759032e-01 -8.446662e-02
    outer loop
      vertex   2.257324e+00 1.078303e+01 1.030949e+00
      vertex   2.377307e+00 1.076097e+01 1.000000e+00
      vertex   2.386450e+00 1.075641e+01 1.030949e+00
    endloop
  endfacet
  facet normal -2.011777e-01 -9.758330e-01 -8.530864e-02
    outer loop
      vertex   2.257324e+00 1.078303e+01 1.030949e+00
      vertex   2.386450e+00 1.075641e+01 1.030949e+00
      vertex   2.385876e+00 1.075382e+01 1.061920e+00
    endloop
  endfacet
  facet normal -2.123932e-01 -9.734526e-01 -8.531766e-02
    outer loop
      vertex   2.385876e+00 1.075382e+01 1.061920e+00
      vertex   2.386450e+00 1.075641e+01 1.030949e+00
      vertex   2.515087e+00 1.072563e+01 1.061920e+00
    endloop
  endfacet
  facet normal -2.123464e-01 -9.732380e-01 -8.784582e-02
    outer loop
      vertex   2.385876e+00 1.075382e+01 1.061920e+00
      vertex   2.515087e+00 1.072563e+01 1.061920e+00
      vertex   2.514463e+00 1.072297e+01 1.092913e+00
    endloop
  endfacet
  facet normal -2.235721e-01 -9.707198e-01 -8.785562e-02
    outer loop
      vertex   2.514463e+00 1.072297e+01 1.092913e+00
      vertex   2.515087e+00 1.072563e+01 1.061920e+00
      vertex   2.643731e+00 1.069320e+01 1.092913e+00
    endloop
  endfacet
  facet normal -2.235212e-01 -9.704992e-01 -9.038604e-02
    outer loop
      vertex   2.514463e+00 1.072297e+01 1.092913e+00
      vertex   2.643731e+00 1.069320e+01 1.092913e+00
      vertex   2.643055e+00 1.069046e+01 1.123929e+00
    endloop
  endfacet
  facet normal -2.347547e-01 -9.678423e-01 -9.039666e-02
    outer loop
      vertex   2.643055e+00 1.069046e+01 1.123929e+00
      vertex   2.643731e+00 1.069320e+01 1.092913e+00
      vertex   2.772350e+00 1.065910e+01 1.123929e+00
    endloop
  endfacet
  facet normal -2.346716e-01 -9.674999e-01 -9.419734e-02
    outer loop
      vertex   2.643055e+00 1.069046e+01 1.123929e+00
      vertex   2.772350e+00 1.065910e+01 1.123929e+00
      vertex   2.770871e+00 1.065341e+01 1.186025e+00
    endloop
  endfacet
  facet normal -2.459091e-01 -9.647038e-01 -9.420894e-02
    outer loop
      vertex   2.770871e+00 1.065341e+01 1.186025e+00
      vertex   2.772350e+00 1.065910e+01 1.123929e+00
      vertex   2.900128e+00 1.062047e+01 1.186025e+00
    endloop
  endfacet
  facet normal -2.457872e-01 -9.642259e-01 -9.928271e-02
    outer loop
      vertex   2.770871e+00 1.065341e+01 1.186025e+00
      vertex   2.900128e+00 1.062047e+01 1.186025e+00
      vertex   2.898494e+00 1.061448e+01 1.248206e+00
    endloop
  endfacet
  facet normal -2.558906e-01 -9.615927e-01 -9.929481e-02
    outer loop
      vertex   2.898494e+00 1.061448e+01 1.248206e+00
      vertex   2.900128e+00 1.062047e+01 1.186025e+00
      vertex   3.000000e+00 1.058718e+01 1.250979e+00
    endloop
  endfacet
  facet normal -2.114473e-01 -9.740141e-01 -8.115830e-02
    outer loop
      vertex   2.377307e+00 1.076097e+01 1.000000e+00
      vertex   2.502493e+00 1.073380e+01 1.000000e+00
      vertex   2.386450e+00 1.075641e+01 1.030949e+00
    endloop
  endfacet
  facet normal -2.123969e-01 -9.734694e-01 -8.511702e-02
    outer loop
      vertex   2.386450e+00 1.075641e+01 1.030949e+00
      vertex   2.502493e+00 1.073380e+01 1.000000e+00
      vertex   2.515693e+00 1.072821e+01 1.030949e+00
    endloop
  endfacet
  facet normal -2.123932e-01 -9.734526e-01 -8.531766e-02
    outer loop
      vertex   2.386450e+00 1.075641e+01 1.030949e+00
      vertex   2.515693e+00 1.072821e+01 1.030949e+00
      vertex   2.515087e+00 1.072563e+01 1.061920e+00
    endloop
  endfacet
  facet normal -2.236214e-01 -9.709340e-01 -8.532719e-02
    outer loop
      vertex   2.515087e+00 1.072563e+01 1.061920e+00
      vertex   2.515693e+00 1.072821e+01 1.030949e+00
      vertex   2.644387e+00 1.069585e+01 1.061920e+00
    endloop
  endfacet
  facet normal -2.235721e-01 -9.707198e-01 -8.785562e-02
    outer loop
      vertex   2.515087e+00 1.072563e+01 1.061920e+00
      vertex   2.644387e+00 1.069585e+01 1.061920e+00
      vertex   2.643731e+00 1.069320e+01 1.092913e+00
    endloop
  endfacet
  facet normal -2.348080e-01 -9.680624e-01 -8.786594e-02
    outer loop
      vertex   2.643731e+00 1.069320e+01 1.092913e+00
      vertex   2.644387e+00 1.069585e+01 1.061920e+00
      vertex   2.773059e+00 1.066183e+01 1.092913e+00
    endloop
  endfacet
  facet normal -2.347547e-01 -9.678423e-01 -9.039666e-02
    outer loop
      vertex   2.643731e+00 1.069320e+01 1.092913e+00
      vertex   2.773059e+00 1.066183e+01 1.092913e+00
      vertex   2.772350e+00 1.065910e+01 1.123929e+00
    endloop
  endfacet
  facet normal -2.459961e-01 -9.650453e-01 -9.040779e-02
    outer loop
      vertex   2.772350e+00 1.065910e+01 1.123929e+00
      vertex   2.773059e+00 1.066183e+01 1.092913e+00
      vertex   2.901677e+00 1.062614e+01 1.123929e+00
    endloop
  endfacet
  facet normal -2.459091e-01 -9.647038e-01 -9.420894e-02
    outer loop
      vertex   2.772350e+00 1.065910e+01 1.123929e+00
      vertex   2.901677e+00 1.062614e+01 1.123929e+00
      vertex   2.900128e+00 1.062047e+01 1.186025e+00
    endloop
  endfacet
  facet normal -2.557656e-01 -9.621364e-01 -9.422027e-02
    outer loop
      vertex   2.900128e+00 1.062047e+01 1.186025e+00
      vertex   2.901677e+00 1.062614e+01 1.123929e+00
      vertex   3.000000e+00 1.059984e+01 1.125557e+00
    endloop
  endfacet
  facet normal -2.573189e-01 -9.614435e-01 -9.702220e-02
    outer loop
      vertex   2.900128e+00 1.062047e+01 1.186025e+00
      vertex   3.000000e+00 1.059984e+01 1.125557e+00
      vertex   3.000000e+00 1.058718e+01 1.250979e+00
    endloop
  endfacet
  facet normal -2.223177e-01 -9.716407e-01 -8.055584e-02
    outer loop
      vertex   2.502493e+00 1.073380e+01 1.000000e+00
      vertex   2.627368e+00 1.070523e+01 1.000000e+00
      vertex   2.515693e+00 1.072821e+01 1.030949e+00
    endloop
  endfacet
  facet normal -2.236126e-01 -9.708959e-01 -8.578175e-02
    outer loop
      vertex   2.515693e+00 1.072821e+01 1.030949e+00
      vertex   2.627368e+00 1.070523e+01 1.000000e+00
      vertex   2.645024e+00 1.069842e+01 1.030949e+00
    endloop
  endfacet
  facet normal -2.236214e-01 -9.709340e-01 -8.532719e-02
    outer loop
      vertex   2.515693e+00 1.072821e+01 1.030949e+00
      vertex   2.645024e+00 1.069842e+01 1.030949e+00
      vertex   2.644387e+00 1.069585e+01 1.061920e+00
    endloop
  endfacet
  facet normal -2.348599e-01 -9.682760e-01 -8.533722e-02
    outer loop
      vertex   2.644387e+00 1.069585e+01 1.061920e+00
      vertex   2.645024e+00 1.069842e+01 1.030949e+00
      vertex   2.773747e+00 1.066447e+01 1.061920e+00
    endloop
  endfacet
  facet normal -2.348080e-01 -9.680624e-01 -8.786594e-02
    outer loop
      vertex   2.644387e+00 1.069585e+01 1.061920e+00
      vertex   2.773747e+00 1.066447e+01 1.061920e+00
      vertex   2.773059e+00 1.066183e+01 1.092913e+00
    endloop
  endfacet
  facet normal -2.460521e-01 -9.652648e-01 -8.787677e-02
    outer loop
      vertex   2.773059e+00 1.066183e+01 1.092913e+00
      vertex   2.773747e+00 1.066447e+01 1.061920e+00
      vertex   2.902418e+00 1.062885e+01 1.092913e+00
    endloop
  endfacet
  facet normal -2.459961e-01 -9.650453e-01 -9.040779e-02
    outer loop
      vertex   2.773059e+00 1.066183e+01 1.092913e+00
      vertex   2.902418e+00 1.062885e+01 1.092913e+00
      vertex   2.901677e+00 1.062614e+01 1.123929e+00
    endloop
  endfacet
  facet normal -2.559155e-01 -9.624613e-01 -9.041872e-02
    outer loop
      vertex   2.901677e+00 1.062614e+01 1.123929e+00
      vertex   2.902418e+00 1.062885e+01 1.092913e+00
      vertex   3.000000e+00 1.059984e+01 1.125557e+00
    endloop
  endfacet
  facet normal -2.331652e-01 -9.691452e-01 -7.994750e-02
    outer loop
      vertex   2.627368e+00 1.070523e+01 1.000000e+00
      vertex   2.751919e+00 1.067526e+01 1.000000e+00
      vertex   2.645024e+00 1.069842e+01 1.030949e+00
    endloop
  endfacet
  facet normal -2.348374e-01 -9.681833e-01 -8.644321e-02
    outer loop
      vertex   2.645024e+00 1.069842e+01 1.030949e+00
      vertex   2.751919e+00 1.067526e+01 1.000000e+00
      vertex   2.774415e+00 1.066704e+01 1.030949e+00
    endloop
  endfacet
  facet normal -2.348599e-01 -9.682760e-01 -8.533722e-02
    outer loop
      vertex   2.645024e+00 1.069842e+01 1.030949e+00
      vertex   2.774415e+00 1.066704e+01 1.030949e+00
      vertex   2.773747e+00 1.066447e+01 1.061920e+00
    endloop
  endfacet
  facet normal -2.461064e-01 -9.654778e-01 -8.534774e-02
    outer loop
      vertex   2.773747e+00 1.066447e+01 1.061920e+00
      vertex   2.774415e+00 1.066704e+01 1.030949e+00
      vertex   2.903139e+00 1.063149e+01 1.061920e+00
    endloop
  endfacet
  facet normal -2.460521e-01 -9.652648e-01 -8.787677e-02
    outer loop
      vertex   2.773747e+00 1.066447e+01 1.061920e+00
      vertex   2.903139e+00 1.063149e+01 1.061920e+00
      vertex   2.902418e+00 1.062885e+01 1.092913e+00
    endloop
  endfacet
  facet normal -2.567646e-01 -9.624696e-01 -8.788784e-02
    outer loop
      vertex   2.902418e+00 1.062885e+01 1.092913e+00
      vertex   2.903139e+00 1.063149e+01 1.061920e+00
      vertex   3.000000e+00 1.059984e+01 1.125557e+00
    endloop
  endfacet
  facet normal -2.439885e-01 -9.665262e-01 -7.935132e-02
    outer loop
      vertex   2.751919e+00 1.067526e+01 1.000000e+00
      vertex   2.876134e+00 1.064390e+01 1.000000e+00
      vertex   2.774415e+00 1.066704e+01 1.030949e+00
    endloop
  endfacet
  facet normal -2.460693e-01 -9.653323e-01 -8.708286e-02
    outer loop
      vertex   2.774415e+00 1.066704e+01 1.030949e+00
      vertex   2.876134e+00 1.064390e+01 1.000000e+00
      vertex   2.903838e+00 1.063405e+01 1.030949e+00
    endloop
  endfacet
  facet normal -2.461064e-01 -9.654778e-01 -8.534774e-02
    outer loop
      vertex   2.774415e+00 1.066704e+01 1.030949e+00
      vertex   2.903838e+00 1.063405e+01 1.030949e+00
      vertex   2.903139e+00 1.063149e+01 1.061920e+00
    endloop
  endfacet
  facet normal -2.566503e-01 -9.627277e-01 -8.535841e-02
    outer loop
      vertex   2.903139e+00 1.063149e+01 1.061920e+00
      vertex   2.903838e+00 1.063405e+01 1.030949e+00
      vertex   3.000000e+00 1.061116e+01 1.000000e+00
    endloop
  endfacet
  facet normal -2.574753e-01 -9.623818e-01 -8.676247e-02
    outer loop
      vertex   2.903139e+00 1.063149e+01 1.061920e+00
      vertex   3.000000e+00 1.061116e+01 1.000000e+00
      vertex   3.000000e+00 1.059984e+01 1.125557e+00
    endloop
  endfacet
  facet normal -2.547863e-01 -9.637825e-01 -7.878630e-02
    outer loop
      vertex   2.876134e+00 1.064390e+01 1.000000e+00
      vertex   3.000000e+00 1.061116e+01 1.000000e+00
      vertex   2.903838e+00 1.063405e+01 1.030949e+00
    endloop
  endfacet
  facet normal -2.569664e-01 -9.592481e-01 -1.175213e-01
    outer loop
      vertex   3.000000e+00 1.055786e+01 1.501369e+00
      vertex   2.893068e+00 1.059461e+01 1.435228e+00
      vertex   3.000000e+00 1.057319e+01 1.376254e+00
    endloop
  endfacet
  facet normal -2.554858e-01 -9.600012e-01 -1.145630e-01
    outer loop
      vertex   3.000000e+00 1.057319e+01 1.376254e+00
      vertex   2.893068e+00 1.059461e+01 1.435228e+00
      vertex   2.894964e+00 1.060155e+01 1.372810e+00
    endloop
  endfacet
  facet normal -2.557915e-01 -9.605144e-01 -1.094664e-01
    outer loop
      vertex   3.000000e+00 1.057319e+01 1.376254e+00
      vertex   2.894964e+00 1.060155e+01 1.372810e+00
      vertex   2.896773e+00 1.060818e+01 1.310468e+00
    endloop
  endfacet
  facet normal -2.455236e-01 -9.631917e-01 -1.094529e-01
    outer loop
      vertex   2.896773e+00 1.060818e+01 1.310468e+00
      vertex   2.894964e+00 1.060155e+01 1.372810e+00
      vertex   2.767665e+00 1.064109e+01 1.310468e+00
    endloop
  endfacet
  facet normal -2.456588e-01 -9.637219e-01 -1.043641e-01
    outer loop
      vertex   2.896773e+00 1.060818e+01 1.310468e+00
      vertex   2.767665e+00 1.064109e+01 1.310468e+00
      vertex   2.769309e+00 1.064741e+01 1.248206e+00
    endloop
  endfacet
  facet normal -2.344328e-01 -9.665154e-01 -1.043513e-01
    outer loop
      vertex   2.769309e+00 1.064741e+01 1.248206e+00
      vertex   2.767665e+00 1.064109e+01 1.310468e+00
      vertex   2.640156e+00 1.067874e+01 1.248206e+00
    endloop
  endfacet
  facet normal -2.345554e-01 -9.670208e-01 -9.927050e-02
    outer loop
      vertex   2.769309e+00 1.064741e+01 1.248206e+00
      vertex   2.640156e+00 1.067874e+01 1.248206e+00
      vertex   2.641645e+00 1.068476e+01 1.186025e+00
    endloop
  endfacet
  facet normal -2.233316e-01 -9.696756e-01 -9.925886e-02
    outer loop
      vertex   2.641645e+00 1.068476e+01 1.186025e+00
      vertex   2.640156e+00 1.067874e+01 1.248206e+00
      vertex   2.512479e+00 1.071451e+01 1.186025e+00
    endloop
  endfacet
  facet normal -2.234422e-01 -9.701559e-01 -9.418629e-02
    outer loop
      vertex   2.641645e+00 1.068476e+01 1.186025e+00
      vertex   2.512479e+00 1.071451e+01 1.186025e+00
      vertex   2.513820e+00 1.072023e+01 1.123929e+00
    endloop
  endfacet
  facet normal -2.122231e-01 -9.726728e-01 -9.417579e-02
    outer loop
      vertex   2.513820e+00 1.072023e+01 1.123929e+00
      vertex   2.512479e+00 1.071451e+01 1.186025e+00
      vertex   2.384674e+00 1.074841e+01 1.123929e+00
    endloop
  endfacet
  facet normal -2.122982e-01 -9.730168e-01 -9.037596e-02
    outer loop
      vertex   2.513820e+00 1.072023e+01 1.123929e+00
      vertex   2.384674e+00 1.074841e+01 1.123929e+00
      vertex   2.385284e+00 1.075115e+01 1.092913e+00
    endloop
  endfacet
  facet normal -2.010876e-01 -9.753962e-01 -9.036641e-02
    outer loop
      vertex   2.385284e+00 1.075115e+01 1.092913e+00
      vertex   2.384674e+00 1.074841e+01 1.123929e+00
      vertex   2.256221e+00 1.077776e+01 1.092913e+00
    endloop
  endfacet
  facet normal -2.011333e-01 -9.756178e-01 -8.783653e-02
    outer loop
      vertex   2.385284e+00 1.075115e+01 1.092913e+00
      vertex   2.256221e+00 1.077776e+01 1.092913e+00
      vertex   2.256781e+00 1.078044e+01 1.061920e+00
    endloop
  endfacet
  facet normal -1.899351e-01 -9.778604e-01 -8.782775e-02
    outer loop
      vertex   2.256781e+00 1.078044e+01 1.061920e+00
      vertex   2.256221e+00 1.077776e+01 1.092913e+00
      vertex   2.127831e+00 1.080548e+01 1.061920e+00
    endloop
  endfacet
  facet normal -1.899769e-01 -9.780760e-01 -8.530011e-02
    outer loop
      vertex   2.256781e+00 1.078044e+01 1.061920e+00
      vertex   2.127831e+00 1.080548e+01 1.061920e+00
      vertex   2.128343e+00 1.080808e+01 1.030949e+00
    endloop
  endfacet
  facet normal -2.565690e-01 -9.566249e-01 -1.379896e-01
    outer loop
      vertex   3.000000e+00 1.054120e+01 1.626314e+00
      vertex   3.000000e+00 1.052320e+01 1.751075e+00
      vertex   2.884599e+00 1.056359e+01 1.685615e+00
    endloop
  endfacet
  facet normal -2.553475e-01 -9.566375e-01 -1.401508e-01
    outer loop
      vertex   2.884599e+00 1.056359e+01 1.685615e+00
      vertex   3.000000e+00 1.052320e+01 1.751075e+00
      vertex   2.882258e+00 1.055502e+01 1.748377e+00
    endloop
  endfacet
  facet normal -2.445703e-01 -9.594519e-01 -1.401332e-01
    outer loop
      vertex   2.884599e+00 1.056359e+01 1.685615e+00
      vertex   2.882258e+00 1.055502e+01 1.748377e+00
      vertex   2.756033e+00 1.059637e+01 1.685615e+00
    endloop
  endfacet
  facet normal -2.445703e-01 -9.594519e-01 -1.401332e-01
    outer loop
      vertex   2.756033e+00 1.059637e+01 1.685615e+00
      vertex   2.882258e+00 1.055502e+01 1.748377e+00
      vertex   2.753797e+00 1.058777e+01 1.748377e+00
    endloop
  endfacet
  facet normal -2.333944e-01 -9.622341e-01 -1.401162e-01
    outer loop
      vertex   2.756033e+00 1.059637e+01 1.685615e+00
      vertex   2.753797e+00 1.058777e+01 1.748377e+00
      vertex   2.627499e+00 1.062754e+01 1.685615e+00
    endloop
  endfacet
  facet normal -2.550445e-01 -9.559518e-01 -1.452876e-01
    outer loop
      vertex   2.882258e+00 1.055502e+01 1.748377e+00
      vertex   3.000000e+00 1.052320e+01 1.751075e+00
      vertex   2.879828e+00 1.054613e+01 1.811199e+00
    endloop
  endfacet
  facet normal -2.563545e-01 -9.551523e-01 -1.482109e-01
    outer loop
      vertex   2.879828e+00 1.054613e+01 1.811199e+00
      vertex   3.000000e+00 1.052320e+01 1.751075e+00
      vertex   3.000000e+00 1.050387e+01 1.875641e+00
    endloop
  endfacet
  facet normal -2.008294e-01 -9.661476e-01 -1.619454e-01
    outer loop
      vertex   2.377362e+00 1.063482e+01 2.000000e+00
      vertex   2.251865e+00 1.066091e+01 2.000000e+00
      vertex   2.362501e+00 1.064847e+01 1.937013e+00
    endloop
  endfacet
  facet normal -1.993394e-01 -9.669161e-01 -1.591765e-01
    outer loop
      vertex   2.362501e+00 1.064847e+01 1.937013e+00
      vertex   2.251865e+00 1.066091e+01 2.000000e+00
      vertex   2.234671e+00 1.067482e+01 1.937013e+00
    endloop
  endfacet
  facet normal -1.994580e-01 -9.674913e-01 -1.554902e-01
    outer loop
      vertex   2.362501e+00 1.064847e+01 1.937013e+00
      vertex   2.234671e+00 1.067482e+01 1.937013e+00
      vertex   2.236701e+00 1.068452e+01 1.874079e+00
    endloop
  endfacet
  facet normal -1.883533e-01 -9.697168e-01 -1.554749e-01
    outer loop
      vertex   2.236701e+00 1.068452e+01 1.874079e+00
      vertex   2.234671e+00 1.067482e+01 1.937013e+00
      vertex   2.108898e+00 1.070934e+01 1.874079e+00
    endloop
  endfacet
  facet normal -1.885051e-01 -9.704983e-01 -1.503293e-01
    outer loop
      vertex   2.236701e+00 1.068452e+01 1.874079e+00
      vertex   2.108898e+00 1.070934e+01 1.874079e+00
      vertex   2.110746e+00 1.071872e+01 1.811199e+00
    endloop
  endfacet
  facet normal -1.781863e-01 -9.724477e-01 -1.503170e-01
    outer loop
      vertex   2.110746e+00 1.071872e+01 1.811199e+00
      vertex   2.108898e+00 1.070934e+01 1.874079e+00
      vertex   2.000000e+00 1.072906e+01 1.875614e+00
    endloop
  endfacet
  facet normal -1.767971e-01 -9.730827e-01 -1.478268e-01
    outer loop
      vertex   2.110746e+00 1.071872e+01 1.811199e+00
      vertex   2.000000e+00 1.072906e+01 1.875614e+00
      vertex   2.000000e+00 1.074798e+01 1.751030e+00
    endloop
  endfacet
  facet normal -1.899049e-01 -9.683342e-01 -1.620651e-01
    outer loop
      vertex   2.251865e+00 1.066091e+01 2.000000e+00
      vertex   2.126073e+00 1.068558e+01 2.000000e+00
      vertex   2.234671e+00 1.067482e+01 1.937013e+00
    endloop
  endfacet
  facet normal -1.882444e-01 -9.691560e-01 -1.590617e-01
    outer loop
      vertex   2.234671e+00 1.067482e+01 1.937013e+00
      vertex   2.126073e+00 1.068558e+01 2.000000e+00
      vertex   2.106984e+00 1.069962e+01 1.937013e+00
    endloop
  endfacet
  facet normal -1.883533e-01 -9.697168e-01 -1.554749e-01
    outer loop
      vertex   2.234671e+00 1.067482e+01 1.937013e+00
      vertex   2.106984e+00 1.069962e+01 1.937013e+00
      vertex   2.108898e+00 1.070934e+01 1.874079e+00
    endloop
  endfacet
  facet normal -1.781147e-01 -9.716515e-01 -1.554623e-01
    outer loop
      vertex   2.108898e+00 1.070934e+01 1.874079e+00
      vertex   2.106984e+00 1.069962e+01 1.937013e+00
      vertex   2.000000e+00 1.072906e+01 1.875614e+00
    endloop
  endfacet
  facet normal -1.789600e-01 -9.704018e-01 -1.621532e-01
    outer loop
      vertex   2.126073e+00 1.068558e+01 2.000000e+00
      vertex   2.000000e+00 1.070883e+01 2.000000e+00
      vertex   2.106984e+00 1.069962e+01 1.937013e+00
    endloop
  endfacet
  facet normal -1.766156e-01 -9.715144e-01 -1.580086e-01
    outer loop
      vertex   2.106984e+00 1.069962e+01 1.937013e+00
      vertex   2.000000e+00 1.070883e+01 2.000000e+00
      vertex   2.000000e+00 1.072906e+01 1.875614e+00
    endloop
  endfacet
  facet normal -1.783837e-01 -9.753626e-01 -1.297965e-01
    outer loop
      vertex   2.115892e+00 1.074485e+01 1.622917e+00
      vertex   2.000000e+00 1.076560e+01 1.626259e+00
      vertex   2.117476e+00 1.075290e+01 1.560284e+00
    endloop
  endfacet
  facet normal -1.771163e-01 -9.759047e-01 -1.274354e-01
    outer loop
      vertex   2.117476e+00 1.075290e+01 1.560284e+00
      vertex   2.000000e+00 1.076560e+01 1.626259e+00
      vertex   2.000000e+00 1.078192e+01 1.501313e+00
    endloop
  endfacet
  facet normal -1.785227e-01 -9.760040e-01 -1.246827e-01
    outer loop
      vertex   2.117476e+00 1.075290e+01 1.560284e+00
      vertex   2.000000e+00 1.078192e+01 1.501313e+00
      vertex   2.118995e+00 1.076061e+01 1.497720e+00
    endloop
  endfacet
  facet normal -1.784841e-01 -9.766500e-01 -1.195754e-01
    outer loop
      vertex   2.118995e+00 1.076061e+01 1.497720e+00
      vertex   2.000000e+00 1.078192e+01 1.501313e+00
      vertex   2.120449e+00 1.076800e+01 1.435228e+00
    endloop
  endfacet
  facet normal -1.893036e-01 -9.746093e-01 -1.195860e-01
    outer loop
      vertex   2.118995e+00 1.076061e+01 1.497720e+00
      vertex   2.120449e+00 1.076800e+01 1.435228e+00
      vertex   2.247410e+00 1.073567e+01 1.497720e+00
    endloop
  endfacet
  facet normal -1.893036e-01 -9.746093e-01 -1.195860e-01
    outer loop
      vertex   2.247410e+00 1.073567e+01 1.497720e+00
      vertex   2.120449e+00 1.076800e+01 1.435228e+00
      vertex   2.248952e+00 1.074304e+01 1.435228e+00
    endloop
  endfacet
  facet normal -2.004645e-01 -9.723735e-01 -1.195979e-01
    outer loop
      vertex   2.247410e+00 1.073567e+01 1.497720e+00
      vertex   2.248952e+00 1.074304e+01 1.435228e+00
      vertex   2.375968e+00 1.070917e+01 1.497720e+00
    endloop
  endfacet
  facet normal -2.004645e-01 -9.723735e-01 -1.195979e-01
    outer loop
      vertex   2.375968e+00 1.070917e+01 1.497720e+00
      vertex   2.248952e+00 1.074304e+01 1.435228e+00
      vertex   2.377599e+00 1.071652e+01 1.435228e+00
    endloop
  endfacet
  facet normal -2.116401e-01 -9.700009e-01 -1.196105e-01
    outer loop
      vertex   2.375968e+00 1.070917e+01 1.497720e+00
      vertex   2.377599e+00 1.071652e+01 1.435228e+00
      vertex   2.504643e+00 1.068109e+01 1.497720e+00
    endloop
  endfacet
  facet normal -2.116401e-01 -9.700009e-01 -1.196105e-01
    outer loop
      vertex   2.504643e+00 1.068109e+01 1.497720e+00
      vertex   2.377599e+00 1.071652e+01 1.435228e+00
      vertex   2.506362e+00 1.068842e+01 1.435228e+00
    endloop
  endfacet
  facet normal -2.228283e-01 -9.674904e-01 -1.196237e-01
    outer loop
      vertex   2.504643e+00 1.068109e+01 1.497720e+00
      vertex   2.506362e+00 1.068842e+01 1.435228e+00
      vertex   2.633406e+00 1.065144e+01 1.497720e+00
    endloop
  endfacet
  facet normal -2.228283e-01 -9.674904e-01 -1.196237e-01
    outer loop
      vertex   2.633406e+00 1.065144e+01 1.497720e+00
      vertex   2.506362e+00 1.068842e+01 1.435228e+00
      vertex   2.635214e+00 1.065875e+01 1.435228e+00
    endloop
  endfacet
  facet normal -2.340267e-01 -9.648411e-01 -1.196377e-01
    outer loop
      vertex   2.633406e+00 1.065144e+01 1.497720e+00
      vertex   2.635214e+00 1.065875e+01 1.435228e+00
      vertex   2.762229e+00 1.062019e+01 1.497720e+00
    endloop
  endfacet
  facet normal -2.340267e-01 -9.648411e-01 -1.196377e-01
    outer loop
      vertex   2.762229e+00 1.062019e+01 1.497720e+00
      vertex   2.635214e+00 1.065875e+01 1.435228e+00
      vertex   2.764125e+00 1.062748e+01 1.435228e+00
    endloop
  endfacet
  facet normal -2.452331e-01 -9.620520e-01 -1.196523e-01
    outer loop
      vertex   2.762229e+00 1.062019e+01 1.497720e+00
      vertex   2.764125e+00 1.062748e+01 1.435228e+00
      vertex   2.891083e+00 1.058734e+01 1.497720e+00
    endloop
  endfacet
  facet normal -1.772544e-01 -9.771585e-01 -1.172268e-01
    outer loop
      vertex   2.000000e+00 1.078192e+01 1.501313e+00
      vertex   2.000000e+00 1.079693e+01 1.376202e+00
      vertex   2.120449e+00 1.076800e+01 1.435228e+00
    endloop
  endfacet
  facet normal -1.786213e-01 -9.772358e-01 -1.144754e-01
    outer loop
      vertex   2.120449e+00 1.076800e+01 1.435228e+00
      vertex   2.000000e+00 1.079693e+01 1.376202e+00
      vertex   2.121839e+00 1.077506e+01 1.372810e+00
    endloop
  endfacet
  facet normal -1.894182e-01 -9.751994e-01 -1.144855e-01
    outer loop
      vertex   2.120449e+00 1.076800e+01 1.435228e+00
      vertex   2.121839e+00 1.077506e+01 1.372810e+00
      vertex   2.248952e+00 1.074304e+01 1.435228e+00
    endloop
  endfacet
  facet normal -1.894182e-01 -9.751994e-01 -1.144855e-01
    outer loop
      vertex   2.248952e+00 1.074304e+01 1.435228e+00
      vertex   2.121839e+00 1.077506e+01 1.372810e+00
      vertex   2.250426e+00 1.075008e+01 1.372810e+00
    endloop
  endfacet
  facet normal -2.005859e-01 -9.729624e-01 -1.144969e-01
    outer loop
      vertex   2.248952e+00 1.074304e+01 1.435228e+00
      vertex   2.250426e+00 1.075008e+01 1.372810e+00
      vertex   2.377599e+00 1.071652e+01 1.435228e+00
    endloop
  endfacet
  facet normal -2.005859e-01 -9.729624e-01 -1.144969e-01
    outer loop
      vertex   2.377599e+00 1.071652e+01 1.435228e+00
      vertex   2.250426e+00 1.075008e+01 1.372810e+00
      vertex   2.379157e+00 1.072354e+01 1.372810e+00
    endloop
  endfacet
  facet normal -2.117683e-01 -9.705884e-01 -1.145090e-01
    outer loop
      vertex   2.377599e+00 1.071652e+01 1.435228e+00
      vertex   2.379157e+00 1.072354e+01 1.372810e+00
      vertex   2.506362e+00 1.068842e+01 1.435228e+00
    endloop
  endfacet
  facet normal -2.117683e-01 -9.705884e-01 -1.145090e-01
    outer loop
      vertex   2.506362e+00 1.068842e+01 1.435228e+00
      vertex   2.379157e+00 1.072354e+01 1.372810e+00
      vertex   2.508005e+00 1.069543e+01 1.372810e+00
    endloop
  endfacet
  facet normal -2.229633e-01 -9.680765e-01 -1.145217e-01
    outer loop
      vertex   2.506362e+00 1.068842e+01 1.435228e+00
      vertex   2.508005e+00 1.069543e+01 1.372810e+00
      vertex   2.635214e+00 1.065875e+01 1.435228e+00
    endloop
  endfacet
  facet normal -2.229633e-01 -9.680765e-01 -1.145217e-01
    outer loop
      vertex   2.635214e+00 1.065875e+01 1.435228e+00
      vertex   2.508005e+00 1.069543e+01 1.372810e+00
      vertex   2.636941e+00 1.066573e+01 1.372810e+00
    endloop
  endfacet
  facet normal -2.341685e-01 -9.654257e-01 -1.145350e-01
    outer loop
      vertex   2.635214e+00 1.065875e+01 1.435228e+00
      vertex   2.636941e+00 1.066573e+01 1.372810e+00
      vertex   2.764125e+00 1.062748e+01 1.435228e+00
    endloop
  endfacet
  facet normal -1.785853e-01 -9.778255e-01 -1.093822e-01
    outer loop
      vertex   2.121839e+00 1.077506e+01 1.372810e+00
      vertex   2.000000e+00 1.079693e+01 1.376202e+00
      vertex   2.123165e+00 1.078179e+01 1.310468e+00
    endloop
  endfacet
  facet normal -1.773787e-01 -9.783075e-01 -1.070103e-01
    outer loop
      vertex   2.123165e+00 1.078179e+01 1.310468e+00
      vertex   2.000000e+00 1.079693e+01 1.376202e+00
      vertex   2.000000e+00 1.081063e+01 1.250939e+00
    endloop
  endfacet
  facet normal -1.787025e-01 -9.783597e-01 -1.042966e-01
    outer loop
      vertex   2.123165e+00 1.078179e+01 1.310468e+00
      vertex   2.000000e+00 1.081063e+01 1.250939e+00
      vertex   2.124426e+00 1.078819e+01 1.248206e+00
    endloop
  endfacet
  facet normal -1.786867e-01 -9.788906e-01 -9.921831e-02
    outer loop
      vertex   2.124426e+00 1.078819e+01 1.248206e+00
      vertex   2.000000e+00 1.081063e+01 1.250939e+00
      vertex   2.125624e+00 1.079428e+01 1.186025e+00
    endloop
  endfacet
  facet normal -1.897309e-01 -9.768091e-01 -9.922744e-02
    outer loop
      vertex   2.124426e+00 1.078819e+01 1.248206e+00
      vertex   2.125624e+00 1.079428e+01 1.186025e+00
      vertex   2.253170e+00 1.076319e+01 1.248206e+00
    endloop
  endfacet
  facet normal -1.897309e-01 -9.768091e-01 -9.922744e-02
    outer loop
      vertex   2.253170e+00 1.076319e+01 1.248206e+00
      vertex   2.125624e+00 1.079428e+01 1.186025e+00
      vertex   2.254441e+00 1.076926e+01 1.186025e+00
    endloop
  endfacet
  facet normal -2.009171e-01 -9.745688e-01 -9.923734e-02
    outer loop
      vertex   2.253170e+00 1.076319e+01 1.248206e+00
      vertex   2.254441e+00 1.076926e+01 1.186025e+00
      vertex   2.382058e+00 1.073662e+01 1.248206e+00
    endloop
  endfacet
  facet normal -1.774901e-01 -9.793517e-01 -9.678642e-02
    outer loop
      vertex   2.000000e+00 1.081063e+01 1.250939e+00
      vertex   2.000000e+00 1.082302e+01 1.125534e+00
      vertex   2.125624e+00 1.079428e+01 1.186025e+00
    endloop
  endfacet
  facet normal -1.787664e-01 -9.793767e-01 -9.414776e-02
    outer loop
      vertex   2.125624e+00 1.079428e+01 1.186025e+00
      vertex   2.000000e+00 1.082302e+01 1.125534e+00
      vertex   2.126759e+00 1.080004e+01 1.123929e+00
    endloop
  endfacet
  facet normal -1.898248e-01 -9.772927e-01 -9.415645e-02
    outer loop
      vertex   2.125624e+00 1.079428e+01 1.186025e+00
      vertex   2.126759e+00 1.080004e+01 1.123929e+00
      vertex   2.254441e+00 1.076926e+01 1.186025e+00
    endloop
  endfacet
  facet normal -1.898919e-01 -9.776383e-01 -9.035739e-02
    outer loop
      vertex   2.255644e+00 1.077501e+01 1.123929e+00
      vertex   2.127303e+00 1.080280e+01 1.092913e+00
      vertex   2.256221e+00 1.077776e+01 1.092913e+00
    endloop
  endfacet
  facet normal -1.899351e-01 -9.778604e-01 -8.782775e-02
    outer loop
      vertex   2.256221e+00 1.077776e+01 1.092913e+00
      vertex   2.127303e+00 1.080280e+01 1.092913e+00
      vertex   2.127831e+00 1.080548e+01 1.061920e+00
    endloop
  endfacet
  facet normal -1.895276e-01 -9.757626e-01 -1.093922e-01
    outer loop
      vertex   2.250426e+00 1.075008e+01 1.372810e+00
      vertex   2.121839e+00 1.077506e+01 1.372810e+00
      vertex   2.123165e+00 1.078179e+01 1.310468e+00
    endloop
  endfacet
  facet normal -1.896318e-01 -9.762991e-01 -1.043061e-01
    outer loop
      vertex   2.123165e+00 1.078179e+01 1.310468e+00
      vertex   2.124426e+00 1.078819e+01 1.248206e+00
      vertex   2.251832e+00 1.075680e+01 1.310468e+00
    endloop
  endfacet
  facet normal -1.896318e-01 -9.762991e-01 -1.043061e-01
    outer loop
      vertex   2.251832e+00 1.075680e+01 1.310468e+00
      vertex   2.124426e+00 1.078819e+01 1.248206e+00
      vertex   2.253170e+00 1.076319e+01 1.248206e+00
    endloop
  endfacet
  facet normal -2.008122e-01 -9.740598e-01 -1.043165e-01
    outer loop
      vertex   2.251832e+00 1.075680e+01 1.310468e+00
      vertex   2.253170e+00 1.076319e+01 1.248206e+00
      vertex   2.380644e+00 1.073024e+01 1.310468e+00
    endloop
  endfacet
  facet normal -2.008122e-01 -9.740598e-01 -1.043165e-01
    outer loop
      vertex   2.380644e+00 1.073024e+01 1.310468e+00
      vertex   2.253170e+00 1.076319e+01 1.248206e+00
      vertex   2.382058e+00 1.073662e+01 1.248206e+00
    endloop
  endfacet
  facet normal -2.120072e-01 -9.716834e-01 -1.043275e-01
    outer loop
      vertex   2.380644e+00 1.073024e+01 1.310468e+00
      vertex   2.382058e+00 1.073662e+01 1.248206e+00
      vertex   2.509572e+00 1.070211e+01 1.310468e+00
    endloop
  endfacet
  facet normal -1.890586e-01 -9.733482e-01 -1.298078e-01
    outer loop
      vertex   2.244118e+00 1.071995e+01 1.622917e+00
      vertex   2.115892e+00 1.074485e+01 1.622917e+00
      vertex   2.117476e+00 1.075290e+01 1.560284e+00
    endloop
  endfacet
  facet normal -1.891838e-01 -9.739923e-01 -1.246935e-01
    outer loop
      vertex   2.117476e+00 1.075290e+01 1.560284e+00
      vertex   2.118995e+00 1.076061e+01 1.497720e+00
      vertex   2.245799e+00 1.072797e+01 1.560284e+00
    endloop
  endfacet
  facet normal -1.891838e-01 -9.739923e-01 -1.246935e-01
    outer loop
      vertex   2.245799e+00 1.072797e+01 1.560284e+00
      vertex   2.118995e+00 1.076061e+01 1.497720e+00
      vertex   2.247410e+00 1.073567e+01 1.497720e+00
    endloop
  endfacet
  facet normal -2.003376e-01 -9.717578e-01 -1.247059e-01
    outer loop
      vertex   2.245799e+00 1.072797e+01 1.560284e+00
      vertex   2.247410e+00 1.073567e+01 1.497720e+00
      vertex   2.374265e+00 1.070149e+01 1.560284e+00
    endloop
  endfacet
  facet normal -2.003376e-01 -9.717578e-01 -1.247059e-01
    outer loop
      vertex   2.374265e+00 1.070149e+01 1.560284e+00
      vertex   2.247410e+00 1.073567e+01 1.497720e+00
      vertex   2.375968e+00 1.070917e+01 1.497720e+00
    endloop
  endfacet
  facet normal -2.115061e-01 -9.693866e-01 -1.247190e-01
    outer loop
      vertex   2.374265e+00 1.070149e+01 1.560284e+00
      vertex   2.375968e+00 1.070917e+01 1.497720e+00
      vertex   2.502847e+00 1.067343e+01 1.560284e+00
    endloop
  endfacet
  facet normal -2.115061e-01 -9.693866e-01 -1.247190e-01
    outer loop
      vertex   2.502847e+00 1.067343e+01 1.560284e+00
      vertex   2.375968e+00 1.070917e+01 1.497720e+00
      vertex   2.504643e+00 1.068109e+01 1.497720e+00
    endloop
  endfacet
  facet normal -2.226871e-01 -9.668775e-01 -1.247328e-01
    outer loop
      vertex   2.502847e+00 1.067343e+01 1.560284e+00
      vertex   2.504643e+00 1.068109e+01 1.497720e+00
      vertex   2.631518e+00 1.064380e+01 1.560284e+00
    endloop
  endfacet
  facet normal -2.226871e-01 -9.668775e-01 -1.247328e-01
    outer loop
      vertex   2.631518e+00 1.064380e+01 1.560284e+00
      vertex   2.504643e+00 1.068109e+01 1.497720e+00
      vertex   2.633406e+00 1.065144e+01 1.497720e+00
    endloop
  endfacet
  facet normal -2.338784e-01 -9.642297e-01 -1.247473e-01
    outer loop
      vertex   2.631518e+00 1.064380e+01 1.560284e+00
      vertex   2.633406e+00 1.065144e+01 1.497720e+00
      vertex   2.760249e+00 1.061257e+01 1.560284e+00
    endloop
  endfacet
  facet normal -2.338784e-01 -9.642297e-01 -1.247473e-01
    outer loop
      vertex   2.760249e+00 1.061257e+01 1.560284e+00
      vertex   2.633406e+00 1.065144e+01 1.497720e+00
      vertex   2.762229e+00 1.062019e+01 1.497720e+00
    endloop
  endfacet
  facet normal -2.450777e-01 -9.614423e-01 -1.247626e-01
    outer loop
      vertex   2.760249e+00 1.061257e+01 1.560284e+00
      vertex   2.762229e+00 1.062019e+01 1.497720e+00
      vertex   2.889011e+00 1.057975e+01 1.560284e+00
    endloop
  endfacet
  facet normal -2.450777e-01 -9.614423e-01 -1.247626e-01
    outer loop
      vertex   2.889011e+00 1.057975e+01 1.560284e+00
      vertex   2.762229e+00 1.062019e+01 1.497720e+00
      vertex   2.891083e+00 1.058734e+01 1.497720e+00
    endloop
  endfacet
  facet normal -1.887925e-01 -9.719782e-01 -1.400560e-01
    outer loop
      vertex   2.112527e+00 1.072777e+01 1.748377e+00
      vertex   2.114242e+00 1.073648e+01 1.685615e+00
      vertex   2.240550e+00 1.070290e+01 1.748377e+00
    endloop
  endfacet
  facet normal -1.887925e-01 -9.719782e-01 -1.400560e-01
    outer loop
      vertex   2.240550e+00 1.070290e+01 1.748377e+00
      vertex   2.114242e+00 1.073648e+01 1.685615e+00
      vertex   2.242369e+00 1.071159e+01 1.685615e+00
    endloop
  endfacet
  facet normal -1.999232e-01 -9.697480e-01 -1.400698e-01
    outer loop
      vertex   2.240550e+00 1.070290e+01 1.748377e+00
      vertex   2.242369e+00 1.071159e+01 1.685615e+00
      vertex   2.368716e+00 1.067648e+01 1.748377e+00
    endloop
  endfacet
  facet normal -1.999232e-01 -9.697480e-01 -1.400698e-01
    outer loop
      vertex   2.368716e+00 1.067648e+01 1.748377e+00
      vertex   2.242369e+00 1.071159e+01 1.685615e+00
      vertex   2.370639e+00 1.068514e+01 1.685615e+00
    endloop
  endfacet
  facet normal -2.110686e-01 -9.673812e-01 -1.400845e-01
    outer loop
      vertex   2.368716e+00 1.067648e+01 1.748377e+00
      vertex   2.370639e+00 1.068514e+01 1.685615e+00
      vertex   2.496998e+00 1.064849e+01 1.748377e+00
    endloop
  endfacet
  facet normal -2.110686e-01 -9.673812e-01 -1.400845e-01
    outer loop
      vertex   2.496998e+00 1.064849e+01 1.748377e+00
      vertex   2.370639e+00 1.068514e+01 1.685615e+00
      vertex   2.499025e+00 1.065713e+01 1.685615e+00
    endloop
  endfacet
  facet normal -2.222264e-01 -9.648769e-01 -1.400999e-01
    outer loop
      vertex   2.496998e+00 1.064849e+01 1.748377e+00
      vertex   2.499025e+00 1.065713e+01 1.685615e+00
      vertex   2.625368e+00 1.061892e+01 1.748377e+00
    endloop
  endfacet
  facet normal -2.010166e-01 -9.750514e-01 -9.416584e-02
    outer loop
      vertex   2.383402e+00 1.074267e+01 1.186025e+00
      vertex   2.255644e+00 1.077501e+01 1.123929e+00
      vertex   2.384674e+00 1.074841e+01 1.123929e+00
    endloop
  endfacet
  facet normal -2.010876e-01 -9.753962e-01 -9.036641e-02
    outer loop
      vertex   2.384674e+00 1.074841e+01 1.123929e+00
      vertex   2.255644e+00 1.077501e+01 1.123929e+00
      vertex   2.256221e+00 1.077776e+01 1.092913e+00
    endloop
  endfacet
  facet normal -2.007018e-01 -9.735244e-01 -1.094030e-01
    outer loop
      vertex   2.379157e+00 1.072354e+01 1.372810e+00
      vertex   2.250426e+00 1.075008e+01 1.372810e+00
      vertex   2.251832e+00 1.075680e+01 1.310468e+00
    endloop
  endfacet
  facet normal -1.895276e-01 -9.757626e-01 -1.093922e-01
    outer loop
      vertex   2.251832e+00 1.075680e+01 1.310468e+00
      vertex   2.250426e+00 1.075008e+01 1.372810e+00
      vertex   2.123165e+00 1.078179e+01 1.310468e+00
    endloop
  endfacet
  facet normal -2.007018e-01 -9.735244e-01 -1.094030e-01
    outer loop
      vertex   2.379157e+00 1.072354e+01 1.372810e+00
      vertex   2.251832e+00 1.075680e+01 1.310468e+00
      vertex   2.380644e+00 1.073024e+01 1.310468e+00
    endloop
  endfacet
  facet normal -2.002051e-01 -9.711151e-01 -1.298206e-01
    outer loop
      vertex   2.372489e+00 1.069348e+01 1.622917e+00
      vertex   2.244118e+00 1.071995e+01 1.622917e+00
      vertex   2.245799e+00 1.072797e+01 1.560284e+00
    endloop
  endfacet
  facet normal -1.890586e-01 -9.733482e-01 -1.298078e-01
    outer loop
      vertex   2.245799e+00 1.072797e+01 1.560284e+00
      vertex   2.244118e+00 1.071995e+01 1.622917e+00
      vertex   2.117476e+00 1.075290e+01 1.560284e+00
    endloop
  endfacet
  facet normal -2.002051e-01 -9.711151e-01 -1.298206e-01
    outer loop
      vertex   2.372489e+00 1.069348e+01 1.622917e+00
      vertex   2.245799e+00 1.072797e+01 1.560284e+00
      vertex   2.374265e+00 1.070149e+01 1.560284e+00
    endloop
  endfacet
  facet normal -1.886515e-01 -9.712521e-01 -1.451896e-01
    outer loop
      vertex   2.112527e+00 1.072777e+01 1.748377e+00
      vertex   2.240550e+00 1.070290e+01 1.748377e+00
      vertex   2.238660e+00 1.069387e+01 1.811199e+00
    endloop
  endfacet
  facet normal -1.997738e-01 -9.690233e-01 -1.452039e-01
    outer loop
      vertex   2.238660e+00 1.069387e+01 1.811199e+00
      vertex   2.240550e+00 1.070290e+01 1.748377e+00
      vertex   2.366718e+00 1.066747e+01 1.811199e+00
    endloop
  endfacet
  facet normal -1.996188e-01 -9.682711e-01 -1.503441e-01
    outer loop
      vertex   2.238660e+00 1.069387e+01 1.811199e+00
      vertex   2.366718e+00 1.066747e+01 1.811199e+00
      vertex   2.364647e+00 1.065814e+01 1.874079e+00
    endloop
  endfacet
  facet normal -2.107470e-01 -9.659077e-01 -1.503598e-01
    outer loop
      vertex   2.364647e+00 1.065814e+01 1.874079e+00
      vertex   2.366718e+00 1.066747e+01 1.811199e+00
      vertex   2.492709e+00 1.063020e+01 1.874079e+00
    endloop
  endfacet
  facet normal -2.105773e-01 -9.651295e-01 -1.555063e-01
    outer loop
      vertex   2.364647e+00 1.065814e+01 1.874079e+00
      vertex   2.492709e+00 1.063020e+01 1.874079e+00
      vertex   2.490447e+00 1.062055e+01 1.937013e+00
    endloop
  endfacet
  facet normal -2.217090e-01 -9.626306e-01 -1.555234e-01
    outer loop
      vertex   2.490447e+00 1.062055e+01 1.937013e+00
      vertex   2.492709e+00 1.063020e+01 1.874079e+00
      vertex   2.618480e+00 1.059106e+01 1.937013e+00
    endloop
  endfacet
  facet normal -1.997738e-01 -9.690233e-01 -1.452039e-01
    outer loop
      vertex   2.366718e+00 1.066747e+01 1.811199e+00
      vertex   2.240550e+00 1.070290e+01 1.748377e+00
      vertex   2.368716e+00 1.067648e+01 1.748377e+00
    endloop
  endfacet
  facet normal -2.121180e-01 -9.721912e-01 -9.924781e-02
    outer loop
      vertex   2.511063e+00 1.070847e+01 1.248206e+00
      vertex   2.383402e+00 1.074267e+01 1.186025e+00
      vertex   2.512479e+00 1.071451e+01 1.186025e+00
    endloop
  endfacet
  facet normal -2.122231e-01 -9.726728e-01 -9.417579e-02
    outer loop
      vertex   2.512479e+00 1.071451e+01 1.186025e+00
      vertex   2.383402e+00 1.074267e+01 1.186025e+00
      vertex   2.384674e+00 1.074841e+01 1.123929e+00
    endloop
  endfacet
  facet normal -2.118907e-01 -9.711492e-01 -1.094146e-01
    outer loop
      vertex   2.508005e+00 1.069543e+01 1.372810e+00
      vertex   2.379157e+00 1.072354e+01 1.372810e+00
      vertex   2.380644e+00 1.073024e+01 1.310468e+00
    endloop
  endfacet
  facet normal -2.118907e-01 -9.711492e-01 -1.094146e-01
    outer loop
      vertex   2.508005e+00 1.069543e+01 1.372810e+00
      vertex   2.380644e+00 1.073024e+01 1.310468e+00
      vertex   2.509572e+00 1.070211e+01 1.310468e+00
    endloop
  endfacet
  facet normal -2.113662e-01 -9.687453e-01 -1.298342e-01
    outer loop
      vertex   2.500975e+00 1.066545e+01 1.622917e+00
      vertex   2.372489e+00 1.069348e+01 1.622917e+00
      vertex   2.374265e+00 1.070149e+01 1.560284e+00
    endloop
  endfacet
  facet normal -2.113662e-01 -9.687453e-01 -1.298342e-01
    outer loop
      vertex   2.500975e+00 1.066545e+01 1.622917e+00
      vertex   2.374265e+00 1.070149e+01 1.560284e+00
      vertex   2.502847e+00 1.067343e+01 1.560284e+00
    endloop
  endfacet
  facet normal -2.109108e-01 -9.666582e-01 -1.452191e-01
    outer loop
      vertex   2.366718e+00 1.066747e+01 1.811199e+00
      vertex   2.368716e+00 1.067648e+01 1.748377e+00
      vertex   2.494892e+00 1.063951e+01 1.811199e+00
    endloop
  endfacet
  facet normal -2.109108e-01 -9.666582e-01 -1.452191e-01
    outer loop
      vertex   2.494892e+00 1.063951e+01 1.811199e+00
      vertex   2.368716e+00 1.067648e+01 1.748377e+00
      vertex   2.496998e+00 1.064849e+01 1.748377e+00
    endloop
  endfacet
  facet normal -2.220602e-01 -9.641556e-01 -1.452351e-01
    outer loop
      vertex   2.494892e+00 1.063951e+01 1.811199e+00
      vertex   2.496998e+00 1.064849e+01 1.748377e+00
      vertex   2.623154e+00 1.060997e+01 1.811199e+00
    endloop
  endfacet
  facet normal -2.220602e-01 -9.641556e-01 -1.452351e-01
    outer loop
      vertex   2.623154e+00 1.060997e+01 1.811199e+00
      vertex   2.496998e+00 1.064849e+01 1.748377e+00
      vertex   2.625368e+00 1.061892e+01 1.748377e+00
    endloop
  endfacet
  facet normal -2.332199e-01 -9.615146e-01 -1.452519e-01
    outer loop
      vertex   2.623154e+00 1.060997e+01 1.811199e+00
      vertex   2.625368e+00 1.061892e+01 1.748377e+00
      vertex   2.751476e+00 1.057884e+01 1.811199e+00
    endloop
  endfacet
  facet normal -2.232149e-01 -9.691690e-01 -1.043391e-01
    outer loop
      vertex   2.638588e+00 1.067239e+01 1.310468e+00
      vertex   2.511063e+00 1.070847e+01 1.248206e+00
      vertex   2.640156e+00 1.067874e+01 1.248206e+00
    endloop
  endfacet
  facet normal -2.233316e-01 -9.696756e-01 -9.925886e-02
    outer loop
      vertex   2.640156e+00 1.067874e+01 1.248206e+00
      vertex   2.511063e+00 1.070847e+01 1.248206e+00
      vertex   2.512479e+00 1.071451e+01 1.186025e+00
    endloop
  endfacet
  facet normal -2.230921e-01 -9.686360e-01 -1.094267e-01
    outer loop
      vertex   2.636941e+00 1.066573e+01 1.372810e+00
      vertex   2.508005e+00 1.069543e+01 1.372810e+00
      vertex   2.509572e+00 1.070211e+01 1.310468e+00
    endloop
  endfacet
  facet normal -2.225398e-01 -9.662378e-01 -1.298486e-01
    outer loop
      vertex   2.629549e+00 1.063584e+01 1.622917e+00
      vertex   2.500975e+00 1.066545e+01 1.622917e+00
      vertex   2.502847e+00 1.067343e+01 1.560284e+00
    endloop
  endfacet
  facet normal -2.225398e-01 -9.662378e-01 -1.298486e-01
    outer loop
      vertex   2.629549e+00 1.063584e+01 1.622917e+00
      vertex   2.502847e+00 1.067343e+01 1.560284e+00
      vertex   2.631518e+00 1.064380e+01 1.560284e+00
    endloop
  endfacet
  facet normal -2.107470e-01 -9.659077e-01 -1.503598e-01
    outer loop
      vertex   2.366718e+00 1.066747e+01 1.811199e+00
      vertex   2.494892e+00 1.063951e+01 1.811199e+00
      vertex   2.492709e+00 1.063020e+01 1.874079e+00
    endloop
  endfacet
  facet normal -2.218878e-01 -9.634069e-01 -1.503763e-01
    outer loop
      vertex   2.492709e+00 1.063020e+01 1.874079e+00
      vertex   2.494892e+00 1.063951e+01 1.811199e+00
      vertex   2.620858e+00 1.060068e+01 1.874079e+00
    endloop
  endfacet
  facet normal -2.217090e-01 -9.626306e-01 -1.555234e-01
    outer loop
      vertex   2.492709e+00 1.063020e+01 1.874079e+00
      vertex   2.620858e+00 1.060068e+01 1.874079e+00
      vertex   2.618480e+00 1.059106e+01 1.937013e+00
    endloop
  endfacet
  facet normal -2.328509e-01 -9.599934e-01 -1.555414e-01
    outer loop
      vertex   2.618480e+00 1.059106e+01 1.937013e+00
      vertex   2.620858e+00 1.060068e+01 1.874079e+00
      vertex   2.746573e+00 1.055999e+01 1.937013e+00
    endloop
  endfacet
  facet normal -2.218878e-01 -9.634069e-01 -1.503763e-01
    outer loop
      vertex   2.620858e+00 1.060068e+01 1.874079e+00
      vertex   2.494892e+00 1.063951e+01 1.811199e+00
      vertex   2.623154e+00 1.060997e+01 1.811199e+00
    endloop
  endfacet
  facet normal -2.343039e-01 -9.659838e-01 -1.094395e-01
    outer loop
      vertex   2.765937e+00 1.063444e+01 1.372810e+00
      vertex   2.638588e+00 1.067239e+01 1.310468e+00
      vertex   2.767665e+00 1.064109e+01 1.310468e+00
    endloop
  endfacet
  facet normal -2.344328e-01 -9.665154e-01 -1.043513e-01
    outer loop
      vertex   2.767665e+00 1.064109e+01 1.310468e+00
      vertex   2.638588e+00 1.067239e+01 1.310468e+00
      vertex   2.640156e+00 1.067874e+01 1.248206e+00
    endloop
  endfacet
  facet normal -2.337236e-01 -9.635916e-01 -1.298637e-01
    outer loop
      vertex   2.758184e+00 1.060463e+01 1.622917e+00
      vertex   2.629549e+00 1.063584e+01 1.622917e+00
      vertex   2.631518e+00 1.064380e+01 1.560284e+00
    endloop
  endfacet
  facet normal -2.337236e-01 -9.635916e-01 -1.298637e-01
    outer loop
      vertex   2.758184e+00 1.060463e+01 1.622917e+00
      vertex   2.631518e+00 1.064380e+01 1.560284e+00
      vertex   2.760249e+00 1.061257e+01 1.560284e+00
    endloop
  endfacet
  facet normal -2.330387e-01 -9.607678e-01 -1.503937e-01
    outer loop
      vertex   2.620858e+00 1.060068e+01 1.874079e+00
      vertex   2.623154e+00 1.060997e+01 1.811199e+00
      vertex   2.749067e+00 1.056958e+01 1.874079e+00
    endloop
  endfacet
  facet normal -2.330387e-01 -9.607678e-01 -1.503937e-01
    outer loop
      vertex   2.749067e+00 1.056958e+01 1.874079e+00
      vertex   2.623154e+00 1.060997e+01 1.811199e+00
      vertex   2.751476e+00 1.057884e+01 1.811199e+00
    endloop
  endfacet
  facet normal -2.441975e-01 -9.579895e-01 -1.504119e-01
    outer loop
      vertex   2.749067e+00 1.056958e+01 1.874079e+00
      vertex   2.751476e+00 1.057884e+01 1.811199e+00
      vertex   2.877308e+00 1.053689e+01 1.874079e+00
    endloop
  endfacet
  facet normal -2.453817e-01 -9.626351e-01 -1.145491e-01
    outer loop
      vertex   2.893068e+00 1.059461e+01 1.435228e+00
      vertex   2.765937e+00 1.063444e+01 1.372810e+00
      vertex   2.894964e+00 1.060155e+01 1.372810e+00
    endloop
  endfacet
  facet normal -2.455236e-01 -9.631917e-01 -1.094529e-01
    outer loop
      vertex   2.894964e+00 1.060155e+01 1.372810e+00
      vertex   2.765937e+00 1.063444e+01 1.372810e+00
      vertex   2.767665e+00 1.064109e+01 1.310468e+00
    endloop
  endfacet
  facet normal -2.449154e-01 -9.608058e-01 -1.298796e-01
    outer loop
      vertex   2.886849e+00 1.057184e+01 1.622917e+00
      vertex   2.758184e+00 1.060463e+01 1.622917e+00
      vertex   2.760249e+00 1.061257e+01 1.560284e+00
    endloop
  endfacet
  facet normal -2.449154e-01 -9.608058e-01 -1.298796e-01
    outer loop
      vertex   2.886849e+00 1.057184e+01 1.622917e+00
      vertex   2.760249e+00 1.061257e+01 1.560284e+00
      vertex   2.889011e+00 1.057975e+01 1.560284e+00
    endloop
  endfacet
  facet normal -2.443874e-01 -9.587343e-01 -1.452695e-01
    outer loop
      vertex   2.879828e+00 1.054613e+01 1.811199e+00
      vertex   2.753797e+00 1.058777e+01 1.748377e+00
      vertex   2.882258e+00 1.055502e+01 1.748377e+00
    endloop
  endfacet
  facet normal -2.440007e-01 -9.572172e-01 -1.555602e-01
    outer loop
      vertex   2.874697e+00 1.052733e+01 1.937013e+00
      vertex   2.746573e+00 1.055999e+01 1.937013e+00
      vertex   2.749067e+00 1.056958e+01 1.874079e+00
    endloop
  endfacet
  facet normal -2.328509e-01 -9.599934e-01 -1.555414e-01
    outer loop
      vertex   2.749067e+00 1.056958e+01 1.874079e+00
      vertex   2.746573e+00 1.055999e+01 1.937013e+00
      vertex   2.620858e+00 1.060068e+01 1.874079e+00
    endloop
  endfacet
  facet normal -2.440007e-01 -9.572172e-01 -1.555602e-01
    outer loop
      vertex   2.874697e+00 1.052733e+01 1.937013e+00
      vertex   2.749067e+00 1.056958e+01 1.874079e+00
      vertex   2.877308e+00 1.053689e+01 1.874079e+00
    endloop
  endfacet
  facet normal 2.573362e-01 9.526291e-01 1.620985e-01
    outer loop
      vertex   2.938424e+00 1.100000e+01 2.000000e+00
      vertex   3.000000e+00 1.098337e+01 2.000000e+00
      vertex   2.969609e+00 1.100000e+01 1.950492e+00
    endloop
  endfacet
  facet normal 2.618161e-01 9.519123e-01 1.591077e-01
    outer loop
      vertex   2.969609e+00 1.100000e+01 1.950492e+00
      vertex   3.000000e+00 1.098337e+01 2.000000e+00
      vertex   3.000000e+00 1.100000e+01 1.900483e+00
    endloop
  endfacet
  facet normal -1.792616e-15 0.000000e+00 -1.000000e+00
    outer loop
      vertex   3.000000e+00 1.061116e+01 1.000000e+00
      vertex   2.876134e+00 1.064390e+01 1.000000e+00
      vertex   3.000000e+00 1.100000e+01 1.000000e+00
    endloop
  endfacet
  facet normal 1.498588e-15 -1.144828e-15 -1.000000e+00
    outer loop
      vertex   3.000000e+00 1.100000e+01 1.000000e+00
      vertex   2.876134e+00 1.064390e+01 1.000000e+00
      vertex   2.751919e+00 1.067526e+01 1.000000e+00
    endloop
  endfacet
  facet normal -3.011944e-15 2.300937e-15 -1.000000e+00
    outer loop
      vertex   3.000000e+00 1.100000e+01 1.000000e+00
      vertex   2.751919e+00 1.067526e+01 1.000000e+00
      vertex   2.627368e+00 1.070523e+01 1.000000e+00
    endloop
  endfacet
  facet normal 3.870268e-15 -6.399045e-15 -1.000000e+00
    outer loop
      vertex   2.627368e+00 1.070523e+01 1.000000e+00
      vertex   2.502493e+00 1.073380e+01 1.000000e+00
      vertex   3.000000e+00 1.100000e+01 1.000000e+00
    endloop
  endfacet
  facet normal -2.394750e-15 5.309681e-15 -1.000000e+00
    outer loop
      vertex   3.000000e+00 1.100000e+01 1.000000e+00
      vertex   2.502493e+00 1.073380e+01 1.000000e+00
      vertex   2.377307e+00 1.076097e+01 1.000000e+00
    endloop
  endfacet
  facet normal 1.028315e-15 -3.607853e-15 -1.000000e+00
    outer loop
      vertex   3.000000e+00 1.100000e+01 1.000000e+00
      vertex   2.377307e+00 1.076097e+01 1.000000e+00
      vertex   2.251821e+00 1.078675e+01 1.000000e+00
    endloop
  endfacet
  facet normal -0.000000e+00 0.000000e+00 -1.000000e+00
    outer loop
      vertex   3.000000e+00 1.100000e+01 1.000000e+00
      vertex   2.251821e+00 1.078675e+01 1.000000e+00
      vertex   2.000000e+00 1.100000e+01 1.000000e+00
    endloop
  endfacet
  facet normal 2.289480e-15 2.703619e-15 -1.000000e+00
    outer loop
      vertex   2.000000e+00 1.100000e+01 1.000000e+00
      vertex   2.251821e+00 1.078675e+01 1.000000e+00
      vertex   2.126048e+00 1.081113e+01 1.000000e+00
    endloop
  endfacet
  facet normal -1.761590e-15 -0.000000e+00 -1.000000e+00
    outer loop
      vertex   2.000000e+00 1.100000e+01 1.000000e+00
      vertex   2.126048e+00 1.081113e+01 1.000000e+00
      vertex   2.000000e+00 1.083411e+01 1.000000e+00
    endloop
  endfacet
  facet normal 1.000000e+00 -0.000000e+00 7.142042e-15
    outer loop
      vertex   3.000000e+00 1.048321e+01 2.000000e+00
      vertex   3.000000e+00 1.050387e+01 1.875641e+00
      vertex   3.000000e+00 1.098337e+01 2.000000e+00
    endloop
  endfacet
  facet normal 1.000000e+00 3.558370e-15 -6.578026e-15
    outer loop
      vertex   3.000000e+00 1.098337e+01 2.000000e+00
      vertex   3.000000e+00 1.050387e+01 1.875641e+00
      vertex   3.000000e+00 1.052320e+01 1.751075e+00
    endloop
  endfacet
  facet normal 1.000000e+00 0.000000e+00 0.000000e+00
    outer loop
      vertex   3.000000e+00 1.098337e+01 2.000000e+00
      vertex   3.000000e+00 1.052320e+01 1.751075e+00
      vertex   3.000000e+00 1.054120e+01 1.626314e+00
    endloop
  endfacet
  facet normal 1.000000e+00 0.000000e+00 0.000000e+00
    outer loop
      vertex   3.000000e+00 1.098337e+01 2.000000e+00
      vertex   3.000000e+00 1.054120e+01 1.626314e+00
      vertex   3.000000e+00 1.100000e+01 1.900483e+00
    endloop
  endfacet
  facet normal 1.000000e+00 0.000000e+00 0.000000e+00
    outer loop
      vertex   3.000000e+00 1.100000e+01 1.900483e+00
      vertex   3.000000e+00 1.054120e+01 1.626314e+00
      vertex   3.000000e+00 1.055786e+01 1.501369e+00
    endloop
  endfacet
  facet normal 1.000000e+00 0.000000e+00 0.000000e+00
    outer loop
      vertex   3.000000e+00 1.100000e+01 1.900483e+00
      vertex   3.000000e+00 1.055786e+01 1.501369e+00
      vertex   3.000000e+00 1.057319e+01 1.376254e+00
    endloop
  endfacet
  facet normal 1.000000e+00 0.000000e+00 0.000000e+00
    outer loop
      vertex   3.000000e+00 1.100000e+01 1.900483e+00
      vertex   3.000000e+00 1.057319e+01 1.376254e+00
      vertex   3.000000e+00 1.100000e+01 1.000000e+00
    endloop
  endfacet
  facet normal 1.000000e+00 0.000000e+00 0.000000e+00
    outer loop
      vertex   3.000000e+00 1.100000e+01 1.000000e+00
      vertex   3.000000e+00 1.057319e+01 1.376254e+00
      vertex   3.000000e+00 1.058718e+01 1.250979e+00
    endloop
  endfacet
  facet normal 1.000000e+00 0.000000e+00 0.000000e+00
    outer loop
      vertex   3.000000e+00 1.100000e+01 1.000000e+00
      vertex   3.000000e+00 1.058718e+01 1.250979e+00
      vertex   3.000000e+00 1.059984e+01 1.125557e+00
    endloop
  endfacet
  facet normal 1.000000e+00 0.000000e+00 0.000000e+00
    outer loop
      vertex   3.000000e+00 1.059984e+01 1.125557e+00
      vertex   3.000000e+00 1.061116e+01 1.000000e+00
      vertex   3.000000e+00 1.100000e+01 1.000000e+00
    endloop
  endfacet
  facet normal -0.000000e+00 0.000000e+00 1.000000e+00
    outer loop
      vertex   2.000000e+00 1.070883e+01 2.000000e+00
      vertex   2.126073e+00 1.068558e+01 2.000000e+00
      vertex   2.000000e+00 1.100000e+01 2.000000e+00
    endloop
  endfacet
  facet normal 0.000000e+00 0.000000e+00 1.000000e+00
    outer loop
      vertex   2.000000e+00 1.100000e+01 2.000000e+00
      vertex   2.126073e+00 1.068558e+01 2.000000e+00
      vertex   2.251865e+00 1.066091e+01 2.000000e+00
    endloop
  endfacet
  facet normal -0.000000e+00 0.000000e+00 1.000000e+00
    outer loop
      vertex   2.000000e+00 1.100000e+01 2.000000e+00
      vertex   2.251865e+00 1.066091e+01 2.000000e+00
      vertex   2.938424e+00 1.100000e+01 2.000000e+00
    endloop
  endfacet
  facet normal 0.000000e+00 0.000000e+00 1.000000e+00
    outer loop
      vertex   2.938424e+00 1.100000e+01 2.000000e+00
      vertex   2.251865e+00 1.066091e+01 2.000000e+00
      vertex   2.377362e+00 1.063482e+01 2.000000e+00
    endloop
  endfacet
  facet normal 0.000000e+00 0.000000e+00 1.000000e+00
    outer loop
      vertex   2.938424e+00 1.100000e+01 2.000000e+00
      vertex   2.377362e+00 1.063482e+01 2.000000e+00
      vertex   2.502553e+00 1.060732e+01 2.000000e+00
    endloop
  endfacet
  facet normal -0.000000e+00 0.000000e+00 1.000000e+00
    outer loop
      vertex   2.502553e+00 1.060732e+01 2.000000e+00
      vertex   2.627425e+00 1.057840e+01 2.000000e+00
      vertex   2.938424e+00 1.100000e+01 2.000000e+00
    endloop
  endfacet
  facet normal 0.000000e+00 0.000000e+00 1.000000e+00
    outer loop
      vertex   2.938424e+00 1.100000e+01 2.000000e+00
      vertex   2.627425e+00 1.057840e+01 2.000000e+00
      vertex   3.000000e+00 1.098337e+01 2.000000e+00
    endloop
  endfacet
  facet normal -2.913233e-15 2.680240e-15 1.000000e+00
    outer loop
      vertex   3.000000e+00 1.098337e+01 2.000000e+00
      vertex   2.627425e+00 1.057840e+01 2.000000e+00
      vertex   2.751965e+00 1.054808e+01 2.000000e+00
    endloop
  endfacet
  facet normal -2.893766e-15 2.669148e-15 1.000000e+00
    outer loop
      vertex   3.000000e+00 1.098337e+01 2.000000e+00
      vertex   2.751965e+00 1.054808e+01 2.000000e+00
      vertex   2.876161e+00 1.051635e+01 2.000000e+00
    endloop
  endfacet
  facet normal 7.172047e-15 0.000000e+00 1.000000e+00
    outer loop
      vertex   2.876161e+00 1.051635e+01 2.000000e+00
      vertex   3.000000e+00 1.048321e+01 2.000000e+00
      vertex   3.000000e+00 1.098337e+01 2.000000e+00
    endloop
  endfacet
  facet normal -1.000000e+00 0.000000e+00 0.000000e+00
    outer loop
      vertex   2.000000e+00 1.083411e+01 1.000000e+00
      vertex   2.000000e+00 1.082302e+01 1.125534e+00
      vertex   2.000000e+00 1.100000e+01 1.000000e+00
    endloop
  endfacet
  facet normal -1.000000e+00 2.701268e-15 3.808211e-15
    outer loop
      vertex   2.000000e+00 1.100000e+01 1.000000e+00
      vertex   2.000000e+00 1.082302e+01 1.125534e+00
      vertex   2.000000e+00 1.081063e+01 1.250939e+00
    endloop
  endfacet
  facet normal -1.000000e+00 -2.345087e-15 0.000000e+00
    outer loop
      vertex   2.000000e+00 1.100000e+01 1.000000e+00
      vertex   2.000000e+00 1.081063e+01 1.250939e+00
      vertex   2.000000e+00 1.100000e+01 2.000000e+00
    endloop
  endfacet
  facet normal -1.000000e+00 8.151415e-15 -2.653619e-15
    outer loop
      vertex   2.000000e+00 1.100000e+01 2.000000e+00
      vertex   2.000000e+00 1.081063e+01 1.250939e+00
      vertex   2.000000e+00 1.079693e+01 1.376202e+00
    endloop
  endfacet
  facet normal -1.000000e+00 0.000000e+00 0.000000e+00
    outer loop
      vertex   2.000000e+00 1.100000e+01 2.000000e+00
      vertex   2.000000e+00 1.079693e+01 1.376202e+00
      vertex   2.000000e+00 1.078192e+01 1.501313e+00
    endloop
  endfacet
  facet normal -1.000000e+00 0.000000e+00 0.000000e+00
    outer loop
      vertex   2.000000e+00 1.078192e+01 1.501313e+00
      vertex   2.000000e+00 1.076560e+01 1.626259e+00
      vertex   2.000000e+00 1.100000e+01 2.000000e+00
    endloop
  endfacet
  facet normal -1.000000e+00 -4.632043e-15 2.905049e-15
    outer loop
      vertex   2.000000e+00 1.100000e+01 2.000000e+00
      vertex   2.000000e+00 1.076560e+01 1.626259e+00
      vertex   2.000000e+00 1.074798e+01 1.751030e+00
    endloop
  endfacet
  facet normal -1.000000e+00 1.529745e-15 -3.332183e-15
    outer loop
      vertex   2.000000e+00 1.100000e+01 2.000000e+00
      vertex   2.000000e+00 1.074798e+01 1.751030e+00
      vertex   2.000000e+00 1.072906e+01 1.875614e+00
    endloop
  endfacet
  facet normal -1.000000e+00 0.000000e+00 0.000000e+00
    outer loop
      vertex   2.000000e+00 1.072906e+01 1.875614e+00
      vertex   2.000000e+00 1.070883e+01 2.000000e+00
      vertex   2.000000e+00 1.100000e+01 2.000000e+00
    endloop
  endfacet
  facet normal 0.000000e+00 1.000000e+00 0.000000e+00
    outer loop
      vertex   2.938424e+00 1.100000e+01 2.000000e+00
      vertex   2.969609e+00 1.100000e+01 1.950492e+00
      vertex   2.000000e+00 1.100000e+01 2.000000e+00
    endloop
  endfacet
  facet normal 0.000000e+00 1.000000e+00 0.000000e+00
    outer loop
      vertex   2.000000e+00 1.100000e+01 2.000000e+00
      vertex   2.969609e+00 1.100000e+01 1.950492e+00
      vertex   3.000000e+00 1.100000e+01 1.900483e+00
    endloop
  endfacet
  facet normal 0.000000e+00 1.000000e+00 0.000000e+00
    outer loop
      vertex   2.000000e+00 1.100000e+01 2.000000e+00
      vertex   3.000000e+00 1.100000e+01 1.900483e+00
      vertex   2.000000e+00 1.100000e+01 1.000000e+00
    endloop
  endfacet
  facet normal 0.000000e+00 1.000000e+00 0.000000e+00
    outer loop
      vertex   2.000000e+00 1.100000e+01 1.000000e+00
      vertex   3.000000e+00 1.100000e+01 1.900483e+00
      vertex   3.000000e+00 1.100000e+01 1.000000e+00
    endloop
  endfacet
endsolid
