solid ASCII
  facet normal -6.461460e-01 -6.415023e-01 4.134854e-01
    outer loop
      vertex   7.370410e+00 6.904015e+00 -5.000000e+00
      vertex   7.380674e+00 6.913595e+00 -4.969098e+00
      vertex   7.275116e+00 7.000000e+00 -5.000000e+00
    endloop
  endfacet
  facet normal -6.464790e-01 -6.428428e-01 4.108748e-01
    outer loop
      vertex   7.275116e+00 7.000000e+00 -5.000000e+00
      vertex   7.380674e+00 6.913595e+00 -4.969098e+00
      vertex   7.390869e+00 6.923111e+00 -4.938170e+00
    endloop
  endfacet
  facet normal -6.464726e-01 -6.429107e-01 4.107785e-01
    outer loop
      vertex   7.275116e+00 7.000000e+00 -5.000000e+00
      vertex   7.390869e+00 6.923111e+00 -4.938170e+00
      vertex   7.352019e+00 7.000000e+00 -4.878971e+00
    endloop
  endfacet
  facet normal -6.487823e-01 -6.421656e-01 4.082951e-01
    outer loop
      vertex   7.352019e+00 7.000000e+00 -4.878971e+00
      vertex   7.390869e+00 6.923111e+00 -4.938170e+00
      vertex   7.400995e+00 6.932562e+00 -4.907215e+00
    endloop
  endfacet
  facet normal -6.503535e-01 -6.422203e-01 4.057012e-01
    outer loop
      vertex   7.352019e+00 7.000000e+00 -4.878971e+00
      vertex   7.400995e+00 6.932562e+00 -4.907215e+00
      vertex   7.411053e+00 6.941948e+00 -4.876234e+00
    endloop
  endfacet
  facet normal -6.571823e-01 -6.351775e-01 4.057843e-01
    outer loop
      vertex   7.411053e+00 6.941948e+00 -4.876234e+00
      vertex   7.400995e+00 6.932562e+00 -4.907215e+00
      vertex   7.495324e+00 6.834964e+00 -4.907215e+00
    endloop
  endfacet
  facet normal -6.571848e-01 -6.351781e-01 4.057794e-01
    outer loop
      vertex   7.411053e+00 6.941948e+00 -4.876234e+00
      vertex   7.495324e+00 6.834964e+00 -4.907215e+00
      vertex   7.505496e+00 6.844233e+00 -4.876234e+00
    endloop
  endfacet
  facet normal -6.656177e-01 -6.262687e-01 4.058825e-01
    outer loop
      vertex   7.505496e+00 6.844233e+00 -4.876234e+00
      vertex   7.495324e+00 6.834964e+00 -4.907215e+00
      vertex   7.588398e+00 6.736043e+00 -4.907215e+00
    endloop
  endfacet
  facet normal -6.656198e-01 -6.262692e-01 4.058784e-01
    outer loop
      vertex   7.505496e+00 6.844233e+00 -4.876234e+00
      vertex   7.588398e+00 6.736043e+00 -4.907215e+00
      vertex   7.598706e+00 6.745166e+00 -4.876234e+00
    endloop
  endfacet
  facet normal -6.739391e-01 -6.172366e-01 4.059865e-01
    outer loop
      vertex   7.598706e+00 6.745166e+00 -4.876234e+00
      vertex   7.588398e+00 6.736043e+00 -4.907215e+00
      vertex   7.680102e+00 6.635915e+00 -4.907215e+00
    endloop
  endfacet
  facet normal -6.739428e-01 -6.172373e-01 4.059793e-01
    outer loop
      vertex   7.598706e+00 6.745166e+00 -4.876234e+00
      vertex   7.680102e+00 6.635915e+00 -4.907215e+00
      vertex   7.690536e+00 6.644900e+00 -4.876234e+00
    endloop
  endfacet
  facet normal -6.821447e-01 -6.080879e-01 4.060883e-01
    outer loop
      vertex   7.690536e+00 6.644900e+00 -4.876234e+00
      vertex   7.680102e+00 6.635915e+00 -4.907215e+00
      vertex   7.770451e+00 6.534562e+00 -4.907215e+00
    endloop
  endfacet
  facet normal -6.821491e-01 -6.080887e-01 4.060798e-01
    outer loop
      vertex   7.690536e+00 6.644900e+00 -4.876234e+00
      vertex   7.770451e+00 6.534562e+00 -4.907215e+00
      vertex   7.781010e+00 6.543406e+00 -4.876234e+00
    endloop
  endfacet
  facet normal -6.902339e-01 -5.988212e-01 4.061900e-01
    outer loop
      vertex   7.781010e+00 6.543406e+00 -4.876234e+00
      vertex   7.770451e+00 6.534562e+00 -4.907215e+00
      vertex   7.859439e+00 6.431990e+00 -4.907215e+00
    endloop
  endfacet
  facet normal -6.902395e-01 -5.988221e-01 4.061792e-01
    outer loop
      vertex   7.781010e+00 6.543406e+00 -4.876234e+00
      vertex   7.859439e+00 6.431990e+00 -4.907215e+00
      vertex   7.870125e+00 6.440687e+00 -4.876234e+00
    endloop
  endfacet
  facet normal -6.982049e-01 -5.894374e-01 4.062923e-01
    outer loop
      vertex   7.870125e+00 6.440687e+00 -4.876234e+00
      vertex   7.859439e+00 6.431990e+00 -4.907215e+00
      vertex   7.947045e+00 6.328218e+00 -4.907215e+00
    endloop
  endfacet
  facet normal -6.982123e-01 -5.894385e-01 4.062780e-01
    outer loop
      vertex   7.870125e+00 6.440687e+00 -4.876234e+00
      vertex   7.947045e+00 6.328218e+00 -4.907215e+00
      vertex   7.957857e+00 6.336765e+00 -4.876234e+00
    endloop
  endfacet
  facet normal -7.040632e-01 -5.823727e-01 4.063705e-01
    outer loop
      vertex   7.957857e+00 6.336765e+00 -4.876234e+00
      vertex   7.947045e+00 6.328218e+00 -4.907215e+00
      vertex   8.000000e+00 6.283195e+00 -4.879990e+00
    endloop
  endfacet
  facet normal -7.051591e-01 -5.830344e-01 4.035115e-01
    outer loop
      vertex   7.957857e+00 6.336765e+00 -4.876234e+00
      vertex   8.000000e+00 6.283195e+00 -4.879990e+00
      vertex   8.000000e+00 6.325113e+00 -4.819422e+00
    endloop
  endfacet
  facet normal -6.546568e-01 -6.327421e-01 4.135964e-01
    outer loop
      vertex   7.370410e+00 6.904015e+00 -5.000000e+00
      vertex   7.464393e+00 6.806777e+00 -5.000000e+00
      vertex   7.380674e+00 6.913595e+00 -4.969098e+00
    endloop
  endfacet
  facet normal -6.546593e-01 -6.327427e-01 4.135915e-01
    outer loop
      vertex   7.380674e+00 6.913595e+00 -4.969098e+00
      vertex   7.464393e+00 6.806777e+00 -5.000000e+00
      vertex   7.474773e+00 6.816236e+00 -4.969098e+00
    endloop
  endfacet
  facet normal -6.555045e-01 -6.335597e-01 4.109939e-01
    outer loop
      vertex   7.380674e+00 6.913595e+00 -4.969098e+00
      vertex   7.474773e+00 6.816236e+00 -4.969098e+00
      vertex   7.390869e+00 6.923111e+00 -4.938170e+00
    endloop
  endfacet
  facet normal -6.555071e-01 -6.335602e-01 4.109890e-01
    outer loop
      vertex   7.390869e+00 6.923111e+00 -4.938170e+00
      vertex   7.474773e+00 6.816236e+00 -4.969098e+00
      vertex   7.485084e+00 6.825632e+00 -4.938170e+00
    endloop
  endfacet
  facet normal -6.563464e-01 -6.343715e-01 4.083898e-01
    outer loop
      vertex   7.390869e+00 6.923111e+00 -4.938170e+00
      vertex   7.485084e+00 6.825632e+00 -4.938170e+00
      vertex   7.400995e+00 6.932562e+00 -4.907215e+00
    endloop
  endfacet
  facet normal -6.563489e-01 -6.343720e-01 4.083850e-01
    outer loop
      vertex   7.400995e+00 6.932562e+00 -4.907215e+00
      vertex   7.485084e+00 6.825632e+00 -4.938170e+00
      vertex   7.495324e+00 6.834964e+00 -4.907215e+00
    endloop
  endfacet
  facet normal -6.630590e-01 -6.238659e-01 4.136957e-01
    outer loop
      vertex   7.464393e+00 6.806777e+00 -5.000000e+00
      vertex   7.557052e+00 6.708298e+00 -5.000000e+00
      vertex   7.474773e+00 6.816236e+00 -4.969098e+00
    endloop
  endfacet
  facet normal -6.630611e-01 -6.238664e-01 4.136916e-01
    outer loop
      vertex   7.474773e+00 6.816236e+00 -4.969098e+00
      vertex   7.557052e+00 6.708298e+00 -5.000000e+00
      vertex   7.567571e+00 6.717609e+00 -4.969098e+00
    endloop
  endfacet
  facet normal -6.639179e-01 -6.246725e-01 4.110928e-01
    outer loop
      vertex   7.474773e+00 6.816236e+00 -4.969098e+00
      vertex   7.567571e+00 6.717609e+00 -4.969098e+00
      vertex   7.485084e+00 6.825632e+00 -4.938170e+00
    endloop
  endfacet
  facet normal -6.639200e-01 -6.246729e-01 4.110888e-01
    outer loop
      vertex   7.485084e+00 6.825632e+00 -4.938170e+00
      vertex   7.567571e+00 6.717609e+00 -4.969098e+00
      vertex   7.578020e+00 6.726857e+00 -4.938170e+00
    endloop
  endfacet
  facet normal -6.647708e-01 -6.254734e-01 4.084884e-01
    outer loop
      vertex   7.485084e+00 6.825632e+00 -4.938170e+00
      vertex   7.578020e+00 6.726857e+00 -4.938170e+00
      vertex   7.495324e+00 6.834964e+00 -4.907215e+00
    endloop
  endfacet
  facet normal -6.647729e-01 -6.254739e-01 4.084843e-01
    outer loop
      vertex   7.495324e+00 6.834964e+00 -4.907215e+00
      vertex   7.578020e+00 6.726857e+00 -4.938170e+00
      vertex   7.588398e+00 6.736043e+00 -4.907215e+00
    endloop
  endfacet
  facet normal -6.713455e-01 -6.148692e-01 4.138008e-01
    outer loop
      vertex   7.557052e+00 6.708298e+00 -5.000000e+00
      vertex   7.648371e+00 6.608590e+00 -5.000000e+00
      vertex   7.567571e+00 6.717609e+00 -4.969098e+00
    endloop
  endfacet
  facet normal -6.713493e-01 -6.148699e-01 4.137936e-01
    outer loop
      vertex   7.567571e+00 6.717609e+00 -4.969098e+00
      vertex   7.648371e+00 6.608590e+00 -5.000000e+00
      vertex   7.659019e+00 6.617760e+00 -4.969098e+00
    endloop
  endfacet
  facet normal -6.722161e-01 -6.156638e-01 4.111976e-01
    outer loop
      vertex   7.567571e+00 6.717609e+00 -4.969098e+00
      vertex   7.659019e+00 6.617760e+00 -4.969098e+00
      vertex   7.578020e+00 6.726857e+00 -4.938170e+00
    endloop
  endfacet
  facet normal -6.722198e-01 -6.156646e-01 4.111905e-01
    outer loop
      vertex   7.578020e+00 6.726857e+00 -4.938170e+00
      vertex   7.659019e+00 6.617760e+00 -4.969098e+00
      vertex   7.669596e+00 6.626869e+00 -4.938170e+00
    endloop
  endfacet
  facet normal -6.730807e-01 -6.164530e-01 4.085928e-01
    outer loop
      vertex   7.578020e+00 6.726857e+00 -4.938170e+00
      vertex   7.669596e+00 6.626869e+00 -4.938170e+00
      vertex   7.588398e+00 6.736043e+00 -4.907215e+00
    endloop
  endfacet
  facet normal -6.730844e-01 -6.164537e-01 4.085857e-01
    outer loop
      vertex   7.588398e+00 6.736043e+00 -4.907215e+00
      vertex   7.669596e+00 6.626869e+00 -4.938170e+00
      vertex   7.680102e+00 6.635915e+00 -4.907215e+00
    endloop
  endfacet
  facet normal -6.795177e-01 -6.057553e-01 4.139036e-01
    outer loop
      vertex   7.648371e+00 6.608590e+00 -5.000000e+00
      vertex   7.738339e+00 6.507667e+00 -5.000000e+00
      vertex   7.659019e+00 6.617760e+00 -4.969098e+00
    endloop
  endfacet
  facet normal -6.795221e-01 -6.057562e-01 4.138952e-01
    outer loop
      vertex   7.659019e+00 6.617760e+00 -4.969098e+00
      vertex   7.738339e+00 6.507667e+00 -5.000000e+00
      vertex   7.749115e+00 6.516693e+00 -4.969098e+00
    endloop
  endfacet
  facet normal -6.803995e-01 -6.065383e-01 4.113001e-01
    outer loop
      vertex   7.659019e+00 6.617760e+00 -4.969098e+00
      vertex   7.749115e+00 6.516693e+00 -4.969098e+00
      vertex   7.669596e+00 6.626869e+00 -4.938170e+00
    endloop
  endfacet
  facet normal -6.804038e-01 -6.065391e-01 4.112918e-01
    outer loop
      vertex   7.669596e+00 6.626869e+00 -4.938170e+00
      vertex   7.749115e+00 6.516693e+00 -4.969098e+00
      vertex   7.759819e+00 6.525658e+00 -4.938170e+00
    endloop
  endfacet
  facet normal -6.812752e-01 -6.073159e-01 4.086950e-01
    outer loop
      vertex   7.669596e+00 6.626869e+00 -4.938170e+00
      vertex   7.759819e+00 6.525658e+00 -4.938170e+00
      vertex   7.680102e+00 6.635915e+00 -4.907215e+00
    endloop
  endfacet
  facet normal -6.812795e-01 -6.073166e-01 4.086865e-01
    outer loop
      vertex   7.680102e+00 6.635915e+00 -4.907215e+00
      vertex   7.759819e+00 6.525658e+00 -4.938170e+00
      vertex   7.770451e+00 6.534562e+00 -4.907215e+00
    endloop
  endfacet
  facet normal -6.875733e-01 -5.965247e-01 4.140064e-01
    outer loop
      vertex   7.738339e+00 6.507667e+00 -5.000000e+00
      vertex   7.826942e+00 6.405540e+00 -5.000000e+00
      vertex   7.749115e+00 6.516693e+00 -4.969098e+00
    endloop
  endfacet
  facet normal -6.875789e-01 -5.965257e-01 4.139957e-01
    outer loop
      vertex   7.749115e+00 6.516693e+00 -4.969098e+00
      vertex   7.826942e+00 6.405540e+00 -5.000000e+00
      vertex   7.837848e+00 6.414417e+00 -4.969098e+00
    endloop
  endfacet
  facet normal -6.884663e-01 -5.972956e-01 4.114027e-01
    outer loop
      vertex   7.749115e+00 6.516693e+00 -4.969098e+00
      vertex   7.837848e+00 6.414417e+00 -4.969098e+00
      vertex   7.759819e+00 6.525658e+00 -4.938170e+00
    endloop
  endfacet
  facet normal -6.884719e-01 -5.972965e-01 4.113919e-01
    outer loop
      vertex   7.759819e+00 6.525658e+00 -4.938170e+00
      vertex   7.837848e+00 6.414417e+00 -4.969098e+00
      vertex   7.848680e+00 6.423233e+00 -4.938170e+00
    endloop
  endfacet
  facet normal -6.893532e-01 -5.980611e-01 4.087971e-01
    outer loop
      vertex   7.759819e+00 6.525658e+00 -4.938170e+00
      vertex   7.848680e+00 6.423233e+00 -4.938170e+00
      vertex   7.770451e+00 6.534562e+00 -4.907215e+00
    endloop
  endfacet
  facet normal -6.893588e-01 -5.980620e-01 4.087863e-01
    outer loop
      vertex   7.770451e+00 6.534562e+00 -4.907215e+00
      vertex   7.848680e+00 6.423233e+00 -4.938170e+00
      vertex   7.859439e+00 6.431990e+00 -4.907215e+00
    endloop
  endfacet
  facet normal -6.955106e-01 -5.871781e-01 4.141098e-01
    outer loop
      vertex   7.826942e+00 6.405540e+00 -5.000000e+00
      vertex   7.914167e+00 6.302223e+00 -5.000000e+00
      vertex   7.837848e+00 6.414417e+00 -4.969098e+00
    endloop
  endfacet
  facet normal -6.955180e-01 -5.871792e-01 4.140958e-01
    outer loop
      vertex   7.837848e+00 6.414417e+00 -4.969098e+00
      vertex   7.914167e+00 6.302223e+00 -5.000000e+00
      vertex   7.925200e+00 6.310947e+00 -4.969098e+00
    endloop
  endfacet
  facet normal -6.964149e-01 -5.879365e-01 4.115057e-01
    outer loop
      vertex   7.837848e+00 6.414417e+00 -4.969098e+00
      vertex   7.925200e+00 6.310947e+00 -4.969098e+00
      vertex   7.848680e+00 6.423233e+00 -4.938170e+00
    endloop
  endfacet
  facet normal -6.964223e-01 -5.879376e-01 4.114915e-01
    outer loop
      vertex   7.848680e+00 6.423233e+00 -4.938170e+00
      vertex   7.925200e+00 6.310947e+00 -4.969098e+00
      vertex   7.936160e+00 6.319612e+00 -4.938170e+00
    endloop
  endfacet
  facet normal -6.973131e-01 -5.886896e-01 4.088997e-01
    outer loop
      vertex   7.848680e+00 6.423233e+00 -4.938170e+00
      vertex   7.936160e+00 6.319612e+00 -4.938170e+00
      vertex   7.859439e+00 6.431990e+00 -4.907215e+00
    endloop
  endfacet
  facet normal -6.973205e-01 -5.886907e-01 4.088855e-01
    outer loop
      vertex   7.859439e+00 6.431990e+00 -4.907215e+00
      vertex   7.936160e+00 6.319612e+00 -4.938170e+00
      vertex   7.947045e+00 6.328218e+00 -4.907215e+00
    endloop
  endfacet
  facet normal -7.033285e-01 -5.777167e-01 4.142131e-01
    outer loop
      vertex   7.914167e+00 6.302223e+00 -5.000000e+00
      vertex   8.000000e+00 6.197728e+00 -5.000000e+00
      vertex   7.925200e+00 6.310947e+00 -4.969098e+00
    endloop
  endfacet
  facet normal -7.027588e-01 -5.776349e-01 4.152925e-01
    outer loop
      vertex   7.925200e+00 6.310947e+00 -4.969098e+00
      vertex   8.000000e+00 6.197728e+00 -5.000000e+00
      vertex   8.000000e+00 6.240733e+00 -4.940184e+00
    endloop
  endfacet
  facet normal -7.032494e-01 -5.796794e-01 4.115970e-01
    outer loop
      vertex   7.925200e+00 6.310947e+00 -4.969098e+00
      vertex   8.000000e+00 6.240733e+00 -4.940184e+00
      vertex   7.936160e+00 6.319612e+00 -4.938170e+00
    endloop
  endfacet
  facet normal -7.040653e-01 -5.802823e-01 4.093464e-01
    outer loop
      vertex   7.936160e+00 6.319612e+00 -4.938170e+00
      vertex   8.000000e+00 6.240733e+00 -4.940184e+00
      vertex   8.000000e+00 6.283195e+00 -4.879990e+00
    endloop
  endfacet
  facet normal -7.039575e-01 -5.806655e-01 4.089883e-01
    outer loop
      vertex   7.936160e+00 6.319612e+00 -4.938170e+00
      vertex   8.000000e+00 6.283195e+00 -4.879990e+00
      vertex   7.947045e+00 6.328218e+00 -4.907215e+00
    endloop
  endfacet
  facet normal -7.081441e-01 -5.841557e-01 3.966030e-01
    outer loop
      vertex   8.000000e+00 6.366486e+00 -4.758485e+00
      vertex   7.989850e+00 6.362052e+00 -4.783138e+00
      vertex   8.000000e+00 6.325113e+00 -4.819422e+00
    endloop
  endfacet
  facet normal -7.059873e-01 -5.854545e-01 3.985286e-01
    outer loop
      vertex   8.000000e+00 6.325113e+00 -4.819422e+00
      vertex   7.989850e+00 6.362052e+00 -4.783138e+00
      vertex   7.979259e+00 6.353682e+00 -4.814195e+00
    endloop
  endfacet
  facet normal -7.048176e-01 -5.850825e-01 4.011368e-01
    outer loop
      vertex   8.000000e+00 6.325113e+00 -4.819422e+00
      vertex   7.979259e+00 6.353682e+00 -4.814195e+00
      vertex   7.968595e+00 6.345253e+00 -4.845227e+00
    endloop
  endfacet
  facet normal -6.999771e-01 -5.909181e-01 4.010585e-01
    outer loop
      vertex   7.968595e+00 6.345253e+00 -4.845227e+00
      vertex   7.979259e+00 6.353682e+00 -4.814195e+00
      vertex   7.891279e+00 6.457901e+00 -4.814195e+00
    endloop
  endfacet
  facet normal -6.999697e-01 -5.909170e-01 4.010729e-01
    outer loop
      vertex   7.968595e+00 6.345253e+00 -4.845227e+00
      vertex   7.891279e+00 6.457901e+00 -4.814195e+00
      vertex   7.880738e+00 6.449324e+00 -4.845227e+00
    endloop
  endfacet
  facet normal -6.919821e-01 -6.003261e-01 4.009605e-01
    outer loop
      vertex   7.880738e+00 6.449324e+00 -4.845227e+00
      vertex   7.891279e+00 6.457901e+00 -4.814195e+00
      vertex   7.801913e+00 6.560910e+00 -4.814195e+00
    endloop
  endfacet
  facet normal -6.919765e-01 -6.003252e-01 4.009714e-01
    outer loop
      vertex   7.880738e+00 6.449324e+00 -4.845227e+00
      vertex   7.801913e+00 6.560910e+00 -4.814195e+00
      vertex   7.791498e+00 6.552189e+00 -4.845227e+00
    endloop
  endfacet
  facet normal -6.838697e-01 -6.096163e-01 4.008619e-01
    outer loop
      vertex   7.791498e+00 6.552189e+00 -4.845227e+00
      vertex   7.801913e+00 6.560910e+00 -4.814195e+00
      vertex   7.711190e+00 6.662684e+00 -4.814195e+00
    endloop
  endfacet
  facet normal -6.838654e-01 -6.096155e-01 4.008704e-01
    outer loop
      vertex   7.791498e+00 6.552189e+00 -4.845227e+00
      vertex   7.711190e+00 6.662684e+00 -4.814195e+00
      vertex   7.700898e+00 6.653823e+00 -4.845227e+00
    endloop
  endfacet
  facet normal -6.756415e-01 -6.187877e-01 4.007622e-01
    outer loop
      vertex   7.700898e+00 6.653823e+00 -4.845227e+00
      vertex   7.711190e+00 6.662684e+00 -4.814195e+00
      vertex   7.619111e+00 6.763223e+00 -4.814195e+00
    endloop
  endfacet
  facet normal -6.756378e-01 -6.187870e-01 4.007695e-01
    outer loop
      vertex   7.700898e+00 6.653823e+00 -4.845227e+00
      vertex   7.619111e+00 6.763223e+00 -4.814195e+00
      vertex   7.608944e+00 6.754226e+00 -4.845227e+00
    endloop
  endfacet
  facet normal -6.672956e-01 -6.278428e-01 4.006620e-01
    outer loop
      vertex   7.608944e+00 6.754226e+00 -4.845227e+00
      vertex   7.619111e+00 6.763223e+00 -4.814195e+00
      vertex   7.525628e+00 6.862580e+00 -4.814195e+00
    endloop
  endfacet
  facet normal -6.672935e-01 -6.278423e-01 4.006662e-01
    outer loop
      vertex   7.608944e+00 6.754226e+00 -4.845227e+00
      vertex   7.525628e+00 6.862580e+00 -4.814195e+00
      vertex   7.515597e+00 6.853438e+00 -4.845227e+00
    endloop
  endfacet
  facet normal -6.588389e-01 -6.367730e-01 4.005639e-01
    outer loop
      vertex   7.515597e+00 6.853438e+00 -4.845227e+00
      vertex   7.525628e+00 6.862580e+00 -4.814195e+00
      vertex   7.430961e+00 6.960527e+00 -4.814195e+00
    endloop
  endfacet
  facet normal -6.588364e-01 -6.367725e-01 4.005689e-01
    outer loop
      vertex   7.515597e+00 6.853438e+00 -4.845227e+00
      vertex   7.430961e+00 6.960527e+00 -4.814195e+00
      vertex   7.421041e+00 6.951270e+00 -4.845227e+00
    endloop
  endfacet
  facet normal -6.510274e-01 -6.448145e-01 4.004717e-01
    outer loop
      vertex   7.421041e+00 6.951270e+00 -4.845227e+00
      vertex   7.430961e+00 6.960527e+00 -4.814195e+00
      vertex   7.352019e+00 7.000000e+00 -4.878971e+00
    endloop
  endfacet
  facet normal -6.511015e-01 -6.431039e-01 4.030934e-01
    outer loop
      vertex   7.421041e+00 6.951270e+00 -4.845227e+00
      vertex   7.352019e+00 7.000000e+00 -4.878971e+00
      vertex   7.411053e+00 6.941948e+00 -4.876234e+00
    endloop
  endfacet
  facet normal -7.009282e-01 -5.936395e-01 3.953375e-01
    outer loop
      vertex   8.000000e+00 6.366486e+00 -4.758485e+00
      vertex   8.000000e+00 6.407310e+00 -4.697183e+00
      vertex   7.989850e+00 6.362052e+00 -4.783138e+00
    endloop
  endfacet
  facet normal -7.022065e-01 -5.924456e-01 3.948598e-01
    outer loop
      vertex   7.989850e+00 6.362052e+00 -4.783138e+00
      vertex   8.000000e+00 6.407310e+00 -4.697183e+00
      vertex   7.912140e+00 6.474875e+00 -4.752058e+00
    endloop
  endfacet
  facet normal -7.017093e-01 -5.923753e-01 3.958478e-01
    outer loop
      vertex   7.989850e+00 6.362052e+00 -4.783138e+00
      vertex   7.912140e+00 6.474875e+00 -4.752058e+00
      vertex   7.901746e+00 6.466418e+00 -4.783138e+00
    endloop
  endfacet
  facet normal -6.936999e-01 -6.018085e-01 3.957361e-01
    outer loop
      vertex   7.901746e+00 6.466418e+00 -4.783138e+00
      vertex   7.912140e+00 6.474875e+00 -4.752058e+00
      vertex   7.822526e+00 6.578172e+00 -4.752058e+00
    endloop
  endfacet
  facet normal -6.936943e-01 -6.018076e-01 3.957471e-01
    outer loop
      vertex   7.901746e+00 6.466418e+00 -4.783138e+00
      vertex   7.822526e+00 6.578172e+00 -4.752058e+00
      vertex   7.812256e+00 6.569571e+00 -4.783138e+00
    endloop
  endfacet
  facet normal -6.855657e-01 -6.111219e-01 3.956383e-01
    outer loop
      vertex   7.812256e+00 6.569571e+00 -4.783138e+00
      vertex   7.822526e+00 6.578172e+00 -4.752058e+00
      vertex   7.731558e+00 6.680221e+00 -4.752058e+00
    endloop
  endfacet
  facet normal -6.855614e-01 -6.111212e-01 3.956469e-01
    outer loop
      vertex   7.812256e+00 6.569571e+00 -4.783138e+00
      vertex   7.731558e+00 6.680221e+00 -4.752058e+00
      vertex   7.721409e+00 6.671484e+00 -4.783138e+00
    endloop
  endfacet
  facet normal -6.773159e-01 -6.203158e-01 3.955395e-01
    outer loop
      vertex   7.721409e+00 6.671484e+00 -4.783138e+00
      vertex   7.731558e+00 6.680221e+00 -4.752058e+00
      vertex   7.639232e+00 6.781030e+00 -4.752058e+00
    endloop
  endfacet
  facet normal -6.773123e-01 -6.203151e-01 3.955468e-01
    outer loop
      vertex   7.721409e+00 6.671484e+00 -4.783138e+00
      vertex   7.639232e+00 6.781030e+00 -4.752058e+00
      vertex   7.629207e+00 6.772158e+00 -4.783138e+00
    endloop
  endfacet
  facet normal -6.689474e-01 -6.293938e-01 3.954401e-01
    outer loop
      vertex   7.629207e+00 6.772158e+00 -4.783138e+00
      vertex   7.639232e+00 6.781030e+00 -4.752058e+00
      vertex   7.545482e+00 6.880672e+00 -4.752058e+00
    endloop
  endfacet
  facet normal -6.689453e-01 -6.293934e-01 3.954442e-01
    outer loop
      vertex   7.629207e+00 6.772158e+00 -4.783138e+00
      vertex   7.545482e+00 6.880672e+00 -4.752058e+00
      vertex   7.535590e+00 6.871658e+00 -4.783138e+00
    endloop
  endfacet
  facet normal -6.604693e-01 -6.383450e-01 3.953428e-01
    outer loop
      vertex   7.535590e+00 6.871658e+00 -4.783138e+00
      vertex   7.545482e+00 6.880672e+00 -4.752058e+00
      vertex   7.450595e+00 6.978848e+00 -4.752058e+00
    endloop
  endfacet
  facet normal -6.604668e-01 -6.383445e-01 3.953478e-01
    outer loop
      vertex   7.535590e+00 6.871658e+00 -4.783138e+00
      vertex   7.450595e+00 6.978848e+00 -4.752058e+00
      vertex   7.440812e+00 6.969720e+00 -4.783138e+00
    endloop
  endfacet
  facet normal -6.553338e-01 -6.436485e-01 3.952900e-01
    outer loop
      vertex   7.440812e+00 6.969720e+00 -4.783138e+00
      vertex   7.450595e+00 6.978848e+00 -4.752058e+00
      vertex   7.426986e+00 7.000000e+00 -4.756757e+00
    endloop
  endfacet
  facet normal -6.527219e-01 -6.447086e-01 3.978756e-01
    outer loop
      vertex   7.440812e+00 6.969720e+00 -4.783138e+00
      vertex   7.426986e+00 7.000000e+00 -4.756757e+00
      vertex   7.430961e+00 6.960527e+00 -4.814195e+00
    endloop
  endfacet
  facet normal -6.505423e-01 -6.461882e-01 3.990433e-01
    outer loop
      vertex   7.430961e+00 6.960527e+00 -4.814195e+00
      vertex   7.426986e+00 7.000000e+00 -4.756757e+00
      vertex   7.352019e+00 7.000000e+00 -4.878971e+00
    endloop
  endfacet
  facet normal -7.032001e-01 -5.952690e-01 3.887988e-01
    outer loop
      vertex   8.000000e+00 6.447585e+00 -4.635520e+00
      vertex   7.932708e+00 6.491609e+00 -4.689825e+00
      vertex   8.000000e+00 6.407310e+00 -4.697183e+00
    endloop
  endfacet
  facet normal -7.025218e-01 -5.948854e-01 3.906077e-01
    outer loop
      vertex   8.000000e+00 6.407310e+00 -4.697183e+00
      vertex   7.932708e+00 6.491609e+00 -4.689825e+00
      vertex   7.922460e+00 6.483272e+00 -4.720953e+00
    endloop
  endfacet
  facet normal -7.021095e-01 -5.936444e-01 3.932284e-01
    outer loop
      vertex   8.000000e+00 6.407310e+00 -4.697183e+00
      vertex   7.922460e+00 6.483272e+00 -4.720953e+00
      vertex   7.912140e+00 6.474875e+00 -4.752058e+00
    endloop
  endfacet
  facet normal -6.945494e-01 -6.025416e-01 3.931218e-01
    outer loop
      vertex   7.912140e+00 6.474875e+00 -4.752058e+00
      vertex   7.922460e+00 6.483272e+00 -4.720953e+00
      vertex   7.832724e+00 6.586711e+00 -4.720953e+00
    endloop
  endfacet
  facet normal -6.945439e-01 -6.025407e-01 3.931329e-01
    outer loop
      vertex   7.912140e+00 6.474875e+00 -4.752058e+00
      vertex   7.832724e+00 6.586711e+00 -4.720953e+00
      vertex   7.822526e+00 6.578172e+00 -4.752058e+00
    endloop
  endfacet
  facet normal -6.864045e-01 -6.118665e-01 3.930245e-01
    outer loop
      vertex   7.822526e+00 6.578172e+00 -4.752058e+00
      vertex   7.832724e+00 6.586711e+00 -4.720953e+00
      vertex   7.741635e+00 6.688897e+00 -4.720953e+00
    endloop
  endfacet
  facet normal -6.864002e-01 -6.118658e-01 3.930331e-01
    outer loop
      vertex   7.822526e+00 6.578172e+00 -4.752058e+00
      vertex   7.741635e+00 6.688897e+00 -4.720953e+00
      vertex   7.731558e+00 6.680221e+00 -4.752058e+00
    endloop
  endfacet
  facet normal -6.781440e-01 -6.210715e-01 3.929260e-01
    outer loop
      vertex   7.731558e+00 6.680221e+00 -4.752058e+00
      vertex   7.741635e+00 6.688897e+00 -4.720953e+00
      vertex   7.649187e+00 6.789839e+00 -4.720953e+00
    endloop
  endfacet
  facet normal -6.781404e-01 -6.210709e-01 3.929334e-01
    outer loop
      vertex   7.731558e+00 6.680221e+00 -4.752058e+00
      vertex   7.649187e+00 6.789839e+00 -4.720953e+00
      vertex   7.639232e+00 6.781030e+00 -4.752058e+00
    endloop
  endfacet
  facet normal -6.697643e-01 -6.301609e-01 3.928270e-01
    outer loop
      vertex   7.639232e+00 6.781030e+00 -4.752058e+00
      vertex   7.649187e+00 6.789839e+00 -4.720953e+00
      vertex   7.555305e+00 6.889622e+00 -4.720953e+00
    endloop
  endfacet
  facet normal -6.697622e-01 -6.301604e-01 3.928312e-01
    outer loop
      vertex   7.639232e+00 6.781030e+00 -4.752058e+00
      vertex   7.555305e+00 6.889622e+00 -4.720953e+00
      vertex   7.545482e+00 6.880672e+00 -4.752058e+00
    endloop
  endfacet
  facet normal -6.612756e-01 -6.391225e-01 3.927302e-01
    outer loop
      vertex   7.545482e+00 6.880672e+00 -4.752058e+00
      vertex   7.555305e+00 6.889622e+00 -4.720953e+00
      vertex   7.460308e+00 6.987912e+00 -4.720953e+00
    endloop
  endfacet
  facet normal -6.612731e-01 -6.391220e-01 3.927352e-01
    outer loop
      vertex   7.545482e+00 6.880672e+00 -4.752058e+00
      vertex   7.460308e+00 6.987912e+00 -4.720953e+00
      vertex   7.450595e+00 6.978848e+00 -4.752058e+00
    endloop
  endfacet
  facet normal -6.558113e-01 -6.447629e-01 3.926733e-01
    outer loop
      vertex   7.450595e+00 6.978848e+00 -4.752058e+00
      vertex   7.460308e+00 6.987912e+00 -4.720953e+00
      vertex   7.426986e+00 7.000000e+00 -4.756757e+00
    endloop
  endfacet
  facet normal -7.042282e-01 -5.978532e-01 3.829286e-01
    outer loop
      vertex   8.000000e+00 6.487309e+00 -4.573500e+00
      vertex   7.952984e+00 6.508103e+00 -4.627500e+00
      vertex   8.000000e+00 6.447585e+00 -4.635520e+00
    endloop
  endfacet
  facet normal -7.032631e-01 -5.974258e-01 3.853614e-01
    outer loop
      vertex   8.000000e+00 6.447585e+00 -4.635520e+00
      vertex   7.952984e+00 6.508103e+00 -4.627500e+00
      vertex   7.942883e+00 6.499886e+00 -4.658674e+00
    endloop
  endfacet
  facet normal -7.030257e-01 -5.960043e-01 3.879867e-01
    outer loop
      vertex   8.000000e+00 6.447585e+00 -4.635520e+00
      vertex   7.942883e+00 6.499886e+00 -4.658674e+00
      vertex   7.932708e+00 6.491609e+00 -4.689825e+00
    endloop
  endfacet
  facet normal -6.962299e-01 -6.039915e-01 3.878894e-01
    outer loop
      vertex   7.932708e+00 6.491609e+00 -4.689825e+00
      vertex   7.942883e+00 6.499886e+00 -4.658674e+00
      vertex   7.852904e+00 6.603606e+00 -4.658674e+00
    endloop
  endfacet
  facet normal -6.962244e-01 -6.039907e-01 3.879005e-01
    outer loop
      vertex   7.932708e+00 6.491609e+00 -4.689825e+00
      vertex   7.852904e+00 6.603606e+00 -4.658674e+00
      vertex   7.842850e+00 6.595189e+00 -4.689825e+00
    endloop
  endfacet
  facet normal -6.880637e-01 -6.133393e-01 3.877929e-01
    outer loop
      vertex   7.842850e+00 6.595189e+00 -4.689825e+00
      vertex   7.852904e+00 6.603606e+00 -4.658674e+00
      vertex   7.761574e+00 6.706063e+00 -4.658674e+00
    endloop
  endfacet
  facet normal -6.880594e-01 -6.133386e-01 3.878016e-01
    outer loop
      vertex   7.842850e+00 6.595189e+00 -4.689825e+00
      vertex   7.761574e+00 6.706063e+00 -4.658674e+00
      vertex   7.751640e+00 6.697511e+00 -4.689825e+00
    endloop
  endfacet
  facet normal -6.797820e-01 -6.225663e-01 3.876953e-01
    outer loop
      vertex   7.751640e+00 6.697511e+00 -4.689825e+00
      vertex   7.761574e+00 6.706063e+00 -4.658674e+00
      vertex   7.668885e+00 6.807270e+00 -4.658674e+00
    endloop
  endfacet
  facet normal -6.797784e-01 -6.225657e-01 3.877027e-01
    outer loop
      vertex   7.751640e+00 6.697511e+00 -4.689825e+00
      vertex   7.668885e+00 6.807270e+00 -4.658674e+00
      vertex   7.659072e+00 6.798586e+00 -4.689825e+00
    endloop
  endfacet
  facet normal -6.713802e-01 -6.316780e-01 3.875971e-01
    outer loop
      vertex   7.659072e+00 6.798586e+00 -4.689825e+00
      vertex   7.668885e+00 6.807270e+00 -4.658674e+00
      vertex   7.574740e+00 6.907333e+00 -4.658674e+00
    endloop
  endfacet
  facet normal -6.713781e-01 -6.316776e-01 3.876014e-01
    outer loop
      vertex   7.659072e+00 6.798586e+00 -4.689825e+00
      vertex   7.574740e+00 6.907333e+00 -4.658674e+00
      vertex   7.565057e+00 6.898509e+00 -4.689825e+00
    endloop
  endfacet
  facet normal -6.628696e-01 -6.406612e-01 3.875012e-01
    outer loop
      vertex   7.565057e+00 6.898509e+00 -4.689825e+00
      vertex   7.574740e+00 6.907333e+00 -4.658674e+00
      vertex   7.469953e+00 6.996911e+00 -4.689825e+00
    endloop
  endfacet
  facet normal -6.620760e-01 -6.398942e-01 3.901163e-01
    outer loop
      vertex   7.565057e+00 6.898509e+00 -4.689825e+00
      vertex   7.469953e+00 6.996911e+00 -4.689825e+00
      vertex   7.555305e+00 6.889622e+00 -4.720953e+00
    endloop
  endfacet
  facet normal -6.620736e-01 -6.398937e-01 3.901214e-01
    outer loop
      vertex   7.555305e+00 6.889622e+00 -4.720953e+00
      vertex   7.469953e+00 6.996911e+00 -4.689825e+00
      vertex   7.460308e+00 6.987912e+00 -4.720953e+00
    endloop
  endfacet
  facet normal -7.053651e-01 -6.002815e-01 3.769910e-01
    outer loop
      vertex   8.000000e+00 6.526480e+00 -4.511129e+00
      vertex   7.972967e+00 6.524358e+00 -4.565088e+00
      vertex   8.000000e+00 6.487309e+00 -4.573500e+00
    endloop
  endfacet
  facet normal -7.039600e-01 -5.999644e-01 3.801093e-01
    outer loop
      vertex   8.000000e+00 6.487309e+00 -4.573500e+00
      vertex   7.972967e+00 6.524358e+00 -4.565088e+00
      vertex   7.963012e+00 6.516261e+00 -4.596305e+00
    endloop
  endfacet
  facet normal -7.041220e-01 -5.980976e-01 3.827420e-01
    outer loop
      vertex   8.000000e+00 6.487309e+00 -4.573500e+00
      vertex   7.963012e+00 6.516261e+00 -4.596305e+00
      vertex   7.952984e+00 6.508103e+00 -4.627500e+00
    endloop
  endfacet
  facet normal -6.978856e-01 -6.054199e-01 3.826519e-01
    outer loop
      vertex   7.952984e+00 6.508103e+00 -4.627500e+00
      vertex   7.963012e+00 6.516261e+00 -4.596305e+00
      vertex   7.872794e+00 6.620258e+00 -4.596305e+00
    endloop
  endfacet
  facet normal -6.978801e-01 -6.054191e-01 3.826632e-01
    outer loop
      vertex   7.952984e+00 6.508103e+00 -4.627500e+00
      vertex   7.872794e+00 6.620258e+00 -4.596305e+00
      vertex   7.862885e+00 6.611963e+00 -4.627500e+00
    endloop
  endfacet
  facet normal -6.896983e-01 -6.147901e-01 3.825563e-01
    outer loop
      vertex   7.862885e+00 6.611963e+00 -4.627500e+00
      vertex   7.872794e+00 6.620258e+00 -4.596305e+00
      vertex   7.781227e+00 6.722981e+00 -4.596305e+00
    endloop
  endfacet
  facet normal -6.896941e-01 -6.147895e-01 3.825651e-01
    outer loop
      vertex   7.862885e+00 6.611963e+00 -4.627500e+00
      vertex   7.781227e+00 6.722981e+00 -4.596305e+00
      vertex   7.771436e+00 6.714553e+00 -4.627500e+00
    endloop
  endfacet
  facet normal -6.813958e-01 -6.240388e-01 3.824596e-01
    outer loop
      vertex   7.771436e+00 6.714553e+00 -4.627500e+00
      vertex   7.781227e+00 6.722981e+00 -4.596305e+00
      vertex   7.688301e+00 6.824449e+00 -4.596305e+00
    endloop
  endfacet
  facet normal -6.813922e-01 -6.240382e-01 3.824670e-01
    outer loop
      vertex   7.771436e+00 6.714553e+00 -4.627500e+00
      vertex   7.688301e+00 6.824449e+00 -4.596305e+00
      vertex   7.678629e+00 6.815891e+00 -4.627500e+00
    endloop
  endfacet
  facet normal -6.729721e-01 -6.331727e-01 3.823623e-01
    outer loop
      vertex   7.678629e+00 6.815891e+00 -4.627500e+00
      vertex   7.688301e+00 6.824449e+00 -4.596305e+00
      vertex   7.593896e+00 6.924788e+00 -4.596305e+00
    endloop
  endfacet
  facet normal -6.729700e-01 -6.331723e-01 3.823666e-01
    outer loop
      vertex   7.678629e+00 6.815891e+00 -4.627500e+00
      vertex   7.593896e+00 6.924788e+00 -4.596305e+00
      vertex   7.584353e+00 6.916092e+00 -4.627500e+00
    endloop
  endfacet
  facet normal -6.649480e-01 -6.416465e-01 3.822748e-01
    outer loop
      vertex   7.584353e+00 6.916092e+00 -4.627500e+00
      vertex   7.593896e+00 6.924788e+00 -4.596305e+00
      vertex   7.500004e+00 7.000000e+00 -4.633382e+00
    endloop
  endfacet
  facet normal -6.642705e-01 -6.407818e-01 3.848939e-01
    outer loop
      vertex   7.584353e+00 6.916092e+00 -4.627500e+00
      vertex   7.500004e+00 7.000000e+00 -4.633382e+00
      vertex   7.574740e+00 6.907333e+00 -4.658674e+00
    endloop
  endfacet
  facet normal -6.628172e-01 -6.404438e-01 3.879500e-01
    outer loop
      vertex   7.574740e+00 6.907333e+00 -4.658674e+00
      vertex   7.500004e+00 7.000000e+00 -4.633382e+00
      vertex   7.469953e+00 6.996911e+00 -4.689825e+00
    endloop
  endfacet
  facet normal -7.076126e-01 -6.016987e-01 3.704634e-01
    outer loop
      vertex   8.000000e+00 6.565096e+00 -4.448410e+00
      vertex   7.992658e+00 6.540372e+00 -4.502590e+00
      vertex   8.000000e+00 6.526480e+00 -4.511129e+00
    endloop
  endfacet
  facet normal -7.044320e-01 -6.027134e-01 3.748493e-01
    outer loop
      vertex   8.000000e+00 6.526480e+00 -4.511129e+00
      vertex   7.992658e+00 6.540372e+00 -4.502590e+00
      vertex   7.982849e+00 6.532395e+00 -4.533849e+00
    endloop
  endfacet
  facet normal -7.065298e-01 -5.985847e-01 3.775078e-01
    outer loop
      vertex   8.000000e+00 6.526480e+00 -4.511129e+00
      vertex   7.982849e+00 6.532395e+00 -4.533849e+00
      vertex   7.972967e+00 6.524358e+00 -4.565088e+00
    endloop
  endfacet
  facet normal -6.995164e-01 -6.068267e-01 3.774097e-01
    outer loop
      vertex   7.972967e+00 6.524358e+00 -4.565088e+00
      vertex   7.982849e+00 6.532395e+00 -4.533849e+00
      vertex   7.892394e+00 6.636666e+00 -4.533849e+00
    endloop
  endfacet
  facet normal -6.995110e-01 -6.068259e-01 3.774211e-01
    outer loop
      vertex   7.972967e+00 6.524358e+00 -4.565088e+00
      vertex   7.892394e+00 6.636666e+00 -4.533849e+00
      vertex   7.882630e+00 6.628493e+00 -4.565088e+00
    endloop
  endfacet
  facet normal -6.913085e-01 -6.162191e-01 3.773150e-01
    outer loop
      vertex   7.882630e+00 6.628493e+00 -4.565088e+00
      vertex   7.892394e+00 6.636666e+00 -4.533849e+00
      vertex   7.800594e+00 6.739652e+00 -4.533849e+00
    endloop
  endfacet
  facet normal -6.913042e-01 -6.162185e-01 3.773238e-01
    outer loop
      vertex   7.882630e+00 6.628493e+00 -4.565088e+00
      vertex   7.800594e+00 6.739652e+00 -4.533849e+00
      vertex   7.790946e+00 6.731348e+00 -4.565088e+00
    endloop
  endfacet
  facet normal -6.829853e-01 -6.254892e-01 3.772192e-01
    outer loop
      vertex   7.790946e+00 6.731348e+00 -4.565088e+00
      vertex   7.800594e+00 6.739652e+00 -4.533849e+00
      vertex   7.707434e+00 6.841376e+00 -4.533849e+00
    endloop
  endfacet
  facet normal -6.829817e-01 -6.254886e-01 3.772267e-01
    outer loop
      vertex   7.790946e+00 6.731348e+00 -4.565088e+00
      vertex   7.707434e+00 6.841376e+00 -4.533849e+00
      vertex   7.697903e+00 6.832944e+00 -4.565088e+00
    endloop
  endfacet
  facet normal -6.745401e-01 -6.346448e-01 3.771228e-01
    outer loop
      vertex   7.697903e+00 6.832944e+00 -4.565088e+00
      vertex   7.707434e+00 6.841376e+00 -4.533849e+00
      vertex   7.612772e+00 6.941989e+00 -4.533849e+00
    endloop
  endfacet
  facet normal -6.745380e-01 -6.346445e-01 3.771271e-01
    outer loop
      vertex   7.697903e+00 6.832944e+00 -4.565088e+00
      vertex   7.612772e+00 6.941989e+00 -4.533849e+00
      vertex   7.603369e+00 6.933420e+00 -4.565088e+00
    endloop
  endfacet
  facet normal -6.673996e-01 -6.421931e-01 3.770488e-01
    outer loop
      vertex   7.603369e+00 6.933420e+00 -4.565088e+00
      vertex   7.612772e+00 6.941989e+00 -4.533849e+00
      vertex   7.571062e+00 7.000000e+00 -4.508873e+00
    endloop
  endfacet
  facet normal -6.650466e-01 -6.431613e-01 3.795478e-01
    outer loop
      vertex   7.603369e+00 6.933420e+00 -4.565088e+00
      vertex   7.571062e+00 7.000000e+00 -4.508873e+00
      vertex   7.500004e+00 7.000000e+00 -4.633382e+00
    endloop
  endfacet
  facet normal -7.019743e-01 -6.097602e-01 3.680008e-01
    outer loop
      vertex   8.000000e+00 6.603155e+00 -4.385347e+00
      vertex   7.921252e+00 6.660821e+00 -4.440012e+00
      vertex   8.000000e+00 6.565096e+00 -4.448410e+00
    endloop
  endfacet
  facet normal -7.014323e-01 -6.094498e-01 3.695452e-01
    outer loop
      vertex   8.000000e+00 6.565096e+00 -4.448410e+00
      vertex   7.921252e+00 6.660821e+00 -4.440012e+00
      vertex   7.911705e+00 6.652830e+00 -4.471311e+00
    endloop
  endfacet
  facet normal -7.009517e-01 -6.081890e-01 3.725223e-01
    outer loop
      vertex   8.000000e+00 6.565096e+00 -4.448410e+00
      vertex   7.911705e+00 6.652830e+00 -4.471311e+00
      vertex   7.992658e+00 6.540372e+00 -4.502590e+00
    endloop
  endfacet
  facet normal -7.011171e-01 -6.082113e-01 3.721745e-01
    outer loop
      vertex   7.992658e+00 6.540372e+00 -4.502590e+00
      vertex   7.911705e+00 6.652830e+00 -4.471311e+00
      vertex   7.902086e+00 6.644779e+00 -4.502590e+00
    endloop
  endfacet
  facet normal -7.003226e-01 -6.075220e-01 3.747870e-01
    outer loop
      vertex   7.992658e+00 6.540372e+00 -4.502590e+00
      vertex   7.902086e+00 6.644779e+00 -4.502590e+00
      vertex   7.982849e+00 6.532395e+00 -4.533849e+00
    endloop
  endfacet
  facet normal -7.003171e-01 -6.075213e-01 3.747984e-01
    outer loop
      vertex   7.982849e+00 6.532395e+00 -4.533849e+00
      vertex   7.902086e+00 6.644779e+00 -4.502590e+00
      vertex   7.892394e+00 6.636666e+00 -4.533849e+00
    endloop
  endfacet
  facet normal -7.016423e-01 -6.115856e-01 3.655969e-01
    outer loop
      vertex   7.921252e+00 6.660821e+00 -4.440012e+00
      vertex   8.000000e+00 6.603155e+00 -4.385347e+00
      vertex   7.940128e+00 6.676620e+00 -4.377357e+00
    endloop
  endfacet
  facet normal -7.028885e-01 -6.122231e-01 3.621197e-01
    outer loop
      vertex   7.940128e+00 6.676620e+00 -4.377357e+00
      vertex   8.000000e+00 6.603155e+00 -4.385347e+00
      vertex   8.000000e+00 6.640656e+00 -4.321945e+00
    endloop
  endfacet
  facet normal -7.022832e-01 -6.139702e-01 3.603318e-01
    outer loop
      vertex   7.940128e+00 6.676620e+00 -4.377357e+00
      vertex   8.000000e+00 6.640656e+00 -4.321945e+00
      vertex   7.958715e+00 6.692174e+00 -4.314628e+00
    endloop
  endfacet
  facet normal -7.038144e-01 -6.146138e-01 3.562234e-01
    outer loop
      vertex   7.958715e+00 6.692174e+00 -4.314628e+00
      vertex   8.000000e+00 6.640656e+00 -4.321945e+00
      vertex   8.000000e+00 6.677597e+00 -4.258209e+00
    endloop
  endfacet
  facet normal -7.028524e-01 -6.163842e-01 3.550620e-01
    outer loop
      vertex   7.958715e+00 6.692174e+00 -4.314628e+00
      vertex   8.000000e+00 6.677597e+00 -4.258209e+00
      vertex   7.977012e+00 6.707485e+00 -4.251829e+00
    endloop
  endfacet
  facet normal -7.048181e-01 -6.168753e-01 3.502803e-01
    outer loop
      vertex   7.977012e+00 6.707485e+00 -4.251829e+00
      vertex   8.000000e+00 6.677597e+00 -4.258209e+00
      vertex   8.000000e+00 6.713977e+00 -4.194142e+00
    endloop
  endfacet
  facet normal -7.028568e-01 -6.193908e-01 3.497818e-01
    outer loop
      vertex   7.977012e+00 6.707485e+00 -4.251829e+00
      vertex   8.000000e+00 6.713977e+00 -4.194142e+00
      vertex   7.995020e+00 6.722552e+00 -4.188963e+00
    endloop
  endfacet
  facet normal -7.069029e-01 -6.181311e-01 3.438055e-01
    outer loop
      vertex   7.995020e+00 6.722552e+00 -4.188963e+00
      vertex   8.000000e+00 6.713977e+00 -4.194142e+00
      vertex   8.000000e+00 6.749792e+00 -4.129748e+00
    endloop
  endfacet
  facet normal -7.003738e-01 -6.242648e-01 3.460781e-01
    outer loop
      vertex   7.995020e+00 6.722552e+00 -4.188963e+00
      vertex   8.000000e+00 6.749792e+00 -4.129748e+00
      vertex   7.901997e+00 6.826917e+00 -4.188963e+00
    endloop
  endfacet
  facet normal -7.002293e-01 -6.253143e-01 3.444720e-01
    outer loop
      vertex   7.901997e+00 6.826917e+00 -4.188963e+00
      vertex   8.000000e+00 6.749792e+00 -4.129748e+00
      vertex   7.919504e+00 6.841979e+00 -4.126034e+00
    endloop
  endfacet
  facet normal -6.923741e-01 -6.340519e-01 3.443780e-01
    outer loop
      vertex   7.901997e+00 6.826917e+00 -4.188963e+00
      vertex   7.919504e+00 6.841979e+00 -4.126034e+00
      vertex   7.824902e+00 6.945282e+00 -4.126034e+00
    endloop
  endfacet
  facet normal -6.937843e-01 -6.353434e-01 3.391197e-01
    outer loop
      vertex   7.824902e+00 6.945282e+00 -4.126034e+00
      vertex   7.919504e+00 6.841979e+00 -4.126034e+00
      vertex   7.841914e+00 6.960325e+00 -4.063045e+00
    endloop
  endfacet
  facet normal -6.871054e-01 -6.425980e-01 3.390485e-01
    outer loop
      vertex   7.824902e+00 6.945282e+00 -4.126034e+00
      vertex   7.841914e+00 6.960325e+00 -4.063045e+00
      vertex   7.772367e+00 7.000000e+00 -4.128793e+00
    endloop
  endfacet
  facet normal -6.859178e-01 -6.454129e-01 3.360937e-01
    outer loop
      vertex   7.772367e+00 7.000000e+00 -4.128793e+00
      vertex   7.841914e+00 6.960325e+00 -4.063045e+00
      vertex   7.835474e+00 7.000000e+00 -4.000000e+00
    endloop
  endfacet
  facet normal -6.930352e-01 -6.399438e-01 3.319249e-01
    outer loop
      vertex   7.835474e+00 7.000000e+00 -4.000000e+00
      vertex   7.841914e+00 6.960325e+00 -4.063045e+00
      vertex   7.918264e+00 6.910342e+00 -4.000000e+00
    endloop
  endfacet
  facet normal -6.944053e-01 -6.359066e-01 3.367849e-01
    outer loop
      vertex   7.918264e+00 6.910342e+00 -4.000000e+00
      vertex   7.841914e+00 6.960325e+00 -4.063045e+00
      vertex   7.936725e+00 6.856793e+00 -4.063045e+00
    endloop
  endfacet
  facet normal -7.005447e-01 -6.318954e-01 3.315801e-01
    outer loop
      vertex   7.918264e+00 6.910342e+00 -4.000000e+00
      vertex   7.936725e+00 6.856793e+00 -4.063045e+00
      vertex   8.000000e+00 6.819726e+00 -4.000000e+00
    endloop
  endfacet
  facet normal -7.020185e-01 -6.283789e-01 3.351268e-01
    outer loop
      vertex   8.000000e+00 6.819726e+00 -4.000000e+00
      vertex   7.936725e+00 6.856793e+00 -4.063045e+00
      vertex   8.000000e+00 6.785043e+00 -4.065033e+00
    endloop
  endfacet
  facet normal -7.008686e-01 -6.274776e-01 3.391976e-01
    outer loop
      vertex   8.000000e+00 6.785043e+00 -4.065033e+00
      vertex   7.936725e+00 6.856793e+00 -4.063045e+00
      vertex   7.919504e+00 6.841979e+00 -4.126034e+00
    endloop
  endfacet
  facet normal -7.012486e-01 -6.260651e-01 3.410174e-01
    outer loop
      vertex   8.000000e+00 6.785043e+00 -4.065033e+00
      vertex   7.919504e+00 6.841979e+00 -4.126034e+00
      vertex   8.000000e+00 6.749792e+00 -4.129748e+00
    endloop
  endfacet
  facet normal -6.858548e-01 -6.411316e-01 3.443160e-01
    outer loop
      vertex   7.824902e+00 6.945282e+00 -4.126034e+00
      vertex   7.772367e+00 7.000000e+00 -4.128793e+00
      vertex   7.807608e+00 6.929987e+00 -4.188963e+00
    endloop
  endfacet
  facet normal -6.826528e-01 -6.426076e-01 3.479089e-01
    outer loop
      vertex   7.807608e+00 6.929987e+00 -4.188963e+00
      vertex   7.772367e+00 7.000000e+00 -4.128793e+00
      vertex   7.707255e+00 7.000000e+00 -4.256553e+00
    endloop
  endfacet
  facet normal -6.829317e-01 -6.414152e-01 3.495581e-01
    outer loop
      vertex   7.807608e+00 6.929987e+00 -4.188963e+00
      vertex   7.707255e+00 7.000000e+00 -4.256553e+00
      vertex   7.790030e+00 6.914441e+00 -4.251829e+00
    endloop
  endfacet
  facet normal -6.816514e-01 -6.398860e-01 3.548201e-01
    outer loop
      vertex   7.790030e+00 6.914441e+00 -4.251829e+00
      vertex   7.707255e+00 7.000000e+00 -4.256553e+00
      vertex   7.772170e+00 6.898645e+00 -4.314628e+00
    endloop
  endfacet
  facet normal -6.894672e-01 -6.314063e-01 3.549099e-01
    outer loop
      vertex   7.790030e+00 6.914441e+00 -4.251829e+00
      vertex   7.772170e+00 6.898645e+00 -4.314628e+00
      vertex   7.866125e+00 6.796051e+00 -4.314628e+00
    endloop
  endfacet
  facet normal -6.879851e-01 -6.300490e-01 3.601594e-01
    outer loop
      vertex   7.866125e+00 6.796051e+00 -4.314628e+00
      vertex   7.772170e+00 6.898645e+00 -4.314628e+00
      vertex   7.847760e+00 6.780246e+00 -4.377357e+00
    endloop
  endfacet
  facet normal -6.963674e-01 -6.207127e-01 3.602613e-01
    outer loop
      vertex   7.866125e+00 6.796051e+00 -4.314628e+00
      vertex   7.847760e+00 6.780246e+00 -4.377357e+00
      vertex   7.940128e+00 6.676620e+00 -4.377357e+00
    endloop
  endfacet
  facet normal -6.948424e-01 -6.193534e-01 3.655069e-01
    outer loop
      vertex   7.940128e+00 6.676620e+00 -4.377357e+00
      vertex   7.847760e+00 6.780246e+00 -4.377357e+00
      vertex   7.921252e+00 6.660821e+00 -4.440012e+00
    endloop
  endfacet
  facet normal -6.793414e-01 -6.404019e-01 3.583026e-01
    outer loop
      vertex   7.772170e+00 6.898645e+00 -4.314628e+00
      vertex   7.707255e+00 7.000000e+00 -4.256553e+00
      vertex   7.658741e+00 6.983875e+00 -4.377357e+00
    endloop
  endfacet
  facet normal -6.741111e-01 -6.466091e-01 3.570307e-01
    outer loop
      vertex   7.658741e+00 6.983875e+00 -4.377357e+00
      vertex   7.707255e+00 7.000000e+00 -4.256553e+00
      vertex   7.640149e+00 7.000000e+00 -4.383255e+00
    endloop
  endfacet
  facet normal -6.733814e-01 -6.427511e-01 3.652786e-01
    outer loop
      vertex   7.658741e+00 6.983875e+00 -4.377357e+00
      vertex   7.640149e+00 7.000000e+00 -4.383255e+00
      vertex   7.640563e+00 6.967311e+00 -4.440012e+00
    endloop
  endfacet
  facet normal -6.683488e-01 -6.466808e-01 3.675784e-01
    outer loop
      vertex   7.640563e+00 6.967311e+00 -4.440012e+00
      vertex   7.640149e+00 7.000000e+00 -4.383255e+00
      vertex   7.571062e+00 7.000000e+00 -4.508873e+00
    endloop
  endfacet
  facet normal -6.691245e-01 -6.449670e-01 3.691749e-01
    outer loop
      vertex   7.640563e+00 6.967311e+00 -4.440012e+00
      vertex   7.571062e+00 7.000000e+00 -4.508873e+00
      vertex   7.631369e+00 6.958934e+00 -4.471311e+00
    endloop
  endfacet
  facet normal -6.694815e-01 -6.430782e-01 3.718131e-01
    outer loop
      vertex   7.631369e+00 6.958934e+00 -4.471311e+00
      vertex   7.571062e+00 7.000000e+00 -4.508873e+00
      vertex   7.622106e+00 6.950493e+00 -4.502590e+00
    endloop
  endfacet
  facet normal -6.760822e-01 -6.360942e-01 3.718832e-01
    outer loop
      vertex   7.631369e+00 6.958934e+00 -4.471311e+00
      vertex   7.622106e+00 6.950493e+00 -4.502590e+00
      vertex   7.716894e+00 6.849746e+00 -4.502590e+00
    endloop
  endfacet
  facet normal -6.753151e-01 -6.353725e-01 3.745013e-01
    outer loop
      vertex   7.716894e+00 6.849746e+00 -4.502590e+00
      vertex   7.622106e+00 6.950493e+00 -4.502590e+00
      vertex   7.707434e+00 6.841376e+00 -4.533849e+00
    endloop
  endfacet
  facet normal -6.837674e-01 -6.262055e-01 3.746049e-01
    outer loop
      vertex   7.716894e+00 6.849746e+00 -4.502590e+00
      vertex   7.707434e+00 6.841376e+00 -4.533849e+00
      vertex   7.800594e+00 6.739652e+00 -4.533849e+00
    endloop
  endfacet
  facet normal -6.288258e-01 -6.826943e-01 3.721648e-01
    outer loop
      vertex   7.500004e+00 7.000000e+00 -4.633382e+00
      vertex   7.426986e+00 7.000000e+00 -4.756757e+00
      vertex   7.469953e+00 6.996911e+00 -4.689825e+00
    endloop
  endfacet
  facet normal -6.541556e-01 -6.480443e-01 3.900244e-01
    outer loop
      vertex   7.469953e+00 6.996911e+00 -4.689825e+00
      vertex   7.426986e+00 7.000000e+00 -4.756757e+00
      vertex   7.460308e+00 6.987912e+00 -4.720953e+00
    endloop
  endfacet
  facet normal -6.580148e-01 -6.359784e-01 4.031724e-01
    outer loop
      vertex   7.515597e+00 6.853438e+00 -4.845227e+00
      vertex   7.421041e+00 6.951270e+00 -4.845227e+00
      vertex   7.505496e+00 6.844233e+00 -4.876234e+00
    endloop
  endfacet
  facet normal -6.580123e-01 -6.359779e-01 4.031773e-01
    outer loop
      vertex   7.505496e+00 6.844233e+00 -4.876234e+00
      vertex   7.421041e+00 6.951270e+00 -4.845227e+00
      vertex   7.411053e+00 6.941948e+00 -4.876234e+00
    endloop
  endfacet
  facet normal -6.596571e-01 -6.375619e-01 3.979540e-01
    outer loop
      vertex   7.535590e+00 6.871658e+00 -4.783138e+00
      vertex   7.440812e+00 6.969720e+00 -4.783138e+00
      vertex   7.525628e+00 6.862580e+00 -4.814195e+00
    endloop
  endfacet
  facet normal -6.596546e-01 -6.375614e-01 3.979590e-01
    outer loop
      vertex   7.525628e+00 6.862580e+00 -4.814195e+00
      vertex   7.440812e+00 6.969720e+00 -4.783138e+00
      vertex   7.430961e+00 6.960527e+00 -4.814195e+00
    endloop
  endfacet
  facet normal -6.664607e-01 -6.270588e-01 4.032709e-01
    outer loop
      vertex   7.608944e+00 6.754226e+00 -4.845227e+00
      vertex   7.515597e+00 6.853438e+00 -4.845227e+00
      vertex   7.598706e+00 6.745166e+00 -4.876234e+00
    endloop
  endfacet
  facet normal -6.664586e-01 -6.270584e-01 4.032750e-01
    outer loop
      vertex   7.598706e+00 6.745166e+00 -4.876234e+00
      vertex   7.515597e+00 6.853438e+00 -4.845227e+00
      vertex   7.505496e+00 6.844233e+00 -4.876234e+00
    endloop
  endfacet
  facet normal -6.681245e-01 -6.286211e-01 3.980517e-01
    outer loop
      vertex   7.629207e+00 6.772158e+00 -4.783138e+00
      vertex   7.535590e+00 6.871658e+00 -4.783138e+00
      vertex   7.619111e+00 6.763223e+00 -4.814195e+00
    endloop
  endfacet
  facet normal -6.681224e-01 -6.286207e-01 3.980559e-01
    outer loop
      vertex   7.619111e+00 6.763223e+00 -4.814195e+00
      vertex   7.535590e+00 6.871658e+00 -4.783138e+00
      vertex   7.525628e+00 6.862580e+00 -4.814195e+00
    endloop
  endfacet
  facet normal -6.705752e-01 -6.309223e-01 3.902127e-01
    outer loop
      vertex   7.659072e+00 6.798586e+00 -4.689825e+00
      vertex   7.565057e+00 6.898509e+00 -4.689825e+00
      vertex   7.649187e+00 6.789839e+00 -4.720953e+00
    endloop
  endfacet
  facet normal -6.705731e-01 -6.309219e-01 3.902169e-01
    outer loop
      vertex   7.649187e+00 6.789839e+00 -4.720953e+00
      vertex   7.565057e+00 6.898509e+00 -4.689825e+00
      vertex   7.555305e+00 6.889622e+00 -4.720953e+00
    endloop
  endfacet
  facet normal -6.650632e-01 -6.430861e-01 3.796462e-01
    outer loop
      vertex   7.603369e+00 6.933420e+00 -4.565088e+00
      vertex   7.500004e+00 7.000000e+00 -4.633382e+00
      vertex   7.593896e+00 6.924788e+00 -4.596305e+00
    endloop
  endfacet
  facet normal -6.721791e-01 -6.324282e-01 3.849803e-01
    outer loop
      vertex   7.678629e+00 6.815891e+00 -4.627500e+00
      vertex   7.584353e+00 6.916092e+00 -4.627500e+00
      vertex   7.668885e+00 6.807270e+00 -4.658674e+00
    endloop
  endfacet
  facet normal -6.721770e-01 -6.324278e-01 3.849846e-01
    outer loop
      vertex   7.668885e+00 6.807270e+00 -4.658674e+00
      vertex   7.584353e+00 6.916092e+00 -4.627500e+00
      vertex   7.574740e+00 6.907333e+00 -4.658674e+00
    endloop
  endfacet
  facet normal -6.689069e-01 -6.421527e-01 3.744377e-01
    outer loop
      vertex   7.622106e+00 6.950493e+00 -4.502590e+00
      vertex   7.571062e+00 7.000000e+00 -4.508873e+00
      vertex   7.612772e+00 6.941989e+00 -4.533849e+00
    endloop
  endfacet
  facet normal -6.737591e-01 -6.339116e-01 3.797431e-01
    outer loop
      vertex   7.697903e+00 6.832944e+00 -4.565088e+00
      vertex   7.603369e+00 6.933420e+00 -4.565088e+00
      vertex   7.688301e+00 6.824449e+00 -4.596305e+00
    endloop
  endfacet
  facet normal -6.737570e-01 -6.339112e-01 3.797474e-01
    outer loop
      vertex   7.688301e+00 6.824449e+00 -4.596305e+00
      vertex   7.603369e+00 6.933420e+00 -4.565088e+00
      vertex   7.593896e+00 6.924788e+00 -4.596305e+00
    endloop
  endfacet
  facet normal -6.753131e-01 -6.353721e-01 3.745057e-01
    outer loop
      vertex   7.707434e+00 6.841376e+00 -4.533849e+00
      vertex   7.622106e+00 6.950493e+00 -4.502590e+00
      vertex   7.612772e+00 6.941989e+00 -4.533849e+00
    endloop
  endfacet
  facet normal -6.768453e-01 -6.368106e-01 3.692597e-01
    outer loop
      vertex   7.640563e+00 6.967311e+00 -4.440012e+00
      vertex   7.631369e+00 6.958934e+00 -4.471311e+00
      vertex   7.726283e+00 6.858053e+00 -4.471311e+00
    endloop
  endfacet
  facet normal -6.760842e-01 -6.360945e-01 3.718789e-01
    outer loop
      vertex   7.726283e+00 6.858053e+00 -4.471311e+00
      vertex   7.631369e+00 6.958934e+00 -4.471311e+00
      vertex   7.716894e+00 6.849746e+00 -4.502590e+00
    endloop
  endfacet
  facet normal -6.845471e-01 -6.269168e-01 3.719820e-01
    outer loop
      vertex   7.726283e+00 6.858053e+00 -4.471311e+00
      vertex   7.716894e+00 6.849746e+00 -4.502590e+00
      vertex   7.810170e+00 6.747895e+00 -4.502590e+00
    endloop
  endfacet
  facet normal -6.837710e-01 -6.262060e-01 3.745973e-01
    outer loop
      vertex   7.810170e+00 6.747895e+00 -4.502590e+00
      vertex   7.716894e+00 6.849746e+00 -4.502590e+00
      vertex   7.800594e+00 6.739652e+00 -4.533849e+00
    endloop
  endfacet
  facet normal -6.921001e-01 -6.169248e-01 3.747016e-01
    outer loop
      vertex   7.810170e+00 6.747895e+00 -4.502590e+00
      vertex   7.800594e+00 6.739652e+00 -4.533849e+00
      vertex   7.892394e+00 6.636666e+00 -4.533849e+00
    endloop
  endfacet
  facet normal -6.779783e-01 -6.378750e-01 3.653232e-01
    outer loop
      vertex   7.658741e+00 6.983875e+00 -4.377357e+00
      vertex   7.640563e+00 6.967311e+00 -4.440012e+00
      vertex   7.735602e+00 6.866297e+00 -4.440012e+00
    endloop
  endfacet
  facet normal -6.768474e-01 -6.368109e-01 3.692553e-01
    outer loop
      vertex   7.735602e+00 6.866297e+00 -4.440012e+00
      vertex   7.640563e+00 6.967311e+00 -4.440012e+00
      vertex   7.726283e+00 6.858053e+00 -4.471311e+00
    endloop
  endfacet
  facet normal -6.853208e-01 -6.276226e-01 3.693580e-01
    outer loop
      vertex   7.735602e+00 6.866297e+00 -4.440012e+00
      vertex   7.726283e+00 6.858053e+00 -4.471311e+00
      vertex   7.819675e+00 6.756076e+00 -4.471311e+00
    endloop
  endfacet
  facet normal -6.845507e-01 -6.269174e-01 3.719744e-01
    outer loop
      vertex   7.819675e+00 6.756076e+00 -4.471311e+00
      vertex   7.726283e+00 6.858053e+00 -4.471311e+00
      vertex   7.810170e+00 6.747895e+00 -4.502590e+00
    endloop
  endfacet
  facet normal -6.928899e-01 -6.176256e-01 3.720782e-01
    outer loop
      vertex   7.819675e+00 6.756076e+00 -4.471311e+00
      vertex   7.810170e+00 6.747895e+00 -4.502590e+00
      vertex   7.902086e+00 6.644779e+00 -4.502590e+00
    endloop
  endfacet
  facet normal -6.921044e-01 -6.169254e-01 3.746927e-01
    outer loop
      vertex   7.902086e+00 6.644779e+00 -4.502590e+00
      vertex   7.810170e+00 6.747895e+00 -4.502590e+00
      vertex   7.892394e+00 6.636666e+00 -4.533849e+00
    endloop
  endfacet
  facet normal -6.747952e-01 -6.180152e-01 4.033715e-01
    outer loop
      vertex   7.700898e+00 6.653823e+00 -4.845227e+00
      vertex   7.608944e+00 6.754226e+00 -4.845227e+00
      vertex   7.690536e+00 6.644900e+00 -4.876234e+00
    endloop
  endfacet
  facet normal -6.747915e-01 -6.180146e-01 4.033787e-01
    outer loop
      vertex   7.690536e+00 6.644900e+00 -4.876234e+00
      vertex   7.608944e+00 6.754226e+00 -4.845227e+00
      vertex   7.598706e+00 6.745166e+00 -4.876234e+00
    endloop
  endfacet
  facet normal -6.764817e-01 -6.195545e-01 3.981515e-01
    outer loop
      vertex   7.721409e+00 6.671484e+00 -4.783138e+00
      vertex   7.629207e+00 6.772158e+00 -4.783138e+00
      vertex   7.711190e+00 6.662684e+00 -4.814195e+00
    endloop
  endfacet
  facet normal -6.764781e-01 -6.195538e-01 3.981588e-01
    outer loop
      vertex   7.711190e+00 6.662684e+00 -4.814195e+00
      vertex   7.629207e+00 6.772158e+00 -4.783138e+00
      vertex   7.619111e+00 6.763223e+00 -4.814195e+00
    endloop
  endfacet
  facet normal -6.789660e-01 -6.218217e-01 3.903113e-01
    outer loop
      vertex   7.751640e+00 6.697511e+00 -4.689825e+00
      vertex   7.659072e+00 6.798586e+00 -4.689825e+00
      vertex   7.741635e+00 6.688897e+00 -4.720953e+00
    endloop
  endfacet
  facet normal -6.789624e-01 -6.218210e-01 3.903187e-01
    outer loop
      vertex   7.741635e+00 6.688897e+00 -4.720953e+00
      vertex   7.659072e+00 6.798586e+00 -4.689825e+00
      vertex   7.649187e+00 6.789839e+00 -4.720953e+00
    endloop
  endfacet
  facet normal -6.805919e-01 -6.233053e-01 3.850780e-01
    outer loop
      vertex   7.771436e+00 6.714553e+00 -4.627500e+00
      vertex   7.678629e+00 6.815891e+00 -4.627500e+00
      vertex   7.761574e+00 6.706063e+00 -4.658674e+00
    endloop
  endfacet
  facet normal -6.805883e-01 -6.233047e-01 3.850855e-01
    outer loop
      vertex   7.761574e+00 6.706063e+00 -4.658674e+00
      vertex   7.678629e+00 6.815891e+00 -4.627500e+00
      vertex   7.668885e+00 6.807270e+00 -4.658674e+00
    endloop
  endfacet
  facet normal -6.821936e-01 -6.247668e-01 3.798399e-01
    outer loop
      vertex   7.790946e+00 6.731348e+00 -4.565088e+00
      vertex   7.697903e+00 6.832944e+00 -4.565088e+00
      vertex   7.781227e+00 6.722981e+00 -4.596305e+00
    endloop
  endfacet
  facet normal -6.821900e-01 -6.247662e-01 3.798474e-01
    outer loop
      vertex   7.781227e+00 6.722981e+00 -4.596305e+00
      vertex   7.697903e+00 6.832944e+00 -4.565088e+00
      vertex   7.688301e+00 6.824449e+00 -4.596305e+00
    endloop
  endfacet
  facet normal -6.794701e-01 -6.392753e-01 3.600659e-01
    outer loop
      vertex   7.772170e+00 6.898645e+00 -4.314628e+00
      vertex   7.658741e+00 6.983875e+00 -4.377357e+00
      vertex   7.754028e+00 6.882596e+00 -4.377357e+00
    endloop
  endfacet
  facet normal -6.779811e-01 -6.378745e-01 3.653188e-01
    outer loop
      vertex   7.754028e+00 6.882596e+00 -4.377357e+00
      vertex   7.658741e+00 6.983875e+00 -4.377357e+00
      vertex   7.735602e+00 6.866297e+00 -4.440012e+00
    endloop
  endfacet
  facet normal -6.864691e-01 -6.286715e-01 3.654208e-01
    outer loop
      vertex   7.754028e+00 6.882596e+00 -4.377357e+00
      vertex   7.735602e+00 6.866297e+00 -4.440012e+00
      vertex   7.829108e+00 6.764194e+00 -4.440012e+00
    endloop
  endfacet
  facet normal -6.853243e-01 -6.276232e-01 3.693504e-01
    outer loop
      vertex   7.829108e+00 6.764194e+00 -4.440012e+00
      vertex   7.735602e+00 6.866297e+00 -4.440012e+00
      vertex   7.819675e+00 6.756076e+00 -4.471311e+00
    endloop
  endfacet
  facet normal -6.936736e-01 -6.183210e-01 3.694538e-01
    outer loop
      vertex   7.829108e+00 6.764194e+00 -4.440012e+00
      vertex   7.819675e+00 6.756076e+00 -4.471311e+00
      vertex   7.911705e+00 6.652830e+00 -4.471311e+00
    endloop
  endfacet
  facet normal -6.928941e-01 -6.176262e-01 3.720693e-01
    outer loop
      vertex   7.911705e+00 6.652830e+00 -4.471311e+00
      vertex   7.819675e+00 6.756076e+00 -4.471311e+00
      vertex   7.902086e+00 6.644779e+00 -4.502590e+00
    endloop
  endfacet
  facet normal -6.879802e-01 -6.300499e-01 3.601671e-01
    outer loop
      vertex   7.847760e+00 6.780246e+00 -4.377357e+00
      vertex   7.772170e+00 6.898645e+00 -4.314628e+00
      vertex   7.754028e+00 6.882596e+00 -4.377357e+00
    endloop
  endfacet
  facet normal -6.864740e-01 -6.286706e-01 3.654131e-01
    outer loop
      vertex   7.847760e+00 6.780246e+00 -4.377357e+00
      vertex   7.754028e+00 6.882596e+00 -4.377357e+00
      vertex   7.829108e+00 6.764194e+00 -4.440012e+00
    endloop
  endfacet
  facet normal -6.923692e-01 -6.340530e-01 3.443859e-01
    outer loop
      vertex   7.901997e+00 6.826917e+00 -4.188963e+00
      vertex   7.824902e+00 6.945282e+00 -4.126034e+00
      vertex   7.807608e+00 6.929987e+00 -4.188963e+00
    endloop
  endfacet
  facet normal -6.909302e-01 -6.327406e-01 3.496494e-01
    outer loop
      vertex   7.807608e+00 6.929987e+00 -4.188963e+00
      vertex   7.790030e+00 6.914441e+00 -4.251829e+00
      vertex   7.884204e+00 6.811607e+00 -4.251829e+00
    endloop
  endfacet
  facet normal -6.894721e-01 -6.314053e-01 3.549021e-01
    outer loop
      vertex   7.884204e+00 6.811607e+00 -4.251829e+00
      vertex   7.790030e+00 6.914441e+00 -4.251829e+00
      vertex   7.866125e+00 6.796051e+00 -4.314628e+00
    endloop
  endfacet
  facet normal -6.978737e-01 -6.220491e-01 3.550031e-01
    outer loop
      vertex   7.884204e+00 6.811607e+00 -4.251829e+00
      vertex   7.866125e+00 6.796051e+00 -4.314628e+00
      vertex   7.958715e+00 6.692174e+00 -4.314628e+00
    endloop
  endfacet
  facet normal -6.963731e-01 -6.207115e-01 3.602522e-01
    outer loop
      vertex   7.958715e+00 6.692174e+00 -4.314628e+00
      vertex   7.866125e+00 6.796051e+00 -4.314628e+00
      vertex   7.940128e+00 6.676620e+00 -4.377357e+00
    endloop
  endfacet
  facet normal -6.937891e-01 -6.353423e-01 3.391118e-01
    outer loop
      vertex   7.919504e+00 6.841979e+00 -4.126034e+00
      vertex   7.936725e+00 6.856793e+00 -4.063045e+00
      vertex   7.841914e+00 6.960325e+00 -4.063045e+00
    endloop
  endfacet
  facet normal -6.830125e-01 -6.088552e-01 4.034716e-01
    outer loop
      vertex   7.791498e+00 6.552189e+00 -4.845227e+00
      vertex   7.700898e+00 6.653823e+00 -4.845227e+00
      vertex   7.781010e+00 6.543406e+00 -4.876234e+00
    endloop
  endfacet
  facet normal -6.830081e-01 -6.088545e-01 4.034801e-01
    outer loop
      vertex   7.781010e+00 6.543406e+00 -4.876234e+00
      vertex   7.700898e+00 6.653823e+00 -4.845227e+00
      vertex   7.690536e+00 6.644900e+00 -4.876234e+00
    endloop
  endfacet
  facet normal -6.847208e-01 -6.103718e-01 3.982508e-01
    outer loop
      vertex   7.812256e+00 6.569571e+00 -4.783138e+00
      vertex   7.721409e+00 6.671484e+00 -4.783138e+00
      vertex   7.801913e+00 6.560910e+00 -4.814195e+00
    endloop
  endfacet
  facet normal -6.847165e-01 -6.103711e-01 3.982593e-01
    outer loop
      vertex   7.801913e+00 6.560910e+00 -4.814195e+00
      vertex   7.721409e+00 6.671484e+00 -4.783138e+00
      vertex   7.711190e+00 6.662684e+00 -4.814195e+00
    endloop
  endfacet
  facet normal -6.872372e-01 -6.126056e-01 3.904093e-01
    outer loop
      vertex   7.842850e+00 6.595189e+00 -4.689825e+00
      vertex   7.751640e+00 6.697511e+00 -4.689825e+00
      vertex   7.832724e+00 6.586711e+00 -4.720953e+00
    endloop
  endfacet
  facet normal -6.872329e-01 -6.126049e-01 3.904180e-01
    outer loop
      vertex   7.832724e+00 6.586711e+00 -4.720953e+00
      vertex   7.751640e+00 6.697511e+00 -4.689825e+00
      vertex   7.741635e+00 6.688897e+00 -4.720953e+00
    endloop
  endfacet
  facet normal -6.888841e-01 -6.140674e-01 3.851752e-01
    outer loop
      vertex   7.862885e+00 6.611963e+00 -4.627500e+00
      vertex   7.771436e+00 6.714553e+00 -4.627500e+00
      vertex   7.852904e+00 6.603606e+00 -4.658674e+00
    endloop
  endfacet
  facet normal -6.888798e-01 -6.140667e-01 3.851839e-01
    outer loop
      vertex   7.852904e+00 6.603606e+00 -4.658674e+00
      vertex   7.771436e+00 6.714553e+00 -4.627500e+00
      vertex   7.761574e+00 6.706063e+00 -4.658674e+00
    endloop
  endfacet
  facet normal -6.905065e-01 -6.155074e-01 3.799362e-01
    outer loop
      vertex   7.882630e+00 6.628493e+00 -4.565088e+00
      vertex   7.790946e+00 6.731348e+00 -4.565088e+00
      vertex   7.872794e+00 6.620258e+00 -4.596305e+00
    endloop
  endfacet
  facet normal -6.905022e-01 -6.155067e-01 3.799450e-01
    outer loop
      vertex   7.872794e+00 6.620258e+00 -4.596305e+00
      vertex   7.790946e+00 6.731348e+00 -4.565088e+00
      vertex   7.781227e+00 6.722981e+00 -4.596305e+00
    endloop
  endfacet
  facet normal -6.948367e-01 -6.193546e-01 3.655159e-01
    outer loop
      vertex   7.921252e+00 6.660821e+00 -4.440012e+00
      vertex   7.847760e+00 6.780246e+00 -4.377357e+00
      vertex   7.829108e+00 6.764194e+00 -4.440012e+00
    endloop
  endfacet
  facet normal -6.936778e-01 -6.183216e-01 3.694448e-01
    outer loop
      vertex   7.921252e+00 6.660821e+00 -4.440012e+00
      vertex   7.829108e+00 6.764194e+00 -4.440012e+00
      vertex   7.911705e+00 6.652830e+00 -4.471311e+00
    endloop
  endfacet
  facet normal -6.909351e-01 -6.327396e-01 3.496416e-01
    outer loop
      vertex   7.807608e+00 6.929987e+00 -4.188963e+00
      vertex   7.884204e+00 6.811607e+00 -4.251829e+00
      vertex   7.901997e+00 6.826917e+00 -4.188963e+00
    endloop
  endfacet
  facet normal -6.993557e-01 -6.233637e-01 3.497416e-01
    outer loop
      vertex   7.901997e+00 6.826917e+00 -4.188963e+00
      vertex   7.884204e+00 6.811607e+00 -4.251829e+00
      vertex   7.977012e+00 6.707485e+00 -4.251829e+00
    endloop
  endfacet
  facet normal -6.993615e-01 -6.233625e-01 3.497324e-01
    outer loop
      vertex   7.901997e+00 6.826917e+00 -4.188963e+00
      vertex   7.977012e+00 6.707485e+00 -4.251829e+00
      vertex   7.995020e+00 6.722552e+00 -4.188963e+00
    endloop
  endfacet
  facet normal -6.978795e-01 -6.220479e-01 3.549940e-01
    outer loop
      vertex   7.977012e+00 6.707485e+00 -4.251829e+00
      vertex   7.884204e+00 6.811607e+00 -4.251829e+00
      vertex   7.958715e+00 6.692174e+00 -4.314628e+00
    endloop
  endfacet
  facet normal -6.911139e-01 -5.995768e-01 4.035706e-01
    outer loop
      vertex   7.880738e+00 6.449324e+00 -4.845227e+00
      vertex   7.791498e+00 6.552189e+00 -4.845227e+00
      vertex   7.870125e+00 6.440687e+00 -4.876234e+00
    endloop
  endfacet
  facet normal -6.911083e-01 -5.995759e-01 4.035814e-01
    outer loop
      vertex   7.870125e+00 6.440687e+00 -4.876234e+00
      vertex   7.791498e+00 6.552189e+00 -4.845227e+00
      vertex   7.781010e+00 6.543406e+00 -4.876234e+00
    endloop
  endfacet
  facet normal -6.928441e-01 -6.010700e-01 3.983490e-01
    outer loop
      vertex   7.901746e+00 6.466418e+00 -4.783138e+00
      vertex   7.812256e+00 6.569571e+00 -4.783138e+00
      vertex   7.891279e+00 6.457901e+00 -4.814195e+00
    endloop
  endfacet
  facet normal -6.928385e-01 -6.010691e-01 3.983599e-01
    outer loop
      vertex   7.891279e+00 6.457901e+00 -4.814195e+00
      vertex   7.812256e+00 6.569571e+00 -4.783138e+00
      vertex   7.801913e+00 6.560910e+00 -4.814195e+00
    endloop
  endfacet
  facet normal -6.953928e-01 -6.032692e-01 3.905062e-01
    outer loop
      vertex   7.932708e+00 6.491609e+00 -4.689825e+00
      vertex   7.842850e+00 6.595189e+00 -4.689825e+00
      vertex   7.922460e+00 6.483272e+00 -4.720953e+00
    endloop
  endfacet
  facet normal -6.953873e-01 -6.032684e-01 3.905173e-01
    outer loop
      vertex   7.922460e+00 6.483272e+00 -4.720953e+00
      vertex   7.842850e+00 6.595189e+00 -4.689825e+00
      vertex   7.832724e+00 6.586711e+00 -4.720953e+00
    endloop
  endfacet
  facet normal -6.970609e-01 -6.047084e-01 3.852712e-01
    outer loop
      vertex   7.952984e+00 6.508103e+00 -4.627500e+00
      vertex   7.862885e+00 6.611963e+00 -4.627500e+00
      vertex   7.942883e+00 6.499886e+00 -4.658674e+00
    endloop
  endfacet
  facet normal -6.970554e-01 -6.047076e-01 3.852825e-01
    outer loop
      vertex   7.942883e+00 6.499886e+00 -4.658674e+00
      vertex   7.862885e+00 6.611963e+00 -4.627500e+00
      vertex   7.852904e+00 6.603606e+00 -4.658674e+00
    endloop
  endfacet
  facet normal -6.987041e-01 -6.061260e-01 3.800314e-01
    outer loop
      vertex   7.972967e+00 6.524358e+00 -4.565088e+00
      vertex   7.882630e+00 6.628493e+00 -4.565088e+00
      vertex   7.963012e+00 6.516261e+00 -4.596305e+00
    endloop
  endfacet
  facet normal -6.986986e-01 -6.061252e-01 3.800427e-01
    outer loop
      vertex   7.963012e+00 6.516261e+00 -4.596305e+00
      vertex   7.882630e+00 6.628493e+00 -4.565088e+00
      vertex   7.872794e+00 6.620258e+00 -4.596305e+00
    endloop
  endfacet
  facet normal -6.990978e-01 -5.901810e-01 4.036690e-01
    outer loop
      vertex   7.968595e+00 6.345253e+00 -4.845227e+00
      vertex   7.880738e+00 6.449324e+00 -4.845227e+00
      vertex   7.957857e+00 6.336765e+00 -4.876234e+00
    endloop
  endfacet
  facet normal -6.990905e-01 -5.901799e-01 4.036833e-01
    outer loop
      vertex   7.957857e+00 6.336765e+00 -4.876234e+00
      vertex   7.880738e+00 6.449324e+00 -4.845227e+00
      vertex   7.870125e+00 6.440687e+00 -4.876234e+00
    endloop
  endfacet
  facet normal -7.008500e-01 -5.916499e-01 3.984466e-01
    outer loop
      vertex   7.989850e+00 6.362052e+00 -4.783138e+00
      vertex   7.901746e+00 6.466418e+00 -4.783138e+00
      vertex   7.979259e+00 6.353682e+00 -4.814195e+00
    endloop
  endfacet
  facet normal -7.008427e-01 -5.916488e-01 3.984610e-01
    outer loop
      vertex   7.979259e+00 6.353682e+00 -4.814195e+00
      vertex   7.901746e+00 6.466418e+00 -4.783138e+00
      vertex   7.891279e+00 6.457901e+00 -4.814195e+00
    endloop
  endfacet
  facet normal -7.053802e-01 -5.825902e-01 4.037666e-01
    outer loop
      vertex   8.000000e+00 6.325113e+00 -4.819422e+00
      vertex   7.968595e+00 6.345253e+00 -4.845227e+00
      vertex   7.957857e+00 6.336765e+00 -4.876234e+00
    endloop
  endfacet
  facet normal 6.934105e-01 5.939849e-01 -4.078774e-01
    outer loop
      vertex   8.000000e+00 6.830096e+00 -4.914479e+00
      vertex   8.000000e+00 6.771371e+00 -5.000000e+00
      vertex   7.979932e+00 6.854046e+00 -4.913718e+00
    endloop
  endfacet
  facet normal 6.923216e-01 5.946454e-01 -4.087636e-01
    outer loop
      vertex   7.979932e+00 6.854046e+00 -4.913718e+00
      vertex   8.000000e+00 6.771371e+00 -5.000000e+00
      vertex   7.901195e+00 6.886405e+00 -5.000000e+00
    endloop
  endfacet
  facet normal 6.909848e-01 5.978518e-01 -4.063412e-01
    outer loop
      vertex   7.979932e+00 6.854046e+00 -4.913718e+00
      vertex   7.901195e+00 6.886405e+00 -5.000000e+00
      vertex   7.930128e+00 6.911608e+00 -4.913718e+00
    endloop
  endfacet
  facet normal 6.866419e-01 6.028351e-01 -4.063405e-01
    outer loop
      vertex   7.930128e+00 6.911608e+00 -4.913718e+00
      vertex   7.901195e+00 6.886405e+00 -5.000000e+00
      vertex   7.879931e+00 6.968784e+00 -4.913718e+00
    endloop
  endfacet
  facet normal 6.890064e-01 6.049110e-01 -3.991902e-01
    outer loop
      vertex   7.930128e+00 6.911608e+00 -4.913718e+00
      vertex   7.879931e+00 6.968784e+00 -4.913718e+00
      vertex   7.908132e+00 6.993724e+00 -4.827250e+00
    endloop
  endfacet
  facet normal 6.867843e-01 6.074313e-01 -3.991923e-01
    outer loop
      vertex   7.908132e+00 6.993724e+00 -4.827250e+00
      vertex   7.879931e+00 6.968784e+00 -4.913718e+00
      vertex   7.902187e+00 7.000000e+00 -4.827927e+00
    endloop
  endfacet
  facet normal 6.887568e-01 6.101167e-01 -3.916270e-01
    outer loop
      vertex   7.908132e+00 6.993724e+00 -4.827250e+00
      vertex   7.902187e+00 7.000000e+00 -4.827927e+00
      vertex   7.951550e+00 7.000000e+00 -4.741112e+00
    endloop
  endfacet
  facet normal 6.836457e-01 6.045997e-01 -4.087637e-01
    outer loop
      vertex   7.901195e+00 6.886405e+00 -5.000000e+00
      vertex   7.800735e+00 7.000000e+00 -5.000000e+00
      vertex   7.879931e+00 6.968784e+00 -4.913718e+00
    endloop
  endfacet
  facet normal 6.829144e-01 6.062897e-01 -4.074809e-01
    outer loop
      vertex   7.879931e+00 6.968784e+00 -4.913718e+00
      vertex   7.800735e+00 7.000000e+00 -5.000000e+00
      vertex   7.851914e+00 7.000000e+00 -4.914226e+00
    endloop
  endfacet
  facet normal 6.855180e-01 6.087587e-01 -3.993468e-01
    outer loop
      vertex   7.879931e+00 6.968784e+00 -4.913718e+00
      vertex   7.851914e+00 7.000000e+00 -4.914226e+00
      vertex   7.902187e+00 7.000000e+00 -4.827927e+00
    endloop
  endfacet
  facet normal 6.941723e-01 6.081008e-01 -3.851471e-01
    outer loop
      vertex   8.000000e+00 7.000000e+00 -4.653789e+00
      vertex   7.986358e+00 6.960588e+00 -4.740603e+00
      vertex   7.951550e+00 7.000000e+00 -4.741112e+00
    endloop
  endfacet
  facet normal 6.920408e-01 6.061294e-01 -3.920290e-01
    outer loop
      vertex   7.951550e+00 7.000000e+00 -4.741112e+00
      vertex   7.986358e+00 6.960588e+00 -4.740603e+00
      vertex   7.958516e+00 6.936336e+00 -4.827250e+00
    endloop
  endfacet
  facet normal 6.911455e-01 6.067884e-01 -3.925885e-01
    outer loop
      vertex   7.951550e+00 7.000000e+00 -4.741112e+00
      vertex   7.958516e+00 6.936336e+00 -4.827250e+00
      vertex   7.908132e+00 6.993724e+00 -4.827250e+00
    endloop
  endfacet
  facet normal 6.890068e-01 6.049108e-01 -3.991898e-01
    outer loop
      vertex   7.908132e+00 6.993724e+00 -4.827250e+00
      vertex   7.958516e+00 6.936336e+00 -4.827250e+00
      vertex   7.930128e+00 6.911608e+00 -4.913718e+00
    endloop
  endfacet
  facet normal 6.966395e-01 6.057148e-01 -3.844516e-01
    outer loop
      vertex   8.000000e+00 7.000000e+00 -4.653789e+00
      vertex   8.000000e+00 6.944416e+00 -4.741363e+00
      vertex   7.986358e+00 6.960588e+00 -4.740603e+00
    endloop
  endfacet
  facet normal 6.940201e-01 6.038612e-01 -3.920302e-01
    outer loop
      vertex   7.986358e+00 6.960588e+00 -4.740603e+00
      vertex   8.000000e+00 6.944416e+00 -4.741363e+00
      vertex   7.958516e+00 6.936336e+00 -4.827250e+00
    endloop
  endfacet
  facet normal 6.952406e-01 6.021750e-01 -3.924611e-01
    outer loop
      vertex   8.000000e+00 6.944416e+00 -4.741363e+00
      vertex   8.000000e+00 6.887780e+00 -4.828263e+00
      vertex   7.958516e+00 6.936336e+00 -4.827250e+00
    endloop
  endfacet
  facet normal 6.929651e-01 6.003714e-01 -3.991912e-01
    outer loop
      vertex   7.958516e+00 6.936336e+00 -4.827250e+00
      vertex   8.000000e+00 6.887780e+00 -4.828263e+00
      vertex   7.930128e+00 6.911608e+00 -4.913718e+00
    endloop
  endfacet
  facet normal 6.932382e-01 5.998015e-01 -3.995734e-01
    outer loop
      vertex   7.930128e+00 6.911608e+00 -4.913718e+00
      vertex   8.000000e+00 6.887780e+00 -4.828263e+00
      vertex   7.979932e+00 6.854046e+00 -4.913718e+00
    endloop
  endfacet
  facet normal 6.965565e-01 5.963385e-01 -3.989856e-01
    outer loop
      vertex   7.979932e+00 6.854046e+00 -4.913718e+00
      vertex   8.000000e+00 6.887780e+00 -4.828263e+00
      vertex   8.000000e+00 6.830096e+00 -4.914479e+00
    endloop
  endfacet
  facet normal 1.000000e+00 -0.000000e+00 0.000000e+00
    outer loop
      vertex   8.000000e+00 6.819726e+00 -4.000000e+00
      vertex   8.000000e+00 6.785043e+00 -4.065033e+00
      vertex   8.000000e+00 7.000000e+00 -4.000000e+00
    endloop
  endfacet
  facet normal 1.000000e+00 0.000000e+00 0.000000e+00
    outer loop
      vertex   8.000000e+00 7.000000e+00 -4.000000e+00
      vertex   8.000000e+00 6.785043e+00 -4.065033e+00
      vertex   8.000000e+00 6.749792e+00 -4.129748e+00
    endloop
  endfacet
  facet normal 1.000000e+00 0.000000e+00 0.000000e+00
    outer loop
      vertex   8.000000e+00 7.000000e+00 -4.000000e+00
      vertex   8.000000e+00 6.749792e+00 -4.129748e+00
      vertex   8.000000e+00 7.000000e+00 -4.653789e+00
    endloop
  endfacet
  facet normal 1.000000e+00 0.000000e+00 0.000000e+00
    outer loop
      vertex   8.000000e+00 7.000000e+00 -4.653789e+00
      vertex   8.000000e+00 6.749792e+00 -4.129748e+00
      vertex   8.000000e+00 6.713977e+00 -4.194142e+00
    endloop
  endfacet
  facet normal 1.000000e+00 0.000000e+00 0.000000e+00
    outer loop
      vertex   8.000000e+00 7.000000e+00 -4.653789e+00
      vertex   8.000000e+00 6.713977e+00 -4.194142e+00
      vertex   8.000000e+00 6.677597e+00 -4.258209e+00
    endloop
  endfacet
  facet normal 1.000000e+00 0.000000e+00 0.000000e+00
    outer loop
      vertex   8.000000e+00 6.677597e+00 -4.258209e+00
      vertex   8.000000e+00 6.640656e+00 -4.321945e+00
      vertex   8.000000e+00 7.000000e+00 -4.653789e+00
    endloop
  endfacet
  facet normal 1.000000e+00 0.000000e+00 0.000000e+00
    outer loop
      vertex   8.000000e+00 7.000000e+00 -4.653789e+00
      vertex   8.000000e+00 6.640656e+00 -4.321945e+00
      vertex   8.000000e+00 6.603155e+00 -4.385347e+00
    endloop
  endfacet
  facet normal 1.000000e+00 0.000000e+00 0.000000e+00
    outer loop
      vertex   8.000000e+00 7.000000e+00 -4.653789e+00
      vertex   8.000000e+00 6.603155e+00 -4.385347e+00
      vertex   8.000000e+00 6.944416e+00 -4.741363e+00
    endloop
  endfacet
  facet normal 1.000000e+00 0.000000e+00 0.000000e+00
    outer loop
      vertex   8.000000e+00 6.944416e+00 -4.741363e+00
      vertex   8.000000e+00 6.603155e+00 -4.385347e+00
      vertex   8.000000e+00 6.565096e+00 -4.448410e+00
    endloop
  endfacet
  facet normal 1.000000e+00 0.000000e+00 0.000000e+00
    outer loop
      vertex   8.000000e+00 6.944416e+00 -4.741363e+00
      vertex   8.000000e+00 6.565096e+00 -4.448410e+00
      vertex   8.000000e+00 6.887780e+00 -4.828263e+00
    endloop
  endfacet
  facet normal 1.000000e+00 0.000000e+00 0.000000e+00
    outer loop
      vertex   8.000000e+00 6.887780e+00 -4.828263e+00
      vertex   8.000000e+00 6.565096e+00 -4.448410e+00
      vertex   8.000000e+00 6.526480e+00 -4.511129e+00
    endloop
  endfacet
  facet normal 1.000000e+00 0.000000e+00 0.000000e+00
    outer loop
      vertex   8.000000e+00 6.887780e+00 -4.828263e+00
      vertex   8.000000e+00 6.526480e+00 -4.511129e+00
      vertex   8.000000e+00 6.830096e+00 -4.914479e+00
    endloop
  endfacet
  facet normal 1.000000e+00 0.000000e+00 0.000000e+00
    outer loop
      vertex   8.000000e+00 6.830096e+00 -4.914479e+00
      vertex   8.000000e+00 6.526480e+00 -4.511129e+00
      vertex   8.000000e+00 6.487309e+00 -4.573500e+00
    endloop
  endfacet
  facet normal 1.000000e+00 0.000000e+00 0.000000e+00
    outer loop
      vertex   8.000000e+00 6.830096e+00 -4.914479e+00
      vertex   8.000000e+00 6.487309e+00 -4.573500e+00
      vertex   8.000000e+00 6.447585e+00 -4.635520e+00
    endloop
  endfacet
  facet normal 1.000000e+00 0.000000e+00 0.000000e+00
    outer loop
      vertex   8.000000e+00 6.830096e+00 -4.914479e+00
      vertex   8.000000e+00 6.447585e+00 -4.635520e+00
      vertex   8.000000e+00 6.771371e+00 -5.000000e+00
    endloop
  endfacet
  facet normal 1.000000e+00 0.000000e+00 0.000000e+00
    outer loop
      vertex   8.000000e+00 6.771371e+00 -5.000000e+00
      vertex   8.000000e+00 6.447585e+00 -4.635520e+00
      vertex   8.000000e+00 6.407310e+00 -4.697183e+00
    endloop
  endfacet
  facet normal 1.000000e+00 0.000000e+00 0.000000e+00
    outer loop
      vertex   8.000000e+00 6.771371e+00 -5.000000e+00
      vertex   8.000000e+00 6.407310e+00 -4.697183e+00
      vertex   8.000000e+00 6.366486e+00 -4.758485e+00
    endloop
  endfacet
  facet normal 1.000000e+00 0.000000e+00 0.000000e+00
    outer loop
      vertex   8.000000e+00 6.366486e+00 -4.758485e+00
      vertex   8.000000e+00 6.325113e+00 -4.819422e+00
      vertex   8.000000e+00 6.771371e+00 -5.000000e+00
    endloop
  endfacet
  facet normal 1.000000e+00 0.000000e+00 0.000000e+00
    outer loop
      vertex   8.000000e+00 6.771371e+00 -5.000000e+00
      vertex   8.000000e+00 6.325113e+00 -4.819422e+00
      vertex   8.000000e+00 6.283195e+00 -4.879990e+00
    endloop
  endfacet
  facet normal 1.000000e+00 -9.273784e-15 -3.772374e-14
    outer loop
      vertex   8.000000e+00 6.771371e+00 -5.000000e+00
      vertex   8.000000e+00 6.283195e+00 -4.879990e+00
      vertex   8.000000e+00 6.240733e+00 -4.940184e+00
    endloop
  endfacet
  facet normal 1.000000e+00 0.000000e+00 4.454544e-14
    outer loop
      vertex   8.000000e+00 6.240733e+00 -4.940184e+00
      vertex   8.000000e+00 6.197728e+00 -5.000000e+00
      vertex   8.000000e+00 6.771371e+00 -5.000000e+00
    endloop
  endfacet
  facet normal 0.000000e+00 0.000000e+00 -1.000000e+00
    outer loop
      vertex   8.000000e+00 6.197728e+00 -5.000000e+00
      vertex   7.914167e+00 6.302223e+00 -5.000000e+00
      vertex   8.000000e+00 6.771371e+00 -5.000000e+00
    endloop
  endfacet
  facet normal 0.000000e+00 0.000000e+00 -1.000000e+00
    outer loop
      vertex   8.000000e+00 6.771371e+00 -5.000000e+00
      vertex   7.914167e+00 6.302223e+00 -5.000000e+00
      vertex   7.826942e+00 6.405540e+00 -5.000000e+00
    endloop
  endfacet
  facet normal 0.000000e+00 0.000000e+00 -1.000000e+00
    outer loop
      vertex   8.000000e+00 6.771371e+00 -5.000000e+00
      vertex   7.826942e+00 6.405540e+00 -5.000000e+00
      vertex   7.738339e+00 6.507667e+00 -5.000000e+00
    endloop
  endfacet
  facet normal -0.000000e+00 0.000000e+00 -1.000000e+00
    outer loop
      vertex   8.000000e+00 6.771371e+00 -5.000000e+00
      vertex   7.738339e+00 6.507667e+00 -5.000000e+00
      vertex   7.901195e+00 6.886405e+00 -5.000000e+00
    endloop
  endfacet
  facet normal 0.000000e+00 0.000000e+00 -1.000000e+00
    outer loop
      vertex   7.901195e+00 6.886405e+00 -5.000000e+00
      vertex   7.738339e+00 6.507667e+00 -5.000000e+00
      vertex   7.648371e+00 6.608590e+00 -5.000000e+00
    endloop
  endfacet
  facet normal 0.000000e+00 0.000000e+00 -1.000000e+00
    outer loop
      vertex   7.901195e+00 6.886405e+00 -5.000000e+00
      vertex   7.648371e+00 6.608590e+00 -5.000000e+00
      vertex   7.557052e+00 6.708298e+00 -5.000000e+00
    endloop
  endfacet
  facet normal -0.000000e+00 0.000000e+00 -1.000000e+00
    outer loop
      vertex   7.901195e+00 6.886405e+00 -5.000000e+00
      vertex   7.557052e+00 6.708298e+00 -5.000000e+00
      vertex   7.800735e+00 7.000000e+00 -5.000000e+00
    endloop
  endfacet
  facet normal 0.000000e+00 0.000000e+00 -1.000000e+00
    outer loop
      vertex   7.800735e+00 7.000000e+00 -5.000000e+00
      vertex   7.557052e+00 6.708298e+00 -5.000000e+00
      vertex   7.464393e+00 6.806777e+00 -5.000000e+00
    endloop
  endfacet
  facet normal 0.000000e+00 0.000000e+00 -1.000000e+00
    outer loop
      vertex   7.800735e+00 7.000000e+00 -5.000000e+00
      vertex   7.464393e+00 6.806777e+00 -5.000000e+00
      vertex   7.370410e+00 6.904015e+00 -5.000000e+00
    endloop
  endfacet
  facet normal 0.000000e+00 0.000000e+00 -1.000000e+00
    outer loop
      vertex   7.370410e+00 6.904015e+00 -5.000000e+00
      vertex   7.275116e+00 7.000000e+00 -5.000000e+00
      vertex   7.800735e+00 7.000000e+00 -5.000000e+00
    endloop
  endfacet
  facet normal -0.000000e+00 0.000000e+00 1.000000e+00
    outer loop
      vertex   7.835474e+00 7.000000e+00 -4.000000e+00
      vertex   7.918264e+00 6.910342e+00 -4.000000e+00
      vertex   8.000000e+00 7.000000e+00 -4.000000e+00
    endloop
  endfacet
  facet normal 0.000000e+00 0.000000e+00 1.000000e+00
    outer loop
      vertex   8.000000e+00 7.000000e+00 -4.000000e+00
      vertex   7.918264e+00 6.910342e+00 -4.000000e+00
      vertex   8.000000e+00 6.819726e+00 -4.000000e+00
    endloop
  endfacet
  facet normal 0.000000e+00 1.000000e+00 0.000000e+00
    outer loop
      vertex   7.275116e+00 7.000000e+00 -5.000000e+00
      vertex   7.352019e+00 7.000000e+00 -4.878971e+00
      vertex   7.800735e+00 7.000000e+00 -5.000000e+00
    endloop
  endfacet
  facet normal 0.000000e+00 1.000000e+00 0.000000e+00
    outer loop
      vertex   7.800735e+00 7.000000e+00 -5.000000e+00
      vertex   7.352019e+00 7.000000e+00 -4.878971e+00
      vertex   7.426986e+00 7.000000e+00 -4.756757e+00
    endloop
  endfacet
  facet normal 0.000000e+00 1.000000e+00 0.000000e+00
    outer loop
      vertex   7.800735e+00 7.000000e+00 -5.000000e+00
      vertex   7.426986e+00 7.000000e+00 -4.756757e+00
      vertex   7.500004e+00 7.000000e+00 -4.633382e+00
    endloop
  endfacet
  facet normal 0.000000e+00 1.000000e+00 -0.000000e+00
    outer loop
      vertex   7.800735e+00 7.000000e+00 -5.000000e+00
      vertex   7.500004e+00 7.000000e+00 -4.633382e+00
      vertex   7.851914e+00 7.000000e+00 -4.914226e+00
    endloop
  endfacet
  facet normal 0.000000e+00 1.000000e+00 0.000000e+00
    outer loop
      vertex   7.851914e+00 7.000000e+00 -4.914226e+00
      vertex   7.500004e+00 7.000000e+00 -4.633382e+00
      vertex   7.571062e+00 7.000000e+00 -4.508873e+00
    endloop
  endfacet
  facet normal -8.069530e-15 1.000000e+00 -5.591051e-15
    outer loop
      vertex   7.851914e+00 7.000000e+00 -4.914226e+00
      vertex   7.571062e+00 7.000000e+00 -4.508873e+00
      vertex   7.902187e+00 7.000000e+00 -4.827927e+00
    endloop
  endfacet
  facet normal -6.206172e-15 1.000000e+00 -3.657194e-15
    outer loop
      vertex   7.902187e+00 7.000000e+00 -4.827927e+00
      vertex   7.571062e+00 7.000000e+00 -4.508873e+00
      vertex   7.640149e+00 7.000000e+00 -4.383255e+00
    endloop
  endfacet
  facet normal 0.000000e+00 1.000000e+00 -0.000000e+00
    outer loop
      vertex   7.902187e+00 7.000000e+00 -4.827927e+00
      vertex   7.640149e+00 7.000000e+00 -4.383255e+00
      vertex   7.951550e+00 7.000000e+00 -4.741112e+00
    endloop
  endfacet
  facet normal 7.137571e-15 1.000000e+00 6.210985e-15
    outer loop
      vertex   7.951550e+00 7.000000e+00 -4.741112e+00
      vertex   7.640149e+00 7.000000e+00 -4.383255e+00
      vertex   8.000000e+00 7.000000e+00 -4.653789e+00
    endloop
  endfacet
  facet normal 5.534543e-15 1.000000e+00 4.078717e-15
    outer loop
      vertex   8.000000e+00 7.000000e+00 -4.653789e+00
      vertex   7.640149e+00 7.000000e+00 -4.383255e+00
      vertex   7.707255e+00 7.000000e+00 -4.256553e+00
    endloop
  endfacet
  facet normal 0.000000e+00 1.000000e+00 0.000000e+00
    outer loop
      vertex   8.000000e+00 7.000000e+00 -4.653789e+00
      vertex   7.707255e+00 7.000000e+00 -4.256553e+00
      vertex   7.772367e+00 7.000000e+00 -4.128793e+00
    endloop
  endfacet
  facet normal -0.000000e+00 1.000000e+00 0.000000e+00
    outer loop
      vertex   7.835474e+00 7.000000e+00 -4.000000e+00
      vertex   8.000000e+00 7.000000e+00 -4.000000e+00
      vertex   7.772367e+00 7.000000e+00 -4.128793e+00
    endloop
  endfacet
  facet normal -0.000000e+00 1.000000e+00 0.000000e+00
    outer loop
      vertex   7.772367e+00 7.000000e+00 -4.128793e+00
      vertex   8.000000e+00 7.000000e+00 -4.000000e+00
      vertex   8.000000e+00 7.000000e+00 -4.653789e+00
    endloop
  endfacet
endsolid
