solid ASCII
  facet normal -6.220708e-01 1.868641e-01 -7.603353e-01
    outer loop
      vertex   6.938957e+00 -2.000000e+00 8.949766e+00
      vertex   6.877558e+00 -2.000000e+00 9.000000e+00
      vertex   6.942718e+00 -1.987504e+00 8.949761e+00
    endloop
  endfacet
  facet normal -6.220698e-01 1.862547e-01 -7.604856e-01
    outer loop
      vertex   6.942718e+00 -1.987504e+00 8.949761e+00
      vertex   6.877558e+00 -2.000000e+00 9.000000e+00
      vertex   6.894595e+00 -1.943097e+00 9.000000e+00
    endloop
  endfacet
  facet normal -6.228619e-01 1.850072e-01 -7.601417e-01
    outer loop
      vertex   6.942718e+00 -1.987504e+00 8.949761e+00
      vertex   6.894595e+00 -1.943097e+00 9.000000e+00
      vertex   6.951243e+00 -1.958800e+00 8.949761e+00
    endloop
  endfacet
  facet normal -6.236328e-01 1.822981e-01 -7.601641e-01
    outer loop
      vertex   6.951243e+00 -1.958800e+00 8.949761e+00
      vertex   6.894595e+00 -1.943097e+00 9.000000e+00
      vertex   6.959757e+00 -1.929674e+00 8.949761e+00
    endloop
  endfacet
  facet normal -6.278667e-01 1.835357e-01 -7.563716e-01
    outer loop
      vertex   6.951243e+00 -1.958800e+00 8.949761e+00
      vertex   6.959757e+00 -1.929674e+00 8.949761e+00
      vertex   7.000000e+00 -1.942977e+00 8.913127e+00
    endloop
  endfacet
  facet normal -6.287164e-01 1.808219e-01 -7.563195e-01
    outer loop
      vertex   7.000000e+00 -1.942977e+00 8.913127e+00
      vertex   6.959757e+00 -1.929674e+00 8.949761e+00
      vertex   6.968075e+00 -1.900755e+00 8.949761e+00
    endloop
  endfacet
  facet normal -6.290747e-01 1.803832e-01 -7.561262e-01
    outer loop
      vertex   7.000000e+00 -1.942977e+00 8.913127e+00
      vertex   6.968075e+00 -1.900755e+00 8.949761e+00
      vertex   7.000000e+00 -1.885856e+00 8.926754e+00
    endloop
  endfacet
  facet normal -6.283170e-01 1.763030e-01 -7.577170e-01
    outer loop
      vertex   7.000000e+00 -1.885856e+00 8.926754e+00
      vertex   6.968075e+00 -1.900755e+00 8.949761e+00
      vertex   6.984305e+00 -1.842910e+00 8.949761e+00
    endloop
  endfacet
  facet normal -6.304340e-01 1.747762e-01 -7.563110e-01
    outer loop
      vertex   7.000000e+00 -1.885856e+00 8.926754e+00
      vertex   6.984305e+00 -1.842910e+00 8.949761e+00
      vertex   7.000000e+00 -1.828637e+00 8.939977e+00
    endloop
  endfacet
  facet normal -6.273310e-01 1.686491e-01 -7.602719e-01
    outer loop
      vertex   7.000000e+00 -1.828637e+00 8.939977e+00
      vertex   6.984305e+00 -1.842910e+00 8.949761e+00
      vertex   6.927189e+00 -1.828888e+00 9.000000e+00
    endloop
  endfacet
  facet normal -6.271588e-01 1.702533e-01 -7.600563e-01
    outer loop
      vertex   7.000000e+00 -1.828637e+00 8.939977e+00
      vertex   6.927189e+00 -1.828888e+00 9.000000e+00
      vertex   6.942744e+00 -1.771588e+00 9.000000e+00
    endloop
  endfacet
  facet normal -6.236138e-01 1.808805e-01 -7.605183e-01
    outer loop
      vertex   6.894595e+00 -1.943097e+00 9.000000e+00
      vertex   6.911139e+00 -1.886059e+00 9.000000e+00
      vertex   6.959757e+00 -1.929674e+00 8.949761e+00
    endloop
  endfacet
  facet normal -6.244146e-01 1.795847e-01 -7.601683e-01
    outer loop
      vertex   6.959757e+00 -1.929674e+00 8.949761e+00
      vertex   6.911139e+00 -1.886059e+00 9.000000e+00
      vertex   6.968075e+00 -1.900755e+00 8.949761e+00
    endloop
  endfacet
  facet normal -6.254872e-01 1.755981e-01 -7.602178e-01
    outer loop
      vertex   6.911139e+00 -1.886059e+00 9.000000e+00
      vertex   6.927189e+00 -1.828888e+00 9.000000e+00
      vertex   6.968075e+00 -1.900755e+00 8.949761e+00
    endloop
  endfacet
  facet normal -6.255576e-01 1.755288e-01 -7.601759e-01
    outer loop
      vertex   6.968075e+00 -1.900755e+00 8.949761e+00
      vertex   6.927189e+00 -1.828888e+00 9.000000e+00
      vertex   6.984305e+00 -1.842910e+00 8.949761e+00
    endloop
  endfacet
  facet normal -6.273544e-01 1.699569e-01 -7.599612e-01
    outer loop
      vertex   7.000000e+00 -1.828637e+00 8.939977e+00
      vertex   6.942744e+00 -1.771588e+00 9.000000e+00
      vertex   7.000000e+00 -1.771323e+00 8.952794e+00
    endloop
  endfacet
  facet normal -6.279114e-01 1.646626e-01 -7.606665e-01
    outer loop
      vertex   7.000000e+00 -1.771323e+00 8.952794e+00
      vertex   6.942744e+00 -1.771588e+00 9.000000e+00
      vertex   6.957804e+00 -1.714161e+00 9.000000e+00
    endloop
  endfacet
  facet normal -6.280970e-01 1.644390e-01 -7.605616e-01
    outer loop
      vertex   7.000000e+00 -1.771323e+00 8.952794e+00
      vertex   6.957804e+00 -1.714161e+00 9.000000e+00
      vertex   7.000000e+00 -1.713916e+00 8.965206e+00
    endloop
  endfacet
  facet normal -6.286377e-01 1.590764e-01 -7.612551e-01
    outer loop
      vertex   7.000000e+00 -1.713916e+00 8.965206e+00
      vertex   6.957804e+00 -1.714161e+00 9.000000e+00
      vertex   6.972367e+00 -1.656611e+00 9.000000e+00
    endloop
  endfacet
  facet normal -6.288143e-01 1.589222e-01 -7.611414e-01
    outer loop
      vertex   7.000000e+00 -1.713916e+00 8.965206e+00
      vertex   6.972367e+00 -1.656611e+00 9.000000e+00
      vertex   7.000000e+00 -1.656418e+00 8.977211e+00
    endloop
  endfacet
  facet normal -6.293378e-01 1.534945e-01 -7.618224e-01
    outer loop
      vertex   7.000000e+00 -1.656418e+00 8.977211e+00
      vertex   6.972367e+00 -1.656611e+00 9.000000e+00
      vertex   6.986432e+00 -1.598941e+00 9.000000e+00
    endloop
  endfacet
  facet normal -6.295066e-01 1.534065e-01 -7.617007e-01
    outer loop
      vertex   7.000000e+00 -1.656418e+00 8.977211e+00
      vertex   6.986432e+00 -1.598941e+00 9.000000e+00
      vertex   7.000000e+00 -1.598830e+00 8.988810e+00
    endloop
  endfacet
  facet normal -6.300120e-01 1.479166e-01 -7.623684e-01
    outer loop
      vertex   7.000000e+00 -1.598830e+00 8.988810e+00
      vertex   6.986432e+00 -1.598941e+00 9.000000e+00
      vertex   7.000000e+00 -1.541154e+00 9.000000e+00
    endloop
  endfacet
  facet normal -6.280739e-01 1.859237e-01 -7.556160e-01
    outer loop
      vertex   7.000000e+00 -1.942977e+00 8.913127e+00
      vertex   7.000000e+00 -2.000000e+00 8.899096e+00
      vertex   6.951243e+00 -1.958800e+00 8.949761e+00
    endloop
  endfacet
  facet normal -6.277564e-01 1.864610e-01 -7.557474e-01
    outer loop
      vertex   6.951243e+00 -1.958800e+00 8.949761e+00
      vertex   7.000000e+00 -2.000000e+00 8.899096e+00
      vertex   6.942718e+00 -1.987504e+00 8.949761e+00
    endloop
  endfacet
  facet normal -6.272603e-01 1.884275e-01 -7.556716e-01
    outer loop
      vertex   7.000000e+00 -2.000000e+00 8.899096e+00
      vertex   6.938957e+00 -2.000000e+00 8.949766e+00
      vertex   6.942718e+00 -1.987504e+00 8.949761e+00
    endloop
  endfacet
  facet normal 1.000000e+00 0.000000e+00 0.000000e+00
    outer loop
      vertex   7.000000e+00 -2.000000e+00 8.899096e+00
      vertex   7.000000e+00 -1.942977e+00 8.913127e+00
      vertex   7.000000e+00 -2.000000e+00 9.000000e+00
    endloop
  endfacet
  facet normal 1.000000e+00 0.000000e+00 0.000000e+00
    outer loop
      vertex   7.000000e+00 -2.000000e+00 9.000000e+00
      vertex   7.000000e+00 -1.942977e+00 8.913127e+00
      vertex   7.000000e+00 -1.885856e+00 8.926754e+00
    endloop
  endfacet
  facet normal 1.000000e+00 0.000000e+00 0.000000e+00
    outer loop
      vertex   7.000000e+00 -2.000000e+00 9.000000e+00
      vertex   7.000000e+00 -1.885856e+00 8.926754e+00
      vertex   7.000000e+00 -1.828637e+00 8.939977e+00
    endloop
  endfacet
  facet normal 1.000000e+00 -9.458035e-15 -2.700205e-14
    outer loop
      vertex   7.000000e+00 -1.828637e+00 8.939977e+00
      vertex   7.000000e+00 -1.771323e+00 8.952794e+00
      vertex   7.000000e+00 -2.000000e+00 9.000000e+00
    endloop
  endfacet
  facet normal 1.000000e+00 1.312674e-14 8.240419e-14
    outer loop
      vertex   7.000000e+00 -2.000000e+00 9.000000e+00
      vertex   7.000000e+00 -1.771323e+00 8.952794e+00
      vertex   7.000000e+00 -1.713916e+00 8.965206e+00
    endloop
  endfacet
  facet normal 1.000000e+00 -3.723971e-15 -5.614610e-14
    outer loop
      vertex   7.000000e+00 -2.000000e+00 9.000000e+00
      vertex   7.000000e+00 -1.713916e+00 8.965206e+00
      vertex   7.000000e+00 -1.656418e+00 8.977211e+00
    endloop
  endfacet
  facet normal 1.000000e+00 -7.641761e-15 -1.152144e-13
    outer loop
      vertex   7.000000e+00 -1.656418e+00 8.977211e+00
      vertex   7.000000e+00 -1.598830e+00 8.988810e+00
      vertex   7.000000e+00 -2.000000e+00 9.000000e+00
    endloop
  endfacet
  facet normal 1.000000e+00 -0.000000e+00 1.587397e-13
    outer loop
      vertex   7.000000e+00 -2.000000e+00 9.000000e+00
      vertex   7.000000e+00 -1.598830e+00 8.988810e+00
      vertex   7.000000e+00 -1.541154e+00 9.000000e+00
    endloop
  endfacet
  facet normal 0.000000e+00 0.000000e+00 1.000000e+00
    outer loop
      vertex   7.000000e+00 -1.541154e+00 9.000000e+00
      vertex   6.986432e+00 -1.598941e+00 9.000000e+00
      vertex   7.000000e+00 -2.000000e+00 9.000000e+00
    endloop
  endfacet
  facet normal 0.000000e+00 0.000000e+00 1.000000e+00
    outer loop
      vertex   7.000000e+00 -2.000000e+00 9.000000e+00
      vertex   6.986432e+00 -1.598941e+00 9.000000e+00
      vertex   6.972367e+00 -1.656611e+00 9.000000e+00
    endloop
  endfacet
  facet normal 0.000000e+00 0.000000e+00 1.000000e+00
    outer loop
      vertex   7.000000e+00 -2.000000e+00 9.000000e+00
      vertex   6.972367e+00 -1.656611e+00 9.000000e+00
      vertex   6.957804e+00 -1.714161e+00 9.000000e+00
    endloop
  endfacet
  facet normal 0.000000e+00 0.000000e+00 1.000000e+00
    outer loop
      vertex   6.957804e+00 -1.714161e+00 9.000000e+00
      vertex   6.942744e+00 -1.771588e+00 9.000000e+00
      vertex   7.000000e+00 -2.000000e+00 9.000000e+00
    endloop
  endfacet
  facet normal 0.000000e+00 0.000000e+00 1.000000e+00
    outer loop
      vertex   7.000000e+00 -2.000000e+00 9.000000e+00
      vertex   6.942744e+00 -1.771588e+00 9.000000e+00
      vertex   6.927189e+00 -1.828888e+00 9.000000e+00
    endloop
  endfacet
  facet normal 0.000000e+00 0.000000e+00 1.000000e+00
    outer loop
      vertex   7.000000e+00 -2.000000e+00 9.000000e+00
      vertex   6.927189e+00 -1.828888e+00 9.000000e+00
      vertex   6.911139e+00 -1.886059e+00 9.000000e+00
    endloop
  endfacet
  facet normal 0.000000e+00 0.000000e+00 1.000000e+00
    outer loop
      vertex   6.911139e+00 -1.886059e+00 9.000000e+00
      vertex   6.894595e+00 -1.943097e+00 9.000000e+00
      vertex   7.000000e+00 -2.000000e+00 9.000000e+00
    endloop
  endfacet
  facet normal 0.000000e+00 0.000000e+00 1.000000e+00
    outer loop
      vertex   7.000000e+00 -2.000000e+00 9.000000e+00
      vertex   6.894595e+00 -1.943097e+00 9.000000e+00
      vertex   6.877558e+00 -2.000000e+00 9.000000e+00
    endloop
  endfacet
  facet normal 0.000000e+00 -1.000000e+00 0.000000e+00
    outer loop
      vertex   6.877558e+00 -2.000000e+00 9.000000e+00
      vertex   6.938957e+00 -2.000000e+00 8.949766e+00
      vertex   7.000000e+00 -2.000000e+00 9.000000e+00
    endloop
  endfacet
  facet normal 0.000000e+00 -1.000000e+00 -0.000000e+00
    outer loop
      vertex   7.000000e+00 -2.000000e+00 9.000000e+00
      vertex   6.938957e+00 -2.000000e+00 8.949766e+00
      vertex   7.000000e+00 -2.000000e+00 8.899096e+00
    endloop
  endfacet
endsolid
