solid ASCII
  facet normal 8.742636e-02 7.911753e-01 -6.053084e-01
    outer loop
      vertex   1.000000e+00 9.073142e+00 -7.291212e+00
      vertex   1.000000e+00 9.000000e+00 -7.386813e+00
      vertex   9.398030e-01 9.038481e+00 -7.345210e+00
    endloop
  endfacet
  facet normal 8.459286e-02 7.895154e-01 -6.078729e-01
    outer loop
      vertex   9.398030e-01 9.038481e+00 -7.345210e+00
      vertex   1.000000e+00 9.000000e+00 -7.386813e+00
      vertex   9.379027e-01 9.000000e+00 -7.395454e+00
    endloop
  endfacet
  facet normal 7.933068e-02 7.899553e-01 -6.080109e-01
    outer loop
      vertex   9.398030e-01 9.038481e+00 -7.345210e+00
      vertex   9.379027e-01 9.000000e+00 -7.395454e+00
      vertex   8.762040e-01 9.044868e+00 -7.345210e+00
    endloop
  endfacet
  facet normal 7.911828e-02 7.898490e-01 -6.081767e-01
    outer loop
      vertex   8.762040e-01 9.044868e+00 -7.345210e+00
      vertex   9.379027e-01 9.000000e+00 -7.395454e+00
      vertex   8.757297e-01 9.000000e+00 -7.403543e+00
    endloop
  endfacet
  facet normal 7.837478e-02 7.898984e-01 -6.082087e-01
    outer loop
      vertex   8.762040e-01 9.044868e+00 -7.345210e+00
      vertex   8.757297e-01 9.000000e+00 -7.403543e+00
      vertex   8.720164e-01 9.001640e+00 -7.401891e+00
    endloop
  endfacet
  facet normal 7.427430e-02 7.860840e-01 -6.136410e-01
    outer loop
      vertex   8.720164e-01 9.001640e+00 -7.401891e+00
      vertex   8.757297e-01 9.000000e+00 -7.403543e+00
      vertex   8.134843e-01 9.000000e+00 -7.411077e+00
    endloop
  endfacet
  facet normal 7.363293e-02 7.889254e-01 -6.100613e-01
    outer loop
      vertex   8.720164e-01 9.001640e+00 -7.401891e+00
      vertex   8.134843e-01 9.000000e+00 -7.411077e+00
      vertex   8.088377e-01 9.007537e+00 -7.401891e+00
    endloop
  endfacet
  facet normal 6.853170e-02 7.879842e-01 -6.118696e-01
    outer loop
      vertex   8.088377e-01 9.007537e+00 -7.401891e+00
      vertex   8.134843e-01 9.000000e+00 -7.411077e+00
      vertex   7.511701e-01 9.000000e+00 -7.418056e+00
    endloop
  endfacet
  facet normal 6.806348e-02 7.889651e-01 -6.106565e-01
    outer loop
      vertex   8.088377e-01 9.007537e+00 -7.401891e+00
      vertex   7.511701e-01 9.000000e+00 -7.418056e+00
      vertex   7.457796e-01 9.012977e+00 -7.401891e+00
    endloop
  endfacet
  facet normal 6.301646e-02 7.884195e-01 -6.119016e-01
    outer loop
      vertex   7.457796e-01 9.012977e+00 -7.401891e+00
      vertex   7.511701e-01 9.000000e+00 -7.418056e+00
      vertex   6.887904e-01 9.000000e+00 -7.424480e+00
    endloop
  endfacet
  facet normal 6.252306e-02 7.891144e-01 -6.110560e-01
    outer loop
      vertex   7.457796e-01 9.012977e+00 -7.401891e+00
      vertex   6.887904e-01 9.000000e+00 -7.424480e+00
      vertex   6.828466e-01 9.017963e+00 -7.401891e+00
    endloop
  endfacet
  facet normal 5.752096e-02 7.887186e-01 -6.120574e-01
    outer loop
      vertex   6.828466e-01 9.017963e+00 -7.401891e+00
      vertex   6.887904e-01 9.000000e+00 -7.424480e+00
      vertex   6.263489e-01 9.000000e+00 -7.430349e+00
    endloop
  endfacet
  facet normal 5.700213e-02 7.892801e-01 -6.113818e-01
    outer loop
      vertex   6.828466e-01 9.017963e+00 -7.401891e+00
      vertex   6.263489e-01 9.000000e+00 -7.430349e+00
      vertex   6.200428e-01 9.022499e+00 -7.401891e+00
    endloop
  endfacet
  facet normal 5.203209e-02 7.889636e-01 -6.122329e-01
    outer loop
      vertex   6.200428e-01 9.022499e+00 -7.401891e+00
      vertex   6.263489e-01 9.000000e+00 -7.430349e+00
      vertex   5.638489e-01 9.000000e+00 -7.435660e+00
    endloop
  endfacet
  facet normal 5.149843e-02 7.894407e-01 -6.116627e-01
    outer loop
      vertex   6.200428e-01 9.022499e+00 -7.401891e+00
      vertex   5.638489e-01 9.000000e+00 -7.435660e+00
      vertex   5.573725e-01 9.026587e+00 -7.401891e+00
    endloop
  endfacet
  facet normal 4.654645e-02 7.891744e-01 -6.124028e-01
    outer loop
      vertex   5.573725e-01 9.026587e+00 -7.401891e+00
      vertex   5.638489e-01 9.000000e+00 -7.435660e+00
      vertex   5.012940e-01 9.000000e+00 -7.440415e+00
    endloop
  endfacet
  facet normal 4.601113e-02 7.895885e-01 -6.119093e-01
    outer loop
      vertex   5.573725e-01 9.026587e+00 -7.401891e+00
      vertex   5.012940e-01 9.000000e+00 -7.440415e+00
      vertex   4.948396e-01 9.030231e+00 -7.401891e+00
    endloop
  endfacet
  facet normal 4.106292e-02 7.893584e-01 -6.125578e-01
    outer loop
      vertex   4.948396e-01 9.030231e+00 -7.401891e+00
      vertex   5.012940e-01 9.000000e+00 -7.440415e+00
      vertex   4.386941e-01 9.000000e+00 -7.444611e+00
    endloop
  endfacet
  facet normal 4.053984e-02 7.897201e-01 -6.121263e-01
    outer loop
      vertex   4.948396e-01 9.030231e+00 -7.401891e+00
      vertex   4.386941e-01 9.000000e+00 -7.444611e+00
      vertex   4.324484e-01 9.033434e+00 -7.401891e+00
    endloop
  endfacet
  facet normal 3.558170e-02 7.895190e-01 -6.126938e-01
    outer loop
      vertex   4.324484e-01 9.033434e+00 -7.401891e+00
      vertex   4.386941e-01 9.000000e+00 -7.444611e+00
      vertex   3.760689e-01 9.000000e+00 -7.448248e+00
    endloop
  endfacet
  facet normal 3.508435e-02 7.898341e-01 -6.123162e-01
    outer loop
      vertex   4.324484e-01 9.033434e+00 -7.401891e+00
      vertex   3.760689e-01 9.000000e+00 -7.448248e+00
      vertex   3.702027e-01 9.036199e+00 -7.401891e+00
    endloop
  endfacet
  facet normal 3.010302e-02 7.896577e-01 -6.128088e-01
    outer loop
      vertex   3.702027e-01 9.036199e+00 -7.401891e+00
      vertex   3.760689e-01 9.000000e+00 -7.448248e+00
      vertex   3.134227e-01 9.000000e+00 -7.451325e+00
    endloop
  endfacet
  facet normal 2.964450e-02 7.899293e-01 -6.124810e-01
    outer loop
      vertex   3.702027e-01 9.036199e+00 -7.401891e+00
      vertex   3.134227e-01 9.000000e+00 -7.451325e+00
      vertex   3.081065e-01 9.038529e+00 -7.401891e+00
    endloop
  endfacet
  facet normal 2.462648e-02 7.897758e-01 -6.129010e-01
    outer loop
      vertex   3.081065e-01 9.038529e+00 -7.401891e+00
      vertex   3.134227e-01 9.000000e+00 -7.451325e+00
      vertex   2.507590e-01 9.000000e+00 -7.453843e+00
    endloop
  endfacet
  facet normal 2.422020e-02 7.900046e-01 -6.126223e-01
    outer loop
      vertex   3.081065e-01 9.038529e+00 -7.401891e+00
      vertex   2.507590e-01 9.000000e+00 -7.453843e+00
      vertex   2.461636e-01 9.040428e+00 -7.401891e+00
    endloop
  endfacet
  facet normal 1.915173e-02 7.898745e-01 -6.129693e-01
    outer loop
      vertex   2.461636e-01 9.040428e+00 -7.401891e+00
      vertex   2.507590e-01 9.000000e+00 -7.453843e+00
      vertex   1.880814e-01 9.000000e+00 -7.455802e+00
    endloop
  endfacet
  facet normal 1.881137e-02 7.900596e-01 -6.127414e-01
    outer loop
      vertex   2.461636e-01 9.040428e+00 -7.401891e+00
      vertex   1.880814e-01 9.000000e+00 -7.455802e+00
      vertex   1.843778e-01 9.041899e+00 -7.401891e+00
    endloop
  endfacet
  facet normal 1.367844e-02 7.899547e-01 -6.130126e-01
    outer loop
      vertex   1.843778e-01 9.041899e+00 -7.401891e+00
      vertex   1.880814e-01 9.000000e+00 -7.455802e+00
      vertex   1.253933e-01 9.000000e+00 -7.457200e+00
    endloop
  endfacet
  facet normal 1.341797e-02 7.900933e-01 -6.128397e-01
    outer loop
      vertex   1.843778e-01 9.041899e+00 -7.401891e+00
      vertex   1.253933e-01 9.000000e+00 -7.457200e+00
      vertex   1.227529e-01 9.042946e+00 -7.401891e+00
    endloop
  endfacet
  facet normal 8.206358e-03 7.900173e-01 -6.130296e-01
    outer loop
      vertex   1.227529e-01 9.042946e+00 -7.401891e+00
      vertex   1.253933e-01 9.000000e+00 -7.457200e+00
      vertex   6.269832e-02 9.000000e+00 -7.458040e+00
    endloop
  endfacet
  facet normal 8.039973e-03 7.901051e-01 -6.129187e-01
    outer loop
      vertex   1.227529e-01 9.042946e+00 -7.401891e+00
      vertex   6.269832e-02 9.000000e+00 -7.458040e+00
      vertex   6.129241e-02 9.043571e+00 -7.401891e+00
    endloop
  endfacet
  facet normal 2.735250e-03 7.900633e-01 -6.130191e-01
    outer loop
      vertex   6.129241e-02 9.043571e+00 -7.401891e+00
      vertex   6.269832e-02 9.000000e+00 -7.458040e+00
      vertex   0.000000e+00 9.000000e+00 -7.458319e+00
    endloop
  endfacet
  facet normal 2.680015e-03 7.900926e-01 -6.129817e-01
    outer loop
      vertex   6.129241e-02 9.043571e+00 -7.401891e+00
      vertex   0.000000e+00 9.000000e+00 -7.458319e+00
      vertex   0.000000e+00 9.043746e+00 -7.401934e+00
    endloop
  endfacet
  facet normal 2.687211e-03 7.937696e-01 -6.082126e-01
    outer loop
      vertex   0.000000e+00 9.043746e+00 -7.401934e+00
      vertex   0.000000e+00 9.087151e+00 -7.345286e+00
      vertex   6.129241e-02 9.043571e+00 -7.401891e+00
    endloop
  endfacet
  facet normal 2.694536e-03 7.937735e-01 -6.082076e-01
    outer loop
      vertex   6.129241e-02 9.043571e+00 -7.401891e+00
      vertex   0.000000e+00 9.087151e+00 -7.345286e+00
      vertex   6.158675e-02 9.087001e+00 -7.345210e+00
    endloop
  endfacet
  facet normal 8.076930e-03 7.937369e-01 -6.082075e-01
    outer loop
      vertex   6.129241e-02 9.043571e+00 -7.401891e+00
      vertex   6.158675e-02 9.087001e+00 -7.345210e+00
      vertex   1.227529e-01 9.042946e+00 -7.401891e+00
    endloop
  endfacet
  facet normal 8.076930e-03 7.937369e-01 -6.082075e-01
    outer loop
      vertex   1.227529e-01 9.042946e+00 -7.401891e+00
      vertex   6.158675e-02 9.087001e+00 -7.345210e+00
      vertex   1.233424e-01 9.086372e+00 -7.345210e+00
    endloop
  endfacet
  facet normal 1.347860e-02 7.936636e-01 -6.082075e-01
    outer loop
      vertex   1.227529e-01 9.042946e+00 -7.401891e+00
      vertex   1.233424e-01 9.086372e+00 -7.345210e+00
      vertex   1.843778e-01 9.041899e+00 -7.401891e+00
    endloop
  endfacet
  facet normal 1.347860e-02 7.936636e-01 -6.082075e-01
    outer loop
      vertex   1.843778e-01 9.041899e+00 -7.401891e+00
      vertex   1.233424e-01 9.086372e+00 -7.345210e+00
      vertex   1.852632e-01 9.085321e+00 -7.345210e+00
    endloop
  endfacet
  facet normal 1.889455e-02 7.935532e-01 -6.082075e-01
    outer loop
      vertex   1.843778e-01 9.041899e+00 -7.401891e+00
      vertex   1.852632e-01 9.085321e+00 -7.345210e+00
      vertex   2.461636e-01 9.040428e+00 -7.401891e+00
    endloop
  endfacet
  facet normal 1.889455e-02 7.935532e-01 -6.082075e-01
    outer loop
      vertex   2.461636e-01 9.040428e+00 -7.401891e+00
      vertex   1.852632e-01 9.085321e+00 -7.345210e+00
      vertex   2.473457e-01 9.083842e+00 -7.345210e+00
    endloop
  endfacet
  facet normal 2.432446e-02 7.934053e-01 -6.082075e-01
    outer loop
      vertex   2.461636e-01 9.040428e+00 -7.401891e+00
      vertex   2.473457e-01 9.083842e+00 -7.345210e+00
      vertex   3.081065e-01 9.038529e+00 -7.401891e+00
    endloop
  endfacet
  facet normal 2.432446e-02 7.934053e-01 -6.082075e-01
    outer loop
      vertex   3.081065e-01 9.038529e+00 -7.401891e+00
      vertex   2.473457e-01 9.083842e+00 -7.345210e+00
      vertex   3.095861e-01 9.081934e+00 -7.345210e+00
    endloop
  endfacet
  facet normal 2.976798e-02 7.932197e-01 -6.082075e-01
    outer loop
      vertex   3.081065e-01 9.038529e+00 -7.401891e+00
      vertex   3.095861e-01 9.081934e+00 -7.345210e+00
      vertex   3.702027e-01 9.036199e+00 -7.401891e+00
    endloop
  endfacet
  facet normal 2.976798e-02 7.932197e-01 -6.082075e-01
    outer loop
      vertex   3.702027e-01 9.036199e+00 -7.401891e+00
      vertex   3.095861e-01 9.081934e+00 -7.345210e+00
      vertex   3.719805e-01 9.079593e+00 -7.345210e+00
    endloop
  endfacet
  facet normal 3.522480e-02 7.929961e-01 -6.082075e-01
    outer loop
      vertex   3.702027e-01 9.036199e+00 -7.401891e+00
      vertex   3.719805e-01 9.079593e+00 -7.345210e+00
      vertex   4.324484e-01 9.033434e+00 -7.401891e+00
    endloop
  endfacet
  facet normal 3.522480e-02 7.929961e-01 -6.082075e-01
    outer loop
      vertex   4.324484e-01 9.033434e+00 -7.401891e+00
      vertex   3.719805e-01 9.079593e+00 -7.345210e+00
      vertex   4.345251e-01 9.076814e+00 -7.345210e+00
    endloop
  endfacet
  facet normal 4.069457e-02 7.927343e-01 -6.082075e-01
    outer loop
      vertex   4.324484e-01 9.033434e+00 -7.401891e+00
      vertex   4.345251e-01 9.076814e+00 -7.345210e+00
      vertex   4.948396e-01 9.030231e+00 -7.401891e+00
    endloop
  endfacet
  facet normal 4.069457e-02 7.927343e-01 -6.082075e-01
    outer loop
      vertex   4.948396e-01 9.030231e+00 -7.401891e+00
      vertex   4.345251e-01 9.076814e+00 -7.345210e+00
      vertex   4.972160e-01 9.073596e+00 -7.345210e+00
    endloop
  endfacet
  facet normal 4.617693e-02 7.924338e-01 -6.082075e-01
    outer loop
      vertex   4.948396e-01 9.030231e+00 -7.401891e+00
      vertex   4.972160e-01 9.073596e+00 -7.345210e+00
      vertex   5.573725e-01 9.026587e+00 -7.401891e+00
    endloop
  endfacet
  facet normal 4.617693e-02 7.924338e-01 -6.082075e-01
    outer loop
      vertex   5.573725e-01 9.026587e+00 -7.401891e+00
      vertex   4.972160e-01 9.073596e+00 -7.345210e+00
      vertex   5.600491e-01 9.069935e+00 -7.345210e+00
    endloop
  endfacet
  facet normal 5.167155e-02 7.920945e-01 -6.082074e-01
    outer loop
      vertex   5.573725e-01 9.026587e+00 -7.401891e+00
      vertex   5.600491e-01 9.069935e+00 -7.345210e+00
      vertex   6.200428e-01 9.022499e+00 -7.401891e+00
    endloop
  endfacet
  facet normal 5.167155e-02 7.920945e-01 -6.082074e-01
    outer loop
      vertex   6.200428e-01 9.022499e+00 -7.401891e+00
      vertex   5.600491e-01 9.069935e+00 -7.345210e+00
      vertex   6.230204e-01 9.065827e+00 -7.345210e+00
    endloop
  endfacet
  facet normal 5.717806e-02 7.917161e-01 -6.082074e-01
    outer loop
      vertex   6.200428e-01 9.022499e+00 -7.401891e+00
      vertex   6.230204e-01 9.065827e+00 -7.345210e+00
      vertex   6.828466e-01 9.017963e+00 -7.401891e+00
    endloop
  endfacet
  facet normal 5.717806e-02 7.917161e-01 -6.082074e-01
    outer loop
      vertex   6.828466e-01 9.017963e+00 -7.401891e+00
      vertex   6.230204e-01 9.065827e+00 -7.345210e+00
      vertex   6.861258e-01 9.061269e+00 -7.345210e+00
    endloop
  endfacet
  facet normal 6.269609e-02 7.912983e-01 -6.082074e-01
    outer loop
      vertex   6.828466e-01 9.017963e+00 -7.401891e+00
      vertex   6.861258e-01 9.061269e+00 -7.345210e+00
      vertex   7.457796e-01 9.012977e+00 -7.401891e+00
    endloop
  endfacet
  facet normal 6.269609e-02 7.912983e-01 -6.082074e-01
    outer loop
      vertex   7.457796e-01 9.012977e+00 -7.401891e+00
      vertex   6.861258e-01 9.061269e+00 -7.345210e+00
      vertex   7.493611e-01 9.056259e+00 -7.345210e+00
    endloop
  endfacet
  facet normal 6.822529e-02 7.908407e-01 -6.082074e-01
    outer loop
      vertex   7.457796e-01 9.012977e+00 -7.401891e+00
      vertex   7.493611e-01 9.056259e+00 -7.345210e+00
      vertex   8.088377e-01 9.007537e+00 -7.401891e+00
    endloop
  endfacet
  facet normal 6.822529e-02 7.908407e-01 -6.082074e-01
    outer loop
      vertex   8.088377e-01 9.007537e+00 -7.401891e+00
      vertex   7.493611e-01 9.056259e+00 -7.345210e+00
      vertex   8.127219e-01 9.050793e+00 -7.345210e+00
    endloop
  endfacet
  facet normal 7.376526e-02 7.903432e-01 -6.082074e-01
    outer loop
      vertex   8.088377e-01 9.007537e+00 -7.401891e+00
      vertex   8.127219e-01 9.050793e+00 -7.345210e+00
      vertex   8.720164e-01 9.001640e+00 -7.401891e+00
    endloop
  endfacet
  facet normal 7.376526e-02 7.903432e-01 -6.082074e-01
    outer loop
      vertex   8.720164e-01 9.001640e+00 -7.401891e+00
      vertex   8.127219e-01 9.050793e+00 -7.345210e+00
      vertex   8.762040e-01 9.044868e+00 -7.345210e+00
    endloop
  endfacet
  facet normal 2.697527e-03 7.974160e-01 -6.034239e-01
    outer loop
      vertex   0.000000e+00 9.087151e+00 -7.345286e+00
      vertex   0.000000e+00 9.130215e+00 -7.288379e+00
      vertex   6.158675e-02 9.087001e+00 -7.345210e+00
    endloop
  endfacet
  facet normal 2.708273e-03 7.974216e-01 -6.034165e-01
    outer loop
      vertex   6.158675e-02 9.087001e+00 -7.345210e+00
      vertex   0.000000e+00 9.130215e+00 -7.288379e+00
      vertex   6.187871e-02 9.130080e+00 -7.288279e+00
    endloop
  endfacet
  facet normal 8.114052e-03 7.973849e-01 -6.034165e-01
    outer loop
      vertex   6.158675e-02 9.087001e+00 -7.345210e+00
      vertex   6.187871e-02 9.130080e+00 -7.288279e+00
      vertex   1.233424e-01 9.086372e+00 -7.345210e+00
    endloop
  endfacet
  facet normal 8.114052e-03 7.973849e-01 -6.034165e-01
    outer loop
      vertex   1.233424e-01 9.086372e+00 -7.345210e+00
      vertex   6.187871e-02 9.130080e+00 -7.288279e+00
      vertex   1.239271e-01 9.129448e+00 -7.288279e+00
    endloop
  endfacet
  facet normal 1.354055e-02 7.973112e-01 -6.034165e-01
    outer loop
      vertex   1.233424e-01 9.086372e+00 -7.345210e+00
      vertex   1.239271e-01 9.129448e+00 -7.288279e+00
      vertex   1.852632e-01 9.085321e+00 -7.345210e+00
    endloop
  endfacet
  facet normal 1.354055e-02 7.973112e-01 -6.034165e-01
    outer loop
      vertex   1.852632e-01 9.085321e+00 -7.345210e+00
      vertex   1.239271e-01 9.129448e+00 -7.288279e+00
      vertex   1.861415e-01 9.128392e+00 -7.288279e+00
    endloop
  endfacet
  facet normal 1.898139e-02 7.972003e-01 -6.034165e-01
    outer loop
      vertex   1.852632e-01 9.085321e+00 -7.345210e+00
      vertex   1.861415e-01 9.128392e+00 -7.288279e+00
      vertex   2.473457e-01 9.083842e+00 -7.345210e+00
    endloop
  endfacet
  facet normal 1.898139e-02 7.972003e-01 -6.034165e-01
    outer loop
      vertex   2.473457e-01 9.083842e+00 -7.345210e+00
      vertex   1.861415e-01 9.128392e+00 -7.288279e+00
      vertex   2.485183e-01 9.126907e+00 -7.288279e+00
    endloop
  endfacet
  facet normal 2.443625e-02 7.970517e-01 -6.034164e-01
    outer loop
      vertex   2.473457e-01 9.083842e+00 -7.345210e+00
      vertex   2.485183e-01 9.126907e+00 -7.288279e+00
      vertex   3.095861e-01 9.081934e+00 -7.345210e+00
    endloop
  endfacet
  facet normal 2.443625e-02 7.970517e-01 -6.034164e-01
    outer loop
      vertex   3.095861e-01 9.081934e+00 -7.345210e+00
      vertex   2.485183e-01 9.126907e+00 -7.288279e+00
      vertex   3.110538e-01 9.124989e+00 -7.288279e+00
    endloop
  endfacet
  facet normal 2.990480e-02 7.968653e-01 -6.034164e-01
    outer loop
      vertex   3.095861e-01 9.081934e+00 -7.345210e+00
      vertex   3.110538e-01 9.124989e+00 -7.288279e+00
      vertex   3.719805e-01 9.079593e+00 -7.345210e+00
    endloop
  endfacet
  facet normal 2.990480e-02 7.968653e-01 -6.034164e-01
    outer loop
      vertex   3.719805e-01 9.079593e+00 -7.345210e+00
      vertex   3.110538e-01 9.124989e+00 -7.288279e+00
      vertex   3.737440e-01 9.122637e+00 -7.288279e+00
    endloop
  endfacet
  facet normal 3.538669e-02 7.966407e-01 -6.034164e-01
    outer loop
      vertex   3.719805e-01 9.079593e+00 -7.345210e+00
      vertex   3.737440e-01 9.122637e+00 -7.288279e+00
      vertex   4.345251e-01 9.076814e+00 -7.345210e+00
    endloop
  endfacet
  facet normal 3.538669e-02 7.966407e-01 -6.034164e-01
    outer loop
      vertex   4.345251e-01 9.076814e+00 -7.345210e+00
      vertex   3.737440e-01 9.122637e+00 -7.288279e+00
      vertex   4.365851e-01 9.119845e+00 -7.288279e+00
    endloop
  endfacet
  facet normal 4.088160e-02 7.963776e-01 -6.034164e-01
    outer loop
      vertex   4.345251e-01 9.076814e+00 -7.345210e+00
      vertex   4.365851e-01 9.119845e+00 -7.288279e+00
      vertex   4.972160e-01 9.073596e+00 -7.345210e+00
    endloop
  endfacet
  facet normal 4.088160e-02 7.963776e-01 -6.034164e-01
    outer loop
      vertex   4.972160e-01 9.073596e+00 -7.345210e+00
      vertex   4.365851e-01 9.119845e+00 -7.288279e+00
      vertex   4.995732e-01 9.116612e+00 -7.288279e+00
    endloop
  endfacet
  facet normal 4.638916e-02 7.960758e-01 -6.034164e-01
    outer loop
      vertex   4.972160e-01 9.073596e+00 -7.345210e+00
      vertex   4.995732e-01 9.116612e+00 -7.288279e+00
      vertex   5.600491e-01 9.069935e+00 -7.345210e+00
    endloop
  endfacet
  facet normal 4.638916e-02 7.960758e-01 -6.034164e-01
    outer loop
      vertex   5.600491e-01 9.069935e+00 -7.345210e+00
      vertex   4.995732e-01 9.116612e+00 -7.288279e+00
      vertex   5.627042e-01 9.112933e+00 -7.288279e+00
    endloop
  endfacet
  facet normal 5.190903e-02 7.957350e-01 -6.034164e-01
    outer loop
      vertex   5.600491e-01 9.069935e+00 -7.345210e+00
      vertex   5.627042e-01 9.112933e+00 -7.288279e+00
      vertex   6.230204e-01 9.065827e+00 -7.345210e+00
    endloop
  endfacet
  facet normal 5.190903e-02 7.957350e-01 -6.034164e-01
    outer loop
      vertex   6.230204e-01 9.065827e+00 -7.345210e+00
      vertex   5.627042e-01 9.112933e+00 -7.288279e+00
      vertex   6.259740e-01 9.108806e+00 -7.288279e+00
    endloop
  endfacet
  facet normal 5.744084e-02 7.953548e-01 -6.034164e-01
    outer loop
      vertex   6.230204e-01 9.065827e+00 -7.345210e+00
      vertex   6.259740e-01 9.108806e+00 -7.288279e+00
      vertex   6.861258e-01 9.061269e+00 -7.345210e+00
    endloop
  endfacet
  facet normal 5.744084e-02 7.953548e-01 -6.034164e-01
    outer loop
      vertex   6.861258e-01 9.061269e+00 -7.345210e+00
      vertex   6.259740e-01 9.108806e+00 -7.288279e+00
      vertex   6.893786e-01 9.104227e+00 -7.288279e+00
    endloop
  endfacet
  facet normal 6.298424e-02 7.949350e-01 -6.034164e-01
    outer loop
      vertex   6.861258e-01 9.061269e+00 -7.345210e+00
      vertex   6.893786e-01 9.104227e+00 -7.288279e+00
      vertex   7.493611e-01 9.056259e+00 -7.345210e+00
    endloop
  endfacet
  facet normal 6.298424e-02 7.949350e-01 -6.034164e-01
    outer loop
      vertex   7.493611e-01 9.056259e+00 -7.345210e+00
      vertex   6.893786e-01 9.104227e+00 -7.288279e+00
      vertex   7.529136e-01 9.099193e+00 -7.288279e+00
    endloop
  endfacet
  facet normal 6.853885e-02 7.944754e-01 -6.034164e-01
    outer loop
      vertex   7.493611e-01 9.056259e+00 -7.345210e+00
      vertex   7.529136e-01 9.099193e+00 -7.288279e+00
      vertex   8.127219e-01 9.050793e+00 -7.345210e+00
    endloop
  endfacet
  facet normal 6.853885e-02 7.944754e-01 -6.034164e-01
    outer loop
      vertex   8.127219e-01 9.050793e+00 -7.345210e+00
      vertex   7.529136e-01 9.099193e+00 -7.288279e+00
      vertex   8.165748e-01 9.093701e+00 -7.288279e+00
    endloop
  endfacet
  facet normal 7.410428e-02 7.939756e-01 -6.034163e-01
    outer loop
      vertex   8.127219e-01 9.050793e+00 -7.345210e+00
      vertex   8.165748e-01 9.093701e+00 -7.288279e+00
      vertex   8.762040e-01 9.044868e+00 -7.345210e+00
    endloop
  endfacet
  facet normal 7.410428e-02 7.939756e-01 -6.034163e-01
    outer loop
      vertex   8.762040e-01 9.044868e+00 -7.345210e+00
      vertex   8.165748e-01 9.093701e+00 -7.288279e+00
      vertex   8.803579e-01 9.087748e+00 -7.288279e+00
    endloop
  endfacet
  facet normal 7.968017e-02 7.934354e-01 -6.034163e-01
    outer loop
      vertex   8.762040e-01 9.044868e+00 -7.345210e+00
      vertex   8.803579e-01 9.087748e+00 -7.288279e+00
      vertex   9.398030e-01 9.038481e+00 -7.345210e+00
    endloop
  endfacet
  facet normal 7.968017e-02 7.934354e-01 -6.034163e-01
    outer loop
      vertex   9.398030e-01 9.038481e+00 -7.345210e+00
      vertex   8.803579e-01 9.087748e+00 -7.288279e+00
      vertex   9.442584e-01 9.081330e+00 -7.288279e+00
    endloop
  endfacet
  facet normal 8.473019e-02 7.929114e-01 -6.034171e-01
    outer loop
      vertex   9.398030e-01 9.038481e+00 -7.345210e+00
      vertex   9.442584e-01 9.081330e+00 -7.288279e+00
      vertex   1.000000e+00 9.073142e+00 -7.291212e+00
    endloop
  endfacet
  facet normal 8.550542e-02 7.964662e-01 -5.986071e-01
    outer loop
      vertex   1.000000e+00 9.073142e+00 -7.291212e+00
      vertex   9.442584e-01 9.081330e+00 -7.288279e+00
      vertex   9.486773e-01 9.123829e+00 -7.231102e+00
    endloop
  endfacet
  facet normal 8.795435e-02 7.972638e-01 -5.971888e-01
    outer loop
      vertex   1.000000e+00 9.073142e+00 -7.291212e+00
      vertex   9.486773e-01 9.123829e+00 -7.231102e+00
      vertex   1.000000e+00 9.145307e+00 -7.194870e+00
    endloop
  endfacet
  facet normal 8.432181e-02 8.001960e-01 -5.937813e-01
    outer loop
      vertex   1.000000e+00 9.145307e+00 -7.194870e+00
      vertex   9.486773e-01 9.123829e+00 -7.231102e+00
      vertex   9.530596e-01 9.165976e+00 -7.173682e+00
    endloop
  endfacet
  facet normal 8.791655e-02 8.033874e-01 -5.889308e-01
    outer loop
      vertex   1.000000e+00 9.145307e+00 -7.194870e+00
      vertex   9.530596e-01 9.165976e+00 -7.173682e+00
      vertex   9.574051e-01 9.207768e+00 -7.116022e+00
    endloop
  endfacet
  facet normal 8.075481e-02 8.041365e-01 -5.889340e-01
    outer loop
      vertex   9.574051e-01 9.207768e+00 -7.116022e+00
      vertex   9.530596e-01 9.165976e+00 -7.173682e+00
      vertex   8.926149e-01 9.214274e+00 -7.116022e+00
    endloop
  endfacet
  facet normal 8.110667e-02 8.076402e-01 -5.840711e-01
    outer loop
      vertex   9.574051e-01 9.207768e+00 -7.116022e+00
      vertex   8.926149e-01 9.214274e+00 -7.116022e+00
      vertex   8.966318e-01 9.255740e+00 -7.058127e+00
    endloop
  endfacet
  facet normal 7.543096e-02 8.081900e-01 -5.840711e-01
    outer loop
      vertex   8.966318e-01 9.255740e+00 -7.058127e+00
      vertex   8.926149e-01 9.214274e+00 -7.116022e+00
      vertex   8.316696e-01 9.261803e+00 -7.058127e+00
    endloop
  endfacet
  facet normal 7.572166e-02 8.113047e-01 -5.796990e-01
    outer loop
      vertex   8.966318e-01 9.255740e+00 -7.058127e+00
      vertex   8.316696e-01 9.261803e+00 -7.058127e+00
      vertex   8.753745e-01 9.299257e+00 -7.000000e+00
    endloop
  endfacet
  facet normal 7.370692e-02 8.121722e-01 -5.787431e-01
    outer loop
      vertex   8.753745e-01 9.299257e+00 -7.000000e+00
      vertex   8.316696e-01 9.261803e+00 -7.058127e+00
      vertex   8.130079e-01 9.304917e+00 -7.000000e+00
    endloop
  endfacet
  facet normal 7.003644e-02 8.118350e-01 -5.796714e-01
    outer loop
      vertex   8.130079e-01 9.304917e+00 -7.000000e+00
      vertex   8.316696e-01 9.261803e+00 -7.058127e+00
      vertex   7.668316e-01 9.267396e+00 -7.058127e+00
    endloop
  endfacet
  facet normal 6.825854e-02 8.126283e-01 -5.787711e-01
    outer loop
      vertex   8.130079e-01 9.304917e+00 -7.000000e+00
      vertex   7.668316e-01 9.267396e+00 -7.058127e+00
      vertex   7.506082e-01 9.310159e+00 -7.000000e+00
    endloop
  endfacet
  facet normal 6.436235e-02 8.123284e-01 -5.796379e-01
    outer loop
      vertex   7.506082e-01 9.310159e+00 -7.000000e+00
      vertex   7.668316e-01 9.267396e+00 -7.058127e+00
      vertex   7.021221e-01 9.272523e+00 -7.058127e+00
    endloop
  endfacet
  facet normal 6.280734e-02 8.130442e-01 -5.788043e-01
    outer loop
      vertex   7.506082e-01 9.310159e+00 -7.000000e+00
      vertex   7.021221e-01 9.272523e+00 -7.058127e+00
      vertex   6.881775e-01 9.314981e+00 -7.000000e+00
    endloop
  endfacet
  facet normal 5.869961e-02 8.127843e-01 -5.795999e-01
    outer loop
      vertex   6.881775e-01 9.314981e+00 -7.000000e+00
      vertex   7.021221e-01 9.272523e+00 -7.058127e+00
      vertex   6.375455e-01 9.277187e+00 -7.058127e+00
    endloop
  endfacet
  facet normal 5.735366e-02 8.134207e-01 -5.788413e-01
    outer loop
      vertex   6.881775e-01 9.314981e+00 -7.000000e+00
      vertex   6.375455e-01 9.277187e+00 -7.058127e+00
      vertex   6.257180e-01 9.319385e+00 -7.000000e+00
    endloop
  endfacet
  facet normal 5.304848e-02 8.132021e-01 -5.795586e-01
    outer loop
      vertex   6.257180e-01 9.319385e+00 -7.000000e+00
      vertex   6.375455e-01 9.277187e+00 -7.058127e+00
      vertex   5.731061e-01 9.281391e+00 -7.058127e+00
    endloop
  endfacet
  facet normal 5.189779e-02 8.137588e-01 -5.788810e-01
    outer loop
      vertex   6.257180e-01 9.319385e+00 -7.000000e+00
      vertex   5.731061e-01 9.281391e+00 -7.058127e+00
      vertex   5.632317e-01 9.323370e+00 -7.000000e+00
    endloop
  endfacet
  facet normal 4.740924e-02 8.135813e-01 -5.795152e-01
    outer loop
      vertex   5.632317e-01 9.323370e+00 -7.000000e+00
      vertex   5.731061e-01 9.281391e+00 -7.058127e+00
      vertex   5.088080e-01 9.285138e+00 -7.058127e+00
    endloop
  endfacet
  facet normal 4.644000e-02 8.140593e-01 -5.789221e-01
    outer loop
      vertex   5.632317e-01 9.323370e+00 -7.000000e+00
      vertex   5.088080e-01 9.285138e+00 -7.058127e+00
      vertex   5.007208e-01 9.326936e+00 -7.000000e+00
    endloop
  endfacet
  facet normal 4.178219e-02 8.139212e-01 -5.794709e-01
    outer loop
      vertex   5.007208e-01 9.326936e+00 -7.000000e+00
      vertex   5.088080e-01 9.285138e+00 -7.058127e+00
      vertex   4.446556e-01 9.288431e+00 -7.058127e+00
    endloop
  endfacet
  facet normal 4.098052e-02 8.143228e-01 -5.789637e-01
    outer loop
      vertex   5.007208e-01 9.326936e+00 -7.000000e+00
      vertex   4.446556e-01 9.288431e+00 -7.058127e+00
      vertex   4.381874e-01 9.330083e+00 -7.000000e+00
    endloop
  endfacet
  facet normal 3.616763e-02 8.142215e-01 -5.794267e-01
    outer loop
      vertex   4.381874e-01 9.330083e+00 -7.000000e+00
      vertex   4.446556e-01 9.288431e+00 -7.058127e+00
      vertex   3.806528e-01 9.291274e+00 -7.058127e+00
    endloop
  endfacet
  facet normal 3.551959e-02 8.145501e-01 -5.790047e-01
    outer loop
      vertex   4.381874e-01 9.330083e+00 -7.000000e+00
      vertex   3.806528e-01 9.291274e+00 -7.058127e+00
      vertex   3.756335e-01 9.332811e+00 -7.000000e+00
    endloop
  endfacet
  facet normal 3.056591e-02 8.144817e-01 -5.793835e-01
    outer loop
      vertex   3.756335e-01 9.332811e+00 -7.000000e+00
      vertex   3.806528e-01 9.291274e+00 -7.058127e+00
      vertex   3.168038e-01 9.293670e+00 -7.058127e+00
    endloop
  endfacet
  facet normal 3.005739e-02 8.147420e-01 -5.790441e-01
    outer loop
      vertex   3.756335e-01 9.332811e+00 -7.000000e+00
      vertex   3.168038e-01 9.293670e+00 -7.058127e+00
      vertex   3.130614e-01 9.335120e+00 -7.000000e+00
    endloop
  endfacet
  facet normal 2.497736e-02 8.147015e-01 -5.793424e-01
    outer loop
      vertex   3.130614e-01 9.335120e+00 -7.000000e+00
      vertex   3.168038e-01 9.293670e+00 -7.058127e+00
      vertex   2.531123e-01 9.295623e+00 -7.058127e+00
    endloop
  endfacet
  facet normal 2.459411e-02 8.148989e-01 -5.790812e-01
    outer loop
      vertex   3.130614e-01 9.335120e+00 -7.000000e+00
      vertex   2.531123e-01 9.295623e+00 -7.058127e+00
      vertex   2.504730e-01 9.337009e+00 -7.000000e+00
    endloop
  endfacet
  facet normal 1.940236e-02 8.148807e-01 -5.793039e-01
    outer loop
      vertex   2.504730e-01 9.337009e+00 -7.000000e+00
      vertex   2.531123e-01 9.295623e+00 -7.058127e+00
      vertex   1.895825e-01 9.297135e+00 -7.058127e+00
    endloop
  endfacet
  facet normal 1.912990e-02 8.150214e-01 -5.791150e-01
    outer loop
      vertex   2.504730e-01 9.337009e+00 -7.000000e+00
      vertex   1.895825e-01 9.297135e+00 -7.058127e+00
      vertex   1.878706e-01 9.338478e+00 -7.000000e+00
    endloop
  endfacet
  facet normal 1.384128e-02 8.150189e-01 -5.792690e-01
    outer loop
      vertex   1.878706e-01 9.338478e+00 -7.000000e+00
      vertex   1.895825e-01 9.297135e+00 -7.058127e+00
      vertex   1.262180e-01 9.298211e+00 -7.058127e+00
    endloop
  endfacet
  facet normal 1.366492e-02 8.151100e-01 -5.791451e-01
    outer loop
      vertex   1.878706e-01 9.338478e+00 -7.000000e+00
      vertex   1.262180e-01 9.298211e+00 -7.058127e+00
      vertex   1.252562e-01 9.339528e+00 -7.000000e+00
    endloop
  endfacet
  facet normal 8.294481e-03 8.151161e-01 -5.792383e-01
    outer loop
      vertex   1.252562e-01 9.339528e+00 -7.000000e+00
      vertex   1.262180e-01 9.298211e+00 -7.058127e+00
      vertex   6.302258e-02 9.298854e+00 -7.058127e+00
    endloop
  endfacet
  facet normal 8.199306e-03 8.151651e-01 -5.791707e-01
    outer loop
      vertex   1.252562e-01 9.339528e+00 -7.000000e+00
      vertex   6.302258e-02 9.298854e+00 -7.058127e+00
      vertex   6.263198e-02 9.340158e+00 -7.000000e+00
    endloop
  endfacet
  facet normal 2.759188e-03 8.151721e-01 -5.792122e-01
    outer loop
      vertex   6.263198e-02 9.340158e+00 -7.000000e+00
      vertex   6.302258e-02 9.298854e+00 -7.058127e+00
      vertex   0.000000e+00 9.299029e+00 -7.058182e+00
    endloop
  endfacet
  facet normal 2.733162e-03 8.151854e-01 -5.791936e-01
    outer loop
      vertex   6.263198e-02 9.340158e+00 -7.000000e+00
      vertex   0.000000e+00 9.299029e+00 -7.058182e+00
      vertex   0.000000e+00 9.340368e+00 -7.000000e+00
    endloop
  endfacet
  facet normal 2.708408e-03 8.010316e-01 -5.986159e-01
    outer loop
      vertex   0.000000e+00 9.130215e+00 -7.288379e+00
      vertex   0.000000e+00 9.172935e+00 -7.231213e+00
      vertex   6.187871e-02 9.130080e+00 -7.288279e+00
    endloop
  endfacet
  facet normal 2.721148e-03 8.010382e-01 -5.986070e-01
    outer loop
      vertex   6.187871e-02 9.130080e+00 -7.288279e+00
      vertex   0.000000e+00 9.172935e+00 -7.231213e+00
      vertex   6.216829e-02 9.172807e+00 -7.231102e+00
    endloop
  endfacet
  facet normal 8.150852e-03 8.010014e-01 -5.986070e-01
    outer loop
      vertex   6.187871e-02 9.130080e+00 -7.288279e+00
      vertex   6.216829e-02 9.172807e+00 -7.231102e+00
      vertex   1.239271e-01 9.129448e+00 -7.288279e+00
    endloop
  endfacet
  facet normal 8.150852e-03 8.010014e-01 -5.986070e-01
    outer loop
      vertex   1.239271e-01 9.129448e+00 -7.288279e+00
      vertex   6.216829e-02 9.172807e+00 -7.231102e+00
      vertex   1.245071e-01 9.172172e+00 -7.231102e+00
    endloop
  endfacet
  facet normal 1.360196e-02 8.009274e-01 -5.986070e-01
    outer loop
      vertex   1.239271e-01 9.129448e+00 -7.288279e+00
      vertex   1.245071e-01 9.172172e+00 -7.231102e+00
      vertex   1.861415e-01 9.128392e+00 -7.288279e+00
    endloop
  endfacet
  facet normal 1.360196e-02 8.009274e-01 -5.986070e-01
    outer loop
      vertex   1.861415e-01 9.128392e+00 -7.288279e+00
      vertex   1.245071e-01 9.172172e+00 -7.231102e+00
      vertex   1.870126e-01 9.171111e+00 -7.231102e+00
    endloop
  endfacet
  facet normal 1.906748e-02 8.008159e-01 -5.986070e-01
    outer loop
      vertex   1.861415e-01 9.128392e+00 -7.288279e+00
      vertex   1.870126e-01 9.171111e+00 -7.231102e+00
      vertex   2.485183e-01 9.126907e+00 -7.288279e+00
    endloop
  endfacet
  facet normal 1.906748e-02 8.008159e-01 -5.986070e-01
    outer loop
      vertex   2.485183e-01 9.126907e+00 -7.288279e+00
      vertex   1.870126e-01 9.171111e+00 -7.231102e+00
      vertex   2.496814e-01 9.169619e+00 -7.231102e+00
    endloop
  endfacet
  facet normal 2.454708e-02 8.006667e-01 -5.986070e-01
    outer loop
      vertex   2.485183e-01 9.126907e+00 -7.288279e+00
      vertex   2.496814e-01 9.169619e+00 -7.231102e+00
      vertex   3.110538e-01 9.124989e+00 -7.288279e+00
    endloop
  endfacet
  facet normal 2.454708e-02 8.006667e-01 -5.986070e-01
    outer loop
      vertex   3.110538e-01 9.124989e+00 -7.288279e+00
      vertex   2.496814e-01 9.169619e+00 -7.231102e+00
      vertex   3.125094e-01 9.167693e+00 -7.231102e+00
    endloop
  endfacet
  facet normal 3.004043e-02 8.004794e-01 -5.986070e-01
    outer loop
      vertex   3.110538e-01 9.124989e+00 -7.288279e+00
      vertex   3.125094e-01 9.167693e+00 -7.231102e+00
      vertex   3.737440e-01 9.122637e+00 -7.288279e+00
    endloop
  endfacet
  facet normal 3.004043e-02 8.004794e-01 -5.986070e-01
    outer loop
      vertex   3.737440e-01 9.122637e+00 -7.288279e+00
      vertex   3.125094e-01 9.167693e+00 -7.231102e+00
      vertex   3.754930e-01 9.165329e+00 -7.231102e+00
    endloop
  endfacet
  facet normal 3.554718e-02 8.002538e-01 -5.986070e-01
    outer loop
      vertex   3.737440e-01 9.122637e+00 -7.288279e+00
      vertex   3.754930e-01 9.165329e+00 -7.231102e+00
      vertex   4.365851e-01 9.119845e+00 -7.288279e+00
    endloop
  endfacet
  facet normal 3.554718e-02 8.002538e-01 -5.986070e-01
    outer loop
      vertex   4.365851e-01 9.119845e+00 -7.288279e+00
      vertex   3.754930e-01 9.165329e+00 -7.231102e+00
      vertex   4.386282e-01 9.162524e+00 -7.231102e+00
    endloop
  endfacet
  facet normal 4.106701e-02 7.999895e-01 -5.986070e-01
    outer loop
      vertex   4.365851e-01 9.119845e+00 -7.288279e+00
      vertex   4.386282e-01 9.162524e+00 -7.231102e+00
      vertex   4.995732e-01 9.116612e+00 -7.288279e+00
    endloop
  endfacet
  facet normal 4.106701e-02 7.999895e-01 -5.986070e-01
    outer loop
      vertex   4.995732e-01 9.116612e+00 -7.288279e+00
      vertex   4.386282e-01 9.162524e+00 -7.231102e+00
      vertex   5.019111e-01 9.159276e+00 -7.231102e+00
    endloop
  endfacet
  facet normal 4.659955e-02 7.996863e-01 -5.986069e-01
    outer loop
      vertex   4.995732e-01 9.116612e+00 -7.288279e+00
      vertex   5.019111e-01 9.159276e+00 -7.231102e+00
      vertex   5.627042e-01 9.112933e+00 -7.288279e+00
    endloop
  endfacet
  facet normal 4.659955e-02 7.996863e-01 -5.986069e-01
    outer loop
      vertex   5.627042e-01 9.112933e+00 -7.288279e+00
      vertex   5.019111e-01 9.159276e+00 -7.231102e+00
      vertex   5.653375e-01 9.155580e+00 -7.231102e+00
    endloop
  endfacet
  facet normal 5.214446e-02 7.993439e-01 -5.986069e-01
    outer loop
      vertex   5.627042e-01 9.112933e+00 -7.288279e+00
      vertex   5.653375e-01 9.155580e+00 -7.231102e+00
      vertex   6.259740e-01 9.108806e+00 -7.288279e+00
    endloop
  endfacet
  facet normal 5.214446e-02 7.993439e-01 -5.986069e-01
    outer loop
      vertex   6.259740e-01 9.108806e+00 -7.288279e+00
      vertex   5.653375e-01 9.155580e+00 -7.231102e+00
      vertex   6.289034e-01 9.151433e+00 -7.231102e+00
    endloop
  endfacet
  facet normal 5.770136e-02 7.989620e-01 -5.986069e-01
    outer loop
      vertex   6.259740e-01 9.108806e+00 -7.288279e+00
      vertex   6.289034e-01 9.151433e+00 -7.231102e+00
      vertex   6.893786e-01 9.104227e+00 -7.288279e+00
    endloop
  endfacet
  facet normal 5.770136e-02 7.989620e-01 -5.986069e-01
    outer loop
      vertex   6.893786e-01 9.104227e+00 -7.288279e+00
      vertex   6.289034e-01 9.151433e+00 -7.231102e+00
      vertex   6.926047e-01 9.146833e+00 -7.231102e+00
    endloop
  endfacet
  facet normal 6.326990e-02 7.985404e-01 -5.986069e-01
    outer loop
      vertex   6.893786e-01 9.104227e+00 -7.288279e+00
      vertex   6.926047e-01 9.146833e+00 -7.231102e+00
      vertex   7.529136e-01 9.099193e+00 -7.288279e+00
    endloop
  endfacet
  facet normal 6.326990e-02 7.985404e-01 -5.986069e-01
    outer loop
      vertex   7.529136e-01 9.099193e+00 -7.288279e+00
      vertex   6.926047e-01 9.146833e+00 -7.231102e+00
      vertex   7.564371e-01 9.141775e+00 -7.231102e+00
    endloop
  endfacet
  facet normal 6.884970e-02 7.980786e-01 -5.986069e-01
    outer loop
      vertex   7.529136e-01 9.099193e+00 -7.288279e+00
      vertex   7.564371e-01 9.141775e+00 -7.231102e+00
      vertex   8.165748e-01 9.093701e+00 -7.288279e+00
    endloop
  endfacet
  facet normal 6.884970e-02 7.980786e-01 -5.986069e-01
    outer loop
      vertex   8.165748e-01 9.093701e+00 -7.288279e+00
      vertex   7.564371e-01 9.141775e+00 -7.231102e+00
      vertex   8.203962e-01 9.136257e+00 -7.231102e+00
    endloop
  endfacet
  facet normal 7.444037e-02 7.975766e-01 -5.986069e-01
    outer loop
      vertex   8.165748e-01 9.093701e+00 -7.288279e+00
      vertex   8.203962e-01 9.136257e+00 -7.231102e+00
      vertex   8.803579e-01 9.087748e+00 -7.288279e+00
    endloop
  endfacet
  facet normal 7.444037e-02 7.975766e-01 -5.986069e-01
    outer loop
      vertex   8.803579e-01 9.087748e+00 -7.288279e+00
      vertex   8.203962e-01 9.136257e+00 -7.231102e+00
      vertex   8.844778e-01 9.130276e+00 -7.231102e+00
    endloop
  endfacet
  facet normal 8.004155e-02 7.970340e-01 -5.986069e-01
    outer loop
      vertex   8.803579e-01 9.087748e+00 -7.288279e+00
      vertex   8.844778e-01 9.130276e+00 -7.231102e+00
      vertex   9.442584e-01 9.081330e+00 -7.288279e+00
    endloop
  endfacet
  facet normal 8.004155e-02 7.970340e-01 -5.986069e-01
    outer loop
      vertex   9.442584e-01 9.081330e+00 -7.288279e+00
      vertex   8.844778e-01 9.130276e+00 -7.231102e+00
      vertex   9.486773e-01 9.123829e+00 -7.231102e+00
    endloop
  endfacet
  facet normal 2.719934e-03 8.046164e-01 -5.937887e-01
    outer loop
      vertex   0.000000e+00 9.172935e+00 -7.231213e+00
      vertex   0.000000e+00 9.215312e+00 -7.173790e+00
      vertex   6.216829e-02 9.172807e+00 -7.231102e+00
    endloop
  endfacet
  facet normal 2.733079e-03 8.046232e-01 -5.937795e-01
    outer loop
      vertex   6.216829e-02 9.172807e+00 -7.231102e+00
      vertex   0.000000e+00 9.215312e+00 -7.173790e+00
      vertex   6.245547e-02 9.215179e+00 -7.173682e+00
    endloop
  endfacet
  facet normal 8.187330e-03 8.045862e-01 -5.937795e-01
    outer loop
      vertex   6.216829e-02 9.172807e+00 -7.231102e+00
      vertex   6.245547e-02 9.215179e+00 -7.173682e+00
      vertex   1.245071e-01 9.172172e+00 -7.231102e+00
    endloop
  endfacet
  facet normal 8.187330e-03 8.045862e-01 -5.937795e-01
    outer loop
      vertex   1.245071e-01 9.172172e+00 -7.231102e+00
      vertex   6.245547e-02 9.215179e+00 -7.173682e+00
      vertex   1.250822e-01 9.214542e+00 -7.173682e+00
    endloop
  endfacet
  facet normal 1.366284e-02 8.045118e-01 -5.937795e-01
    outer loop
      vertex   1.245071e-01 9.172172e+00 -7.231102e+00
      vertex   1.250822e-01 9.214542e+00 -7.173682e+00
      vertex   1.870126e-01 9.171111e+00 -7.231102e+00
    endloop
  endfacet
  facet normal 1.366284e-02 8.045118e-01 -5.937795e-01
    outer loop
      vertex   1.870126e-01 9.171111e+00 -7.231102e+00
      vertex   1.250822e-01 9.214542e+00 -7.173682e+00
      vertex   1.878765e-01 9.213476e+00 -7.173682e+00
    endloop
  endfacet
  facet normal 1.915281e-02 8.043999e-01 -5.937794e-01
    outer loop
      vertex   1.870126e-01 9.171111e+00 -7.231102e+00
      vertex   1.878765e-01 9.213476e+00 -7.173682e+00
      vertex   2.496814e-01 9.169619e+00 -7.231102e+00
    endloop
  endfacet
  facet normal 1.915281e-02 8.043999e-01 -5.937794e-01
    outer loop
      vertex   2.496814e-01 9.169619e+00 -7.231102e+00
      vertex   1.878765e-01 9.213476e+00 -7.173682e+00
      vertex   2.508347e-01 9.211977e+00 -7.173682e+00
    endloop
  endfacet
  facet normal 2.465694e-02 8.042500e-01 -5.937794e-01
    outer loop
      vertex   2.496814e-01 9.169619e+00 -7.231102e+00
      vertex   2.508347e-01 9.211977e+00 -7.173682e+00
      vertex   3.125094e-01 9.167693e+00 -7.231102e+00
    endloop
  endfacet
  facet normal 2.465694e-02 8.042500e-01 -5.937794e-01
    outer loop
      vertex   3.125094e-01 9.167693e+00 -7.231102e+00
      vertex   2.508347e-01 9.211977e+00 -7.173682e+00
      vertex   3.139530e-01 9.210042e+00 -7.173682e+00
    endloop
  endfacet
  facet normal 3.017487e-02 8.040619e-01 -5.937794e-01
    outer loop
      vertex   3.125094e-01 9.167693e+00 -7.231102e+00
      vertex   3.139530e-01 9.210042e+00 -7.173682e+00
      vertex   3.754930e-01 9.165329e+00 -7.231102e+00
    endloop
  endfacet
  facet normal 3.017487e-02 8.040619e-01 -5.937794e-01
    outer loop
      vertex   3.754930e-01 9.165329e+00 -7.231102e+00
      vertex   3.139530e-01 9.210042e+00 -7.173682e+00
      vertex   3.772276e-01 9.207667e+00 -7.173682e+00
    endloop
  endfacet
  facet normal 3.570627e-02 8.038352e-01 -5.937794e-01
    outer loop
      vertex   3.754930e-01 9.165329e+00 -7.231102e+00
      vertex   3.772276e-01 9.207667e+00 -7.173682e+00
      vertex   4.386282e-01 9.162524e+00 -7.231102e+00
    endloop
  endfacet
  facet normal 3.570627e-02 8.038352e-01 -5.937794e-01
    outer loop
      vertex   4.386282e-01 9.162524e+00 -7.231102e+00
      vertex   3.772276e-01 9.207667e+00 -7.173682e+00
      vertex   4.406544e-01 9.204850e+00 -7.173682e+00
    endloop
  endfacet
  facet normal 4.125080e-02 8.035698e-01 -5.937794e-01
    outer loop
      vertex   4.386282e-01 9.162524e+00 -7.231102e+00
      vertex   4.406544e-01 9.204850e+00 -7.173682e+00
      vertex   5.019111e-01 9.159276e+00 -7.231102e+00
    endloop
  endfacet
  facet normal 4.125080e-02 8.035698e-01 -5.937794e-01
    outer loop
      vertex   5.019111e-01 9.159276e+00 -7.231102e+00
      vertex   4.406544e-01 9.204850e+00 -7.173682e+00
      vertex   5.042296e-01 9.201586e+00 -7.173682e+00
    endloop
  endfacet
  facet normal 4.680810e-02 8.032652e-01 -5.937794e-01
    outer loop
      vertex   5.019111e-01 9.159276e+00 -7.231102e+00
      vertex   5.042296e-01 9.201586e+00 -7.173682e+00
      vertex   5.653375e-01 9.155580e+00 -7.231102e+00
    endloop
  endfacet
  facet normal 4.680810e-02 8.032652e-01 -5.937794e-01
    outer loop
      vertex   5.653375e-01 9.155580e+00 -7.231102e+00
      vertex   5.042296e-01 9.201586e+00 -7.173682e+00
      vertex   5.679490e-01 9.197873e+00 -7.173682e+00
    endloop
  endfacet
  facet normal 5.237782e-02 8.029213e-01 -5.937794e-01
    outer loop
      vertex   5.653375e-01 9.155580e+00 -7.231102e+00
      vertex   5.679490e-01 9.197873e+00 -7.173682e+00
      vertex   6.289034e-01 9.151433e+00 -7.231102e+00
    endloop
  endfacet
  facet normal 5.237782e-02 8.029213e-01 -5.937794e-01
    outer loop
      vertex   6.289034e-01 9.151433e+00 -7.231102e+00
      vertex   5.679490e-01 9.197873e+00 -7.173682e+00
      vertex   6.318086e-01 9.193707e+00 -7.173682e+00
    endloop
  endfacet
  facet normal 5.795960e-02 8.025377e-01 -5.937794e-01
    outer loop
      vertex   6.289034e-01 9.151433e+00 -7.231102e+00
      vertex   6.318086e-01 9.193707e+00 -7.173682e+00
      vertex   6.926047e-01 9.146833e+00 -7.231102e+00
    endloop
  endfacet
  facet normal 5.795960e-02 8.025377e-01 -5.937794e-01
    outer loop
      vertex   6.926047e-01 9.146833e+00 -7.231102e+00
      vertex   6.318086e-01 9.193707e+00 -7.173682e+00
      vertex   6.958041e-01 9.189085e+00 -7.173682e+00
    endloop
  endfacet
  facet normal 6.355306e-02 8.021141e-01 -5.937794e-01
    outer loop
      vertex   6.926047e-01 9.146833e+00 -7.231102e+00
      vertex   6.958041e-01 9.189085e+00 -7.173682e+00
      vertex   7.564371e-01 9.141775e+00 -7.231102e+00
    endloop
  endfacet
  facet normal 6.355306e-02 8.021141e-01 -5.937794e-01
    outer loop
      vertex   7.564371e-01 9.141775e+00 -7.231102e+00
      vertex   6.958041e-01 9.189085e+00 -7.173682e+00
      vertex   7.599313e-01 9.184004e+00 -7.173682e+00
    endloop
  endfacet
  facet normal 6.915783e-02 8.016504e-01 -5.937793e-01
    outer loop
      vertex   7.564371e-01 9.141775e+00 -7.231102e+00
      vertex   7.599313e-01 9.184004e+00 -7.173682e+00
      vertex   8.203962e-01 9.136257e+00 -7.231102e+00
    endloop
  endfacet
  facet normal 6.915783e-02 8.016504e-01 -5.937793e-01
    outer loop
      vertex   8.203962e-01 9.136257e+00 -7.231102e+00
      vertex   7.599313e-01 9.184004e+00 -7.173682e+00
      vertex   8.241859e-01 9.178461e+00 -7.173682e+00
    endloop
  endfacet
  facet normal 7.477352e-02 8.011461e-01 -5.937793e-01
    outer loop
      vertex   8.203962e-01 9.136257e+00 -7.231102e+00
      vertex   8.241859e-01 9.178461e+00 -7.173682e+00
      vertex   8.844778e-01 9.130276e+00 -7.231102e+00
    endloop
  endfacet
  facet normal 7.477352e-02 8.011461e-01 -5.937793e-01
    outer loop
      vertex   8.844778e-01 9.130276e+00 -7.231102e+00
      vertex   8.241859e-01 9.178461e+00 -7.173682e+00
      vertex   8.885635e-01 9.172453e+00 -7.173682e+00
    endloop
  endfacet
  facet normal 8.039977e-02 8.006010e-01 -5.937793e-01
    outer loop
      vertex   8.844778e-01 9.130276e+00 -7.231102e+00
      vertex   8.885635e-01 9.172453e+00 -7.173682e+00
      vertex   9.486773e-01 9.123829e+00 -7.231102e+00
    endloop
  endfacet
  facet normal 8.039977e-02 8.006010e-01 -5.937793e-01
    outer loop
      vertex   9.486773e-01 9.123829e+00 -7.231102e+00
      vertex   8.885635e-01 9.172453e+00 -7.173682e+00
      vertex   9.530596e-01 9.165976e+00 -7.173682e+00
    endloop
  endfacet
  facet normal 2.732188e-03 8.081703e-01 -5.889425e-01
    outer loop
      vertex   0.000000e+00 9.215312e+00 -7.173790e+00
      vertex   0.000000e+00 9.257343e+00 -7.116113e+00
      vertex   6.245547e-02 9.215179e+00 -7.173682e+00
    endloop
  endfacet
  facet normal 2.743987e-03 8.081764e-01 -5.889341e-01
    outer loop
      vertex   6.245547e-02 9.215179e+00 -7.173682e+00
      vertex   0.000000e+00 9.257343e+00 -7.116113e+00
      vertex   6.274024e-02 9.257196e+00 -7.116022e+00
    endloop
  endfacet
  facet normal 8.223485e-03 8.081392e-01 -5.889341e-01
    outer loop
      vertex   6.245547e-02 9.215179e+00 -7.173682e+00
      vertex   6.274024e-02 9.257196e+00 -7.116022e+00
      vertex   1.250822e-01 9.214542e+00 -7.173682e+00
    endloop
  endfacet
  facet normal 8.223485e-03 8.081392e-01 -5.889341e-01
    outer loop
      vertex   1.250822e-01 9.214542e+00 -7.173682e+00
      vertex   6.274024e-02 9.257196e+00 -7.116022e+00
      vertex   1.256525e-01 9.256556e+00 -7.116022e+00
    endloop
  endfacet
  facet normal 1.372317e-02 8.080645e-01 -5.889341e-01
    outer loop
      vertex   1.250822e-01 9.214542e+00 -7.173682e+00
      vertex   1.256525e-01 9.256556e+00 -7.116022e+00
      vertex   1.878765e-01 9.213476e+00 -7.173682e+00
    endloop
  endfacet
  facet normal 1.372317e-02 8.080645e-01 -5.889341e-01
    outer loop
      vertex   1.878765e-01 9.213476e+00 -7.173682e+00
      vertex   1.256525e-01 9.256556e+00 -7.116022e+00
      vertex   1.887331e-01 9.255484e+00 -7.116022e+00
    endloop
  endfacet
  facet normal 1.923739e-02 8.079521e-01 -5.889341e-01
    outer loop
      vertex   1.878765e-01 9.213476e+00 -7.173682e+00
      vertex   1.887331e-01 9.255484e+00 -7.116022e+00
      vertex   2.508347e-01 9.211977e+00 -7.173682e+00
    endloop
  endfacet
  facet normal 1.923739e-02 8.079521e-01 -5.889341e-01
    outer loop
      vertex   2.508347e-01 9.211977e+00 -7.173682e+00
      vertex   1.887331e-01 9.255484e+00 -7.116022e+00
      vertex   2.519784e-01 9.253979e+00 -7.116022e+00
    endloop
  endfacet
  facet normal 2.476582e-02 8.078015e-01 -5.889341e-01
    outer loop
      vertex   2.508347e-01 9.211977e+00 -7.173682e+00
      vertex   2.519784e-01 9.253979e+00 -7.116022e+00
      vertex   3.139530e-01 9.210042e+00 -7.173682e+00
    endloop
  endfacet
  facet normal 2.476582e-02 8.078015e-01 -5.889341e-01
    outer loop
      vertex   3.139530e-01 9.210042e+00 -7.173682e+00
      vertex   2.519784e-01 9.253979e+00 -7.116022e+00
      vertex   3.153845e-01 9.252035e+00 -7.116022e+00
    endloop
  endfacet
  facet normal 3.030812e-02 8.076126e-01 -5.889341e-01
    outer loop
      vertex   3.139530e-01 9.210042e+00 -7.173682e+00
      vertex   3.153845e-01 9.252035e+00 -7.116022e+00
      vertex   3.772276e-01 9.207667e+00 -7.173682e+00
    endloop
  endfacet
  facet normal 3.030812e-02 8.076126e-01 -5.889341e-01
    outer loop
      vertex   3.772276e-01 9.207667e+00 -7.173682e+00
      vertex   3.153845e-01 9.252035e+00 -7.116022e+00
      vertex   3.789475e-01 9.249649e+00 -7.116022e+00
    endloop
  endfacet
  facet normal 3.586395e-02 8.073849e-01 -5.889341e-01
    outer loop
      vertex   3.772276e-01 9.207667e+00 -7.173682e+00
      vertex   3.789475e-01 9.249649e+00 -7.116022e+00
      vertex   4.406544e-01 9.204850e+00 -7.173682e+00
    endloop
  endfacet
  facet normal 3.586395e-02 8.073849e-01 -5.889341e-01
    outer loop
      vertex   4.406544e-01 9.204850e+00 -7.173682e+00
      vertex   3.789475e-01 9.249649e+00 -7.116022e+00
      vertex   4.426636e-01 9.246819e+00 -7.116022e+00
    endloop
  endfacet
  facet normal 4.143296e-02 8.071183e-01 -5.889341e-01
    outer loop
      vertex   4.406544e-01 9.204850e+00 -7.173682e+00
      vertex   4.426636e-01 9.246819e+00 -7.116022e+00
      vertex   5.042296e-01 9.201586e+00 -7.173682e+00
    endloop
  endfacet
  facet normal 4.143296e-02 8.071183e-01 -5.889341e-01
    outer loop
      vertex   5.042296e-01 9.201586e+00 -7.173682e+00
      vertex   4.426636e-01 9.246819e+00 -7.116022e+00
      vertex   5.065286e-01 9.243541e+00 -7.116022e+00
    endloop
  endfacet
  facet normal 4.701481e-02 8.068124e-01 -5.889340e-01
    outer loop
      vertex   5.042296e-01 9.201586e+00 -7.173682e+00
      vertex   5.065286e-01 9.243541e+00 -7.116022e+00
      vertex   5.679490e-01 9.197873e+00 -7.173682e+00
    endloop
  endfacet
  facet normal 4.701481e-02 8.068124e-01 -5.889340e-01
    outer loop
      vertex   5.679490e-01 9.197873e+00 -7.173682e+00
      vertex   5.065286e-01 9.243541e+00 -7.116022e+00
      vertex   5.705386e-01 9.239811e+00 -7.116022e+00
    endloop
  endfacet
  facet normal 5.260912e-02 8.064670e-01 -5.889340e-01
    outer loop
      vertex   5.679490e-01 9.197873e+00 -7.173682e+00
      vertex   5.705386e-01 9.239811e+00 -7.116022e+00
      vertex   6.318086e-01 9.193707e+00 -7.173682e+00
    endloop
  endfacet
  facet normal 5.260912e-02 8.064670e-01 -5.889340e-01
    outer loop
      vertex   6.318086e-01 9.193707e+00 -7.173682e+00
      vertex   5.705386e-01 9.239811e+00 -7.116022e+00
      vertex   6.346893e-01 9.235626e+00 -7.116022e+00
    endloop
  endfacet
  facet normal 5.821555e-02 8.060817e-01 -5.889340e-01
    outer loop
      vertex   6.318086e-01 9.193707e+00 -7.173682e+00
      vertex   6.346893e-01 9.235626e+00 -7.116022e+00
      vertex   6.958041e-01 9.189085e+00 -7.173682e+00
    endloop
  endfacet
  facet normal 5.821555e-02 8.060817e-01 -5.889340e-01
    outer loop
      vertex   6.958041e-01 9.189085e+00 -7.173682e+00
      vertex   6.346893e-01 9.235626e+00 -7.116022e+00
      vertex   6.989766e-01 9.230983e+00 -7.116022e+00
    endloop
  endfacet
  facet normal 6.383370e-02 8.056563e-01 -5.889340e-01
    outer loop
      vertex   6.958041e-01 9.189085e+00 -7.173682e+00
      vertex   6.989766e-01 9.230983e+00 -7.116022e+00
      vertex   7.599313e-01 9.184004e+00 -7.173682e+00
    endloop
  endfacet
  facet normal 6.383370e-02 8.056563e-01 -5.889340e-01
    outer loop
      vertex   7.599313e-01 9.184004e+00 -7.173682e+00
      vertex   6.989766e-01 9.230983e+00 -7.116022e+00
      vertex   7.633962e-01 9.225879e+00 -7.116022e+00
    endloop
  endfacet
  facet normal 6.946322e-02 8.051904e-01 -5.889340e-01
    outer loop
      vertex   7.599313e-01 9.184004e+00 -7.173682e+00
      vertex   7.633962e-01 9.225879e+00 -7.116022e+00
      vertex   8.241859e-01 9.178461e+00 -7.173682e+00
    endloop
  endfacet
  facet normal 6.946322e-02 8.051904e-01 -5.889340e-01
    outer loop
      vertex   8.241859e-01 9.178461e+00 -7.173682e+00
      vertex   7.633962e-01 9.225879e+00 -7.116022e+00
      vertex   8.279438e-01 9.220310e+00 -7.116022e+00
    endloop
  endfacet
  facet normal 7.510372e-02 8.046839e-01 -5.889340e-01
    outer loop
      vertex   8.241859e-01 9.178461e+00 -7.173682e+00
      vertex   8.279438e-01 9.220310e+00 -7.116022e+00
      vertex   8.885635e-01 9.172453e+00 -7.173682e+00
    endloop
  endfacet
  facet normal 7.510372e-02 8.046839e-01 -5.889340e-01
    outer loop
      vertex   8.885635e-01 9.172453e+00 -7.173682e+00
      vertex   8.279438e-01 9.220310e+00 -7.116022e+00
      vertex   8.926149e-01 9.214274e+00 -7.116022e+00
    endloop
  endfacet
  facet normal 8.075481e-02 8.041365e-01 -5.889340e-01
    outer loop
      vertex   8.885635e-01 9.172453e+00 -7.173682e+00
      vertex   8.926149e-01 9.214274e+00 -7.116022e+00
      vertex   9.530596e-01 9.165976e+00 -7.173682e+00
    endloop
  endfacet
  facet normal 2.745252e-03 8.116933e-01 -5.840774e-01
    outer loop
      vertex   0.000000e+00 9.257343e+00 -7.116113e+00
      vertex   0.000000e+00 9.299029e+00 -7.058182e+00
      vertex   6.274024e-02 9.257196e+00 -7.116022e+00
    endloop
  endfacet
  facet normal 2.753793e-03 8.116977e-01 -5.840713e-01
    outer loop
      vertex   6.274024e-02 9.257196e+00 -7.116022e+00
      vertex   0.000000e+00 9.299029e+00 -7.058182e+00
      vertex   6.302258e-02 9.298854e+00 -7.058127e+00
    endloop
  endfacet
  facet normal 8.259316e-03 8.116603e-01 -5.840713e-01
    outer loop
      vertex   6.274024e-02 9.257196e+00 -7.116022e+00
      vertex   6.302258e-02 9.298854e+00 -7.058127e+00
      vertex   1.256525e-01 9.256556e+00 -7.116022e+00
    endloop
  endfacet
  facet normal 8.259316e-03 8.116603e-01 -5.840713e-01
    outer loop
      vertex   1.256525e-01 9.256556e+00 -7.116022e+00
      vertex   6.302258e-02 9.298854e+00 -7.058127e+00
      vertex   1.262180e-01 9.298211e+00 -7.058127e+00
    endloop
  endfacet
  facet normal 1.378296e-02 8.115853e-01 -5.840713e-01
    outer loop
      vertex   1.256525e-01 9.256556e+00 -7.116022e+00
      vertex   1.262180e-01 9.298211e+00 -7.058127e+00
      vertex   1.887331e-01 9.255484e+00 -7.116022e+00
    endloop
  endfacet
  facet normal 1.378296e-02 8.115853e-01 -5.840713e-01
    outer loop
      vertex   1.887331e-01 9.255484e+00 -7.116022e+00
      vertex   1.262180e-01 9.298211e+00 -7.058127e+00
      vertex   1.895825e-01 9.297135e+00 -7.058127e+00
    endloop
  endfacet
  facet normal 1.932121e-02 8.114724e-01 -5.840713e-01
    outer loop
      vertex   1.887331e-01 9.255484e+00 -7.116022e+00
      vertex   1.895825e-01 9.297135e+00 -7.058127e+00
      vertex   2.519784e-01 9.253979e+00 -7.116022e+00
    endloop
  endfacet
  facet normal 1.932121e-02 8.114724e-01 -5.840713e-01
    outer loop
      vertex   2.519784e-01 9.253979e+00 -7.116022e+00
      vertex   1.895825e-01 9.297135e+00 -7.058127e+00
      vertex   2.531123e-01 9.295623e+00 -7.058127e+00
    endloop
  endfacet
  facet normal 2.487373e-02 8.113212e-01 -5.840712e-01
    outer loop
      vertex   2.519784e-01 9.253979e+00 -7.116022e+00
      vertex   2.531123e-01 9.295623e+00 -7.058127e+00
      vertex   3.153845e-01 9.252035e+00 -7.116022e+00
    endloop
  endfacet
  facet normal 2.487373e-02 8.113212e-01 -5.840712e-01
    outer loop
      vertex   3.153845e-01 9.252035e+00 -7.116022e+00
      vertex   2.531123e-01 9.295623e+00 -7.058127e+00
      vertex   3.168038e-01 9.293670e+00 -7.058127e+00
    endloop
  endfacet
  facet normal 3.044018e-02 8.111314e-01 -5.840712e-01
    outer loop
      vertex   3.153845e-01 9.252035e+00 -7.116022e+00
      vertex   3.168038e-01 9.293670e+00 -7.058127e+00
      vertex   3.789475e-01 9.249649e+00 -7.116022e+00
    endloop
  endfacet
  facet normal 3.044018e-02 8.111314e-01 -5.840712e-01
    outer loop
      vertex   3.789475e-01 9.249649e+00 -7.116022e+00
      vertex   3.168038e-01 9.293670e+00 -7.058127e+00
      vertex   3.806528e-01 9.291274e+00 -7.058127e+00
    endloop
  endfacet
  facet normal 3.602021e-02 8.109028e-01 -5.840712e-01
    outer loop
      vertex   3.789475e-01 9.249649e+00 -7.116022e+00
      vertex   3.806528e-01 9.291274e+00 -7.058127e+00
      vertex   4.426636e-01 9.246819e+00 -7.116022e+00
    endloop
  endfacet
  facet normal 3.602021e-02 8.109028e-01 -5.840712e-01
    outer loop
      vertex   4.426636e-01 9.246819e+00 -7.116022e+00
      vertex   3.806528e-01 9.291274e+00 -7.058127e+00
      vertex   4.446556e-01 9.288431e+00 -7.058127e+00
    endloop
  endfacet
  facet normal 4.161349e-02 8.106350e-01 -5.840712e-01
    outer loop
      vertex   4.426636e-01 9.246819e+00 -7.116022e+00
      vertex   4.446556e-01 9.288431e+00 -7.058127e+00
      vertex   5.065286e-01 9.243541e+00 -7.116022e+00
    endloop
  endfacet
  facet normal 4.161349e-02 8.106350e-01 -5.840712e-01
    outer loop
      vertex   5.065286e-01 9.243541e+00 -7.116022e+00
      vertex   4.446556e-01 9.288431e+00 -7.058127e+00
      vertex   5.088080e-01 9.285138e+00 -7.058127e+00
    endloop
  endfacet
  facet normal 4.721966e-02 8.103278e-01 -5.840712e-01
    outer loop
      vertex   5.065286e-01 9.243541e+00 -7.116022e+00
      vertex   5.088080e-01 9.285138e+00 -7.058127e+00
      vertex   5.705386e-01 9.239811e+00 -7.116022e+00
    endloop
  endfacet
  facet normal 4.721966e-02 8.103278e-01 -5.840712e-01
    outer loop
      vertex   5.705386e-01 9.239811e+00 -7.116022e+00
      vertex   5.088080e-01 9.285138e+00 -7.058127e+00
      vertex   5.731061e-01 9.281391e+00 -7.058127e+00
    endloop
  endfacet
  facet normal 5.283835e-02 8.099808e-01 -5.840712e-01
    outer loop
      vertex   5.705386e-01 9.239811e+00 -7.116022e+00
      vertex   5.731061e-01 9.281391e+00 -7.058127e+00
      vertex   6.346893e-01 9.235626e+00 -7.116022e+00
    endloop
  endfacet
  facet normal 5.283835e-02 8.099808e-01 -5.840712e-01
    outer loop
      vertex   6.346893e-01 9.235626e+00 -7.116022e+00
      vertex   5.731061e-01 9.281391e+00 -7.058127e+00
      vertex   6.375455e-01 9.277187e+00 -7.058127e+00
    endloop
  endfacet
  facet normal 5.846920e-02 8.095939e-01 -5.840712e-01
    outer loop
      vertex   6.346893e-01 9.235626e+00 -7.116022e+00
      vertex   6.375455e-01 9.277187e+00 -7.058127e+00
      vertex   6.989766e-01 9.230983e+00 -7.116022e+00
    endloop
  endfacet
  facet normal 5.846920e-02 8.095939e-01 -5.840712e-01
    outer loop
      vertex   6.989766e-01 9.230983e+00 -7.116022e+00
      vertex   6.375455e-01 9.277187e+00 -7.058127e+00
      vertex   7.021221e-01 9.272523e+00 -7.058127e+00
    endloop
  endfacet
  facet normal 6.411183e-02 8.091666e-01 -5.840712e-01
    outer loop
      vertex   6.989766e-01 9.230983e+00 -7.116022e+00
      vertex   7.021221e-01 9.272523e+00 -7.058127e+00
      vertex   7.633962e-01 9.225879e+00 -7.116022e+00
    endloop
  endfacet
  facet normal 6.411183e-02 8.091666e-01 -5.840712e-01
    outer loop
      vertex   7.633962e-01 9.225879e+00 -7.116022e+00
      vertex   7.021221e-01 9.272523e+00 -7.058127e+00
      vertex   7.668316e-01 9.267396e+00 -7.058127e+00
    endloop
  endfacet
  facet normal 6.976588e-02 8.086987e-01 -5.840712e-01
    outer loop
      vertex   7.633962e-01 9.225879e+00 -7.116022e+00
      vertex   7.668316e-01 9.267396e+00 -7.058127e+00
      vertex   8.279438e-01 9.220310e+00 -7.116022e+00
    endloop
  endfacet
  facet normal 6.976588e-02 8.086987e-01 -5.840712e-01
    outer loop
      vertex   8.279438e-01 9.220310e+00 -7.116022e+00
      vertex   7.668316e-01 9.267396e+00 -7.058127e+00
      vertex   8.316696e-01 9.261803e+00 -7.058127e+00
    endloop
  endfacet
  facet normal 7.543096e-02 8.081900e-01 -5.840711e-01
    outer loop
      vertex   8.279438e-01 9.220310e+00 -7.116022e+00
      vertex   8.316696e-01 9.261803e+00 -7.058127e+00
      vertex   8.926149e-01 9.214274e+00 -7.116022e+00
    endloop
  endfacet
  facet normal 7.915215e-02 8.116749e-01 -5.787216e-01
    outer loop
      vertex   8.753745e-01 9.299257e+00 -7.000000e+00
      vertex   9.377059e-01 9.293179e+00 -7.000000e+00
      vertex   8.966318e-01 9.255740e+00 -7.058127e+00
    endloop
  endfacet
  facet normal 8.141780e-02 8.107383e-01 -5.797193e-01
    outer loop
      vertex   8.966318e-01 9.255740e+00 -7.058127e+00
      vertex   9.377059e-01 9.293179e+00 -7.000000e+00
      vertex   9.617135e-01 9.249204e+00 -7.058127e+00
    endloop
  endfacet
  facet normal 8.110667e-02 8.076402e-01 -5.840711e-01
    outer loop
      vertex   8.966318e-01 9.255740e+00 -7.058127e+00
      vertex   9.617135e-01 9.249204e+00 -7.058127e+00
      vertex   9.574051e-01 9.207768e+00 -7.116022e+00
    endloop
  endfacet
  facet normal 8.464357e-02 8.072755e-01 -5.840734e-01
    outer loop
      vertex   9.574051e-01 9.207768e+00 -7.116022e+00
      vertex   9.617135e-01 9.249204e+00 -7.058127e+00
      vertex   1.000000e+00 9.216488e+00 -7.097797e+00
    endloop
  endfacet
  facet normal 8.758628e-02 8.033274e-01 -5.890617e-01
    outer loop
      vertex   9.574051e-01 9.207768e+00 -7.116022e+00
      vertex   1.000000e+00 9.216488e+00 -7.097797e+00
      vertex   1.000000e+00 9.145307e+00 -7.194870e+00
    endloop
  endfacet
  facet normal 8.459385e-02 8.111355e-01 -5.787081e-01
    outer loop
      vertex   9.377059e-01 9.293179e+00 -7.000000e+00
      vertex   1.000000e+00 9.286682e+00 -7.000000e+00
      vertex   9.617135e-01 9.249204e+00 -7.058127e+00
    endloop
  endfacet
  facet normal 8.966538e-02 8.091266e-01 -5.807532e-01
    outer loop
      vertex   9.617135e-01 9.249204e+00 -7.058127e+00
      vertex   1.000000e+00 9.286682e+00 -7.000000e+00
      vertex   1.000000e+00 9.216488e+00 -7.097797e+00
    endloop
  endfacet
  facet normal -1.000000e+00 -0.000000e+00 0.000000e+00
    outer loop
      vertex   0.000000e+00 9.340368e+00 -7.000000e+00
      vertex   0.000000e+00 9.299029e+00 -7.058182e+00
      vertex   0.000000e+00 9.000000e+00 -7.000000e+00
    endloop
  endfacet
  facet normal -1.000000e+00 0.000000e+00 0.000000e+00
    outer loop
      vertex   0.000000e+00 9.000000e+00 -7.000000e+00
      vertex   0.000000e+00 9.299029e+00 -7.058182e+00
      vertex   0.000000e+00 9.257343e+00 -7.116113e+00
    endloop
  endfacet
  facet normal -1.000000e+00 0.000000e+00 0.000000e+00
    outer loop
      vertex   0.000000e+00 9.000000e+00 -7.000000e+00
      vertex   0.000000e+00 9.257343e+00 -7.116113e+00
      vertex   0.000000e+00 9.215312e+00 -7.173790e+00
    endloop
  endfacet
  facet normal -1.000000e+00 -0.000000e+00 0.000000e+00
    outer loop
      vertex   0.000000e+00 9.215312e+00 -7.173790e+00
      vertex   0.000000e+00 9.172935e+00 -7.231213e+00
      vertex   0.000000e+00 9.000000e+00 -7.000000e+00
    endloop
  endfacet
  facet normal -1.000000e+00 0.000000e+00 0.000000e+00
    outer loop
      vertex   0.000000e+00 9.000000e+00 -7.000000e+00
      vertex   0.000000e+00 9.172935e+00 -7.231213e+00
      vertex   0.000000e+00 9.130215e+00 -7.288379e+00
    endloop
  endfacet
  facet normal -1.000000e+00 0.000000e+00 0.000000e+00
    outer loop
      vertex   0.000000e+00 9.000000e+00 -7.000000e+00
      vertex   0.000000e+00 9.130215e+00 -7.288379e+00
      vertex   0.000000e+00 9.087151e+00 -7.345286e+00
    endloop
  endfacet
  facet normal -1.000000e+00 -0.000000e+00 0.000000e+00
    outer loop
      vertex   0.000000e+00 9.087151e+00 -7.345286e+00
      vertex   0.000000e+00 9.043746e+00 -7.401934e+00
      vertex   0.000000e+00 9.000000e+00 -7.000000e+00
    endloop
  endfacet
  facet normal -1.000000e+00 0.000000e+00 0.000000e+00
    outer loop
      vertex   0.000000e+00 9.000000e+00 -7.000000e+00
      vertex   0.000000e+00 9.043746e+00 -7.401934e+00
      vertex   0.000000e+00 9.000000e+00 -7.458319e+00
    endloop
  endfacet
  facet normal -3.966453e-13 -1.000000e+00 0.000000e+00
    outer loop
      vertex   0.000000e+00 9.000000e+00 -7.458319e+00
      vertex   6.269832e-02 9.000000e+00 -7.458040e+00
      vertex   0.000000e+00 9.000000e+00 -7.000000e+00
    endloop
  endfacet
  facet normal -8.208891e-13 -1.000000e+00 -5.807220e-14
    outer loop
      vertex   0.000000e+00 9.000000e+00 -7.000000e+00
      vertex   6.269832e-02 9.000000e+00 -7.458040e+00
      vertex   1.253933e-01 9.000000e+00 -7.457200e+00
    endloop
  endfacet
  facet normal -1.214761e-12 -1.000000e+00 -1.660967e-13
    outer loop
      vertex   0.000000e+00 9.000000e+00 -7.000000e+00
      vertex   1.253933e-01 9.000000e+00 -7.457200e+00
      vertex   1.880814e-01 9.000000e+00 -7.455802e+00
    endloop
  endfacet
  facet normal -1.409359e-12 -1.000000e+00 -2.463956e-13
    outer loop
      vertex   1.880814e-01 9.000000e+00 -7.455802e+00
      vertex   2.507590e-01 9.000000e+00 -7.453843e+00
      vertex   0.000000e+00 9.000000e+00 -7.000000e+00
    endloop
  endfacet
  facet normal -1.352050e-12 -1.000000e+00 -2.147311e-13
    outer loop
      vertex   0.000000e+00 9.000000e+00 -7.000000e+00
      vertex   2.507590e-01 9.000000e+00 -7.453843e+00
      vertex   3.134227e-01 9.000000e+00 -7.451325e+00
    endloop
  endfacet
  facet normal -1.131201e-12 -1.000000e+00 -6.136220e-14
    outer loop
      vertex   0.000000e+00 9.000000e+00 -7.000000e+00
      vertex   3.134227e-01 9.000000e+00 -7.451325e+00
      vertex   3.760689e-01 9.000000e+00 -7.448248e+00
    endloop
  endfacet
  facet normal -7.794278e-13 -1.000000e+00 2.337664e-13
    outer loop
      vertex   3.760689e-01 9.000000e+00 -7.448248e+00
      vertex   4.386941e-01 9.000000e+00 -7.444611e+00
      vertex   0.000000e+00 9.000000e+00 -7.000000e+00
    endloop
  endfacet
  facet normal -2.493650e-13 -1.000000e+00 7.567749e-13
    outer loop
      vertex   0.000000e+00 9.000000e+00 -7.000000e+00
      vertex   4.386941e-01 9.000000e+00 -7.444611e+00
      vertex   5.012940e-01 9.000000e+00 -7.440415e+00
    endloop
  endfacet
  facet normal 3.453757e-13 -1.000000e+00 1.433728e-12
    outer loop
      vertex   0.000000e+00 9.000000e+00 -7.000000e+00
      vertex   5.012940e-01 9.000000e+00 -7.440415e+00
      vertex   5.638489e-01 9.000000e+00 -7.435660e+00
    endloop
  endfacet
  facet normal 7.438198e-13 -1.000000e+00 1.949410e-12
    outer loop
      vertex   5.638489e-01 9.000000e+00 -7.435660e+00
      vertex   6.263489e-01 9.000000e+00 -7.430349e+00
      vertex   0.000000e+00 9.000000e+00 -7.000000e+00
    endloop
  endfacet
  facet normal 0.000000e+00 -1.000000e+00 8.668205e-13
    outer loop
      vertex   0.000000e+00 9.000000e+00 -7.000000e+00
      vertex   6.263489e-01 9.000000e+00 -7.430349e+00
      vertex   1.000000e+00 9.000000e+00 -7.000000e+00
    endloop
  endfacet
  facet normal 1.181310e-12 -1.000000e+00 -1.588549e-13
    outer loop
      vertex   1.000000e+00 9.000000e+00 -7.000000e+00
      vertex   6.263489e-01 9.000000e+00 -7.430349e+00
      vertex   6.887904e-01 9.000000e+00 -7.424480e+00
    endloop
  endfacet
  facet normal 1.338121e-12 -1.000000e+00 -2.738213e-13
    outer loop
      vertex   1.000000e+00 9.000000e+00 -7.000000e+00
      vertex   6.887904e-01 9.000000e+00 -7.424480e+00
      vertex   7.511701e-01 9.000000e+00 -7.418056e+00
    endloop
  endfacet
  facet normal 1.342240e-12 -1.000000e+00 -2.762727e-13
    outer loop
      vertex   7.511701e-01 9.000000e+00 -7.418056e+00
      vertex   8.134843e-01 9.000000e+00 -7.411077e+00
      vertex   1.000000e+00 9.000000e+00 -7.000000e+00
    endloop
  endfacet
  facet normal 1.104845e-12 -1.000000e+00 -1.685610e-13
    outer loop
      vertex   1.000000e+00 9.000000e+00 -7.000000e+00
      vertex   8.134843e-01 9.000000e+00 -7.411077e+00
      vertex   8.757297e-01 9.000000e+00 -7.403543e+00
    endloop
  endfacet
  facet normal 8.398772e-13 -1.000000e+00 -8.696450e-14
    outer loop
      vertex   1.000000e+00 9.000000e+00 -7.000000e+00
      vertex   8.757297e-01 9.000000e+00 -7.403543e+00
      vertex   9.379027e-01 9.000000e+00 -7.395454e+00
    endloop
  endfacet
  facet normal 2.860604e-13 -1.000000e+00 0.000000e+00
    outer loop
      vertex   9.379027e-01 9.000000e+00 -7.395454e+00
      vertex   1.000000e+00 9.000000e+00 -7.386813e+00
      vertex   1.000000e+00 9.000000e+00 -7.000000e+00
    endloop
  endfacet
  facet normal 0.000000e+00 0.000000e+00 1.000000e+00
    outer loop
      vertex   1.000000e+00 9.286682e+00 -7.000000e+00
      vertex   9.377059e-01 9.293179e+00 -7.000000e+00
      vertex   1.000000e+00 9.000000e+00 -7.000000e+00
    endloop
  endfacet
  facet normal 0.000000e+00 0.000000e+00 1.000000e+00
    outer loop
      vertex   1.000000e+00 9.000000e+00 -7.000000e+00
      vertex   9.377059e-01 9.293179e+00 -7.000000e+00
      vertex   8.753745e-01 9.299257e+00 -7.000000e+00
    endloop
  endfacet
  facet normal 0.000000e+00 0.000000e+00 1.000000e+00
    outer loop
      vertex   1.000000e+00 9.000000e+00 -7.000000e+00
      vertex   8.753745e-01 9.299257e+00 -7.000000e+00
      vertex   8.130079e-01 9.304917e+00 -7.000000e+00
    endloop
  endfacet
  facet normal 0.000000e+00 0.000000e+00 1.000000e+00
    outer loop
      vertex   8.130079e-01 9.304917e+00 -7.000000e+00
      vertex   7.506082e-01 9.310159e+00 -7.000000e+00
      vertex   1.000000e+00 9.000000e+00 -7.000000e+00
    endloop
  endfacet
  facet normal 0.000000e+00 0.000000e+00 1.000000e+00
    outer loop
      vertex   1.000000e+00 9.000000e+00 -7.000000e+00
      vertex   7.506082e-01 9.310159e+00 -7.000000e+00
      vertex   6.881775e-01 9.314981e+00 -7.000000e+00
    endloop
  endfacet
  facet normal 0.000000e+00 0.000000e+00 1.000000e+00
    outer loop
      vertex   1.000000e+00 9.000000e+00 -7.000000e+00
      vertex   6.881775e-01 9.314981e+00 -7.000000e+00
      vertex   6.257180e-01 9.319385e+00 -7.000000e+00
    endloop
  endfacet
  facet normal 0.000000e+00 0.000000e+00 1.000000e+00
    outer loop
      vertex   1.000000e+00 9.000000e+00 -7.000000e+00
      vertex   6.257180e-01 9.319385e+00 -7.000000e+00
      vertex   0.000000e+00 9.000000e+00 -7.000000e+00
    endloop
  endfacet
  facet normal 0.000000e+00 0.000000e+00 1.000000e+00
    outer loop
      vertex   0.000000e+00 9.000000e+00 -7.000000e+00
      vertex   6.257180e-01 9.319385e+00 -7.000000e+00
      vertex   5.632317e-01 9.323370e+00 -7.000000e+00
    endloop
  endfacet
  facet normal 0.000000e+00 0.000000e+00 1.000000e+00
    outer loop
      vertex   0.000000e+00 9.000000e+00 -7.000000e+00
      vertex   5.632317e-01 9.323370e+00 -7.000000e+00
      vertex   5.007208e-01 9.326936e+00 -7.000000e+00
    endloop
  endfacet
  facet normal 0.000000e+00 0.000000e+00 1.000000e+00
    outer loop
      vertex   5.007208e-01 9.326936e+00 -7.000000e+00
      vertex   4.381874e-01 9.330083e+00 -7.000000e+00
      vertex   0.000000e+00 9.000000e+00 -7.000000e+00
    endloop
  endfacet
  facet normal 0.000000e+00 0.000000e+00 1.000000e+00
    outer loop
      vertex   0.000000e+00 9.000000e+00 -7.000000e+00
      vertex   4.381874e-01 9.330083e+00 -7.000000e+00
      vertex   3.756335e-01 9.332811e+00 -7.000000e+00
    endloop
  endfacet
  facet normal 0.000000e+00 0.000000e+00 1.000000e+00
    outer loop
      vertex   0.000000e+00 9.000000e+00 -7.000000e+00
      vertex   3.756335e-01 9.332811e+00 -7.000000e+00
      vertex   3.130614e-01 9.335120e+00 -7.000000e+00
    endloop
  endfacet
  facet normal 0.000000e+00 0.000000e+00 1.000000e+00
    outer loop
      vertex   3.130614e-01 9.335120e+00 -7.000000e+00
      vertex   2.504730e-01 9.337009e+00 -7.000000e+00
      vertex   0.000000e+00 9.000000e+00 -7.000000e+00
    endloop
  endfacet
  facet normal 0.000000e+00 0.000000e+00 1.000000e+00
    outer loop
      vertex   0.000000e+00 9.000000e+00 -7.000000e+00
      vertex   2.504730e-01 9.337009e+00 -7.000000e+00
      vertex   1.878706e-01 9.338478e+00 -7.000000e+00
    endloop
  endfacet
  facet normal 0.000000e+00 0.000000e+00 1.000000e+00
    outer loop
      vertex   0.000000e+00 9.000000e+00 -7.000000e+00
      vertex   1.878706e-01 9.338478e+00 -7.000000e+00
      vertex   1.252562e-01 9.339528e+00 -7.000000e+00
    endloop
  endfacet
  facet normal 0.000000e+00 0.000000e+00 1.000000e+00
    outer loop
      vertex   1.252562e-01 9.339528e+00 -7.000000e+00
      vertex   6.263198e-02 9.340158e+00 -7.000000e+00
      vertex   0.000000e+00 9.000000e+00 -7.000000e+00
    endloop
  endfacet
  facet normal 0.000000e+00 0.000000e+00 1.000000e+00
    outer loop
      vertex   0.000000e+00 9.000000e+00 -7.000000e+00
      vertex   6.263198e-02 9.340158e+00 -7.000000e+00
      vertex   0.000000e+00 9.340368e+00 -7.000000e+00
    endloop
  endfacet
  facet normal 1.000000e+00 0.000000e+00 0.000000e+00
    outer loop
      vertex   1.000000e+00 9.000000e+00 -7.386813e+00
      vertex   1.000000e+00 9.073142e+00 -7.291212e+00
      vertex   1.000000e+00 9.000000e+00 -7.000000e+00
    endloop
  endfacet
  facet normal 1.000000e+00 0.000000e+00 0.000000e+00
    outer loop
      vertex   1.000000e+00 9.000000e+00 -7.000000e+00
      vertex   1.000000e+00 9.073142e+00 -7.291212e+00
      vertex   1.000000e+00 9.145307e+00 -7.194870e+00
    endloop
  endfacet
  facet normal 1.000000e+00 0.000000e+00 0.000000e+00
    outer loop
      vertex   1.000000e+00 9.000000e+00 -7.000000e+00
      vertex   1.000000e+00 9.145307e+00 -7.194870e+00
      vertex   1.000000e+00 9.216488e+00 -7.097797e+00
    endloop
  endfacet
  facet normal 1.000000e+00 0.000000e+00 -0.000000e+00
    outer loop
      vertex   1.000000e+00 9.216488e+00 -7.097797e+00
      vertex   1.000000e+00 9.286682e+00 -7.000000e+00
      vertex   1.000000e+00 9.000000e+00 -7.000000e+00
    endloop
  endfacet
endsolid
