solid ASCII
  facet normal 7.794746e-01 4.628626e-01 -4.221109e-01
    outer loop
      vertex   -8.763536e+00 -5.000000e+00 5.128657e+00
      vertex   -8.833208e+00 -5.000000e+00 5.000000e+00
      vertex   -8.787984e+00 -4.960376e+00 5.126961e+00
    endloop
  endfacet
  facet normal 7.822142e-01 4.585563e-01 -4.217428e-01
    outer loop
      vertex   -8.787984e+00 -4.960376e+00 5.126961e+00
      vertex   -8.833208e+00 -5.000000e+00 5.000000e+00
      vertex   -8.875843e+00 -4.927272e+00 5.000000e+00
    endloop
  endfacet
  facet normal 7.825291e-01 4.575843e-01 -4.222141e-01
    outer loop
      vertex   -8.787984e+00 -4.960376e+00 5.126961e+00
      vertex   -8.875843e+00 -4.927272e+00 5.000000e+00
      vertex   -8.828932e+00 -4.890349e+00 5.126961e+00
    endloop
  endfacet
  facet normal 7.860386e-01 4.518703e-01 -4.218490e-01
    outer loop
      vertex   -8.828932e+00 -4.890349e+00 5.126961e+00
      vertex   -8.875843e+00 -4.927272e+00 5.000000e+00
      vertex   -8.917855e+00 -4.854192e+00 5.000000e+00
    endloop
  endfacet
  facet normal 7.862628e-01 4.511381e-01 -4.222146e-01
    outer loop
      vertex   -8.828932e+00 -4.890349e+00 5.126961e+00
      vertex   -8.917855e+00 -4.854192e+00 5.000000e+00
      vertex   -8.869253e+00 -4.820076e+00 5.126961e+00
    endloop
  endfacet
  facet normal 7.898049e-01 4.451484e-01 -4.219611e-01
    outer loop
      vertex   -8.869253e+00 -4.820076e+00 5.126961e+00
      vertex   -8.917855e+00 -4.854192e+00 5.000000e+00
      vertex   -8.959241e+00 -4.780762e+00 5.000000e+00
    endloop
  endfacet
  facet normal 7.899434e-01 4.446684e-01 -4.222079e-01
    outer loop
      vertex   -8.869253e+00 -4.820076e+00 5.126961e+00
      vertex   -8.959241e+00 -4.780762e+00 5.000000e+00
      vertex   -8.908944e+00 -4.749565e+00 5.126961e+00
    endloop
  endfacet
  facet normal 7.935128e-01 4.383908e-01 -4.220794e-01
    outer loop
      vertex   -8.908944e+00 -4.749565e+00 5.126961e+00
      vertex   -8.959241e+00 -4.780762e+00 5.000000e+00
      vertex   -9.000000e+00 -4.706986e+00 5.000000e+00
    endloop
  endfacet
  facet normal 7.935709e-01 4.381758e-01 -4.221932e-01
    outer loop
      vertex   -8.908944e+00 -4.749565e+00 5.126961e+00
      vertex   -9.000000e+00 -4.706986e+00 5.000000e+00
      vertex   -8.948004e+00 -4.678825e+00 5.126961e+00
    endloop
  endfacet
  facet normal 7.957696e-01 4.341605e-01 -4.222030e-01
    outer loop
      vertex   -8.948004e+00 -4.678825e+00 5.126961e+00
      vertex   -9.000000e+00 -4.706986e+00 5.000000e+00
      vertex   -9.000000e+00 -4.623607e+00 5.085740e+00
    endloop
  endfacet
  facet normal 7.954189e-01 4.307263e-01 -4.263609e-01
    outer loop
      vertex   -8.948004e+00 -4.678825e+00 5.126961e+00
      vertex   -9.000000e+00 -4.623607e+00 5.085740e+00
      vertex   -8.986430e+00 -4.607863e+00 5.126961e+00
    endloop
  endfacet
  facet normal 8.009892e-01 4.218502e-01 -4.248044e-01
    outer loop
      vertex   -8.986430e+00 -4.607863e+00 5.126961e+00
      vertex   -9.000000e+00 -4.623607e+00 5.085740e+00
      vertex   -9.000000e+00 -4.538768e+00 5.169989e+00
    endloop
  endfacet
  facet normal 7.945700e-01 4.256731e-01 -4.329676e-01
    outer loop
      vertex   -8.986430e+00 -4.607863e+00 5.126961e+00
      vertex   -9.000000e+00 -4.538768e+00 5.169989e+00
      vertex   -8.932370e+00 -4.580143e+00 5.253425e+00
    endloop
  endfacet
  facet normal 7.951981e-01 4.222217e-01 -4.351882e-01
    outer loop
      vertex   -8.932370e+00 -4.580143e+00 5.253425e+00
      vertex   -9.000000e+00 -4.538768e+00 5.169989e+00
      vertex   -8.969934e+00 -4.509396e+00 5.253425e+00
    endloop
  endfacet
  facet normal 7.915348e-01 4.202767e-01 -4.436668e-01
    outer loop
      vertex   -8.932370e+00 -4.580143e+00 5.253425e+00
      vertex   -8.969934e+00 -4.509396e+00 5.253425e+00
      vertex   -8.914218e+00 -4.481386e+00 5.379360e+00
    endloop
  endfacet
  facet normal 7.946271e-01 4.143474e-01 -4.437162e-01
    outer loop
      vertex   -8.914218e+00 -4.481386e+00 5.379360e+00
      vertex   -8.969934e+00 -4.509396e+00 5.253425e+00
      vertex   -9.000000e+00 -4.452486e+00 5.252725e+00
    endloop
  endfacet
  facet normal 7.948079e-01 4.137141e-01 -4.439832e-01
    outer loop
      vertex   -8.914218e+00 -4.481386e+00 5.379360e+00
      vertex   -9.000000e+00 -4.452486e+00 5.252725e+00
      vertex   -8.950920e+00 -4.410875e+00 5.379360e+00
    endloop
  endfacet
  facet normal 7.965251e-01 4.107364e-01 -4.436703e-01
    outer loop
      vertex   -8.950920e+00 -4.410875e+00 5.379360e+00
      vertex   -9.000000e+00 -4.452486e+00 5.252725e+00
      vertex   -9.000000e+00 -4.364776e+00 5.333924e+00
    endloop
  endfacet
  facet normal 7.963727e-01 4.062904e-01 -4.480164e-01
    outer loop
      vertex   -8.950920e+00 -4.410875e+00 5.379360e+00
      vertex   -9.000000e+00 -4.364776e+00 5.333924e+00
      vertex   -8.986993e+00 -4.340168e+00 5.379360e+00
    endloop
  endfacet
  facet normal 8.023106e-01 3.977398e-01 -4.450852e-01
    outer loop
      vertex   -8.986993e+00 -4.340168e+00 5.379360e+00
      vertex   -9.000000e+00 -4.364776e+00 5.333924e+00
      vertex   -9.000000e+00 -4.275656e+00 5.413564e+00
    endloop
  endfacet
  facet normal 7.952664e-01 4.012835e-01 -4.544479e-01
    outer loop
      vertex   -8.986993e+00 -4.340168e+00 5.379360e+00
      vertex   -9.000000e+00 -4.275656e+00 5.413564e+00
      vertex   -8.929387e+00 -4.312347e+00 5.504735e+00
    endloop
  endfacet
  facet normal 7.959048e-01 3.978950e-01 -4.563061e-01
    outer loop
      vertex   -8.929387e+00 -4.312347e+00 5.504735e+00
      vertex   -9.000000e+00 -4.275656e+00 5.413564e+00
      vertex   -8.964602e+00 -4.241907e+00 5.504735e+00
    endloop
  endfacet
  facet normal 7.918332e-01 3.958595e-01 -4.650757e-01
    outer loop
      vertex   -8.929387e+00 -4.312347e+00 5.504735e+00
      vertex   -8.964602e+00 -4.241907e+00 5.504735e+00
      vertex   -8.905332e+00 -4.213862e+00 5.629518e+00
    endloop
  endfacet
  facet normal 7.950112e-01 3.893754e-01 -4.651279e-01
    outer loop
      vertex   -8.905332e+00 -4.213862e+00 5.629518e+00
      vertex   -8.964602e+00 -4.241907e+00 5.504735e+00
      vertex   -8.939691e+00 -4.143710e+00 5.629518e+00
    endloop
  endfacet
  facet normal 7.899522e-01 3.868977e-01 -4.756950e-01
    outer loop
      vertex   -8.905332e+00 -4.213862e+00 5.629518e+00
      vertex   -8.939691e+00 -4.143710e+00 5.629518e+00
      vertex   -8.878757e+00 -4.115466e+00 5.753678e+00
    endloop
  endfacet
  facet normal 7.930531e-01 3.804362e-01 -4.757469e-01
    outer loop
      vertex   -8.878757e+00 -4.115466e+00 5.753678e+00
      vertex   -8.939691e+00 -4.143710e+00 5.629518e+00
      vertex   -8.912262e+00 -4.045623e+00 5.753678e+00
    endloop
  endfacet
  facet normal 7.878468e-01 3.779387e-01 -4.862713e-01
    outer loop
      vertex   -8.878757e+00 -4.115466e+00 5.753678e+00
      vertex   -8.912262e+00 -4.045623e+00 5.753678e+00
      vertex   -8.849664e+00 -4.017208e+00 5.877182e+00
    endloop
  endfacet
  facet normal 7.873073e-01 3.790762e-01 -4.862596e-01
    outer loop
      vertex   -8.849664e+00 -4.017208e+00 5.877182e+00
      vertex   -8.912262e+00 -4.045623e+00 5.753678e+00
      vertex   -8.891721e+00 -4.000000e+00 5.822502e+00
    endloop
  endfacet
  facet normal 7.895147e-01 3.673570e-01 -4.916455e-01
    outer loop
      vertex   -8.849664e+00 -4.017208e+00 5.877182e+00
      vertex   -8.891721e+00 -4.000000e+00 5.822502e+00
      vertex   -8.836290e+00 -4.000000e+00 5.911517e+00
    endloop
  endfacet
  facet normal 7.985974e-01 4.165593e-01 -4.344198e-01
    outer loop
      vertex   -9.000000e+00 -4.538768e+00 5.169989e+00
      vertex   -9.000000e+00 -4.452486e+00 5.252725e+00
      vertex   -8.969934e+00 -4.509396e+00 5.253425e+00
    endloop
  endfacet
  facet normal 7.988042e-01 3.928873e-01 -4.555781e-01
    outer loop
      vertex   -9.000000e+00 -4.275656e+00 5.413564e+00
      vertex   -9.000000e+00 -4.185142e+00 5.491622e+00
      vertex   -8.964602e+00 -4.241907e+00 5.504735e+00
    endloop
  endfacet
  facet normal 7.967041e-01 3.902046e-01 -4.615224e-01
    outer loop
      vertex   -8.964602e+00 -4.241907e+00 5.504735e+00
      vertex   -9.000000e+00 -4.185142e+00 5.491622e+00
      vertex   -8.999189e+00 -4.171288e+00 5.504735e+00
    endloop
  endfacet
  facet normal 7.950112e-01 3.893754e-01 -4.651279e-01
    outer loop
      vertex   -8.964602e+00 -4.241907e+00 5.504735e+00
      vertex   -8.999189e+00 -4.171288e+00 5.504735e+00
      vertex   -8.939691e+00 -4.143710e+00 5.629518e+00
    endloop
  endfacet
  facet normal 7.967145e-01 3.858409e-01 -4.651589e-01
    outer loop
      vertex   -8.939691e+00 -4.143710e+00 5.629518e+00
      vertex   -8.999189e+00 -4.171288e+00 5.504735e+00
      vertex   -9.000000e+00 -4.093251e+00 5.568076e+00
    endloop
  endfacet
  facet normal 7.967168e-01 3.821938e-01 -4.681563e-01
    outer loop
      vertex   -8.939691e+00 -4.143710e+00 5.629518e+00
      vertex   -9.000000e+00 -4.093251e+00 5.568076e+00
      vertex   -8.973425e+00 -4.073388e+00 5.629518e+00
    endloop
  endfacet
  facet normal 8.004579e-01 3.751272e-01 -4.674899e-01
    outer loop
      vertex   -8.973425e+00 -4.073388e+00 5.629518e+00
      vertex   -9.000000e+00 -4.093251e+00 5.568076e+00
      vertex   -9.000000e+00 -4.000000e+00 5.642904e+00
    endloop
  endfacet
  facet normal 7.962141e-01 3.749305e-01 -4.748371e-01
    outer loop
      vertex   -8.973425e+00 -4.073388e+00 5.629518e+00
      vertex   -9.000000e+00 -4.000000e+00 5.642904e+00
      vertex   -8.946292e+00 -4.000000e+00 5.732962e+00
    endloop
  endfacet
  facet normal 8.326954e-01 3.541580e-01 -4.256647e-01
    outer loop
      vertex   -9.000000e+00 -4.185142e+00 5.491622e+00
      vertex   -9.000000e+00 -4.093251e+00 5.568076e+00
      vertex   -8.999189e+00 -4.171288e+00 5.504735e+00
    endloop
  endfacet
  facet normal 7.947725e-01 3.767908e-01 -4.757787e-01
    outer loop
      vertex   -8.973425e+00 -4.073388e+00 5.629518e+00
      vertex   -8.946292e+00 -4.000000e+00 5.732962e+00
      vertex   -8.912262e+00 -4.045623e+00 5.753678e+00
    endloop
  endfacet
  facet normal 7.926618e-01 3.718938e-01 -4.830965e-01
    outer loop
      vertex   -8.912262e+00 -4.045623e+00 5.753678e+00
      vertex   -8.946292e+00 -4.000000e+00 5.732962e+00
      vertex   -8.891721e+00 -4.000000e+00 5.822502e+00
    endloop
  endfacet
  facet normal 7.839939e-01 3.760905e-01 -4.938720e-01
    outer loop
      vertex   -8.849664e+00 -4.017208e+00 5.877182e+00
      vertex   -8.836290e+00 -4.000000e+00 5.911517e+00
      vertex   -8.816395e+00 -4.086560e+00 5.877182e+00
    endloop
  endfacet
  facet normal 7.815428e-01 3.768377e-01 -4.971762e-01
    outer loop
      vertex   -8.816395e+00 -4.086560e+00 5.877182e+00
      vertex   -8.836290e+00 -4.000000e+00 5.911517e+00
      vertex   -8.780001e+00 -4.000000e+00 6.000000e+00
    endloop
  endfacet
  facet normal 7.799241e-01 3.788998e-01 -4.981499e-01
    outer loop
      vertex   -8.816395e+00 -4.086560e+00 5.877182e+00
      vertex   -8.780001e+00 -4.000000e+00 6.000000e+00
      vertex   -8.717520e+00 -4.128611e+00 6.000000e+00
    endloop
  endfacet
  facet normal 7.741032e-01 3.907605e-01 -4.980668e-01
    outer loop
      vertex   -8.653099e+00 -4.256230e+00 6.000000e+00
      vertex   -8.748011e+00 -4.224754e+00 5.877182e+00
      vertex   -8.717520e+00 -4.128611e+00 6.000000e+00
    endloop
  endfacet
  facet normal 7.763794e-01 3.881337e-01 -4.965756e-01
    outer loop
      vertex   -8.717520e+00 -4.128611e+00 6.000000e+00
      vertex   -8.748011e+00 -4.224754e+00 5.877182e+00
      vertex   -8.782510e+00 -4.155744e+00 5.877182e+00
    endloop
  endfacet
  facet normal 7.794189e-01 3.817388e-01 -4.967712e-01
    outer loop
      vertex   -8.717520e+00 -4.128611e+00 6.000000e+00
      vertex   -8.782510e+00 -4.155744e+00 5.877182e+00
      vertex   -8.816395e+00 -4.086560e+00 5.877182e+00
    endloop
  endfacet
  facet normal 7.847674e-01 3.843583e-01 -4.862189e-01
    outer loop
      vertex   -8.816395e+00 -4.086560e+00 5.877182e+00
      vertex   -8.782510e+00 -4.155744e+00 5.877182e+00
      vertex   -8.844633e+00 -4.185140e+00 5.753678e+00
    endloop
  endfacet
  facet normal 7.847674e-01 3.843583e-01 -4.862189e-01
    outer loop
      vertex   -8.816395e+00 -4.086560e+00 5.877182e+00
      vertex   -8.844633e+00 -4.185140e+00 5.753678e+00
      vertex   -8.878757e+00 -4.115466e+00 5.753678e+00
    endloop
  endfacet
  facet normal 7.899522e-01 3.868977e-01 -4.756950e-01
    outer loop
      vertex   -8.878757e+00 -4.115466e+00 5.753678e+00
      vertex   -8.844633e+00 -4.185140e+00 5.753678e+00
      vertex   -8.905332e+00 -4.213862e+00 5.629518e+00
    endloop
  endfacet
  facet normal 7.681401e-01 4.025373e-01 -4.979202e-01
    outer loop
      vertex   -8.586751e+00 -4.382839e+00 6.000000e+00
      vertex   -8.677170e+00 -4.362217e+00 5.877182e+00
      vertex   -8.653099e+00 -4.256230e+00 6.000000e+00
    endloop
  endfacet
  facet normal 7.698698e-01 4.007333e-01 -4.967024e-01
    outer loop
      vertex   -8.653099e+00 -4.256230e+00 6.000000e+00
      vertex   -8.677170e+00 -4.362217e+00 5.877182e+00
      vertex   -8.712897e+00 -4.293580e+00 5.877182e+00
    endloop
  endfacet
  facet normal 7.732484e-01 3.944929e-01 -4.964497e-01
    outer loop
      vertex   -8.653099e+00 -4.256230e+00 6.000000e+00
      vertex   -8.712897e+00 -4.293580e+00 5.877182e+00
      vertex   -8.748011e+00 -4.224754e+00 5.877182e+00
    endloop
  endfacet
  facet normal 7.784425e-01 3.971428e-01 -4.861119e-01
    outer loop
      vertex   -8.748011e+00 -4.224754e+00 5.877182e+00
      vertex   -8.712897e+00 -4.293580e+00 5.877182e+00
      vertex   -8.774527e+00 -4.323951e+00 5.753678e+00
    endloop
  endfacet
  facet normal 7.784425e-01 3.971428e-01 -4.861119e-01
    outer loop
      vertex   -8.748011e+00 -4.224754e+00 5.877182e+00
      vertex   -8.774527e+00 -4.323951e+00 5.753678e+00
      vertex   -8.809889e+00 -4.254637e+00 5.753678e+00
    endloop
  endfacet
  facet normal 7.835833e-01 3.997655e-01 -4.755889e-01
    outer loop
      vertex   -8.809889e+00 -4.254637e+00 5.753678e+00
      vertex   -8.774527e+00 -4.323951e+00 5.753678e+00
      vertex   -8.834745e+00 -4.353625e+00 5.629518e+00
    endloop
  endfacet
  facet normal 7.835833e-01 3.997655e-01 -4.755889e-01
    outer loop
      vertex   -8.809889e+00 -4.254637e+00 5.753678e+00
      vertex   -8.834745e+00 -4.353625e+00 5.629518e+00
      vertex   -8.870350e+00 -4.283836e+00 5.629518e+00
    endloop
  endfacet
  facet normal 7.885992e-01 4.023245e-01 -4.650229e-01
    outer loop
      vertex   -8.870350e+00 -4.283836e+00 5.629518e+00
      vertex   -8.834745e+00 -4.353625e+00 5.629518e+00
      vertex   -8.893545e+00 -4.382601e+00 5.504735e+00
    endloop
  endfacet
  facet normal 7.885992e-01 4.023245e-01 -4.650229e-01
    outer loop
      vertex   -8.870350e+00 -4.283836e+00 5.629518e+00
      vertex   -8.893545e+00 -4.382601e+00 5.504735e+00
      vertex   -8.929387e+00 -4.312347e+00 5.504735e+00
    endloop
  endfacet
  facet normal 7.934902e-01 4.048198e-01 -4.544165e-01
    outer loop
      vertex   -8.929387e+00 -4.312347e+00 5.504735e+00
      vertex   -8.893545e+00 -4.382601e+00 5.504735e+00
      vertex   -8.950920e+00 -4.410875e+00 5.379360e+00
    endloop
  endfacet
  facet normal 7.934902e-01 4.048198e-01 -4.544165e-01
    outer loop
      vertex   -8.929387e+00 -4.312347e+00 5.504735e+00
      vertex   -8.950920e+00 -4.410875e+00 5.379360e+00
      vertex   -8.986993e+00 -4.340168e+00 5.379360e+00
    endloop
  endfacet
  facet normal 7.620396e-01 4.142321e-01 -4.977022e-01
    outer loop
      vertex   -8.518490e+00 -4.508415e+00 6.000000e+00
      vertex   -8.603883e+00 -4.498888e+00 5.877182e+00
      vertex   -8.586751e+00 -4.382839e+00 6.000000e+00
    endloop
  endfacet
  facet normal 7.631056e-01 4.132284e-01 -4.969026e-01
    outer loop
      vertex   -8.586751e+00 -4.382839e+00 6.000000e+00
      vertex   -8.603883e+00 -4.498888e+00 5.877182e+00
      vertex   -8.640832e+00 -4.430655e+00 5.877182e+00
    endloop
  endfacet
  facet normal 7.668295e-01 4.071591e-01 -4.961794e-01
    outer loop
      vertex   -8.586751e+00 -4.382839e+00 6.000000e+00
      vertex   -8.640832e+00 -4.430655e+00 5.877182e+00
      vertex   -8.677170e+00 -4.362217e+00 5.877182e+00
    endloop
  endfacet
  facet normal 7.718971e-01 4.098498e-01 -4.860021e-01
    outer loop
      vertex   -8.677170e+00 -4.362217e+00 5.877182e+00
      vertex   -8.640832e+00 -4.430655e+00 5.877182e+00
      vertex   -8.701952e+00 -4.461995e+00 5.753678e+00
    endloop
  endfacet
  facet normal 7.718971e-01 4.098498e-01 -4.860021e-01
    outer loop
      vertex   -8.677170e+00 -4.362217e+00 5.877182e+00
      vertex   -8.701952e+00 -4.461995e+00 5.753678e+00
      vertex   -8.738548e+00 -4.393073e+00 5.753678e+00
    endloop
  endfacet
  facet normal 7.769923e-01 4.125551e-01 -4.754800e-01
    outer loop
      vertex   -8.738548e+00 -4.393073e+00 5.753678e+00
      vertex   -8.701952e+00 -4.461995e+00 5.753678e+00
      vertex   -8.761673e+00 -4.492617e+00 5.629518e+00
    endloop
  endfacet
  facet normal 7.769923e-01 4.125551e-01 -4.754800e-01
    outer loop
      vertex   -8.738548e+00 -4.393073e+00 5.753678e+00
      vertex   -8.761673e+00 -4.492617e+00 5.629518e+00
      vertex   -8.798519e+00 -4.423222e+00 5.629518e+00
    endloop
  endfacet
  facet normal 7.819638e-01 4.151948e-01 -4.649150e-01
    outer loop
      vertex   -8.798519e+00 -4.423222e+00 5.629518e+00
      vertex   -8.761673e+00 -4.492617e+00 5.629518e+00
      vertex   -8.819986e+00 -4.522518e+00 5.504735e+00
    endloop
  endfacet
  facet normal 7.819638e-01 4.151948e-01 -4.649150e-01
    outer loop
      vertex   -8.798519e+00 -4.423222e+00 5.629518e+00
      vertex   -8.819986e+00 -4.522518e+00 5.504735e+00
      vertex   -8.857078e+00 -4.452660e+00 5.504735e+00
    endloop
  endfacet
  facet normal 7.868113e-01 4.177686e-01 -4.543098e-01
    outer loop
      vertex   -8.857078e+00 -4.452660e+00 5.504735e+00
      vertex   -8.819986e+00 -4.522518e+00 5.504735e+00
      vertex   -8.876887e+00 -4.551694e+00 5.379360e+00
    endloop
  endfacet
  facet normal 7.868113e-01 4.177686e-01 -4.543098e-01
    outer loop
      vertex   -8.857078e+00 -4.452660e+00 5.504735e+00
      vertex   -8.876887e+00 -4.551694e+00 5.379360e+00
      vertex   -8.914218e+00 -4.481386e+00 5.379360e+00
    endloop
  endfacet
  facet normal 7.915348e-01 4.202767e-01 -4.436668e-01
    outer loop
      vertex   -8.914218e+00 -4.481386e+00 5.379360e+00
      vertex   -8.876887e+00 -4.551694e+00 5.379360e+00
      vertex   -8.932370e+00 -4.580143e+00 5.253425e+00
    endloop
  endfacet
  facet normal 7.558062e-01 4.258465e-01 -4.974050e-01
    outer loop
      vertex   -8.448328e+00 -4.632940e+00 6.000000e+00
      vertex   -8.528161e+00 -4.634706e+00 5.877182e+00
      vertex   -8.518490e+00 -4.508415e+00 6.000000e+00
    endloop
  endfacet
  facet normal 7.560856e-01 4.256094e-01 -4.971833e-01
    outer loop
      vertex   -8.518490e+00 -4.508415e+00 6.000000e+00
      vertex   -8.528161e+00 -4.634706e+00 5.877182e+00
      vertex   -8.566326e+00 -4.566907e+00 5.877182e+00
    endloop
  endfacet
  facet normal 7.601600e-01 4.197278e-01 -4.959691e-01
    outer loop
      vertex   -8.518490e+00 -4.508415e+00 6.000000e+00
      vertex   -8.566326e+00 -4.566907e+00 5.877182e+00
      vertex   -8.603883e+00 -4.498888e+00 5.877182e+00
    endloop
  endfacet
  facet normal 7.651325e-01 4.224733e-01 -4.858895e-01
    outer loop
      vertex   -8.603883e+00 -4.498888e+00 5.877182e+00
      vertex   -8.566326e+00 -4.566907e+00 5.877182e+00
      vertex   -8.626919e+00 -4.599211e+00 5.753678e+00
    endloop
  endfacet
  facet normal 7.651325e-01 4.224733e-01 -4.858895e-01
    outer loop
      vertex   -8.603883e+00 -4.498888e+00 5.877182e+00
      vertex   -8.626919e+00 -4.599211e+00 5.753678e+00
      vertex   -8.664742e+00 -4.530710e+00 5.753678e+00
    endloop
  endfacet
  facet normal 7.701807e-01 4.252607e-01 -4.753684e-01
    outer loop
      vertex   -8.664742e+00 -4.530710e+00 5.753678e+00
      vertex   -8.626919e+00 -4.599211e+00 5.753678e+00
      vertex   -8.686124e+00 -4.630775e+00 5.629518e+00
    endloop
  endfacet
  facet normal 7.701807e-01 4.252607e-01 -4.753684e-01
    outer loop
      vertex   -8.664742e+00 -4.530710e+00 5.753678e+00
      vertex   -8.686124e+00 -4.630775e+00 5.629518e+00
      vertex   -8.724207e+00 -4.561804e+00 5.629518e+00
    endloop
  endfacet
  facet normal 7.751062e-01 4.279804e-01 -4.648045e-01
    outer loop
      vertex   -8.724207e+00 -4.561804e+00 5.629518e+00
      vertex   -8.686124e+00 -4.630775e+00 5.629518e+00
      vertex   -8.743935e+00 -4.661595e+00 5.504735e+00
    endloop
  endfacet
  facet normal 7.751062e-01 4.279804e-01 -4.648045e-01
    outer loop
      vertex   -8.724207e+00 -4.561804e+00 5.629518e+00
      vertex   -8.743935e+00 -4.661595e+00 5.504735e+00
      vertex   -8.782271e+00 -4.592165e+00 5.504735e+00
    endloop
  endfacet
  facet normal 7.799089e-01 4.306322e-01 -4.542004e-01
    outer loop
      vertex   -8.782271e+00 -4.592165e+00 5.504735e+00
      vertex   -8.743935e+00 -4.661595e+00 5.504735e+00
      vertex   -8.800345e+00 -4.691668e+00 5.379360e+00
    endloop
  endfacet
  facet normal 7.799089e-01 4.306322e-01 -4.542004e-01
    outer loop
      vertex   -8.782271e+00 -4.592165e+00 5.504735e+00
      vertex   -8.800345e+00 -4.691668e+00 5.379360e+00
      vertex   -8.838929e+00 -4.621791e+00 5.379360e+00
    endloop
  endfacet
  facet normal 7.845887e-01 4.332162e-01 -4.435587e-01
    outer loop
      vertex   -8.838929e+00 -4.621791e+00 5.379360e+00
      vertex   -8.800345e+00 -4.691668e+00 5.379360e+00
      vertex   -8.855350e+00 -4.720993e+00 5.253425e+00
    endloop
  endfacet
  facet normal 7.845887e-01 4.332162e-01 -4.435587e-01
    outer loop
      vertex   -8.838929e+00 -4.621791e+00 5.379360e+00
      vertex   -8.855350e+00 -4.720993e+00 5.253425e+00
      vertex   -8.894174e+00 -4.650678e+00 5.253425e+00
    endloop
  endfacet
  facet normal 7.891455e-01 4.357323e-01 -4.328820e-01
    outer loop
      vertex   -8.894174e+00 -4.650678e+00 5.253425e+00
      vertex   -8.855350e+00 -4.720993e+00 5.253425e+00
      vertex   -8.908944e+00 -4.749565e+00 5.126961e+00
    endloop
  endfacet
  facet normal 7.891455e-01 4.357323e-01 -4.328820e-01
    outer loop
      vertex   -8.894174e+00 -4.650678e+00 5.253425e+00
      vertex   -8.908944e+00 -4.749565e+00 5.126961e+00
      vertex   -8.948004e+00 -4.678825e+00 5.126961e+00
    endloop
  endfacet
  facet normal 7.532382e-01 4.321894e-01 -4.958270e-01
    outer loop
      vertex   -8.528161e+00 -4.634706e+00 5.877182e+00
      vertex   -8.448328e+00 -4.632940e+00 6.000000e+00
      vertex   -8.489391e+00 -4.702276e+00 5.877182e+00
    endloop
  endfacet
  facet normal 7.492694e-01 4.372805e-01 -4.973742e-01
    outer loop
      vertex   -8.489391e+00 -4.702276e+00 5.877182e+00
      vertex   -8.448328e+00 -4.632940e+00 6.000000e+00
      vertex   -8.376280e+00 -4.756392e+00 6.000000e+00
    endloop
  endfacet
  facet normal 7.491293e-01 4.380538e-01 -4.969045e-01
    outer loop
      vertex   -8.489391e+00 -4.702276e+00 5.877182e+00
      vertex   -8.376280e+00 -4.756392e+00 6.000000e+00
      vertex   -8.450017e+00 -4.769611e+00 5.877182e+00
    endloop
  endfacet
  facet normal 7.460630e-01 4.445345e-01 -4.957611e-01
    outer loop
      vertex   -8.450017e+00 -4.769611e+00 5.877182e+00
      vertex   -8.376280e+00 -4.756392e+00 6.000000e+00
      vertex   -8.410042e+00 -4.836702e+00 5.877182e+00
    endloop
  endfacet
  facet normal 7.509517e-01 4.474474e-01 -4.856566e-01
    outer loop
      vertex   -8.450017e+00 -4.769611e+00 5.877182e+00
      vertex   -8.410042e+00 -4.836702e+00 5.877182e+00
      vertex   -8.469530e+00 -4.870914e+00 5.753678e+00
    endloop
  endfacet
  facet normal 7.472721e-01 4.536299e-01 -4.855969e-01
    outer loop
      vertex   -8.469530e+00 -4.870914e+00 5.753678e+00
      vertex   -8.410042e+00 -4.836702e+00 5.877182e+00
      vertex   -8.428668e+00 -4.938226e+00 5.753678e+00
    endloop
  endfacet
  facet normal 7.521964e-01 4.566192e-01 -4.750783e-01
    outer loop
      vertex   -8.469530e+00 -4.870914e+00 5.753678e+00
      vertex   -8.428668e+00 -4.938226e+00 5.753678e+00
      vertex   -8.486512e+00 -4.972116e+00 5.629518e+00
    endloop
  endfacet
  facet normal 7.498764e-01 4.604544e-01 -4.750443e-01
    outer loop
      vertex   -8.486512e+00 -4.972116e+00 5.629518e+00
      vertex   -8.428668e+00 -4.938226e+00 5.753678e+00
      vertex   -8.467161e+00 -5.000000e+00 5.633038e+00
    endloop
  endfacet
  facet normal 7.539003e-01 4.645713e-01 -4.645513e-01
    outer loop
      vertex   -8.486512e+00 -4.972116e+00 5.629518e+00
      vertex   -8.467161e+00 -5.000000e+00 5.633038e+00
      vertex   -8.543889e+00 -5.000000e+00 5.508520e+00
    endloop
  endfacet
  facet normal 7.425214e-01 4.485790e-01 -4.974322e-01
    outer loop
      vertex   -8.376280e+00 -4.756392e+00 6.000000e+00
      vertex   -8.302359e+00 -4.878753e+00 6.000000e+00
      vertex   -8.410042e+00 -4.836702e+00 5.877182e+00
    endloop
  endfacet
  facet normal 7.420721e-01 4.504732e-01 -4.963898e-01
    outer loop
      vertex   -8.410042e+00 -4.836702e+00 5.877182e+00
      vertex   -8.302359e+00 -4.878753e+00 6.000000e+00
      vertex   -8.369467e+00 -4.903541e+00 5.877182e+00
    endloop
  endfacet
  facet normal 7.472721e-01 4.536299e-01 -4.855969e-01
    outer loop
      vertex   -8.410042e+00 -4.836702e+00 5.877182e+00
      vertex   -8.369467e+00 -4.903541e+00 5.877182e+00
      vertex   -8.428668e+00 -4.938226e+00 5.753678e+00
    endloop
  endfacet
  facet normal 7.437978e-01 4.593629e-01 -4.855416e-01
    outer loop
      vertex   -8.428668e+00 -4.938226e+00 5.753678e+00
      vertex   -8.369467e+00 -4.903541e+00 5.877182e+00
      vertex   -8.388694e+00 -5.000000e+00 5.756470e+00
    endloop
  endfacet
  facet normal 7.481668e-01 4.626388e-01 -4.756173e-01
    outer loop
      vertex   -8.428668e+00 -4.938226e+00 5.753678e+00
      vertex   -8.388694e+00 -5.000000e+00 5.756470e+00
      vertex   -8.467161e+00 -5.000000e+00 5.633038e+00
    endloop
  endfacet
  facet normal 7.386339e-01 4.567532e-01 -4.957786e-01
    outer loop
      vertex   -8.369467e+00 -4.903541e+00 5.877182e+00
      vertex   -8.302359e+00 -4.878753e+00 6.000000e+00
      vertex   -8.328295e+00 -4.970122e+00 5.877182e+00
    endloop
  endfacet
  facet normal 7.356484e-01 4.597903e-01 -4.974076e-01
    outer loop
      vertex   -8.328295e+00 -4.970122e+00 5.877182e+00
      vertex   -8.302359e+00 -4.878753e+00 6.000000e+00
      vertex   -8.226578e+00 -5.000000e+00 6.000000e+00
    endloop
  endfacet
  facet normal 7.354480e-01 4.604682e-01 -4.970767e-01
    outer loop
      vertex   -8.328295e+00 -4.970122e+00 5.877182e+00
      vertex   -8.226578e+00 -5.000000e+00 6.000000e+00
      vertex   -8.308496e+00 -5.000000e+00 5.878798e+00
    endloop
  endfacet
  facet normal 7.406000e-01 4.645062e-01 -4.855364e-01
    outer loop
      vertex   -8.308496e+00 -5.000000e+00 5.878798e+00
      vertex   -8.388694e+00 -5.000000e+00 5.756470e+00
      vertex   -8.328295e+00 -4.970122e+00 5.877182e+00
    endloop
  endfacet
  facet normal 7.434300e-01 4.597191e-01 -4.857676e-01
    outer loop
      vertex   -8.328295e+00 -4.970122e+00 5.877182e+00
      vertex   -8.388694e+00 -5.000000e+00 5.756470e+00
      vertex   -8.369467e+00 -4.903541e+00 5.877182e+00
    endloop
  endfacet
  facet normal 7.613616e-01 4.622771e-01 -4.545639e-01
    outer loop
      vertex   -8.618867e+00 -5.000000e+00 5.382937e+00
      vertex   -8.584411e+00 -4.936983e+00 5.504735e+00
      vertex   -8.543889e+00 -5.000000e+00 5.508520e+00
    endloop
  endfacet
  facet normal 7.572870e-01 4.590589e-01 -4.645226e-01
    outer loop
      vertex   -8.543889e+00 -5.000000e+00 5.508520e+00
      vertex   -8.584411e+00 -4.936983e+00 5.504735e+00
      vertex   -8.527655e+00 -4.904342e+00 5.629518e+00
    endloop
  endfacet
  facet normal 7.568801e-01 4.594624e-01 -4.647870e-01
    outer loop
      vertex   -8.543889e+00 -5.000000e+00 5.508520e+00
      vertex   -8.527655e+00 -4.904342e+00 5.629518e+00
      vertex   -8.486512e+00 -4.972116e+00 5.629518e+00
    endloop
  endfacet
  facet normal 7.521964e-01 4.566192e-01 -4.750783e-01
    outer loop
      vertex   -8.486512e+00 -4.972116e+00 5.629518e+00
      vertex   -8.527655e+00 -4.904342e+00 5.629518e+00
      vertex   -8.469530e+00 -4.870914e+00 5.753678e+00
    endloop
  endfacet
  facet normal 7.630093e-01 4.601693e-01 -4.539394e-01
    outer loop
      vertex   -8.584411e+00 -4.936983e+00 5.504735e+00
      vertex   -8.618867e+00 -5.000000e+00 5.382937e+00
      vertex   -8.639792e+00 -4.968833e+00 5.379360e+00
    endloop
  endfacet
  facet normal 7.668781e-01 4.639734e-01 -4.434261e-01
    outer loop
      vertex   -8.639792e+00 -4.968833e+00 5.379360e+00
      vertex   -8.618867e+00 -5.000000e+00 5.382937e+00
      vertex   -8.692086e+00 -5.000000e+00 5.256309e+00
    endloop
  endfacet
  facet normal 7.699864e-01 4.587890e-01 -4.434339e-01
    outer loop
      vertex   -8.639792e+00 -4.968833e+00 5.379360e+00
      vertex   -8.692086e+00 -5.000000e+00 5.256309e+00
      vertex   -8.680859e+00 -4.899910e+00 5.379360e+00
    endloop
  endfacet
  facet normal 7.701223e-01 4.586546e-01 -4.433369e-01
    outer loop
      vertex   -8.680859e+00 -4.899910e+00 5.379360e+00
      vertex   -8.692086e+00 -5.000000e+00 5.256309e+00
      vertex   -8.735117e+00 -4.930535e+00 5.253425e+00
    endloop
  endfacet
  facet normal 7.737514e-01 4.524515e-01 -4.433920e-01
    outer loop
      vertex   -8.680859e+00 -4.899910e+00 5.379360e+00
      vertex   -8.735117e+00 -4.930535e+00 5.253425e+00
      vertex   -8.721309e+00 -4.830736e+00 5.379360e+00
    endloop
  endfacet
  facet normal 7.737514e-01 4.524515e-01 -4.433920e-01
    outer loop
      vertex   -8.721309e+00 -4.830736e+00 5.379360e+00
      vertex   -8.735117e+00 -4.930535e+00 5.253425e+00
      vertex   -8.775819e+00 -4.860929e+00 5.253425e+00
    endloop
  endfacet
  facet normal 7.774193e-01 4.460639e-01 -4.434482e-01
    outer loop
      vertex   -8.721309e+00 -4.830736e+00 5.379360e+00
      vertex   -8.775819e+00 -4.860929e+00 5.253425e+00
      vertex   -8.761138e+00 -4.761319e+00 5.379360e+00
    endloop
  endfacet
  facet normal 7.774193e-01 4.460639e-01 -4.434482e-01
    outer loop
      vertex   -8.761138e+00 -4.761319e+00 5.379360e+00
      vertex   -8.775819e+00 -4.860929e+00 5.253425e+00
      vertex   -8.815897e+00 -4.791079e+00 5.253425e+00
    endloop
  endfacet
  facet normal 7.810318e-01 4.396519e-01 -4.435038e-01
    outer loop
      vertex   -8.761138e+00 -4.761319e+00 5.379360e+00
      vertex   -8.815897e+00 -4.791079e+00 5.253425e+00
      vertex   -8.800345e+00 -4.691668e+00 5.379360e+00
    endloop
  endfacet
  facet normal 7.810318e-01 4.396519e-01 -4.435038e-01
    outer loop
      vertex   -8.800345e+00 -4.691668e+00 5.379360e+00
      vertex   -8.815897e+00 -4.791079e+00 5.253425e+00
      vertex   -8.855350e+00 -4.720993e+00 5.253425e+00
    endloop
  endfacet
  facet normal 7.741075e-01 4.615406e-01 -4.332874e-01
    outer loop
      vertex   -8.692086e+00 -5.000000e+00 5.256309e+00
      vertex   -8.763536e+00 -5.000000e+00 5.128657e+00
      vertex   -8.735117e+00 -4.930535e+00 5.253425e+00
    endloop
  endfacet
  facet normal 7.754192e-01 4.599081e-01 -4.326773e-01
    outer loop
      vertex   -8.735117e+00 -4.930535e+00 5.253425e+00
      vertex   -8.763536e+00 -5.000000e+00 5.128657e+00
      vertex   -8.787984e+00 -4.960376e+00 5.126961e+00
    endloop
  endfacet
  facet normal 7.782418e-01 4.550773e-01 -4.327173e-01
    outer loop
      vertex   -8.735117e+00 -4.930535e+00 5.253425e+00
      vertex   -8.787984e+00 -4.960376e+00 5.126961e+00
      vertex   -8.775819e+00 -4.860929e+00 5.253425e+00
    endloop
  endfacet
  facet normal 7.782418e-01 4.550773e-01 -4.327173e-01
    outer loop
      vertex   -8.775819e+00 -4.860929e+00 5.253425e+00
      vertex   -8.787984e+00 -4.960376e+00 5.126961e+00
      vertex   -8.828932e+00 -4.890349e+00 5.126961e+00
    endloop
  endfacet
  facet normal 7.819322e-01 4.486533e-01 -4.327728e-01
    outer loop
      vertex   -8.775819e+00 -4.860929e+00 5.253425e+00
      vertex   -8.828932e+00 -4.890349e+00 5.126961e+00
      vertex   -8.815897e+00 -4.791079e+00 5.253425e+00
    endloop
  endfacet
  facet normal 7.819322e-01 4.486533e-01 -4.327728e-01
    outer loop
      vertex   -8.815897e+00 -4.791079e+00 5.253425e+00
      vertex   -8.828932e+00 -4.890349e+00 5.126961e+00
      vertex   -8.869253e+00 -4.820076e+00 5.126961e+00
    endloop
  endfacet
  facet normal 7.855668e-01 4.422047e-01 -4.328277e-01
    outer loop
      vertex   -8.815897e+00 -4.791079e+00 5.253425e+00
      vertex   -8.869253e+00 -4.820076e+00 5.126961e+00
      vertex   -8.855350e+00 -4.720993e+00 5.253425e+00
    endloop
  endfacet
  facet normal 7.855668e-01 4.422047e-01 -4.328277e-01
    outer loop
      vertex   -8.855350e+00 -4.720993e+00 5.253425e+00
      vertex   -8.869253e+00 -4.820076e+00 5.126961e+00
      vertex   -8.908944e+00 -4.749565e+00 5.126961e+00
    endloop
  endfacet
  facet normal 7.654400e-01 4.560801e-01 -4.539743e-01
    outer loop
      vertex   -8.584411e+00 -4.936983e+00 5.504735e+00
      vertex   -8.639792e+00 -4.968833e+00 5.379360e+00
      vertex   -8.625215e+00 -4.868501e+00 5.504735e+00
    endloop
  endfacet
  facet normal 7.654400e-01 4.560801e-01 -4.539743e-01
    outer loop
      vertex   -8.625215e+00 -4.868501e+00 5.504735e+00
      vertex   -8.639792e+00 -4.968833e+00 5.379360e+00
      vertex   -8.680859e+00 -4.899910e+00 5.379360e+00
    endloop
  endfacet
  facet normal 7.691397e-01 4.497548e-01 -4.540317e-01
    outer loop
      vertex   -8.625215e+00 -4.868501e+00 5.504735e+00
      vertex   -8.680859e+00 -4.899910e+00 5.379360e+00
      vertex   -8.665405e+00 -4.799771e+00 5.504735e+00
    endloop
  endfacet
  facet normal 7.691397e-01 4.497548e-01 -4.540317e-01
    outer loop
      vertex   -8.665405e+00 -4.799771e+00 5.504735e+00
      vertex   -8.680859e+00 -4.899910e+00 5.379360e+00
      vertex   -8.721309e+00 -4.830736e+00 5.379360e+00
    endloop
  endfacet
  facet normal 7.727845e-01 4.434046e-01 -4.540886e-01
    outer loop
      vertex   -8.665405e+00 -4.799771e+00 5.504735e+00
      vertex   -8.721309e+00 -4.830736e+00 5.379360e+00
      vertex   -8.704979e+00 -4.730799e+00 5.504735e+00
    endloop
  endfacet
  facet normal 7.727845e-01 4.434046e-01 -4.540886e-01
    outer loop
      vertex   -8.704979e+00 -4.730799e+00 5.504735e+00
      vertex   -8.721309e+00 -4.830736e+00 5.379360e+00
      vertex   -8.761138e+00 -4.761319e+00 5.379360e+00
    endloop
  endfacet
  facet normal 7.763743e-01 4.370302e-01 -4.541448e-01
    outer loop
      vertex   -8.704979e+00 -4.730799e+00 5.504735e+00
      vertex   -8.761138e+00 -4.761319e+00 5.379360e+00
      vertex   -8.743935e+00 -4.661595e+00 5.504735e+00
    endloop
  endfacet
  facet normal 7.763743e-01 4.370302e-01 -4.541448e-01
    outer loop
      vertex   -8.743935e+00 -4.661595e+00 5.504735e+00
      vertex   -8.761138e+00 -4.761319e+00 5.379360e+00
      vertex   -8.800345e+00 -4.691668e+00 5.379360e+00
    endloop
  endfacet
  facet normal 7.607310e-01 4.532743e-01 -4.645759e-01
    outer loop
      vertex   -8.527655e+00 -4.904342e+00 5.629518e+00
      vertex   -8.584411e+00 -4.936983e+00 5.504735e+00
      vertex   -8.568189e+00 -4.836313e+00 5.629518e+00
    endloop
  endfacet
  facet normal 7.607310e-01 4.532743e-01 -4.645759e-01
    outer loop
      vertex   -8.568189e+00 -4.836313e+00 5.629518e+00
      vertex   -8.584411e+00 -4.936983e+00 5.504735e+00
      vertex   -8.625215e+00 -4.868501e+00 5.504735e+00
    endloop
  endfacet
  facet normal 7.644068e-01 4.469873e-01 -4.646340e-01
    outer loop
      vertex   -8.568189e+00 -4.836313e+00 5.629518e+00
      vertex   -8.625215e+00 -4.868501e+00 5.504735e+00
      vertex   -8.608114e+00 -4.768037e+00 5.629518e+00
    endloop
  endfacet
  facet normal 7.644068e-01 4.469873e-01 -4.646340e-01
    outer loop
      vertex   -8.608114e+00 -4.768037e+00 5.629518e+00
      vertex   -8.625215e+00 -4.868501e+00 5.504735e+00
      vertex   -8.665405e+00 -4.799771e+00 5.504735e+00
    endloop
  endfacet
  facet normal 7.680280e-01 4.406754e-01 -4.646914e-01
    outer loop
      vertex   -8.608114e+00 -4.768037e+00 5.629518e+00
      vertex   -8.665405e+00 -4.799771e+00 5.504735e+00
      vertex   -8.647426e+00 -4.699522e+00 5.629518e+00
    endloop
  endfacet
  facet normal 7.680280e-01 4.406754e-01 -4.646914e-01
    outer loop
      vertex   -8.647426e+00 -4.699522e+00 5.629518e+00
      vertex   -8.665405e+00 -4.799771e+00 5.504735e+00
      vertex   -8.704979e+00 -4.730799e+00 5.504735e+00
    endloop
  endfacet
  facet normal 7.715946e-01 4.343396e-01 -4.647483e-01
    outer loop
      vertex   -8.647426e+00 -4.699522e+00 5.629518e+00
      vertex   -8.704979e+00 -4.730799e+00 5.504735e+00
      vertex   -8.686124e+00 -4.630775e+00 5.629518e+00
    endloop
  endfacet
  facet normal 7.715946e-01 4.343396e-01 -4.647483e-01
    outer loop
      vertex   -8.686124e+00 -4.630775e+00 5.629518e+00
      vertex   -8.704979e+00 -4.730799e+00 5.504735e+00
      vertex   -8.743935e+00 -4.661595e+00 5.504735e+00
    endloop
  endfacet
  facet normal 7.559015e-01 4.503967e-01 -4.751375e-01
    outer loop
      vertex   -8.469530e+00 -4.870914e+00 5.753678e+00
      vertex   -8.527655e+00 -4.904342e+00 5.629518e+00
      vertex   -8.509788e+00 -4.803348e+00 5.753678e+00
    endloop
  endfacet
  facet normal 7.559015e-01 4.503967e-01 -4.751375e-01
    outer loop
      vertex   -8.509788e+00 -4.803348e+00 5.753678e+00
      vertex   -8.527655e+00 -4.904342e+00 5.629518e+00
      vertex   -8.568189e+00 -4.836313e+00 5.629518e+00
    endloop
  endfacet
  facet normal 7.595527e-01 4.441489e-01 -4.751962e-01
    outer loop
      vertex   -8.509788e+00 -4.803348e+00 5.753678e+00
      vertex   -8.568189e+00 -4.836313e+00 5.629518e+00
      vertex   -8.549440e+00 -4.735538e+00 5.753678e+00
    endloop
  endfacet
  facet normal 7.595527e-01 4.441489e-01 -4.751962e-01
    outer loop
      vertex   -8.549440e+00 -4.735538e+00 5.753678e+00
      vertex   -8.568189e+00 -4.836313e+00 5.629518e+00
      vertex   -8.608114e+00 -4.768037e+00 5.629518e+00
    endloop
  endfacet
  facet normal 7.631498e-01 4.378765e-01 -4.752542e-01
    outer loop
      vertex   -8.549440e+00 -4.735538e+00 5.753678e+00
      vertex   -8.608114e+00 -4.768037e+00 5.629518e+00
      vertex   -8.588485e+00 -4.667489e+00 5.753678e+00
    endloop
  endfacet
  facet normal 7.631498e-01 4.378765e-01 -4.752542e-01
    outer loop
      vertex   -8.588485e+00 -4.667489e+00 5.753678e+00
      vertex   -8.608114e+00 -4.768037e+00 5.629518e+00
      vertex   -8.647426e+00 -4.699522e+00 5.629518e+00
    endloop
  endfacet
  facet normal 7.666925e-01 4.315802e-01 -4.753116e-01
    outer loop
      vertex   -8.588485e+00 -4.667489e+00 5.753678e+00
      vertex   -8.647426e+00 -4.699522e+00 5.629518e+00
      vertex   -8.626919e+00 -4.599211e+00 5.753678e+00
    endloop
  endfacet
  facet normal 7.666925e-01 4.315802e-01 -4.753116e-01
    outer loop
      vertex   -8.626919e+00 -4.599211e+00 5.753678e+00
      vertex   -8.647426e+00 -4.699522e+00 5.629518e+00
      vertex   -8.686124e+00 -4.630775e+00 5.629518e+00
    endloop
  endfacet
  facet normal 7.545778e-01 4.412398e-01 -4.857158e-01
    outer loop
      vertex   -8.489391e+00 -4.702276e+00 5.877182e+00
      vertex   -8.450017e+00 -4.769611e+00 5.877182e+00
      vertex   -8.509788e+00 -4.803348e+00 5.753678e+00
    endloop
  endfacet
  facet normal 7.509517e-01 4.474474e-01 -4.856566e-01
    outer loop
      vertex   -8.509788e+00 -4.803348e+00 5.753678e+00
      vertex   -8.450017e+00 -4.769611e+00 5.877182e+00
      vertex   -8.469530e+00 -4.870914e+00 5.753678e+00
    endloop
  endfacet
  facet normal 7.545778e-01 4.412398e-01 -4.857158e-01
    outer loop
      vertex   -8.489391e+00 -4.702276e+00 5.877182e+00
      vertex   -8.509788e+00 -4.803348e+00 5.753678e+00
      vertex   -8.549440e+00 -4.735538e+00 5.753678e+00
    endloop
  endfacet
  facet normal 7.581501e-01 4.350077e-01 -4.857743e-01
    outer loop
      vertex   -8.528161e+00 -4.634706e+00 5.877182e+00
      vertex   -8.489391e+00 -4.702276e+00 5.877182e+00
      vertex   -8.549440e+00 -4.735538e+00 5.753678e+00
    endloop
  endfacet
  facet normal 7.581501e-01 4.350077e-01 -4.857743e-01
    outer loop
      vertex   -8.528161e+00 -4.634706e+00 5.877182e+00
      vertex   -8.549440e+00 -4.735538e+00 5.753678e+00
      vertex   -8.588485e+00 -4.667489e+00 5.753678e+00
    endloop
  endfacet
  facet normal 7.616684e-01 4.287520e-01 -4.858322e-01
    outer loop
      vertex   -8.566326e+00 -4.566907e+00 5.877182e+00
      vertex   -8.528161e+00 -4.634706e+00 5.877182e+00
      vertex   -8.588485e+00 -4.667489e+00 5.753678e+00
    endloop
  endfacet
  facet normal 7.616684e-01 4.287520e-01 -4.858322e-01
    outer loop
      vertex   -8.566326e+00 -4.566907e+00 5.877182e+00
      vertex   -8.588485e+00 -4.667489e+00 5.753678e+00
      vertex   -8.626919e+00 -4.599211e+00 5.753678e+00
    endloop
  endfacet
  facet normal 7.926680e-01 4.292367e-01 -4.329356e-01
    outer loop
      vertex   -8.986430e+00 -4.607863e+00 5.126961e+00
      vertex   -8.932370e+00 -4.580143e+00 5.253425e+00
      vertex   -8.948004e+00 -4.678825e+00 5.126961e+00
    endloop
  endfacet
  facet normal 7.926680e-01 4.292367e-01 -4.329356e-01
    outer loop
      vertex   -8.948004e+00 -4.678825e+00 5.126961e+00
      vertex   -8.932370e+00 -4.580143e+00 5.253425e+00
      vertex   -8.894174e+00 -4.650678e+00 5.253425e+00
    endloop
  endfacet
  facet normal 7.880897e-01 4.267575e-01 -4.436131e-01
    outer loop
      vertex   -8.932370e+00 -4.580143e+00 5.253425e+00
      vertex   -8.876887e+00 -4.551694e+00 5.379360e+00
      vertex   -8.894174e+00 -4.650678e+00 5.253425e+00
    endloop
  endfacet
  facet normal 7.880897e-01 4.267575e-01 -4.436131e-01
    outer loop
      vertex   -8.894174e+00 -4.650678e+00 5.253425e+00
      vertex   -8.876887e+00 -4.551694e+00 5.379360e+00
      vertex   -8.838929e+00 -4.621791e+00 5.379360e+00
    endloop
  endfacet
  facet normal 7.833879e-01 4.242115e-01 -4.542554e-01
    outer loop
      vertex   -8.876887e+00 -4.551694e+00 5.379360e+00
      vertex   -8.819986e+00 -4.522518e+00 5.504735e+00
      vertex   -8.838929e+00 -4.621791e+00 5.379360e+00
    endloop
  endfacet
  facet normal 7.833879e-01 4.242115e-01 -4.542554e-01
    outer loop
      vertex   -8.838929e+00 -4.621791e+00 5.379360e+00
      vertex   -8.819986e+00 -4.522518e+00 5.504735e+00
      vertex   -8.782271e+00 -4.592165e+00 5.504735e+00
    endloop
  endfacet
  facet normal 7.785626e-01 4.215985e-01 -4.648601e-01
    outer loop
      vertex   -8.819986e+00 -4.522518e+00 5.504735e+00
      vertex   -8.761673e+00 -4.492617e+00 5.629518e+00
      vertex   -8.782271e+00 -4.592165e+00 5.504735e+00
    endloop
  endfacet
  facet normal 7.785626e-01 4.215985e-01 -4.648601e-01
    outer loop
      vertex   -8.782271e+00 -4.592165e+00 5.504735e+00
      vertex   -8.761673e+00 -4.492617e+00 5.629518e+00
      vertex   -8.724207e+00 -4.561804e+00 5.629518e+00
    endloop
  endfacet
  facet normal 7.685421e-01 4.161723e-01 -4.859461e-01
    outer loop
      vertex   -8.640832e+00 -4.430655e+00 5.877182e+00
      vertex   -8.603883e+00 -4.498888e+00 5.877182e+00
      vertex   -8.664742e+00 -4.530710e+00 5.753678e+00
    endloop
  endfacet
  facet normal 7.736140e-01 4.189188e-01 -4.754245e-01
    outer loop
      vertex   -8.761673e+00 -4.492617e+00 5.629518e+00
      vertex   -8.701952e+00 -4.461995e+00 5.753678e+00
      vertex   -8.724207e+00 -4.561804e+00 5.629518e+00
    endloop
  endfacet
  facet normal 7.736140e-01 4.189188e-01 -4.754245e-01
    outer loop
      vertex   -8.724207e+00 -4.561804e+00 5.629518e+00
      vertex   -8.701952e+00 -4.461995e+00 5.753678e+00
      vertex   -8.664742e+00 -4.530710e+00 5.753678e+00
    endloop
  endfacet
  facet normal 7.685421e-01 4.161723e-01 -4.859461e-01
    outer loop
      vertex   -8.701952e+00 -4.461995e+00 5.753678e+00
      vertex   -8.640832e+00 -4.430655e+00 5.877182e+00
      vertex   -8.664742e+00 -4.530710e+00 5.753678e+00
    endloop
  endfacet
  facet normal 7.901787e-01 4.113045e-01 -4.543635e-01
    outer loop
      vertex   -8.950920e+00 -4.410875e+00 5.379360e+00
      vertex   -8.893545e+00 -4.382601e+00 5.504735e+00
      vertex   -8.914218e+00 -4.481386e+00 5.379360e+00
    endloop
  endfacet
  facet normal 7.901787e-01 4.113045e-01 -4.543635e-01
    outer loop
      vertex   -8.914218e+00 -4.481386e+00 5.379360e+00
      vertex   -8.893545e+00 -4.382601e+00 5.504735e+00
      vertex   -8.857078e+00 -4.452660e+00 5.504735e+00
    endloop
  endfacet
  facet normal 7.853093e-01 4.087699e-01 -4.649693e-01
    outer loop
      vertex   -8.893545e+00 -4.382601e+00 5.504735e+00
      vertex   -8.834745e+00 -4.353625e+00 5.629518e+00
      vertex   -8.857078e+00 -4.452660e+00 5.504735e+00
    endloop
  endfacet
  facet normal 7.853093e-01 4.087699e-01 -4.649693e-01
    outer loop
      vertex   -8.857078e+00 -4.452660e+00 5.504735e+00
      vertex   -8.834745e+00 -4.353625e+00 5.629518e+00
      vertex   -8.798519e+00 -4.423222e+00 5.629518e+00
    endloop
  endfacet
  facet normal 7.751973e-01 4.035064e-01 -4.860573e-01
    outer loop
      vertex   -8.712897e+00 -4.293580e+00 5.877182e+00
      vertex   -8.677170e+00 -4.362217e+00 5.877182e+00
      vertex   -8.738548e+00 -4.393073e+00 5.753678e+00
    endloop
  endfacet
  facet normal 7.803155e-01 4.061705e-01 -4.755348e-01
    outer loop
      vertex   -8.834745e+00 -4.353625e+00 5.629518e+00
      vertex   -8.774527e+00 -4.323951e+00 5.753678e+00
      vertex   -8.798519e+00 -4.423222e+00 5.629518e+00
    endloop
  endfacet
  facet normal 7.803155e-01 4.061705e-01 -4.755348e-01
    outer loop
      vertex   -8.798519e+00 -4.423222e+00 5.629518e+00
      vertex   -8.774527e+00 -4.323951e+00 5.753678e+00
      vertex   -8.738548e+00 -4.393073e+00 5.753678e+00
    endloop
  endfacet
  facet normal 7.751973e-01 4.035064e-01 -4.860573e-01
    outer loop
      vertex   -8.774527e+00 -4.323951e+00 5.753678e+00
      vertex   -8.712897e+00 -4.293580e+00 5.877182e+00
      vertex   -8.738548e+00 -4.393073e+00 5.753678e+00
    endloop
  endfacet
  facet normal 7.918332e-01 3.958595e-01 -4.650757e-01
    outer loop
      vertex   -8.929387e+00 -4.312347e+00 5.504735e+00
      vertex   -8.905332e+00 -4.213862e+00 5.629518e+00
      vertex   -8.870350e+00 -4.283836e+00 5.629518e+00
    endloop
  endfacet
  facet normal 7.867956e-01 3.933410e-01 -4.756423e-01
    outer loop
      vertex   -8.870350e+00 -4.283836e+00 5.629518e+00
      vertex   -8.905332e+00 -4.213862e+00 5.629518e+00
      vertex   -8.844633e+00 -4.185140e+00 5.753678e+00
    endloop
  endfacet
  facet normal 7.867956e-01 3.933410e-01 -4.756423e-01
    outer loop
      vertex   -8.870350e+00 -4.283836e+00 5.629518e+00
      vertex   -8.844633e+00 -4.185140e+00 5.753678e+00
      vertex   -8.809889e+00 -4.254637e+00 5.753678e+00
    endloop
  endfacet
  facet normal 7.816326e-01 3.907599e-01 -4.861658e-01
    outer loop
      vertex   -8.809889e+00 -4.254637e+00 5.753678e+00
      vertex   -8.844633e+00 -4.185140e+00 5.753678e+00
      vertex   -8.782510e+00 -4.155744e+00 5.877182e+00
    endloop
  endfacet
  facet normal 7.816326e-01 3.907599e-01 -4.861658e-01
    outer loop
      vertex   -8.809889e+00 -4.254637e+00 5.753678e+00
      vertex   -8.782510e+00 -4.155744e+00 5.877182e+00
      vertex   -8.748011e+00 -4.224754e+00 5.877182e+00
    endloop
  endfacet
  facet normal 7.878468e-01 3.779387e-01 -4.862713e-01
    outer loop
      vertex   -8.849664e+00 -4.017208e+00 5.877182e+00
      vertex   -8.816395e+00 -4.086560e+00 5.877182e+00
      vertex   -8.878757e+00 -4.115466e+00 5.753678e+00
    endloop
  endfacet
  facet normal 7.930531e-01 3.804362e-01 -4.757469e-01
    outer loop
      vertex   -8.973425e+00 -4.073388e+00 5.629518e+00
      vertex   -8.912262e+00 -4.045623e+00 5.753678e+00
      vertex   -8.939691e+00 -4.143710e+00 5.629518e+00
    endloop
  endfacet
  facet normal -7.560953e-01 -4.330298e-01 4.907189e-01
    outer loop
      vertex   -8.630701e+00 -5.000000e+00 6.000000e+00
      vertex   -8.679897e+00 -4.914101e+00 6.000000e+00
      vertex   -8.679047e+00 -5.000000e+00 5.925509e+00
    endloop
  endfacet
  facet normal -7.570423e-01 -4.323173e-01 4.898865e-01
    outer loop
      vertex   -8.679047e+00 -5.000000e+00 5.925509e+00
      vertex   -8.679897e+00 -4.914101e+00 6.000000e+00
      vertex   -8.716645e+00 -4.934774e+00 5.924969e+00
    endloop
  endfacet
  facet normal -7.597550e-01 -4.339279e-01 4.842303e-01
    outer loop
      vertex   -8.679047e+00 -5.000000e+00 5.925509e+00
      vertex   -8.716645e+00 -4.934774e+00 5.924969e+00
      vertex   -8.726773e+00 -5.000000e+00 5.850627e+00
    endloop
  endfacet
  facet normal -7.606095e-01 -4.331052e-01 4.836250e-01
    outer loop
      vertex   -8.726773e+00 -5.000000e+00 5.850627e+00
      vertex   -8.716645e+00 -4.934774e+00 5.924969e+00
      vertex   -8.752895e+00 -4.955165e+00 5.849696e+00
    endloop
  endfacet
  facet normal -7.633546e-01 -4.348274e-01 4.777185e-01
    outer loop
      vertex   -8.726773e+00 -5.000000e+00 5.850627e+00
      vertex   -8.752895e+00 -4.955165e+00 5.849696e+00
      vertex   -8.773877e+00 -5.000000e+00 5.775359e+00
    endloop
  endfacet
  facet normal -7.641492e-01 -4.338389e-01 4.773466e-01
    outer loop
      vertex   -8.773877e+00 -5.000000e+00 5.775359e+00
      vertex   -8.752895e+00 -4.955165e+00 5.849696e+00
      vertex   -8.788647e+00 -4.975273e+00 5.774188e+00
    endloop
  endfacet
  facet normal -7.668801e-01 -4.357624e-01 4.711752e-01
    outer loop
      vertex   -8.773877e+00 -5.000000e+00 5.775359e+00
      vertex   -8.788647e+00 -4.975273e+00 5.774188e+00
      vertex   -8.820357e+00 -5.000000e+00 5.699709e+00
    endloop
  endfacet
  facet normal -7.679229e-01 -4.340553e-01 4.710524e-01
    outer loop
      vertex   -8.820357e+00 -5.000000e+00 5.699709e+00
      vertex   -8.788647e+00 -4.975273e+00 5.774188e+00
      vertex   -8.823899e+00 -4.995097e+00 5.698453e+00
    endloop
  endfacet
  facet normal -7.700906e-01 -4.373110e-01 4.644561e-01
    outer loop
      vertex   -8.820357e+00 -5.000000e+00 5.699709e+00
      vertex   -8.823899e+00 -4.995097e+00 5.698453e+00
      vertex   -8.866211e+00 -5.000000e+00 5.623680e+00
    endloop
  endfacet
  facet normal -7.723915e-01 -4.321956e-01 4.654227e-01
    outer loop
      vertex   -8.866211e+00 -5.000000e+00 5.623680e+00
      vertex   -8.823899e+00 -4.995097e+00 5.698453e+00
      vertex   -8.873023e+00 -4.907306e+00 5.698453e+00
    endloop
  endfacet
  facet normal -7.730890e-01 -4.316905e-01 4.647330e-01
    outer loop
      vertex   -8.866211e+00 -5.000000e+00 5.623680e+00
      vertex   -8.873023e+00 -4.907306e+00 5.698453e+00
      vertex   -8.907964e+00 -4.926503e+00 5.622496e+00
    endloop
  endfacet
  facet normal -7.769695e-01 -4.246579e-01 4.647407e-01
    outer loop
      vertex   -8.907964e+00 -4.926503e+00 5.622496e+00
      vertex   -8.873023e+00 -4.907306e+00 5.698453e+00
      vertex   -8.921584e+00 -4.818457e+00 5.698453e+00
    endloop
  endfacet
  facet normal -7.769742e-01 -4.246550e-01 4.647357e-01
    outer loop
      vertex   -8.907964e+00 -4.926503e+00 5.622496e+00
      vertex   -8.921584e+00 -4.818457e+00 5.698453e+00
      vertex   -8.956662e+00 -4.837402e+00 5.622496e+00
    endloop
  endfacet
  facet normal -7.810063e-01 -4.171922e-01 4.647364e-01
    outer loop
      vertex   -8.956662e+00 -4.837402e+00 5.622496e+00
      vertex   -8.921584e+00 -4.818457e+00 5.698453e+00
      vertex   -9.000000e+00 -4.746476e+00 5.631288e+00
    endloop
  endfacet
  facet normal -7.835768e-01 -4.179320e-01 4.597175e-01
    outer loop
      vertex   -8.956662e+00 -4.837402e+00 5.622496e+00
      vertex   -9.000000e+00 -4.746476e+00 5.631288e+00
      vertex   -9.000000e+00 -4.832217e+00 5.553341e+00
    endloop
  endfacet
  facet normal -7.607607e-01 -4.257321e-01 4.898932e-01
    outer loop
      vertex   -8.679897e+00 -4.914101e+00 6.000000e+00
      vertex   -8.728233e+00 -4.827728e+00 6.000000e+00
      vertex   -8.716645e+00 -4.934774e+00 5.924969e+00
    endloop
  endfacet
  facet normal -7.607702e-01 -4.257263e-01 4.898835e-01
    outer loop
      vertex   -8.716645e+00 -4.934774e+00 5.924969e+00
      vertex   -8.728233e+00 -4.827728e+00 6.000000e+00
      vertex   -8.765182e+00 -4.848039e+00 5.924969e+00
    endloop
  endfacet
  facet normal -7.638115e-01 -4.274282e-01 4.836292e-01
    outer loop
      vertex   -8.716645e+00 -4.934774e+00 5.924969e+00
      vertex   -8.765182e+00 -4.848039e+00 5.924969e+00
      vertex   -8.752895e+00 -4.955165e+00 5.849696e+00
    endloop
  endfacet
  facet normal -7.638210e-01 -4.274223e-01 4.836193e-01
    outer loop
      vertex   -8.752895e+00 -4.955165e+00 5.849696e+00
      vertex   -8.765182e+00 -4.848039e+00 5.924969e+00
      vertex   -8.801631e+00 -4.868073e+00 5.849696e+00
    endloop
  endfacet
  facet normal -7.668190e-01 -4.291000e-01 4.773487e-01
    outer loop
      vertex   -8.752895e+00 -4.955165e+00 5.849696e+00
      vertex   -8.801631e+00 -4.868073e+00 5.849696e+00
      vertex   -8.788647e+00 -4.975273e+00 5.774188e+00
    endloop
  endfacet
  facet normal -7.668286e-01 -4.290940e-01 4.773387e-01
    outer loop
      vertex   -8.788647e+00 -4.975273e+00 5.774188e+00
      vertex   -8.801631e+00 -4.868073e+00 5.849696e+00
      vertex   -8.837578e+00 -4.887829e+00 5.774188e+00
    endloop
  endfacet
  facet normal -7.697832e-01 -4.307474e-01 4.710525e-01
    outer loop
      vertex   -8.788647e+00 -4.975273e+00 5.774188e+00
      vertex   -8.837578e+00 -4.887829e+00 5.774188e+00
      vertex   -8.823899e+00 -4.995097e+00 5.698453e+00
    endloop
  endfacet
  facet normal -7.697928e-01 -4.307414e-01 4.710423e-01
    outer loop
      vertex   -8.823899e+00 -4.995097e+00 5.698453e+00
      vertex   -8.837578e+00 -4.887829e+00 5.774188e+00
      vertex   -8.873023e+00 -4.907306e+00 5.698453e+00
    endloop
  endfacet
  facet normal -7.649477e-01 -4.181624e-01 4.898930e-01
    outer loop
      vertex   -8.728233e+00 -4.827728e+00 6.000000e+00
      vertex   -8.775705e+00 -4.740886e+00 6.000000e+00
      vertex   -8.765182e+00 -4.848039e+00 5.924969e+00
    endloop
  endfacet
  facet normal -7.649979e-01 -4.181311e-01 4.898413e-01
    outer loop
      vertex   -8.765182e+00 -4.848039e+00 5.924969e+00
      vertex   -8.775705e+00 -4.740886e+00 6.000000e+00
      vertex   -8.813313e+00 -4.759981e+00 5.924969e+00
    endloop
  endfacet
  facet normal -7.680354e-01 -4.197913e-01 4.836289e-01
    outer loop
      vertex   -8.765182e+00 -4.848039e+00 5.924969e+00
      vertex   -8.813313e+00 -4.759981e+00 5.924969e+00
      vertex   -8.801631e+00 -4.868073e+00 5.849696e+00
    endloop
  endfacet
  facet normal -7.680400e-01 -4.197884e-01 4.836240e-01
    outer loop
      vertex   -8.801631e+00 -4.868073e+00 5.849696e+00
      vertex   -8.813313e+00 -4.759981e+00 5.924969e+00
      vertex   -8.849908e+00 -4.779746e+00 5.849696e+00
    endloop
  endfacet
  facet normal -7.710570e-01 -4.214374e-01 4.773485e-01
    outer loop
      vertex   -8.801631e+00 -4.868073e+00 5.849696e+00
      vertex   -8.849908e+00 -4.779746e+00 5.849696e+00
      vertex   -8.837578e+00 -4.887829e+00 5.774188e+00
    endloop
  endfacet
  facet normal -7.710617e-01 -4.214345e-01 4.773435e-01
    outer loop
      vertex   -8.837578e+00 -4.887829e+00 5.774188e+00
      vertex   -8.849908e+00 -4.779746e+00 5.849696e+00
      vertex   -8.885999e+00 -4.799238e+00 5.774188e+00
    endloop
  endfacet
  facet normal -7.740351e-01 -4.230596e-01 4.710523e-01
    outer loop
      vertex   -8.837578e+00 -4.887829e+00 5.774188e+00
      vertex   -8.885999e+00 -4.799238e+00 5.774188e+00
      vertex   -8.873023e+00 -4.907306e+00 5.698453e+00
    endloop
  endfacet
  facet normal -7.740398e-01 -4.230567e-01 4.710472e-01
    outer loop
      vertex   -8.873023e+00 -4.907306e+00 5.698453e+00
      vertex   -8.885999e+00 -4.799238e+00 5.774188e+00
      vertex   -8.921584e+00 -4.818457e+00 5.698453e+00
    endloop
  endfacet
  facet normal -7.690384e-01 -4.105409e-01 4.899348e-01
    outer loop
      vertex   -8.775705e+00 -4.740886e+00 6.000000e+00
      vertex   -8.822311e+00 -4.653583e+00 6.000000e+00
      vertex   -8.813313e+00 -4.759981e+00 5.924969e+00
    endloop
  endfacet
  facet normal -7.691285e-01 -4.104830e-01 4.898419e-01
    outer loop
      vertex   -8.813313e+00 -4.759981e+00 5.924969e+00
      vertex   -8.822311e+00 -4.653583e+00 6.000000e+00
      vertex   -8.860106e+00 -4.672303e+00 5.924969e+00
    endloop
  endfacet
  facet normal -7.721830e-01 -4.121132e-01 4.836281e-01
    outer loop
      vertex   -8.813313e+00 -4.759981e+00 5.924969e+00
      vertex   -8.860106e+00 -4.672303e+00 5.924969e+00
      vertex   -8.896854e+00 -4.691784e+00 5.849696e+00
    endloop
  endfacet
  facet normal -7.762366e-01 -4.044359e-01 4.836201e-01
    outer loop
      vertex   -8.896854e+00 -4.691784e+00 5.849696e+00
      vertex   -8.860106e+00 -4.672303e+00 5.924969e+00
      vertex   -8.943022e+00 -4.603173e+00 5.849696e+00
    endloop
  endfacet
  facet normal -7.792862e-01 -4.060248e-01 4.773436e-01
    outer loop
      vertex   -8.896854e+00 -4.691784e+00 5.849696e+00
      vertex   -8.943022e+00 -4.603173e+00 5.849696e+00
      vertex   -8.979492e+00 -4.621945e+00 5.774188e+00
    endloop
  endfacet
  facet normal -7.821053e-01 -4.005631e-01 4.773474e-01
    outer loop
      vertex   -8.979492e+00 -4.621945e+00 5.774188e+00
      vertex   -8.943022e+00 -4.603173e+00 5.849696e+00
      vertex   -9.000000e+00 -4.571372e+00 5.783026e+00
    endloop
  endfacet
  facet normal -7.862004e-01 -4.009779e-01 4.702188e-01
    outer loop
      vertex   -8.979492e+00 -4.621945e+00 5.774188e+00
      vertex   -9.000000e+00 -4.571372e+00 5.783026e+00
      vertex   -9.000000e+00 -4.659523e+00 5.707855e+00
    endloop
  endfacet
  facet normal -7.730737e-01 -4.028907e-01 4.899348e-01
    outer loop
      vertex   -8.822311e+00 -4.653583e+00 6.000000e+00
      vertex   -8.868047e+00 -4.565824e+00 6.000000e+00
      vertex   -8.860106e+00 -4.672303e+00 5.924969e+00
    endloop
  endfacet
  facet normal -7.731647e-01 -4.028309e-01 4.898404e-01
    outer loop
      vertex   -8.860106e+00 -4.672303e+00 5.924969e+00
      vertex   -8.868047e+00 -4.565824e+00 6.000000e+00
      vertex   -8.906041e+00 -4.584138e+00 5.924969e+00
    endloop
  endfacet
  facet normal -7.762364e-01 -4.044314e-01 4.836241e-01
    outer loop
      vertex   -8.860106e+00 -4.672303e+00 5.924969e+00
      vertex   -8.906041e+00 -4.584138e+00 5.924969e+00
      vertex   -8.943022e+00 -4.603173e+00 5.849696e+00
    endloop
  endfacet
  facet normal -7.801971e-01 -3.967369e-01 4.836242e-01
    outer loop
      vertex   -8.943022e+00 -4.603173e+00 5.849696e+00
      vertex   -8.906041e+00 -4.584138e+00 5.924969e+00
      vertex   -8.950759e+00 -4.496199e+00 5.924969e+00
    endloop
  endfacet
  facet normal -7.802131e-01 -3.967261e-01 4.836071e-01
    outer loop
      vertex   -8.943022e+00 -4.603173e+00 5.849696e+00
      vertex   -8.950759e+00 -4.496199e+00 5.924969e+00
      vertex   -8.988100e+00 -4.514520e+00 5.849696e+00
    endloop
  endfacet
  facet normal -7.824810e-01 -3.922041e-01 4.836315e-01
    outer loop
      vertex   -8.988100e+00 -4.514520e+00 5.849696e+00
      vertex   -8.950759e+00 -4.496199e+00 5.924969e+00
      vertex   -9.000000e+00 -4.482038e+00 5.856784e+00
    endloop
  endfacet
  facet normal -7.876873e-01 -3.922437e-01 4.750723e-01
    outer loop
      vertex   -8.988100e+00 -4.514520e+00 5.849696e+00
      vertex   -9.000000e+00 -4.482038e+00 5.856784e+00
      vertex   -9.000000e+00 -4.571372e+00 5.783026e+00
    endloop
  endfacet
  facet normal -7.770321e-01 -3.952006e-01 4.899363e-01
    outer loop
      vertex   -8.868047e+00 -4.565824e+00 6.000000e+00
      vertex   -8.912909e+00 -4.477617e+00 6.000000e+00
      vertex   -8.906041e+00 -4.584138e+00 5.924969e+00
    endloop
  endfacet
  facet normal -7.770941e-01 -3.951590e-01 4.898716e-01
    outer loop
      vertex   -8.906041e+00 -4.584138e+00 5.924969e+00
      vertex   -8.912909e+00 -4.477617e+00 6.000000e+00
      vertex   -8.950759e+00 -4.496199e+00 5.924969e+00
    endloop
  endfacet
  facet normal -7.809304e-01 -3.874798e-01 4.899052e-01
    outer loop
      vertex   -8.912909e+00 -4.477617e+00 6.000000e+00
      vertex   -8.956895e+00 -4.388969e+00 6.000000e+00
      vertex   -8.950759e+00 -4.496199e+00 5.924969e+00
    endloop
  endfacet
  facet normal -7.809659e-01 -3.874557e-01 4.898678e-01
    outer loop
      vertex   -8.950759e+00 -4.496199e+00 5.924969e+00
      vertex   -8.956895e+00 -4.388969e+00 6.000000e+00
      vertex   -8.994964e+00 -4.407099e+00 5.924969e+00
    endloop
  endfacet
  facet normal -7.833885e-01 -3.886576e-01 4.850234e-01
    outer loop
      vertex   -8.950759e+00 -4.496199e+00 5.924969e+00
      vertex   -8.994964e+00 -4.407099e+00 5.924969e+00
      vertex   -9.000000e+00 -4.482038e+00 5.856784e+00
    endloop
  endfacet
  facet normal -7.894394e-01 -3.832273e-01 4.795021e-01
    outer loop
      vertex   -9.000000e+00 -4.482038e+00 5.856784e+00
      vertex   -8.994964e+00 -4.407099e+00 5.924969e+00
      vertex   -9.000000e+00 -4.391538e+00 5.929114e+00
    endloop
  endfacet
  facet normal -7.827408e-01 -3.838269e-01 4.898915e-01
    outer loop
      vertex   -9.000000e+00 -4.391538e+00 5.929114e+00
      vertex   -8.994964e+00 -4.407099e+00 5.924969e+00
      vertex   -8.956895e+00 -4.388969e+00 6.000000e+00
    endloop
  endfacet
  facet normal -7.843323e-01 -3.795171e-01 4.907031e-01
    outer loop
      vertex   -9.000000e+00 -4.391538e+00 5.929114e+00
      vertex   -8.956895e+00 -4.388969e+00 6.000000e+00
      vertex   -9.000000e+00 -4.299884e+00 6.000000e+00
    endloop
  endfacet
  facet normal -7.848302e-01 -4.095428e-01 4.650982e-01
    outer loop
      vertex   -9.000000e+00 -4.746476e+00 5.631288e+00
      vertex   -8.968825e+00 -4.729944e+00 5.698453e+00
      vertex   -9.000000e+00 -4.659523e+00 5.707855e+00
    endloop
  endfacet
  facet normal -7.816057e-01 -4.089097e-01 4.710471e-01
    outer loop
      vertex   -9.000000e+00 -4.659523e+00 5.707855e+00
      vertex   -8.968825e+00 -4.729944e+00 5.698453e+00
      vertex   -8.933094e+00 -4.710997e+00 5.774188e+00
    endloop
  endfacet
  facet normal -7.816607e-01 -4.072664e-01 4.723777e-01
    outer loop
      vertex   -9.000000e+00 -4.659523e+00 5.707855e+00
      vertex   -8.933094e+00 -4.710997e+00 5.774188e+00
      vertex   -8.979492e+00 -4.621945e+00 5.774188e+00
    endloop
  endfacet
  facet normal -7.792863e-01 -4.060293e-01 4.773396e-01
    outer loop
      vertex   -8.979492e+00 -4.621945e+00 5.774188e+00
      vertex   -8.933094e+00 -4.710997e+00 5.774188e+00
      vertex   -8.896854e+00 -4.691784e+00 5.849696e+00
    endloop
  endfacet
  facet normal -7.820152e-01 -4.222665e-01 4.584139e-01
    outer loop
      vertex   -8.956662e+00 -4.837402e+00 5.622496e+00
      vertex   -9.000000e+00 -4.832217e+00 5.553341e+00
      vertex   -8.991231e+00 -4.856073e+00 5.546325e+00
    endloop
  endfacet
  facet normal -7.876219e-01 -4.216458e-01 4.492956e-01
    outer loop
      vertex   -8.991231e+00 -4.856073e+00 5.546325e+00
      vertex   -9.000000e+00 -4.832217e+00 5.553341e+00
      vertex   -9.000000e+00 -4.916730e+00 5.474029e+00
    endloop
  endfacet
  facet normal -7.820790e-01 -4.274395e-01 4.534842e-01
    outer loop
      vertex   -8.991231e+00 -4.856073e+00 5.546325e+00
      vertex   -9.000000e+00 -4.916730e+00 5.474029e+00
      vertex   -8.942399e+00 -4.945419e+00 5.546325e+00
    endloop
  endfacet
  facet normal -7.815406e-01 -4.299100e-01 4.520748e-01
    outer loop
      vertex   -8.942399e+00 -4.945419e+00 5.546325e+00
      vertex   -9.000000e+00 -4.916730e+00 5.474029e+00
      vertex   -8.976329e+00 -4.964055e+00 5.469947e+00
    endloop
  endfacet
  facet normal -7.797285e-01 -4.331923e-01 4.520706e-01
    outer loop
      vertex   -8.942399e+00 -4.945419e+00 5.546325e+00
      vertex   -8.976329e+00 -4.964055e+00 5.469947e+00
      vertex   -8.956035e+00 -5.000000e+00 5.470506e+00
    endloop
  endfacet
  facet normal -7.823778e-01 -4.347835e-01 4.459240e-01
    outer loop
      vertex   -8.956035e+00 -5.000000e+00 5.470506e+00
      vertex   -8.976329e+00 -4.964055e+00 5.469947e+00
      vertex   -9.000000e+00 -5.000000e+00 5.393368e+00
    endloop
  endfacet
  facet normal -7.849962e-01 -4.310256e-01 4.449695e-01
    outer loop
      vertex   -9.000000e+00 -5.000000e+00 5.393368e+00
      vertex   -8.976329e+00 -4.964055e+00 5.469947e+00
      vertex   -9.000000e+00 -4.916730e+00 5.474029e+00
    endloop
  endfacet
  facet normal -7.790110e-01 -4.340057e-01 4.525272e-01
    outer loop
      vertex   -8.956035e+00 -5.000000e+00 5.470506e+00
      vertex   -8.911438e+00 -5.000000e+00 5.547278e+00
      vertex   -8.942399e+00 -4.945419e+00 5.546325e+00
    endloop
  endfacet
  facet normal -7.764369e-01 -4.324429e-01 4.584092e-01
    outer loop
      vertex   -8.942399e+00 -4.945419e+00 5.546325e+00
      vertex   -8.911438e+00 -5.000000e+00 5.547278e+00
      vertex   -8.907964e+00 -4.926503e+00 5.622496e+00
    endloop
  endfacet
  facet normal -7.798603e-01 -4.262324e-01 4.584145e-01
    outer loop
      vertex   -8.942399e+00 -4.945419e+00 5.546325e+00
      vertex   -8.907964e+00 -4.926503e+00 5.622496e+00
      vertex   -8.956662e+00 -4.837402e+00 5.622496e+00
    endloop
  endfacet
  facet normal -7.755950e-01 -4.332046e-01 4.591146e-01
    outer loop
      vertex   -8.911438e+00 -5.000000e+00 5.547278e+00
      vertex   -8.866211e+00 -5.000000e+00 5.623680e+00
      vertex   -8.907964e+00 -4.926503e+00 5.622496e+00
    endloop
  endfacet
  facet normal -7.798650e-01 -4.262294e-01 4.584094e-01
    outer loop
      vertex   -8.991231e+00 -4.856073e+00 5.546325e+00
      vertex   -8.942399e+00 -4.945419e+00 5.546325e+00
      vertex   -8.956662e+00 -4.837402e+00 5.622496e+00
    endloop
  endfacet
  facet normal -7.721831e-01 -4.121177e-01 4.836241e-01
    outer loop
      vertex   -8.813313e+00 -4.759981e+00 5.924969e+00
      vertex   -8.896854e+00 -4.691784e+00 5.849696e+00
      vertex   -8.849908e+00 -4.779746e+00 5.849696e+00
    endloop
  endfacet
  facet normal -7.752168e-01 -4.137368e-01 4.773477e-01
    outer loop
      vertex   -8.849908e+00 -4.779746e+00 5.849696e+00
      vertex   -8.896854e+00 -4.691784e+00 5.849696e+00
      vertex   -8.933094e+00 -4.710997e+00 5.774188e+00
    endloop
  endfacet
  facet normal -7.752169e-01 -4.137413e-01 4.773436e-01
    outer loop
      vertex   -8.849908e+00 -4.779746e+00 5.849696e+00
      vertex   -8.933094e+00 -4.710997e+00 5.774188e+00
      vertex   -8.885999e+00 -4.799238e+00 5.774188e+00
    endloop
  endfacet
  facet normal -7.782067e-01 -4.153370e-01 4.710514e-01
    outer loop
      vertex   -8.885999e+00 -4.799238e+00 5.774188e+00
      vertex   -8.933094e+00 -4.710997e+00 5.774188e+00
      vertex   -8.968825e+00 -4.729944e+00 5.698453e+00
    endloop
  endfacet
  facet normal -7.782068e-01 -4.153416e-01 4.710473e-01
    outer loop
      vertex   -8.885999e+00 -4.799238e+00 5.774188e+00
      vertex   -8.968825e+00 -4.729944e+00 5.698453e+00
      vertex   -8.921584e+00 -4.818457e+00 5.698453e+00
    endloop
  endfacet
  facet normal -7.809837e-01 -4.168236e-01 4.651049e-01
    outer loop
      vertex   -8.921584e+00 -4.818457e+00 5.698453e+00
      vertex   -8.968825e+00 -4.729944e+00 5.698453e+00
      vertex   -9.000000e+00 -4.746476e+00 5.631288e+00
    endloop
  endfacet
  facet normal -7.824903e-01 -3.978840e-01 4.789543e-01
    outer loop
      vertex   -8.988100e+00 -4.514520e+00 5.849696e+00
      vertex   -9.000000e+00 -4.571372e+00 5.783026e+00
      vertex   -8.943022e+00 -4.603173e+00 5.849696e+00
    endloop
  endfacet
  facet normal 0.000000e+00 1.000000e+00 0.000000e+00
    outer loop
      vertex   -8.780001e+00 -4.000000e+00 6.000000e+00
      vertex   -8.836290e+00 -4.000000e+00 5.911517e+00
      vertex   -9.000000e+00 -4.000000e+00 6.000000e+00
    endloop
  endfacet
  facet normal 0.000000e+00 1.000000e+00 0.000000e+00
    outer loop
      vertex   -9.000000e+00 -4.000000e+00 6.000000e+00
      vertex   -8.836290e+00 -4.000000e+00 5.911517e+00
      vertex   -8.891721e+00 -4.000000e+00 5.822502e+00
    endloop
  endfacet
  facet normal 0.000000e+00 1.000000e+00 0.000000e+00
    outer loop
      vertex   -9.000000e+00 -4.000000e+00 6.000000e+00
      vertex   -8.891721e+00 -4.000000e+00 5.822502e+00
      vertex   -8.946292e+00 -4.000000e+00 5.732962e+00
    endloop
  endfacet
  facet normal 0.000000e+00 1.000000e+00 0.000000e+00
    outer loop
      vertex   -8.946292e+00 -4.000000e+00 5.732962e+00
      vertex   -9.000000e+00 -4.000000e+00 5.642904e+00
      vertex   -9.000000e+00 -4.000000e+00 6.000000e+00
    endloop
  endfacet
  facet normal 0.000000e+00 0.000000e+00 -1.000000e+00
    outer loop
      vertex   -9.000000e+00 -4.706986e+00 5.000000e+00
      vertex   -8.959241e+00 -4.780762e+00 5.000000e+00
      vertex   -9.000000e+00 -5.000000e+00 5.000000e+00
    endloop
  endfacet
  facet normal 0.000000e+00 0.000000e+00 -1.000000e+00
    outer loop
      vertex   -9.000000e+00 -5.000000e+00 5.000000e+00
      vertex   -8.959241e+00 -4.780762e+00 5.000000e+00
      vertex   -8.917855e+00 -4.854192e+00 5.000000e+00
    endloop
  endfacet
  facet normal 0.000000e+00 0.000000e+00 -1.000000e+00
    outer loop
      vertex   -9.000000e+00 -5.000000e+00 5.000000e+00
      vertex   -8.917855e+00 -4.854192e+00 5.000000e+00
      vertex   -8.875843e+00 -4.927272e+00 5.000000e+00
    endloop
  endfacet
  facet normal 0.000000e+00 -0.000000e+00 -1.000000e+00
    outer loop
      vertex   -8.875843e+00 -4.927272e+00 5.000000e+00
      vertex   -8.833208e+00 -5.000000e+00 5.000000e+00
      vertex   -9.000000e+00 -5.000000e+00 5.000000e+00
    endloop
  endfacet
  facet normal -1.000000e+00 -0.000000e+00 -0.000000e+00
    outer loop
      vertex   -9.000000e+00 -4.000000e+00 6.000000e+00
      vertex   -9.000000e+00 -4.000000e+00 5.642904e+00
      vertex   -9.000000e+00 -4.299884e+00 6.000000e+00
    endloop
  endfacet
  facet normal -1.000000e+00 -1.138030e-14 -9.557014e-15
    outer loop
      vertex   -9.000000e+00 -4.299884e+00 6.000000e+00
      vertex   -9.000000e+00 -4.000000e+00 5.642904e+00
      vertex   -9.000000e+00 -4.093251e+00 5.568076e+00
    endloop
  endfacet
  facet normal -1.000000e+00 -1.182515e-14 -9.769830e-15
    outer loop
      vertex   -9.000000e+00 -4.299884e+00 6.000000e+00
      vertex   -9.000000e+00 -4.093251e+00 5.568076e+00
      vertex   -9.000000e+00 -4.391538e+00 5.929114e+00
    endloop
  endfacet
  facet normal -1.000000e+00 -1.145617e-14 -9.464987e-15
    outer loop
      vertex   -9.000000e+00 -4.391538e+00 5.929114e+00
      vertex   -9.000000e+00 -4.093251e+00 5.568076e+00
      vertex   -9.000000e+00 -4.185142e+00 5.491622e+00
    endloop
  endfacet
  facet normal -1.000000e+00 3.086403e-14 1.050038e-14
    outer loop
      vertex   -9.000000e+00 -4.391538e+00 5.929114e+00
      vertex   -9.000000e+00 -4.185142e+00 5.491622e+00
      vertex   -9.000000e+00 -4.482038e+00 5.856784e+00
    endloop
  endfacet
  facet normal -1.000000e+00 -4.688132e-15 -1.840541e-14
    outer loop
      vertex   -9.000000e+00 -4.482038e+00 5.856784e+00
      vertex   -9.000000e+00 -4.185142e+00 5.491622e+00
      vertex   -9.000000e+00 -4.571372e+00 5.783026e+00
    endloop
  endfacet
  facet normal -1.000000e+00 2.322167e-14 1.858651e-14
    outer loop
      vertex   -9.000000e+00 -4.571372e+00 5.783026e+00
      vertex   -9.000000e+00 -4.185142e+00 5.491622e+00
      vertex   -9.000000e+00 -4.275656e+00 5.413564e+00
    endloop
  endfacet
  facet normal -1.000000e+00 1.197676e-14 9.586138e-15
    outer loop
      vertex   -9.000000e+00 -4.571372e+00 5.783026e+00
      vertex   -9.000000e+00 -4.275656e+00 5.413564e+00
      vertex   -9.000000e+00 -4.659523e+00 5.707855e+00
    endloop
  endfacet
  facet normal -1.000000e+00 2.490720e-15 -2.787207e-15
    outer loop
      vertex   -9.000000e+00 -4.659523e+00 5.707855e+00
      vertex   -9.000000e+00 -4.275656e+00 5.413564e+00
      vertex   -9.000000e+00 -4.364776e+00 5.333924e+00
    endloop
  endfacet
  facet normal -1.000000e+00 2.469209e-15 -2.804163e-15
    outer loop
      vertex   -9.000000e+00 -4.659523e+00 5.707855e+00
      vertex   -9.000000e+00 -4.364776e+00 5.333924e+00
      vertex   -9.000000e+00 -4.746476e+00 5.631288e+00
    endloop
  endfacet
  facet normal -1.000000e+00 2.527153e-15 -2.729786e-15
    outer loop
      vertex   -9.000000e+00 -4.746476e+00 5.631288e+00
      vertex   -9.000000e+00 -4.364776e+00 5.333924e+00
      vertex   -9.000000e+00 -4.452486e+00 5.252725e+00
    endloop
  endfacet
  facet normal -1.000000e+00 2.500490e-15 -2.750492e-15
    outer loop
      vertex   -9.000000e+00 -4.746476e+00 5.631288e+00
      vertex   -9.000000e+00 -4.452486e+00 5.252725e+00
      vertex   -9.000000e+00 -4.832217e+00 5.553341e+00
    endloop
  endfacet
  facet normal -1.000000e+00 1.187286e-14 9.088445e-15
    outer loop
      vertex   -9.000000e+00 -4.832217e+00 5.553341e+00
      vertex   -9.000000e+00 -4.452486e+00 5.252725e+00
      vertex   -9.000000e+00 -4.538768e+00 5.169989e+00
    endloop
  endfacet
  facet normal -1.000000e+00 -1.223177e-14 -9.363186e-15
    outer loop
      vertex   -9.000000e+00 -4.832217e+00 5.553341e+00
      vertex   -9.000000e+00 -4.538768e+00 5.169989e+00
      vertex   -9.000000e+00 -4.916730e+00 5.474029e+00
    endloop
  endfacet
  facet normal -1.000000e+00 -1.196688e-14 -9.033900e-15
    outer loop
      vertex   -9.000000e+00 -4.916730e+00 5.474029e+00
      vertex   -9.000000e+00 -4.538768e+00 5.169989e+00
      vertex   -9.000000e+00 -4.623607e+00 5.085740e+00
    endloop
  endfacet
  facet normal -1.000000e+00 0.000000e+00 -0.000000e+00
    outer loop
      vertex   -9.000000e+00 -4.916730e+00 5.474029e+00
      vertex   -9.000000e+00 -4.623607e+00 5.085740e+00
      vertex   -9.000000e+00 -5.000000e+00 5.393368e+00
    endloop
  endfacet
  facet normal -1.000000e+00 0.000000e+00 0.000000e+00
    outer loop
      vertex   -9.000000e+00 -5.000000e+00 5.393368e+00
      vertex   -9.000000e+00 -4.623607e+00 5.085740e+00
      vertex   -9.000000e+00 -4.706986e+00 5.000000e+00
    endloop
  endfacet
  facet normal -1.000000e+00 0.000000e+00 0.000000e+00
    outer loop
      vertex   -9.000000e+00 -5.000000e+00 5.393368e+00
      vertex   -9.000000e+00 -4.706986e+00 5.000000e+00
      vertex   -9.000000e+00 -5.000000e+00 5.000000e+00
    endloop
  endfacet
  facet normal 0.000000e+00 0.000000e+00 1.000000e+00
    outer loop
      vertex   -8.226578e+00 -5.000000e+00 6.000000e+00
      vertex   -8.302359e+00 -4.878753e+00 6.000000e+00
      vertex   -8.630701e+00 -5.000000e+00 6.000000e+00
    endloop
  endfacet
  facet normal 0.000000e+00 0.000000e+00 1.000000e+00
    outer loop
      vertex   -8.630701e+00 -5.000000e+00 6.000000e+00
      vertex   -8.302359e+00 -4.878753e+00 6.000000e+00
      vertex   -8.376280e+00 -4.756392e+00 6.000000e+00
    endloop
  endfacet
  facet normal 0.000000e+00 -0.000000e+00 1.000000e+00
    outer loop
      vertex   -8.630701e+00 -5.000000e+00 6.000000e+00
      vertex   -8.376280e+00 -4.756392e+00 6.000000e+00
      vertex   -8.679897e+00 -4.914101e+00 6.000000e+00
    endloop
  endfacet
  facet normal 0.000000e+00 0.000000e+00 1.000000e+00
    outer loop
      vertex   -8.679897e+00 -4.914101e+00 6.000000e+00
      vertex   -8.376280e+00 -4.756392e+00 6.000000e+00
      vertex   -8.448328e+00 -4.632940e+00 6.000000e+00
    endloop
  endfacet
  facet normal 0.000000e+00 -0.000000e+00 1.000000e+00
    outer loop
      vertex   -8.679897e+00 -4.914101e+00 6.000000e+00
      vertex   -8.448328e+00 -4.632940e+00 6.000000e+00
      vertex   -8.728233e+00 -4.827728e+00 6.000000e+00
    endloop
  endfacet
  facet normal 0.000000e+00 0.000000e+00 1.000000e+00
    outer loop
      vertex   -8.728233e+00 -4.827728e+00 6.000000e+00
      vertex   -8.448328e+00 -4.632940e+00 6.000000e+00
      vertex   -8.518490e+00 -4.508415e+00 6.000000e+00
    endloop
  endfacet
  facet normal 0.000000e+00 -0.000000e+00 1.000000e+00
    outer loop
      vertex   -8.728233e+00 -4.827728e+00 6.000000e+00
      vertex   -8.518490e+00 -4.508415e+00 6.000000e+00
      vertex   -8.775705e+00 -4.740886e+00 6.000000e+00
    endloop
  endfacet
  facet normal 0.000000e+00 -0.000000e+00 1.000000e+00
    outer loop
      vertex   -8.775705e+00 -4.740886e+00 6.000000e+00
      vertex   -8.518490e+00 -4.508415e+00 6.000000e+00
      vertex   -8.822311e+00 -4.653583e+00 6.000000e+00
    endloop
  endfacet
  facet normal 0.000000e+00 0.000000e+00 1.000000e+00
    outer loop
      vertex   -8.822311e+00 -4.653583e+00 6.000000e+00
      vertex   -8.518490e+00 -4.508415e+00 6.000000e+00
      vertex   -8.586751e+00 -4.382839e+00 6.000000e+00
    endloop
  endfacet
  facet normal 0.000000e+00 -0.000000e+00 1.000000e+00
    outer loop
      vertex   -8.822311e+00 -4.653583e+00 6.000000e+00
      vertex   -8.586751e+00 -4.382839e+00 6.000000e+00
      vertex   -8.868047e+00 -4.565824e+00 6.000000e+00
    endloop
  endfacet
  facet normal 0.000000e+00 0.000000e+00 1.000000e+00
    outer loop
      vertex   -8.868047e+00 -4.565824e+00 6.000000e+00
      vertex   -8.586751e+00 -4.382839e+00 6.000000e+00
      vertex   -8.653099e+00 -4.256230e+00 6.000000e+00
    endloop
  endfacet
  facet normal 0.000000e+00 -0.000000e+00 1.000000e+00
    outer loop
      vertex   -8.868047e+00 -4.565824e+00 6.000000e+00
      vertex   -8.653099e+00 -4.256230e+00 6.000000e+00
      vertex   -8.912909e+00 -4.477617e+00 6.000000e+00
    endloop
  endfacet
  facet normal -1.800120e-14 2.112541e-14 1.000000e+00
    outer loop
      vertex   -8.912909e+00 -4.477617e+00 6.000000e+00
      vertex   -8.653099e+00 -4.256230e+00 6.000000e+00
      vertex   -8.956895e+00 -4.388969e+00 6.000000e+00
    endloop
  endfacet
  facet normal -7.185897e-15 -3.627378e-15 1.000000e+00
    outer loop
      vertex   -8.956895e+00 -4.388969e+00 6.000000e+00
      vertex   -8.653099e+00 -4.256230e+00 6.000000e+00
      vertex   -8.717520e+00 -4.128611e+00 6.000000e+00
    endloop
  endfacet
  facet normal 1.402156e-14 -2.312561e-14 1.000000e+00
    outer loop
      vertex   -8.956895e+00 -4.388969e+00 6.000000e+00
      vertex   -8.717520e+00 -4.128611e+00 6.000000e+00
      vertex   -9.000000e+00 -4.299884e+00 6.000000e+00
    endloop
  endfacet
  facet normal 0.000000e+00 0.000000e+00 1.000000e+00
    outer loop
      vertex   -9.000000e+00 -4.299884e+00 6.000000e+00
      vertex   -8.717520e+00 -4.128611e+00 6.000000e+00
      vertex   -8.780001e+00 -4.000000e+00 6.000000e+00
    endloop
  endfacet
  facet normal 0.000000e+00 0.000000e+00 1.000000e+00
    outer loop
      vertex   -9.000000e+00 -4.299884e+00 6.000000e+00
      vertex   -8.780001e+00 -4.000000e+00 6.000000e+00
      vertex   -9.000000e+00 -4.000000e+00 6.000000e+00
    endloop
  endfacet
  facet normal 0.000000e+00 -1.000000e+00 0.000000e+00
    outer loop
      vertex   -9.000000e+00 -5.000000e+00 5.000000e+00
      vertex   -8.833208e+00 -5.000000e+00 5.000000e+00
      vertex   -9.000000e+00 -5.000000e+00 5.393368e+00
    endloop
  endfacet
  facet normal 0.000000e+00 -1.000000e+00 0.000000e+00
    outer loop
      vertex   -9.000000e+00 -5.000000e+00 5.393368e+00
      vertex   -8.833208e+00 -5.000000e+00 5.000000e+00
      vertex   -8.763536e+00 -5.000000e+00 5.128657e+00
    endloop
  endfacet
  facet normal 0.000000e+00 -1.000000e+00 0.000000e+00
    outer loop
      vertex   -9.000000e+00 -5.000000e+00 5.393368e+00
      vertex   -8.763536e+00 -5.000000e+00 5.128657e+00
      vertex   -8.692086e+00 -5.000000e+00 5.256309e+00
    endloop
  endfacet
  facet normal -0.000000e+00 -1.000000e+00 0.000000e+00
    outer loop
      vertex   -8.618867e+00 -5.000000e+00 5.382937e+00
      vertex   -8.911438e+00 -5.000000e+00 5.547278e+00
      vertex   -8.692086e+00 -5.000000e+00 5.256309e+00
    endloop
  endfacet
  facet normal 0.000000e+00 -1.000000e+00 0.000000e+00
    outer loop
      vertex   -8.692086e+00 -5.000000e+00 5.256309e+00
      vertex   -8.911438e+00 -5.000000e+00 5.547278e+00
      vertex   -8.956035e+00 -5.000000e+00 5.470506e+00
    endloop
  endfacet
  facet normal 0.000000e+00 -1.000000e+00 0.000000e+00
    outer loop
      vertex   -8.692086e+00 -5.000000e+00 5.256309e+00
      vertex   -8.956035e+00 -5.000000e+00 5.470506e+00
      vertex   -9.000000e+00 -5.000000e+00 5.393368e+00
    endloop
  endfacet
  facet normal -0.000000e+00 -1.000000e+00 0.000000e+00
    outer loop
      vertex   -8.543889e+00 -5.000000e+00 5.508520e+00
      vertex   -8.820357e+00 -5.000000e+00 5.699709e+00
      vertex   -8.618867e+00 -5.000000e+00 5.382937e+00
    endloop
  endfacet
  facet normal 0.000000e+00 -1.000000e+00 0.000000e+00
    outer loop
      vertex   -8.618867e+00 -5.000000e+00 5.382937e+00
      vertex   -8.820357e+00 -5.000000e+00 5.699709e+00
      vertex   -8.866211e+00 -5.000000e+00 5.623680e+00
    endloop
  endfacet
  facet normal 0.000000e+00 -1.000000e+00 0.000000e+00
    outer loop
      vertex   -8.618867e+00 -5.000000e+00 5.382937e+00
      vertex   -8.866211e+00 -5.000000e+00 5.623680e+00
      vertex   -8.911438e+00 -5.000000e+00 5.547278e+00
    endloop
  endfacet
  facet normal -0.000000e+00 -1.000000e+00 0.000000e+00
    outer loop
      vertex   -8.467161e+00 -5.000000e+00 5.633038e+00
      vertex   -8.726773e+00 -5.000000e+00 5.850627e+00
      vertex   -8.543889e+00 -5.000000e+00 5.508520e+00
    endloop
  endfacet
  facet normal 0.000000e+00 -1.000000e+00 0.000000e+00
    outer loop
      vertex   -8.543889e+00 -5.000000e+00 5.508520e+00
      vertex   -8.726773e+00 -5.000000e+00 5.850627e+00
      vertex   -8.773877e+00 -5.000000e+00 5.775359e+00
    endloop
  endfacet
  facet normal 0.000000e+00 -1.000000e+00 0.000000e+00
    outer loop
      vertex   -8.543889e+00 -5.000000e+00 5.508520e+00
      vertex   -8.773877e+00 -5.000000e+00 5.775359e+00
      vertex   -8.820357e+00 -5.000000e+00 5.699709e+00
    endloop
  endfacet
  facet normal 0.000000e+00 -1.000000e+00 0.000000e+00
    outer loop
      vertex   -8.726773e+00 -5.000000e+00 5.850627e+00
      vertex   -8.467161e+00 -5.000000e+00 5.633038e+00
      vertex   -8.679047e+00 -5.000000e+00 5.925509e+00
    endloop
  endfacet
  facet normal 0.000000e+00 -1.000000e+00 0.000000e+00
    outer loop
      vertex   -8.679047e+00 -5.000000e+00 5.925509e+00
      vertex   -8.467161e+00 -5.000000e+00 5.633038e+00
      vertex   -8.388694e+00 -5.000000e+00 5.756470e+00
    endloop
  endfacet
  facet normal 0.000000e+00 -1.000000e+00 0.000000e+00
    outer loop
      vertex   -8.679047e+00 -5.000000e+00 5.925509e+00
      vertex   -8.388694e+00 -5.000000e+00 5.756470e+00
      vertex   -8.630701e+00 -5.000000e+00 6.000000e+00
    endloop
  endfacet
  facet normal 0.000000e+00 -1.000000e+00 0.000000e+00
    outer loop
      vertex   -8.630701e+00 -5.000000e+00 6.000000e+00
      vertex   -8.388694e+00 -5.000000e+00 5.756470e+00
      vertex   -8.308496e+00 -5.000000e+00 5.878798e+00
    endloop
  endfacet
  facet normal 0.000000e+00 -1.000000e+00 0.000000e+00
    outer loop
      vertex   -8.630701e+00 -5.000000e+00 6.000000e+00
      vertex   -8.308496e+00 -5.000000e+00 5.878798e+00
      vertex   -8.226578e+00 -5.000000e+00 6.000000e+00
    endloop
  endfacet
endsolid
