solid ASCII
  facet normal 6.221415e-01 1.862761e-01 7.604217e-01
    outer loop
      vertex   -6.877558e+00 -2.000000e+00 -9.000000e+00
      vertex   -6.894595e+00 -1.943097e+00 -9.000000e+00
      vertex   -6.938957e+00 -2.000000e+00 -8.949766e+00
    endloop
  endfacet
  facet normal 6.226946e-01 1.855927e-01 7.601360e-01
    outer loop
      vertex   -6.938957e+00 -2.000000e+00 -8.949766e+00
      vertex   -6.894595e+00 -1.943097e+00 -9.000000e+00
      vertex   -6.951243e+00 -1.958800e+00 -8.949761e+00
    endloop
  endfacet
  facet normal 6.274338e-01 1.870065e-01 7.558806e-01
    outer loop
      vertex   -6.938957e+00 -2.000000e+00 -8.949766e+00
      vertex   -6.951243e+00 -1.958800e+00 -8.949761e+00
      vertex   -7.000000e+00 -2.000000e+00 -8.899096e+00
    endloop
  endfacet
  facet normal 6.280739e-01 1.859237e-01 7.556160e-01
    outer loop
      vertex   -7.000000e+00 -2.000000e+00 -8.899096e+00
      vertex   -6.951243e+00 -1.958800e+00 -8.949761e+00
      vertex   -7.000000e+00 -1.942977e+00 -8.913127e+00
    endloop
  endfacet
  facet normal 6.277335e-01 1.820233e-01 7.568476e-01
    outer loop
      vertex   -7.000000e+00 -1.942977e+00 -8.913127e+00
      vertex   -6.951243e+00 -1.958800e+00 -8.949761e+00
      vertex   -6.968075e+00 -1.900755e+00 -8.949761e+00
    endloop
  endfacet
  facet normal 6.290747e-01 1.803832e-01 7.561262e-01
    outer loop
      vertex   -7.000000e+00 -1.942977e+00 -8.913127e+00
      vertex   -6.968075e+00 -1.900755e+00 -8.949761e+00
      vertex   -7.000000e+00 -1.885856e+00 -8.926754e+00
    endloop
  endfacet
  facet normal 6.283170e-01 1.763030e-01 7.577170e-01
    outer loop
      vertex   -7.000000e+00 -1.885856e+00 -8.926754e+00
      vertex   -6.968075e+00 -1.900755e+00 -8.949761e+00
      vertex   -6.984305e+00 -1.842910e+00 -8.949761e+00
    endloop
  endfacet
  facet normal 6.304340e-01 1.747762e-01 7.563110e-01
    outer loop
      vertex   -7.000000e+00 -1.885856e+00 -8.926754e+00
      vertex   -6.984305e+00 -1.842910e+00 -8.949761e+00
      vertex   -7.000000e+00 -1.828637e+00 -8.939977e+00
    endloop
  endfacet
  facet normal 6.273310e-01 1.686491e-01 7.602719e-01
    outer loop
      vertex   -7.000000e+00 -1.828637e+00 -8.939977e+00
      vertex   -6.984305e+00 -1.842910e+00 -8.949761e+00
      vertex   -6.927189e+00 -1.828888e+00 -9.000000e+00
    endloop
  endfacet
  facet normal 6.271588e-01 1.702533e-01 7.600563e-01
    outer loop
      vertex   -7.000000e+00 -1.828637e+00 -8.939977e+00
      vertex   -6.927189e+00 -1.828888e+00 -9.000000e+00
      vertex   -6.942744e+00 -1.771588e+00 -9.000000e+00
    endloop
  endfacet
  facet normal 6.240022e-01 1.809931e-01 7.601728e-01
    outer loop
      vertex   -6.894595e+00 -1.943097e+00 -9.000000e+00
      vertex   -6.911139e+00 -1.886059e+00 -9.000000e+00
      vertex   -6.951243e+00 -1.958800e+00 -8.949761e+00
    endloop
  endfacet
  facet normal 6.240437e-01 1.809533e-01 7.601483e-01
    outer loop
      vertex   -6.951243e+00 -1.958800e+00 -8.949761e+00
      vertex   -6.911139e+00 -1.886059e+00 -9.000000e+00
      vertex   -6.968075e+00 -1.900755e+00 -8.949761e+00
    endloop
  endfacet
  facet normal 6.254872e-01 1.755981e-01 7.602178e-01
    outer loop
      vertex   -6.911139e+00 -1.886059e+00 -9.000000e+00
      vertex   -6.927189e+00 -1.828888e+00 -9.000000e+00
      vertex   -6.968075e+00 -1.900755e+00 -8.949761e+00
    endloop
  endfacet
  facet normal 6.255576e-01 1.755288e-01 7.601759e-01
    outer loop
      vertex   -6.968075e+00 -1.900755e+00 -8.949761e+00
      vertex   -6.927189e+00 -1.828888e+00 -9.000000e+00
      vertex   -6.984305e+00 -1.842910e+00 -8.949761e+00
    endloop
  endfacet
  facet normal 6.273544e-01 1.699569e-01 7.599612e-01
    outer loop
      vertex   -7.000000e+00 -1.828637e+00 -8.939977e+00
      vertex   -6.942744e+00 -1.771588e+00 -9.000000e+00
      vertex   -7.000000e+00 -1.771323e+00 -8.952794e+00
    endloop
  endfacet
  facet normal 6.279114e-01 1.646626e-01 7.606665e-01
    outer loop
      vertex   -7.000000e+00 -1.771323e+00 -8.952794e+00
      vertex   -6.942744e+00 -1.771588e+00 -9.000000e+00
      vertex   -6.957804e+00 -1.714161e+00 -9.000000e+00
    endloop
  endfacet
  facet normal 6.280970e-01 1.644390e-01 7.605616e-01
    outer loop
      vertex   -7.000000e+00 -1.771323e+00 -8.952794e+00
      vertex   -6.957804e+00 -1.714161e+00 -9.000000e+00
      vertex   -7.000000e+00 -1.713916e+00 -8.965206e+00
    endloop
  endfacet
  facet normal 6.286377e-01 1.590764e-01 7.612551e-01
    outer loop
      vertex   -7.000000e+00 -1.713916e+00 -8.965206e+00
      vertex   -6.957804e+00 -1.714161e+00 -9.000000e+00
      vertex   -6.972367e+00 -1.656611e+00 -9.000000e+00
    endloop
  endfacet
  facet normal 6.288143e-01 1.589222e-01 7.611414e-01
    outer loop
      vertex   -7.000000e+00 -1.713916e+00 -8.965206e+00
      vertex   -6.972367e+00 -1.656611e+00 -9.000000e+00
      vertex   -7.000000e+00 -1.656418e+00 -8.977211e+00
    endloop
  endfacet
  facet normal 6.293378e-01 1.534945e-01 7.618224e-01
    outer loop
      vertex   -7.000000e+00 -1.656418e+00 -8.977211e+00
      vertex   -6.972367e+00 -1.656611e+00 -9.000000e+00
      vertex   -6.986432e+00 -1.598941e+00 -9.000000e+00
    endloop
  endfacet
  facet normal 6.295066e-01 1.534065e-01 7.617007e-01
    outer loop
      vertex   -7.000000e+00 -1.656418e+00 -8.977211e+00
      vertex   -6.986432e+00 -1.598941e+00 -9.000000e+00
      vertex   -7.000000e+00 -1.598830e+00 -8.988810e+00
    endloop
  endfacet
  facet normal 6.300120e-01 1.479166e-01 7.623684e-01
    outer loop
      vertex   -7.000000e+00 -1.598830e+00 -8.988810e+00
      vertex   -6.986432e+00 -1.598941e+00 -9.000000e+00
      vertex   -7.000000e+00 -1.541154e+00 -9.000000e+00
    endloop
  endfacet
  facet normal -1.000000e+00 0.000000e+00 0.000000e+00
    outer loop
      vertex   -7.000000e+00 -2.000000e+00 -8.899096e+00
      vertex   -7.000000e+00 -1.942977e+00 -8.913127e+00
      vertex   -7.000000e+00 -2.000000e+00 -9.000000e+00
    endloop
  endfacet
  facet normal -1.000000e+00 0.000000e+00 0.000000e+00
    outer loop
      vertex   -7.000000e+00 -2.000000e+00 -9.000000e+00
      vertex   -7.000000e+00 -1.942977e+00 -8.913127e+00
      vertex   -7.000000e+00 -1.885856e+00 -8.926754e+00
    endloop
  endfacet
  facet normal -1.000000e+00 0.000000e+00 0.000000e+00
    outer loop
      vertex   -7.000000e+00 -2.000000e+00 -9.000000e+00
      vertex   -7.000000e+00 -1.885856e+00 -8.926754e+00
      vertex   -7.000000e+00 -1.828637e+00 -8.939977e+00
    endloop
  endfacet
  facet normal -1.000000e+00 0.000000e+00 -0.000000e+00
    outer loop
      vertex   -7.000000e+00 -1.828637e+00 -8.939977e+00
      vertex   -7.000000e+00 -1.771323e+00 -8.952794e+00
      vertex   -7.000000e+00 -2.000000e+00 -9.000000e+00
    endloop
  endfacet
  facet normal -1.000000e+00 0.000000e+00 0.000000e+00
    outer loop
      vertex   -7.000000e+00 -2.000000e+00 -9.000000e+00
      vertex   -7.000000e+00 -1.771323e+00 -8.952794e+00
      vertex   -7.000000e+00 -1.713916e+00 -8.965206e+00
    endloop
  endfacet
  facet normal -1.000000e+00 0.000000e+00 0.000000e+00
    outer loop
      vertex   -7.000000e+00 -2.000000e+00 -9.000000e+00
      vertex   -7.000000e+00 -1.713916e+00 -8.965206e+00
      vertex   -7.000000e+00 -1.656418e+00 -8.977211e+00
    endloop
  endfacet
  facet normal -1.000000e+00 0.000000e+00 -0.000000e+00
    outer loop
      vertex   -7.000000e+00 -1.656418e+00 -8.977211e+00
      vertex   -7.000000e+00 -1.598830e+00 -8.988810e+00
      vertex   -7.000000e+00 -2.000000e+00 -9.000000e+00
    endloop
  endfacet
  facet normal -1.000000e+00 0.000000e+00 0.000000e+00
    outer loop
      vertex   -7.000000e+00 -2.000000e+00 -9.000000e+00
      vertex   -7.000000e+00 -1.598830e+00 -8.988810e+00
      vertex   -7.000000e+00 -1.541154e+00 -9.000000e+00
    endloop
  endfacet
  facet normal 0.000000e+00 0.000000e+00 -1.000000e+00
    outer loop
      vertex   -7.000000e+00 -1.541154e+00 -9.000000e+00
      vertex   -6.986432e+00 -1.598941e+00 -9.000000e+00
      vertex   -7.000000e+00 -2.000000e+00 -9.000000e+00
    endloop
  endfacet
  facet normal 0.000000e+00 0.000000e+00 -1.000000e+00
    outer loop
      vertex   -7.000000e+00 -2.000000e+00 -9.000000e+00
      vertex   -6.986432e+00 -1.598941e+00 -9.000000e+00
      vertex   -6.972367e+00 -1.656611e+00 -9.000000e+00
    endloop
  endfacet
  facet normal 0.000000e+00 0.000000e+00 -1.000000e+00
    outer loop
      vertex   -7.000000e+00 -2.000000e+00 -9.000000e+00
      vertex   -6.972367e+00 -1.656611e+00 -9.000000e+00
      vertex   -6.957804e+00 -1.714161e+00 -9.000000e+00
    endloop
  endfacet
  facet normal 0.000000e+00 -0.000000e+00 -1.000000e+00
    outer loop
      vertex   -6.957804e+00 -1.714161e+00 -9.000000e+00
      vertex   -6.942744e+00 -1.771588e+00 -9.000000e+00
      vertex   -7.000000e+00 -2.000000e+00 -9.000000e+00
    endloop
  endfacet
  facet normal -5.937309e-14 1.488298e-14 -1.000000e+00
    outer loop
      vertex   -7.000000e+00 -2.000000e+00 -9.000000e+00
      vertex   -6.942744e+00 -1.771588e+00 -9.000000e+00
      vertex   -6.927189e+00 -1.828888e+00 -9.000000e+00
    endloop
  endfacet
  facet normal -1.469905e-14 -4.126583e-15 -1.000000e+00
    outer loop
      vertex   -7.000000e+00 -2.000000e+00 -9.000000e+00
      vertex   -6.927189e+00 -1.828888e+00 -9.000000e+00
      vertex   -6.911139e+00 -1.886059e+00 -9.000000e+00
    endloop
  endfacet
  facet normal 4.364397e-14 -4.962752e-14 -1.000000e+00
    outer loop
      vertex   -6.911139e+00 -1.886059e+00 -9.000000e+00
      vertex   -6.894595e+00 -1.943097e+00 -9.000000e+00
      vertex   -7.000000e+00 -2.000000e+00 -9.000000e+00
    endloop
  endfacet
  facet normal 0.000000e+00 3.121751e-14 -1.000000e+00
    outer loop
      vertex   -7.000000e+00 -2.000000e+00 -9.000000e+00
      vertex   -6.894595e+00 -1.943097e+00 -9.000000e+00
      vertex   -6.877558e+00 -2.000000e+00 -9.000000e+00
    endloop
  endfacet
  facet normal 0.000000e+00 -1.000000e+00 0.000000e+00
    outer loop
      vertex   -6.877558e+00 -2.000000e+00 -9.000000e+00
      vertex   -6.938957e+00 -2.000000e+00 -8.949766e+00
      vertex   -7.000000e+00 -2.000000e+00 -9.000000e+00
    endloop
  endfacet
  facet normal 0.000000e+00 -1.000000e+00 0.000000e+00
    outer loop
      vertex   -7.000000e+00 -2.000000e+00 -9.000000e+00
      vertex   -6.938957e+00 -2.000000e+00 -8.949766e+00
      vertex   -7.000000e+00 -2.000000e+00 -8.899096e+00
    endloop
  endfacet
endsolid
