solid ASCII
  facet normal 2.840842e-01 8.193132e-01 4.980181e-01
    outer loop
      vertex   -3.185297e+00 -8.945000e+00 -6.000000e+00
      vertex   -3.288648e+00 -8.909165e+00 -6.000000e+00
      vertex   -3.238462e+00 -8.945000e+00 -5.969673e+00
    endloop
  endfacet
  facet normal 2.864965e-01 8.202333e-01 4.951133e-01
    outer loop
      vertex   -3.238462e+00 -8.945000e+00 -5.969673e+00
      vertex   -3.288648e+00 -8.909165e+00 -6.000000e+00
      vertex   -3.287145e+00 -8.929951e+00 -5.966433e+00
    endloop
  endfacet
  facet normal 2.868190e-01 8.219210e-01 4.921186e-01
    outer loop
      vertex   -3.238462e+00 -8.945000e+00 -5.969673e+00
      vertex   -3.287145e+00 -8.929951e+00 -5.966433e+00
      vertex   -3.291353e+00 -8.945000e+00 -5.938847e+00
    endloop
  endfacet
  facet normal 2.932918e-01 8.197514e-01 4.919224e-01
    outer loop
      vertex   -3.291353e+00 -8.945000e+00 -5.938847e+00
      vertex   -3.287145e+00 -8.929951e+00 -5.966433e+00
      vertex   -3.382448e+00 -8.895854e+00 -5.966433e+00
    endloop
  endfacet
  facet normal 2.933442e-01 8.197924e-01 4.918227e-01
    outer loop
      vertex   -3.291353e+00 -8.945000e+00 -5.938847e+00
      vertex   -3.382448e+00 -8.895854e+00 -5.966433e+00
      vertex   -3.389198e+00 -8.913608e+00 -5.932813e+00
    endloop
  endfacet
  facet normal 3.017209e-01 8.167130e-01 4.918785e-01
    outer loop
      vertex   -3.389198e+00 -8.913608e+00 -5.932813e+00
      vertex   -3.382448e+00 -8.895854e+00 -5.966433e+00
      vertex   -3.484538e+00 -8.878386e+00 -5.932813e+00
    endloop
  endfacet
  facet normal 3.022771e-01 8.182186e-01 4.890264e-01
    outer loop
      vertex   -3.389198e+00 -8.913608e+00 -5.932813e+00
      vertex   -3.484538e+00 -8.878386e+00 -5.932813e+00
      vertex   -3.491437e+00 -8.895963e+00 -5.899141e+00
    endloop
  endfacet
  facet normal 3.106914e-01 8.150263e-01 4.890839e-01
    outer loop
      vertex   -3.491437e+00 -8.895963e+00 -5.899141e+00
      vertex   -3.484538e+00 -8.878386e+00 -5.932813e+00
      vertex   -3.586794e+00 -8.859612e+00 -5.899141e+00
    endloop
  endfacet
  facet normal 3.112595e-01 8.165166e-01 4.862285e-01
    outer loop
      vertex   -3.491437e+00 -8.895963e+00 -5.899141e+00
      vertex   -3.586794e+00 -8.859612e+00 -5.899141e+00
      vertex   -3.593837e+00 -8.877010e+00 -5.865417e+00
    endloop
  endfacet
  facet normal 3.203224e-01 8.129671e-01 4.862902e-01
    outer loop
      vertex   -3.593837e+00 -8.877010e+00 -5.865417e+00
      vertex   -3.586794e+00 -8.859612e+00 -5.899141e+00
      vertex   -3.703799e+00 -8.833683e+00 -5.865417e+00
    endloop
  endfacet
  facet normal 3.209033e-01 8.144415e-01 4.834315e-01
    outer loop
      vertex   -3.593837e+00 -8.877010e+00 -5.865417e+00
      vertex   -3.703799e+00 -8.833683e+00 -5.865417e+00
      vertex   -3.711013e+00 -8.850889e+00 -5.831641e+00
    endloop
  endfacet
  facet normal 3.306096e-01 8.105085e-01 4.835011e-01
    outer loop
      vertex   -3.711013e+00 -8.850889e+00 -5.831641e+00
      vertex   -3.703799e+00 -8.833683e+00 -5.865417e+00
      vertex   -3.820910e+00 -8.806062e+00 -5.831641e+00
    endloop
  endfacet
  facet normal 3.312043e-01 8.119666e-01 4.806392e-01
    outer loop
      vertex   -3.711013e+00 -8.850889e+00 -5.831641e+00
      vertex   -3.820910e+00 -8.806062e+00 -5.831641e+00
      vertex   -3.828291e+00 -8.823074e+00 -5.797815e+00
    endloop
  endfacet
  facet normal 3.409065e-01 8.078986e-01 4.807105e-01
    outer loop
      vertex   -3.828291e+00 -8.823074e+00 -5.797815e+00
      vertex   -3.820910e+00 -8.806062e+00 -5.831641e+00
      vertex   -3.938092e+00 -8.776742e+00 -5.797815e+00
    endloop
  endfacet
  facet normal 3.415147e-01 8.093402e-01 4.778453e-01
    outer loop
      vertex   -3.828291e+00 -8.823074e+00 -5.797815e+00
      vertex   -3.938092e+00 -8.776742e+00 -5.797815e+00
      vertex   -3.945638e+00 -8.793559e+00 -5.763939e+00
    endloop
  endfacet
  facet normal 3.491249e-01 8.060500e-01 4.779071e-01
    outer loop
      vertex   -3.945638e+00 -8.793559e+00 -5.763939e+00
      vertex   -3.938092e+00 -8.776742e+00 -5.797815e+00
      vertex   -4.000000e+00 -8.749537e+00 -5.798473e+00
    endloop
  endfacet
  facet normal 3.500155e-01 8.063029e-01 4.768278e-01
    outer loop
      vertex   -3.945638e+00 -8.793559e+00 -5.763939e+00
      vertex   -4.000000e+00 -8.749537e+00 -5.798473e+00
      vertex   -4.000000e+00 -8.789604e+00 -5.730721e+00
    endloop
  endfacet
  facet normal 2.929181e-01 8.187069e-01 4.938805e-01
    outer loop
      vertex   -3.287145e+00 -8.929951e+00 -5.966433e+00
      vertex   -3.288648e+00 -8.909165e+00 -6.000000e+00
      vertex   -3.382448e+00 -8.895854e+00 -5.966433e+00
    endloop
  endfacet
  facet normal 2.935280e-01 8.170619e-01 4.962371e-01
    outer loop
      vertex   -3.382448e+00 -8.895854e+00 -5.966433e+00
      vertex   -3.288648e+00 -8.909165e+00 -6.000000e+00
      vertex   -3.391586e+00 -8.872184e+00 -6.000000e+00
    endloop
  endfacet
  facet normal 3.014414e-01 8.159565e-01 4.933032e-01
    outer loop
      vertex   -3.382448e+00 -8.895854e+00 -5.966433e+00
      vertex   -3.391586e+00 -8.872184e+00 -6.000000e+00
      vertex   -3.477598e+00 -8.860702e+00 -5.966433e+00
    endloop
  endfacet
  facet normal 3.024842e-01 8.134187e-01 4.968433e-01
    outer loop
      vertex   -3.477598e+00 -8.860702e+00 -5.966433e+00
      vertex   -3.391586e+00 -8.872184e+00 -6.000000e+00
      vertex   -3.494102e+00 -8.834062e+00 -6.000000e+00
    endloop
  endfacet
  facet normal 3.099306e-01 8.130304e-01 4.928738e-01
    outer loop
      vertex   -3.477598e+00 -8.860702e+00 -5.966433e+00
      vertex   -3.494102e+00 -8.834062e+00 -6.000000e+00
      vertex   -3.572577e+00 -8.824496e+00 -5.966433e+00
    endloop
  endfacet
  facet normal 3.114284e-01 8.097498e-01 4.973104e-01
    outer loop
      vertex   -3.572577e+00 -8.824496e+00 -5.966433e+00
      vertex   -3.494102e+00 -8.834062e+00 -6.000000e+00
      vertex   -3.596187e+00 -8.794800e+00 -6.000000e+00
    endloop
  endfacet
  facet normal 3.191342e-01 8.099516e-01 4.920688e-01
    outer loop
      vertex   -3.572577e+00 -8.824496e+00 -5.966433e+00
      vertex   -3.596187e+00 -8.794800e+00 -6.000000e+00
      vertex   -3.681888e+00 -8.781425e+00 -5.966433e+00
    endloop
  endfacet
  facet normal 3.205028e-01 8.064081e-01 4.969749e-01
    outer loop
      vertex   -3.681888e+00 -8.781425e+00 -5.966433e+00
      vertex   -3.596187e+00 -8.794800e+00 -6.000000e+00
      vertex   -3.697828e+00 -8.754403e+00 -6.000000e+00
    endloop
  endfacet
  facet normal 3.286885e-01 8.057989e-01 4.925972e-01
    outer loop
      vertex   -3.681888e+00 -8.781425e+00 -5.966433e+00
      vertex   -3.697828e+00 -8.754403e+00 -6.000000e+00
      vertex   -3.790922e+00 -8.736950e+00 -5.966433e+00
    endloop
  endfacet
  facet normal 3.295770e-01 8.030376e-01 4.964974e-01
    outer loop
      vertex   -3.790922e+00 -8.736950e+00 -5.966433e+00
      vertex   -3.697828e+00 -8.754403e+00 -6.000000e+00
      vertex   -3.799018e+00 -8.712874e+00 -6.000000e+00
    endloop
  endfacet
  facet normal 3.381821e-01 8.014424e-01 4.932778e-01
    outer loop
      vertex   -3.790922e+00 -8.736950e+00 -5.966433e+00
      vertex   -3.799018e+00 -8.712874e+00 -6.000000e+00
      vertex   -3.899651e+00 -8.691070e+00 -5.966433e+00
    endloop
  endfacet
  facet normal 3.386555e-01 7.996436e-01 4.958655e-01
    outer loop
      vertex   -3.899651e+00 -8.691070e+00 -5.966433e+00
      vertex   -3.799018e+00 -8.712874e+00 -6.000000e+00
      vertex   -3.899745e+00 -8.670215e+00 -6.000000e+00
    endloop
  endfacet
  facet normal 3.476544e-01 7.968623e-01 4.941123e-01
    outer loop
      vertex   -3.899651e+00 -8.691070e+00 -5.966433e+00
      vertex   -3.899745e+00 -8.670215e+00 -6.000000e+00
      vertex   -4.000000e+00 -8.667949e+00 -5.933115e+00
    endloop
  endfacet
  facet normal 3.478805e-01 7.965467e-01 4.944619e-01
    outer loop
      vertex   -4.000000e+00 -8.667949e+00 -5.933115e+00
      vertex   -3.899745e+00 -8.670215e+00 -6.000000e+00
      vertex   -4.000000e+00 -8.626430e+00 -6.000000e+00
    endloop
  endfacet
  facet normal 3.484365e-01 7.998955e-01 4.886299e-01
    outer loop
      vertex   -4.000000e+00 -8.708985e+00 -5.865939e+00
      vertex   -3.915170e+00 -8.725655e+00 -5.899141e+00
      vertex   -4.000000e+00 -8.667949e+00 -5.933115e+00
    endloop
  endfacet
  facet normal 3.479782e-01 7.996502e-01 4.893575e-01
    outer loop
      vertex   -4.000000e+00 -8.667949e+00 -5.933115e+00
      vertex   -3.915170e+00 -8.725655e+00 -5.899141e+00
      vertex   -3.907434e+00 -8.708415e+00 -5.932813e+00
    endloop
  endfacet
  facet normal 3.473268e-01 7.981812e-01 4.922102e-01
    outer loop
      vertex   -4.000000e+00 -8.667949e+00 -5.933115e+00
      vertex   -3.907434e+00 -8.708415e+00 -5.932813e+00
      vertex   -3.899651e+00 -8.691070e+00 -5.966433e+00
    endloop
  endfacet
  facet normal 3.384326e-01 8.020359e-01 4.921400e-01
    outer loop
      vertex   -3.899651e+00 -8.691070e+00 -5.966433e+00
      vertex   -3.907434e+00 -8.708415e+00 -5.932813e+00
      vertex   -3.790922e+00 -8.736950e+00 -5.966433e+00
    endloop
  endfacet
  facet normal 3.491896e-01 8.031347e-01 4.827435e-01
    outer loop
      vertex   -4.000000e+00 -8.749537e+00 -5.798473e+00
      vertex   -3.930499e+00 -8.759819e+00 -5.831641e+00
      vertex   -4.000000e+00 -8.708985e+00 -5.865939e+00
    endloop
  endfacet
  facet normal 3.485555e-01 8.028716e-01 4.836386e-01
    outer loop
      vertex   -4.000000e+00 -8.708985e+00 -5.865939e+00
      vertex   -3.930499e+00 -8.759819e+00 -5.831641e+00
      vertex   -3.922858e+00 -8.742790e+00 -5.865417e+00
    endloop
  endfacet
  facet normal 3.479027e-01 8.014261e-01 4.864976e-01
    outer loop
      vertex   -4.000000e+00 -8.708985e+00 -5.865939e+00
      vertex   -3.922858e+00 -8.742790e+00 -5.865417e+00
      vertex   -3.915170e+00 -8.725655e+00 -5.899141e+00
    endloop
  endfacet
  facet normal 3.396777e-01 8.049866e-01 4.864316e-01
    outer loop
      vertex   -3.915170e+00 -8.725655e+00 -5.899141e+00
      vertex   -3.922858e+00 -8.742790e+00 -5.865417e+00
      vertex   -3.806008e+00 -8.771718e+00 -5.899141e+00
    endloop
  endfacet
  facet normal 3.390572e-01 8.035161e-01 4.892874e-01
    outer loop
      vertex   -3.915170e+00 -8.725655e+00 -5.899141e+00
      vertex   -3.806008e+00 -8.771718e+00 -5.899141e+00
      vertex   -3.798488e+00 -8.754387e+00 -5.932813e+00
    endloop
  endfacet
  facet normal 3.294082e-01 8.075632e-01 4.892156e-01
    outer loop
      vertex   -3.798488e+00 -8.754387e+00 -5.932813e+00
      vertex   -3.806008e+00 -8.771718e+00 -5.899141e+00
      vertex   -3.689237e+00 -8.798951e+00 -5.932813e+00
    endloop
  endfacet
  facet normal 3.288015e-01 8.060761e-01 4.920680e-01
    outer loop
      vertex   -3.798488e+00 -8.754387e+00 -5.932813e+00
      vertex   -3.689237e+00 -8.798951e+00 -5.932813e+00
      vertex   -3.681888e+00 -8.781425e+00 -5.966433e+00
    endloop
  endfacet
  facet normal 3.191489e-01 8.099889e-01 4.919980e-01
    outer loop
      vertex   -3.681888e+00 -8.781425e+00 -5.966433e+00
      vertex   -3.689237e+00 -8.798951e+00 -5.932813e+00
      vertex   -3.572577e+00 -8.824496e+00 -5.966433e+00
    endloop
  endfacet
  facet normal 3.510038e-01 8.093708e-01 4.708664e-01
    outer loop
      vertex   -4.000000e+00 -8.829185e+00 -5.662685e+00
      vertex   -3.960586e+00 -8.826874e+00 -5.696039e+00
      vertex   -4.000000e+00 -8.789604e+00 -5.730721e+00
    endloop
  endfacet
  facet normal 3.496870e-01 8.091852e-01 4.721635e-01
    outer loop
      vertex   -4.000000e+00 -8.789604e+00 -5.730721e+00
      vertex   -3.960586e+00 -8.826874e+00 -5.696039e+00
      vertex   -3.953136e+00 -8.810269e+00 -5.730013e+00
    endloop
  endfacet
  facet normal 3.490277e-01 8.077883e-01 4.750344e-01
    outer loop
      vertex   -4.000000e+00 -8.789604e+00 -5.730721e+00
      vertex   -3.953136e+00 -8.810269e+00 -5.730013e+00
      vertex   -3.945638e+00 -8.793559e+00 -5.763939e+00
    endloop
  endfacet
  facet normal 3.421189e-01 8.107720e-01 4.749772e-01
    outer loop
      vertex   -3.945638e+00 -8.793559e+00 -5.763939e+00
      vertex   -3.953136e+00 -8.810269e+00 -5.730013e+00
      vertex   -3.835626e+00 -8.839980e+00 -5.763939e+00
    endloop
  endfacet
  facet normal 3.415147e-01 8.093402e-01 4.778453e-01
    outer loop
      vertex   -3.945638e+00 -8.793559e+00 -5.763939e+00
      vertex   -3.835626e+00 -8.839980e+00 -5.763939e+00
      vertex   -3.828291e+00 -8.823074e+00 -5.797815e+00
    endloop
  endfacet
  facet normal 3.317951e-01 8.134149e-01 4.777742e-01
    outer loop
      vertex   -3.828291e+00 -8.823074e+00 -5.797815e+00
      vertex   -3.835626e+00 -8.839980e+00 -5.763939e+00
      vertex   -3.718182e+00 -8.867988e+00 -5.797815e+00
    endloop
  endfacet
  facet normal 3.312043e-01 8.119666e-01 4.806392e-01
    outer loop
      vertex   -3.828291e+00 -8.823074e+00 -5.797815e+00
      vertex   -3.718182e+00 -8.867988e+00 -5.797815e+00
      vertex   -3.711013e+00 -8.850889e+00 -5.831641e+00
    endloop
  endfacet
  facet normal 3.214805e-01 8.159063e-01 4.805698e-01
    outer loop
      vertex   -3.711013e+00 -8.850889e+00 -5.831641e+00
      vertex   -3.718182e+00 -8.867988e+00 -5.797815e+00
      vertex   -3.600837e+00 -8.894300e+00 -5.831641e+00
    endloop
  endfacet
  facet normal 3.209033e-01 8.144415e-01 4.834315e-01
    outer loop
      vertex   -3.711013e+00 -8.850889e+00 -5.831641e+00
      vertex   -3.600837e+00 -8.894300e+00 -5.831641e+00
      vertex   -3.593837e+00 -8.877010e+00 -5.865417e+00
    endloop
  endfacet
  facet normal 3.118239e-01 8.179971e-01 4.833700e-01
    outer loop
      vertex   -3.593837e+00 -8.877010e+00 -5.865417e+00
      vertex   -3.600837e+00 -8.894300e+00 -5.831641e+00
      vertex   -3.498293e+00 -8.913432e+00 -5.865417e+00
    endloop
  endfacet
  facet normal 3.112595e-01 8.165166e-01 4.862285e-01
    outer loop
      vertex   -3.593837e+00 -8.877010e+00 -5.865417e+00
      vertex   -3.498293e+00 -8.913432e+00 -5.865417e+00
      vertex   -3.491437e+00 -8.895963e+00 -5.899141e+00
    endloop
  endfacet
  facet normal 3.027603e-01 8.197405e-01 4.861705e-01
    outer loop
      vertex   -3.491437e+00 -8.895963e+00 -5.899141e+00
      vertex   -3.498293e+00 -8.913432e+00 -5.865417e+00
      vertex   -3.396297e+00 -8.945000e+00 -5.875706e+00
    endloop
  endfacet
  facet normal 3.028794e-01 8.198488e-01 4.859137e-01
    outer loop
      vertex   -3.491437e+00 -8.895963e+00 -5.899141e+00
      vertex   -3.396297e+00 -8.945000e+00 -5.875706e+00
      vertex   -3.395908e+00 -8.931254e+00 -5.899141e+00
    endloop
  endfacet
  facet normal 2.960467e-01 8.217484e-01 4.869146e-01
    outer loop
      vertex   -3.395908e+00 -8.931254e+00 -5.899141e+00
      vertex   -3.396297e+00 -8.945000e+00 -5.875706e+00
      vertex   -3.343965e+00 -8.945000e+00 -5.907524e+00
    endloop
  endfacet
  facet normal 2.960545e-01 8.205130e-01 4.889889e-01
    outer loop
      vertex   -3.395908e+00 -8.931254e+00 -5.899141e+00
      vertex   -3.343965e+00 -8.945000e+00 -5.907524e+00
      vertex   -3.389198e+00 -8.913608e+00 -5.932813e+00
    endloop
  endfacet
  facet normal 2.932555e-01 8.193708e-01 4.925776e-01
    outer loop
      vertex   -3.389198e+00 -8.913608e+00 -5.932813e+00
      vertex   -3.343965e+00 -8.945000e+00 -5.907524e+00
      vertex   -3.291353e+00 -8.945000e+00 -5.938847e+00
    endloop
  endfacet
  facet normal 3.524552e-01 8.122390e-01 4.648044e-01
    outer loop
      vertex   -4.000000e+00 -8.868279e+00 -5.594370e+00
      vertex   -3.975343e+00 -8.859763e+00 -5.627947e+00
      vertex   -4.000000e+00 -8.829185e+00 -5.662685e+00
    endloop
  endfacet
  facet normal 3.502427e-01 8.122768e-01 4.664081e-01
    outer loop
      vertex   -4.000000e+00 -8.829185e+00 -5.662685e+00
      vertex   -3.975343e+00 -8.859763e+00 -5.627947e+00
      vertex   -3.967989e+00 -8.843372e+00 -5.662017e+00
    endloop
  endfacet
  facet normal 3.495752e-01 8.109063e-01 4.692847e-01
    outer loop
      vertex   -4.000000e+00 -8.829185e+00 -5.662685e+00
      vertex   -3.967989e+00 -8.843372e+00 -5.662017e+00
      vertex   -3.960586e+00 -8.826874e+00 -5.696039e+00
    endloop
  endfacet
  facet normal 3.433151e-01 8.136068e-01 4.692321e-01
    outer loop
      vertex   -3.960586e+00 -8.826874e+00 -5.696039e+00
      vertex   -3.967989e+00 -8.843372e+00 -5.662017e+00
      vertex   -3.850158e+00 -8.873471e+00 -5.696039e+00
    endloop
  endfacet
  facet normal 3.427191e-01 8.121942e-01 4.721061e-01
    outer loop
      vertex   -3.960586e+00 -8.826874e+00 -5.696039e+00
      vertex   -3.850158e+00 -8.873471e+00 -5.696039e+00
      vertex   -3.842915e+00 -8.856779e+00 -5.730013e+00
    endloop
  endfacet
  facet normal 3.329648e-01 8.162825e-01 4.720353e-01
    outer loop
      vertex   -3.842915e+00 -8.856779e+00 -5.730013e+00
      vertex   -3.850158e+00 -8.873471e+00 -5.696039e+00
      vertex   -3.732386e+00 -8.901864e+00 -5.730013e+00
    endloop
  endfacet
  facet normal 3.323819e-01 8.148536e-01 4.749062e-01
    outer loop
      vertex   -3.842915e+00 -8.856779e+00 -5.730013e+00
      vertex   -3.732386e+00 -8.901864e+00 -5.730013e+00
      vertex   -3.725307e+00 -8.884980e+00 -5.763939e+00
    endloop
  endfacet
  facet normal 3.226232e-01 8.188064e-01 4.748371e-01
    outer loop
      vertex   -3.725307e+00 -8.884980e+00 -5.763939e+00
      vertex   -3.732386e+00 -8.901864e+00 -5.730013e+00
      vertex   -3.614706e+00 -8.928558e+00 -5.763939e+00
    endloop
  endfacet
  facet normal 3.220537e-01 8.173612e-01 4.777049e-01
    outer loop
      vertex   -3.725307e+00 -8.884980e+00 -5.763939e+00
      vertex   -3.614706e+00 -8.928558e+00 -5.763939e+00
      vertex   -3.607793e+00 -8.911483e+00 -5.797815e+00
    endloop
  endfacet
  facet normal 3.147252e-01 8.202376e-01 4.776593e-01
    outer loop
      vertex   -3.607793e+00 -8.911483e+00 -5.797815e+00
      vertex   -3.614706e+00 -8.928558e+00 -5.763939e+00
      vertex   -3.551570e+00 -8.945000e+00 -5.777304e+00
    endloop
  endfacet
  facet normal 3.119954e-01 8.185314e-01 4.823539e-01
    outer loop
      vertex   -3.607793e+00 -8.911483e+00 -5.797815e+00
      vertex   -3.551570e+00 -8.945000e+00 -5.777304e+00
      vertex   -3.500103e+00 -8.945000e+00 -5.810594e+00
    endloop
  endfacet
  facet normal 3.563793e-01 8.142377e-01 4.582693e-01
    outer loop
      vertex   -4.000000e+00 -8.906884e+00 -5.525777e+00
      vertex   -3.989909e+00 -8.892226e+00 -5.559668e+00
      vertex   -4.000000e+00 -8.868279e+00 -5.594370e+00
    endloop
  endfacet
  facet normal 3.507967e-01 8.153227e-01 4.606414e-01
    outer loop
      vertex   -4.000000e+00 -8.868279e+00 -5.594370e+00
      vertex   -3.989909e+00 -8.892226e+00 -5.559668e+00
      vertex   -3.982650e+00 -8.876048e+00 -5.593831e+00
    endloop
  endfacet
  facet normal 3.501078e-01 8.139844e-01 4.635233e-01
    outer loop
      vertex   -4.000000e+00 -8.868279e+00 -5.594370e+00
      vertex   -3.982650e+00 -8.876048e+00 -5.593831e+00
      vertex   -3.975343e+00 -8.859763e+00 -5.627947e+00
    endloop
  endfacet
  facet normal 3.444950e-01 8.164029e-01 4.634756e-01
    outer loop
      vertex   -3.975343e+00 -8.859763e+00 -5.627947e+00
      vertex   -3.982650e+00 -8.876048e+00 -5.593831e+00
      vertex   -3.864504e+00 -8.906534e+00 -5.627947e+00
    endloop
  endfacet
  facet normal 3.439071e-01 8.150097e-01 4.663552e-01
    outer loop
      vertex   -3.975343e+00 -8.859763e+00 -5.627947e+00
      vertex   -3.864504e+00 -8.906534e+00 -5.627947e+00
      vertex   -3.857354e+00 -8.890056e+00 -5.662017e+00
    endloop
  endfacet
  facet normal 3.343751e-01 8.190052e-01 4.662873e-01
    outer loop
      vertex   -3.857354e+00 -8.890056e+00 -5.662017e+00
      vertex   -3.864504e+00 -8.906534e+00 -5.627947e+00
      vertex   -3.754331e+00 -8.945000e+00 -5.639389e+00
    endloop
  endfacet
  facet normal 3.338961e-01 8.185657e-01 4.674009e-01
    outer loop
      vertex   -3.857354e+00 -8.890056e+00 -5.662017e+00
      vertex   -3.754331e+00 -8.945000e+00 -5.639389e+00
      vertex   -3.746410e+00 -8.935311e+00 -5.662017e+00
    endloop
  endfacet
  facet normal 3.267962e-01 8.220021e-01 4.663869e-01
    outer loop
      vertex   -3.746410e+00 -8.935311e+00 -5.662017e+00
      vertex   -3.754331e+00 -8.945000e+00 -5.639389e+00
      vertex   -3.704145e+00 -8.945000e+00 -5.674554e+00
    endloop
  endfacet
  facet normal 3.272125e-01 8.202777e-01 4.691230e-01
    outer loop
      vertex   -3.746410e+00 -8.935311e+00 -5.662017e+00
      vertex   -3.704145e+00 -8.945000e+00 -5.674554e+00
      vertex   -3.739420e+00 -8.918641e+00 -5.696039e+00
    endloop
  endfacet
  facet normal 3.245603e-01 8.194292e-01 4.724366e-01
    outer loop
      vertex   -3.739420e+00 -8.918641e+00 -5.696039e+00
      vertex   -3.704145e+00 -8.945000e+00 -5.674554e+00
      vertex   -3.653613e+00 -8.945000e+00 -5.709269e+00
    endloop
  endfacet
  facet normal 3.245696e-01 8.196890e-01 4.719793e-01
    outer loop
      vertex   -3.739420e+00 -8.918641e+00 -5.696039e+00
      vertex   -3.653613e+00 -8.945000e+00 -5.709269e+00
      vertex   -3.732386e+00 -8.901864e+00 -5.730013e+00
    endloop
  endfacet
  facet normal 3.217818e-01 8.174042e-01 4.778146e-01
    outer loop
      vertex   -3.732386e+00 -8.901864e+00 -5.730013e+00
      vertex   -3.653613e+00 -8.945000e+00 -5.709269e+00
      vertex   -3.602744e+00 -8.945000e+00 -5.743527e+00
    endloop
  endfacet
  facet normal 3.222294e-01 8.205368e-01 4.721098e-01
    outer loop
      vertex   -3.732386e+00 -8.901864e+00 -5.730013e+00
      vertex   -3.602744e+00 -8.945000e+00 -5.743527e+00
      vertex   -3.614706e+00 -8.928558e+00 -5.763939e+00
    endloop
  endfacet
  facet normal 3.146749e-01 8.207906e-01 4.767416e-01
    outer loop
      vertex   -3.614706e+00 -8.928558e+00 -5.763939e+00
      vertex   -3.602744e+00 -8.945000e+00 -5.743527e+00
      vertex   -3.551570e+00 -8.945000e+00 -5.777304e+00
    endloop
  endfacet
  facet normal 3.500797e-01 8.195637e-01 4.536072e-01
    outer loop
      vertex   -4.000000e+00 -8.945000e+00 -5.456910e+00
      vertex   -3.951575e+00 -8.945000e+00 -5.494283e+00
      vertex   -4.000000e+00 -8.906884e+00 -5.525777e+00
    endloop
  endfacet
  facet normal 3.529584e-01 8.202866e-01 4.500559e-01
    outer loop
      vertex   -4.000000e+00 -8.906884e+00 -5.525777e+00
      vertex   -3.951575e+00 -8.945000e+00 -5.494283e+00
      vertex   -3.997120e+00 -8.908297e+00 -5.525460e+00
    endloop
  endfacet
  facet normal 3.505301e-01 8.170639e-01 4.577501e-01
    outer loop
      vertex   -4.000000e+00 -8.906884e+00 -5.525777e+00
      vertex   -3.997120e+00 -8.908297e+00 -5.525460e+00
      vertex   -3.989909e+00 -8.892226e+00 -5.559668e+00
    endloop
  endfacet
  facet normal 3.465428e-01 8.187818e-01 4.577166e-01
    outer loop
      vertex   -3.989909e+00 -8.892226e+00 -5.559668e+00
      vertex   -3.997120e+00 -8.908297e+00 -5.525460e+00
      vertex   -3.902794e+00 -8.945000e+00 -5.531220e+00
    endloop
  endfacet
  facet normal 3.451169e-01 8.178767e-01 4.604041e-01
    outer loop
      vertex   -3.989909e+00 -8.892226e+00 -5.559668e+00
      vertex   -3.902794e+00 -8.945000e+00 -5.531220e+00
      vertex   -3.878664e+00 -8.939168e+00 -5.559668e+00
    endloop
  endfacet
  facet normal 3.387608e-01 8.229556e-01 4.560540e-01
    outer loop
      vertex   -3.878664e+00 -8.939168e+00 -5.559668e+00
      vertex   -3.902794e+00 -8.945000e+00 -5.531220e+00
      vertex   -3.853658e+00 -8.945000e+00 -5.567719e+00
    endloop
  endfacet
  facet normal 3.395494e-01 8.201162e-01 4.605601e-01
    outer loop
      vertex   -3.878664e+00 -8.939168e+00 -5.559668e+00
      vertex   -3.853658e+00 -8.945000e+00 -5.567719e+00
      vertex   -3.871607e+00 -8.922905e+00 -5.593831e+00
    endloop
  endfacet
  facet normal 3.369129e-01 8.201619e-01 4.624112e-01
    outer loop
      vertex   -3.871607e+00 -8.922905e+00 -5.593831e+00
      vertex   -3.853658e+00 -8.945000e+00 -5.567719e+00
      vertex   -3.804170e+00 -8.945000e+00 -5.603776e+00
    endloop
  endfacet
  facet normal 3.368794e-01 8.196030e-01 4.634255e-01
    outer loop
      vertex   -3.871607e+00 -8.922905e+00 -5.593831e+00
      vertex   -3.804170e+00 -8.945000e+00 -5.603776e+00
      vertex   -3.864504e+00 -8.906534e+00 -5.627947e+00
    endloop
  endfacet
  facet normal 3.342514e-01 8.182103e-01 4.677690e-01
    outer loop
      vertex   -3.864504e+00 -8.906534e+00 -5.627947e+00
      vertex   -3.804170e+00 -8.945000e+00 -5.603776e+00
      vertex   -3.754331e+00 -8.945000e+00 -5.639389e+00
    endloop
  endfacet
  facet normal 3.465486e-01 8.188034e-01 4.576735e-01
    outer loop
      vertex   -3.951575e+00 -8.945000e+00 -5.494283e+00
      vertex   -3.902794e+00 -8.945000e+00 -5.531220e+00
      vertex   -3.997120e+00 -8.908297e+00 -5.525460e+00
    endloop
  endfacet
  facet normal 3.053503e-01 8.213432e-01 4.818262e-01
    outer loop
      vertex   -3.448344e+00 -8.945000e+00 -5.843396e+00
      vertex   -3.505106e+00 -8.930793e+00 -5.831641e+00
      vertex   -3.500103e+00 -8.945000e+00 -5.810594e+00
    endloop
  endfacet
  facet normal 3.126277e-01 8.201056e-01 4.792606e-01
    outer loop
      vertex   -3.500103e+00 -8.945000e+00 -5.810594e+00
      vertex   -3.505106e+00 -8.930793e+00 -5.831641e+00
      vertex   -3.600837e+00 -8.894300e+00 -5.831641e+00
    endloop
  endfacet
  facet normal 3.121016e-01 8.195772e-01 4.805057e-01
    outer loop
      vertex   -3.500103e+00 -8.945000e+00 -5.810594e+00
      vertex   -3.600837e+00 -8.894300e+00 -5.831641e+00
      vertex   -3.607793e+00 -8.911483e+00 -5.797815e+00
    endloop
  endfacet
  facet normal 3.214805e-01 8.159063e-01 4.805698e-01
    outer loop
      vertex   -3.607793e+00 -8.911483e+00 -5.797815e+00
      vertex   -3.600837e+00 -8.894300e+00 -5.831641e+00
      vertex   -3.718182e+00 -8.867988e+00 -5.797815e+00
    endloop
  endfacet
  facet normal 3.220537e-01 8.173612e-01 4.777049e-01
    outer loop
      vertex   -3.607793e+00 -8.911483e+00 -5.797815e+00
      vertex   -3.718182e+00 -8.867988e+00 -5.797815e+00
      vertex   -3.725307e+00 -8.884980e+00 -5.763939e+00
    endloop
  endfacet
  facet normal 3.317951e-01 8.134149e-01 4.777742e-01
    outer loop
      vertex   -3.725307e+00 -8.884980e+00 -5.763939e+00
      vertex   -3.718182e+00 -8.867988e+00 -5.797815e+00
      vertex   -3.835626e+00 -8.839980e+00 -5.763939e+00
    endloop
  endfacet
  facet normal 3.323819e-01 8.148536e-01 4.749062e-01
    outer loop
      vertex   -3.725307e+00 -8.884980e+00 -5.763939e+00
      vertex   -3.835626e+00 -8.839980e+00 -5.763939e+00
      vertex   -3.842915e+00 -8.856779e+00 -5.730013e+00
    endloop
  endfacet
  facet normal 3.421189e-01 8.107720e-01 4.749772e-01
    outer loop
      vertex   -3.842915e+00 -8.856779e+00 -5.730013e+00
      vertex   -3.835626e+00 -8.839980e+00 -5.763939e+00
      vertex   -3.953136e+00 -8.810269e+00 -5.730013e+00
    endloop
  endfacet
  facet normal 3.427191e-01 8.121942e-01 4.721061e-01
    outer loop
      vertex   -3.842915e+00 -8.856779e+00 -5.730013e+00
      vertex   -3.953136e+00 -8.810269e+00 -5.730013e+00
      vertex   -3.960586e+00 -8.826874e+00 -5.696039e+00
    endloop
  endfacet
  facet normal 3.054328e-01 8.204283e-01 4.833303e-01
    outer loop
      vertex   -3.505106e+00 -8.930793e+00 -5.831641e+00
      vertex   -3.448344e+00 -8.945000e+00 -5.843396e+00
      vertex   -3.498293e+00 -8.913432e+00 -5.865417e+00
    endloop
  endfacet
  facet normal 3.026589e-01 8.189695e-01 4.875310e-01
    outer loop
      vertex   -3.498293e+00 -8.913432e+00 -5.865417e+00
      vertex   -3.448344e+00 -8.945000e+00 -5.843396e+00
      vertex   -3.396297e+00 -8.945000e+00 -5.875706e+00
    endloop
  endfacet
  facet normal 3.022771e-01 8.182186e-01 4.890264e-01
    outer loop
      vertex   -3.491437e+00 -8.895963e+00 -5.899141e+00
      vertex   -3.395908e+00 -8.931254e+00 -5.899141e+00
      vertex   -3.389198e+00 -8.913608e+00 -5.932813e+00
    endloop
  endfacet
  facet normal 3.017209e-01 8.167130e-01 4.918785e-01
    outer loop
      vertex   -3.382448e+00 -8.895854e+00 -5.966433e+00
      vertex   -3.477598e+00 -8.860702e+00 -5.966433e+00
      vertex   -3.484538e+00 -8.878386e+00 -5.932813e+00
    endloop
  endfacet
  facet normal 3.101195e-01 8.135262e-01 4.919360e-01
    outer loop
      vertex   -3.484538e+00 -8.878386e+00 -5.932813e+00
      vertex   -3.477598e+00 -8.860702e+00 -5.966433e+00
      vertex   -3.579707e+00 -8.842108e+00 -5.932813e+00
    endloop
  endfacet
  facet normal 3.106914e-01 8.150263e-01 4.890839e-01
    outer loop
      vertex   -3.484538e+00 -8.878386e+00 -5.932813e+00
      vertex   -3.579707e+00 -8.842108e+00 -5.932813e+00
      vertex   -3.586794e+00 -8.859612e+00 -5.899141e+00
    endloop
  endfacet
  facet normal 3.197376e-01 8.114828e-01 4.891457e-01
    outer loop
      vertex   -3.586794e+00 -8.859612e+00 -5.899141e+00
      vertex   -3.579707e+00 -8.842108e+00 -5.932813e+00
      vertex   -3.696540e+00 -8.816370e+00 -5.899141e+00
    endloop
  endfacet
  facet normal 3.203224e-01 8.129671e-01 4.862902e-01
    outer loop
      vertex   -3.586794e+00 -8.859612e+00 -5.899141e+00
      vertex   -3.696540e+00 -8.816370e+00 -5.899141e+00
      vertex   -3.703799e+00 -8.833683e+00 -5.865417e+00
    endloop
  endfacet
  facet normal 3.300108e-01 8.090407e-01 4.863599e-01
    outer loop
      vertex   -3.703799e+00 -8.833683e+00 -5.865417e+00
      vertex   -3.696540e+00 -8.816370e+00 -5.899141e+00
      vertex   -3.813482e+00 -8.788943e+00 -5.865417e+00
    endloop
  endfacet
  facet normal 3.306096e-01 8.105085e-01 4.835011e-01
    outer loop
      vertex   -3.703799e+00 -8.833683e+00 -5.865417e+00
      vertex   -3.813482e+00 -8.788943e+00 -5.865417e+00
      vertex   -3.820910e+00 -8.806062e+00 -5.831641e+00
    endloop
  endfacet
  facet normal 3.402941e-01 8.064474e-01 4.835726e-01
    outer loop
      vertex   -3.820910e+00 -8.806062e+00 -5.831641e+00
      vertex   -3.813482e+00 -8.788943e+00 -5.865417e+00
      vertex   -3.930499e+00 -8.759819e+00 -5.831641e+00
    endloop
  endfacet
  facet normal 3.409065e-01 8.078986e-01 4.807105e-01
    outer loop
      vertex   -3.820910e+00 -8.806062e+00 -5.831641e+00
      vertex   -3.930499e+00 -8.759819e+00 -5.831641e+00
      vertex   -3.938092e+00 -8.776742e+00 -5.797815e+00
    endloop
  endfacet
  facet normal 3.484698e-01 8.046284e-01 4.807722e-01
    outer loop
      vertex   -3.938092e+00 -8.776742e+00 -5.797815e+00
      vertex   -3.930499e+00 -8.759819e+00 -5.831641e+00
      vertex   -4.000000e+00 -8.749537e+00 -5.798473e+00
    endloop
  endfacet
  facet normal 3.118239e-01 8.179971e-01 4.833700e-01
    outer loop
      vertex   -3.600837e+00 -8.894300e+00 -5.831641e+00
      vertex   -3.505106e+00 -8.930793e+00 -5.831641e+00
      vertex   -3.498293e+00 -8.913432e+00 -5.865417e+00
    endloop
  endfacet
  facet normal 3.101195e-01 8.135262e-01 4.919360e-01
    outer loop
      vertex   -3.477598e+00 -8.860702e+00 -5.966433e+00
      vertex   -3.572577e+00 -8.824496e+00 -5.966433e+00
      vertex   -3.579707e+00 -8.842108e+00 -5.932813e+00
    endloop
  endfacet
  facet normal 3.191489e-01 8.099889e-01 4.919980e-01
    outer loop
      vertex   -3.579707e+00 -8.842108e+00 -5.932813e+00
      vertex   -3.572577e+00 -8.824496e+00 -5.966433e+00
      vertex   -3.689237e+00 -8.798951e+00 -5.932813e+00
    endloop
  endfacet
  facet normal 3.197376e-01 8.114828e-01 4.891457e-01
    outer loop
      vertex   -3.579707e+00 -8.842108e+00 -5.932813e+00
      vertex   -3.689237e+00 -8.798951e+00 -5.932813e+00
      vertex   -3.696540e+00 -8.816370e+00 -5.899141e+00
    endloop
  endfacet
  facet normal 3.294082e-01 8.075632e-01 4.892156e-01
    outer loop
      vertex   -3.696540e+00 -8.816370e+00 -5.899141e+00
      vertex   -3.689237e+00 -8.798951e+00 -5.932813e+00
      vertex   -3.806008e+00 -8.771718e+00 -5.899141e+00
    endloop
  endfacet
  facet normal 3.300108e-01 8.090407e-01 4.863599e-01
    outer loop
      vertex   -3.696540e+00 -8.816370e+00 -5.899141e+00
      vertex   -3.806008e+00 -8.771718e+00 -5.899141e+00
      vertex   -3.813482e+00 -8.788943e+00 -5.865417e+00
    endloop
  endfacet
  facet normal 3.396777e-01 8.049866e-01 4.864316e-01
    outer loop
      vertex   -3.813482e+00 -8.788943e+00 -5.865417e+00
      vertex   -3.806008e+00 -8.771718e+00 -5.899141e+00
      vertex   -3.922858e+00 -8.742790e+00 -5.865417e+00
    endloop
  endfacet
  facet normal 3.402941e-01 8.064474e-01 4.835726e-01
    outer loop
      vertex   -3.813482e+00 -8.788943e+00 -5.865417e+00
      vertex   -3.922858e+00 -8.742790e+00 -5.865417e+00
      vertex   -3.930499e+00 -8.759819e+00 -5.831641e+00
    endloop
  endfacet
  facet normal 3.335437e-01 8.177017e-01 4.691615e-01
    outer loop
      vertex   -3.857354e+00 -8.890056e+00 -5.662017e+00
      vertex   -3.746410e+00 -8.935311e+00 -5.662017e+00
      vertex   -3.739420e+00 -8.918641e+00 -5.696039e+00
    endloop
  endfacet
  facet normal 3.335437e-01 8.177017e-01 4.691615e-01
    outer loop
      vertex   -3.857354e+00 -8.890056e+00 -5.662017e+00
      vertex   -3.739420e+00 -8.918641e+00 -5.696039e+00
      vertex   -3.850158e+00 -8.873471e+00 -5.696039e+00
    endloop
  endfacet
  facet normal 3.329648e-01 8.162825e-01 4.720353e-01
    outer loop
      vertex   -3.850158e+00 -8.873471e+00 -5.696039e+00
      vertex   -3.739420e+00 -8.918641e+00 -5.696039e+00
      vertex   -3.732386e+00 -8.901864e+00 -5.730013e+00
    endloop
  endfacet
  facet normal 3.288015e-01 8.060761e-01 4.920680e-01
    outer loop
      vertex   -3.681888e+00 -8.781425e+00 -5.966433e+00
      vertex   -3.790922e+00 -8.736950e+00 -5.966433e+00
      vertex   -3.798488e+00 -8.754387e+00 -5.932813e+00
    endloop
  endfacet
  facet normal 3.384326e-01 8.020359e-01 4.921400e-01
    outer loop
      vertex   -3.798488e+00 -8.754387e+00 -5.932813e+00
      vertex   -3.790922e+00 -8.736950e+00 -5.966433e+00
      vertex   -3.907434e+00 -8.708415e+00 -5.932813e+00
    endloop
  endfacet
  facet normal 3.390572e-01 8.035161e-01 4.892874e-01
    outer loop
      vertex   -3.798488e+00 -8.754387e+00 -5.932813e+00
      vertex   -3.907434e+00 -8.708415e+00 -5.932813e+00
      vertex   -3.915170e+00 -8.725655e+00 -5.899141e+00
    endloop
  endfacet
  facet normal 3.439071e-01 8.150097e-01 4.663552e-01
    outer loop
      vertex   -3.975343e+00 -8.859763e+00 -5.627947e+00
      vertex   -3.857354e+00 -8.890056e+00 -5.662017e+00
      vertex   -3.967989e+00 -8.843372e+00 -5.662017e+00
    endloop
  endfacet
  facet normal 3.433151e-01 8.136068e-01 4.692321e-01
    outer loop
      vertex   -3.967989e+00 -8.843372e+00 -5.662017e+00
      vertex   -3.857354e+00 -8.890056e+00 -5.662017e+00
      vertex   -3.850158e+00 -8.873471e+00 -5.696039e+00
    endloop
  endfacet
  facet normal 3.450788e-01 8.177864e-01 4.605932e-01
    outer loop
      vertex   -3.989909e+00 -8.892226e+00 -5.559668e+00
      vertex   -3.878664e+00 -8.939168e+00 -5.559668e+00
      vertex   -3.871607e+00 -8.922905e+00 -5.593831e+00
    endloop
  endfacet
  facet normal 3.450788e-01 8.177864e-01 4.605932e-01
    outer loop
      vertex   -3.989909e+00 -8.892226e+00 -5.559668e+00
      vertex   -3.871607e+00 -8.922905e+00 -5.593831e+00
      vertex   -3.982650e+00 -8.876048e+00 -5.593831e+00
    endloop
  endfacet
  facet normal 3.444950e-01 8.164029e-01 4.634756e-01
    outer loop
      vertex   -3.982650e+00 -8.876048e+00 -5.593831e+00
      vertex   -3.871607e+00 -8.922905e+00 -5.593831e+00
      vertex   -3.864504e+00 -8.906534e+00 -5.627947e+00
    endloop
  endfacet
  facet normal -2.008994e-14 -1.000000e+00 9.977397e-11
    outer loop
      vertex   -3.185297e+00 -8.945000e+00 -6.000000e+00
      vertex   -3.238462e+00 -8.945000e+00 -5.969673e+00
      vertex   -3.273717e+00 -8.945000e+00 -6.000000e+00
    endloop
  endfacet
  facet normal 3.353776e-11 -1.000000e+00 6.076308e-11
    outer loop
      vertex   -3.273717e+00 -8.945000e+00 -6.000000e+00
      vertex   -3.238462e+00 -8.945000e+00 -5.969673e+00
      vertex   -3.320412e+00 -8.945000e+00 -5.974285e+00
    endloop
  endfacet
  facet normal 2.031620e-11 -1.000000e+00 2.956707e-10
    outer loop
      vertex   -3.320412e+00 -8.945000e+00 -5.974285e+00
      vertex   -3.238462e+00 -8.945000e+00 -5.969673e+00
      vertex   -3.291353e+00 -8.945000e+00 -5.938847e+00
    endloop
  endfacet
  facet normal 1.199962e-10 -1.000000e+00 2.139332e-10
    outer loop
      vertex   -3.320412e+00 -8.945000e+00 -5.974285e+00
      vertex   -3.291353e+00 -8.945000e+00 -5.938847e+00
      vertex   -3.366956e+00 -8.945000e+00 -5.948179e+00
    endloop
  endfacet
  facet normal 8.370861e-11 -1.000000e+00 5.079228e-10
    outer loop
      vertex   -3.366956e+00 -8.945000e+00 -5.948179e+00
      vertex   -3.291353e+00 -8.945000e+00 -5.938847e+00
      vertex   -3.343965e+00 -8.945000e+00 -5.907524e+00
    endloop
  endfacet
  facet normal 2.397346e-10 -1.000000e+00 4.196888e-10
    outer loop
      vertex   -3.366956e+00 -8.945000e+00 -5.948179e+00
      vertex   -3.343965e+00 -8.945000e+00 -5.907524e+00
      vertex   -3.413344e+00 -8.945000e+00 -5.921681e+00
    endloop
  endfacet
  facet normal 1.791554e-10 -1.000000e+00 7.165615e-10
    outer loop
      vertex   -3.413344e+00 -8.945000e+00 -5.921681e+00
      vertex   -3.343965e+00 -8.945000e+00 -5.907524e+00
      vertex   -3.396297e+00 -8.945000e+00 -5.875706e+00
    endloop
  endfacet
  facet normal 3.745926e-10 -1.000000e+00 6.440963e-10
    outer loop
      vertex   -3.413344e+00 -8.945000e+00 -5.921681e+00
      vertex   -3.396297e+00 -8.945000e+00 -5.875706e+00
      vertex   -3.459570e+00 -8.945000e+00 -5.894794e+00
    endloop
  endfacet
  facet normal 2.961750e-10 -1.000000e+00 9.040416e-10
    outer loop
      vertex   -3.459570e+00 -8.945000e+00 -5.894794e+00
      vertex   -3.396297e+00 -8.945000e+00 -5.875706e+00
      vertex   -3.448344e+00 -8.945000e+00 -5.843396e+00
    endloop
  endfacet
  facet normal 5.079140e-10 -1.000000e+00 8.577925e-10
    outer loop
      vertex   -3.459570e+00 -8.945000e+00 -5.894794e+00
      vertex   -3.448344e+00 -8.945000e+00 -5.843396e+00
      vertex   -3.505631e+00 -8.945000e+00 -5.867519e+00
    endloop
  endfacet
  facet normal 4.248374e-10 -1.000000e+00 1.055086e-09
    outer loop
      vertex   -3.505631e+00 -8.945000e+00 -5.867519e+00
      vertex   -3.448344e+00 -8.945000e+00 -5.843396e+00
      vertex   -3.500103e+00 -8.945000e+00 -5.810594e+00
    endloop
  endfacet
  facet normal 6.243587e-10 -1.000000e+00 1.035708e-09
    outer loop
      vertex   -3.505631e+00 -8.945000e+00 -5.867519e+00
      vertex   -3.500103e+00 -8.945000e+00 -5.810594e+00
      vertex   -3.551522e+00 -8.945000e+00 -5.839856e+00
    endloop
  endfacet
  facet normal 5.557367e-10 -1.000000e+00 1.156291e-09
    outer loop
      vertex   -3.551522e+00 -8.945000e+00 -5.839856e+00
      vertex   -3.500103e+00 -8.945000e+00 -5.810594e+00
      vertex   -3.551570e+00 -8.945000e+00 -5.777304e+00
    endloop
  endfacet
  facet normal 7.095040e-10 -1.000000e+00 1.156411e-09
    outer loop
      vertex   -3.551522e+00 -8.945000e+00 -5.839856e+00
      vertex   -3.551570e+00 -8.945000e+00 -5.777304e+00
      vertex   -3.597237e+00 -8.945000e+00 -5.811808e+00
    endloop
  endfacet
  facet normal 7.163790e-10 -1.000000e+00 1.147312e-09
    outer loop
      vertex   -3.597237e+00 -8.945000e+00 -5.811808e+00
      vertex   -3.551570e+00 -8.945000e+00 -5.777304e+00
      vertex   -3.642772e+00 -8.945000e+00 -5.783376e+00
    endloop
  endfacet
  facet normal 7.100702e-10 -1.000000e+00 1.242068e-09
    outer loop
      vertex   -3.642772e+00 -8.945000e+00 -5.783376e+00
      vertex   -3.551570e+00 -8.945000e+00 -5.777304e+00
      vertex   -3.602744e+00 -8.945000e+00 -5.743527e+00
    endloop
  endfacet
  facet normal 7.583581e-10 -1.000000e+00 1.193564e-09
    outer loop
      vertex   -3.642772e+00 -8.945000e+00 -5.783376e+00
      vertex   -3.602744e+00 -8.945000e+00 -5.743527e+00
      vertex   -3.688122e+00 -8.945000e+00 -5.754562e+00
    endloop
  endfacet
  facet normal 7.668276e-10 -1.000000e+00 1.128035e-09
    outer loop
      vertex   -3.688122e+00 -8.945000e+00 -5.754562e+00
      vertex   -3.602744e+00 -8.945000e+00 -5.743527e+00
      vertex   -3.653613e+00 -8.945000e+00 -5.709269e+00
    endloop
  endfacet
  facet normal 7.416426e-10 -1.000000e+00 1.147223e-09
    outer loop
      vertex   -3.688122e+00 -8.945000e+00 -5.754562e+00
      vertex   -3.653613e+00 -8.945000e+00 -5.709269e+00
      vertex   -3.733282e+00 -8.945000e+00 -5.725367e+00
    endloop
  endfacet
  facet normal 7.849107e-10 -1.000000e+00 9.330929e-10
    outer loop
      vertex   -3.733282e+00 -8.945000e+00 -5.725367e+00
      vertex   -3.653613e+00 -8.945000e+00 -5.709269e+00
      vertex   -3.704145e+00 -8.945000e+00 -5.674554e+00
    endloop
  endfacet
  facet normal 6.605730e-10 -1.000000e+00 1.004391e-09
    outer loop
      vertex   -3.733282e+00 -8.945000e+00 -5.725367e+00
      vertex   -3.704145e+00 -8.945000e+00 -5.674554e+00
      vertex   -3.778248e+00 -8.945000e+00 -5.695794e+00
    endloop
  endfacet
  facet normal 7.438908e-10 -1.000000e+00 7.136994e-10
    outer loop
      vertex   -3.778248e+00 -8.945000e+00 -5.695794e+00
      vertex   -3.704145e+00 -8.945000e+00 -5.674554e+00
      vertex   -3.754331e+00 -8.945000e+00 -5.639389e+00
    endloop
  endfacet
  facet normal 5.363903e-10 -1.000000e+00 8.016852e-10
    outer loop
      vertex   -3.778248e+00 -8.945000e+00 -5.695794e+00
      vertex   -3.754331e+00 -8.945000e+00 -5.639389e+00
      vertex   -3.823015e+00 -8.945000e+00 -5.665843e+00
    endloop
  endfacet
  facet normal 6.544441e-10 -1.000000e+00 4.951780e-10
    outer loop
      vertex   -3.823015e+00 -8.945000e+00 -5.665843e+00
      vertex   -3.754331e+00 -8.945000e+00 -5.639389e+00
      vertex   -3.804170e+00 -8.945000e+00 -5.603776e+00
    endloop
  endfacet
  facet normal 3.913343e-10 -1.000000e+00 5.750674e-10
    outer loop
      vertex   -3.823015e+00 -8.945000e+00 -5.665843e+00
      vertex   -3.804170e+00 -8.945000e+00 -5.603776e+00
      vertex   -3.867579e+00 -8.945000e+00 -5.635518e+00
    endloop
  endfacet
  facet normal 5.302722e-10 -1.000000e+00 2.975165e-10
    outer loop
      vertex   -3.867579e+00 -8.945000e+00 -5.635518e+00
      vertex   -3.804170e+00 -8.945000e+00 -5.603776e+00
      vertex   -3.853658e+00 -8.945000e+00 -5.567719e+00
    endloop
  endfacet
  facet normal 2.462362e-10 -1.000000e+00 3.558357e-10
    outer loop
      vertex   -3.867579e+00 -8.945000e+00 -5.635518e+00
      vertex   -3.853658e+00 -8.945000e+00 -5.567719e+00
      vertex   -3.911934e+00 -8.945000e+00 -5.604819e+00
    endloop
  endfacet
  facet normal 2.482203e-10 -1.000000e+00 3.527192e-10
    outer loop
      vertex   -3.911934e+00 -8.945000e+00 -5.604819e+00
      vertex   -3.853658e+00 -8.945000e+00 -5.567719e+00
      vertex   -3.956076e+00 -8.945000e+00 -5.573750e+00
    endloop
  endfacet
  facet normal 2.699063e-10 -1.000000e+00 -1.552914e-11
    outer loop
      vertex   -3.956076e+00 -8.945000e+00 -5.573750e+00
      vertex   -3.853658e+00 -8.945000e+00 -5.567719e+00
      vertex   -3.902794e+00 -8.945000e+00 -5.531220e+00
    endloop
  endfacet
  facet normal 1.217616e-10 -1.000000e+00 1.700663e-10
    outer loop
      vertex   -3.956076e+00 -8.945000e+00 -5.573750e+00
      vertex   -3.902794e+00 -8.945000e+00 -5.531220e+00
      vertex   -4.000000e+00 -8.945000e+00 -5.542312e+00
    endloop
  endfacet
  facet normal 1.493148e-10 -1.000000e+00 -7.139589e-11
    outer loop
      vertex   -4.000000e+00 -8.945000e+00 -5.542312e+00
      vertex   -3.902794e+00 -8.945000e+00 -5.531220e+00
      vertex   -3.951575e+00 -8.945000e+00 -5.494283e+00
    endloop
  endfacet
  facet normal 7.850164e-11 -1.000000e+00 -3.841242e-22
    outer loop
      vertex   -4.000000e+00 -8.945000e+00 -5.542312e+00
      vertex   -3.951575e+00 -8.945000e+00 -5.494283e+00
      vertex   -4.000000e+00 -8.945000e+00 -5.456910e+00
    endloop
  endfacet
  facet normal 4.821508e-01 1.980695e-02 8.758643e-01
    outer loop
      vertex   -3.319338e+00 -9.000000e+00 -5.974055e+00
      vertex   -3.272206e+00 -9.000000e+00 -6.000000e+00
      vertex   -3.319743e+00 -8.972923e+00 -5.974444e+00
    endloop
  endfacet
  facet normal 4.821824e-01 1.988043e-02 8.758453e-01
    outer loop
      vertex   -3.319743e+00 -8.972923e+00 -5.974444e+00
      vertex   -3.272206e+00 -9.000000e+00 -6.000000e+00
      vertex   -3.273339e+00 -8.972540e+00 -6.000000e+00
    endloop
  endfacet
  facet normal 4.823510e-01 6.634021e-03 8.759529e-01
    outer loop
      vertex   -3.319743e+00 -8.972923e+00 -5.974444e+00
      vertex   -3.273339e+00 -8.972540e+00 -6.000000e+00
      vertex   -3.273717e+00 -8.945000e+00 -6.000000e+00
    endloop
  endfacet
  facet normal 4.823728e-01 6.587258e-03 8.759412e-01
    outer loop
      vertex   -3.273717e+00 -8.945000e+00 -6.000000e+00
      vertex   -3.320412e+00 -8.945000e+00 -5.974285e+00
      vertex   -3.319743e+00 -8.972923e+00 -5.974444e+00
    endloop
  endfacet
  facet normal 4.891292e-01 6.770469e-03 8.721851e-01
    outer loop
      vertex   -3.319743e+00 -8.972923e+00 -5.974444e+00
      vertex   -3.320412e+00 -8.945000e+00 -5.974285e+00
      vertex   -3.365999e+00 -8.973304e+00 -5.948501e+00
    endloop
  endfacet
  facet normal 4.889619e-01 1.985437e-02 8.720791e-01
    outer loop
      vertex   -3.319743e+00 -8.972923e+00 -5.974444e+00
      vertex   -3.365999e+00 -8.973304e+00 -5.948501e+00
      vertex   -3.319338e+00 -9.000000e+00 -5.974055e+00
    endloop
  endfacet
  facet normal 4.890287e-01 2.001028e-02 8.720381e-01
    outer loop
      vertex   -3.319338e+00 -9.000000e+00 -5.974055e+00
      vertex   -3.365999e+00 -8.973304e+00 -5.948501e+00
      vertex   -3.366261e+00 -9.000000e+00 -5.947741e+00
    endloop
  endfacet
  facet normal 4.957192e-01 1.983690e-02 8.682563e-01
    outer loop
      vertex   -3.366261e+00 -9.000000e+00 -5.947741e+00
      vertex   -3.365999e+00 -8.973304e+00 -5.948501e+00
      vertex   -3.412100e+00 -8.973684e+00 -5.922171e+00
    endloop
  endfacet
  facet normal 4.958758e-01 2.020487e-02 8.681584e-01
    outer loop
      vertex   -3.366261e+00 -9.000000e+00 -5.947741e+00
      vertex   -3.412100e+00 -8.973684e+00 -5.922171e+00
      vertex   -3.412972e+00 -9.000000e+00 -5.921060e+00
    endloop
  endfacet
  facet normal 5.024534e-01 1.982722e-02 8.643769e-01
    outer loop
      vertex   -3.412972e+00 -9.000000e+00 -5.921060e+00
      vertex   -3.412100e+00 -8.973684e+00 -5.922171e+00
      vertex   -3.458042e+00 -8.974062e+00 -5.895457e+00
    endloop
  endfacet
  facet normal 5.026918e-01 2.039127e-02 8.642252e-01
    outer loop
      vertex   -3.412972e+00 -9.000000e+00 -5.921060e+00
      vertex   -3.458042e+00 -8.974062e+00 -5.895457e+00
      vertex   -3.459470e+00 -9.000000e+00 -5.894014e+00
    endloop
  endfacet
  facet normal 5.091638e-01 1.982462e-02 8.604413e-01
    outer loop
      vertex   -3.459470e+00 -9.000000e+00 -5.894014e+00
      vertex   -3.458042e+00 -8.974062e+00 -5.895457e+00
      vertex   -3.503821e+00 -8.974439e+00 -5.868358e+00
    endloop
  endfacet
  facet normal 5.094763e-01 2.057003e-02 8.602388e-01
    outer loop
      vertex   -3.459470e+00 -9.000000e+00 -5.894014e+00
      vertex   -3.503821e+00 -8.974439e+00 -5.868358e+00
      vertex   -3.505752e+00 -9.000000e+00 -5.866604e+00
    endloop
  endfacet
  facet normal 5.158499e-01 1.982847e-02 8.564495e-01
    outer loop
      vertex   -3.505752e+00 -9.000000e+00 -5.866604e+00
      vertex   -3.503821e+00 -8.974439e+00 -5.868358e+00
      vertex   -3.549431e+00 -8.974814e+00 -5.840878e+00
    endloop
  endfacet
  facet normal 5.162292e-01 2.074163e-02 8.561993e-01
    outer loop
      vertex   -3.505752e+00 -9.000000e+00 -5.866604e+00
      vertex   -3.549431e+00 -8.974814e+00 -5.840878e+00
      vertex   -3.551816e+00 -9.000000e+00 -5.838830e+00
    endloop
  endfacet
  facet normal 5.225110e-01 1.983819e-02 8.524017e-01
    outer loop
      vertex   -3.551816e+00 -9.000000e+00 -5.838830e+00
      vertex   -3.549431e+00 -8.974814e+00 -5.840878e+00
      vertex   -3.594869e+00 -8.975187e+00 -5.813017e+00
    endloop
  endfacet
  facet normal 5.229499e-01 2.090653e-02 8.521070e-01
    outer loop
      vertex   -3.551816e+00 -9.000000e+00 -5.838830e+00
      vertex   -3.594869e+00 -8.975187e+00 -5.813017e+00
      vertex   -3.597660e+00 -9.000000e+00 -5.810695e+00
    endloop
  endfacet
  facet normal 5.291463e-01 1.985325e-02 8.482983e-01
    outer loop
      vertex   -3.597660e+00 -9.000000e+00 -5.810695e+00
      vertex   -3.594869e+00 -8.975187e+00 -5.813017e+00
      vertex   -3.640128e+00 -8.975559e+00 -5.784776e+00
    endloop
  endfacet
  facet normal 5.296384e-01 2.106516e-02 8.479619e-01
    outer loop
      vertex   -3.597660e+00 -9.000000e+00 -5.810695e+00
      vertex   -3.640128e+00 -8.975559e+00 -5.784776e+00
      vertex   -3.643281e+00 -9.000000e+00 -5.782200e+00
    endloop
  endfacet
  facet normal 5.358076e-01 1.986292e-02 8.441064e-01
    outer loop
      vertex   -3.643281e+00 -9.000000e+00 -5.782200e+00
      vertex   -3.640128e+00 -8.975559e+00 -5.784776e+00
      vertex   -3.685919e+00 -8.975935e+00 -5.755701e+00
    endloop
  endfacet
  facet normal 5.362955e-01 2.110176e-02 8.437665e-01
    outer loop
      vertex   -3.643281e+00 -9.000000e+00 -5.782200e+00
      vertex   -3.685919e+00 -8.975935e+00 -5.755701e+00
      vertex   -3.688679e+00 -9.000000e+00 -5.753345e+00
    endloop
  endfacet
  facet normal 5.424913e-01 2.000523e-02 8.398232e-01
    outer loop
      vertex   -3.688679e+00 -9.000000e+00 -5.753345e+00
      vertex   -3.685919e+00 -8.975935e+00 -5.755701e+00
      vertex   -3.731517e+00 -8.976309e+00 -5.726238e+00
    endloop
  endfacet
  facet normal 5.429198e-01 2.112830e-02 8.395187e-01
    outer loop
      vertex   -3.688679e+00 -9.000000e+00 -5.753345e+00
      vertex   -3.731517e+00 -8.976309e+00 -5.726238e+00
      vertex   -3.733850e+00 -9.000000e+00 -5.724133e+00
    endloop
  endfacet
  facet normal 5.491462e-01 2.015654e-02 8.354832e-01
    outer loop
      vertex   -3.733850e+00 -9.000000e+00 -5.724133e+00
      vertex   -3.731517e+00 -8.976309e+00 -5.726238e+00
      vertex   -3.776916e+00 -8.976681e+00 -5.696389e+00
    endloop
  endfacet
  facet normal 5.495109e-01 2.114431e-02 8.352190e-01
    outer loop
      vertex   -3.733850e+00 -9.000000e+00 -5.724133e+00
      vertex   -3.776916e+00 -8.976681e+00 -5.696389e+00
      vertex   -3.778792e+00 -9.000000e+00 -5.694564e+00
    endloop
  endfacet
  facet normal 5.557717e-01 2.031737e-02 8.310867e-01
    outer loop
      vertex   -3.778792e+00 -9.000000e+00 -5.694564e+00
      vertex   -3.776916e+00 -8.976681e+00 -5.696389e+00
      vertex   -3.822113e+00 -8.977051e+00 -5.666155e+00
    endloop
  endfacet
  facet normal 5.560685e-01 2.114933e-02 8.308673e-01
    outer loop
      vertex   -3.778792e+00 -9.000000e+00 -5.694564e+00
      vertex   -3.822113e+00 -8.977051e+00 -5.666155e+00
      vertex   -3.823504e+00 -9.000000e+00 -5.664641e+00
    endloop
  endfacet
  facet normal 5.623668e-01 2.048824e-02 8.266340e-01
    outer loop
      vertex   -3.823504e+00 -9.000000e+00 -5.664641e+00
      vertex   -3.822113e+00 -8.977051e+00 -5.666155e+00
      vertex   -3.867103e+00 -8.977419e+00 -5.635540e+00
    endloop
  endfacet
  facet normal 5.625924e-01 2.114288e-02 8.264640e-01
    outer loop
      vertex   -3.823504e+00 -9.000000e+00 -5.664641e+00
      vertex   -3.867103e+00 -8.977419e+00 -5.635540e+00
      vertex   -3.867983e+00 -9.000000e+00 -5.634363e+00
    endloop
  endfacet
  facet normal 5.689310e-01 2.066974e-02 8.221254e-01
    outer loop
      vertex   -3.867983e+00 -9.000000e+00 -5.634363e+00
      vertex   -3.867103e+00 -8.977419e+00 -5.635540e+00
      vertex   -3.911880e+00 -8.977785e+00 -5.604544e+00
    endloop
  endfacet
  facet normal 5.690822e-01 2.112449e-02 8.220092e-01
    outer loop
      vertex   -3.867983e+00 -9.000000e+00 -5.634363e+00
      vertex   -3.911880e+00 -8.977785e+00 -5.604544e+00
      vertex   -3.912226e+00 -9.000000e+00 -5.603733e+00
    endloop
  endfacet
  facet normal 5.754636e-01 2.086248e-02 8.175612e-01
    outer loop
      vertex   -3.912226e+00 -9.000000e+00 -5.603733e+00
      vertex   -3.911880e+00 -8.977785e+00 -5.604544e+00
      vertex   -3.956439e+00 -8.978149e+00 -5.573170e+00
    endloop
  endfacet
  facet normal 5.755377e-01 2.109370e-02 8.175031e-01
    outer loop
      vertex   -3.912226e+00 -9.000000e+00 -5.603733e+00
      vertex   -3.956439e+00 -8.978149e+00 -5.573170e+00
      vertex   -3.956233e+00 -9.000000e+00 -5.572751e+00
    endloop
  endfacet
  facet normal 5.819583e-01 2.106710e-02 8.129457e-01
    outer loop
      vertex   -3.956233e+00 -9.000000e+00 -5.572751e+00
      vertex   -3.956439e+00 -8.978149e+00 -5.573170e+00
      vertex   -4.000000e+00 -9.000000e+00 -5.541420e+00
    endloop
  endfacet
  facet normal 5.823965e-01 1.978446e-02 8.126641e-01
    outer loop
      vertex   -4.000000e+00 -9.000000e+00 -5.541420e+00
      vertex   -3.956439e+00 -8.978149e+00 -5.573170e+00
      vertex   -4.000000e+00 -8.972527e+00 -5.542089e+00
    endloop
  endfacet
  facet normal 5.814739e-01 7.866293e-03 8.135270e-01
    outer loop
      vertex   -4.000000e+00 -8.972527e+00 -5.542089e+00
      vertex   -3.956439e+00 -8.978149e+00 -5.573170e+00
      vertex   -3.956076e+00 -8.945000e+00 -5.573750e+00
    endloop
  endfacet
  facet normal 5.820018e-01 6.602625e-03 8.131607e-01
    outer loop
      vertex   -4.000000e+00 -8.972527e+00 -5.542089e+00
      vertex   -3.956076e+00 -8.945000e+00 -5.573750e+00
      vertex   -4.000000e+00 -8.945000e+00 -5.542312e+00
    endloop
  endfacet
  facet normal 4.891933e-01 6.635489e-03 8.721502e-01
    outer loop
      vertex   -3.320412e+00 -8.945000e+00 -5.974285e+00
      vertex   -3.366956e+00 -8.945000e+00 -5.948179e+00
      vertex   -3.365999e+00 -8.973304e+00 -5.948501e+00
    endloop
  endfacet
  facet normal 4.958853e-01 6.904942e-03 8.683606e-01
    outer loop
      vertex   -3.365999e+00 -8.973304e+00 -5.948501e+00
      vertex   -3.366956e+00 -8.945000e+00 -5.948179e+00
      vertex   -3.412100e+00 -8.973684e+00 -5.922171e+00
    endloop
  endfacet
  facet normal 4.959912e-01 6.684878e-03 8.683018e-01
    outer loop
      vertex   -3.366956e+00 -8.945000e+00 -5.948179e+00
      vertex   -3.413344e+00 -8.945000e+00 -5.921681e+00
      vertex   -3.412100e+00 -8.973684e+00 -5.922171e+00
    endloop
  endfacet
  facet normal 5.026184e-01 7.037526e-03 8.644797e-01
    outer loop
      vertex   -3.412100e+00 -8.973684e+00 -5.922171e+00
      vertex   -3.413344e+00 -8.945000e+00 -5.921681e+00
      vertex   -3.458042e+00 -8.974062e+00 -5.895457e+00
    endloop
  endfacet
  facet normal 5.027660e-01 6.735359e-03 8.643963e-01
    outer loop
      vertex   -3.413344e+00 -8.945000e+00 -5.921681e+00
      vertex   -3.459570e+00 -8.945000e+00 -5.894794e+00
      vertex   -3.458042e+00 -8.974062e+00 -5.895457e+00
    endloop
  endfacet
  facet normal 5.093280e-01 7.168269e-03 8.605426e-01
    outer loop
      vertex   -3.458042e+00 -8.974062e+00 -5.895457e+00
      vertex   -3.459570e+00 -8.945000e+00 -5.894794e+00
      vertex   -3.503821e+00 -8.974439e+00 -5.868358e+00
    endloop
  endfacet
  facet normal 5.095168e-01 6.786871e-03 8.604339e-01
    outer loop
      vertex   -3.459570e+00 -8.945000e+00 -5.894794e+00
      vertex   -3.505631e+00 -8.945000e+00 -5.867519e+00
      vertex   -3.503821e+00 -8.974439e+00 -5.868358e+00
    endloop
  endfacet
  facet normal 5.160133e-01 7.297214e-03 8.565495e-01
    outer loop
      vertex   -3.503821e+00 -8.974439e+00 -5.868358e+00
      vertex   -3.505631e+00 -8.945000e+00 -5.867519e+00
      vertex   -3.549431e+00 -8.974814e+00 -5.840878e+00
    endloop
  endfacet
  facet normal 5.162430e-01 6.839353e-03 8.564148e-01
    outer loop
      vertex   -3.505631e+00 -8.945000e+00 -5.867519e+00
      vertex   -3.551522e+00 -8.945000e+00 -5.839856e+00
      vertex   -3.549431e+00 -8.974814e+00 -5.840878e+00
    endloop
  endfacet
  facet normal 5.226736e-01 7.424402e-03 8.525006e-01
    outer loop
      vertex   -3.549431e+00 -8.974814e+00 -5.840878e+00
      vertex   -3.551522e+00 -8.945000e+00 -5.839856e+00
      vertex   -3.594869e+00 -8.975187e+00 -5.813017e+00
    endloop
  endfacet
  facet normal 5.229439e-01 6.892749e-03 8.523392e-01
    outer loop
      vertex   -3.551522e+00 -8.945000e+00 -5.839856e+00
      vertex   -3.597237e+00 -8.945000e+00 -5.811808e+00
      vertex   -3.594869e+00 -8.975187e+00 -5.813017e+00
    endloop
  endfacet
  facet normal 5.293082e-01 7.549874e-03 8.483960e-01
    outer loop
      vertex   -3.594869e+00 -8.975187e+00 -5.813017e+00
      vertex   -3.597237e+00 -8.945000e+00 -5.811808e+00
      vertex   -3.640128e+00 -8.975559e+00 -5.784776e+00
    endloop
  endfacet
  facet normal 5.296188e-01 6.947006e-03 8.482073e-01
    outer loop
      vertex   -3.597237e+00 -8.945000e+00 -5.811808e+00
      vertex   -3.642772e+00 -8.945000e+00 -5.783376e+00
      vertex   -3.640128e+00 -8.975559e+00 -5.784776e+00
    endloop
  endfacet
  facet normal 5.359688e-01 7.679706e-03 8.442029e-01
    outer loop
      vertex   -3.640128e+00 -8.975559e+00 -5.784776e+00
      vertex   -3.642772e+00 -8.945000e+00 -5.783376e+00
      vertex   -3.685919e+00 -8.975935e+00 -5.755701e+00
    endloop
  endfacet
  facet normal 5.362667e-01 7.099569e-03 8.440188e-01
    outer loop
      vertex   -3.642772e+00 -8.945000e+00 -5.783376e+00
      vertex   -3.688122e+00 -8.945000e+00 -5.754562e+00
      vertex   -3.685919e+00 -8.975935e+00 -5.755701e+00
    endloop
  endfacet
  facet normal 5.426550e-01 7.705348e-03 8.399204e-01
    outer loop
      vertex   -3.685919e+00 -8.975935e+00 -5.755701e+00
      vertex   -3.688122e+00 -8.945000e+00 -5.754562e+00
      vertex   -3.731517e+00 -8.976309e+00 -5.726238e+00
    endloop
  endfacet
  facet normal 5.428871e-01 7.251650e-03 8.397744e-01
    outer loop
      vertex   -3.688122e+00 -8.945000e+00 -5.754562e+00
      vertex   -3.733282e+00 -8.945000e+00 -5.725367e+00
      vertex   -3.731517e+00 -8.976309e+00 -5.726238e+00
    endloop
  endfacet
  facet normal 5.493125e-01 7.730603e-03 8.355812e-01
    outer loop
      vertex   -3.731517e+00 -8.976309e+00 -5.726238e+00
      vertex   -3.733282e+00 -8.945000e+00 -5.725367e+00
      vertex   -3.776916e+00 -8.976681e+00 -5.696389e+00
    endloop
  endfacet
  facet normal 5.494793e-01 7.403246e-03 8.354745e-01
    outer loop
      vertex   -3.733282e+00 -8.945000e+00 -5.725367e+00
      vertex   -3.778248e+00 -8.945000e+00 -5.695794e+00
      vertex   -3.776916e+00 -8.976681e+00 -5.696389e+00
    endloop
  endfacet
  facet normal 5.559408e-01 7.755455e-03 8.311857e-01
    outer loop
      vertex   -3.776916e+00 -8.976681e+00 -5.696389e+00
      vertex   -3.778248e+00 -8.945000e+00 -5.695794e+00
      vertex   -3.822113e+00 -8.977051e+00 -5.666155e+00
    endloop
  endfacet
  facet normal 5.560428e-01 7.554357e-03 8.311193e-01
    outer loop
      vertex   -3.778248e+00 -8.945000e+00 -5.695794e+00
      vertex   -3.823015e+00 -8.945000e+00 -5.665843e+00
      vertex   -3.822113e+00 -8.977051e+00 -5.666155e+00
    endloop
  endfacet
  facet normal 5.625390e-01 7.779886e-03 8.267342e-01
    outer loop
      vertex   -3.822113e+00 -8.977051e+00 -5.666155e+00
      vertex   -3.823015e+00 -8.945000e+00 -5.665843e+00
      vertex   -3.867103e+00 -8.977419e+00 -5.635540e+00
    endloop
  endfacet
  facet normal 5.625768e-01 7.704982e-03 8.267091e-01
    outer loop
      vertex   -3.823015e+00 -8.945000e+00 -5.665843e+00
      vertex   -3.867579e+00 -8.945000e+00 -5.635518e+00
      vertex   -3.867103e+00 -8.977419e+00 -5.635540e+00
    endloop
  endfacet
  facet normal 5.690809e-01 7.803492e-03 8.222445e-01
    outer loop
      vertex   -3.867103e+00 -8.977419e+00 -5.635540e+00
      vertex   -3.867579e+00 -8.945000e+00 -5.635518e+00
      vertex   -3.911934e+00 -8.945000e+00 -5.604819e+00
    endloop
  endfacet
  facet normal 5.691059e-01 7.855012e-03 8.222267e-01
    outer loop
      vertex   -3.867103e+00 -8.977419e+00 -5.635540e+00
      vertex   -3.911934e+00 -8.945000e+00 -5.604819e+00
      vertex   -3.911880e+00 -8.977785e+00 -5.604544e+00
    endloop
  endfacet
  facet normal 5.755545e-01 7.827796e-03 8.177260e-01
    outer loop
      vertex   -3.911880e+00 -8.977785e+00 -5.604544e+00
      vertex   -3.911934e+00 -8.945000e+00 -5.604819e+00
      vertex   -3.956076e+00 -8.945000e+00 -5.573750e+00
    endloop
  endfacet
  facet normal 5.756407e-01 8.002733e-03 8.176636e-01
    outer loop
      vertex   -3.911880e+00 -8.977785e+00 -5.604544e+00
      vertex   -3.956076e+00 -8.945000e+00 -5.573750e+00
      vertex   -3.956439e+00 -8.978149e+00 -5.573170e+00
    endloop
  endfacet
  facet normal 0.000000e+00 -1.000000e+00 0.000000e+00
    outer loop
      vertex   -3.272206e+00 -9.000000e+00 -6.000000e+00
      vertex   -3.319338e+00 -9.000000e+00 -5.974055e+00
      vertex   -4.000000e+00 -9.000000e+00 -6.000000e+00
    endloop
  endfacet
  facet normal 0.000000e+00 -1.000000e+00 0.000000e+00
    outer loop
      vertex   -4.000000e+00 -9.000000e+00 -6.000000e+00
      vertex   -3.319338e+00 -9.000000e+00 -5.974055e+00
      vertex   -3.366261e+00 -9.000000e+00 -5.947741e+00
    endloop
  endfacet
  facet normal 4.797558e-15 -1.000000e+00 -5.817935e-14
    outer loop
      vertex   -4.000000e+00 -9.000000e+00 -6.000000e+00
      vertex   -3.366261e+00 -9.000000e+00 -5.947741e+00
      vertex   -3.412972e+00 -9.000000e+00 -5.921060e+00
    endloop
  endfacet
  facet normal -9.631414e-15 -1.000000e+00 4.912047e-14
    outer loop
      vertex   -3.412972e+00 -9.000000e+00 -5.921060e+00
      vertex   -3.459470e+00 -9.000000e+00 -5.894014e+00
      vertex   -4.000000e+00 -9.000000e+00 -6.000000e+00
    endloop
  endfacet
  facet normal 0.000000e+00 -1.000000e+00 0.000000e+00
    outer loop
      vertex   -4.000000e+00 -9.000000e+00 -6.000000e+00
      vertex   -3.459470e+00 -9.000000e+00 -5.894014e+00
      vertex   -3.505752e+00 -9.000000e+00 -5.866604e+00
    endloop
  endfacet
  facet normal 0.000000e+00 -1.000000e+00 0.000000e+00
    outer loop
      vertex   -4.000000e+00 -9.000000e+00 -6.000000e+00
      vertex   -3.505752e+00 -9.000000e+00 -5.866604e+00
      vertex   -3.551816e+00 -9.000000e+00 -5.838830e+00
    endloop
  endfacet
  facet normal -0.000000e+00 -1.000000e+00 0.000000e+00
    outer loop
      vertex   -3.551816e+00 -9.000000e+00 -5.838830e+00
      vertex   -3.597660e+00 -9.000000e+00 -5.810695e+00
      vertex   -4.000000e+00 -9.000000e+00 -6.000000e+00
    endloop
  endfacet
  facet normal 0.000000e+00 -1.000000e+00 0.000000e+00
    outer loop
      vertex   -4.000000e+00 -9.000000e+00 -6.000000e+00
      vertex   -3.597660e+00 -9.000000e+00 -5.810695e+00
      vertex   -3.643281e+00 -9.000000e+00 -5.782200e+00
    endloop
  endfacet
  facet normal 0.000000e+00 -1.000000e+00 0.000000e+00
    outer loop
      vertex   -4.000000e+00 -9.000000e+00 -6.000000e+00
      vertex   -3.643281e+00 -9.000000e+00 -5.782200e+00
      vertex   -3.688679e+00 -9.000000e+00 -5.753345e+00
    endloop
  endfacet
  facet normal -0.000000e+00 -1.000000e+00 0.000000e+00
    outer loop
      vertex   -3.688679e+00 -9.000000e+00 -5.753345e+00
      vertex   -3.733850e+00 -9.000000e+00 -5.724133e+00
      vertex   -4.000000e+00 -9.000000e+00 -6.000000e+00
    endloop
  endfacet
  facet normal 0.000000e+00 -1.000000e+00 0.000000e+00
    outer loop
      vertex   -4.000000e+00 -9.000000e+00 -6.000000e+00
      vertex   -3.733850e+00 -9.000000e+00 -5.724133e+00
      vertex   -3.778792e+00 -9.000000e+00 -5.694564e+00
    endloop
  endfacet
  facet normal 0.000000e+00 -1.000000e+00 0.000000e+00
    outer loop
      vertex   -4.000000e+00 -9.000000e+00 -6.000000e+00
      vertex   -3.778792e+00 -9.000000e+00 -5.694564e+00
      vertex   -3.823504e+00 -9.000000e+00 -5.664641e+00
    endloop
  endfacet
  facet normal 2.940328e-14 -1.000000e+00 -1.547463e-14
    outer loop
      vertex   -3.823504e+00 -9.000000e+00 -5.664641e+00
      vertex   -3.867983e+00 -9.000000e+00 -5.634363e+00
      vertex   -4.000000e+00 -9.000000e+00 -6.000000e+00
    endloop
  endfacet
  facet normal -3.481119e-14 -1.000000e+00 7.710719e-15
    outer loop
      vertex   -4.000000e+00 -9.000000e+00 -6.000000e+00
      vertex   -3.867983e+00 -9.000000e+00 -5.634363e+00
      vertex   -3.912226e+00 -9.000000e+00 -5.603733e+00
    endloop
  endfacet
  facet normal 0.000000e+00 -1.000000e+00 0.000000e+00
    outer loop
      vertex   -4.000000e+00 -9.000000e+00 -6.000000e+00
      vertex   -3.912226e+00 -9.000000e+00 -5.603733e+00
      vertex   -3.956233e+00 -9.000000e+00 -5.572751e+00
    endloop
  endfacet
  facet normal -0.000000e+00 -1.000000e+00 0.000000e+00
    outer loop
      vertex   -3.956233e+00 -9.000000e+00 -5.572751e+00
      vertex   -4.000000e+00 -9.000000e+00 -5.541420e+00
      vertex   -4.000000e+00 -9.000000e+00 -6.000000e+00
    endloop
  endfacet
  facet normal -1.000000e+00 -3.232925e-14 -0.000000e+00
    outer loop
      vertex   -4.000000e+00 -9.000000e+00 -5.541420e+00
      vertex   -4.000000e+00 -8.972527e+00 -5.542089e+00
      vertex   -4.000000e+00 -9.000000e+00 -6.000000e+00
    endloop
  endfacet
  facet normal -1.000000e+00 3.290906e-12 -1.993813e-13
    outer loop
      vertex   -4.000000e+00 -9.000000e+00 -6.000000e+00
      vertex   -4.000000e+00 -8.972527e+00 -5.542089e+00
      vertex   -4.000000e+00 -8.868279e+00 -5.594370e+00
    endloop
  endfacet
  facet normal -1.000000e+00 -1.252020e-13 9.099383e-13
    outer loop
      vertex   -4.000000e+00 -9.000000e+00 -6.000000e+00
      vertex   -4.000000e+00 -8.868279e+00 -5.594370e+00
      vertex   -4.000000e+00 -8.829185e+00 -5.662685e+00
    endloop
  endfacet
  facet normal -1.000000e+00 -2.300792e-14 -6.807332e-12
    outer loop
      vertex   -4.000000e+00 -8.972527e+00 -5.542089e+00
      vertex   -4.000000e+00 -8.945000e+00 -5.542312e+00
      vertex   -4.000000e+00 -8.868279e+00 -5.594370e+00
    endloop
  endfacet
  facet normal -1.000000e+00 8.188835e-12 5.295117e-12
    outer loop
      vertex   -4.000000e+00 -8.868279e+00 -5.594370e+00
      vertex   -4.000000e+00 -8.945000e+00 -5.542312e+00
      vertex   -4.000000e+00 -8.906884e+00 -5.525777e+00
    endloop
  endfacet
  facet normal -1.000000e+00 8.363191e-12 4.893199e-12
    outer loop
      vertex   -4.000000e+00 -8.906884e+00 -5.525777e+00
      vertex   -4.000000e+00 -8.945000e+00 -5.542312e+00
      vertex   -4.000000e+00 -8.945000e+00 -5.456910e+00
    endloop
  endfacet
  facet normal -1.000000e+00 -2.597874e-13 9.780918e-13
    outer loop
      vertex   -4.000000e+00 -8.829185e+00 -5.662685e+00
      vertex   -4.000000e+00 -8.789604e+00 -5.730721e+00
      vertex   -4.000000e+00 -9.000000e+00 -6.000000e+00
    endloop
  endfacet
  facet normal -1.000000e+00 -2.614073e-13 9.793574e-13
    outer loop
      vertex   -4.000000e+00 -9.000000e+00 -6.000000e+00
      vertex   -4.000000e+00 -8.789604e+00 -5.730721e+00
      vertex   -4.000000e+00 -8.749537e+00 -5.798473e+00
    endloop
  endfacet
  facet normal -1.000000e+00 -1.841047e-13 8.832840e-13
    outer loop
      vertex   -4.000000e+00 -9.000000e+00 -6.000000e+00
      vertex   -4.000000e+00 -8.749537e+00 -5.798473e+00
      vertex   -4.000000e+00 -8.708985e+00 -5.865939e+00
    endloop
  endfacet
  facet normal -1.000000e+00 -7.567232e-14 6.479035e-13
    outer loop
      vertex   -4.000000e+00 -8.708985e+00 -5.865939e+00
      vertex   -4.000000e+00 -8.667949e+00 -5.933115e+00
      vertex   -4.000000e+00 -9.000000e+00 -6.000000e+00
    endloop
  endfacet
  facet normal -1.000000e+00 0.000000e+00 2.722254e-13
    outer loop
      vertex   -4.000000e+00 -9.000000e+00 -6.000000e+00
      vertex   -4.000000e+00 -8.667949e+00 -5.933115e+00
      vertex   -4.000000e+00 -8.626430e+00 -6.000000e+00
    endloop
  endfacet
  facet normal -1.188923e-13 -3.388532e-14 -1.000000e+00
    outer loop
      vertex   -3.273339e+00 -8.972540e+00 -6.000000e+00
      vertex   -3.391586e+00 -8.872184e+00 -6.000000e+00
      vertex   -3.273717e+00 -8.945000e+00 -6.000000e+00
    endloop
  endfacet
  facet normal 1.773637e-13 4.456728e-13 -1.000000e+00
    outer loop
      vertex   -3.273717e+00 -8.945000e+00 -6.000000e+00
      vertex   -3.391586e+00 -8.872184e+00 -6.000000e+00
      vertex   -3.288648e+00 -8.909165e+00 -6.000000e+00
    endloop
  endfacet
  facet normal 1.506746e-13 4.345531e-13 -1.000000e+00
    outer loop
      vertex   -3.273717e+00 -8.945000e+00 -6.000000e+00
      vertex   -3.288648e+00 -8.909165e+00 -6.000000e+00
      vertex   -3.185297e+00 -8.945000e+00 -6.000000e+00
    endloop
  endfacet
  facet normal -9.340238e-14 -3.850990e-15 -1.000000e+00
    outer loop
      vertex   -3.273339e+00 -8.972540e+00 -6.000000e+00
      vertex   -3.272206e+00 -9.000000e+00 -6.000000e+00
      vertex   -3.391586e+00 -8.872184e+00 -6.000000e+00
    endloop
  endfacet
  facet normal 0.000000e+00 8.338680e-14 -1.000000e+00
    outer loop
      vertex   -3.391586e+00 -8.872184e+00 -6.000000e+00
      vertex   -3.272206e+00 -9.000000e+00 -6.000000e+00
      vertex   -4.000000e+00 -9.000000e+00 -6.000000e+00
    endloop
  endfacet
  facet normal 2.057677e-14 -1.456043e-14 -1.000000e+00
    outer loop
      vertex   -3.391586e+00 -8.872184e+00 -6.000000e+00
      vertex   -4.000000e+00 -9.000000e+00 -6.000000e+00
      vertex   -3.494102e+00 -8.834062e+00 -6.000000e+00
    endloop
  endfacet
  facet normal 8.527822e-15 2.217333e-14 -1.000000e+00
    outer loop
      vertex   -3.494102e+00 -8.834062e+00 -6.000000e+00
      vertex   -4.000000e+00 -9.000000e+00 -6.000000e+00
      vertex   -3.596187e+00 -8.794800e+00 -6.000000e+00
    endloop
  endfacet
  facet normal 2.830081e-14 -1.673804e-14 -1.000000e+00
    outer loop
      vertex   -3.596187e+00 -8.794800e+00 -6.000000e+00
      vertex   -4.000000e+00 -9.000000e+00 -6.000000e+00
      vertex   -3.697828e+00 -8.754403e+00 -6.000000e+00
    endloop
  endfacet
  facet normal 1.076344e-14 4.839186e-15 -1.000000e+00
    outer loop
      vertex   -3.697828e+00 -8.754403e+00 -6.000000e+00
      vertex   -4.000000e+00 -9.000000e+00 -6.000000e+00
      vertex   -3.799018e+00 -8.712874e+00 -6.000000e+00
    endloop
  endfacet
  facet normal 3.124762e-14 -9.499294e-15 -1.000000e+00
    outer loop
      vertex   -3.799018e+00 -8.712874e+00 -6.000000e+00
      vertex   -4.000000e+00 -9.000000e+00 -6.000000e+00
      vertex   -3.899745e+00 -8.670215e+00 -6.000000e+00
    endloop
  endfacet
  facet normal -0.000000e+00 0.000000e+00 -1.000000e+00
    outer loop
      vertex   -3.899745e+00 -8.670215e+00 -6.000000e+00
      vertex   -4.000000e+00 -9.000000e+00 -6.000000e+00
      vertex   -4.000000e+00 -8.626430e+00 -6.000000e+00
    endloop
  endfacet
endsolid
