solid ASCII
  facet normal 9.885342e-01 6.789341e-03 1.508444e-01
    outer loop
      vertex   -6.751980e+00 -8.945000e+00 -1.062069e+00
      vertex   -6.761451e+00 -8.945000e+00 -1.000000e+00
      vertex   -6.751785e+00 -8.973366e+00 -1.062069e+00
    endloop
  endfacet
  facet normal 9.889008e-01 1.315111e-02 1.479942e-01
    outer loop
      vertex   -6.751785e+00 -8.973366e+00 -1.062069e+00
      vertex   -6.761451e+00 -8.945000e+00 -1.000000e+00
      vertex   -6.760720e+00 -9.000000e+00 -1.000000e+00
    endloop
  endfacet
  facet normal 9.883380e-01 2.018703e-02 1.509323e-01
    outer loop
      vertex   -6.751785e+00 -8.973366e+00 -1.062069e+00
      vertex   -6.760720e+00 -9.000000e+00 -1.000000e+00
      vertex   -6.751035e+00 -9.000000e+00 -1.063423e+00
    endloop
  endfacet
  facet normal 9.869346e-01 1.969111e-02 1.599137e-01
    outer loop
      vertex   -6.751785e+00 -8.973366e+00 -1.062069e+00
      vertex   -6.751035e+00 -9.000000e+00 -1.063423e+00
      vertex   -6.741713e+00 -8.973324e+00 -1.124235e+00
    endloop
  endfacet
  facet normal 9.868740e-01 2.037067e-02 1.602025e-01
    outer loop
      vertex   -6.741713e+00 -8.973324e+00 -1.124235e+00
      vertex   -6.751035e+00 -9.000000e+00 -1.063423e+00
      vertex   -6.740756e+00 -9.000000e+00 -1.126741e+00
    endloop
  endfacet
  facet normal 9.854208e-01 1.949039e-02 1.690146e-01
    outer loop
      vertex   -6.741713e+00 -8.973324e+00 -1.124235e+00
      vertex   -6.740756e+00 -9.000000e+00 -1.126741e+00
      vertex   -6.731037e+00 -8.973279e+00 -1.186488e+00
    endloop
  endfacet
  facet normal 9.853240e-01 2.051527e-02 1.694573e-01
    outer loop
      vertex   -6.731037e+00 -8.973279e+00 -1.186488e+00
      vertex   -6.740756e+00 -9.000000e+00 -1.126741e+00
      vertex   -6.729885e+00 -9.000000e+00 -1.189952e+00
    endloop
  endfacet
  facet normal 9.838176e-01 1.932617e-02 1.781278e-01
    outer loop
      vertex   -6.731037e+00 -8.973279e+00 -1.186488e+00
      vertex   -6.729885e+00 -9.000000e+00 -1.189952e+00
      vertex   -6.719752e+00 -8.973231e+00 -1.248822e+00
    endloop
  endfacet
  facet normal 9.836882e-01 2.062455e-02 1.786960e-01
    outer loop
      vertex   -6.719752e+00 -8.973231e+00 -1.248822e+00
      vertex   -6.729885e+00 -9.000000e+00 -1.189952e+00
      vertex   -6.718422e+00 -9.000000e+00 -1.253052e+00
    endloop
  endfacet
  facet normal 9.821243e-01 1.919487e-02 1.872521e-01
    outer loop
      vertex   -6.719752e+00 -8.973231e+00 -1.248822e+00
      vertex   -6.718422e+00 -9.000000e+00 -1.253052e+00
      vertex   -6.707854e+00 -8.973181e+00 -1.311227e+00
    endloop
  endfacet
  facet normal 9.819665e-01 2.070155e-02 1.879180e-01
    outer loop
      vertex   -6.707854e+00 -8.973181e+00 -1.311227e+00
      vertex   -6.718422e+00 -9.000000e+00 -1.253052e+00
      vertex   -6.706369e+00 -9.000000e+00 -1.316035e+00
    endloop
  endfacet
  facet normal 9.803407e-01 1.909358e-02 1.963863e-01
    outer loop
      vertex   -6.707854e+00 -8.973181e+00 -1.311227e+00
      vertex   -6.706369e+00 -9.000000e+00 -1.316035e+00
      vertex   -6.695341e+00 -8.973129e+00 -1.373697e+00
    endloop
  endfacet
  facet normal 9.801592e-01 2.074868e-02 1.971229e-01
    outer loop
      vertex   -6.695341e+00 -8.973129e+00 -1.373697e+00
      vertex   -6.706369e+00 -9.000000e+00 -1.316035e+00
      vertex   -6.693727e+00 -9.000000e+00 -1.378897e+00
    endloop
  endfacet
  facet normal 9.784662e-01 1.902003e-02 2.055291e-01
    outer loop
      vertex   -6.695341e+00 -8.973129e+00 -1.373697e+00
      vertex   -6.693727e+00 -9.000000e+00 -1.378897e+00
      vertex   -6.682209e+00 -8.973074e+00 -1.436222e+00
    endloop
  endfacet
  facet normal 9.782663e-01 2.076778e-02 2.063099e-01
    outer loop
      vertex   -6.682209e+00 -8.973074e+00 -1.436222e+00
      vertex   -6.693727e+00 -9.000000e+00 -1.378897e+00
      vertex   -6.680495e+00 -9.000000e+00 -1.441636e+00
    endloop
  endfacet
  facet normal 9.765003e-01 1.897255e-02 2.146793e-01
    outer loop
      vertex   -6.682209e+00 -8.973074e+00 -1.436222e+00
      vertex   -6.680495e+00 -9.000000e+00 -1.441636e+00
      vertex   -6.668454e+00 -8.973016e+00 -1.498793e+00
    endloop
  endfacet
  facet normal 9.762879e-01 2.076017e-02 2.154785e-01
    outer loop
      vertex   -6.668454e+00 -8.973016e+00 -1.498793e+00
      vertex   -6.680495e+00 -9.000000e+00 -1.441636e+00
      vertex   -6.666677e+00 -9.000000e+00 -1.504246e+00
    endloop
  endfacet
  facet normal 9.744426e-01 1.895001e-02 2.238357e-01
    outer loop
      vertex   -6.668454e+00 -8.973016e+00 -1.498793e+00
      vertex   -6.666677e+00 -9.000000e+00 -1.504246e+00
      vertex   -6.654073e+00 -8.972955e+00 -1.561403e+00
    endloop
  endfacet
  facet normal 9.742241e-01 2.072665e-02 2.246282e-01
    outer loop
      vertex   -6.654073e+00 -8.972955e+00 -1.561403e+00
      vertex   -6.666677e+00 -9.000000e+00 -1.504246e+00
      vertex   -6.652271e+00 -9.000000e+00 -1.566723e+00
    endloop
  endfacet
  facet normal 9.722928e-01 1.895184e-02 2.329970e-01
    outer loop
      vertex   -6.654073e+00 -8.972955e+00 -1.561403e+00
      vertex   -6.652271e+00 -9.000000e+00 -1.566723e+00
      vertex   -6.639064e+00 -8.972892e+00 -1.624043e+00
    endloop
  endfacet
  facet normal 9.720751e-01 2.066757e-02 2.337582e-01
    outer loop
      vertex   -6.639064e+00 -8.972892e+00 -1.624043e+00
      vertex   -6.652271e+00 -9.000000e+00 -1.566723e+00
      vertex   -6.637280e+00 -9.000000e+00 -1.629063e+00
    endloop
  endfacet
  facet normal 9.700502e-01 1.897793e-02 2.421618e-01
    outer loop
      vertex   -6.639064e+00 -8.972892e+00 -1.624043e+00
      vertex   -6.637280e+00 -9.000000e+00 -1.629063e+00
      vertex   -6.623423e+00 -8.972827e+00 -1.686703e+00
    endloop
  endfacet
  facet normal 9.698409e-01 2.058286e-02 2.428681e-01
    outer loop
      vertex   -6.623423e+00 -8.972827e+00 -1.686703e+00
      vertex   -6.637280e+00 -9.000000e+00 -1.629063e+00
      vertex   -6.621704e+00 -9.000000e+00 -1.691263e+00
    endloop
  endfacet
  facet normal 9.677147e-01 1.902865e-02 2.513290e-01
    outer loop
      vertex   -6.623423e+00 -8.972827e+00 -1.686703e+00
      vertex   -6.621704e+00 -9.000000e+00 -1.691263e+00
      vertex   -6.607147e+00 -8.972758e+00 -1.749375e+00
    endloop
  endfacet
  facet normal 9.675218e-01 2.047208e-02 2.519573e-01
    outer loop
      vertex   -6.607147e+00 -8.972758e+00 -1.749375e+00
      vertex   -6.621704e+00 -9.000000e+00 -1.691263e+00
      vertex   -6.605544e+00 -9.000000e+00 -1.753317e+00
    endloop
  endfacet
  facet normal 9.652856e-01 1.910477e-02 2.604971e-01
    outer loop
      vertex   -6.607147e+00 -8.972758e+00 -1.749375e+00
      vertex   -6.605544e+00 -9.000000e+00 -1.753317e+00
      vertex   -6.590235e+00 -8.972687e+00 -1.812050e+00
    endloop
  endfacet
  facet normal 9.651178e-01 2.033442e-02 2.610252e-01
    outer loop
      vertex   -6.590235e+00 -8.972687e+00 -1.812050e+00
      vertex   -6.605544e+00 -9.000000e+00 -1.753317e+00
      vertex   -6.588801e+00 -9.000000e+00 -1.815222e+00
    endloop
  endfacet
  facet normal 9.627627e-01 1.920742e-02 2.696648e-01
    outer loop
      vertex   -6.590235e+00 -8.972687e+00 -1.812050e+00
      vertex   -6.588801e+00 -9.000000e+00 -1.815222e+00
      vertex   -6.572683e+00 -8.972614e+00 -1.874718e+00
    endloop
  endfacet
  facet normal 9.626291e-01 2.016878e-02 2.700711e-01
    outer loop
      vertex   -6.572683e+00 -8.972614e+00 -1.874718e+00
      vertex   -6.588801e+00 -9.000000e+00 -1.815222e+00
      vertex   -6.571477e+00 -9.000000e+00 -1.876973e+00
    endloop
  endfacet
  facet normal 9.608045e-01 1.955603e-02 2.765363e-01
    outer loop
      vertex   -6.572683e+00 -8.972614e+00 -1.874718e+00
      vertex   -6.571477e+00 -9.000000e+00 -1.876973e+00
      vertex   -6.563667e+00 -8.972576e+00 -1.906047e+00
    endloop
  endfacet
  facet normal 9.600048e-01 2.248019e-02 2.790797e-01
    outer loop
      vertex   -6.563667e+00 -8.972576e+00 -1.906047e+00
      vertex   -6.571477e+00 -9.000000e+00 -1.876973e+00
      vertex   -6.553571e+00 -9.000000e+00 -1.938568e+00
    endloop
  endfacet
  facet normal 9.594677e-01 1.986599e-02 2.811176e-01
    outer loop
      vertex   -6.563667e+00 -8.972576e+00 -1.906047e+00
      vertex   -6.553571e+00 -9.000000e+00 -1.938568e+00
      vertex   -6.554490e+00 -8.972537e+00 -1.937372e+00
    endloop
  endfacet
  facet normal 9.581181e-01 1.962123e-02 2.857005e-01
    outer loop
      vertex   -6.554490e+00 -8.972537e+00 -1.937372e+00
      vertex   -6.553571e+00 -9.000000e+00 -1.938568e+00
      vertex   -6.545152e+00 -8.972498e+00 -1.968689e+00
    endloop
  endfacet
  facet normal 9.582863e-01 6.581596e-03 2.857343e-01
    outer loop
      vertex   -6.554490e+00 -8.972537e+00 -1.937372e+00
      vertex   -6.545152e+00 -8.972498e+00 -1.968689e+00
      vertex   -6.554679e+00 -8.945000e+00 -1.937372e+00
    endloop
  endfacet
  facet normal 9.576137e-01 3.732327e-03 2.880314e-01
    outer loop
      vertex   -6.554679e+00 -8.945000e+00 -1.937372e+00
      vertex   -6.545152e+00 -8.972498e+00 -1.968689e+00
      vertex   -6.535842e+00 -8.945000e+00 -2.000000e+00
    endloop
  endfacet
  facet normal 9.552260e-01 1.314183e-02 2.955851e-01
    outer loop
      vertex   -6.535842e+00 -8.945000e+00 -2.000000e+00
      vertex   -6.545152e+00 -8.972498e+00 -1.968689e+00
      vertex   -6.535085e+00 -9.000000e+00 -2.000000e+00
    endloop
  endfacet
  facet normal 9.573433e-01 2.246296e-02 2.880785e-01
    outer loop
      vertex   -6.535085e+00 -9.000000e+00 -2.000000e+00
      vertex   -6.545152e+00 -8.972498e+00 -1.968689e+00
      vertex   -6.553571e+00 -9.000000e+00 -1.938568e+00
    endloop
  endfacet
  facet normal 9.596406e-01 6.590898e-03 2.811519e-01
    outer loop
      vertex   -6.554490e+00 -8.972537e+00 -1.937372e+00
      vertex   -6.554679e+00 -8.945000e+00 -1.937372e+00
      vertex   -6.563667e+00 -8.972576e+00 -1.906047e+00
    endloop
  endfacet
  facet normal 9.603224e-01 3.772708e-03 2.788666e-01
    outer loop
      vertex   -6.563667e+00 -8.972576e+00 -1.906047e+00
      vertex   -6.554679e+00 -8.945000e+00 -1.937372e+00
      vertex   -6.572873e+00 -8.945000e+00 -1.874718e+00
    endloop
  endfacet
  facet normal 9.609715e-01 6.600038e-03 2.765687e-01
    outer loop
      vertex   -6.563667e+00 -8.972576e+00 -1.906047e+00
      vertex   -6.572873e+00 -8.945000e+00 -1.874718e+00
      vertex   -6.572683e+00 -8.972614e+00 -1.874718e+00
    endloop
  endfacet
  facet normal 9.629231e-01 6.613442e-03 2.696949e-01
    outer loop
      vertex   -6.572683e+00 -8.972614e+00 -1.874718e+00
      vertex   -6.572873e+00 -8.945000e+00 -1.874718e+00
      vertex   -6.590235e+00 -8.972687e+00 -1.812050e+00
    endloop
  endfacet
  facet normal 9.629231e-01 6.613442e-03 2.696949e-01
    outer loop
      vertex   -6.572873e+00 -8.945000e+00 -1.874718e+00
      vertex   -6.590425e+00 -8.945000e+00 -1.812050e+00
      vertex   -6.590235e+00 -8.972687e+00 -1.812050e+00
    endloop
  endfacet
  facet normal 9.654441e-01 6.630757e-03 2.605257e-01
    outer loop
      vertex   -6.590235e+00 -8.972687e+00 -1.812050e+00
      vertex   -6.590425e+00 -8.945000e+00 -1.812050e+00
      vertex   -6.607147e+00 -8.972758e+00 -1.749375e+00
    endloop
  endfacet
  facet normal 9.654441e-01 6.630757e-03 2.605257e-01
    outer loop
      vertex   -6.590425e+00 -8.945000e+00 -1.812050e+00
      vertex   -6.607338e+00 -8.945000e+00 -1.749375e+00
      vertex   -6.607147e+00 -8.972758e+00 -1.749375e+00
    endloop
  endfacet
  facet normal 9.678718e-01 6.647430e-03 2.513563e-01
    outer loop
      vertex   -6.607147e+00 -8.972758e+00 -1.749375e+00
      vertex   -6.607338e+00 -8.945000e+00 -1.749375e+00
      vertex   -6.623423e+00 -8.972827e+00 -1.686703e+00
    endloop
  endfacet
  facet normal 9.678718e-01 6.647430e-03 2.513563e-01
    outer loop
      vertex   -6.607338e+00 -8.945000e+00 -1.749375e+00
      vertex   -6.623614e+00 -8.945000e+00 -1.686703e+00
      vertex   -6.623423e+00 -8.972827e+00 -1.686703e+00
    endloop
  endfacet
  facet normal 9.702065e-01 6.663465e-03 2.421879e-01
    outer loop
      vertex   -6.623423e+00 -8.972827e+00 -1.686703e+00
      vertex   -6.623614e+00 -8.945000e+00 -1.686703e+00
      vertex   -6.639064e+00 -8.972892e+00 -1.624043e+00
    endloop
  endfacet
  facet normal 9.702065e-01 6.663465e-03 2.421879e-01
    outer loop
      vertex   -6.623614e+00 -8.945000e+00 -1.686703e+00
      vertex   -6.639255e+00 -8.945000e+00 -1.624043e+00
      vertex   -6.639064e+00 -8.972892e+00 -1.624043e+00
    endloop
  endfacet
  facet normal 9.724485e-01 6.678864e-03 2.330220e-01
    outer loop
      vertex   -6.639064e+00 -8.972892e+00 -1.624043e+00
      vertex   -6.639255e+00 -8.945000e+00 -1.624043e+00
      vertex   -6.654073e+00 -8.972955e+00 -1.561403e+00
    endloop
  endfacet
  facet normal 9.724485e-01 6.678864e-03 2.330220e-01
    outer loop
      vertex   -6.639255e+00 -8.945000e+00 -1.624043e+00
      vertex   -6.654265e+00 -8.945000e+00 -1.561403e+00
      vertex   -6.654073e+00 -8.972955e+00 -1.561403e+00
    endloop
  endfacet
  facet normal 9.745984e-01 6.693629e-03 2.238597e-01
    outer loop
      vertex   -6.654073e+00 -8.972955e+00 -1.561403e+00
      vertex   -6.654265e+00 -8.945000e+00 -1.561403e+00
      vertex   -6.668454e+00 -8.973016e+00 -1.498793e+00
    endloop
  endfacet
  facet normal 9.745984e-01 6.693629e-03 2.238597e-01
    outer loop
      vertex   -6.654265e+00 -8.945000e+00 -1.561403e+00
      vertex   -6.668646e+00 -8.945000e+00 -1.498793e+00
      vertex   -6.668454e+00 -8.973016e+00 -1.498793e+00
    endloop
  endfacet
  facet normal 9.766565e-01 6.707764e-03 2.147023e-01
    outer loop
      vertex   -6.668454e+00 -8.973016e+00 -1.498793e+00
      vertex   -6.668646e+00 -8.945000e+00 -1.498793e+00
      vertex   -6.682209e+00 -8.973074e+00 -1.436222e+00
    endloop
  endfacet
  facet normal 9.766565e-01 6.707764e-03 2.147023e-01
    outer loop
      vertex   -6.668646e+00 -8.945000e+00 -1.498793e+00
      vertex   -6.682402e+00 -8.945000e+00 -1.436222e+00
      vertex   -6.682209e+00 -8.973074e+00 -1.436222e+00
    endloop
  endfacet
  facet normal 9.786233e-01 6.721272e-03 2.055513e-01
    outer loop
      vertex   -6.682209e+00 -8.973074e+00 -1.436222e+00
      vertex   -6.682402e+00 -8.945000e+00 -1.436222e+00
      vertex   -6.695341e+00 -8.973129e+00 -1.373697e+00
    endloop
  endfacet
  facet normal 9.786233e-01 6.721272e-03 2.055513e-01
    outer loop
      vertex   -6.682402e+00 -8.945000e+00 -1.436222e+00
      vertex   -6.695534e+00 -8.945000e+00 -1.373697e+00
      vertex   -6.695341e+00 -8.973129e+00 -1.373697e+00
    endloop
  endfacet
  facet normal 9.804992e-01 6.734156e-03 1.964076e-01
    outer loop
      vertex   -6.695341e+00 -8.973129e+00 -1.373697e+00
      vertex   -6.695534e+00 -8.945000e+00 -1.373697e+00
      vertex   -6.707854e+00 -8.973181e+00 -1.311227e+00
    endloop
  endfacet
  facet normal 9.804992e-01 6.734156e-03 1.964076e-01
    outer loop
      vertex   -6.695534e+00 -8.945000e+00 -1.373697e+00
      vertex   -6.708048e+00 -8.945000e+00 -1.311227e+00
      vertex   -6.707854e+00 -8.973181e+00 -1.311227e+00
    endloop
  endfacet
  facet normal 9.822848e-01 6.746420e-03 1.872727e-01
    outer loop
      vertex   -6.707854e+00 -8.973181e+00 -1.311227e+00
      vertex   -6.708048e+00 -8.945000e+00 -1.311227e+00
      vertex   -6.719752e+00 -8.973231e+00 -1.248822e+00
    endloop
  endfacet
  facet normal 9.822848e-01 6.746420e-03 1.872727e-01
    outer loop
      vertex   -6.708048e+00 -8.945000e+00 -1.311227e+00
      vertex   -6.719946e+00 -8.945000e+00 -1.248822e+00
      vertex   -6.719752e+00 -8.973231e+00 -1.248822e+00
    endloop
  endfacet
  facet normal 9.839805e-01 6.758066e-03 1.781478e-01
    outer loop
      vertex   -6.719752e+00 -8.973231e+00 -1.248822e+00
      vertex   -6.719946e+00 -8.945000e+00 -1.248822e+00
      vertex   -6.731037e+00 -8.973279e+00 -1.186488e+00
    endloop
  endfacet
  facet normal 9.839805e-01 6.758066e-03 1.781478e-01
    outer loop
      vertex   -6.719946e+00 -8.945000e+00 -1.248822e+00
      vertex   -6.731231e+00 -8.945000e+00 -1.186488e+00
      vertex   -6.731037e+00 -8.973279e+00 -1.186488e+00
    endloop
  endfacet
  facet normal 9.855870e-01 6.769100e-03 1.690340e-01
    outer loop
      vertex   -6.731037e+00 -8.973279e+00 -1.186488e+00
      vertex   -6.731231e+00 -8.945000e+00 -1.186488e+00
      vertex   -6.741713e+00 -8.973324e+00 -1.124235e+00
    endloop
  endfacet
  facet normal 9.855870e-01 6.769100e-03 1.690340e-01
    outer loop
      vertex   -6.731231e+00 -8.945000e+00 -1.186488e+00
      vertex   -6.741908e+00 -8.945000e+00 -1.124235e+00
      vertex   -6.741713e+00 -8.973324e+00 -1.124235e+00
    endloop
  endfacet
  facet normal 9.871047e-01 6.779523e-03 1.599325e-01
    outer loop
      vertex   -6.741713e+00 -8.973324e+00 -1.124235e+00
      vertex   -6.741908e+00 -8.945000e+00 -1.124235e+00
      vertex   -6.751980e+00 -8.945000e+00 -1.062069e+00
    endloop
  endfacet
  facet normal 9.871047e-01 6.779523e-03 1.599325e-01
    outer loop
      vertex   -6.741713e+00 -8.973324e+00 -1.124235e+00
      vertex   -6.751980e+00 -8.945000e+00 -1.062069e+00
      vertex   -6.751785e+00 -8.973366e+00 -1.062069e+00
    endloop
  endfacet
  facet normal -8.957060e-15 -1.000000e+00 -2.998577e-14
    outer loop
      vertex   -6.761451e+00 -8.945000e+00 -1.000000e+00
      vertex   -6.751980e+00 -8.945000e+00 -1.062069e+00
      vertex   -6.563132e+00 -8.945000e+00 -1.000000e+00
    endloop
  endfacet
  facet normal -3.569520e-14 -1.000000e+00 5.136605e-14
    outer loop
      vertex   -6.563132e+00 -8.945000e+00 -1.000000e+00
      vertex   -6.751980e+00 -8.945000e+00 -1.062069e+00
      vertex   -6.741908e+00 -8.945000e+00 -1.124235e+00
    endloop
  endfacet
  facet normal 0.000000e+00 -1.000000e+00 0.000000e+00
    outer loop
      vertex   -6.563132e+00 -8.945000e+00 -1.000000e+00
      vertex   -6.741908e+00 -8.945000e+00 -1.124235e+00
      vertex   -6.731231e+00 -8.945000e+00 -1.186488e+00
    endloop
  endfacet
  facet normal 5.350279e-14 -1.000000e+00 -4.822702e-14
    outer loop
      vertex   -6.563132e+00 -8.945000e+00 -1.000000e+00
      vertex   -6.731231e+00 -8.945000e+00 -1.186488e+00
      vertex   -6.553768e+00 -8.945000e+00 -1.063278e+00
    endloop
  endfacet
  facet normal 1.778399e-14 -1.000000e+00 3.219757e-15
    outer loop
      vertex   -6.553768e+00 -8.945000e+00 -1.063278e+00
      vertex   -6.731231e+00 -8.945000e+00 -1.186488e+00
      vertex   -6.719946e+00 -8.945000e+00 -1.248822e+00
    endloop
  endfacet
  facet normal -8.507656e-15 -1.000000e+00 2.676722e-14
    outer loop
      vertex   -6.553768e+00 -8.945000e+00 -1.063278e+00
      vertex   -6.719946e+00 -8.945000e+00 -1.248822e+00
      vertex   -6.543826e+00 -8.945000e+00 -1.126481e+00
    endloop
  endfacet
  facet normal 8.906560e-15 -1.000000e+00 1.698037e-15
    outer loop
      vertex   -6.543826e+00 -8.945000e+00 -1.126481e+00
      vertex   -6.719946e+00 -8.945000e+00 -1.248822e+00
      vertex   -6.708048e+00 -8.945000e+00 -1.311227e+00
    endloop
  endfacet
  facet normal 9.109263e-15 -1.000000e+00 1.517854e-15
    outer loop
      vertex   -6.543826e+00 -8.945000e+00 -1.126481e+00
      vertex   -6.708048e+00 -8.945000e+00 -1.311227e+00
      vertex   -6.533308e+00 -8.945000e+00 -1.189606e+00
    endloop
  endfacet
  facet normal 8.921819e-15 -1.000000e+00 1.787165e-15
    outer loop
      vertex   -6.533308e+00 -8.945000e+00 -1.189606e+00
      vertex   -6.708048e+00 -8.945000e+00 -1.311227e+00
      vertex   -6.695534e+00 -8.945000e+00 -1.373697e+00
    endloop
  endfacet
  facet normal 3.577908e-14 -1.000000e+00 -2.188028e-14
    outer loop
      vertex   -6.533308e+00 -8.945000e+00 -1.189606e+00
      vertex   -6.695534e+00 -8.945000e+00 -1.373697e+00
      vertex   -6.522213e+00 -8.945000e+00 -1.252648e+00
    endloop
  endfacet
  facet normal 1.787557e-14 -1.000000e+00 3.754606e-15
    outer loop
      vertex   -6.522213e+00 -8.945000e+00 -1.252648e+00
      vertex   -6.695534e+00 -8.945000e+00 -1.373697e+00
      vertex   -6.682402e+00 -8.945000e+00 -1.436222e+00
    endloop
  endfacet
  facet normal 1.771533e-14 -1.000000e+00 3.894432e-15
    outer loop
      vertex   -6.522213e+00 -8.945000e+00 -1.252648e+00
      vertex   -6.682402e+00 -8.945000e+00 -1.436222e+00
      vertex   -6.668646e+00 -8.945000e+00 -1.498793e+00
    endloop
  endfacet
  facet normal 1.849712e-14 -1.000000e+00 3.429340e-15
    outer loop
      vertex   -6.522213e+00 -8.945000e+00 -1.252648e+00
      vertex   -6.668646e+00 -8.945000e+00 -1.498793e+00
      vertex   -6.510541e+00 -8.945000e+00 -1.315604e+00
    endloop
  endfacet
  facet normal -3.417939e-14 -1.000000e+00 4.889283e-14
    outer loop
      vertex   -6.510541e+00 -8.945000e+00 -1.315604e+00
      vertex   -6.668646e+00 -8.945000e+00 -1.498793e+00
      vertex   -6.654265e+00 -8.945000e+00 -1.561403e+00
    endloop
  endfacet
  facet normal 3.708167e-14 -1.000000e+00 7.224959e-15
    outer loop
      vertex   -6.510541e+00 -8.945000e+00 -1.315604e+00
      vertex   -6.654265e+00 -8.945000e+00 -1.561403e+00
      vertex   -6.498292e+00 -8.945000e+00 -1.378468e+00
    endloop
  endfacet
  facet normal 8.748853e-14 -1.000000e+00 -3.575251e-14
    outer loop
      vertex   -6.498292e+00 -8.945000e+00 -1.378468e+00
      vertex   -6.654265e+00 -8.945000e+00 -1.561403e+00
      vertex   -6.639255e+00 -8.945000e+00 -1.624043e+00
    endloop
  endfacet
  facet normal 1.858713e-14 -1.000000e+00 3.797704e-15
    outer loop
      vertex   -6.498292e+00 -8.945000e+00 -1.378468e+00
      vertex   -6.639255e+00 -8.945000e+00 -1.624043e+00
      vertex   -6.485468e+00 -8.945000e+00 -1.441237e+00
    endloop
  endfacet
  facet normal 1.781518e-14 -1.000000e+00 4.447117e-15
    outer loop
      vertex   -6.485468e+00 -8.945000e+00 -1.441237e+00
      vertex   -6.639255e+00 -8.945000e+00 -1.624043e+00
      vertex   -6.623614e+00 -8.945000e+00 -1.686703e+00
    endloop
  endfacet
  facet normal 1.863605e-14 -1.000000e+00 3.985139e-15
    outer loop
      vertex   -6.485468e+00 -8.945000e+00 -1.441237e+00
      vertex   -6.623614e+00 -8.945000e+00 -1.686703e+00
      vertex   -6.472066e+00 -8.945000e+00 -1.503907e+00
    endloop
  endfacet
  facet normal 6.991751e-14 -1.000000e+00 -3.852980e-14
    outer loop
      vertex   -6.472066e+00 -8.945000e+00 -1.503907e+00
      vertex   -6.623614e+00 -8.945000e+00 -1.686703e+00
      vertex   -6.607338e+00 -8.945000e+00 -1.749375e+00
    endloop
  endfacet
  facet normal 0.000000e+00 -1.000000e+00 -0.000000e+00
    outer loop
      vertex   -6.472066e+00 -8.945000e+00 -1.503907e+00
      vertex   -6.607338e+00 -8.945000e+00 -1.749375e+00
      vertex   -6.458089e+00 -8.945000e+00 -1.566470e+00
    endloop
  endfacet
  facet normal -2.610178e-14 -1.000000e+00 2.129882e-14
    outer loop
      vertex   -6.458089e+00 -8.945000e+00 -1.566470e+00
      vertex   -6.607338e+00 -8.945000e+00 -1.749375e+00
      vertex   -6.590425e+00 -8.945000e+00 -1.812050e+00
    endloop
  endfacet
  facet normal 9.371000e-15 -1.000000e+00 2.183567e-15
    outer loop
      vertex   -6.458089e+00 -8.945000e+00 -1.566470e+00
      vertex   -6.590425e+00 -8.945000e+00 -1.812050e+00
      vertex   -6.443544e+00 -8.945000e+00 -1.628892e+00
    endloop
  endfacet
  facet normal -1.723330e-14 -1.000000e+00 2.351854e-14
    outer loop
      vertex   -6.443544e+00 -8.945000e+00 -1.628892e+00
      vertex   -6.590425e+00 -8.945000e+00 -1.812050e+00
      vertex   -6.572873e+00 -8.945000e+00 -1.874718e+00
    endloop
  endfacet
  facet normal 1.879925e-14 -1.000000e+00 4.561892e-15
    outer loop
      vertex   -6.443544e+00 -8.945000e+00 -1.628892e+00
      vertex   -6.572873e+00 -8.945000e+00 -1.874718e+00
      vertex   -6.428435e+00 -8.945000e+00 -1.691158e+00
    endloop
  endfacet
  facet normal 1.796640e-14 -1.000000e+00 5.217236e-15
    outer loop
      vertex   -6.428435e+00 -8.945000e+00 -1.691158e+00
      vertex   -6.572873e+00 -8.945000e+00 -1.874718e+00
      vertex   -6.554679e+00 -8.945000e+00 -1.937372e+00
    endloop
  endfacet
  facet normal 1.885947e-14 -1.000000e+00 4.759323e-15
    outer loop
      vertex   -6.428435e+00 -8.945000e+00 -1.691158e+00
      vertex   -6.554679e+00 -8.945000e+00 -1.937372e+00
      vertex   -6.412762e+00 -8.945000e+00 -1.753263e+00
    endloop
  endfacet
  facet normal 1.800726e-14 -1.000000e+00 5.416231e-15
    outer loop
      vertex   -6.412762e+00 -8.945000e+00 -1.753263e+00
      vertex   -6.554679e+00 -8.945000e+00 -1.937372e+00
      vertex   -6.535842e+00 -8.945000e+00 -2.000000e+00
    endloop
  endfacet
  facet normal -5.645449e-14 -1.000000e+00 4.255999e-14
    outer loop
      vertex   -6.412762e+00 -8.945000e+00 -1.753263e+00
      vertex   -6.535842e+00 -8.945000e+00 -2.000000e+00
      vertex   -6.396527e+00 -8.945000e+00 -1.815204e+00
    endloop
  endfacet
  facet normal -2.803414e-14 -1.000000e+00 2.113442e-14
    outer loop
      vertex   -6.396527e+00 -8.945000e+00 -1.815204e+00
      vertex   -6.535842e+00 -8.945000e+00 -2.000000e+00
      vertex   -6.379732e+00 -8.945000e+00 -1.876976e+00
    endloop
  endfacet
  facet normal -9.311623e-15 -1.000000e+00 -2.623291e-15
    outer loop
      vertex   -6.379732e+00 -8.945000e+00 -1.876976e+00
      vertex   -6.535842e+00 -8.945000e+00 -2.000000e+00
      vertex   -6.362378e+00 -8.945000e+00 -1.938576e+00
    endloop
  endfacet
  facet normal 6.334444e-21 -1.000000e+00 -2.891981e-14
    outer loop
      vertex   -6.362378e+00 -8.945000e+00 -1.938576e+00
      vertex   -6.535842e+00 -8.945000e+00 -2.000000e+00
      vertex   -6.344466e+00 -8.945000e+00 -2.000000e+00
    endloop
  endfacet
  facet normal 6.063603e-01 7.909116e-01 8.237733e-02
    outer loop
      vertex   -6.892243e+00 -8.705084e+00 -1.000000e+00
      vertex   -6.913409e+00 -8.682408e+00 -1.061920e+00
      vertex   -7.000000e+00 -8.622471e+00 -1.000000e+00
    endloop
  endfacet
  facet normal 6.072540e-01 7.900005e-01 8.450916e-02
    outer loop
      vertex   -7.000000e+00 -8.622471e+00 -1.000000e+00
      vertex   -6.913409e+00 -8.682408e+00 -1.061920e+00
      vertex   -6.994935e+00 -8.619741e+00 -1.061920e+00
    endloop
  endfacet
  facet normal 6.307438e-01 7.712550e-01 8.560394e-02
    outer loop
      vertex   -7.000000e+00 -8.622471e+00 -1.000000e+00
      vertex   -6.994935e+00 -8.619741e+00 -1.061920e+00
      vertex   -7.000000e+00 -8.608503e+00 -1.125851e+00
    endloop
  endfacet
  facet normal 6.113376e-01 7.862608e-01 8.977915e-02
    outer loop
      vertex   -7.000000e+00 -8.608503e+00 -1.125851e+00
      vertex   -6.994935e+00 -8.619741e+00 -1.061920e+00
      vertex   -6.991419e+00 -8.615394e+00 -1.123929e+00
    endloop
  endfacet
  facet normal 6.103380e-01 7.864385e-01 9.487898e-02
    outer loop
      vertex   -7.000000e+00 -8.608503e+00 -1.125851e+00
      vertex   -6.991419e+00 -8.615394e+00 -1.123929e+00
      vertex   -6.987695e+00 -8.610793e+00 -1.186025e+00
    endloop
  endfacet
  facet normal 6.066871e-01 7.892595e-01 9.486911e-02
    outer loop
      vertex   -6.987695e+00 -8.610793e+00 -1.186025e+00
      vertex   -6.991419e+00 -8.615394e+00 -1.123929e+00
      vertex   -6.906264e+00 -8.673387e+00 -1.186025e+00
    endloop
  endfacet
  facet normal 6.063824e-01 7.888632e-01 9.997601e-02
    outer loop
      vertex   -6.987695e+00 -8.610793e+00 -1.186025e+00
      vertex   -6.906264e+00 -8.673387e+00 -1.186025e+00
      vertex   -6.902383e+00 -8.668490e+00 -1.248206e+00
    endloop
  endfacet
  facet normal 5.991340e-01 7.943845e-01 9.995853e-02
    outer loop
      vertex   -6.902383e+00 -8.668490e+00 -1.248206e+00
      vertex   -6.906264e+00 -8.673387e+00 -1.186025e+00
      vertex   -6.820458e+00 -8.730278e+00 -1.248206e+00
    endloop
  endfacet
  facet normal 5.988167e-01 7.939638e-01 1.050712e-01
    outer loop
      vertex   -6.902383e+00 -8.668490e+00 -1.248206e+00
      vertex   -6.820458e+00 -8.730278e+00 -1.248206e+00
      vertex   -6.816423e+00 -8.725082e+00 -1.310468e+00
    endloop
  endfacet
  facet normal 5.915293e-01 7.994103e-01 1.050535e-01
    outer loop
      vertex   -6.816423e+00 -8.725082e+00 -1.310468e+00
      vertex   -6.820458e+00 -8.730278e+00 -1.248206e+00
      vertex   -6.734014e+00 -8.786061e+00 -1.310468e+00
    endloop
  endfacet
  facet normal 5.911997e-01 7.989650e-01 1.101721e-01
    outer loop
      vertex   -6.816423e+00 -8.725082e+00 -1.310468e+00
      vertex   -6.734014e+00 -8.786061e+00 -1.310468e+00
      vertex   -6.729828e+00 -8.780563e+00 -1.372810e+00
    endloop
  endfacet
  facet normal 5.838739e-01 8.043366e-01 1.101539e-01
    outer loop
      vertex   -6.729828e+00 -8.780563e+00 -1.372810e+00
      vertex   -6.734014e+00 -8.786061e+00 -1.310468e+00
      vertex   -6.646943e+00 -8.840729e+00 -1.372810e+00
    endloop
  endfacet
  facet normal 5.835324e-01 8.038662e-01 1.152786e-01
    outer loop
      vertex   -6.729828e+00 -8.780563e+00 -1.372810e+00
      vertex   -6.646943e+00 -8.840729e+00 -1.372810e+00
      vertex   -6.642606e+00 -8.834926e+00 -1.435228e+00
    endloop
  endfacet
  facet normal 5.761687e-01 8.091631e-01 1.152596e-01
    outer loop
      vertex   -6.642606e+00 -8.834926e+00 -1.435228e+00
      vertex   -6.646943e+00 -8.840729e+00 -1.372810e+00
      vertex   -6.559254e+00 -8.894278e+00 -1.435228e+00
    endloop
  endfacet
  facet normal 5.758155e-01 8.086671e-01 1.203906e-01
    outer loop
      vertex   -6.642606e+00 -8.834926e+00 -1.435228e+00
      vertex   -6.559254e+00 -8.894278e+00 -1.435228e+00
      vertex   -6.554770e+00 -8.888167e+00 -1.497720e+00
    endloop
  endfacet
  facet normal 5.690062e-01 8.134755e-01 1.203722e-01
    outer loop
      vertex   -6.554770e+00 -8.888167e+00 -1.497720e+00
      vertex   -6.559254e+00 -8.894278e+00 -1.435228e+00
      vertex   -6.485468e+00 -8.945000e+00 -1.441237e+00
    endloop
  endfacet
  facet normal 5.683172e-01 8.137851e-01 1.215291e-01
    outer loop
      vertex   -6.554770e+00 -8.888167e+00 -1.497720e+00
      vertex   -6.485468e+00 -8.945000e+00 -1.441237e+00
      vertex   -6.472066e+00 -8.945000e+00 -1.503907e+00
    endloop
  endfacet
  facet normal 5.999031e-01 7.954120e-01 8.623255e-02
    outer loop
      vertex   -6.913409e+00 -8.682408e+00 -1.061920e+00
      vertex   -6.892243e+00 -8.705084e+00 -1.000000e+00
      vertex   -6.831340e+00 -8.744304e+00 -1.061920e+00
    endloop
  endfacet
  facet normal 5.968033e-01 7.982494e-01 8.138630e-02
    outer loop
      vertex   -6.831340e+00 -8.744304e+00 -1.061920e+00
      vertex   -6.892243e+00 -8.705084e+00 -1.000000e+00
      vertex   -6.783505e+00 -8.786381e+00 -1.000000e+00
    endloop
  endfacet
  facet normal 5.925897e-01 8.008560e-01 8.641270e-02
    outer loop
      vertex   -6.831340e+00 -8.744304e+00 -1.061920e+00
      vertex   -6.783505e+00 -8.786381e+00 -1.000000e+00
      vertex   -6.748742e+00 -8.805423e+00 -1.061920e+00
    endloop
  endfacet
  facet normal 5.870910e-01 8.053633e-01 8.193952e-02
    outer loop
      vertex   -6.748742e+00 -8.805423e+00 -1.061920e+00
      vertex   -6.783505e+00 -8.786381e+00 -1.000000e+00
      vertex   -6.673797e+00 -8.866356e+00 -1.000000e+00
    endloop
  endfacet
  facet normal 5.853124e-01 8.063350e-01 8.504840e-02
    outer loop
      vertex   -6.748742e+00 -8.805423e+00 -1.061920e+00
      vertex   -6.673797e+00 -8.866356e+00 -1.000000e+00
      vertex   -6.665624e+00 -8.865757e+00 -1.061920e+00
    endloop
  endfacet
  facet normal 5.779693e-01 8.117102e-01 8.413113e-02
    outer loop
      vertex   -6.665624e+00 -8.865757e+00 -1.061920e+00
      vertex   -6.673797e+00 -8.866356e+00 -1.000000e+00
      vertex   -6.581998e+00 -8.925303e+00 -1.061920e+00
    endloop
  endfacet
  facet normal 5.776877e-01 8.113147e-01 8.969621e-02
    outer loop
      vertex   -6.665624e+00 -8.865757e+00 -1.061920e+00
      vertex   -6.581998e+00 -8.925303e+00 -1.061920e+00
      vertex   -6.578698e+00 -8.920797e+00 -1.123929e+00
    endloop
  endfacet
  facet normal 5.728151e-01 8.147632e-01 8.968746e-02
    outer loop
      vertex   -6.578698e+00 -8.920797e+00 -1.123929e+00
      vertex   -6.581998e+00 -8.925303e+00 -1.061920e+00
      vertex   -6.553768e+00 -8.945000e+00 -1.063278e+00
    endloop
  endfacet
  facet normal 5.723120e-01 8.150799e-01 9.002063e-02
    outer loop
      vertex   -6.578698e+00 -8.920797e+00 -1.123929e+00
      vertex   -6.553768e+00 -8.945000e+00 -1.063278e+00
      vertex   -6.543826e+00 -8.945000e+00 -1.126481e+00
    endloop
  endfacet
  facet normal 5.772999e-01 8.123508e-01 8.252896e-02
    outer loop
      vertex   -6.673797e+00 -8.866356e+00 -1.000000e+00
      vertex   -6.563132e+00 -8.945000e+00 -1.000000e+00
      vertex   -6.581998e+00 -8.925303e+00 -1.061920e+00
    endloop
  endfacet
  facet normal 5.729025e-01 8.152266e-01 8.478359e-02
    outer loop
      vertex   -6.581998e+00 -8.925303e+00 -1.061920e+00
      vertex   -6.563132e+00 -8.945000e+00 -1.000000e+00
      vertex   -6.553768e+00 -8.945000e+00 -1.063278e+00
    endloop
  endfacet
  facet normal 5.722943e-01 8.145522e-01 9.478326e-02
    outer loop
      vertex   -6.578698e+00 -8.920797e+00 -1.123929e+00
      vertex   -6.543826e+00 -8.945000e+00 -1.126481e+00
      vertex   -6.575203e+00 -8.916027e+00 -1.186025e+00
    endloop
  endfacet
  facet normal 5.717109e-01 8.149059e-01 9.526278e-02
    outer loop
      vertex   -6.575203e+00 -8.916027e+00 -1.186025e+00
      vertex   -6.543826e+00 -8.945000e+00 -1.126481e+00
      vertex   -6.533308e+00 -8.945000e+00 -1.189606e+00
    endloop
  endfacet
  facet normal 5.717191e-01 8.143463e-01 9.988662e-02
    outer loop
      vertex   -6.575203e+00 -8.916027e+00 -1.186025e+00
      vertex   -6.533308e+00 -8.945000e+00 -1.189606e+00
      vertex   -6.571512e+00 -8.910991e+00 -1.248206e+00
    endloop
  endfacet
  facet normal 5.710894e-01 8.147115e-01 1.005091e-01
    outer loop
      vertex   -6.571512e+00 -8.910991e+00 -1.248206e+00
      vertex   -6.533308e+00 -8.945000e+00 -1.189606e+00
      vertex   -6.522213e+00 -8.945000e+00 -1.252648e+00
    endloop
  endfacet
  facet normal 5.710987e-01 8.141387e-01 1.049974e-01
    outer loop
      vertex   -6.571512e+00 -8.910991e+00 -1.248206e+00
      vertex   -6.522213e+00 -8.945000e+00 -1.252648e+00
      vertex   -6.567624e+00 -8.905688e+00 -1.310468e+00
    endloop
  endfacet
  facet normal 5.704419e-01 8.145005e-01 1.057591e-01
    outer loop
      vertex   -6.567624e+00 -8.905688e+00 -1.310468e+00
      vertex   -6.522213e+00 -8.945000e+00 -1.252648e+00
      vertex   -6.510541e+00 -8.945000e+00 -1.315604e+00
    endloop
  endfacet
  facet normal 5.704380e-01 8.139257e-01 1.101154e-01
    outer loop
      vertex   -6.567624e+00 -8.905688e+00 -1.310468e+00
      vertex   -6.510541e+00 -8.945000e+00 -1.315604e+00
      vertex   -6.563538e+00 -8.900118e+00 -1.372810e+00
    endloop
  endfacet
  facet normal 5.697653e-01 8.142750e-01 1.110126e-01
    outer loop
      vertex   -6.563538e+00 -8.900118e+00 -1.372810e+00
      vertex   -6.510541e+00 -8.945000e+00 -1.315604e+00
      vertex   -6.498292e+00 -8.945000e+00 -1.378468e+00
    endloop
  endfacet
  facet normal 5.697400e-01 8.137051e-01 1.152404e-01
    outer loop
      vertex   -6.563538e+00 -8.900118e+00 -1.372810e+00
      vertex   -6.498292e+00 -8.945000e+00 -1.378468e+00
      vertex   -6.559254e+00 -8.894278e+00 -1.435228e+00
    endloop
  endfacet
  facet normal 5.690575e-01 8.140362e-01 1.162692e-01
    outer loop
      vertex   -6.559254e+00 -8.894278e+00 -1.435228e+00
      vertex   -6.498292e+00 -8.945000e+00 -1.378468e+00
      vertex   -6.485468e+00 -8.945000e+00 -1.441237e+00
    endloop
  endfacet
  facet normal 5.625113e-01 8.171833e-01 1.256679e-01
    outer loop
      vertex   -6.458089e+00 -8.945000e+00 -1.566470e+00
      vertex   -6.466258e+00 -8.940328e+00 -1.560284e+00
      vertex   -6.472066e+00 -8.945000e+00 -1.503907e+00
    endloop
  endfacet
  facet normal 5.680185e-01 8.133266e-01 1.259157e-01
    outer loop
      vertex   -6.472066e+00 -8.945000e+00 -1.503907e+00
      vertex   -6.466258e+00 -8.940328e+00 -1.560284e+00
      vertex   -6.550085e+00 -8.881784e+00 -1.560284e+00
    endloop
  endfacet
  facet normal 5.682377e-01 8.132361e-01 1.255108e-01
    outer loop
      vertex   -6.472066e+00 -8.945000e+00 -1.503907e+00
      vertex   -6.550085e+00 -8.881784e+00 -1.560284e+00
      vertex   -6.554770e+00 -8.888167e+00 -1.497720e+00
    endloop
  endfacet
  facet normal 5.754475e-01 8.081473e-01 1.255315e-01
    outer loop
      vertex   -6.554770e+00 -8.888167e+00 -1.497720e+00
      vertex   -6.550085e+00 -8.881784e+00 -1.560284e+00
      vertex   -6.638068e+00 -8.828854e+00 -1.497720e+00
    endloop
  endfacet
  facet normal 5.758168e-01 8.086658e-01 1.203935e-01
    outer loop
      vertex   -6.554770e+00 -8.888167e+00 -1.497720e+00
      vertex   -6.638068e+00 -8.828854e+00 -1.497720e+00
      vertex   -6.642606e+00 -8.834926e+00 -1.435228e+00
    endloop
  endfacet
  facet normal 5.831760e-01 8.033719e-01 1.204135e-01
    outer loop
      vertex   -6.642606e+00 -8.834926e+00 -1.435228e+00
      vertex   -6.638068e+00 -8.828854e+00 -1.497720e+00
      vertex   -6.725437e+00 -8.774798e+00 -1.435228e+00
    endloop
  endfacet
  facet normal 5.835337e-01 8.038647e-01 1.152818e-01
    outer loop
      vertex   -6.642606e+00 -8.834926e+00 -1.435228e+00
      vertex   -6.725437e+00 -8.774798e+00 -1.435228e+00
      vertex   -6.729828e+00 -8.780563e+00 -1.372810e+00
    endloop
  endfacet
  facet normal 5.908551e-01 7.984961e-01 1.153009e-01
    outer loop
      vertex   -6.729828e+00 -8.780563e+00 -1.372810e+00
      vertex   -6.725437e+00 -8.774798e+00 -1.435228e+00
      vertex   -6.812183e+00 -8.719622e+00 -1.372810e+00
    endloop
  endfacet
  facet normal 5.912010e-01 7.989636e-01 1.101751e-01
    outer loop
      vertex   -6.729828e+00 -8.780563e+00 -1.372810e+00
      vertex   -6.812183e+00 -8.719622e+00 -1.372810e+00
      vertex   -6.816423e+00 -8.725082e+00 -1.310468e+00
    endloop
  endfacet
  facet normal 5.984840e-01 7.935201e-01 1.101938e-01
    outer loop
      vertex   -6.816423e+00 -8.725082e+00 -1.310468e+00
      vertex   -6.812183e+00 -8.719622e+00 -1.372810e+00
      vertex   -6.898296e+00 -8.663332e+00 -1.310468e+00
    endloop
  endfacet
  facet normal 5.988178e-01 7.939627e-01 1.050737e-01
    outer loop
      vertex   -6.816423e+00 -8.725082e+00 -1.310468e+00
      vertex   -6.898296e+00 -8.663332e+00 -1.310468e+00
      vertex   -6.902383e+00 -8.668490e+00 -1.248206e+00
    endloop
  endfacet
  facet normal 6.060618e-01 7.884445e-01 1.050922e-01
    outer loop
      vertex   -6.902383e+00 -8.668490e+00 -1.248206e+00
      vertex   -6.898296e+00 -8.663332e+00 -1.310468e+00
      vertex   -6.983763e+00 -8.605934e+00 -1.248206e+00
    endloop
  endfacet
  facet normal 6.063831e-01 7.888624e-01 9.997770e-02
    outer loop
      vertex   -6.902383e+00 -8.668490e+00 -1.248206e+00
      vertex   -6.983763e+00 -8.605934e+00 -1.248206e+00
      vertex   -6.987695e+00 -8.610793e+00 -1.186025e+00
    endloop
  endfacet
  facet normal 6.110605e-01 7.852432e-01 9.999069e-02
    outer loop
      vertex   -6.987695e+00 -8.610793e+00 -1.186025e+00
      vertex   -6.983763e+00 -8.605934e+00 -1.248206e+00
      vertex   -7.000000e+00 -8.592880e+00 -1.251496e+00
    endloop
  endfacet
  facet normal 6.189660e-01 7.794161e-01 9.691058e-02
    outer loop
      vertex   -6.987695e+00 -8.610793e+00 -1.186025e+00
      vertex   -7.000000e+00 -8.592880e+00 -1.251496e+00
      vertex   -7.000000e+00 -8.608503e+00 -1.125851e+00
    endloop
  endfacet
  facet normal 5.648936e-01 8.147555e-01 1.306470e-01
    outer loop
      vertex   -6.466258e+00 -8.940328e+00 -1.560284e+00
      vertex   -6.458089e+00 -8.945000e+00 -1.566470e+00
      vertex   -6.461439e+00 -8.933626e+00 -1.622917e+00
    endloop
  endfacet
  facet normal 5.625885e-01 8.162778e-01 1.310905e-01
    outer loop
      vertex   -6.461439e+00 -8.933626e+00 -1.622917e+00
      vertex   -6.458089e+00 -8.945000e+00 -1.566470e+00
      vertex   -6.443544e+00 -8.945000e+00 -1.628892e+00
    endloop
  endfacet
  facet normal 5.633406e-01 8.149888e-01 1.357964e-01
    outer loop
      vertex   -6.461439e+00 -8.933626e+00 -1.622917e+00
      vertex   -6.443544e+00 -8.945000e+00 -1.628892e+00
      vertex   -6.456420e+00 -8.926649e+00 -1.685615e+00
    endloop
  endfacet
  facet normal 5.619884e-01 8.158255e-01 1.363740e-01
    outer loop
      vertex   -6.456420e+00 -8.926649e+00 -1.685615e+00
      vertex   -6.443544e+00 -8.945000e+00 -1.628892e+00
      vertex   -6.428435e+00 -8.945000e+00 -1.691158e+00
    endloop
  endfacet
  facet normal 5.622613e-01 8.148586e-01 1.409532e-01
    outer loop
      vertex   -6.456420e+00 -8.926649e+00 -1.685615e+00
      vertex   -6.428435e+00 -8.945000e+00 -1.691158e+00
      vertex   -6.451201e+00 -8.919393e+00 -1.748377e+00
    endloop
  endfacet
  facet normal 5.612285e-01 8.154529e-01 1.416301e-01
    outer loop
      vertex   -6.451201e+00 -8.919393e+00 -1.748377e+00
      vertex   -6.428435e+00 -8.945000e+00 -1.691158e+00
      vertex   -6.412762e+00 -8.945000e+00 -1.753263e+00
    endloop
  endfacet
  facet normal 5.612578e-01 8.146408e-01 1.461162e-01
    outer loop
      vertex   -6.451201e+00 -8.919393e+00 -1.748377e+00
      vertex   -6.412762e+00 -8.945000e+00 -1.753263e+00
      vertex   -6.445780e+00 -8.911860e+00 -1.811199e+00
    endloop
  endfacet
  facet normal 5.603883e-01 8.151027e-01 1.468760e-01
    outer loop
      vertex   -6.445780e+00 -8.911860e+00 -1.811199e+00
      vertex   -6.412762e+00 -8.945000e+00 -1.753263e+00
      vertex   -6.396527e+00 -8.945000e+00 -1.815204e+00
    endloop
  endfacet
  facet normal 5.602623e-01 8.143826e-01 1.512851e-01
    outer loop
      vertex   -6.445780e+00 -8.911860e+00 -1.811199e+00
      vertex   -6.396527e+00 -8.945000e+00 -1.815204e+00
      vertex   -6.440158e+00 -8.904047e+00 -1.874079e+00
    endloop
  endfacet
  facet normal 5.594916e-01 8.147574e-01 1.521170e-01
    outer loop
      vertex   -6.440158e+00 -8.904047e+00 -1.874079e+00
      vertex   -6.396527e+00 -8.945000e+00 -1.815204e+00
      vertex   -6.379732e+00 -8.945000e+00 -1.876976e+00
    endloop
  endfacet
  facet normal 5.592532e-01 8.140984e-01 1.564595e-01
    outer loop
      vertex   -6.440158e+00 -8.904047e+00 -1.874079e+00
      vertex   -6.379732e+00 -8.945000e+00 -1.876976e+00
      vertex   -6.434332e+00 -8.895954e+00 -1.937013e+00
    endloop
  endfacet
  facet normal 5.585480e-01 8.144099e-01 1.573554e-01
    outer loop
      vertex   -6.434332e+00 -8.895954e+00 -1.937013e+00
      vertex   -6.379732e+00 -8.945000e+00 -1.876976e+00
      vertex   -6.362378e+00 -8.945000e+00 -1.938576e+00
    endloop
  endfacet
  facet normal 5.582216e-01 8.137945e-01 1.616392e-01
    outer loop
      vertex   -6.434332e+00 -8.895954e+00 -1.937013e+00
      vertex   -6.362378e+00 -8.945000e+00 -1.938576e+00
      vertex   -6.428303e+00 -8.887579e+00 -2.000000e+00
    endloop
  endfacet
  facet normal 5.575621e-01 8.140567e-01 1.625921e-01
    outer loop
      vertex   -6.428303e+00 -8.887579e+00 -2.000000e+00
      vertex   -6.362378e+00 -8.945000e+00 -1.938576e+00
      vertex   -6.344466e+00 -8.945000e+00 -2.000000e+00
    endloop
  endfacet
  facet normal 5.650528e-01 8.090613e-01 1.616637e-01
    outer loop
      vertex   -6.434332e+00 -8.895954e+00 -1.937013e+00
      vertex   -6.428303e+00 -8.887579e+00 -2.000000e+00
      vertex   -6.517720e+00 -8.837715e+00 -1.937013e+00
    endloop
  endfacet
  facet normal 5.650540e-01 8.090599e-01 1.616666e-01
    outer loop
      vertex   -6.517720e+00 -8.837715e+00 -1.937013e+00
      vertex   -6.428303e+00 -8.887579e+00 -2.000000e+00
      vertex   -6.511609e+00 -8.829397e+00 -2.000000e+00
    endloop
  endfacet
  facet normal 5.724131e-01 8.038645e-01 1.616946e-01
    outer loop
      vertex   -6.517720e+00 -8.837715e+00 -1.937013e+00
      vertex   -6.511609e+00 -8.829397e+00 -2.000000e+00
      vertex   -6.600566e+00 -8.778723e+00 -1.937013e+00
    endloop
  endfacet
  facet normal 5.724142e-01 8.038631e-01 1.616973e-01
    outer loop
      vertex   -6.600566e+00 -8.778723e+00 -1.937013e+00
      vertex   -6.511609e+00 -8.829397e+00 -2.000000e+00
      vertex   -6.594379e+00 -8.770458e+00 -2.000000e+00
    endloop
  endfacet
  facet normal 5.797296e-01 7.985979e-01 1.617250e-01
    outer loop
      vertex   -6.600566e+00 -8.778723e+00 -1.937013e+00
      vertex   -6.594379e+00 -8.770458e+00 -2.000000e+00
      vertex   -6.682872e+00 -8.718974e+00 -1.937013e+00
    endloop
  endfacet
  facet normal 5.797308e-01 7.985964e-01 1.617280e-01
    outer loop
      vertex   -6.682872e+00 -8.718974e+00 -1.937013e+00
      vertex   -6.594379e+00 -8.770458e+00 -2.000000e+00
      vertex   -6.676608e+00 -8.710765e+00 -2.000000e+00
    endloop
  endfacet
  facet normal 5.870022e-01 7.932613e-01 1.617559e-01
    outer loop
      vertex   -6.682872e+00 -8.718974e+00 -1.937013e+00
      vertex   -6.676608e+00 -8.710765e+00 -2.000000e+00
      vertex   -6.764633e+00 -8.658472e+00 -1.937013e+00
    endloop
  endfacet
  facet normal 5.870034e-01 7.932598e-01 1.617588e-01
    outer loop
      vertex   -6.764633e+00 -8.658472e+00 -1.937013e+00
      vertex   -6.676608e+00 -8.710765e+00 -2.000000e+00
      vertex   -6.758290e+00 -8.650321e+00 -2.000000e+00
    endloop
  endfacet
  facet normal 5.942303e-01 7.878548e-01 1.617872e-01
    outer loop
      vertex   -6.764633e+00 -8.658472e+00 -1.937013e+00
      vertex   -6.758290e+00 -8.650321e+00 -2.000000e+00
      vertex   -6.845843e+00 -8.597220e+00 -1.937013e+00
    endloop
  endfacet
  facet normal 5.942313e-01 7.878536e-01 1.617896e-01
    outer loop
      vertex   -6.845843e+00 -8.597220e+00 -1.937013e+00
      vertex   -6.758290e+00 -8.650321e+00 -2.000000e+00
      vertex   -6.839420e+00 -8.589130e+00 -2.000000e+00
    endloop
  endfacet
  facet normal 6.014135e-01 7.823788e-01 1.618189e-01
    outer loop
      vertex   -6.845843e+00 -8.597220e+00 -1.937013e+00
      vertex   -6.839420e+00 -8.589130e+00 -2.000000e+00
      vertex   -6.926496e+00 -8.535222e+00 -1.937013e+00
    endloop
  endfacet
  facet normal 6.014141e-01 7.823779e-01 1.618205e-01
    outer loop
      vertex   -6.926496e+00 -8.535222e+00 -1.937013e+00
      vertex   -6.839420e+00 -8.589130e+00 -2.000000e+00
      vertex   -6.919992e+00 -8.527194e+00 -2.000000e+00
    endloop
  endfacet
  facet normal 6.085513e-01 7.768330e-01 1.618508e-01
    outer loop
      vertex   -6.926496e+00 -8.535222e+00 -1.937013e+00
      vertex   -6.919992e+00 -8.527194e+00 -2.000000e+00
      vertex   -7.000000e+00 -8.464518e+00 -2.000000e+00
    endloop
  endfacet
  facet normal 6.098758e-01 7.762495e-01 1.596502e-01
    outer loop
      vertex   -7.000000e+00 -8.464518e+00 -2.000000e+00
      vertex   -7.000000e+00 -8.490025e+00 -1.875979e+00
      vertex   -6.926496e+00 -8.535222e+00 -1.937013e+00
    endloop
  endfacet
  facet normal 6.084531e-01 7.779733e-01 1.566602e-01
    outer loop
      vertex   -6.926496e+00 -8.535222e+00 -1.937013e+00
      vertex   -7.000000e+00 -8.490025e+00 -1.875979e+00
      vertex   -6.932781e+00 -8.542980e+00 -1.874079e+00
    endloop
  endfacet
  facet normal 6.019232e-01 7.830419e-01 1.566329e-01
    outer loop
      vertex   -6.926496e+00 -8.535222e+00 -1.937013e+00
      vertex   -6.932781e+00 -8.542980e+00 -1.874079e+00
      vertex   -6.845843e+00 -8.597220e+00 -1.937013e+00
    endloop
  endfacet
  facet normal 6.019225e-01 7.830427e-01 1.566313e-01
    outer loop
      vertex   -6.845843e+00 -8.597220e+00 -1.937013e+00
      vertex   -6.932781e+00 -8.542980e+00 -1.874079e+00
      vertex   -6.852049e+00 -8.605038e+00 -1.874079e+00
    endloop
  endfacet
  facet normal 5.947337e-01 7.885222e-01 1.566031e-01
    outer loop
      vertex   -6.845843e+00 -8.597220e+00 -1.937013e+00
      vertex   -6.852049e+00 -8.605038e+00 -1.874079e+00
      vertex   -6.764633e+00 -8.658472e+00 -1.937013e+00
    endloop
  endfacet
  facet normal 5.947327e-01 7.885235e-01 1.566006e-01
    outer loop
      vertex   -6.764633e+00 -8.658472e+00 -1.937013e+00
      vertex   -6.852049e+00 -8.605038e+00 -1.874079e+00
      vertex   -6.770762e+00 -8.666348e+00 -1.874079e+00
    endloop
  endfacet
  facet normal 5.874992e-01 7.939329e-01 1.565732e-01
    outer loop
      vertex   -6.764633e+00 -8.658472e+00 -1.937013e+00
      vertex   -6.770762e+00 -8.666348e+00 -1.874079e+00
      vertex   -6.682872e+00 -8.718974e+00 -1.937013e+00
    endloop
  endfacet
  facet normal 5.874980e-01 7.939344e-01 1.565703e-01
    outer loop
      vertex   -6.682872e+00 -8.718974e+00 -1.937013e+00
      vertex   -6.770762e+00 -8.666348e+00 -1.874079e+00
      vertex   -6.688924e+00 -8.726906e+00 -1.874079e+00
    endloop
  endfacet
  facet normal 5.802202e-01 7.992738e-01 1.565434e-01
    outer loop
      vertex   -6.682872e+00 -8.718974e+00 -1.937013e+00
      vertex   -6.688924e+00 -8.726906e+00 -1.874079e+00
      vertex   -6.600566e+00 -8.778723e+00 -1.937013e+00
    endloop
  endfacet
  facet normal 5.802189e-01 7.992753e-01 1.565404e-01
    outer loop
      vertex   -6.600566e+00 -8.778723e+00 -1.937013e+00
      vertex   -6.688924e+00 -8.726906e+00 -1.874079e+00
      vertex   -6.606544e+00 -8.786709e+00 -1.874079e+00
    endloop
  endfacet
  facet normal 5.728974e-01 8.045447e-01 1.565136e-01
    outer loop
      vertex   -6.600566e+00 -8.778723e+00 -1.937013e+00
      vertex   -6.606544e+00 -8.786709e+00 -1.874079e+00
      vertex   -6.517720e+00 -8.837715e+00 -1.937013e+00
    endloop
  endfacet
  facet normal 5.728962e-01 8.045460e-01 1.565108e-01
    outer loop
      vertex   -6.517720e+00 -8.837715e+00 -1.937013e+00
      vertex   -6.606544e+00 -8.786709e+00 -1.874079e+00
      vertex   -6.523626e+00 -8.845753e+00 -1.874079e+00
    endloop
  endfacet
  facet normal 5.655307e-01 8.097455e-01 1.564838e-01
    outer loop
      vertex   -6.517720e+00 -8.837715e+00 -1.937013e+00
      vertex   -6.523626e+00 -8.845753e+00 -1.874079e+00
      vertex   -6.434332e+00 -8.895954e+00 -1.937013e+00
    endloop
  endfacet
  facet normal 5.655295e-01 8.097469e-01 1.564809e-01
    outer loop
      vertex   -6.434332e+00 -8.895954e+00 -1.937013e+00
      vertex   -6.523626e+00 -8.845753e+00 -1.874079e+00
      vertex   -6.440158e+00 -8.904047e+00 -1.874079e+00
    endloop
  endfacet
  facet normal 6.090438e-01 7.785372e-01 1.514776e-01
    outer loop
      vertex   -6.932781e+00 -8.542980e+00 -1.874079e+00
      vertex   -7.000000e+00 -8.490025e+00 -1.875979e+00
      vertex   -6.938847e+00 -8.550469e+00 -1.811199e+00
    endloop
  endfacet
  facet normal 6.105965e-01 7.777463e-01 1.492738e-01
    outer loop
      vertex   -6.938847e+00 -8.550469e+00 -1.811199e+00
      vertex   -7.000000e+00 -8.490025e+00 -1.875979e+00
      vertex   -7.000000e+00 -8.513890e+00 -1.751641e+00
    endloop
  endfacet
  facet normal 6.088529e-01 7.796762e-01 1.462982e-01
    outer loop
      vertex   -6.938847e+00 -8.550469e+00 -1.811199e+00
      vertex   -7.000000e+00 -8.513890e+00 -1.751641e+00
      vertex   -6.944696e+00 -8.557689e+00 -1.748377e+00
    endloop
  endfacet
  facet normal 6.095077e-01 7.801175e-01 1.411276e-01
    outer loop
      vertex   -6.944696e+00 -8.557689e+00 -1.748377e+00
      vertex   -7.000000e+00 -8.513890e+00 -1.751641e+00
      vertex   -6.950329e+00 -8.564642e+00 -1.685615e+00
    endloop
  endfacet
  facet normal 6.033456e-01 7.848973e-01 1.411042e-01
    outer loop
      vertex   -6.944696e+00 -8.557689e+00 -1.748377e+00
      vertex   -6.950329e+00 -8.564642e+00 -1.685615e+00
      vertex   -6.863815e+00 -8.619862e+00 -1.748377e+00
    endloop
  endfacet
  facet normal 6.033449e-01 7.848981e-01 1.411025e-01
    outer loop
      vertex   -6.863815e+00 -8.619862e+00 -1.748377e+00
      vertex   -6.950329e+00 -8.564642e+00 -1.685615e+00
      vertex   -6.869376e+00 -8.626870e+00 -1.685615e+00
    endloop
  endfacet
  facet normal 5.961373e-01 7.903908e-01 1.410772e-01
    outer loop
      vertex   -6.863815e+00 -8.619862e+00 -1.748377e+00
      vertex   -6.869376e+00 -8.626870e+00 -1.685615e+00
      vertex   -6.782380e+00 -8.681283e+00 -1.748377e+00
    endloop
  endfacet
  facet normal 5.961363e-01 7.903920e-01 1.410747e-01
    outer loop
      vertex   -6.782380e+00 -8.681283e+00 -1.748377e+00
      vertex   -6.869376e+00 -8.626870e+00 -1.685615e+00
      vertex   -6.787871e+00 -8.688343e+00 -1.685615e+00
    endloop
  endfacet
  facet normal 5.888843e-01 7.958141e-01 1.410502e-01
    outer loop
      vertex   -6.782380e+00 -8.681283e+00 -1.748377e+00
      vertex   -6.787871e+00 -8.688343e+00 -1.685615e+00
      vertex   -6.700398e+00 -8.741948e+00 -1.748377e+00
    endloop
  endfacet
  facet normal 5.888831e-01 7.958155e-01 1.410473e-01
    outer loop
      vertex   -6.700398e+00 -8.741948e+00 -1.748377e+00
      vertex   -6.787871e+00 -8.688343e+00 -1.685615e+00
      vertex   -6.705820e+00 -8.749059e+00 -1.685615e+00
    endloop
  endfacet
  facet normal 5.815874e-01 8.011670e-01 1.410233e-01
    outer loop
      vertex   -6.700398e+00 -8.741948e+00 -1.748377e+00
      vertex   -6.705820e+00 -8.749059e+00 -1.685615e+00
      vertex   -6.617876e+00 -8.801853e+00 -1.748377e+00
    endloop
  endfacet
  facet normal 5.815861e-01 8.011685e-01 1.410202e-01
    outer loop
      vertex   -6.617876e+00 -8.801853e+00 -1.748377e+00
      vertex   -6.705820e+00 -8.749059e+00 -1.685615e+00
      vertex   -6.623231e+00 -8.809012e+00 -1.685615e+00
    endloop
  endfacet
  facet normal 5.742471e-01 8.064492e-01 1.409963e-01
    outer loop
      vertex   -6.617876e+00 -8.801853e+00 -1.748377e+00
      vertex   -6.623231e+00 -8.809012e+00 -1.685615e+00
      vertex   -6.534821e+00 -8.860994e+00 -1.748377e+00
    endloop
  endfacet
  facet normal 5.742459e-01 8.064506e-01 1.409935e-01
    outer loop
      vertex   -6.534821e+00 -8.860994e+00 -1.748377e+00
      vertex   -6.623231e+00 -8.809012e+00 -1.685615e+00
      vertex   -6.540112e+00 -8.868199e+00 -1.685615e+00
    endloop
  endfacet
  facet normal 5.668624e-01 8.116617e-01 1.409692e-01
    outer loop
      vertex   -6.534821e+00 -8.860994e+00 -1.748377e+00
      vertex   -6.540112e+00 -8.868199e+00 -1.685615e+00
      vertex   -6.451201e+00 -8.919393e+00 -1.748377e+00
    endloop
  endfacet
  facet normal 5.668611e-01 8.116631e-01 1.409663e-01
    outer loop
      vertex   -6.451201e+00 -8.919393e+00 -1.748377e+00
      vertex   -6.540112e+00 -8.868199e+00 -1.685615e+00
      vertex   -6.456420e+00 -8.926649e+00 -1.685615e+00
    endloop
  endfacet
  facet normal 6.113929e-01 7.790442e-01 1.388844e-01
    outer loop
      vertex   -7.000000e+00 -8.513890e+00 -1.751641e+00
      vertex   -7.000000e+00 -8.536109e+00 -1.627006e+00
      vertex   -6.950329e+00 -8.564642e+00 -1.685615e+00
    endloop
  endfacet
  facet normal 6.092165e-01 7.812618e-01 1.359603e-01
    outer loop
      vertex   -6.950329e+00 -8.564642e+00 -1.685615e+00
      vertex   -7.000000e+00 -8.536109e+00 -1.627006e+00
      vertex   -6.955745e+00 -8.571330e+00 -1.622917e+00
    endloop
  endfacet
  facet normal 6.037850e-01 7.854706e-01 1.359400e-01
    outer loop
      vertex   -6.950329e+00 -8.564642e+00 -1.685615e+00
      vertex   -6.955745e+00 -8.571330e+00 -1.622917e+00
      vertex   -6.869376e+00 -8.626870e+00 -1.685615e+00
    endloop
  endfacet
  facet normal 6.037843e-01 7.854714e-01 1.359383e-01
    outer loop
      vertex   -6.869376e+00 -8.626870e+00 -1.685615e+00
      vertex   -6.955745e+00 -8.571330e+00 -1.622917e+00
      vertex   -6.874724e+00 -8.633610e+00 -1.622917e+00
    endloop
  endfacet
  facet normal 5.965708e-01 7.909682e-01 1.359139e-01
    outer loop
      vertex   -6.869376e+00 -8.626870e+00 -1.685615e+00
      vertex   -6.874724e+00 -8.633610e+00 -1.622917e+00
      vertex   -6.787871e+00 -8.688343e+00 -1.685615e+00
    endloop
  endfacet
  facet normal 5.965698e-01 7.909694e-01 1.359115e-01
    outer loop
      vertex   -6.787871e+00 -8.688343e+00 -1.685615e+00
      vertex   -6.874724e+00 -8.633610e+00 -1.622917e+00
      vertex   -6.793152e+00 -8.695134e+00 -1.622917e+00
    endloop
  endfacet
  facet normal 5.893122e-01 7.963954e-01 1.358879e-01
    outer loop
      vertex   -6.787871e+00 -8.688343e+00 -1.685615e+00
      vertex   -6.793152e+00 -8.695134e+00 -1.622917e+00
      vertex   -6.705820e+00 -8.749059e+00 -1.685615e+00
    endloop
  endfacet
  facet normal 5.893109e-01 7.963968e-01 1.358850e-01
    outer loop
      vertex   -6.705820e+00 -8.749059e+00 -1.685615e+00
      vertex   -6.793152e+00 -8.695134e+00 -1.622917e+00
      vertex   -6.711035e+00 -8.755898e+00 -1.622917e+00
    endloop
  endfacet
  facet normal 5.820097e-01 8.017520e-01 1.358619e-01
    outer loop
      vertex   -6.705820e+00 -8.749059e+00 -1.685615e+00
      vertex   -6.711035e+00 -8.755898e+00 -1.622917e+00
      vertex   -6.623231e+00 -8.809012e+00 -1.685615e+00
    endloop
  endfacet
  facet normal 5.820083e-01 8.017535e-01 1.358588e-01
    outer loop
      vertex   -6.623231e+00 -8.809012e+00 -1.685615e+00
      vertex   -6.711035e+00 -8.755898e+00 -1.622917e+00
      vertex   -6.628381e+00 -8.815898e+00 -1.622917e+00
    endloop
  endfacet
  facet normal 5.746640e-01 8.070377e-01 1.358359e-01
    outer loop
      vertex   -6.623231e+00 -8.809012e+00 -1.685615e+00
      vertex   -6.628381e+00 -8.815898e+00 -1.622917e+00
      vertex   -6.540112e+00 -8.868199e+00 -1.685615e+00
    endloop
  endfacet
  facet normal 5.746628e-01 8.070391e-01 1.358331e-01
    outer loop
      vertex   -6.540112e+00 -8.868199e+00 -1.685615e+00
      vertex   -6.628381e+00 -8.815898e+00 -1.622917e+00
      vertex   -6.545200e+00 -8.875129e+00 -1.622917e+00
    endloop
  endfacet
  facet normal 5.672737e-01 8.122538e-01 1.358098e-01
    outer loop
      vertex   -6.540112e+00 -8.868199e+00 -1.685615e+00
      vertex   -6.545200e+00 -8.875129e+00 -1.622917e+00
      vertex   -6.456420e+00 -8.926649e+00 -1.685615e+00
    endloop
  endfacet
  facet normal 5.672724e-01 8.122552e-01 1.358069e-01
    outer loop
      vertex   -6.456420e+00 -8.926649e+00 -1.685615e+00
      vertex   -6.545200e+00 -8.875129e+00 -1.622917e+00
      vertex   -6.461439e+00 -8.933626e+00 -1.622917e+00
    endloop
  endfacet
  facet normal 6.099429e-01 7.815756e-01 1.308025e-01
    outer loop
      vertex   -6.955745e+00 -8.571330e+00 -1.622917e+00
      vertex   -7.000000e+00 -8.536109e+00 -1.627006e+00
      vertex   -6.960947e+00 -8.577753e+00 -1.560284e+00
    endloop
  endfacet
  facet normal 6.123334e-01 7.800908e-01 1.284766e-01
    outer loop
      vertex   -6.960947e+00 -8.577753e+00 -1.560284e+00
      vertex   -7.000000e+00 -8.536109e+00 -1.627006e+00
      vertex   -7.000000e+00 -8.556682e+00 -1.502091e+00
    endloop
  endfacet
  facet normal 6.095435e-01 7.827319e-01 1.256479e-01
    outer loop
      vertex   -6.960947e+00 -8.577753e+00 -1.560284e+00
      vertex   -7.000000e+00 -8.556682e+00 -1.502091e+00
      vertex   -6.965934e+00 -8.583912e+00 -1.497720e+00
    endloop
  endfacet
  facet normal 6.103486e-01 7.829134e-01 1.205037e-01
    outer loop
      vertex   -6.965934e+00 -8.583912e+00 -1.497720e+00
      vertex   -7.000000e+00 -8.556682e+00 -1.502091e+00
      vertex   -6.970709e+00 -8.589808e+00 -1.435228e+00
    endloop
  endfacet
  facet normal 6.050001e-01 7.870565e-01 1.204860e-01
    outer loop
      vertex   -6.965934e+00 -8.583912e+00 -1.497720e+00
      vertex   -6.970709e+00 -8.589808e+00 -1.435228e+00
      vertex   -6.884784e+00 -8.646291e+00 -1.497720e+00
    endloop
  endfacet
  facet normal 6.049995e-01 7.870573e-01 1.204843e-01
    outer loop
      vertex   -6.884784e+00 -8.646291e+00 -1.497720e+00
      vertex   -6.970709e+00 -8.589808e+00 -1.435228e+00
      vertex   -6.889497e+00 -8.652234e+00 -1.435228e+00
    endloop
  endfacet
  facet normal 5.977698e-01 7.925654e-01 1.204629e-01
    outer loop
      vertex   -6.884784e+00 -8.646291e+00 -1.497720e+00
      vertex   -6.889497e+00 -8.652234e+00 -1.435228e+00
      vertex   -6.803084e+00 -8.707911e+00 -1.497720e+00
    endloop
  endfacet
  facet normal 5.977687e-01 7.925666e-01 1.204604e-01
    outer loop
      vertex   -6.803084e+00 -8.707911e+00 -1.497720e+00
      vertex   -6.889497e+00 -8.652234e+00 -1.435228e+00
      vertex   -6.807737e+00 -8.713899e+00 -1.435228e+00
    endloop
  endfacet
  facet normal 5.904952e-01 7.980035e-01 1.204398e-01
    outer loop
      vertex   -6.803084e+00 -8.707911e+00 -1.497720e+00
      vertex   -6.807737e+00 -8.713899e+00 -1.435228e+00
      vertex   -6.720842e+00 -8.768767e+00 -1.497720e+00
    endloop
  endfacet
  facet normal 5.904940e-01 7.980049e-01 1.204368e-01
    outer loop
      vertex   -6.720842e+00 -8.768767e+00 -1.497720e+00
      vertex   -6.807737e+00 -8.713899e+00 -1.435228e+00
      vertex   -6.725437e+00 -8.774798e+00 -1.435228e+00
    endloop
  endfacet
  facet normal 5.831773e-01 8.033704e-01 1.204167e-01
    outer loop
      vertex   -6.720842e+00 -8.768767e+00 -1.497720e+00
      vertex   -6.725437e+00 -8.774798e+00 -1.435228e+00
      vertex   -6.638068e+00 -8.828854e+00 -1.497720e+00
    endloop
  endfacet
  facet normal 6.135581e-01 7.807773e-01 1.180394e-01
    outer loop
      vertex   -7.000000e+00 -8.556682e+00 -1.502091e+00
      vertex   -7.000000e+00 -8.575606e+00 -1.376915e+00
      vertex   -6.970709e+00 -8.589808e+00 -1.435228e+00
    endloop
  endfacet
  facet normal 6.098343e-01 7.840877e-01 1.153627e-01
    outer loop
      vertex   -6.970709e+00 -8.589808e+00 -1.435228e+00
      vertex   -7.000000e+00 -8.575606e+00 -1.376915e+00
      vertex   -6.975271e+00 -8.595443e+00 -1.372810e+00
    endloop
  endfacet
  facet normal 6.053711e-01 7.875408e-01 1.153482e-01
    outer loop
      vertex   -6.970709e+00 -8.589808e+00 -1.435228e+00
      vertex   -6.975271e+00 -8.595443e+00 -1.372810e+00
      vertex   -6.889497e+00 -8.652234e+00 -1.435228e+00
    endloop
  endfacet
  facet normal 6.053704e-01 7.875416e-01 1.153465e-01
    outer loop
      vertex   -6.889497e+00 -8.652234e+00 -1.435228e+00
      vertex   -6.975271e+00 -8.595443e+00 -1.372810e+00
      vertex   -6.894001e+00 -8.657914e+00 -1.372810e+00
    endloop
  endfacet
  facet normal 5.981358e-01 7.930533e-01 1.153261e-01
    outer loop
      vertex   -6.889497e+00 -8.652234e+00 -1.435228e+00
      vertex   -6.894001e+00 -8.657914e+00 -1.372810e+00
      vertex   -6.807737e+00 -8.713899e+00 -1.435228e+00
    endloop
  endfacet
  facet normal 5.981347e-01 7.930544e-01 1.153236e-01
    outer loop
      vertex   -6.807737e+00 -8.713899e+00 -1.435228e+00
      vertex   -6.894001e+00 -8.657914e+00 -1.372810e+00
      vertex   -6.812183e+00 -8.719622e+00 -1.372810e+00
    endloop
  endfacet
  facet normal 5.908564e-01 7.984947e-01 1.153039e-01
    outer loop
      vertex   -6.807737e+00 -8.713899e+00 -1.435228e+00
      vertex   -6.812183e+00 -8.719622e+00 -1.372810e+00
      vertex   -6.725437e+00 -8.774798e+00 -1.435228e+00
    endloop
  endfacet
  facet normal 6.107230e-01 7.841340e-01 1.102326e-01
    outer loop
      vertex   -6.975271e+00 -8.595443e+00 -1.372810e+00
      vertex   -7.000000e+00 -8.575606e+00 -1.376915e+00
      vertex   -6.979622e+00 -8.600818e+00 -1.310468e+00
    endloop
  endfacet
  facet normal 6.154059e-01 7.808389e-01 1.075463e-01
    outer loop
      vertex   -6.979622e+00 -8.600818e+00 -1.310468e+00
      vertex   -7.000000e+00 -8.575606e+00 -1.376915e+00
      vertex   -7.000000e+00 -8.592880e+00 -1.251496e+00
    endloop
  endfacet
  facet normal 6.100923e-01 7.853281e-01 1.051059e-01
    outer loop
      vertex   -6.979622e+00 -8.600818e+00 -1.310468e+00
      vertex   -7.000000e+00 -8.592880e+00 -1.251496e+00
      vertex   -6.983763e+00 -8.605934e+00 -1.248206e+00
    endloop
  endfacet
  facet normal 6.069745e-01 7.896351e-01 8.976824e-02
    outer loop
      vertex   -6.991419e+00 -8.615394e+00 -1.123929e+00
      vertex   -6.994935e+00 -8.619741e+00 -1.061920e+00
      vertex   -6.909939e+00 -8.678026e+00 -1.123929e+00
    endloop
  endfacet
  facet normal 6.069738e-01 7.896359e-01 8.976654e-02
    outer loop
      vertex   -6.909939e+00 -8.678026e+00 -1.123929e+00
      vertex   -6.994935e+00 -8.619741e+00 -1.061920e+00
      vertex   -6.913409e+00 -8.682408e+00 -1.061920e+00
    endloop
  endfacet
  facet normal 5.997172e-01 7.951629e-01 8.975104e-02
    outer loop
      vertex   -6.909939e+00 -8.678026e+00 -1.123929e+00
      vertex   -6.913409e+00 -8.682408e+00 -1.061920e+00
      vertex   -6.827916e+00 -8.739888e+00 -1.123929e+00
    endloop
  endfacet
  facet normal 5.997161e-01 7.951640e-01 8.974850e-02
    outer loop
      vertex   -6.827916e+00 -8.739888e+00 -1.123929e+00
      vertex   -6.913409e+00 -8.682408e+00 -1.061920e+00
      vertex   -6.831340e+00 -8.744304e+00 -1.061920e+00
    endloop
  endfacet
  facet normal 5.924166e-01 8.006188e-01 8.973380e-02
    outer loop
      vertex   -6.827916e+00 -8.739888e+00 -1.123929e+00
      vertex   -6.831340e+00 -8.744304e+00 -1.061920e+00
      vertex   -6.745361e+00 -8.800975e+00 -1.123929e+00
    endloop
  endfacet
  facet normal 5.924152e-01 8.006201e-01 8.973074e-02
    outer loop
      vertex   -6.745361e+00 -8.800975e+00 -1.123929e+00
      vertex   -6.831340e+00 -8.744304e+00 -1.061920e+00
      vertex   -6.748742e+00 -8.805423e+00 -1.061920e+00
    endloop
  endfacet
  facet normal 5.850735e-01 8.060025e-01 8.971650e-02
    outer loop
      vertex   -6.745361e+00 -8.800975e+00 -1.123929e+00
      vertex   -6.748742e+00 -8.805423e+00 -1.061920e+00
      vertex   -6.662284e+00 -8.861280e+00 -1.123929e+00
    endloop
  endfacet
  facet normal 5.850721e-01 8.060038e-01 8.971330e-02
    outer loop
      vertex   -6.662284e+00 -8.861280e+00 -1.123929e+00
      vertex   -6.748742e+00 -8.805423e+00 -1.061920e+00
      vertex   -6.665624e+00 -8.865757e+00 -1.061920e+00
    endloop
  endfacet
  facet normal 5.776890e-01 8.113135e-01 8.969912e-02
    outer loop
      vertex   -6.662284e+00 -8.861280e+00 -1.123929e+00
      vertex   -6.665624e+00 -8.865757e+00 -1.061920e+00
      vertex   -6.578698e+00 -8.920797e+00 -1.123929e+00
    endloop
  endfacet
  facet normal 6.057253e-01 7.880032e-01 1.102174e-01
    outer loop
      vertex   -6.894001e+00 -8.657914e+00 -1.372810e+00
      vertex   -6.975271e+00 -8.595443e+00 -1.372810e+00
      vertex   -6.979622e+00 -8.600818e+00 -1.310468e+00
    endloop
  endfacet
  facet normal 6.057246e-01 7.880040e-01 1.102157e-01
    outer loop
      vertex   -6.894001e+00 -8.657914e+00 -1.372810e+00
      vertex   -6.979622e+00 -8.600818e+00 -1.310468e+00
      vertex   -6.898296e+00 -8.663332e+00 -1.310468e+00
    endloop
  endfacet
  facet normal 6.060626e-01 7.884437e-01 1.050939e-01
    outer loop
      vertex   -6.898296e+00 -8.663332e+00 -1.310468e+00
      vertex   -6.979622e+00 -8.600818e+00 -1.310468e+00
      vertex   -6.983763e+00 -8.605934e+00 -1.248206e+00
    endloop
  endfacet
  facet normal 6.042071e-01 7.860215e-01 1.307821e-01
    outer loop
      vertex   -6.874724e+00 -8.633610e+00 -1.622917e+00
      vertex   -6.955745e+00 -8.571330e+00 -1.622917e+00
      vertex   -6.960947e+00 -8.577753e+00 -1.560284e+00
    endloop
  endfacet
  facet normal 6.046122e-01 7.865501e-01 1.256307e-01
    outer loop
      vertex   -6.960947e+00 -8.577753e+00 -1.560284e+00
      vertex   -6.965934e+00 -8.583912e+00 -1.497720e+00
      vertex   -6.879860e+00 -8.640083e+00 -1.560284e+00
    endloop
  endfacet
  facet normal 6.046115e-01 7.865509e-01 1.256290e-01
    outer loop
      vertex   -6.879860e+00 -8.640083e+00 -1.560284e+00
      vertex   -6.965934e+00 -8.583912e+00 -1.497720e+00
      vertex   -6.884784e+00 -8.646291e+00 -1.497720e+00
    endloop
  endfacet
  facet normal 5.973870e-01 7.920554e-01 1.256066e-01
    outer loop
      vertex   -6.879860e+00 -8.640083e+00 -1.560284e+00
      vertex   -6.884784e+00 -8.646291e+00 -1.497720e+00
      vertex   -6.798222e+00 -8.701656e+00 -1.560284e+00
    endloop
  endfacet
  facet normal 5.973860e-01 7.920566e-01 1.256041e-01
    outer loop
      vertex   -6.798222e+00 -8.701656e+00 -1.560284e+00
      vertex   -6.884784e+00 -8.646291e+00 -1.497720e+00
      vertex   -6.803084e+00 -8.707911e+00 -1.497720e+00
    endloop
  endfacet
  facet normal 5.901175e-01 7.974900e-01 1.255825e-01
    outer loop
      vertex   -6.798222e+00 -8.701656e+00 -1.560284e+00
      vertex   -6.803084e+00 -8.707911e+00 -1.497720e+00
      vertex   -6.716042e+00 -8.762467e+00 -1.560284e+00
    endloop
  endfacet
  facet normal 5.901163e-01 7.974914e-01 1.255796e-01
    outer loop
      vertex   -6.716042e+00 -8.762467e+00 -1.560284e+00
      vertex   -6.803084e+00 -8.707911e+00 -1.497720e+00
      vertex   -6.720842e+00 -8.768767e+00 -1.497720e+00
    endloop
  endfacet
  facet normal 5.828045e-01 8.028536e-01 1.255584e-01
    outer loop
      vertex   -6.716042e+00 -8.762467e+00 -1.560284e+00
      vertex   -6.720842e+00 -8.768767e+00 -1.497720e+00
      vertex   -6.633327e+00 -8.822511e+00 -1.560284e+00
    endloop
  endfacet
  facet normal 5.828032e-01 8.028551e-01 1.255553e-01
    outer loop
      vertex   -6.633327e+00 -8.822511e+00 -1.560284e+00
      vertex   -6.720842e+00 -8.768767e+00 -1.497720e+00
      vertex   -6.638068e+00 -8.828854e+00 -1.497720e+00
    endloop
  endfacet
  facet normal 5.754488e-01 8.081459e-01 1.255343e-01
    outer loop
      vertex   -6.633327e+00 -8.822511e+00 -1.560284e+00
      vertex   -6.638068e+00 -8.828854e+00 -1.497720e+00
      vertex   -6.550085e+00 -8.881784e+00 -1.560284e+00
    endloop
  endfacet
  facet normal 6.024148e-01 7.836830e-01 1.514508e-01
    outer loop
      vertex   -6.852049e+00 -8.605038e+00 -1.874079e+00
      vertex   -6.932781e+00 -8.542980e+00 -1.874079e+00
      vertex   -6.938847e+00 -8.550469e+00 -1.811199e+00
    endloop
  endfacet
  facet normal 6.028889e-01 7.843015e-01 1.462745e-01
    outer loop
      vertex   -6.938847e+00 -8.550469e+00 -1.811199e+00
      vertex   -6.944696e+00 -8.557689e+00 -1.748377e+00
      vertex   -6.858040e+00 -8.612585e+00 -1.811199e+00
    endloop
  endfacet
  facet normal 6.028882e-01 7.843023e-01 1.462729e-01
    outer loop
      vertex   -6.858040e+00 -8.612585e+00 -1.811199e+00
      vertex   -6.944696e+00 -8.557689e+00 -1.748377e+00
      vertex   -6.863815e+00 -8.619862e+00 -1.748377e+00
    endloop
  endfacet
  facet normal 5.956866e-01 7.897907e-01 1.462466e-01
    outer loop
      vertex   -6.858040e+00 -8.612585e+00 -1.811199e+00
      vertex   -6.863815e+00 -8.619862e+00 -1.748377e+00
      vertex   -6.776677e+00 -8.673951e+00 -1.811199e+00
    endloop
  endfacet
  facet normal 5.956856e-01 7.897919e-01 1.462441e-01
    outer loop
      vertex   -6.776677e+00 -8.673951e+00 -1.811199e+00
      vertex   -6.863815e+00 -8.619862e+00 -1.748377e+00
      vertex   -6.782380e+00 -8.681283e+00 -1.748377e+00
    endloop
  endfacet
  facet normal 5.884396e-01 7.952100e-01 1.462187e-01
    outer loop
      vertex   -6.776677e+00 -8.673951e+00 -1.811199e+00
      vertex   -6.782380e+00 -8.681283e+00 -1.748377e+00
      vertex   -6.694766e+00 -8.734564e+00 -1.811199e+00
    endloop
  endfacet
  facet normal 5.884384e-01 7.952114e-01 1.462157e-01
    outer loop
      vertex   -6.694766e+00 -8.734564e+00 -1.811199e+00
      vertex   -6.782380e+00 -8.681283e+00 -1.748377e+00
      vertex   -6.700398e+00 -8.741948e+00 -1.748377e+00
    endloop
  endfacet
  facet normal 5.811484e-01 8.005590e-01 1.461907e-01
    outer loop
      vertex   -6.694766e+00 -8.734564e+00 -1.811199e+00
      vertex   -6.700398e+00 -8.741948e+00 -1.748377e+00
      vertex   -6.612313e+00 -8.794419e+00 -1.811199e+00
    endloop
  endfacet
  facet normal 5.811471e-01 8.005605e-01 1.461877e-01
    outer loop
      vertex   -6.612313e+00 -8.794419e+00 -1.811199e+00
      vertex   -6.700398e+00 -8.741948e+00 -1.748377e+00
      vertex   -6.617876e+00 -8.801853e+00 -1.748377e+00
    endloop
  endfacet
  facet normal 5.738137e-01 8.058376e-01 1.461628e-01
    outer loop
      vertex   -6.612313e+00 -8.794419e+00 -1.811199e+00
      vertex   -6.617876e+00 -8.801853e+00 -1.748377e+00
      vertex   -6.529325e+00 -8.853512e+00 -1.811199e+00
    endloop
  endfacet
  facet normal 5.738125e-01 8.058390e-01 1.461600e-01
    outer loop
      vertex   -6.529325e+00 -8.853512e+00 -1.811199e+00
      vertex   -6.617876e+00 -8.801853e+00 -1.748377e+00
      vertex   -6.534821e+00 -8.860994e+00 -1.748377e+00
    endloop
  endfacet
  facet normal 5.664348e-01 8.110464e-01 1.461348e-01
    outer loop
      vertex   -6.529325e+00 -8.853512e+00 -1.811199e+00
      vertex   -6.534821e+00 -8.860994e+00 -1.748377e+00
      vertex   -6.445780e+00 -8.911860e+00 -1.811199e+00
    endloop
  endfacet
  facet normal 5.664336e-01 8.110477e-01 1.461319e-01
    outer loop
      vertex   -6.445780e+00 -8.911860e+00 -1.811199e+00
      vertex   -6.534821e+00 -8.860994e+00 -1.748377e+00
      vertex   -6.451201e+00 -8.919393e+00 -1.748377e+00
    endloop
  endfacet
  facet normal 5.994327e-01 7.947856e-01 9.484839e-02
    outer loop
      vertex   -6.827916e+00 -8.739888e+00 -1.123929e+00
      vertex   -6.824289e+00 -8.735213e+00 -1.186025e+00
      vertex   -6.909939e+00 -8.678026e+00 -1.123929e+00
    endloop
  endfacet
  facet normal 5.994338e-01 7.947845e-01 9.485092e-02
    outer loop
      vertex   -6.909939e+00 -8.678026e+00 -1.123929e+00
      vertex   -6.824289e+00 -8.735213e+00 -1.186025e+00
      vertex   -6.906264e+00 -8.673387e+00 -1.186025e+00
    endloop
  endfacet
  facet normal 6.066864e-01 7.892603e-01 9.486741e-02
    outer loop
      vertex   -6.909939e+00 -8.678026e+00 -1.123929e+00
      vertex   -6.906264e+00 -8.673387e+00 -1.186025e+00
      vertex   -6.991419e+00 -8.615394e+00 -1.123929e+00
    endloop
  endfacet
  facet normal 5.991329e-01 7.943856e-01 9.995601e-02
    outer loop
      vertex   -6.906264e+00 -8.673387e+00 -1.186025e+00
      vertex   -6.824289e+00 -8.735213e+00 -1.186025e+00
      vertex   -6.820458e+00 -8.730278e+00 -1.248206e+00
    endloop
  endfacet
  facet normal 5.918412e-01 7.998350e-01 9.993933e-02
    outer loop
      vertex   -6.820458e+00 -8.730278e+00 -1.248206e+00
      vertex   -6.824289e+00 -8.735213e+00 -1.186025e+00
      vertex   -6.737998e+00 -8.791295e+00 -1.248206e+00
    endloop
  endfacet
  facet normal 5.915280e-01 7.994117e-01 1.050505e-01
    outer loop
      vertex   -6.820458e+00 -8.730278e+00 -1.248206e+00
      vertex   -6.737998e+00 -8.791295e+00 -1.248206e+00
      vertex   -6.734014e+00 -8.786061e+00 -1.310468e+00
    endloop
  endfacet
  facet normal 5.841978e-01 8.047862e-01 1.050333e-01
    outer loop
      vertex   -6.734014e+00 -8.786061e+00 -1.310468e+00
      vertex   -6.737998e+00 -8.791295e+00 -1.248206e+00
      vertex   -6.651078e+00 -8.846265e+00 -1.310468e+00
    endloop
  endfacet
  facet normal 5.838725e-01 8.043381e-01 1.101508e-01
    outer loop
      vertex   -6.734014e+00 -8.786061e+00 -1.310468e+00
      vertex   -6.651078e+00 -8.846265e+00 -1.310468e+00
      vertex   -6.646943e+00 -8.840729e+00 -1.372810e+00
    endloop
  endfacet
  facet normal 5.765045e-01 8.096378e-01 1.101327e-01
    outer loop
      vertex   -6.646943e+00 -8.840729e+00 -1.372810e+00
      vertex   -6.651078e+00 -8.846265e+00 -1.310468e+00
      vertex   -6.563538e+00 -8.900118e+00 -1.372810e+00
    endloop
  endfacet
  facet normal 5.761674e-01 8.091644e-01 1.152567e-01
    outer loop
      vertex   -6.646943e+00 -8.840729e+00 -1.372810e+00
      vertex   -6.563538e+00 -8.900118e+00 -1.372810e+00
      vertex   -6.559254e+00 -8.894278e+00 -1.435228e+00
    endloop
  endfacet
  facet normal 5.921370e-01 8.002378e-01 9.483270e-02
    outer loop
      vertex   -6.824289e+00 -8.735213e+00 -1.186025e+00
      vertex   -6.827916e+00 -8.739888e+00 -1.123929e+00
      vertex   -6.741780e+00 -8.796266e+00 -1.186025e+00
    endloop
  endfacet
  facet normal 5.921356e-01 8.002392e-01 9.482965e-02
    outer loop
      vertex   -6.741780e+00 -8.796266e+00 -1.186025e+00
      vertex   -6.827916e+00 -8.739888e+00 -1.123929e+00
      vertex   -6.745361e+00 -8.800975e+00 -1.123929e+00
    endloop
  endfacet
  facet normal 5.847976e-01 8.056190e-01 9.481442e-02
    outer loop
      vertex   -6.741780e+00 -8.796266e+00 -1.186025e+00
      vertex   -6.745361e+00 -8.800975e+00 -1.123929e+00
      vertex   -6.658748e+00 -8.856539e+00 -1.186025e+00
    endloop
  endfacet
  facet normal 5.847962e-01 8.056204e-01 9.481123e-02
    outer loop
      vertex   -6.658748e+00 -8.856539e+00 -1.186025e+00
      vertex   -6.745361e+00 -8.800975e+00 -1.123929e+00
      vertex   -6.662284e+00 -8.861280e+00 -1.123929e+00
    endloop
  endfacet
  facet normal 5.774165e-01 8.109278e-01 9.479607e-02
    outer loop
      vertex   -6.658748e+00 -8.856539e+00 -1.186025e+00
      vertex   -6.662284e+00 -8.861280e+00 -1.123929e+00
      vertex   -6.575203e+00 -8.916027e+00 -1.186025e+00
    endloop
  endfacet
  facet normal 5.774152e-01 8.109290e-01 9.479317e-02
    outer loop
      vertex   -6.575203e+00 -8.916027e+00 -1.186025e+00
      vertex   -6.662284e+00 -8.861280e+00 -1.123929e+00
      vertex   -6.578698e+00 -8.920797e+00 -1.123929e+00
    endloop
  endfacet
  facet normal 5.984851e-01 7.935190e-01 1.101963e-01
    outer loop
      vertex   -6.894001e+00 -8.657914e+00 -1.372810e+00
      vertex   -6.898296e+00 -8.663332e+00 -1.310468e+00
      vertex   -6.812183e+00 -8.719622e+00 -1.372810e+00
    endloop
  endfacet
  facet normal 5.969864e-01 7.915242e-01 1.307546e-01
    outer loop
      vertex   -6.798222e+00 -8.701656e+00 -1.560284e+00
      vertex   -6.793152e+00 -8.695134e+00 -1.622917e+00
      vertex   -6.879860e+00 -8.640083e+00 -1.560284e+00
    endloop
  endfacet
  facet normal 5.969874e-01 7.915230e-01 1.307570e-01
    outer loop
      vertex   -6.879860e+00 -8.640083e+00 -1.560284e+00
      vertex   -6.793152e+00 -8.695134e+00 -1.622917e+00
      vertex   -6.874724e+00 -8.633610e+00 -1.622917e+00
    endloop
  endfacet
  facet normal 6.042065e-01 7.860223e-01 1.307804e-01
    outer loop
      vertex   -6.879860e+00 -8.640083e+00 -1.560284e+00
      vertex   -6.874724e+00 -8.633610e+00 -1.622917e+00
      vertex   -6.960947e+00 -8.577753e+00 -1.560284e+00
    endloop
  endfacet
  facet normal 5.897232e-01 7.969540e-01 1.307320e-01
    outer loop
      vertex   -6.793152e+00 -8.695134e+00 -1.622917e+00
      vertex   -6.798222e+00 -8.701656e+00 -1.560284e+00
      vertex   -6.711035e+00 -8.755898e+00 -1.622917e+00
    endloop
  endfacet
  facet normal 5.897220e-01 7.969554e-01 1.307290e-01
    outer loop
      vertex   -6.711035e+00 -8.755898e+00 -1.622917e+00
      vertex   -6.798222e+00 -8.701656e+00 -1.560284e+00
      vertex   -6.716042e+00 -8.762467e+00 -1.560284e+00
    endloop
  endfacet
  facet normal 5.824154e-01 8.023142e-01 1.307069e-01
    outer loop
      vertex   -6.711035e+00 -8.755898e+00 -1.622917e+00
      vertex   -6.716042e+00 -8.762467e+00 -1.560284e+00
      vertex   -6.628381e+00 -8.815898e+00 -1.622917e+00
    endloop
  endfacet
  facet normal 5.824140e-01 8.023157e-01 1.307038e-01
    outer loop
      vertex   -6.628381e+00 -8.815898e+00 -1.622917e+00
      vertex   -6.716042e+00 -8.762467e+00 -1.560284e+00
      vertex   -6.633327e+00 -8.822511e+00 -1.560284e+00
    endloop
  endfacet
  facet normal 5.750645e-01 8.076033e-01 1.306818e-01
    outer loop
      vertex   -6.628381e+00 -8.815898e+00 -1.622917e+00
      vertex   -6.633327e+00 -8.822511e+00 -1.560284e+00
      vertex   -6.545200e+00 -8.875129e+00 -1.622917e+00
    endloop
  endfacet
  facet normal 5.750633e-01 8.076046e-01 1.306790e-01
    outer loop
      vertex   -6.545200e+00 -8.875129e+00 -1.622917e+00
      vertex   -6.633327e+00 -8.822511e+00 -1.560284e+00
      vertex   -6.550085e+00 -8.881784e+00 -1.560284e+00
    endloop
  endfacet
  facet normal 5.676688e-01 8.128228e-01 1.306567e-01
    outer loop
      vertex   -6.545200e+00 -8.875129e+00 -1.622917e+00
      vertex   -6.550085e+00 -8.881784e+00 -1.560284e+00
      vertex   -6.461439e+00 -8.933626e+00 -1.622917e+00
    endloop
  endfacet
  facet normal 5.676676e-01 8.128242e-01 1.306538e-01
    outer loop
      vertex   -6.461439e+00 -8.933626e+00 -1.622917e+00
      vertex   -6.550085e+00 -8.881784e+00 -1.560284e+00
      vertex   -6.466258e+00 -8.940328e+00 -1.560284e+00
    endloop
  endfacet
  facet normal 5.952178e-01 7.891691e-01 1.514195e-01
    outer loop
      vertex   -6.776677e+00 -8.673951e+00 -1.811199e+00
      vertex   -6.770762e+00 -8.666348e+00 -1.874079e+00
      vertex   -6.858040e+00 -8.612585e+00 -1.811199e+00
    endloop
  endfacet
  facet normal 5.952188e-01 7.891679e-01 1.514219e-01
    outer loop
      vertex   -6.858040e+00 -8.612585e+00 -1.811199e+00
      vertex   -6.770762e+00 -8.666348e+00 -1.874079e+00
      vertex   -6.852049e+00 -8.605038e+00 -1.874079e+00
    endloop
  endfacet
  facet normal 6.024141e-01 7.836839e-01 1.514492e-01
    outer loop
      vertex   -6.858040e+00 -8.612585e+00 -1.811199e+00
      vertex   -6.852049e+00 -8.605038e+00 -1.874079e+00
      vertex   -6.938847e+00 -8.550469e+00 -1.811199e+00
    endloop
  endfacet
  facet normal 5.879779e-01 7.945830e-01 1.513931e-01
    outer loop
      vertex   -6.770762e+00 -8.666348e+00 -1.874079e+00
      vertex   -6.776677e+00 -8.673951e+00 -1.811199e+00
      vertex   -6.688924e+00 -8.726906e+00 -1.874079e+00
    endloop
  endfacet
  facet normal 5.879767e-01 7.945844e-01 1.513901e-01
    outer loop
      vertex   -6.688924e+00 -8.726906e+00 -1.874079e+00
      vertex   -6.776677e+00 -8.673951e+00 -1.811199e+00
      vertex   -6.694766e+00 -8.734564e+00 -1.811199e+00
    endloop
  endfacet
  facet normal 5.806927e-01 7.999280e-01 1.513642e-01
    outer loop
      vertex   -6.688924e+00 -8.726906e+00 -1.874079e+00
      vertex   -6.694766e+00 -8.734564e+00 -1.811199e+00
      vertex   -6.606544e+00 -8.786709e+00 -1.874079e+00
    endloop
  endfacet
  facet normal 5.806914e-01 7.999295e-01 1.513611e-01
    outer loop
      vertex   -6.606544e+00 -8.786709e+00 -1.874079e+00
      vertex   -6.694766e+00 -8.734564e+00 -1.811199e+00
      vertex   -6.612313e+00 -8.794419e+00 -1.811199e+00
    endloop
  endfacet
  facet normal 5.733638e-01 8.052028e-01 1.513353e-01
    outer loop
      vertex   -6.606544e+00 -8.786709e+00 -1.874079e+00
      vertex   -6.612313e+00 -8.794419e+00 -1.811199e+00
      vertex   -6.523626e+00 -8.845753e+00 -1.874079e+00
    endloop
  endfacet
  facet normal 5.733627e-01 8.052042e-01 1.513325e-01
    outer loop
      vertex   -6.523626e+00 -8.845753e+00 -1.874079e+00
      vertex   -6.612313e+00 -8.794419e+00 -1.811199e+00
      vertex   -6.529325e+00 -8.853512e+00 -1.811199e+00
    endloop
  endfacet
  facet normal 5.659910e-01 8.104077e-01 1.513064e-01
    outer loop
      vertex   -6.523626e+00 -8.845753e+00 -1.874079e+00
      vertex   -6.529325e+00 -8.853512e+00 -1.811199e+00
      vertex   -6.440158e+00 -8.904047e+00 -1.874079e+00
    endloop
  endfacet
  facet normal 5.659897e-01 8.104091e-01 1.513035e-01
    outer loop
      vertex   -6.440158e+00 -8.904047e+00 -1.874079e+00
      vertex   -6.529325e+00 -8.853512e+00 -1.811199e+00
      vertex   -6.445780e+00 -8.911860e+00 -1.811199e+00
    endloop
  endfacet
  facet normal 5.918399e-01 7.998364e-01 9.993629e-02
    outer loop
      vertex   -6.824289e+00 -8.735213e+00 -1.186025e+00
      vertex   -6.741780e+00 -8.796266e+00 -1.186025e+00
      vertex   -6.737998e+00 -8.791295e+00 -1.248206e+00
    endloop
  endfacet
  facet normal 5.845057e-01 8.052137e-01 9.992008e-02
    outer loop
      vertex   -6.737998e+00 -8.791295e+00 -1.248206e+00
      vertex   -6.741780e+00 -8.796266e+00 -1.186025e+00
      vertex   -6.655012e+00 -8.851535e+00 -1.248206e+00
    endloop
  endfacet
  facet normal 5.841965e-01 8.047877e-01 1.050301e-01
    outer loop
      vertex   -6.737998e+00 -8.791295e+00 -1.248206e+00
      vertex   -6.655012e+00 -8.851535e+00 -1.248206e+00
      vertex   -6.651078e+00 -8.846265e+00 -1.310468e+00
    endloop
  endfacet
  facet normal 5.768244e-01 8.100901e-01 1.050130e-01
    outer loop
      vertex   -6.651078e+00 -8.846265e+00 -1.310468e+00
      vertex   -6.655012e+00 -8.851535e+00 -1.248206e+00
      vertex   -6.567624e+00 -8.905688e+00 -1.310468e+00
    endloop
  endfacet
  facet normal 5.765033e-01 8.096391e-01 1.101298e-01
    outer loop
      vertex   -6.651078e+00 -8.846265e+00 -1.310468e+00
      vertex   -6.567624e+00 -8.905688e+00 -1.310468e+00
      vertex   -6.563538e+00 -8.900118e+00 -1.372810e+00
    endloop
  endfacet
  facet normal 5.845043e-01 8.052151e-01 9.991690e-02
    outer loop
      vertex   -6.655012e+00 -8.851535e+00 -1.248206e+00
      vertex   -6.741780e+00 -8.796266e+00 -1.186025e+00
      vertex   -6.658748e+00 -8.856539e+00 -1.186025e+00
    endloop
  endfacet
  facet normal 5.771271e-01 8.105213e-01 9.989786e-02
    outer loop
      vertex   -6.575203e+00 -8.916027e+00 -1.186025e+00
      vertex   -6.571512e+00 -8.910991e+00 -1.248206e+00
      vertex   -6.658748e+00 -8.856539e+00 -1.186025e+00
    endloop
  endfacet
  facet normal 5.771284e-01 8.105200e-01 9.990076e-02
    outer loop
      vertex   -6.658748e+00 -8.856539e+00 -1.186025e+00
      vertex   -6.571512e+00 -8.910991e+00 -1.248206e+00
      vertex   -6.655012e+00 -8.851535e+00 -1.248206e+00
    endloop
  endfacet
  facet normal 5.768231e-01 8.100913e-01 1.050101e-01
    outer loop
      vertex   -6.571512e+00 -8.910991e+00 -1.248206e+00
      vertex   -6.567624e+00 -8.905688e+00 -1.310468e+00
      vertex   -6.655012e+00 -8.851535e+00 -1.248206e+00
    endloop
  endfacet
  facet normal -6.058211e-01 -7.794897e-01 -1.593006e-01
    outer loop
      vertex   -7.000000e+00 -8.979662e+00 -2.000000e+00
      vertex   -6.973832e+00 -9.000000e+00 -2.000000e+00
      vertex   -7.000000e+00 -9.000000e+00 -1.900483e+00
    endloop
  endfacet
  facet normal -1.000000e+00 -0.000000e+00 -0.000000e+00
    outer loop
      vertex   -7.000000e+00 -8.622471e+00 -1.000000e+00
      vertex   -7.000000e+00 -8.608503e+00 -1.125851e+00
      vertex   -7.000000e+00 -9.000000e+00 -1.000000e+00
    endloop
  endfacet
  facet normal -1.000000e+00 0.000000e+00 0.000000e+00
    outer loop
      vertex   -7.000000e+00 -9.000000e+00 -1.000000e+00
      vertex   -7.000000e+00 -8.608503e+00 -1.125851e+00
      vertex   -7.000000e+00 -8.592880e+00 -1.251496e+00
    endloop
  endfacet
  facet normal -1.000000e+00 0.000000e+00 0.000000e+00
    outer loop
      vertex   -7.000000e+00 -9.000000e+00 -1.000000e+00
      vertex   -7.000000e+00 -8.592880e+00 -1.251496e+00
      vertex   -7.000000e+00 -8.575606e+00 -1.376915e+00
    endloop
  endfacet
  facet normal -1.000000e+00 0.000000e+00 0.000000e+00
    outer loop
      vertex   -7.000000e+00 -9.000000e+00 -1.000000e+00
      vertex   -7.000000e+00 -8.575606e+00 -1.376915e+00
      vertex   -7.000000e+00 -9.000000e+00 -1.900483e+00
    endloop
  endfacet
  facet normal -1.000000e+00 0.000000e+00 0.000000e+00
    outer loop
      vertex   -7.000000e+00 -9.000000e+00 -1.900483e+00
      vertex   -7.000000e+00 -8.575606e+00 -1.376915e+00
      vertex   -7.000000e+00 -8.556682e+00 -1.502091e+00
    endloop
  endfacet
  facet normal -1.000000e+00 0.000000e+00 0.000000e+00
    outer loop
      vertex   -7.000000e+00 -9.000000e+00 -1.900483e+00
      vertex   -7.000000e+00 -8.556682e+00 -1.502091e+00
      vertex   -7.000000e+00 -8.536109e+00 -1.627006e+00
    endloop
  endfacet
  facet normal -1.000000e+00 0.000000e+00 0.000000e+00
    outer loop
      vertex   -7.000000e+00 -9.000000e+00 -1.900483e+00
      vertex   -7.000000e+00 -8.536109e+00 -1.627006e+00
      vertex   -7.000000e+00 -8.979662e+00 -2.000000e+00
    endloop
  endfacet
  facet normal -1.000000e+00 0.000000e+00 0.000000e+00
    outer loop
      vertex   -7.000000e+00 -8.979662e+00 -2.000000e+00
      vertex   -7.000000e+00 -8.536109e+00 -1.627006e+00
      vertex   -7.000000e+00 -8.513890e+00 -1.751641e+00
    endloop
  endfacet
  facet normal -1.000000e+00 0.000000e+00 0.000000e+00
    outer loop
      vertex   -7.000000e+00 -8.979662e+00 -2.000000e+00
      vertex   -7.000000e+00 -8.513890e+00 -1.751641e+00
      vertex   -7.000000e+00 -8.490025e+00 -1.875979e+00
    endloop
  endfacet
  facet normal -1.000000e+00 0.000000e+00 -0.000000e+00
    outer loop
      vertex   -7.000000e+00 -8.490025e+00 -1.875979e+00
      vertex   -7.000000e+00 -8.464518e+00 -2.000000e+00
      vertex   -7.000000e+00 -8.979662e+00 -2.000000e+00
    endloop
  endfacet
  facet normal 2.251214e-08 0.000000e+00 -1.000000e+00
    outer loop
      vertex   -7.000000e+00 -8.464518e+00 -2.000000e+00
      vertex   -6.919992e+00 -8.527194e+00 -2.000000e+00
      vertex   -7.000000e+00 -8.979662e+00 -2.000000e+00
    endloop
  endfacet
  facet normal 5.457663e-08 -5.669848e-09 -1.000000e+00
    outer loop
      vertex   -7.000000e+00 -8.979662e+00 -2.000000e+00
      vertex   -6.919992e+00 -8.527194e+00 -2.000000e+00
      vertex   -6.839420e+00 -8.589130e+00 -2.000000e+00
    endloop
  endfacet
  facet normal 7.281592e-08 -1.316952e-08 -1.000000e+00
    outer loop
      vertex   -7.000000e+00 -8.979662e+00 -2.000000e+00
      vertex   -6.839420e+00 -8.589130e+00 -2.000000e+00
      vertex   -6.758290e+00 -8.650321e+00 -2.000000e+00
    endloop
  endfacet
  facet normal 8.036942e-08 -1.871319e-08 -1.000000e+00
    outer loop
      vertex   -6.758290e+00 -8.650321e+00 -2.000000e+00
      vertex   -6.676608e+00 -8.710765e+00 -2.000000e+00
      vertex   -7.000000e+00 -8.979662e+00 -2.000000e+00
    endloop
  endfacet
  facet normal 3.131127e-08 4.028716e-08 -1.000000e+00
    outer loop
      vertex   -7.000000e+00 -8.979662e+00 -2.000000e+00
      vertex   -6.676608e+00 -8.710765e+00 -2.000000e+00
      vertex   -6.973832e+00 -9.000000e+00 -2.000000e+00
    endloop
  endfacet
  facet normal 8.373145e-08 -1.358099e-08 -1.000000e+00
    outer loop
      vertex   -6.973832e+00 -9.000000e+00 -2.000000e+00
      vertex   -6.676608e+00 -8.710765e+00 -2.000000e+00
      vertex   -6.594379e+00 -8.770458e+00 -2.000000e+00
    endloop
  endfacet
  facet normal -1.978246e-08 1.575369e-07 -1.000000e+00
    outer loop
      vertex   -6.973832e+00 -9.000000e+00 -2.000000e+00
      vertex   -6.594379e+00 -8.770458e+00 -2.000000e+00
      vertex   -6.535842e+00 -8.945000e+00 -2.000000e+00
    endloop
  endfacet
  facet normal 2.601366e-07 2.514156e-07 -1.000000e+00
    outer loop
      vertex   -6.535842e+00 -8.945000e+00 -2.000000e+00
      vertex   -6.594379e+00 -8.770458e+00 -2.000000e+00
      vertex   -6.511609e+00 -8.829397e+00 -2.000000e+00
    endloop
  endfacet
  facet normal 2.361091e-07 2.564523e-07 -1.000000e+00
    outer loop
      vertex   -6.535842e+00 -8.945000e+00 -2.000000e+00
      vertex   -6.511609e+00 -8.829397e+00 -2.000000e+00
      vertex   -6.428303e+00 -8.887579e+00 -2.000000e+00
    endloop
  endfacet
  facet normal 2.190347e-07 2.884294e-07 -1.000000e+00
    outer loop
      vertex   -6.428303e+00 -8.887579e+00 -2.000000e+00
      vertex   -6.344466e+00 -8.945000e+00 -2.000000e+00
      vertex   -6.535842e+00 -8.945000e+00 -2.000000e+00
    endloop
  endfacet
  facet normal 0.000000e+00 -0.000000e+00 -1.000000e+00
    outer loop
      vertex   -6.535842e+00 -8.945000e+00 -2.000000e+00
      vertex   -6.535085e+00 -9.000000e+00 -2.000000e+00
      vertex   -6.973832e+00 -9.000000e+00 -2.000000e+00
    endloop
  endfacet
  facet normal 1.216890e-07 1.232874e-07 1.000000e+00
    outer loop
      vertex   -6.563132e+00 -8.945000e+00 -1.000000e+00
      vertex   -6.673797e+00 -8.866356e+00 -1.000000e+00
      vertex   -6.761451e+00 -8.945000e+00 -1.000000e+00
    endloop
  endfacet
  facet normal 1.458555e-07 9.635197e-08 1.000000e+00
    outer loop
      vertex   -6.761451e+00 -8.945000e+00 -1.000000e+00
      vertex   -6.673797e+00 -8.866356e+00 -1.000000e+00
      vertex   -6.783505e+00 -8.786381e+00 -1.000000e+00
    endloop
  endfacet
  facet normal -1.699474e-08 7.371039e-08 1.000000e+00
    outer loop
      vertex   -6.761451e+00 -8.945000e+00 -1.000000e+00
      vertex   -6.783505e+00 -8.786381e+00 -1.000000e+00
      vertex   -7.000000e+00 -9.000000e+00 -1.000000e+00
    endloop
  endfacet
  facet normal 6.743041e-08 -1.185165e-08 1.000000e+00
    outer loop
      vertex   -7.000000e+00 -9.000000e+00 -1.000000e+00
      vertex   -6.783505e+00 -8.786381e+00 -1.000000e+00
      vertex   -6.892243e+00 -8.705084e+00 -1.000000e+00
    endloop
  endfacet
  facet normal 3.499392e-08 -0.000000e+00 1.000000e+00
    outer loop
      vertex   -7.000000e+00 -9.000000e+00 -1.000000e+00
      vertex   -6.892243e+00 -8.705084e+00 -1.000000e+00
      vertex   -7.000000e+00 -8.622471e+00 -1.000000e+00
    endloop
  endfacet
  facet normal 0.000000e+00 0.000000e+00 1.000000e+00
    outer loop
      vertex   -7.000000e+00 -9.000000e+00 -1.000000e+00
      vertex   -6.760720e+00 -9.000000e+00 -1.000000e+00
      vertex   -6.761451e+00 -8.945000e+00 -1.000000e+00
    endloop
  endfacet
  facet normal 0.000000e+00 -1.000000e+00 2.891563e-14
    outer loop
      vertex   -6.535085e+00 -9.000000e+00 -2.000000e+00
      vertex   -6.553571e+00 -9.000000e+00 -1.938568e+00
      vertex   -6.973832e+00 -9.000000e+00 -2.000000e+00
    endloop
  endfacet
  facet normal 8.098352e-15 -1.000000e+00 -2.648548e-14
    outer loop
      vertex   -6.973832e+00 -9.000000e+00 -2.000000e+00
      vertex   -6.553571e+00 -9.000000e+00 -1.938568e+00
      vertex   -6.571477e+00 -9.000000e+00 -1.876973e+00
    endloop
  endfacet
  facet normal 0.000000e+00 -1.000000e+00 0.000000e+00
    outer loop
      vertex   -6.973832e+00 -9.000000e+00 -2.000000e+00
      vertex   -6.571477e+00 -9.000000e+00 -1.876973e+00
      vertex   -6.588801e+00 -9.000000e+00 -1.815222e+00
    endloop
  endfacet
  facet normal 1.218877e-14 -1.000000e+00 -2.539830e-14
    outer loop
      vertex   -6.588801e+00 -9.000000e+00 -1.815222e+00
      vertex   -6.605544e+00 -9.000000e+00 -1.753317e+00
      vertex   -6.973832e+00 -9.000000e+00 -2.000000e+00
    endloop
  endfacet
  facet normal -2.043307e-14 -1.000000e+00 2.330477e-14
    outer loop
      vertex   -6.973832e+00 -9.000000e+00 -2.000000e+00
      vertex   -6.605544e+00 -9.000000e+00 -1.753317e+00
      vertex   -6.621704e+00 -9.000000e+00 -1.691263e+00
    endloop
  endfacet
  facet normal 2.053187e-14 -1.000000e+00 -2.341746e-14
    outer loop
      vertex   -6.973832e+00 -9.000000e+00 -2.000000e+00
      vertex   -6.621704e+00 -9.000000e+00 -1.691263e+00
      vertex   -6.637280e+00 -9.000000e+00 -1.629063e+00
    endloop
  endfacet
  facet normal -2.899810e-14 -1.000000e+00 2.152122e-14
    outer loop
      vertex   -6.637280e+00 -9.000000e+00 -1.629063e+00
      vertex   -6.652271e+00 -9.000000e+00 -1.566723e+00
      vertex   -6.973832e+00 -9.000000e+00 -2.000000e+00
    endloop
  endfacet
  facet normal 0.000000e+00 -1.000000e+00 0.000000e+00
    outer loop
      vertex   -6.973832e+00 -9.000000e+00 -2.000000e+00
      vertex   -6.652271e+00 -9.000000e+00 -1.566723e+00
      vertex   -7.000000e+00 -9.000000e+00 -1.900483e+00
    endloop
  endfacet
  facet normal 0.000000e+00 -1.000000e+00 0.000000e+00
    outer loop
      vertex   -7.000000e+00 -9.000000e+00 -1.900483e+00
      vertex   -6.652271e+00 -9.000000e+00 -1.566723e+00
      vertex   -6.666677e+00 -9.000000e+00 -1.504246e+00
    endloop
  endfacet
  facet normal 0.000000e+00 -1.000000e+00 0.000000e+00
    outer loop
      vertex   -7.000000e+00 -9.000000e+00 -1.900483e+00
      vertex   -6.666677e+00 -9.000000e+00 -1.504246e+00
      vertex   -6.680495e+00 -9.000000e+00 -1.441636e+00
    endloop
  endfacet
  facet normal -0.000000e+00 -1.000000e+00 0.000000e+00
    outer loop
      vertex   -6.680495e+00 -9.000000e+00 -1.441636e+00
      vertex   -6.693727e+00 -9.000000e+00 -1.378897e+00
      vertex   -7.000000e+00 -9.000000e+00 -1.900483e+00
    endloop
  endfacet
  facet normal 3.584593e-14 -1.000000e+00 -2.104861e-14
    outer loop
      vertex   -7.000000e+00 -9.000000e+00 -1.900483e+00
      vertex   -6.693727e+00 -9.000000e+00 -1.378897e+00
      vertex   -6.706369e+00 -9.000000e+00 -1.316035e+00
    endloop
  endfacet
  facet normal -4.503345e-14 -1.000000e+00 1.958573e-14
    outer loop
      vertex   -7.000000e+00 -9.000000e+00 -1.900483e+00
      vertex   -6.706369e+00 -9.000000e+00 -1.316035e+00
      vertex   -6.718422e+00 -9.000000e+00 -1.253052e+00
    endloop
  endfacet
  facet normal 0.000000e+00 -1.000000e+00 0.000000e+00
    outer loop
      vertex   -7.000000e+00 -9.000000e+00 -1.900483e+00
      vertex   -6.718422e+00 -9.000000e+00 -1.253052e+00
      vertex   -7.000000e+00 -9.000000e+00 -1.000000e+00
    endloop
  endfacet
  facet normal 0.000000e+00 -1.000000e+00 0.000000e+00
    outer loop
      vertex   -7.000000e+00 -9.000000e+00 -1.000000e+00
      vertex   -6.718422e+00 -9.000000e+00 -1.253052e+00
      vertex   -6.729885e+00 -9.000000e+00 -1.189952e+00
    endloop
  endfacet
  facet normal 0.000000e+00 -1.000000e+00 0.000000e+00
    outer loop
      vertex   -7.000000e+00 -9.000000e+00 -1.000000e+00
      vertex   -6.729885e+00 -9.000000e+00 -1.189952e+00
      vertex   -6.740756e+00 -9.000000e+00 -1.126741e+00
    endloop
  endfacet
  facet normal 0.000000e+00 -1.000000e+00 0.000000e+00
    outer loop
      vertex   -6.740756e+00 -9.000000e+00 -1.126741e+00
      vertex   -6.751035e+00 -9.000000e+00 -1.063423e+00
      vertex   -7.000000e+00 -9.000000e+00 -1.000000e+00
    endloop
  endfacet
  facet normal 0.000000e+00 -1.000000e+00 0.000000e+00
    outer loop
      vertex   -7.000000e+00 -9.000000e+00 -1.000000e+00
      vertex   -6.751035e+00 -9.000000e+00 -1.063423e+00
      vertex   -6.760720e+00 -9.000000e+00 -1.000000e+00
    endloop
  endfacet
endsolid
