solid ASCII
  facet normal -9.648652e-01 9.206257e-02 -2.460886e-01
    outer loop
      vertex   -1.112036e+01 1.123220e+00 -3.000000e+00
      vertex   -1.111296e+01 1.120811e+00 -3.029950e+00
      vertex   -1.113212e+01 1.000000e+00 -3.000000e+00
    endloop
  endfacet
  facet normal -9.642386e-01 9.128634e-02 -2.488187e-01
    outer loop
      vertex   -1.113212e+01 1.000000e+00 -3.000000e+00
      vertex   -1.111296e+01 1.120811e+00 -3.029950e+00
      vertex   -1.110530e+01 1.120039e+00 -3.059901e+00
    endloop
  endfacet
  facet normal -9.639964e-01 9.064909e-02 -2.499873e-01
    outer loop
      vertex   -1.113212e+01 1.000000e+00 -3.000000e+00
      vertex   -1.110530e+01 1.120039e+00 -3.059901e+00
      vertex   -1.110093e+01 1.000000e+00 -3.120283e+00
    endloop
  endfacet
  facet normal -9.635988e-01 9.131170e-02 -2.512758e-01
    outer loop
      vertex   -1.110093e+01 1.000000e+00 -3.120283e+00
      vertex   -1.110530e+01 1.120039e+00 -3.059901e+00
      vertex   -1.109756e+01 1.119259e+00 -3.089852e+00
    endloop
  endfacet
  facet normal -9.628967e-01 9.191913e-02 -2.537339e-01
    outer loop
      vertex   -1.110093e+01 1.000000e+00 -3.120283e+00
      vertex   -1.109756e+01 1.119259e+00 -3.089852e+00
      vertex   -1.108975e+01 1.118471e+00 -3.119803e+00
    endloop
  endfacet
  facet normal -9.618449e-01 1.023402e-01 -2.537337e-01
    outer loop
      vertex   -1.108975e+01 1.118471e+00 -3.119803e+00
      vertex   -1.109756e+01 1.119259e+00 -3.089852e+00
      vertex   -1.107681e+01 1.240049e+00 -3.119803e+00
    endloop
  endfacet
  facet normal -9.612006e-01 1.022717e-01 -2.561912e-01
    outer loop
      vertex   -1.108975e+01 1.118471e+00 -3.119803e+00
      vertex   -1.107681e+01 1.240049e+00 -3.119803e+00
      vertex   -1.106892e+01 1.239166e+00 -3.149753e+00
    endloop
  endfacet
  facet normal -9.603251e-01 1.101836e-01 -2.561939e-01
    outer loop
      vertex   -1.106892e+01 1.239166e+00 -3.149753e+00
      vertex   -1.107681e+01 1.240049e+00 -3.119803e+00
      vertex   -1.106194e+01 1.300033e+00 -3.149753e+00
    endloop
  endfacet
  facet normal -9.596746e-01 1.101089e-01 -2.586517e-01
    outer loop
      vertex   -1.106892e+01 1.239166e+00 -3.149753e+00
      vertex   -1.106194e+01 1.300033e+00 -3.149753e+00
      vertex   -1.105397e+01 1.299097e+00 -3.179703e+00
    endloop
  endfacet
  facet normal -9.590538e-01 1.153911e-01 -2.586517e-01
    outer loop
      vertex   -1.105397e+01 1.299097e+00 -3.179703e+00
      vertex   -1.106194e+01 1.300033e+00 -3.149753e+00
      vertex   -1.104665e+01 1.359997e+00 -3.179703e+00
    endloop
  endfacet
  facet normal -9.580660e-01 1.152722e-01 -2.623393e-01
    outer loop
      vertex   -1.105397e+01 1.299097e+00 -3.179703e+00
      vertex   -1.104665e+01 1.359997e+00 -3.179703e+00
      vertex   -1.103048e+01 1.358007e+00 -3.239599e+00
    endloop
  endfacet
  facet normal -9.574155e-01 1.205555e-01 -2.623393e-01
    outer loop
      vertex   -1.103048e+01 1.358007e+00 -3.239599e+00
      vertex   -1.104665e+01 1.359997e+00 -3.179703e+00
      vertex   -1.102282e+01 1.418893e+00 -3.239599e+00
    endloop
  endfacet
  facet normal -9.560760e-01 1.203868e-01 -2.672559e-01
    outer loop
      vertex   -1.103048e+01 1.358007e+00 -3.239599e+00
      vertex   -1.102282e+01 1.418893e+00 -3.239599e+00
      vertex   -1.100634e+01 1.416772e+00 -3.299487e+00
    endloop
  endfacet
  facet normal -9.554634e-01 1.251549e-01 -2.672562e-01
    outer loop
      vertex   -1.100634e+01 1.416772e+00 -3.299487e+00
      vertex   -1.102282e+01 1.418893e+00 -3.239599e+00
      vertex   -1.100000e+01 1.447853e+00 -3.307613e+00
    endloop
  endfacet
  facet normal -9.541415e-01 1.234586e-01 -2.727123e-01
    outer loop
      vertex   -1.100634e+01 1.416772e+00 -3.299487e+00
      vertex   -1.100000e+01 1.447853e+00 -3.307613e+00
      vertex   -1.100000e+01 1.385390e+00 -3.335891e+00
    endloop
  endfacet
  facet normal -9.636691e-01 1.025343e-01 -2.466347e-01
    outer loop
      vertex   -1.111296e+01 1.120811e+00 -3.029950e+00
      vertex   -1.112036e+01 1.123220e+00 -3.000000e+00
      vertex   -1.109999e+01 1.242645e+00 -3.029950e+00
    endloop
  endfacet
  facet normal -9.638342e-01 1.027468e-01 -2.458999e-01
    outer loop
      vertex   -1.109999e+01 1.242645e+00 -3.029950e+00
      vertex   -1.112036e+01 1.123220e+00 -3.000000e+00
      vertex   -1.110724e+01 1.246290e+00 -3.000000e+00
    endloop
  endfacet
  facet normal -9.628033e-01 1.104679e-01 -2.465900e-01
    outer loop
      vertex   -1.109999e+01 1.242645e+00 -3.029950e+00
      vertex   -1.110724e+01 1.246290e+00 -3.000000e+00
      vertex   -1.109299e+01 1.303682e+00 -3.029950e+00
    endloop
  endfacet
  facet normal -9.638186e-01 1.135521e-01 -2.411632e-01
    outer loop
      vertex   -1.109299e+01 1.303682e+00 -3.029950e+00
      vertex   -1.110724e+01 1.246290e+00 -3.000000e+00
      vertex   -1.109276e+01 1.369200e+00 -3.000000e+00
    endloop
  endfacet
  facet normal -9.623153e-01 1.157835e-01 -2.460557e-01
    outer loop
      vertex   -1.109299e+01 1.303682e+00 -3.029950e+00
      vertex   -1.109276e+01 1.369200e+00 -3.000000e+00
      vertex   -1.108564e+01 1.364797e+00 -3.029950e+00
    endloop
  endfacet
  facet normal -9.615140e-01 1.210716e-01 -2.466423e-01
    outer loop
      vertex   -1.108564e+01 1.364797e+00 -3.029950e+00
      vertex   -1.109276e+01 1.369200e+00 -3.000000e+00
      vertex   -1.107793e+01 1.425987e+00 -3.029950e+00
    endloop
  endfacet
  facet normal -9.609610e-01 1.210019e-01 -2.488222e-01
    outer loop
      vertex   -1.108564e+01 1.364797e+00 -3.029950e+00
      vertex   -1.107793e+01 1.425987e+00 -3.029950e+00
      vertex   -1.107030e+01 1.425004e+00 -3.059901e+00
    endloop
  endfacet
  facet normal -9.602776e-01 1.263111e-01 -2.488222e-01
    outer loop
      vertex   -1.107030e+01 1.425004e+00 -3.059901e+00
      vertex   -1.107793e+01 1.425987e+00 -3.029950e+00
      vertex   -1.106225e+01 1.486224e+00 -3.059901e+00
    endloop
  endfacet
  facet normal -9.596485e-01 1.262284e-01 -2.512792e-01
    outer loop
      vertex   -1.107030e+01 1.425004e+00 -3.059901e+00
      vertex   -1.106225e+01 1.486224e+00 -3.059901e+00
      vertex   -1.105454e+01 1.485188e+00 -3.089852e+00
    endloop
  endfacet
  facet normal -9.589348e-01 1.315402e-01 -2.512792e-01
    outer loop
      vertex   -1.105454e+01 1.485188e+00 -3.089852e+00
      vertex   -1.106225e+01 1.486224e+00 -3.059901e+00
      vertex   -1.104614e+01 1.546434e+00 -3.089852e+00
    endloop
  endfacet
  facet normal -9.582995e-01 1.314531e-01 -2.537364e-01
    outer loop
      vertex   -1.105454e+01 1.485188e+00 -3.089852e+00
      vertex   -1.104614e+01 1.546434e+00 -3.089852e+00
      vertex   -1.103836e+01 1.545345e+00 -3.119803e+00
    endloop
  endfacet
  facet normal -9.575555e-01 1.367672e-01 -2.537364e-01
    outer loop
      vertex   -1.103836e+01 1.545345e+00 -3.119803e+00
      vertex   -1.104614e+01 1.546434e+00 -3.089852e+00
      vertex   -1.102961e+01 1.606613e+00 -3.119803e+00
    endloop
  endfacet
  facet normal -9.569140e-01 1.366756e-01 -2.561939e-01
    outer loop
      vertex   -1.103836e+01 1.545345e+00 -3.119803e+00
      vertex   -1.102961e+01 1.606613e+00 -3.119803e+00
      vertex   -1.102175e+01 1.605469e+00 -3.149753e+00
    endloop
  endfacet
  facet normal -9.561396e-01 1.419918e-01 -2.561939e-01
    outer loop
      vertex   -1.102175e+01 1.605469e+00 -3.149753e+00
      vertex   -1.102961e+01 1.606613e+00 -3.119803e+00
      vertex   -1.101265e+01 1.666757e+00 -3.149753e+00
    endloop
  endfacet
  facet normal -9.554920e-01 1.418957e-01 -2.586516e-01
    outer loop
      vertex   -1.102175e+01 1.605469e+00 -3.149753e+00
      vertex   -1.101265e+01 1.666757e+00 -3.149753e+00
      vertex   -1.100472e+01 1.665557e+00 -3.179703e+00
    endloop
  endfacet
  facet normal -9.548989e-01 1.458325e-01 -2.586524e-01
    outer loop
      vertex   -1.100472e+01 1.665557e+00 -3.179703e+00
      vertex   -1.101265e+01 1.666757e+00 -3.149753e+00
      vertex   -1.100000e+01 1.691747e+00 -3.182368e+00
    endloop
  endfacet
  facet normal -9.537477e-01 1.451583e-01 -2.632382e-01
    outer loop
      vertex   -1.100472e+01 1.665557e+00 -3.179703e+00
      vertex   -1.100000e+01 1.691747e+00 -3.182368e+00
      vertex   -1.100000e+01 1.631762e+00 -3.215446e+00
    endloop
  endfacet
  facet normal -9.625011e-01 1.242168e-01 -2.411676e-01
    outer loop
      vertex   -1.109276e+01 1.369200e+00 -3.000000e+00
      vertex   -1.107692e+01 1.491937e+00 -3.000000e+00
      vertex   -1.107793e+01 1.425987e+00 -3.029950e+00
    endloop
  endfacet
  facet normal -9.609833e-01 1.264040e-01 -2.460348e-01
    outer loop
      vertex   -1.107793e+01 1.425987e+00 -3.029950e+00
      vertex   -1.107692e+01 1.491937e+00 -3.000000e+00
      vertex   -1.106987e+01 1.487248e+00 -3.029950e+00
    endloop
  endfacet
  facet normal -9.602776e-01 1.263111e-01 -2.488222e-01
    outer loop
      vertex   -1.107793e+01 1.425987e+00 -3.029950e+00
      vertex   -1.106987e+01 1.487248e+00 -3.029950e+00
      vertex   -1.106225e+01 1.486224e+00 -3.059901e+00
    endloop
  endfacet
  facet normal -9.595634e-01 1.316264e-01 -2.488222e-01
    outer loop
      vertex   -1.106225e+01 1.486224e+00 -3.059901e+00
      vertex   -1.106987e+01 1.487248e+00 -3.029950e+00
      vertex   -1.105384e+01 1.547512e+00 -3.059901e+00
    endloop
  endfacet
  facet normal -9.589348e-01 1.315402e-01 -2.512792e-01
    outer loop
      vertex   -1.106225e+01 1.486224e+00 -3.059901e+00
      vertex   -1.105384e+01 1.547512e+00 -3.059901e+00
      vertex   -1.104614e+01 1.546434e+00 -3.089852e+00
    endloop
  endfacet
  facet normal -9.581903e-01 1.368579e-01 -2.512792e-01
    outer loop
      vertex   -1.104614e+01 1.546434e+00 -3.089852e+00
      vertex   -1.105384e+01 1.547512e+00 -3.059901e+00
      vertex   -1.103738e+01 1.607746e+00 -3.089852e+00
    endloop
  endfacet
  facet normal -9.575555e-01 1.367672e-01 -2.537364e-01
    outer loop
      vertex   -1.104614e+01 1.546434e+00 -3.089852e+00
      vertex   -1.103738e+01 1.607746e+00 -3.089852e+00
      vertex   -1.102961e+01 1.606613e+00 -3.119803e+00
    endloop
  endfacet
  facet normal -9.567806e-01 1.420870e-01 -2.537364e-01
    outer loop
      vertex   -1.102961e+01 1.606613e+00 -3.119803e+00
      vertex   -1.103738e+01 1.607746e+00 -3.089852e+00
      vertex   -1.102050e+01 1.667945e+00 -3.119803e+00
    endloop
  endfacet
  facet normal -9.561396e-01 1.419918e-01 -2.561939e-01
    outer loop
      vertex   -1.102961e+01 1.606613e+00 -3.119803e+00
      vertex   -1.102050e+01 1.667945e+00 -3.119803e+00
      vertex   -1.101265e+01 1.666757e+00 -3.149753e+00
    endloop
  endfacet
  facet normal -9.553342e-01 1.473134e-01 -2.561939e-01
    outer loop
      vertex   -1.101265e+01 1.666757e+00 -3.149753e+00
      vertex   -1.102050e+01 1.667945e+00 -3.119803e+00
      vertex   -1.100319e+01 1.728106e+00 -3.149753e+00
    endloop
  endfacet
  facet normal -9.549680e-01 1.472570e-01 -2.575877e-01
    outer loop
      vertex   -1.101265e+01 1.666757e+00 -3.149753e+00
      vertex   -1.100319e+01 1.728106e+00 -3.149753e+00
      vertex   -1.100000e+01 1.691747e+00 -3.182368e+00
    endloop
  endfacet
  facet normal -9.532696e-01 1.510502e-01 -2.616502e-01
    outer loop
      vertex   -1.100000e+01 1.691747e+00 -3.182368e+00
      vertex   -1.100319e+01 1.728106e+00 -3.149753e+00
      vertex   -1.100000e+01 1.751035e+00 -3.148141e+00
    endloop
  endfacet
  facet normal -9.547778e-01 1.508764e-01 -2.561947e-01
    outer loop
      vertex   -1.100000e+01 1.751035e+00 -3.148141e+00
      vertex   -1.100319e+01 1.728106e+00 -3.149753e+00
      vertex   -1.101103e+01 1.729338e+00 -3.119803e+00
    endloop
  endfacet
  facet normal -9.548535e-01 1.526971e-01 -2.548302e-01
    outer loop
      vertex   -1.100000e+01 1.751035e+00 -3.148141e+00
      vertex   -1.101103e+01 1.729338e+00 -3.119803e+00
      vertex   -1.100121e+01 1.790788e+00 -3.119803e+00
    endloop
  endfacet
  facet normal -9.551375e-01 1.527425e-01 -2.537364e-01
    outer loop
      vertex   -1.100121e+01 1.790788e+00 -3.119803e+00
      vertex   -1.101103e+01 1.729338e+00 -3.119803e+00
      vertex   -1.101879e+01 1.730557e+00 -3.089852e+00
    endloop
  endfacet
  facet normal -9.551375e-01 1.527425e-01 -2.537364e-01
    outer loop
      vertex   -1.100121e+01 1.790788e+00 -3.119803e+00
      vertex   -1.101879e+01 1.730557e+00 -3.089852e+00
      vertex   -1.100896e+01 1.792051e+00 -3.089852e+00
    endloop
  endfacet
  facet normal -9.557707e-01 1.528438e-01 -2.512791e-01
    outer loop
      vertex   -1.100896e+01 1.792051e+00 -3.089852e+00
      vertex   -1.101879e+01 1.730557e+00 -3.089852e+00
      vertex   -1.102648e+01 1.731763e+00 -3.059901e+00
    endloop
  endfacet
  facet normal -9.557707e-01 1.528438e-01 -2.512791e-01
    outer loop
      vertex   -1.100896e+01 1.792051e+00 -3.089852e+00
      vertex   -1.102648e+01 1.731763e+00 -3.059901e+00
      vertex   -1.101663e+01 1.793300e+00 -3.059901e+00
    endloop
  endfacet
  facet normal -9.563972e-01 1.529440e-01 -2.488222e-01
    outer loop
      vertex   -1.101663e+01 1.793300e+00 -3.059901e+00
      vertex   -1.102648e+01 1.731763e+00 -3.059901e+00
      vertex   -1.103408e+01 1.732957e+00 -3.029950e+00
    endloop
  endfacet
  facet normal -9.563972e-01 1.529440e-01 -2.488222e-01
    outer loop
      vertex   -1.101663e+01 1.793300e+00 -3.059901e+00
      vertex   -1.103408e+01 1.732957e+00 -3.029950e+00
      vertex   -1.102423e+01 1.794536e+00 -3.029950e+00
    endloop
  endfacet
  facet normal -9.569613e-01 1.530342e-01 -2.465881e-01
    outer loop
      vertex   -1.102423e+01 1.794536e+00 -3.029950e+00
      vertex   -1.103408e+01 1.732957e+00 -3.029950e+00
      vertex   -1.104117e+01 1.736851e+00 -3.000000e+00
    endloop
  endfacet
  facet normal -9.578477e-01 1.561152e-01 -2.411554e-01
    outer loop
      vertex   -1.102423e+01 1.794536e+00 -3.029950e+00
      vertex   -1.104117e+01 1.736851e+00 -3.000000e+00
      vertex   -1.102126e+01 1.859004e+00 -3.000000e+00
    endloop
  endfacet
  facet normal -9.601115e-01 1.317016e-01 -2.466590e-01
    outer loop
      vertex   -1.106987e+01 1.487248e+00 -3.029950e+00
      vertex   -1.107692e+01 1.491937e+00 -3.000000e+00
      vertex   -1.106146e+01 1.548579e+00 -3.029950e+00
    endloop
  endfacet
  facet normal -9.610668e-01 1.348662e-01 -2.411675e-01
    outer loop
      vertex   -1.106146e+01 1.548579e+00 -3.029950e+00
      vertex   -1.107692e+01 1.491937e+00 -3.000000e+00
      vertex   -1.105973e+01 1.614491e+00 -3.000000e+00
    endloop
  endfacet
  facet normal -9.595174e-01 1.370474e-01 -2.460576e-01
    outer loop
      vertex   -1.106146e+01 1.548579e+00 -3.029950e+00
      vertex   -1.105973e+01 1.614491e+00 -3.000000e+00
      vertex   -1.105269e+01 1.609976e+00 -3.029950e+00
    endloop
  endfacet
  facet normal -9.585942e-01 1.423563e-01 -2.466412e-01
    outer loop
      vertex   -1.105269e+01 1.609976e+00 -3.029950e+00
      vertex   -1.105973e+01 1.614491e+00 -3.000000e+00
      vertex   -1.104356e+01 1.671436e+00 -3.029950e+00
    endloop
  endfacet
  facet normal -9.580425e-01 1.422744e-01 -2.488222e-01
    outer loop
      vertex   -1.105269e+01 1.609976e+00 -3.029950e+00
      vertex   -1.104356e+01 1.671436e+00 -3.029950e+00
      vertex   -1.103596e+01 1.670285e+00 -3.059901e+00
    endloop
  endfacet
  facet normal -9.572355e-01 1.476066e-01 -2.488222e-01
    outer loop
      vertex   -1.103596e+01 1.670285e+00 -3.059901e+00
      vertex   -1.104356e+01 1.671436e+00 -3.029950e+00
      vertex   -1.102648e+01 1.731763e+00 -3.059901e+00
    endloop
  endfacet
  facet normal -9.566084e-01 1.475099e-01 -2.512792e-01
    outer loop
      vertex   -1.103596e+01 1.670285e+00 -3.059901e+00
      vertex   -1.102648e+01 1.731763e+00 -3.059901e+00
      vertex   -1.101879e+01 1.730557e+00 -3.089852e+00
    endloop
  endfacet
  facet normal -9.595158e-01 1.454993e-01 -2.411628e-01
    outer loop
      vertex   -1.105973e+01 1.614491e+00 -3.000000e+00
      vertex   -1.104117e+01 1.736851e+00 -3.000000e+00
      vertex   -1.104356e+01 1.671436e+00 -3.029950e+00
    endloop
  endfacet
  facet normal -9.579170e-01 1.477117e-01 -2.461226e-01
    outer loop
      vertex   -1.104356e+01 1.671436e+00 -3.029950e+00
      vertex   -1.104117e+01 1.736851e+00 -3.000000e+00
      vertex   -1.103408e+01 1.732957e+00 -3.029950e+00
    endloop
  endfacet
  facet normal -9.572355e-01 1.476066e-01 -2.488222e-01
    outer loop
      vertex   -1.104356e+01 1.671436e+00 -3.029950e+00
      vertex   -1.103408e+01 1.732957e+00 -3.029950e+00
      vertex   -1.102648e+01 1.731763e+00 -3.059901e+00
    endloop
  endfacet
  facet normal -9.560618e-01 1.667127e-01 -2.411488e-01
    outer loop
      vertex   -1.100000e+01 1.980941e+00 -3.000000e+00
      vertex   -1.100345e+01 1.917856e+00 -3.029950e+00
      vertex   -1.102126e+01 1.859004e+00 -3.000000e+00
    endloop
  endfacet
  facet normal -9.552122e-01 1.637335e-01 -2.464976e-01
    outer loop
      vertex   -1.102126e+01 1.859004e+00 -3.000000e+00
      vertex   -1.100345e+01 1.917856e+00 -3.029950e+00
      vertex   -1.101402e+01 1.856170e+00 -3.029950e+00
    endloop
  endfacet
  facet normal -9.561818e-01 1.583945e-01 -2.462268e-01
    outer loop
      vertex   -1.102126e+01 1.859004e+00 -3.000000e+00
      vertex   -1.101402e+01 1.856170e+00 -3.029950e+00
      vertex   -1.102423e+01 1.794536e+00 -3.029950e+00
    endloop
  endfacet
  facet normal -9.555276e-01 1.582862e-01 -2.488222e-01
    outer loop
      vertex   -1.102423e+01 1.794536e+00 -3.029950e+00
      vertex   -1.101402e+01 1.856170e+00 -3.029950e+00
      vertex   -1.100643e+01 1.854891e+00 -3.059901e+00
    endloop
  endfacet
  facet normal -9.555276e-01 1.582862e-01 -2.488222e-01
    outer loop
      vertex   -1.102423e+01 1.794536e+00 -3.029950e+00
      vertex   -1.100643e+01 1.854891e+00 -3.059901e+00
      vertex   -1.101663e+01 1.793300e+00 -3.059901e+00
    endloop
  endfacet
  facet normal -9.548222e-01 1.581693e-01 -2.515892e-01
    outer loop
      vertex   -1.101663e+01 1.793300e+00 -3.059901e+00
      vertex   -1.100643e+01 1.854891e+00 -3.059901e+00
      vertex   -1.100000e+01 1.809613e+00 -3.112778e+00
    endloop
  endfacet
  facet normal -9.547490e-01 1.591021e-01 -2.512784e-01
    outer loop
      vertex   -1.101663e+01 1.793300e+00 -3.059901e+00
      vertex   -1.100000e+01 1.809613e+00 -3.112778e+00
      vertex   -1.100896e+01 1.792051e+00 -3.089852e+00
    endloop
  endfacet
  facet normal -9.546375e-01 1.558354e-01 -2.537373e-01
    outer loop
      vertex   -1.100896e+01 1.792051e+00 -3.089852e+00
      vertex   -1.100000e+01 1.809613e+00 -3.112778e+00
      vertex   -1.100121e+01 1.790788e+00 -3.119803e+00
    endloop
  endfacet
  facet normal -9.543801e-01 1.690022e-01 -2.461645e-01
    outer loop
      vertex   -1.100000e+01 1.980941e+00 -3.000000e+00
      vertex   -1.100000e+01 1.924580e+00 -3.038694e+00
      vertex   -1.100345e+01 1.917856e+00 -3.029950e+00
    endloop
  endfacet
  facet normal -9.542745e-01 1.643648e-01 -2.496887e-01
    outer loop
      vertex   -1.100345e+01 1.917856e+00 -3.029950e+00
      vertex   -1.100000e+01 1.924580e+00 -3.038694e+00
      vertex   -1.100000e+01 1.867466e+00 -3.076291e+00
    endloop
  endfacet
  facet normal -9.546035e-01 1.636291e-01 -2.489131e-01
    outer loop
      vertex   -1.100345e+01 1.917856e+00 -3.029950e+00
      vertex   -1.100000e+01 1.867466e+00 -3.076291e+00
      vertex   -1.101402e+01 1.856170e+00 -3.029950e+00
    endloop
  endfacet
  facet normal -9.545701e-01 1.639619e-01 -2.488219e-01
    outer loop
      vertex   -1.101402e+01 1.856170e+00 -3.029950e+00
      vertex   -1.100000e+01 1.867466e+00 -3.076291e+00
      vertex   -1.100643e+01 1.854891e+00 -3.059901e+00
    endloop
  endfacet
  facet normal -9.544312e-01 1.591978e-01 -2.524224e-01
    outer loop
      vertex   -1.100000e+01 1.867466e+00 -3.076291e+00
      vertex   -1.100000e+01 1.809613e+00 -3.112778e+00
      vertex   -1.100643e+01 1.854891e+00 -3.059901e+00
    endloop
  endfacet
  facet normal -9.511564e-01 1.595482e-01 -2.642836e-01
    outer loop
      vertex   -1.100000e+01 1.809613e+00 -3.112778e+00
      vertex   -1.100000e+01 1.751035e+00 -3.148141e+00
      vertex   -1.100121e+01 1.790788e+00 -3.119803e+00
    endloop
  endfacet
  facet normal -9.550628e-01 1.418319e-01 -2.602667e-01
    outer loop
      vertex   -1.100472e+01 1.665557e+00 -3.179703e+00
      vertex   -1.100000e+01 1.631762e+00 -3.215446e+00
      vertex   -1.101382e+01 1.604313e+00 -3.179703e+00
    endloop
  endfacet
  facet normal -9.548596e-01 1.383030e-01 -2.628983e-01
    outer loop
      vertex   -1.101382e+01 1.604313e+00 -3.179703e+00
      vertex   -1.100000e+01 1.631762e+00 -3.215446e+00
      vertex   -1.100000e+01 1.571094e+00 -3.247362e+00
    endloop
  endfacet
  facet normal -9.553482e-01 1.364520e-01 -2.620892e-01
    outer loop
      vertex   -1.101382e+01 1.604313e+00 -3.179703e+00
      vertex   -1.100000e+01 1.571094e+00 -3.247362e+00
      vertex   -1.102256e+01 1.543132e+00 -3.179703e+00
    endloop
  endfacet
  facet normal -9.553640e-01 1.358588e-01 -2.623396e-01
    outer loop
      vertex   -1.102256e+01 1.543132e+00 -3.179703e+00
      vertex   -1.100000e+01 1.571094e+00 -3.247362e+00
      vertex   -1.100643e+01 1.540874e+00 -3.239599e+00
    endloop
  endfacet
  facet normal -9.560231e-01 1.311408e-01 -2.623393e-01
    outer loop
      vertex   -1.102256e+01 1.543132e+00 -3.179703e+00
      vertex   -1.100643e+01 1.540874e+00 -3.239599e+00
      vertex   -1.103094e+01 1.482017e+00 -3.179703e+00
    endloop
  endfacet
  facet normal -9.560231e-01 1.311408e-01 -2.623393e-01
    outer loop
      vertex   -1.103094e+01 1.482017e+00 -3.179703e+00
      vertex   -1.100643e+01 1.540874e+00 -3.239599e+00
      vertex   -1.101480e+01 1.479849e+00 -3.239599e+00
    endloop
  endfacet
  facet normal -9.567346e-01 1.258451e-01 -2.623393e-01
    outer loop
      vertex   -1.103094e+01 1.482017e+00 -3.179703e+00
      vertex   -1.101480e+01 1.479849e+00 -3.239599e+00
      vertex   -1.103897e+01 1.420971e+00 -3.179703e+00
    endloop
  endfacet
  facet normal -9.567346e-01 1.258451e-01 -2.623393e-01
    outer loop
      vertex   -1.103897e+01 1.420971e+00 -3.179703e+00
      vertex   -1.101480e+01 1.479849e+00 -3.239599e+00
      vertex   -1.102282e+01 1.418893e+00 -3.239599e+00
    endloop
  endfacet
  facet normal -9.574155e-01 1.205555e-01 -2.623393e-01
    outer loop
      vertex   -1.103897e+01 1.420971e+00 -3.179703e+00
      vertex   -1.102282e+01 1.418893e+00 -3.239599e+00
      vertex   -1.104665e+01 1.359997e+00 -3.179703e+00
    endloop
  endfacet
  facet normal -9.540939e-01 1.341957e-01 -2.677618e-01
    outer loop
      vertex   -1.100000e+01 1.571094e+00 -3.247362e+00
      vertex   -1.100000e+01 1.509765e+00 -3.278098e+00
      vertex   -1.100643e+01 1.540874e+00 -3.239599e+00
    endloop
  endfacet
  facet normal -9.551974e-01 1.310275e-01 -2.653860e-01
    outer loop
      vertex   -1.100643e+01 1.540874e+00 -3.239599e+00
      vertex   -1.100000e+01 1.509765e+00 -3.278098e+00
      vertex   -1.101480e+01 1.479849e+00 -3.239599e+00
    endloop
  endfacet
  facet normal -9.549528e-01 1.277032e-01 -2.678751e-01
    outer loop
      vertex   -1.100000e+01 1.509765e+00 -3.278098e+00
      vertex   -1.100000e+01 1.447853e+00 -3.307613e+00
      vertex   -1.101480e+01 1.479849e+00 -3.239599e+00
    endloop
  endfacet
  facet normal -9.554576e-01 1.256771e-01 -2.670319e-01
    outer loop
      vertex   -1.101480e+01 1.479849e+00 -3.239599e+00
      vertex   -1.100000e+01 1.447853e+00 -3.307613e+00
      vertex   -1.102282e+01 1.418893e+00 -3.239599e+00
    endloop
  endfacet
  facet normal -9.552686e-01 1.202852e-01 -2.701730e-01
    outer loop
      vertex   -1.100634e+01 1.416772e+00 -3.299487e+00
      vertex   -1.100000e+01 1.385390e+00 -3.335891e+00
      vertex   -1.101400e+01 1.355978e+00 -3.299487e+00
    endloop
  endfacet
  facet normal -9.549576e-01 1.170115e-01 -2.726983e-01
    outer loop
      vertex   -1.101400e+01 1.355978e+00 -3.299487e+00
      vertex   -1.100000e+01 1.385390e+00 -3.335891e+00
      vertex   -1.100000e+01 1.322392e+00 -3.362922e+00
    endloop
  endfacet
  facet normal -9.554828e-01 1.149614e-01 -2.717288e-01
    outer loop
      vertex   -1.101400e+01 1.355978e+00 -3.299487e+00
      vertex   -1.100000e+01 1.322392e+00 -3.362922e+00
      vertex   -1.102130e+01 1.295258e+00 -3.299487e+00
    endloop
  endfacet
  facet normal -9.554809e-01 1.139203e-01 -2.721735e-01
    outer loop
      vertex   -1.102130e+01 1.295258e+00 -3.299487e+00
      vertex   -1.100000e+01 1.322392e+00 -3.362922e+00
      vertex   -1.100448e+01 1.293281e+00 -3.359367e+00
    endloop
  endfacet
  facet normal -9.559766e-01 1.096846e-01 -2.721729e-01
    outer loop
      vertex   -1.102130e+01 1.295258e+00 -3.299487e+00
      vertex   -1.100448e+01 1.293281e+00 -3.359367e+00
      vertex   -1.102826e+01 1.234615e+00 -3.299487e+00
    endloop
  endfacet
  facet normal -9.559766e-01 1.096846e-01 -2.721729e-01
    outer loop
      vertex   -1.102826e+01 1.234615e+00 -3.299487e+00
      vertex   -1.100448e+01 1.293281e+00 -3.359367e+00
      vertex   -1.101143e+01 1.232730e+00 -3.359367e+00
    endloop
  endfacet
  facet normal -9.568482e-01 1.018086e-01 -2.721701e-01
    outer loop
      vertex   -1.102826e+01 1.234615e+00 -3.299487e+00
      vertex   -1.101143e+01 1.232730e+00 -3.359367e+00
      vertex   -1.104114e+01 1.113569e+00 -3.299487e+00
    endloop
  endfacet
  facet normal -9.568482e-01 1.018086e-01 -2.721701e-01
    outer loop
      vertex   -1.104114e+01 1.113569e+00 -3.299487e+00
      vertex   -1.101143e+01 1.232730e+00 -3.359367e+00
      vertex   -1.102429e+01 1.111869e+00 -3.359367e+00
    endloop
  endfacet
  facet normal -9.578704e-01 9.169201e-02 -2.721706e-01
    outer loop
      vertex   -1.104114e+01 1.113569e+00 -3.299487e+00
      vertex   -1.102429e+01 1.111869e+00 -3.359367e+00
      vertex   -1.103487e+01 1.000000e+00 -3.359836e+00
    endloop
  endfacet
  facet normal -9.564702e-01 9.158027e-02 -2.770880e-01
    outer loop
      vertex   -1.103487e+01 1.000000e+00 -3.359836e+00
      vertex   -1.102429e+01 1.111869e+00 -3.359367e+00
      vertex   -1.100711e+01 1.110137e+00 -3.419233e+00
    endloop
  endfacet
  facet normal -9.563205e-01 9.119594e-02 -2.777307e-01
    outer loop
      vertex   -1.103487e+01 1.000000e+00 -3.359836e+00
      vertex   -1.100711e+01 1.110137e+00 -3.419233e+00
      vertex   -1.100000e+01 1.065408e+00 -3.458414e+00
    endloop
  endfacet
  facet normal -9.545917e-01 9.540904e-02 -2.822265e-01
    outer loop
      vertex   -1.100000e+01 1.065408e+00 -3.458414e+00
      vertex   -1.100711e+01 1.110137e+00 -3.419233e+00
      vertex   -1.100000e+01 1.130368e+00 -3.436453e+00
    endloop
  endfacet
  facet normal -9.556116e-01 1.001401e-01 -2.770894e-01
    outer loop
      vertex   -1.100000e+01 1.130368e+00 -3.436453e+00
      vertex   -1.100711e+01 1.110137e+00 -3.419233e+00
      vertex   -1.102429e+01 1.111869e+00 -3.359367e+00
    endloop
  endfacet
  facet normal -9.556201e-01 9.987368e-02 -2.771560e-01
    outer loop
      vertex   -1.100000e+01 1.130368e+00 -3.436453e+00
      vertex   -1.102429e+01 1.111869e+00 -3.359367e+00
      vertex   -1.100000e+01 1.194864e+00 -3.413212e+00
    endloop
  endfacet
  facet normal -9.561797e-01 1.017375e-01 -2.745357e-01
    outer loop
      vertex   -1.100000e+01 1.194864e+00 -3.413212e+00
      vertex   -1.102429e+01 1.111869e+00 -3.359367e+00
      vertex   -1.101143e+01 1.232730e+00 -3.359367e+00
    endloop
  endfacet
  facet normal -9.548583e-01 1.062333e-01 -2.774168e-01
    outer loop
      vertex   -1.100000e+01 1.194864e+00 -3.413212e+00
      vertex   -1.101143e+01 1.232730e+00 -3.359367e+00
      vertex   -1.100000e+01 1.258878e+00 -3.388699e+00
    endloop
  endfacet
  facet normal -9.552967e-01 1.096066e-01 -2.745806e-01
    outer loop
      vertex   -1.100000e+01 1.258878e+00 -3.388699e+00
      vertex   -1.101143e+01 1.232730e+00 -3.359367e+00
      vertex   -1.100448e+01 1.293281e+00 -3.359367e+00
    endloop
  endfacet
  facet normal -9.538466e-01 1.129261e-01 -2.782522e-01
    outer loop
      vertex   -1.100000e+01 1.258878e+00 -3.388699e+00
      vertex   -1.100448e+01 1.293281e+00 -3.359367e+00
      vertex   -1.100000e+01 1.322392e+00 -3.362922e+00
    endloop
  endfacet
  facet normal -9.560632e-01 8.834181e-02 -2.795334e-01
    outer loop
      vertex   -1.100000e+01 1.065408e+00 -3.458414e+00
      vertex   -1.100000e+01 1.000000e+00 -3.479085e+00
      vertex   -1.103487e+01 1.000000e+00 -3.359836e+00
    endloop
  endfacet
  facet normal -9.587054e-01 9.032114e-02 -2.696777e-01
    outer loop
      vertex   -1.103487e+01 1.000000e+00 -3.359836e+00
      vertex   -1.106851e+01 1.000000e+00 -3.240232e+00
      vertex   -1.104114e+01 1.113569e+00 -3.299487e+00
    endloop
  endfacet
  facet normal -9.592515e-01 9.171760e-02 -2.672535e-01
    outer loop
      vertex   -1.104114e+01 1.113569e+00 -3.299487e+00
      vertex   -1.106851e+01 1.000000e+00 -3.240232e+00
      vertex   -1.105767e+01 1.115235e+00 -3.239599e+00
    endloop
  endfacet
  facet normal -9.582177e-01 1.019543e-01 -2.672531e-01
    outer loop
      vertex   -1.104114e+01 1.113569e+00 -3.299487e+00
      vertex   -1.105767e+01 1.115235e+00 -3.239599e+00
      vertex   -1.102826e+01 1.234615e+00 -3.299487e+00
    endloop
  endfacet
  facet normal -9.582177e-01 1.019543e-01 -2.672531e-01
    outer loop
      vertex   -1.102826e+01 1.234615e+00 -3.299487e+00
      vertex   -1.105767e+01 1.115235e+00 -3.239599e+00
      vertex   -1.104477e+01 1.236462e+00 -3.239599e+00
    endloop
  endfacet
  facet normal -9.573448e-01 1.098416e-01 -2.672559e-01
    outer loop
      vertex   -1.102826e+01 1.234615e+00 -3.299487e+00
      vertex   -1.104477e+01 1.236462e+00 -3.239599e+00
      vertex   -1.102130e+01 1.295258e+00 -3.299487e+00
    endloop
  endfacet
  facet normal -9.573448e-01 1.098416e-01 -2.672559e-01
    outer loop
      vertex   -1.102130e+01 1.295258e+00 -3.299487e+00
      vertex   -1.104477e+01 1.236462e+00 -3.239599e+00
      vertex   -1.103780e+01 1.297196e+00 -3.239599e+00
    endloop
  endfacet
  facet normal -9.567255e-01 1.151110e-01 -2.672559e-01
    outer loop
      vertex   -1.102130e+01 1.295258e+00 -3.299487e+00
      vertex   -1.103780e+01 1.297196e+00 -3.239599e+00
      vertex   -1.101400e+01 1.355978e+00 -3.299487e+00
    endloop
  endfacet
  facet normal -9.567255e-01 1.151110e-01 -2.672559e-01
    outer loop
      vertex   -1.101400e+01 1.355978e+00 -3.299487e+00
      vertex   -1.103780e+01 1.297196e+00 -3.239599e+00
      vertex   -1.103048e+01 1.358007e+00 -3.239599e+00
    endloop
  endfacet
  facet normal -9.560760e-01 1.203868e-01 -2.672559e-01
    outer loop
      vertex   -1.101400e+01 1.355978e+00 -3.299487e+00
      vertex   -1.103048e+01 1.358007e+00 -3.239599e+00
      vertex   -1.100634e+01 1.416772e+00 -3.299487e+00
    endloop
  endfacet
  facet normal -9.605982e-01 9.181730e-02 -2.623369e-01
    outer loop
      vertex   -1.105767e+01 1.115235e+00 -3.239599e+00
      vertex   -1.106851e+01 1.000000e+00 -3.240232e+00
      vertex   -1.107387e+01 1.116869e+00 -3.179703e+00
    endloop
  endfacet
  facet normal -9.614015e-01 9.048928e-02 -2.598438e-01
    outer loop
      vertex   -1.107387e+01 1.116869e+00 -3.179703e+00
      vertex   -1.106851e+01 1.000000e+00 -3.240232e+00
      vertex   -1.110093e+01 1.000000e+00 -3.120283e+00
    endloop
  endfacet
  facet normal -9.616608e-01 9.115720e-02 -2.586482e-01
    outer loop
      vertex   -1.107387e+01 1.116869e+00 -3.179703e+00
      vertex   -1.110093e+01 1.000000e+00 -3.120283e+00
      vertex   -1.108185e+01 1.117674e+00 -3.149753e+00
    endloop
  endfacet
  facet normal -9.622506e-01 9.186811e-02 -2.561914e-01
    outer loop
      vertex   -1.108185e+01 1.117674e+00 -3.149753e+00
      vertex   -1.110093e+01 1.000000e+00 -3.120283e+00
      vertex   -1.108975e+01 1.118471e+00 -3.119803e+00
    endloop
  endfacet
  facet normal -9.612006e-01 1.022717e-01 -2.561912e-01
    outer loop
      vertex   -1.108185e+01 1.117674e+00 -3.149753e+00
      vertex   -1.108975e+01 1.118471e+00 -3.119803e+00
      vertex   -1.106892e+01 1.239166e+00 -3.149753e+00
    endloop
  endfacet
  facet normal -9.631135e-01 1.024752e-01 -2.488196e-01
    outer loop
      vertex   -1.110530e+01 1.120039e+00 -3.059901e+00
      vertex   -1.111296e+01 1.120811e+00 -3.029950e+00
      vertex   -1.109235e+01 1.241789e+00 -3.059901e+00
    endloop
  endfacet
  facet normal -9.631135e-01 1.024752e-01 -2.488196e-01
    outer loop
      vertex   -1.109235e+01 1.241789e+00 -3.059901e+00
      vertex   -1.111296e+01 1.120811e+00 -3.029950e+00
      vertex   -1.109999e+01 1.242645e+00 -3.029950e+00
    endloop
  endfacet
  facet normal -9.622363e-01 1.104028e-01 -2.488222e-01
    outer loop
      vertex   -1.109235e+01 1.241789e+00 -3.059901e+00
      vertex   -1.109999e+01 1.242645e+00 -3.029950e+00
      vertex   -1.108535e+01 1.302784e+00 -3.059901e+00
    endloop
  endfacet
  facet normal -9.622363e-01 1.104028e-01 -2.488222e-01
    outer loop
      vertex   -1.108535e+01 1.302784e+00 -3.059901e+00
      vertex   -1.109999e+01 1.242645e+00 -3.029950e+00
      vertex   -1.109299e+01 1.303682e+00 -3.029950e+00
    endloop
  endfacet
  facet normal -9.616139e-01 1.156991e-01 -2.488222e-01
    outer loop
      vertex   -1.108535e+01 1.302784e+00 -3.059901e+00
      vertex   -1.109299e+01 1.303682e+00 -3.029950e+00
      vertex   -1.107800e+01 1.363857e+00 -3.059901e+00
    endloop
  endfacet
  facet normal -9.616139e-01 1.156991e-01 -2.488222e-01
    outer loop
      vertex   -1.107800e+01 1.363857e+00 -3.059901e+00
      vertex   -1.109299e+01 1.303682e+00 -3.029950e+00
      vertex   -1.108564e+01 1.364797e+00 -3.029950e+00
    endloop
  endfacet
  facet normal -9.609610e-01 1.210019e-01 -2.488222e-01
    outer loop
      vertex   -1.107800e+01 1.363857e+00 -3.059901e+00
      vertex   -1.108564e+01 1.364797e+00 -3.029950e+00
      vertex   -1.107030e+01 1.425004e+00 -3.059901e+00
    endloop
  endfacet
  facet normal -9.624826e-01 1.024081e-01 -2.512765e-01
    outer loop
      vertex   -1.109756e+01 1.119259e+00 -3.089852e+00
      vertex   -1.110530e+01 1.120039e+00 -3.059901e+00
      vertex   -1.108462e+01 1.240924e+00 -3.089852e+00
    endloop
  endfacet
  facet normal -9.624826e-01 1.024081e-01 -2.512765e-01
    outer loop
      vertex   -1.108462e+01 1.240924e+00 -3.089852e+00
      vertex   -1.110530e+01 1.120039e+00 -3.059901e+00
      vertex   -1.109235e+01 1.241789e+00 -3.059901e+00
    endloop
  endfacet
  facet normal -9.616059e-01 1.103305e-01 -2.512792e-01
    outer loop
      vertex   -1.108462e+01 1.240924e+00 -3.089852e+00
      vertex   -1.109235e+01 1.241789e+00 -3.059901e+00
      vertex   -1.107762e+01 1.301877e+00 -3.089852e+00
    endloop
  endfacet
  facet normal -9.616059e-01 1.103305e-01 -2.512792e-01
    outer loop
      vertex   -1.107762e+01 1.301877e+00 -3.089852e+00
      vertex   -1.109235e+01 1.241789e+00 -3.059901e+00
      vertex   -1.108535e+01 1.302784e+00 -3.059901e+00
    endloop
  endfacet
  facet normal -9.609839e-01 1.156233e-01 -2.512792e-01
    outer loop
      vertex   -1.107762e+01 1.301877e+00 -3.089852e+00
      vertex   -1.108535e+01 1.302784e+00 -3.059901e+00
      vertex   -1.107028e+01 1.362907e+00 -3.089852e+00
    endloop
  endfacet
  facet normal -9.609839e-01 1.156233e-01 -2.512792e-01
    outer loop
      vertex   -1.107028e+01 1.362907e+00 -3.089852e+00
      vertex   -1.108535e+01 1.302784e+00 -3.059901e+00
      vertex   -1.107800e+01 1.363857e+00 -3.059901e+00
    endloop
  endfacet
  facet normal -9.603314e-01 1.209227e-01 -2.512792e-01
    outer loop
      vertex   -1.107028e+01 1.362907e+00 -3.089852e+00
      vertex   -1.107800e+01 1.363857e+00 -3.059901e+00
      vertex   -1.106259e+01 1.424012e+00 -3.089852e+00
    endloop
  endfacet
  facet normal -9.603314e-01 1.209227e-01 -2.512792e-01
    outer loop
      vertex   -1.106259e+01 1.424012e+00 -3.089852e+00
      vertex   -1.107800e+01 1.363857e+00 -3.059901e+00
      vertex   -1.107030e+01 1.425004e+00 -3.059901e+00
    endloop
  endfacet
  facet normal -9.596485e-01 1.262284e-01 -2.512792e-01
    outer loop
      vertex   -1.106259e+01 1.424012e+00 -3.089852e+00
      vertex   -1.107030e+01 1.425004e+00 -3.059901e+00
      vertex   -1.105454e+01 1.485188e+00 -3.089852e+00
    endloop
  endfacet
  facet normal -9.595602e-01 1.020971e-01 -2.623365e-01
    outer loop
      vertex   -1.104477e+01 1.236462e+00 -3.239599e+00
      vertex   -1.105767e+01 1.115235e+00 -3.239599e+00
      vertex   -1.107387e+01 1.116869e+00 -3.179703e+00
    endloop
  endfacet
  facet normal -9.605495e-01 1.022024e-01 -2.586489e-01
    outer loop
      vertex   -1.107387e+01 1.116869e+00 -3.179703e+00
      vertex   -1.108185e+01 1.117674e+00 -3.149753e+00
      vertex   -1.106095e+01 1.238274e+00 -3.179703e+00
    endloop
  endfacet
  facet normal -9.605495e-01 1.022024e-01 -2.586489e-01
    outer loop
      vertex   -1.106095e+01 1.238274e+00 -3.179703e+00
      vertex   -1.108185e+01 1.117674e+00 -3.149753e+00
      vertex   -1.106892e+01 1.239166e+00 -3.149753e+00
    endloop
  endfacet
  facet normal -9.596746e-01 1.101089e-01 -2.586517e-01
    outer loop
      vertex   -1.106095e+01 1.238274e+00 -3.179703e+00
      vertex   -1.106892e+01 1.239166e+00 -3.149753e+00
      vertex   -1.105397e+01 1.299097e+00 -3.179703e+00
    endloop
  endfacet
  facet normal -9.618449e-01 1.023402e-01 -2.537337e-01
    outer loop
      vertex   -1.109756e+01 1.119259e+00 -3.089852e+00
      vertex   -1.108462e+01 1.240924e+00 -3.089852e+00
      vertex   -1.107681e+01 1.240049e+00 -3.119803e+00
    endloop
  endfacet
  facet normal -9.609689e-01 1.102574e-01 -2.537364e-01
    outer loop
      vertex   -1.107681e+01 1.240049e+00 -3.119803e+00
      vertex   -1.108462e+01 1.240924e+00 -3.089852e+00
      vertex   -1.106982e+01 1.300960e+00 -3.119803e+00
    endloop
  endfacet
  facet normal -9.603251e-01 1.101836e-01 -2.561939e-01
    outer loop
      vertex   -1.107681e+01 1.240049e+00 -3.119803e+00
      vertex   -1.106982e+01 1.300960e+00 -3.119803e+00
      vertex   -1.106194e+01 1.300033e+00 -3.149753e+00
    endloop
  endfacet
  facet normal -9.597039e-01 1.154693e-01 -2.561939e-01
    outer loop
      vertex   -1.106194e+01 1.300033e+00 -3.149753e+00
      vertex   -1.106982e+01 1.300960e+00 -3.119803e+00
      vertex   -1.105461e+01 1.360977e+00 -3.149753e+00
    endloop
  endfacet
  facet normal -9.590538e-01 1.153911e-01 -2.586517e-01
    outer loop
      vertex   -1.106194e+01 1.300033e+00 -3.149753e+00
      vertex   -1.105461e+01 1.360977e+00 -3.149753e+00
      vertex   -1.104665e+01 1.359997e+00 -3.179703e+00
    endloop
  endfacet
  facet normal -9.584027e-01 1.206798e-01 -2.586516e-01
    outer loop
      vertex   -1.104665e+01 1.359997e+00 -3.179703e+00
      vertex   -1.105461e+01 1.360977e+00 -3.149753e+00
      vertex   -1.103897e+01 1.420971e+00 -3.179703e+00
    endloop
  endfacet
  facet normal -9.609689e-01 1.102574e-01 -2.537364e-01
    outer loop
      vertex   -1.106982e+01 1.300960e+00 -3.119803e+00
      vertex   -1.108462e+01 1.240924e+00 -3.089852e+00
      vertex   -1.107762e+01 1.301877e+00 -3.089852e+00
    endloop
  endfacet
  facet normal -9.586861e-01 1.099955e-01 -2.623393e-01
    outer loop
      vertex   -1.103780e+01 1.297196e+00 -3.239599e+00
      vertex   -1.104477e+01 1.236462e+00 -3.239599e+00
      vertex   -1.106095e+01 1.238274e+00 -3.179703e+00
    endloop
  endfacet
  facet normal -9.595602e-01 1.020971e-01 -2.623365e-01
    outer loop
      vertex   -1.106095e+01 1.238274e+00 -3.179703e+00
      vertex   -1.104477e+01 1.236462e+00 -3.239599e+00
      vertex   -1.107387e+01 1.116869e+00 -3.179703e+00
    endloop
  endfacet
  facet normal -9.586861e-01 1.099955e-01 -2.623393e-01
    outer loop
      vertex   -1.103780e+01 1.297196e+00 -3.239599e+00
      vertex   -1.106095e+01 1.238274e+00 -3.179703e+00
      vertex   -1.105397e+01 1.299097e+00 -3.179703e+00
    endloop
  endfacet
  facet normal -9.603472e-01 1.155467e-01 -2.537364e-01
    outer loop
      vertex   -1.106982e+01 1.300960e+00 -3.119803e+00
      vertex   -1.107762e+01 1.301877e+00 -3.089852e+00
      vertex   -1.106248e+01 1.361947e+00 -3.119803e+00
    endloop
  endfacet
  facet normal -9.603472e-01 1.155467e-01 -2.537364e-01
    outer loop
      vertex   -1.106248e+01 1.361947e+00 -3.119803e+00
      vertex   -1.107762e+01 1.301877e+00 -3.089852e+00
      vertex   -1.107028e+01 1.362907e+00 -3.089852e+00
    endloop
  endfacet
  facet normal -9.596952e-01 1.208426e-01 -2.537364e-01
    outer loop
      vertex   -1.106248e+01 1.361947e+00 -3.119803e+00
      vertex   -1.107028e+01 1.362907e+00 -3.089852e+00
      vertex   -1.105480e+01 1.423009e+00 -3.119803e+00
    endloop
  endfacet
  facet normal -9.596952e-01 1.208426e-01 -2.537364e-01
    outer loop
      vertex   -1.105480e+01 1.423009e+00 -3.119803e+00
      vertex   -1.107028e+01 1.362907e+00 -3.089852e+00
      vertex   -1.106259e+01 1.424012e+00 -3.089852e+00
    endloop
  endfacet
  facet normal -9.590127e-01 1.261448e-01 -2.537364e-01
    outer loop
      vertex   -1.105480e+01 1.423009e+00 -3.119803e+00
      vertex   -1.106259e+01 1.424012e+00 -3.089852e+00
      vertex   -1.104675e+01 1.484142e+00 -3.119803e+00
    endloop
  endfacet
  facet normal -9.590127e-01 1.261448e-01 -2.537364e-01
    outer loop
      vertex   -1.104675e+01 1.484142e+00 -3.119803e+00
      vertex   -1.106259e+01 1.424012e+00 -3.089852e+00
      vertex   -1.105454e+01 1.485188e+00 -3.089852e+00
    endloop
  endfacet
  facet normal -9.582995e-01 1.314531e-01 -2.537364e-01
    outer loop
      vertex   -1.104675e+01 1.484142e+00 -3.119803e+00
      vertex   -1.105454e+01 1.485188e+00 -3.089852e+00
      vertex   -1.103836e+01 1.545345e+00 -3.119803e+00
    endloop
  endfacet
  facet normal -9.580660e-01 1.152722e-01 -2.623393e-01
    outer loop
      vertex   -1.103048e+01 1.358007e+00 -3.239599e+00
      vertex   -1.103780e+01 1.297196e+00 -3.239599e+00
      vertex   -1.105397e+01 1.299097e+00 -3.179703e+00
    endloop
  endfacet
  facet normal -9.590523e-01 1.207616e-01 -2.561939e-01
    outer loop
      vertex   -1.105480e+01 1.423009e+00 -3.119803e+00
      vertex   -1.104692e+01 1.421995e+00 -3.149753e+00
      vertex   -1.106248e+01 1.361947e+00 -3.119803e+00
    endloop
  endfacet
  facet normal -9.590523e-01 1.207616e-01 -2.561939e-01
    outer loop
      vertex   -1.106248e+01 1.361947e+00 -3.119803e+00
      vertex   -1.104692e+01 1.421995e+00 -3.149753e+00
      vertex   -1.105461e+01 1.360977e+00 -3.149753e+00
    endloop
  endfacet
  facet normal -9.597039e-01 1.154693e-01 -2.561939e-01
    outer loop
      vertex   -1.106248e+01 1.361947e+00 -3.119803e+00
      vertex   -1.105461e+01 1.360977e+00 -3.149753e+00
      vertex   -1.106982e+01 1.300960e+00 -3.119803e+00
    endloop
  endfacet
  facet normal -9.577211e-01 1.259749e-01 -2.586516e-01
    outer loop
      vertex   -1.103094e+01 1.482017e+00 -3.179703e+00
      vertex   -1.103897e+01 1.420971e+00 -3.179703e+00
      vertex   -1.104692e+01 1.421995e+00 -3.149753e+00
    endloop
  endfacet
  facet normal -9.584027e-01 1.206798e-01 -2.586516e-01
    outer loop
      vertex   -1.104692e+01 1.421995e+00 -3.149753e+00
      vertex   -1.103897e+01 1.420971e+00 -3.179703e+00
      vertex   -1.105461e+01 1.360977e+00 -3.149753e+00
    endloop
  endfacet
  facet normal -9.583702e-01 1.260603e-01 -2.561939e-01
    outer loop
      vertex   -1.104692e+01 1.421995e+00 -3.149753e+00
      vertex   -1.105480e+01 1.423009e+00 -3.119803e+00
      vertex   -1.103889e+01 1.483085e+00 -3.149753e+00
    endloop
  endfacet
  facet normal -9.583702e-01 1.260603e-01 -2.561939e-01
    outer loop
      vertex   -1.103889e+01 1.483085e+00 -3.149753e+00
      vertex   -1.105480e+01 1.423009e+00 -3.119803e+00
      vertex   -1.104675e+01 1.484142e+00 -3.119803e+00
    endloop
  endfacet
  facet normal -9.576575e-01 1.313650e-01 -2.561939e-01
    outer loop
      vertex   -1.103889e+01 1.483085e+00 -3.149753e+00
      vertex   -1.104675e+01 1.484142e+00 -3.119803e+00
      vertex   -1.103050e+01 1.544244e+00 -3.149753e+00
    endloop
  endfacet
  facet normal -9.576575e-01 1.313650e-01 -2.561939e-01
    outer loop
      vertex   -1.103050e+01 1.544244e+00 -3.149753e+00
      vertex   -1.104675e+01 1.484142e+00 -3.119803e+00
      vertex   -1.103836e+01 1.545345e+00 -3.119803e+00
    endloop
  endfacet
  facet normal -9.569140e-01 1.366756e-01 -2.561939e-01
    outer loop
      vertex   -1.103050e+01 1.544244e+00 -3.149753e+00
      vertex   -1.103836e+01 1.545345e+00 -3.119803e+00
      vertex   -1.102175e+01 1.605469e+00 -3.149753e+00
    endloop
  endfacet
  facet normal -9.595634e-01 1.316264e-01 -2.488222e-01
    outer loop
      vertex   -1.106987e+01 1.487248e+00 -3.029950e+00
      vertex   -1.106146e+01 1.548579e+00 -3.029950e+00
      vertex   -1.105384e+01 1.547512e+00 -3.059901e+00
    endloop
  endfacet
  facet normal -9.588185e-01 1.369476e-01 -2.488222e-01
    outer loop
      vertex   -1.105384e+01 1.547512e+00 -3.059901e+00
      vertex   -1.106146e+01 1.548579e+00 -3.029950e+00
      vertex   -1.104508e+01 1.608866e+00 -3.059901e+00
    endloop
  endfacet
  facet normal -9.581903e-01 1.368579e-01 -2.512792e-01
    outer loop
      vertex   -1.105384e+01 1.547512e+00 -3.059901e+00
      vertex   -1.104508e+01 1.608866e+00 -3.059901e+00
      vertex   -1.103738e+01 1.607746e+00 -3.089852e+00
    endloop
  endfacet
  facet normal -9.574149e-01 1.421812e-01 -2.512792e-01
    outer loop
      vertex   -1.103738e+01 1.607746e+00 -3.089852e+00
      vertex   -1.104508e+01 1.608866e+00 -3.059901e+00
      vertex   -1.102827e+01 1.669121e+00 -3.089852e+00
    endloop
  endfacet
  facet normal -9.567806e-01 1.420870e-01 -2.537364e-01
    outer loop
      vertex   -1.103738e+01 1.607746e+00 -3.089852e+00
      vertex   -1.102827e+01 1.669121e+00 -3.089852e+00
      vertex   -1.102050e+01 1.667945e+00 -3.119803e+00
    endloop
  endfacet
  facet normal -9.559746e-01 1.474122e-01 -2.537364e-01
    outer loop
      vertex   -1.102050e+01 1.667945e+00 -3.119803e+00
      vertex   -1.102827e+01 1.669121e+00 -3.089852e+00
      vertex   -1.101103e+01 1.729338e+00 -3.119803e+00
    endloop
  endfacet
  facet normal -9.553342e-01 1.473134e-01 -2.561939e-01
    outer loop
      vertex   -1.102050e+01 1.667945e+00 -3.119803e+00
      vertex   -1.101103e+01 1.729338e+00 -3.119803e+00
      vertex   -1.100319e+01 1.728106e+00 -3.149753e+00
    endloop
  endfacet
  facet normal -9.570088e-01 1.312760e-01 -2.586516e-01
    outer loop
      vertex   -1.103050e+01 1.544244e+00 -3.149753e+00
      vertex   -1.102256e+01 1.543132e+00 -3.179703e+00
      vertex   -1.103889e+01 1.483085e+00 -3.149753e+00
    endloop
  endfacet
  facet normal -9.570088e-01 1.312760e-01 -2.586516e-01
    outer loop
      vertex   -1.103889e+01 1.483085e+00 -3.149753e+00
      vertex   -1.102256e+01 1.543132e+00 -3.179703e+00
      vertex   -1.103094e+01 1.482017e+00 -3.179703e+00
    endloop
  endfacet
  facet normal -9.577211e-01 1.259749e-01 -2.586516e-01
    outer loop
      vertex   -1.103889e+01 1.483085e+00 -3.149753e+00
      vertex   -1.103094e+01 1.482017e+00 -3.179703e+00
      vertex   -1.104692e+01 1.421995e+00 -3.149753e+00
    endloop
  endfacet
  facet normal -9.562659e-01 1.365830e-01 -2.586516e-01
    outer loop
      vertex   -1.102256e+01 1.543132e+00 -3.179703e+00
      vertex   -1.103050e+01 1.544244e+00 -3.149753e+00
      vertex   -1.101382e+01 1.604313e+00 -3.179703e+00
    endloop
  endfacet
  facet normal -9.562659e-01 1.365830e-01 -2.586516e-01
    outer loop
      vertex   -1.101382e+01 1.604313e+00 -3.179703e+00
      vertex   -1.103050e+01 1.544244e+00 -3.149753e+00
      vertex   -1.102175e+01 1.605469e+00 -3.149753e+00
    endloop
  endfacet
  facet normal -9.554920e-01 1.418957e-01 -2.586516e-01
    outer loop
      vertex   -1.101382e+01 1.604313e+00 -3.179703e+00
      vertex   -1.102175e+01 1.605469e+00 -3.149753e+00
      vertex   -1.100472e+01 1.665557e+00 -3.179703e+00
    endloop
  endfacet
  facet normal -9.580425e-01 1.422744e-01 -2.488222e-01
    outer loop
      vertex   -1.105269e+01 1.609976e+00 -3.029950e+00
      vertex   -1.103596e+01 1.670285e+00 -3.059901e+00
      vertex   -1.104508e+01 1.608866e+00 -3.059901e+00
    endloop
  endfacet
  facet normal -9.574149e-01 1.421812e-01 -2.512792e-01
    outer loop
      vertex   -1.104508e+01 1.608866e+00 -3.059901e+00
      vertex   -1.103596e+01 1.670285e+00 -3.059901e+00
      vertex   -1.102827e+01 1.669121e+00 -3.089852e+00
    endloop
  endfacet
  facet normal -9.559746e-01 1.474122e-01 -2.537364e-01
    outer loop
      vertex   -1.101103e+01 1.729338e+00 -3.119803e+00
      vertex   -1.102827e+01 1.669121e+00 -3.089852e+00
      vertex   -1.101879e+01 1.730557e+00 -3.089852e+00
    endloop
  endfacet
  facet normal -9.566084e-01 1.475099e-01 -2.512792e-01
    outer loop
      vertex   -1.101879e+01 1.730557e+00 -3.089852e+00
      vertex   -1.102827e+01 1.669121e+00 -3.089852e+00
      vertex   -1.103596e+01 1.670285e+00 -3.059901e+00
    endloop
  endfacet
  facet normal -9.588185e-01 1.369476e-01 -2.488222e-01
    outer loop
      vertex   -1.106146e+01 1.548579e+00 -3.029950e+00
      vertex   -1.105269e+01 1.609976e+00 -3.029950e+00
      vertex   -1.104508e+01 1.608866e+00 -3.059901e+00
    endloop
  endfacet
  facet normal 1.000000e+00 7.248509e-11 -0.000000e+00
    outer loop
      vertex   -1.100000e+01 1.000000e+00 -3.479085e+00
      vertex   -1.100000e+01 1.065408e+00 -3.458414e+00
      vertex   -1.100000e+01 1.000000e+00 -3.000000e+00
    endloop
  endfacet
  facet normal 1.000000e+00 -4.125395e-12 -1.093102e-11
    outer loop
      vertex   -1.100000e+01 1.000000e+00 -3.000000e+00
      vertex   -1.100000e+01 1.065408e+00 -3.458414e+00
      vertex   -1.100000e+01 1.130368e+00 -3.436453e+00
    endloop
  endfacet
  facet normal 1.000000e+00 -7.089342e-12 -1.181635e-11
    outer loop
      vertex   -1.100000e+01 1.000000e+00 -3.000000e+00
      vertex   -1.100000e+01 1.130368e+00 -3.436453e+00
      vertex   -1.100000e+01 1.194864e+00 -3.413212e+00
    endloop
  endfacet
  facet normal 1.000000e+00 -8.463488e-12 -1.246437e-11
    outer loop
      vertex   -1.100000e+01 1.194864e+00 -3.413212e+00
      vertex   -1.100000e+01 1.258878e+00 -3.388699e+00
      vertex   -1.100000e+01 1.000000e+00 -3.000000e+00
    endloop
  endfacet
  facet normal 1.000000e+00 -8.606914e-12 -1.255990e-11
    outer loop
      vertex   -1.100000e+01 1.000000e+00 -3.000000e+00
      vertex   -1.100000e+01 1.258878e+00 -3.388699e+00
      vertex   -1.100000e+01 1.322392e+00 -3.362922e+00
    endloop
  endfacet
  facet normal 1.000000e+00 -7.558213e-12 -1.162831e-11
    outer loop
      vertex   -1.100000e+01 1.000000e+00 -3.000000e+00
      vertex   -1.100000e+01 1.322392e+00 -3.362922e+00
      vertex   -1.100000e+01 1.385390e+00 -3.335891e+00
    endloop
  endfacet
  facet normal 1.000000e+00 -5.576418e-12 -9.354466e-12
    outer loop
      vertex   -1.100000e+01 1.385390e+00 -3.335891e+00
      vertex   -1.100000e+01 1.447853e+00 -3.307613e+00
      vertex   -1.100000e+01 1.000000e+00 -3.000000e+00
    endloop
  endfacet
  facet normal 1.000000e+00 -2.887135e-12 -5.439146e-12
    outer loop
      vertex   -1.100000e+01 1.000000e+00 -3.000000e+00
      vertex   -1.100000e+01 1.447853e+00 -3.307613e+00
      vertex   -1.100000e+01 1.509765e+00 -3.278098e+00
    endloop
  endfacet
  facet normal 1.000000e+00 -2.937376e-13 -6.853456e-13
    outer loop
      vertex   -1.100000e+01 1.000000e+00 -3.000000e+00
      vertex   -1.100000e+01 1.509765e+00 -3.278098e+00
      vertex   -1.100000e+01 1.571094e+00 -3.247362e+00
    endloop
  endfacet
  facet normal 1.000000e+00 1.705903e-15 -3.242728e-15
    outer loop
      vertex   -1.100000e+01 1.571094e+00 -3.247362e+00
      vertex   -1.100000e+01 1.631762e+00 -3.215446e+00
      vertex   -1.100000e+01 1.000000e+00 -3.000000e+00
    endloop
  endfacet
  facet normal 1.000000e+00 1.737330e-15 -3.150572e-15
    outer loop
      vertex   -1.100000e+01 1.000000e+00 -3.000000e+00
      vertex   -1.100000e+01 1.631762e+00 -3.215446e+00
      vertex   -1.100000e+01 1.691747e+00 -3.182368e+00
    endloop
  endfacet
  facet normal 1.000000e+00 1.762877e-15 -3.053669e-15
    outer loop
      vertex   -1.100000e+01 1.000000e+00 -3.000000e+00
      vertex   -1.100000e+01 1.691747e+00 -3.182368e+00
      vertex   -1.100000e+01 1.751035e+00 -3.148141e+00
    endloop
  endfacet
  facet normal 1.000000e+00 -5.685345e-15 -4.081415e-14
    outer loop
      vertex   -1.100000e+01 1.751035e+00 -3.148141e+00
      vertex   -1.100000e+01 1.809613e+00 -3.112778e+00
      vertex   -1.100000e+01 1.000000e+00 -3.000000e+00
    endloop
  endfacet
  facet normal 1.000000e+00 5.554865e-15 3.987745e-14
    outer loop
      vertex   -1.100000e+01 1.000000e+00 -3.000000e+00
      vertex   -1.100000e+01 1.809613e+00 -3.112778e+00
      vertex   -1.100000e+01 1.867466e+00 -3.076291e+00
    endloop
  endfacet
  facet normal 1.000000e+00 -1.859138e-15 -4.442317e-14
    outer loop
      vertex   -1.100000e+01 1.000000e+00 -3.000000e+00
      vertex   -1.100000e+01 1.867466e+00 -3.076291e+00
      vertex   -1.100000e+01 1.924580e+00 -3.038694e+00
    endloop
  endfacet
  facet normal 1.000000e+00 0.000000e+00 -0.000000e+00
    outer loop
      vertex   -1.100000e+01 1.924580e+00 -3.038694e+00
      vertex   -1.100000e+01 1.980941e+00 -3.000000e+00
      vertex   -1.100000e+01 1.000000e+00 -3.000000e+00
    endloop
  endfacet
  facet normal 0.000000e+00 0.000000e+00 1.000000e+00
    outer loop
      vertex   -1.100000e+01 1.980941e+00 -3.000000e+00
      vertex   -1.102126e+01 1.859004e+00 -3.000000e+00
      vertex   -1.100000e+01 1.000000e+00 -3.000000e+00
    endloop
  endfacet
  facet normal 0.000000e+00 0.000000e+00 1.000000e+00
    outer loop
      vertex   -1.100000e+01 1.000000e+00 -3.000000e+00
      vertex   -1.102126e+01 1.859004e+00 -3.000000e+00
      vertex   -1.104117e+01 1.736851e+00 -3.000000e+00
    endloop
  endfacet
  facet normal 0.000000e+00 0.000000e+00 1.000000e+00
    outer loop
      vertex   -1.100000e+01 1.000000e+00 -3.000000e+00
      vertex   -1.104117e+01 1.736851e+00 -3.000000e+00
      vertex   -1.105973e+01 1.614491e+00 -3.000000e+00
    endloop
  endfacet
  facet normal 0.000000e+00 0.000000e+00 1.000000e+00
    outer loop
      vertex   -1.105973e+01 1.614491e+00 -3.000000e+00
      vertex   -1.107692e+01 1.491937e+00 -3.000000e+00
      vertex   -1.100000e+01 1.000000e+00 -3.000000e+00
    endloop
  endfacet
  facet normal 0.000000e+00 0.000000e+00 1.000000e+00
    outer loop
      vertex   -1.100000e+01 1.000000e+00 -3.000000e+00
      vertex   -1.107692e+01 1.491937e+00 -3.000000e+00
      vertex   -1.109276e+01 1.369200e+00 -3.000000e+00
    endloop
  endfacet
  facet normal 0.000000e+00 0.000000e+00 1.000000e+00
    outer loop
      vertex   -1.100000e+01 1.000000e+00 -3.000000e+00
      vertex   -1.109276e+01 1.369200e+00 -3.000000e+00
      vertex   -1.110724e+01 1.246290e+00 -3.000000e+00
    endloop
  endfacet
  facet normal -6.657069e-15 -2.898761e-15 1.000000e+00
    outer loop
      vertex   -1.110724e+01 1.246290e+00 -3.000000e+00
      vertex   -1.112036e+01 1.123220e+00 -3.000000e+00
      vertex   -1.100000e+01 1.000000e+00 -3.000000e+00
    endloop
  endfacet
  facet normal 0.000000e+00 3.604042e-15 1.000000e+00
    outer loop
      vertex   -1.100000e+01 1.000000e+00 -3.000000e+00
      vertex   -1.112036e+01 1.123220e+00 -3.000000e+00
      vertex   -1.113212e+01 1.000000e+00 -3.000000e+00
    endloop
  endfacet
  facet normal 0.000000e+00 -1.000000e+00 0.000000e+00
    outer loop
      vertex   -1.113212e+01 1.000000e+00 -3.000000e+00
      vertex   -1.110093e+01 1.000000e+00 -3.120283e+00
      vertex   -1.100000e+01 1.000000e+00 -3.000000e+00
    endloop
  endfacet
  facet normal 1.668661e-15 -1.000000e+00 -1.400166e-15
    outer loop
      vertex   -1.100000e+01 1.000000e+00 -3.000000e+00
      vertex   -1.110093e+01 1.000000e+00 -3.120283e+00
      vertex   -1.106851e+01 1.000000e+00 -3.240232e+00
    endloop
  endfacet
  facet normal -4.908934e-15 -1.000000e+00 4.756481e-16
    outer loop
      vertex   -1.100000e+01 1.000000e+00 -3.000000e+00
      vertex   -1.106851e+01 1.000000e+00 -3.240232e+00
      vertex   -1.103487e+01 1.000000e+00 -3.359836e+00
    endloop
  endfacet
  facet normal 0.000000e+00 -1.000000e+00 0.000000e+00
    outer loop
      vertex   -1.103487e+01 1.000000e+00 -3.359836e+00
      vertex   -1.100000e+01 1.000000e+00 -3.479085e+00
      vertex   -1.100000e+01 1.000000e+00 -3.000000e+00
    endloop
  endfacet
endsolid
