solid ASCII
  facet normal 7.111904e-01 -4.907563e-01 5.033553e-01
    outer loop
      vertex   -8.000000e+00 5.340009e+00 -6.000000e+00
      vertex   -8.058017e+00 5.255933e+00 -6.000000e+00
      vertex   -8.000000e+00 5.256750e+00 -6.081175e+00
    endloop
  endfacet
  facet normal 7.124399e-01 -4.879906e-01 5.042762e-01
    outer loop
      vertex   -8.000000e+00 5.256750e+00 -6.081175e+00
      vertex   -8.058017e+00 5.255933e+00 -6.000000e+00
      vertex   -8.019055e+00 5.230354e+00 -6.079797e+00
    endloop
  endfacet
  facet normal 7.088482e-01 -4.849854e-01 5.121752e-01
    outer loop
      vertex   -8.000000e+00 5.256750e+00 -6.081175e+00
      vertex   -8.019055e+00 5.230354e+00 -6.079797e+00
      vertex   -8.000000e+00 5.172321e+00 -6.161122e+00
    endloop
  endfacet
  facet normal 7.114416e-01 -4.824493e-01 5.109732e-01
    outer loop
      vertex   -8.000000e+00 5.172321e+00 -6.161122e+00
      vertex   -8.019055e+00 5.230354e+00 -6.079797e+00
      vertex   -8.047650e+00 5.188187e+00 -6.079797e+00
    endloop
  endfacet
  facet normal 7.119717e-01 -4.815277e-01 5.111040e-01
    outer loop
      vertex   -8.000000e+00 5.172321e+00 -6.161122e+00
      vertex   -8.047650e+00 5.188187e+00 -6.079797e+00
      vertex   -8.007916e+00 5.162571e+00 -6.159280e+00
    endloop
  endfacet
  facet normal 7.139560e-01 -4.785472e-01 5.111354e-01
    outer loop
      vertex   -8.007916e+00 5.162571e+00 -6.159280e+00
      vertex   -8.047650e+00 5.188187e+00 -6.079797e+00
      vertex   -8.075860e+00 5.146100e+00 -6.079797e+00
    endloop
  endfacet
  facet normal 7.139574e-01 -4.785428e-01 5.111375e-01
    outer loop
      vertex   -8.007916e+00 5.162571e+00 -6.159280e+00
      vertex   -8.075860e+00 5.146100e+00 -6.079797e+00
      vertex   -8.036040e+00 5.120613e+00 -6.159280e+00
    endloop
  endfacet
  facet normal 7.177799e-01 -4.727337e-01 5.111897e-01
    outer loop
      vertex   -8.036040e+00 5.120613e+00 -6.159280e+00
      vertex   -8.075860e+00 5.146100e+00 -6.079797e+00
      vertex   -8.131757e+00 5.061228e+00 -6.079797e+00
    endloop
  endfacet
  facet normal 7.177804e-01 -4.727254e-01 5.111966e-01
    outer loop
      vertex   -8.036040e+00 5.120613e+00 -6.159280e+00
      vertex   -8.131757e+00 5.061228e+00 -6.079797e+00
      vertex   -8.091642e+00 5.036188e+00 -6.159280e+00
    endloop
  endfacet
  facet normal 7.213932e-01 -4.671280e-01 5.112565e-01
    outer loop
      vertex   -8.091642e+00 5.036188e+00 -6.159280e+00
      vertex   -8.131757e+00 5.061228e+00 -6.079797e+00
      vertex   -8.114776e+00 5.000000e+00 -6.159702e+00
    endloop
  endfacet
  facet normal 7.180110e-01 -4.650429e-01 5.178758e-01
    outer loop
      vertex   -8.091642e+00 5.036188e+00 -6.159280e+00
      vertex   -8.114776e+00 5.000000e+00 -6.159702e+00
      vertex   -8.057758e+00 5.000000e+00 -6.238754e+00
    endloop
  endfacet
  facet normal 7.146926e-01 -4.846539e-01 5.043066e-01
    outer loop
      vertex   -8.019055e+00 5.230354e+00 -6.079797e+00
      vertex   -8.058017e+00 5.255933e+00 -6.000000e+00
      vertex   -8.047650e+00 5.188187e+00 -6.079797e+00
    endloop
  endfacet
  facet normal 7.165154e-01 -4.830920e-01 5.032174e-01
    outer loop
      vertex   -8.047650e+00 5.188187e+00 -6.079797e+00
      vertex   -8.058017e+00 5.255933e+00 -6.000000e+00
      vertex   -8.115123e+00 5.171234e+00 -6.000000e+00
    endloop
  endfacet
  facet normal 7.172763e-01 -4.807726e-01 5.043535e-01
    outer loop
      vertex   -8.047650e+00 5.188187e+00 -6.079797e+00
      vertex   -8.115123e+00 5.171234e+00 -6.000000e+00
      vertex   -8.075860e+00 5.146100e+00 -6.079797e+00
    endloop
  endfacet
  facet normal 7.211157e-01 -4.749394e-01 5.044053e-01
    outer loop
      vertex   -8.075860e+00 5.146100e+00 -6.079797e+00
      vertex   -8.115123e+00 5.171234e+00 -6.000000e+00
      vertex   -8.171311e+00 5.085921e+00 -6.000000e+00
    endloop
  endfacet
  facet normal 7.211163e-01 -4.749311e-01 5.044123e-01
    outer loop
      vertex   -8.075860e+00 5.146100e+00 -6.079797e+00
      vertex   -8.171311e+00 5.085921e+00 -6.000000e+00
      vertex   -8.131757e+00 5.061228e+00 -6.079797e+00
    endloop
  endfacet
  facet normal 7.254671e-01 -4.681840e-01 5.044811e-01
    outer loop
      vertex   -8.131757e+00 5.061228e+00 -6.079797e+00
      vertex   -8.171311e+00 5.085921e+00 -6.000000e+00
      vertex   -8.171050e+00 5.000000e+00 -6.080115e+00
    endloop
  endfacet
  facet normal 7.223414e-01 -4.662106e-01 5.107550e-01
    outer loop
      vertex   -8.131757e+00 5.061228e+00 -6.079797e+00
      vertex   -8.171050e+00 5.000000e+00 -6.080115e+00
      vertex   -8.114776e+00 5.000000e+00 -6.159702e+00
    endloop
  endfacet
  facet normal 7.266017e-01 -4.673652e-01 5.036067e-01
    outer loop
      vertex   -8.171311e+00 5.085921e+00 -6.000000e+00
      vertex   -8.226578e+00 5.000000e+00 -6.000000e+00
      vertex   -8.171050e+00 5.000000e+00 -6.080115e+00
    endloop
  endfacet
  facet normal 7.172822e-01 -4.660180e-01 5.180091e-01
    outer loop
      vertex   -8.091642e+00 5.036188e+00 -6.159280e+00
      vertex   -8.057758e+00 5.000000e+00 -6.238754e+00
      vertex   -8.050968e+00 5.010800e+00 -6.238439e+00
    endloop
  endfacet
  facet normal 7.135938e-01 -4.639017e-01 5.249564e-01
    outer loop
      vertex   -8.050968e+00 5.010800e+00 -6.238439e+00
      vertex   -8.057758e+00 5.000000e+00 -6.238754e+00
      vertex   -8.000000e+00 5.000000e+00 -6.317267e+00
    endloop
  endfacet
  facet normal 7.114937e-01 -4.680084e-01 5.241611e-01
    outer loop
      vertex   -8.050968e+00 5.010800e+00 -6.238439e+00
      vertex   -8.000000e+00 5.000000e+00 -6.317267e+00
      vertex   -8.000000e+00 5.086734e+00 -6.239824e+00
    endloop
  endfacet
  facet normal 7.101903e-01 -4.765308e-01 5.182163e-01
    outer loop
      vertex   -8.000000e+00 5.172321e+00 -6.161122e+00
      vertex   -8.036040e+00 5.120613e+00 -6.159280e+00
      vertex   -8.000000e+00 5.086734e+00 -6.239824e+00
    endloop
  endfacet
  facet normal 7.145400e-01 -4.705913e-01 5.176643e-01
    outer loop
      vertex   -8.000000e+00 5.086734e+00 -6.239824e+00
      vertex   -8.036040e+00 5.120613e+00 -6.159280e+00
      vertex   -8.091642e+00 5.036188e+00 -6.159280e+00
    endloop
  endfacet
  facet normal 7.145842e-01 -4.701958e-01 5.179627e-01
    outer loop
      vertex   -8.000000e+00 5.086734e+00 -6.239824e+00
      vertex   -8.091642e+00 5.036188e+00 -6.159280e+00
      vertex   -8.050968e+00 5.010800e+00 -6.238439e+00
    endloop
  endfacet
  facet normal 7.050465e-01 -4.725701e-01 5.287598e-01
    outer loop
      vertex   -8.036040e+00 5.120613e+00 -6.159280e+00
      vertex   -8.000000e+00 5.172321e+00 -6.161122e+00
      vertex   -8.007916e+00 5.162571e+00 -6.159280e+00
    endloop
  endfacet
  facet normal -7.482155e-01 4.398493e-01 -4.966952e-01
    outer loop
      vertex   -8.556619e+00 5.000000e+00 -6.111597e+00
      vertex   -8.630701e+00 5.000000e+00 -6.000000e+00
      vertex   -8.530966e+00 5.107302e+00 -6.055219e+00
    endloop
  endfacet
  facet normal -7.485394e-01 4.408667e-01 -4.953032e-01
    outer loop
      vertex   -8.530966e+00 5.107302e+00 -6.055219e+00
      vertex   -8.630701e+00 5.000000e+00 -6.000000e+00
      vertex   -8.557922e+00 5.123570e+00 -6.000000e+00
    endloop
  endfacet
  facet normal -7.421196e-01 4.515688e-01 -4.953223e-01
    outer loop
      vertex   -8.530966e+00 5.107302e+00 -6.055219e+00
      vertex   -8.557922e+00 5.123570e+00 -6.000000e+00
      vertex   -8.456660e+00 5.229417e+00 -6.055219e+00
    endloop
  endfacet
  facet normal -7.421236e-01 4.515820e-01 -4.953043e-01
    outer loop
      vertex   -8.456660e+00 5.229417e+00 -6.055219e+00
      vertex   -8.557922e+00 5.123570e+00 -6.000000e+00
      vertex   -8.483387e+00 5.246060e+00 -6.000000e+00
    endloop
  endfacet
  facet normal -7.355884e-01 4.621329e-01 -4.953211e-01
    outer loop
      vertex   -8.456660e+00 5.229417e+00 -6.055219e+00
      vertex   -8.483387e+00 5.246060e+00 -6.000000e+00
      vertex   -8.381458e+00 5.349119e+00 -6.055219e+00
    endloop
  endfacet
  facet normal -7.356190e-01 4.622422e-01 -4.951736e-01
    outer loop
      vertex   -8.381458e+00 5.349119e+00 -6.055219e+00
      vertex   -8.483387e+00 5.246060e+00 -6.000000e+00
      vertex   -8.407109e+00 5.367450e+00 -6.000000e+00
    endloop
  endfacet
  facet normal -7.288459e-01 4.725581e-01 -4.954518e-01
    outer loop
      vertex   -8.381458e+00 5.349119e+00 -6.055219e+00
      vertex   -8.407109e+00 5.367450e+00 -6.000000e+00
      vertex   -8.303743e+00 5.468981e+00 -6.055219e+00
    endloop
  endfacet
  facet normal -7.289015e-01 4.727685e-01 -4.951692e-01
    outer loop
      vertex   -8.303743e+00 5.468981e+00 -6.055219e+00
      vertex   -8.407109e+00 5.367450e+00 -6.000000e+00
      vertex   -8.329100e+00 5.487722e+00 -6.000000e+00
    endloop
  endfacet
  facet normal -7.219754e-01 4.829852e-01 -4.954562e-01
    outer loop
      vertex   -8.303743e+00 5.468981e+00 -6.055219e+00
      vertex   -8.329100e+00 5.487722e+00 -6.000000e+00
      vertex   -8.224221e+00 5.587853e+00 -6.055219e+00
    endloop
  endfacet
  facet normal -7.220270e-01 4.831921e-01 -4.951791e-01
    outer loop
      vertex   -8.224221e+00 5.587853e+00 -6.055219e+00
      vertex   -8.329100e+00 5.487722e+00 -6.000000e+00
      vertex   -8.249372e+00 5.606859e+00 -6.000000e+00
    endloop
  endfacet
  facet normal -7.149260e-01 4.933687e-01 -4.954473e-01
    outer loop
      vertex   -8.224221e+00 5.587853e+00 -6.055219e+00
      vertex   -8.249372e+00 5.606859e+00 -6.000000e+00
      vertex   -8.142262e+00 5.706617e+00 -6.055219e+00
    endloop
  endfacet
  facet normal -7.149529e-01 4.934810e-01 -4.952967e-01
    outer loop
      vertex   -8.142262e+00 5.706617e+00 -6.055219e+00
      vertex   -8.249372e+00 5.606859e+00 -6.000000e+00
      vertex   -8.167938e+00 5.724840e+00 -6.000000e+00
    endloop
  endfacet
  facet normal -7.077815e-01 5.036815e-01 -4.953285e-01
    outer loop
      vertex   -8.142262e+00 5.706617e+00 -6.055219e+00
      vertex   -8.167938e+00 5.724840e+00 -6.000000e+00
      vertex   -8.059408e+00 5.823045e+00 -6.055219e+00
    endloop
  endfacet
  facet normal -7.077870e-01 5.037062e-01 -4.952955e-01
    outer loop
      vertex   -8.059408e+00 5.823045e+00 -6.055219e+00
      vertex   -8.167938e+00 5.724840e+00 -6.000000e+00
      vertex   -8.084810e+00 5.841648e+00 -6.000000e+00
    endloop
  endfacet
  facet normal -7.015594e-01 5.123113e-01 -4.953298e-01
    outer loop
      vertex   -8.059408e+00 5.823045e+00 -6.055219e+00
      vertex   -8.084810e+00 5.841648e+00 -6.000000e+00
      vertex   -8.000000e+00 5.901391e+00 -6.058329e+00
    endloop
  endfacet
  facet normal -7.015474e-01 5.146158e-01 -4.929521e-01
    outer loop
      vertex   -8.000000e+00 5.901391e+00 -6.058329e+00
      vertex   -8.084810e+00 5.841648e+00 -6.000000e+00
      vertex   -8.000000e+00 5.957265e+00 -6.000000e+00
    endloop
  endfacet
  facet normal -6.999923e-01 5.109811e-01 -4.989079e-01
    outer loop
      vertex   -8.000000e+00 5.901391e+00 -6.058329e+00
      vertex   -8.000000e+00 5.844973e+00 -6.116112e+00
      vertex   -8.059408e+00 5.823045e+00 -6.055219e+00
    endloop
  endfacet
  facet normal -7.004423e-01 5.093635e-01 -4.999294e-01
    outer loop
      vertex   -8.059408e+00 5.823045e+00 -6.055219e+00
      vertex   -8.000000e+00 5.844973e+00 -6.116112e+00
      vertex   -8.033754e+00 5.804261e+00 -6.110301e+00
    endloop
  endfacet
  facet normal -7.056461e-01 5.021618e-01 -4.998971e-01
    outer loop
      vertex   -8.059408e+00 5.823045e+00 -6.055219e+00
      vertex   -8.033754e+00 5.804261e+00 -6.110301e+00
      vertex   -8.142262e+00 5.706617e+00 -6.055219e+00
    endloop
  endfacet
  facet normal -7.056404e-01 5.021371e-01 -4.999299e-01
    outer loop
      vertex   -8.142262e+00 5.706617e+00 -6.055219e+00
      vertex   -8.033754e+00 5.804261e+00 -6.110301e+00
      vertex   -8.116332e+00 5.688216e+00 -6.110301e+00
    endloop
  endfacet
  facet normal -7.128242e-01 4.919182e-01 -4.998981e-01
    outer loop
      vertex   -8.142262e+00 5.706617e+00 -6.055219e+00
      vertex   -8.116332e+00 5.688216e+00 -6.110301e+00
      vertex   -8.224221e+00 5.587853e+00 -6.055219e+00
    endloop
  endfacet
  facet normal -7.128206e-01 4.919037e-01 -4.999175e-01
    outer loop
      vertex   -8.224221e+00 5.587853e+00 -6.055219e+00
      vertex   -8.116332e+00 5.688216e+00 -6.110301e+00
      vertex   -8.197945e+00 5.569951e+00 -6.110301e+00
    endloop
  endfacet
  facet normal -7.198510e-01 4.815640e-01 -4.999106e-01
    outer loop
      vertex   -8.224221e+00 5.587853e+00 -6.055219e+00
      vertex   -8.197945e+00 5.569951e+00 -6.110301e+00
      vertex   -8.303743e+00 5.468981e+00 -6.055219e+00
    endloop
  endfacet
  facet normal -7.198503e-01 4.815614e-01 -4.999141e-01
    outer loop
      vertex   -8.303743e+00 5.468981e+00 -6.055219e+00
      vertex   -8.197945e+00 5.569951e+00 -6.110301e+00
      vertex   -8.277190e+00 5.451493e+00 -6.110301e+00
    endloop
  endfacet
  facet normal -7.266975e-01 4.711652e-01 -4.999142e-01
    outer loop
      vertex   -8.303743e+00 5.468981e+00 -6.055219e+00
      vertex   -8.277190e+00 5.451493e+00 -6.110301e+00
      vertex   -8.381458e+00 5.349119e+00 -6.055219e+00
    endloop
  endfacet
  facet normal -7.266975e-01 4.711652e-01 -4.999142e-01
    outer loop
      vertex   -8.381458e+00 5.349119e+00 -6.055219e+00
      vertex   -8.277190e+00 5.451493e+00 -6.110301e+00
      vertex   -8.354656e+00 5.332014e+00 -6.110301e+00
    endloop
  endfacet
  facet normal -7.333570e-01 4.607310e-01 -4.999144e-01
    outer loop
      vertex   -8.381458e+00 5.349119e+00 -6.055219e+00
      vertex   -8.354656e+00 5.332014e+00 -6.110301e+00
      vertex   -8.456660e+00 5.229417e+00 -6.055219e+00
    endloop
  endfacet
  facet normal -7.333553e-01 4.607249e-01 -4.999225e-01
    outer loop
      vertex   -8.456660e+00 5.229417e+00 -6.055219e+00
      vertex   -8.354656e+00 5.332014e+00 -6.110301e+00
      vertex   -8.429670e+00 5.212612e+00 -6.110301e+00
    endloop
  endfacet
  facet normal -7.398732e-01 4.502019e-01 -4.999059e-01
    outer loop
      vertex   -8.456660e+00 5.229417e+00 -6.055219e+00
      vertex   -8.429670e+00 5.212612e+00 -6.110301e+00
      vertex   -8.530966e+00 5.107302e+00 -6.055219e+00
    endloop
  endfacet
  facet normal -7.398692e-01 4.501888e-01 -4.999236e-01
    outer loop
      vertex   -8.530966e+00 5.107302e+00 -6.055219e+00
      vertex   -8.429670e+00 5.212612e+00 -6.110301e+00
      vertex   -8.503743e+00 5.090875e+00 -6.110301e+00
    endloop
  endfacet
  facet normal -7.454614e-01 4.408807e-01 -4.999115e-01
    outer loop
      vertex   -8.530966e+00 5.107302e+00 -6.055219e+00
      vertex   -8.503743e+00 5.090875e+00 -6.110301e+00
      vertex   -8.556619e+00 5.000000e+00 -6.111597e+00
    endloop
  endfacet
  facet normal -7.431275e-01 4.395882e-01 -5.045035e-01
    outer loop
      vertex   -8.556619e+00 5.000000e+00 -6.111597e+00
      vertex   -8.503743e+00 5.090875e+00 -6.110301e+00
      vertex   -8.476255e+00 5.074290e+00 -6.165241e+00
    endloop
  endfacet
  facet normal -7.428084e-01 4.377569e-01 -5.065616e-01
    outer loop
      vertex   -8.556619e+00 5.000000e+00 -6.111597e+00
      vertex   -8.476255e+00 5.074290e+00 -6.165241e+00
      vertex   -8.481161e+00 5.000000e+00 -6.222246e+00
    endloop
  endfacet
  facet normal -7.400365e-01 4.395143e-01 -5.090905e-01
    outer loop
      vertex   -8.481161e+00 5.000000e+00 -6.222246e+00
      vertex   -8.476255e+00 5.074290e+00 -6.165241e+00
      vertex   -8.448502e+00 5.057547e+00 -6.220039e+00
    endloop
  endfacet
  facet normal -7.375918e-01 4.383023e-01 -5.136628e-01
    outer loop
      vertex   -8.481161e+00 5.000000e+00 -6.222246e+00
      vertex   -8.448502e+00 5.057547e+00 -6.220039e+00
      vertex   -8.420485e+00 5.040647e+00 -6.274690e+00
    endloop
  endfacet
  facet normal -7.329801e-01 4.459653e-01 -5.136682e-01
    outer loop
      vertex   -8.420485e+00 5.040647e+00 -6.274690e+00
      vertex   -8.448502e+00 5.057547e+00 -6.220039e+00
      vertex   -8.347121e+00 5.161226e+00 -6.274690e+00
    endloop
  endfacet
  facet normal -7.306420e-01 4.445427e-01 -5.182123e-01
    outer loop
      vertex   -8.420485e+00 5.040647e+00 -6.274690e+00
      vertex   -8.347121e+00 5.161226e+00 -6.274690e+00
      vertex   -8.319082e+00 5.143776e+00 -6.329192e+00
    endloop
  endfacet
  facet normal -7.241957e-01 4.549506e-01 -5.182283e-01
    outer loop
      vertex   -8.319082e+00 5.143776e+00 -6.329192e+00
      vertex   -8.347121e+00 5.161226e+00 -6.274690e+00
      vertex   -8.244853e+00 5.261936e+00 -6.329192e+00
    endloop
  endfacet
  facet normal -7.218508e-01 4.534775e-01 -5.227710e-01
    outer loop
      vertex   -8.319082e+00 5.143776e+00 -6.329192e+00
      vertex   -8.244853e+00 5.261936e+00 -6.329192e+00
      vertex   -8.216756e+00 5.244005e+00 -6.383543e+00
    endloop
  endfacet
  facet normal -7.152847e-01 4.637655e-01 -5.227709e-01
    outer loop
      vertex   -8.216756e+00 5.244005e+00 -6.383543e+00
      vertex   -8.244853e+00 5.261936e+00 -6.329192e+00
      vertex   -8.140569e+00 5.361511e+00 -6.383543e+00
    endloop
  endfacet
  facet normal -7.135244e-01 4.626242e-01 -5.261765e-01
    outer loop
      vertex   -8.216756e+00 5.244005e+00 -6.383543e+00
      vertex   -8.140569e+00 5.361511e+00 -6.383543e+00
      vertex   -8.126555e+00 5.352282e+00 -6.410661e+00
    endloop
  endfacet
  facet normal -7.068068e-01 4.728239e-01 -5.261765e-01
    outer loop
      vertex   -8.126555e+00 5.352282e+00 -6.410661e+00
      vertex   -8.140569e+00 5.361511e+00 -6.383543e+00
      vertex   -8.048877e+00 5.468400e+00 -6.410661e+00
    endloop
  endfacet
  facet normal -7.056390e-01 4.720427e-01 -5.284404e-01
    outer loop
      vertex   -8.126555e+00 5.352282e+00 -6.410661e+00
      vertex   -8.048877e+00 5.468400e+00 -6.410661e+00
      vertex   -8.034946e+00 5.458911e+00 -6.437740e+00
    endloop
  endfacet
  facet normal -7.006472e-01 4.794069e-01 -5.284529e-01
    outer loop
      vertex   -8.034946e+00 5.458911e+00 -6.437740e+00
      vertex   -8.048877e+00 5.468400e+00 -6.410661e+00
      vertex   -8.000000e+00 5.495235e+00 -6.451120e+00
    endloop
  endfacet
  facet normal -6.999579e-01 4.779095e-01 -5.307179e-01
    outer loop
      vertex   -8.034946e+00 5.458911e+00 -6.437740e+00
      vertex   -8.000000e+00 5.495235e+00 -6.451120e+00
      vertex   -8.020952e+00 5.449379e+00 -6.464780e+00
    endloop
  endfacet
  facet normal -6.982965e-01 4.778238e-01 -5.329788e-01
    outer loop
      vertex   -8.020952e+00 5.449379e+00 -6.464780e+00
      vertex   -8.000000e+00 5.495235e+00 -6.451120e+00
      vertex   -8.006896e+00 5.439804e+00 -6.491780e+00
    endloop
  endfacet
  facet normal -7.032845e-01 4.704655e-01 -5.329664e-01
    outer loop
      vertex   -8.020952e+00 5.449379e+00 -6.464780e+00
      vertex   -8.006896e+00 5.439804e+00 -6.491780e+00
      vertex   -8.098338e+00 5.333698e+00 -6.464780e+00
    endloop
  endfacet
  facet normal -7.032833e-01 4.704636e-01 -5.329696e-01
    outer loop
      vertex   -8.098338e+00 5.333698e+00 -6.464780e+00
      vertex   -8.006896e+00 5.439804e+00 -6.491780e+00
      vertex   -8.084134e+00 5.324343e+00 -6.491780e+00
    endloop
  endfacet
  facet normal -7.099659e-01 4.603170e-01 -5.329696e-01
    outer loop
      vertex   -8.098338e+00 5.333698e+00 -6.464780e+00
      vertex   -8.084134e+00 5.324343e+00 -6.491780e+00
      vertex   -8.174130e+00 5.216800e+00 -6.464780e+00
    endloop
  endfacet
  facet normal -7.099659e-01 4.603170e-01 -5.329696e-01
    outer loop
      vertex   -8.174130e+00 5.216800e+00 -6.464780e+00
      vertex   -8.084134e+00 5.324343e+00 -6.491780e+00
      vertex   -8.159793e+00 5.207651e+00 -6.491780e+00
    endloop
  endfacet
  facet normal -7.164888e-01 4.500967e-01 -5.329697e-01
    outer loop
      vertex   -8.174130e+00 5.216800e+00 -6.464780e+00
      vertex   -8.159793e+00 5.207651e+00 -6.491780e+00
      vertex   -8.247848e+00 5.099451e+00 -6.464780e+00
    endloop
  endfacet
  facet normal -7.164858e-01 4.500924e-01 -5.329774e-01
    outer loop
      vertex   -8.247848e+00 5.099451e+00 -6.464780e+00
      vertex   -8.159793e+00 5.207651e+00 -6.491780e+00
      vertex   -8.233407e+00 5.090467e+00 -6.491780e+00
    endloop
  endfacet
  facet normal -7.228535e-01 4.398116e-01 -5.329621e-01
    outer loop
      vertex   -8.247848e+00 5.099451e+00 -6.464780e+00
      vertex   -8.233407e+00 5.090467e+00 -6.491780e+00
      vertex   -8.326154e+00 5.000000e+00 -6.440643e+00
    endloop
  endfacet
  facet normal -7.227006e-01 4.392990e-01 -5.335918e-01
    outer loop
      vertex   -8.326154e+00 5.000000e+00 -6.440643e+00
      vertex   -8.233407e+00 5.090467e+00 -6.491780e+00
      vertex   -8.246621e+00 5.000000e+00 -6.548363e+00
    endloop
  endfacet
  facet normal -7.210181e-01 4.400752e-01 -5.352258e-01
    outer loop
      vertex   -8.246621e+00 5.000000e+00 -6.548363e+00
      vertex   -8.233407e+00 5.090467e+00 -6.491780e+00
      vertex   -8.218902e+00 5.081443e+00 -6.518740e+00
    endloop
  endfacet
  facet normal -7.192088e-01 4.402814e-01 -5.374857e-01
    outer loop
      vertex   -8.246621e+00 5.000000e+00 -6.548363e+00
      vertex   -8.218902e+00 5.081443e+00 -6.518740e+00
      vertex   -8.204333e+00 5.072379e+00 -6.545660e+00
    endloop
  endfacet
  facet normal -7.140658e-01 4.485672e-01 -5.374919e-01
    outer loop
      vertex   -8.204333e+00 5.072379e+00 -6.545660e+00
      vertex   -8.218902e+00 5.081443e+00 -6.518740e+00
      vertex   -8.130929e+00 5.189229e+00 -6.545660e+00
    endloop
  endfacet
  facet normal -7.128503e-01 4.478037e-01 -5.397373e-01
    outer loop
      vertex   -8.204333e+00 5.072379e+00 -6.545660e+00
      vertex   -8.130929e+00 5.189229e+00 -6.545660e+00
      vertex   -8.116401e+00 5.179957e+00 -6.572540e+00
    endloop
  endfacet
  facet normal -7.063572e-01 4.579773e-01 -5.397373e-01
    outer loop
      vertex   -8.116401e+00 5.179957e+00 -6.572540e+00
      vertex   -8.130929e+00 5.189229e+00 -6.545660e+00
      vertex   -8.041144e+00 5.296029e+00 -6.572540e+00
    endloop
  endfacet
  facet normal -7.051432e-01 4.571901e-01 -5.419873e-01
    outer loop
      vertex   -8.116401e+00 5.179957e+00 -6.572540e+00
      vertex   -8.041144e+00 5.296029e+00 -6.572540e+00
      vertex   -8.026689e+00 5.286508e+00 -6.599379e+00
    endloop
  endfacet
  facet normal -7.005524e-01 4.641841e-01 -5.419957e-01
    outer loop
      vertex   -8.026689e+00 5.286508e+00 -6.599379e+00
      vertex   -8.041144e+00 5.296029e+00 -6.572540e+00
      vertex   -8.000000e+00 5.313312e+00 -6.610919e+00
    endloop
  endfacet
  facet normal -6.998874e-01 4.625540e-01 -5.442439e-01
    outer loop
      vertex   -8.026689e+00 5.286508e+00 -6.599379e+00
      vertex   -8.000000e+00 5.313312e+00 -6.610919e+00
      vertex   -8.012170e+00 5.276946e+00 -6.626176e+00
    endloop
  endfacet
  facet normal -6.965774e-01 4.630466e-01 -5.480583e-01
    outer loop
      vertex   -8.012170e+00 5.276946e+00 -6.626176e+00
      vertex   -8.000000e+00 5.313312e+00 -6.610919e+00
      vertex   -8.000000e+00 5.251650e+00 -6.663016e+00
    endloop
  endfacet
  facet normal -7.032774e-01 4.559804e-01 -5.454197e-01
    outer loop
      vertex   -8.012170e+00 5.276946e+00 -6.626176e+00
      vertex   -8.000000e+00 5.251650e+00 -6.663016e+00
      vertex   -8.087156e+00 5.161293e+00 -6.626176e+00
    endloop
  endfacet
  facet normal -7.029432e-01 4.552257e-01 -5.464801e-01
    outer loop
      vertex   -8.087156e+00 5.161293e+00 -6.626176e+00
      vertex   -8.000000e+00 5.251650e+00 -6.663016e+00
      vertex   -8.072438e+00 5.151900e+00 -6.652932e+00
    endloop
  endfacet
  facet normal -7.091611e-01 4.454789e-01 -5.464787e-01
    outer loop
      vertex   -8.087156e+00 5.161293e+00 -6.626176e+00
      vertex   -8.072438e+00 5.151900e+00 -6.652932e+00
      vertex   -8.160239e+00 5.044951e+00 -6.626176e+00
    endloop
  endfacet
  facet normal -7.091581e-01 4.454746e-01 -5.464861e-01
    outer loop
      vertex   -8.160239e+00 5.044951e+00 -6.626176e+00
      vertex   -8.072438e+00 5.151900e+00 -6.652932e+00
      vertex   -8.145413e+00 5.035730e+00 -6.652932e+00
    endloop
  endfacet
  facet normal -7.133218e-01 4.387777e-01 -5.464853e-01
    outer loop
      vertex   -8.160239e+00 5.044951e+00 -6.626176e+00
      vertex   -8.145413e+00 5.035730e+00 -6.652932e+00
      vertex   -8.165746e+00 5.000000e+00 -6.655080e+00
    endloop
  endfacet
  facet normal -7.119846e-01 4.381515e-01 -5.487268e-01
    outer loop
      vertex   -8.165746e+00 5.000000e+00 -6.655080e+00
      vertex   -8.145413e+00 5.035730e+00 -6.652932e+00
      vertex   -8.130523e+00 5.026469e+00 -6.679646e+00
    endloop
  endfacet
  facet normal -7.117355e-01 4.357474e-01 -5.509599e-01
    outer loop
      vertex   -8.165746e+00 5.000000e+00 -6.655080e+00
      vertex   -8.130523e+00 5.026469e+00 -6.679646e+00
      vertex   -8.115570e+00 5.017170e+00 -6.706318e+00
    endloop
  endfacet
  facet normal -7.066707e-01 4.439072e-01 -5.509654e-01
    outer loop
      vertex   -8.115570e+00 5.017170e+00 -6.706318e+00
      vertex   -8.130523e+00 5.026469e+00 -6.679646e+00
      vertex   -8.042813e+00 5.132993e+00 -6.706318e+00
    endloop
  endfacet
  facet normal -7.054216e-01 4.431226e-01 -5.531932e-01
    outer loop
      vertex   -8.115570e+00 5.017170e+00 -6.706318e+00
      vertex   -8.042813e+00 5.132993e+00 -6.706318e+00
      vertex   -8.027907e+00 5.123479e+00 -6.732947e+00
    endloop
  endfacet
  facet normal -6.982708e-01 4.543135e-01 -5.531882e-01
    outer loop
      vertex   -8.027907e+00 5.123479e+00 -6.732947e+00
      vertex   -8.042813e+00 5.132993e+00 -6.706318e+00
      vertex   -8.000000e+00 5.126819e+00 -6.765431e+00
    endloop
  endfacet
  facet normal -7.001982e-01 4.485700e-01 -5.554345e-01
    outer loop
      vertex   -8.027907e+00 5.123479e+00 -6.732947e+00
      vertex   -8.000000e+00 5.126819e+00 -6.765431e+00
      vertex   -8.012937e+00 5.113926e+00 -6.759534e+00
    endloop
  endfacet
  facet normal -6.989851e-01 4.455479e-01 -5.593808e-01
    outer loop
      vertex   -8.012937e+00 5.113926e+00 -6.759534e+00
      vertex   -8.000000e+00 5.126819e+00 -6.765431e+00
      vertex   -8.000000e+00 5.063656e+00 -6.815740e+00
    endloop
  endfacet
  facet normal -7.031934e-01 4.418456e-01 -5.570382e-01
    outer loop
      vertex   -8.012937e+00 5.113926e+00 -6.759534e+00
      vertex   -8.000000e+00 5.063656e+00 -6.815740e+00
      vertex   -8.083536e+00 5.000000e+00 -6.760778e+00
    endloop
  endfacet
  facet normal -7.026661e-01 4.379000e-01 -5.608065e-01
    outer loop
      vertex   -8.083536e+00 5.000000e+00 -6.760778e+00
      vertex   -8.000000e+00 5.063656e+00 -6.815740e+00
      vertex   -8.000000e+00 5.000000e+00 -6.865445e+00
    endloop
  endfacet
  facet normal -6.986046e-01 5.071556e-01 -5.047225e-01
    outer loop
      vertex   -8.000000e+00 5.844973e+00 -6.116112e+00
      vertex   -8.000000e+00 5.788014e+00 -6.173346e+00
      vertex   -8.033754e+00 5.804261e+00 -6.110301e+00
    endloop
  endfacet
  facet normal -6.972224e-01 5.092522e-01 -5.045227e-01
    outer loop
      vertex   -8.033754e+00 5.804261e+00 -6.110301e+00
      vertex   -8.000000e+00 5.788014e+00 -6.173346e+00
      vertex   -8.007849e+00 5.785297e+00 -6.165241e+00
    endloop
  endfacet
  facet normal -7.034832e-01 5.006020e-01 -5.044889e-01
    outer loop
      vertex   -8.033754e+00 5.804261e+00 -6.110301e+00
      vertex   -8.007849e+00 5.785297e+00 -6.165241e+00
      vertex   -8.116332e+00 5.688216e+00 -6.110301e+00
    endloop
  endfacet
  facet normal -7.034775e-01 5.005772e-01 -5.045214e-01
    outer loop
      vertex   -8.116332e+00 5.688216e+00 -6.110301e+00
      vertex   -8.007849e+00 5.785297e+00 -6.165241e+00
      vertex   -8.090148e+00 5.669640e+00 -6.165241e+00
    endloop
  endfacet
  facet normal -7.106351e-01 4.903955e-01 -5.044899e-01
    outer loop
      vertex   -8.116332e+00 5.688216e+00 -6.110301e+00
      vertex   -8.090148e+00 5.669640e+00 -6.165241e+00
      vertex   -8.197945e+00 5.569951e+00 -6.110301e+00
    endloop
  endfacet
  facet normal -7.106314e-01 4.903810e-01 -5.045092e-01
    outer loop
      vertex   -8.197945e+00 5.569951e+00 -6.110301e+00
      vertex   -8.090148e+00 5.669640e+00 -6.165241e+00
      vertex   -8.171414e+00 5.551875e+00 -6.165241e+00
    endloop
  endfacet
  facet normal -7.176356e-01 4.800798e-01 -5.045023e-01
    outer loop
      vertex   -8.197945e+00 5.569951e+00 -6.110301e+00
      vertex   -8.171414e+00 5.551875e+00 -6.165241e+00
      vertex   -8.277190e+00 5.451493e+00 -6.110301e+00
    endloop
  endfacet
  facet normal -7.176349e-01 4.800772e-01 -5.045058e-01
    outer loop
      vertex   -8.277190e+00 5.451493e+00 -6.110301e+00
      vertex   -8.171414e+00 5.551875e+00 -6.165241e+00
      vertex   -8.250379e+00 5.433834e+00 -6.165241e+00
    endloop
  endfacet
  facet normal -7.244600e-01 4.697145e-01 -5.045058e-01
    outer loop
      vertex   -8.277190e+00 5.451493e+00 -6.110301e+00
      vertex   -8.250379e+00 5.433834e+00 -6.165241e+00
      vertex   -8.354656e+00 5.332014e+00 -6.110301e+00
    endloop
  endfacet
  facet normal -7.244600e-01 4.697145e-01 -5.045058e-01
    outer loop
      vertex   -8.354656e+00 5.332014e+00 -6.110301e+00
      vertex   -8.250379e+00 5.433834e+00 -6.165241e+00
      vertex   -8.327594e+00 5.314743e+00 -6.165241e+00
    endloop
  endfacet
  facet normal -7.311013e-01 4.593088e-01 -5.045060e-01
    outer loop
      vertex   -8.354656e+00 5.332014e+00 -6.110301e+00
      vertex   -8.327594e+00 5.314743e+00 -6.165241e+00
      vertex   -8.429670e+00 5.212612e+00 -6.110301e+00
    endloop
  endfacet
  facet normal -7.310995e-01 4.593027e-01 -5.045141e-01
    outer loop
      vertex   -8.429670e+00 5.212612e+00 -6.110301e+00
      vertex   -8.327594e+00 5.314743e+00 -6.165241e+00
      vertex   -8.402416e+00 5.195645e+00 -6.165241e+00
    endloop
  endfacet
  facet normal -7.375999e-01 4.488080e-01 -5.044976e-01
    outer loop
      vertex   -8.429670e+00 5.212612e+00 -6.110301e+00
      vertex   -8.402416e+00 5.195645e+00 -6.165241e+00
      vertex   -8.503743e+00 5.090875e+00 -6.110301e+00
    endloop
  endfacet
  facet normal -7.375958e-01 4.487949e-01 -5.045151e-01
    outer loop
      vertex   -8.503743e+00 5.090875e+00 -6.110301e+00
      vertex   -8.402416e+00 5.195645e+00 -6.165241e+00
      vertex   -8.476255e+00 5.074290e+00 -6.165241e+00
    endloop
  endfacet
  facet normal -6.993208e-01 5.018177e-01 -5.090476e-01
    outer loop
      vertex   -8.000000e+00 5.788014e+00 -6.173346e+00
      vertex   -8.000000e+00 5.730518e+00 -6.230025e+00
      vertex   -8.007849e+00 5.785297e+00 -6.165241e+00
    endloop
  endfacet
  facet normal -7.020633e-01 4.995709e-01 -5.074801e-01
    outer loop
      vertex   -8.007849e+00 5.785297e+00 -6.165241e+00
      vertex   -8.000000e+00 5.730518e+00 -6.230025e+00
      vertex   -8.090148e+00 5.669640e+00 -6.165241e+00
    endloop
  endfacet
  facet normal -7.020886e-01 4.978809e-01 -5.091034e-01
    outer loop
      vertex   -8.090148e+00 5.669640e+00 -6.165241e+00
      vertex   -8.000000e+00 5.730518e+00 -6.230025e+00
      vertex   -8.063712e+00 5.650887e+00 -6.220039e+00
    endloop
  endfacet
  facet normal -7.005006e-01 4.961226e-01 -5.129924e-01
    outer loop
      vertex   -8.063712e+00 5.650887e+00 -6.220039e+00
      vertex   -8.000000e+00 5.730518e+00 -6.230025e+00
      vertex   -8.000000e+00 5.672488e+00 -6.286147e+00
    endloop
  endfacet
  facet normal -7.008169e-01 4.949692e-01 -5.136741e-01
    outer loop
      vertex   -8.063712e+00 5.650887e+00 -6.220039e+00
      vertex   -8.000000e+00 5.672488e+00 -6.286147e+00
      vertex   -8.037022e+00 5.631959e+00 -6.274690e+00
    endloop
  endfacet
  facet normal -6.993258e-01 4.923182e-01 -5.182338e-01
    outer loop
      vertex   -8.037022e+00 5.631959e+00 -6.274690e+00
      vertex   -8.000000e+00 5.672488e+00 -6.286147e+00
      vertex   -8.010082e+00 5.612856e+00 -6.329192e+00
    endloop
  endfacet
  facet normal -7.039347e-01 4.857360e-01 -5.182050e-01
    outer loop
      vertex   -8.037022e+00 5.631959e+00 -6.274690e+00
      vertex   -8.010082e+00 5.612856e+00 -6.329192e+00
      vertex   -8.117587e+00 5.515204e+00 -6.274690e+00
    endloop
  endfacet
  facet normal -7.039310e-01 4.857216e-01 -5.182236e-01
    outer loop
      vertex   -8.117587e+00 5.515204e+00 -6.274690e+00
      vertex   -8.010082e+00 5.612856e+00 -6.329192e+00
      vertex   -8.090292e+00 5.496611e+00 -6.329192e+00
    endloop
  endfacet
  facet normal -7.108553e-01 4.755376e-01 -5.182169e-01
    outer loop
      vertex   -8.117587e+00 5.515204e+00 -6.274690e+00
      vertex   -8.090292e+00 5.496611e+00 -6.329192e+00
      vertex   -8.195986e+00 5.398010e+00 -6.274690e+00
    endloop
  endfacet
  facet normal -7.108546e-01 4.755349e-01 -5.182203e-01
    outer loop
      vertex   -8.195986e+00 5.398010e+00 -6.274690e+00
      vertex   -8.090292e+00 5.496611e+00 -6.329192e+00
      vertex   -8.168405e+00 5.379845e+00 -6.329192e+00
    endloop
  endfacet
  facet normal -7.176122e-01 4.652746e-01 -5.182203e-01
    outer loop
      vertex   -8.195986e+00 5.398010e+00 -6.274690e+00
      vertex   -8.168405e+00 5.379845e+00 -6.329192e+00
      vertex   -8.272692e+00 5.279703e+00 -6.274690e+00
    endloop
  endfacet
  facet normal -7.176122e-01 4.652746e-01 -5.182203e-01
    outer loop
      vertex   -8.272692e+00 5.279703e+00 -6.274690e+00
      vertex   -8.168405e+00 5.379845e+00 -6.329192e+00
      vertex   -8.244853e+00 5.261936e+00 -6.329192e+00
    endloop
  endfacet
  facet normal -7.241975e-01 4.549567e-01 -5.182204e-01
    outer loop
      vertex   -8.272692e+00 5.279703e+00 -6.274690e+00
      vertex   -8.244853e+00 5.261936e+00 -6.329192e+00
      vertex   -8.347121e+00 5.161226e+00 -6.274690e+00
    endloop
  endfacet
  facet normal -6.976096e-01 4.931353e-01 -5.197677e-01
    outer loop
      vertex   -8.000000e+00 5.672488e+00 -6.286147e+00
      vertex   -8.000000e+00 5.613929e+00 -6.341706e+00
      vertex   -8.010082e+00 5.612856e+00 -6.329192e+00
    endloop
  endfacet
  facet normal -7.003160e-01 4.863319e-01 -5.225312e-01
    outer loop
      vertex   -8.010082e+00 5.612856e+00 -6.329192e+00
      vertex   -8.000000e+00 5.613929e+00 -6.341706e+00
      vertex   -8.000000e+00 5.554843e+00 -6.396698e+00
    endloop
  endfacet
  facet normal -7.023528e-01 4.846326e-01 -5.213749e-01
    outer loop
      vertex   -8.010082e+00 5.612856e+00 -6.329192e+00
      vertex   -8.000000e+00 5.554843e+00 -6.396698e+00
      vertex   -8.090292e+00 5.496611e+00 -6.329192e+00
    endloop
  endfacet
  facet normal -7.023903e-01 4.830651e-01 -5.227772e-01
    outer loop
      vertex   -8.090292e+00 5.496611e+00 -6.329192e+00
      vertex   -8.000000e+00 5.554843e+00 -6.396698e+00
      vertex   -8.062745e+00 5.477846e+00 -6.383543e+00
    endloop
  endfacet
  facet normal -7.085507e-01 4.739937e-01 -5.227676e-01
    outer loop
      vertex   -8.090292e+00 5.496611e+00 -6.329192e+00
      vertex   -8.062745e+00 5.477846e+00 -6.383543e+00
      vertex   -8.168405e+00 5.379845e+00 -6.329192e+00
    endloop
  endfacet
  facet normal -7.085500e-01 4.739911e-01 -5.227709e-01
    outer loop
      vertex   -8.168405e+00 5.379845e+00 -6.329192e+00
      vertex   -8.062745e+00 5.477846e+00 -6.383543e+00
      vertex   -8.140569e+00 5.361511e+00 -6.383543e+00
    endloop
  endfacet
  facet normal -7.152847e-01 4.637655e-01 -5.227709e-01
    outer loop
      vertex   -8.168405e+00 5.379845e+00 -6.329192e+00
      vertex   -8.140569e+00 5.361511e+00 -6.383543e+00
      vertex   -8.244853e+00 5.261936e+00 -6.329192e+00
    endloop
  endfacet
  facet normal -7.007383e-01 4.810208e-01 -5.268631e-01
    outer loop
      vertex   -8.000000e+00 5.554843e+00 -6.396698e+00
      vertex   -8.000000e+00 5.495235e+00 -6.451120e+00
      vertex   -8.062745e+00 5.477846e+00 -6.383543e+00
    endloop
  endfacet
  facet normal -7.003624e-01 4.823126e-01 -5.261817e-01
    outer loop
      vertex   -8.062745e+00 5.477846e+00 -6.383543e+00
      vertex   -8.000000e+00 5.495235e+00 -6.451120e+00
      vertex   -8.048877e+00 5.468400e+00 -6.410661e+00
    endloop
  endfacet
  facet normal -7.068080e-01 4.728258e-01 -5.261732e-01
    outer loop
      vertex   -8.062745e+00 5.477846e+00 -6.383543e+00
      vertex   -8.048877e+00 5.468400e+00 -6.410661e+00
      vertex   -8.140569e+00 5.361511e+00 -6.383543e+00
    endloop
  endfacet
  facet normal -6.963405e-01 4.788079e-01 -5.346522e-01
    outer loop
      vertex   -8.000000e+00 5.495235e+00 -6.451120e+00
      vertex   -8.000000e+00 5.435108e+00 -6.504967e+00
      vertex   -8.006896e+00 5.439804e+00 -6.491780e+00
    endloop
  endfacet
  facet normal -7.025743e-01 4.696253e-01 -5.346414e-01
    outer loop
      vertex   -8.006896e+00 5.439804e+00 -6.491780e+00
      vertex   -8.000000e+00 5.435108e+00 -6.504967e+00
      vertex   -8.000000e+00 5.374465e+00 -6.558235e+00
    endloop
  endfacet
  facet normal -7.023197e-01 4.698191e-01 -5.348056e-01
    outer loop
      vertex   -8.006896e+00 5.439804e+00 -6.491780e+00
      vertex   -8.000000e+00 5.374465e+00 -6.558235e+00
      vertex   -8.084134e+00 5.324343e+00 -6.491780e+00
    endloop
  endfacet
  facet normal -7.023447e-01 4.692985e-01 -5.352298e-01
    outer loop
      vertex   -8.084134e+00 5.324343e+00 -6.491780e+00
      vertex   -8.000000e+00 5.374465e+00 -6.558235e+00
      vertex   -8.069867e+00 5.314946e+00 -6.518740e+00
    endloop
  endfacet
  facet normal -7.087686e-01 4.595407e-01 -5.352284e-01
    outer loop
      vertex   -8.084134e+00 5.324343e+00 -6.491780e+00
      vertex   -8.069867e+00 5.314946e+00 -6.518740e+00
      vertex   -8.159793e+00 5.207651e+00 -6.491780e+00
    endloop
  endfacet
  facet normal -7.087686e-01 4.595407e-01 -5.352284e-01
    outer loop
      vertex   -8.159793e+00 5.207651e+00 -6.491780e+00
      vertex   -8.069867e+00 5.314946e+00 -6.518740e+00
      vertex   -8.145393e+00 5.198460e+00 -6.518740e+00
    endloop
  endfacet
  facet normal -7.152816e-01 4.493359e-01 -5.352285e-01
    outer loop
      vertex   -8.159793e+00 5.207651e+00 -6.491780e+00
      vertex   -8.145393e+00 5.198460e+00 -6.518740e+00
      vertex   -8.233407e+00 5.090467e+00 -6.491780e+00
    endloop
  endfacet
  facet normal -7.152786e-01 4.493316e-01 -5.352361e-01
    outer loop
      vertex   -8.233407e+00 5.090467e+00 -6.491780e+00
      vertex   -8.145393e+00 5.198460e+00 -6.518740e+00
      vertex   -8.218902e+00 5.081443e+00 -6.518740e+00
    endloop
  endfacet
  facet normal -7.019374e-01 4.673211e-01 -5.374894e-01
    outer loop
      vertex   -8.069867e+00 5.314946e+00 -6.518740e+00
      vertex   -8.000000e+00 5.374465e+00 -6.558235e+00
      vertex   -8.055537e+00 5.305508e+00 -6.545660e+00
    endloop
  endfacet
  facet normal -7.006365e-01 4.657105e-01 -5.405759e-01
    outer loop
      vertex   -8.055537e+00 5.305508e+00 -6.545660e+00
      vertex   -8.000000e+00 5.374465e+00 -6.558235e+00
      vertex   -8.000000e+00 5.313312e+00 -6.610919e+00
    endloop
  endfacet
  facet normal -6.999364e-01 4.677300e-01 -5.397386e-01
    outer loop
      vertex   -8.055537e+00 5.305508e+00 -6.545660e+00
      vertex   -8.000000e+00 5.313312e+00 -6.610919e+00
      vertex   -8.041144e+00 5.296029e+00 -6.572540e+00
    endloop
  endfacet
  facet normal -7.020124e-01 4.543560e-01 -5.483970e-01
    outer loop
      vertex   -8.000000e+00 5.251650e+00 -6.663016e+00
      vertex   -8.000000e+00 5.189485e+00 -6.714521e+00
      vertex   -8.072438e+00 5.151900e+00 -6.652932e+00
    endloop
  endfacet
  facet normal -7.020528e-01 4.538996e-01 -5.487231e-01
    outer loop
      vertex   -8.072438e+00 5.151900e+00 -6.652932e+00
      vertex   -8.000000e+00 5.189485e+00 -6.714521e+00
      vertex   -8.057657e+00 5.142466e+00 -6.679646e+00
    endloop
  endfacet
  facet normal -7.079202e-01 4.446970e-01 -5.487199e-01
    outer loop
      vertex   -8.072438e+00 5.151900e+00 -6.652932e+00
      vertex   -8.057657e+00 5.142466e+00 -6.679646e+00
      vertex   -8.145413e+00 5.035730e+00 -6.652932e+00
    endloop
  endfacet
  facet normal -7.079172e-01 4.446927e-01 -5.487273e-01
    outer loop
      vertex   -8.145413e+00 5.035730e+00 -6.652932e+00
      vertex   -8.057657e+00 5.142466e+00 -6.679646e+00
      vertex   -8.130523e+00 5.026469e+00 -6.679646e+00
    endloop
  endfacet
  facet normal -7.016713e-01 4.517689e-01 -5.509648e-01
    outer loop
      vertex   -8.057657e+00 5.142466e+00 -6.679646e+00
      vertex   -8.000000e+00 5.189485e+00 -6.714521e+00
      vertex   -8.042813e+00 5.132993e+00 -6.706318e+00
    endloop
  endfacet
  facet normal -7.001862e-01 4.501818e-01 -5.541440e-01
    outer loop
      vertex   -8.042813e+00 5.132993e+00 -6.706318e+00
      vertex   -8.000000e+00 5.189485e+00 -6.714521e+00
      vertex   -8.000000e+00 5.126819e+00 -6.765431e+00
    endloop
  endfacet
  facet normal -7.042828e-01 4.424999e-01 -5.551392e-01
    outer loop
      vertex   -8.012937e+00 5.113926e+00 -6.759534e+00
      vertex   -8.083536e+00 5.000000e+00 -6.760778e+00
      vertex   -8.100553e+00 5.007831e+00 -6.732947e+00
    endloop
  endfacet
  facet normal -7.153132e-01 4.228452e-01 -5.563532e-01
    outer loop
      vertex   -8.100553e+00 5.007831e+00 -6.732947e+00
      vertex   -8.083536e+00 5.000000e+00 -6.760778e+00
      vertex   -8.165746e+00 5.000000e+00 -6.655080e+00
    endloop
  endfacet
  facet normal -7.125669e-01 4.315587e-01 -5.531777e-01
    outer loop
      vertex   -8.100553e+00 5.007831e+00 -6.732947e+00
      vertex   -8.165746e+00 5.000000e+00 -6.655080e+00
      vertex   -8.115570e+00 5.017170e+00 -6.706318e+00
    endloop
  endfacet
  facet normal -7.157451e-01 4.376274e-01 -5.442346e-01
    outer loop
      vertex   -8.160239e+00 5.044951e+00 -6.626176e+00
      vertex   -8.165746e+00 5.000000e+00 -6.655080e+00
      vertex   -8.175001e+00 5.054133e+00 -6.599379e+00
    endloop
  endfacet
  facet normal -7.170301e-01 4.365538e-01 -5.434047e-01
    outer loop
      vertex   -8.175001e+00 5.054133e+00 -6.599379e+00
      vertex   -8.165746e+00 5.000000e+00 -6.655080e+00
      vertex   -8.246621e+00 5.000000e+00 -6.548363e+00
    endloop
  endfacet
  facet normal -7.171730e-01 4.380799e-01 -5.419861e-01
    outer loop
      vertex   -8.175001e+00 5.054133e+00 -6.599379e+00
      vertex   -8.246621e+00 5.000000e+00 -6.548363e+00
      vertex   -8.189699e+00 5.063276e+00 -6.572540e+00
    endloop
  endfacet
  facet normal -7.179269e-01 4.396166e-01 -5.397391e-01
    outer loop
      vertex   -8.189699e+00 5.063276e+00 -6.572540e+00
      vertex   -8.246621e+00 5.000000e+00 -6.548363e+00
      vertex   -8.204333e+00 5.072379e+00 -6.545660e+00
    endloop
  endfacet
  facet normal -7.128473e-01 4.477993e-01 -5.397449e-01
    outer loop
      vertex   -8.189699e+00 5.063276e+00 -6.572540e+00
      vertex   -8.204333e+00 5.072379e+00 -6.545660e+00
      vertex   -8.116401e+00 5.179957e+00 -6.572540e+00
    endloop
  endfacet
  facet normal -7.395560e-01 4.125096e-01 -5.318766e-01
    outer loop
      vertex   -8.404337e+00 5.000000e+00 -6.331933e+00
      vertex   -8.363662e+00 5.006378e+00 -6.383543e+00
      vertex   -8.326154e+00 5.000000e+00 -6.440643e+00
    endloop
  endfacet
  facet normal -7.263656e-01 4.418204e-01 -5.264861e-01
    outer loop
      vertex   -8.326154e+00 5.000000e+00 -6.440643e+00
      vertex   -8.363662e+00 5.006378e+00 -6.383543e+00
      vertex   -8.276536e+00 5.117301e+00 -6.410661e+00
    endloop
  endfacet
  facet normal -7.249957e-01 4.417399e-01 -5.284383e-01
    outer loop
      vertex   -8.326154e+00 5.000000e+00 -6.440643e+00
      vertex   -8.276536e+00 5.117301e+00 -6.410661e+00
      vertex   -8.262225e+00 5.108396e+00 -6.437740e+00
    endloop
  endfacet
  facet normal -7.188834e-01 4.516035e-01 -5.284515e-01
    outer loop
      vertex   -8.262225e+00 5.108396e+00 -6.437740e+00
      vertex   -8.276536e+00 5.117301e+00 -6.410661e+00
      vertex   -8.188403e+00 5.225909e+00 -6.437740e+00
    endloop
  endfacet
  facet normal -7.176904e-01 4.508540e-01 -5.307081e-01
    outer loop
      vertex   -8.262225e+00 5.108396e+00 -6.437740e+00
      vertex   -8.188403e+00 5.225909e+00 -6.437740e+00
      vertex   -8.174130e+00 5.216800e+00 -6.464780e+00
    endloop
  endfacet
  facet normal -7.111577e-01 4.610897e-01 -5.307080e-01
    outer loop
      vertex   -8.174130e+00 5.216800e+00 -6.464780e+00
      vertex   -8.188403e+00 5.225909e+00 -6.437740e+00
      vertex   -8.098338e+00 5.333698e+00 -6.464780e+00
    endloop
  endfacet
  facet normal -7.376959e-01 4.345645e-01 -5.166802e-01
    outer loop
      vertex   -8.481161e+00 5.000000e+00 -6.222246e+00
      vertex   -8.420485e+00 5.040647e+00 -6.274690e+00
      vertex   -8.404337e+00 5.000000e+00 -6.331933e+00
    endloop
  endfacet
  facet normal -7.345847e-01 4.379792e-01 -5.182273e-01
    outer loop
      vertex   -8.404337e+00 5.000000e+00 -6.331933e+00
      vertex   -8.420485e+00 5.040647e+00 -6.274690e+00
      vertex   -8.392205e+00 5.023591e+00 -6.329192e+00
    endloop
  endfacet
  facet normal -7.318707e-01 4.371122e-01 -5.227793e-01
    outer loop
      vertex   -8.404337e+00 5.000000e+00 -6.331933e+00
      vertex   -8.392205e+00 5.023591e+00 -6.329192e+00
      vertex   -8.363662e+00 5.006378e+00 -6.383543e+00
    endloop
  endfacet
  facet normal -7.282727e-01 4.430802e-01 -5.227798e-01
    outer loop
      vertex   -8.363662e+00 5.006378e+00 -6.383543e+00
      vertex   -8.392205e+00 5.023591e+00 -6.329192e+00
      vertex   -8.290783e+00 5.126166e+00 -6.383543e+00
    endloop
  endfacet
  facet normal -7.264893e-01 4.419952e-01 -5.261687e-01
    outer loop
      vertex   -8.363662e+00 5.006378e+00 -6.383543e+00
      vertex   -8.290783e+00 5.126166e+00 -6.383543e+00
      vertex   -8.276536e+00 5.117301e+00 -6.410661e+00
    endloop
  endfacet
  facet normal -7.200737e-01 4.523537e-01 -5.261844e-01
    outer loop
      vertex   -8.276536e+00 5.117301e+00 -6.410661e+00
      vertex   -8.290783e+00 5.126166e+00 -6.383543e+00
      vertex   -8.202611e+00 5.234977e+00 -6.410661e+00
    endloop
  endfacet
  facet normal -7.188863e-01 4.516078e-01 -5.284438e-01
    outer loop
      vertex   -8.276536e+00 5.117301e+00 -6.410661e+00
      vertex   -8.202611e+00 5.234977e+00 -6.410661e+00
      vertex   -8.188403e+00 5.225909e+00 -6.437740e+00
    endloop
  endfacet
  facet normal -7.123438e-01 4.618588e-01 -5.284437e-01
    outer loop
      vertex   -8.188403e+00 5.225909e+00 -6.437740e+00
      vertex   -8.202611e+00 5.234977e+00 -6.410661e+00
      vertex   -8.112478e+00 5.343011e+00 -6.437740e+00
    endloop
  endfacet
  facet normal -7.111577e-01 4.610897e-01 -5.307080e-01
    outer loop
      vertex   -8.188403e+00 5.225909e+00 -6.437740e+00
      vertex   -8.112478e+00 5.343011e+00 -6.437740e+00
      vertex   -8.098338e+00 5.333698e+00 -6.464780e+00
    endloop
  endfacet
  facet normal -7.044633e-01 4.712541e-01 -5.307081e-01
    outer loop
      vertex   -8.098338e+00 5.333698e+00 -6.464780e+00
      vertex   -8.112478e+00 5.343011e+00 -6.437740e+00
      vertex   -8.020952e+00 5.449379e+00 -6.464780e+00
    endloop
  endfacet
  facet normal -7.352995e-01 4.473871e-01 -5.090967e-01
    outer loop
      vertex   -8.448502e+00 5.057547e+00 -6.220039e+00
      vertex   -8.476255e+00 5.074290e+00 -6.165241e+00
      vertex   -8.374899e+00 5.178516e+00 -6.220039e+00
    endloop
  endfacet
  facet normal -7.353035e-01 4.474001e-01 -5.090794e-01
    outer loop
      vertex   -8.374899e+00 5.178516e+00 -6.220039e+00
      vertex   -8.476255e+00 5.074290e+00 -6.165241e+00
      vertex   -8.402416e+00 5.195645e+00 -6.165241e+00
    endloop
  endfacet
  facet normal -7.288210e-01 4.578663e-01 -5.090957e-01
    outer loop
      vertex   -8.374899e+00 5.178516e+00 -6.220039e+00
      vertex   -8.402416e+00 5.195645e+00 -6.165241e+00
      vertex   -8.300272e+00 5.297306e+00 -6.220039e+00
    endloop
  endfacet
  facet normal -7.288228e-01 4.578724e-01 -5.090877e-01
    outer loop
      vertex   -8.300272e+00 5.297306e+00 -6.220039e+00
      vertex   -8.402416e+00 5.195645e+00 -6.165241e+00
      vertex   -8.327594e+00 5.314743e+00 -6.165241e+00
    endloop
  endfacet
  facet normal -7.221999e-01 4.682491e-01 -5.090875e-01
    outer loop
      vertex   -8.300272e+00 5.297306e+00 -6.220039e+00
      vertex   -8.327594e+00 5.314743e+00 -6.165241e+00
      vertex   -8.223311e+00 5.416007e+00 -6.220039e+00
    endloop
  endfacet
  facet normal -7.221999e-01 4.682491e-01 -5.090875e-01
    outer loop
      vertex   -8.223311e+00 5.416007e+00 -6.220039e+00
      vertex   -8.327594e+00 5.314743e+00 -6.165241e+00
      vertex   -8.250379e+00 5.433834e+00 -6.165241e+00
    endloop
  endfacet
  facet normal -7.153971e-01 4.785780e-01 -5.090875e-01
    outer loop
      vertex   -8.223311e+00 5.416007e+00 -6.220039e+00
      vertex   -8.250379e+00 5.433834e+00 -6.165241e+00
      vertex   -8.144627e+00 5.533626e+00 -6.220039e+00
    endloop
  endfacet
  facet normal -7.153978e-01 4.785806e-01 -5.090841e-01
    outer loop
      vertex   -8.144627e+00 5.533626e+00 -6.220039e+00
      vertex   -8.250379e+00 5.433834e+00 -6.165241e+00
      vertex   -8.171414e+00 5.551875e+00 -6.165241e+00
    endloop
  endfacet
  facet normal -7.084201e-01 4.888430e-01 -5.090909e-01
    outer loop
      vertex   -8.144627e+00 5.533626e+00 -6.220039e+00
      vertex   -8.171414e+00 5.551875e+00 -6.165241e+00
      vertex   -8.063712e+00 5.650887e+00 -6.220039e+00
    endloop
  endfacet
  facet normal -7.084237e-01 4.888575e-01 -5.090718e-01
    outer loop
      vertex   -8.063712e+00 5.650887e+00 -6.220039e+00
      vertex   -8.171414e+00 5.551875e+00 -6.165241e+00
      vertex   -8.090148e+00 5.669640e+00 -6.165241e+00
    endloop
  endfacet
  facet normal -7.282769e-01 4.430932e-01 -5.227630e-01
    outer loop
      vertex   -8.290783e+00 5.126166e+00 -6.383543e+00
      vertex   -8.392205e+00 5.023591e+00 -6.329192e+00
      vertex   -8.319082e+00 5.143776e+00 -6.329192e+00
    endloop
  endfacet
  facet normal -7.306379e-01 4.445297e-01 -5.182293e-01
    outer loop
      vertex   -8.319082e+00 5.143776e+00 -6.329192e+00
      vertex   -8.392205e+00 5.023591e+00 -6.329192e+00
      vertex   -8.420485e+00 5.040647e+00 -6.274690e+00
    endloop
  endfacet
  facet normal -7.265197e-01 4.564155e-01 -5.136672e-01
    outer loop
      vertex   -8.272692e+00 5.279703e+00 -6.274690e+00
      vertex   -8.347121e+00 5.161226e+00 -6.274690e+00
      vertex   -8.374899e+00 5.178516e+00 -6.220039e+00
    endloop
  endfacet
  facet normal -7.329842e-01 4.459784e-01 -5.136511e-01
    outer loop
      vertex   -8.374899e+00 5.178516e+00 -6.220039e+00
      vertex   -8.347121e+00 5.161226e+00 -6.274690e+00
      vertex   -8.448502e+00 5.057547e+00 -6.220039e+00
    endloop
  endfacet
  facet normal -7.265215e-01 4.564216e-01 -5.136593e-01
    outer loop
      vertex   -8.272692e+00 5.279703e+00 -6.274690e+00
      vertex   -8.374899e+00 5.178516e+00 -6.220039e+00
      vertex   -8.300272e+00 5.297306e+00 -6.220039e+00
    endloop
  endfacet
  facet normal -7.200767e-01 4.523580e-01 -5.261766e-01
    outer loop
      vertex   -8.202611e+00 5.234977e+00 -6.410661e+00
      vertex   -8.290783e+00 5.126166e+00 -6.383543e+00
      vertex   -8.216756e+00 5.244005e+00 -6.383543e+00
    endloop
  endfacet
  facet normal -7.218490e-01 4.534714e-01 -5.227788e-01
    outer loop
      vertex   -8.216756e+00 5.244005e+00 -6.383543e+00
      vertex   -8.290783e+00 5.126166e+00 -6.383543e+00
      vertex   -8.319082e+00 5.143776e+00 -6.329192e+00
    endloop
  endfacet
  facet normal -7.237505e-01 4.410662e-01 -5.307031e-01
    outer loop
      vertex   -8.247848e+00 5.099451e+00 -6.464780e+00
      vertex   -8.326154e+00 5.000000e+00 -6.440643e+00
      vertex   -8.262225e+00 5.108396e+00 -6.437740e+00
    endloop
  endfacet
  facet normal -7.176874e-01 4.508497e-01 -5.307158e-01
    outer loop
      vertex   -8.174130e+00 5.216800e+00 -6.464780e+00
      vertex   -8.247848e+00 5.099451e+00 -6.464780e+00
      vertex   -8.262225e+00 5.108396e+00 -6.437740e+00
    endloop
  endfacet
  facet normal -7.140687e-01 4.485715e-01 -5.374843e-01
    outer loop
      vertex   -8.130929e+00 5.189229e+00 -6.545660e+00
      vertex   -8.218902e+00 5.081443e+00 -6.518740e+00
      vertex   -8.145393e+00 5.198460e+00 -6.518740e+00
    endloop
  endfacet
  facet normal -7.103935e-01 4.462530e-01 -5.442420e-01
    outer loop
      vertex   -8.087156e+00 5.161293e+00 -6.626176e+00
      vertex   -8.160239e+00 5.044951e+00 -6.626176e+00
      vertex   -8.175001e+00 5.054133e+00 -6.599379e+00
    endloop
  endfacet
  facet normal -7.116232e-01 4.470279e-01 -5.419949e-01
    outer loop
      vertex   -8.175001e+00 5.054133e+00 -6.599379e+00
      vertex   -8.189699e+00 5.063276e+00 -6.572540e+00
      vertex   -8.101810e+00 5.170645e+00 -6.599379e+00
    endloop
  endfacet
  facet normal -7.116262e-01 4.470323e-01 -5.419874e-01
    outer loop
      vertex   -8.101810e+00 5.170645e+00 -6.599379e+00
      vertex   -8.189699e+00 5.063276e+00 -6.572540e+00
      vertex   -8.116401e+00 5.179957e+00 -6.572540e+00
    endloop
  endfacet
  facet normal -7.051432e-01 4.571901e-01 -5.419873e-01
    outer loop
      vertex   -8.101810e+00 5.170645e+00 -6.599379e+00
      vertex   -8.116401e+00 5.179957e+00 -6.572540e+00
      vertex   -8.026689e+00 5.286508e+00 -6.599379e+00
    endloop
  endfacet
  facet normal -7.066737e-01 4.439115e-01 -5.509581e-01
    outer loop
      vertex   -8.042813e+00 5.132993e+00 -6.706318e+00
      vertex   -8.130523e+00 5.026469e+00 -6.679646e+00
      vertex   -8.057657e+00 5.142466e+00 -6.679646e+00
    endloop
  endfacet
  facet normal -7.041640e-01 4.423302e-01 -5.554252e-01
    outer loop
      vertex   -8.012937e+00 5.113926e+00 -6.759534e+00
      vertex   -8.100553e+00 5.007831e+00 -6.732947e+00
      vertex   -8.027907e+00 5.123479e+00 -6.732947e+00
    endloop
  endfacet
  facet normal -7.054186e-01 4.431183e-01 -5.532005e-01
    outer loop
      vertex   -8.027907e+00 5.123479e+00 -6.732947e+00
      vertex   -8.100553e+00 5.007831e+00 -6.732947e+00
      vertex   -8.115570e+00 5.017170e+00 -6.706318e+00
    endloop
  endfacet
  facet normal -7.199173e-01 4.667691e-01 -5.136591e-01
    outer loop
      vertex   -8.195986e+00 5.398010e+00 -6.274690e+00
      vertex   -8.272692e+00 5.279703e+00 -6.274690e+00
      vertex   -8.300272e+00 5.297306e+00 -6.220039e+00
    endloop
  endfacet
  facet normal -7.199173e-01 4.667691e-01 -5.136591e-01
    outer loop
      vertex   -8.195986e+00 5.398010e+00 -6.274690e+00
      vertex   -8.300272e+00 5.297306e+00 -6.220039e+00
      vertex   -8.223311e+00 5.416007e+00 -6.220039e+00
    endloop
  endfacet
  facet normal -7.123438e-01 4.618588e-01 -5.284437e-01
    outer loop
      vertex   -8.112478e+00 5.343011e+00 -6.437740e+00
      vertex   -8.202611e+00 5.234977e+00 -6.410661e+00
      vertex   -8.126555e+00 5.352282e+00 -6.410661e+00
    endloop
  endfacet
  facet normal -7.135244e-01 4.626242e-01 -5.261765e-01
    outer loop
      vertex   -8.126555e+00 5.352282e+00 -6.410661e+00
      vertex   -8.202611e+00 5.234977e+00 -6.410661e+00
      vertex   -8.216756e+00 5.244005e+00 -6.383543e+00
    endloop
  endfacet
  facet normal -7.075657e-01 4.587608e-01 -5.374842e-01
    outer loop
      vertex   -8.069867e+00 5.314946e+00 -6.518740e+00
      vertex   -8.055537e+00 5.305508e+00 -6.545660e+00
      vertex   -8.145393e+00 5.198460e+00 -6.518740e+00
    endloop
  endfacet
  facet normal -7.075657e-01 4.587608e-01 -5.374842e-01
    outer loop
      vertex   -8.145393e+00 5.198460e+00 -6.518740e+00
      vertex   -8.055537e+00 5.305508e+00 -6.545660e+00
      vertex   -8.130929e+00 5.189229e+00 -6.545660e+00
    endloop
  endfacet
  facet normal -7.063572e-01 4.579773e-01 -5.397373e-01
    outer loop
      vertex   -8.055537e+00 5.305508e+00 -6.545660e+00
      vertex   -8.041144e+00 5.296029e+00 -6.572540e+00
      vertex   -8.130929e+00 5.189229e+00 -6.545660e+00
    endloop
  endfacet
  facet normal -7.039236e-01 4.563994e-01 -5.442345e-01
    outer loop
      vertex   -8.012170e+00 5.276946e+00 -6.626176e+00
      vertex   -8.087156e+00 5.161293e+00 -6.626176e+00
      vertex   -8.101810e+00 5.170645e+00 -6.599379e+00
    endloop
  endfacet
  facet normal -7.103965e-01 4.462573e-01 -5.442346e-01
    outer loop
      vertex   -8.101810e+00 5.170645e+00 -6.599379e+00
      vertex   -8.087156e+00 5.161293e+00 -6.626176e+00
      vertex   -8.175001e+00 5.054133e+00 -6.599379e+00
    endloop
  endfacet
  facet normal -7.039236e-01 4.563994e-01 -5.442345e-01
    outer loop
      vertex   -8.012170e+00 5.276946e+00 -6.626176e+00
      vertex   -8.101810e+00 5.170645e+00 -6.599379e+00
      vertex   -8.026689e+00 5.286508e+00 -6.599379e+00
    endloop
  endfacet
  facet normal -7.131370e-01 4.770639e-01 -5.136591e-01
    outer loop
      vertex   -8.117587e+00 5.515204e+00 -6.274690e+00
      vertex   -8.195986e+00 5.398010e+00 -6.274690e+00
      vertex   -8.223311e+00 5.416007e+00 -6.220039e+00
    endloop
  endfacet
  facet normal -7.131377e-01 4.770665e-01 -5.136557e-01
    outer loop
      vertex   -8.117587e+00 5.515204e+00 -6.274690e+00
      vertex   -8.223311e+00 5.416007e+00 -6.220039e+00
      vertex   -8.144627e+00 5.533626e+00 -6.220039e+00
    endloop
  endfacet
  facet normal -7.044645e-01 4.712560e-01 -5.307048e-01
    outer loop
      vertex   -8.020952e+00 5.449379e+00 -6.464780e+00
      vertex   -8.112478e+00 5.343011e+00 -6.437740e+00
      vertex   -8.034946e+00 5.458911e+00 -6.437740e+00
    endloop
  endfacet
  facet normal -7.056378e-01 4.720409e-01 -5.284437e-01
    outer loop
      vertex   -8.034946e+00 5.458911e+00 -6.437740e+00
      vertex   -8.112478e+00 5.343011e+00 -6.437740e+00
      vertex   -8.126555e+00 5.352282e+00 -6.410661e+00
    endloop
  endfacet
  facet normal -7.061866e-01 4.872899e-01 -5.136624e-01
    outer loop
      vertex   -8.037022e+00 5.631959e+00 -6.274690e+00
      vertex   -8.117587e+00 5.515204e+00 -6.274690e+00
      vertex   -8.144627e+00 5.533626e+00 -6.220039e+00
    endloop
  endfacet
  facet normal -7.061903e-01 4.873044e-01 -5.136436e-01
    outer loop
      vertex   -8.037022e+00 5.631959e+00 -6.274690e+00
      vertex   -8.144627e+00 5.533626e+00 -6.220039e+00
      vertex   -8.063712e+00 5.650887e+00 -6.220039e+00
    endloop
  endfacet
  facet normal 0.000000e+00 -1.000000e+00 -0.000000e+00
    outer loop
      vertex   -8.057758e+00 5.000000e+00 -6.238754e+00
      vertex   -8.246621e+00 5.000000e+00 -6.548363e+00
      vertex   -8.000000e+00 5.000000e+00 -6.317267e+00
    endloop
  endfacet
  facet normal 0.000000e+00 -1.000000e+00 0.000000e+00
    outer loop
      vertex   -8.000000e+00 5.000000e+00 -6.317267e+00
      vertex   -8.246621e+00 5.000000e+00 -6.548363e+00
      vertex   -8.165746e+00 5.000000e+00 -6.655080e+00
    endloop
  endfacet
  facet normal 0.000000e+00 -1.000000e+00 0.000000e+00
    outer loop
      vertex   -8.000000e+00 5.000000e+00 -6.317267e+00
      vertex   -8.165746e+00 5.000000e+00 -6.655080e+00
      vertex   -8.083536e+00 5.000000e+00 -6.760778e+00
    endloop
  endfacet
  facet normal 0.000000e+00 -1.000000e+00 0.000000e+00
    outer loop
      vertex   -8.246621e+00 5.000000e+00 -6.548363e+00
      vertex   -8.057758e+00 5.000000e+00 -6.238754e+00
      vertex   -8.326154e+00 5.000000e+00 -6.440643e+00
    endloop
  endfacet
  facet normal 0.000000e+00 -1.000000e+00 0.000000e+00
    outer loop
      vertex   -8.326154e+00 5.000000e+00 -6.440643e+00
      vertex   -8.057758e+00 5.000000e+00 -6.238754e+00
      vertex   -8.114776e+00 5.000000e+00 -6.159702e+00
    endloop
  endfacet
  facet normal 0.000000e+00 -1.000000e+00 0.000000e+00
    outer loop
      vertex   -8.326154e+00 5.000000e+00 -6.440643e+00
      vertex   -8.114776e+00 5.000000e+00 -6.159702e+00
      vertex   -8.171050e+00 5.000000e+00 -6.080115e+00
    endloop
  endfacet
  facet normal 0.000000e+00 -1.000000e+00 0.000000e+00
    outer loop
      vertex   -8.326154e+00 5.000000e+00 -6.440643e+00
      vertex   -8.171050e+00 5.000000e+00 -6.080115e+00
      vertex   -8.404337e+00 5.000000e+00 -6.331933e+00
    endloop
  endfacet
  facet normal 0.000000e+00 -1.000000e+00 0.000000e+00
    outer loop
      vertex   -8.404337e+00 5.000000e+00 -6.331933e+00
      vertex   -8.171050e+00 5.000000e+00 -6.080115e+00
      vertex   -8.226578e+00 5.000000e+00 -6.000000e+00
    endloop
  endfacet
  facet normal 0.000000e+00 -1.000000e+00 0.000000e+00
    outer loop
      vertex   -8.404337e+00 5.000000e+00 -6.331933e+00
      vertex   -8.226578e+00 5.000000e+00 -6.000000e+00
      vertex   -8.481161e+00 5.000000e+00 -6.222246e+00
    endloop
  endfacet
  facet normal 0.000000e+00 -1.000000e+00 0.000000e+00
    outer loop
      vertex   -8.481161e+00 5.000000e+00 -6.222246e+00
      vertex   -8.226578e+00 5.000000e+00 -6.000000e+00
      vertex   -8.556619e+00 5.000000e+00 -6.111597e+00
    endloop
  endfacet
  facet normal 0.000000e+00 -1.000000e+00 0.000000e+00
    outer loop
      vertex   -8.556619e+00 5.000000e+00 -6.111597e+00
      vertex   -8.226578e+00 5.000000e+00 -6.000000e+00
      vertex   -8.630701e+00 5.000000e+00 -6.000000e+00
    endloop
  endfacet
  facet normal 0.000000e+00 -1.000000e+00 0.000000e+00
    outer loop
      vertex   -8.083536e+00 5.000000e+00 -6.760778e+00
      vertex   -8.000000e+00 5.000000e+00 -6.865445e+00
      vertex   -8.000000e+00 5.000000e+00 -6.317267e+00
    endloop
  endfacet
  facet normal 0.000000e+00 0.000000e+00 1.000000e+00
    outer loop
      vertex   -8.171311e+00 5.085921e+00 -6.000000e+00
      vertex   -8.407109e+00 5.367450e+00 -6.000000e+00
      vertex   -8.226578e+00 5.000000e+00 -6.000000e+00
    endloop
  endfacet
  facet normal 0.000000e+00 0.000000e+00 1.000000e+00
    outer loop
      vertex   -8.226578e+00 5.000000e+00 -6.000000e+00
      vertex   -8.407109e+00 5.367450e+00 -6.000000e+00
      vertex   -8.483387e+00 5.246060e+00 -6.000000e+00
    endloop
  endfacet
  facet normal 0.000000e+00 0.000000e+00 1.000000e+00
    outer loop
      vertex   -8.226578e+00 5.000000e+00 -6.000000e+00
      vertex   -8.483387e+00 5.246060e+00 -6.000000e+00
      vertex   -8.557922e+00 5.123570e+00 -6.000000e+00
    endloop
  endfacet
  facet normal -0.000000e+00 0.000000e+00 1.000000e+00
    outer loop
      vertex   -8.407109e+00 5.367450e+00 -6.000000e+00
      vertex   -8.171311e+00 5.085921e+00 -6.000000e+00
      vertex   -8.329100e+00 5.487722e+00 -6.000000e+00
    endloop
  endfacet
  facet normal 0.000000e+00 0.000000e+00 1.000000e+00
    outer loop
      vertex   -8.329100e+00 5.487722e+00 -6.000000e+00
      vertex   -8.171311e+00 5.085921e+00 -6.000000e+00
      vertex   -8.115123e+00 5.171234e+00 -6.000000e+00
    endloop
  endfacet
  facet normal 0.000000e+00 0.000000e+00 1.000000e+00
    outer loop
      vertex   -8.329100e+00 5.487722e+00 -6.000000e+00
      vertex   -8.115123e+00 5.171234e+00 -6.000000e+00
      vertex   -8.058017e+00 5.255933e+00 -6.000000e+00
    endloop
  endfacet
  facet normal -0.000000e+00 0.000000e+00 1.000000e+00
    outer loop
      vertex   -8.329100e+00 5.487722e+00 -6.000000e+00
      vertex   -8.058017e+00 5.255933e+00 -6.000000e+00
      vertex   -8.249372e+00 5.606859e+00 -6.000000e+00
    endloop
  endfacet
  facet normal 0.000000e+00 0.000000e+00 1.000000e+00
    outer loop
      vertex   -8.249372e+00 5.606859e+00 -6.000000e+00
      vertex   -8.058017e+00 5.255933e+00 -6.000000e+00
      vertex   -8.000000e+00 5.340009e+00 -6.000000e+00
    endloop
  endfacet
  facet normal -0.000000e+00 0.000000e+00 1.000000e+00
    outer loop
      vertex   -8.249372e+00 5.606859e+00 -6.000000e+00
      vertex   -8.000000e+00 5.340009e+00 -6.000000e+00
      vertex   -8.167938e+00 5.724840e+00 -6.000000e+00
    endloop
  endfacet
  facet normal -0.000000e+00 0.000000e+00 1.000000e+00
    outer loop
      vertex   -8.167938e+00 5.724840e+00 -6.000000e+00
      vertex   -8.000000e+00 5.340009e+00 -6.000000e+00
      vertex   -8.084810e+00 5.841648e+00 -6.000000e+00
    endloop
  endfacet
  facet normal -0.000000e+00 0.000000e+00 1.000000e+00
    outer loop
      vertex   -8.084810e+00 5.841648e+00 -6.000000e+00
      vertex   -8.000000e+00 5.340009e+00 -6.000000e+00
      vertex   -8.000000e+00 5.957265e+00 -6.000000e+00
    endloop
  endfacet
  facet normal 0.000000e+00 0.000000e+00 1.000000e+00
    outer loop
      vertex   -8.557922e+00 5.123570e+00 -6.000000e+00
      vertex   -8.630701e+00 5.000000e+00 -6.000000e+00
      vertex   -8.226578e+00 5.000000e+00 -6.000000e+00
    endloop
  endfacet
  facet normal 1.000000e+00 -1.422455e-15 1.458974e-15
    outer loop
      vertex   -8.000000e+00 5.256750e+00 -6.081175e+00
      vertex   -8.000000e+00 5.613929e+00 -6.341706e+00
      vertex   -8.000000e+00 5.340009e+00 -6.000000e+00
    endloop
  endfacet
  facet normal 1.000000e+00 -1.400736e-15 1.476384e-15
    outer loop
      vertex   -8.000000e+00 5.340009e+00 -6.000000e+00
      vertex   -8.000000e+00 5.613929e+00 -6.341706e+00
      vertex   -8.000000e+00 5.672488e+00 -6.286147e+00
    endloop
  endfacet
  facet normal 1.000000e+00 5.793507e-15 9.835507e-15
    outer loop
      vertex   -8.000000e+00 5.340009e+00 -6.000000e+00
      vertex   -8.000000e+00 5.672488e+00 -6.286147e+00
      vertex   -8.000000e+00 5.730518e+00 -6.230025e+00
    endloop
  endfacet
  facet normal 1.000000e+00 -1.394092e-15 1.497859e-15
    outer loop
      vertex   -8.000000e+00 5.613929e+00 -6.341706e+00
      vertex   -8.000000e+00 5.256750e+00 -6.081175e+00
      vertex   -8.000000e+00 5.554843e+00 -6.396698e+00
    endloop
  endfacet
  facet normal 1.000000e+00 -1.406891e-15 1.485766e-15
    outer loop
      vertex   -8.000000e+00 5.554843e+00 -6.396698e+00
      vertex   -8.000000e+00 5.256750e+00 -6.081175e+00
      vertex   -8.000000e+00 5.172321e+00 -6.161122e+00
    endloop
  endfacet
  facet normal 1.000000e+00 -1.386589e-15 1.518733e-15
    outer loop
      vertex   -8.000000e+00 5.554843e+00 -6.396698e+00
      vertex   -8.000000e+00 5.172321e+00 -6.161122e+00
      vertex   -8.000000e+00 5.495235e+00 -6.451120e+00
    endloop
  endfacet
  facet normal 1.000000e+00 -1.373327e-15 1.533500e-15
    outer loop
      vertex   -8.000000e+00 5.495235e+00 -6.451120e+00
      vertex   -8.000000e+00 5.172321e+00 -6.161122e+00
      vertex   -8.000000e+00 5.435108e+00 -6.504967e+00
    endloop
  endfacet
  facet normal 1.000000e+00 -1.394949e-15 1.516975e-15
    outer loop
      vertex   -8.000000e+00 5.435108e+00 -6.504967e+00
      vertex   -8.000000e+00 5.172321e+00 -6.161122e+00
      vertex   -8.000000e+00 5.086734e+00 -6.239824e+00
    endloop
  endfacet
  facet normal 1.000000e+00 -1.496423e-14 -1.631179e-14
    outer loop
      vertex   -8.000000e+00 5.435108e+00 -6.504967e+00
      vertex   -8.000000e+00 5.086734e+00 -6.239824e+00
      vertex   -8.000000e+00 5.374465e+00 -6.558235e+00
    endloop
  endfacet
  facet normal 1.000000e+00 1.378420e-15 -1.543806e-15
    outer loop
      vertex   -8.000000e+00 5.374465e+00 -6.558235e+00
      vertex   -8.000000e+00 5.086734e+00 -6.239824e+00
      vertex   -8.000000e+00 5.000000e+00 -6.317267e+00
    endloop
  endfacet
  facet normal 1.000000e+00 7.567647e-15 8.074278e-15
    outer loop
      vertex   -8.000000e+00 5.374465e+00 -6.558235e+00
      vertex   -8.000000e+00 5.000000e+00 -6.317267e+00
      vertex   -8.000000e+00 5.313312e+00 -6.610919e+00
    endloop
  endfacet
  facet normal 1.000000e+00 0.000000e+00 0.000000e+00
    outer loop
      vertex   -8.000000e+00 5.313312e+00 -6.610919e+00
      vertex   -8.000000e+00 5.000000e+00 -6.317267e+00
      vertex   -8.000000e+00 5.251650e+00 -6.663016e+00
    endloop
  endfacet
  facet normal 1.000000e+00 -8.912699e-15 -6.487016e-15
    outer loop
      vertex   -8.000000e+00 5.251650e+00 -6.663016e+00
      vertex   -8.000000e+00 5.000000e+00 -6.317267e+00
      vertex   -8.000000e+00 5.189485e+00 -6.714521e+00
    endloop
  endfacet
  facet normal 1.000000e+00 3.195388e-14 1.300573e-14
    outer loop
      vertex   -8.000000e+00 5.189485e+00 -6.714521e+00
      vertex   -8.000000e+00 5.000000e+00 -6.317267e+00
      vertex   -8.000000e+00 5.126819e+00 -6.765431e+00
    endloop
  endfacet
  facet normal 1.000000e+00 -2.552702e-14 -3.259840e-15
    outer loop
      vertex   -8.000000e+00 5.126819e+00 -6.765431e+00
      vertex   -8.000000e+00 5.000000e+00 -6.317267e+00
      vertex   -8.000000e+00 5.063656e+00 -6.815740e+00
    endloop
  endfacet
  facet normal 1.000000e+00 0.000000e+00 0.000000e+00
    outer loop
      vertex   -8.000000e+00 5.063656e+00 -6.815740e+00
      vertex   -8.000000e+00 5.000000e+00 -6.317267e+00
      vertex   -8.000000e+00 5.000000e+00 -6.865445e+00
    endloop
  endfacet
  facet normal 1.000000e+00 0.000000e+00 -0.000000e+00
    outer loop
      vertex   -8.000000e+00 5.730518e+00 -6.230025e+00
      vertex   -8.000000e+00 5.788014e+00 -6.173346e+00
      vertex   -8.000000e+00 5.340009e+00 -6.000000e+00
    endloop
  endfacet
  facet normal 1.000000e+00 4.335184e-15 1.120411e-14
    outer loop
      vertex   -8.000000e+00 5.340009e+00 -6.000000e+00
      vertex   -8.000000e+00 5.788014e+00 -6.173346e+00
      vertex   -8.000000e+00 5.844973e+00 -6.116112e+00
    endloop
  endfacet
  facet normal 1.000000e+00 -1.449970e-15 -1.395513e-14
    outer loop
      vertex   -8.000000e+00 5.340009e+00 -6.000000e+00
      vertex   -8.000000e+00 5.844973e+00 -6.116112e+00
      vertex   -8.000000e+00 5.901391e+00 -6.058329e+00
    endloop
  endfacet
  facet normal 1.000000e+00 0.000000e+00 -0.000000e+00
    outer loop
      vertex   -8.000000e+00 5.901391e+00 -6.058329e+00
      vertex   -8.000000e+00 5.957265e+00 -6.000000e+00
      vertex   -8.000000e+00 5.340009e+00 -6.000000e+00
    endloop
  endfacet
endsolid
