solid ASCII
  facet normal 8.941075e-02 -3.778882e-01 9.215239e-01
    outer loop
      vertex   1.000000e+00 -4.218803e+00 1.102974e+01
      vertex   1.000000e+00 -4.291326e+00 1.100000e+01
      vertex   1.044883e+00 -4.244254e+00 1.101495e+01
    endloop
  endfacet
  facet normal 9.088794e-02 -3.790935e-01 9.208841e-01
    outer loop
      vertex   1.044883e+00 -4.244254e+00 1.101495e+01
      vertex   1.000000e+00 -4.291326e+00 1.100000e+01
      vertex   1.054561e+00 -4.278245e+00 1.100000e+01
    endloop
  endfacet
  facet normal 9.551640e-02 -3.778030e-01 9.209460e-01
    outer loop
      vertex   1.044883e+00 -4.244254e+00 1.101495e+01
      vertex   1.054561e+00 -4.278245e+00 1.100000e+01
      vertex   1.097804e+00 -4.230874e+00 1.101495e+01
    endloop
  endfacet
  facet normal 9.572235e-02 -3.779635e-01 9.208587e-01
    outer loop
      vertex   1.097804e+00 -4.230874e+00 1.101495e+01
      vertex   1.054561e+00 -4.278245e+00 1.100000e+01
      vertex   1.108952e+00 -4.264470e+00 1.100000e+01
    endloop
  endfacet
  facet normal 1.002197e-01 -3.765212e-01 9.209711e-01
    outer loop
      vertex   1.097804e+00 -4.230874e+00 1.101495e+01
      vertex   1.108952e+00 -4.264470e+00 1.100000e+01
      vertex   1.150733e+00 -4.216786e+00 1.101495e+01
    endloop
  endfacet
  facet normal 1.005398e-01 -3.767601e-01 9.208385e-01
    outer loop
      vertex   1.150733e+00 -4.216786e+00 1.101495e+01
      vertex   1.108952e+00 -4.264470e+00 1.100000e+01
      vertex   1.163167e+00 -4.250002e+00 1.100000e+01
    endloop
  endfacet
  facet normal 1.049247e-01 -3.751875e-01 9.209914e-01
    outer loop
      vertex   1.150733e+00 -4.216786e+00 1.101495e+01
      vertex   1.163167e+00 -4.250002e+00 1.100000e+01
      vertex   1.203657e+00 -4.201985e+00 1.101495e+01
    endloop
  endfacet
  facet normal 1.053397e-01 -3.754849e-01 9.208228e-01
    outer loop
      vertex   1.203657e+00 -4.201985e+00 1.101495e+01
      vertex   1.163167e+00 -4.250002e+00 1.100000e+01
      vertex   1.217199e+00 -4.234844e+00 1.100000e+01
    endloop
  endfacet
  facet normal 1.096306e-01 -3.738004e-01 9.210073e-01
    outer loop
      vertex   1.203657e+00 -4.201985e+00 1.101495e+01
      vertex   1.217199e+00 -4.234844e+00 1.100000e+01
      vertex   1.256562e+00 -4.186469e+00 1.101495e+01
    endloop
  endfacet
  facet normal 1.101214e-01 -3.741392e-01 9.208111e-01
    outer loop
      vertex   1.256562e+00 -4.186469e+00 1.101495e+01
      vertex   1.217199e+00 -4.234844e+00 1.100000e+01
      vertex   1.271042e+00 -4.218996e+00 1.100000e+01
    endloop
  endfacet
  facet normal 1.143359e-01 -3.723586e-01 9.210192e-01
    outer loop
      vertex   1.256562e+00 -4.186469e+00 1.101495e+01
      vertex   1.271042e+00 -4.218996e+00 1.100000e+01
      vertex   1.309436e+00 -4.170234e+00 1.101495e+01
    endloop
  endfacet
  facet normal 1.148840e-01 -3.727240e-01 9.208032e-01
    outer loop
      vertex   1.309436e+00 -4.170234e+00 1.101495e+01
      vertex   1.271042e+00 -4.218996e+00 1.100000e+01
      vertex   1.324689e+00 -4.202461e+00 1.100000e+01
    endloop
  endfacet
  facet normal 1.190398e-01 -3.708611e-01 9.210275e-01
    outer loop
      vertex   1.309436e+00 -4.170234e+00 1.101495e+01
      vertex   1.324689e+00 -4.202461e+00 1.100000e+01
      vertex   1.362263e+00 -4.153277e+00 1.101495e+01
    endloop
  endfacet
  facet normal 1.196271e-01 -3.712402e-01 9.207986e-01
    outer loop
      vertex   1.362263e+00 -4.153277e+00 1.101495e+01
      vertex   1.324689e+00 -4.202461e+00 1.100000e+01
      vertex   1.378133e+00 -4.185239e+00 1.100000e+01
    endloop
  endfacet
  facet normal 1.237410e-01 -3.693069e-01 9.210324e-01
    outer loop
      vertex   1.362263e+00 -4.153277e+00 1.101495e+01
      vertex   1.378133e+00 -4.185239e+00 1.100000e+01
      vertex   1.415030e+00 -4.135597e+00 1.101495e+01
    endloop
  endfacet
  facet normal 1.243497e-01 -3.696885e-01 9.207972e-01
    outer loop
      vertex   1.415030e+00 -4.135597e+00 1.101495e+01
      vertex   1.378133e+00 -4.185239e+00 1.100000e+01
      vertex   1.431367e+00 -4.167333e+00 1.100000e+01
    endloop
  endfacet
  facet normal 1.284384e-01 -3.676953e-01 9.210341e-01
    outer loop
      vertex   1.415030e+00 -4.135597e+00 1.101495e+01
      vertex   1.431367e+00 -4.167333e+00 1.100000e+01
      vertex   1.467724e+00 -4.117191e+00 1.101495e+01
    endloop
  endfacet
  facet normal 1.290512e-01 -3.680695e-01 9.207989e-01
    outer loop
      vertex   1.467724e+00 -4.117191e+00 1.101495e+01
      vertex   1.431367e+00 -4.167333e+00 1.100000e+01
      vertex   1.484386e+00 -4.148744e+00 1.100000e+01
    endloop
  endfacet
  facet normal 1.331310e-01 -3.660259e-01 9.210327e-01
    outer loop
      vertex   1.467724e+00 -4.117191e+00 1.101495e+01
      vertex   1.484386e+00 -4.148744e+00 1.100000e+01
      vertex   1.520328e+00 -4.098057e+00 1.101495e+01
    endloop
  endfacet
  facet normal 1.337307e-01 -3.663835e-01 9.208036e-01
    outer loop
      vertex   1.520328e+00 -4.098057e+00 1.101495e+01
      vertex   1.484386e+00 -4.148744e+00 1.100000e+01
      vertex   1.537179e+00 -4.129474e+00 1.100000e+01
    endloop
  endfacet
  facet normal 1.378177e-01 -3.642983e-01 9.210282e-01
    outer loop
      vertex   1.520328e+00 -4.098057e+00 1.101495e+01
      vertex   1.537179e+00 -4.129474e+00 1.100000e+01
      vertex   1.572830e+00 -4.078195e+00 1.101495e+01
    endloop
  endfacet
  facet normal 1.383852e-01 -3.646298e-01 9.208120e-01
    outer loop
      vertex   1.572830e+00 -4.078195e+00 1.101495e+01
      vertex   1.537179e+00 -4.129474e+00 1.100000e+01
      vertex   1.589711e+00 -4.109537e+00 1.100000e+01
    endloop
  endfacet
  facet normal 1.424981e-01 -3.625139e-01 9.210201e-01
    outer loop
      vertex   1.572830e+00 -4.078195e+00 1.101495e+01
      vertex   1.589711e+00 -4.109537e+00 1.100000e+01
      vertex   1.625215e+00 -4.057604e+00 1.101495e+01
    endloop
  endfacet
  facet normal 1.430121e-01 -3.628089e-01 9.208242e-01
    outer loop
      vertex   1.625215e+00 -4.057604e+00 1.101495e+01
      vertex   1.589711e+00 -4.109537e+00 1.100000e+01
      vertex   1.641966e+00 -4.088939e+00 1.100000e+01
    endloop
  endfacet
  facet normal 1.471714e-01 -3.606730e-01 9.210079e-01
    outer loop
      vertex   1.625215e+00 -4.057604e+00 1.101495e+01
      vertex   1.641966e+00 -4.088939e+00 1.100000e+01
      vertex   1.677468e+00 -4.036282e+00 1.101495e+01
    endloop
  endfacet
  facet normal 1.476100e-01 -3.609212e-01 9.208405e-01
    outer loop
      vertex   1.677468e+00 -4.036282e+00 1.101495e+01
      vertex   1.641966e+00 -4.088939e+00 1.100000e+01
      vertex   1.693939e+00 -4.067683e+00 1.100000e+01
    endloop
  endfacet
  facet normal 1.518368e-01 -3.587759e-01 9.209916e-01
    outer loop
      vertex   1.677468e+00 -4.036282e+00 1.101495e+01
      vertex   1.693939e+00 -4.067683e+00 1.100000e+01
      vertex   1.729574e+00 -4.014230e+00 1.101495e+01
    endloop
  endfacet
  facet normal 1.521778e-01 -3.589667e-01 9.208609e-01
    outer loop
      vertex   1.729574e+00 -4.014230e+00 1.101495e+01
      vertex   1.693939e+00 -4.067683e+00 1.100000e+01
      vertex   1.745623e+00 -4.045773e+00 1.100000e+01
    endloop
  endfacet
  facet normal 1.557857e-01 -3.571752e-01 9.209542e-01
    outer loop
      vertex   1.729574e+00 -4.014230e+00 1.101495e+01
      vertex   1.745623e+00 -4.045773e+00 1.100000e+01
      vertex   1.742649e+00 -4.000000e+00 1.101826e+01
    endloop
  endfacet
  facet normal 1.567660e-01 -3.570626e-01 9.208315e-01
    outer loop
      vertex   1.742649e+00 -4.000000e+00 1.101826e+01
      vertex   1.745623e+00 -4.045773e+00 1.100000e+01
      vertex   1.797012e+00 -4.023211e+00 1.100000e+01
    endloop
  endfacet
  facet normal 1.596923e-01 -3.514966e-01 9.224687e-01
    outer loop
      vertex   1.742649e+00 -4.000000e+00 1.101826e+01
      vertex   1.797012e+00 -4.023211e+00 1.100000e+01
      vertex   1.848101e+00 -4.000000e+00 1.100000e+01
    endloop
  endfacet
  facet normal 1.512992e-01 -3.535510e-01 9.230982e-01
    outer loop
      vertex   1.729574e+00 -4.014230e+00 1.101495e+01
      vertex   1.742649e+00 -4.000000e+00 1.101826e+01
      vertex   1.663904e+00 -4.003645e+00 1.102977e+01
    endloop
  endfacet
  facet normal 1.514630e-01 -3.318995e-01 9.310755e-01
    outer loop
      vertex   1.663904e+00 -4.003645e+00 1.102977e+01
      vertex   1.742649e+00 -4.000000e+00 1.101826e+01
      vertex   1.637010e+00 -4.000000e+00 1.103544e+01
    endloop
  endfacet
  facet normal 1.460659e-01 -3.579637e-01 9.222401e-01
    outer loop
      vertex   1.663904e+00 -4.003645e+00 1.102977e+01
      vertex   1.637010e+00 -4.000000e+00 1.103544e+01
      vertex   1.612074e+00 -4.024794e+00 1.102977e+01
    endloop
  endfacet
  facet normal 1.412142e-01 -3.536383e-01 9.246613e-01
    outer loop
      vertex   1.612074e+00 -4.024794e+00 1.102977e+01
      vertex   1.637010e+00 -4.000000e+00 1.103544e+01
      vertex   1.547386e+00 -4.012222e+00 1.104445e+01
    endloop
  endfacet
  facet normal 1.403120e-01 -3.569525e-01 9.235245e-01
    outer loop
      vertex   1.612074e+00 -4.024794e+00 1.102977e+01
      vertex   1.547386e+00 -4.012222e+00 1.104445e+01
      vertex   1.560113e+00 -4.045219e+00 1.102977e+01
    endloop
  endfacet
  facet normal 1.357101e-01 -3.587273e-01 9.235245e-01
    outer loop
      vertex   1.560113e+00 -4.045219e+00 1.102977e+01
      vertex   1.547386e+00 -4.012222e+00 1.104445e+01
      vertex   1.508035e+00 -4.064921e+00 1.102977e+01
    endloop
  endfacet
  facet normal 1.368117e-01 -3.616391e-01 9.222254e-01
    outer loop
      vertex   1.560113e+00 -4.045219e+00 1.102977e+01
      vertex   1.508035e+00 -4.064921e+00 1.102977e+01
      vertex   1.520328e+00 -4.098057e+00 1.101495e+01
    endloop
  endfacet
  facet normal 1.321628e-01 -3.633638e-01 9.222254e-01
    outer loop
      vertex   1.520328e+00 -4.098057e+00 1.101495e+01
      vertex   1.508035e+00 -4.064921e+00 1.102977e+01
      vertex   1.467724e+00 -4.117191e+00 1.101495e+01
    endloop
  endfacet
  facet normal 1.409563e-01 -3.509682e-01 9.257174e-01
    outer loop
      vertex   1.637010e+00 -4.000000e+00 1.103544e+01
      vertex   1.531191e+00 -4.000000e+00 1.105155e+01
      vertex   1.547386e+00 -4.012222e+00 1.104445e+01
    endloop
  endfacet
  facet normal 1.352625e-01 -3.575439e-01 9.240489e-01
    outer loop
      vertex   1.547386e+00 -4.012222e+00 1.104445e+01
      vertex   1.531191e+00 -4.000000e+00 1.105155e+01
      vertex   1.495734e+00 -4.031762e+00 1.104445e+01
    endloop
  endfacet
  facet normal 1.357101e-01 -3.587273e-01 9.235245e-01
    outer loop
      vertex   1.547386e+00 -4.012222e+00 1.104445e+01
      vertex   1.495734e+00 -4.031762e+00 1.104445e+01
      vertex   1.508035e+00 -4.064921e+00 1.102977e+01
    endloop
  endfacet
  facet normal 1.310986e-01 -3.604381e-01 9.235245e-01
    outer loop
      vertex   1.508035e+00 -4.064921e+00 1.102977e+01
      vertex   1.495734e+00 -4.031762e+00 1.104445e+01
      vertex   1.455856e+00 -4.083900e+00 1.102977e+01
    endloop
  endfacet
  facet normal 1.321628e-01 -3.633638e-01 9.222254e-01
    outer loop
      vertex   1.508035e+00 -4.064921e+00 1.102977e+01
      vertex   1.455856e+00 -4.083900e+00 1.102977e+01
      vertex   1.467724e+00 -4.117191e+00 1.101495e+01
    endloop
  endfacet
  facet normal 1.275054e-01 -3.650241e-01 9.222254e-01
    outer loop
      vertex   1.467724e+00 -4.117191e+00 1.101495e+01
      vertex   1.455856e+00 -4.083900e+00 1.102977e+01
      vertex   1.415030e+00 -4.135597e+00 1.101495e+01
    endloop
  endfacet
  facet normal 1.312492e-01 -3.535372e-01 9.261669e-01
    outer loop
      vertex   1.495734e+00 -4.031762e+00 1.104445e+01
      vertex   1.531191e+00 -4.000000e+00 1.105155e+01
      vertex   1.432097e+00 -4.017251e+00 1.105901e+01
    endloop
  endfacet
  facet normal 1.313654e-01 -3.543452e-01 9.258416e-01
    outer loop
      vertex   1.432097e+00 -4.017251e+00 1.105901e+01
      vertex   1.531191e+00 -4.000000e+00 1.105155e+01
      vertex   1.425208e+00 -4.000000e+00 1.106659e+01
    endloop
  endfacet
  facet normal 1.246927e-01 -3.569718e-01 9.257553e-01
    outer loop
      vertex   1.432097e+00 -4.017251e+00 1.105901e+01
      vertex   1.425208e+00 -4.000000e+00 1.106659e+01
      vertex   1.380682e+00 -4.035211e+00 1.105901e+01
    endloop
  endfacet
  facet normal 1.241096e-01 -3.563066e-01 9.260898e-01
    outer loop
      vertex   1.380682e+00 -4.035211e+00 1.105901e+01
      vertex   1.425208e+00 -4.000000e+00 1.106659e+01
      vertex   1.369218e+00 -4.001706e+00 1.107344e+01
    endloop
  endfacet
  facet normal 1.198709e-01 -3.577566e-01 9.260892e-01
    outer loop
      vertex   1.380682e+00 -4.035211e+00 1.105901e+01
      vertex   1.369218e+00 -4.001706e+00 1.107344e+01
      vertex   1.329196e+00 -4.052462e+00 1.105901e+01
    endloop
  endfacet
  facet normal 1.198709e-01 -3.577566e-01 9.260892e-01
    outer loop
      vertex   1.329196e+00 -4.052462e+00 1.105901e+01
      vertex   1.369218e+00 -4.001706e+00 1.107344e+01
      vertex   1.318159e+00 -4.018814e+00 1.107344e+01
    endloop
  endfacet
  facet normal 1.153133e-01 -3.592515e-01 9.260892e-01
    outer loop
      vertex   1.329196e+00 -4.052462e+00 1.105901e+01
      vertex   1.318159e+00 -4.018814e+00 1.107344e+01
      vertex   1.277651e+00 -4.069007e+00 1.105901e+01
    endloop
  endfacet
  facet normal 1.153133e-01 -3.592515e-01 9.260892e-01
    outer loop
      vertex   1.277651e+00 -4.069007e+00 1.105901e+01
      vertex   1.318159e+00 -4.018814e+00 1.107344e+01
      vertex   1.267042e+00 -4.035221e+00 1.107344e+01
    endloop
  endfacet
  facet normal 1.107512e-01 -3.606840e-01 9.260892e-01
    outer loop
      vertex   1.277651e+00 -4.069007e+00 1.105901e+01
      vertex   1.267042e+00 -4.035221e+00 1.107344e+01
      vertex   1.226061e+00 -4.084848e+00 1.105901e+01
    endloop
  endfacet
  facet normal 1.107512e-01 -3.606840e-01 9.260892e-01
    outer loop
      vertex   1.226061e+00 -4.084848e+00 1.105901e+01
      vertex   1.267042e+00 -4.035221e+00 1.107344e+01
      vertex   1.215881e+00 -4.050931e+00 1.107344e+01
    endloop
  endfacet
  facet normal 1.061856e-01 -3.620544e-01 9.260892e-01
    outer loop
      vertex   1.226061e+00 -4.084848e+00 1.105901e+01
      vertex   1.215881e+00 -4.050931e+00 1.107344e+01
      vertex   1.174440e+00 -4.099988e+00 1.105901e+01
    endloop
  endfacet
  facet normal 1.061856e-01 -3.620544e-01 9.260892e-01
    outer loop
      vertex   1.174440e+00 -4.099988e+00 1.105901e+01
      vertex   1.215881e+00 -4.050931e+00 1.107344e+01
      vertex   1.164688e+00 -4.065945e+00 1.107344e+01
    endloop
  endfacet
  facet normal 1.016179e-01 -3.633628e-01 9.260892e-01
    outer loop
      vertex   1.174440e+00 -4.099988e+00 1.105901e+01
      vertex   1.164688e+00 -4.065945e+00 1.107344e+01
      vertex   1.122800e+00 -4.114429e+00 1.105901e+01
    endloop
  endfacet
  facet normal 1.016179e-01 -3.633628e-01 9.260892e-01
    outer loop
      vertex   1.122800e+00 -4.114429e+00 1.105901e+01
      vertex   1.164688e+00 -4.065945e+00 1.107344e+01
      vertex   1.113478e+00 -4.080267e+00 1.107344e+01
    endloop
  endfacet
  facet normal 9.704913e-02 -3.646096e-01 9.260893e-01
    outer loop
      vertex   1.122800e+00 -4.114429e+00 1.105901e+01
      vertex   1.113478e+00 -4.080267e+00 1.107344e+01
      vertex   1.071156e+00 -4.128176e+00 1.105901e+01
    endloop
  endfacet
  facet normal 9.704913e-02 -3.646096e-01 9.260893e-01
    outer loop
      vertex   1.071156e+00 -4.128176e+00 1.105901e+01
      vertex   1.113478e+00 -4.080267e+00 1.107344e+01
      vertex   1.062262e+00 -4.093899e+00 1.107344e+01
    endloop
  endfacet
  facet normal 9.248054e-02 -3.657951e-01 9.260893e-01
    outer loop
      vertex   1.071156e+00 -4.128176e+00 1.105901e+01
      vertex   1.062262e+00 -4.093899e+00 1.107344e+01
      vertex   1.019520e+00 -4.141230e+00 1.105901e+01
    endloop
  endfacet
  facet normal 9.248054e-02 -3.657951e-01 9.260893e-01
    outer loop
      vertex   1.019520e+00 -4.141230e+00 1.105901e+01
      vertex   1.062262e+00 -4.093899e+00 1.107344e+01
      vertex   1.011055e+00 -4.106845e+00 1.107344e+01
    endloop
  endfacet
  facet normal 8.932204e-02 -3.665736e-01 9.260915e-01
    outer loop
      vertex   1.019520e+00 -4.141230e+00 1.105901e+01
      vertex   1.011055e+00 -4.106845e+00 1.107344e+01
      vertex   1.000000e+00 -4.146072e+00 1.105898e+01
    endloop
  endfacet
  facet normal 8.327564e-02 -3.652673e-01 9.271704e-01
    outer loop
      vertex   1.000000e+00 -4.146072e+00 1.105898e+01
      vertex   1.011055e+00 -4.106845e+00 1.107344e+01
      vertex   1.000000e+00 -4.073137e+00 1.108771e+01
    endloop
  endfacet
  facet normal 8.937168e-02 -3.633471e-01 9.273573e-01
    outer loop
      vertex   1.000000e+00 -4.073137e+00 1.108771e+01
      vertex   1.011055e+00 -4.106845e+00 1.107344e+01
      vertex   1.002585e+00 -4.072439e+00 1.108773e+01
    endloop
  endfacet
  facet normal 8.769458e-02 -3.572345e-01 9.298888e-01
    outer loop
      vertex   1.000000e+00 -4.073137e+00 1.108771e+01
      vertex   1.002585e+00 -4.072439e+00 1.108773e+01
      vertex   1.044458e+00 -4.025283e+00 1.110190e+01
    endloop
  endfacet
  facet normal 9.094986e-02 -3.597407e-01 9.286091e-01
    outer loop
      vertex   1.044458e+00 -4.025283e+00 1.110190e+01
      vertex   1.002585e+00 -4.072439e+00 1.108773e+01
      vertex   1.053363e+00 -4.059601e+00 1.108773e+01
    endloop
  endfacet
  facet normal 9.544284e-02 -3.585748e-01 9.286090e-01
    outer loop
      vertex   1.044458e+00 -4.025283e+00 1.110190e+01
      vertex   1.053363e+00 -4.059601e+00 1.108773e+01
      vertex   1.094815e+00 -4.011879e+00 1.110190e+01
    endloop
  endfacet
  facet normal 9.544284e-02 -3.585748e-01 9.286090e-01
    outer loop
      vertex   1.094815e+00 -4.011879e+00 1.110190e+01
      vertex   1.053363e+00 -4.059601e+00 1.108773e+01
      vertex   1.104149e+00 -4.046083e+00 1.108773e+01
    endloop
  endfacet
  facet normal 9.956155e-02 -3.574512e-01 9.286098e-01
    outer loop
      vertex   1.094815e+00 -4.011879e+00 1.110190e+01
      vertex   1.104149e+00 -4.046083e+00 1.108773e+01
      vertex   1.106477e+00 -4.000000e+00 1.110522e+01
    endloop
  endfacet
  facet normal 9.996559e-02 -3.574546e-01 9.285651e-01
    outer loop
      vertex   1.106477e+00 -4.000000e+00 1.110522e+01
      vertex   1.104149e+00 -4.046083e+00 1.108773e+01
      vertex   1.154931e+00 -4.031881e+00 1.108773e+01
    endloop
  endfacet
  facet normal 1.031221e-01 -3.533329e-01 9.297966e-01
    outer loop
      vertex   1.106477e+00 -4.000000e+00 1.110522e+01
      vertex   1.154931e+00 -4.031881e+00 1.108773e+01
      vertex   1.212842e+00 -4.000000e+00 1.109343e+01
    endloop
  endfacet
  facet normal 1.041200e-01 -3.550115e-01 9.290457e-01
    outer loop
      vertex   1.212842e+00 -4.000000e+00 1.109343e+01
      vertex   1.154931e+00 -4.031881e+00 1.108773e+01
      vertex   1.205694e+00 -4.016993e+00 1.108773e+01
    endloop
  endfacet
  facet normal 1.095766e-01 -3.568590e-01 9.277093e-01
    outer loop
      vertex   1.212842e+00 -4.000000e+00 1.109343e+01
      vertex   1.205694e+00 -4.016993e+00 1.108773e+01
      vertex   1.256427e+00 -4.001415e+00 1.108773e+01
    endloop
  endfacet
  facet normal 1.098350e-01 -3.577003e-01 9.273547e-01
    outer loop
      vertex   1.256427e+00 -4.001415e+00 1.108773e+01
      vertex   1.205694e+00 -4.016993e+00 1.108773e+01
      vertex   1.215881e+00 -4.050931e+00 1.107344e+01
    endloop
  endfacet
  facet normal 1.098350e-01 -3.577003e-01 9.273547e-01
    outer loop
      vertex   1.256427e+00 -4.001415e+00 1.108773e+01
      vertex   1.215881e+00 -4.050931e+00 1.107344e+01
      vertex   1.267042e+00 -4.035221e+00 1.107344e+01
    endloop
  endfacet
  facet normal 1.248857e-01 -2.880273e-01 9.494440e-01
    outer loop
      vertex   1.425208e+00 -4.000000e+00 1.106659e+01
      vertex   1.319088e+00 -4.000000e+00 1.108055e+01
      vertex   1.369218e+00 -4.001706e+00 1.107344e+01
    endloop
  endfacet
  facet normal 1.193481e-01 -3.561961e-01 9.267580e-01
    outer loop
      vertex   1.369218e+00 -4.001706e+00 1.107344e+01
      vertex   1.319088e+00 -4.000000e+00 1.108055e+01
      vertex   1.318159e+00 -4.018814e+00 1.107344e+01
    endloop
  endfacet
  facet normal 1.156526e-01 -2.760792e-01 9.541513e-01
    outer loop
      vertex   1.212842e+00 -4.000000e+00 1.109343e+01
      vertex   1.256427e+00 -4.001415e+00 1.108773e+01
      vertex   1.319088e+00 -4.000000e+00 1.108055e+01
    endloop
  endfacet
  facet normal 1.143905e-01 -3.562699e-01 9.273546e-01
    outer loop
      vertex   1.319088e+00 -4.000000e+00 1.108055e+01
      vertex   1.256427e+00 -4.001415e+00 1.108773e+01
      vertex   1.267042e+00 -4.035221e+00 1.107344e+01
    endloop
  endfacet
  facet normal 1.143302e-01 -3.561886e-01 9.273933e-01
    outer loop
      vertex   1.319088e+00 -4.000000e+00 1.108055e+01
      vertex   1.267042e+00 -4.035221e+00 1.107344e+01
      vertex   1.318159e+00 -4.018814e+00 1.107344e+01
    endloop
  endfacet
  facet normal 9.383086e-02 -3.525187e-01 9.310888e-01
    outer loop
      vertex   1.094815e+00 -4.011879e+00 1.110190e+01
      vertex   1.106477e+00 -4.000000e+00 1.110522e+01
      vertex   1.044458e+00 -4.025283e+00 1.110190e+01
    endloop
  endfacet
  facet normal 9.370612e-02 -3.522288e-01 9.312111e-01
    outer loop
      vertex   1.044458e+00 -4.025283e+00 1.110190e+01
      vertex   1.106477e+00 -4.000000e+00 1.110522e+01
      vertex   1.000000e+00 -4.000000e+00 1.111594e+01
    endloop
  endfacet
  facet normal 8.942454e-02 -3.586331e-01 9.291854e-01
    outer loop
      vertex   1.044458e+00 -4.025283e+00 1.110190e+01
      vertex   1.000000e+00 -4.000000e+00 1.111594e+01
      vertex   1.000000e+00 -4.073137e+00 1.108771e+01
    endloop
  endfacet
  facet normal 9.007498e-02 -3.695999e-01 9.248148e-01
    outer loop
      vertex   1.019520e+00 -4.141230e+00 1.105901e+01
      vertex   1.000000e+00 -4.146072e+00 1.105898e+01
      vertex   1.027980e+00 -4.175594e+00 1.104445e+01
    endloop
  endfacet
  facet normal 8.773319e-02 -3.715464e-01 9.242598e-01
    outer loop
      vertex   1.027980e+00 -4.175594e+00 1.104445e+01
      vertex   1.000000e+00 -4.146072e+00 1.105898e+01
      vertex   1.000000e+00 -4.218803e+00 1.102974e+01
    endloop
  endfacet
  facet normal 9.006997e-02 -3.728097e-01 9.235260e-01
    outer loop
      vertex   1.027980e+00 -4.175594e+00 1.104445e+01
      vertex   1.000000e+00 -4.218803e+00 1.102974e+01
      vertex   1.036435e+00 -4.209935e+00 1.102977e+01
    endloop
  endfacet
  facet normal 9.080705e-02 -3.758344e-01 9.222270e-01
    outer loop
      vertex   1.036435e+00 -4.209935e+00 1.102977e+01
      vertex   1.000000e+00 -4.218803e+00 1.102974e+01
      vertex   1.044883e+00 -4.244254e+00 1.101495e+01
    endloop
  endfacet
  facet normal 9.477177e-02 -3.748577e-01 9.222256e-01
    outer loop
      vertex   1.036435e+00 -4.209935e+00 1.102977e+01
      vertex   1.044883e+00 -4.244254e+00 1.101495e+01
      vertex   1.088927e+00 -4.196664e+00 1.102977e+01
    endloop
  endfacet
  facet normal 9.477177e-02 -3.748577e-01 9.222256e-01
    outer loop
      vertex   1.088927e+00 -4.196664e+00 1.102977e+01
      vertex   1.044883e+00 -4.244254e+00 1.101495e+01
      vertex   1.097804e+00 -4.230874e+00 1.101495e+01
    endloop
  endfacet
  facet normal 9.945355e-02 -3.736429e-01 9.222255e-01
    outer loop
      vertex   1.088927e+00 -4.196664e+00 1.102977e+01
      vertex   1.097804e+00 -4.230874e+00 1.101495e+01
      vertex   1.141428e+00 -4.182690e+00 1.102977e+01
    endloop
  endfacet
  facet normal 9.945355e-02 -3.736429e-01 9.222255e-01
    outer loop
      vertex   1.141428e+00 -4.182690e+00 1.102977e+01
      vertex   1.097804e+00 -4.230874e+00 1.101495e+01
      vertex   1.150733e+00 -4.216786e+00 1.101495e+01
    endloop
  endfacet
  facet normal 1.041355e-01 -3.723652e-01 9.222255e-01
    outer loop
      vertex   1.141428e+00 -4.182690e+00 1.102977e+01
      vertex   1.150733e+00 -4.216786e+00 1.101495e+01
      vertex   1.193924e+00 -4.168009e+00 1.102977e+01
    endloop
  endfacet
  facet normal 1.041355e-01 -3.723652e-01 9.222255e-01
    outer loop
      vertex   1.193924e+00 -4.168009e+00 1.102977e+01
      vertex   1.150733e+00 -4.216786e+00 1.101495e+01
      vertex   1.203657e+00 -4.201985e+00 1.101495e+01
    endloop
  endfacet
  facet normal 1.088164e-01 -3.710244e-01 9.222255e-01
    outer loop
      vertex   1.193924e+00 -4.168009e+00 1.102977e+01
      vertex   1.203657e+00 -4.201985e+00 1.101495e+01
      vertex   1.246402e+00 -4.152618e+00 1.102977e+01
    endloop
  endfacet
  facet normal 1.088164e-01 -3.710244e-01 9.222255e-01
    outer loop
      vertex   1.246402e+00 -4.152618e+00 1.102977e+01
      vertex   1.203657e+00 -4.201985e+00 1.101495e+01
      vertex   1.256562e+00 -4.186469e+00 1.101495e+01
    endloop
  endfacet
  facet normal 1.134951e-01 -3.696201e-01 9.222255e-01
    outer loop
      vertex   1.246402e+00 -4.152618e+00 1.102977e+01
      vertex   1.256562e+00 -4.186469e+00 1.101495e+01
      vertex   1.298848e+00 -4.136514e+00 1.102977e+01
    endloop
  endfacet
  facet normal 1.134951e-01 -3.696201e-01 9.222255e-01
    outer loop
      vertex   1.298848e+00 -4.136514e+00 1.102977e+01
      vertex   1.256562e+00 -4.186469e+00 1.101495e+01
      vertex   1.309436e+00 -4.170234e+00 1.101495e+01
    endloop
  endfacet
  facet normal 1.181703e-01 -3.681521e-01 9.222255e-01
    outer loop
      vertex   1.298848e+00 -4.136514e+00 1.102977e+01
      vertex   1.309436e+00 -4.170234e+00 1.101495e+01
      vertex   1.351248e+00 -4.119694e+00 1.102977e+01
    endloop
  endfacet
  facet normal 1.181703e-01 -3.681521e-01 9.222255e-01
    outer loop
      vertex   1.351248e+00 -4.119694e+00 1.102977e+01
      vertex   1.309436e+00 -4.170234e+00 1.101495e+01
      vertex   1.362263e+00 -4.153277e+00 1.101495e+01
    endloop
  endfacet
  facet normal 1.228408e-01 -3.666202e-01 9.222255e-01
    outer loop
      vertex   1.351248e+00 -4.119694e+00 1.102977e+01
      vertex   1.362263e+00 -4.153277e+00 1.101495e+01
      vertex   1.403589e+00 -4.102157e+00 1.102977e+01
    endloop
  endfacet
  facet normal 1.228408e-01 -3.666202e-01 9.222255e-01
    outer loop
      vertex   1.403589e+00 -4.102157e+00 1.102977e+01
      vertex   1.362263e+00 -4.153277e+00 1.101495e+01
      vertex   1.415030e+00 -4.135597e+00 1.101495e+01
    endloop
  endfacet
  facet normal 1.275054e-01 -3.650241e-01 9.222254e-01
    outer loop
      vertex   1.403589e+00 -4.102157e+00 1.102977e+01
      vertex   1.415030e+00 -4.135597e+00 1.101495e+01
      vertex   1.455856e+00 -4.083900e+00 1.102977e+01
    endloop
  endfacet
  facet normal 9.324493e-02 -3.688185e-01 9.248126e-01
    outer loop
      vertex   1.071156e+00 -4.128176e+00 1.105901e+01
      vertex   1.019520e+00 -4.141230e+00 1.105901e+01
      vertex   1.027980e+00 -4.175594e+00 1.104445e+01
    endloop
  endfacet
  facet normal 9.400868e-02 -3.718394e-01 9.235247e-01
    outer loop
      vertex   1.027980e+00 -4.175594e+00 1.104445e+01
      vertex   1.036435e+00 -4.209935e+00 1.102977e+01
      vertex   1.080045e+00 -4.162431e+00 1.104445e+01
    endloop
  endfacet
  facet normal 9.400868e-02 -3.718394e-01 9.235247e-01
    outer loop
      vertex   1.080045e+00 -4.162431e+00 1.104445e+01
      vertex   1.036435e+00 -4.209935e+00 1.102977e+01
      vertex   1.088927e+00 -4.196664e+00 1.102977e+01
    endloop
  endfacet
  facet normal 9.865277e-02 -3.706344e-01 9.235246e-01
    outer loop
      vertex   1.080045e+00 -4.162431e+00 1.104445e+01
      vertex   1.088927e+00 -4.196664e+00 1.102977e+01
      vertex   1.132117e+00 -4.148571e+00 1.104445e+01
    endloop
  endfacet
  facet normal 9.865277e-02 -3.706344e-01 9.235246e-01
    outer loop
      vertex   1.132117e+00 -4.148571e+00 1.104445e+01
      vertex   1.088927e+00 -4.196664e+00 1.102977e+01
      vertex   1.141428e+00 -4.182690e+00 1.102977e+01
    endloop
  endfacet
  facet normal 1.032970e-01 -3.693670e-01 9.235246e-01
    outer loop
      vertex   1.132117e+00 -4.148571e+00 1.104445e+01
      vertex   1.141428e+00 -4.182690e+00 1.102977e+01
      vertex   1.184185e+00 -4.134009e+00 1.104445e+01
    endloop
  endfacet
  facet normal 1.032970e-01 -3.693670e-01 9.235246e-01
    outer loop
      vertex   1.184185e+00 -4.134009e+00 1.104445e+01
      vertex   1.141428e+00 -4.182690e+00 1.102977e+01
      vertex   1.193924e+00 -4.168009e+00 1.102977e+01
    endloop
  endfacet
  facet normal 1.079402e-01 -3.680370e-01 9.235246e-01
    outer loop
      vertex   1.184185e+00 -4.134009e+00 1.104445e+01
      vertex   1.193924e+00 -4.168009e+00 1.102977e+01
      vertex   1.236235e+00 -4.118744e+00 1.104445e+01
    endloop
  endfacet
  facet normal 1.079402e-01 -3.680370e-01 9.235246e-01
    outer loop
      vertex   1.236235e+00 -4.118744e+00 1.104445e+01
      vertex   1.193924e+00 -4.168009e+00 1.102977e+01
      vertex   1.246402e+00 -4.152618e+00 1.102977e+01
    endloop
  endfacet
  facet normal 1.125812e-01 -3.666440e-01 9.235246e-01
    outer loop
      vertex   1.236235e+00 -4.118744e+00 1.104445e+01
      vertex   1.246402e+00 -4.152618e+00 1.102977e+01
      vertex   1.288253e+00 -4.102771e+00 1.104445e+01
    endloop
  endfacet
  facet normal 1.125812e-01 -3.666440e-01 9.235246e-01
    outer loop
      vertex   1.288253e+00 -4.102771e+00 1.104445e+01
      vertex   1.246402e+00 -4.152618e+00 1.102977e+01
      vertex   1.298848e+00 -4.136514e+00 1.102977e+01
    endloop
  endfacet
  facet normal 1.172188e-01 -3.651878e-01 9.235246e-01
    outer loop
      vertex   1.288253e+00 -4.102771e+00 1.104445e+01
      vertex   1.298848e+00 -4.136514e+00 1.102977e+01
      vertex   1.340226e+00 -4.086089e+00 1.104445e+01
    endloop
  endfacet
  facet normal 1.172188e-01 -3.651878e-01 9.235246e-01
    outer loop
      vertex   1.340226e+00 -4.086089e+00 1.104445e+01
      vertex   1.298848e+00 -4.136514e+00 1.102977e+01
      vertex   1.351248e+00 -4.119694e+00 1.102977e+01
    endloop
  endfacet
  facet normal 1.218517e-01 -3.636682e-01 9.235246e-01
    outer loop
      vertex   1.340226e+00 -4.086089e+00 1.104445e+01
      vertex   1.351248e+00 -4.119694e+00 1.102977e+01
      vertex   1.392139e+00 -4.068695e+00 1.104445e+01
    endloop
  endfacet
  facet normal 1.218517e-01 -3.636682e-01 9.235246e-01
    outer loop
      vertex   1.392139e+00 -4.068695e+00 1.104445e+01
      vertex   1.351248e+00 -4.119694e+00 1.102977e+01
      vertex   1.403589e+00 -4.102157e+00 1.102977e+01
    endloop
  endfacet
  facet normal 1.264787e-01 -3.620850e-01 9.235245e-01
    outer loop
      vertex   1.392139e+00 -4.068695e+00 1.104445e+01
      vertex   1.403589e+00 -4.102157e+00 1.102977e+01
      vertex   1.443980e+00 -4.050586e+00 1.104445e+01
    endloop
  endfacet
  facet normal 1.264787e-01 -3.620850e-01 9.235245e-01
    outer loop
      vertex   1.443980e+00 -4.050586e+00 1.104445e+01
      vertex   1.403589e+00 -4.102157e+00 1.102977e+01
      vertex   1.455856e+00 -4.083900e+00 1.102977e+01
    endloop
  endfacet
  facet normal 1.310986e-01 -3.604381e-01 9.235245e-01
    outer loop
      vertex   1.443980e+00 -4.050586e+00 1.104445e+01
      vertex   1.455856e+00 -4.083900e+00 1.102977e+01
      vertex   1.495734e+00 -4.031762e+00 1.104445e+01
    endloop
  endfacet
  facet normal 9.171551e-02 -3.627691e-01 9.273548e-01
    outer loop
      vertex   1.053363e+00 -4.059601e+00 1.108773e+01
      vertex   1.002585e+00 -4.072439e+00 1.108773e+01
      vertex   1.011055e+00 -4.106845e+00 1.107344e+01
    endloop
  endfacet
  facet normal 9.171551e-02 -3.627691e-01 9.273548e-01
    outer loop
      vertex   1.053363e+00 -4.059601e+00 1.108773e+01
      vertex   1.011055e+00 -4.106845e+00 1.107344e+01
      vertex   1.062262e+00 -4.093899e+00 1.107344e+01
    endloop
  endfacet
  facet normal 9.785129e-02 -3.676233e-01 9.248125e-01
    outer loop
      vertex   1.122800e+00 -4.114429e+00 1.105901e+01
      vertex   1.071156e+00 -4.128176e+00 1.105901e+01
      vertex   1.080045e+00 -4.162431e+00 1.104445e+01
    endloop
  endfacet
  facet normal 9.324493e-02 -3.688185e-01 9.248126e-01
    outer loop
      vertex   1.080045e+00 -4.162431e+00 1.104445e+01
      vertex   1.071156e+00 -4.128176e+00 1.105901e+01
      vertex   1.027980e+00 -4.175594e+00 1.104445e+01
    endloop
  endfacet
  facet normal 9.785129e-02 -3.676233e-01 9.248125e-01
    outer loop
      vertex   1.122800e+00 -4.114429e+00 1.105901e+01
      vertex   1.080045e+00 -4.162431e+00 1.104445e+01
      vertex   1.132117e+00 -4.148571e+00 1.104445e+01
    endloop
  endfacet
  facet normal 9.624631e-02 -3.615934e-01 9.273547e-01
    outer loop
      vertex   1.104149e+00 -4.046083e+00 1.108773e+01
      vertex   1.053363e+00 -4.059601e+00 1.108773e+01
      vertex   1.062262e+00 -4.093899e+00 1.107344e+01
    endloop
  endfacet
  facet normal 9.624631e-02 -3.615934e-01 9.273547e-01
    outer loop
      vertex   1.104149e+00 -4.046083e+00 1.108773e+01
      vertex   1.062262e+00 -4.093899e+00 1.107344e+01
      vertex   1.113478e+00 -4.080267e+00 1.107344e+01
    endloop
  endfacet
  facet normal 1.024578e-01 -3.663662e-01 9.248125e-01
    outer loop
      vertex   1.174440e+00 -4.099988e+00 1.105901e+01
      vertex   1.122800e+00 -4.114429e+00 1.105901e+01
      vertex   1.132117e+00 -4.148571e+00 1.104445e+01
    endloop
  endfacet
  facet normal 1.024578e-01 -3.663662e-01 9.248125e-01
    outer loop
      vertex   1.174440e+00 -4.099988e+00 1.105901e+01
      vertex   1.132117e+00 -4.148571e+00 1.104445e+01
      vertex   1.184185e+00 -4.134009e+00 1.104445e+01
    endloop
  endfacet
  facet normal 1.007773e-01 -3.603570e-01 9.273547e-01
    outer loop
      vertex   1.154931e+00 -4.031881e+00 1.108773e+01
      vertex   1.104149e+00 -4.046083e+00 1.108773e+01
      vertex   1.113478e+00 -4.080267e+00 1.107344e+01
    endloop
  endfacet
  facet normal 1.007773e-01 -3.603570e-01 9.273547e-01
    outer loop
      vertex   1.154931e+00 -4.031881e+00 1.108773e+01
      vertex   1.113478e+00 -4.080267e+00 1.107344e+01
      vertex   1.164688e+00 -4.065945e+00 1.107344e+01
    endloop
  endfacet
  facet normal 1.070633e-01 -3.650469e-01 9.248125e-01
    outer loop
      vertex   1.226061e+00 -4.084848e+00 1.105901e+01
      vertex   1.174440e+00 -4.099988e+00 1.105901e+01
      vertex   1.184185e+00 -4.134009e+00 1.104445e+01
    endloop
  endfacet
  facet normal 1.070633e-01 -3.650469e-01 9.248125e-01
    outer loop
      vertex   1.226061e+00 -4.084848e+00 1.105901e+01
      vertex   1.184185e+00 -4.134009e+00 1.104445e+01
      vertex   1.236235e+00 -4.118744e+00 1.104445e+01
    endloop
  endfacet
  facet normal 1.053072e-01 -3.590594e-01 9.273547e-01
    outer loop
      vertex   1.205694e+00 -4.016993e+00 1.108773e+01
      vertex   1.154931e+00 -4.031881e+00 1.108773e+01
      vertex   1.164688e+00 -4.065945e+00 1.107344e+01
    endloop
  endfacet
  facet normal 1.053072e-01 -3.590594e-01 9.273547e-01
    outer loop
      vertex   1.205694e+00 -4.016993e+00 1.108773e+01
      vertex   1.164688e+00 -4.065945e+00 1.107344e+01
      vertex   1.215881e+00 -4.050931e+00 1.107344e+01
    endloop
  endfacet
  facet normal 1.116666e-01 -3.636653e-01 9.248125e-01
    outer loop
      vertex   1.277651e+00 -4.069007e+00 1.105901e+01
      vertex   1.226061e+00 -4.084848e+00 1.105901e+01
      vertex   1.236235e+00 -4.118744e+00 1.104445e+01
    endloop
  endfacet
  facet normal 1.116666e-01 -3.636653e-01 9.248125e-01
    outer loop
      vertex   1.277651e+00 -4.069007e+00 1.105901e+01
      vertex   1.236235e+00 -4.118744e+00 1.104445e+01
      vertex   1.288253e+00 -4.102771e+00 1.104445e+01
    endloop
  endfacet
  facet normal 1.162665e-01 -3.622209e-01 9.248125e-01
    outer loop
      vertex   1.329196e+00 -4.052462e+00 1.105901e+01
      vertex   1.277651e+00 -4.069007e+00 1.105901e+01
      vertex   1.288253e+00 -4.102771e+00 1.104445e+01
    endloop
  endfacet
  facet normal 1.162665e-01 -3.622209e-01 9.248125e-01
    outer loop
      vertex   1.329196e+00 -4.052462e+00 1.105901e+01
      vertex   1.288253e+00 -4.102771e+00 1.104445e+01
      vertex   1.340226e+00 -4.086089e+00 1.104445e+01
    endloop
  endfacet
  facet normal 1.208617e-01 -3.607137e-01 9.248125e-01
    outer loop
      vertex   1.380682e+00 -4.035211e+00 1.105901e+01
      vertex   1.329196e+00 -4.052462e+00 1.105901e+01
      vertex   1.340226e+00 -4.086089e+00 1.104445e+01
    endloop
  endfacet
  facet normal 1.208617e-01 -3.607137e-01 9.248125e-01
    outer loop
      vertex   1.380682e+00 -4.035211e+00 1.105901e+01
      vertex   1.340226e+00 -4.086089e+00 1.104445e+01
      vertex   1.392139e+00 -4.068695e+00 1.104445e+01
    endloop
  endfacet
  facet normal 1.254512e-01 -3.591433e-01 9.248124e-01
    outer loop
      vertex   1.432097e+00 -4.017251e+00 1.105901e+01
      vertex   1.380682e+00 -4.035211e+00 1.105901e+01
      vertex   1.392139e+00 -4.068695e+00 1.104445e+01
    endloop
  endfacet
  facet normal 1.254512e-01 -3.591433e-01 9.248124e-01
    outer loop
      vertex   1.432097e+00 -4.017251e+00 1.105901e+01
      vertex   1.392139e+00 -4.068695e+00 1.104445e+01
      vertex   1.443980e+00 -4.050586e+00 1.104445e+01
    endloop
  endfacet
  facet normal 1.300335e-01 -3.575098e-01 9.248124e-01
    outer loop
      vertex   1.495734e+00 -4.031762e+00 1.104445e+01
      vertex   1.432097e+00 -4.017251e+00 1.105901e+01
      vertex   1.443980e+00 -4.050586e+00 1.104445e+01
    endloop
  endfacet
  facet normal 1.414509e-01 -3.598499e-01 9.222254e-01
    outer loop
      vertex   1.612074e+00 -4.024794e+00 1.102977e+01
      vertex   1.560113e+00 -4.045219e+00 1.102977e+01
      vertex   1.572830e+00 -4.078195e+00 1.101495e+01
    endloop
  endfacet
  facet normal 1.368117e-01 -3.616391e-01 9.222254e-01
    outer loop
      vertex   1.572830e+00 -4.078195e+00 1.101495e+01
      vertex   1.560113e+00 -4.045219e+00 1.102977e+01
      vertex   1.520328e+00 -4.098057e+00 1.101495e+01
    endloop
  endfacet
  facet normal 1.460791e-01 -3.579962e-01 9.222254e-01
    outer loop
      vertex   1.663904e+00 -4.003645e+00 1.102977e+01
      vertex   1.612074e+00 -4.024794e+00 1.102977e+01
      vertex   1.625215e+00 -4.057604e+00 1.101495e+01
    endloop
  endfacet
  facet normal 1.414509e-01 -3.598499e-01 9.222254e-01
    outer loop
      vertex   1.625215e+00 -4.057604e+00 1.101495e+01
      vertex   1.612074e+00 -4.024794e+00 1.102977e+01
      vertex   1.572830e+00 -4.078195e+00 1.101495e+01
    endloop
  endfacet
  facet normal 1.506950e-01 -3.560778e-01 9.222254e-01
    outer loop
      vertex   1.729574e+00 -4.014230e+00 1.101495e+01
      vertex   1.663904e+00 -4.003645e+00 1.102977e+01
      vertex   1.677468e+00 -4.036282e+00 1.101495e+01
    endloop
  endfacet
  facet normal 1.460791e-01 -3.579962e-01 9.222254e-01
    outer loop
      vertex   1.677468e+00 -4.036282e+00 1.101495e+01
      vertex   1.663904e+00 -4.003645e+00 1.102977e+01
      vertex   1.625215e+00 -4.057604e+00 1.101495e+01
    endloop
  endfacet
  facet normal 0.000000e+00 1.000000e+00 0.000000e+00
    outer loop
      vertex   1.000000e+00 -4.000000e+00 1.111594e+01
      vertex   1.106477e+00 -4.000000e+00 1.110522e+01
      vertex   1.000000e+00 -4.000000e+00 1.100000e+01
    endloop
  endfacet
  facet normal 0.000000e+00 1.000000e+00 0.000000e+00
    outer loop
      vertex   1.000000e+00 -4.000000e+00 1.100000e+01
      vertex   1.106477e+00 -4.000000e+00 1.110522e+01
      vertex   1.212842e+00 -4.000000e+00 1.109343e+01
    endloop
  endfacet
  facet normal 1.310145e-14 1.000000e+00 -2.984722e-14
    outer loop
      vertex   1.000000e+00 -4.000000e+00 1.100000e+01
      vertex   1.212842e+00 -4.000000e+00 1.109343e+01
      vertex   1.319088e+00 -4.000000e+00 1.108055e+01
    endloop
  endfacet
  facet normal 1.907063e-15 1.000000e+00 1.449846e-14
    outer loop
      vertex   1.319088e+00 -4.000000e+00 1.108055e+01
      vertex   1.425208e+00 -4.000000e+00 1.106659e+01
      vertex   1.000000e+00 -4.000000e+00 1.100000e+01
    endloop
  endfacet
  facet normal 1.985808e-15 1.000000e+00 1.399564e-14
    outer loop
      vertex   1.000000e+00 -4.000000e+00 1.100000e+01
      vertex   1.425208e+00 -4.000000e+00 1.106659e+01
      vertex   1.531191e+00 -4.000000e+00 1.105155e+01
    endloop
  endfacet
  facet normal 2.042356e-15 1.000000e+00 1.341298e-14
    outer loop
      vertex   1.000000e+00 -4.000000e+00 1.100000e+01
      vertex   1.531191e+00 -4.000000e+00 1.105155e+01
      vertex   1.637010e+00 -4.000000e+00 1.103544e+01
    endloop
  endfacet
  facet normal -2.207344e-15 1.000000e+00 8.979865e-14
    outer loop
      vertex   1.637010e+00 -4.000000e+00 1.103544e+01
      vertex   1.742649e+00 -4.000000e+00 1.101826e+01
      vertex   1.000000e+00 -4.000000e+00 1.100000e+01
    endloop
  endfacet
  facet normal 0.000000e+00 1.000000e+00 0.000000e+00
    outer loop
      vertex   1.000000e+00 -4.000000e+00 1.100000e+01
      vertex   1.742649e+00 -4.000000e+00 1.101826e+01
      vertex   1.848101e+00 -4.000000e+00 1.100000e+01
    endloop
  endfacet
  facet normal -0.000000e+00 0.000000e+00 -1.000000e+00
    outer loop
      vertex   1.848101e+00 -4.000000e+00 1.100000e+01
      vertex   1.797012e+00 -4.023211e+00 1.100000e+01
      vertex   1.000000e+00 -4.000000e+00 1.100000e+01
    endloop
  endfacet
  facet normal 0.000000e+00 0.000000e+00 -1.000000e+00
    outer loop
      vertex   1.000000e+00 -4.000000e+00 1.100000e+01
      vertex   1.797012e+00 -4.023211e+00 1.100000e+01
      vertex   1.745623e+00 -4.045773e+00 1.100000e+01
    endloop
  endfacet
  facet normal 0.000000e+00 0.000000e+00 -1.000000e+00
    outer loop
      vertex   1.000000e+00 -4.000000e+00 1.100000e+01
      vertex   1.745623e+00 -4.045773e+00 1.100000e+01
      vertex   1.693939e+00 -4.067683e+00 1.100000e+01
    endloop
  endfacet
  facet normal -0.000000e+00 0.000000e+00 -1.000000e+00
    outer loop
      vertex   1.693939e+00 -4.067683e+00 1.100000e+01
      vertex   1.641966e+00 -4.088939e+00 1.100000e+01
      vertex   1.000000e+00 -4.000000e+00 1.100000e+01
    endloop
  endfacet
  facet normal 8.840566e-15 6.381159e-14 -1.000000e+00
    outer loop
      vertex   1.000000e+00 -4.000000e+00 1.100000e+01
      vertex   1.641966e+00 -4.088939e+00 1.100000e+01
      vertex   1.589711e+00 -4.109537e+00 1.100000e+01
    endloop
  endfacet
  facet normal -2.022427e-15 5.328874e-15 -1.000000e+00
    outer loop
      vertex   1.000000e+00 -4.000000e+00 1.100000e+01
      vertex   1.589711e+00 -4.109537e+00 1.100000e+01
      vertex   1.537179e+00 -4.129474e+00 1.100000e+01
    endloop
  endfacet
  facet normal -1.537369e-14 -5.006459e-14 -1.000000e+00
    outer loop
      vertex   1.537179e+00 -4.129474e+00 1.100000e+01
      vertex   1.484386e+00 -4.148744e+00 1.100000e+01
      vertex   1.000000e+00 -4.000000e+00 1.100000e+01
    endloop
  endfacet
  facet normal 1.564323e-14 5.094235e-14 -1.000000e+00
    outer loop
      vertex   1.000000e+00 -4.000000e+00 1.100000e+01
      vertex   1.484386e+00 -4.148744e+00 1.100000e+01
      vertex   1.431367e+00 -4.167333e+00 1.100000e+01
    endloop
  endfacet
  facet normal 1.595928e-14 5.175709e-14 -1.000000e+00
    outer loop
      vertex   1.000000e+00 -4.000000e+00 1.100000e+01
      vertex   1.431367e+00 -4.167333e+00 1.100000e+01
      vertex   1.378133e+00 -4.185239e+00 1.100000e+01
    endloop
  endfacet
  facet normal -4.382686e-14 -7.028567e-14 -1.000000e+00
    outer loop
      vertex   1.378133e+00 -4.185239e+00 1.100000e+01
      vertex   1.324689e+00 -4.202461e+00 1.100000e+01
      vertex   1.000000e+00 -4.000000e+00 1.100000e+01
    endloop
  endfacet
  facet normal 0.000000e+00 0.000000e+00 -1.000000e+00
    outer loop
      vertex   1.000000e+00 -4.000000e+00 1.100000e+01
      vertex   1.324689e+00 -4.202461e+00 1.100000e+01
      vertex   1.271042e+00 -4.218996e+00 1.100000e+01
    endloop
  endfacet
  facet normal 0.000000e+00 0.000000e+00 -1.000000e+00
    outer loop
      vertex   1.000000e+00 -4.000000e+00 1.100000e+01
      vertex   1.271042e+00 -4.218996e+00 1.100000e+01
      vertex   1.217199e+00 -4.234844e+00 1.100000e+01
    endloop
  endfacet
  facet normal -0.000000e+00 0.000000e+00 -1.000000e+00
    outer loop
      vertex   1.217199e+00 -4.234844e+00 1.100000e+01
      vertex   1.163167e+00 -4.250002e+00 1.100000e+01
      vertex   1.000000e+00 -4.000000e+00 1.100000e+01
    endloop
  endfacet
  facet normal 0.000000e+00 0.000000e+00 -1.000000e+00
    outer loop
      vertex   1.000000e+00 -4.000000e+00 1.100000e+01
      vertex   1.163167e+00 -4.250002e+00 1.100000e+01
      vertex   1.108952e+00 -4.264470e+00 1.100000e+01
    endloop
  endfacet
  facet normal 0.000000e+00 0.000000e+00 -1.000000e+00
    outer loop
      vertex   1.000000e+00 -4.000000e+00 1.100000e+01
      vertex   1.108952e+00 -4.264470e+00 1.100000e+01
      vertex   1.054561e+00 -4.278245e+00 1.100000e+01
    endloop
  endfacet
  facet normal -0.000000e+00 0.000000e+00 -1.000000e+00
    outer loop
      vertex   1.054561e+00 -4.278245e+00 1.100000e+01
      vertex   1.000000e+00 -4.291326e+00 1.100000e+01
      vertex   1.000000e+00 -4.000000e+00 1.100000e+01
    endloop
  endfacet
  facet normal -1.000000e+00 0.000000e+00 -7.466339e-15
    outer loop
      vertex   1.000000e+00 -4.291326e+00 1.100000e+01
      vertex   1.000000e+00 -4.218803e+00 1.102974e+01
      vertex   1.000000e+00 -4.000000e+00 1.100000e+01
    endloop
  endfacet
  facet normal -1.000000e+00 1.529820e-15 3.789044e-15
    outer loop
      vertex   1.000000e+00 -4.000000e+00 1.100000e+01
      vertex   1.000000e+00 -4.218803e+00 1.102974e+01
      vertex   1.000000e+00 -4.146072e+00 1.105898e+01
    endloop
  endfacet
  facet normal -1.000000e+00 0.000000e+00 0.000000e+00
    outer loop
      vertex   1.000000e+00 -4.000000e+00 1.100000e+01
      vertex   1.000000e+00 -4.146072e+00 1.105898e+01
      vertex   1.000000e+00 -4.073137e+00 1.108771e+01
    endloop
  endfacet
  facet normal -1.000000e+00 0.000000e+00 0.000000e+00
    outer loop
      vertex   1.000000e+00 -4.073137e+00 1.108771e+01
      vertex   1.000000e+00 -4.000000e+00 1.111594e+01
      vertex   1.000000e+00 -4.000000e+00 1.100000e+01
    endloop
  endfacet
endsolid
