solid ASCII
  facet normal -8.764116e-01 3.594426e-01 3.204742e-01
    outer loop
      vertex   8.000000e+00 2.451215e+01 1.000000e+00
      vertex   8.000000e+00 2.448773e+01 1.027384e+00
      vertex   8.200082e+00 2.500000e+01 1.000000e+00
    endloop
  endfacet
  facet normal -8.736912e-01 3.588097e-01 3.285106e-01
    outer loop
      vertex   8.200082e+00 2.500000e+01 1.000000e+00
      vertex   8.000000e+00 2.448773e+01 1.027384e+00
      vertex   8.222502e+00 2.500000e+01 1.059627e+00
    endloop
  endfacet
  facet normal -8.719853e-01 3.577111e-01 3.341921e-01
    outer loop
      vertex   8.222502e+00 2.500000e+01 1.059627e+00
      vertex   8.000000e+00 2.448773e+01 1.027384e+00
      vertex   8.000000e+00 2.446228e+01 1.054632e+00
    endloop
  endfacet
  facet normal -8.675097e-01 3.557339e-01 3.476785e-01
    outer loop
      vertex   8.222502e+00 2.500000e+01 1.059627e+00
      vertex   8.000000e+00 2.446228e+01 1.054632e+00
      vertex   8.000000e+00 2.443579e+01 1.081737e+00
    endloop
  endfacet
  facet normal -8.636859e-01 3.546367e-01 3.581612e-01
    outer loop
      vertex   8.222502e+00 2.500000e+01 1.059627e+00
      vertex   8.000000e+00 2.443579e+01 1.081737e+00
      vertex   8.246945e+00 2.500000e+01 1.118570e+00
    endloop
  endfacet
  facet normal -8.626252e-01 3.539630e-01 3.613696e-01
    outer loop
      vertex   8.246945e+00 2.500000e+01 1.118570e+00
      vertex   8.000000e+00 2.443579e+01 1.081737e+00
      vertex   8.000000e+00 2.440826e+01 1.108694e+00
    endloop
  endfacet
  facet normal -8.578650e-01 3.517554e-01 3.746140e-01
    outer loop
      vertex   8.246945e+00 2.500000e+01 1.118570e+00
      vertex   8.000000e+00 2.440826e+01 1.108694e+00
      vertex   8.000000e+00 2.437972e+01 1.135497e+00
    endloop
  endfacet
  facet normal -8.528231e-01 3.500986e-01 3.874581e-01
    outer loop
      vertex   8.246945e+00 2.500000e+01 1.118570e+00
      vertex   8.000000e+00 2.437972e+01 1.135497e+00
      vertex   8.273387e+00 2.500000e+01 1.176770e+00
    endloop
  endfacet
  facet normal -8.525342e-01 3.499182e-01 3.882559e-01
    outer loop
      vertex   8.273387e+00 2.500000e+01 1.176770e+00
      vertex   8.000000e+00 2.437972e+01 1.135497e+00
      vertex   8.000000e+00 2.435016e+01 1.162141e+00
    endloop
  endfacet
  facet normal -8.474878e-01 3.475026e-01 4.012561e-01
    outer loop
      vertex   8.273387e+00 2.500000e+01 1.176770e+00
      vertex   8.000000e+00 2.435016e+01 1.162141e+00
      vertex   8.000000e+00 2.431958e+01 1.188620e+00
    endloop
  endfacet
  facet normal -8.418346e-01 3.454651e-01 4.146908e-01
    outer loop
      vertex   8.000000e+00 2.431958e+01 1.188620e+00
      vertex   8.000000e+00 2.428800e+01 1.214928e+00
      vertex   8.273387e+00 2.500000e+01 1.176770e+00
    endloop
  endfacet
  facet normal -8.410903e-01 3.452688e-01 4.163611e-01
    outer loop
      vertex   8.273387e+00 2.500000e+01 1.176770e+00
      vertex   8.000000e+00 2.428800e+01 1.214928e+00
      vertex   8.301801e+00 2.500000e+01 1.234168e+00
    endloop
  endfacet
  facet normal -8.363882e-01 3.429726e-01 4.275799e-01
    outer loop
      vertex   8.301801e+00 2.500000e+01 1.234168e+00
      vertex   8.000000e+00 2.428800e+01 1.214928e+00
      vertex   8.000000e+00 2.425542e+01 1.241061e+00
    endloop
  endfacet
  facet normal -8.304698e-01 3.406954e-01 4.407340e-01
    outer loop
      vertex   8.301801e+00 2.500000e+01 1.234168e+00
      vertex   8.000000e+00 2.425542e+01 1.241061e+00
      vertex   8.000000e+00 2.422185e+01 1.267012e+00
    endloop
  endfacet
  facet normal -8.285143e-01 3.401106e-01 4.448470e-01
    outer loop
      vertex   8.301801e+00 2.500000e+01 1.234168e+00
      vertex   8.000000e+00 2.422185e+01 1.267012e+00
      vertex   8.332158e+00 2.500000e+01 1.290708e+00
    endloop
  endfacet
  facet normal -8.245769e-01 3.381645e-01 4.535610e-01
    outer loop
      vertex   8.332158e+00 2.500000e+01 1.290708e+00
      vertex   8.000000e+00 2.422185e+01 1.267012e+00
      vertex   8.000000e+00 2.418730e+01 1.292776e+00
    endloop
  endfacet
  facet normal -8.183921e-01 3.356695e-01 4.664337e-01
    outer loop
      vertex   8.332158e+00 2.500000e+01 1.290708e+00
      vertex   8.000000e+00 2.418730e+01 1.292776e+00
      vertex   8.000000e+00 2.415176e+01 1.318348e+00
    endloop
  endfacet
  facet normal -8.151177e-01 3.345978e-01 4.728927e-01
    outer loop
      vertex   8.332158e+00 2.500000e+01 1.290708e+00
      vertex   8.000000e+00 2.415176e+01 1.318348e+00
      vertex   8.364429e+00 2.500000e+01 1.346334e+00
    endloop
  endfacet
  facet normal -8.120650e-01 3.330789e-01 4.791752e-01
    outer loop
      vertex   8.364429e+00 2.500000e+01 1.346334e+00
      vertex   8.000000e+00 2.415176e+01 1.318348e+00
      vertex   8.000000e+00 2.411526e+01 1.343722e+00
    endloop
  endfacet
  facet normal -8.056133e-01 3.303843e-01 4.917656e-01
    outer loop
      vertex   8.364429e+00 2.500000e+01 1.346334e+00
      vertex   8.000000e+00 2.411526e+01 1.343722e+00
      vertex   8.000000e+00 2.407779e+01 1.368894e+00
    endloop
  endfacet
  facet normal -8.009122e-01 3.287395e-01 5.004698e-01
    outer loop
      vertex   8.364429e+00 2.500000e+01 1.346334e+00
      vertex   8.000000e+00 2.407779e+01 1.368894e+00
      vertex   8.398582e+00 2.500000e+01 1.400989e+00
    endloop
  endfacet
  facet normal -7.988637e-01 3.277174e-01 5.043988e-01
    outer loop
      vertex   8.398582e+00 2.500000e+01 1.400989e+00
      vertex   8.000000e+00 2.407779e+01 1.368894e+00
      vertex   8.000000e+00 2.403937e+01 1.393857e+00
    endloop
  endfacet
  facet normal -7.921460e-01 3.248387e-01 5.167055e-01
    outer loop
      vertex   8.398582e+00 2.500000e+01 1.400989e+00
      vertex   8.000000e+00 2.403937e+01 1.393857e+00
      vertex   8.000000e+00 2.400000e+01 1.418607e+00
    endloop
  endfacet
  facet normal -7.859106e-01 3.225445e-01 5.275505e-01
    outer loop
      vertex   8.398582e+00 2.500000e+01 1.400989e+00
      vertex   8.000000e+00 2.400000e+01 1.418607e+00
      vertex   8.434583e+00 2.500000e+01 1.454620e+00
    endloop
  endfacet
  facet normal -7.811428e-01 3.201678e-01 5.360117e-01
    outer loop
      vertex   8.434583e+00 2.500000e+01 1.454620e+00
      vertex   8.000000e+00 2.400000e+01 1.418607e+00
      vertex   8.035655e+00 2.400000e+01 1.470568e+00
    endloop
  endfacet
  facet normal -7.701171e-01 3.160578e-01 5.541003e-01
    outer loop
      vertex   8.434583e+00 2.500000e+01 1.454620e+00
      vertex   8.035655e+00 2.400000e+01 1.470568e+00
      vertex   8.472394e+00 2.500000e+01 1.507173e+00
    endloop
  endfacet
  facet normal -7.655100e-01 3.137662e-01 5.617342e-01
    outer loop
      vertex   8.472394e+00 2.500000e+01 1.507173e+00
      vertex   8.035655e+00 2.400000e+01 1.470568e+00
      vertex   8.073020e+00 2.400000e+01 1.521488e+00
    endloop
  endfacet
  facet normal -7.535563e-01 3.092551e-01 5.800984e-01
    outer loop
      vertex   8.472394e+00 2.500000e+01 1.507173e+00
      vertex   8.073020e+00 2.400000e+01 1.521488e+00
      vertex   8.511980e+00 2.500000e+01 1.558595e+00
    endloop
  endfacet
  facet normal -7.491520e-01 3.070686e-01 5.869243e-01
    outer loop
      vertex   8.511980e+00 2.500000e+01 1.558595e+00
      vertex   8.073020e+00 2.400000e+01 1.521488e+00
      vertex   8.112062e+00 2.400000e+01 1.571321e+00
    endloop
  endfacet
  facet normal -7.362447e-01 3.021433e-01 6.055189e-01
    outer loop
      vertex   8.511980e+00 2.500000e+01 1.558595e+00
      vertex   8.112062e+00 2.400000e+01 1.571321e+00
      vertex   8.553300e+00 2.500000e+01 1.608836e+00
    endloop
  endfacet
  facet normal -7.320846e-01 3.000812e-01 6.115582e-01
    outer loop
      vertex   8.553300e+00 2.500000e+01 1.608836e+00
      vertex   8.112062e+00 2.400000e+01 1.571321e+00
      vertex   8.152743e+00 2.400000e+01 1.620019e+00
    endloop
  endfacet
  facet normal -7.181996e-01 2.947294e-01 6.303364e-01
    outer loop
      vertex   8.553300e+00 2.500000e+01 1.608836e+00
      vertex   8.152743e+00 2.400000e+01 1.620019e+00
      vertex   8.596314e+00 2.500000e+01 1.657846e+00
    endloop
  endfacet
  facet normal -7.143239e-01 2.928107e-01 6.356125e-01
    outer loop
      vertex   8.596314e+00 2.500000e+01 1.657846e+00
      vertex   8.152743e+00 2.400000e+01 1.620019e+00
      vertex   8.195023e+00 2.400000e+01 1.667536e+00
    endloop
  endfacet
  facet normal -6.994387e-01 2.870206e-01 6.545263e-01
    outer loop
      vertex   8.596314e+00 2.500000e+01 1.657846e+00
      vertex   8.195023e+00 2.400000e+01 1.667536e+00
      vertex   8.640978e+00 2.500000e+01 1.705574e+00
    endloop
  endfacet
  facet normal -6.958868e-01 2.852640e-01 6.590645e-01
    outer loop
      vertex   8.640978e+00 2.500000e+01 1.705574e+00
      vertex   8.195023e+00 2.400000e+01 1.667536e+00
      vertex   8.238864e+00 2.400000e+01 1.713826e+00
    endloop
  endfacet
  facet normal -6.799808e-01 2.790248e-01 6.780643e-01
    outer loop
      vertex   8.640978e+00 2.500000e+01 1.705574e+00
      vertex   8.238864e+00 2.400000e+01 1.713826e+00
      vertex   8.687248e+00 2.500000e+01 1.751975e+00
    endloop
  endfacet
  facet normal -6.767907e-01 2.774484e-01 6.818920e-01
    outer loop
      vertex   8.687248e+00 2.500000e+01 1.751975e+00
      vertex   8.238864e+00 2.400000e+01 1.713826e+00
      vertex   8.284224e+00 2.400000e+01 1.758846e+00
    endloop
  endfacet
  facet normal -6.598453e-01 2.707497e-01 7.009271e-01
    outer loop
      vertex   8.687248e+00 2.500000e+01 1.751975e+00
      vertex   8.284224e+00 2.400000e+01 1.758846e+00
      vertex   8.735078e+00 2.500000e+01 1.797002e+00
    endloop
  endfacet
  facet normal -6.570539e-01 2.693712e-01 7.040734e-01
    outer loop
      vertex   8.735078e+00 2.500000e+01 1.797002e+00
      vertex   8.284224e+00 2.400000e+01 1.758846e+00
      vertex   8.331060e+00 2.400000e+01 1.802554e+00
    endloop
  endfacet
  facet normal -6.390520e-01 2.622037e-01 7.230918e-01
    outer loop
      vertex   8.735078e+00 2.500000e+01 1.797002e+00
      vertex   8.331060e+00 2.400000e+01 1.802554e+00
      vertex   8.784420e+00 2.500000e+01 1.840609e+00
    endloop
  endfacet
  facet normal -6.366950e-01 2.610401e-01 7.255878e-01
    outer loop
      vertex   8.784420e+00 2.500000e+01 1.840609e+00
      vertex   8.331060e+00 2.400000e+01 1.802554e+00
      vertex   8.379326e+00 2.400000e+01 1.844908e+00
    endloop
  endfacet
  facet normal -6.176218e-01 2.533952e-01 7.445362e-01
    outer loop
      vertex   8.784420e+00 2.500000e+01 1.840609e+00
      vertex   8.379326e+00 2.400000e+01 1.844908e+00
      vertex   8.835225e+00 2.500000e+01 1.882754e+00
    endloop
  endfacet
  facet normal -6.157333e-01 2.524631e-01 7.464147e-01
    outer loop
      vertex   8.835225e+00 2.500000e+01 1.882754e+00
      vertex   8.379326e+00 2.400000e+01 1.844908e+00
      vertex   8.428979e+00 2.400000e+01 1.885867e+00
    endloop
  endfacet
  facet normal -5.955759e-01 2.443329e-01 7.652390e-01
    outer loop
      vertex   8.835225e+00 2.500000e+01 1.882754e+00
      vertex   8.428979e+00 2.400000e+01 1.885867e+00
      vertex   8.887442e+00 2.500000e+01 1.923394e+00
    endloop
  endfacet
  facet normal -5.941888e-01 2.436483e-01 7.665345e-01
    outer loop
      vertex   8.887442e+00 2.500000e+01 1.923394e+00
      vertex   8.428979e+00 2.400000e+01 1.885867e+00
      vertex   8.479971e+00 2.400000e+01 1.925394e+00
    endloop
  endfacet
  facet normal -5.729363e-01 2.350258e-01 7.851795e-01
    outer loop
      vertex   8.887442e+00 2.500000e+01 1.923394e+00
      vertex   8.479971e+00 2.400000e+01 1.925394e+00
      vertex   8.941020e+00 2.500000e+01 1.962489e+00
    endloop
  endfacet
  facet normal -5.720819e-01 2.346041e-01 7.859283e-01
    outer loop
      vertex   8.941020e+00 2.500000e+01 1.962489e+00
      vertex   8.479971e+00 2.400000e+01 1.925394e+00
      vertex   8.532252e+00 2.400000e+01 1.963450e+00
    endloop
  endfacet
  facet normal -5.497254e-01 2.254832e-01 8.043378e-01
    outer loop
      vertex   8.941020e+00 2.500000e+01 1.962489e+00
      vertex   8.532252e+00 2.400000e+01 1.963450e+00
      vertex   8.995905e+00 2.500000e+01 2.000000e+00
    endloop
  endfacet
  facet normal -5.494335e-01 2.253391e-01 8.045776e-01
    outer loop
      vertex   8.995905e+00 2.500000e+01 2.000000e+00
      vertex   8.532252e+00 2.400000e+01 1.963450e+00
      vertex   8.585775e+00 2.400000e+01 2.000000e+00
    endloop
  endfacet
  facet normal 0.000000e+00 -1.000000e+00 -0.000000e+00
    outer loop
      vertex   8.585775e+00 2.400000e+01 2.000000e+00
      vertex   8.532252e+00 2.400000e+01 1.963450e+00
      vertex   9.000000e+00 2.400000e+01 2.000000e+00
    endloop
  endfacet
  facet normal 0.000000e+00 -1.000000e+00 0.000000e+00
    outer loop
      vertex   9.000000e+00 2.400000e+01 2.000000e+00
      vertex   8.532252e+00 2.400000e+01 1.963450e+00
      vertex   8.479971e+00 2.400000e+01 1.925394e+00
    endloop
  endfacet
  facet normal 0.000000e+00 -1.000000e+00 -0.000000e+00
    outer loop
      vertex   9.000000e+00 2.400000e+01 2.000000e+00
      vertex   8.479971e+00 2.400000e+01 1.925394e+00
      vertex   9.000000e+00 2.400000e+01 1.000000e+00
    endloop
  endfacet
  facet normal 0.000000e+00 -1.000000e+00 0.000000e+00
    outer loop
      vertex   9.000000e+00 2.400000e+01 1.000000e+00
      vertex   8.479971e+00 2.400000e+01 1.925394e+00
      vertex   8.428979e+00 2.400000e+01 1.885867e+00
    endloop
  endfacet
  facet normal 0.000000e+00 -1.000000e+00 0.000000e+00
    outer loop
      vertex   9.000000e+00 2.400000e+01 1.000000e+00
      vertex   8.428979e+00 2.400000e+01 1.885867e+00
      vertex   8.379326e+00 2.400000e+01 1.844908e+00
    endloop
  endfacet
  facet normal 0.000000e+00 -1.000000e+00 -0.000000e+00
    outer loop
      vertex   8.379326e+00 2.400000e+01 1.844908e+00
      vertex   8.331060e+00 2.400000e+01 1.802554e+00
      vertex   9.000000e+00 2.400000e+01 1.000000e+00
    endloop
  endfacet
  facet normal 0.000000e+00 -1.000000e+00 0.000000e+00
    outer loop
      vertex   9.000000e+00 2.400000e+01 1.000000e+00
      vertex   8.331060e+00 2.400000e+01 1.802554e+00
      vertex   8.284224e+00 2.400000e+01 1.758846e+00
    endloop
  endfacet
  facet normal 0.000000e+00 -1.000000e+00 0.000000e+00
    outer loop
      vertex   9.000000e+00 2.400000e+01 1.000000e+00
      vertex   8.284224e+00 2.400000e+01 1.758846e+00
      vertex   8.238864e+00 2.400000e+01 1.713826e+00
    endloop
  endfacet
  facet normal 0.000000e+00 -1.000000e+00 -0.000000e+00
    outer loop
      vertex   8.238864e+00 2.400000e+01 1.713826e+00
      vertex   8.195023e+00 2.400000e+01 1.667536e+00
      vertex   9.000000e+00 2.400000e+01 1.000000e+00
    endloop
  endfacet
  facet normal 0.000000e+00 -1.000000e+00 0.000000e+00
    outer loop
      vertex   9.000000e+00 2.400000e+01 1.000000e+00
      vertex   8.195023e+00 2.400000e+01 1.667536e+00
      vertex   8.152743e+00 2.400000e+01 1.620019e+00
    endloop
  endfacet
  facet normal 0.000000e+00 -1.000000e+00 0.000000e+00
    outer loop
      vertex   9.000000e+00 2.400000e+01 1.000000e+00
      vertex   8.152743e+00 2.400000e+01 1.620019e+00
      vertex   8.112062e+00 2.400000e+01 1.571321e+00
    endloop
  endfacet
  facet normal 0.000000e+00 -1.000000e+00 -0.000000e+00
    outer loop
      vertex   8.112062e+00 2.400000e+01 1.571321e+00
      vertex   8.073020e+00 2.400000e+01 1.521488e+00
      vertex   9.000000e+00 2.400000e+01 1.000000e+00
    endloop
  endfacet
  facet normal 0.000000e+00 -1.000000e+00 0.000000e+00
    outer loop
      vertex   9.000000e+00 2.400000e+01 1.000000e+00
      vertex   8.073020e+00 2.400000e+01 1.521488e+00
      vertex   8.000000e+00 2.400000e+01 1.000000e+00
    endloop
  endfacet
  facet normal 0.000000e+00 -1.000000e+00 0.000000e+00
    outer loop
      vertex   8.000000e+00 2.400000e+01 1.000000e+00
      vertex   8.073020e+00 2.400000e+01 1.521488e+00
      vertex   8.035655e+00 2.400000e+01 1.470568e+00
    endloop
  endfacet
  facet normal -1.120107e-13 -1.000000e+00 8.486986e-15
    outer loop
      vertex   8.000000e+00 2.400000e+01 1.000000e+00
      vertex   8.035655e+00 2.400000e+01 1.470568e+00
      vertex   8.000000e+00 2.400000e+01 1.418607e+00
    endloop
  endfacet
  facet normal -1.000000e+00 -8.490636e-14 8.486986e-15
    outer loop
      vertex   8.000000e+00 2.400000e+01 1.418607e+00
      vertex   8.000000e+00 2.403937e+01 1.393857e+00
      vertex   8.000000e+00 2.400000e+01 1.000000e+00
    endloop
  endfacet
  facet normal -1.000000e+00 0.000000e+00 0.000000e+00
    outer loop
      vertex   8.000000e+00 2.400000e+01 1.000000e+00
      vertex   8.000000e+00 2.403937e+01 1.393857e+00
      vertex   8.000000e+00 2.407779e+01 1.368894e+00
    endloop
  endfacet
  facet normal -1.000000e+00 0.000000e+00 0.000000e+00
    outer loop
      vertex   8.000000e+00 2.400000e+01 1.000000e+00
      vertex   8.000000e+00 2.407779e+01 1.368894e+00
      vertex   8.000000e+00 2.411526e+01 1.343722e+00
    endloop
  endfacet
  facet normal -1.000000e+00 0.000000e+00 -0.000000e+00
    outer loop
      vertex   8.000000e+00 2.411526e+01 1.343722e+00
      vertex   8.000000e+00 2.415176e+01 1.318348e+00
      vertex   8.000000e+00 2.400000e+01 1.000000e+00
    endloop
  endfacet
  facet normal -1.000000e+00 0.000000e+00 0.000000e+00
    outer loop
      vertex   8.000000e+00 2.400000e+01 1.000000e+00
      vertex   8.000000e+00 2.415176e+01 1.318348e+00
      vertex   8.000000e+00 2.418730e+01 1.292776e+00
    endloop
  endfacet
  facet normal -1.000000e+00 0.000000e+00 0.000000e+00
    outer loop
      vertex   8.000000e+00 2.400000e+01 1.000000e+00
      vertex   8.000000e+00 2.418730e+01 1.292776e+00
      vertex   8.000000e+00 2.422185e+01 1.267012e+00
    endloop
  endfacet
  facet normal -1.000000e+00 0.000000e+00 -0.000000e+00
    outer loop
      vertex   8.000000e+00 2.422185e+01 1.267012e+00
      vertex   8.000000e+00 2.425542e+01 1.241061e+00
      vertex   8.000000e+00 2.400000e+01 1.000000e+00
    endloop
  endfacet
  facet normal -1.000000e+00 0.000000e+00 0.000000e+00
    outer loop
      vertex   8.000000e+00 2.400000e+01 1.000000e+00
      vertex   8.000000e+00 2.425542e+01 1.241061e+00
      vertex   8.000000e+00 2.428800e+01 1.214928e+00
    endloop
  endfacet
  facet normal -1.000000e+00 0.000000e+00 0.000000e+00
    outer loop
      vertex   8.000000e+00 2.400000e+01 1.000000e+00
      vertex   8.000000e+00 2.428800e+01 1.214928e+00
      vertex   8.000000e+00 2.431958e+01 1.188620e+00
    endloop
  endfacet
  facet normal -1.000000e+00 0.000000e+00 -0.000000e+00
    outer loop
      vertex   8.000000e+00 2.431958e+01 1.188620e+00
      vertex   8.000000e+00 2.435016e+01 1.162141e+00
      vertex   8.000000e+00 2.400000e+01 1.000000e+00
    endloop
  endfacet
  facet normal -1.000000e+00 0.000000e+00 0.000000e+00
    outer loop
      vertex   8.000000e+00 2.400000e+01 1.000000e+00
      vertex   8.000000e+00 2.435016e+01 1.162141e+00
      vertex   8.000000e+00 2.437972e+01 1.135497e+00
    endloop
  endfacet
  facet normal -1.000000e+00 0.000000e+00 0.000000e+00
    outer loop
      vertex   8.000000e+00 2.400000e+01 1.000000e+00
      vertex   8.000000e+00 2.437972e+01 1.135497e+00
      vertex   8.000000e+00 2.440826e+01 1.108694e+00
    endloop
  endfacet
  facet normal -1.000000e+00 0.000000e+00 -0.000000e+00
    outer loop
      vertex   8.000000e+00 2.440826e+01 1.108694e+00
      vertex   8.000000e+00 2.443579e+01 1.081737e+00
      vertex   8.000000e+00 2.400000e+01 1.000000e+00
    endloop
  endfacet
  facet normal -1.000000e+00 0.000000e+00 0.000000e+00
    outer loop
      vertex   8.000000e+00 2.400000e+01 1.000000e+00
      vertex   8.000000e+00 2.443579e+01 1.081737e+00
      vertex   8.000000e+00 2.446228e+01 1.054632e+00
    endloop
  endfacet
  facet normal -1.000000e+00 0.000000e+00 0.000000e+00
    outer loop
      vertex   8.000000e+00 2.400000e+01 1.000000e+00
      vertex   8.000000e+00 2.446228e+01 1.054632e+00
      vertex   8.000000e+00 2.448773e+01 1.027384e+00
    endloop
  endfacet
  facet normal -1.000000e+00 0.000000e+00 -0.000000e+00
    outer loop
      vertex   8.000000e+00 2.448773e+01 1.027384e+00
      vertex   8.000000e+00 2.451215e+01 1.000000e+00
      vertex   8.000000e+00 2.400000e+01 1.000000e+00
    endloop
  endfacet
  facet normal 0.000000e+00 0.000000e+00 -1.000000e+00
    outer loop
      vertex   8.000000e+00 2.400000e+01 1.000000e+00
      vertex   8.000000e+00 2.451215e+01 1.000000e+00
      vertex   9.000000e+00 2.400000e+01 1.000000e+00
    endloop
  endfacet
  facet normal 0.000000e+00 0.000000e+00 -1.000000e+00
    outer loop
      vertex   9.000000e+00 2.400000e+01 1.000000e+00
      vertex   8.000000e+00 2.451215e+01 1.000000e+00
      vertex   8.200082e+00 2.500000e+01 1.000000e+00
    endloop
  endfacet
  facet normal 0.000000e+00 0.000000e+00 -1.000000e+00
    outer loop
      vertex   9.000000e+00 2.400000e+01 1.000000e+00
      vertex   8.200082e+00 2.500000e+01 1.000000e+00
      vertex   9.000000e+00 2.500000e+01 1.000000e+00
    endloop
  endfacet
  facet normal 0.000000e+00 0.000000e+00 1.000000e+00
    outer loop
      vertex   8.585775e+00 2.400000e+01 2.000000e+00
      vertex   9.000000e+00 2.400000e+01 2.000000e+00
      vertex   8.995905e+00 2.500000e+01 2.000000e+00
    endloop
  endfacet
  facet normal -0.000000e+00 0.000000e+00 1.000000e+00
    outer loop
      vertex   8.995905e+00 2.500000e+01 2.000000e+00
      vertex   9.000000e+00 2.400000e+01 2.000000e+00
      vertex   9.000000e+00 2.500000e+01 2.000000e+00
    endloop
  endfacet
  facet normal 0.000000e+00 1.000000e+00 0.000000e+00
    outer loop
      vertex   8.200082e+00 2.500000e+01 1.000000e+00
      vertex   8.222502e+00 2.500000e+01 1.059627e+00
      vertex   9.000000e+00 2.500000e+01 1.000000e+00
    endloop
  endfacet
  facet normal 0.000000e+00 1.000000e+00 0.000000e+00
    outer loop
      vertex   9.000000e+00 2.500000e+01 1.000000e+00
      vertex   8.222502e+00 2.500000e+01 1.059627e+00
      vertex   8.246945e+00 2.500000e+01 1.118570e+00
    endloop
  endfacet
  facet normal 0.000000e+00 1.000000e+00 0.000000e+00
    outer loop
      vertex   9.000000e+00 2.500000e+01 1.000000e+00
      vertex   8.246945e+00 2.500000e+01 1.118570e+00
      vertex   8.273387e+00 2.500000e+01 1.176770e+00
    endloop
  endfacet
  facet normal -0.000000e+00 1.000000e+00 0.000000e+00
    outer loop
      vertex   8.273387e+00 2.500000e+01 1.176770e+00
      vertex   8.301801e+00 2.500000e+01 1.234168e+00
      vertex   9.000000e+00 2.500000e+01 1.000000e+00
    endloop
  endfacet
  facet normal 0.000000e+00 1.000000e+00 0.000000e+00
    outer loop
      vertex   9.000000e+00 2.500000e+01 1.000000e+00
      vertex   8.301801e+00 2.500000e+01 1.234168e+00
      vertex   8.332158e+00 2.500000e+01 1.290708e+00
    endloop
  endfacet
  facet normal 0.000000e+00 1.000000e+00 0.000000e+00
    outer loop
      vertex   9.000000e+00 2.500000e+01 1.000000e+00
      vertex   8.332158e+00 2.500000e+01 1.290708e+00
      vertex   8.364429e+00 2.500000e+01 1.346334e+00
    endloop
  endfacet
  facet normal -0.000000e+00 1.000000e+00 0.000000e+00
    outer loop
      vertex   8.364429e+00 2.500000e+01 1.346334e+00
      vertex   8.398582e+00 2.500000e+01 1.400989e+00
      vertex   9.000000e+00 2.500000e+01 1.000000e+00
    endloop
  endfacet
  facet normal 0.000000e+00 1.000000e+00 0.000000e+00
    outer loop
      vertex   9.000000e+00 2.500000e+01 1.000000e+00
      vertex   8.398582e+00 2.500000e+01 1.400989e+00
      vertex   8.434583e+00 2.500000e+01 1.454620e+00
    endloop
  endfacet
  facet normal 0.000000e+00 1.000000e+00 0.000000e+00
    outer loop
      vertex   9.000000e+00 2.500000e+01 1.000000e+00
      vertex   8.434583e+00 2.500000e+01 1.454620e+00
      vertex   8.472394e+00 2.500000e+01 1.507173e+00
    endloop
  endfacet
  facet normal -0.000000e+00 1.000000e+00 0.000000e+00
    outer loop
      vertex   8.472394e+00 2.500000e+01 1.507173e+00
      vertex   8.511980e+00 2.500000e+01 1.558595e+00
      vertex   9.000000e+00 2.500000e+01 1.000000e+00
    endloop
  endfacet
  facet normal 0.000000e+00 1.000000e+00 0.000000e+00
    outer loop
      vertex   9.000000e+00 2.500000e+01 1.000000e+00
      vertex   8.511980e+00 2.500000e+01 1.558595e+00
      vertex   8.553300e+00 2.500000e+01 1.608836e+00
    endloop
  endfacet
  facet normal 0.000000e+00 1.000000e+00 0.000000e+00
    outer loop
      vertex   9.000000e+00 2.500000e+01 1.000000e+00
      vertex   8.553300e+00 2.500000e+01 1.608836e+00
      vertex   8.596314e+00 2.500000e+01 1.657846e+00
    endloop
  endfacet
  facet normal -0.000000e+00 1.000000e+00 0.000000e+00
    outer loop
      vertex   8.596314e+00 2.500000e+01 1.657846e+00
      vertex   8.640978e+00 2.500000e+01 1.705574e+00
      vertex   9.000000e+00 2.500000e+01 1.000000e+00
    endloop
  endfacet
  facet normal 0.000000e+00 1.000000e+00 0.000000e+00
    outer loop
      vertex   9.000000e+00 2.500000e+01 1.000000e+00
      vertex   8.640978e+00 2.500000e+01 1.705574e+00
      vertex   8.687248e+00 2.500000e+01 1.751975e+00
    endloop
  endfacet
  facet normal 0.000000e+00 1.000000e+00 0.000000e+00
    outer loop
      vertex   9.000000e+00 2.500000e+01 1.000000e+00
      vertex   8.687248e+00 2.500000e+01 1.751975e+00
      vertex   8.735078e+00 2.500000e+01 1.797002e+00
    endloop
  endfacet
  facet normal -0.000000e+00 1.000000e+00 0.000000e+00
    outer loop
      vertex   8.735078e+00 2.500000e+01 1.797002e+00
      vertex   8.784420e+00 2.500000e+01 1.840609e+00
      vertex   9.000000e+00 2.500000e+01 1.000000e+00
    endloop
  endfacet
  facet normal 0.000000e+00 1.000000e+00 0.000000e+00
    outer loop
      vertex   9.000000e+00 2.500000e+01 1.000000e+00
      vertex   8.784420e+00 2.500000e+01 1.840609e+00
      vertex   8.835225e+00 2.500000e+01 1.882754e+00
    endloop
  endfacet
  facet normal 0.000000e+00 1.000000e+00 0.000000e+00
    outer loop
      vertex   9.000000e+00 2.500000e+01 1.000000e+00
      vertex   8.835225e+00 2.500000e+01 1.882754e+00
      vertex   8.887442e+00 2.500000e+01 1.923394e+00
    endloop
  endfacet
  facet normal -0.000000e+00 1.000000e+00 0.000000e+00
    outer loop
      vertex   8.887442e+00 2.500000e+01 1.923394e+00
      vertex   8.941020e+00 2.500000e+01 1.962489e+00
      vertex   9.000000e+00 2.500000e+01 1.000000e+00
    endloop
  endfacet
  facet normal 0.000000e+00 1.000000e+00 -0.000000e+00
    outer loop
      vertex   9.000000e+00 2.500000e+01 1.000000e+00
      vertex   8.941020e+00 2.500000e+01 1.962489e+00
      vertex   9.000000e+00 2.500000e+01 2.000000e+00
    endloop
  endfacet
  facet normal 0.000000e+00 1.000000e+00 0.000000e+00
    outer loop
      vertex   9.000000e+00 2.500000e+01 2.000000e+00
      vertex   8.941020e+00 2.500000e+01 1.962489e+00
      vertex   8.995905e+00 2.500000e+01 2.000000e+00
    endloop
  endfacet
  facet normal 1.000000e+00 -0.000000e+00 0.000000e+00
    outer loop
      vertex   9.000000e+00 2.400000e+01 2.000000e+00
      vertex   9.000000e+00 2.400000e+01 1.000000e+00
      vertex   9.000000e+00 2.500000e+01 2.000000e+00
    endloop
  endfacet
  facet normal 1.000000e+00 0.000000e+00 0.000000e+00
    outer loop
      vertex   9.000000e+00 2.500000e+01 2.000000e+00
      vertex   9.000000e+00 2.400000e+01 1.000000e+00
      vertex   9.000000e+00 2.500000e+01 1.000000e+00
    endloop
  endfacet
endsolid
