solid ASCII
  facet normal -7.813891e-02 3.112692e-02 -9.964564e-01
    outer loop
      vertex   6.000000e+00 1.500000e+01 -1.622328e+00
      vertex   5.937712e+00 1.500000e+01 -1.617444e+00
      vertex   6.000000e+00 1.512652e+01 -1.618376e+00
    endloop
  endfacet
  facet normal -9.661342e-02 4.023684e-02 -9.945083e-01
    outer loop
      vertex   6.000000e+00 1.512652e+01 -1.618376e+00
      vertex   5.937712e+00 1.500000e+01 -1.617444e+00
      vertex   6.000000e+00 1.525275e+01 -1.613269e+00
    endloop
  endfacet
  facet normal -1.047642e-01 4.223056e-02 -9.936000e-01
    outer loop
      vertex   6.000000e+00 1.525275e+01 -1.613269e+00
      vertex   5.937712e+00 1.500000e+01 -1.617444e+00
      vertex   5.875603e+00 1.500000e+01 -1.610895e+00
    endloop
  endfacet
  facet normal -1.191168e-01 4.931296e-02 -9.916549e-01
    outer loop
      vertex   6.000000e+00 1.525275e+01 -1.613269e+00
      vertex   5.875603e+00 1.500000e+01 -1.610895e+00
      vertex   6.000000e+00 1.537861e+01 -1.607010e+00
    endloop
  endfacet
  facet normal -1.313014e-01 5.329841e-02 -9.899087e-01
    outer loop
      vertex   6.000000e+00 1.537861e+01 -1.607010e+00
      vertex   5.875603e+00 1.500000e+01 -1.610895e+00
      vertex   5.813724e+00 1.500000e+01 -1.602688e+00
    endloop
  endfacet
  facet normal -1.415484e-01 5.835928e-02 -9.882096e-01
    outer loop
      vertex   6.000000e+00 1.537861e+01 -1.607010e+00
      vertex   5.813724e+00 1.500000e+01 -1.602688e+00
      vertex   6.000000e+00 1.550405e+01 -1.599602e+00
    endloop
  endfacet
  facet normal -1.577281e-01 6.432136e-02 -9.853855e-01
    outer loop
      vertex   6.000000e+00 1.550405e+01 -1.599602e+00
      vertex   5.813724e+00 1.500000e+01 -1.602688e+00
      vertex   5.752127e+00 1.500000e+01 -1.592828e+00
    endloop
  endfacet
  facet normal -1.638947e-01 6.737010e-02 -9.841747e-01
    outer loop
      vertex   6.000000e+00 1.550405e+01 -1.599602e+00
      vertex   5.752127e+00 1.500000e+01 -1.592828e+00
      vertex   6.000000e+00 1.562898e+01 -1.591051e+00
    endloop
  endfacet
  facet normal -1.840219e-01 7.529030e-02 -9.800343e-01
    outer loop
      vertex   6.000000e+00 1.562898e+01 -1.591051e+00
      vertex   5.752127e+00 1.500000e+01 -1.592828e+00
      vertex   5.690865e+00 1.500000e+01 -1.581325e+00
    endloop
  endfacet
  facet normal -1.861419e-01 7.633974e-02 -9.795527e-01
    outer loop
      vertex   6.000000e+00 1.562898e+01 -1.591051e+00
      vertex   5.690865e+00 1.500000e+01 -1.581325e+00
      vertex   6.000000e+00 1.575333e+01 -1.581360e+00
    endloop
  endfacet
  facet normal -2.079021e-01 8.526949e-02 -9.744259e-01
    outer loop
      vertex   6.000000e+00 1.575333e+01 -1.581360e+00
      vertex   5.690865e+00 1.500000e+01 -1.581325e+00
      vertex   6.000000e+00 1.587702e+01 -1.570535e+00
    endloop
  endfacet
  facet normal -2.101628e-01 8.605952e-02 -9.738713e-01
    outer loop
      vertex   6.000000e+00 1.587702e+01 -1.570535e+00
      vertex   5.690865e+00 1.500000e+01 -1.581325e+00
      vertex   5.629988e+00 1.500000e+01 -1.568187e+00
    endloop
  endfacet
  facet normal -2.293188e-01 9.415496e-02 -9.687867e-01
    outer loop
      vertex   6.000000e+00 1.587702e+01 -1.570535e+00
      vertex   5.629988e+00 1.500000e+01 -1.568187e+00
      vertex   6.000000e+00 1.600000e+01 -1.558583e+00
    endloop
  endfacet
  facet normal -2.361300e-01 9.665707e-02 -9.669023e-01
    outer loop
      vertex   6.000000e+00 1.600000e+01 -1.558583e+00
      vertex   5.629988e+00 1.500000e+01 -1.568187e+00
      vertex   5.569546e+00 1.500000e+01 -1.553427e+00
    endloop
  endfacet
  facet normal -2.531078e-01 1.039914e-01 -9.618327e-01
    outer loop
      vertex   6.000000e+00 1.600000e+01 -1.558583e+00
      vertex   5.569546e+00 1.500000e+01 -1.553427e+00
      vertex   5.940422e+00 1.600000e+01 -1.542906e+00
    endloop
  endfacet
  facet normal -2.618989e-01 1.072232e-01 -9.591205e-01
    outer loop
      vertex   5.940422e+00 1.600000e+01 -1.542906e+00
      vertex   5.569546e+00 1.500000e+01 -1.553427e+00
      vertex   5.509591e+00 1.500000e+01 -1.537055e+00
    endloop
  endfacet
  facet normal -2.784998e-01 1.144077e-01 -9.535978e-01
    outer loop
      vertex   5.940422e+00 1.600000e+01 -1.542906e+00
      vertex   5.509591e+00 1.500000e+01 -1.537055e+00
      vertex   5.881355e+00 1.600000e+01 -1.525655e+00
    endloop
  endfacet
  facet normal -2.874489e-01 1.176998e-01 -9.505366e-01
    outer loop
      vertex   5.881355e+00 1.600000e+01 -1.525655e+00
      vertex   5.509591e+00 1.500000e+01 -1.537055e+00
      vertex   5.450173e+00 1.500000e+01 -1.519087e+00
    endloop
  endfacet
  facet normal -3.036629e-01 1.247301e-01 -9.445799e-01
    outer loop
      vertex   5.881355e+00 1.600000e+01 -1.525655e+00
      vertex   5.450173e+00 1.500000e+01 -1.519087e+00
      vertex   5.822846e+00 1.600000e+01 -1.506845e+00
    endloop
  endfacet
  facet normal -3.127586e-01 1.280779e-01 -9.411578e-01
    outer loop
      vertex   5.822846e+00 1.600000e+01 -1.506845e+00
      vertex   5.450173e+00 1.500000e+01 -1.519087e+00
      vertex   5.391342e+00 1.500000e+01 -1.499537e+00
    endloop
  endfacet
  facet normal -3.285767e-01 1.349501e-01 -9.347865e-01
    outer loop
      vertex   5.822846e+00 1.600000e+01 -1.506845e+00
      vertex   5.391342e+00 1.500000e+01 -1.499537e+00
      vertex   5.764943e+00 1.600000e+01 -1.486492e+00
    endloop
  endfacet
  facet normal -3.378069e-01 1.383490e-01 -9.309920e-01
    outer loop
      vertex   5.764943e+00 1.600000e+01 -1.486492e+00
      vertex   5.391342e+00 1.500000e+01 -1.499537e+00
      vertex   5.333146e+00 1.500000e+01 -1.478420e+00
    endloop
  endfacet
  facet normal -3.532206e-01 1.450592e-01 -9.242257e-01
    outer loop
      vertex   5.764943e+00 1.600000e+01 -1.486492e+00
      vertex   5.333146e+00 1.500000e+01 -1.478420e+00
      vertex   5.707694e+00 1.600000e+01 -1.464613e+00
    endloop
  endfacet
  facet normal -3.625729e-01 1.485044e-01 -9.200475e-01
    outer loop
      vertex   5.707694e+00 1.600000e+01 -1.464613e+00
      vertex   5.333146e+00 1.500000e+01 -1.478420e+00
      vertex   5.275634e+00 1.500000e+01 -1.455756e+00
    endloop
  endfacet
  facet normal -3.775743e-01 1.550492e-01 -9.129060e-01
    outer loop
      vertex   5.707694e+00 1.600000e+01 -1.464613e+00
      vertex   5.275634e+00 1.500000e+01 -1.455756e+00
      vertex   5.651147e+00 1.600000e+01 -1.441225e+00
    endloop
  endfacet
  facet normal -3.870357e-01 1.585356e-01 -9.083335e-01
    outer loop
      vertex   5.651147e+00 1.600000e+01 -1.441225e+00
      vertex   5.275634e+00 1.500000e+01 -1.455756e+00
      vertex   5.218854e+00 1.500000e+01 -1.431563e+00
    endloop
  endfacet
  facet normal -4.016179e-01 1.649118e-01 -9.008369e-01
    outer loop
      vertex   5.651147e+00 1.600000e+01 -1.441225e+00
      vertex   5.218854e+00 1.500000e+01 -1.431563e+00
      vertex   5.595347e+00 1.600000e+01 -1.416348e+00
    endloop
  endfacet
  facet normal -4.111750e-01 1.684343e-01 -8.958599e-01
    outer loop
      vertex   5.595347e+00 1.600000e+01 -1.416348e+00
      vertex   5.218854e+00 1.500000e+01 -1.431563e+00
      vertex   5.162855e+00 1.500000e+01 -1.405860e+00
    endloop
  endfacet
  facet normal -4.253317e-01 1.746391e-01 -8.880282e-01
    outer loop
      vertex   5.595347e+00 1.600000e+01 -1.416348e+00
      vertex   5.162855e+00 1.500000e+01 -1.405860e+00
      vertex   5.540340e+00 1.600000e+01 -1.390002e+00
    endloop
  endfacet
  facet normal -4.349705e-01 1.781921e-01 -8.826371e-01
    outer loop
      vertex   5.540340e+00 1.600000e+01 -1.390002e+00
      vertex   5.162855e+00 1.500000e+01 -1.405860e+00
      vertex   5.107682e+00 1.500000e+01 -1.378671e+00
    endloop
  endfacet
  facet normal -4.486962e-01 1.842229e-01 -8.744905e-01
    outer loop
      vertex   5.540340e+00 1.600000e+01 -1.390002e+00
      vertex   5.107682e+00 1.500000e+01 -1.378671e+00
      vertex   5.486171e+00 1.600000e+01 -1.362208e+00
    endloop
  endfacet
  facet normal -4.584024e-01 1.878009e-01 -8.686760e-01
    outer loop
      vertex   5.486171e+00 1.600000e+01 -1.362208e+00
      vertex   5.107682e+00 1.500000e+01 -1.378671e+00
      vertex   5.053382e+00 1.500000e+01 -1.350016e+00
    endloop
  endfacet
  facet normal -4.716922e-01 1.936555e-01 -8.602349e-01
    outer loop
      vertex   5.486171e+00 1.600000e+01 -1.362208e+00
      vertex   5.053382e+00 1.500000e+01 -1.350016e+00
      vertex   5.432886e+00 1.600000e+01 -1.332990e+00
    endloop
  endfacet
  facet normal -4.814510e-01 1.972527e-01 -8.539885e-01
    outer loop
      vertex   5.432886e+00 1.600000e+01 -1.332990e+00
      vertex   5.053382e+00 1.500000e+01 -1.350016e+00
      vertex   5.000000e+00 1.500000e+01 -1.319921e+00
    endloop
  endfacet
  facet normal -4.943008e-01 2.029291e-01 -8.452730e-01
    outer loop
      vertex   5.432886e+00 1.600000e+01 -1.332990e+00
      vertex   5.000000e+00 1.500000e+01 -1.319921e+00
      vertex   5.380527e+00 1.600000e+01 -1.302372e+00
    endloop
  endfacet
  facet normal -4.987685e-01 2.045760e-01 -8.422462e-01
    outer loop
      vertex   5.380527e+00 1.600000e+01 -1.302372e+00
      vertex   5.000000e+00 1.500000e+01 -1.319921e+00
      vertex   5.000000e+00 1.506811e+01 -1.303377e+00
    endloop
  endfacet
  facet normal -5.107213e-01 2.094478e-01 -8.338437e-01
    outer loop
      vertex   5.380527e+00 1.600000e+01 -1.302372e+00
      vertex   5.000000e+00 1.506811e+01 -1.303377e+00
      vertex   5.000000e+00 1.513555e+01 -1.286438e+00
    endloop
  endfacet
  facet normal -5.164997e-01 2.120694e-01 -8.296111e-01
    outer loop
      vertex   5.380527e+00 1.600000e+01 -1.302372e+00
      vertex   5.000000e+00 1.513555e+01 -1.286438e+00
      vertex   5.329138e+00 1.600000e+01 -1.270378e+00
    endloop
  endfacet
  facet normal -5.225078e-01 2.142763e-01 -8.252704e-01
    outer loop
      vertex   5.329138e+00 1.600000e+01 -1.270378e+00
      vertex   5.000000e+00 1.513555e+01 -1.286438e+00
      vertex   5.000000e+00 1.520229e+01 -1.269109e+00
    endloop
  endfacet
  facet normal -5.340873e-01 2.190680e-01 -8.165538e-01
    outer loop
      vertex   5.329138e+00 1.600000e+01 -1.270378e+00
      vertex   5.000000e+00 1.520229e+01 -1.269109e+00
      vertex   5.000000e+00 1.526833e+01 -1.251392e+00
    endloop
  endfacet
  facet normal -5.382737e-01 2.210365e-01 -8.132677e-01
    outer loop
      vertex   5.329138e+00 1.600000e+01 -1.270378e+00
      vertex   5.000000e+00 1.526833e+01 -1.251392e+00
      vertex   5.278761e+00 1.600000e+01 -1.237035e+00
    endloop
  endfacet
  facet normal -5.457521e-01 2.237728e-01 -8.075149e-01
    outer loop
      vertex   5.278761e+00 1.600000e+01 -1.237035e+00
      vertex   5.000000e+00 1.526833e+01 -1.251392e+00
      vertex   5.000000e+00 1.533364e+01 -1.233294e+00
    endloop
  endfacet
  facet normal -5.569116e-01 2.284917e-01 -7.985243e-01
    outer loop
      vertex   5.278761e+00 1.600000e+01 -1.237035e+00
      vertex   5.000000e+00 1.533364e+01 -1.233294e+00
      vertex   5.000000e+00 1.539821e+01 -1.214817e+00
    endloop
  endfacet
  facet normal -5.596047e-01 2.298229e-01 -7.962562e-01
    outer loop
      vertex   5.278761e+00 1.600000e+01 -1.237035e+00
      vertex   5.000000e+00 1.539821e+01 -1.214817e+00
      vertex   5.229437e+00 1.600000e+01 -1.202370e+00
    endloop
  endfacet
  facet normal -5.684797e-01 2.330564e-01 -7.889966e-01
    outer loop
      vertex   5.229437e+00 1.600000e+01 -1.202370e+00
      vertex   5.000000e+00 1.539821e+01 -1.214817e+00
      vertex   5.000000e+00 1.546203e+01 -1.195967e+00
    endloop
  endfacet
  facet normal -5.791516e-01 2.377174e-01 -7.797909e-01
    outer loop
      vertex   5.229437e+00 1.600000e+01 -1.202370e+00
      vertex   5.000000e+00 1.546203e+01 -1.195967e+00
      vertex   5.000000e+00 1.552508e+01 -1.176747e+00
    endloop
  endfacet
  facet normal -5.804754e-01 2.384217e-01 -7.785907e-01
    outer loop
      vertex   5.229437e+00 1.600000e+01 -1.202370e+00
      vertex   5.000000e+00 1.552508e+01 -1.176747e+00
      vertex   5.181206e+00 1.600000e+01 -1.166412e+00
    endloop
  endfacet
  facet normal -5.906688e-01 2.421182e-01 -7.697331e-01
    outer loop
      vertex   5.181206e+00 1.600000e+01 -1.166412e+00
      vertex   5.000000e+00 1.552508e+01 -1.176747e+00
      vertex   5.000000e+00 1.558734e+01 -1.157163e+00
    endloop
  endfacet
  facet normal -6.007441e-01 2.467515e-01 -7.604079e-01
    outer loop
      vertex   5.181206e+00 1.600000e+01 -1.166412e+00
      vertex   5.000000e+00 1.558734e+01 -1.157163e+00
      vertex   5.000000e+00 1.564880e+01 -1.137218e+00
    endloop
  endfacet
  facet normal -6.008684e-01 2.468258e-01 -7.602856e-01
    outer loop
      vertex   5.181206e+00 1.600000e+01 -1.166412e+00
      vertex   5.000000e+00 1.564880e+01 -1.137218e+00
      vertex   5.134109e+00 1.600000e+01 -1.129191e+00
    endloop
  endfacet
  facet normal -6.122986e-01 2.509496e-01 -7.497431e-01
    outer loop
      vertex   5.134109e+00 1.600000e+01 -1.129191e+00
      vertex   5.000000e+00 1.564880e+01 -1.137218e+00
      vertex   5.000000e+00 1.570945e+01 -1.116918e+00
    endloop
  endfacet
  facet normal -6.207378e-01 2.552006e-01 -7.413213e-01
    outer loop
      vertex   5.134109e+00 1.600000e+01 -1.129191e+00
      vertex   5.000000e+00 1.570945e+01 -1.116918e+00
      vertex   5.088184e+00 1.600000e+01 -1.090736e+00
    endloop
  endfacet
  facet normal -6.220612e-01 2.554931e-01 -7.401102e-01
    outer loop
      vertex   5.088184e+00 1.600000e+01 -1.090736e+00
      vertex   5.000000e+00 1.570945e+01 -1.116918e+00
      vertex   5.000000e+00 1.576927e+01 -1.096267e+00
    endloop
  endfacet
  facet normal -6.333485e-01 2.595420e-01 -7.290457e-01
    outer loop
      vertex   5.088184e+00 1.600000e+01 -1.090736e+00
      vertex   5.000000e+00 1.576927e+01 -1.096267e+00
      vertex   5.000000e+00 1.582825e+01 -1.075270e+00
    endloop
  endfacet
  facet normal -6.400427e-01 2.636414e-01 -7.216915e-01
    outer loop
      vertex   5.088184e+00 1.600000e+01 -1.090736e+00
      vertex   5.000000e+00 1.582825e+01 -1.075270e+00
      vertex   5.043469e+00 1.600000e+01 -1.051079e+00
    endloop
  endfacet
  facet normal -6.428386e-01 2.639808e-01 -7.190776e-01
    outer loop
      vertex   5.043469e+00 1.600000e+01 -1.051079e+00
      vertex   5.000000e+00 1.582825e+01 -1.075270e+00
      vertex   5.000000e+00 1.588638e+01 -1.053932e+00
    endloop
  endfacet
  facet normal -6.537988e-01 2.678872e-01 -7.076607e-01
    outer loop
      vertex   5.043469e+00 1.600000e+01 -1.051079e+00
      vertex   5.000000e+00 1.588638e+01 -1.053932e+00
      vertex   5.000000e+00 1.594363e+01 -1.032258e+00
    endloop
  endfacet
  facet normal -6.584596e-01 2.736736e-01 -7.010946e-01
    outer loop
      vertex   5.000000e+00 1.594363e+01 -1.032258e+00
      vertex   5.000000e+00 1.600000e+01 -1.010254e+00
      vertex   5.043469e+00 1.600000e+01 -1.051079e+00
    endloop
  endfacet
  facet normal -1.000000e+00 -0.000000e+00 0.000000e+00
    outer loop
      vertex   5.000000e+00 1.600000e+01 -1.010254e+00
      vertex   5.000000e+00 1.594363e+01 -1.032258e+00
      vertex   5.000000e+00 1.600000e+01 -1.000000e+00
    endloop
  endfacet
  facet normal -1.000000e+00 -0.000000e+00 0.000000e+00
    outer loop
      vertex   5.000000e+00 1.600000e+01 -1.000000e+00
      vertex   5.000000e+00 1.594363e+01 -1.032258e+00
      vertex   5.000000e+00 1.500000e+01 -1.000000e+00
    endloop
  endfacet
  facet normal -1.000000e+00 0.000000e+00 0.000000e+00
    outer loop
      vertex   5.000000e+00 1.500000e+01 -1.000000e+00
      vertex   5.000000e+00 1.594363e+01 -1.032258e+00
      vertex   5.000000e+00 1.588638e+01 -1.053932e+00
    endloop
  endfacet
  facet normal -1.000000e+00 0.000000e+00 0.000000e+00
    outer loop
      vertex   5.000000e+00 1.500000e+01 -1.000000e+00
      vertex   5.000000e+00 1.588638e+01 -1.053932e+00
      vertex   5.000000e+00 1.582825e+01 -1.075270e+00
    endloop
  endfacet
  facet normal -1.000000e+00 -0.000000e+00 0.000000e+00
    outer loop
      vertex   5.000000e+00 1.582825e+01 -1.075270e+00
      vertex   5.000000e+00 1.576927e+01 -1.096267e+00
      vertex   5.000000e+00 1.500000e+01 -1.000000e+00
    endloop
  endfacet
  facet normal -1.000000e+00 0.000000e+00 0.000000e+00
    outer loop
      vertex   5.000000e+00 1.500000e+01 -1.000000e+00
      vertex   5.000000e+00 1.576927e+01 -1.096267e+00
      vertex   5.000000e+00 1.570945e+01 -1.116918e+00
    endloop
  endfacet
  facet normal -1.000000e+00 0.000000e+00 0.000000e+00
    outer loop
      vertex   5.000000e+00 1.500000e+01 -1.000000e+00
      vertex   5.000000e+00 1.570945e+01 -1.116918e+00
      vertex   5.000000e+00 1.564880e+01 -1.137218e+00
    endloop
  endfacet
  facet normal -1.000000e+00 -0.000000e+00 0.000000e+00
    outer loop
      vertex   5.000000e+00 1.564880e+01 -1.137218e+00
      vertex   5.000000e+00 1.558734e+01 -1.157163e+00
      vertex   5.000000e+00 1.500000e+01 -1.000000e+00
    endloop
  endfacet
  facet normal -1.000000e+00 0.000000e+00 0.000000e+00
    outer loop
      vertex   5.000000e+00 1.500000e+01 -1.000000e+00
      vertex   5.000000e+00 1.558734e+01 -1.157163e+00
      vertex   5.000000e+00 1.552508e+01 -1.176747e+00
    endloop
  endfacet
  facet normal -1.000000e+00 0.000000e+00 0.000000e+00
    outer loop
      vertex   5.000000e+00 1.500000e+01 -1.000000e+00
      vertex   5.000000e+00 1.552508e+01 -1.176747e+00
      vertex   5.000000e+00 1.546203e+01 -1.195967e+00
    endloop
  endfacet
  facet normal -1.000000e+00 -0.000000e+00 0.000000e+00
    outer loop
      vertex   5.000000e+00 1.546203e+01 -1.195967e+00
      vertex   5.000000e+00 1.539821e+01 -1.214817e+00
      vertex   5.000000e+00 1.500000e+01 -1.000000e+00
    endloop
  endfacet
  facet normal -1.000000e+00 0.000000e+00 0.000000e+00
    outer loop
      vertex   5.000000e+00 1.500000e+01 -1.000000e+00
      vertex   5.000000e+00 1.539821e+01 -1.214817e+00
      vertex   5.000000e+00 1.533364e+01 -1.233294e+00
    endloop
  endfacet
  facet normal -1.000000e+00 0.000000e+00 0.000000e+00
    outer loop
      vertex   5.000000e+00 1.500000e+01 -1.000000e+00
      vertex   5.000000e+00 1.533364e+01 -1.233294e+00
      vertex   5.000000e+00 1.526833e+01 -1.251392e+00
    endloop
  endfacet
  facet normal -1.000000e+00 -0.000000e+00 0.000000e+00
    outer loop
      vertex   5.000000e+00 1.526833e+01 -1.251392e+00
      vertex   5.000000e+00 1.520229e+01 -1.269109e+00
      vertex   5.000000e+00 1.500000e+01 -1.000000e+00
    endloop
  endfacet
  facet normal -1.000000e+00 0.000000e+00 0.000000e+00
    outer loop
      vertex   5.000000e+00 1.500000e+01 -1.000000e+00
      vertex   5.000000e+00 1.520229e+01 -1.269109e+00
      vertex   5.000000e+00 1.513555e+01 -1.286438e+00
    endloop
  endfacet
  facet normal -1.000000e+00 0.000000e+00 0.000000e+00
    outer loop
      vertex   5.000000e+00 1.500000e+01 -1.000000e+00
      vertex   5.000000e+00 1.513555e+01 -1.286438e+00
      vertex   5.000000e+00 1.506811e+01 -1.303377e+00
    endloop
  endfacet
  facet normal -1.000000e+00 -0.000000e+00 0.000000e+00
    outer loop
      vertex   5.000000e+00 1.506811e+01 -1.303377e+00
      vertex   5.000000e+00 1.500000e+01 -1.319921e+00
      vertex   5.000000e+00 1.500000e+01 -1.000000e+00
    endloop
  endfacet
  facet normal -3.640671e-14 -1.000000e+00 -5.552478e-15
    outer loop
      vertex   5.000000e+00 1.500000e+01 -1.319921e+00
      vertex   5.053382e+00 1.500000e+01 -1.350016e+00
      vertex   5.000000e+00 1.500000e+01 -1.000000e+00
    endloop
  endfacet
  facet normal 0.000000e+00 -1.000000e+00 0.000000e+00
    outer loop
      vertex   5.000000e+00 1.500000e+01 -1.000000e+00
      vertex   5.053382e+00 1.500000e+01 -1.350016e+00
      vertex   5.107682e+00 1.500000e+01 -1.378671e+00
    endloop
  endfacet
  facet normal 0.000000e+00 -1.000000e+00 0.000000e+00
    outer loop
      vertex   5.000000e+00 1.500000e+01 -1.000000e+00
      vertex   5.107682e+00 1.500000e+01 -1.378671e+00
      vertex   5.162855e+00 1.500000e+01 -1.405860e+00
    endloop
  endfacet
  facet normal 0.000000e+00 -1.000000e+00 0.000000e+00
    outer loop
      vertex   5.000000e+00 1.500000e+01 -1.000000e+00
      vertex   5.162855e+00 1.500000e+01 -1.405860e+00
      vertex   6.000000e+00 1.500000e+01 -1.000000e+00
    endloop
  endfacet
  facet normal 0.000000e+00 -1.000000e+00 0.000000e+00
    outer loop
      vertex   6.000000e+00 1.500000e+01 -1.000000e+00
      vertex   5.162855e+00 1.500000e+01 -1.405860e+00
      vertex   5.218854e+00 1.500000e+01 -1.431563e+00
    endloop
  endfacet
  facet normal 0.000000e+00 -1.000000e+00 0.000000e+00
    outer loop
      vertex   6.000000e+00 1.500000e+01 -1.000000e+00
      vertex   5.218854e+00 1.500000e+01 -1.431563e+00
      vertex   5.275634e+00 1.500000e+01 -1.455756e+00
    endloop
  endfacet
  facet normal 0.000000e+00 -1.000000e+00 0.000000e+00
    outer loop
      vertex   5.275634e+00 1.500000e+01 -1.455756e+00
      vertex   5.333146e+00 1.500000e+01 -1.478420e+00
      vertex   6.000000e+00 1.500000e+01 -1.000000e+00
    endloop
  endfacet
  facet normal 0.000000e+00 -1.000000e+00 0.000000e+00
    outer loop
      vertex   6.000000e+00 1.500000e+01 -1.000000e+00
      vertex   5.333146e+00 1.500000e+01 -1.478420e+00
      vertex   5.391342e+00 1.500000e+01 -1.499537e+00
    endloop
  endfacet
  facet normal 0.000000e+00 -1.000000e+00 0.000000e+00
    outer loop
      vertex   6.000000e+00 1.500000e+01 -1.000000e+00
      vertex   5.391342e+00 1.500000e+01 -1.499537e+00
      vertex   5.450173e+00 1.500000e+01 -1.519087e+00
    endloop
  endfacet
  facet normal 0.000000e+00 -1.000000e+00 0.000000e+00
    outer loop
      vertex   5.450173e+00 1.500000e+01 -1.519087e+00
      vertex   5.509591e+00 1.500000e+01 -1.537055e+00
      vertex   6.000000e+00 1.500000e+01 -1.000000e+00
    endloop
  endfacet
  facet normal 0.000000e+00 -1.000000e+00 0.000000e+00
    outer loop
      vertex   6.000000e+00 1.500000e+01 -1.000000e+00
      vertex   5.509591e+00 1.500000e+01 -1.537055e+00
      vertex   5.569546e+00 1.500000e+01 -1.553427e+00
    endloop
  endfacet
  facet normal 0.000000e+00 -1.000000e+00 0.000000e+00
    outer loop
      vertex   6.000000e+00 1.500000e+01 -1.000000e+00
      vertex   5.569546e+00 1.500000e+01 -1.553427e+00
      vertex   5.629988e+00 1.500000e+01 -1.568187e+00
    endloop
  endfacet
  facet normal 0.000000e+00 -1.000000e+00 0.000000e+00
    outer loop
      vertex   5.629988e+00 1.500000e+01 -1.568187e+00
      vertex   5.690865e+00 1.500000e+01 -1.581325e+00
      vertex   6.000000e+00 1.500000e+01 -1.000000e+00
    endloop
  endfacet
  facet normal 0.000000e+00 -1.000000e+00 0.000000e+00
    outer loop
      vertex   6.000000e+00 1.500000e+01 -1.000000e+00
      vertex   5.690865e+00 1.500000e+01 -1.581325e+00
      vertex   5.752127e+00 1.500000e+01 -1.592828e+00
    endloop
  endfacet
  facet normal 0.000000e+00 -1.000000e+00 0.000000e+00
    outer loop
      vertex   6.000000e+00 1.500000e+01 -1.000000e+00
      vertex   5.752127e+00 1.500000e+01 -1.592828e+00
      vertex   5.813724e+00 1.500000e+01 -1.602688e+00
    endloop
  endfacet
  facet normal 0.000000e+00 -1.000000e+00 0.000000e+00
    outer loop
      vertex   5.813724e+00 1.500000e+01 -1.602688e+00
      vertex   5.875603e+00 1.500000e+01 -1.610895e+00
      vertex   6.000000e+00 1.500000e+01 -1.000000e+00
    endloop
  endfacet
  facet normal 0.000000e+00 -1.000000e+00 0.000000e+00
    outer loop
      vertex   6.000000e+00 1.500000e+01 -1.000000e+00
      vertex   5.875603e+00 1.500000e+01 -1.610895e+00
      vertex   5.937712e+00 1.500000e+01 -1.617444e+00
    endloop
  endfacet
  facet normal 0.000000e+00 -1.000000e+00 -0.000000e+00
    outer loop
      vertex   6.000000e+00 1.500000e+01 -1.000000e+00
      vertex   5.937712e+00 1.500000e+01 -1.617444e+00
      vertex   6.000000e+00 1.500000e+01 -1.622328e+00
    endloop
  endfacet
  facet normal 0.000000e+00 0.000000e+00 1.000000e+00
    outer loop
      vertex   6.000000e+00 1.600000e+01 -1.000000e+00
      vertex   5.000000e+00 1.600000e+01 -1.000000e+00
      vertex   6.000000e+00 1.500000e+01 -1.000000e+00
    endloop
  endfacet
  facet normal 0.000000e+00 0.000000e+00 1.000000e+00
    outer loop
      vertex   6.000000e+00 1.500000e+01 -1.000000e+00
      vertex   5.000000e+00 1.600000e+01 -1.000000e+00
      vertex   5.000000e+00 1.500000e+01 -1.000000e+00
    endloop
  endfacet
  facet normal 0.000000e+00 1.000000e+00 -0.000000e+00
    outer loop
      vertex   6.000000e+00 1.600000e+01 -1.558583e+00
      vertex   5.940422e+00 1.600000e+01 -1.542906e+00
      vertex   6.000000e+00 1.600000e+01 -1.000000e+00
    endloop
  endfacet
  facet normal 0.000000e+00 1.000000e+00 0.000000e+00
    outer loop
      vertex   6.000000e+00 1.600000e+01 -1.000000e+00
      vertex   5.940422e+00 1.600000e+01 -1.542906e+00
      vertex   5.881355e+00 1.600000e+01 -1.525655e+00
    endloop
  endfacet
  facet normal 0.000000e+00 1.000000e+00 0.000000e+00
    outer loop
      vertex   6.000000e+00 1.600000e+01 -1.000000e+00
      vertex   5.881355e+00 1.600000e+01 -1.525655e+00
      vertex   5.822846e+00 1.600000e+01 -1.506845e+00
    endloop
  endfacet
  facet normal 0.000000e+00 1.000000e+00 -0.000000e+00
    outer loop
      vertex   5.822846e+00 1.600000e+01 -1.506845e+00
      vertex   5.764943e+00 1.600000e+01 -1.486492e+00
      vertex   6.000000e+00 1.600000e+01 -1.000000e+00
    endloop
  endfacet
  facet normal 0.000000e+00 1.000000e+00 0.000000e+00
    outer loop
      vertex   6.000000e+00 1.600000e+01 -1.000000e+00
      vertex   5.764943e+00 1.600000e+01 -1.486492e+00
      vertex   5.707694e+00 1.600000e+01 -1.464613e+00
    endloop
  endfacet
  facet normal 0.000000e+00 1.000000e+00 0.000000e+00
    outer loop
      vertex   6.000000e+00 1.600000e+01 -1.000000e+00
      vertex   5.707694e+00 1.600000e+01 -1.464613e+00
      vertex   5.651147e+00 1.600000e+01 -1.441225e+00
    endloop
  endfacet
  facet normal 0.000000e+00 1.000000e+00 -0.000000e+00
    outer loop
      vertex   5.651147e+00 1.600000e+01 -1.441225e+00
      vertex   5.595347e+00 1.600000e+01 -1.416348e+00
      vertex   6.000000e+00 1.600000e+01 -1.000000e+00
    endloop
  endfacet
  facet normal 0.000000e+00 1.000000e+00 0.000000e+00
    outer loop
      vertex   6.000000e+00 1.600000e+01 -1.000000e+00
      vertex   5.595347e+00 1.600000e+01 -1.416348e+00
      vertex   5.540340e+00 1.600000e+01 -1.390002e+00
    endloop
  endfacet
  facet normal 0.000000e+00 1.000000e+00 0.000000e+00
    outer loop
      vertex   6.000000e+00 1.600000e+01 -1.000000e+00
      vertex   5.540340e+00 1.600000e+01 -1.390002e+00
      vertex   5.486171e+00 1.600000e+01 -1.362208e+00
    endloop
  endfacet
  facet normal 0.000000e+00 1.000000e+00 -0.000000e+00
    outer loop
      vertex   5.486171e+00 1.600000e+01 -1.362208e+00
      vertex   5.432886e+00 1.600000e+01 -1.332990e+00
      vertex   6.000000e+00 1.600000e+01 -1.000000e+00
    endloop
  endfacet
  facet normal 0.000000e+00 1.000000e+00 0.000000e+00
    outer loop
      vertex   6.000000e+00 1.600000e+01 -1.000000e+00
      vertex   5.432886e+00 1.600000e+01 -1.332990e+00
      vertex   5.380527e+00 1.600000e+01 -1.302372e+00
    endloop
  endfacet
  facet normal 0.000000e+00 1.000000e+00 0.000000e+00
    outer loop
      vertex   6.000000e+00 1.600000e+01 -1.000000e+00
      vertex   5.380527e+00 1.600000e+01 -1.302372e+00
      vertex   5.329138e+00 1.600000e+01 -1.270378e+00
    endloop
  endfacet
  facet normal 0.000000e+00 1.000000e+00 -0.000000e+00
    outer loop
      vertex   5.329138e+00 1.600000e+01 -1.270378e+00
      vertex   5.278761e+00 1.600000e+01 -1.237035e+00
      vertex   6.000000e+00 1.600000e+01 -1.000000e+00
    endloop
  endfacet
  facet normal 0.000000e+00 1.000000e+00 0.000000e+00
    outer loop
      vertex   6.000000e+00 1.600000e+01 -1.000000e+00
      vertex   5.278761e+00 1.600000e+01 -1.237035e+00
      vertex   5.229437e+00 1.600000e+01 -1.202370e+00
    endloop
  endfacet
  facet normal 0.000000e+00 1.000000e+00 0.000000e+00
    outer loop
      vertex   6.000000e+00 1.600000e+01 -1.000000e+00
      vertex   5.229437e+00 1.600000e+01 -1.202370e+00
      vertex   5.181206e+00 1.600000e+01 -1.166412e+00
    endloop
  endfacet
  facet normal 0.000000e+00 1.000000e+00 -0.000000e+00
    outer loop
      vertex   5.181206e+00 1.600000e+01 -1.166412e+00
      vertex   5.134109e+00 1.600000e+01 -1.129191e+00
      vertex   6.000000e+00 1.600000e+01 -1.000000e+00
    endloop
  endfacet
  facet normal 0.000000e+00 1.000000e+00 0.000000e+00
    outer loop
      vertex   6.000000e+00 1.600000e+01 -1.000000e+00
      vertex   5.134109e+00 1.600000e+01 -1.129191e+00
      vertex   5.088184e+00 1.600000e+01 -1.090736e+00
    endloop
  endfacet
  facet normal 0.000000e+00 1.000000e+00 0.000000e+00
    outer loop
      vertex   6.000000e+00 1.600000e+01 -1.000000e+00
      vertex   5.088184e+00 1.600000e+01 -1.090736e+00
      vertex   5.043469e+00 1.600000e+01 -1.051079e+00
    endloop
  endfacet
  facet normal -2.035676e-13 1.000000e+00 -1.732375e-13
    outer loop
      vertex   5.000000e+00 1.600000e+01 -1.010254e+00
      vertex   5.000000e+00 1.600000e+01 -1.000000e+00
      vertex   5.043469e+00 1.600000e+01 -1.051079e+00
    endloop
  endfacet
  facet normal 0.000000e+00 1.000000e+00 -0.000000e+00
    outer loop
      vertex   5.043469e+00 1.600000e+01 -1.051079e+00
      vertex   5.000000e+00 1.600000e+01 -1.000000e+00
      vertex   6.000000e+00 1.600000e+01 -1.000000e+00
    endloop
  endfacet
  facet normal 1.000000e+00 0.000000e+00 0.000000e+00
    outer loop
      vertex   6.000000e+00 1.500000e+01 -1.622328e+00
      vertex   6.000000e+00 1.512652e+01 -1.618376e+00
      vertex   6.000000e+00 1.500000e+01 -1.000000e+00
    endloop
  endfacet
  facet normal 1.000000e+00 0.000000e+00 0.000000e+00
    outer loop
      vertex   6.000000e+00 1.500000e+01 -1.000000e+00
      vertex   6.000000e+00 1.512652e+01 -1.618376e+00
      vertex   6.000000e+00 1.525275e+01 -1.613269e+00
    endloop
  endfacet
  facet normal 1.000000e+00 0.000000e+00 0.000000e+00
    outer loop
      vertex   6.000000e+00 1.500000e+01 -1.000000e+00
      vertex   6.000000e+00 1.525275e+01 -1.613269e+00
      vertex   6.000000e+00 1.537861e+01 -1.607010e+00
    endloop
  endfacet
  facet normal 1.000000e+00 0.000000e+00 -0.000000e+00
    outer loop
      vertex   6.000000e+00 1.537861e+01 -1.607010e+00
      vertex   6.000000e+00 1.550405e+01 -1.599602e+00
      vertex   6.000000e+00 1.500000e+01 -1.000000e+00
    endloop
  endfacet
  facet normal 1.000000e+00 0.000000e+00 0.000000e+00
    outer loop
      vertex   6.000000e+00 1.500000e+01 -1.000000e+00
      vertex   6.000000e+00 1.550405e+01 -1.599602e+00
      vertex   6.000000e+00 1.562898e+01 -1.591051e+00
    endloop
  endfacet
  facet normal 1.000000e+00 -0.000000e+00 0.000000e+00
    outer loop
      vertex   6.000000e+00 1.500000e+01 -1.000000e+00
      vertex   6.000000e+00 1.562898e+01 -1.591051e+00
      vertex   6.000000e+00 1.600000e+01 -1.000000e+00
    endloop
  endfacet
  facet normal 1.000000e+00 0.000000e+00 0.000000e+00
    outer loop
      vertex   6.000000e+00 1.600000e+01 -1.000000e+00
      vertex   6.000000e+00 1.562898e+01 -1.591051e+00
      vertex   6.000000e+00 1.575333e+01 -1.581360e+00
    endloop
  endfacet
  facet normal 1.000000e+00 0.000000e+00 0.000000e+00
    outer loop
      vertex   6.000000e+00 1.600000e+01 -1.000000e+00
      vertex   6.000000e+00 1.575333e+01 -1.581360e+00
      vertex   6.000000e+00 1.587702e+01 -1.570535e+00
    endloop
  endfacet
  facet normal 1.000000e+00 0.000000e+00 0.000000e+00
    outer loop
      vertex   6.000000e+00 1.587702e+01 -1.570535e+00
      vertex   6.000000e+00 1.600000e+01 -1.558583e+00
      vertex   6.000000e+00 1.600000e+01 -1.000000e+00
    endloop
  endfacet
endsolid
