solid ASCII
  facet normal -8.742458e-01 3.585543e-01 3.273119e-01
    outer loop
      vertex   7.789953e+00 2.400000e+01 1.000000e+00
      vertex   7.379823e+00 2.300000e+01 1.000000e+00
      vertex   7.810406e+00 2.400000e+01 1.054632e+00
    endloop
  endfacet
  facet normal -8.741898e-01 3.585200e-01 3.274989e-01
    outer loop
      vertex   7.810406e+00 2.400000e+01 1.054632e+00
      vertex   7.379823e+00 2.300000e+01 1.000000e+00
      vertex   7.400566e+00 2.300000e+01 1.055371e+00
    endloop
  endfacet
  facet normal -8.651236e-01 3.548243e-01 3.544868e-01
    outer loop
      vertex   7.810406e+00 2.400000e+01 1.054632e+00
      vertex   7.400566e+00 2.300000e+01 1.055371e+00
      vertex   7.832558e+00 2.400000e+01 1.108694e+00
    endloop
  endfacet
  facet normal -8.649405e-01 3.547155e-01 3.550421e-01
    outer loop
      vertex   7.832558e+00 2.400000e+01 1.108694e+00
      vertex   7.400566e+00 2.300000e+01 1.055371e+00
      vertex   7.423054e+00 2.300000e+01 1.110155e+00
    endloop
  endfacet
  facet normal -8.552787e-01 3.507975e-01 3.813653e-01
    outer loop
      vertex   7.832558e+00 2.400000e+01 1.108694e+00
      vertex   7.423054e+00 2.300000e+01 1.110155e+00
      vertex   7.856390e+00 2.400000e+01 1.162141e+00
    endloop
  endfacet
  facet normal -8.549482e-01 3.506067e-01 3.822806e-01
    outer loop
      vertex   7.856390e+00 2.400000e+01 1.162141e+00
      vertex   7.423054e+00 2.300000e+01 1.110155e+00
      vertex   7.447267e+00 2.300000e+01 1.164306e+00
    endloop
  endfacet
  facet normal -8.447193e-01 3.464773e-01 4.079250e-01
    outer loop
      vertex   7.856390e+00 2.400000e+01 1.162141e+00
      vertex   7.447267e+00 2.300000e+01 1.164306e+00
      vertex   7.881882e+00 2.400000e+01 1.214928e+00
    endloop
  endfacet
  facet normal -8.442218e-01 3.461970e-01 4.091910e-01
    outer loop
      vertex   7.881882e+00 2.400000e+01 1.214928e+00
      vertex   7.447267e+00 2.300000e+01 1.164306e+00
      vertex   7.473185e+00 2.300000e+01 1.217778e+00
    endloop
  endfacet
  facet normal -8.334542e-01 3.418674e-01 4.341437e-01
    outer loop
      vertex   7.881882e+00 2.400000e+01 1.214928e+00
      vertex   7.473185e+00 2.300000e+01 1.217778e+00
      vertex   7.909012e+00 2.400000e+01 1.267012e+00
    endloop
  endfacet
  facet normal -8.327702e-01 3.414902e-01 4.357502e-01
    outer loop
      vertex   7.909012e+00 2.400000e+01 1.267012e+00
      vertex   7.473185e+00 2.300000e+01 1.217778e+00
      vertex   7.500785e+00 2.300000e+01 1.270524e+00
    endloop
  endfacet
  facet normal -8.214929e-01 3.369717e-01 4.599995e-01
    outer loop
      vertex   7.909012e+00 2.400000e+01 1.267012e+00
      vertex   7.500785e+00 2.300000e+01 1.270524e+00
      vertex   7.937758e+00 2.400000e+01 1.318348e+00
    endloop
  endfacet
  facet normal -8.206034e-01 3.364905e-01 4.619353e-01
    outer loop
      vertex   7.937758e+00 2.400000e+01 1.318348e+00
      vertex   7.500785e+00 2.300000e+01 1.270524e+00
      vertex   7.530043e+00 2.300000e+01 1.322500e+00
    endloop
  endfacet
  facet normal -8.088453e-01 3.317942e-01 4.854708e-01
    outer loop
      vertex   7.937758e+00 2.400000e+01 1.318348e+00
      vertex   7.530043e+00 2.300000e+01 1.322500e+00
      vertex   7.968096e+00 2.400000e+01 1.368894e+00
    endloop
  endfacet
  facet normal -8.077318e-01 3.312019e-01 4.877239e-01
    outer loop
      vertex   7.968096e+00 2.400000e+01 1.368894e+00
      vertex   7.530043e+00 2.300000e+01 1.322500e+00
      vertex   7.560934e+00 2.300000e+01 1.373660e+00
    endloop
  endfacet
  facet normal -7.955220e-01 3.263393e-01 5.105364e-01
    outer loop
      vertex   7.968096e+00 2.400000e+01 1.368894e+00
      vertex   7.560934e+00 2.300000e+01 1.373660e+00
      vertex   8.000000e+00 2.400000e+01 1.418607e+00
    endloop
  endfacet
  facet normal -7.941665e-01 3.256292e-01 5.130938e-01
    outer loop
      vertex   8.000000e+00 2.400000e+01 1.418607e+00
      vertex   7.560934e+00 2.300000e+01 1.373660e+00
      vertex   7.593432e+00 2.300000e+01 1.423961e+00
    endloop
  endfacet
  facet normal -7.840727e-01 3.216204e-01 5.308393e-01
    outer loop
      vertex   8.000000e+00 2.400000e+01 1.418607e+00
      vertex   7.593432e+00 2.300000e+01 1.423961e+00
      vertex   8.000000e+00 2.394822e+01 1.449982e+00
    endloop
  endfacet
  facet normal -7.799527e-01 3.196560e-01 5.380463e-01
    outer loop
      vertex   8.000000e+00 2.394822e+01 1.449982e+00
      vertex   7.593432e+00 2.300000e+01 1.423961e+00
      vertex   7.627510e+00 2.300000e+01 1.473359e+00
    endloop
  endfacet
  facet normal -7.748260e-01 3.178495e-01 5.464580e-01
    outer loop
      vertex   8.000000e+00 2.394822e+01 1.449982e+00
      vertex   7.627510e+00 2.300000e+01 1.473359e+00
      vertex   8.000000e+00 2.389491e+01 1.480988e+00
    endloop
  endfacet
  facet normal -7.655222e-01 3.138473e-01 5.616722e-01
    outer loop
      vertex   8.000000e+00 2.389491e+01 1.480988e+00
      vertex   7.627510e+00 2.300000e+01 1.473359e+00
      vertex   8.000000e+00 2.384010e+01 1.511614e+00
    endloop
  endfacet
  facet normal -7.650189e-01 3.135863e-01 5.625031e-01
    outer loop
      vertex   8.000000e+00 2.384010e+01 1.511614e+00
      vertex   7.627510e+00 2.300000e+01 1.473359e+00
      vertex   7.663136e+00 2.300000e+01 1.521812e+00
    endloop
  endfacet
  facet normal -7.555556e-01 3.099690e-01 5.771091e-01
    outer loop
      vertex   8.000000e+00 2.384010e+01 1.511614e+00
      vertex   7.663136e+00 2.300000e+01 1.521812e+00
      vertex   8.000000e+00 2.378381e+01 1.541849e+00
    endloop
  endfacet
  facet normal -7.494641e-01 3.071108e-01 5.865037e-01
    outer loop
      vertex   8.000000e+00 2.378381e+01 1.541849e+00
      vertex   7.663136e+00 2.300000e+01 1.521812e+00
      vertex   7.700282e+00 2.300000e+01 1.569279e+00
    endloop
  endfacet
  facet normal -7.456044e-01 3.058296e-01 5.920662e-01
    outer loop
      vertex   8.000000e+00 2.378381e+01 1.541849e+00
      vertex   7.700282e+00 2.300000e+01 1.569279e+00
      vertex   8.000000e+00 2.372605e+01 1.571684e+00
    endloop
  endfacet
  facet normal -7.354221e-01 3.015774e-01 6.067993e-01
    outer loop
      vertex   8.000000e+00 2.372605e+01 1.571684e+00
      vertex   7.700282e+00 2.300000e+01 1.569279e+00
      vertex   8.000000e+00 2.366684e+01 1.601109e+00
    endloop
  endfacet
  facet normal -7.332454e-01 3.004471e-01 6.099858e-01
    outer loop
      vertex   8.000000e+00 2.366684e+01 1.601109e+00
      vertex   7.700282e+00 2.300000e+01 1.569279e+00
      vertex   7.738915e+00 2.300000e+01 1.615719e+00
    endloop
  endfacet
  facet normal -7.247021e-01 2.973566e-01 6.215995e-01
    outer loop
      vertex   8.000000e+00 2.366684e+01 1.601109e+00
      vertex   7.738915e+00 2.300000e+01 1.615719e+00
      vertex   8.000000e+00 2.360621e+01 1.630112e+00
    endloop
  endfacet
  facet normal -7.164001e-01 2.935116e-01 6.329469e-01
    outer loop
      vertex   8.000000e+00 2.360621e+01 1.630112e+00
      vertex   7.738915e+00 2.300000e+01 1.615719e+00
      vertex   7.779002e+00 2.300000e+01 1.661091e+00
    endloop
  endfacet
  facet normal -7.141613e-01 2.928403e-01 6.357815e-01
    outer loop
      vertex   8.000000e+00 2.360621e+01 1.630112e+00
      vertex   7.779002e+00 2.300000e+01 1.661091e+00
      vertex   8.000000e+00 2.354418e+01 1.658685e+00
    endloop
  endfacet
  facet normal -7.030192e-01 2.883786e-01 6.500783e-01
    outer loop
      vertex   8.000000e+00 2.354418e+01 1.658685e+00
      vertex   7.779002e+00 2.300000e+01 1.661091e+00
      vertex   8.000000e+00 2.348076e+01 1.686817e+00
    endloop
  endfacet
  facet normal -6.989599e-01 2.862287e-01 6.553840e-01
    outer loop
      vertex   8.000000e+00 2.348076e+01 1.686817e+00
      vertex   7.779002e+00 2.300000e+01 1.661091e+00
      vertex   7.820509e+00 2.300000e+01 1.705357e+00
    endloop
  endfacet
  facet normal -6.916072e-01 2.838225e-01 6.641718e-01
    outer loop
      vertex   8.000000e+00 2.348076e+01 1.686817e+00
      vertex   7.820509e+00 2.300000e+01 1.705357e+00
      vertex   8.000000e+00 2.341598e+01 1.714499e+00
    endloop
  endfacet
  facet normal -6.807921e-01 2.788671e-01 6.773147e-01
    outer loop
      vertex   8.000000e+00 2.341598e+01 1.714499e+00
      vertex   7.820509e+00 2.300000e+01 1.705357e+00
      vertex   8.000000e+00 2.334987e+01 1.741721e+00
    endloop
  endfacet
  facet normal -6.808718e-01 2.789185e-01 6.772135e-01
    outer loop
      vertex   8.000000e+00 2.334987e+01 1.741721e+00
      vertex   7.820509e+00 2.300000e+01 1.705357e+00
      vertex   7.863399e+00 2.300000e+01 1.748479e+00
    endloop
  endfacet
  facet normal -6.683559e-01 2.743062e-01 6.914163e-01
    outer loop
      vertex   8.000000e+00 2.334987e+01 1.741721e+00
      vertex   7.863399e+00 2.300000e+01 1.748479e+00
      vertex   8.000000e+00 2.328243e+01 1.768475e+00
    endloop
  endfacet
  facet normal -6.622980e-01 2.708702e-01 6.985633e-01
    outer loop
      vertex   8.000000e+00 2.328243e+01 1.768475e+00
      vertex   7.863399e+00 2.300000e+01 1.748479e+00
      vertex   7.907637e+00 2.300000e+01 1.790420e+00
    endloop
  endfacet
  facet normal -6.563731e-01 2.694090e-01 7.046936e-01
    outer loop
      vertex   8.000000e+00 2.328243e+01 1.768475e+00
      vertex   7.907637e+00 2.300000e+01 1.790420e+00
      vertex   8.000000e+00 2.321371e+01 1.794750e+00
    endloop
  endfacet
  facet normal -6.449087e-01 2.642019e-01 7.171402e-01
    outer loop
      vertex   8.000000e+00 2.321371e+01 1.794750e+00
      vertex   7.907637e+00 2.300000e+01 1.790420e+00
      vertex   8.000000e+00 2.314371e+01 1.820537e+00
    endloop
  endfacet
  facet normal -6.431419e-01 2.626121e-01 7.193076e-01
    outer loop
      vertex   8.000000e+00 2.314371e+01 1.820537e+00
      vertex   7.907637e+00 2.300000e+01 1.790420e+00
      vertex   7.953183e+00 2.300000e+01 1.831144e+00
    endloop
  endfacet
  facet normal -6.310219e-01 2.595315e-01 7.310641e-01
    outer loop
      vertex   8.000000e+00 2.314371e+01 1.820537e+00
      vertex   7.953183e+00 2.300000e+01 1.831144e+00
      vertex   8.000000e+00 2.307246e+01 1.845829e+00
    endloop
  endfacet
  facet normal -6.236147e-01 2.530045e-01 7.396577e-01
    outer loop
      vertex   8.000000e+00 2.307246e+01 1.845829e+00
      vertex   7.953183e+00 2.300000e+01 1.831144e+00
      vertex   8.000000e+00 2.300000e+01 1.870616e+00
    endloop
  endfacet
  facet normal 0.000000e+00 -1.000000e+00 0.000000e+00
    outer loop
      vertex   8.000000e+00 2.300000e+01 1.870616e+00
      vertex   7.953183e+00 2.300000e+01 1.831144e+00
      vertex   8.000000e+00 2.300000e+01 1.000000e+00
    endloop
  endfacet
  facet normal 0.000000e+00 -1.000000e+00 0.000000e+00
    outer loop
      vertex   8.000000e+00 2.300000e+01 1.000000e+00
      vertex   7.953183e+00 2.300000e+01 1.831144e+00
      vertex   7.907637e+00 2.300000e+01 1.790420e+00
    endloop
  endfacet
  facet normal 0.000000e+00 -1.000000e+00 0.000000e+00
    outer loop
      vertex   8.000000e+00 2.300000e+01 1.000000e+00
      vertex   7.907637e+00 2.300000e+01 1.790420e+00
      vertex   7.863399e+00 2.300000e+01 1.748479e+00
    endloop
  endfacet
  facet normal 0.000000e+00 -1.000000e+00 -0.000000e+00
    outer loop
      vertex   7.863399e+00 2.300000e+01 1.748479e+00
      vertex   7.820509e+00 2.300000e+01 1.705357e+00
      vertex   8.000000e+00 2.300000e+01 1.000000e+00
    endloop
  endfacet
  facet normal 0.000000e+00 -1.000000e+00 0.000000e+00
    outer loop
      vertex   8.000000e+00 2.300000e+01 1.000000e+00
      vertex   7.820509e+00 2.300000e+01 1.705357e+00
      vertex   7.779002e+00 2.300000e+01 1.661091e+00
    endloop
  endfacet
  facet normal 0.000000e+00 -1.000000e+00 0.000000e+00
    outer loop
      vertex   8.000000e+00 2.300000e+01 1.000000e+00
      vertex   7.779002e+00 2.300000e+01 1.661091e+00
      vertex   7.738915e+00 2.300000e+01 1.615719e+00
    endloop
  endfacet
  facet normal 0.000000e+00 -1.000000e+00 -0.000000e+00
    outer loop
      vertex   7.738915e+00 2.300000e+01 1.615719e+00
      vertex   7.700282e+00 2.300000e+01 1.569279e+00
      vertex   8.000000e+00 2.300000e+01 1.000000e+00
    endloop
  endfacet
  facet normal 0.000000e+00 -1.000000e+00 0.000000e+00
    outer loop
      vertex   8.000000e+00 2.300000e+01 1.000000e+00
      vertex   7.700282e+00 2.300000e+01 1.569279e+00
      vertex   7.663136e+00 2.300000e+01 1.521812e+00
    endloop
  endfacet
  facet normal 0.000000e+00 -1.000000e+00 0.000000e+00
    outer loop
      vertex   8.000000e+00 2.300000e+01 1.000000e+00
      vertex   7.663136e+00 2.300000e+01 1.521812e+00
      vertex   7.627510e+00 2.300000e+01 1.473359e+00
    endloop
  endfacet
  facet normal 0.000000e+00 -1.000000e+00 -0.000000e+00
    outer loop
      vertex   7.627510e+00 2.300000e+01 1.473359e+00
      vertex   7.593432e+00 2.300000e+01 1.423961e+00
      vertex   8.000000e+00 2.300000e+01 1.000000e+00
    endloop
  endfacet
  facet normal 0.000000e+00 -1.000000e+00 0.000000e+00
    outer loop
      vertex   8.000000e+00 2.300000e+01 1.000000e+00
      vertex   7.593432e+00 2.300000e+01 1.423961e+00
      vertex   7.560934e+00 2.300000e+01 1.373660e+00
    endloop
  endfacet
  facet normal 0.000000e+00 -1.000000e+00 0.000000e+00
    outer loop
      vertex   8.000000e+00 2.300000e+01 1.000000e+00
      vertex   7.560934e+00 2.300000e+01 1.373660e+00
      vertex   7.530043e+00 2.300000e+01 1.322500e+00
    endloop
  endfacet
  facet normal 0.000000e+00 -1.000000e+00 -0.000000e+00
    outer loop
      vertex   7.530043e+00 2.300000e+01 1.322500e+00
      vertex   7.500785e+00 2.300000e+01 1.270524e+00
      vertex   8.000000e+00 2.300000e+01 1.000000e+00
    endloop
  endfacet
  facet normal 0.000000e+00 -1.000000e+00 0.000000e+00
    outer loop
      vertex   8.000000e+00 2.300000e+01 1.000000e+00
      vertex   7.500785e+00 2.300000e+01 1.270524e+00
      vertex   7.473185e+00 2.300000e+01 1.217778e+00
    endloop
  endfacet
  facet normal 0.000000e+00 -1.000000e+00 0.000000e+00
    outer loop
      vertex   8.000000e+00 2.300000e+01 1.000000e+00
      vertex   7.473185e+00 2.300000e+01 1.217778e+00
      vertex   7.447267e+00 2.300000e+01 1.164306e+00
    endloop
  endfacet
  facet normal 0.000000e+00 -1.000000e+00 -0.000000e+00
    outer loop
      vertex   7.447267e+00 2.300000e+01 1.164306e+00
      vertex   7.423054e+00 2.300000e+01 1.110155e+00
      vertex   8.000000e+00 2.300000e+01 1.000000e+00
    endloop
  endfacet
  facet normal 0.000000e+00 -1.000000e+00 0.000000e+00
    outer loop
      vertex   8.000000e+00 2.300000e+01 1.000000e+00
      vertex   7.423054e+00 2.300000e+01 1.110155e+00
      vertex   7.400566e+00 2.300000e+01 1.055371e+00
    endloop
  endfacet
  facet normal 0.000000e+00 -1.000000e+00 0.000000e+00
    outer loop
      vertex   8.000000e+00 2.300000e+01 1.000000e+00
      vertex   7.400566e+00 2.300000e+01 1.055371e+00
      vertex   7.379823e+00 2.300000e+01 1.000000e+00
    endloop
  endfacet
  facet normal 0.000000e+00 0.000000e+00 -1.000000e+00
    outer loop
      vertex   7.379823e+00 2.300000e+01 1.000000e+00
      vertex   7.789953e+00 2.400000e+01 1.000000e+00
      vertex   8.000000e+00 2.300000e+01 1.000000e+00
    endloop
  endfacet
  facet normal 0.000000e+00 0.000000e+00 -1.000000e+00
    outer loop
      vertex   8.000000e+00 2.300000e+01 1.000000e+00
      vertex   7.789953e+00 2.400000e+01 1.000000e+00
      vertex   8.000000e+00 2.400000e+01 1.000000e+00
    endloop
  endfacet
  facet normal 0.000000e+00 1.000000e+00 0.000000e+00
    outer loop
      vertex   7.789953e+00 2.400000e+01 1.000000e+00
      vertex   7.810406e+00 2.400000e+01 1.054632e+00
      vertex   8.000000e+00 2.400000e+01 1.000000e+00
    endloop
  endfacet
  facet normal 0.000000e+00 1.000000e+00 0.000000e+00
    outer loop
      vertex   8.000000e+00 2.400000e+01 1.000000e+00
      vertex   7.810406e+00 2.400000e+01 1.054632e+00
      vertex   7.832558e+00 2.400000e+01 1.108694e+00
    endloop
  endfacet
  facet normal 0.000000e+00 1.000000e+00 0.000000e+00
    outer loop
      vertex   8.000000e+00 2.400000e+01 1.000000e+00
      vertex   7.832558e+00 2.400000e+01 1.108694e+00
      vertex   7.856390e+00 2.400000e+01 1.162141e+00
    endloop
  endfacet
  facet normal -0.000000e+00 1.000000e+00 0.000000e+00
    outer loop
      vertex   7.856390e+00 2.400000e+01 1.162141e+00
      vertex   7.881882e+00 2.400000e+01 1.214928e+00
      vertex   8.000000e+00 2.400000e+01 1.000000e+00
    endloop
  endfacet
  facet normal 0.000000e+00 1.000000e+00 0.000000e+00
    outer loop
      vertex   8.000000e+00 2.400000e+01 1.000000e+00
      vertex   7.881882e+00 2.400000e+01 1.214928e+00
      vertex   7.909012e+00 2.400000e+01 1.267012e+00
    endloop
  endfacet
  facet normal 0.000000e+00 1.000000e+00 0.000000e+00
    outer loop
      vertex   8.000000e+00 2.400000e+01 1.000000e+00
      vertex   7.909012e+00 2.400000e+01 1.267012e+00
      vertex   7.937758e+00 2.400000e+01 1.318348e+00
    endloop
  endfacet
  facet normal -0.000000e+00 1.000000e+00 0.000000e+00
    outer loop
      vertex   7.937758e+00 2.400000e+01 1.318348e+00
      vertex   7.968096e+00 2.400000e+01 1.368894e+00
      vertex   8.000000e+00 2.400000e+01 1.000000e+00
    endloop
  endfacet
  facet normal 0.000000e+00 1.000000e+00 -0.000000e+00
    outer loop
      vertex   8.000000e+00 2.400000e+01 1.000000e+00
      vertex   7.968096e+00 2.400000e+01 1.368894e+00
      vertex   8.000000e+00 2.400000e+01 1.418607e+00
    endloop
  endfacet
  facet normal 1.000000e+00 -3.687392e-14 -4.243493e-15
    outer loop
      vertex   8.000000e+00 2.400000e+01 1.418607e+00
      vertex   8.000000e+00 2.394822e+01 1.449982e+00
      vertex   8.000000e+00 2.400000e+01 1.000000e+00
    endloop
  endfacet
  facet normal 1.000000e+00 0.000000e+00 0.000000e+00
    outer loop
      vertex   8.000000e+00 2.400000e+01 1.000000e+00
      vertex   8.000000e+00 2.394822e+01 1.449982e+00
      vertex   8.000000e+00 2.389491e+01 1.480988e+00
    endloop
  endfacet
  facet normal 1.000000e+00 0.000000e+00 0.000000e+00
    outer loop
      vertex   8.000000e+00 2.400000e+01 1.000000e+00
      vertex   8.000000e+00 2.389491e+01 1.480988e+00
      vertex   8.000000e+00 2.384010e+01 1.511614e+00
    endloop
  endfacet
  facet normal 1.000000e+00 0.000000e+00 0.000000e+00
    outer loop
      vertex   8.000000e+00 2.384010e+01 1.511614e+00
      vertex   8.000000e+00 2.378381e+01 1.541849e+00
      vertex   8.000000e+00 2.400000e+01 1.000000e+00
    endloop
  endfacet
  facet normal 1.000000e+00 0.000000e+00 0.000000e+00
    outer loop
      vertex   8.000000e+00 2.400000e+01 1.000000e+00
      vertex   8.000000e+00 2.378381e+01 1.541849e+00
      vertex   8.000000e+00 2.300000e+01 1.000000e+00
    endloop
  endfacet
  facet normal 1.000000e+00 0.000000e+00 0.000000e+00
    outer loop
      vertex   8.000000e+00 2.300000e+01 1.000000e+00
      vertex   8.000000e+00 2.378381e+01 1.541849e+00
      vertex   8.000000e+00 2.372605e+01 1.571684e+00
    endloop
  endfacet
  facet normal 1.000000e+00 0.000000e+00 0.000000e+00
    outer loop
      vertex   8.000000e+00 2.300000e+01 1.000000e+00
      vertex   8.000000e+00 2.372605e+01 1.571684e+00
      vertex   8.000000e+00 2.366684e+01 1.601109e+00
    endloop
  endfacet
  facet normal 1.000000e+00 0.000000e+00 0.000000e+00
    outer loop
      vertex   8.000000e+00 2.366684e+01 1.601109e+00
      vertex   8.000000e+00 2.360621e+01 1.630112e+00
      vertex   8.000000e+00 2.300000e+01 1.000000e+00
    endloop
  endfacet
  facet normal 1.000000e+00 0.000000e+00 0.000000e+00
    outer loop
      vertex   8.000000e+00 2.300000e+01 1.000000e+00
      vertex   8.000000e+00 2.360621e+01 1.630112e+00
      vertex   8.000000e+00 2.354418e+01 1.658685e+00
    endloop
  endfacet
  facet normal 1.000000e+00 0.000000e+00 0.000000e+00
    outer loop
      vertex   8.000000e+00 2.300000e+01 1.000000e+00
      vertex   8.000000e+00 2.354418e+01 1.658685e+00
      vertex   8.000000e+00 2.348076e+01 1.686817e+00
    endloop
  endfacet
  facet normal 1.000000e+00 0.000000e+00 0.000000e+00
    outer loop
      vertex   8.000000e+00 2.348076e+01 1.686817e+00
      vertex   8.000000e+00 2.341598e+01 1.714499e+00
      vertex   8.000000e+00 2.300000e+01 1.000000e+00
    endloop
  endfacet
  facet normal 1.000000e+00 0.000000e+00 0.000000e+00
    outer loop
      vertex   8.000000e+00 2.300000e+01 1.000000e+00
      vertex   8.000000e+00 2.341598e+01 1.714499e+00
      vertex   8.000000e+00 2.334987e+01 1.741721e+00
    endloop
  endfacet
  facet normal 1.000000e+00 0.000000e+00 0.000000e+00
    outer loop
      vertex   8.000000e+00 2.300000e+01 1.000000e+00
      vertex   8.000000e+00 2.334987e+01 1.741721e+00
      vertex   8.000000e+00 2.328243e+01 1.768475e+00
    endloop
  endfacet
  facet normal 1.000000e+00 0.000000e+00 0.000000e+00
    outer loop
      vertex   8.000000e+00 2.328243e+01 1.768475e+00
      vertex   8.000000e+00 2.321371e+01 1.794750e+00
      vertex   8.000000e+00 2.300000e+01 1.000000e+00
    endloop
  endfacet
  facet normal 1.000000e+00 0.000000e+00 0.000000e+00
    outer loop
      vertex   8.000000e+00 2.300000e+01 1.000000e+00
      vertex   8.000000e+00 2.321371e+01 1.794750e+00
      vertex   8.000000e+00 2.314371e+01 1.820537e+00
    endloop
  endfacet
  facet normal 1.000000e+00 0.000000e+00 0.000000e+00
    outer loop
      vertex   8.000000e+00 2.300000e+01 1.000000e+00
      vertex   8.000000e+00 2.314371e+01 1.820537e+00
      vertex   8.000000e+00 2.307246e+01 1.845829e+00
    endloop
  endfacet
  facet normal 1.000000e+00 4.763095e-14 -4.080689e-15
    outer loop
      vertex   8.000000e+00 2.307246e+01 1.845829e+00
      vertex   8.000000e+00 2.300000e+01 1.870616e+00
      vertex   8.000000e+00 2.300000e+01 1.000000e+00
    endloop
  endfacet
endsolid
