solid ASCII
  facet normal 3.505282e-01 -1.447263e-01 -9.253023e-01
    outer loop
      vertex   7.000000e+00 1.500000e+01 -1.466685e+00
      vertex   6.940798e+00 1.500000e+01 -1.489112e+00
      vertex   7.000000e+00 1.512131e+01 -1.485660e+00
    endloop
  endfacet
  facet normal 3.326113e-01 -1.357567e-01 -9.332416e-01
    outer loop
      vertex   7.000000e+00 1.512131e+01 -1.485660e+00
      vertex   6.940798e+00 1.500000e+01 -1.489112e+00
      vertex   7.000000e+00 1.524383e+01 -1.503482e+00
    endloop
  endfacet
  facet normal 3.250537e-01 -1.340926e-01 -9.361406e-01
    outer loop
      vertex   7.000000e+00 1.524383e+01 -1.503482e+00
      vertex   6.940798e+00 1.500000e+01 -1.489112e+00
      vertex   6.880906e+00 1.500000e+01 -1.509909e+00
    endloop
  endfacet
  facet normal 3.106825e-01 -1.269188e-01 -9.420021e-01
    outer loop
      vertex   7.000000e+00 1.524383e+01 -1.503482e+00
      vertex   6.880906e+00 1.500000e+01 -1.509909e+00
      vertex   7.000000e+00 1.536748e+01 -1.520142e+00
    endloop
  endfacet
  facet normal 2.992916e-01 -1.233429e-01 -9.461559e-01
    outer loop
      vertex   7.000000e+00 1.536748e+01 -1.520142e+00
      vertex   6.880906e+00 1.500000e+01 -1.509909e+00
      vertex   6.820374e+00 1.500000e+01 -1.529057e+00
    endloop
  endfacet
  facet normal 2.885547e-01 -1.179974e-01 -9.501646e-01
    outer loop
      vertex   7.000000e+00 1.536748e+01 -1.520142e+00
      vertex   6.820374e+00 1.500000e+01 -1.529057e+00
      vertex   7.000000e+00 1.549219e+01 -1.535629e+00
    endloop
  endfacet
  facet normal 2.732646e-01 -1.124863e-01 -9.553394e-01
    outer loop
      vertex   7.000000e+00 1.549219e+01 -1.535629e+00
      vertex   6.820374e+00 1.500000e+01 -1.529057e+00
      vertex   6.759256e+00 1.500000e+01 -1.546539e+00
    endloop
  endfacet
  facet normal 2.662421e-01 -1.089986e-01 -9.577236e-01
    outer loop
      vertex   7.000000e+00 1.549219e+01 -1.535629e+00
      vertex   6.759256e+00 1.500000e+01 -1.546539e+00
      vertex   7.000000e+00 1.561787e+01 -1.549933e+00
    endloop
  endfacet
  facet normal 2.469959e-01 -1.015323e-01 -9.636826e-01
    outer loop
      vertex   7.000000e+00 1.561787e+01 -1.549933e+00
      vertex   6.759256e+00 1.500000e+01 -1.546539e+00
      vertex   6.697606e+00 1.500000e+01 -1.562340e+00
    endloop
  endfacet
  facet normal 2.437592e-01 -9.992834e-02 -9.646739e-01
    outer loop
      vertex   7.000000e+00 1.561787e+01 -1.549933e+00
      vertex   6.697606e+00 1.500000e+01 -1.562340e+00
      vertex   7.000000e+00 1.574445e+01 -1.563045e+00
    endloop
  endfacet
  facet normal 2.205088e-01 -9.049024e-02 -9.711784e-01
    outer loop
      vertex   7.000000e+00 1.574445e+01 -1.563045e+00
      vertex   6.697606e+00 1.500000e+01 -1.562340e+00
      vertex   6.635478e+00 1.500000e+01 -1.576446e+00
    endloop
  endfacet
  facet normal 2.211205e-01 -9.079278e-02 -9.710110e-01
    outer loop
      vertex   7.000000e+00 1.574445e+01 -1.563045e+00
      vertex   6.635478e+00 1.500000e+01 -1.576446e+00
      vertex   7.000000e+00 1.587186e+01 -1.574958e+00
    endloop
  endfacet
  facet normal 1.991199e-01 -8.158488e-02 -9.765732e-01
    outer loop
      vertex   7.000000e+00 1.587186e+01 -1.574958e+00
      vertex   6.635478e+00 1.500000e+01 -1.576446e+00
      vertex   7.000000e+00 1.600000e+01 -1.585663e+00
    endloop
  endfacet
  facet normal 1.938222e-01 -7.966499e-02 -9.777967e-01
    outer loop
      vertex   7.000000e+00 1.600000e+01 -1.585663e+00
      vertex   6.635478e+00 1.500000e+01 -1.576446e+00
      vertex   6.572925e+00 1.500000e+01 -1.588846e+00
    endloop
  endfacet
  facet normal 1.744296e-01 -7.136930e-02 -9.820798e-01
    outer loop
      vertex   7.000000e+00 1.600000e+01 -1.585663e+00
      vertex   6.572925e+00 1.500000e+01 -1.588846e+00
      vertex   6.938035e+00 1.600000e+01 -1.596669e+00
    endloop
  endfacet
  facet normal 1.669680e-01 -6.865666e-02 -9.835690e-01
    outer loop
      vertex   6.938035e+00 1.600000e+01 -1.596669e+00
      vertex   6.572925e+00 1.500000e+01 -1.588846e+00
      vertex   6.510004e+00 1.500000e+01 -1.599527e+00
    endloop
  endfacet
  facet normal 1.478362e-01 -6.045736e-02 -9.871623e-01
    outer loop
      vertex   6.938035e+00 1.600000e+01 -1.596669e+00
      vertex   6.510004e+00 1.500000e+01 -1.599527e+00
      vertex   6.875749e+00 1.600000e+01 -1.605997e+00
    endloop
  endfacet
  facet normal 1.399676e-01 -5.758799e-02 -9.884800e-01
    outer loop
      vertex   6.875749e+00 1.600000e+01 -1.605997e+00
      vertex   6.510004e+00 1.500000e+01 -1.599527e+00
      vertex   6.446768e+00 1.500000e+01 -1.608481e+00
    endloop
  endfacet
  facet normal 1.211168e-01 -4.949411e-02 -9.914036e-01
    outer loop
      vertex   6.875749e+00 1.600000e+01 -1.605997e+00
      vertex   6.446768e+00 1.500000e+01 -1.608481e+00
      vertex   6.813196e+00 1.600000e+01 -1.613639e+00
    endloop
  endfacet
  facet normal 1.128445e-01 -4.646870e-02 -9.925254e-01
    outer loop
      vertex   6.813196e+00 1.600000e+01 -1.613639e+00
      vertex   6.446768e+00 1.500000e+01 -1.608481e+00
      vertex   6.383274e+00 1.500000e+01 -1.615700e+00
    endloop
  endfacet
  facet normal 9.429440e-02 -3.848890e-02 -9.948001e-01
    outer loop
      vertex   6.813196e+00 1.600000e+01 -1.613639e+00
      vertex   6.383274e+00 1.500000e+01 -1.615700e+00
      vertex   6.750428e+00 1.600000e+01 -1.619588e+00
    endloop
  endfacet
  facet normal 8.562256e-02 -3.530851e-02 -9.957018e-01
    outer loop
      vertex   6.750428e+00 1.600000e+01 -1.619588e+00
      vertex   6.383274e+00 1.500000e+01 -1.615700e+00
      vertex   6.319577e+00 1.500000e+01 -1.621177e+00
    endloop
  endfacet
  facet normal 6.739170e-02 -2.745111e-02 -9.973489e-01
    outer loop
      vertex   6.750428e+00 1.600000e+01 -1.619588e+00
      vertex   6.319577e+00 1.500000e+01 -1.621177e+00
      vertex   6.687499e+00 1.600000e+01 -1.623841e+00
    endloop
  endfacet
  facet normal 5.832548e-02 -2.411719e-02 -9.980063e-01
    outer loop
      vertex   6.687499e+00 1.600000e+01 -1.623841e+00
      vertex   6.319577e+00 1.500000e+01 -1.621177e+00
      vertex   6.255732e+00 1.500000e+01 -1.624909e+00
    endloop
  endfacet
  facet normal 4.043169e-02 -1.639013e-02 -9.990479e-01
    outer loop
      vertex   6.687499e+00 1.600000e+01 -1.623841e+00
      vertex   6.255732e+00 1.500000e+01 -1.624909e+00
      vertex   6.624463e+00 1.600000e+01 -1.626392e+00
    endloop
  endfacet
  facet normal 3.097722e-02 -1.290456e-02 -9.994368e-01
    outer loop
      vertex   6.624463e+00 1.600000e+01 -1.626392e+00
      vertex   6.255732e+00 1.500000e+01 -1.624909e+00
      vertex   6.191796e+00 1.500000e+01 -1.626890e+00
    endloop
  endfacet
  facet normal 1.343734e-02 -5.315407e-03 -9.998956e-01
    outer loop
      vertex   6.624463e+00 1.600000e+01 -1.626392e+00
      vertex   6.191796e+00 1.500000e+01 -1.626890e+00
      vertex   6.561373e+00 1.600000e+01 -1.627240e+00
    endloop
  endfacet
  facet normal 3.601710e-03 -1.680417e-03 -9.999921e-01
    outer loop
      vertex   6.561373e+00 1.600000e+01 -1.627240e+00
      vertex   6.191796e+00 1.500000e+01 -1.626890e+00
      vertex   6.127825e+00 1.500000e+01 -1.627121e+00
    endloop
  endfacet
  facet normal -1.356834e-02 5.763641e-03 -9.998913e-01
    outer loop
      vertex   6.561373e+00 1.600000e+01 -1.627240e+00
      vertex   6.127825e+00 1.500000e+01 -1.627121e+00
      vertex   6.498283e+00 1.600000e+01 -1.626383e+00
    endloop
  endfacet
  facet normal -2.377708e-02 9.545396e-03 -9.996717e-01
    outer loop
      vertex   6.498283e+00 1.600000e+01 -1.626383e+00
      vertex   6.127825e+00 1.500000e+01 -1.627121e+00
      vertex   6.063874e+00 1.500000e+01 -1.625600e+00
    endloop
  endfacet
  facet normal -4.056234e-02 1.683757e-02 -9.990351e-01
    outer loop
      vertex   6.498283e+00 1.600000e+01 -1.626383e+00
      vertex   6.063874e+00 1.500000e+01 -1.625600e+00
      vertex   6.435248e+00 1.600000e+01 -1.623824e+00
    endloop
  endfacet
  facet normal -5.113517e-02 2.076305e-02 -9.984759e-01
    outer loop
      vertex   6.435248e+00 1.600000e+01 -1.623824e+00
      vertex   6.063874e+00 1.500000e+01 -1.625600e+00
      vertex   6.000000e+00 1.500000e+01 -1.622328e+00
    endloop
  endfacet
  facet normal -6.752166e-02 2.789695e-02 -9.973277e-01
    outer loop
      vertex   6.435248e+00 1.600000e+01 -1.623824e+00
      vertex   6.000000e+00 1.500000e+01 -1.622328e+00
      vertex   6.372320e+00 1.600000e+01 -1.619564e+00
    endloop
  endfacet
  facet normal -7.621478e-02 3.113157e-02 -9.966053e-01
    outer loop
      vertex   6.372320e+00 1.600000e+01 -1.619564e+00
      vertex   6.000000e+00 1.500000e+01 -1.622328e+00
      vertex   6.000000e+00 1.512652e+01 -1.618376e+00
    endloop
  endfacet
  facet normal -9.442346e-02 3.889545e-02 -9.947720e-01
    outer loop
      vertex   6.372320e+00 1.600000e+01 -1.619564e+00
      vertex   6.000000e+00 1.512652e+01 -1.618376e+00
      vertex   6.309553e+00 1.600000e+01 -1.613606e+00
    endloop
  endfacet
  facet normal -9.819731e-02 4.023058e-02 -9.943535e-01
    outer loop
      vertex   6.309553e+00 1.600000e+01 -1.613606e+00
      vertex   6.000000e+00 1.512652e+01 -1.618376e+00
      vertex   6.000000e+00 1.525275e+01 -1.613269e+00
    endloop
  endfacet
  facet normal -1.201047e-01 4.930705e-02 -9.915360e-01
    outer loop
      vertex   6.309553e+00 1.600000e+01 -1.613606e+00
      vertex   6.000000e+00 1.525275e+01 -1.613269e+00
      vertex   6.000000e+00 1.537861e+01 -1.607010e+00
    endloop
  endfacet
  facet normal -1.212448e-01 4.987678e-02 -9.913688e-01
    outer loop
      vertex   6.309553e+00 1.600000e+01 -1.613606e+00
      vertex   6.000000e+00 1.537861e+01 -1.607010e+00
      vertex   6.247000e+00 1.600000e+01 -1.605956e+00
    endloop
  endfacet
  facet normal -1.425767e-01 5.835058e-02 -9.880623e-01
    outer loop
      vertex   6.247000e+00 1.600000e+01 -1.605956e+00
      vertex   6.000000e+00 1.537861e+01 -1.607010e+00
      vertex   6.000000e+00 1.550405e+01 -1.599602e+00
    endloop
  endfacet
  facet normal -1.479607e-01 6.104425e-02 -9.871075e-01
    outer loop
      vertex   6.247000e+00 1.600000e+01 -1.605956e+00
      vertex   6.000000e+00 1.550405e+01 -1.599602e+00
      vertex   6.184716e+00 1.600000e+01 -1.596620e+00
    endloop
  endfacet
  facet normal -1.649628e-01 6.735794e-02 -9.839970e-01
    outer loop
      vertex   6.184716e+00 1.600000e+01 -1.596620e+00
      vertex   6.000000e+00 1.550405e+01 -1.599602e+00
      vertex   6.000000e+00 1.562898e+01 -1.591051e+00
    endloop
  endfacet
  facet normal -1.745490e-01 7.216046e-02 -9.820008e-01
    outer loop
      vertex   6.184716e+00 1.600000e+01 -1.596620e+00
      vertex   6.000000e+00 1.562898e+01 -1.591051e+00
      vertex   6.122753e+00 1.600000e+01 -1.585606e+00
    endloop
  endfacet
  facet normal -1.872494e-01 7.632339e-02 -9.793428e-01
    outer loop
      vertex   6.122753e+00 1.600000e+01 -1.585606e+00
      vertex   6.000000e+00 1.562898e+01 -1.591051e+00
      vertex   6.000000e+00 1.575333e+01 -1.581360e+00
    endloop
  endfacet
  facet normal -2.009866e-01 8.321608e-02 -9.760530e-01
    outer loop
      vertex   6.122753e+00 1.600000e+01 -1.585606e+00
      vertex   6.000000e+00 1.575333e+01 -1.581360e+00
      vertex   6.061163e+00 1.600000e+01 -1.572923e+00
    endloop
  endfacet
  facet normal -2.094230e-01 8.524120e-02 -9.741026e-01
    outer loop
      vertex   6.061163e+00 1.600000e+01 -1.572923e+00
      vertex   6.000000e+00 1.575333e+01 -1.581360e+00
      vertex   6.000000e+00 1.587702e+01 -1.570535e+00
    endloop
  endfacet
  facet normal -2.272507e-01 9.420187e-02 -9.692694e-01
    outer loop
      vertex   6.061163e+00 1.600000e+01 -1.572923e+00
      vertex   6.000000e+00 1.587702e+01 -1.570535e+00
      vertex   6.000000e+00 1.600000e+01 -1.558583e+00
    endloop
  endfacet
  facet normal -1.000000e+00 -0.000000e+00 0.000000e+00
    outer loop
      vertex   6.000000e+00 1.600000e+01 -1.558583e+00
      vertex   6.000000e+00 1.587702e+01 -1.570535e+00
      vertex   6.000000e+00 1.600000e+01 -1.000000e+00
    endloop
  endfacet
  facet normal -1.000000e+00 0.000000e+00 0.000000e+00
    outer loop
      vertex   6.000000e+00 1.600000e+01 -1.000000e+00
      vertex   6.000000e+00 1.587702e+01 -1.570535e+00
      vertex   6.000000e+00 1.575333e+01 -1.581360e+00
    endloop
  endfacet
  facet normal -1.000000e+00 0.000000e+00 0.000000e+00
    outer loop
      vertex   6.000000e+00 1.600000e+01 -1.000000e+00
      vertex   6.000000e+00 1.575333e+01 -1.581360e+00
      vertex   6.000000e+00 1.562898e+01 -1.591051e+00
    endloop
  endfacet
  facet normal -1.000000e+00 -0.000000e+00 0.000000e+00
    outer loop
      vertex   6.000000e+00 1.600000e+01 -1.000000e+00
      vertex   6.000000e+00 1.562898e+01 -1.591051e+00
      vertex   6.000000e+00 1.500000e+01 -1.000000e+00
    endloop
  endfacet
  facet normal -1.000000e+00 0.000000e+00 0.000000e+00
    outer loop
      vertex   6.000000e+00 1.500000e+01 -1.000000e+00
      vertex   6.000000e+00 1.562898e+01 -1.591051e+00
      vertex   6.000000e+00 1.550405e+01 -1.599602e+00
    endloop
  endfacet
  facet normal -1.000000e+00 0.000000e+00 0.000000e+00
    outer loop
      vertex   6.000000e+00 1.500000e+01 -1.000000e+00
      vertex   6.000000e+00 1.550405e+01 -1.599602e+00
      vertex   6.000000e+00 1.537861e+01 -1.607010e+00
    endloop
  endfacet
  facet normal -1.000000e+00 -0.000000e+00 0.000000e+00
    outer loop
      vertex   6.000000e+00 1.537861e+01 -1.607010e+00
      vertex   6.000000e+00 1.525275e+01 -1.613269e+00
      vertex   6.000000e+00 1.500000e+01 -1.000000e+00
    endloop
  endfacet
  facet normal -1.000000e+00 0.000000e+00 0.000000e+00
    outer loop
      vertex   6.000000e+00 1.500000e+01 -1.000000e+00
      vertex   6.000000e+00 1.525275e+01 -1.613269e+00
      vertex   6.000000e+00 1.512652e+01 -1.618376e+00
    endloop
  endfacet
  facet normal -1.000000e+00 0.000000e+00 0.000000e+00
    outer loop
      vertex   6.000000e+00 1.500000e+01 -1.000000e+00
      vertex   6.000000e+00 1.512652e+01 -1.618376e+00
      vertex   6.000000e+00 1.500000e+01 -1.622328e+00
    endloop
  endfacet
  facet normal -2.795648e-14 -1.000000e+00 -2.854372e-15
    outer loop
      vertex   6.000000e+00 1.500000e+01 -1.622328e+00
      vertex   6.063874e+00 1.500000e+01 -1.625600e+00
      vertex   6.000000e+00 1.500000e+01 -1.000000e+00
    endloop
  endfacet
  facet normal 0.000000e+00 -1.000000e+00 0.000000e+00
    outer loop
      vertex   6.000000e+00 1.500000e+01 -1.000000e+00
      vertex   6.063874e+00 1.500000e+01 -1.625600e+00
      vertex   6.127825e+00 1.500000e+01 -1.627121e+00
    endloop
  endfacet
  facet normal 0.000000e+00 -1.000000e+00 0.000000e+00
    outer loop
      vertex   6.000000e+00 1.500000e+01 -1.000000e+00
      vertex   6.127825e+00 1.500000e+01 -1.627121e+00
      vertex   6.191796e+00 1.500000e+01 -1.626890e+00
    endloop
  endfacet
  facet normal 0.000000e+00 -1.000000e+00 0.000000e+00
    outer loop
      vertex   6.191796e+00 1.500000e+01 -1.626890e+00
      vertex   6.255732e+00 1.500000e+01 -1.624909e+00
      vertex   6.000000e+00 1.500000e+01 -1.000000e+00
    endloop
  endfacet
  facet normal 0.000000e+00 -1.000000e+00 0.000000e+00
    outer loop
      vertex   6.000000e+00 1.500000e+01 -1.000000e+00
      vertex   6.255732e+00 1.500000e+01 -1.624909e+00
      vertex   6.319577e+00 1.500000e+01 -1.621177e+00
    endloop
  endfacet
  facet normal 0.000000e+00 -1.000000e+00 0.000000e+00
    outer loop
      vertex   6.000000e+00 1.500000e+01 -1.000000e+00
      vertex   6.319577e+00 1.500000e+01 -1.621177e+00
      vertex   6.383274e+00 1.500000e+01 -1.615700e+00
    endloop
  endfacet
  facet normal 0.000000e+00 -1.000000e+00 0.000000e+00
    outer loop
      vertex   6.383274e+00 1.500000e+01 -1.615700e+00
      vertex   6.446768e+00 1.500000e+01 -1.608481e+00
      vertex   6.000000e+00 1.500000e+01 -1.000000e+00
    endloop
  endfacet
  facet normal 0.000000e+00 -1.000000e+00 0.000000e+00
    outer loop
      vertex   6.000000e+00 1.500000e+01 -1.000000e+00
      vertex   6.446768e+00 1.500000e+01 -1.608481e+00
      vertex   6.510004e+00 1.500000e+01 -1.599527e+00
    endloop
  endfacet
  facet normal 0.000000e+00 -1.000000e+00 0.000000e+00
    outer loop
      vertex   6.000000e+00 1.500000e+01 -1.000000e+00
      vertex   6.510004e+00 1.500000e+01 -1.599527e+00
      vertex   6.572925e+00 1.500000e+01 -1.588846e+00
    endloop
  endfacet
  facet normal 0.000000e+00 -1.000000e+00 0.000000e+00
    outer loop
      vertex   6.572925e+00 1.500000e+01 -1.588846e+00
      vertex   6.635478e+00 1.500000e+01 -1.576446e+00
      vertex   6.000000e+00 1.500000e+01 -1.000000e+00
    endloop
  endfacet
  facet normal 0.000000e+00 -1.000000e+00 0.000000e+00
    outer loop
      vertex   6.000000e+00 1.500000e+01 -1.000000e+00
      vertex   6.635478e+00 1.500000e+01 -1.576446e+00
      vertex   6.697606e+00 1.500000e+01 -1.562340e+00
    endloop
  endfacet
  facet normal 0.000000e+00 -1.000000e+00 0.000000e+00
    outer loop
      vertex   6.000000e+00 1.500000e+01 -1.000000e+00
      vertex   6.697606e+00 1.500000e+01 -1.562340e+00
      vertex   7.000000e+00 1.500000e+01 -1.000000e+00
    endloop
  endfacet
  facet normal 0.000000e+00 -1.000000e+00 0.000000e+00
    outer loop
      vertex   7.000000e+00 1.500000e+01 -1.000000e+00
      vertex   6.697606e+00 1.500000e+01 -1.562340e+00
      vertex   6.759256e+00 1.500000e+01 -1.546539e+00
    endloop
  endfacet
  facet normal 0.000000e+00 -1.000000e+00 0.000000e+00
    outer loop
      vertex   7.000000e+00 1.500000e+01 -1.000000e+00
      vertex   6.759256e+00 1.500000e+01 -1.546539e+00
      vertex   6.820374e+00 1.500000e+01 -1.529057e+00
    endloop
  endfacet
  facet normal 0.000000e+00 -1.000000e+00 0.000000e+00
    outer loop
      vertex   6.820374e+00 1.500000e+01 -1.529057e+00
      vertex   6.880906e+00 1.500000e+01 -1.509909e+00
      vertex   7.000000e+00 1.500000e+01 -1.000000e+00
    endloop
  endfacet
  facet normal 0.000000e+00 -1.000000e+00 0.000000e+00
    outer loop
      vertex   7.000000e+00 1.500000e+01 -1.000000e+00
      vertex   6.880906e+00 1.500000e+01 -1.509909e+00
      vertex   6.940798e+00 1.500000e+01 -1.489112e+00
    endloop
  endfacet
  facet normal 0.000000e+00 -1.000000e+00 -0.000000e+00
    outer loop
      vertex   7.000000e+00 1.500000e+01 -1.000000e+00
      vertex   6.940798e+00 1.500000e+01 -1.489112e+00
      vertex   7.000000e+00 1.500000e+01 -1.466685e+00
    endloop
  endfacet
  facet normal 0.000000e+00 0.000000e+00 1.000000e+00
    outer loop
      vertex   7.000000e+00 1.600000e+01 -1.000000e+00
      vertex   6.000000e+00 1.600000e+01 -1.000000e+00
      vertex   7.000000e+00 1.500000e+01 -1.000000e+00
    endloop
  endfacet
  facet normal 0.000000e+00 0.000000e+00 1.000000e+00
    outer loop
      vertex   7.000000e+00 1.500000e+01 -1.000000e+00
      vertex   6.000000e+00 1.600000e+01 -1.000000e+00
      vertex   6.000000e+00 1.500000e+01 -1.000000e+00
    endloop
  endfacet
  facet normal 0.000000e+00 1.000000e+00 -0.000000e+00
    outer loop
      vertex   7.000000e+00 1.600000e+01 -1.585663e+00
      vertex   6.938035e+00 1.600000e+01 -1.596669e+00
      vertex   7.000000e+00 1.600000e+01 -1.000000e+00
    endloop
  endfacet
  facet normal 0.000000e+00 1.000000e+00 0.000000e+00
    outer loop
      vertex   7.000000e+00 1.600000e+01 -1.000000e+00
      vertex   6.938035e+00 1.600000e+01 -1.596669e+00
      vertex   6.875749e+00 1.600000e+01 -1.605997e+00
    endloop
  endfacet
  facet normal 0.000000e+00 1.000000e+00 0.000000e+00
    outer loop
      vertex   7.000000e+00 1.600000e+01 -1.000000e+00
      vertex   6.875749e+00 1.600000e+01 -1.605997e+00
      vertex   6.813196e+00 1.600000e+01 -1.613639e+00
    endloop
  endfacet
  facet normal 0.000000e+00 1.000000e+00 -0.000000e+00
    outer loop
      vertex   6.813196e+00 1.600000e+01 -1.613639e+00
      vertex   6.750428e+00 1.600000e+01 -1.619588e+00
      vertex   7.000000e+00 1.600000e+01 -1.000000e+00
    endloop
  endfacet
  facet normal 0.000000e+00 1.000000e+00 0.000000e+00
    outer loop
      vertex   7.000000e+00 1.600000e+01 -1.000000e+00
      vertex   6.750428e+00 1.600000e+01 -1.619588e+00
      vertex   6.687499e+00 1.600000e+01 -1.623841e+00
    endloop
  endfacet
  facet normal 0.000000e+00 1.000000e+00 0.000000e+00
    outer loop
      vertex   7.000000e+00 1.600000e+01 -1.000000e+00
      vertex   6.687499e+00 1.600000e+01 -1.623841e+00
      vertex   6.624463e+00 1.600000e+01 -1.626392e+00
    endloop
  endfacet
  facet normal 0.000000e+00 1.000000e+00 -0.000000e+00
    outer loop
      vertex   6.624463e+00 1.600000e+01 -1.626392e+00
      vertex   6.561373e+00 1.600000e+01 -1.627240e+00
      vertex   7.000000e+00 1.600000e+01 -1.000000e+00
    endloop
  endfacet
  facet normal 0.000000e+00 1.000000e+00 0.000000e+00
    outer loop
      vertex   7.000000e+00 1.600000e+01 -1.000000e+00
      vertex   6.561373e+00 1.600000e+01 -1.627240e+00
      vertex   6.498283e+00 1.600000e+01 -1.626383e+00
    endloop
  endfacet
  facet normal 0.000000e+00 1.000000e+00 0.000000e+00
    outer loop
      vertex   7.000000e+00 1.600000e+01 -1.000000e+00
      vertex   6.498283e+00 1.600000e+01 -1.626383e+00
      vertex   6.435248e+00 1.600000e+01 -1.623824e+00
    endloop
  endfacet
  facet normal 0.000000e+00 1.000000e+00 0.000000e+00
    outer loop
      vertex   7.000000e+00 1.600000e+01 -1.000000e+00
      vertex   6.435248e+00 1.600000e+01 -1.623824e+00
      vertex   6.000000e+00 1.600000e+01 -1.000000e+00
    endloop
  endfacet
  facet normal 0.000000e+00 1.000000e+00 0.000000e+00
    outer loop
      vertex   6.000000e+00 1.600000e+01 -1.000000e+00
      vertex   6.435248e+00 1.600000e+01 -1.623824e+00
      vertex   6.372320e+00 1.600000e+01 -1.619564e+00
    endloop
  endfacet
  facet normal 0.000000e+00 1.000000e+00 0.000000e+00
    outer loop
      vertex   6.000000e+00 1.600000e+01 -1.000000e+00
      vertex   6.372320e+00 1.600000e+01 -1.619564e+00
      vertex   6.309553e+00 1.600000e+01 -1.613606e+00
    endloop
  endfacet
  facet normal 0.000000e+00 1.000000e+00 0.000000e+00
    outer loop
      vertex   6.309553e+00 1.600000e+01 -1.613606e+00
      vertex   6.247000e+00 1.600000e+01 -1.605956e+00
      vertex   6.000000e+00 1.600000e+01 -1.000000e+00
    endloop
  endfacet
  facet normal 0.000000e+00 1.000000e+00 0.000000e+00
    outer loop
      vertex   6.000000e+00 1.600000e+01 -1.000000e+00
      vertex   6.247000e+00 1.600000e+01 -1.605956e+00
      vertex   6.184716e+00 1.600000e+01 -1.596620e+00
    endloop
  endfacet
  facet normal 0.000000e+00 1.000000e+00 0.000000e+00
    outer loop
      vertex   6.000000e+00 1.600000e+01 -1.000000e+00
      vertex   6.184716e+00 1.600000e+01 -1.596620e+00
      vertex   6.122753e+00 1.600000e+01 -1.585606e+00
    endloop
  endfacet
  facet normal 0.000000e+00 1.000000e+00 0.000000e+00
    outer loop
      vertex   6.122753e+00 1.600000e+01 -1.585606e+00
      vertex   6.061163e+00 1.600000e+01 -1.572923e+00
      vertex   6.000000e+00 1.600000e+01 -1.000000e+00
    endloop
  endfacet
  facet normal 0.000000e+00 1.000000e+00 0.000000e+00
    outer loop
      vertex   6.000000e+00 1.600000e+01 -1.000000e+00
      vertex   6.061163e+00 1.600000e+01 -1.572923e+00
      vertex   6.000000e+00 1.600000e+01 -1.558583e+00
    endloop
  endfacet
  facet normal 1.000000e+00 7.619097e-15 1.903163e-15
    outer loop
      vertex   7.000000e+00 1.500000e+01 -1.466685e+00
      vertex   7.000000e+00 1.512131e+01 -1.485660e+00
      vertex   7.000000e+00 1.500000e+01 -1.000000e+00
    endloop
  endfacet
  facet normal 1.000000e+00 0.000000e+00 0.000000e+00
    outer loop
      vertex   7.000000e+00 1.500000e+01 -1.000000e+00
      vertex   7.000000e+00 1.512131e+01 -1.485660e+00
      vertex   7.000000e+00 1.524383e+01 -1.503482e+00
    endloop
  endfacet
  facet normal 1.000000e+00 0.000000e+00 0.000000e+00
    outer loop
      vertex   7.000000e+00 1.500000e+01 -1.000000e+00
      vertex   7.000000e+00 1.524383e+01 -1.503482e+00
      vertex   7.000000e+00 1.536748e+01 -1.520142e+00
    endloop
  endfacet
  facet normal 1.000000e+00 -0.000000e+00 0.000000e+00
    outer loop
      vertex   7.000000e+00 1.500000e+01 -1.000000e+00
      vertex   7.000000e+00 1.536748e+01 -1.520142e+00
      vertex   7.000000e+00 1.600000e+01 -1.000000e+00
    endloop
  endfacet
  facet normal 1.000000e+00 0.000000e+00 0.000000e+00
    outer loop
      vertex   7.000000e+00 1.600000e+01 -1.000000e+00
      vertex   7.000000e+00 1.536748e+01 -1.520142e+00
      vertex   7.000000e+00 1.549219e+01 -1.535629e+00
    endloop
  endfacet
  facet normal 1.000000e+00 0.000000e+00 0.000000e+00
    outer loop
      vertex   7.000000e+00 1.600000e+01 -1.000000e+00
      vertex   7.000000e+00 1.549219e+01 -1.535629e+00
      vertex   7.000000e+00 1.561787e+01 -1.549933e+00
    endloop
  endfacet
  facet normal 1.000000e+00 -0.000000e+00 0.000000e+00
    outer loop
      vertex   7.000000e+00 1.561787e+01 -1.549933e+00
      vertex   7.000000e+00 1.574445e+01 -1.563045e+00
      vertex   7.000000e+00 1.600000e+01 -1.000000e+00
    endloop
  endfacet
  facet normal 1.000000e+00 0.000000e+00 0.000000e+00
    outer loop
      vertex   7.000000e+00 1.600000e+01 -1.000000e+00
      vertex   7.000000e+00 1.574445e+01 -1.563045e+00
      vertex   7.000000e+00 1.587186e+01 -1.574958e+00
    endloop
  endfacet
  facet normal 1.000000e+00 0.000000e+00 0.000000e+00
    outer loop
      vertex   7.000000e+00 1.600000e+01 -1.000000e+00
      vertex   7.000000e+00 1.587186e+01 -1.574958e+00
      vertex   7.000000e+00 1.600000e+01 -1.585663e+00
    endloop
  endfacet
endsolid
