solid ASCII
  facet normal -5.333297e-01 2.187345e-01 8.171381e-01
    outer loop
      vertex   1.100000e+01 2.988649e+01 2.000000e+00
      vertex   1.063642e+01 2.900000e+01 2.000000e+00
      vertex   1.100000e+01 2.983414e+01 2.014013e+00
    endloop
  endfacet
  facet normal -5.297661e-01 2.171351e-01 8.198782e-01
    outer loop
      vertex   1.100000e+01 2.983414e+01 2.014013e+00
      vertex   1.063642e+01 2.900000e+01 2.000000e+00
      vertex   1.067472e+01 2.900000e+01 2.024744e+00
    endloop
  endfacet
  facet normal -5.240445e-01 2.149585e-01 8.241179e-01
    outer loop
      vertex   1.100000e+01 2.983414e+01 2.014013e+00
      vertex   1.067472e+01 2.900000e+01 2.024744e+00
      vertex   1.100000e+01 2.978135e+01 2.027783e+00
    endloop
  endfacet
  facet normal -5.148863e-01 2.111197e-01 8.308553e-01
    outer loop
      vertex   1.100000e+01 2.978135e+01 2.027783e+00
      vertex   1.067472e+01 2.900000e+01 2.024744e+00
      vertex   1.100000e+01 2.972812e+01 2.041309e+00
    endloop
  endfacet
  facet normal -5.132521e-01 2.103623e-01 8.320577e-01
    outer loop
      vertex   1.100000e+01 2.972812e+01 2.041309e+00
      vertex   1.067472e+01 2.900000e+01 2.024744e+00
      vertex   1.071358e+01 2.900000e+01 2.048717e+00
    endloop
  endfacet
  facet normal -5.053190e-01 2.072986e-01 8.376634e-01
    outer loop
      vertex   1.100000e+01 2.972812e+01 2.041309e+00
      vertex   1.071358e+01 2.900000e+01 2.048717e+00
      vertex   1.100000e+01 2.967446e+01 2.054588e+00
    endloop
  endfacet
  facet normal -4.964977e-01 2.034988e-01 8.438473e-01
    outer loop
      vertex   1.100000e+01 2.967446e+01 2.054588e+00
      vertex   1.071358e+01 2.900000e+01 2.048717e+00
      vertex   1.075300e+01 2.900000e+01 2.071907e+00
    endloop
  endfacet
  facet normal -4.961577e-01 2.033801e-01 8.440759e-01
    outer loop
      vertex   1.100000e+01 2.967446e+01 2.054588e+00
      vertex   1.075300e+01 2.900000e+01 2.071907e+00
      vertex   1.100000e+01 2.962038e+01 2.067619e+00
    endloop
  endfacet
  facet normal -4.863261e-01 1.995114e-01 8.506951e-01
    outer loop
      vertex   1.100000e+01 2.962038e+01 2.067619e+00
      vertex   1.075300e+01 2.900000e+01 2.071907e+00
      vertex   1.100000e+01 2.956588e+01 2.080399e+00
    endloop
  endfacet
  facet normal -4.795184e-01 1.964714e-01 8.552550e-01
    outer loop
      vertex   1.100000e+01 2.956588e+01 2.080399e+00
      vertex   1.075300e+01 2.900000e+01 2.071907e+00
      vertex   1.079294e+01 2.900000e+01 2.094304e+00
    endloop
  endfacet
  facet normal -4.768940e-01 1.955523e-01 8.569314e-01
    outer loop
      vertex   1.100000e+01 2.956588e+01 2.080399e+00
      vertex   1.079294e+01 2.900000e+01 2.094304e+00
      vertex   1.100000e+01 2.951098e+01 2.092928e+00
    endloop
  endfacet
  facet normal -4.670988e-01 1.916001e-01 8.631965e-01
    outer loop
      vertex   1.100000e+01 2.951098e+01 2.092928e+00
      vertex   1.079294e+01 2.900000e+01 2.094304e+00
      vertex   1.100000e+01 2.945568e+01 2.105202e+00
    endloop
  endfacet
  facet normal -4.623143e-01 1.893527e-01 8.662627e-01
    outer loop
      vertex   1.100000e+01 2.945568e+01 2.105202e+00
      vertex   1.079294e+01 2.900000e+01 2.094304e+00
      vertex   1.083340e+01 2.900000e+01 2.115897e+00
    endloop
  endfacet
  facet normal -4.573435e-01 1.876062e-01 8.692760e-01
    outer loop
      vertex   1.100000e+01 2.945568e+01 2.105202e+00
      vertex   1.083340e+01 2.900000e+01 2.115897e+00
      vertex   1.100000e+01 2.940000e+01 2.117220e+00
    endloop
  endfacet
  facet normal -4.476917e-01 1.835668e-01 8.751431e-01
    outer loop
      vertex   1.100000e+01 2.940000e+01 2.117220e+00
      vertex   1.083340e+01 2.900000e+01 2.115897e+00
      vertex   1.100000e+01 2.934393e+01 2.128980e+00
    endloop
  endfacet
  facet normal -4.448935e-01 1.821459e-01 8.768652e-01
    outer loop
      vertex   1.100000e+01 2.934393e+01 2.128980e+00
      vertex   1.083340e+01 2.900000e+01 2.115897e+00
      vertex   1.087436e+01 2.900000e+01 2.136676e+00
    endloop
  endfacet
  facet normal -4.375181e-01 1.795464e-01 8.811022e-01
    outer loop
      vertex   1.100000e+01 2.934393e+01 2.128980e+00
      vertex   1.087436e+01 2.900000e+01 2.136676e+00
      vertex   1.100000e+01 2.928749e+01 2.140481e+00
    endloop
  endfacet
  facet normal -4.282167e-01 1.754102e-01 8.864884e-01
    outer loop
      vertex   1.100000e+01 2.928749e+01 2.140481e+00
      vertex   1.087436e+01 2.900000e+01 2.136676e+00
      vertex   1.100000e+01 2.923069e+01 2.151721e+00
    endloop
  endfacet
  facet normal -4.272642e-01 1.748543e-01 8.870576e-01
    outer loop
      vertex   1.100000e+01 2.923069e+01 2.151721e+00
      vertex   1.087436e+01 2.900000e+01 2.136676e+00
      vertex   1.091579e+01 2.900000e+01 2.156632e+00
    endloop
  endfacet
  facet normal -4.174296e-01 1.713780e-01 8.924024e-01
    outer loop
      vertex   1.100000e+01 2.923069e+01 2.151721e+00
      vertex   1.091579e+01 2.900000e+01 2.156632e+00
      vertex   1.100000e+01 2.917353e+01 2.162698e+00
    endloop
  endfacet
  facet normal -4.094442e-01 1.673472e-01 8.968558e-01
    outer loop
      vertex   1.100000e+01 2.917353e+01 2.162698e+00
      vertex   1.091579e+01 2.900000e+01 2.156632e+00
      vertex   1.095768e+01 2.900000e+01 2.175755e+00
    endloop
  endfacet
  facet normal -4.085129e-01 1.671547e-01 8.973163e-01
    outer loop
      vertex   1.100000e+01 2.917353e+01 2.162698e+00
      vertex   1.095768e+01 2.900000e+01 2.175755e+00
      vertex   1.100000e+01 2.911602e+01 2.173411e+00
    endloop
  endfacet
  facet normal -3.970902e-01 1.631060e-01 9.031699e-01
    outer loop
      vertex   1.100000e+01 2.911602e+01 2.173411e+00
      vertex   1.095768e+01 2.900000e+01 2.175755e+00
      vertex   1.100000e+01 2.905818e+01 2.183857e+00
    endloop
  endfacet
  facet normal -3.915054e-01 1.585924e-01 9.064061e-01
    outer loop
      vertex   1.100000e+01 2.905818e+01 2.183857e+00
      vertex   1.095768e+01 2.900000e+01 2.175755e+00
      vertex   1.100000e+01 2.900000e+01 2.194036e+00
    endloop
  endfacet
  facet normal -1.520652e-13 -1.000000e+00 -3.661911e-14
    outer loop
      vertex   1.100000e+01 2.900000e+01 2.194036e+00
      vertex   1.095768e+01 2.900000e+01 2.175755e+00
      vertex   1.100000e+01 2.900000e+01 2.000000e+00
    endloop
  endfacet
  facet normal 0.000000e+00 -1.000000e+00 0.000000e+00
    outer loop
      vertex   1.100000e+01 2.900000e+01 2.000000e+00
      vertex   1.095768e+01 2.900000e+01 2.175755e+00
      vertex   1.091579e+01 2.900000e+01 2.156632e+00
    endloop
  endfacet
  facet normal 0.000000e+00 -1.000000e+00 0.000000e+00
    outer loop
      vertex   1.100000e+01 2.900000e+01 2.000000e+00
      vertex   1.091579e+01 2.900000e+01 2.156632e+00
      vertex   1.087436e+01 2.900000e+01 2.136676e+00
    endloop
  endfacet
  facet normal 0.000000e+00 -1.000000e+00 -0.000000e+00
    outer loop
      vertex   1.087436e+01 2.900000e+01 2.136676e+00
      vertex   1.083340e+01 2.900000e+01 2.115897e+00
      vertex   1.100000e+01 2.900000e+01 2.000000e+00
    endloop
  endfacet
  facet normal 0.000000e+00 -1.000000e+00 0.000000e+00
    outer loop
      vertex   1.100000e+01 2.900000e+01 2.000000e+00
      vertex   1.083340e+01 2.900000e+01 2.115897e+00
      vertex   1.079294e+01 2.900000e+01 2.094304e+00
    endloop
  endfacet
  facet normal 0.000000e+00 -1.000000e+00 0.000000e+00
    outer loop
      vertex   1.100000e+01 2.900000e+01 2.000000e+00
      vertex   1.079294e+01 2.900000e+01 2.094304e+00
      vertex   1.075300e+01 2.900000e+01 2.071907e+00
    endloop
  endfacet
  facet normal 0.000000e+00 -1.000000e+00 -0.000000e+00
    outer loop
      vertex   1.075300e+01 2.900000e+01 2.071907e+00
      vertex   1.071358e+01 2.900000e+01 2.048717e+00
      vertex   1.100000e+01 2.900000e+01 2.000000e+00
    endloop
  endfacet
  facet normal 0.000000e+00 -1.000000e+00 0.000000e+00
    outer loop
      vertex   1.100000e+01 2.900000e+01 2.000000e+00
      vertex   1.071358e+01 2.900000e+01 2.048717e+00
      vertex   1.067472e+01 2.900000e+01 2.024744e+00
    endloop
  endfacet
  facet normal 0.000000e+00 -1.000000e+00 0.000000e+00
    outer loop
      vertex   1.100000e+01 2.900000e+01 2.000000e+00
      vertex   1.067472e+01 2.900000e+01 2.024744e+00
      vertex   1.063642e+01 2.900000e+01 2.000000e+00
    endloop
  endfacet
  facet normal 0.000000e+00 0.000000e+00 -1.000000e+00
    outer loop
      vertex   1.063642e+01 2.900000e+01 2.000000e+00
      vertex   1.100000e+01 2.988649e+01 2.000000e+00
      vertex   1.100000e+01 2.900000e+01 2.000000e+00
    endloop
  endfacet
  facet normal 1.000000e+00 0.000000e+00 0.000000e+00
    outer loop
      vertex   1.100000e+01 2.988649e+01 2.000000e+00
      vertex   1.100000e+01 2.983414e+01 2.014013e+00
      vertex   1.100000e+01 2.900000e+01 2.000000e+00
    endloop
  endfacet
  facet normal 1.000000e+00 0.000000e+00 0.000000e+00
    outer loop
      vertex   1.100000e+01 2.900000e+01 2.000000e+00
      vertex   1.100000e+01 2.983414e+01 2.014013e+00
      vertex   1.100000e+01 2.978135e+01 2.027783e+00
    endloop
  endfacet
  facet normal 1.000000e+00 0.000000e+00 0.000000e+00
    outer loop
      vertex   1.100000e+01 2.900000e+01 2.000000e+00
      vertex   1.100000e+01 2.978135e+01 2.027783e+00
      vertex   1.100000e+01 2.972812e+01 2.041309e+00
    endloop
  endfacet
  facet normal 1.000000e+00 0.000000e+00 0.000000e+00
    outer loop
      vertex   1.100000e+01 2.972812e+01 2.041309e+00
      vertex   1.100000e+01 2.967446e+01 2.054588e+00
      vertex   1.100000e+01 2.900000e+01 2.000000e+00
    endloop
  endfacet
  facet normal 1.000000e+00 0.000000e+00 0.000000e+00
    outer loop
      vertex   1.100000e+01 2.900000e+01 2.000000e+00
      vertex   1.100000e+01 2.967446e+01 2.054588e+00
      vertex   1.100000e+01 2.962038e+01 2.067619e+00
    endloop
  endfacet
  facet normal 1.000000e+00 0.000000e+00 0.000000e+00
    outer loop
      vertex   1.100000e+01 2.900000e+01 2.000000e+00
      vertex   1.100000e+01 2.962038e+01 2.067619e+00
      vertex   1.100000e+01 2.956588e+01 2.080399e+00
    endloop
  endfacet
  facet normal 1.000000e+00 0.000000e+00 0.000000e+00
    outer loop
      vertex   1.100000e+01 2.956588e+01 2.080399e+00
      vertex   1.100000e+01 2.951098e+01 2.092928e+00
      vertex   1.100000e+01 2.900000e+01 2.000000e+00
    endloop
  endfacet
  facet normal 1.000000e+00 0.000000e+00 0.000000e+00
    outer loop
      vertex   1.100000e+01 2.900000e+01 2.000000e+00
      vertex   1.100000e+01 2.951098e+01 2.092928e+00
      vertex   1.100000e+01 2.945568e+01 2.105202e+00
    endloop
  endfacet
  facet normal 1.000000e+00 0.000000e+00 0.000000e+00
    outer loop
      vertex   1.100000e+01 2.900000e+01 2.000000e+00
      vertex   1.100000e+01 2.945568e+01 2.105202e+00
      vertex   1.100000e+01 2.940000e+01 2.117220e+00
    endloop
  endfacet
  facet normal 1.000000e+00 0.000000e+00 0.000000e+00
    outer loop
      vertex   1.100000e+01 2.940000e+01 2.117220e+00
      vertex   1.100000e+01 2.934393e+01 2.128980e+00
      vertex   1.100000e+01 2.900000e+01 2.000000e+00
    endloop
  endfacet
  facet normal 1.000000e+00 0.000000e+00 0.000000e+00
    outer loop
      vertex   1.100000e+01 2.900000e+01 2.000000e+00
      vertex   1.100000e+01 2.934393e+01 2.128980e+00
      vertex   1.100000e+01 2.928749e+01 2.140481e+00
    endloop
  endfacet
  facet normal 1.000000e+00 0.000000e+00 0.000000e+00
    outer loop
      vertex   1.100000e+01 2.900000e+01 2.000000e+00
      vertex   1.100000e+01 2.928749e+01 2.140481e+00
      vertex   1.100000e+01 2.923069e+01 2.151721e+00
    endloop
  endfacet
  facet normal 1.000000e+00 0.000000e+00 0.000000e+00
    outer loop
      vertex   1.100000e+01 2.923069e+01 2.151721e+00
      vertex   1.100000e+01 2.917353e+01 2.162698e+00
      vertex   1.100000e+01 2.900000e+01 2.000000e+00
    endloop
  endfacet
  facet normal 1.000000e+00 0.000000e+00 0.000000e+00
    outer loop
      vertex   1.100000e+01 2.900000e+01 2.000000e+00
      vertex   1.100000e+01 2.917353e+01 2.162698e+00
      vertex   1.100000e+01 2.911602e+01 2.173411e+00
    endloop
  endfacet
  facet normal 1.000000e+00 0.000000e+00 0.000000e+00
    outer loop
      vertex   1.100000e+01 2.900000e+01 2.000000e+00
      vertex   1.100000e+01 2.911602e+01 2.173411e+00
      vertex   1.100000e+01 2.905818e+01 2.183857e+00
    endloop
  endfacet
  facet normal 1.000000e+00 5.786461e-14 -1.830956e-14
    outer loop
      vertex   1.100000e+01 2.905818e+01 2.183857e+00
      vertex   1.100000e+01 2.900000e+01 2.194036e+00
      vertex   1.100000e+01 2.900000e+01 2.000000e+00
    endloop
  endfacet
endsolid
