solid ASCII
  facet normal 6.653651e-01 -2.728861e-01 -6.948543e-01
    outer loop
      vertex   1.018424e+01 2.100000e+01 -1.000000e+00
      vertex   1.014904e+01 2.100000e+01 -1.033705e+00
      vertex   1.059437e+01 2.200000e+01 -1.000000e+00
    endloop
  endfacet
  facet normal 6.643805e-01 -2.724096e-01 -6.959824e-01
    outer loop
      vertex   1.059437e+01 2.200000e+01 -1.000000e+00
      vertex   1.014904e+01 2.100000e+01 -1.033705e+00
      vertex   1.055444e+01 2.200000e+01 -1.038109e+00
    endloop
  endfacet
  facet normal 6.501070e-01 -2.666914e-01 -7.115031e-01
    outer loop
      vertex   1.055444e+01 2.200000e+01 -1.038109e+00
      vertex   1.014904e+01 2.100000e+01 -1.033705e+00
      vertex   1.011299e+01 2.100000e+01 -1.066639e+00
    endloop
  endfacet
  facet normal 6.470701e-01 -2.652567e-01 -7.148001e-01
    outer loop
      vertex   1.055444e+01 2.200000e+01 -1.038109e+00
      vertex   1.011299e+01 2.100000e+01 -1.066639e+00
      vertex   1.051344e+01 2.200000e+01 -1.075224e+00
    endloop
  endfacet
  facet normal 6.344960e-01 -2.603327e-01 -7.277649e-01
    outer loop
      vertex   1.051344e+01 2.200000e+01 -1.075224e+00
      vertex   1.011299e+01 2.100000e+01 -1.066639e+00
      vertex   1.007613e+01 2.100000e+01 -1.098781e+00
    endloop
  endfacet
  facet normal 6.292999e-01 -2.579344e-01 -7.331108e-01
    outer loop
      vertex   1.051344e+01 2.200000e+01 -1.075224e+00
      vertex   1.007613e+01 2.100000e+01 -1.098781e+00
      vertex   1.047139e+01 2.200000e+01 -1.111319e+00
    endloop
  endfacet
  facet normal 6.185404e-01 -2.538134e-01 -7.436307e-01
    outer loop
      vertex   1.047139e+01 2.200000e+01 -1.111319e+00
      vertex   1.007613e+01 2.100000e+01 -1.098781e+00
      vertex   1.003845e+01 2.100000e+01 -1.130116e+00
    endloop
  endfacet
  facet normal 6.110831e-01 -2.504481e-01 -7.509016e-01
    outer loop
      vertex   1.047139e+01 2.200000e+01 -1.111319e+00
      vertex   1.003845e+01 2.100000e+01 -1.130116e+00
      vertex   1.042832e+01 2.200000e+01 -1.146370e+00
    endloop
  endfacet
  facet normal 6.022483e-01 -2.471368e-01 -7.590918e-01
    outer loop
      vertex   1.042832e+01 2.200000e+01 -1.146370e+00
      vertex   1.003845e+01 2.100000e+01 -1.130116e+00
      vertex   1.000000e+01 2.100000e+01 -1.160625e+00
    endloop
  endfacet
  facet normal 5.924330e-01 -2.428034e-01 -7.681599e-01
    outer loop
      vertex   1.042832e+01 2.200000e+01 -1.146370e+00
      vertex   1.000000e+01 2.100000e+01 -1.160625e+00
      vertex   1.038426e+01 2.200000e+01 -1.180351e+00
    endloop
  endfacet
  facet normal 5.889667e-01 -2.415318e-01 -7.712202e-01
    outer loop
      vertex   1.038426e+01 2.200000e+01 -1.180351e+00
      vertex   1.000000e+01 2.100000e+01 -1.160625e+00
      vertex   1.000000e+01 2.105787e+01 -1.178750e+00
    endloop
  endfacet
  facet normal 5.786863e-01 -2.373541e-01 -7.802469e-01
    outer loop
      vertex   1.038426e+01 2.200000e+01 -1.180351e+00
      vertex   1.000000e+01 2.105787e+01 -1.178750e+00
      vertex   1.000000e+01 2.111642e+01 -1.196560e+00
    endloop
  endfacet
  facet normal 5.733702e-01 -2.349571e-01 -7.848833e-01
    outer loop
      vertex   1.038426e+01 2.200000e+01 -1.180351e+00
      vertex   1.000000e+01 2.111642e+01 -1.196560e+00
      vertex   1.033924e+01 2.200000e+01 -1.213238e+00
    endloop
  endfacet
  facet normal 5.683609e-01 -2.331128e-01 -7.890655e-01
    outer loop
      vertex   1.033924e+01 2.200000e+01 -1.213238e+00
      vertex   1.000000e+01 2.111642e+01 -1.196560e+00
      vertex   1.000000e+01 2.117563e+01 -1.214053e+00
    endloop
  endfacet
  facet normal 5.579482e-01 -2.288192e-01 -7.977064e-01
    outer loop
      vertex   1.033924e+01 2.200000e+01 -1.213238e+00
      vertex   1.000000e+01 2.117563e+01 -1.214053e+00
      vertex   1.000000e+01 2.123549e+01 -1.231224e+00
    endloop
  endfacet
  facet normal 5.539032e-01 -2.269455e-01 -8.010537e-01
    outer loop
      vertex   1.033924e+01 2.200000e+01 -1.213238e+00
      vertex   1.000000e+01 2.123549e+01 -1.231224e+00
      vertex   1.029330e+01 2.200000e+01 -1.245009e+00
    endloop
  endfacet
  facet normal 5.472915e-01 -2.245030e-01 -8.062695e-01
    outer loop
      vertex   1.029330e+01 2.200000e+01 -1.245009e+00
      vertex   1.000000e+01 2.123549e+01 -1.231224e+00
      vertex   1.000000e+01 2.129599e+01 -1.248069e+00
    endloop
  endfacet
  facet normal 5.367955e-01 -2.200945e-01 -8.144993e-01
    outer loop
      vertex   1.029330e+01 2.200000e+01 -1.245009e+00
      vertex   1.000000e+01 2.129599e+01 -1.248069e+00
      vertex   1.000000e+01 2.135712e+01 -1.264586e+00
    endloop
  endfacet
  facet normal 5.340456e-01 -2.187741e-01 -8.166598e-01
    outer loop
      vertex   1.029330e+01 2.200000e+01 -1.245009e+00
      vertex   1.000000e+01 2.135712e+01 -1.264586e+00
      vertex   1.024646e+01 2.200000e+01 -1.275640e+00
    endloop
  endfacet
  facet normal 5.257757e-01 -2.157097e-01 -8.228179e-01
    outer loop
      vertex   1.024646e+01 2.200000e+01 -1.275640e+00
      vertex   1.000000e+01 2.135712e+01 -1.264586e+00
      vertex   1.000000e+01 2.141885e+01 -1.280772e+00
    endloop
  endfacet
  facet normal 5.152691e-01 -2.111852e-01 -8.306013e-01
    outer loop
      vertex   1.024646e+01 2.200000e+01 -1.275640e+00
      vertex   1.000000e+01 2.141885e+01 -1.280772e+00
      vertex   1.000000e+01 2.148119e+01 -1.296622e+00
    endloop
  endfacet
  facet normal 5.138116e-01 -2.104488e-01 -8.316905e-01
    outer loop
      vertex   1.024646e+01 2.200000e+01 -1.275640e+00
      vertex   1.000000e+01 2.148119e+01 -1.296622e+00
      vertex   1.019875e+01 2.200000e+01 -1.305111e+00
    endloop
  endfacet
  facet normal 5.038311e-01 -2.067399e-01 -8.386971e-01
    outer loop
      vertex   1.019875e+01 2.200000e+01 -1.305111e+00
      vertex   1.000000e+01 2.148119e+01 -1.296622e+00
      vertex   1.000000e+01 2.154412e+01 -1.312133e+00
    endloop
  endfacet
  facet normal 4.934343e-01 -2.020950e-01 -8.459788e-01
    outer loop
      vertex   1.019875e+01 2.200000e+01 -1.305111e+00
      vertex   1.000000e+01 2.154412e+01 -1.312133e+00
      vertex   1.000000e+01 2.160762e+01 -1.327303e+00
    endloop
  endfacet
  facet normal 4.932153e-01 -2.019752e-01 -8.461351e-01
    outer loop
      vertex   1.019875e+01 2.200000e+01 -1.305111e+00
      vertex   1.000000e+01 2.160762e+01 -1.327303e+00
      vertex   1.015022e+01 2.200000e+01 -1.333401e+00
    endloop
  endfacet
  facet normal 4.814756e-01 -1.976012e-01 -8.538940e-01
    outer loop
      vertex   1.015022e+01 2.200000e+01 -1.333401e+00
      vertex   1.000000e+01 2.160762e+01 -1.327303e+00
      vertex   1.000000e+01 2.167169e+01 -1.342129e+00
    endloop
  endfacet
  facet normal 4.722834e-01 -1.932328e-01 -8.600055e-01
    outer loop
      vertex   1.015022e+01 2.200000e+01 -1.333401e+00
      vertex   1.000000e+01 2.167169e+01 -1.342129e+00
      vertex   1.010090e+01 2.200000e+01 -1.360489e+00
    endloop
  endfacet
  facet normal 4.709731e-01 -1.928748e-01 -8.608040e-01
    outer loop
      vertex   1.010090e+01 2.200000e+01 -1.360489e+00
      vertex   1.000000e+01 2.167169e+01 -1.342129e+00
      vertex   1.000000e+01 2.173630e+01 -1.356607e+00
    endloop
  endfacet
  facet normal 4.587273e-01 -1.883011e-01 -8.683962e-01
    outer loop
      vertex   1.010090e+01 2.200000e+01 -1.360489e+00
      vertex   1.000000e+01 2.173630e+01 -1.356607e+00
      vertex   1.000000e+01 2.180146e+01 -1.370734e+00
    endloop
  endfacet
  facet normal 4.510349e-01 -1.841387e-01 -8.733043e-01
    outer loop
      vertex   1.010090e+01 2.200000e+01 -1.360489e+00
      vertex   1.000000e+01 2.180146e+01 -1.370734e+00
      vertex   1.005081e+01 2.200000e+01 -1.386356e+00
    endloop
  endfacet
  facet normal 4.480519e-01 -1.835065e-01 -8.749713e-01
    outer loop
      vertex   1.005081e+01 2.200000e+01 -1.386356e+00
      vertex   1.000000e+01 2.180146e+01 -1.370734e+00
      vertex   1.000000e+01 2.186713e+01 -1.384508e+00
    endloop
  endfacet
  facet normal 4.356049e-01 -1.788471e-01 -8.821917e-01
    outer loop
      vertex   1.005081e+01 2.200000e+01 -1.386356e+00
      vertex   1.000000e+01 2.186713e+01 -1.384508e+00
      vertex   1.000000e+01 2.193332e+01 -1.397926e+00
    endloop
  endfacet
  facet normal 4.295680e-01 -1.735516e-01 -8.862004e-01
    outer loop
      vertex   1.000000e+01 2.193332e+01 -1.397926e+00
      vertex   1.000000e+01 2.200000e+01 -1.410985e+00
      vertex   1.005081e+01 2.200000e+01 -1.386356e+00
    endloop
  endfacet
  facet normal 0.000000e+00 -1.000000e+00 0.000000e+00
    outer loop
      vertex   1.000000e+01 2.100000e+01 -1.160625e+00
      vertex   1.003845e+01 2.100000e+01 -1.130116e+00
      vertex   1.000000e+01 2.100000e+01 -1.000000e+00
    endloop
  endfacet
  facet normal 0.000000e+00 -1.000000e+00 0.000000e+00
    outer loop
      vertex   1.000000e+01 2.100000e+01 -1.000000e+00
      vertex   1.003845e+01 2.100000e+01 -1.130116e+00
      vertex   1.007613e+01 2.100000e+01 -1.098781e+00
    endloop
  endfacet
  facet normal 0.000000e+00 -1.000000e+00 0.000000e+00
    outer loop
      vertex   1.000000e+01 2.100000e+01 -1.000000e+00
      vertex   1.007613e+01 2.100000e+01 -1.098781e+00
      vertex   1.011299e+01 2.100000e+01 -1.066639e+00
    endloop
  endfacet
  facet normal 0.000000e+00 -1.000000e+00 0.000000e+00
    outer loop
      vertex   1.011299e+01 2.100000e+01 -1.066639e+00
      vertex   1.014904e+01 2.100000e+01 -1.033705e+00
      vertex   1.000000e+01 2.100000e+01 -1.000000e+00
    endloop
  endfacet
  facet normal 0.000000e+00 -1.000000e+00 0.000000e+00
    outer loop
      vertex   1.000000e+01 2.100000e+01 -1.000000e+00
      vertex   1.014904e+01 2.100000e+01 -1.033705e+00
      vertex   1.018424e+01 2.100000e+01 -1.000000e+00
    endloop
  endfacet
  facet normal 0.000000e+00 0.000000e+00 1.000000e+00
    outer loop
      vertex   1.059437e+01 2.200000e+01 -1.000000e+00
      vertex   1.000000e+01 2.200000e+01 -1.000000e+00
      vertex   1.018424e+01 2.100000e+01 -1.000000e+00
    endloop
  endfacet
  facet normal 0.000000e+00 0.000000e+00 1.000000e+00
    outer loop
      vertex   1.018424e+01 2.100000e+01 -1.000000e+00
      vertex   1.000000e+01 2.200000e+01 -1.000000e+00
      vertex   1.000000e+01 2.100000e+01 -1.000000e+00
    endloop
  endfacet
  facet normal -1.000000e+00 2.579261e-14 -4.322191e-15
    outer loop
      vertex   1.000000e+01 2.200000e+01 -1.410985e+00
      vertex   1.000000e+01 2.193332e+01 -1.397926e+00
      vertex   1.000000e+01 2.200000e+01 -1.000000e+00
    endloop
  endfacet
  facet normal -1.000000e+00 0.000000e+00 0.000000e+00
    outer loop
      vertex   1.000000e+01 2.200000e+01 -1.000000e+00
      vertex   1.000000e+01 2.193332e+01 -1.397926e+00
      vertex   1.000000e+01 2.186713e+01 -1.384508e+00
    endloop
  endfacet
  facet normal -1.000000e+00 0.000000e+00 0.000000e+00
    outer loop
      vertex   1.000000e+01 2.200000e+01 -1.000000e+00
      vertex   1.000000e+01 2.186713e+01 -1.384508e+00
      vertex   1.000000e+01 2.180146e+01 -1.370734e+00
    endloop
  endfacet
  facet normal -1.000000e+00 0.000000e+00 0.000000e+00
    outer loop
      vertex   1.000000e+01 2.180146e+01 -1.370734e+00
      vertex   1.000000e+01 2.173630e+01 -1.356607e+00
      vertex   1.000000e+01 2.200000e+01 -1.000000e+00
    endloop
  endfacet
  facet normal -1.000000e+00 0.000000e+00 0.000000e+00
    outer loop
      vertex   1.000000e+01 2.200000e+01 -1.000000e+00
      vertex   1.000000e+01 2.173630e+01 -1.356607e+00
      vertex   1.000000e+01 2.167169e+01 -1.342129e+00
    endloop
  endfacet
  facet normal -1.000000e+00 0.000000e+00 0.000000e+00
    outer loop
      vertex   1.000000e+01 2.200000e+01 -1.000000e+00
      vertex   1.000000e+01 2.167169e+01 -1.342129e+00
      vertex   1.000000e+01 2.160762e+01 -1.327303e+00
    endloop
  endfacet
  facet normal -1.000000e+00 0.000000e+00 0.000000e+00
    outer loop
      vertex   1.000000e+01 2.160762e+01 -1.327303e+00
      vertex   1.000000e+01 2.154412e+01 -1.312133e+00
      vertex   1.000000e+01 2.200000e+01 -1.000000e+00
    endloop
  endfacet
  facet normal -1.000000e+00 0.000000e+00 0.000000e+00
    outer loop
      vertex   1.000000e+01 2.200000e+01 -1.000000e+00
      vertex   1.000000e+01 2.154412e+01 -1.312133e+00
      vertex   1.000000e+01 2.148119e+01 -1.296622e+00
    endloop
  endfacet
  facet normal -1.000000e+00 0.000000e+00 0.000000e+00
    outer loop
      vertex   1.000000e+01 2.200000e+01 -1.000000e+00
      vertex   1.000000e+01 2.148119e+01 -1.296622e+00
      vertex   1.000000e+01 2.141885e+01 -1.280772e+00
    endloop
  endfacet
  facet normal -1.000000e+00 0.000000e+00 0.000000e+00
    outer loop
      vertex   1.000000e+01 2.141885e+01 -1.280772e+00
      vertex   1.000000e+01 2.135712e+01 -1.264586e+00
      vertex   1.000000e+01 2.200000e+01 -1.000000e+00
    endloop
  endfacet
  facet normal -1.000000e+00 0.000000e+00 0.000000e+00
    outer loop
      vertex   1.000000e+01 2.200000e+01 -1.000000e+00
      vertex   1.000000e+01 2.135712e+01 -1.264586e+00
      vertex   1.000000e+01 2.129599e+01 -1.248069e+00
    endloop
  endfacet
  facet normal -1.000000e+00 0.000000e+00 0.000000e+00
    outer loop
      vertex   1.000000e+01 2.200000e+01 -1.000000e+00
      vertex   1.000000e+01 2.129599e+01 -1.248069e+00
      vertex   1.000000e+01 2.123549e+01 -1.231224e+00
    endloop
  endfacet
  facet normal -1.000000e+00 0.000000e+00 0.000000e+00
    outer loop
      vertex   1.000000e+01 2.123549e+01 -1.231224e+00
      vertex   1.000000e+01 2.117563e+01 -1.214053e+00
      vertex   1.000000e+01 2.200000e+01 -1.000000e+00
    endloop
  endfacet
  facet normal -1.000000e+00 -0.000000e+00 0.000000e+00
    outer loop
      vertex   1.000000e+01 2.200000e+01 -1.000000e+00
      vertex   1.000000e+01 2.117563e+01 -1.214053e+00
      vertex   1.000000e+01 2.100000e+01 -1.000000e+00
    endloop
  endfacet
  facet normal -1.000000e+00 0.000000e+00 0.000000e+00
    outer loop
      vertex   1.000000e+01 2.100000e+01 -1.000000e+00
      vertex   1.000000e+01 2.117563e+01 -1.214053e+00
      vertex   1.000000e+01 2.111642e+01 -1.196560e+00
    endloop
  endfacet
  facet normal -1.000000e+00 0.000000e+00 0.000000e+00
    outer loop
      vertex   1.000000e+01 2.100000e+01 -1.000000e+00
      vertex   1.000000e+01 2.111642e+01 -1.196560e+00
      vertex   1.000000e+01 2.105787e+01 -1.178750e+00
    endloop
  endfacet
  facet normal -1.000000e+00 -3.415715e-14 -1.105904e-14
    outer loop
      vertex   1.000000e+01 2.105787e+01 -1.178750e+00
      vertex   1.000000e+01 2.100000e+01 -1.160625e+00
      vertex   1.000000e+01 2.100000e+01 -1.000000e+00
    endloop
  endfacet
  facet normal 0.000000e+00 1.000000e+00 0.000000e+00
    outer loop
      vertex   1.059437e+01 2.200000e+01 -1.000000e+00
      vertex   1.055444e+01 2.200000e+01 -1.038109e+00
      vertex   1.000000e+01 2.200000e+01 -1.000000e+00
    endloop
  endfacet
  facet normal 0.000000e+00 1.000000e+00 0.000000e+00
    outer loop
      vertex   1.000000e+01 2.200000e+01 -1.000000e+00
      vertex   1.055444e+01 2.200000e+01 -1.038109e+00
      vertex   1.051344e+01 2.200000e+01 -1.075224e+00
    endloop
  endfacet
  facet normal 0.000000e+00 1.000000e+00 0.000000e+00
    outer loop
      vertex   1.000000e+01 2.200000e+01 -1.000000e+00
      vertex   1.051344e+01 2.200000e+01 -1.075224e+00
      vertex   1.047139e+01 2.200000e+01 -1.111319e+00
    endloop
  endfacet
  facet normal 0.000000e+00 1.000000e+00 0.000000e+00
    outer loop
      vertex   1.047139e+01 2.200000e+01 -1.111319e+00
      vertex   1.042832e+01 2.200000e+01 -1.146370e+00
      vertex   1.000000e+01 2.200000e+01 -1.000000e+00
    endloop
  endfacet
  facet normal 0.000000e+00 1.000000e+00 0.000000e+00
    outer loop
      vertex   1.000000e+01 2.200000e+01 -1.000000e+00
      vertex   1.042832e+01 2.200000e+01 -1.146370e+00
      vertex   1.038426e+01 2.200000e+01 -1.180351e+00
    endloop
  endfacet
  facet normal 0.000000e+00 1.000000e+00 0.000000e+00
    outer loop
      vertex   1.000000e+01 2.200000e+01 -1.000000e+00
      vertex   1.038426e+01 2.200000e+01 -1.180351e+00
      vertex   1.033924e+01 2.200000e+01 -1.213238e+00
    endloop
  endfacet
  facet normal 0.000000e+00 1.000000e+00 0.000000e+00
    outer loop
      vertex   1.033924e+01 2.200000e+01 -1.213238e+00
      vertex   1.029330e+01 2.200000e+01 -1.245009e+00
      vertex   1.000000e+01 2.200000e+01 -1.000000e+00
    endloop
  endfacet
  facet normal 0.000000e+00 1.000000e+00 0.000000e+00
    outer loop
      vertex   1.000000e+01 2.200000e+01 -1.000000e+00
      vertex   1.029330e+01 2.200000e+01 -1.245009e+00
      vertex   1.024646e+01 2.200000e+01 -1.275640e+00
    endloop
  endfacet
  facet normal 0.000000e+00 1.000000e+00 0.000000e+00
    outer loop
      vertex   1.000000e+01 2.200000e+01 -1.000000e+00
      vertex   1.024646e+01 2.200000e+01 -1.275640e+00
      vertex   1.019875e+01 2.200000e+01 -1.305111e+00
    endloop
  endfacet
  facet normal 0.000000e+00 1.000000e+00 0.000000e+00
    outer loop
      vertex   1.019875e+01 2.200000e+01 -1.305111e+00
      vertex   1.015022e+01 2.200000e+01 -1.333401e+00
      vertex   1.000000e+01 2.200000e+01 -1.000000e+00
    endloop
  endfacet
  facet normal 0.000000e+00 1.000000e+00 0.000000e+00
    outer loop
      vertex   1.000000e+01 2.200000e+01 -1.000000e+00
      vertex   1.015022e+01 2.200000e+01 -1.333401e+00
      vertex   1.010090e+01 2.200000e+01 -1.360489e+00
    endloop
  endfacet
  facet normal 0.000000e+00 1.000000e+00 0.000000e+00
    outer loop
      vertex   1.000000e+01 2.200000e+01 -1.000000e+00
      vertex   1.010090e+01 2.200000e+01 -1.360489e+00
      vertex   1.005081e+01 2.200000e+01 -1.386356e+00
    endloop
  endfacet
  facet normal 0.000000e+00 1.000000e+00 0.000000e+00
    outer loop
      vertex   1.005081e+01 2.200000e+01 -1.386356e+00
      vertex   1.000000e+01 2.200000e+01 -1.410985e+00
      vertex   1.000000e+01 2.200000e+01 -1.000000e+00
    endloop
  endfacet
endsolid
