solid ASCII
  facet normal 3.794562e-01 9.252097e-01 -0.000000e+00
    outer loop
      vertex   1.500000e+01 3.431649e+01 -1.000000e+00
      vertex   1.400000e+01 3.472662e+01 -1.000000e+00
      vertex   1.500000e+01 3.431649e+01 0.000000e+00
    endloop
  endfacet
  facet normal 3.794562e-01 9.252097e-01 0.000000e+00
    outer loop
      vertex   1.500000e+01 3.431649e+01 0.000000e+00
      vertex   1.400000e+01 3.472662e+01 -1.000000e+00
      vertex   1.400000e+01 3.472662e+01 0.000000e+00
    endloop
  endfacet
  facet normal -1.000000e+00 -0.000000e+00 -0.000000e+00
    outer loop
      vertex   1.400000e+01 3.472662e+01 0.000000e+00
      vertex   1.400000e+01 3.472662e+01 -1.000000e+00
      vertex   1.400000e+01 3.400000e+01 0.000000e+00
    endloop
  endfacet
  facet normal -1.000000e+00 0.000000e+00 0.000000e+00
    outer loop
      vertex   1.400000e+01 3.400000e+01 0.000000e+00
      vertex   1.400000e+01 3.472662e+01 -1.000000e+00
      vertex   1.400000e+01 3.400000e+01 -1.000000e+00
    endloop
  endfacet
  facet normal 0.000000e+00 0.000000e+00 -1.000000e+00
    outer loop
      vertex   1.400000e+01 3.472662e+01 -1.000000e+00
      vertex   1.500000e+01 3.431649e+01 -1.000000e+00
      vertex   1.400000e+01 3.400000e+01 -1.000000e+00
    endloop
  endfacet
  facet normal 0.000000e+00 0.000000e+00 -1.000000e+00
    outer loop
      vertex   1.400000e+01 3.400000e+01 -1.000000e+00
      vertex   1.500000e+01 3.431649e+01 -1.000000e+00
      vertex   1.500000e+01 3.400000e+01 -1.000000e+00
    endloop
  endfacet
  facet normal 0.000000e+00 0.000000e+00 1.000000e+00
    outer loop
      vertex   1.400000e+01 3.472662e+01 0.000000e+00
      vertex   1.400000e+01 3.400000e+01 0.000000e+00
      vertex   1.500000e+01 3.431649e+01 0.000000e+00
    endloop
  endfacet
  facet normal 0.000000e+00 0.000000e+00 1.000000e+00
    outer loop
      vertex   1.500000e+01 3.431649e+01 0.000000e+00
      vertex   1.400000e+01 3.400000e+01 0.000000e+00
      vertex   1.500000e+01 3.400000e+01 0.000000e+00
    endloop
  endfacet
  facet normal 0.000000e+00 -1.000000e+00 0.000000e+00
    outer loop
      vertex   1.400000e+01 3.400000e+01 0.000000e+00
      vertex   1.400000e+01 3.400000e+01 -1.000000e+00
      vertex   1.500000e+01 3.400000e+01 0.000000e+00
    endloop
  endfacet
  facet normal 0.000000e+00 -1.000000e+00 -0.000000e+00
    outer loop
      vertex   1.500000e+01 3.400000e+01 0.000000e+00
      vertex   1.400000e+01 3.400000e+01 -1.000000e+00
      vertex   1.500000e+01 3.400000e+01 -1.000000e+00
    endloop
  endfacet
  facet normal 1.000000e+00 0.000000e+00 -0.000000e+00
    outer loop
      vertex   1.500000e+01 3.431649e+01 -1.000000e+00
      vertex   1.500000e+01 3.431649e+01 0.000000e+00
      vertex   1.500000e+01 3.400000e+01 -1.000000e+00
    endloop
  endfacet
  facet normal 1.000000e+00 0.000000e+00 0.000000e+00
    outer loop
      vertex   1.500000e+01 3.400000e+01 -1.000000e+00
      vertex   1.500000e+01 3.431649e+01 0.000000e+00
      vertex   1.500000e+01 3.400000e+01 0.000000e+00
    endloop
  endfacet
endsolid
