solid ASCII
  facet normal -6.701483e-01 2.748478e-01 -6.894635e-01
    outer loop
      vertex   1.196167e+01 3.300000e+01 -1.000000e+00
      vertex   1.197434e+01 3.300000e+01 -1.012308e+00
      vertex   1.155154e+01 3.200000e+01 -1.000000e+00
    endloop
  endfacet
  facet normal -6.650997e-01 2.726427e-01 -6.952038e-01
    outer loop
      vertex   1.155154e+01 3.200000e+01 -1.000000e+00
      vertex   1.197434e+01 3.300000e+01 -1.012308e+00
      vertex   1.158811e+01 3.200000e+01 -1.034987e+00
    endloop
  endfacet
  facet normal -6.647253e-01 2.725074e-01 -6.956148e-01
    outer loop
      vertex   1.158811e+01 3.200000e+01 -1.034987e+00
      vertex   1.197434e+01 3.300000e+01 -1.012308e+00
      vertex   1.198711e+01 3.300000e+01 -1.024517e+00
    endloop
  endfacet
  facet normal -6.592107e-01 2.703705e-01 -7.016702e-01
    outer loop
      vertex   1.158811e+01 3.200000e+01 -1.034987e+00
      vertex   1.198711e+01 3.300000e+01 -1.024517e+00
      vertex   1.200000e+01 3.300000e+01 -1.036624e+00
    endloop
  endfacet
  facet normal -6.515209e-01 2.671895e-01 -7.100213e-01
    outer loop
      vertex   1.200000e+01 3.300000e+01 -1.036624e+00
      vertex   1.200000e+01 3.294335e+01 -1.057943e+00
      vertex   1.158811e+01 3.200000e+01 -1.034987e+00
    endloop
  endfacet
  facet normal -6.492513e-01 2.661384e-01 -7.124908e-01
    outer loop
      vertex   1.158811e+01 3.200000e+01 -1.034987e+00
      vertex   1.200000e+01 3.294335e+01 -1.057943e+00
      vertex   1.162559e+01 3.200000e+01 -1.069139e+00
    endloop
  endfacet
  facet normal -6.413859e-01 2.631141e-01 -7.206907e-01
    outer loop
      vertex   1.162559e+01 3.200000e+01 -1.069139e+00
      vertex   1.200000e+01 3.294335e+01 -1.057943e+00
      vertex   1.200000e+01 3.288585e+01 -1.078934e+00
    endloop
  endfacet
  facet normal -6.330174e-01 2.594813e-01 -7.293548e-01
    outer loop
      vertex   1.162559e+01 3.200000e+01 -1.069139e+00
      vertex   1.200000e+01 3.288585e+01 -1.078934e+00
      vertex   1.166396e+01 3.200000e+01 -1.102438e+00
    endloop
  endfacet
  facet normal -6.313746e-01 2.589013e-01 -7.309830e-01
    outer loop
      vertex   1.166396e+01 3.200000e+01 -1.102438e+00
      vertex   1.200000e+01 3.288585e+01 -1.078934e+00
      vertex   1.200000e+01 3.282752e+01 -1.099593e+00
    endloop
  endfacet
  facet normal -6.209489e-01 2.547032e-01 -7.413156e-01
    outer loop
      vertex   1.166396e+01 3.200000e+01 -1.102438e+00
      vertex   1.200000e+01 3.282752e+01 -1.099593e+00
      vertex   1.200000e+01 3.276838e+01 -1.119914e+00
    endloop
  endfacet
  facet normal -6.164172e-01 2.526194e-01 -7.457971e-01
    outer loop
      vertex   1.166396e+01 3.200000e+01 -1.102438e+00
      vertex   1.200000e+01 3.276838e+01 -1.119914e+00
      vertex   1.170319e+01 3.200000e+01 -1.134864e+00
    endloop
  endfacet
  facet normal -6.104544e-01 2.504255e-01 -7.514203e-01
    outer loop
      vertex   1.170319e+01 3.200000e+01 -1.134864e+00
      vertex   1.200000e+01 3.276838e+01 -1.119914e+00
      vertex   1.200000e+01 3.270843e+01 -1.139893e+00
    endloop
  endfacet
  facet normal -6.001101e-01 2.460226e-01 -7.611444e-01
    outer loop
      vertex   1.170319e+01 3.200000e+01 -1.134864e+00
      vertex   1.200000e+01 3.270843e+01 -1.139893e+00
      vertex   1.200000e+01 3.264769e+01 -1.159525e+00
    endloop
  endfacet
  facet normal -5.994381e-01 2.456904e-01 -7.617810e-01
    outer loop
      vertex   1.170319e+01 3.200000e+01 -1.134864e+00
      vertex   1.200000e+01 3.264769e+01 -1.159525e+00
      vertex   1.174326e+01 3.200000e+01 -1.166396e+00
    endloop
  endfacet
  facet normal -5.890895e-01 2.416870e-01 -7.710778e-01
    outer loop
      vertex   1.174326e+01 3.200000e+01 -1.166396e+00
      vertex   1.200000e+01 3.264769e+01 -1.159525e+00
      vertex   1.200000e+01 3.258618e+01 -1.178806e+00
    endloop
  endfacet
  facet normal -5.821212e-01 2.385025e-01 -7.773361e-01
    outer loop
      vertex   1.174326e+01 3.200000e+01 -1.166396e+00
      vertex   1.200000e+01 3.258618e+01 -1.178806e+00
      vertex   1.178415e+01 3.200000e+01 -1.197017e+00
    endloop
  endfacet
  facet normal -5.783316e-01 2.372070e-01 -7.805545e-01
    outer loop
      vertex   1.178415e+01 3.200000e+01 -1.197017e+00
      vertex   1.200000e+01 3.258618e+01 -1.178806e+00
      vertex   1.200000e+01 3.252390e+01 -1.197732e+00
    endloop
  endfacet
  facet normal -5.673881e-01 2.326856e-01 -7.898913e-01
    outer loop
      vertex   1.178415e+01 3.200000e+01 -1.197017e+00
      vertex   1.200000e+01 3.252390e+01 -1.197732e+00
      vertex   1.200000e+01 3.246088e+01 -1.216297e+00
    endloop
  endfacet
  facet normal -5.644538e-01 2.312054e-01 -7.924241e-01
    outer loop
      vertex   1.178415e+01 3.200000e+01 -1.197017e+00
      vertex   1.200000e+01 3.246088e+01 -1.216297e+00
      vertex   1.182584e+01 3.200000e+01 -1.226708e+00
    endloop
  endfacet
  facet normal -5.560088e-01 2.281682e-01 -7.992456e-01
    outer loop
      vertex   1.182584e+01 3.200000e+01 -1.226708e+00
      vertex   1.200000e+01 3.246088e+01 -1.216297e+00
      vertex   1.200000e+01 3.239712e+01 -1.234499e+00
    endloop
  endfacet
  facet normal -5.464448e-01 2.238209e-01 -8.070330e-01
    outer loop
      vertex   1.182584e+01 3.200000e+01 -1.226708e+00
      vertex   1.200000e+01 3.239712e+01 -1.234499e+00
      vertex   1.186829e+01 3.200000e+01 -1.255452e+00
    endloop
  endfacet
  facet normal -5.452313e-01 2.234669e-01 -8.079514e-01
    outer loop
      vertex   1.186829e+01 3.200000e+01 -1.255452e+00
      vertex   1.200000e+01 3.239712e+01 -1.234499e+00
      vertex   1.200000e+01 3.233264e+01 -1.252332e+00
    endloop
  endfacet
  facet normal -5.334146e-01 2.188733e-01 -8.170455e-01
    outer loop
      vertex   1.186829e+01 3.200000e+01 -1.255452e+00
      vertex   1.200000e+01 3.233264e+01 -1.252332e+00
      vertex   1.200000e+01 3.226746e+01 -1.269793e+00
    endloop
  endfacet
  facet normal -5.281422e-01 2.160536e-01 -8.212105e-01
    outer loop
      vertex   1.186829e+01 3.200000e+01 -1.255452e+00
      vertex   1.200000e+01 3.226746e+01 -1.269793e+00
      vertex   1.191148e+01 3.200000e+01 -1.283232e+00
    endloop
  endfacet
  facet normal -5.217753e-01 2.141750e-01 -8.257600e-01
    outer loop
      vertex   1.191148e+01 3.200000e+01 -1.283232e+00
      vertex   1.200000e+01 3.226746e+01 -1.269793e+00
      vertex   1.200000e+01 3.220159e+01 -1.286878e+00
    endloop
  endfacet
  facet normal -5.109718e-01 2.092872e-01 -8.337306e-01
    outer loop
      vertex   1.191148e+01 3.200000e+01 -1.283232e+00
      vertex   1.200000e+01 3.220159e+01 -1.286878e+00
      vertex   1.200000e+01 3.213505e+01 -1.303582e+00
    endloop
  endfacet
  facet normal -5.095223e-01 2.081611e-01 -8.348988e-01
    outer loop
      vertex   1.191148e+01 3.200000e+01 -1.283232e+00
      vertex   1.200000e+01 3.213505e+01 -1.303582e+00
      vertex   1.195540e+01 3.200000e+01 -1.310031e+00
    endloop
  endfacet
  facet normal -4.978111e-01 2.046699e-01 -8.427896e-01
    outer loop
      vertex   1.195540e+01 3.200000e+01 -1.310031e+00
      vertex   1.200000e+01 3.213505e+01 -1.303582e+00
      vertex   1.200000e+01 3.206785e+01 -1.319902e+00
    endloop
  endfacet
  facet normal -4.906935e-01 1.991949e-01 -8.482578e-01
    outer loop
      vertex   1.195540e+01 3.200000e+01 -1.310031e+00
      vertex   1.200000e+01 3.206785e+01 -1.319902e+00
      vertex   1.200000e+01 3.200000e+01 -1.335834e+00
    endloop
  endfacet
  facet normal 0.000000e+00 1.000000e+00 0.000000e+00
    outer loop
      vertex   1.200000e+01 3.300000e+01 -1.036624e+00
      vertex   1.198711e+01 3.300000e+01 -1.024517e+00
      vertex   1.200000e+01 3.300000e+01 -1.000000e+00
    endloop
  endfacet
  facet normal 0.000000e+00 1.000000e+00 0.000000e+00
    outer loop
      vertex   1.200000e+01 3.300000e+01 -1.000000e+00
      vertex   1.198711e+01 3.300000e+01 -1.024517e+00
      vertex   1.197434e+01 3.300000e+01 -1.012308e+00
    endloop
  endfacet
  facet normal 0.000000e+00 1.000000e+00 0.000000e+00
    outer loop
      vertex   1.200000e+01 3.300000e+01 -1.000000e+00
      vertex   1.197434e+01 3.300000e+01 -1.012308e+00
      vertex   1.196167e+01 3.300000e+01 -1.000000e+00
    endloop
  endfacet
  facet normal 0.000000e+00 0.000000e+00 1.000000e+00
    outer loop
      vertex   1.155154e+01 3.200000e+01 -1.000000e+00
      vertex   1.200000e+01 3.200000e+01 -1.000000e+00
      vertex   1.196167e+01 3.300000e+01 -1.000000e+00
    endloop
  endfacet
  facet normal -0.000000e+00 0.000000e+00 1.000000e+00
    outer loop
      vertex   1.196167e+01 3.300000e+01 -1.000000e+00
      vertex   1.200000e+01 3.200000e+01 -1.000000e+00
      vertex   1.200000e+01 3.300000e+01 -1.000000e+00
    endloop
  endfacet
  facet normal 0.000000e+00 -1.000000e+00 0.000000e+00
    outer loop
      vertex   1.155154e+01 3.200000e+01 -1.000000e+00
      vertex   1.158811e+01 3.200000e+01 -1.034987e+00
      vertex   1.200000e+01 3.200000e+01 -1.000000e+00
    endloop
  endfacet
  facet normal 0.000000e+00 -1.000000e+00 0.000000e+00
    outer loop
      vertex   1.200000e+01 3.200000e+01 -1.000000e+00
      vertex   1.158811e+01 3.200000e+01 -1.034987e+00
      vertex   1.162559e+01 3.200000e+01 -1.069139e+00
    endloop
  endfacet
  facet normal 0.000000e+00 -1.000000e+00 0.000000e+00
    outer loop
      vertex   1.200000e+01 3.200000e+01 -1.000000e+00
      vertex   1.162559e+01 3.200000e+01 -1.069139e+00
      vertex   1.166396e+01 3.200000e+01 -1.102438e+00
    endloop
  endfacet
  facet normal 0.000000e+00 -1.000000e+00 0.000000e+00
    outer loop
      vertex   1.166396e+01 3.200000e+01 -1.102438e+00
      vertex   1.170319e+01 3.200000e+01 -1.134864e+00
      vertex   1.200000e+01 3.200000e+01 -1.000000e+00
    endloop
  endfacet
  facet normal 0.000000e+00 -1.000000e+00 0.000000e+00
    outer loop
      vertex   1.200000e+01 3.200000e+01 -1.000000e+00
      vertex   1.170319e+01 3.200000e+01 -1.134864e+00
      vertex   1.174326e+01 3.200000e+01 -1.166396e+00
    endloop
  endfacet
  facet normal 0.000000e+00 -1.000000e+00 0.000000e+00
    outer loop
      vertex   1.200000e+01 3.200000e+01 -1.000000e+00
      vertex   1.174326e+01 3.200000e+01 -1.166396e+00
      vertex   1.178415e+01 3.200000e+01 -1.197017e+00
    endloop
  endfacet
  facet normal 0.000000e+00 -1.000000e+00 0.000000e+00
    outer loop
      vertex   1.178415e+01 3.200000e+01 -1.197017e+00
      vertex   1.182584e+01 3.200000e+01 -1.226708e+00
      vertex   1.200000e+01 3.200000e+01 -1.000000e+00
    endloop
  endfacet
  facet normal 0.000000e+00 -1.000000e+00 0.000000e+00
    outer loop
      vertex   1.200000e+01 3.200000e+01 -1.000000e+00
      vertex   1.182584e+01 3.200000e+01 -1.226708e+00
      vertex   1.186829e+01 3.200000e+01 -1.255452e+00
    endloop
  endfacet
  facet normal 0.000000e+00 -1.000000e+00 0.000000e+00
    outer loop
      vertex   1.200000e+01 3.200000e+01 -1.000000e+00
      vertex   1.186829e+01 3.200000e+01 -1.255452e+00
      vertex   1.191148e+01 3.200000e+01 -1.283232e+00
    endloop
  endfacet
  facet normal 0.000000e+00 -1.000000e+00 0.000000e+00
    outer loop
      vertex   1.191148e+01 3.200000e+01 -1.283232e+00
      vertex   1.195540e+01 3.200000e+01 -1.310031e+00
      vertex   1.200000e+01 3.200000e+01 -1.000000e+00
    endloop
  endfacet
  facet normal 0.000000e+00 -1.000000e+00 -0.000000e+00
    outer loop
      vertex   1.200000e+01 3.200000e+01 -1.000000e+00
      vertex   1.195540e+01 3.200000e+01 -1.310031e+00
      vertex   1.200000e+01 3.200000e+01 -1.335834e+00
    endloop
  endfacet
  facet normal 1.000000e+00 0.000000e+00 0.000000e+00
    outer loop
      vertex   1.200000e+01 3.200000e+01 -1.335834e+00
      vertex   1.200000e+01 3.206785e+01 -1.319902e+00
      vertex   1.200000e+01 3.200000e+01 -1.000000e+00
    endloop
  endfacet
  facet normal 1.000000e+00 0.000000e+00 0.000000e+00
    outer loop
      vertex   1.200000e+01 3.200000e+01 -1.000000e+00
      vertex   1.200000e+01 3.206785e+01 -1.319902e+00
      vertex   1.200000e+01 3.213505e+01 -1.303582e+00
    endloop
  endfacet
  facet normal 1.000000e+00 0.000000e+00 0.000000e+00
    outer loop
      vertex   1.200000e+01 3.200000e+01 -1.000000e+00
      vertex   1.200000e+01 3.213505e+01 -1.303582e+00
      vertex   1.200000e+01 3.220159e+01 -1.286878e+00
    endloop
  endfacet
  facet normal 1.000000e+00 0.000000e+00 -0.000000e+00
    outer loop
      vertex   1.200000e+01 3.220159e+01 -1.286878e+00
      vertex   1.200000e+01 3.226746e+01 -1.269793e+00
      vertex   1.200000e+01 3.200000e+01 -1.000000e+00
    endloop
  endfacet
  facet normal 1.000000e+00 0.000000e+00 0.000000e+00
    outer loop
      vertex   1.200000e+01 3.200000e+01 -1.000000e+00
      vertex   1.200000e+01 3.226746e+01 -1.269793e+00
      vertex   1.200000e+01 3.233264e+01 -1.252332e+00
    endloop
  endfacet
  facet normal 1.000000e+00 0.000000e+00 0.000000e+00
    outer loop
      vertex   1.200000e+01 3.200000e+01 -1.000000e+00
      vertex   1.200000e+01 3.233264e+01 -1.252332e+00
      vertex   1.200000e+01 3.239712e+01 -1.234499e+00
    endloop
  endfacet
  facet normal 1.000000e+00 0.000000e+00 -0.000000e+00
    outer loop
      vertex   1.200000e+01 3.239712e+01 -1.234499e+00
      vertex   1.200000e+01 3.246088e+01 -1.216297e+00
      vertex   1.200000e+01 3.200000e+01 -1.000000e+00
    endloop
  endfacet
  facet normal 1.000000e+00 0.000000e+00 0.000000e+00
    outer loop
      vertex   1.200000e+01 3.200000e+01 -1.000000e+00
      vertex   1.200000e+01 3.246088e+01 -1.216297e+00
      vertex   1.200000e+01 3.252390e+01 -1.197732e+00
    endloop
  endfacet
  facet normal 1.000000e+00 0.000000e+00 0.000000e+00
    outer loop
      vertex   1.200000e+01 3.200000e+01 -1.000000e+00
      vertex   1.200000e+01 3.252390e+01 -1.197732e+00
      vertex   1.200000e+01 3.258618e+01 -1.178806e+00
    endloop
  endfacet
  facet normal 1.000000e+00 0.000000e+00 -0.000000e+00
    outer loop
      vertex   1.200000e+01 3.258618e+01 -1.178806e+00
      vertex   1.200000e+01 3.264769e+01 -1.159525e+00
      vertex   1.200000e+01 3.200000e+01 -1.000000e+00
    endloop
  endfacet
  facet normal 1.000000e+00 0.000000e+00 0.000000e+00
    outer loop
      vertex   1.200000e+01 3.200000e+01 -1.000000e+00
      vertex   1.200000e+01 3.264769e+01 -1.159525e+00
      vertex   1.200000e+01 3.270843e+01 -1.139893e+00
    endloop
  endfacet
  facet normal 1.000000e+00 0.000000e+00 0.000000e+00
    outer loop
      vertex   1.200000e+01 3.200000e+01 -1.000000e+00
      vertex   1.200000e+01 3.270843e+01 -1.139893e+00
      vertex   1.200000e+01 3.276838e+01 -1.119914e+00
    endloop
  endfacet
  facet normal 1.000000e+00 0.000000e+00 -0.000000e+00
    outer loop
      vertex   1.200000e+01 3.276838e+01 -1.119914e+00
      vertex   1.200000e+01 3.282752e+01 -1.099593e+00
      vertex   1.200000e+01 3.200000e+01 -1.000000e+00
    endloop
  endfacet
  facet normal 1.000000e+00 0.000000e+00 0.000000e+00
    outer loop
      vertex   1.200000e+01 3.200000e+01 -1.000000e+00
      vertex   1.200000e+01 3.282752e+01 -1.099593e+00
      vertex   1.200000e+01 3.288585e+01 -1.078934e+00
    endloop
  endfacet
  facet normal 1.000000e+00 -0.000000e+00 0.000000e+00
    outer loop
      vertex   1.200000e+01 3.200000e+01 -1.000000e+00
      vertex   1.200000e+01 3.288585e+01 -1.078934e+00
      vertex   1.200000e+01 3.300000e+01 -1.000000e+00
    endloop
  endfacet
  facet normal 1.000000e+00 0.000000e+00 0.000000e+00
    outer loop
      vertex   1.200000e+01 3.300000e+01 -1.000000e+00
      vertex   1.200000e+01 3.288585e+01 -1.078934e+00
      vertex   1.200000e+01 3.294335e+01 -1.057943e+00
    endloop
  endfacet
  facet normal 1.000000e+00 -4.960740e-14 4.850206e-14
    outer loop
      vertex   1.200000e+01 3.300000e+01 -1.000000e+00
      vertex   1.200000e+01 3.294335e+01 -1.057943e+00
      vertex   1.200000e+01 3.300000e+01 -1.036624e+00
    endloop
  endfacet
endsolid
