solid ASCII
  facet normal 9.114657e-01 -3.738193e-01 -1.717246e-01
    outer loop
      vertex   1.237649e+01 2.500000e+01 0.000000e+00
      vertex   1.278662e+01 2.600000e+01 0.000000e+00
      vertex   1.238755e+01 2.500000e+01 5.869848e-02
    endloop
  endfacet
  facet normal 9.114657e-01 -3.738193e-01 -1.717246e-01
    outer loop
      vertex   1.238755e+01 2.500000e+01 5.869848e-02
      vertex   1.278662e+01 2.600000e+01 0.000000e+00
      vertex   1.279768e+01 2.600000e+01 5.869848e-02
    endloop
  endfacet
  facet normal 9.157941e-01 -3.755945e-01 -1.423025e-01
    outer loop
      vertex   1.238755e+01 2.500000e+01 5.869848e-02
      vertex   1.279768e+01 2.600000e+01 5.869848e-02
      vertex   1.239671e+01 2.500000e+01 1.176757e-01
    endloop
  endfacet
  facet normal 9.157941e-01 -3.755945e-01 -1.423025e-01
    outer loop
      vertex   1.239671e+01 2.500000e+01 1.176757e-01
      vertex   1.279768e+01 2.600000e+01 5.869848e-02
      vertex   1.280684e+01 2.600000e+01 1.176757e-01
    endloop
  endfacet
  facet normal 9.193096e-01 -3.770363e-01 -1.127540e-01
    outer loop
      vertex   1.239671e+01 2.500000e+01 1.176757e-01
      vertex   1.280684e+01 2.600000e+01 1.176757e-01
      vertex   1.240397e+01 2.500000e+01 1.768793e-01
    endloop
  endfacet
  facet normal 9.193096e-01 -3.770363e-01 -1.127540e-01
    outer loop
      vertex   1.240397e+01 2.500000e+01 1.768793e-01
      vertex   1.280684e+01 2.600000e+01 1.176757e-01
      vertex   1.281410e+01 2.600000e+01 1.768793e-01
    endloop
  endfacet
  facet normal 9.220092e-01 -3.781435e-01 -8.310540e-02
    outer loop
      vertex   1.240397e+01 2.500000e+01 1.768793e-01
      vertex   1.281410e+01 2.600000e+01 1.768793e-01
      vertex   1.240933e+01 2.500000e+01 2.362568e-01
    endloop
  endfacet
  facet normal 9.220092e-01 -3.781435e-01 -8.310540e-02
    outer loop
      vertex   1.240933e+01 2.500000e+01 2.362568e-01
      vertex   1.281410e+01 2.600000e+01 1.768793e-01
      vertex   1.281946e+01 2.600000e+01 2.362568e-01
    endloop
  endfacet
  facet normal 9.238905e-01 -3.789151e-01 -5.338308e-02
    outer loop
      vertex   1.240933e+01 2.500000e+01 2.362568e-01
      vertex   1.281946e+01 2.600000e+01 2.362568e-01
      vertex   1.241276e+01 2.500000e+01 2.957554e-01
    endloop
  endfacet
  facet normal 9.238905e-01 -3.789151e-01 -5.338308e-02
    outer loop
      vertex   1.241276e+01 2.500000e+01 2.957554e-01
      vertex   1.281946e+01 2.600000e+01 2.362568e-01
      vertex   1.282289e+01 2.600000e+01 2.957554e-01
    endloop
  endfacet
  facet normal 9.249517e-01 -3.793504e-01 -2.361337e-02
    outer loop
      vertex   1.241276e+01 2.500000e+01 2.957554e-01
      vertex   1.282289e+01 2.600000e+01 2.957554e-01
      vertex   1.241429e+01 2.500000e+01 3.553224e-01
    endloop
  endfacet
  facet normal 9.249517e-01 -3.793504e-01 -2.361337e-02
    outer loop
      vertex   1.241429e+01 2.500000e+01 3.553224e-01
      vertex   1.282289e+01 2.600000e+01 2.957554e-01
      vertex   1.282442e+01 2.600000e+01 3.553224e-01
    endloop
  endfacet
  facet normal 9.251921e-01 -3.794489e-01 6.177293e-03
    outer loop
      vertex   1.241429e+01 2.500000e+01 3.553224e-01
      vertex   1.282442e+01 2.600000e+01 3.553224e-01
      vertex   1.282402e+01 2.600000e+01 4.149049e-01
    endloop
  endfacet
  facet normal 9.251921e-01 -3.794489e-01 6.177293e-03
    outer loop
      vertex   1.241429e+01 2.500000e+01 3.553224e-01
      vertex   1.282402e+01 2.600000e+01 4.149049e-01
      vertex   1.241389e+01 2.500000e+01 4.149049e-01
    endloop
  endfacet
  facet normal 9.246112e-01 -3.792107e-01 3.596247e-02
    outer loop
      vertex   1.241389e+01 2.500000e+01 4.149049e-01
      vertex   1.282402e+01 2.600000e+01 4.149049e-01
      vertex   1.282170e+01 2.600000e+01 4.744499e-01
    endloop
  endfacet
  facet normal 9.246112e-01 -3.792107e-01 3.596247e-02
    outer loop
      vertex   1.241389e+01 2.500000e+01 4.149049e-01
      vertex   1.282170e+01 2.600000e+01 4.744499e-01
      vertex   1.241157e+01 2.500000e+01 4.744499e-01
    endloop
  endfacet
  facet normal 9.232098e-01 -3.786359e-01 6.571574e-02
    outer loop
      vertex   1.241157e+01 2.500000e+01 4.744499e-01
      vertex   1.282170e+01 2.600000e+01 4.744499e-01
      vertex   1.281747e+01 2.600000e+01 5.339047e-01
    endloop
  endfacet
  facet normal 9.232098e-01 -3.786359e-01 6.571574e-02
    outer loop
      vertex   1.241157e+01 2.500000e+01 4.744499e-01
      vertex   1.281747e+01 2.600000e+01 5.339047e-01
      vertex   1.240734e+01 2.500000e+01 5.339047e-01
    endloop
  endfacet
  facet normal 9.209889e-01 -3.777251e-01 9.541067e-02
    outer loop
      vertex   1.240734e+01 2.500000e+01 5.339047e-01
      vertex   1.281747e+01 2.600000e+01 5.339047e-01
      vertex   1.281132e+01 2.600000e+01 5.932165e-01
    endloop
  endfacet
  facet normal 9.209889e-01 -3.777251e-01 9.541067e-02
    outer loop
      vertex   1.240734e+01 2.500000e+01 5.339047e-01
      vertex   1.281132e+01 2.600000e+01 5.932165e-01
      vertex   1.240119e+01 2.500000e+01 5.932165e-01
    endloop
  endfacet
  facet normal 9.179506e-01 -3.764790e-01 1.250209e-01
    outer loop
      vertex   1.240119e+01 2.500000e+01 5.932165e-01
      vertex   1.281132e+01 2.600000e+01 5.932165e-01
      vertex   1.280327e+01 2.600000e+01 6.523326e-01
    endloop
  endfacet
  facet normal 9.179506e-01 -3.764790e-01 1.250209e-01
    outer loop
      vertex   1.240119e+01 2.500000e+01 5.932165e-01
      vertex   1.280327e+01 2.600000e+01 6.523326e-01
      vertex   1.239314e+01 2.500000e+01 6.523326e-01
    endloop
  endfacet
  facet normal 9.140976e-01 -3.748987e-01 1.545202e-01
    outer loop
      vertex   1.239314e+01 2.500000e+01 6.523326e-01
      vertex   1.280327e+01 2.600000e+01 6.523326e-01
      vertex   1.279332e+01 2.600000e+01 7.112006e-01
    endloop
  endfacet
  facet normal 9.140976e-01 -3.748987e-01 1.545202e-01
    outer loop
      vertex   1.239314e+01 2.500000e+01 6.523326e-01
      vertex   1.279332e+01 2.600000e+01 7.112006e-01
      vertex   1.238319e+01 2.500000e+01 7.112006e-01
    endloop
  endfacet
  facet normal 9.094333e-01 -3.729858e-01 1.838824e-01
    outer loop
      vertex   1.238319e+01 2.500000e+01 7.112006e-01
      vertex   1.279332e+01 2.600000e+01 7.112006e-01
      vertex   1.278148e+01 2.600000e+01 7.697681e-01
    endloop
  endfacet
  facet normal 9.094333e-01 -3.729858e-01 1.838824e-01
    outer loop
      vertex   1.238319e+01 2.500000e+01 7.112006e-01
      vertex   1.278148e+01 2.600000e+01 7.697681e-01
      vertex   1.237135e+01 2.500000e+01 7.697681e-01
    endloop
  endfacet
  facet normal 9.039618e-01 -3.707417e-01 2.130813e-01
    outer loop
      vertex   1.237135e+01 2.500000e+01 7.697681e-01
      vertex   1.278148e+01 2.600000e+01 7.697681e-01
      vertex   1.276776e+01 2.600000e+01 8.279834e-01
    endloop
  endfacet
  facet normal 9.039618e-01 -3.707417e-01 2.130813e-01
    outer loop
      vertex   1.237135e+01 2.500000e+01 7.697681e-01
      vertex   1.276776e+01 2.600000e+01 8.279834e-01
      vertex   1.235763e+01 2.500000e+01 8.279834e-01
    endloop
  endfacet
  facet normal 8.976880e-01 -3.681687e-01 2.420911e-01
    outer loop
      vertex   1.235763e+01 2.500000e+01 8.279834e-01
      vertex   1.276776e+01 2.600000e+01 8.279834e-01
      vertex   1.275217e+01 2.600000e+01 8.857946e-01
    endloop
  endfacet
  facet normal 8.976880e-01 -3.681687e-01 2.420911e-01
    outer loop
      vertex   1.235763e+01 2.500000e+01 8.279834e-01
      vertex   1.275217e+01 2.600000e+01 8.857946e-01
      vertex   1.234204e+01 2.500000e+01 8.857946e-01
    endloop
  endfacet
  facet normal 8.906174e-01 -3.652688e-01 2.708861e-01
    outer loop
      vertex   1.234204e+01 2.500000e+01 8.857946e-01
      vertex   1.275217e+01 2.600000e+01 8.857946e-01
      vertex   1.273472e+01 2.600000e+01 9.431504e-01
    endloop
  endfacet
  facet normal 8.906174e-01 -3.652688e-01 2.708861e-01
    outer loop
      vertex   1.234204e+01 2.500000e+01 8.857946e-01
      vertex   1.273472e+01 2.600000e+01 9.431504e-01
      vertex   1.232459e+01 2.500000e+01 9.431504e-01
    endloop
  endfacet
  facet normal 8.827564e-01 -3.620448e-01 2.994406e-01
    outer loop
      vertex   1.232459e+01 2.500000e+01 9.431504e-01
      vertex   1.273472e+01 2.600000e+01 9.431504e-01
      vertex   1.271544e+01 2.600000e+01 1.000000e+00
    endloop
  endfacet
  facet normal 8.827564e-01 -3.620448e-01 2.994406e-01
    outer loop
      vertex   1.232459e+01 2.500000e+01 9.431504e-01
      vertex   1.271544e+01 2.600000e+01 1.000000e+00
      vertex   1.230531e+01 2.500000e+01 1.000000e+00
    endloop
  endfacet
  facet normal 0.000000e+00 1.000000e+00 0.000000e+00
    outer loop
      vertex   1.271544e+01 2.600000e+01 1.000000e+00
      vertex   1.273472e+01 2.600000e+01 9.431504e-01
      vertex   1.200000e+01 2.600000e+01 1.000000e+00
    endloop
  endfacet
  facet normal 0.000000e+00 1.000000e+00 0.000000e+00
    outer loop
      vertex   1.200000e+01 2.600000e+01 1.000000e+00
      vertex   1.273472e+01 2.600000e+01 9.431504e-01
      vertex   1.275217e+01 2.600000e+01 8.857946e-01
    endloop
  endfacet
  facet normal 0.000000e+00 1.000000e+00 0.000000e+00
    outer loop
      vertex   1.200000e+01 2.600000e+01 1.000000e+00
      vertex   1.275217e+01 2.600000e+01 8.857946e-01
      vertex   1.276776e+01 2.600000e+01 8.279834e-01
    endloop
  endfacet
  facet normal 0.000000e+00 1.000000e+00 0.000000e+00
    outer loop
      vertex   1.276776e+01 2.600000e+01 8.279834e-01
      vertex   1.278148e+01 2.600000e+01 7.697681e-01
      vertex   1.200000e+01 2.600000e+01 1.000000e+00
    endloop
  endfacet
  facet normal 0.000000e+00 1.000000e+00 0.000000e+00
    outer loop
      vertex   1.200000e+01 2.600000e+01 1.000000e+00
      vertex   1.278148e+01 2.600000e+01 7.697681e-01
      vertex   1.279332e+01 2.600000e+01 7.112006e-01
    endloop
  endfacet
  facet normal 0.000000e+00 1.000000e+00 0.000000e+00
    outer loop
      vertex   1.200000e+01 2.600000e+01 1.000000e+00
      vertex   1.279332e+01 2.600000e+01 7.112006e-01
      vertex   1.280327e+01 2.600000e+01 6.523326e-01
    endloop
  endfacet
  facet normal 0.000000e+00 1.000000e+00 0.000000e+00
    outer loop
      vertex   1.280327e+01 2.600000e+01 6.523326e-01
      vertex   1.281132e+01 2.600000e+01 5.932165e-01
      vertex   1.200000e+01 2.600000e+01 1.000000e+00
    endloop
  endfacet
  facet normal 0.000000e+00 1.000000e+00 0.000000e+00
    outer loop
      vertex   1.200000e+01 2.600000e+01 1.000000e+00
      vertex   1.281132e+01 2.600000e+01 5.932165e-01
      vertex   1.200000e+01 2.600000e+01 0.000000e+00
    endloop
  endfacet
  facet normal 0.000000e+00 1.000000e+00 0.000000e+00
    outer loop
      vertex   1.200000e+01 2.600000e+01 0.000000e+00
      vertex   1.281132e+01 2.600000e+01 5.932165e-01
      vertex   1.281747e+01 2.600000e+01 5.339047e-01
    endloop
  endfacet
  facet normal 0.000000e+00 1.000000e+00 0.000000e+00
    outer loop
      vertex   1.200000e+01 2.600000e+01 0.000000e+00
      vertex   1.281747e+01 2.600000e+01 5.339047e-01
      vertex   1.282170e+01 2.600000e+01 4.744499e-01
    endloop
  endfacet
  facet normal 0.000000e+00 1.000000e+00 0.000000e+00
    outer loop
      vertex   1.282170e+01 2.600000e+01 4.744499e-01
      vertex   1.282402e+01 2.600000e+01 4.149049e-01
      vertex   1.200000e+01 2.600000e+01 0.000000e+00
    endloop
  endfacet
  facet normal 0.000000e+00 1.000000e+00 0.000000e+00
    outer loop
      vertex   1.200000e+01 2.600000e+01 0.000000e+00
      vertex   1.282402e+01 2.600000e+01 4.149049e-01
      vertex   1.282442e+01 2.600000e+01 3.553224e-01
    endloop
  endfacet
  facet normal 0.000000e+00 1.000000e+00 0.000000e+00
    outer loop
      vertex   1.200000e+01 2.600000e+01 0.000000e+00
      vertex   1.282442e+01 2.600000e+01 3.553224e-01
      vertex   1.282289e+01 2.600000e+01 2.957554e-01
    endloop
  endfacet
  facet normal 0.000000e+00 1.000000e+00 0.000000e+00
    outer loop
      vertex   1.282289e+01 2.600000e+01 2.957554e-01
      vertex   1.281946e+01 2.600000e+01 2.362568e-01
      vertex   1.200000e+01 2.600000e+01 0.000000e+00
    endloop
  endfacet
  facet normal 0.000000e+00 1.000000e+00 0.000000e+00
    outer loop
      vertex   1.200000e+01 2.600000e+01 0.000000e+00
      vertex   1.281946e+01 2.600000e+01 2.362568e-01
      vertex   1.281410e+01 2.600000e+01 1.768793e-01
    endloop
  endfacet
  facet normal 0.000000e+00 1.000000e+00 0.000000e+00
    outer loop
      vertex   1.200000e+01 2.600000e+01 0.000000e+00
      vertex   1.281410e+01 2.600000e+01 1.768793e-01
      vertex   1.280684e+01 2.600000e+01 1.176757e-01
    endloop
  endfacet
  facet normal 0.000000e+00 1.000000e+00 0.000000e+00
    outer loop
      vertex   1.280684e+01 2.600000e+01 1.176757e-01
      vertex   1.279768e+01 2.600000e+01 5.869848e-02
      vertex   1.200000e+01 2.600000e+01 0.000000e+00
    endloop
  endfacet
  facet normal 0.000000e+00 1.000000e+00 0.000000e+00
    outer loop
      vertex   1.200000e+01 2.600000e+01 0.000000e+00
      vertex   1.279768e+01 2.600000e+01 5.869848e-02
      vertex   1.278662e+01 2.600000e+01 0.000000e+00
    endloop
  endfacet
  facet normal -0.000000e+00 0.000000e+00 -1.000000e+00
    outer loop
      vertex   1.278662e+01 2.600000e+01 0.000000e+00
      vertex   1.237649e+01 2.500000e+01 0.000000e+00
      vertex   1.200000e+01 2.600000e+01 0.000000e+00
    endloop
  endfacet
  facet normal 0.000000e+00 0.000000e+00 -1.000000e+00
    outer loop
      vertex   1.200000e+01 2.600000e+01 0.000000e+00
      vertex   1.237649e+01 2.500000e+01 0.000000e+00
      vertex   1.200000e+01 2.500000e+01 0.000000e+00
    endloop
  endfacet
  facet normal 0.000000e+00 0.000000e+00 1.000000e+00
    outer loop
      vertex   1.271544e+01 2.600000e+01 1.000000e+00
      vertex   1.200000e+01 2.600000e+01 1.000000e+00
      vertex   1.230531e+01 2.500000e+01 1.000000e+00
    endloop
  endfacet
  facet normal 0.000000e+00 0.000000e+00 1.000000e+00
    outer loop
      vertex   1.230531e+01 2.500000e+01 1.000000e+00
      vertex   1.200000e+01 2.600000e+01 1.000000e+00
      vertex   1.200000e+01 2.500000e+01 1.000000e+00
    endloop
  endfacet
  facet normal 0.000000e+00 -1.000000e+00 0.000000e+00
    outer loop
      vertex   1.237649e+01 2.500000e+01 0.000000e+00
      vertex   1.238755e+01 2.500000e+01 5.869848e-02
      vertex   1.200000e+01 2.500000e+01 0.000000e+00
    endloop
  endfacet
  facet normal 0.000000e+00 -1.000000e+00 0.000000e+00
    outer loop
      vertex   1.200000e+01 2.500000e+01 0.000000e+00
      vertex   1.238755e+01 2.500000e+01 5.869848e-02
      vertex   1.239671e+01 2.500000e+01 1.176757e-01
    endloop
  endfacet
  facet normal 0.000000e+00 -1.000000e+00 0.000000e+00
    outer loop
      vertex   1.200000e+01 2.500000e+01 0.000000e+00
      vertex   1.239671e+01 2.500000e+01 1.176757e-01
      vertex   1.240397e+01 2.500000e+01 1.768793e-01
    endloop
  endfacet
  facet normal -0.000000e+00 -1.000000e+00 0.000000e+00
    outer loop
      vertex   1.240397e+01 2.500000e+01 1.768793e-01
      vertex   1.240933e+01 2.500000e+01 2.362568e-01
      vertex   1.200000e+01 2.500000e+01 0.000000e+00
    endloop
  endfacet
  facet normal 0.000000e+00 -1.000000e+00 0.000000e+00
    outer loop
      vertex   1.200000e+01 2.500000e+01 0.000000e+00
      vertex   1.240933e+01 2.500000e+01 2.362568e-01
      vertex   1.241276e+01 2.500000e+01 2.957554e-01
    endloop
  endfacet
  facet normal 0.000000e+00 -1.000000e+00 0.000000e+00
    outer loop
      vertex   1.200000e+01 2.500000e+01 0.000000e+00
      vertex   1.241276e+01 2.500000e+01 2.957554e-01
      vertex   1.241429e+01 2.500000e+01 3.553224e-01
    endloop
  endfacet
  facet normal -0.000000e+00 -1.000000e+00 0.000000e+00
    outer loop
      vertex   1.241429e+01 2.500000e+01 3.553224e-01
      vertex   1.241389e+01 2.500000e+01 4.149049e-01
      vertex   1.200000e+01 2.500000e+01 0.000000e+00
    endloop
  endfacet
  facet normal 0.000000e+00 -1.000000e+00 0.000000e+00
    outer loop
      vertex   1.200000e+01 2.500000e+01 0.000000e+00
      vertex   1.241389e+01 2.500000e+01 4.149049e-01
      vertex   1.241157e+01 2.500000e+01 4.744499e-01
    endloop
  endfacet
  facet normal 0.000000e+00 -1.000000e+00 0.000000e+00
    outer loop
      vertex   1.200000e+01 2.500000e+01 0.000000e+00
      vertex   1.241157e+01 2.500000e+01 4.744499e-01
      vertex   1.240734e+01 2.500000e+01 5.339047e-01
    endloop
  endfacet
  facet normal -0.000000e+00 -1.000000e+00 0.000000e+00
    outer loop
      vertex   1.240734e+01 2.500000e+01 5.339047e-01
      vertex   1.240119e+01 2.500000e+01 5.932165e-01
      vertex   1.200000e+01 2.500000e+01 0.000000e+00
    endloop
  endfacet
  facet normal 0.000000e+00 -1.000000e+00 0.000000e+00
    outer loop
      vertex   1.200000e+01 2.500000e+01 0.000000e+00
      vertex   1.240119e+01 2.500000e+01 5.932165e-01
      vertex   1.239314e+01 2.500000e+01 6.523326e-01
    endloop
  endfacet
  facet normal 0.000000e+00 -1.000000e+00 0.000000e+00
    outer loop
      vertex   1.200000e+01 2.500000e+01 0.000000e+00
      vertex   1.239314e+01 2.500000e+01 6.523326e-01
      vertex   1.238319e+01 2.500000e+01 7.112006e-01
    endloop
  endfacet
  facet normal 0.000000e+00 -1.000000e+00 0.000000e+00
    outer loop
      vertex   1.200000e+01 2.500000e+01 0.000000e+00
      vertex   1.238319e+01 2.500000e+01 7.112006e-01
      vertex   1.200000e+01 2.500000e+01 1.000000e+00
    endloop
  endfacet
  facet normal 0.000000e+00 -1.000000e+00 0.000000e+00
    outer loop
      vertex   1.200000e+01 2.500000e+01 1.000000e+00
      vertex   1.238319e+01 2.500000e+01 7.112006e-01
      vertex   1.237135e+01 2.500000e+01 7.697681e-01
    endloop
  endfacet
  facet normal 0.000000e+00 -1.000000e+00 0.000000e+00
    outer loop
      vertex   1.200000e+01 2.500000e+01 1.000000e+00
      vertex   1.237135e+01 2.500000e+01 7.697681e-01
      vertex   1.235763e+01 2.500000e+01 8.279834e-01
    endloop
  endfacet
  facet normal 0.000000e+00 -1.000000e+00 0.000000e+00
    outer loop
      vertex   1.235763e+01 2.500000e+01 8.279834e-01
      vertex   1.234204e+01 2.500000e+01 8.857946e-01
      vertex   1.200000e+01 2.500000e+01 1.000000e+00
    endloop
  endfacet
  facet normal 0.000000e+00 -1.000000e+00 0.000000e+00
    outer loop
      vertex   1.200000e+01 2.500000e+01 1.000000e+00
      vertex   1.234204e+01 2.500000e+01 8.857946e-01
      vertex   1.232459e+01 2.500000e+01 9.431504e-01
    endloop
  endfacet
  facet normal 0.000000e+00 -1.000000e+00 0.000000e+00
    outer loop
      vertex   1.200000e+01 2.500000e+01 1.000000e+00
      vertex   1.232459e+01 2.500000e+01 9.431504e-01
      vertex   1.230531e+01 2.500000e+01 1.000000e+00
    endloop
  endfacet
  facet normal -1.000000e+00 -0.000000e+00 -0.000000e+00
    outer loop
      vertex   1.200000e+01 2.600000e+01 1.000000e+00
      vertex   1.200000e+01 2.600000e+01 0.000000e+00
      vertex   1.200000e+01 2.500000e+01 1.000000e+00
    endloop
  endfacet
  facet normal -1.000000e+00 0.000000e+00 0.000000e+00
    outer loop
      vertex   1.200000e+01 2.500000e+01 1.000000e+00
      vertex   1.200000e+01 2.600000e+01 0.000000e+00
      vertex   1.200000e+01 2.500000e+01 0.000000e+00
    endloop
  endfacet
endsolid
