solid ASCII
  facet normal 3.197164e-02 -1.423940e-02 -9.993873e-01
    outer loop
      vertex   1.200000e+01 2.900000e+01 -1.624798e+00
      vertex   1.193581e+01 2.900000e+01 -1.626851e+00
      vertex   1.200000e+01 2.912523e+01 -1.626582e+00
    endloop
  endfacet
  facet normal 1.437488e-02 -5.218972e-03 -9.998831e-01
    outer loop
      vertex   1.200000e+01 2.912523e+01 -1.626582e+00
      vertex   1.193581e+01 2.900000e+01 -1.626851e+00
      vertex   1.200000e+01 2.925053e+01 -1.627236e+00
    endloop
  endfacet
  facet normal 4.488712e-03 -2.686285e-03 -9.999863e-01
    outer loop
      vertex   1.200000e+01 2.925053e+01 -1.627236e+00
      vertex   1.193581e+01 2.900000e+01 -1.626851e+00
      vertex   1.187159e+01 2.900000e+01 -1.627139e+00
    endloop
  endfacet
  facet normal -8.171816e-03 3.802901e-03 -9.999594e-01
    outer loop
      vertex   1.200000e+01 2.925053e+01 -1.627236e+00
      vertex   1.187159e+01 2.900000e+01 -1.627139e+00
      vertex   1.200000e+01 2.937584e+01 -1.626760e+00
    endloop
  endfacet
  facet normal -2.299877e-02 8.868434e-03 -9.996962e-01
    outer loop
      vertex   1.200000e+01 2.937584e+01 -1.626760e+00
      vertex   1.187159e+01 2.900000e+01 -1.627139e+00
      vertex   1.180738e+01 2.900000e+01 -1.625662e+00
    endloop
  endfacet
  facet normal -3.071349e-02 1.282289e-02 -9.994460e-01
    outer loop
      vertex   1.200000e+01 2.937584e+01 -1.626760e+00
      vertex   1.180738e+01 2.900000e+01 -1.625662e+00
      vertex   1.200000e+01 2.950109e+01 -1.625153e+00
    endloop
  endfacet
  facet normal -5.046602e-02 2.041474e-02 -9.985171e-01
    outer loop
      vertex   1.200000e+01 2.950109e+01 -1.625153e+00
      vertex   1.180738e+01 2.900000e+01 -1.625662e+00
      vertex   1.174325e+01 2.900000e+01 -1.622421e+00
    endloop
  endfacet
  facet normal -5.323652e-02 2.183523e-02 -9.983432e-01
    outer loop
      vertex   1.200000e+01 2.950109e+01 -1.625153e+00
      vertex   1.174325e+01 2.900000e+01 -1.622421e+00
      vertex   1.200000e+01 2.962620e+01 -1.622416e+00
    endloop
  endfacet
  facet normal -7.518782e-02 3.083543e-02 -9.966925e-01
    outer loop
      vertex   1.200000e+01 2.962620e+01 -1.622416e+00
      vertex   1.174325e+01 2.900000e+01 -1.622421e+00
      vertex   1.200000e+01 2.975110e+01 -1.618552e+00
    endloop
  endfacet
  facet normal -7.788872e-02 3.175745e-02 -9.964561e-01
    outer loop
      vertex   1.200000e+01 2.975110e+01 -1.618552e+00
      vertex   1.174325e+01 2.900000e+01 -1.622421e+00
      vertex   1.167926e+01 2.900000e+01 -1.617419e+00
    endloop
  endfacet
  facet normal -9.676109e-02 3.981948e-02 -9.945108e-01
    outer loop
      vertex   1.200000e+01 2.975110e+01 -1.618552e+00
      vertex   1.167926e+01 2.900000e+01 -1.617419e+00
      vertex   1.200000e+01 2.987572e+01 -1.613562e+00
    endloop
  endfacet
  facet normal -1.052431e-01 4.292175e-02 -9.935198e-01
    outer loop
      vertex   1.200000e+01 2.987572e+01 -1.613562e+00
      vertex   1.167926e+01 2.900000e+01 -1.617419e+00
      vertex   1.161545e+01 2.900000e+01 -1.610660e+00
    endloop
  endfacet
  facet normal -1.185719e-01 4.878061e-02 -9.917465e-01
    outer loop
      vertex   1.200000e+01 2.987572e+01 -1.613562e+00
      vertex   1.161545e+01 2.900000e+01 -1.610660e+00
      vertex   1.200000e+01 3.000000e+01 -1.607450e+00
    endloop
  endfacet
  facet normal -1.325044e-01 5.413182e-02 -9.897032e-01
    outer loop
      vertex   1.200000e+01 3.000000e+01 -1.607450e+00
      vertex   1.161545e+01 2.900000e+01 -1.610660e+00
      vertex   1.155189e+01 2.900000e+01 -1.602150e+00
    endloop
  endfacet
  facet normal -1.434601e-01 5.905079e-02 -9.878928e-01
    outer loop
      vertex   1.200000e+01 3.000000e+01 -1.607450e+00
      vertex   1.155189e+01 2.900000e+01 -1.602150e+00
      vertex   1.193639e+01 3.000000e+01 -1.598212e+00
    endloop
  endfacet
  facet normal -1.596490e-01 6.526420e-02 -9.850141e-01
    outer loop
      vertex   1.193639e+01 3.000000e+01 -1.598212e+00
      vertex   1.155189e+01 2.900000e+01 -1.602150e+00
      vertex   1.148862e+01 2.900000e+01 -1.591896e+00
    endloop
  endfacet
  facet normal -1.706176e-01 7.018933e-02 -9.828342e-01
    outer loop
      vertex   1.193639e+01 3.000000e+01 -1.598212e+00
      vertex   1.148862e+01 2.900000e+01 -1.591896e+00
      vertex   1.187311e+01 3.000000e+01 -1.587227e+00
    endloop
  endfacet
  facet normal -1.866528e-01 7.633884e-02 -9.794555e-01
    outer loop
      vertex   1.187311e+01 3.000000e+01 -1.587227e+00
      vertex   1.148862e+01 2.900000e+01 -1.591896e+00
      vertex   1.142572e+01 2.900000e+01 -1.579909e+00
    endloop
  endfacet
  facet normal -1.976236e-01 8.126572e-02 -9.769037e-01
    outer loop
      vertex   1.187311e+01 3.000000e+01 -1.587227e+00
      vertex   1.142572e+01 2.900000e+01 -1.579909e+00
      vertex   1.181021e+01 3.000000e+01 -1.574502e+00
    endloop
  endfacet
  facet normal -2.134920e-01 8.734598e-02 -9.730323e-01
    outer loop
      vertex   1.181021e+01 3.000000e+01 -1.574502e+00
      vertex   1.142572e+01 2.900000e+01 -1.579909e+00
      vertex   1.136323e+01 2.900000e+01 -1.566197e+00
    endloop
  endfacet
  facet normal -2.244542e-01 9.227014e-02 -9.701065e-01
    outer loop
      vertex   1.181021e+01 3.000000e+01 -1.574502e+00
      vertex   1.136323e+01 2.900000e+01 -1.566197e+00
      vertex   1.174774e+01 3.000000e+01 -1.560050e+00
    endloop
  endfacet
  facet normal -2.401428e-01 9.827588e-02 -9.657501e-01
    outer loop
      vertex   1.174774e+01 3.000000e+01 -1.560050e+00
      vertex   1.136323e+01 2.900000e+01 -1.566197e+00
      vertex   1.130120e+01 2.900000e+01 -1.550775e+00
    endloop
  endfacet
  facet normal -2.510855e-01 1.031928e-01 -9.624486e-01
    outer loop
      vertex   1.174774e+01 3.000000e+01 -1.560050e+00
      vertex   1.130120e+01 2.900000e+01 -1.550775e+00
      vertex   1.168577e+01 3.000000e+01 -1.543882e+00
    endloop
  endfacet
  facet normal -2.665818e-01 1.091189e-01 -9.576154e-01
    outer loop
      vertex   1.168577e+01 3.000000e+01 -1.543882e+00
      vertex   1.130120e+01 2.900000e+01 -1.550775e+00
      vertex   1.123970e+01 2.900000e+01 -1.533654e+00
    endloop
  endfacet
  facet normal -2.774939e-01 1.140241e-01 -9.539369e-01
    outer loop
      vertex   1.168577e+01 3.000000e+01 -1.543882e+00
      vertex   1.123970e+01 2.900000e+01 -1.533654e+00
      vertex   1.162435e+01 3.000000e+01 -1.526015e+00
    endloop
  endfacet
  facet normal -2.927856e-01 1.198655e-01 -9.486353e-01
    outer loop
      vertex   1.162435e+01 3.000000e+01 -1.526015e+00
      vertex   1.123970e+01 2.900000e+01 -1.533654e+00
      vertex   1.117878e+01 2.900000e+01 -1.514850e+00
    endloop
  endfacet
  facet normal -3.036560e-01 1.247543e-01 -9.445790e-01
    outer loop
      vertex   1.162435e+01 3.000000e+01 -1.526015e+00
      vertex   1.117878e+01 2.900000e+01 -1.514850e+00
      vertex   1.156353e+01 3.000000e+01 -1.506463e+00
    endloop
  endfacet
  facet normal -3.187310e-01 1.305061e-01 -9.388177e-01
    outer loop
      vertex   1.156353e+01 3.000000e+01 -1.506463e+00
      vertex   1.117878e+01 2.900000e+01 -1.514850e+00
      vertex   1.111848e+01 2.900000e+01 -1.494380e+00
    endloop
  endfacet
  facet normal -3.295485e-01 1.353740e-01 -9.343830e-01
    outer loop
      vertex   1.156353e+01 3.000000e+01 -1.506463e+00
      vertex   1.111848e+01 2.900000e+01 -1.494380e+00
      vertex   1.150336e+01 3.000000e+01 -1.485243e+00
    endloop
  endfacet
  facet normal -3.443952e-01 1.410314e-01 -9.281714e-01
    outer loop
      vertex   1.150336e+01 3.000000e+01 -1.485243e+00
      vertex   1.111848e+01 2.900000e+01 -1.494380e+00
      vertex   1.105887e+01 2.900000e+01 -1.472262e+00
    endloop
  endfacet
  facet normal -3.551486e-01 1.458737e-01 -9.233582e-01
    outer loop
      vertex   1.150336e+01 3.000000e+01 -1.485243e+00
      vertex   1.105887e+01 2.900000e+01 -1.472262e+00
      vertex   1.144391e+01 3.000000e+01 -1.462376e+00
    endloop
  endfacet
  facet normal -3.697555e-01 1.514321e-01 -9.167056e-01
    outer loop
      vertex   1.144391e+01 3.000000e+01 -1.462376e+00
      vertex   1.105887e+01 2.900000e+01 -1.472262e+00
      vertex   1.100000e+01 2.900000e+01 -1.448515e+00
    endloop
  endfacet
  facet normal -3.804335e-01 1.562441e-01 -9.115142e-01
    outer loop
      vertex   1.144391e+01 3.000000e+01 -1.462376e+00
      vertex   1.100000e+01 2.900000e+01 -1.448515e+00
      vertex   1.138522e+01 3.000000e+01 -1.437880e+00
    endloop
  endfacet
  facet normal -3.881483e-01 1.591759e-01 -9.077466e-01
    outer loop
      vertex   1.138522e+01 3.000000e+01 -1.437880e+00
      vertex   1.100000e+01 2.900000e+01 -1.448515e+00
      vertex   1.100000e+01 2.906615e+01 -1.436916e+00
    endloop
  endfacet
  facet normal -3.996535e-01 1.639279e-01 -9.018896e-01
    outer loop
      vertex   1.138522e+01 3.000000e+01 -1.437880e+00
      vertex   1.100000e+01 2.906615e+01 -1.436916e+00
      vertex   1.100000e+01 2.913186e+01 -1.424971e+00
    endloop
  endfacet
  facet normal -4.053782e-01 1.665132e-01 -8.988559e-01
    outer loop
      vertex   1.138522e+01 3.000000e+01 -1.437880e+00
      vertex   1.100000e+01 2.913186e+01 -1.424971e+00
      vertex   1.132734e+01 3.000000e+01 -1.411777e+00
    endloop
  endfacet
  facet normal -4.111500e-01 1.686436e-01 -8.958320e-01
    outer loop
      vertex   1.132734e+01 3.000000e+01 -1.411777e+00
      vertex   1.100000e+01 2.913186e+01 -1.424971e+00
      vertex   1.100000e+01 2.919714e+01 -1.412683e+00
    endloop
  endfacet
  facet normal -4.226390e-01 1.733207e-01 -8.895708e-01
    outer loop
      vertex   1.132734e+01 3.000000e+01 -1.411777e+00
      vertex   1.100000e+01 2.919714e+01 -1.412683e+00
      vertex   1.100000e+01 2.926196e+01 -1.400053e+00
    endloop
  endfacet
  facet normal -4.299624e-01 1.766352e-01 -8.853995e-01
    outer loop
      vertex   1.132734e+01 3.000000e+01 -1.411777e+00
      vertex   1.100000e+01 2.926196e+01 -1.400053e+00
      vertex   1.127033e+01 3.000000e+01 -1.384092e+00
    endloop
  endfacet
  facet normal -4.337847e-01 1.779889e-01 -8.832614e-01
    outer loop
      vertex   1.127033e+01 3.000000e+01 -1.384092e+00
      vertex   1.100000e+01 2.926196e+01 -1.400053e+00
      vertex   1.100000e+01 2.932632e+01 -1.387085e+00
    endloop
  endfacet
  facet normal -4.452994e-01 1.825797e-01 -8.765690e-01
    outer loop
      vertex   1.127033e+01 3.000000e+01 -1.384092e+00
      vertex   1.100000e+01 2.932632e+01 -1.387085e+00
      vertex   1.100000e+01 2.939019e+01 -1.373780e+00
    endloop
  endfacet
  facet normal -4.541643e-01 1.866010e-01 -8.711572e-01
    outer loop
      vertex   1.127033e+01 3.000000e+01 -1.384092e+00
      vertex   1.100000e+01 2.939019e+01 -1.373780e+00
      vertex   1.121423e+01 3.000000e+01 -1.354847e+00
    endloop
  endfacet
  facet normal -4.559971e-01 1.872111e-01 -8.700682e-01
    outer loop
      vertex   1.121423e+01 3.000000e+01 -1.354847e+00
      vertex   1.100000e+01 2.939019e+01 -1.373780e+00
      vertex   1.100000e+01 2.945358e+01 -1.360141e+00
    endloop
  endfacet
  facet normal -4.676172e-01 1.916974e-01 -8.628941e-01
    outer loop
      vertex   1.121423e+01 3.000000e+01 -1.354847e+00
      vertex   1.100000e+01 2.945358e+01 -1.360141e+00
      vertex   1.100000e+01 2.951646e+01 -1.346172e+00
    endloop
  endfacet
  facet normal -4.777574e-01 1.963088e-01 -8.562772e-01
    outer loop
      vertex   1.100000e+01 2.951646e+01 -1.346172e+00
      vertex   1.100000e+01 2.957883e+01 -1.331873e+00
      vertex   1.121423e+01 3.000000e+01 -1.354847e+00
    endloop
  endfacet
  facet normal -4.779606e-01 1.964198e-01 -8.561384e-01
    outer loop
      vertex   1.121423e+01 3.000000e+01 -1.354847e+00
      vertex   1.100000e+01 2.957883e+01 -1.331873e+00
      vertex   1.115910e+01 3.000000e+01 -1.324070e+00
    endloop
  endfacet
  facet normal -4.895753e-01 2.006669e-01 -8.485569e-01
    outer loop
      vertex   1.115910e+01 3.000000e+01 -1.324070e+00
      vertex   1.100000e+01 2.957883e+01 -1.331873e+00
      vertex   1.100000e+01 2.964067e+01 -1.317249e+00
    endloop
  endfacet
  facet normal -4.995449e-01 2.052128e-01 -8.416309e-01
    outer loop
      vertex   1.115910e+01 3.000000e+01 -1.324070e+00
      vertex   1.100000e+01 2.964067e+01 -1.317249e+00
      vertex   1.100000e+01 2.970197e+01 -1.302302e+00
    endloop
  endfacet
  facet normal -5.013115e-01 2.062513e-01 -8.403257e-01
    outer loop
      vertex   1.115910e+01 3.000000e+01 -1.324070e+00
      vertex   1.100000e+01 2.970197e+01 -1.302302e+00
      vertex   1.110499e+01 3.000000e+01 -1.291788e+00
    endloop
  endfacet
  facet normal -5.111567e-01 2.094812e-01 -8.335685e-01
    outer loop
      vertex   1.110499e+01 3.000000e+01 -1.291788e+00
      vertex   1.100000e+01 2.970197e+01 -1.302302e+00
      vertex   1.100000e+01 2.976273e+01 -1.287034e+00
    endloop
  endfacet
  facet normal -5.209481e-01 2.139586e-01 -8.263382e-01
    outer loop
      vertex   1.110499e+01 3.000000e+01 -1.291788e+00
      vertex   1.100000e+01 2.976273e+01 -1.287034e+00
      vertex   1.100000e+01 2.982292e+01 -1.271450e+00
    endloop
  endfacet
  facet normal -5.241794e-01 2.161759e-01 -8.237135e-01
    outer loop
      vertex   1.110499e+01 3.000000e+01 -1.291788e+00
      vertex   1.100000e+01 2.982292e+01 -1.271450e+00
      vertex   1.105194e+01 3.000000e+01 -1.258028e+00
    endloop
  endfacet
  facet normal -5.323449e-01 2.181334e-01 -8.179405e-01
    outer loop
      vertex   1.105194e+01 3.000000e+01 -1.258028e+00
      vertex   1.100000e+01 2.982292e+01 -1.271450e+00
      vertex   1.100000e+01 2.988253e+01 -1.255551e+00
    endloop
  endfacet
  facet normal -5.419505e-01 2.225395e-01 -8.104109e-01
    outer loop
      vertex   1.105194e+01 3.000000e+01 -1.258028e+00
      vertex   1.100000e+01 2.988253e+01 -1.255551e+00
      vertex   1.100000e+01 2.994156e+01 -1.239341e+00
    endloop
  endfacet
  facet normal -5.463189e-01 2.278348e-01 -8.059944e-01
    outer loop
      vertex   1.100000e+01 2.994156e+01 -1.239341e+00
      vertex   1.100000e+01 3.000000e+01 -1.222822e+00
      vertex   1.105194e+01 3.000000e+01 -1.258028e+00
    endloop
  endfacet
  facet normal -1.000000e+00 6.530437e-14 -1.594415e-14
    outer loop
      vertex   1.100000e+01 3.000000e+01 -1.222822e+00
      vertex   1.100000e+01 2.994156e+01 -1.239341e+00
      vertex   1.100000e+01 3.000000e+01 -1.000000e+00
    endloop
  endfacet
  facet normal -1.000000e+00 0.000000e+00 0.000000e+00
    outer loop
      vertex   1.100000e+01 3.000000e+01 -1.000000e+00
      vertex   1.100000e+01 2.994156e+01 -1.239341e+00
      vertex   1.100000e+01 2.988253e+01 -1.255551e+00
    endloop
  endfacet
  facet normal -1.000000e+00 0.000000e+00 0.000000e+00
    outer loop
      vertex   1.100000e+01 3.000000e+01 -1.000000e+00
      vertex   1.100000e+01 2.988253e+01 -1.255551e+00
      vertex   1.100000e+01 2.982292e+01 -1.271450e+00
    endloop
  endfacet
  facet normal -1.000000e+00 -0.000000e+00 0.000000e+00
    outer loop
      vertex   1.100000e+01 2.982292e+01 -1.271450e+00
      vertex   1.100000e+01 2.976273e+01 -1.287034e+00
      vertex   1.100000e+01 3.000000e+01 -1.000000e+00
    endloop
  endfacet
  facet normal -1.000000e+00 -0.000000e+00 0.000000e+00
    outer loop
      vertex   1.100000e+01 3.000000e+01 -1.000000e+00
      vertex   1.100000e+01 2.976273e+01 -1.287034e+00
      vertex   1.100000e+01 2.900000e+01 -1.000000e+00
    endloop
  endfacet
  facet normal -1.000000e+00 0.000000e+00 0.000000e+00
    outer loop
      vertex   1.100000e+01 2.900000e+01 -1.000000e+00
      vertex   1.100000e+01 2.976273e+01 -1.287034e+00
      vertex   1.100000e+01 2.970197e+01 -1.302302e+00
    endloop
  endfacet
  facet normal -1.000000e+00 0.000000e+00 0.000000e+00
    outer loop
      vertex   1.100000e+01 2.900000e+01 -1.000000e+00
      vertex   1.100000e+01 2.970197e+01 -1.302302e+00
      vertex   1.100000e+01 2.964067e+01 -1.317249e+00
    endloop
  endfacet
  facet normal -1.000000e+00 -0.000000e+00 0.000000e+00
    outer loop
      vertex   1.100000e+01 2.964067e+01 -1.317249e+00
      vertex   1.100000e+01 2.957883e+01 -1.331873e+00
      vertex   1.100000e+01 2.900000e+01 -1.000000e+00
    endloop
  endfacet
  facet normal -1.000000e+00 0.000000e+00 0.000000e+00
    outer loop
      vertex   1.100000e+01 2.900000e+01 -1.000000e+00
      vertex   1.100000e+01 2.957883e+01 -1.331873e+00
      vertex   1.100000e+01 2.951646e+01 -1.346172e+00
    endloop
  endfacet
  facet normal -1.000000e+00 0.000000e+00 0.000000e+00
    outer loop
      vertex   1.100000e+01 2.900000e+01 -1.000000e+00
      vertex   1.100000e+01 2.951646e+01 -1.346172e+00
      vertex   1.100000e+01 2.945358e+01 -1.360141e+00
    endloop
  endfacet
  facet normal -1.000000e+00 -0.000000e+00 0.000000e+00
    outer loop
      vertex   1.100000e+01 2.945358e+01 -1.360141e+00
      vertex   1.100000e+01 2.939019e+01 -1.373780e+00
      vertex   1.100000e+01 2.900000e+01 -1.000000e+00
    endloop
  endfacet
  facet normal -1.000000e+00 0.000000e+00 0.000000e+00
    outer loop
      vertex   1.100000e+01 2.900000e+01 -1.000000e+00
      vertex   1.100000e+01 2.939019e+01 -1.373780e+00
      vertex   1.100000e+01 2.932632e+01 -1.387085e+00
    endloop
  endfacet
  facet normal -1.000000e+00 0.000000e+00 0.000000e+00
    outer loop
      vertex   1.100000e+01 2.900000e+01 -1.000000e+00
      vertex   1.100000e+01 2.932632e+01 -1.387085e+00
      vertex   1.100000e+01 2.926196e+01 -1.400053e+00
    endloop
  endfacet
  facet normal -1.000000e+00 -0.000000e+00 0.000000e+00
    outer loop
      vertex   1.100000e+01 2.926196e+01 -1.400053e+00
      vertex   1.100000e+01 2.919714e+01 -1.412683e+00
      vertex   1.100000e+01 2.900000e+01 -1.000000e+00
    endloop
  endfacet
  facet normal -1.000000e+00 0.000000e+00 0.000000e+00
    outer loop
      vertex   1.100000e+01 2.900000e+01 -1.000000e+00
      vertex   1.100000e+01 2.919714e+01 -1.412683e+00
      vertex   1.100000e+01 2.913186e+01 -1.424971e+00
    endloop
  endfacet
  facet normal -1.000000e+00 0.000000e+00 0.000000e+00
    outer loop
      vertex   1.100000e+01 2.900000e+01 -1.000000e+00
      vertex   1.100000e+01 2.913186e+01 -1.424971e+00
      vertex   1.100000e+01 2.906615e+01 -1.436916e+00
    endloop
  endfacet
  facet normal -1.000000e+00 -5.232108e-14 -7.921055e-15
    outer loop
      vertex   1.100000e+01 2.906615e+01 -1.436916e+00
      vertex   1.100000e+01 2.900000e+01 -1.448515e+00
      vertex   1.100000e+01 2.900000e+01 -1.000000e+00
    endloop
  endfacet
  facet normal 1.270796e-13 -1.000000e+00 1.584211e-14
    outer loop
      vertex   1.100000e+01 2.900000e+01 -1.448515e+00
      vertex   1.105887e+01 2.900000e+01 -1.472262e+00
      vertex   1.100000e+01 2.900000e+01 -1.000000e+00
    endloop
  endfacet
  facet normal 0.000000e+00 -1.000000e+00 0.000000e+00
    outer loop
      vertex   1.100000e+01 2.900000e+01 -1.000000e+00
      vertex   1.105887e+01 2.900000e+01 -1.472262e+00
      vertex   1.111848e+01 2.900000e+01 -1.494380e+00
    endloop
  endfacet
  facet normal 0.000000e+00 -1.000000e+00 0.000000e+00
    outer loop
      vertex   1.100000e+01 2.900000e+01 -1.000000e+00
      vertex   1.111848e+01 2.900000e+01 -1.494380e+00
      vertex   1.117878e+01 2.900000e+01 -1.514850e+00
    endloop
  endfacet
  facet normal 0.000000e+00 -1.000000e+00 0.000000e+00
    outer loop
      vertex   1.117878e+01 2.900000e+01 -1.514850e+00
      vertex   1.123970e+01 2.900000e+01 -1.533654e+00
      vertex   1.100000e+01 2.900000e+01 -1.000000e+00
    endloop
  endfacet
  facet normal 0.000000e+00 -1.000000e+00 0.000000e+00
    outer loop
      vertex   1.100000e+01 2.900000e+01 -1.000000e+00
      vertex   1.123970e+01 2.900000e+01 -1.533654e+00
      vertex   1.200000e+01 2.900000e+01 -1.000000e+00
    endloop
  endfacet
  facet normal 0.000000e+00 -1.000000e+00 0.000000e+00
    outer loop
      vertex   1.200000e+01 2.900000e+01 -1.000000e+00
      vertex   1.123970e+01 2.900000e+01 -1.533654e+00
      vertex   1.130120e+01 2.900000e+01 -1.550775e+00
    endloop
  endfacet
  facet normal 0.000000e+00 -1.000000e+00 0.000000e+00
    outer loop
      vertex   1.200000e+01 2.900000e+01 -1.000000e+00
      vertex   1.130120e+01 2.900000e+01 -1.550775e+00
      vertex   1.136323e+01 2.900000e+01 -1.566197e+00
    endloop
  endfacet
  facet normal 0.000000e+00 -1.000000e+00 0.000000e+00
    outer loop
      vertex   1.136323e+01 2.900000e+01 -1.566197e+00
      vertex   1.142572e+01 2.900000e+01 -1.579909e+00
      vertex   1.200000e+01 2.900000e+01 -1.000000e+00
    endloop
  endfacet
  facet normal 0.000000e+00 -1.000000e+00 0.000000e+00
    outer loop
      vertex   1.200000e+01 2.900000e+01 -1.000000e+00
      vertex   1.142572e+01 2.900000e+01 -1.579909e+00
      vertex   1.148862e+01 2.900000e+01 -1.591896e+00
    endloop
  endfacet
  facet normal 0.000000e+00 -1.000000e+00 0.000000e+00
    outer loop
      vertex   1.200000e+01 2.900000e+01 -1.000000e+00
      vertex   1.148862e+01 2.900000e+01 -1.591896e+00
      vertex   1.155189e+01 2.900000e+01 -1.602150e+00
    endloop
  endfacet
  facet normal 0.000000e+00 -1.000000e+00 0.000000e+00
    outer loop
      vertex   1.155189e+01 2.900000e+01 -1.602150e+00
      vertex   1.161545e+01 2.900000e+01 -1.610660e+00
      vertex   1.200000e+01 2.900000e+01 -1.000000e+00
    endloop
  endfacet
  facet normal 0.000000e+00 -1.000000e+00 0.000000e+00
    outer loop
      vertex   1.200000e+01 2.900000e+01 -1.000000e+00
      vertex   1.161545e+01 2.900000e+01 -1.610660e+00
      vertex   1.167926e+01 2.900000e+01 -1.617419e+00
    endloop
  endfacet
  facet normal 0.000000e+00 -1.000000e+00 0.000000e+00
    outer loop
      vertex   1.200000e+01 2.900000e+01 -1.000000e+00
      vertex   1.167926e+01 2.900000e+01 -1.617419e+00
      vertex   1.174325e+01 2.900000e+01 -1.622421e+00
    endloop
  endfacet
  facet normal 0.000000e+00 -1.000000e+00 0.000000e+00
    outer loop
      vertex   1.174325e+01 2.900000e+01 -1.622421e+00
      vertex   1.180738e+01 2.900000e+01 -1.625662e+00
      vertex   1.200000e+01 2.900000e+01 -1.000000e+00
    endloop
  endfacet
  facet normal 0.000000e+00 -1.000000e+00 0.000000e+00
    outer loop
      vertex   1.200000e+01 2.900000e+01 -1.000000e+00
      vertex   1.180738e+01 2.900000e+01 -1.625662e+00
      vertex   1.187159e+01 2.900000e+01 -1.627139e+00
    endloop
  endfacet
  facet normal 0.000000e+00 -1.000000e+00 0.000000e+00
    outer loop
      vertex   1.200000e+01 2.900000e+01 -1.000000e+00
      vertex   1.187159e+01 2.900000e+01 -1.627139e+00
      vertex   1.193581e+01 2.900000e+01 -1.626851e+00
    endloop
  endfacet
  facet normal -1.110632e-13 -1.000000e+00 1.137236e-14
    outer loop
      vertex   1.193581e+01 2.900000e+01 -1.626851e+00
      vertex   1.200000e+01 2.900000e+01 -1.624798e+00
      vertex   1.200000e+01 2.900000e+01 -1.000000e+00
    endloop
  endfacet
  facet normal 0.000000e+00 0.000000e+00 1.000000e+00
    outer loop
      vertex   1.200000e+01 3.000000e+01 -1.000000e+00
      vertex   1.100000e+01 3.000000e+01 -1.000000e+00
      vertex   1.200000e+01 2.900000e+01 -1.000000e+00
    endloop
  endfacet
  facet normal 0.000000e+00 0.000000e+00 1.000000e+00
    outer loop
      vertex   1.200000e+01 2.900000e+01 -1.000000e+00
      vertex   1.100000e+01 3.000000e+01 -1.000000e+00
      vertex   1.100000e+01 2.900000e+01 -1.000000e+00
    endloop
  endfacet
  facet normal 5.500333e-14 1.000000e+00 -5.848574e-15
    outer loop
      vertex   1.200000e+01 3.000000e+01 -1.607450e+00
      vertex   1.193639e+01 3.000000e+01 -1.598212e+00
      vertex   1.200000e+01 3.000000e+01 -1.000000e+00
    endloop
  endfacet
  facet normal 0.000000e+00 1.000000e+00 0.000000e+00
    outer loop
      vertex   1.200000e+01 3.000000e+01 -1.000000e+00
      vertex   1.193639e+01 3.000000e+01 -1.598212e+00
      vertex   1.187311e+01 3.000000e+01 -1.587227e+00
    endloop
  endfacet
  facet normal 0.000000e+00 1.000000e+00 0.000000e+00
    outer loop
      vertex   1.200000e+01 3.000000e+01 -1.000000e+00
      vertex   1.187311e+01 3.000000e+01 -1.587227e+00
      vertex   1.181021e+01 3.000000e+01 -1.574502e+00
    endloop
  endfacet
  facet normal 0.000000e+00 1.000000e+00 -0.000000e+00
    outer loop
      vertex   1.181021e+01 3.000000e+01 -1.574502e+00
      vertex   1.174774e+01 3.000000e+01 -1.560050e+00
      vertex   1.200000e+01 3.000000e+01 -1.000000e+00
    endloop
  endfacet
  facet normal 0.000000e+00 1.000000e+00 0.000000e+00
    outer loop
      vertex   1.200000e+01 3.000000e+01 -1.000000e+00
      vertex   1.174774e+01 3.000000e+01 -1.560050e+00
      vertex   1.168577e+01 3.000000e+01 -1.543882e+00
    endloop
  endfacet
  facet normal 0.000000e+00 1.000000e+00 0.000000e+00
    outer loop
      vertex   1.200000e+01 3.000000e+01 -1.000000e+00
      vertex   1.168577e+01 3.000000e+01 -1.543882e+00
      vertex   1.162435e+01 3.000000e+01 -1.526015e+00
    endloop
  endfacet
  facet normal 0.000000e+00 1.000000e+00 -0.000000e+00
    outer loop
      vertex   1.162435e+01 3.000000e+01 -1.526015e+00
      vertex   1.156353e+01 3.000000e+01 -1.506463e+00
      vertex   1.200000e+01 3.000000e+01 -1.000000e+00
    endloop
  endfacet
  facet normal 0.000000e+00 1.000000e+00 0.000000e+00
    outer loop
      vertex   1.200000e+01 3.000000e+01 -1.000000e+00
      vertex   1.156353e+01 3.000000e+01 -1.506463e+00
      vertex   1.150336e+01 3.000000e+01 -1.485243e+00
    endloop
  endfacet
  facet normal 0.000000e+00 1.000000e+00 0.000000e+00
    outer loop
      vertex   1.200000e+01 3.000000e+01 -1.000000e+00
      vertex   1.150336e+01 3.000000e+01 -1.485243e+00
      vertex   1.144391e+01 3.000000e+01 -1.462376e+00
    endloop
  endfacet
  facet normal 0.000000e+00 1.000000e+00 -0.000000e+00
    outer loop
      vertex   1.144391e+01 3.000000e+01 -1.462376e+00
      vertex   1.138522e+01 3.000000e+01 -1.437880e+00
      vertex   1.200000e+01 3.000000e+01 -1.000000e+00
    endloop
  endfacet
  facet normal 0.000000e+00 1.000000e+00 0.000000e+00
    outer loop
      vertex   1.200000e+01 3.000000e+01 -1.000000e+00
      vertex   1.138522e+01 3.000000e+01 -1.437880e+00
      vertex   1.132734e+01 3.000000e+01 -1.411777e+00
    endloop
  endfacet
  facet normal 0.000000e+00 1.000000e+00 0.000000e+00
    outer loop
      vertex   1.200000e+01 3.000000e+01 -1.000000e+00
      vertex   1.132734e+01 3.000000e+01 -1.411777e+00
      vertex   1.127033e+01 3.000000e+01 -1.384092e+00
    endloop
  endfacet
  facet normal 0.000000e+00 1.000000e+00 -0.000000e+00
    outer loop
      vertex   1.127033e+01 3.000000e+01 -1.384092e+00
      vertex   1.121423e+01 3.000000e+01 -1.354847e+00
      vertex   1.200000e+01 3.000000e+01 -1.000000e+00
    endloop
  endfacet
  facet normal 0.000000e+00 1.000000e+00 0.000000e+00
    outer loop
      vertex   1.200000e+01 3.000000e+01 -1.000000e+00
      vertex   1.121423e+01 3.000000e+01 -1.354847e+00
      vertex   1.115910e+01 3.000000e+01 -1.324070e+00
    endloop
  endfacet
  facet normal 0.000000e+00 1.000000e+00 0.000000e+00
    outer loop
      vertex   1.200000e+01 3.000000e+01 -1.000000e+00
      vertex   1.115910e+01 3.000000e+01 -1.324070e+00
      vertex   1.100000e+01 3.000000e+01 -1.000000e+00
    endloop
  endfacet
  facet normal 0.000000e+00 1.000000e+00 0.000000e+00
    outer loop
      vertex   1.100000e+01 3.000000e+01 -1.000000e+00
      vertex   1.115910e+01 3.000000e+01 -1.324070e+00
      vertex   1.110499e+01 3.000000e+01 -1.291788e+00
    endloop
  endfacet
  facet normal 0.000000e+00 1.000000e+00 0.000000e+00
    outer loop
      vertex   1.100000e+01 3.000000e+01 -1.000000e+00
      vertex   1.110499e+01 3.000000e+01 -1.291788e+00
      vertex   1.105194e+01 3.000000e+01 -1.258028e+00
    endloop
  endfacet
  facet normal 0.000000e+00 1.000000e+00 0.000000e+00
    outer loop
      vertex   1.105194e+01 3.000000e+01 -1.258028e+00
      vertex   1.100000e+01 3.000000e+01 -1.222822e+00
      vertex   1.100000e+01 3.000000e+01 -1.000000e+00
    endloop
  endfacet
  facet normal 1.000000e+00 -0.000000e+00 0.000000e+00
    outer loop
      vertex   1.200000e+01 2.900000e+01 -1.624798e+00
      vertex   1.200000e+01 2.912523e+01 -1.626582e+00
      vertex   1.200000e+01 2.900000e+01 -1.000000e+00
    endloop
  endfacet
  facet normal 1.000000e+00 0.000000e+00 0.000000e+00
    outer loop
      vertex   1.200000e+01 2.900000e+01 -1.000000e+00
      vertex   1.200000e+01 2.912523e+01 -1.626582e+00
      vertex   1.200000e+01 2.925053e+01 -1.627236e+00
    endloop
  endfacet
  facet normal 1.000000e+00 0.000000e+00 0.000000e+00
    outer loop
      vertex   1.200000e+01 2.900000e+01 -1.000000e+00
      vertex   1.200000e+01 2.925053e+01 -1.627236e+00
      vertex   1.200000e+01 2.937584e+01 -1.626760e+00
    endloop
  endfacet
  facet normal 1.000000e+00 0.000000e+00 -0.000000e+00
    outer loop
      vertex   1.200000e+01 2.937584e+01 -1.626760e+00
      vertex   1.200000e+01 2.950109e+01 -1.625153e+00
      vertex   1.200000e+01 2.900000e+01 -1.000000e+00
    endloop
  endfacet
  facet normal 1.000000e+00 -0.000000e+00 0.000000e+00
    outer loop
      vertex   1.200000e+01 2.900000e+01 -1.000000e+00
      vertex   1.200000e+01 2.950109e+01 -1.625153e+00
      vertex   1.200000e+01 3.000000e+01 -1.000000e+00
    endloop
  endfacet
  facet normal 1.000000e+00 0.000000e+00 0.000000e+00
    outer loop
      vertex   1.200000e+01 3.000000e+01 -1.000000e+00
      vertex   1.200000e+01 2.950109e+01 -1.625153e+00
      vertex   1.200000e+01 2.962620e+01 -1.622416e+00
    endloop
  endfacet
  facet normal 1.000000e+00 0.000000e+00 0.000000e+00
    outer loop
      vertex   1.200000e+01 3.000000e+01 -1.000000e+00
      vertex   1.200000e+01 2.962620e+01 -1.622416e+00
      vertex   1.200000e+01 2.975110e+01 -1.618552e+00
    endloop
  endfacet
  facet normal 1.000000e+00 0.000000e+00 0.000000e+00
    outer loop
      vertex   1.200000e+01 2.975110e+01 -1.618552e+00
      vertex   1.200000e+01 2.987572e+01 -1.613562e+00
      vertex   1.200000e+01 3.000000e+01 -1.000000e+00
    endloop
  endfacet
  facet normal 1.000000e+00 0.000000e+00 0.000000e+00
    outer loop
      vertex   1.200000e+01 3.000000e+01 -1.000000e+00
      vertex   1.200000e+01 2.987572e+01 -1.613562e+00
      vertex   1.200000e+01 3.000000e+01 -1.607450e+00
    endloop
  endfacet
endsolid
