solid ASCII
  facet normal 9.082272e-01 -3.724911e-01 -1.907191e-01
    outer loop
      vertex   1.300000e+01 2.652027e+01 0.000000e+00
      vertex   1.300000e+01 2.652916e+01 -1.734816e-02
      vertex   1.319675e+01 2.700000e+01 0.000000e+00
    endloop
  endfacet
  facet normal 9.069964e-01 -3.717099e-01 -1.979626e-01
    outer loop
      vertex   1.319675e+01 2.700000e+01 0.000000e+00
      vertex   1.300000e+01 2.652916e+01 -1.734816e-02
      vertex   1.318667e+01 2.700000e+01 -4.619341e-02
    endloop
  endfacet
  facet normal 9.067152e-01 -3.716805e-01 -1.993017e-01
    outer loop
      vertex   1.318667e+01 2.700000e+01 -4.619341e-02
      vertex   1.300000e+01 2.652916e+01 -1.734816e-02
      vertex   1.300000e+01 2.653844e+01 -3.466587e-02
    endloop
  endfacet
  facet normal 9.049503e-01 -3.711853e-01 -2.080541e-01
    outer loop
      vertex   1.318667e+01 2.700000e+01 -4.619341e-02
      vertex   1.300000e+01 2.653844e+01 -3.466587e-02
      vertex   1.300000e+01 2.654813e+01 -5.195176e-02
    endloop
  endfacet
  facet normal 9.032652e-01 -3.703798e-01 -2.166350e-01
    outer loop
      vertex   1.300000e+01 2.654813e+01 -5.195176e-02
      vertex   1.300000e+01 2.655822e+01 -6.920449e-02
      vertex   1.318667e+01 2.700000e+01 -4.619341e-02
    endloop
  endfacet
  facet normal 9.024414e-01 -3.698039e-01 -2.210081e-01
    outer loop
      vertex   1.318667e+01 2.700000e+01 -4.619341e-02
      vertex   1.300000e+01 2.655822e+01 -6.920449e-02
      vertex   1.317541e+01 2.700000e+01 -9.215422e-02
    endloop
  endfacet
  facet normal 9.014614e-01 -3.696352e-01 -2.252490e-01
    outer loop
      vertex   1.317541e+01 2.700000e+01 -9.215422e-02
      vertex   1.300000e+01 2.655822e+01 -6.920449e-02
      vertex   1.300000e+01 2.656872e+01 -8.642271e-02
    endloop
  endfacet
  facet normal 8.995285e-01 -3.689641e-01 -2.339103e-01
    outer loop
      vertex   1.317541e+01 2.700000e+01 -9.215422e-02
      vertex   1.300000e+01 2.656872e+01 -8.642271e-02
      vertex   1.300000e+01 2.657961e+01 -1.036051e-01
    endloop
  endfacet
  facet normal 8.976962e-01 -3.679693e-01 -2.423638e-01
    outer loop
      vertex   1.300000e+01 2.657961e+01 -1.036051e-01
      vertex   1.300000e+01 2.659090e+01 -1.207503e-01
      vertex   1.317541e+01 2.700000e+01 -9.215422e-02
    endloop
  endfacet
  facet normal 8.973738e-01 -3.677217e-01 -2.439285e-01
    outer loop
      vertex   1.317541e+01 2.700000e+01 -9.215422e-02
      vertex   1.300000e+01 2.659090e+01 -1.207503e-01
      vertex   1.316299e+01 2.700000e+01 -1.378569e-01
    endloop
  endfacet
  facet normal 8.955828e-01 -3.673053e-01 -2.510344e-01
    outer loop
      vertex   1.316299e+01 2.700000e+01 -1.378569e-01
      vertex   1.300000e+01 2.659090e+01 -1.207503e-01
      vertex   1.300000e+01 2.660259e+01 -1.378569e-01
    endloop
  endfacet
  facet normal 8.934955e-01 -3.664492e-01 -2.595779e-01
    outer loop
      vertex   1.316299e+01 2.700000e+01 -1.378569e-01
      vertex   1.300000e+01 2.660259e+01 -1.378569e-01
      vertex   1.300000e+01 2.661468e+01 -1.549237e-01
    endloop
  endfacet
  facet normal 8.918130e-01 -3.654214e-01 -2.667149e-01
    outer loop
      vertex   1.316299e+01 2.700000e+01 -1.378569e-01
      vertex   1.300000e+01 2.661468e+01 -1.549237e-01
      vertex   1.314940e+01 2.700000e+01 -1.832761e-01
    endloop
  endfacet
  facet normal 8.914578e-01 -3.653754e-01 -2.679624e-01
    outer loop
      vertex   1.314940e+01 2.700000e+01 -1.832761e-01
      vertex   1.300000e+01 2.661468e+01 -1.549237e-01
      vertex   1.300000e+01 2.662717e+01 -1.719492e-01
    endloop
  endfacet
  facet normal 8.890876e-01 -3.646890e-01 -2.766319e-01
    outer loop
      vertex   1.314940e+01 2.700000e+01 -1.832761e-01
      vertex   1.300000e+01 2.662717e+01 -1.719492e-01
      vertex   1.300000e+01 2.664005e+01 -1.889323e-01
    endloop
  endfacet
  facet normal 8.868655e-01 -3.636348e-01 -2.850252e-01
    outer loop
      vertex   1.300000e+01 2.664005e+01 -1.889323e-01
      vertex   1.300000e+01 2.665333e+01 -2.058715e-01
      vertex   1.314940e+01 2.700000e+01 -1.832761e-01
    endloop
  endfacet
  facet normal 8.857706e-01 -3.628806e-01 -2.893580e-01
    outer loop
      vertex   1.314940e+01 2.700000e+01 -1.832761e-01
      vertex   1.300000e+01 2.665333e+01 -2.058715e-01
      vertex   1.313467e+01 2.700000e+01 -2.283865e-01
    endloop
  endfacet
  facet normal 8.845067e-01 -3.626570e-01 -2.934754e-01
    outer loop
      vertex   1.313467e+01 2.700000e+01 -2.283865e-01
      vertex   1.300000e+01 2.665333e+01 -2.058715e-01
      vertex   1.300000e+01 2.666700e+01 -2.227655e-01
    endloop
  endfacet
  facet normal 8.819877e-01 -3.617823e-01 -3.020121e-01
    outer loop
      vertex   1.313467e+01 2.700000e+01 -2.283865e-01
      vertex   1.300000e+01 2.666700e+01 -2.227655e-01
      vertex   1.300000e+01 2.668106e+01 -2.396130e-01
    endloop
  endfacet
  facet normal 8.796588e-01 -3.605103e-01 -3.102139e-01
    outer loop
      vertex   1.300000e+01 2.668106e+01 -2.396130e-01
      vertex   1.300000e+01 2.669552e+01 -2.564127e-01
      vertex   1.313467e+01 2.700000e+01 -2.283865e-01
    endloop
  endfacet
  facet normal 8.792246e-01 -3.601688e-01 -3.118373e-01
    outer loop
      vertex   1.313467e+01 2.700000e+01 -2.283865e-01
      vertex   1.300000e+01 2.669552e+01 -2.564127e-01
      vertex   1.311879e+01 2.700000e+01 -2.731632e-01
    endloop
  endfacet
  facet normal 8.769412e-01 -3.596598e-01 -3.187773e-01
    outer loop
      vertex   1.311879e+01 2.700000e+01 -2.731632e-01
      vertex   1.300000e+01 2.669552e+01 -2.564127e-01
      vertex   1.300000e+01 2.671037e+01 -2.731632e-01
    endloop
  endfacet
  facet normal 8.743009e-01 -3.585769e-01 -3.271401e-01
    outer loop
      vertex   1.311879e+01 2.700000e+01 -2.731632e-01
      vertex   1.300000e+01 2.671037e+01 -2.731632e-01
      vertex   1.300000e+01 2.672560e+01 -2.898634e-01
    endloop
  endfacet
  facet normal 8.721963e-01 -3.572394e-01 -3.341462e-01
    outer loop
      vertex   1.311879e+01 2.700000e+01 -2.731632e-01
      vertex   1.300000e+01 2.672560e+01 -2.898634e-01
      vertex   1.310177e+01 2.700000e+01 -3.175813e-01
    endloop
  endfacet
  facet normal 8.717969e-01 -3.572006e-01 -3.352282e-01
    outer loop
      vertex   1.310177e+01 2.700000e+01 -3.175813e-01
      vertex   1.300000e+01 2.672560e+01 -2.898634e-01
      vertex   1.300000e+01 2.674123e+01 -3.065118e-01
    endloop
  endfacet
  facet normal 8.687738e-01 -3.563800e-01 -3.438392e-01
    outer loop
      vertex   1.310177e+01 2.700000e+01 -3.175813e-01
      vertex   1.300000e+01 2.674123e+01 -3.065118e-01
      vertex   1.300000e+01 2.675724e+01 -3.231071e-01
    endloop
  endfacet
  facet normal 8.660563e-01 -3.550558e-01 -3.519685e-01
    outer loop
      vertex   1.300000e+01 2.675724e+01 -3.231071e-01
      vertex   1.300000e+01 2.677364e+01 -3.396481e-01
      vertex   1.310177e+01 2.700000e+01 -3.175813e-01
    endloop
  endfacet
  facet normal 8.647113e-01 -3.540306e-01 -3.562817e-01
    outer loop
      vertex   1.310177e+01 2.700000e+01 -3.175813e-01
      vertex   1.300000e+01 2.677364e+01 -3.396481e-01
      vertex   1.308363e+01 2.700000e+01 -3.616161e-01
    endloop
  endfacet
  facet normal 8.631648e-01 -3.538395e-01 -3.602001e-01
    outer loop
      vertex   1.308363e+01 2.700000e+01 -3.616161e-01
      vertex   1.300000e+01 2.677364e+01 -3.396481e-01
      vertex   1.300000e+01 2.679042e+01 -3.561335e-01
    endloop
  endfacet
  facet normal 8.600254e-01 -3.528073e-01 -3.686235e-01
    outer loop
      vertex   1.308363e+01 2.700000e+01 -3.616161e-01
      vertex   1.300000e+01 2.679042e+01 -3.561335e-01
      vertex   1.300000e+01 2.680758e+01 -3.725620e-01
    endloop
  endfacet
  facet normal 8.573079e-01 -3.511825e-01 -3.764227e-01
    outer loop
      vertex   1.300000e+01 2.680758e+01 -3.725620e-01
      vertex   1.300000e+01 2.682513e+01 -3.889323e-01
      vertex   1.308363e+01 2.700000e+01 -3.616161e-01
    endloop
  endfacet
  facet normal 8.567423e-01 -3.506313e-01 -3.782200e-01
    outer loop
      vertex   1.308363e+01 2.700000e+01 -3.616161e-01
      vertex   1.300000e+01 2.682513e+01 -3.889323e-01
      vertex   1.306437e+01 2.700000e+01 -4.052431e-01
    endloop
  endfacet
  facet normal 8.539192e-01 -3.502178e-01 -3.849278e-01
    outer loop
      vertex   1.306437e+01 2.700000e+01 -4.052431e-01
      vertex   1.300000e+01 2.682513e+01 -3.889323e-01
      vertex   1.300000e+01 2.684306e+01 -4.052431e-01
    endloop
  endfacet
  facet normal 8.507390e-01 -3.489135e-01 -3.930681e-01
    outer loop
      vertex   1.306437e+01 2.700000e+01 -4.052431e-01
      vertex   1.300000e+01 2.684306e+01 -4.052431e-01
      vertex   1.300000e+01 2.686136e+01 -4.214932e-01
    endloop
  endfacet
  facet normal 8.481738e-01 -3.468685e-01 -4.003543e-01
    outer loop
      vertex   1.300000e+01 2.686136e+01 -4.214932e-01
      vertex   1.300000e+01 2.688005e+01 -4.376813e-01
      vertex   1.306437e+01 2.700000e+01 -4.052431e-01
    endloop
  endfacet
  facet normal 8.482938e-01 -3.470425e-01 -3.999489e-01
    outer loop
      vertex   1.306437e+01 2.700000e+01 -4.052431e-01
      vertex   1.300000e+01 2.688005e+01 -4.376813e-01
      vertex   1.304400e+01 2.700000e+01 -4.484382e-01
    endloop
  endfacet
  facet normal 8.440661e-01 -3.463385e-01 -4.093923e-01
    outer loop
      vertex   1.304400e+01 2.700000e+01 -4.484382e-01
      vertex   1.300000e+01 2.688005e+01 -4.376813e-01
      vertex   1.300000e+01 2.689911e+01 -4.538061e-01
    endloop
  endfacet
  facet normal 8.410316e-01 -3.446090e-01 -4.170258e-01
    outer loop
      vertex   1.304400e+01 2.700000e+01 -4.484382e-01
      vertex   1.300000e+01 2.689911e+01 -4.538061e-01
      vertex   1.300000e+01 2.691854e+01 -4.698663e-01
    endloop
  endfacet
  facet normal 8.395780e-01 -3.426310e-01 -4.215600e-01
    outer loop
      vertex   1.304400e+01 2.700000e+01 -4.484382e-01
      vertex   1.300000e+01 2.691854e+01 -4.698663e-01
      vertex   1.302254e+01 2.700000e+01 -4.911774e-01
    endloop
  endfacet
  facet normal 8.378154e-01 -3.429826e-01 -4.247684e-01
    outer loop
      vertex   1.302254e+01 2.700000e+01 -4.911774e-01
      vertex   1.300000e+01 2.691854e+01 -4.698663e-01
      vertex   1.300000e+01 2.693835e+01 -4.858607e-01
    endloop
  endfacet
  facet normal 8.336118e-01 -3.422050e-01 -4.335749e-01
    outer loop
      vertex   1.302254e+01 2.700000e+01 -4.911774e-01
      vertex   1.300000e+01 2.693835e+01 -4.858607e-01
      vertex   1.300000e+01 2.695853e+01 -5.017882e-01
    endloop
  endfacet
  facet normal 8.314615e-01 -3.394338e-01 -4.398369e-01
    outer loop
      vertex   1.300000e+01 2.695853e+01 -5.017882e-01
      vertex   1.300000e+01 2.697908e+01 -5.176473e-01
      vertex   1.302254e+01 2.700000e+01 -4.911774e-01
    endloop
  endfacet
  facet normal 8.314152e-01 -3.347543e-01 -4.434957e-01
    outer loop
      vertex   1.302254e+01 2.700000e+01 -4.911774e-01
      vertex   1.300000e+01 2.697908e+01 -5.176473e-01
      vertex   1.300000e+01 2.700000e+01 -5.334369e-01
    endloop
  endfacet
  facet normal -1.000000e+00 1.648074e-13 -6.660045e-15
    outer loop
      vertex   1.300000e+01 2.700000e+01 -5.334369e-01
      vertex   1.300000e+01 2.697908e+01 -5.176473e-01
      vertex   1.300000e+01 2.700000e+01 0.000000e+00
    endloop
  endfacet
  facet normal -1.000000e+00 0.000000e+00 0.000000e+00
    outer loop
      vertex   1.300000e+01 2.700000e+01 0.000000e+00
      vertex   1.300000e+01 2.697908e+01 -5.176473e-01
      vertex   1.300000e+01 2.695853e+01 -5.017882e-01
    endloop
  endfacet
  facet normal -1.000000e+00 0.000000e+00 0.000000e+00
    outer loop
      vertex   1.300000e+01 2.700000e+01 0.000000e+00
      vertex   1.300000e+01 2.695853e+01 -5.017882e-01
      vertex   1.300000e+01 2.693835e+01 -4.858607e-01
    endloop
  endfacet
  facet normal -1.000000e+00 0.000000e+00 0.000000e+00
    outer loop
      vertex   1.300000e+01 2.693835e+01 -4.858607e-01
      vertex   1.300000e+01 2.691854e+01 -4.698663e-01
      vertex   1.300000e+01 2.700000e+01 0.000000e+00
    endloop
  endfacet
  facet normal -1.000000e+00 0.000000e+00 0.000000e+00
    outer loop
      vertex   1.300000e+01 2.700000e+01 0.000000e+00
      vertex   1.300000e+01 2.691854e+01 -4.698663e-01
      vertex   1.300000e+01 2.689911e+01 -4.538061e-01
    endloop
  endfacet
  facet normal -1.000000e+00 0.000000e+00 0.000000e+00
    outer loop
      vertex   1.300000e+01 2.700000e+01 0.000000e+00
      vertex   1.300000e+01 2.689911e+01 -4.538061e-01
      vertex   1.300000e+01 2.688005e+01 -4.376813e-01
    endloop
  endfacet
  facet normal -1.000000e+00 0.000000e+00 0.000000e+00
    outer loop
      vertex   1.300000e+01 2.688005e+01 -4.376813e-01
      vertex   1.300000e+01 2.686136e+01 -4.214932e-01
      vertex   1.300000e+01 2.700000e+01 0.000000e+00
    endloop
  endfacet
  facet normal -1.000000e+00 0.000000e+00 0.000000e+00
    outer loop
      vertex   1.300000e+01 2.700000e+01 0.000000e+00
      vertex   1.300000e+01 2.686136e+01 -4.214932e-01
      vertex   1.300000e+01 2.684306e+01 -4.052431e-01
    endloop
  endfacet
  facet normal -1.000000e+00 0.000000e+00 0.000000e+00
    outer loop
      vertex   1.300000e+01 2.700000e+01 0.000000e+00
      vertex   1.300000e+01 2.684306e+01 -4.052431e-01
      vertex   1.300000e+01 2.682513e+01 -3.889323e-01
    endloop
  endfacet
  facet normal -1.000000e+00 0.000000e+00 0.000000e+00
    outer loop
      vertex   1.300000e+01 2.682513e+01 -3.889323e-01
      vertex   1.300000e+01 2.680758e+01 -3.725620e-01
      vertex   1.300000e+01 2.700000e+01 0.000000e+00
    endloop
  endfacet
  facet normal -1.000000e+00 0.000000e+00 0.000000e+00
    outer loop
      vertex   1.300000e+01 2.700000e+01 0.000000e+00
      vertex   1.300000e+01 2.680758e+01 -3.725620e-01
      vertex   1.300000e+01 2.679042e+01 -3.561335e-01
    endloop
  endfacet
  facet normal -1.000000e+00 0.000000e+00 0.000000e+00
    outer loop
      vertex   1.300000e+01 2.700000e+01 0.000000e+00
      vertex   1.300000e+01 2.679042e+01 -3.561335e-01
      vertex   1.300000e+01 2.677364e+01 -3.396481e-01
    endloop
  endfacet
  facet normal -1.000000e+00 0.000000e+00 0.000000e+00
    outer loop
      vertex   1.300000e+01 2.677364e+01 -3.396481e-01
      vertex   1.300000e+01 2.675724e+01 -3.231071e-01
      vertex   1.300000e+01 2.700000e+01 0.000000e+00
    endloop
  endfacet
  facet normal -1.000000e+00 0.000000e+00 0.000000e+00
    outer loop
      vertex   1.300000e+01 2.700000e+01 0.000000e+00
      vertex   1.300000e+01 2.675724e+01 -3.231071e-01
      vertex   1.300000e+01 2.674123e+01 -3.065118e-01
    endloop
  endfacet
  facet normal -1.000000e+00 0.000000e+00 0.000000e+00
    outer loop
      vertex   1.300000e+01 2.700000e+01 0.000000e+00
      vertex   1.300000e+01 2.674123e+01 -3.065118e-01
      vertex   1.300000e+01 2.672560e+01 -2.898634e-01
    endloop
  endfacet
  facet normal -1.000000e+00 0.000000e+00 0.000000e+00
    outer loop
      vertex   1.300000e+01 2.672560e+01 -2.898634e-01
      vertex   1.300000e+01 2.671037e+01 -2.731632e-01
      vertex   1.300000e+01 2.700000e+01 0.000000e+00
    endloop
  endfacet
  facet normal -1.000000e+00 0.000000e+00 0.000000e+00
    outer loop
      vertex   1.300000e+01 2.700000e+01 0.000000e+00
      vertex   1.300000e+01 2.671037e+01 -2.731632e-01
      vertex   1.300000e+01 2.669552e+01 -2.564127e-01
    endloop
  endfacet
  facet normal -1.000000e+00 0.000000e+00 0.000000e+00
    outer loop
      vertex   1.300000e+01 2.700000e+01 0.000000e+00
      vertex   1.300000e+01 2.669552e+01 -2.564127e-01
      vertex   1.300000e+01 2.668106e+01 -2.396130e-01
    endloop
  endfacet
  facet normal -1.000000e+00 0.000000e+00 0.000000e+00
    outer loop
      vertex   1.300000e+01 2.668106e+01 -2.396130e-01
      vertex   1.300000e+01 2.666700e+01 -2.227655e-01
      vertex   1.300000e+01 2.700000e+01 0.000000e+00
    endloop
  endfacet
  facet normal -1.000000e+00 0.000000e+00 0.000000e+00
    outer loop
      vertex   1.300000e+01 2.700000e+01 0.000000e+00
      vertex   1.300000e+01 2.666700e+01 -2.227655e-01
      vertex   1.300000e+01 2.665333e+01 -2.058715e-01
    endloop
  endfacet
  facet normal -1.000000e+00 0.000000e+00 0.000000e+00
    outer loop
      vertex   1.300000e+01 2.700000e+01 0.000000e+00
      vertex   1.300000e+01 2.665333e+01 -2.058715e-01
      vertex   1.300000e+01 2.664005e+01 -1.889323e-01
    endloop
  endfacet
  facet normal -1.000000e+00 0.000000e+00 0.000000e+00
    outer loop
      vertex   1.300000e+01 2.664005e+01 -1.889323e-01
      vertex   1.300000e+01 2.662717e+01 -1.719492e-01
      vertex   1.300000e+01 2.700000e+01 0.000000e+00
    endloop
  endfacet
  facet normal -1.000000e+00 0.000000e+00 0.000000e+00
    outer loop
      vertex   1.300000e+01 2.700000e+01 0.000000e+00
      vertex   1.300000e+01 2.662717e+01 -1.719492e-01
      vertex   1.300000e+01 2.661468e+01 -1.549237e-01
    endloop
  endfacet
  facet normal -1.000000e+00 0.000000e+00 0.000000e+00
    outer loop
      vertex   1.300000e+01 2.700000e+01 0.000000e+00
      vertex   1.300000e+01 2.661468e+01 -1.549237e-01
      vertex   1.300000e+01 2.660259e+01 -1.378569e-01
    endloop
  endfacet
  facet normal -1.000000e+00 0.000000e+00 0.000000e+00
    outer loop
      vertex   1.300000e+01 2.660259e+01 -1.378569e-01
      vertex   1.300000e+01 2.659090e+01 -1.207503e-01
      vertex   1.300000e+01 2.700000e+01 0.000000e+00
    endloop
  endfacet
  facet normal -1.000000e+00 0.000000e+00 0.000000e+00
    outer loop
      vertex   1.300000e+01 2.700000e+01 0.000000e+00
      vertex   1.300000e+01 2.659090e+01 -1.207503e-01
      vertex   1.300000e+01 2.657961e+01 -1.036051e-01
    endloop
  endfacet
  facet normal -1.000000e+00 0.000000e+00 0.000000e+00
    outer loop
      vertex   1.300000e+01 2.700000e+01 0.000000e+00
      vertex   1.300000e+01 2.657961e+01 -1.036051e-01
      vertex   1.300000e+01 2.656872e+01 -8.642271e-02
    endloop
  endfacet
  facet normal -1.000000e+00 0.000000e+00 0.000000e+00
    outer loop
      vertex   1.300000e+01 2.656872e+01 -8.642271e-02
      vertex   1.300000e+01 2.655822e+01 -6.920449e-02
      vertex   1.300000e+01 2.700000e+01 0.000000e+00
    endloop
  endfacet
  facet normal -1.000000e+00 0.000000e+00 0.000000e+00
    outer loop
      vertex   1.300000e+01 2.700000e+01 0.000000e+00
      vertex   1.300000e+01 2.655822e+01 -6.920449e-02
      vertex   1.300000e+01 2.654813e+01 -5.195176e-02
    endloop
  endfacet
  facet normal -1.000000e+00 0.000000e+00 0.000000e+00
    outer loop
      vertex   1.300000e+01 2.700000e+01 0.000000e+00
      vertex   1.300000e+01 2.654813e+01 -5.195176e-02
      vertex   1.300000e+01 2.653844e+01 -3.466587e-02
    endloop
  endfacet
  facet normal -1.000000e+00 0.000000e+00 0.000000e+00
    outer loop
      vertex   1.300000e+01 2.653844e+01 -3.466587e-02
      vertex   1.300000e+01 2.652916e+01 -1.734816e-02
      vertex   1.300000e+01 2.700000e+01 0.000000e+00
    endloop
  endfacet
  facet normal -1.000000e+00 -0.000000e+00 0.000000e+00
    outer loop
      vertex   1.300000e+01 2.700000e+01 0.000000e+00
      vertex   1.300000e+01 2.652916e+01 -1.734816e-02
      vertex   1.300000e+01 2.652027e+01 0.000000e+00
    endloop
  endfacet
  facet normal 0.000000e+00 0.000000e+00 1.000000e+00
    outer loop
      vertex   1.300000e+01 2.652027e+01 0.000000e+00
      vertex   1.319675e+01 2.700000e+01 0.000000e+00
      vertex   1.300000e+01 2.700000e+01 0.000000e+00
    endloop
  endfacet
  facet normal 0.000000e+00 1.000000e+00 0.000000e+00
    outer loop
      vertex   1.319675e+01 2.700000e+01 0.000000e+00
      vertex   1.318667e+01 2.700000e+01 -4.619341e-02
      vertex   1.300000e+01 2.700000e+01 0.000000e+00
    endloop
  endfacet
  facet normal 0.000000e+00 1.000000e+00 0.000000e+00
    outer loop
      vertex   1.300000e+01 2.700000e+01 0.000000e+00
      vertex   1.318667e+01 2.700000e+01 -4.619341e-02
      vertex   1.317541e+01 2.700000e+01 -9.215422e-02
    endloop
  endfacet
  facet normal 0.000000e+00 1.000000e+00 0.000000e+00
    outer loop
      vertex   1.300000e+01 2.700000e+01 0.000000e+00
      vertex   1.317541e+01 2.700000e+01 -9.215422e-02
      vertex   1.316299e+01 2.700000e+01 -1.378569e-01
    endloop
  endfacet
  facet normal 0.000000e+00 1.000000e+00 0.000000e+00
    outer loop
      vertex   1.316299e+01 2.700000e+01 -1.378569e-01
      vertex   1.314940e+01 2.700000e+01 -1.832761e-01
      vertex   1.300000e+01 2.700000e+01 0.000000e+00
    endloop
  endfacet
  facet normal 0.000000e+00 1.000000e+00 0.000000e+00
    outer loop
      vertex   1.300000e+01 2.700000e+01 0.000000e+00
      vertex   1.314940e+01 2.700000e+01 -1.832761e-01
      vertex   1.313467e+01 2.700000e+01 -2.283865e-01
    endloop
  endfacet
  facet normal 0.000000e+00 1.000000e+00 0.000000e+00
    outer loop
      vertex   1.300000e+01 2.700000e+01 0.000000e+00
      vertex   1.313467e+01 2.700000e+01 -2.283865e-01
      vertex   1.311879e+01 2.700000e+01 -2.731632e-01
    endloop
  endfacet
  facet normal 0.000000e+00 1.000000e+00 0.000000e+00
    outer loop
      vertex   1.311879e+01 2.700000e+01 -2.731632e-01
      vertex   1.310177e+01 2.700000e+01 -3.175813e-01
      vertex   1.300000e+01 2.700000e+01 0.000000e+00
    endloop
  endfacet
  facet normal 0.000000e+00 1.000000e+00 0.000000e+00
    outer loop
      vertex   1.300000e+01 2.700000e+01 0.000000e+00
      vertex   1.310177e+01 2.700000e+01 -3.175813e-01
      vertex   1.308363e+01 2.700000e+01 -3.616161e-01
    endloop
  endfacet
  facet normal 0.000000e+00 1.000000e+00 0.000000e+00
    outer loop
      vertex   1.300000e+01 2.700000e+01 0.000000e+00
      vertex   1.308363e+01 2.700000e+01 -3.616161e-01
      vertex   1.306437e+01 2.700000e+01 -4.052431e-01
    endloop
  endfacet
  facet normal 0.000000e+00 1.000000e+00 0.000000e+00
    outer loop
      vertex   1.306437e+01 2.700000e+01 -4.052431e-01
      vertex   1.304400e+01 2.700000e+01 -4.484382e-01
      vertex   1.300000e+01 2.700000e+01 0.000000e+00
    endloop
  endfacet
  facet normal 0.000000e+00 1.000000e+00 0.000000e+00
    outer loop
      vertex   1.300000e+01 2.700000e+01 0.000000e+00
      vertex   1.304400e+01 2.700000e+01 -4.484382e-01
      vertex   1.302254e+01 2.700000e+01 -4.911774e-01
    endloop
  endfacet
  facet normal 0.000000e+00 1.000000e+00 0.000000e+00
    outer loop
      vertex   1.300000e+01 2.700000e+01 0.000000e+00
      vertex   1.302254e+01 2.700000e+01 -4.911774e-01
      vertex   1.300000e+01 2.700000e+01 -5.334369e-01
    endloop
  endfacet
endsolid
