solid ASCII
  facet normal 3.794562e-01 9.252097e-01 -0.000000e+00
    outer loop
      vertex   1.600000e+01 3.390636e+01 -1.217930e-01
      vertex   1.600000e+01 3.390636e+01 0.000000e+00
      vertex   1.600913e+01 3.390261e+01 -8.138588e-02
    endloop
  endfacet
  facet normal 3.794562e-01 9.252097e-01 -1.883133e-14
    outer loop
      vertex   1.600913e+01 3.390261e+01 -8.138588e-02
      vertex   1.600000e+01 3.390636e+01 0.000000e+00
      vertex   1.601748e+01 3.389919e+01 -4.078237e-02
    endloop
  endfacet
  facet normal 3.794562e-01 9.252097e-01 2.024042e-14
    outer loop
      vertex   1.601748e+01 3.389919e+01 -4.078237e-02
      vertex   1.600000e+01 3.390636e+01 0.000000e+00
      vertex   1.602504e+01 3.389609e+01 0.000000e+00
    endloop
  endfacet
  facet normal 9.076254e-01 -3.722443e-01 -1.940368e-01
    outer loop
      vertex   1.600000e+01 3.383503e+01 0.000000e+00
      vertex   1.600000e+01 3.385098e+01 -3.060286e-02
      vertex   1.602504e+01 3.389609e+01 0.000000e+00
    endloop
  endfacet
  facet normal 9.077551e-01 -3.705866e-01 -1.965862e-01
    outer loop
      vertex   1.602504e+01 3.389609e+01 0.000000e+00
      vertex   1.600000e+01 3.385098e+01 -3.060286e-02
      vertex   1.601748e+01 3.389919e+01 -4.078237e-02
    endloop
  endfacet
  facet normal 9.041510e-01 -3.720918e-01 -2.099015e-01
    outer loop
      vertex   1.601748e+01 3.389919e+01 -4.078237e-02
      vertex   1.600000e+01 3.385098e+01 -3.060286e-02
      vertex   1.600000e+01 3.386819e+01 -6.110758e-02
    endloop
  endfacet
  facet normal 9.043347e-01 -3.675851e-01 -2.169330e-01
    outer loop
      vertex   1.601748e+01 3.389919e+01 -4.078237e-02
      vertex   1.600000e+01 3.386819e+01 -6.110758e-02
      vertex   1.600913e+01 3.390261e+01 -8.138588e-02
    endloop
  endfacet
  facet normal 9.004668e-01 -3.717507e-01 -2.257454e-01
    outer loop
      vertex   1.600913e+01 3.390261e+01 -8.138588e-02
      vertex   1.600000e+01 3.386819e+01 -6.110758e-02
      vertex   1.600000e+01 3.388665e+01 -9.150675e-02
    endloop
  endfacet
  facet normal 9.004866e-01 -3.645091e-01 -2.371854e-01
    outer loop
      vertex   1.600913e+01 3.390261e+01 -8.138588e-02
      vertex   1.600000e+01 3.388665e+01 -9.150675e-02
      vertex   1.600000e+01 3.390636e+01 -1.217930e-01
    endloop
  endfacet
  facet normal 0.000000e+00 0.000000e+00 1.000000e+00
    outer loop
      vertex   1.600000e+01 3.383503e+01 0.000000e+00
      vertex   1.602504e+01 3.389609e+01 0.000000e+00
      vertex   1.600000e+01 3.390636e+01 0.000000e+00
    endloop
  endfacet
  facet normal -1.000000e+00 0.000000e+00 0.000000e+00
    outer loop
      vertex   1.600000e+01 3.390636e+01 -1.217930e-01
      vertex   1.600000e+01 3.388665e+01 -9.150675e-02
      vertex   1.600000e+01 3.390636e+01 0.000000e+00
    endloop
  endfacet
  facet normal -1.000000e+00 0.000000e+00 0.000000e+00
    outer loop
      vertex   1.600000e+01 3.390636e+01 0.000000e+00
      vertex   1.600000e+01 3.388665e+01 -9.150675e-02
      vertex   1.600000e+01 3.386819e+01 -6.110758e-02
    endloop
  endfacet
  facet normal -1.000000e+00 0.000000e+00 0.000000e+00
    outer loop
      vertex   1.600000e+01 3.390636e+01 0.000000e+00
      vertex   1.600000e+01 3.386819e+01 -6.110758e-02
      vertex   1.600000e+01 3.385098e+01 -3.060286e-02
    endloop
  endfacet
  facet normal -1.000000e+00 0.000000e+00 0.000000e+00
    outer loop
      vertex   1.600000e+01 3.385098e+01 -3.060286e-02
      vertex   1.600000e+01 3.383503e+01 0.000000e+00
      vertex   1.600000e+01 3.390636e+01 0.000000e+00
    endloop
  endfacet
endsolid
