solid ASCII
  facet normal 5.494316e-01 -2.253383e-01 8.045792e-01
    outer loop
      vertex   1.438039e+01 3.200000e+01 2.000000e+00
      vertex   1.443391e+01 3.200000e+01 1.963457e+00
      vertex   1.479052e+01 3.300000e+01 2.000000e+00
    endloop
  endfacet
  facet normal 5.496125e-01 -2.253977e-01 8.044389e-01
    outer loop
      vertex   1.479052e+01 3.300000e+01 2.000000e+00
      vertex   1.443391e+01 3.200000e+01 1.963457e+00
      vertex   1.484487e+01 3.300000e+01 1.962873e+00
    endloop
  endfacet
  facet normal 5.720710e-01 -2.346380e-01 7.859261e-01
    outer loop
      vertex   1.484487e+01 3.300000e+01 1.962873e+00
      vertex   1.443391e+01 3.200000e+01 1.963457e+00
      vertex   1.448618e+01 3.200000e+01 1.925407e+00
    endloop
  endfacet
  facet normal 5.726016e-01 -2.348119e-01 7.854876e-01
    outer loop
      vertex   1.484487e+01 3.300000e+01 1.962873e+00
      vertex   1.448618e+01 3.200000e+01 1.925407e+00
      vertex   1.489793e+01 3.300000e+01 1.924193e+00
    endloop
  endfacet
  facet normal 5.941686e-01 -2.437150e-01 7.665290e-01
    outer loop
      vertex   1.489793e+01 3.300000e+01 1.924193e+00
      vertex   1.448618e+01 3.200000e+01 1.925407e+00
      vertex   1.453716e+01 3.200000e+01 1.885888e+00
    endloop
  endfacet
  facet normal 5.950319e-01 -2.439973e-01 7.657692e-01
    outer loop
      vertex   1.489793e+01 3.300000e+01 1.924193e+00
      vertex   1.453716e+01 3.200000e+01 1.885888e+00
      vertex   1.494965e+01 3.300000e+01 1.883998e+00
    endloop
  endfacet
  facet normal 6.157034e-01 -2.525607e-01 7.464063e-01
    outer loop
      vertex   1.494965e+01 3.300000e+01 1.883998e+00
      vertex   1.453716e+01 3.200000e+01 1.885888e+00
      vertex   1.458681e+01 3.200000e+01 1.844936e+00
    endloop
  endfacet
  facet normal 6.168812e-01 -2.529450e-01 7.453029e-01
    outer loop
      vertex   1.494965e+01 3.300000e+01 1.883998e+00
      vertex   1.458681e+01 3.200000e+01 1.844936e+00
      vertex   1.500000e+01 3.300000e+01 1.842328e+00
    endloop
  endfacet
  facet normal 6.339799e-01 -2.600543e-01 7.283140e-01
    outer loop
      vertex   1.500000e+01 3.300000e+01 1.842328e+00
      vertex   1.458681e+01 3.200000e+01 1.844936e+00
      vertex   1.500000e+01 3.292664e+01 1.816135e+00
    endloop
  endfacet
  facet normal 6.366277e-01 -2.613210e-01 7.255457e-01
    outer loop
      vertex   1.500000e+01 3.292664e+01 1.816135e+00
      vertex   1.458681e+01 3.200000e+01 1.844936e+00
      vertex   1.463507e+01 3.200000e+01 1.802591e+00
    endloop
  endfacet
  facet normal 6.469442e-01 -2.652286e-01 7.149245e-01
    outer loop
      vertex   1.500000e+01 3.292664e+01 1.816135e+00
      vertex   1.463507e+01 3.200000e+01 1.802591e+00
      vertex   1.500000e+01 3.285462e+01 1.789416e+00
    endloop
  endfacet
  facet normal 6.569745e-01 -2.696796e-01 7.040294e-01
    outer loop
      vertex   1.500000e+01 3.285462e+01 1.789416e+00
      vertex   1.463507e+01 3.200000e+01 1.802591e+00
      vertex   1.468190e+01 3.200000e+01 1.758892e+00
    endloop
  endfacet
  facet normal 6.592360e-01 -2.704354e-01 7.016214e-01
    outer loop
      vertex   1.500000e+01 3.285462e+01 1.789416e+00
      vertex   1.468190e+01 3.200000e+01 1.758892e+00
      vertex   1.500000e+01 3.278396e+01 1.762179e+00
    endloop
  endfacet
  facet normal 6.716723e-01 -2.754234e-01 6.877487e-01
    outer loop
      vertex   1.500000e+01 3.278396e+01 1.762179e+00
      vertex   1.468190e+01 3.200000e+01 1.758892e+00
      vertex   1.500000e+01 3.271468e+01 1.734434e+00
    endloop
  endfacet
  facet normal 6.766841e-01 -2.778566e-01 6.818316e-01
    outer loop
      vertex   1.500000e+01 3.271468e+01 1.734434e+00
      vertex   1.468190e+01 3.200000e+01 1.758892e+00
      vertex   1.472725e+01 3.200000e+01 1.713881e+00
    endloop
  endfacet
  facet normal 6.837848e-01 -2.803322e-01 6.736856e-01
    outer loop
      vertex   1.500000e+01 3.271468e+01 1.734434e+00
      vertex   1.472725e+01 3.200000e+01 1.713881e+00
      vertex   1.500000e+01 3.264681e+01 1.706193e+00
    endloop
  endfacet
  facet normal 6.951946e-01 -2.853089e-01 6.597752e-01
    outer loop
      vertex   1.500000e+01 3.264681e+01 1.706193e+00
      vertex   1.472725e+01 3.200000e+01 1.713881e+00
      vertex   1.500000e+01 3.258037e+01 1.677464e+00
    endloop
  endfacet
  facet normal 6.957809e-01 -2.856320e-01 6.590169e-01
    outer loop
      vertex   1.500000e+01 3.258037e+01 1.677464e+00
      vertex   1.472725e+01 3.200000e+01 1.713881e+00
      vertex   1.477109e+01 3.200000e+01 1.667600e+00
    endloop
  endfacet
  facet normal 7.071456e-01 -2.898748e-01 6.449168e-01
    outer loop
      vertex   1.500000e+01 3.258037e+01 1.677464e+00
      vertex   1.477109e+01 3.200000e+01 1.667600e+00
      vertex   1.500000e+01 3.251540e+01 1.648259e+00
    endloop
  endfacet
  facet normal 7.141720e-01 -2.933477e-01 6.355356e-01
    outer loop
      vertex   1.500000e+01 3.251540e+01 1.648259e+00
      vertex   1.477109e+01 3.200000e+01 1.667600e+00
      vertex   1.481336e+01 3.200000e+01 1.620093e+00
    endloop
  endfacet
  facet normal 7.182881e-01 -2.945530e-01 6.303179e-01
    outer loop
      vertex   1.500000e+01 3.251540e+01 1.648259e+00
      vertex   1.481336e+01 3.200000e+01 1.620093e+00
      vertex   1.500000e+01 3.245191e+01 1.618588e+00
    endloop
  endfacet
  facet normal 7.292082e-01 -2.991125e-01 6.154568e-01
    outer loop
      vertex   1.500000e+01 3.245191e+01 1.618588e+00
      vertex   1.481336e+01 3.200000e+01 1.620093e+00
      vertex   1.500000e+01 3.238992e+01 1.588462e+00
    endloop
  endfacet
  facet normal 7.318981e-01 -3.007238e-01 6.114658e-01
    outer loop
      vertex   1.500000e+01 3.238992e+01 1.588462e+00
      vertex   1.481336e+01 3.200000e+01 1.620093e+00
      vertex   1.485404e+01 3.200000e+01 1.571406e+00
    endloop
  endfacet
  facet normal 7.402829e-01 -3.033594e-01 5.999619e-01
    outer loop
      vertex   1.500000e+01 3.238992e+01 1.588462e+00
      vertex   1.485404e+01 3.200000e+01 1.571406e+00
      vertex   1.500000e+01 3.232946e+01 1.557892e+00
    endloop
  endfacet
  facet normal 7.489487e-01 -3.077371e-01 5.868336e-01
    outer loop
      vertex   1.500000e+01 3.232946e+01 1.557892e+00
      vertex   1.485404e+01 3.200000e+01 1.571406e+00
      vertex   1.489308e+01 3.200000e+01 1.521584e+00
    endloop
  endfacet
  facet normal 7.501849e-01 -3.079516e-01 5.851397e-01
    outer loop
      vertex   1.500000e+01 3.232946e+01 1.557892e+00
      vertex   1.489308e+01 3.200000e+01 1.521584e+00
      vertex   1.500000e+01 3.227055e+01 1.526889e+00
    endloop
  endfacet
  facet normal 7.608873e-01 -3.118652e-01 5.690260e-01
    outer loop
      vertex   1.500000e+01 3.227055e+01 1.526889e+00
      vertex   1.489308e+01 3.200000e+01 1.521584e+00
      vertex   1.500000e+01 3.221321e+01 1.495465e+00
    endloop
  endfacet
  facet normal 7.651653e-01 -3.149258e-01 5.615548e-01
    outer loop
      vertex   1.500000e+01 3.221321e+01 1.495465e+00
      vertex   1.489308e+01 3.200000e+01 1.521584e+00
      vertex   1.493044e+01 3.200000e+01 1.470674e+00
    endloop
  endfacet
  facet normal 7.709756e-01 -3.158307e-01 5.530348e-01
    outer loop
      vertex   1.500000e+01 3.221321e+01 1.495465e+00
      vertex   1.493044e+01 3.200000e+01 1.470674e+00
      vertex   1.500000e+01 3.215747e+01 1.463631e+00
    endloop
  endfacet
  facet normal 7.797012e-01 -3.203578e-01 5.379934e-01
    outer loop
      vertex   1.500000e+01 3.215747e+01 1.463631e+00
      vertex   1.493044e+01 3.200000e+01 1.470674e+00
      vertex   1.500000e+01 3.210334e+01 1.431398e+00
    endloop
  endfacet
  facet normal 7.806380e-01 -3.218434e-01 5.357435e-01
    outer loop
      vertex   1.500000e+01 3.210334e+01 1.431398e+00
      vertex   1.493044e+01 3.200000e+01 1.470674e+00
      vertex   1.496609e+01 3.200000e+01 1.418724e+00
    endloop
  endfacet
  facet normal 7.905746e-01 -3.231896e-01 5.201349e-01
    outer loop
      vertex   1.500000e+01 3.210334e+01 1.431398e+00
      vertex   1.496609e+01 3.200000e+01 1.418724e+00
      vertex   1.500000e+01 3.205084e+01 1.398779e+00
    endloop
  endfacet
  facet normal 7.948035e-01 -3.303485e-01 5.090749e-01
    outer loop
      vertex   1.500000e+01 3.205084e+01 1.398779e+00
      vertex   1.496609e+01 3.200000e+01 1.418724e+00
      vertex   1.500000e+01 3.200000e+01 1.365785e+00
    endloop
  endfacet
  facet normal -1.199392e-13 -1.000000e+00 -9.712574e-15
    outer loop
      vertex   1.500000e+01 3.200000e+01 1.365785e+00
      vertex   1.496609e+01 3.200000e+01 1.418724e+00
      vertex   1.500000e+01 3.200000e+01 1.000000e+00
    endloop
  endfacet
  facet normal 0.000000e+00 -1.000000e+00 0.000000e+00
    outer loop
      vertex   1.500000e+01 3.200000e+01 1.000000e+00
      vertex   1.496609e+01 3.200000e+01 1.418724e+00
      vertex   1.493044e+01 3.200000e+01 1.470674e+00
    endloop
  endfacet
  facet normal 0.000000e+00 -1.000000e+00 0.000000e+00
    outer loop
      vertex   1.500000e+01 3.200000e+01 1.000000e+00
      vertex   1.493044e+01 3.200000e+01 1.470674e+00
      vertex   1.400000e+01 3.200000e+01 1.000000e+00
    endloop
  endfacet
  facet normal 0.000000e+00 -1.000000e+00 0.000000e+00
    outer loop
      vertex   1.400000e+01 3.200000e+01 1.000000e+00
      vertex   1.493044e+01 3.200000e+01 1.470674e+00
      vertex   1.489308e+01 3.200000e+01 1.521584e+00
    endloop
  endfacet
  facet normal 0.000000e+00 -1.000000e+00 0.000000e+00
    outer loop
      vertex   1.400000e+01 3.200000e+01 1.000000e+00
      vertex   1.489308e+01 3.200000e+01 1.521584e+00
      vertex   1.485404e+01 3.200000e+01 1.571406e+00
    endloop
  endfacet
  facet normal -0.000000e+00 -1.000000e+00 0.000000e+00
    outer loop
      vertex   1.485404e+01 3.200000e+01 1.571406e+00
      vertex   1.481336e+01 3.200000e+01 1.620093e+00
      vertex   1.400000e+01 3.200000e+01 1.000000e+00
    endloop
  endfacet
  facet normal 0.000000e+00 -1.000000e+00 0.000000e+00
    outer loop
      vertex   1.400000e+01 3.200000e+01 1.000000e+00
      vertex   1.481336e+01 3.200000e+01 1.620093e+00
      vertex   1.477109e+01 3.200000e+01 1.667600e+00
    endloop
  endfacet
  facet normal 0.000000e+00 -1.000000e+00 0.000000e+00
    outer loop
      vertex   1.400000e+01 3.200000e+01 1.000000e+00
      vertex   1.477109e+01 3.200000e+01 1.667600e+00
      vertex   1.472725e+01 3.200000e+01 1.713881e+00
    endloop
  endfacet
  facet normal -0.000000e+00 -1.000000e+00 0.000000e+00
    outer loop
      vertex   1.472725e+01 3.200000e+01 1.713881e+00
      vertex   1.468190e+01 3.200000e+01 1.758892e+00
      vertex   1.400000e+01 3.200000e+01 1.000000e+00
    endloop
  endfacet
  facet normal 0.000000e+00 -1.000000e+00 0.000000e+00
    outer loop
      vertex   1.400000e+01 3.200000e+01 1.000000e+00
      vertex   1.468190e+01 3.200000e+01 1.758892e+00
      vertex   1.463507e+01 3.200000e+01 1.802591e+00
    endloop
  endfacet
  facet normal 0.000000e+00 -1.000000e+00 0.000000e+00
    outer loop
      vertex   1.400000e+01 3.200000e+01 1.000000e+00
      vertex   1.463507e+01 3.200000e+01 1.802591e+00
      vertex   1.458681e+01 3.200000e+01 1.844936e+00
    endloop
  endfacet
  facet normal -0.000000e+00 -1.000000e+00 0.000000e+00
    outer loop
      vertex   1.458681e+01 3.200000e+01 1.844936e+00
      vertex   1.453716e+01 3.200000e+01 1.885888e+00
      vertex   1.400000e+01 3.200000e+01 1.000000e+00
    endloop
  endfacet
  facet normal 0.000000e+00 -1.000000e+00 0.000000e+00
    outer loop
      vertex   1.400000e+01 3.200000e+01 1.000000e+00
      vertex   1.453716e+01 3.200000e+01 1.885888e+00
      vertex   1.448618e+01 3.200000e+01 1.925407e+00
    endloop
  endfacet
  facet normal 0.000000e+00 -1.000000e+00 0.000000e+00
    outer loop
      vertex   1.400000e+01 3.200000e+01 1.000000e+00
      vertex   1.448618e+01 3.200000e+01 1.925407e+00
      vertex   1.400000e+01 3.200000e+01 2.000000e+00
    endloop
  endfacet
  facet normal 0.000000e+00 -1.000000e+00 0.000000e+00
    outer loop
      vertex   1.400000e+01 3.200000e+01 2.000000e+00
      vertex   1.448618e+01 3.200000e+01 1.925407e+00
      vertex   1.443391e+01 3.200000e+01 1.963457e+00
    endloop
  endfacet
  facet normal 0.000000e+00 -1.000000e+00 0.000000e+00
    outer loop
      vertex   1.400000e+01 3.200000e+01 2.000000e+00
      vertex   1.443391e+01 3.200000e+01 1.963457e+00
      vertex   1.438039e+01 3.200000e+01 2.000000e+00
    endloop
  endfacet
  facet normal 0.000000e+00 0.000000e+00 1.000000e+00
    outer loop
      vertex   1.479052e+01 3.300000e+01 2.000000e+00
      vertex   1.400000e+01 3.300000e+01 2.000000e+00
      vertex   1.438039e+01 3.200000e+01 2.000000e+00
    endloop
  endfacet
  facet normal 0.000000e+00 0.000000e+00 1.000000e+00
    outer loop
      vertex   1.438039e+01 3.200000e+01 2.000000e+00
      vertex   1.400000e+01 3.300000e+01 2.000000e+00
      vertex   1.400000e+01 3.200000e+01 2.000000e+00
    endloop
  endfacet
  facet normal 0.000000e+00 0.000000e+00 -1.000000e+00
    outer loop
      vertex   1.500000e+01 3.200000e+01 1.000000e+00
      vertex   1.400000e+01 3.200000e+01 1.000000e+00
      vertex   1.500000e+01 3.300000e+01 1.000000e+00
    endloop
  endfacet
  facet normal -0.000000e+00 0.000000e+00 -1.000000e+00
    outer loop
      vertex   1.500000e+01 3.300000e+01 1.000000e+00
      vertex   1.400000e+01 3.200000e+01 1.000000e+00
      vertex   1.400000e+01 3.300000e+01 1.000000e+00
    endloop
  endfacet
  facet normal -1.000000e+00 -0.000000e+00 -0.000000e+00
    outer loop
      vertex   1.400000e+01 3.300000e+01 2.000000e+00
      vertex   1.400000e+01 3.300000e+01 1.000000e+00
      vertex   1.400000e+01 3.200000e+01 2.000000e+00
    endloop
  endfacet
  facet normal -1.000000e+00 0.000000e+00 0.000000e+00
    outer loop
      vertex   1.400000e+01 3.200000e+01 2.000000e+00
      vertex   1.400000e+01 3.300000e+01 1.000000e+00
      vertex   1.400000e+01 3.200000e+01 1.000000e+00
    endloop
  endfacet
  facet normal -0.000000e+00 1.000000e+00 0.000000e+00
    outer loop
      vertex   1.400000e+01 3.300000e+01 2.000000e+00
      vertex   1.479052e+01 3.300000e+01 2.000000e+00
      vertex   1.400000e+01 3.300000e+01 1.000000e+00
    endloop
  endfacet
  facet normal 0.000000e+00 1.000000e+00 0.000000e+00
    outer loop
      vertex   1.400000e+01 3.300000e+01 1.000000e+00
      vertex   1.479052e+01 3.300000e+01 2.000000e+00
      vertex   1.484487e+01 3.300000e+01 1.962873e+00
    endloop
  endfacet
  facet normal 0.000000e+00 1.000000e+00 0.000000e+00
    outer loop
      vertex   1.400000e+01 3.300000e+01 1.000000e+00
      vertex   1.484487e+01 3.300000e+01 1.962873e+00
      vertex   1.489793e+01 3.300000e+01 1.924193e+00
    endloop
  endfacet
  facet normal 0.000000e+00 1.000000e+00 0.000000e+00
    outer loop
      vertex   1.400000e+01 3.300000e+01 1.000000e+00
      vertex   1.489793e+01 3.300000e+01 1.924193e+00
      vertex   1.500000e+01 3.300000e+01 1.000000e+00
    endloop
  endfacet
  facet normal 0.000000e+00 1.000000e+00 0.000000e+00
    outer loop
      vertex   1.500000e+01 3.300000e+01 1.000000e+00
      vertex   1.489793e+01 3.300000e+01 1.924193e+00
      vertex   1.494965e+01 3.300000e+01 1.883998e+00
    endloop
  endfacet
  facet normal 0.000000e+00 1.000000e+00 -0.000000e+00
    outer loop
      vertex   1.500000e+01 3.300000e+01 1.000000e+00
      vertex   1.494965e+01 3.300000e+01 1.883998e+00
      vertex   1.500000e+01 3.300000e+01 1.842328e+00
    endloop
  endfacet
  facet normal 1.000000e+00 -2.346286e-14 -2.108867e-15
    outer loop
      vertex   1.500000e+01 3.300000e+01 1.842328e+00
      vertex   1.500000e+01 3.292664e+01 1.816135e+00
      vertex   1.500000e+01 3.300000e+01 1.000000e+00
    endloop
  endfacet
  facet normal 1.000000e+00 0.000000e+00 0.000000e+00
    outer loop
      vertex   1.500000e+01 3.300000e+01 1.000000e+00
      vertex   1.500000e+01 3.292664e+01 1.816135e+00
      vertex   1.500000e+01 3.285462e+01 1.789416e+00
    endloop
  endfacet
  facet normal 1.000000e+00 0.000000e+00 0.000000e+00
    outer loop
      vertex   1.500000e+01 3.300000e+01 1.000000e+00
      vertex   1.500000e+01 3.285462e+01 1.789416e+00
      vertex   1.500000e+01 3.278396e+01 1.762179e+00
    endloop
  endfacet
  facet normal 1.000000e+00 0.000000e+00 0.000000e+00
    outer loop
      vertex   1.500000e+01 3.278396e+01 1.762179e+00
      vertex   1.500000e+01 3.271468e+01 1.734434e+00
      vertex   1.500000e+01 3.300000e+01 1.000000e+00
    endloop
  endfacet
  facet normal 1.000000e+00 0.000000e+00 0.000000e+00
    outer loop
      vertex   1.500000e+01 3.300000e+01 1.000000e+00
      vertex   1.500000e+01 3.271468e+01 1.734434e+00
      vertex   1.500000e+01 3.264681e+01 1.706193e+00
    endloop
  endfacet
  facet normal 1.000000e+00 0.000000e+00 0.000000e+00
    outer loop
      vertex   1.500000e+01 3.300000e+01 1.000000e+00
      vertex   1.500000e+01 3.264681e+01 1.706193e+00
      vertex   1.500000e+01 3.258037e+01 1.677464e+00
    endloop
  endfacet
  facet normal 1.000000e+00 0.000000e+00 0.000000e+00
    outer loop
      vertex   1.500000e+01 3.258037e+01 1.677464e+00
      vertex   1.500000e+01 3.251540e+01 1.648259e+00
      vertex   1.500000e+01 3.300000e+01 1.000000e+00
    endloop
  endfacet
  facet normal 1.000000e+00 0.000000e+00 0.000000e+00
    outer loop
      vertex   1.500000e+01 3.300000e+01 1.000000e+00
      vertex   1.500000e+01 3.251540e+01 1.648259e+00
      vertex   1.500000e+01 3.245191e+01 1.618588e+00
    endloop
  endfacet
  facet normal 1.000000e+00 0.000000e+00 0.000000e+00
    outer loop
      vertex   1.500000e+01 3.300000e+01 1.000000e+00
      vertex   1.500000e+01 3.245191e+01 1.618588e+00
      vertex   1.500000e+01 3.238992e+01 1.588462e+00
    endloop
  endfacet
  facet normal 1.000000e+00 0.000000e+00 0.000000e+00
    outer loop
      vertex   1.500000e+01 3.238992e+01 1.588462e+00
      vertex   1.500000e+01 3.232946e+01 1.557892e+00
      vertex   1.500000e+01 3.300000e+01 1.000000e+00
    endloop
  endfacet
  facet normal 1.000000e+00 0.000000e+00 0.000000e+00
    outer loop
      vertex   1.500000e+01 3.300000e+01 1.000000e+00
      vertex   1.500000e+01 3.232946e+01 1.557892e+00
      vertex   1.500000e+01 3.227055e+01 1.526889e+00
    endloop
  endfacet
  facet normal 1.000000e+00 0.000000e+00 0.000000e+00
    outer loop
      vertex   1.500000e+01 3.300000e+01 1.000000e+00
      vertex   1.500000e+01 3.227055e+01 1.526889e+00
      vertex   1.500000e+01 3.221321e+01 1.495465e+00
    endloop
  endfacet
  facet normal 1.000000e+00 0.000000e+00 0.000000e+00
    outer loop
      vertex   1.500000e+01 3.300000e+01 1.000000e+00
      vertex   1.500000e+01 3.221321e+01 1.495465e+00
      vertex   1.500000e+01 3.200000e+01 1.000000e+00
    endloop
  endfacet
  facet normal 1.000000e+00 0.000000e+00 0.000000e+00
    outer loop
      vertex   1.500000e+01 3.200000e+01 1.000000e+00
      vertex   1.500000e+01 3.221321e+01 1.495465e+00
      vertex   1.500000e+01 3.215747e+01 1.463631e+00
    endloop
  endfacet
  facet normal 1.000000e+00 0.000000e+00 0.000000e+00
    outer loop
      vertex   1.500000e+01 3.200000e+01 1.000000e+00
      vertex   1.500000e+01 3.215747e+01 1.463631e+00
      vertex   1.500000e+01 3.210334e+01 1.431398e+00
    endloop
  endfacet
  facet normal 1.000000e+00 0.000000e+00 0.000000e+00
    outer loop
      vertex   1.500000e+01 3.210334e+01 1.431398e+00
      vertex   1.500000e+01 3.205084e+01 1.398779e+00
      vertex   1.500000e+01 3.200000e+01 1.000000e+00
    endloop
  endfacet
  facet normal 1.000000e+00 3.808838e-14 -4.856287e-15
    outer loop
      vertex   1.500000e+01 3.200000e+01 1.000000e+00
      vertex   1.500000e+01 3.205084e+01 1.398779e+00
      vertex   1.500000e+01 3.200000e+01 1.365785e+00
    endloop
  endfacet
endsolid
