solid ASCII
  facet normal 5.327969e-01 -2.185159e-01 8.175441e-01
    outer loop
      vertex   7.000000e+00 1.400474e+01 2.000000e+00
      vertex   7.408187e+00 1.500000e+01 2.000000e+00
      vertex   7.000000e+00 1.406318e+01 2.015622e+00
    endloop
  endfacet
  facet normal 5.288171e-01 -2.167309e-01 8.205975e-01
    outer loop
      vertex   7.000000e+00 1.406318e+01 2.015622e+00
      vertex   7.408187e+00 1.500000e+01 2.000000e+00
      vertex   7.365415e+00 1.500000e+01 2.027563e+00
    endloop
  endfacet
  facet normal 5.224252e-01 -2.142979e-01 8.253171e-01
    outer loop
      vertex   7.000000e+00 1.406318e+01 2.015622e+00
      vertex   7.365415e+00 1.500000e+01 2.027563e+00
      vertex   7.000000e+00 1.412218e+01 2.030942e+00
    endloop
  endfacet
  facet normal 5.121847e-01 -2.100062e-01 8.328050e-01
    outer loop
      vertex   7.000000e+00 1.412218e+01 2.030942e+00
      vertex   7.365415e+00 1.500000e+01 2.027563e+00
      vertex   7.000000e+00 1.418173e+01 2.045956e+00
    endloop
  endfacet
  facet normal 5.103568e-01 -2.091599e-01 8.341391e-01
    outer loop
      vertex   7.000000e+00 1.418173e+01 2.045956e+00
      vertex   7.365415e+00 1.500000e+01 2.027563e+00
      vertex   7.321937e+00 1.500000e+01 2.054165e+00
    endloop
  endfacet
  facet normal 5.014795e-01 -2.057296e-01 8.403533e-01
    outer loop
      vertex   7.000000e+00 1.418173e+01 2.045956e+00
      vertex   7.321937e+00 1.500000e+01 2.054165e+00
      vertex   7.000000e+00 1.424180e+01 2.060663e+00
    endloop
  endfacet
  facet normal 4.915990e-01 -2.014757e-01 8.471942e-01
    outer loop
      vertex   7.000000e+00 1.424180e+01 2.060663e+00
      vertex   7.321937e+00 1.500000e+01 2.054165e+00
      vertex   7.277779e+00 1.500000e+01 2.079788e+00
    endloop
  endfacet
  facet normal 4.912174e-01 -2.013422e-01 8.474472e-01
    outer loop
      vertex   7.000000e+00 1.424180e+01 2.060663e+00
      vertex   7.277779e+00 1.500000e+01 2.079788e+00
      vertex   7.000000e+00 1.430239e+01 2.075059e+00
    endloop
  endfacet
  facet normal 4.801994e-01 -1.970045e-01 8.547501e-01
    outer loop
      vertex   7.000000e+00 1.430239e+01 2.075059e+00
      vertex   7.277779e+00 1.500000e+01 2.079788e+00
      vertex   7.000000e+00 1.436350e+01 2.089142e+00
    endloop
  endfacet
  facet normal 4.725628e-01 -1.935980e-01 8.597699e-01
    outer loop
      vertex   7.000000e+00 1.436350e+01 2.089142e+00
      vertex   7.277779e+00 1.500000e+01 2.079788e+00
      vertex   7.232966e+00 1.500000e+01 2.104419e+00
    endloop
  endfacet
  facet normal 4.696189e-01 -1.925647e-01 8.616130e-01
    outer loop
      vertex   7.000000e+00 1.436350e+01 2.089142e+00
      vertex   7.232966e+00 1.500000e+01 2.104419e+00
      vertex   7.000000e+00 1.442510e+01 2.102909e+00
    endloop
  endfacet
  facet normal 4.586251e-01 -1.881279e-01 8.684877e-01
    outer loop
      vertex   7.000000e+00 1.442510e+01 2.102909e+00
      vertex   7.232966e+00 1.500000e+01 2.104419e+00
      vertex   7.000000e+00 1.448718e+01 2.116358e+00
    endloop
  endfacet
  facet normal 4.532507e-01 -1.856082e-01 8.718448e-01
    outer loop
      vertex   7.000000e+00 1.448718e+01 2.116358e+00
      vertex   7.232966e+00 1.500000e+01 2.104419e+00
      vertex   7.187523e+00 1.500000e+01 2.128044e+00
    endloop
  endfacet
  facet normal 4.476687e-01 -1.836421e-01 8.751390e-01
    outer loop
      vertex   7.000000e+00 1.448718e+01 2.116358e+00
      vertex   7.187523e+00 1.500000e+01 2.128044e+00
      vertex   7.000000e+00 1.454974e+01 2.129486e+00
    endloop
  endfacet
  facet normal 4.368213e-01 -1.791038e-01 8.815379e-01
    outer loop
      vertex   7.000000e+00 1.454974e+01 2.129486e+00
      vertex   7.187523e+00 1.500000e+01 2.128044e+00
      vertex   7.000000e+00 1.461277e+01 2.142291e+00
    endloop
  endfacet
  facet normal 4.336741e-01 -1.775108e-01 8.834120e-01
    outer loop
      vertex   7.000000e+00 1.461277e+01 2.142291e+00
      vertex   7.187523e+00 1.500000e+01 2.128044e+00
      vertex   7.141479e+00 1.500000e+01 2.150647e+00
    endloop
  endfacet
  facet normal 4.253833e-01 -1.745810e-01 8.880149e-01
    outer loop
      vertex   7.000000e+00 1.461277e+01 2.142291e+00
      vertex   7.141479e+00 1.500000e+01 2.150647e+00
      vertex   7.000000e+00 1.467625e+01 2.154771e+00
    endloop
  endfacet
  facet normal 4.149170e-01 -1.699329e-01 8.938494e-01
    outer loop
      vertex   7.000000e+00 1.467625e+01 2.154771e+00
      vertex   7.141479e+00 1.500000e+01 2.150647e+00
      vertex   7.000000e+00 1.474016e+01 2.166922e+00
    endloop
  endfacet
  facet normal 4.138444e-01 -1.693104e-01 8.944645e-01
    outer loop
      vertex   7.000000e+00 1.474016e+01 2.166922e+00
      vertex   7.141479e+00 1.500000e+01 2.150647e+00
      vertex   7.094859e+00 1.500000e+01 2.172217e+00
    endloop
  endfacet
  facet normal 4.027795e-01 -1.653884e-01 9.002307e-01
    outer loop
      vertex   7.000000e+00 1.474016e+01 2.166922e+00
      vertex   7.094859e+00 1.500000e+01 2.172217e+00
      vertex   7.000000e+00 1.480451e+01 2.178744e+00
    endloop
  endfacet
  facet normal 3.937829e-01 -1.608631e-01 9.050183e-01
    outer loop
      vertex   7.000000e+00 1.480451e+01 2.178744e+00
      vertex   7.094859e+00 1.500000e+01 2.172217e+00
      vertex   7.047690e+00 1.500000e+01 2.192741e+00
    endloop
  endfacet
  facet normal 3.927350e-01 -1.606428e-01 9.055126e-01
    outer loop
      vertex   7.000000e+00 1.480451e+01 2.178744e+00
      vertex   7.047690e+00 1.500000e+01 2.192741e+00
      vertex   7.000000e+00 1.486927e+01 2.190233e+00
    endloop
  endfacet
  facet normal 3.798741e-01 -1.560713e-01 9.117771e-01
    outer loop
      vertex   7.000000e+00 1.486927e+01 2.190233e+00
      vertex   7.047690e+00 1.500000e+01 2.192741e+00
      vertex   7.000000e+00 1.493444e+01 2.201388e+00
    endloop
  endfacet
  facet normal 3.735649e-01 -1.510267e-01 9.152269e-01
    outer loop
      vertex   7.000000e+00 1.493444e+01 2.201388e+00
      vertex   7.047690e+00 1.500000e+01 2.192741e+00
      vertex   7.000000e+00 1.500000e+01 2.212206e+00
    endloop
  endfacet
  facet normal 0.000000e+00 1.000000e+00 0.000000e+00
    outer loop
      vertex   7.000000e+00 1.500000e+01 2.212206e+00
      vertex   7.047690e+00 1.500000e+01 2.192741e+00
      vertex   7.000000e+00 1.500000e+01 2.000000e+00
    endloop
  endfacet
  facet normal 0.000000e+00 1.000000e+00 0.000000e+00
    outer loop
      vertex   7.000000e+00 1.500000e+01 2.000000e+00
      vertex   7.047690e+00 1.500000e+01 2.192741e+00
      vertex   7.094859e+00 1.500000e+01 2.172217e+00
    endloop
  endfacet
  facet normal 0.000000e+00 1.000000e+00 0.000000e+00
    outer loop
      vertex   7.000000e+00 1.500000e+01 2.000000e+00
      vertex   7.094859e+00 1.500000e+01 2.172217e+00
      vertex   7.141479e+00 1.500000e+01 2.150647e+00
    endloop
  endfacet
  facet normal 0.000000e+00 1.000000e+00 0.000000e+00
    outer loop
      vertex   7.141479e+00 1.500000e+01 2.150647e+00
      vertex   7.187523e+00 1.500000e+01 2.128044e+00
      vertex   7.000000e+00 1.500000e+01 2.000000e+00
    endloop
  endfacet
  facet normal 0.000000e+00 1.000000e+00 0.000000e+00
    outer loop
      vertex   7.000000e+00 1.500000e+01 2.000000e+00
      vertex   7.187523e+00 1.500000e+01 2.128044e+00
      vertex   7.232966e+00 1.500000e+01 2.104419e+00
    endloop
  endfacet
  facet normal 0.000000e+00 1.000000e+00 0.000000e+00
    outer loop
      vertex   7.000000e+00 1.500000e+01 2.000000e+00
      vertex   7.232966e+00 1.500000e+01 2.104419e+00
      vertex   7.277779e+00 1.500000e+01 2.079788e+00
    endloop
  endfacet
  facet normal 0.000000e+00 1.000000e+00 0.000000e+00
    outer loop
      vertex   7.277779e+00 1.500000e+01 2.079788e+00
      vertex   7.321937e+00 1.500000e+01 2.054165e+00
      vertex   7.000000e+00 1.500000e+01 2.000000e+00
    endloop
  endfacet
  facet normal 0.000000e+00 1.000000e+00 0.000000e+00
    outer loop
      vertex   7.000000e+00 1.500000e+01 2.000000e+00
      vertex   7.321937e+00 1.500000e+01 2.054165e+00
      vertex   7.365415e+00 1.500000e+01 2.027563e+00
    endloop
  endfacet
  facet normal 0.000000e+00 1.000000e+00 0.000000e+00
    outer loop
      vertex   7.000000e+00 1.500000e+01 2.000000e+00
      vertex   7.365415e+00 1.500000e+01 2.027563e+00
      vertex   7.408187e+00 1.500000e+01 2.000000e+00
    endloop
  endfacet
  facet normal -0.000000e+00 0.000000e+00 -1.000000e+00
    outer loop
      vertex   7.408187e+00 1.500000e+01 2.000000e+00
      vertex   7.000000e+00 1.400474e+01 2.000000e+00
      vertex   7.000000e+00 1.500000e+01 2.000000e+00
    endloop
  endfacet
  facet normal -1.000000e+00 0.000000e+00 0.000000e+00
    outer loop
      vertex   7.000000e+00 1.400474e+01 2.000000e+00
      vertex   7.000000e+00 1.406318e+01 2.015622e+00
      vertex   7.000000e+00 1.500000e+01 2.000000e+00
    endloop
  endfacet
  facet normal -1.000000e+00 0.000000e+00 0.000000e+00
    outer loop
      vertex   7.000000e+00 1.500000e+01 2.000000e+00
      vertex   7.000000e+00 1.406318e+01 2.015622e+00
      vertex   7.000000e+00 1.412218e+01 2.030942e+00
    endloop
  endfacet
  facet normal -1.000000e+00 0.000000e+00 0.000000e+00
    outer loop
      vertex   7.000000e+00 1.500000e+01 2.000000e+00
      vertex   7.000000e+00 1.412218e+01 2.030942e+00
      vertex   7.000000e+00 1.418173e+01 2.045956e+00
    endloop
  endfacet
  facet normal -1.000000e+00 0.000000e+00 0.000000e+00
    outer loop
      vertex   7.000000e+00 1.418173e+01 2.045956e+00
      vertex   7.000000e+00 1.424180e+01 2.060663e+00
      vertex   7.000000e+00 1.500000e+01 2.000000e+00
    endloop
  endfacet
  facet normal -1.000000e+00 0.000000e+00 0.000000e+00
    outer loop
      vertex   7.000000e+00 1.500000e+01 2.000000e+00
      vertex   7.000000e+00 1.424180e+01 2.060663e+00
      vertex   7.000000e+00 1.430239e+01 2.075059e+00
    endloop
  endfacet
  facet normal -1.000000e+00 0.000000e+00 0.000000e+00
    outer loop
      vertex   7.000000e+00 1.500000e+01 2.000000e+00
      vertex   7.000000e+00 1.430239e+01 2.075059e+00
      vertex   7.000000e+00 1.436350e+01 2.089142e+00
    endloop
  endfacet
  facet normal -1.000000e+00 0.000000e+00 0.000000e+00
    outer loop
      vertex   7.000000e+00 1.436350e+01 2.089142e+00
      vertex   7.000000e+00 1.442510e+01 2.102909e+00
      vertex   7.000000e+00 1.500000e+01 2.000000e+00
    endloop
  endfacet
  facet normal -1.000000e+00 0.000000e+00 0.000000e+00
    outer loop
      vertex   7.000000e+00 1.500000e+01 2.000000e+00
      vertex   7.000000e+00 1.442510e+01 2.102909e+00
      vertex   7.000000e+00 1.448718e+01 2.116358e+00
    endloop
  endfacet
  facet normal -1.000000e+00 0.000000e+00 0.000000e+00
    outer loop
      vertex   7.000000e+00 1.500000e+01 2.000000e+00
      vertex   7.000000e+00 1.448718e+01 2.116358e+00
      vertex   7.000000e+00 1.454974e+01 2.129486e+00
    endloop
  endfacet
  facet normal -1.000000e+00 0.000000e+00 0.000000e+00
    outer loop
      vertex   7.000000e+00 1.454974e+01 2.129486e+00
      vertex   7.000000e+00 1.461277e+01 2.142291e+00
      vertex   7.000000e+00 1.500000e+01 2.000000e+00
    endloop
  endfacet
  facet normal -1.000000e+00 0.000000e+00 0.000000e+00
    outer loop
      vertex   7.000000e+00 1.500000e+01 2.000000e+00
      vertex   7.000000e+00 1.461277e+01 2.142291e+00
      vertex   7.000000e+00 1.467625e+01 2.154771e+00
    endloop
  endfacet
  facet normal -1.000000e+00 0.000000e+00 0.000000e+00
    outer loop
      vertex   7.000000e+00 1.500000e+01 2.000000e+00
      vertex   7.000000e+00 1.467625e+01 2.154771e+00
      vertex   7.000000e+00 1.474016e+01 2.166922e+00
    endloop
  endfacet
  facet normal -1.000000e+00 0.000000e+00 0.000000e+00
    outer loop
      vertex   7.000000e+00 1.474016e+01 2.166922e+00
      vertex   7.000000e+00 1.480451e+01 2.178744e+00
      vertex   7.000000e+00 1.500000e+01 2.000000e+00
    endloop
  endfacet
  facet normal -1.000000e+00 0.000000e+00 0.000000e+00
    outer loop
      vertex   7.000000e+00 1.500000e+01 2.000000e+00
      vertex   7.000000e+00 1.480451e+01 2.178744e+00
      vertex   7.000000e+00 1.486927e+01 2.190233e+00
    endloop
  endfacet
  facet normal -1.000000e+00 0.000000e+00 0.000000e+00
    outer loop
      vertex   7.000000e+00 1.500000e+01 2.000000e+00
      vertex   7.000000e+00 1.486927e+01 2.190233e+00
      vertex   7.000000e+00 1.493444e+01 2.201388e+00
    endloop
  endfacet
  facet normal -1.000000e+00 0.000000e+00 0.000000e+00
    outer loop
      vertex   7.000000e+00 1.493444e+01 2.201388e+00
      vertex   7.000000e+00 1.500000e+01 2.212206e+00
      vertex   7.000000e+00 1.500000e+01 2.000000e+00
    endloop
  endfacet
endsolid
