solid ASCII
  facet normal 6.684448e-01 -2.741492e-01 -6.913926e-01
    outer loop
      vertex   9.000000e+00 1.811253e+01 -1.000000e+00
      vertex   8.953847e+00 1.800000e+01 -1.000000e+00
      vertex   9.000000e+00 1.816293e+01 -1.019984e+00
    endloop
  endfacet
  facet normal 6.632983e-01 -2.733363e-01 -6.966510e-01
    outer loop
      vertex   9.000000e+00 1.816293e+01 -1.019984e+00
      vertex   8.953847e+00 1.800000e+01 -1.000000e+00
      vertex   8.909972e+00 1.800000e+01 -1.041774e+00
    endloop
  endfacet
  facet normal 6.593937e-01 -2.705392e-01 -7.014332e-01
    outer loop
      vertex   9.000000e+00 1.816293e+01 -1.019984e+00
      vertex   8.909972e+00 1.800000e+01 -1.041774e+00
      vertex   9.000000e+00 1.821405e+01 -1.039701e+00
    endloop
  endfacet
  facet normal 6.506139e-01 -2.667537e-01 -7.110162e-01
    outer loop
      vertex   9.000000e+00 1.821405e+01 -1.039701e+00
      vertex   8.909972e+00 1.800000e+01 -1.041774e+00
      vertex   9.000000e+00 1.826589e+01 -1.059148e+00
    endloop
  endfacet
  facet normal 6.443421e-01 -2.650432e-01 -7.173391e-01
    outer loop
      vertex   9.000000e+00 1.826589e+01 -1.059148e+00
      vertex   8.909972e+00 1.800000e+01 -1.041774e+00
      vertex   8.864801e+00 1.800000e+01 -1.082349e+00
    endloop
  endfacet
  facet normal 6.411228e-01 -2.630927e-01 -7.209326e-01
    outer loop
      vertex   9.000000e+00 1.826589e+01 -1.059148e+00
      vertex   8.864801e+00 1.800000e+01 -1.082349e+00
      vertex   9.000000e+00 1.831843e+01 -1.078321e+00
    endloop
  endfacet
  facet normal 6.321950e-01 -2.591852e-01 -7.301729e-01
    outer loop
      vertex   9.000000e+00 1.831843e+01 -1.078321e+00
      vertex   8.864801e+00 1.800000e+01 -1.082349e+00
      vertex   9.000000e+00 1.837166e+01 -1.097216e+00
    endloop
  endfacet
  facet normal 6.247845e-01 -2.567772e-01 -7.373668e-01
    outer loop
      vertex   9.000000e+00 1.837166e+01 -1.097216e+00
      vertex   8.864801e+00 1.800000e+01 -1.082349e+00
      vertex   8.818371e+00 1.800000e+01 -1.121689e+00
    endloop
  endfacet
  facet normal 6.223783e-01 -2.554370e-01 -7.398630e-01
    outer loop
      vertex   9.000000e+00 1.837166e+01 -1.097216e+00
      vertex   8.818371e+00 1.800000e+01 -1.121689e+00
      vertex   9.000000e+00 1.842557e+01 -1.115831e+00
    endloop
  endfacet
  facet normal 6.132674e-01 -2.514257e-01 -7.487912e-01
    outer loop
      vertex   9.000000e+00 1.842557e+01 -1.115831e+00
      vertex   8.818371e+00 1.800000e+01 -1.121689e+00
      vertex   9.000000e+00 1.848016e+01 -1.134161e+00
    endloop
  endfacet
  facet normal 6.046772e-01 -2.483830e-01 -7.567505e-01
    outer loop
      vertex   9.000000e+00 1.848016e+01 -1.134161e+00
      vertex   8.818371e+00 1.800000e+01 -1.121689e+00
      vertex   8.770724e+00 1.800000e+01 -1.159762e+00
    endloop
  endfacet
  facet normal 6.031638e-01 -2.475820e-01 -7.582194e-01
    outer loop
      vertex   9.000000e+00 1.848016e+01 -1.134161e+00
      vertex   8.770724e+00 1.800000e+01 -1.159762e+00
      vertex   9.000000e+00 1.853542e+01 -1.152202e+00
    endloop
  endfacet
  facet normal 5.938596e-01 -2.434760e-01 -7.668443e-01
    outer loop
      vertex   9.000000e+00 1.853542e+01 -1.152202e+00
      vertex   8.770724e+00 1.800000e+01 -1.159762e+00
      vertex   9.000000e+00 1.859132e+01 -1.169952e+00
    endloop
  endfacet
  facet normal 5.840475e-01 -2.398204e-01 -7.754835e-01
    outer loop
      vertex   9.000000e+00 1.859132e+01 -1.169952e+00
      vertex   8.770724e+00 1.800000e+01 -1.159762e+00
      vertex   8.721898e+00 1.800000e+01 -1.196534e+00
    endloop
  endfacet
  facet normal 5.834902e-01 -2.395355e-01 -7.759909e-01
    outer loop
      vertex   9.000000e+00 1.859132e+01 -1.169952e+00
      vertex   8.721898e+00 1.800000e+01 -1.196534e+00
      vertex   9.000000e+00 1.864787e+01 -1.187407e+00
    endloop
  endfacet
  facet normal 5.739911e-01 -2.353407e-01 -7.843143e-01
    outer loop
      vertex   9.000000e+00 1.864787e+01 -1.187407e+00
      vertex   8.721898e+00 1.800000e+01 -1.196534e+00
      vertex   9.000000e+00 1.870504e+01 -1.204563e+00
    endloop
  endfacet
  facet normal 5.629171e-01 -2.310777e-01 -7.935537e-01
    outer loop
      vertex   9.000000e+00 1.870504e+01 -1.204563e+00
      vertex   8.721898e+00 1.800000e+01 -1.196534e+00
      vertex   8.671935e+00 1.800000e+01 -1.231976e+00
    endloop
  endfacet
  facet normal 5.633711e-01 -2.313041e-01 -7.931655e-01
    outer loop
      vertex   9.000000e+00 1.870504e+01 -1.204563e+00
      vertex   8.671935e+00 1.800000e+01 -1.231976e+00
      vertex   9.000000e+00 1.876284e+01 -1.221418e+00
    endloop
  endfacet
  facet normal 5.536794e-01 -2.270251e-01 -8.011858e-01
    outer loop
      vertex   9.000000e+00 1.876284e+01 -1.221418e+00
      vertex   8.671935e+00 1.800000e+01 -1.231976e+00
      vertex   9.000000e+00 1.882124e+01 -1.237968e+00
    endloop
  endfacet
  facet normal 5.430765e-01 -2.228507e-01 -8.095712e-01
    outer loop
      vertex   9.000000e+00 1.882124e+01 -1.237968e+00
      vertex   8.671935e+00 1.800000e+01 -1.231976e+00
      vertex   9.000000e+00 1.888025e+01 -1.254209e+00
    endloop
  endfacet
  facet normal 5.412970e-01 -2.222219e-01 -8.109347e-01
    outer loop
      vertex   9.000000e+00 1.888025e+01 -1.254209e+00
      vertex   8.671935e+00 1.800000e+01 -1.231976e+00
      vertex   8.620878e+00 1.800000e+01 -1.266056e+00
    endloop
  endfacet
  facet normal 5.329410e-01 -2.185354e-01 -8.174449e-01
    outer loop
      vertex   9.000000e+00 1.888025e+01 -1.254209e+00
      vertex   8.620878e+00 1.800000e+01 -1.266056e+00
      vertex   9.000000e+00 1.893984e+01 -1.270140e+00
    endloop
  endfacet
  facet normal 5.222417e-01 -2.142542e-01 -8.254446e-01
    outer loop
      vertex   9.000000e+00 1.893984e+01 -1.270140e+00
      vertex   8.620878e+00 1.800000e+01 -1.266056e+00
      vertex   9.000000e+00 1.900000e+01 -1.285756e+00
    endloop
  endfacet
  facet normal 5.192209e-01 -2.131520e-01 -8.276327e-01
    outer loop
      vertex   9.000000e+00 1.900000e+01 -1.285756e+00
      vertex   8.620878e+00 1.800000e+01 -1.266056e+00
      vertex   8.568771e+00 1.800000e+01 -1.298747e+00
    endloop
  endfacet
  facet normal 5.058283e-01 -2.072503e-01 -8.373680e-01
    outer loop
      vertex   9.000000e+00 1.900000e+01 -1.285756e+00
      vertex   8.568771e+00 1.800000e+01 -1.298747e+00
      vertex   8.947127e+00 1.900000e+01 -1.317695e+00
    endloop
  endfacet
  facet normal 4.967025e-01 -2.039160e-01 -8.436261e-01
    outer loop
      vertex   8.947127e+00 1.900000e+01 -1.317695e+00
      vertex   8.568771e+00 1.800000e+01 -1.298747e+00
      vertex   8.515656e+00 1.800000e+01 -1.330019e+00
    endloop
  endfacet
  facet normal 4.829828e-01 -1.978812e-01 -8.529775e-01
    outer loop
      vertex   8.947127e+00 1.900000e+01 -1.317695e+00
      vertex   8.515656e+00 1.800000e+01 -1.330019e+00
      vertex   8.893268e+00 1.900000e+01 -1.348192e+00
    endloop
  endfacet
  facet normal 4.737626e-01 -1.945072e-01 -8.589039e-01
    outer loop
      vertex   8.893268e+00 1.900000e+01 -1.348192e+00
      vertex   8.515656e+00 1.800000e+01 -1.330019e+00
      vertex   8.461579e+00 1.800000e+01 -1.359847e+00
    endloop
  endfacet
  facet normal 4.597253e-01 -1.883431e-01 -8.678591e-01
    outer loop
      vertex   8.893268e+00 1.900000e+01 -1.348192e+00
      vertex   8.461579e+00 1.800000e+01 -1.359847e+00
      vertex   8.838469e+00 1.900000e+01 -1.377220e+00
    endloop
  endfacet
  facet normal 4.504209e-01 -1.849335e-01 -8.734533e-01
    outer loop
      vertex   8.838469e+00 1.900000e+01 -1.377220e+00
      vertex   8.461579e+00 1.800000e+01 -1.359847e+00
      vertex   8.406587e+00 1.800000e+01 -1.388205e+00
    endloop
  endfacet
  facet normal 4.360757e-01 -1.786442e-01 -8.820002e-01
    outer loop
      vertex   8.838469e+00 1.900000e+01 -1.377220e+00
      vertex   8.406587e+00 1.800000e+01 -1.388205e+00
      vertex   8.782777e+00 1.900000e+01 -1.404755e+00
    endloop
  endfacet
  facet normal 4.266970e-01 -1.752031e-01 -8.872618e-01
    outer loop
      vertex   8.782777e+00 1.900000e+01 -1.404755e+00
      vertex   8.406587e+00 1.800000e+01 -1.388205e+00
      vertex   8.350725e+00 1.800000e+01 -1.415070e+00
    endloop
  endfacet
  facet normal 4.120540e-01 -1.687927e-01 -8.953885e-01
    outer loop
      vertex   8.782777e+00 1.900000e+01 -1.404755e+00
      vertex   8.350725e+00 1.800000e+01 -1.415070e+00
      vertex   8.726240e+00 1.900000e+01 -1.430773e+00
    endloop
  endfacet
  facet normal 4.026111e-01 -1.653242e-01 -9.003179e-01
    outer loop
      vertex   8.726240e+00 1.900000e+01 -1.430773e+00
      vertex   8.350725e+00 1.800000e+01 -1.415070e+00
      vertex   8.294041e+00 1.800000e+01 -1.440418e+00
    endloop
  endfacet
  facet normal 3.876808e-01 -1.587971e-01 -9.080127e-01
    outer loop
      vertex   8.726240e+00 1.900000e+01 -1.430773e+00
      vertex   8.294041e+00 1.800000e+01 -1.440418e+00
      vertex   8.668905e+00 1.900000e+01 -1.455253e+00
    endloop
  endfacet
  facet normal 3.781835e-01 -1.553051e-01 -9.126103e-01
    outer loop
      vertex   8.668905e+00 1.900000e+01 -1.455253e+00
      vertex   8.294041e+00 1.800000e+01 -1.440418e+00
      vertex   8.236584e+00 1.800000e+01 -1.464229e+00
    endloop
  endfacet
  facet normal 3.629768e-01 -1.486659e-01 -9.198621e-01
    outer loop
      vertex   8.668905e+00 1.900000e+01 -1.455253e+00
      vertex   8.236584e+00 1.800000e+01 -1.464229e+00
      vertex   8.610822e+00 1.900000e+01 -1.478172e+00
    endloop
  endfacet
  facet normal 3.534351e-01 -1.451545e-01 -9.241287e-01
    outer loop
      vertex   8.610822e+00 1.900000e+01 -1.478172e+00
      vertex   8.236584e+00 1.800000e+01 -1.464229e+00
      vertex   8.178402e+00 1.800000e+01 -1.486481e+00
    endloop
  endfacet
  facet normal 3.379633e-01 -1.384077e-01 -9.309265e-01
    outer loop
      vertex   8.610822e+00 1.900000e+01 -1.478172e+00
      vertex   8.178402e+00 1.800000e+01 -1.486481e+00
      vertex   8.552041e+00 1.900000e+01 -1.499512e+00
    endloop
  endfacet
  facet normal 3.283868e-01 -1.348808e-01 -9.348632e-01
    outer loop
      vertex   8.552041e+00 1.900000e+01 -1.499512e+00
      vertex   8.178402e+00 1.800000e+01 -1.486481e+00
      vertex   8.119543e+00 1.800000e+01 -1.507156e+00
    endloop
  endfacet
  facet normal 3.126615e-01 -1.280313e-01 -9.411965e-01
    outer loop
      vertex   8.552041e+00 1.900000e+01 -1.499512e+00
      vertex   8.119543e+00 1.800000e+01 -1.507156e+00
      vertex   8.492610e+00 1.900000e+01 -1.519255e+00
    endloop
  endfacet
  facet normal 3.030598e-01 -1.244929e-01 -9.448049e-01
    outer loop
      vertex   8.492610e+00 1.900000e+01 -1.519255e+00
      vertex   8.119543e+00 1.800000e+01 -1.507156e+00
      vertex   8.060059e+00 1.800000e+01 -1.526236e+00
    endloop
  endfacet
  facet normal 2.870930e-01 -1.175455e-01 -9.506633e-01
    outer loop
      vertex   8.492610e+00 1.900000e+01 -1.519255e+00
      vertex   8.060059e+00 1.800000e+01 -1.526236e+00
      vertex   8.432582e+00 1.900000e+01 -1.537383e+00
    endloop
  endfacet
  facet normal 2.774757e-01 -1.139994e-01 -9.539452e-01
    outer loop
      vertex   8.432582e+00 1.900000e+01 -1.537383e+00
      vertex   8.060059e+00 1.800000e+01 -1.526236e+00
      vertex   8.000000e+00 1.800000e+01 -1.543705e+00
    endloop
  endfacet
  facet normal 2.612796e-01 -1.069593e-01 -9.593188e-01
    outer loop
      vertex   8.432582e+00 1.900000e+01 -1.537383e+00
      vertex   8.000000e+00 1.800000e+01 -1.543705e+00
      vertex   8.372008e+00 1.900000e+01 -1.553881e+00
    endloop
  endfacet
  facet normal 2.535815e-01 -1.041197e-01 -9.616941e-01
    outer loop
      vertex   8.372008e+00 1.900000e+01 -1.553881e+00
      vertex   8.000000e+00 1.800000e+01 -1.543705e+00
      vertex   8.000000e+00 1.812267e+01 -1.556987e+00
    endloop
  endfacet
  facet normal 2.352425e-01 -9.632423e-02 -9.671518e-01
    outer loop
      vertex   8.372008e+00 1.900000e+01 -1.553881e+00
      vertex   8.000000e+00 1.812267e+01 -1.556987e+00
      vertex   8.310938e+00 1.900000e+01 -1.568735e+00
    endloop
  endfacet
  facet normal 2.321856e-01 -9.525213e-02 -9.679963e-01
    outer loop
      vertex   8.310938e+00 1.900000e+01 -1.568735e+00
      vertex   8.000000e+00 1.812267e+01 -1.556987e+00
      vertex   8.000000e+00 1.824615e+01 -1.569137e+00
    endloop
  endfacet
  facet normal 2.105677e-01 -8.633236e-02 -9.737597e-01
    outer loop
      vertex   8.310938e+00 1.900000e+01 -1.568735e+00
      vertex   8.000000e+00 1.824615e+01 -1.569137e+00
      vertex   8.000000e+00 1.837037e+01 -1.580151e+00
    endloop
  endfacet
  facet normal 2.090061e-01 -8.555382e-02 -9.741648e-01
    outer loop
      vertex   8.310938e+00 1.900000e+01 -1.568735e+00
      vertex   8.000000e+00 1.837037e+01 -1.580151e+00
      vertex   8.249425e+00 1.900000e+01 -1.581932e+00
    endloop
  endfacet
  facet normal 1.883145e-01 -7.737075e-02 -9.790564e-01
    outer loop
      vertex   8.249425e+00 1.900000e+01 -1.581932e+00
      vertex   8.000000e+00 1.837037e+01 -1.580151e+00
      vertex   8.000000e+00 1.849526e+01 -1.590020e+00
    endloop
  endfacet
  facet normal 1.825939e-01 -7.452292e-02 -9.803600e-01
    outer loop
      vertex   8.249425e+00 1.900000e+01 -1.581932e+00
      vertex   8.000000e+00 1.849526e+01 -1.590020e+00
      vertex   8.187522e+00 1.900000e+01 -1.593462e+00
    endloop
  endfacet
  facet normal 1.659463e-01 -6.836119e-02 -9.837625e-01
    outer loop
      vertex   8.187522e+00 1.900000e+01 -1.593462e+00
      vertex   8.000000e+00 1.849526e+01 -1.590020e+00
      vertex   8.000000e+00 1.862074e+01 -1.598740e+00
    endloop
  endfacet
  facet normal 1.560245e-01 -6.342825e-02 -9.857146e-01
    outer loop
      vertex   8.187522e+00 1.900000e+01 -1.593462e+00
      vertex   8.000000e+00 1.862074e+01 -1.598740e+00
      vertex   8.125281e+00 1.900000e+01 -1.603314e+00
    endloop
  endfacet
  facet normal 1.434769e-01 -5.930944e-02 -9.878749e-01
    outer loop
      vertex   8.125281e+00 1.900000e+01 -1.603314e+00
      vertex   8.000000e+00 1.862074e+01 -1.598740e+00
      vertex   8.000000e+00 1.874674e+01 -1.606304e+00
    endloop
  endfacet
  facet normal 1.293210e-01 -5.227915e-02 -9.902237e-01
    outer loop
      vertex   8.125281e+00 1.900000e+01 -1.603314e+00
      vertex   8.000000e+00 1.874674e+01 -1.606304e+00
      vertex   8.062756e+00 1.900000e+01 -1.611479e+00
    endloop
  endfacet
  facet normal 1.209199e-01 -5.022129e-02 -9.913910e-01
    outer loop
      vertex   8.062756e+00 1.900000e+01 -1.611479e+00
      vertex   8.000000e+00 1.874674e+01 -1.606304e+00
      vertex   8.000000e+00 1.887318e+01 -1.612710e+00
    endloop
  endfacet
  facet normal 1.025064e-01 -4.108499e-02 -9.938835e-01
    outer loop
      vertex   8.062756e+00 1.900000e+01 -1.611479e+00
      vertex   8.000000e+00 1.887318e+01 -1.612710e+00
      vertex   8.000000e+00 1.900000e+01 -1.617952e+00
    endloop
  endfacet
  facet normal -1.000000e+00 0.000000e+00 0.000000e+00
    outer loop
      vertex   8.000000e+00 1.900000e+01 -1.617952e+00
      vertex   8.000000e+00 1.887318e+01 -1.612710e+00
      vertex   8.000000e+00 1.900000e+01 -1.000000e+00
    endloop
  endfacet
  facet normal -1.000000e+00 0.000000e+00 0.000000e+00
    outer loop
      vertex   8.000000e+00 1.900000e+01 -1.000000e+00
      vertex   8.000000e+00 1.887318e+01 -1.612710e+00
      vertex   8.000000e+00 1.874674e+01 -1.606304e+00
    endloop
  endfacet
  facet normal -1.000000e+00 0.000000e+00 0.000000e+00
    outer loop
      vertex   8.000000e+00 1.900000e+01 -1.000000e+00
      vertex   8.000000e+00 1.874674e+01 -1.606304e+00
      vertex   8.000000e+00 1.862074e+01 -1.598740e+00
    endloop
  endfacet
  facet normal -1.000000e+00 0.000000e+00 0.000000e+00
    outer loop
      vertex   8.000000e+00 1.862074e+01 -1.598740e+00
      vertex   8.000000e+00 1.849526e+01 -1.590020e+00
      vertex   8.000000e+00 1.900000e+01 -1.000000e+00
    endloop
  endfacet
  facet normal -1.000000e+00 0.000000e+00 0.000000e+00
    outer loop
      vertex   8.000000e+00 1.900000e+01 -1.000000e+00
      vertex   8.000000e+00 1.849526e+01 -1.590020e+00
      vertex   8.000000e+00 1.837037e+01 -1.580151e+00
    endloop
  endfacet
  facet normal -1.000000e+00 -0.000000e+00 0.000000e+00
    outer loop
      vertex   8.000000e+00 1.900000e+01 -1.000000e+00
      vertex   8.000000e+00 1.837037e+01 -1.580151e+00
      vertex   8.000000e+00 1.800000e+01 -1.000000e+00
    endloop
  endfacet
  facet normal -1.000000e+00 0.000000e+00 0.000000e+00
    outer loop
      vertex   8.000000e+00 1.800000e+01 -1.000000e+00
      vertex   8.000000e+00 1.837037e+01 -1.580151e+00
      vertex   8.000000e+00 1.824615e+01 -1.569137e+00
    endloop
  endfacet
  facet normal -1.000000e+00 0.000000e+00 0.000000e+00
    outer loop
      vertex   8.000000e+00 1.800000e+01 -1.000000e+00
      vertex   8.000000e+00 1.824615e+01 -1.569137e+00
      vertex   8.000000e+00 1.812267e+01 -1.556987e+00
    endloop
  endfacet
  facet normal -1.000000e+00 -1.483439e-14 -3.267131e-15
    outer loop
      vertex   8.000000e+00 1.812267e+01 -1.556987e+00
      vertex   8.000000e+00 1.800000e+01 -1.543705e+00
      vertex   8.000000e+00 1.800000e+01 -1.000000e+00
    endloop
  endfacet
  facet normal 0.000000e+00 -1.000000e+00 0.000000e+00
    outer loop
      vertex   8.000000e+00 1.800000e+01 -1.543705e+00
      vertex   8.060059e+00 1.800000e+01 -1.526236e+00
      vertex   8.000000e+00 1.800000e+01 -1.000000e+00
    endloop
  endfacet
  facet normal 0.000000e+00 -1.000000e+00 0.000000e+00
    outer loop
      vertex   8.000000e+00 1.800000e+01 -1.000000e+00
      vertex   8.060059e+00 1.800000e+01 -1.526236e+00
      vertex   8.119543e+00 1.800000e+01 -1.507156e+00
    endloop
  endfacet
  facet normal 0.000000e+00 -1.000000e+00 0.000000e+00
    outer loop
      vertex   8.000000e+00 1.800000e+01 -1.000000e+00
      vertex   8.119543e+00 1.800000e+01 -1.507156e+00
      vertex   8.178402e+00 1.800000e+01 -1.486481e+00
    endloop
  endfacet
  facet normal 0.000000e+00 -1.000000e+00 0.000000e+00
    outer loop
      vertex   8.178402e+00 1.800000e+01 -1.486481e+00
      vertex   8.236584e+00 1.800000e+01 -1.464229e+00
      vertex   8.000000e+00 1.800000e+01 -1.000000e+00
    endloop
  endfacet
  facet normal 0.000000e+00 -1.000000e+00 0.000000e+00
    outer loop
      vertex   8.000000e+00 1.800000e+01 -1.000000e+00
      vertex   8.236584e+00 1.800000e+01 -1.464229e+00
      vertex   8.294041e+00 1.800000e+01 -1.440418e+00
    endloop
  endfacet
  facet normal 0.000000e+00 -1.000000e+00 0.000000e+00
    outer loop
      vertex   8.000000e+00 1.800000e+01 -1.000000e+00
      vertex   8.294041e+00 1.800000e+01 -1.440418e+00
      vertex   8.350725e+00 1.800000e+01 -1.415070e+00
    endloop
  endfacet
  facet normal 0.000000e+00 -1.000000e+00 0.000000e+00
    outer loop
      vertex   8.350725e+00 1.800000e+01 -1.415070e+00
      vertex   8.406587e+00 1.800000e+01 -1.388205e+00
      vertex   8.000000e+00 1.800000e+01 -1.000000e+00
    endloop
  endfacet
  facet normal 0.000000e+00 -1.000000e+00 0.000000e+00
    outer loop
      vertex   8.000000e+00 1.800000e+01 -1.000000e+00
      vertex   8.406587e+00 1.800000e+01 -1.388205e+00
      vertex   8.461579e+00 1.800000e+01 -1.359847e+00
    endloop
  endfacet
  facet normal 0.000000e+00 -1.000000e+00 0.000000e+00
    outer loop
      vertex   8.000000e+00 1.800000e+01 -1.000000e+00
      vertex   8.461579e+00 1.800000e+01 -1.359847e+00
      vertex   8.515656e+00 1.800000e+01 -1.330019e+00
    endloop
  endfacet
  facet normal 0.000000e+00 -1.000000e+00 0.000000e+00
    outer loop
      vertex   8.515656e+00 1.800000e+01 -1.330019e+00
      vertex   8.568771e+00 1.800000e+01 -1.298747e+00
      vertex   8.000000e+00 1.800000e+01 -1.000000e+00
    endloop
  endfacet
  facet normal 0.000000e+00 -1.000000e+00 0.000000e+00
    outer loop
      vertex   8.000000e+00 1.800000e+01 -1.000000e+00
      vertex   8.568771e+00 1.800000e+01 -1.298747e+00
      vertex   8.620878e+00 1.800000e+01 -1.266056e+00
    endloop
  endfacet
  facet normal 0.000000e+00 -1.000000e+00 0.000000e+00
    outer loop
      vertex   8.000000e+00 1.800000e+01 -1.000000e+00
      vertex   8.620878e+00 1.800000e+01 -1.266056e+00
      vertex   8.671935e+00 1.800000e+01 -1.231976e+00
    endloop
  endfacet
  facet normal 0.000000e+00 -1.000000e+00 0.000000e+00
    outer loop
      vertex   8.671935e+00 1.800000e+01 -1.231976e+00
      vertex   8.721898e+00 1.800000e+01 -1.196534e+00
      vertex   8.000000e+00 1.800000e+01 -1.000000e+00
    endloop
  endfacet
  facet normal 0.000000e+00 -1.000000e+00 0.000000e+00
    outer loop
      vertex   8.000000e+00 1.800000e+01 -1.000000e+00
      vertex   8.721898e+00 1.800000e+01 -1.196534e+00
      vertex   8.770724e+00 1.800000e+01 -1.159762e+00
    endloop
  endfacet
  facet normal 0.000000e+00 -1.000000e+00 0.000000e+00
    outer loop
      vertex   8.000000e+00 1.800000e+01 -1.000000e+00
      vertex   8.770724e+00 1.800000e+01 -1.159762e+00
      vertex   8.818371e+00 1.800000e+01 -1.121689e+00
    endloop
  endfacet
  facet normal 0.000000e+00 -1.000000e+00 0.000000e+00
    outer loop
      vertex   8.818371e+00 1.800000e+01 -1.121689e+00
      vertex   8.864801e+00 1.800000e+01 -1.082349e+00
      vertex   8.000000e+00 1.800000e+01 -1.000000e+00
    endloop
  endfacet
  facet normal 0.000000e+00 -1.000000e+00 0.000000e+00
    outer loop
      vertex   8.000000e+00 1.800000e+01 -1.000000e+00
      vertex   8.864801e+00 1.800000e+01 -1.082349e+00
      vertex   8.909972e+00 1.800000e+01 -1.041774e+00
    endloop
  endfacet
  facet normal 0.000000e+00 -1.000000e+00 0.000000e+00
    outer loop
      vertex   8.000000e+00 1.800000e+01 -1.000000e+00
      vertex   8.909972e+00 1.800000e+01 -1.041774e+00
      vertex   8.953847e+00 1.800000e+01 -1.000000e+00
    endloop
  endfacet
  facet normal 0.000000e+00 -0.000000e+00 1.000000e+00
    outer loop
      vertex   8.953847e+00 1.800000e+01 -1.000000e+00
      vertex   9.000000e+00 1.811253e+01 -1.000000e+00
      vertex   8.000000e+00 1.800000e+01 -1.000000e+00
    endloop
  endfacet
  facet normal 0.000000e+00 0.000000e+00 1.000000e+00
    outer loop
      vertex   8.000000e+00 1.800000e+01 -1.000000e+00
      vertex   9.000000e+00 1.811253e+01 -1.000000e+00
      vertex   8.000000e+00 1.900000e+01 -1.000000e+00
    endloop
  endfacet
  facet normal -0.000000e+00 0.000000e+00 1.000000e+00
    outer loop
      vertex   8.000000e+00 1.900000e+01 -1.000000e+00
      vertex   9.000000e+00 1.811253e+01 -1.000000e+00
      vertex   9.000000e+00 1.900000e+01 -1.000000e+00
    endloop
  endfacet
  facet normal 0.000000e+00 1.000000e+00 -0.000000e+00
    outer loop
      vertex   9.000000e+00 1.900000e+01 -1.285756e+00
      vertex   8.947127e+00 1.900000e+01 -1.317695e+00
      vertex   9.000000e+00 1.900000e+01 -1.000000e+00
    endloop
  endfacet
  facet normal 0.000000e+00 1.000000e+00 0.000000e+00
    outer loop
      vertex   9.000000e+00 1.900000e+01 -1.000000e+00
      vertex   8.947127e+00 1.900000e+01 -1.317695e+00
      vertex   8.893268e+00 1.900000e+01 -1.348192e+00
    endloop
  endfacet
  facet normal 0.000000e+00 1.000000e+00 0.000000e+00
    outer loop
      vertex   9.000000e+00 1.900000e+01 -1.000000e+00
      vertex   8.893268e+00 1.900000e+01 -1.348192e+00
      vertex   8.838469e+00 1.900000e+01 -1.377220e+00
    endloop
  endfacet
  facet normal 0.000000e+00 1.000000e+00 0.000000e+00
    outer loop
      vertex   9.000000e+00 1.900000e+01 -1.000000e+00
      vertex   8.838469e+00 1.900000e+01 -1.377220e+00
      vertex   8.000000e+00 1.900000e+01 -1.000000e+00
    endloop
  endfacet
  facet normal 0.000000e+00 1.000000e+00 0.000000e+00
    outer loop
      vertex   8.000000e+00 1.900000e+01 -1.000000e+00
      vertex   8.838469e+00 1.900000e+01 -1.377220e+00
      vertex   8.782777e+00 1.900000e+01 -1.404755e+00
    endloop
  endfacet
  facet normal 0.000000e+00 1.000000e+00 0.000000e+00
    outer loop
      vertex   8.000000e+00 1.900000e+01 -1.000000e+00
      vertex   8.782777e+00 1.900000e+01 -1.404755e+00
      vertex   8.726240e+00 1.900000e+01 -1.430773e+00
    endloop
  endfacet
  facet normal 0.000000e+00 1.000000e+00 0.000000e+00
    outer loop
      vertex   8.726240e+00 1.900000e+01 -1.430773e+00
      vertex   8.668905e+00 1.900000e+01 -1.455253e+00
      vertex   8.000000e+00 1.900000e+01 -1.000000e+00
    endloop
  endfacet
  facet normal 0.000000e+00 1.000000e+00 0.000000e+00
    outer loop
      vertex   8.000000e+00 1.900000e+01 -1.000000e+00
      vertex   8.668905e+00 1.900000e+01 -1.455253e+00
      vertex   8.610822e+00 1.900000e+01 -1.478172e+00
    endloop
  endfacet
  facet normal 0.000000e+00 1.000000e+00 0.000000e+00
    outer loop
      vertex   8.000000e+00 1.900000e+01 -1.000000e+00
      vertex   8.610822e+00 1.900000e+01 -1.478172e+00
      vertex   8.552041e+00 1.900000e+01 -1.499512e+00
    endloop
  endfacet
  facet normal 0.000000e+00 1.000000e+00 0.000000e+00
    outer loop
      vertex   8.552041e+00 1.900000e+01 -1.499512e+00
      vertex   8.492610e+00 1.900000e+01 -1.519255e+00
      vertex   8.000000e+00 1.900000e+01 -1.000000e+00
    endloop
  endfacet
  facet normal 0.000000e+00 1.000000e+00 0.000000e+00
    outer loop
      vertex   8.000000e+00 1.900000e+01 -1.000000e+00
      vertex   8.492610e+00 1.900000e+01 -1.519255e+00
      vertex   8.432582e+00 1.900000e+01 -1.537383e+00
    endloop
  endfacet
  facet normal 0.000000e+00 1.000000e+00 0.000000e+00
    outer loop
      vertex   8.000000e+00 1.900000e+01 -1.000000e+00
      vertex   8.432582e+00 1.900000e+01 -1.537383e+00
      vertex   8.372008e+00 1.900000e+01 -1.553881e+00
    endloop
  endfacet
  facet normal 0.000000e+00 1.000000e+00 0.000000e+00
    outer loop
      vertex   8.372008e+00 1.900000e+01 -1.553881e+00
      vertex   8.310938e+00 1.900000e+01 -1.568735e+00
      vertex   8.000000e+00 1.900000e+01 -1.000000e+00
    endloop
  endfacet
  facet normal 0.000000e+00 1.000000e+00 0.000000e+00
    outer loop
      vertex   8.000000e+00 1.900000e+01 -1.000000e+00
      vertex   8.310938e+00 1.900000e+01 -1.568735e+00
      vertex   8.249425e+00 1.900000e+01 -1.581932e+00
    endloop
  endfacet
  facet normal 0.000000e+00 1.000000e+00 0.000000e+00
    outer loop
      vertex   8.000000e+00 1.900000e+01 -1.000000e+00
      vertex   8.249425e+00 1.900000e+01 -1.581932e+00
      vertex   8.187522e+00 1.900000e+01 -1.593462e+00
    endloop
  endfacet
  facet normal 0.000000e+00 1.000000e+00 0.000000e+00
    outer loop
      vertex   8.187522e+00 1.900000e+01 -1.593462e+00
      vertex   8.125281e+00 1.900000e+01 -1.603314e+00
      vertex   8.000000e+00 1.900000e+01 -1.000000e+00
    endloop
  endfacet
  facet normal 0.000000e+00 1.000000e+00 0.000000e+00
    outer loop
      vertex   8.000000e+00 1.900000e+01 -1.000000e+00
      vertex   8.125281e+00 1.900000e+01 -1.603314e+00
      vertex   8.062756e+00 1.900000e+01 -1.611479e+00
    endloop
  endfacet
  facet normal 5.601840e-14 1.000000e+00 5.749175e-15
    outer loop
      vertex   8.000000e+00 1.900000e+01 -1.000000e+00
      vertex   8.062756e+00 1.900000e+01 -1.611479e+00
      vertex   8.000000e+00 1.900000e+01 -1.617952e+00
    endloop
  endfacet
  facet normal 1.000000e+00 -0.000000e+00 0.000000e+00
    outer loop
      vertex   9.000000e+00 1.811253e+01 -1.000000e+00
      vertex   9.000000e+00 1.816293e+01 -1.019984e+00
      vertex   9.000000e+00 1.900000e+01 -1.000000e+00
    endloop
  endfacet
  facet normal 1.000000e+00 0.000000e+00 0.000000e+00
    outer loop
      vertex   9.000000e+00 1.900000e+01 -1.000000e+00
      vertex   9.000000e+00 1.816293e+01 -1.019984e+00
      vertex   9.000000e+00 1.821405e+01 -1.039701e+00
    endloop
  endfacet
  facet normal 1.000000e+00 0.000000e+00 0.000000e+00
    outer loop
      vertex   9.000000e+00 1.900000e+01 -1.000000e+00
      vertex   9.000000e+00 1.821405e+01 -1.039701e+00
      vertex   9.000000e+00 1.826589e+01 -1.059148e+00
    endloop
  endfacet
  facet normal 1.000000e+00 -0.000000e+00 0.000000e+00
    outer loop
      vertex   9.000000e+00 1.826589e+01 -1.059148e+00
      vertex   9.000000e+00 1.831843e+01 -1.078321e+00
      vertex   9.000000e+00 1.900000e+01 -1.000000e+00
    endloop
  endfacet
  facet normal 1.000000e+00 0.000000e+00 0.000000e+00
    outer loop
      vertex   9.000000e+00 1.900000e+01 -1.000000e+00
      vertex   9.000000e+00 1.831843e+01 -1.078321e+00
      vertex   9.000000e+00 1.837166e+01 -1.097216e+00
    endloop
  endfacet
  facet normal 1.000000e+00 0.000000e+00 0.000000e+00
    outer loop
      vertex   9.000000e+00 1.900000e+01 -1.000000e+00
      vertex   9.000000e+00 1.837166e+01 -1.097216e+00
      vertex   9.000000e+00 1.842557e+01 -1.115831e+00
    endloop
  endfacet
  facet normal 1.000000e+00 -0.000000e+00 0.000000e+00
    outer loop
      vertex   9.000000e+00 1.842557e+01 -1.115831e+00
      vertex   9.000000e+00 1.848016e+01 -1.134161e+00
      vertex   9.000000e+00 1.900000e+01 -1.000000e+00
    endloop
  endfacet
  facet normal 1.000000e+00 0.000000e+00 0.000000e+00
    outer loop
      vertex   9.000000e+00 1.900000e+01 -1.000000e+00
      vertex   9.000000e+00 1.848016e+01 -1.134161e+00
      vertex   9.000000e+00 1.853542e+01 -1.152202e+00
    endloop
  endfacet
  facet normal 1.000000e+00 0.000000e+00 0.000000e+00
    outer loop
      vertex   9.000000e+00 1.900000e+01 -1.000000e+00
      vertex   9.000000e+00 1.853542e+01 -1.152202e+00
      vertex   9.000000e+00 1.859132e+01 -1.169952e+00
    endloop
  endfacet
  facet normal 1.000000e+00 -0.000000e+00 0.000000e+00
    outer loop
      vertex   9.000000e+00 1.859132e+01 -1.169952e+00
      vertex   9.000000e+00 1.864787e+01 -1.187407e+00
      vertex   9.000000e+00 1.900000e+01 -1.000000e+00
    endloop
  endfacet
  facet normal 1.000000e+00 0.000000e+00 0.000000e+00
    outer loop
      vertex   9.000000e+00 1.900000e+01 -1.000000e+00
      vertex   9.000000e+00 1.864787e+01 -1.187407e+00
      vertex   9.000000e+00 1.870504e+01 -1.204563e+00
    endloop
  endfacet
  facet normal 1.000000e+00 0.000000e+00 0.000000e+00
    outer loop
      vertex   9.000000e+00 1.900000e+01 -1.000000e+00
      vertex   9.000000e+00 1.870504e+01 -1.204563e+00
      vertex   9.000000e+00 1.876284e+01 -1.221418e+00
    endloop
  endfacet
  facet normal 1.000000e+00 -0.000000e+00 0.000000e+00
    outer loop
      vertex   9.000000e+00 1.876284e+01 -1.221418e+00
      vertex   9.000000e+00 1.882124e+01 -1.237968e+00
      vertex   9.000000e+00 1.900000e+01 -1.000000e+00
    endloop
  endfacet
  facet normal 1.000000e+00 0.000000e+00 0.000000e+00
    outer loop
      vertex   9.000000e+00 1.900000e+01 -1.000000e+00
      vertex   9.000000e+00 1.882124e+01 -1.237968e+00
      vertex   9.000000e+00 1.888025e+01 -1.254209e+00
    endloop
  endfacet
  facet normal 1.000000e+00 0.000000e+00 0.000000e+00
    outer loop
      vertex   9.000000e+00 1.900000e+01 -1.000000e+00
      vertex   9.000000e+00 1.888025e+01 -1.254209e+00
      vertex   9.000000e+00 1.893984e+01 -1.270140e+00
    endloop
  endfacet
  facet normal 1.000000e+00 -0.000000e+00 0.000000e+00
    outer loop
      vertex   9.000000e+00 1.893984e+01 -1.270140e+00
      vertex   9.000000e+00 1.900000e+01 -1.285756e+00
      vertex   9.000000e+00 1.900000e+01 -1.000000e+00
    endloop
  endfacet
endsolid
