solid ASCII
  facet normal -5.495376e-01 2.253818e-01 8.044946e-01
    outer loop
      vertex   5.714866e+00 1.700000e+01 2.000000e+00
      vertex   5.660862e+00 1.700000e+01 1.963111e+00
      vertex   5.304736e+00 1.600000e+01 2.000000e+00
    endloop
  endfacet
  facet normal -5.495658e-01 2.253910e-01 8.044727e-01
    outer loop
      vertex   5.304736e+00 1.600000e+01 2.000000e+00
      vertex   5.660862e+00 1.700000e+01 1.963111e+00
      vertex   5.250603e+00 1.600000e+01 1.963020e+00
    endloop
  endfacet
  facet normal -5.723833e-01 2.347538e-01 7.856641e-01
    outer loop
      vertex   5.250603e+00 1.600000e+01 1.963020e+00
      vertex   5.660862e+00 1.700000e+01 1.963111e+00
      vertex   5.608123e+00 1.700000e+01 1.924689e+00
    endloop
  endfacet
  facet normal -5.724661e-01 2.347808e-01 7.855956e-01
    outer loop
      vertex   5.250603e+00 1.600000e+01 1.963020e+00
      vertex   5.608123e+00 1.700000e+01 1.924689e+00
      vertex   5.197741e+00 1.600000e+01 1.924499e+00
    endloop
  endfacet
  facet normal -5.946770e-01 2.438995e-01 7.660759e-01
    outer loop
      vertex   5.197741e+00 1.600000e+01 1.924499e+00
      vertex   5.608123e+00 1.700000e+01 1.924689e+00
      vertex   5.556699e+00 1.700000e+01 1.884770e+00
    endloop
  endfacet
  facet normal -5.948118e-01 2.439431e-01 7.659574e-01
    outer loop
      vertex   5.197741e+00 1.600000e+01 1.924499e+00
      vertex   5.556699e+00 1.700000e+01 1.884770e+00
      vertex   5.146201e+00 1.600000e+01 1.884475e+00
    endloop
  endfacet
  facet normal -6.163972e-01 2.528099e-01 7.457491e-01
    outer loop
      vertex   5.146201e+00 1.600000e+01 1.884475e+00
      vertex   5.556699e+00 1.700000e+01 1.884770e+00
      vertex   5.506639e+00 1.700000e+01 1.843393e+00
    endloop
  endfacet
  facet normal -6.165811e-01 2.528691e-01 7.455769e-01
    outer loop
      vertex   5.146201e+00 1.600000e+01 1.884475e+00
      vertex   5.506639e+00 1.700000e+01 1.843393e+00
      vertex   5.096031e+00 1.600000e+01 1.842986e+00
    endloop
  endfacet
  facet normal -6.375230e-01 2.614765e-01 7.247031e-01
    outer loop
      vertex   5.096031e+00 1.600000e+01 1.842986e+00
      vertex   5.506639e+00 1.700000e+01 1.843393e+00
      vertex   5.457991e+00 1.700000e+01 1.800598e+00
    endloop
  endfacet
  facet normal -6.377531e-01 2.615500e-01 7.244740e-01
    outer loop
      vertex   5.096031e+00 1.600000e+01 1.842986e+00
      vertex   5.457991e+00 1.700000e+01 1.800598e+00
      vertex   5.047282e+00 1.600000e+01 1.800072e+00
    endloop
  endfacet
  facet normal -6.580339e-01 2.698909e-01 7.029582e-01
    outer loop
      vertex   5.047282e+00 1.600000e+01 1.800072e+00
      vertex   5.457991e+00 1.700000e+01 1.800598e+00
      vertex   5.410804e+00 1.700000e+01 1.756426e+00
    endloop
  endfacet
  facet normal -6.583071e-01 2.699776e-01 7.026691e-01
    outer loop
      vertex   5.047282e+00 1.600000e+01 1.800072e+00
      vertex   5.410804e+00 1.700000e+01 1.756426e+00
      vertex   5.000000e+00 1.600000e+01 1.755775e+00
    endloop
  endfacet
  facet normal -6.751130e-01 2.768938e-01 6.837779e-01
    outer loop
      vertex   5.000000e+00 1.600000e+01 1.755775e+00
      vertex   5.410804e+00 1.700000e+01 1.756426e+00
      vertex   5.000000e+00 1.607684e+01 1.724658e+00
    endloop
  endfacet
  facet normal -6.778716e-01 2.782343e-01 6.804967e-01
    outer loop
      vertex   5.000000e+00 1.607684e+01 1.724658e+00
      vertex   5.410804e+00 1.700000e+01 1.756426e+00
      vertex   5.365121e+00 1.700000e+01 1.710920e+00
    endloop
  endfacet
  facet normal -6.886213e-01 2.822987e-01 6.679133e-01
    outer loop
      vertex   5.000000e+00 1.607684e+01 1.724658e+00
      vertex   5.365121e+00 1.700000e+01 1.710920e+00
      vertex   5.000000e+00 1.615192e+01 1.692927e+00
    endloop
  endfacet
  facet normal -6.970822e-01 2.861642e-01 6.574089e-01
    outer loop
      vertex   5.000000e+00 1.615192e+01 1.692927e+00
      vertex   5.365121e+00 1.700000e+01 1.710920e+00
      vertex   5.320988e+00 1.700000e+01 1.664123e+00
    endloop
  endfacet
  facet normal -7.015510e-01 2.876710e-01 6.519751e-01
    outer loop
      vertex   5.000000e+00 1.615192e+01 1.692927e+00
      vertex   5.320988e+00 1.700000e+01 1.664123e+00
      vertex   5.000000e+00 1.622519e+01 1.660596e+00
    endloop
  endfacet
  facet normal -7.141008e-01 2.929438e-01 6.358018e-01
    outer loop
      vertex   5.000000e+00 1.622519e+01 1.660596e+00
      vertex   5.320988e+00 1.700000e+01 1.664123e+00
      vertex   5.000000e+00 1.629663e+01 1.627679e+00
    endloop
  endfacet
  facet normal -7.156345e-01 2.937525e-01 6.337007e-01
    outer loop
      vertex   5.000000e+00 1.629663e+01 1.627679e+00
      vertex   5.320988e+00 1.700000e+01 1.664123e+00
      vertex   5.278447e+00 1.700000e+01 1.616081e+00
    endloop
  endfacet
  facet normal -7.267367e-01 2.979045e-01 6.189562e-01
    outer loop
      vertex   5.000000e+00 1.629663e+01 1.627679e+00
      vertex   5.278447e+00 1.700000e+01 1.616081e+00
      vertex   5.000000e+00 1.636621e+01 1.594192e+00
    endloop
  endfacet
  facet normal -7.334647e-01 3.011920e-01 6.093545e-01
    outer loop
      vertex   5.000000e+00 1.636621e+01 1.594192e+00
      vertex   5.278447e+00 1.700000e+01 1.616081e+00
      vertex   5.237538e+00 1.700000e+01 1.566840e+00
    endloop
  endfacet
  facet normal -7.387459e-01 3.028584e-01 6.021057e-01
    outer loop
      vertex   5.000000e+00 1.636621e+01 1.594192e+00
      vertex   5.237538e+00 1.700000e+01 1.566840e+00
      vertex   5.000000e+00 1.643389e+01 1.560150e+00
    endloop
  endfacet
  facet normal -7.501256e-01 3.078322e-01 5.852785e-01
    outer loop
      vertex   5.000000e+00 1.643389e+01 1.560150e+00
      vertex   5.237538e+00 1.700000e+01 1.566840e+00
      vertex   5.000000e+00 1.649964e+01 1.525568e+00
    endloop
  endfacet
  facet normal -7.506356e-01 3.081417e-01 5.844612e-01
    outer loop
      vertex   5.000000e+00 1.649964e+01 1.525568e+00
      vertex   5.237538e+00 1.700000e+01 1.566840e+00
      vertex   5.198301e+00 1.700000e+01 1.516448e+00
    endloop
  endfacet
  facet normal -7.618771e-01 3.122872e-01 5.674680e-01
    outer loop
      vertex   5.000000e+00 1.649964e+01 1.525568e+00
      vertex   5.198301e+00 1.700000e+01 1.516448e+00
      vertex   5.000000e+00 1.656343e+01 1.490461e+00
    endloop
  endfacet
  facet normal -7.669974e-01 3.151206e-01 5.589401e-01
    outer loop
      vertex   5.000000e+00 1.656343e+01 1.490461e+00
      vertex   5.198301e+00 1.700000e+01 1.516448e+00
      vertex   5.160775e+00 1.700000e+01 1.464953e+00
    endloop
  endfacet
  facet normal -7.729465e-01 3.167736e-01 5.497346e-01
    outer loop
      vertex   5.000000e+00 1.656343e+01 1.490461e+00
      vertex   5.160775e+00 1.700000e+01 1.464953e+00
      vertex   5.000000e+00 1.662524e+01 1.454847e+00
    endloop
  endfacet
  facet normal -7.827194e-01 3.214187e-01 5.329544e-01
    outer loop
      vertex   5.000000e+00 1.662524e+01 1.454847e+00
      vertex   5.160775e+00 1.700000e+01 1.464953e+00
      vertex   5.124994e+00 1.700000e+01 1.412404e+00
    endloop
  endfacet
  facet normal -7.831014e-01 3.214784e-01 5.323569e-01
    outer loop
      vertex   5.000000e+00 1.662524e+01 1.454847e+00
      vertex   5.124994e+00 1.700000e+01 1.412404e+00
      vertex   5.000000e+00 1.668503e+01 1.418741e+00
    endloop
  endfacet
  facet normal -7.938992e-01 3.253874e-01 5.136605e-01
    outer loop
      vertex   5.000000e+00 1.668503e+01 1.418741e+00
      vertex   5.124994e+00 1.700000e+01 1.412404e+00
      vertex   5.000000e+00 1.674278e+01 1.382159e+00
    endloop
  endfacet
  facet normal -7.975149e-01 3.280049e-01 5.063426e-01
    outer loop
      vertex   5.000000e+00 1.674278e+01 1.382159e+00
      vertex   5.124994e+00 1.700000e+01 1.412404e+00
      vertex   5.090995e+00 1.700000e+01 1.358853e+00
    endloop
  endfacet
  facet normal -8.040734e-01 3.292977e-01 4.950040e-01
    outer loop
      vertex   5.000000e+00 1.674278e+01 1.382159e+00
      vertex   5.090995e+00 1.700000e+01 1.358853e+00
      vertex   5.000000e+00 1.679846e+01 1.345118e+00
    endloop
  endfacet
  facet normal -8.116759e-01 3.337981e-01 4.793340e-01
    outer loop
      vertex   5.000000e+00 1.679846e+01 1.345118e+00
      vertex   5.090995e+00 1.700000e+01 1.358853e+00
      vertex   5.058809e+00 1.700000e+01 1.304352e+00
    endloop
  endfacet
  facet normal -8.130046e-01 3.337377e-01 4.771191e-01
    outer loop
      vertex   5.000000e+00 1.679846e+01 1.345118e+00
      vertex   5.058809e+00 1.700000e+01 1.304352e+00
      vertex   5.000000e+00 1.685204e+01 1.307635e+00
    endloop
  endfacet
  facet normal -8.226723e-01 3.371506e-01 4.577552e-01
    outer loop
      vertex   5.000000e+00 1.685204e+01 1.307635e+00
      vertex   5.058809e+00 1.700000e+01 1.304352e+00
      vertex   5.000000e+00 1.690351e+01 1.269728e+00
    endloop
  endfacet
  facet normal -8.246491e-01 3.405493e-01 4.516415e-01
    outer loop
      vertex   5.000000e+00 1.690351e+01 1.269728e+00
      vertex   5.058809e+00 1.700000e+01 1.304352e+00
      vertex   5.028468e+00 1.700000e+01 1.248951e+00
    endloop
  endfacet
  facet normal -8.325387e-01 3.398293e-01 4.374876e-01
    outer loop
      vertex   5.000000e+00 1.690351e+01 1.269728e+00
      vertex   5.028468e+00 1.700000e+01 1.248951e+00
      vertex   5.000000e+00 1.695284e+01 1.231412e+00
    endloop
  endfacet
  facet normal -8.356106e-01 3.455851e-01 4.269964e-01
    outer loop
      vertex   5.000000e+00 1.695284e+01 1.231412e+00
      vertex   5.028468e+00 1.700000e+01 1.248951e+00
      vertex   5.000000e+00 1.697669e+01 1.212107e+00
    endloop
  endfacet
  facet normal -8.351816e-01 3.518299e-01 4.227143e-01
    outer loop
      vertex   5.000000e+00 1.697669e+01 1.212107e+00
      vertex   5.028468e+00 1.700000e+01 1.248951e+00
      vertex   5.000000e+00 1.700000e+01 1.192706e+00
    endloop
  endfacet
  facet normal -0.000000e+00 1.000000e+00 0.000000e+00
    outer loop
      vertex   5.000000e+00 1.700000e+01 1.192706e+00
      vertex   5.028468e+00 1.700000e+01 1.248951e+00
      vertex   5.000000e+00 1.700000e+01 1.000000e+00
    endloop
  endfacet
  facet normal 0.000000e+00 1.000000e+00 0.000000e+00
    outer loop
      vertex   5.000000e+00 1.700000e+01 1.000000e+00
      vertex   5.028468e+00 1.700000e+01 1.248951e+00
      vertex   5.058809e+00 1.700000e+01 1.304352e+00
    endloop
  endfacet
  facet normal 0.000000e+00 1.000000e+00 0.000000e+00
    outer loop
      vertex   5.000000e+00 1.700000e+01 1.000000e+00
      vertex   5.058809e+00 1.700000e+01 1.304352e+00
      vertex   6.000000e+00 1.700000e+01 1.000000e+00
    endloop
  endfacet
  facet normal 0.000000e+00 1.000000e+00 0.000000e+00
    outer loop
      vertex   6.000000e+00 1.700000e+01 1.000000e+00
      vertex   5.058809e+00 1.700000e+01 1.304352e+00
      vertex   5.090995e+00 1.700000e+01 1.358853e+00
    endloop
  endfacet
  facet normal 0.000000e+00 1.000000e+00 0.000000e+00
    outer loop
      vertex   6.000000e+00 1.700000e+01 1.000000e+00
      vertex   5.090995e+00 1.700000e+01 1.358853e+00
      vertex   5.124994e+00 1.700000e+01 1.412404e+00
    endloop
  endfacet
  facet normal -0.000000e+00 1.000000e+00 0.000000e+00
    outer loop
      vertex   5.124994e+00 1.700000e+01 1.412404e+00
      vertex   5.160775e+00 1.700000e+01 1.464953e+00
      vertex   6.000000e+00 1.700000e+01 1.000000e+00
    endloop
  endfacet
  facet normal 0.000000e+00 1.000000e+00 0.000000e+00
    outer loop
      vertex   6.000000e+00 1.700000e+01 1.000000e+00
      vertex   5.160775e+00 1.700000e+01 1.464953e+00
      vertex   5.198301e+00 1.700000e+01 1.516448e+00
    endloop
  endfacet
  facet normal 0.000000e+00 1.000000e+00 0.000000e+00
    outer loop
      vertex   6.000000e+00 1.700000e+01 1.000000e+00
      vertex   5.198301e+00 1.700000e+01 1.516448e+00
      vertex   5.237538e+00 1.700000e+01 1.566840e+00
    endloop
  endfacet
  facet normal -0.000000e+00 1.000000e+00 0.000000e+00
    outer loop
      vertex   5.237538e+00 1.700000e+01 1.566840e+00
      vertex   5.278447e+00 1.700000e+01 1.616081e+00
      vertex   6.000000e+00 1.700000e+01 1.000000e+00
    endloop
  endfacet
  facet normal 0.000000e+00 1.000000e+00 0.000000e+00
    outer loop
      vertex   6.000000e+00 1.700000e+01 1.000000e+00
      vertex   5.278447e+00 1.700000e+01 1.616081e+00
      vertex   5.320988e+00 1.700000e+01 1.664123e+00
    endloop
  endfacet
  facet normal 0.000000e+00 1.000000e+00 0.000000e+00
    outer loop
      vertex   6.000000e+00 1.700000e+01 1.000000e+00
      vertex   5.320988e+00 1.700000e+01 1.664123e+00
      vertex   5.365121e+00 1.700000e+01 1.710920e+00
    endloop
  endfacet
  facet normal -0.000000e+00 1.000000e+00 0.000000e+00
    outer loop
      vertex   5.365121e+00 1.700000e+01 1.710920e+00
      vertex   5.410804e+00 1.700000e+01 1.756426e+00
      vertex   6.000000e+00 1.700000e+01 1.000000e+00
    endloop
  endfacet
  facet normal 0.000000e+00 1.000000e+00 0.000000e+00
    outer loop
      vertex   6.000000e+00 1.700000e+01 1.000000e+00
      vertex   5.410804e+00 1.700000e+01 1.756426e+00
      vertex   5.457991e+00 1.700000e+01 1.800598e+00
    endloop
  endfacet
  facet normal 0.000000e+00 1.000000e+00 0.000000e+00
    outer loop
      vertex   6.000000e+00 1.700000e+01 1.000000e+00
      vertex   5.457991e+00 1.700000e+01 1.800598e+00
      vertex   5.506639e+00 1.700000e+01 1.843393e+00
    endloop
  endfacet
  facet normal -0.000000e+00 1.000000e+00 0.000000e+00
    outer loop
      vertex   5.506639e+00 1.700000e+01 1.843393e+00
      vertex   5.556699e+00 1.700000e+01 1.884770e+00
      vertex   6.000000e+00 1.700000e+01 1.000000e+00
    endloop
  endfacet
  facet normal 0.000000e+00 1.000000e+00 0.000000e+00
    outer loop
      vertex   6.000000e+00 1.700000e+01 1.000000e+00
      vertex   5.556699e+00 1.700000e+01 1.884770e+00
      vertex   5.608123e+00 1.700000e+01 1.924689e+00
    endloop
  endfacet
  facet normal 0.000000e+00 1.000000e+00 -0.000000e+00
    outer loop
      vertex   6.000000e+00 1.700000e+01 1.000000e+00
      vertex   5.608123e+00 1.700000e+01 1.924689e+00
      vertex   6.000000e+00 1.700000e+01 2.000000e+00
    endloop
  endfacet
  facet normal 0.000000e+00 1.000000e+00 0.000000e+00
    outer loop
      vertex   6.000000e+00 1.700000e+01 2.000000e+00
      vertex   5.608123e+00 1.700000e+01 1.924689e+00
      vertex   5.660862e+00 1.700000e+01 1.963111e+00
    endloop
  endfacet
  facet normal 0.000000e+00 1.000000e+00 0.000000e+00
    outer loop
      vertex   6.000000e+00 1.700000e+01 2.000000e+00
      vertex   5.660862e+00 1.700000e+01 1.963111e+00
      vertex   5.714866e+00 1.700000e+01 2.000000e+00
    endloop
  endfacet
  facet normal 0.000000e+00 0.000000e+00 1.000000e+00
    outer loop
      vertex   5.304736e+00 1.600000e+01 2.000000e+00
      vertex   6.000000e+00 1.600000e+01 2.000000e+00
      vertex   5.714866e+00 1.700000e+01 2.000000e+00
    endloop
  endfacet
  facet normal -0.000000e+00 0.000000e+00 1.000000e+00
    outer loop
      vertex   5.714866e+00 1.700000e+01 2.000000e+00
      vertex   6.000000e+00 1.600000e+01 2.000000e+00
      vertex   6.000000e+00 1.700000e+01 2.000000e+00
    endloop
  endfacet
  facet normal 0.000000e+00 0.000000e+00 -1.000000e+00
    outer loop
      vertex   6.000000e+00 1.600000e+01 1.000000e+00
      vertex   5.000000e+00 1.600000e+01 1.000000e+00
      vertex   6.000000e+00 1.700000e+01 1.000000e+00
    endloop
  endfacet
  facet normal -0.000000e+00 0.000000e+00 -1.000000e+00
    outer loop
      vertex   6.000000e+00 1.700000e+01 1.000000e+00
      vertex   5.000000e+00 1.600000e+01 1.000000e+00
      vertex   5.000000e+00 1.700000e+01 1.000000e+00
    endloop
  endfacet
  facet normal 2.554938e-15 -1.000000e+00 0.000000e+00
    outer loop
      vertex   6.000000e+00 1.600000e+01 2.000000e+00
      vertex   5.304736e+00 1.600000e+01 2.000000e+00
      vertex   6.000000e+00 1.600000e+01 1.000000e+00
    endloop
  endfacet
  facet normal -2.142532e-14 -1.000000e+00 -1.667261e-14
    outer loop
      vertex   6.000000e+00 1.600000e+01 1.000000e+00
      vertex   5.304736e+00 1.600000e+01 2.000000e+00
      vertex   5.250603e+00 1.600000e+01 1.963020e+00
    endloop
  endfacet
  facet normal 0.000000e+00 -1.000000e+00 0.000000e+00
    outer loop
      vertex   6.000000e+00 1.600000e+01 1.000000e+00
      vertex   5.250603e+00 1.600000e+01 1.963020e+00
      vertex   5.197741e+00 1.600000e+01 1.924499e+00
    endloop
  endfacet
  facet normal 0.000000e+00 -1.000000e+00 -0.000000e+00
    outer loop
      vertex   5.197741e+00 1.600000e+01 1.924499e+00
      vertex   5.146201e+00 1.600000e+01 1.884475e+00
      vertex   6.000000e+00 1.600000e+01 1.000000e+00
    endloop
  endfacet
  facet normal 0.000000e+00 -1.000000e+00 0.000000e+00
    outer loop
      vertex   6.000000e+00 1.600000e+01 1.000000e+00
      vertex   5.146201e+00 1.600000e+01 1.884475e+00
      vertex   5.096031e+00 1.600000e+01 1.842986e+00
    endloop
  endfacet
  facet normal 0.000000e+00 -1.000000e+00 0.000000e+00
    outer loop
      vertex   6.000000e+00 1.600000e+01 1.000000e+00
      vertex   5.096031e+00 1.600000e+01 1.842986e+00
      vertex   5.000000e+00 1.600000e+01 1.000000e+00
    endloop
  endfacet
  facet normal 0.000000e+00 -1.000000e+00 0.000000e+00
    outer loop
      vertex   5.000000e+00 1.600000e+01 1.000000e+00
      vertex   5.096031e+00 1.600000e+01 1.842986e+00
      vertex   5.047282e+00 1.600000e+01 1.800072e+00
    endloop
  endfacet
  facet normal 3.977141e-14 -1.000000e+00 -2.350379e-15
    outer loop
      vertex   5.000000e+00 1.600000e+01 1.000000e+00
      vertex   5.047282e+00 1.600000e+01 1.800072e+00
      vertex   5.000000e+00 1.600000e+01 1.755775e+00
    endloop
  endfacet
  facet normal -1.000000e+00 0.000000e+00 0.000000e+00
    outer loop
      vertex   5.000000e+00 1.600000e+01 1.755775e+00
      vertex   5.000000e+00 1.607684e+01 1.724658e+00
      vertex   5.000000e+00 1.600000e+01 1.000000e+00
    endloop
  endfacet
  facet normal -1.000000e+00 0.000000e+00 0.000000e+00
    outer loop
      vertex   5.000000e+00 1.600000e+01 1.000000e+00
      vertex   5.000000e+00 1.607684e+01 1.724658e+00
      vertex   5.000000e+00 1.615192e+01 1.692927e+00
    endloop
  endfacet
  facet normal -1.000000e+00 0.000000e+00 0.000000e+00
    outer loop
      vertex   5.000000e+00 1.600000e+01 1.000000e+00
      vertex   5.000000e+00 1.615192e+01 1.692927e+00
      vertex   5.000000e+00 1.622519e+01 1.660596e+00
    endloop
  endfacet
  facet normal -1.000000e+00 0.000000e+00 -0.000000e+00
    outer loop
      vertex   5.000000e+00 1.622519e+01 1.660596e+00
      vertex   5.000000e+00 1.629663e+01 1.627679e+00
      vertex   5.000000e+00 1.600000e+01 1.000000e+00
    endloop
  endfacet
  facet normal -1.000000e+00 0.000000e+00 0.000000e+00
    outer loop
      vertex   5.000000e+00 1.600000e+01 1.000000e+00
      vertex   5.000000e+00 1.629663e+01 1.627679e+00
      vertex   5.000000e+00 1.636621e+01 1.594192e+00
    endloop
  endfacet
  facet normal -1.000000e+00 0.000000e+00 0.000000e+00
    outer loop
      vertex   5.000000e+00 1.600000e+01 1.000000e+00
      vertex   5.000000e+00 1.636621e+01 1.594192e+00
      vertex   5.000000e+00 1.643389e+01 1.560150e+00
    endloop
  endfacet
  facet normal -1.000000e+00 0.000000e+00 -0.000000e+00
    outer loop
      vertex   5.000000e+00 1.643389e+01 1.560150e+00
      vertex   5.000000e+00 1.649964e+01 1.525568e+00
      vertex   5.000000e+00 1.600000e+01 1.000000e+00
    endloop
  endfacet
  facet normal -1.000000e+00 0.000000e+00 0.000000e+00
    outer loop
      vertex   5.000000e+00 1.600000e+01 1.000000e+00
      vertex   5.000000e+00 1.649964e+01 1.525568e+00
      vertex   5.000000e+00 1.656343e+01 1.490461e+00
    endloop
  endfacet
  facet normal -1.000000e+00 0.000000e+00 0.000000e+00
    outer loop
      vertex   5.000000e+00 1.600000e+01 1.000000e+00
      vertex   5.000000e+00 1.656343e+01 1.490461e+00
      vertex   5.000000e+00 1.662524e+01 1.454847e+00
    endloop
  endfacet
  facet normal -1.000000e+00 0.000000e+00 -0.000000e+00
    outer loop
      vertex   5.000000e+00 1.662524e+01 1.454847e+00
      vertex   5.000000e+00 1.668503e+01 1.418741e+00
      vertex   5.000000e+00 1.600000e+01 1.000000e+00
    endloop
  endfacet
  facet normal -1.000000e+00 0.000000e+00 0.000000e+00
    outer loop
      vertex   5.000000e+00 1.600000e+01 1.000000e+00
      vertex   5.000000e+00 1.668503e+01 1.418741e+00
      vertex   5.000000e+00 1.674278e+01 1.382159e+00
    endloop
  endfacet
  facet normal -1.000000e+00 0.000000e+00 0.000000e+00
    outer loop
      vertex   5.000000e+00 1.600000e+01 1.000000e+00
      vertex   5.000000e+00 1.674278e+01 1.382159e+00
      vertex   5.000000e+00 1.679846e+01 1.345118e+00
    endloop
  endfacet
  facet normal -1.000000e+00 0.000000e+00 -0.000000e+00
    outer loop
      vertex   5.000000e+00 1.679846e+01 1.345118e+00
      vertex   5.000000e+00 1.685204e+01 1.307635e+00
      vertex   5.000000e+00 1.600000e+01 1.000000e+00
    endloop
  endfacet
  facet normal -1.000000e+00 0.000000e+00 0.000000e+00
    outer loop
      vertex   5.000000e+00 1.600000e+01 1.000000e+00
      vertex   5.000000e+00 1.685204e+01 1.307635e+00
      vertex   5.000000e+00 1.700000e+01 1.000000e+00
    endloop
  endfacet
  facet normal -1.000000e+00 0.000000e+00 0.000000e+00
    outer loop
      vertex   5.000000e+00 1.700000e+01 1.000000e+00
      vertex   5.000000e+00 1.685204e+01 1.307635e+00
      vertex   5.000000e+00 1.690351e+01 1.269728e+00
    endloop
  endfacet
  facet normal -1.000000e+00 0.000000e+00 0.000000e+00
    outer loop
      vertex   5.000000e+00 1.700000e+01 1.000000e+00
      vertex   5.000000e+00 1.690351e+01 1.269728e+00
      vertex   5.000000e+00 1.695284e+01 1.231412e+00
    endloop
  endfacet
  facet normal -1.000000e+00 0.000000e+00 0.000000e+00
    outer loop
      vertex   5.000000e+00 1.695284e+01 1.231412e+00
      vertex   5.000000e+00 1.697669e+01 1.212107e+00
      vertex   5.000000e+00 1.700000e+01 1.000000e+00
    endloop
  endfacet
  facet normal -1.000000e+00 8.388023e-14 9.217951e-15
    outer loop
      vertex   5.000000e+00 1.700000e+01 1.000000e+00
      vertex   5.000000e+00 1.697669e+01 1.212107e+00
      vertex   5.000000e+00 1.700000e+01 1.192706e+00
    endloop
  endfacet
  facet normal 1.000000e+00 -0.000000e+00 0.000000e+00
    outer loop
      vertex   6.000000e+00 1.600000e+01 2.000000e+00
      vertex   6.000000e+00 1.600000e+01 1.000000e+00
      vertex   6.000000e+00 1.700000e+01 2.000000e+00
    endloop
  endfacet
  facet normal 1.000000e+00 0.000000e+00 0.000000e+00
    outer loop
      vertex   6.000000e+00 1.700000e+01 2.000000e+00
      vertex   6.000000e+00 1.600000e+01 1.000000e+00
      vertex   6.000000e+00 1.700000e+01 1.000000e+00
    endloop
  endfacet
endsolid
